ISO-10303-21;
HEADER;

/* File generated by Shapr3D Version 5.980.9717.0 */

FILE_DESCRIPTION(('HOOPS Exchange Step'),'2;1');

FILE_NAME('C:\\Users\\13271\\AppData\\Local\\Packages\\Shapr3D.Shapr3D_j403pzjkqtqbj\\TempState\\export\\temp_export',
'2025-11-04T19:36:22+08:00',
('13271'),
('Shapr3D Limited'),
'HOOPS Exchange 2025.5',
'Shapr3D',
'Authorized');

FILE_SCHEMA( ('AP242_MANAGED_MODEL_BASED_3D_ENGINEERING_MIM_LF {1 0 10303 442 1 1 4}') );

ENDSEC;

DATA;
#3=(NAMED_UNIT(*)PLANE_ANGLE_UNIT()SI_UNIT($,.RADIAN.));
#4=PLANE_ANGLE_MEASURE_WITH_UNIT(PLANE_ANGLE_MEASURE(0.0174532925),#3);
#5=(CONVERSION_BASED_UNIT('DEGREE',#4)NAMED_UNIT(#6)PLANE_ANGLE_UNIT());
#6=DIMENSIONAL_EXPONENTS(0.,0.,0.,0.,0.,0.,0.);
#7=(NAMED_UNIT(*)SI_UNIT($,.STERADIAN.)SOLID_ANGLE_UNIT());
#8=(LENGTH_UNIT()NAMED_UNIT(*)SI_UNIT(.MILLI.,.METRE.));
#9=UNCERTAINTY_MEASURE_WITH_UNIT(LENGTH_MEASURE(1.000000E-03),#8,'DISTANCE_ACCURACY_VALUE','Maximum Tolerance applied to model');
#10=(GEOMETRIC_REPRESENTATION_CONTEXT(3)GLOBAL_UNCERTAINTY_ASSIGNED_CONTEXT((#9))GLOBAL_UNIT_ASSIGNED_CONTEXT((#8,#5,#7))REPRESENTATION_CONTEXT('','root'));
#12=CARTESIAN_POINT('',(0.,0.,0.));
#13=DIRECTION('',(0.,0.,1.));
#14=DIRECTION('',(1.,0.,0.));
#15=AXIS2_PLACEMENT_3D('',#12,#13,#14);
#26=(NAMED_UNIT(*)PLANE_ANGLE_UNIT()SI_UNIT($,.RADIAN.));
#27=PLANE_ANGLE_MEASURE_WITH_UNIT(PLANE_ANGLE_MEASURE(0.0174532925),#26);
#28=(CONVERSION_BASED_UNIT('DEGREE',#27)NAMED_UNIT(#29)PLANE_ANGLE_UNIT());
#29=DIMENSIONAL_EXPONENTS(0.,0.,0.,0.,0.,0.,0.);
#30=(NAMED_UNIT(*)SI_UNIT($,.STERADIAN.)SOLID_ANGLE_UNIT());
#31=(LENGTH_UNIT()NAMED_UNIT(*)SI_UNIT(.MILLI.,.METRE.));
#32=UNCERTAINTY_MEASURE_WITH_UNIT(LENGTH_MEASURE(1.000000E-05),#31,'DISTANCE_ACCURACY_VALUE','Maximum Tolerance applied to model');
#33=(GEOMETRIC_REPRESENTATION_CONTEXT(3)GLOBAL_UNCERTAINTY_ASSIGNED_CONTEXT((#32))GLOBAL_UNIT_ASSIGNED_CONTEXT((#31,#28,#30))REPRESENTATION_CONTEXT('','main_frame'));
#45=CARTESIAN_POINT('',(0.,0.,0.));
#46=DIRECTION('',(0.,0.,1.));
#47=DIRECTION('',(1.,0.,-0.));
#48=AXIS2_PLACEMENT_3D('',#45,#46,#47);
#49=ITEM_DEFINED_TRANSFORMATION('','',#48,#15);
#50=(REPRESENTATION_RELATIONSHIP('','',#35,#16)REPRESENTATION_RELATIONSHIP_WITH_TRANSFORMATION(#49)SHAPE_REPRESENTATION_RELATIONSHIP());
#51=NEXT_ASSEMBLY_USAGE_OCCURRENCE('main_frame_1','main_frame','main_frame',#25,#44,$);
#52=PRODUCT_DEFINITION_SHAPE('','',#51);
#53=CONTEXT_DEPENDENT_SHAPE_REPRESENTATION(#50,#52);
#55=CARTESIAN_POINT('',(0.,0.1,7.46074058));
#56=DIRECTION('',(0.,-0.,1.));
#57=DIRECTION('',(0.,-1.,-0.));
#58=AXIS2_PLACEMENT_3D('',#55,#56,#57);
#59=PLANE('',#58);
#60=CARTESIAN_POINT('',(-132.223091316,-3.854271268,7.46074058));
#61=VERTEX_POINT('',#60);
#62=CARTESIAN_POINT('',(-132.223091316,9.643990043,7.46074058));
#63=VERTEX_POINT('',#62);
#64=CARTESIAN_POINT('',(-132.223091316,-3.854271268,7.46074058));
#65=DIRECTION('',(0.,1.,0.));
#66=VECTOR('',#65,13.498261311);
#67=LINE('',#64,#66);
#68=EDGE_CURVE('',#61,#63,#67,.T.);
#69=ORIENTED_EDGE('',*,*,#68,.T.);
#70=CARTESIAN_POINT('',(-132.823091316,10.243990043,7.46074058));
#71=VERTEX_POINT('',#70);
#72=CARTESIAN_POINT('',(-132.823091316,9.643990043,7.46074058));
#73=DIRECTION('',(0.,-0.,1.));
#74=DIRECTION('',(0.,-1.,-0.));
#75=AXIS2_PLACEMENT_3D('',#72,#73,#74);
#76=CIRCLE('',#75,0.6);
#77=EDGE_CURVE('',#63,#71,#76,.T.);
#78=ORIENTED_EDGE('',*,*,#77,.T.);
#79=CARTESIAN_POINT('',(-141.023091316,10.243990043,7.46074058));
#80=VERTEX_POINT('',#79);
#81=CARTESIAN_POINT('',(-132.823091316,10.243990043,7.46074058));
#82=DIRECTION('',(-1.,0.,0.));
#83=VECTOR('',#82,8.2);
#84=LINE('',#81,#83);
#85=EDGE_CURVE('',#71,#80,#84,.T.);
#86=ORIENTED_EDGE('',*,*,#85,.T.);
#87=CARTESIAN_POINT('',(-141.823091316,9.443990043,7.46074058));
#88=VERTEX_POINT('',#87);
#89=CARTESIAN_POINT('',(-141.023091316,9.443990043,7.46074058));
#90=DIRECTION('',(0.,-0.,1.));
#91=DIRECTION('',(0.,-1.,-0.));
#92=AXIS2_PLACEMENT_3D('',#89,#90,#91);
#93=CIRCLE('',#92,0.8);
#94=EDGE_CURVE('',#80,#88,#93,.T.);
#95=ORIENTED_EDGE('',*,*,#94,.T.);
#96=CARTESIAN_POINT('',(-141.823091316,-3.654271268,7.46074058));
#97=VERTEX_POINT('',#96);
#98=CARTESIAN_POINT('',(-141.823091316,9.443990043,7.46074058));
#99=DIRECTION('',(0.,-1.,-0.));
#100=VECTOR('',#99,13.098261311);
#101=LINE('',#98,#100);
#102=EDGE_CURVE('',#88,#97,#101,.T.);
#103=ORIENTED_EDGE('',*,*,#102,.T.);
#104=CARTESIAN_POINT('',(-141.023091316,-4.454271268,7.46074058));
#105=VERTEX_POINT('',#104);
#106=CARTESIAN_POINT('',(-141.023091316,-3.654271268,7.46074058));
#107=DIRECTION('',(0.,-0.,1.));
#108=DIRECTION('',(0.,-1.,-0.));
#109=AXIS2_PLACEMENT_3D('',#106,#107,#108);
#110=CIRCLE('',#109,0.8);
#111=EDGE_CURVE('',#97,#105,#110,.T.);
#112=ORIENTED_EDGE('',*,*,#111,.T.);
#113=CARTESIAN_POINT('',(-132.823091316,-4.454271268,7.46074058));
#114=VERTEX_POINT('',#113);
#115=CARTESIAN_POINT('',(-141.023091316,-4.454271268,7.46074058));
#116=DIRECTION('',(1.,0.,-0.));
#117=VECTOR('',#116,8.2);
#118=LINE('',#115,#117);
#119=EDGE_CURVE('',#105,#114,#118,.T.);
#120=ORIENTED_EDGE('',*,*,#119,.T.);
#121=CARTESIAN_POINT('',(-132.823091316,-3.854271268,7.46074058));
#122=DIRECTION('',(0.,-0.,1.));
#123=DIRECTION('',(0.,-1.,-0.));
#124=AXIS2_PLACEMENT_3D('',#121,#122,#123);
#125=CIRCLE('',#124,0.6);
#126=EDGE_CURVE('',#114,#61,#125,.T.);
#127=ORIENTED_EDGE('',*,*,#126,.T.);
#128=EDGE_LOOP('',(#69,#78,#86,#95,#103,#112,#120,#127));
#129=FACE_BOUND('',#128,.T.);
#130=CARTESIAN_POINT('',(-137.011545658,-1.642203265,7.46074058));
#131=VERTEX_POINT('',#130);
#132=CARTESIAN_POINT('',(-137.011545658,7.357796735,7.46074058));
#133=VERTEX_POINT('',#132);
#134=CARTESIAN_POINT('',(-137.011545658,-1.642203265,7.46074058));
#135=DIRECTION('',(0.,1.,0.));
#136=VECTOR('',#135,9.);
#137=LINE('',#134,#136);
#138=EDGE_CURVE('',#131,#133,#137,.T.);
#139=ORIENTED_EDGE('',*,*,#138,.T.);
#140=CARTESIAN_POINT('',(-136.511545658,7.857796735,7.46074058));
#141=VERTEX_POINT('',#140);
#142=CARTESIAN_POINT('',(-136.511545658,7.357796735,7.46074058));
#143=DIRECTION('',(-0.,0.,-1.));
#144=DIRECTION('',(0.,-1.,-0.));
#145=AXIS2_PLACEMENT_3D('',#142,#143,#144);
#146=CIRCLE('',#145,0.5);
#147=EDGE_CURVE('',#133,#141,#146,.T.);
#148=ORIENTED_EDGE('',*,*,#147,.T.);
#149=CARTESIAN_POINT('',(-136.011545658,7.357796735,7.46074058));
#150=VERTEX_POINT('',#149);
#151=CARTESIAN_POINT('',(-136.511545658,7.357796735,7.46074058));
#152=DIRECTION('',(-0.,0.,-1.));
#153=DIRECTION('',(0.,-1.,-0.));
#154=AXIS2_PLACEMENT_3D('',#151,#152,#153);
#155=CIRCLE('',#154,0.5);
#156=EDGE_CURVE('',#141,#150,#155,.T.);
#157=ORIENTED_EDGE('',*,*,#156,.T.);
#158=CARTESIAN_POINT('',(-136.011545658,-1.642203265,7.46074058));
#159=VERTEX_POINT('',#158);
#160=CARTESIAN_POINT('',(-136.011545658,7.357796735,7.46074058));
#161=DIRECTION('',(0.,-1.,-0.));
#162=VECTOR('',#161,9.);
#163=LINE('',#160,#162);
#164=EDGE_CURVE('',#150,#159,#163,.T.);
#165=ORIENTED_EDGE('',*,*,#164,.T.);
#166=CARTESIAN_POINT('',(-136.511545658,-2.142203265,7.46074058));
#167=VERTEX_POINT('',#166);
#168=CARTESIAN_POINT('',(-136.511545658,-1.642203265,7.46074058));
#169=DIRECTION('',(-0.,0.,-1.));
#170=DIRECTION('',(0.,-1.,-0.));
#171=AXIS2_PLACEMENT_3D('',#168,#169,#170);
#172=CIRCLE('',#171,0.5);
#173=EDGE_CURVE('',#159,#167,#172,.T.);
#174=ORIENTED_EDGE('',*,*,#173,.T.);
#175=CARTESIAN_POINT('',(-136.511545658,-1.642203265,7.46074058));
#176=DIRECTION('',(-0.,0.,-1.));
#177=DIRECTION('',(0.,-1.,-0.));
#178=AXIS2_PLACEMENT_3D('',#175,#176,#177);
#179=CIRCLE('',#178,0.5);
#180=EDGE_CURVE('',#167,#131,#179,.T.);
#181=ORIENTED_EDGE('',*,*,#180,.T.);
#182=EDGE_LOOP('',(#139,#148,#157,#165,#174,#181));
#183=FACE_BOUND('',#182,.T.);
#184=ADVANCED_FACE('',(#129,#183),#59,.T.);
#185=CARTESIAN_POINT('',(0.,0.1,6.46074058));
#186=DIRECTION('',(0.,-0.,1.));
#187=DIRECTION('',(-1.,0.,0.));
#188=AXIS2_PLACEMENT_3D('',#185,#186,#187);
#189=PLANE('',#188);
#190=CARTESIAN_POINT('',(-134.023091316,-1.954271268,6.46074058));
#191=VERTEX_POINT('',#190);
#192=CARTESIAN_POINT('',(-141.023091316,-1.954271268,6.46074058));
#193=VERTEX_POINT('',#192);
#194=CARTESIAN_POINT('',(-134.023091316,-1.954271268,6.46074058));
#195=DIRECTION('',(-1.,0.,0.));
#196=VECTOR('',#195,7.);
#197=LINE('',#194,#196);
#198=EDGE_CURVE('',#191,#193,#197,.T.);
#199=ORIENTED_EDGE('',*,*,#198,.F.);
#200=CARTESIAN_POINT('',(-133.023091316,-0.954271268,6.46074058));
#201=VERTEX_POINT('',#200);
#202=CARTESIAN_POINT('',(-134.023091316,-0.954271268,6.46074058));
#203=DIRECTION('',(0.,-0.,1.));
#204=DIRECTION('',(0.,-1.,-0.));
#205=AXIS2_PLACEMENT_3D('',#202,#203,#204);
#206=CIRCLE('',#205,1.);
#207=EDGE_CURVE('',#191,#201,#206,.T.);
#208=ORIENTED_EDGE('',*,*,#207,.T.);
#209=CARTESIAN_POINT('',(-133.023091316,7.245728732,6.46074058));
#210=VERTEX_POINT('',#209);
#211=CARTESIAN_POINT('',(-133.023091316,-0.954271268,6.46074058));
#212=DIRECTION('',(0.,1.,0.));
#213=VECTOR('',#212,8.2);
#214=LINE('',#211,#213);
#215=EDGE_CURVE('',#201,#210,#214,.T.);
#216=ORIENTED_EDGE('',*,*,#215,.T.);
#217=CARTESIAN_POINT('',(-134.023091316,8.245728732,6.46074058));
#218=VERTEX_POINT('',#217);
#219=CARTESIAN_POINT('',(-134.023091316,7.245728732,6.46074058));
#220=DIRECTION('',(0.,-0.,1.));
#221=DIRECTION('',(0.,-1.,-0.));
#222=AXIS2_PLACEMENT_3D('',#219,#220,#221);
#223=CIRCLE('',#222,1.);
#224=EDGE_CURVE('',#210,#218,#223,.T.);
#225=ORIENTED_EDGE('',*,*,#224,.T.);
#226=CARTESIAN_POINT('',(-141.023091316,8.245728732,6.46074058));
#227=VERTEX_POINT('',#226);
#228=CARTESIAN_POINT('',(-141.023091316,8.245728732,6.46074058));
#229=DIRECTION('',(1.,0.,-0.));
#230=VECTOR('',#229,7.);
#231=LINE('',#228,#230);
#232=EDGE_CURVE('',#227,#218,#231,.T.);
#233=ORIENTED_EDGE('',*,*,#232,.F.);
#234=CARTESIAN_POINT('',(-142.023091316,7.245728732,6.46074058));
#235=VERTEX_POINT('',#234);
#236=CARTESIAN_POINT('',(-141.023091316,7.245728732,6.46074058));
#237=DIRECTION('',(0.,-0.,1.));
#238=DIRECTION('',(0.,-1.,-0.));
#239=AXIS2_PLACEMENT_3D('',#236,#237,#238);
#240=CIRCLE('',#239,1.);
#241=EDGE_CURVE('',#227,#235,#240,.T.);
#242=ORIENTED_EDGE('',*,*,#241,.T.);
#243=CARTESIAN_POINT('',(-142.023091316,9.443990043,6.46074058));
#244=VERTEX_POINT('',#243);
#245=CARTESIAN_POINT('',(-142.023091316,7.245728732,6.46074058));
#246=DIRECTION('',(0.,1.,0.));
#247=VECTOR('',#246,2.198261311);
#248=LINE('',#245,#247);
#249=EDGE_CURVE('',#235,#244,#248,.T.);
#250=ORIENTED_EDGE('',*,*,#249,.T.);
#251=CARTESIAN_POINT('',(-141.023091316,10.443990043,6.46074058));
#252=VERTEX_POINT('',#251);
#253=CARTESIAN_POINT('',(-141.023091316,9.443990043,6.46074058));
#254=DIRECTION('',(-0.,0.,-1.));
#255=DIRECTION('',(0.,-1.,-0.));
#256=AXIS2_PLACEMENT_3D('',#253,#254,#255);
#257=CIRCLE('',#256,1.);
#258=EDGE_CURVE('',#244,#252,#257,.T.);
#259=ORIENTED_EDGE('',*,*,#258,.T.);
#260=CARTESIAN_POINT('',(-132.823092642,10.443990043,6.46074058));
#261=VERTEX_POINT('',#260);
#262=CARTESIAN_POINT('',(-141.023091316,10.443990043,6.46074058));
#263=DIRECTION('',(1.,0.,-0.));
#264=VECTOR('',#263,8.199998674);
#265=LINE('',#262,#264);
#266=EDGE_CURVE('',#252,#261,#265,.T.);
#267=ORIENTED_EDGE('',*,*,#266,.T.);
#268=CARTESIAN_POINT('',(-132.023091316,9.643990043,6.46074058));
#269=VERTEX_POINT('',#268);
#270=CARTESIAN_POINT('',(-132.823091316,9.643990043,6.46074058));
#271=DIRECTION('',(-0.,0.,-1.));
#272=DIRECTION('',(0.,-1.,-0.));
#273=AXIS2_PLACEMENT_3D('',#270,#271,#272);
#274=CIRCLE('',#273,0.8);
#275=EDGE_CURVE('',#261,#269,#274,.T.);
#276=ORIENTED_EDGE('',*,*,#275,.T.);
#277=CARTESIAN_POINT('',(-132.023091316,-3.854269942,6.46074058));
#278=VERTEX_POINT('',#277);
#279=CARTESIAN_POINT('',(-132.023091316,9.643990043,6.46074058));
#280=DIRECTION('',(0.,-1.,-0.));
#281=VECTOR('',#280,13.498259984);
#282=LINE('',#279,#281);
#283=EDGE_CURVE('',#269,#278,#282,.T.);
#284=ORIENTED_EDGE('',*,*,#283,.T.);
#285=CARTESIAN_POINT('',(-132.823091316,-4.654271268,6.46074058));
#286=VERTEX_POINT('',#285);
#287=CARTESIAN_POINT('',(-132.823091316,-3.854271268,6.46074058));
#288=DIRECTION('',(-0.,0.,-1.));
#289=DIRECTION('',(0.,-1.,-0.));
#290=AXIS2_PLACEMENT_3D('',#287,#288,#289);
#291=CIRCLE('',#290,0.8);
#292=EDGE_CURVE('',#278,#286,#291,.T.);
#293=ORIENTED_EDGE('',*,*,#292,.T.);
#294=CARTESIAN_POINT('',(-141.023091316,-4.654271268,6.46074058));
#295=VERTEX_POINT('',#294);
#296=CARTESIAN_POINT('',(-132.823091316,-4.654271268,6.46074058));
#297=DIRECTION('',(-1.,0.,0.));
#298=VECTOR('',#297,8.2);
#299=LINE('',#296,#298);
#300=EDGE_CURVE('',#286,#295,#299,.T.);
#301=ORIENTED_EDGE('',*,*,#300,.T.);
#302=CARTESIAN_POINT('',(-142.023091316,-3.654271268,6.46074058));
#303=VERTEX_POINT('',#302);
#304=CARTESIAN_POINT('',(-141.023091316,-3.654271268,6.46074058));
#305=DIRECTION('',(-0.,0.,-1.));
#306=DIRECTION('',(0.,-1.,-0.));
#307=AXIS2_PLACEMENT_3D('',#304,#305,#306);
#308=CIRCLE('',#307,1.);
#309=EDGE_CURVE('',#295,#303,#308,.T.);
#310=ORIENTED_EDGE('',*,*,#309,.T.);
#311=CARTESIAN_POINT('',(-142.023091316,-0.954271268,6.46074058));
#312=VERTEX_POINT('',#311);
#313=CARTESIAN_POINT('',(-142.023091316,-3.654271268,6.46074058));
#314=DIRECTION('',(0.,1.,0.));
#315=VECTOR('',#314,2.7);
#316=LINE('',#313,#315);
#317=EDGE_CURVE('',#303,#312,#316,.T.);
#318=ORIENTED_EDGE('',*,*,#317,.T.);
#319=CARTESIAN_POINT('',(-141.023091316,-0.954271268,6.46074058));
#320=DIRECTION('',(0.,-0.,1.));
#321=DIRECTION('',(0.,-1.,-0.));
#322=AXIS2_PLACEMENT_3D('',#319,#320,#321);
#323=CIRCLE('',#322,1.);
#324=EDGE_CURVE('',#312,#193,#323,.T.);
#325=ORIENTED_EDGE('',*,*,#324,.T.);
#326=EDGE_LOOP('',(#199,#208,#216,#225,#233,#242,#250,#259,#267,#276,#284,#293,#301,#310,#318,#325));
#327=FACE_BOUND('',#326,.T.);
#328=ADVANCED_FACE('',(#327),#189,.F.);
#329=CARTESIAN_POINT('',(-142.023091316,2.145728732,6.46074058));
#330=DIRECTION('',(1.,0.,0.));
#331=DIRECTION('',(0.,0.,-1.));
#332=AXIS2_PLACEMENT_3D('',#329,#330,#331);
#333=PLANE('',#332);
#334=CARTESIAN_POINT('',(-142.023091316,-3.654271268,7.26074058));
#335=VERTEX_POINT('',#334);
#336=CARTESIAN_POINT('',(-142.023091316,-3.654271268,6.46074058));
#337=DIRECTION('',(-0.,-0.,1.));
#338=VECTOR('',#337,0.8);
#339=LINE('',#336,#338);
#340=EDGE_CURVE('',#303,#335,#339,.T.);
#341=ORIENTED_EDGE('',*,*,#340,.T.);
#342=CARTESIAN_POINT('',(-142.023091316,9.443990043,7.26074058));
#343=VERTEX_POINT('',#342);
#344=CARTESIAN_POINT('',(-142.023091316,-3.654271268,7.26074058));
#345=DIRECTION('',(0.,1.,0.));
#346=VECTOR('',#345,13.098261311);
#347=LINE('',#344,#346);
#348=EDGE_CURVE('',#335,#343,#347,.T.);
#349=ORIENTED_EDGE('',*,*,#348,.T.);
#350=CARTESIAN_POINT('',(-142.023091316,9.443990043,7.26074058));
#351=DIRECTION('',(0.,0.,-1.));
#352=VECTOR('',#351,0.8);
#353=LINE('',#350,#352);
#354=EDGE_CURVE('',#343,#244,#353,.T.);
#355=ORIENTED_EDGE('',*,*,#354,.T.);
#356=ORIENTED_EDGE('',*,*,#249,.F.);
#357=CARTESIAN_POINT('',(-142.023091316,7.245728732,5.46074058));
#358=VERTEX_POINT('',#357);
#359=CARTESIAN_POINT('',(-142.023091316,7.245728732,6.46074058));
#360=DIRECTION('',(0.,0.,-1.));
#361=VECTOR('',#360,1.);
#362=LINE('',#359,#361);
#363=EDGE_CURVE('',#235,#358,#362,.T.);
#364=ORIENTED_EDGE('',*,*,#363,.T.);
#365=CARTESIAN_POINT('',(-142.023091316,-0.954271268,5.46074058));
#366=VERTEX_POINT('',#365);
#367=CARTESIAN_POINT('',(-142.023091316,7.245728732,5.46074058));
#368=DIRECTION('',(0.,-1.,-0.));
#369=VECTOR('',#368,8.2);
#370=LINE('',#367,#369);
#371=EDGE_CURVE('',#358,#366,#370,.T.);
#372=ORIENTED_EDGE('',*,*,#371,.T.);
#373=CARTESIAN_POINT('',(-142.023091316,-0.954271268,5.46074058));
#374=DIRECTION('',(-0.,-0.,1.));
#375=VECTOR('',#374,1.);
#376=LINE('',#373,#375);
#377=EDGE_CURVE('',#366,#312,#376,.T.);
#378=ORIENTED_EDGE('',*,*,#377,.T.);
#379=ORIENTED_EDGE('',*,*,#317,.F.);
#380=EDGE_LOOP('',(#341,#349,#355,#356,#364,#372,#378,#379));
#381=FACE_BOUND('',#380,.T.);
#382=ADVANCED_FACE('',(#381),#333,.F.);
#383=CARTESIAN_POINT('',(0.,0.1,5.26074058));
#384=DIRECTION('',(0.,0.,-1.));
#385=DIRECTION('',(-1.,0.,0.));
#386=AXIS2_PLACEMENT_3D('',#383,#384,#385);
#387=PLANE('',#386);
#388=CARTESIAN_POINT('',(-133.223091316,7.245728732,5.26074058));
#389=VERTEX_POINT('',#388);
#390=CARTESIAN_POINT('',(-133.223091316,-0.954271268,5.26074058));
#391=VERTEX_POINT('',#390);
#392=CARTESIAN_POINT('',(-133.223091316,7.245728732,5.26074058));
#393=DIRECTION('',(0.,-1.,-0.));
#394=VECTOR('',#393,8.2);
#395=LINE('',#392,#394);
#396=EDGE_CURVE('',#389,#391,#395,.T.);
#397=ORIENTED_EDGE('',*,*,#396,.T.);
#398=CARTESIAN_POINT('',(-134.023091316,-1.754271268,5.26074058));
#399=VERTEX_POINT('',#398);
#400=CARTESIAN_POINT('',(-134.023091316,-0.954271268,5.26074058));
#401=DIRECTION('',(0.,0.,-1.));
#402=DIRECTION('',(0.,1.,0.));
#403=AXIS2_PLACEMENT_3D('',#400,#401,#402);
#404=CIRCLE('',#403,0.8);
#405=EDGE_CURVE('',#391,#399,#404,.T.);
#406=ORIENTED_EDGE('',*,*,#405,.T.);
#407=CARTESIAN_POINT('',(-141.023091316,-1.754271268,5.26074058));
#408=VERTEX_POINT('',#407);
#409=CARTESIAN_POINT('',(-134.023091316,-1.754271268,5.26074058));
#410=DIRECTION('',(-1.,0.,0.));
#411=VECTOR('',#410,7.);
#412=LINE('',#409,#411);
#413=EDGE_CURVE('',#399,#408,#412,.T.);
#414=ORIENTED_EDGE('',*,*,#413,.T.);
#415=CARTESIAN_POINT('',(-141.823091316,-0.954271268,5.26074058));
#416=VERTEX_POINT('',#415);
#417=CARTESIAN_POINT('',(-141.023091316,-0.954271268,5.26074058));
#418=DIRECTION('',(0.,0.,-1.));
#419=DIRECTION('',(0.,1.,0.));
#420=AXIS2_PLACEMENT_3D('',#417,#418,#419);
#421=CIRCLE('',#420,0.8);
#422=EDGE_CURVE('',#408,#416,#421,.T.);
#423=ORIENTED_EDGE('',*,*,#422,.T.);
#424=CARTESIAN_POINT('',(-141.823091316,7.245728732,5.26074058));
#425=VERTEX_POINT('',#424);
#426=CARTESIAN_POINT('',(-141.823091316,-0.954271268,5.26074058));
#427=DIRECTION('',(0.,1.,0.));
#428=VECTOR('',#427,8.2);
#429=LINE('',#426,#428);
#430=EDGE_CURVE('',#416,#425,#429,.T.);
#431=ORIENTED_EDGE('',*,*,#430,.T.);
#432=CARTESIAN_POINT('',(-141.023091316,8.045728732,5.26074058));
#433=VERTEX_POINT('',#432);
#434=CARTESIAN_POINT('',(-141.023091316,7.245728732,5.26074058));
#435=DIRECTION('',(0.,0.,-1.));
#436=DIRECTION('',(0.,1.,0.));
#437=AXIS2_PLACEMENT_3D('',#434,#435,#436);
#438=CIRCLE('',#437,0.8);
#439=EDGE_CURVE('',#425,#433,#438,.T.);
#440=ORIENTED_EDGE('',*,*,#439,.T.);
#441=CARTESIAN_POINT('',(-134.023091316,8.045728732,5.26074058));
#442=VERTEX_POINT('',#441);
#443=CARTESIAN_POINT('',(-141.023091316,8.045728732,5.26074058));
#444=DIRECTION('',(1.,0.,-0.));
#445=VECTOR('',#444,7.);
#446=LINE('',#443,#445);
#447=EDGE_CURVE('',#433,#442,#446,.T.);
#448=ORIENTED_EDGE('',*,*,#447,.T.);
#449=CARTESIAN_POINT('',(-134.023091316,7.245728732,5.26074058));
#450=DIRECTION('',(0.,0.,-1.));
#451=DIRECTION('',(0.,1.,0.));
#452=AXIS2_PLACEMENT_3D('',#449,#450,#451);
#453=CIRCLE('',#452,0.8);
#454=EDGE_CURVE('',#442,#389,#453,.T.);
#455=ORIENTED_EDGE('',*,*,#454,.T.);
#456=EDGE_LOOP('',(#397,#406,#414,#423,#431,#440,#448,#455));
#457=FACE_BOUND('',#456,.T.);
#458=ADVANCED_FACE('',(#457),#387,.T.);
#459=CARTESIAN_POINT('',(-137.023091316,-4.654271268,6.46074058));
#460=DIRECTION('',(0.,1.,0.));
#461=DIRECTION('',(0.,-0.,1.));
#462=AXIS2_PLACEMENT_3D('',#459,#460,#461);
#463=PLANE('',#462);
#464=CARTESIAN_POINT('',(-132.823091316,-4.654271268,7.26074058));
#465=VERTEX_POINT('',#464);
#466=CARTESIAN_POINT('',(-132.823091316,-4.654271268,7.26074058));
#467=DIRECTION('',(0.,0.,-1.));
#468=VECTOR('',#467,0.8);
#469=LINE('',#466,#468);
#470=EDGE_CURVE('',#465,#286,#469,.T.);
#471=ORIENTED_EDGE('',*,*,#470,.F.);
#472=CARTESIAN_POINT('',(-141.023091316,-4.654271268,7.26074058));
#473=VERTEX_POINT('',#472);
#474=CARTESIAN_POINT('',(-132.823091316,-4.654271268,7.26074058));
#475=DIRECTION('',(-1.,0.,0.));
#476=VECTOR('',#475,8.2);
#477=LINE('',#474,#476);
#478=EDGE_CURVE('',#465,#473,#477,.T.);
#479=ORIENTED_EDGE('',*,*,#478,.T.);
#480=CARTESIAN_POINT('',(-141.023091316,-4.654271268,7.26074058));
#481=DIRECTION('',(0.,0.,-1.));
#482=VECTOR('',#481,0.8);
#483=LINE('',#480,#482);
#484=EDGE_CURVE('',#473,#295,#483,.T.);
#485=ORIENTED_EDGE('',*,*,#484,.T.);
#486=ORIENTED_EDGE('',*,*,#300,.F.);
#487=EDGE_LOOP('',(#471,#479,#485,#486));
#488=FACE_BOUND('',#487,.T.);
#489=ADVANCED_FACE('',(#488),#463,.F.);
#490=CARTESIAN_POINT('',(-137.023091316,8.245728732,6.46074058));
#491=DIRECTION('',(0.,-1.,-0.));
#492=DIRECTION('',(0.,0.,-1.));
#493=AXIS2_PLACEMENT_3D('',#490,#491,#492);
#494=PLANE('',#493);
#495=CARTESIAN_POINT('',(-134.023091316,8.245728732,5.46074058));
#496=VERTEX_POINT('',#495);
#497=CARTESIAN_POINT('',(-134.023091316,8.245728732,6.46074058));
#498=DIRECTION('',(0.,0.,-1.));
#499=VECTOR('',#498,1.);
#500=LINE('',#497,#499);
#501=EDGE_CURVE('',#218,#496,#500,.T.);
#502=ORIENTED_EDGE('',*,*,#501,.T.);
#503=CARTESIAN_POINT('',(-141.023091316,8.245728732,5.46074058));
#504=VERTEX_POINT('',#503);
#505=CARTESIAN_POINT('',(-134.023091316,8.245728732,5.46074058));
#506=DIRECTION('',(-1.,0.,0.));
#507=VECTOR('',#506,7.);
#508=LINE('',#505,#507);
#509=EDGE_CURVE('',#496,#504,#508,.T.);
#510=ORIENTED_EDGE('',*,*,#509,.T.);
#511=CARTESIAN_POINT('',(-141.023091316,8.245728732,5.46074058));
#512=DIRECTION('',(-0.,-0.,1.));
#513=VECTOR('',#512,1.);
#514=LINE('',#511,#513);
#515=EDGE_CURVE('',#504,#227,#514,.T.);
#516=ORIENTED_EDGE('',*,*,#515,.T.);
#517=ORIENTED_EDGE('',*,*,#232,.T.);
#518=EDGE_LOOP('',(#502,#510,#516,#517));
#519=FACE_BOUND('',#518,.T.);
#520=ADVANCED_FACE('',(#519),#494,.F.);
#521=CARTESIAN_POINT('',(-137.023091316,10.443990043,6.46074058));
#522=DIRECTION('',(0.,-1.,-0.));
#523=DIRECTION('',(0.,0.,-1.));
#524=AXIS2_PLACEMENT_3D('',#521,#522,#523);
#525=PLANE('',#524);
#526=CARTESIAN_POINT('',(-141.023091316,10.443990043,7.26074058));
#527=VERTEX_POINT('',#526);
#528=CARTESIAN_POINT('',(-141.023091316,10.443990043,6.46074058));
#529=DIRECTION('',(-0.,-0.,1.));
#530=VECTOR('',#529,0.8);
#531=LINE('',#528,#530);
#532=EDGE_CURVE('',#252,#527,#531,.T.);
#533=ORIENTED_EDGE('',*,*,#532,.T.);
#534=CARTESIAN_POINT('',(-132.823091316,10.443990043,7.26074058));
#535=VERTEX_POINT('',#534);
#536=CARTESIAN_POINT('',(-141.023091316,10.443990043,7.26074058));
#537=DIRECTION('',(1.,0.,-0.));
#538=VECTOR('',#537,8.2);
#539=LINE('',#536,#538);
#540=EDGE_CURVE('',#527,#535,#539,.T.);
#541=ORIENTED_EDGE('',*,*,#540,.T.);
#542=CARTESIAN_POINT('',(-132.823091316,10.443990043,7.26074058));
#543=DIRECTION('',(0.,0.,-1.));
#544=VECTOR('',#543,0.8);
#545=LINE('',#542,#544);
#546=EDGE_CURVE('',#535,#261,#545,.T.);
#547=ORIENTED_EDGE('',*,*,#546,.T.);
#548=ORIENTED_EDGE('',*,*,#266,.F.);
#549=EDGE_LOOP('',(#533,#541,#547,#548));
#550=FACE_BOUND('',#549,.T.);
#551=ADVANCED_FACE('',(#550),#525,.F.);
#552=CARTESIAN_POINT('',(-133.023091316,2.145728732,6.46074058));
#553=DIRECTION('',(-1.,0.,0.));
#554=DIRECTION('',(0.,0.,1.));
#555=AXIS2_PLACEMENT_3D('',#552,#553,#554);
#556=PLANE('',#555);
#557=CARTESIAN_POINT('',(-133.023091316,-0.954271268,5.46074058));
#558=VERTEX_POINT('',#557);
#559=CARTESIAN_POINT('',(-133.023091316,7.245728732,5.46074058));
#560=VERTEX_POINT('',#559);
#561=CARTESIAN_POINT('',(-133.023091316,-0.954271268,5.46074058));
#562=DIRECTION('',(0.,1.,0.));
#563=VECTOR('',#562,8.2);
#564=LINE('',#561,#563);
#565=EDGE_CURVE('',#558,#560,#564,.T.);
#566=ORIENTED_EDGE('',*,*,#565,.T.);
#567=CARTESIAN_POINT('',(-133.023091316,7.245728732,5.46074058));
#568=DIRECTION('',(-0.,-0.,1.));
#569=VECTOR('',#568,1.);
#570=LINE('',#567,#569);
#571=EDGE_CURVE('',#560,#210,#570,.T.);
#572=ORIENTED_EDGE('',*,*,#571,.T.);
#573=ORIENTED_EDGE('',*,*,#215,.F.);
#574=CARTESIAN_POINT('',(-133.023091316,-0.954271268,6.46074058));
#575=DIRECTION('',(0.,0.,-1.));
#576=VECTOR('',#575,1.);
#577=LINE('',#574,#576);
#578=EDGE_CURVE('',#201,#558,#577,.T.);
#579=ORIENTED_EDGE('',*,*,#578,.T.);
#580=EDGE_LOOP('',(#566,#572,#573,#579));
#581=FACE_BOUND('',#580,.T.);
#582=ADVANCED_FACE('',(#581),#556,.F.);
#583=CARTESIAN_POINT('',(-137.023091316,-1.954271268,6.46074058));
#584=DIRECTION('',(0.,1.,0.));
#585=DIRECTION('',(0.,-0.,1.));
#586=AXIS2_PLACEMENT_3D('',#583,#584,#585);
#587=PLANE('',#586);
#588=CARTESIAN_POINT('',(-141.023091316,-1.954271268,5.46074058));
#589=VERTEX_POINT('',#588);
#590=CARTESIAN_POINT('',(-141.023091316,-1.954271268,6.46074058));
#591=DIRECTION('',(0.,0.,-1.));
#592=VECTOR('',#591,1.);
#593=LINE('',#590,#592);
#594=EDGE_CURVE('',#193,#589,#593,.T.);
#595=ORIENTED_EDGE('',*,*,#594,.T.);
#596=CARTESIAN_POINT('',(-134.023091316,-1.954271268,5.46074058));
#597=VERTEX_POINT('',#596);
#598=CARTESIAN_POINT('',(-141.023091316,-1.954271268,5.46074058));
#599=DIRECTION('',(1.,0.,-0.));
#600=VECTOR('',#599,7.);
#601=LINE('',#598,#600);
#602=EDGE_CURVE('',#589,#597,#601,.T.);
#603=ORIENTED_EDGE('',*,*,#602,.T.);
#604=CARTESIAN_POINT('',(-134.023091316,-1.954271268,5.46074058));
#605=DIRECTION('',(-0.,-0.,1.));
#606=VECTOR('',#605,1.);
#607=LINE('',#604,#606);
#608=EDGE_CURVE('',#597,#191,#607,.T.);
#609=ORIENTED_EDGE('',*,*,#608,.T.);
#610=ORIENTED_EDGE('',*,*,#198,.T.);
#611=EDGE_LOOP('',(#595,#603,#609,#610));
#612=FACE_BOUND('',#611,.T.);
#613=ADVANCED_FACE('',(#612),#587,.F.);
#614=CARTESIAN_POINT('',(-132.023091316,2.145728732,7.46074058));
#615=DIRECTION('',(1.,0.,0.));
#616=DIRECTION('',(0.,0.,-1.));
#617=AXIS2_PLACEMENT_3D('',#614,#615,#616);
#618=PLANE('',#617);
#619=CARTESIAN_POINT('',(-132.023091316,9.643990043,7.26074058));
#620=VERTEX_POINT('',#619);
#621=CARTESIAN_POINT('',(-132.023091316,9.643990043,7.26074058));
#622=DIRECTION('',(0.,0.,-1.));
#623=VECTOR('',#622,0.8);
#624=LINE('',#621,#623);
#625=EDGE_CURVE('',#620,#269,#624,.T.);
#626=ORIENTED_EDGE('',*,*,#625,.F.);
#627=CARTESIAN_POINT('',(-132.023091316,-3.854271268,7.26074058));
#628=VERTEX_POINT('',#627);
#629=CARTESIAN_POINT('',(-132.023091316,9.643990043,7.26074058));
#630=DIRECTION('',(0.,-1.,-0.));
#631=VECTOR('',#630,13.498261311);
#632=LINE('',#629,#631);
#633=EDGE_CURVE('',#620,#628,#632,.T.);
#634=ORIENTED_EDGE('',*,*,#633,.T.);
#635=CARTESIAN_POINT('',(-132.023091316,-3.854271268,7.26074058));
#636=DIRECTION('',(0.,0.,-1.));
#637=VECTOR('',#636,0.8);
#638=LINE('',#635,#637);
#639=EDGE_CURVE('',#628,#278,#638,.T.);
#640=ORIENTED_EDGE('',*,*,#639,.T.);
#641=ORIENTED_EDGE('',*,*,#283,.F.);
#642=EDGE_LOOP('',(#626,#634,#640,#641));
#643=FACE_BOUND('',#642,.T.);
#644=ADVANCED_FACE('',(#643),#618,.T.);
#645=CARTESIAN_POINT('',(-141.023091316,-3.654271268,6.46074058));
#646=DIRECTION('',(0.,-0.,1.));
#647=DIRECTION('',(0.,-1.,-0.));
#648=AXIS2_PLACEMENT_3D('',#645,#646,#647);
#649=CYLINDRICAL_SURFACE('',#648,1.);
#650=ORIENTED_EDGE('',*,*,#484,.F.);
#651=CARTESIAN_POINT('',(-141.023091316,-3.654271268,7.26074058));
#652=DIRECTION('',(-0.,-0.,-1.));
#653=DIRECTION('',(1.,0.,-0.));
#654=AXIS2_PLACEMENT_3D('',#651,#652,#653);
#655=CIRCLE('',#654,1.);
#656=EDGE_CURVE('',#473,#335,#655,.T.);
#657=ORIENTED_EDGE('',*,*,#656,.T.);
#658=ORIENTED_EDGE('',*,*,#340,.F.);
#659=ORIENTED_EDGE('',*,*,#309,.F.);
#660=EDGE_LOOP('',(#650,#657,#658,#659));
#661=FACE_BOUND('',#660,.T.);
#662=ADVANCED_FACE('',(#661),#649,.T.);
#663=CARTESIAN_POINT('',(-141.023091316,9.443990043,7.46074058));
#664=DIRECTION('',(0.,-0.,1.));
#665=DIRECTION('',(0.,-1.,-0.));
#666=AXIS2_PLACEMENT_3D('',#663,#664,#665);
#667=CYLINDRICAL_SURFACE('',#666,1.);
#668=ORIENTED_EDGE('',*,*,#354,.F.);
#669=CARTESIAN_POINT('',(-141.023091316,9.443990043,7.26074058));
#670=DIRECTION('',(-0.,-0.,-1.));
#671=DIRECTION('',(1.,0.,-0.));
#672=AXIS2_PLACEMENT_3D('',#669,#670,#671);
#673=CIRCLE('',#672,1.);
#674=EDGE_CURVE('',#343,#527,#673,.T.);
#675=ORIENTED_EDGE('',*,*,#674,.T.);
#676=ORIENTED_EDGE('',*,*,#532,.F.);
#677=ORIENTED_EDGE('',*,*,#258,.F.);
#678=EDGE_LOOP('',(#668,#675,#676,#677));
#679=FACE_BOUND('',#678,.T.);
#680=ADVANCED_FACE('',(#679),#667,.T.);
#681=CARTESIAN_POINT('',(-134.023091316,-0.954271268,6.46074058));
#682=DIRECTION('',(0.,0.,-1.));
#683=DIRECTION('',(0.,1.,0.));
#684=AXIS2_PLACEMENT_3D('',#681,#682,#683);
#685=CYLINDRICAL_SURFACE('',#684,1.);
#686=ORIENTED_EDGE('',*,*,#608,.F.);
#687=CARTESIAN_POINT('',(-134.023091316,-0.954271268,5.46074058));
#688=DIRECTION('',(0.,0.,1.));
#689=DIRECTION('',(1.,0.,-0.));
#690=AXIS2_PLACEMENT_3D('',#687,#688,#689);
#691=CIRCLE('',#690,1.);
#692=EDGE_CURVE('',#597,#558,#691,.T.);
#693=ORIENTED_EDGE('',*,*,#692,.T.);
#694=ORIENTED_EDGE('',*,*,#578,.F.);
#695=ORIENTED_EDGE('',*,*,#207,.F.);
#696=EDGE_LOOP('',(#686,#693,#694,#695));
#697=FACE_BOUND('',#696,.T.);
#698=ADVANCED_FACE('',(#697),#685,.T.);
#699=CARTESIAN_POINT('',(-141.023091316,7.245728732,6.46074058));
#700=DIRECTION('',(0.,0.,-1.));
#701=DIRECTION('',(0.,1.,0.));
#702=AXIS2_PLACEMENT_3D('',#699,#700,#701);
#703=CYLINDRICAL_SURFACE('',#702,1.);
#704=ORIENTED_EDGE('',*,*,#515,.F.);
#705=CARTESIAN_POINT('',(-141.023091316,7.245728732,5.46074058));
#706=DIRECTION('',(0.,0.,1.));
#707=DIRECTION('',(1.,0.,-0.));
#708=AXIS2_PLACEMENT_3D('',#705,#706,#707);
#709=CIRCLE('',#708,1.);
#710=EDGE_CURVE('',#504,#358,#709,.T.);
#711=ORIENTED_EDGE('',*,*,#710,.T.);
#712=ORIENTED_EDGE('',*,*,#363,.F.);
#713=ORIENTED_EDGE('',*,*,#241,.F.);
#714=EDGE_LOOP('',(#704,#711,#712,#713));
#715=FACE_BOUND('',#714,.T.);
#716=ADVANCED_FACE('',(#715),#703,.T.);
#717=CARTESIAN_POINT('',(-141.023091316,-0.954271268,6.46074058));
#718=DIRECTION('',(0.,0.,-1.));
#719=DIRECTION('',(0.,1.,0.));
#720=AXIS2_PLACEMENT_3D('',#717,#718,#719);
#721=CYLINDRICAL_SURFACE('',#720,1.);
#722=ORIENTED_EDGE('',*,*,#377,.F.);
#723=CARTESIAN_POINT('',(-141.023091316,-0.954271268,5.46074058));
#724=DIRECTION('',(0.,0.,1.));
#725=DIRECTION('',(1.,0.,-0.));
#726=AXIS2_PLACEMENT_3D('',#723,#724,#725);
#727=CIRCLE('',#726,1.);
#728=EDGE_CURVE('',#366,#589,#727,.T.);
#729=ORIENTED_EDGE('',*,*,#728,.T.);
#730=ORIENTED_EDGE('',*,*,#594,.F.);
#731=ORIENTED_EDGE('',*,*,#324,.F.);
#732=EDGE_LOOP('',(#722,#729,#730,#731));
#733=FACE_BOUND('',#732,.T.);
#734=ADVANCED_FACE('',(#733),#721,.T.);
#735=CARTESIAN_POINT('',(-134.023091316,7.245728732,6.46074058));
#736=DIRECTION('',(0.,0.,-1.));
#737=DIRECTION('',(0.,1.,0.));
#738=AXIS2_PLACEMENT_3D('',#735,#736,#737);
#739=CYLINDRICAL_SURFACE('',#738,1.);
#740=ORIENTED_EDGE('',*,*,#571,.F.);
#741=CARTESIAN_POINT('',(-134.023091316,7.245728732,5.46074058));
#742=DIRECTION('',(0.,0.,1.));
#743=DIRECTION('',(1.,0.,-0.));
#744=AXIS2_PLACEMENT_3D('',#741,#742,#743);
#745=CIRCLE('',#744,1.);
#746=EDGE_CURVE('',#560,#496,#745,.T.);
#747=ORIENTED_EDGE('',*,*,#746,.T.);
#748=ORIENTED_EDGE('',*,*,#501,.F.);
#749=ORIENTED_EDGE('',*,*,#224,.F.);
#750=EDGE_LOOP('',(#740,#747,#748,#749));
#751=FACE_BOUND('',#750,.T.);
#752=ADVANCED_FACE('',(#751),#739,.T.);
#753=CARTESIAN_POINT('',(-132.823091316,9.643990043,9.06074058));
#754=DIRECTION('',(0.,0.,-1.));
#755=DIRECTION('',(0.,1.,0.));
#756=AXIS2_PLACEMENT_3D('',#753,#754,#755);
#757=CYLINDRICAL_SURFACE('',#756,0.8);
#758=ORIENTED_EDGE('',*,*,#546,.F.);
#759=CARTESIAN_POINT('',(-132.823091316,9.643990043,7.26074058));
#760=DIRECTION('',(-0.,-0.,-1.));
#761=DIRECTION('',(1.,0.,-0.));
#762=AXIS2_PLACEMENT_3D('',#759,#760,#761);
#763=CIRCLE('',#762,0.8);
#764=EDGE_CURVE('',#535,#620,#763,.T.);
#765=ORIENTED_EDGE('',*,*,#764,.T.);
#766=ORIENTED_EDGE('',*,*,#625,.T.);
#767=ORIENTED_EDGE('',*,*,#275,.F.);
#768=EDGE_LOOP('',(#758,#765,#766,#767));
#769=FACE_BOUND('',#768,.T.);
#770=ADVANCED_FACE('',(#769),#757,.T.);
#771=CARTESIAN_POINT('',(-132.823091316,-3.854271268,9.06074058));
#772=DIRECTION('',(0.,0.,-1.));
#773=DIRECTION('',(0.,1.,0.));
#774=AXIS2_PLACEMENT_3D('',#771,#772,#773);
#775=CYLINDRICAL_SURFACE('',#774,0.8);
#776=ORIENTED_EDGE('',*,*,#639,.F.);
#777=CARTESIAN_POINT('',(-132.823091316,-3.854271268,7.26074058));
#778=DIRECTION('',(-0.,-0.,-1.));
#779=DIRECTION('',(1.,0.,-0.));
#780=AXIS2_PLACEMENT_3D('',#777,#778,#779);
#781=CIRCLE('',#780,0.8);
#782=EDGE_CURVE('',#628,#465,#781,.T.);
#783=ORIENTED_EDGE('',*,*,#782,.T.);
#784=ORIENTED_EDGE('',*,*,#470,.T.);
#785=ORIENTED_EDGE('',*,*,#292,.F.);
#786=EDGE_LOOP('',(#776,#783,#784,#785));
#787=FACE_BOUND('',#786,.T.);
#788=ADVANCED_FACE('',(#787),#775,.T.);
#789=CARTESIAN_POINT('',(-133.023091316,2.145728732,5.46074058));
#790=DIRECTION('',(0.707106781,0.,-0.707106781));
#791=DIRECTION('',(-0.,-1.,-0.));
#792=AXIS2_PLACEMENT_3D('',#789,#790,#791);
#793=PLANE('',#792);
#794=CARTESIAN_POINT('',(-133.023091316,7.245728732,5.46074058));
#795=DIRECTION('',(-0.707106781,-0.,-0.707106781));
#796=VECTOR('',#795,0.282842712);
#797=LINE('',#794,#796);
#798=EDGE_CURVE('',#560,#389,#797,.T.);
#799=ORIENTED_EDGE('',*,*,#798,.F.);
#800=ORIENTED_EDGE('',*,*,#565,.F.);
#801=CARTESIAN_POINT('',(-133.223091316,-0.954271268,5.26074058));
#802=DIRECTION('',(0.707106781,0.,0.707106781));
#803=VECTOR('',#802,0.282842712);
#804=LINE('',#801,#803);
#805=EDGE_CURVE('',#391,#558,#804,.T.);
#806=ORIENTED_EDGE('',*,*,#805,.F.);
#807=ORIENTED_EDGE('',*,*,#396,.F.);
#808=EDGE_LOOP('',(#799,#800,#806,#807));
#809=FACE_BOUND('',#808,.T.);
#810=ADVANCED_FACE('',(#809),#793,.T.);
#811=CARTESIAN_POINT('',(-134.023091316,7.245728732,5.26074058));
#812=DIRECTION('',(0.,0.,1.));
#813=DIRECTION('',(1.,0.,-0.));
#814=AXIS2_PLACEMENT_3D('',#811,#812,#813);
#815=CONICAL_SURFACE('',#814,0.8,45.);
#816=ORIENTED_EDGE('',*,*,#798,.T.);
#817=ORIENTED_EDGE('',*,*,#454,.F.);
#818=CARTESIAN_POINT('',(-134.023091316,8.245728732,5.46074058));
#819=DIRECTION('',(-0.,-0.707106781,-0.707106781));
#820=VECTOR('',#819,0.282842712);
#821=LINE('',#818,#820);
#822=EDGE_CURVE('',#496,#442,#821,.T.);
#823=ORIENTED_EDGE('',*,*,#822,.F.);
#824=ORIENTED_EDGE('',*,*,#746,.F.);
#825=EDGE_LOOP('',(#816,#817,#823,#824));
#826=FACE_BOUND('',#825,.T.);
#827=ADVANCED_FACE('',(#826),#815,.T.);
#828=CARTESIAN_POINT('',(-137.023091316,8.245728732,5.46074058));
#829=DIRECTION('',(0.,0.707106781,-0.707106781));
#830=DIRECTION('',(1.,0.,0.));
#831=AXIS2_PLACEMENT_3D('',#828,#829,#830);
#832=PLANE('',#831);
#833=ORIENTED_EDGE('',*,*,#822,.T.);
#834=ORIENTED_EDGE('',*,*,#447,.F.);
#835=CARTESIAN_POINT('',(-141.023091316,8.245728732,5.46074058));
#836=DIRECTION('',(0.,-0.707106781,-0.707106781));
#837=VECTOR('',#836,0.282842712);
#838=LINE('',#835,#837);
#839=EDGE_CURVE('',#504,#433,#838,.T.);
#840=ORIENTED_EDGE('',*,*,#839,.F.);
#841=ORIENTED_EDGE('',*,*,#509,.F.);
#842=EDGE_LOOP('',(#833,#834,#840,#841));
#843=FACE_BOUND('',#842,.T.);
#844=ADVANCED_FACE('',(#843),#832,.T.);
#845=CARTESIAN_POINT('',(-141.023091316,7.245728732,5.26074058));
#846=DIRECTION('',(0.,0.,1.));
#847=DIRECTION('',(1.,0.,-0.));
#848=AXIS2_PLACEMENT_3D('',#845,#846,#847);
#849=CONICAL_SURFACE('',#848,0.8,45.);
#850=ORIENTED_EDGE('',*,*,#839,.T.);
#851=ORIENTED_EDGE('',*,*,#439,.F.);
#852=CARTESIAN_POINT('',(-142.023091316,7.245728732,5.46074058));
#853=DIRECTION('',(0.707106781,-0.,-0.707106781));
#854=VECTOR('',#853,0.282842712);
#855=LINE('',#852,#854);
#856=EDGE_CURVE('',#358,#425,#855,.T.);
#857=ORIENTED_EDGE('',*,*,#856,.F.);
#858=ORIENTED_EDGE('',*,*,#710,.F.);
#859=EDGE_LOOP('',(#850,#851,#857,#858));
#860=FACE_BOUND('',#859,.T.);
#861=ADVANCED_FACE('',(#860),#849,.T.);
#862=CARTESIAN_POINT('',(-141.823091316,0.1,5.26074058));
#863=DIRECTION('',(-0.707106781,0.,-0.707106781));
#864=DIRECTION('',(0.,-1.,-0.));
#865=AXIS2_PLACEMENT_3D('',#862,#863,#864);
#866=PLANE('',#865);
#867=ORIENTED_EDGE('',*,*,#856,.T.);
#868=ORIENTED_EDGE('',*,*,#430,.F.);
#869=CARTESIAN_POINT('',(-141.823091316,-0.954271268,5.26074058));
#870=DIRECTION('',(-0.707106781,0.,0.707106781));
#871=VECTOR('',#870,0.282842712);
#872=LINE('',#869,#871);
#873=EDGE_CURVE('',#416,#366,#872,.T.);
#874=ORIENTED_EDGE('',*,*,#873,.T.);
#875=ORIENTED_EDGE('',*,*,#371,.F.);
#876=EDGE_LOOP('',(#867,#868,#874,#875));
#877=FACE_BOUND('',#876,.T.);
#878=ADVANCED_FACE('',(#877),#866,.T.);
#879=CARTESIAN_POINT('',(-134.023091316,-0.954271268,5.26074058));
#880=DIRECTION('',(0.,0.,1.));
#881=DIRECTION('',(1.,0.,-0.));
#882=AXIS2_PLACEMENT_3D('',#879,#880,#881);
#883=CONICAL_SURFACE('',#882,0.8,45.);
#884=ORIENTED_EDGE('',*,*,#805,.T.);
#885=ORIENTED_EDGE('',*,*,#692,.F.);
#886=CARTESIAN_POINT('',(-134.023091316,-1.754271268,5.26074058));
#887=DIRECTION('',(0.,-0.707106781,0.707106781));
#888=VECTOR('',#887,0.282842712);
#889=LINE('',#886,#888);
#890=EDGE_CURVE('',#399,#597,#889,.T.);
#891=ORIENTED_EDGE('',*,*,#890,.F.);
#892=ORIENTED_EDGE('',*,*,#405,.F.);
#893=EDGE_LOOP('',(#884,#885,#891,#892));
#894=FACE_BOUND('',#893,.T.);
#895=ADVANCED_FACE('',(#894),#883,.T.);
#896=CARTESIAN_POINT('',(-137.023091316,-1.954271268,5.46074058));
#897=DIRECTION('',(0.,-0.707106781,-0.707106781));
#898=DIRECTION('',(-1.,0.,0.));
#899=AXIS2_PLACEMENT_3D('',#896,#897,#898);
#900=PLANE('',#899);
#901=ORIENTED_EDGE('',*,*,#890,.T.);
#902=ORIENTED_EDGE('',*,*,#602,.F.);
#903=CARTESIAN_POINT('',(-141.023091316,-1.754271268,5.26074058));
#904=DIRECTION('',(0.,-0.707106781,0.707106781));
#905=VECTOR('',#904,0.282842712);
#906=LINE('',#903,#905);
#907=EDGE_CURVE('',#408,#589,#906,.T.);
#908=ORIENTED_EDGE('',*,*,#907,.F.);
#909=ORIENTED_EDGE('',*,*,#413,.F.);
#910=EDGE_LOOP('',(#901,#902,#908,#909));
#911=FACE_BOUND('',#910,.T.);
#912=ADVANCED_FACE('',(#911),#900,.T.);
#913=CARTESIAN_POINT('',(-141.023091316,-0.954271268,5.26074058));
#914=DIRECTION('',(0.,0.,1.));
#915=DIRECTION('',(1.,0.,-0.));
#916=AXIS2_PLACEMENT_3D('',#913,#914,#915);
#917=CONICAL_SURFACE('',#916,0.8,45.);
#918=ORIENTED_EDGE('',*,*,#907,.T.);
#919=ORIENTED_EDGE('',*,*,#728,.F.);
#920=ORIENTED_EDGE('',*,*,#873,.F.);
#921=ORIENTED_EDGE('',*,*,#422,.F.);
#922=EDGE_LOOP('',(#918,#919,#920,#921));
#923=FACE_BOUND('',#922,.T.);
#924=ADVANCED_FACE('',(#923),#917,.T.);
#925=CARTESIAN_POINT('',(-141.023091316,-3.654271268,7.26074058));
#926=DIRECTION('',(0.,0.,-1.));
#927=DIRECTION('',(-1.,0.,0.));
#928=AXIS2_PLACEMENT_3D('',#925,#926,#927);
#929=CONICAL_SURFACE('',#928,1.,45.);
#930=CARTESIAN_POINT('',(-142.023091316,-3.654271268,7.26074058));
#931=DIRECTION('',(0.707106781,0.,0.707106781));
#932=VECTOR('',#931,0.282842712);
#933=LINE('',#930,#932);
#934=EDGE_CURVE('',#335,#97,#933,.T.);
#935=ORIENTED_EDGE('',*,*,#934,.F.);
#936=ORIENTED_EDGE('',*,*,#656,.F.);
#937=CARTESIAN_POINT('',(-141.023091316,-4.454271268,7.46074058));
#938=DIRECTION('',(0.,-0.707106781,-0.707106781));
#939=VECTOR('',#938,0.282842712);
#940=LINE('',#937,#939);
#941=EDGE_CURVE('',#105,#473,#940,.T.);
#942=ORIENTED_EDGE('',*,*,#941,.F.);
#943=ORIENTED_EDGE('',*,*,#111,.F.);
#944=EDGE_LOOP('',(#935,#936,#942,#943));
#945=FACE_BOUND('',#944,.T.);
#946=ADVANCED_FACE('',(#945),#929,.T.);
#947=CARTESIAN_POINT('',(0.,-4.454271268,7.46074058));
#948=DIRECTION('',(0.,-0.707106781,0.707106781));
#949=DIRECTION('',(-1.,0.,0.));
#950=AXIS2_PLACEMENT_3D('',#947,#948,#949);
#951=PLANE('',#950);
#952=ORIENTED_EDGE('',*,*,#941,.T.);
#953=ORIENTED_EDGE('',*,*,#478,.F.);
#954=CARTESIAN_POINT('',(-132.823091316,-4.454271268,7.46074058));
#955=DIRECTION('',(0.,-0.707106781,-0.707106781));
#956=VECTOR('',#955,0.282842712);
#957=LINE('',#954,#956);
#958=EDGE_CURVE('',#114,#465,#957,.T.);
#959=ORIENTED_EDGE('',*,*,#958,.F.);
#960=ORIENTED_EDGE('',*,*,#119,.F.);
#961=EDGE_LOOP('',(#952,#953,#959,#960));
#962=FACE_BOUND('',#961,.T.);
#963=ADVANCED_FACE('',(#962),#951,.T.);
#964=CARTESIAN_POINT('',(-141.823091316,0.1,7.46074058));
#965=DIRECTION('',(-0.707106781,-0.,0.707106781));
#966=DIRECTION('',(0.,1.,0.));
#967=AXIS2_PLACEMENT_3D('',#964,#965,#966);
#968=PLANE('',#967);
#969=ORIENTED_EDGE('',*,*,#934,.T.);
#970=ORIENTED_EDGE('',*,*,#102,.F.);
#971=CARTESIAN_POINT('',(-142.023091316,9.443990043,7.26074058));
#972=DIRECTION('',(0.707106781,0.,0.707106781));
#973=VECTOR('',#972,0.282842712);
#974=LINE('',#971,#973);
#975=EDGE_CURVE('',#343,#88,#974,.T.);
#976=ORIENTED_EDGE('',*,*,#975,.F.);
#977=ORIENTED_EDGE('',*,*,#348,.F.);
#978=EDGE_LOOP('',(#969,#970,#976,#977));
#979=FACE_BOUND('',#978,.T.);
#980=ADVANCED_FACE('',(#979),#968,.T.);
#981=CARTESIAN_POINT('',(-132.823091316,-3.854271268,7.46074058));
#982=DIRECTION('',(0.,0.,-1.));
#983=DIRECTION('',(-1.,0.,0.));
#984=AXIS2_PLACEMENT_3D('',#981,#982,#983);
#985=CONICAL_SURFACE('',#984,0.6,45.);
#986=ORIENTED_EDGE('',*,*,#958,.T.);
#987=ORIENTED_EDGE('',*,*,#782,.F.);
#988=CARTESIAN_POINT('',(-132.223091316,-3.854271268,7.46074058));
#989=DIRECTION('',(0.707106781,0.,-0.707106781));
#990=VECTOR('',#989,0.282842712);
#991=LINE('',#988,#990);
#992=EDGE_CURVE('',#61,#628,#991,.T.);
#993=ORIENTED_EDGE('',*,*,#992,.F.);
#994=ORIENTED_EDGE('',*,*,#126,.F.);
#995=EDGE_LOOP('',(#986,#987,#993,#994));
#996=FACE_BOUND('',#995,.T.);
#997=ADVANCED_FACE('',(#996),#985,.T.);
#998=CARTESIAN_POINT('',(-141.023091316,9.443990043,7.26074058));
#999=DIRECTION('',(0.,0.,-1.));
#1000=DIRECTION('',(-1.,0.,0.));
#1001=AXIS2_PLACEMENT_3D('',#998,#999,#1000);
#1002=CONICAL_SURFACE('',#1001,1.,45.);
#1003=ORIENTED_EDGE('',*,*,#975,.T.);
#1004=ORIENTED_EDGE('',*,*,#94,.F.);
#1005=CARTESIAN_POINT('',(-141.023091316,10.443990043,7.26074058));
#1006=DIRECTION('',(0.,-0.707106781,0.707106781));
#1007=VECTOR('',#1006,0.282842712);
#1008=LINE('',#1005,#1007);
#1009=EDGE_CURVE('',#527,#80,#1008,.T.);
#1010=ORIENTED_EDGE('',*,*,#1009,.F.);
#1011=ORIENTED_EDGE('',*,*,#674,.F.);
#1012=EDGE_LOOP('',(#1003,#1004,#1010,#1011));
#1013=FACE_BOUND('',#1012,.T.);
#1014=ADVANCED_FACE('',(#1013),#1002,.T.);
#1015=CARTESIAN_POINT('',(-132.023091316,2.145728732,7.26074058));
#1016=DIRECTION('',(-0.707106781,0.,-0.707106781));
#1017=DIRECTION('',(0.,-1.,-0.));
#1018=AXIS2_PLACEMENT_3D('',#1015,#1016,#1017);
#1019=PLANE('',#1018);
#1020=ORIENTED_EDGE('',*,*,#992,.T.);
#1021=ORIENTED_EDGE('',*,*,#633,.F.);
#1022=CARTESIAN_POINT('',(-132.223091316,9.643990043,7.46074058));
#1023=DIRECTION('',(0.707106781,0.,-0.707106781));
#1024=VECTOR('',#1023,0.282842712);
#1025=LINE('',#1022,#1024);
#1026=EDGE_CURVE('',#63,#620,#1025,.T.);
#1027=ORIENTED_EDGE('',*,*,#1026,.F.);
#1028=ORIENTED_EDGE('',*,*,#68,.F.);
#1029=EDGE_LOOP('',(#1020,#1021,#1027,#1028));
#1030=FACE_BOUND('',#1029,.T.);
#1031=ADVANCED_FACE('',(#1030),#1019,.F.);
#1032=CARTESIAN_POINT('',(0.,10.243990043,7.46074058));
#1033=DIRECTION('',(0.,0.707106781,0.707106781));
#1034=DIRECTION('',(1.,0.,0.));
#1035=AXIS2_PLACEMENT_3D('',#1032,#1033,#1034);
#1036=PLANE('',#1035);
#1037=ORIENTED_EDGE('',*,*,#1009,.T.);
#1038=ORIENTED_EDGE('',*,*,#85,.F.);
#1039=CARTESIAN_POINT('',(-132.823091316,10.443990043,7.26074058));
#1040=DIRECTION('',(0.,-0.707106781,0.707106781));
#1041=VECTOR('',#1040,0.282842712);
#1042=LINE('',#1039,#1041);
#1043=EDGE_CURVE('',#535,#71,#1042,.T.);
#1044=ORIENTED_EDGE('',*,*,#1043,.F.);
#1045=ORIENTED_EDGE('',*,*,#540,.F.);
#1046=EDGE_LOOP('',(#1037,#1038,#1044,#1045));
#1047=FACE_BOUND('',#1046,.T.);
#1048=ADVANCED_FACE('',(#1047),#1036,.T.);
#1049=CARTESIAN_POINT('',(-132.823091316,9.643990043,7.46074058));
#1050=DIRECTION('',(0.,0.,-1.));
#1051=DIRECTION('',(-1.,0.,0.));
#1052=AXIS2_PLACEMENT_3D('',#1049,#1050,#1051);
#1053=CONICAL_SURFACE('',#1052,0.6,45.);
#1054=ORIENTED_EDGE('',*,*,#1026,.T.);
#1055=ORIENTED_EDGE('',*,*,#764,.F.);
#1056=ORIENTED_EDGE('',*,*,#1043,.T.);
#1057=ORIENTED_EDGE('',*,*,#77,.F.);
#1058=EDGE_LOOP('',(#1054,#1055,#1056,#1057));
#1059=FACE_BOUND('',#1058,.T.);
#1060=ADVANCED_FACE('',(#1059),#1053,.T.);
#1061=CARTESIAN_POINT('',(-136.011545658,2.857796735,7.06074058));
#1062=DIRECTION('',(-1.,0.,0.));
#1063=DIRECTION('',(0.,0.,1.));
#1064=AXIS2_PLACEMENT_3D('',#1061,#1062,#1063);
#1065=PLANE('',#1064);
#1066=ORIENTED_EDGE('',*,*,#164,.F.);
#1067=CARTESIAN_POINT('',(-136.011545658,7.357796735,7.06074058));
#1068=VERTEX_POINT('',#1067);
#1069=CARTESIAN_POINT('',(-136.011545658,7.357796735,7.46074058));
#1070=DIRECTION('',(-0.,0.,-1.));
#1071=VECTOR('',#1070,0.4);
#1072=LINE('',#1069,#1071);
#1073=EDGE_CURVE('',#150,#1068,#1072,.T.);
#1074=ORIENTED_EDGE('',*,*,#1073,.T.);
#1075=CARTESIAN_POINT('',(-136.011545658,-1.642203265,7.06074058));
#1076=VERTEX_POINT('',#1075);
#1077=CARTESIAN_POINT('',(-136.011545658,7.357796735,7.06074058));
#1078=DIRECTION('',(0.,-1.,-0.));
#1079=VECTOR('',#1078,9.);
#1080=LINE('',#1077,#1079);
#1081=EDGE_CURVE('',#1068,#1076,#1080,.T.);
#1082=ORIENTED_EDGE('',*,*,#1081,.T.);
#1083=CARTESIAN_POINT('',(-136.011545658,-1.642203265,7.06074058));
#1084=DIRECTION('',(0.,-0.,1.));
#1085=VECTOR('',#1084,0.4);
#1086=LINE('',#1083,#1085);
#1087=EDGE_CURVE('',#1076,#159,#1086,.T.);
#1088=ORIENTED_EDGE('',*,*,#1087,.T.);
#1089=EDGE_LOOP('',(#1066,#1074,#1082,#1088));
#1090=FACE_BOUND('',#1089,.T.);
#1091=ADVANCED_FACE('',(#1090),#1065,.T.);
#1092=CARTESIAN_POINT('',(-137.011545658,2.857796735,7.06074058));
#1093=DIRECTION('',(1.,0.,0.));
#1094=DIRECTION('',(0.,0.,-1.));
#1095=AXIS2_PLACEMENT_3D('',#1092,#1093,#1094);
#1096=PLANE('',#1095);
#1097=ORIENTED_EDGE('',*,*,#138,.F.);
#1098=CARTESIAN_POINT('',(-137.011545658,-1.642203265,7.06074058));
#1099=VERTEX_POINT('',#1098);
#1100=CARTESIAN_POINT('',(-137.011545658,-1.642203265,7.46074058));
#1101=DIRECTION('',(-0.,0.,-1.));
#1102=VECTOR('',#1101,0.4);
#1103=LINE('',#1100,#1102);
#1104=EDGE_CURVE('',#131,#1099,#1103,.T.);
#1105=ORIENTED_EDGE('',*,*,#1104,.T.);
#1106=CARTESIAN_POINT('',(-137.011545658,7.357796735,7.06074058));
#1107=VERTEX_POINT('',#1106);
#1108=CARTESIAN_POINT('',(-137.011545658,-1.642203265,7.06074058));
#1109=DIRECTION('',(0.,1.,0.));
#1110=VECTOR('',#1109,9.);
#1111=LINE('',#1108,#1110);
#1112=EDGE_CURVE('',#1099,#1107,#1111,.T.);
#1113=ORIENTED_EDGE('',*,*,#1112,.T.);
#1114=CARTESIAN_POINT('',(-137.011545658,7.357796735,7.06074058));
#1115=DIRECTION('',(0.,-0.,1.));
#1116=VECTOR('',#1115,0.4);
#1117=LINE('',#1114,#1116);
#1118=EDGE_CURVE('',#1107,#133,#1117,.T.);
#1119=ORIENTED_EDGE('',*,*,#1118,.T.);
#1120=EDGE_LOOP('',(#1097,#1105,#1113,#1119));
#1121=FACE_BOUND('',#1120,.T.);
#1122=ADVANCED_FACE('',(#1121),#1096,.T.);
#1123=CARTESIAN_POINT('',(0.,-0.,7.06074058));
#1124=DIRECTION('',(0.,-0.,1.));
#1125=DIRECTION('',(1.,0.,0.));
#1126=AXIS2_PLACEMENT_3D('',#1123,#1124,#1125);
#1127=PLANE('',#1126);
#1128=ORIENTED_EDGE('',*,*,#1112,.F.);
#1129=CARTESIAN_POINT('',(-136.511545658,-2.142203265,7.06074058));
#1130=VERTEX_POINT('',#1129);
#1131=CARTESIAN_POINT('',(-136.511545658,-1.642203265,7.06074058));
#1132=DIRECTION('',(0.,-0.,1.));
#1133=DIRECTION('',(0.,-1.,-0.));
#1134=AXIS2_PLACEMENT_3D('',#1131,#1132,#1133);
#1135=CIRCLE('',#1134,0.5);
#1136=EDGE_CURVE('',#1099,#1130,#1135,.T.);
#1137=ORIENTED_EDGE('',*,*,#1136,.T.);
#1138=CARTESIAN_POINT('',(-136.511545658,-1.642203265,7.06074058));
#1139=DIRECTION('',(0.,-0.,1.));
#1140=DIRECTION('',(0.,-1.,-0.));
#1141=AXIS2_PLACEMENT_3D('',#1138,#1139,#1140);
#1142=CIRCLE('',#1141,0.5);
#1143=EDGE_CURVE('',#1130,#1076,#1142,.T.);
#1144=ORIENTED_EDGE('',*,*,#1143,.T.);
#1145=ORIENTED_EDGE('',*,*,#1081,.F.);
#1146=CARTESIAN_POINT('',(-136.511545658,7.857796735,7.06074058));
#1147=VERTEX_POINT('',#1146);
#1148=CARTESIAN_POINT('',(-136.511545658,7.357796735,7.06074058));
#1149=DIRECTION('',(0.,-0.,1.));
#1150=DIRECTION('',(0.,-1.,-0.));
#1151=AXIS2_PLACEMENT_3D('',#1148,#1149,#1150);
#1152=CIRCLE('',#1151,0.5);
#1153=EDGE_CURVE('',#1068,#1147,#1152,.T.);
#1154=ORIENTED_EDGE('',*,*,#1153,.T.);
#1155=CARTESIAN_POINT('',(-136.511545658,7.357796735,7.06074058));
#1156=DIRECTION('',(0.,-0.,1.));
#1157=DIRECTION('',(0.,-1.,-0.));
#1158=AXIS2_PLACEMENT_3D('',#1155,#1156,#1157);
#1159=CIRCLE('',#1158,0.5);
#1160=EDGE_CURVE('',#1147,#1107,#1159,.T.);
#1161=ORIENTED_EDGE('',*,*,#1160,.T.);
#1162=EDGE_LOOP('',(#1128,#1137,#1144,#1145,#1154,#1161));
#1163=FACE_BOUND('',#1162,.T.);
#1164=ADVANCED_FACE('',(#1163),#1127,.T.);
#1165=CARTESIAN_POINT('',(-136.511545658,7.357796735,7.06074058));
#1166=DIRECTION('',(0.,0.,-1.));
#1167=DIRECTION('',(0.,1.,0.));
#1168=AXIS2_PLACEMENT_3D('',#1165,#1166,#1167);
#1169=CYLINDRICAL_SURFACE('',#1168,0.5);
#1170=ORIENTED_EDGE('',*,*,#1118,.F.);
#1171=ORIENTED_EDGE('',*,*,#1160,.F.);
#1172=CARTESIAN_POINT('',(-136.511545658,7.857796735,7.46074058));
#1173=DIRECTION('',(-0.,0.,-1.));
#1174=VECTOR('',#1173,0.4);
#1175=LINE('',#1172,#1174);
#1176=EDGE_CURVE('',#141,#1147,#1175,.T.);
#1177=ORIENTED_EDGE('',*,*,#1176,.F.);
#1178=ORIENTED_EDGE('',*,*,#147,.F.);
#1179=EDGE_LOOP('',(#1170,#1171,#1177,#1178));
#1180=FACE_BOUND('',#1179,.T.);
#1181=ADVANCED_FACE('',(#1180),#1169,.F.);
#1182=CARTESIAN_POINT('',(-136.511545658,7.357796735,7.06074058));
#1183=DIRECTION('',(0.,0.,-1.));
#1184=DIRECTION('',(0.,1.,0.));
#1185=AXIS2_PLACEMENT_3D('',#1182,#1183,#1184);
#1186=CYLINDRICAL_SURFACE('',#1185,0.5);
#1187=ORIENTED_EDGE('',*,*,#1153,.F.);
#1188=ORIENTED_EDGE('',*,*,#1073,.F.);
#1189=ORIENTED_EDGE('',*,*,#156,.F.);
#1190=ORIENTED_EDGE('',*,*,#1176,.T.);
#1191=EDGE_LOOP('',(#1187,#1188,#1189,#1190));
#1192=FACE_BOUND('',#1191,.T.);
#1193=ADVANCED_FACE('',(#1192),#1186,.F.);
#1194=CARTESIAN_POINT('',(-136.511545658,-1.642203265,7.06074058));
#1195=DIRECTION('',(0.,0.,-1.));
#1196=DIRECTION('',(0.,1.,0.));
#1197=AXIS2_PLACEMENT_3D('',#1194,#1195,#1196);
#1198=CYLINDRICAL_SURFACE('',#1197,0.5);
#1199=ORIENTED_EDGE('',*,*,#1087,.F.);
#1200=ORIENTED_EDGE('',*,*,#1143,.F.);
#1201=CARTESIAN_POINT('',(-136.511545658,-2.142203265,7.46074058));
#1202=DIRECTION('',(-0.,0.,-1.));
#1203=VECTOR('',#1202,0.4);
#1204=LINE('',#1201,#1203);
#1205=EDGE_CURVE('',#167,#1130,#1204,.T.);
#1206=ORIENTED_EDGE('',*,*,#1205,.F.);
#1207=ORIENTED_EDGE('',*,*,#173,.F.);
#1208=EDGE_LOOP('',(#1199,#1200,#1206,#1207));
#1209=FACE_BOUND('',#1208,.T.);
#1210=ADVANCED_FACE('',(#1209),#1198,.F.);
#1211=CARTESIAN_POINT('',(-136.511545658,-1.642203265,7.06074058));
#1212=DIRECTION('',(0.,0.,-1.));
#1213=DIRECTION('',(0.,1.,0.));
#1214=AXIS2_PLACEMENT_3D('',#1211,#1212,#1213);
#1215=CYLINDRICAL_SURFACE('',#1214,0.5);
#1216=ORIENTED_EDGE('',*,*,#1136,.F.);
#1217=ORIENTED_EDGE('',*,*,#1104,.F.);
#1218=ORIENTED_EDGE('',*,*,#180,.F.);
#1219=ORIENTED_EDGE('',*,*,#1205,.T.);
#1220=EDGE_LOOP('',(#1216,#1217,#1218,#1219));
#1221=FACE_BOUND('',#1220,.T.);
#1222=ADVANCED_FACE('',(#1221),#1215,.F.);
#1223=CLOSED_SHELL('',(#184,#328,#382,#458,#489,#520,#551,#582,#613,#644,#662,#680,#698,#716,#734,#752,#770,#788,#810,#827,#844,#861,#878,#895,#912,#924,
#946,#963,#980,#997,#1014,#1031,#1048,#1060,#1091,#1122,#1164,#1181,#1193,#1210,#1222));
#1224=MANIFOLD_SOLID_BREP('switch_flat',#1223);
#1225=COLOUR_RGB('',0.517647088,0.800000012,1.);
#1226=FILL_AREA_STYLE_COLOUR('',#1225);
#1227=FILL_AREA_STYLE('',(#1226));
#1228=SURFACE_STYLE_FILL_AREA(#1227);
#1229=SURFACE_SIDE_STYLE('',(#1228));
#1230=SURFACE_STYLE_USAGE(.BOTH.,#1229);
#1231=PRESENTATION_STYLE_ASSIGNMENT((#1230));
#54=STYLED_ITEM('',(#1231),#1224);
#35=SHAPE_REPRESENTATION('main_frame',(#15),#33);
#36=ADVANCED_BREP_SHAPE_REPRESENTATION('main_frame',(#1224),#33);
#1239=SHAPE_REPRESENTATION_RELATIONSHIP('','',#35,#36);
#1240=CARTESIAN_POINT('',(0.,0.,0.));
#1241=DIRECTION('',(0.,0.,1.));
#1242=DIRECTION('',(1.,0.,0.));
#1243=AXIS2_PLACEMENT_3D('',#1240,#1241,#1242);
#1245=MAPPED_ITEM('',#1244,#1243);
#1244=REPRESENTATION_MAP(#1243,#35);
#1246=APPLICATION_CONTEXT('Managed model based 3d engineering');
#1247=APPLICATION_PROTOCOL_DEFINITION('international standard','ap242_managed_model_based_3d_engineering',2014,#1246);
#1248=PRODUCT_CONTEXT('',#1246,'mechanical');
#1249=PRODUCT_DEFINITION_CONTEXT('part definition',#1246,'design');
#43=PRODUCT('main_frame','main_frame','',(#1248));
#1250=PRODUCT_RELATED_PRODUCT_CATEGORY('part','',(#43));
#1251=PRODUCT_DEFINITION_FORMATION_WITH_SPECIFIED_SOURCE('','',#43,.NOT_KNOWN.);
#44=PRODUCT_DEFINITION('design','',#1251,#1249);
#42=PRODUCT_DEFINITION_SHAPE('','',#44);
#1252=SHAPE_DEFINITION_REPRESENTATION(#42,#35);
#34=DRAUGHTING_MODEL('',(#1245),#33);
#16=SHAPE_REPRESENTATION('root',(#15,#48),#10);
#1253=CARTESIAN_POINT('',(0.,0.,0.));
#1254=DIRECTION('',(0.,0.,1.));
#1255=DIRECTION('',(1.,0.,0.));
#1256=AXIS2_PLACEMENT_3D('',#1253,#1254,#1255);
#1258=MAPPED_ITEM('',#1257,#1256);
#1257=REPRESENTATION_MAP(#1256,#16);
#24=PRODUCT('root','root','',(#1248));
#1259=PRODUCT_RELATED_PRODUCT_CATEGORY('part','',(#24));
#1260=PRODUCT_DEFINITION_FORMATION_WITH_SPECIFIED_SOURCE('','',#24,.NOT_KNOWN.);
#25=PRODUCT_DEFINITION('design','',#1260,#1249);
#23=PRODUCT_DEFINITION_SHAPE('','',#25);
#1261=SHAPE_DEFINITION_REPRESENTATION(#23,#16);
#11=DRAUGHTING_MODEL('',(#1258),#10);
#1262=DESCRIPTIVE_REPRESENTATION_ITEM('KEY','C:\\Users\\13271\\AppData\\Local\\Packages\\Shapr3D.Shapr3D_j403pzjkqtqbj\\TempState\\4bcf5646-c7fb-4619-a201-2a6545b9576c.tmp');
#1263=PROPERTY_DEFINITION('KEY','',#25);
#1264=REPRESENTATION('',(#1262),#10);
#1265=PROPERTY_DEFINITION_REPRESENTATION(#1263,#1264);
#1266=GENERAL_PROPERTY('','KEY','');
#1267=GENERAL_PROPERTY_ASSOCIATION('','',#1266,#1263);
#1=MECHANICAL_DESIGN_GEOMETRIC_PRESENTATION_REPRESENTATION('',(#54),#10);
ENDSEC;
END-ISO-10303-21;
