%TF.GenerationSoftware,KiCad,Pcbnew,8.0.3*%
%TF.CreationDate,2024-08-17T23:38:57+08:00*%
%TF.ProjectId,PH60_Rev3,50483630-5f52-4657-9633-2e6b69636164,rev?*%
%TF.SameCoordinates,Original*%
%TF.FileFunction,Legend,Top*%
%TF.FilePolarity,Positive*%
%FSLAX46Y46*%
G04 Gerber Fmt 4.6, Leading zero omitted, Abs format (unit mm)*
G04 Created by KiCad (PCBNEW 8.0.3) date 2024-08-17 23:38:57*
%MOMM*%
%LPD*%
G01*
G04 APERTURE LIST*
%ADD10C,0.150000*%
%ADD11C,0.120000*%
%ADD12C,1.750000*%
%ADD13C,3.050000*%
%ADD14C,4.000000*%
%ADD15R,0.850000X0.850000*%
%ADD16O,0.850000X0.850000*%
G04 APERTURE END LIST*
D10*
X155924405Y-40032200D02*
X156067262Y-40079819D01*
X156067262Y-40079819D02*
X156305357Y-40079819D01*
X156305357Y-40079819D02*
X156400595Y-40032200D01*
X156400595Y-40032200D02*
X156448214Y-39984580D01*
X156448214Y-39984580D02*
X156495833Y-39889342D01*
X156495833Y-39889342D02*
X156495833Y-39794104D01*
X156495833Y-39794104D02*
X156448214Y-39698866D01*
X156448214Y-39698866D02*
X156400595Y-39651247D01*
X156400595Y-39651247D02*
X156305357Y-39603628D01*
X156305357Y-39603628D02*
X156114881Y-39556009D01*
X156114881Y-39556009D02*
X156019643Y-39508390D01*
X156019643Y-39508390D02*
X155972024Y-39460771D01*
X155972024Y-39460771D02*
X155924405Y-39365533D01*
X155924405Y-39365533D02*
X155924405Y-39270295D01*
X155924405Y-39270295D02*
X155972024Y-39175057D01*
X155972024Y-39175057D02*
X156019643Y-39127438D01*
X156019643Y-39127438D02*
X156114881Y-39079819D01*
X156114881Y-39079819D02*
X156352976Y-39079819D01*
X156352976Y-39079819D02*
X156495833Y-39127438D01*
X156829167Y-39079819D02*
X157448214Y-39079819D01*
X157448214Y-39079819D02*
X157114881Y-39460771D01*
X157114881Y-39460771D02*
X157257738Y-39460771D01*
X157257738Y-39460771D02*
X157352976Y-39508390D01*
X157352976Y-39508390D02*
X157400595Y-39556009D01*
X157400595Y-39556009D02*
X157448214Y-39651247D01*
X157448214Y-39651247D02*
X157448214Y-39889342D01*
X157448214Y-39889342D02*
X157400595Y-39984580D01*
X157400595Y-39984580D02*
X157352976Y-40032200D01*
X157352976Y-40032200D02*
X157257738Y-40079819D01*
X157257738Y-40079819D02*
X156972024Y-40079819D01*
X156972024Y-40079819D02*
X156876786Y-40032200D01*
X156876786Y-40032200D02*
X156829167Y-39984580D01*
X158305357Y-39079819D02*
X158114881Y-39079819D01*
X158114881Y-39079819D02*
X158019643Y-39127438D01*
X158019643Y-39127438D02*
X157972024Y-39175057D01*
X157972024Y-39175057D02*
X157876786Y-39317914D01*
X157876786Y-39317914D02*
X157829167Y-39508390D01*
X157829167Y-39508390D02*
X157829167Y-39889342D01*
X157829167Y-39889342D02*
X157876786Y-39984580D01*
X157876786Y-39984580D02*
X157924405Y-40032200D01*
X157924405Y-40032200D02*
X158019643Y-40079819D01*
X158019643Y-40079819D02*
X158210119Y-40079819D01*
X158210119Y-40079819D02*
X158305357Y-40032200D01*
X158305357Y-40032200D02*
X158352976Y-39984580D01*
X158352976Y-39984580D02*
X158400595Y-39889342D01*
X158400595Y-39889342D02*
X158400595Y-39651247D01*
X158400595Y-39651247D02*
X158352976Y-39556009D01*
X158352976Y-39556009D02*
X158305357Y-39508390D01*
X158305357Y-39508390D02*
X158210119Y-39460771D01*
X158210119Y-39460771D02*
X158019643Y-39460771D01*
X158019643Y-39460771D02*
X157924405Y-39508390D01*
X157924405Y-39508390D02*
X157876786Y-39556009D01*
X157876786Y-39556009D02*
X157829167Y-39651247D01*
X94011905Y-20982200D02*
X94154762Y-21029819D01*
X94154762Y-21029819D02*
X94392857Y-21029819D01*
X94392857Y-21029819D02*
X94488095Y-20982200D01*
X94488095Y-20982200D02*
X94535714Y-20934580D01*
X94535714Y-20934580D02*
X94583333Y-20839342D01*
X94583333Y-20839342D02*
X94583333Y-20744104D01*
X94583333Y-20744104D02*
X94535714Y-20648866D01*
X94535714Y-20648866D02*
X94488095Y-20601247D01*
X94488095Y-20601247D02*
X94392857Y-20553628D01*
X94392857Y-20553628D02*
X94202381Y-20506009D01*
X94202381Y-20506009D02*
X94107143Y-20458390D01*
X94107143Y-20458390D02*
X94059524Y-20410771D01*
X94059524Y-20410771D02*
X94011905Y-20315533D01*
X94011905Y-20315533D02*
X94011905Y-20220295D01*
X94011905Y-20220295D02*
X94059524Y-20125057D01*
X94059524Y-20125057D02*
X94107143Y-20077438D01*
X94107143Y-20077438D02*
X94202381Y-20029819D01*
X94202381Y-20029819D02*
X94440476Y-20029819D01*
X94440476Y-20029819D02*
X94583333Y-20077438D01*
X95535714Y-21029819D02*
X94964286Y-21029819D01*
X95250000Y-21029819D02*
X95250000Y-20029819D01*
X95250000Y-20029819D02*
X95154762Y-20172676D01*
X95154762Y-20172676D02*
X95059524Y-20267914D01*
X95059524Y-20267914D02*
X94964286Y-20315533D01*
X96011905Y-21029819D02*
X96202381Y-21029819D01*
X96202381Y-21029819D02*
X96297619Y-20982200D01*
X96297619Y-20982200D02*
X96345238Y-20934580D01*
X96345238Y-20934580D02*
X96440476Y-20791723D01*
X96440476Y-20791723D02*
X96488095Y-20601247D01*
X96488095Y-20601247D02*
X96488095Y-20220295D01*
X96488095Y-20220295D02*
X96440476Y-20125057D01*
X96440476Y-20125057D02*
X96392857Y-20077438D01*
X96392857Y-20077438D02*
X96297619Y-20029819D01*
X96297619Y-20029819D02*
X96107143Y-20029819D01*
X96107143Y-20029819D02*
X96011905Y-20077438D01*
X96011905Y-20077438D02*
X95964286Y-20125057D01*
X95964286Y-20125057D02*
X95916667Y-20220295D01*
X95916667Y-20220295D02*
X95916667Y-20458390D01*
X95916667Y-20458390D02*
X95964286Y-20553628D01*
X95964286Y-20553628D02*
X96011905Y-20601247D01*
X96011905Y-20601247D02*
X96107143Y-20648866D01*
X96107143Y-20648866D02*
X96297619Y-20648866D01*
X96297619Y-20648866D02*
X96392857Y-20601247D01*
X96392857Y-20601247D02*
X96440476Y-20553628D01*
X96440476Y-20553628D02*
X96488095Y-20458390D01*
X136874405Y-40032200D02*
X137017262Y-40079819D01*
X137017262Y-40079819D02*
X137255357Y-40079819D01*
X137255357Y-40079819D02*
X137350595Y-40032200D01*
X137350595Y-40032200D02*
X137398214Y-39984580D01*
X137398214Y-39984580D02*
X137445833Y-39889342D01*
X137445833Y-39889342D02*
X137445833Y-39794104D01*
X137445833Y-39794104D02*
X137398214Y-39698866D01*
X137398214Y-39698866D02*
X137350595Y-39651247D01*
X137350595Y-39651247D02*
X137255357Y-39603628D01*
X137255357Y-39603628D02*
X137064881Y-39556009D01*
X137064881Y-39556009D02*
X136969643Y-39508390D01*
X136969643Y-39508390D02*
X136922024Y-39460771D01*
X136922024Y-39460771D02*
X136874405Y-39365533D01*
X136874405Y-39365533D02*
X136874405Y-39270295D01*
X136874405Y-39270295D02*
X136922024Y-39175057D01*
X136922024Y-39175057D02*
X136969643Y-39127438D01*
X136969643Y-39127438D02*
X137064881Y-39079819D01*
X137064881Y-39079819D02*
X137302976Y-39079819D01*
X137302976Y-39079819D02*
X137445833Y-39127438D01*
X137779167Y-39079819D02*
X138398214Y-39079819D01*
X138398214Y-39079819D02*
X138064881Y-39460771D01*
X138064881Y-39460771D02*
X138207738Y-39460771D01*
X138207738Y-39460771D02*
X138302976Y-39508390D01*
X138302976Y-39508390D02*
X138350595Y-39556009D01*
X138350595Y-39556009D02*
X138398214Y-39651247D01*
X138398214Y-39651247D02*
X138398214Y-39889342D01*
X138398214Y-39889342D02*
X138350595Y-39984580D01*
X138350595Y-39984580D02*
X138302976Y-40032200D01*
X138302976Y-40032200D02*
X138207738Y-40079819D01*
X138207738Y-40079819D02*
X137922024Y-40079819D01*
X137922024Y-40079819D02*
X137826786Y-40032200D01*
X137826786Y-40032200D02*
X137779167Y-39984580D01*
X139302976Y-39079819D02*
X138826786Y-39079819D01*
X138826786Y-39079819D02*
X138779167Y-39556009D01*
X138779167Y-39556009D02*
X138826786Y-39508390D01*
X138826786Y-39508390D02*
X138922024Y-39460771D01*
X138922024Y-39460771D02*
X139160119Y-39460771D01*
X139160119Y-39460771D02*
X139255357Y-39508390D01*
X139255357Y-39508390D02*
X139302976Y-39556009D01*
X139302976Y-39556009D02*
X139350595Y-39651247D01*
X139350595Y-39651247D02*
X139350595Y-39889342D01*
X139350595Y-39889342D02*
X139302976Y-39984580D01*
X139302976Y-39984580D02*
X139255357Y-40032200D01*
X139255357Y-40032200D02*
X139160119Y-40079819D01*
X139160119Y-40079819D02*
X138922024Y-40079819D01*
X138922024Y-40079819D02*
X138826786Y-40032200D01*
X138826786Y-40032200D02*
X138779167Y-39984580D01*
X272605655Y-30507200D02*
X272748512Y-30554819D01*
X272748512Y-30554819D02*
X272986607Y-30554819D01*
X272986607Y-30554819D02*
X273081845Y-30507200D01*
X273081845Y-30507200D02*
X273129464Y-30459580D01*
X273129464Y-30459580D02*
X273177083Y-30364342D01*
X273177083Y-30364342D02*
X273177083Y-30269104D01*
X273177083Y-30269104D02*
X273129464Y-30173866D01*
X273129464Y-30173866D02*
X273081845Y-30126247D01*
X273081845Y-30126247D02*
X272986607Y-30078628D01*
X272986607Y-30078628D02*
X272796131Y-30031009D01*
X272796131Y-30031009D02*
X272700893Y-29983390D01*
X272700893Y-29983390D02*
X272653274Y-29935771D01*
X272653274Y-29935771D02*
X272605655Y-29840533D01*
X272605655Y-29840533D02*
X272605655Y-29745295D01*
X272605655Y-29745295D02*
X272653274Y-29650057D01*
X272653274Y-29650057D02*
X272700893Y-29602438D01*
X272700893Y-29602438D02*
X272796131Y-29554819D01*
X272796131Y-29554819D02*
X273034226Y-29554819D01*
X273034226Y-29554819D02*
X273177083Y-29602438D01*
X273558036Y-29650057D02*
X273605655Y-29602438D01*
X273605655Y-29602438D02*
X273700893Y-29554819D01*
X273700893Y-29554819D02*
X273938988Y-29554819D01*
X273938988Y-29554819D02*
X274034226Y-29602438D01*
X274034226Y-29602438D02*
X274081845Y-29650057D01*
X274081845Y-29650057D02*
X274129464Y-29745295D01*
X274129464Y-29745295D02*
X274129464Y-29840533D01*
X274129464Y-29840533D02*
X274081845Y-29983390D01*
X274081845Y-29983390D02*
X273510417Y-30554819D01*
X273510417Y-30554819D02*
X274129464Y-30554819D01*
X274700893Y-29983390D02*
X274605655Y-29935771D01*
X274605655Y-29935771D02*
X274558036Y-29888152D01*
X274558036Y-29888152D02*
X274510417Y-29792914D01*
X274510417Y-29792914D02*
X274510417Y-29745295D01*
X274510417Y-29745295D02*
X274558036Y-29650057D01*
X274558036Y-29650057D02*
X274605655Y-29602438D01*
X274605655Y-29602438D02*
X274700893Y-29554819D01*
X274700893Y-29554819D02*
X274891369Y-29554819D01*
X274891369Y-29554819D02*
X274986607Y-29602438D01*
X274986607Y-29602438D02*
X275034226Y-29650057D01*
X275034226Y-29650057D02*
X275081845Y-29745295D01*
X275081845Y-29745295D02*
X275081845Y-29792914D01*
X275081845Y-29792914D02*
X275034226Y-29888152D01*
X275034226Y-29888152D02*
X274986607Y-29935771D01*
X274986607Y-29935771D02*
X274891369Y-29983390D01*
X274891369Y-29983390D02*
X274700893Y-29983390D01*
X274700893Y-29983390D02*
X274605655Y-30031009D01*
X274605655Y-30031009D02*
X274558036Y-30078628D01*
X274558036Y-30078628D02*
X274510417Y-30173866D01*
X274510417Y-30173866D02*
X274510417Y-30364342D01*
X274510417Y-30364342D02*
X274558036Y-30459580D01*
X274558036Y-30459580D02*
X274605655Y-30507200D01*
X274605655Y-30507200D02*
X274700893Y-30554819D01*
X274700893Y-30554819D02*
X274891369Y-30554819D01*
X274891369Y-30554819D02*
X274986607Y-30507200D01*
X274986607Y-30507200D02*
X275034226Y-30459580D01*
X275034226Y-30459580D02*
X275081845Y-30364342D01*
X275081845Y-30364342D02*
X275081845Y-30173866D01*
X275081845Y-30173866D02*
X275034226Y-30078628D01*
X275034226Y-30078628D02*
X274986607Y-30031009D01*
X274986607Y-30031009D02*
X274891369Y-29983390D01*
X236886905Y-1932200D02*
X237029762Y-1979819D01*
X237029762Y-1979819D02*
X237267857Y-1979819D01*
X237267857Y-1979819D02*
X237363095Y-1932200D01*
X237363095Y-1932200D02*
X237410714Y-1884580D01*
X237410714Y-1884580D02*
X237458333Y-1789342D01*
X237458333Y-1789342D02*
X237458333Y-1694104D01*
X237458333Y-1694104D02*
X237410714Y-1598866D01*
X237410714Y-1598866D02*
X237363095Y-1551247D01*
X237363095Y-1551247D02*
X237267857Y-1503628D01*
X237267857Y-1503628D02*
X237077381Y-1456009D01*
X237077381Y-1456009D02*
X236982143Y-1408390D01*
X236982143Y-1408390D02*
X236934524Y-1360771D01*
X236934524Y-1360771D02*
X236886905Y-1265533D01*
X236886905Y-1265533D02*
X236886905Y-1170295D01*
X236886905Y-1170295D02*
X236934524Y-1075057D01*
X236934524Y-1075057D02*
X236982143Y-1027438D01*
X236982143Y-1027438D02*
X237077381Y-979819D01*
X237077381Y-979819D02*
X237315476Y-979819D01*
X237315476Y-979819D02*
X237458333Y-1027438D01*
X238410714Y-1979819D02*
X237839286Y-1979819D01*
X238125000Y-1979819D02*
X238125000Y-979819D01*
X238125000Y-979819D02*
X238029762Y-1122676D01*
X238029762Y-1122676D02*
X237934524Y-1217914D01*
X237934524Y-1217914D02*
X237839286Y-1265533D01*
X238744048Y-979819D02*
X239363095Y-979819D01*
X239363095Y-979819D02*
X239029762Y-1360771D01*
X239029762Y-1360771D02*
X239172619Y-1360771D01*
X239172619Y-1360771D02*
X239267857Y-1408390D01*
X239267857Y-1408390D02*
X239315476Y-1456009D01*
X239315476Y-1456009D02*
X239363095Y-1551247D01*
X239363095Y-1551247D02*
X239363095Y-1789342D01*
X239363095Y-1789342D02*
X239315476Y-1884580D01*
X239315476Y-1884580D02*
X239267857Y-1932200D01*
X239267857Y-1932200D02*
X239172619Y-1979819D01*
X239172619Y-1979819D02*
X238886905Y-1979819D01*
X238886905Y-1979819D02*
X238791667Y-1932200D01*
X238791667Y-1932200D02*
X238744048Y-1884580D01*
X27813095Y-1932200D02*
X27955952Y-1979819D01*
X27955952Y-1979819D02*
X28194047Y-1979819D01*
X28194047Y-1979819D02*
X28289285Y-1932200D01*
X28289285Y-1932200D02*
X28336904Y-1884580D01*
X28336904Y-1884580D02*
X28384523Y-1789342D01*
X28384523Y-1789342D02*
X28384523Y-1694104D01*
X28384523Y-1694104D02*
X28336904Y-1598866D01*
X28336904Y-1598866D02*
X28289285Y-1551247D01*
X28289285Y-1551247D02*
X28194047Y-1503628D01*
X28194047Y-1503628D02*
X28003571Y-1456009D01*
X28003571Y-1456009D02*
X27908333Y-1408390D01*
X27908333Y-1408390D02*
X27860714Y-1360771D01*
X27860714Y-1360771D02*
X27813095Y-1265533D01*
X27813095Y-1265533D02*
X27813095Y-1170295D01*
X27813095Y-1170295D02*
X27860714Y-1075057D01*
X27860714Y-1075057D02*
X27908333Y-1027438D01*
X27908333Y-1027438D02*
X28003571Y-979819D01*
X28003571Y-979819D02*
X28241666Y-979819D01*
X28241666Y-979819D02*
X28384523Y-1027438D01*
X28765476Y-1075057D02*
X28813095Y-1027438D01*
X28813095Y-1027438D02*
X28908333Y-979819D01*
X28908333Y-979819D02*
X29146428Y-979819D01*
X29146428Y-979819D02*
X29241666Y-1027438D01*
X29241666Y-1027438D02*
X29289285Y-1075057D01*
X29289285Y-1075057D02*
X29336904Y-1170295D01*
X29336904Y-1170295D02*
X29336904Y-1265533D01*
X29336904Y-1265533D02*
X29289285Y-1408390D01*
X29289285Y-1408390D02*
X28717857Y-1979819D01*
X28717857Y-1979819D02*
X29336904Y-1979819D01*
X146399405Y-59082200D02*
X146542262Y-59129819D01*
X146542262Y-59129819D02*
X146780357Y-59129819D01*
X146780357Y-59129819D02*
X146875595Y-59082200D01*
X146875595Y-59082200D02*
X146923214Y-59034580D01*
X146923214Y-59034580D02*
X146970833Y-58939342D01*
X146970833Y-58939342D02*
X146970833Y-58844104D01*
X146970833Y-58844104D02*
X146923214Y-58748866D01*
X146923214Y-58748866D02*
X146875595Y-58701247D01*
X146875595Y-58701247D02*
X146780357Y-58653628D01*
X146780357Y-58653628D02*
X146589881Y-58606009D01*
X146589881Y-58606009D02*
X146494643Y-58558390D01*
X146494643Y-58558390D02*
X146447024Y-58510771D01*
X146447024Y-58510771D02*
X146399405Y-58415533D01*
X146399405Y-58415533D02*
X146399405Y-58320295D01*
X146399405Y-58320295D02*
X146447024Y-58225057D01*
X146447024Y-58225057D02*
X146494643Y-58177438D01*
X146494643Y-58177438D02*
X146589881Y-58129819D01*
X146589881Y-58129819D02*
X146827976Y-58129819D01*
X146827976Y-58129819D02*
X146970833Y-58177438D01*
X147827976Y-58463152D02*
X147827976Y-59129819D01*
X147589881Y-58082200D02*
X147351786Y-58796485D01*
X147351786Y-58796485D02*
X147970833Y-58796485D01*
X148399405Y-59129819D02*
X148589881Y-59129819D01*
X148589881Y-59129819D02*
X148685119Y-59082200D01*
X148685119Y-59082200D02*
X148732738Y-59034580D01*
X148732738Y-59034580D02*
X148827976Y-58891723D01*
X148827976Y-58891723D02*
X148875595Y-58701247D01*
X148875595Y-58701247D02*
X148875595Y-58320295D01*
X148875595Y-58320295D02*
X148827976Y-58225057D01*
X148827976Y-58225057D02*
X148780357Y-58177438D01*
X148780357Y-58177438D02*
X148685119Y-58129819D01*
X148685119Y-58129819D02*
X148494643Y-58129819D01*
X148494643Y-58129819D02*
X148399405Y-58177438D01*
X148399405Y-58177438D02*
X148351786Y-58225057D01*
X148351786Y-58225057D02*
X148304167Y-58320295D01*
X148304167Y-58320295D02*
X148304167Y-58558390D01*
X148304167Y-58558390D02*
X148351786Y-58653628D01*
X148351786Y-58653628D02*
X148399405Y-58701247D01*
X148399405Y-58701247D02*
X148494643Y-58748866D01*
X148494643Y-58748866D02*
X148685119Y-58748866D01*
X148685119Y-58748866D02*
X148780357Y-58701247D01*
X148780357Y-58701247D02*
X148827976Y-58653628D01*
X148827976Y-58653628D02*
X148875595Y-58558390D01*
X258318155Y-59082200D02*
X258461012Y-59129819D01*
X258461012Y-59129819D02*
X258699107Y-59129819D01*
X258699107Y-59129819D02*
X258794345Y-59082200D01*
X258794345Y-59082200D02*
X258841964Y-59034580D01*
X258841964Y-59034580D02*
X258889583Y-58939342D01*
X258889583Y-58939342D02*
X258889583Y-58844104D01*
X258889583Y-58844104D02*
X258841964Y-58748866D01*
X258841964Y-58748866D02*
X258794345Y-58701247D01*
X258794345Y-58701247D02*
X258699107Y-58653628D01*
X258699107Y-58653628D02*
X258508631Y-58606009D01*
X258508631Y-58606009D02*
X258413393Y-58558390D01*
X258413393Y-58558390D02*
X258365774Y-58510771D01*
X258365774Y-58510771D02*
X258318155Y-58415533D01*
X258318155Y-58415533D02*
X258318155Y-58320295D01*
X258318155Y-58320295D02*
X258365774Y-58225057D01*
X258365774Y-58225057D02*
X258413393Y-58177438D01*
X258413393Y-58177438D02*
X258508631Y-58129819D01*
X258508631Y-58129819D02*
X258746726Y-58129819D01*
X258746726Y-58129819D02*
X258889583Y-58177438D01*
X259794345Y-58129819D02*
X259318155Y-58129819D01*
X259318155Y-58129819D02*
X259270536Y-58606009D01*
X259270536Y-58606009D02*
X259318155Y-58558390D01*
X259318155Y-58558390D02*
X259413393Y-58510771D01*
X259413393Y-58510771D02*
X259651488Y-58510771D01*
X259651488Y-58510771D02*
X259746726Y-58558390D01*
X259746726Y-58558390D02*
X259794345Y-58606009D01*
X259794345Y-58606009D02*
X259841964Y-58701247D01*
X259841964Y-58701247D02*
X259841964Y-58939342D01*
X259841964Y-58939342D02*
X259794345Y-59034580D01*
X259794345Y-59034580D02*
X259746726Y-59082200D01*
X259746726Y-59082200D02*
X259651488Y-59129819D01*
X259651488Y-59129819D02*
X259413393Y-59129819D01*
X259413393Y-59129819D02*
X259318155Y-59082200D01*
X259318155Y-59082200D02*
X259270536Y-59034580D01*
X260699107Y-58463152D02*
X260699107Y-59129819D01*
X260461012Y-58082200D02*
X260222917Y-58796485D01*
X260222917Y-58796485D02*
X260841964Y-58796485D01*
X15430655Y-40032200D02*
X15573512Y-40079819D01*
X15573512Y-40079819D02*
X15811607Y-40079819D01*
X15811607Y-40079819D02*
X15906845Y-40032200D01*
X15906845Y-40032200D02*
X15954464Y-39984580D01*
X15954464Y-39984580D02*
X16002083Y-39889342D01*
X16002083Y-39889342D02*
X16002083Y-39794104D01*
X16002083Y-39794104D02*
X15954464Y-39698866D01*
X15954464Y-39698866D02*
X15906845Y-39651247D01*
X15906845Y-39651247D02*
X15811607Y-39603628D01*
X15811607Y-39603628D02*
X15621131Y-39556009D01*
X15621131Y-39556009D02*
X15525893Y-39508390D01*
X15525893Y-39508390D02*
X15478274Y-39460771D01*
X15478274Y-39460771D02*
X15430655Y-39365533D01*
X15430655Y-39365533D02*
X15430655Y-39270295D01*
X15430655Y-39270295D02*
X15478274Y-39175057D01*
X15478274Y-39175057D02*
X15525893Y-39127438D01*
X15525893Y-39127438D02*
X15621131Y-39079819D01*
X15621131Y-39079819D02*
X15859226Y-39079819D01*
X15859226Y-39079819D02*
X16002083Y-39127438D01*
X16383036Y-39175057D02*
X16430655Y-39127438D01*
X16430655Y-39127438D02*
X16525893Y-39079819D01*
X16525893Y-39079819D02*
X16763988Y-39079819D01*
X16763988Y-39079819D02*
X16859226Y-39127438D01*
X16859226Y-39127438D02*
X16906845Y-39175057D01*
X16906845Y-39175057D02*
X16954464Y-39270295D01*
X16954464Y-39270295D02*
X16954464Y-39365533D01*
X16954464Y-39365533D02*
X16906845Y-39508390D01*
X16906845Y-39508390D02*
X16335417Y-40079819D01*
X16335417Y-40079819D02*
X16954464Y-40079819D01*
X17430655Y-40079819D02*
X17621131Y-40079819D01*
X17621131Y-40079819D02*
X17716369Y-40032200D01*
X17716369Y-40032200D02*
X17763988Y-39984580D01*
X17763988Y-39984580D02*
X17859226Y-39841723D01*
X17859226Y-39841723D02*
X17906845Y-39651247D01*
X17906845Y-39651247D02*
X17906845Y-39270295D01*
X17906845Y-39270295D02*
X17859226Y-39175057D01*
X17859226Y-39175057D02*
X17811607Y-39127438D01*
X17811607Y-39127438D02*
X17716369Y-39079819D01*
X17716369Y-39079819D02*
X17525893Y-39079819D01*
X17525893Y-39079819D02*
X17430655Y-39127438D01*
X17430655Y-39127438D02*
X17383036Y-39175057D01*
X17383036Y-39175057D02*
X17335417Y-39270295D01*
X17335417Y-39270295D02*
X17335417Y-39508390D01*
X17335417Y-39508390D02*
X17383036Y-39603628D01*
X17383036Y-39603628D02*
X17430655Y-39651247D01*
X17430655Y-39651247D02*
X17525893Y-39698866D01*
X17525893Y-39698866D02*
X17716369Y-39698866D01*
X17716369Y-39698866D02*
X17811607Y-39651247D01*
X17811607Y-39651247D02*
X17859226Y-39603628D01*
X17859226Y-39603628D02*
X17906845Y-39508390D01*
X208311905Y-20982200D02*
X208454762Y-21029819D01*
X208454762Y-21029819D02*
X208692857Y-21029819D01*
X208692857Y-21029819D02*
X208788095Y-20982200D01*
X208788095Y-20982200D02*
X208835714Y-20934580D01*
X208835714Y-20934580D02*
X208883333Y-20839342D01*
X208883333Y-20839342D02*
X208883333Y-20744104D01*
X208883333Y-20744104D02*
X208835714Y-20648866D01*
X208835714Y-20648866D02*
X208788095Y-20601247D01*
X208788095Y-20601247D02*
X208692857Y-20553628D01*
X208692857Y-20553628D02*
X208502381Y-20506009D01*
X208502381Y-20506009D02*
X208407143Y-20458390D01*
X208407143Y-20458390D02*
X208359524Y-20410771D01*
X208359524Y-20410771D02*
X208311905Y-20315533D01*
X208311905Y-20315533D02*
X208311905Y-20220295D01*
X208311905Y-20220295D02*
X208359524Y-20125057D01*
X208359524Y-20125057D02*
X208407143Y-20077438D01*
X208407143Y-20077438D02*
X208502381Y-20029819D01*
X208502381Y-20029819D02*
X208740476Y-20029819D01*
X208740476Y-20029819D02*
X208883333Y-20077438D01*
X209264286Y-20125057D02*
X209311905Y-20077438D01*
X209311905Y-20077438D02*
X209407143Y-20029819D01*
X209407143Y-20029819D02*
X209645238Y-20029819D01*
X209645238Y-20029819D02*
X209740476Y-20077438D01*
X209740476Y-20077438D02*
X209788095Y-20125057D01*
X209788095Y-20125057D02*
X209835714Y-20220295D01*
X209835714Y-20220295D02*
X209835714Y-20315533D01*
X209835714Y-20315533D02*
X209788095Y-20458390D01*
X209788095Y-20458390D02*
X209216667Y-21029819D01*
X209216667Y-21029819D02*
X209835714Y-21029819D01*
X210740476Y-20029819D02*
X210264286Y-20029819D01*
X210264286Y-20029819D02*
X210216667Y-20506009D01*
X210216667Y-20506009D02*
X210264286Y-20458390D01*
X210264286Y-20458390D02*
X210359524Y-20410771D01*
X210359524Y-20410771D02*
X210597619Y-20410771D01*
X210597619Y-20410771D02*
X210692857Y-20458390D01*
X210692857Y-20458390D02*
X210740476Y-20506009D01*
X210740476Y-20506009D02*
X210788095Y-20601247D01*
X210788095Y-20601247D02*
X210788095Y-20839342D01*
X210788095Y-20839342D02*
X210740476Y-20934580D01*
X210740476Y-20934580D02*
X210692857Y-20982200D01*
X210692857Y-20982200D02*
X210597619Y-21029819D01*
X210597619Y-21029819D02*
X210359524Y-21029819D01*
X210359524Y-21029819D02*
X210264286Y-20982200D01*
X210264286Y-20982200D02*
X210216667Y-20934580D01*
X10668155Y-78132200D02*
X10811012Y-78179819D01*
X10811012Y-78179819D02*
X11049107Y-78179819D01*
X11049107Y-78179819D02*
X11144345Y-78132200D01*
X11144345Y-78132200D02*
X11191964Y-78084580D01*
X11191964Y-78084580D02*
X11239583Y-77989342D01*
X11239583Y-77989342D02*
X11239583Y-77894104D01*
X11239583Y-77894104D02*
X11191964Y-77798866D01*
X11191964Y-77798866D02*
X11144345Y-77751247D01*
X11144345Y-77751247D02*
X11049107Y-77703628D01*
X11049107Y-77703628D02*
X10858631Y-77656009D01*
X10858631Y-77656009D02*
X10763393Y-77608390D01*
X10763393Y-77608390D02*
X10715774Y-77560771D01*
X10715774Y-77560771D02*
X10668155Y-77465533D01*
X10668155Y-77465533D02*
X10668155Y-77370295D01*
X10668155Y-77370295D02*
X10715774Y-77275057D01*
X10715774Y-77275057D02*
X10763393Y-77227438D01*
X10763393Y-77227438D02*
X10858631Y-77179819D01*
X10858631Y-77179819D02*
X11096726Y-77179819D01*
X11096726Y-77179819D02*
X11239583Y-77227438D01*
X12144345Y-77179819D02*
X11668155Y-77179819D01*
X11668155Y-77179819D02*
X11620536Y-77656009D01*
X11620536Y-77656009D02*
X11668155Y-77608390D01*
X11668155Y-77608390D02*
X11763393Y-77560771D01*
X11763393Y-77560771D02*
X12001488Y-77560771D01*
X12001488Y-77560771D02*
X12096726Y-77608390D01*
X12096726Y-77608390D02*
X12144345Y-77656009D01*
X12144345Y-77656009D02*
X12191964Y-77751247D01*
X12191964Y-77751247D02*
X12191964Y-77989342D01*
X12191964Y-77989342D02*
X12144345Y-78084580D01*
X12144345Y-78084580D02*
X12096726Y-78132200D01*
X12096726Y-78132200D02*
X12001488Y-78179819D01*
X12001488Y-78179819D02*
X11763393Y-78179819D01*
X11763393Y-78179819D02*
X11668155Y-78132200D01*
X11668155Y-78132200D02*
X11620536Y-78084580D01*
X13096726Y-77179819D02*
X12620536Y-77179819D01*
X12620536Y-77179819D02*
X12572917Y-77656009D01*
X12572917Y-77656009D02*
X12620536Y-77608390D01*
X12620536Y-77608390D02*
X12715774Y-77560771D01*
X12715774Y-77560771D02*
X12953869Y-77560771D01*
X12953869Y-77560771D02*
X13049107Y-77608390D01*
X13049107Y-77608390D02*
X13096726Y-77656009D01*
X13096726Y-77656009D02*
X13144345Y-77751247D01*
X13144345Y-77751247D02*
X13144345Y-77989342D01*
X13144345Y-77989342D02*
X13096726Y-78084580D01*
X13096726Y-78084580D02*
X13049107Y-78132200D01*
X13049107Y-78132200D02*
X12953869Y-78179819D01*
X12953869Y-78179819D02*
X12715774Y-78179819D01*
X12715774Y-78179819D02*
X12620536Y-78132200D01*
X12620536Y-78132200D02*
X12572917Y-78084580D01*
X227361905Y-20982200D02*
X227504762Y-21029819D01*
X227504762Y-21029819D02*
X227742857Y-21029819D01*
X227742857Y-21029819D02*
X227838095Y-20982200D01*
X227838095Y-20982200D02*
X227885714Y-20934580D01*
X227885714Y-20934580D02*
X227933333Y-20839342D01*
X227933333Y-20839342D02*
X227933333Y-20744104D01*
X227933333Y-20744104D02*
X227885714Y-20648866D01*
X227885714Y-20648866D02*
X227838095Y-20601247D01*
X227838095Y-20601247D02*
X227742857Y-20553628D01*
X227742857Y-20553628D02*
X227552381Y-20506009D01*
X227552381Y-20506009D02*
X227457143Y-20458390D01*
X227457143Y-20458390D02*
X227409524Y-20410771D01*
X227409524Y-20410771D02*
X227361905Y-20315533D01*
X227361905Y-20315533D02*
X227361905Y-20220295D01*
X227361905Y-20220295D02*
X227409524Y-20125057D01*
X227409524Y-20125057D02*
X227457143Y-20077438D01*
X227457143Y-20077438D02*
X227552381Y-20029819D01*
X227552381Y-20029819D02*
X227790476Y-20029819D01*
X227790476Y-20029819D02*
X227933333Y-20077438D01*
X228314286Y-20125057D02*
X228361905Y-20077438D01*
X228361905Y-20077438D02*
X228457143Y-20029819D01*
X228457143Y-20029819D02*
X228695238Y-20029819D01*
X228695238Y-20029819D02*
X228790476Y-20077438D01*
X228790476Y-20077438D02*
X228838095Y-20125057D01*
X228838095Y-20125057D02*
X228885714Y-20220295D01*
X228885714Y-20220295D02*
X228885714Y-20315533D01*
X228885714Y-20315533D02*
X228838095Y-20458390D01*
X228838095Y-20458390D02*
X228266667Y-21029819D01*
X228266667Y-21029819D02*
X228885714Y-21029819D01*
X229742857Y-20029819D02*
X229552381Y-20029819D01*
X229552381Y-20029819D02*
X229457143Y-20077438D01*
X229457143Y-20077438D02*
X229409524Y-20125057D01*
X229409524Y-20125057D02*
X229314286Y-20267914D01*
X229314286Y-20267914D02*
X229266667Y-20458390D01*
X229266667Y-20458390D02*
X229266667Y-20839342D01*
X229266667Y-20839342D02*
X229314286Y-20934580D01*
X229314286Y-20934580D02*
X229361905Y-20982200D01*
X229361905Y-20982200D02*
X229457143Y-21029819D01*
X229457143Y-21029819D02*
X229647619Y-21029819D01*
X229647619Y-21029819D02*
X229742857Y-20982200D01*
X229742857Y-20982200D02*
X229790476Y-20934580D01*
X229790476Y-20934580D02*
X229838095Y-20839342D01*
X229838095Y-20839342D02*
X229838095Y-20601247D01*
X229838095Y-20601247D02*
X229790476Y-20506009D01*
X229790476Y-20506009D02*
X229742857Y-20458390D01*
X229742857Y-20458390D02*
X229647619Y-20410771D01*
X229647619Y-20410771D02*
X229457143Y-20410771D01*
X229457143Y-20410771D02*
X229361905Y-20458390D01*
X229361905Y-20458390D02*
X229314286Y-20506009D01*
X229314286Y-20506009D02*
X229266667Y-20601247D01*
X272605655Y-78132200D02*
X272748512Y-78179819D01*
X272748512Y-78179819D02*
X272986607Y-78179819D01*
X272986607Y-78179819D02*
X273081845Y-78132200D01*
X273081845Y-78132200D02*
X273129464Y-78084580D01*
X273129464Y-78084580D02*
X273177083Y-77989342D01*
X273177083Y-77989342D02*
X273177083Y-77894104D01*
X273177083Y-77894104D02*
X273129464Y-77798866D01*
X273129464Y-77798866D02*
X273081845Y-77751247D01*
X273081845Y-77751247D02*
X272986607Y-77703628D01*
X272986607Y-77703628D02*
X272796131Y-77656009D01*
X272796131Y-77656009D02*
X272700893Y-77608390D01*
X272700893Y-77608390D02*
X272653274Y-77560771D01*
X272653274Y-77560771D02*
X272605655Y-77465533D01*
X272605655Y-77465533D02*
X272605655Y-77370295D01*
X272605655Y-77370295D02*
X272653274Y-77275057D01*
X272653274Y-77275057D02*
X272700893Y-77227438D01*
X272700893Y-77227438D02*
X272796131Y-77179819D01*
X272796131Y-77179819D02*
X273034226Y-77179819D01*
X273034226Y-77179819D02*
X273177083Y-77227438D01*
X274034226Y-77179819D02*
X273843750Y-77179819D01*
X273843750Y-77179819D02*
X273748512Y-77227438D01*
X273748512Y-77227438D02*
X273700893Y-77275057D01*
X273700893Y-77275057D02*
X273605655Y-77417914D01*
X273605655Y-77417914D02*
X273558036Y-77608390D01*
X273558036Y-77608390D02*
X273558036Y-77989342D01*
X273558036Y-77989342D02*
X273605655Y-78084580D01*
X273605655Y-78084580D02*
X273653274Y-78132200D01*
X273653274Y-78132200D02*
X273748512Y-78179819D01*
X273748512Y-78179819D02*
X273938988Y-78179819D01*
X273938988Y-78179819D02*
X274034226Y-78132200D01*
X274034226Y-78132200D02*
X274081845Y-78084580D01*
X274081845Y-78084580D02*
X274129464Y-77989342D01*
X274129464Y-77989342D02*
X274129464Y-77751247D01*
X274129464Y-77751247D02*
X274081845Y-77656009D01*
X274081845Y-77656009D02*
X274034226Y-77608390D01*
X274034226Y-77608390D02*
X273938988Y-77560771D01*
X273938988Y-77560771D02*
X273748512Y-77560771D01*
X273748512Y-77560771D02*
X273653274Y-77608390D01*
X273653274Y-77608390D02*
X273605655Y-77656009D01*
X273605655Y-77656009D02*
X273558036Y-77751247D01*
X274510417Y-77275057D02*
X274558036Y-77227438D01*
X274558036Y-77227438D02*
X274653274Y-77179819D01*
X274653274Y-77179819D02*
X274891369Y-77179819D01*
X274891369Y-77179819D02*
X274986607Y-77227438D01*
X274986607Y-77227438D02*
X275034226Y-77275057D01*
X275034226Y-77275057D02*
X275081845Y-77370295D01*
X275081845Y-77370295D02*
X275081845Y-77465533D01*
X275081845Y-77465533D02*
X275034226Y-77608390D01*
X275034226Y-77608390D02*
X274462798Y-78179819D01*
X274462798Y-78179819D02*
X275081845Y-78179819D01*
X60674405Y-40032200D02*
X60817262Y-40079819D01*
X60817262Y-40079819D02*
X61055357Y-40079819D01*
X61055357Y-40079819D02*
X61150595Y-40032200D01*
X61150595Y-40032200D02*
X61198214Y-39984580D01*
X61198214Y-39984580D02*
X61245833Y-39889342D01*
X61245833Y-39889342D02*
X61245833Y-39794104D01*
X61245833Y-39794104D02*
X61198214Y-39698866D01*
X61198214Y-39698866D02*
X61150595Y-39651247D01*
X61150595Y-39651247D02*
X61055357Y-39603628D01*
X61055357Y-39603628D02*
X60864881Y-39556009D01*
X60864881Y-39556009D02*
X60769643Y-39508390D01*
X60769643Y-39508390D02*
X60722024Y-39460771D01*
X60722024Y-39460771D02*
X60674405Y-39365533D01*
X60674405Y-39365533D02*
X60674405Y-39270295D01*
X60674405Y-39270295D02*
X60722024Y-39175057D01*
X60722024Y-39175057D02*
X60769643Y-39127438D01*
X60769643Y-39127438D02*
X60864881Y-39079819D01*
X60864881Y-39079819D02*
X61102976Y-39079819D01*
X61102976Y-39079819D02*
X61245833Y-39127438D01*
X61579167Y-39079819D02*
X62198214Y-39079819D01*
X62198214Y-39079819D02*
X61864881Y-39460771D01*
X61864881Y-39460771D02*
X62007738Y-39460771D01*
X62007738Y-39460771D02*
X62102976Y-39508390D01*
X62102976Y-39508390D02*
X62150595Y-39556009D01*
X62150595Y-39556009D02*
X62198214Y-39651247D01*
X62198214Y-39651247D02*
X62198214Y-39889342D01*
X62198214Y-39889342D02*
X62150595Y-39984580D01*
X62150595Y-39984580D02*
X62102976Y-40032200D01*
X62102976Y-40032200D02*
X62007738Y-40079819D01*
X62007738Y-40079819D02*
X61722024Y-40079819D01*
X61722024Y-40079819D02*
X61626786Y-40032200D01*
X61626786Y-40032200D02*
X61579167Y-39984580D01*
X63150595Y-40079819D02*
X62579167Y-40079819D01*
X62864881Y-40079819D02*
X62864881Y-39079819D01*
X62864881Y-39079819D02*
X62769643Y-39222676D01*
X62769643Y-39222676D02*
X62674405Y-39317914D01*
X62674405Y-39317914D02*
X62579167Y-39365533D01*
X51149405Y-59082200D02*
X51292262Y-59129819D01*
X51292262Y-59129819D02*
X51530357Y-59129819D01*
X51530357Y-59129819D02*
X51625595Y-59082200D01*
X51625595Y-59082200D02*
X51673214Y-59034580D01*
X51673214Y-59034580D02*
X51720833Y-58939342D01*
X51720833Y-58939342D02*
X51720833Y-58844104D01*
X51720833Y-58844104D02*
X51673214Y-58748866D01*
X51673214Y-58748866D02*
X51625595Y-58701247D01*
X51625595Y-58701247D02*
X51530357Y-58653628D01*
X51530357Y-58653628D02*
X51339881Y-58606009D01*
X51339881Y-58606009D02*
X51244643Y-58558390D01*
X51244643Y-58558390D02*
X51197024Y-58510771D01*
X51197024Y-58510771D02*
X51149405Y-58415533D01*
X51149405Y-58415533D02*
X51149405Y-58320295D01*
X51149405Y-58320295D02*
X51197024Y-58225057D01*
X51197024Y-58225057D02*
X51244643Y-58177438D01*
X51244643Y-58177438D02*
X51339881Y-58129819D01*
X51339881Y-58129819D02*
X51577976Y-58129819D01*
X51577976Y-58129819D02*
X51720833Y-58177438D01*
X52577976Y-58463152D02*
X52577976Y-59129819D01*
X52339881Y-58082200D02*
X52101786Y-58796485D01*
X52101786Y-58796485D02*
X52720833Y-58796485D01*
X53530357Y-58463152D02*
X53530357Y-59129819D01*
X53292262Y-58082200D02*
X53054167Y-58796485D01*
X53054167Y-58796485D02*
X53673214Y-58796485D01*
X201168155Y-78132200D02*
X201311012Y-78179819D01*
X201311012Y-78179819D02*
X201549107Y-78179819D01*
X201549107Y-78179819D02*
X201644345Y-78132200D01*
X201644345Y-78132200D02*
X201691964Y-78084580D01*
X201691964Y-78084580D02*
X201739583Y-77989342D01*
X201739583Y-77989342D02*
X201739583Y-77894104D01*
X201739583Y-77894104D02*
X201691964Y-77798866D01*
X201691964Y-77798866D02*
X201644345Y-77751247D01*
X201644345Y-77751247D02*
X201549107Y-77703628D01*
X201549107Y-77703628D02*
X201358631Y-77656009D01*
X201358631Y-77656009D02*
X201263393Y-77608390D01*
X201263393Y-77608390D02*
X201215774Y-77560771D01*
X201215774Y-77560771D02*
X201168155Y-77465533D01*
X201168155Y-77465533D02*
X201168155Y-77370295D01*
X201168155Y-77370295D02*
X201215774Y-77275057D01*
X201215774Y-77275057D02*
X201263393Y-77227438D01*
X201263393Y-77227438D02*
X201358631Y-77179819D01*
X201358631Y-77179819D02*
X201596726Y-77179819D01*
X201596726Y-77179819D02*
X201739583Y-77227438D01*
X202644345Y-77179819D02*
X202168155Y-77179819D01*
X202168155Y-77179819D02*
X202120536Y-77656009D01*
X202120536Y-77656009D02*
X202168155Y-77608390D01*
X202168155Y-77608390D02*
X202263393Y-77560771D01*
X202263393Y-77560771D02*
X202501488Y-77560771D01*
X202501488Y-77560771D02*
X202596726Y-77608390D01*
X202596726Y-77608390D02*
X202644345Y-77656009D01*
X202644345Y-77656009D02*
X202691964Y-77751247D01*
X202691964Y-77751247D02*
X202691964Y-77989342D01*
X202691964Y-77989342D02*
X202644345Y-78084580D01*
X202644345Y-78084580D02*
X202596726Y-78132200D01*
X202596726Y-78132200D02*
X202501488Y-78179819D01*
X202501488Y-78179819D02*
X202263393Y-78179819D01*
X202263393Y-78179819D02*
X202168155Y-78132200D01*
X202168155Y-78132200D02*
X202120536Y-78084580D01*
X203168155Y-78179819D02*
X203358631Y-78179819D01*
X203358631Y-78179819D02*
X203453869Y-78132200D01*
X203453869Y-78132200D02*
X203501488Y-78084580D01*
X203501488Y-78084580D02*
X203596726Y-77941723D01*
X203596726Y-77941723D02*
X203644345Y-77751247D01*
X203644345Y-77751247D02*
X203644345Y-77370295D01*
X203644345Y-77370295D02*
X203596726Y-77275057D01*
X203596726Y-77275057D02*
X203549107Y-77227438D01*
X203549107Y-77227438D02*
X203453869Y-77179819D01*
X203453869Y-77179819D02*
X203263393Y-77179819D01*
X203263393Y-77179819D02*
X203168155Y-77227438D01*
X203168155Y-77227438D02*
X203120536Y-77275057D01*
X203120536Y-77275057D02*
X203072917Y-77370295D01*
X203072917Y-77370295D02*
X203072917Y-77608390D01*
X203072917Y-77608390D02*
X203120536Y-77703628D01*
X203120536Y-77703628D02*
X203168155Y-77751247D01*
X203168155Y-77751247D02*
X203263393Y-77798866D01*
X203263393Y-77798866D02*
X203453869Y-77798866D01*
X203453869Y-77798866D02*
X203549107Y-77751247D01*
X203549107Y-77751247D02*
X203596726Y-77703628D01*
X203596726Y-77703628D02*
X203644345Y-77608390D01*
X70199405Y-59082200D02*
X70342262Y-59129819D01*
X70342262Y-59129819D02*
X70580357Y-59129819D01*
X70580357Y-59129819D02*
X70675595Y-59082200D01*
X70675595Y-59082200D02*
X70723214Y-59034580D01*
X70723214Y-59034580D02*
X70770833Y-58939342D01*
X70770833Y-58939342D02*
X70770833Y-58844104D01*
X70770833Y-58844104D02*
X70723214Y-58748866D01*
X70723214Y-58748866D02*
X70675595Y-58701247D01*
X70675595Y-58701247D02*
X70580357Y-58653628D01*
X70580357Y-58653628D02*
X70389881Y-58606009D01*
X70389881Y-58606009D02*
X70294643Y-58558390D01*
X70294643Y-58558390D02*
X70247024Y-58510771D01*
X70247024Y-58510771D02*
X70199405Y-58415533D01*
X70199405Y-58415533D02*
X70199405Y-58320295D01*
X70199405Y-58320295D02*
X70247024Y-58225057D01*
X70247024Y-58225057D02*
X70294643Y-58177438D01*
X70294643Y-58177438D02*
X70389881Y-58129819D01*
X70389881Y-58129819D02*
X70627976Y-58129819D01*
X70627976Y-58129819D02*
X70770833Y-58177438D01*
X71627976Y-58463152D02*
X71627976Y-59129819D01*
X71389881Y-58082200D02*
X71151786Y-58796485D01*
X71151786Y-58796485D02*
X71770833Y-58796485D01*
X72627976Y-58129819D02*
X72151786Y-58129819D01*
X72151786Y-58129819D02*
X72104167Y-58606009D01*
X72104167Y-58606009D02*
X72151786Y-58558390D01*
X72151786Y-58558390D02*
X72247024Y-58510771D01*
X72247024Y-58510771D02*
X72485119Y-58510771D01*
X72485119Y-58510771D02*
X72580357Y-58558390D01*
X72580357Y-58558390D02*
X72627976Y-58606009D01*
X72627976Y-58606009D02*
X72675595Y-58701247D01*
X72675595Y-58701247D02*
X72675595Y-58939342D01*
X72675595Y-58939342D02*
X72627976Y-59034580D01*
X72627976Y-59034580D02*
X72580357Y-59082200D01*
X72580357Y-59082200D02*
X72485119Y-59129819D01*
X72485119Y-59129819D02*
X72247024Y-59129819D01*
X72247024Y-59129819D02*
X72151786Y-59082200D01*
X72151786Y-59082200D02*
X72104167Y-59034580D01*
X117824405Y-40032200D02*
X117967262Y-40079819D01*
X117967262Y-40079819D02*
X118205357Y-40079819D01*
X118205357Y-40079819D02*
X118300595Y-40032200D01*
X118300595Y-40032200D02*
X118348214Y-39984580D01*
X118348214Y-39984580D02*
X118395833Y-39889342D01*
X118395833Y-39889342D02*
X118395833Y-39794104D01*
X118395833Y-39794104D02*
X118348214Y-39698866D01*
X118348214Y-39698866D02*
X118300595Y-39651247D01*
X118300595Y-39651247D02*
X118205357Y-39603628D01*
X118205357Y-39603628D02*
X118014881Y-39556009D01*
X118014881Y-39556009D02*
X117919643Y-39508390D01*
X117919643Y-39508390D02*
X117872024Y-39460771D01*
X117872024Y-39460771D02*
X117824405Y-39365533D01*
X117824405Y-39365533D02*
X117824405Y-39270295D01*
X117824405Y-39270295D02*
X117872024Y-39175057D01*
X117872024Y-39175057D02*
X117919643Y-39127438D01*
X117919643Y-39127438D02*
X118014881Y-39079819D01*
X118014881Y-39079819D02*
X118252976Y-39079819D01*
X118252976Y-39079819D02*
X118395833Y-39127438D01*
X118729167Y-39079819D02*
X119348214Y-39079819D01*
X119348214Y-39079819D02*
X119014881Y-39460771D01*
X119014881Y-39460771D02*
X119157738Y-39460771D01*
X119157738Y-39460771D02*
X119252976Y-39508390D01*
X119252976Y-39508390D02*
X119300595Y-39556009D01*
X119300595Y-39556009D02*
X119348214Y-39651247D01*
X119348214Y-39651247D02*
X119348214Y-39889342D01*
X119348214Y-39889342D02*
X119300595Y-39984580D01*
X119300595Y-39984580D02*
X119252976Y-40032200D01*
X119252976Y-40032200D02*
X119157738Y-40079819D01*
X119157738Y-40079819D02*
X118872024Y-40079819D01*
X118872024Y-40079819D02*
X118776786Y-40032200D01*
X118776786Y-40032200D02*
X118729167Y-39984580D01*
X120205357Y-39413152D02*
X120205357Y-40079819D01*
X119967262Y-39032200D02*
X119729167Y-39746485D01*
X119729167Y-39746485D02*
X120348214Y-39746485D01*
X174974405Y-40032200D02*
X175117262Y-40079819D01*
X175117262Y-40079819D02*
X175355357Y-40079819D01*
X175355357Y-40079819D02*
X175450595Y-40032200D01*
X175450595Y-40032200D02*
X175498214Y-39984580D01*
X175498214Y-39984580D02*
X175545833Y-39889342D01*
X175545833Y-39889342D02*
X175545833Y-39794104D01*
X175545833Y-39794104D02*
X175498214Y-39698866D01*
X175498214Y-39698866D02*
X175450595Y-39651247D01*
X175450595Y-39651247D02*
X175355357Y-39603628D01*
X175355357Y-39603628D02*
X175164881Y-39556009D01*
X175164881Y-39556009D02*
X175069643Y-39508390D01*
X175069643Y-39508390D02*
X175022024Y-39460771D01*
X175022024Y-39460771D02*
X174974405Y-39365533D01*
X174974405Y-39365533D02*
X174974405Y-39270295D01*
X174974405Y-39270295D02*
X175022024Y-39175057D01*
X175022024Y-39175057D02*
X175069643Y-39127438D01*
X175069643Y-39127438D02*
X175164881Y-39079819D01*
X175164881Y-39079819D02*
X175402976Y-39079819D01*
X175402976Y-39079819D02*
X175545833Y-39127438D01*
X175879167Y-39079819D02*
X176498214Y-39079819D01*
X176498214Y-39079819D02*
X176164881Y-39460771D01*
X176164881Y-39460771D02*
X176307738Y-39460771D01*
X176307738Y-39460771D02*
X176402976Y-39508390D01*
X176402976Y-39508390D02*
X176450595Y-39556009D01*
X176450595Y-39556009D02*
X176498214Y-39651247D01*
X176498214Y-39651247D02*
X176498214Y-39889342D01*
X176498214Y-39889342D02*
X176450595Y-39984580D01*
X176450595Y-39984580D02*
X176402976Y-40032200D01*
X176402976Y-40032200D02*
X176307738Y-40079819D01*
X176307738Y-40079819D02*
X176022024Y-40079819D01*
X176022024Y-40079819D02*
X175926786Y-40032200D01*
X175926786Y-40032200D02*
X175879167Y-39984580D01*
X176831548Y-39079819D02*
X177498214Y-39079819D01*
X177498214Y-39079819D02*
X177069643Y-40079819D01*
X89249405Y-59082200D02*
X89392262Y-59129819D01*
X89392262Y-59129819D02*
X89630357Y-59129819D01*
X89630357Y-59129819D02*
X89725595Y-59082200D01*
X89725595Y-59082200D02*
X89773214Y-59034580D01*
X89773214Y-59034580D02*
X89820833Y-58939342D01*
X89820833Y-58939342D02*
X89820833Y-58844104D01*
X89820833Y-58844104D02*
X89773214Y-58748866D01*
X89773214Y-58748866D02*
X89725595Y-58701247D01*
X89725595Y-58701247D02*
X89630357Y-58653628D01*
X89630357Y-58653628D02*
X89439881Y-58606009D01*
X89439881Y-58606009D02*
X89344643Y-58558390D01*
X89344643Y-58558390D02*
X89297024Y-58510771D01*
X89297024Y-58510771D02*
X89249405Y-58415533D01*
X89249405Y-58415533D02*
X89249405Y-58320295D01*
X89249405Y-58320295D02*
X89297024Y-58225057D01*
X89297024Y-58225057D02*
X89344643Y-58177438D01*
X89344643Y-58177438D02*
X89439881Y-58129819D01*
X89439881Y-58129819D02*
X89677976Y-58129819D01*
X89677976Y-58129819D02*
X89820833Y-58177438D01*
X90677976Y-58463152D02*
X90677976Y-59129819D01*
X90439881Y-58082200D02*
X90201786Y-58796485D01*
X90201786Y-58796485D02*
X90820833Y-58796485D01*
X91630357Y-58129819D02*
X91439881Y-58129819D01*
X91439881Y-58129819D02*
X91344643Y-58177438D01*
X91344643Y-58177438D02*
X91297024Y-58225057D01*
X91297024Y-58225057D02*
X91201786Y-58367914D01*
X91201786Y-58367914D02*
X91154167Y-58558390D01*
X91154167Y-58558390D02*
X91154167Y-58939342D01*
X91154167Y-58939342D02*
X91201786Y-59034580D01*
X91201786Y-59034580D02*
X91249405Y-59082200D01*
X91249405Y-59082200D02*
X91344643Y-59129819D01*
X91344643Y-59129819D02*
X91535119Y-59129819D01*
X91535119Y-59129819D02*
X91630357Y-59082200D01*
X91630357Y-59082200D02*
X91677976Y-59034580D01*
X91677976Y-59034580D02*
X91725595Y-58939342D01*
X91725595Y-58939342D02*
X91725595Y-58701247D01*
X91725595Y-58701247D02*
X91677976Y-58606009D01*
X91677976Y-58606009D02*
X91630357Y-58558390D01*
X91630357Y-58558390D02*
X91535119Y-58510771D01*
X91535119Y-58510771D02*
X91344643Y-58510771D01*
X91344643Y-58510771D02*
X91249405Y-58558390D01*
X91249405Y-58558390D02*
X91201786Y-58606009D01*
X91201786Y-58606009D02*
X91154167Y-58701247D01*
X113061905Y-20982200D02*
X113204762Y-21029819D01*
X113204762Y-21029819D02*
X113442857Y-21029819D01*
X113442857Y-21029819D02*
X113538095Y-20982200D01*
X113538095Y-20982200D02*
X113585714Y-20934580D01*
X113585714Y-20934580D02*
X113633333Y-20839342D01*
X113633333Y-20839342D02*
X113633333Y-20744104D01*
X113633333Y-20744104D02*
X113585714Y-20648866D01*
X113585714Y-20648866D02*
X113538095Y-20601247D01*
X113538095Y-20601247D02*
X113442857Y-20553628D01*
X113442857Y-20553628D02*
X113252381Y-20506009D01*
X113252381Y-20506009D02*
X113157143Y-20458390D01*
X113157143Y-20458390D02*
X113109524Y-20410771D01*
X113109524Y-20410771D02*
X113061905Y-20315533D01*
X113061905Y-20315533D02*
X113061905Y-20220295D01*
X113061905Y-20220295D02*
X113109524Y-20125057D01*
X113109524Y-20125057D02*
X113157143Y-20077438D01*
X113157143Y-20077438D02*
X113252381Y-20029819D01*
X113252381Y-20029819D02*
X113490476Y-20029819D01*
X113490476Y-20029819D02*
X113633333Y-20077438D01*
X114014286Y-20125057D02*
X114061905Y-20077438D01*
X114061905Y-20077438D02*
X114157143Y-20029819D01*
X114157143Y-20029819D02*
X114395238Y-20029819D01*
X114395238Y-20029819D02*
X114490476Y-20077438D01*
X114490476Y-20077438D02*
X114538095Y-20125057D01*
X114538095Y-20125057D02*
X114585714Y-20220295D01*
X114585714Y-20220295D02*
X114585714Y-20315533D01*
X114585714Y-20315533D02*
X114538095Y-20458390D01*
X114538095Y-20458390D02*
X113966667Y-21029819D01*
X113966667Y-21029819D02*
X114585714Y-21029819D01*
X115204762Y-20029819D02*
X115300000Y-20029819D01*
X115300000Y-20029819D02*
X115395238Y-20077438D01*
X115395238Y-20077438D02*
X115442857Y-20125057D01*
X115442857Y-20125057D02*
X115490476Y-20220295D01*
X115490476Y-20220295D02*
X115538095Y-20410771D01*
X115538095Y-20410771D02*
X115538095Y-20648866D01*
X115538095Y-20648866D02*
X115490476Y-20839342D01*
X115490476Y-20839342D02*
X115442857Y-20934580D01*
X115442857Y-20934580D02*
X115395238Y-20982200D01*
X115395238Y-20982200D02*
X115300000Y-21029819D01*
X115300000Y-21029819D02*
X115204762Y-21029819D01*
X115204762Y-21029819D02*
X115109524Y-20982200D01*
X115109524Y-20982200D02*
X115061905Y-20934580D01*
X115061905Y-20934580D02*
X115014286Y-20839342D01*
X115014286Y-20839342D02*
X114966667Y-20648866D01*
X114966667Y-20648866D02*
X114966667Y-20410771D01*
X114966667Y-20410771D02*
X115014286Y-20220295D01*
X115014286Y-20220295D02*
X115061905Y-20125057D01*
X115061905Y-20125057D02*
X115109524Y-20077438D01*
X115109524Y-20077438D02*
X115204762Y-20029819D01*
X161163095Y-1932200D02*
X161305952Y-1979819D01*
X161305952Y-1979819D02*
X161544047Y-1979819D01*
X161544047Y-1979819D02*
X161639285Y-1932200D01*
X161639285Y-1932200D02*
X161686904Y-1884580D01*
X161686904Y-1884580D02*
X161734523Y-1789342D01*
X161734523Y-1789342D02*
X161734523Y-1694104D01*
X161734523Y-1694104D02*
X161686904Y-1598866D01*
X161686904Y-1598866D02*
X161639285Y-1551247D01*
X161639285Y-1551247D02*
X161544047Y-1503628D01*
X161544047Y-1503628D02*
X161353571Y-1456009D01*
X161353571Y-1456009D02*
X161258333Y-1408390D01*
X161258333Y-1408390D02*
X161210714Y-1360771D01*
X161210714Y-1360771D02*
X161163095Y-1265533D01*
X161163095Y-1265533D02*
X161163095Y-1170295D01*
X161163095Y-1170295D02*
X161210714Y-1075057D01*
X161210714Y-1075057D02*
X161258333Y-1027438D01*
X161258333Y-1027438D02*
X161353571Y-979819D01*
X161353571Y-979819D02*
X161591666Y-979819D01*
X161591666Y-979819D02*
X161734523Y-1027438D01*
X162210714Y-1979819D02*
X162401190Y-1979819D01*
X162401190Y-1979819D02*
X162496428Y-1932200D01*
X162496428Y-1932200D02*
X162544047Y-1884580D01*
X162544047Y-1884580D02*
X162639285Y-1741723D01*
X162639285Y-1741723D02*
X162686904Y-1551247D01*
X162686904Y-1551247D02*
X162686904Y-1170295D01*
X162686904Y-1170295D02*
X162639285Y-1075057D01*
X162639285Y-1075057D02*
X162591666Y-1027438D01*
X162591666Y-1027438D02*
X162496428Y-979819D01*
X162496428Y-979819D02*
X162305952Y-979819D01*
X162305952Y-979819D02*
X162210714Y-1027438D01*
X162210714Y-1027438D02*
X162163095Y-1075057D01*
X162163095Y-1075057D02*
X162115476Y-1170295D01*
X162115476Y-1170295D02*
X162115476Y-1408390D01*
X162115476Y-1408390D02*
X162163095Y-1503628D01*
X162163095Y-1503628D02*
X162210714Y-1551247D01*
X162210714Y-1551247D02*
X162305952Y-1598866D01*
X162305952Y-1598866D02*
X162496428Y-1598866D01*
X162496428Y-1598866D02*
X162591666Y-1551247D01*
X162591666Y-1551247D02*
X162639285Y-1503628D01*
X162639285Y-1503628D02*
X162686904Y-1408390D01*
X98774405Y-40032200D02*
X98917262Y-40079819D01*
X98917262Y-40079819D02*
X99155357Y-40079819D01*
X99155357Y-40079819D02*
X99250595Y-40032200D01*
X99250595Y-40032200D02*
X99298214Y-39984580D01*
X99298214Y-39984580D02*
X99345833Y-39889342D01*
X99345833Y-39889342D02*
X99345833Y-39794104D01*
X99345833Y-39794104D02*
X99298214Y-39698866D01*
X99298214Y-39698866D02*
X99250595Y-39651247D01*
X99250595Y-39651247D02*
X99155357Y-39603628D01*
X99155357Y-39603628D02*
X98964881Y-39556009D01*
X98964881Y-39556009D02*
X98869643Y-39508390D01*
X98869643Y-39508390D02*
X98822024Y-39460771D01*
X98822024Y-39460771D02*
X98774405Y-39365533D01*
X98774405Y-39365533D02*
X98774405Y-39270295D01*
X98774405Y-39270295D02*
X98822024Y-39175057D01*
X98822024Y-39175057D02*
X98869643Y-39127438D01*
X98869643Y-39127438D02*
X98964881Y-39079819D01*
X98964881Y-39079819D02*
X99202976Y-39079819D01*
X99202976Y-39079819D02*
X99345833Y-39127438D01*
X99679167Y-39079819D02*
X100298214Y-39079819D01*
X100298214Y-39079819D02*
X99964881Y-39460771D01*
X99964881Y-39460771D02*
X100107738Y-39460771D01*
X100107738Y-39460771D02*
X100202976Y-39508390D01*
X100202976Y-39508390D02*
X100250595Y-39556009D01*
X100250595Y-39556009D02*
X100298214Y-39651247D01*
X100298214Y-39651247D02*
X100298214Y-39889342D01*
X100298214Y-39889342D02*
X100250595Y-39984580D01*
X100250595Y-39984580D02*
X100202976Y-40032200D01*
X100202976Y-40032200D02*
X100107738Y-40079819D01*
X100107738Y-40079819D02*
X99822024Y-40079819D01*
X99822024Y-40079819D02*
X99726786Y-40032200D01*
X99726786Y-40032200D02*
X99679167Y-39984580D01*
X100631548Y-39079819D02*
X101250595Y-39079819D01*
X101250595Y-39079819D02*
X100917262Y-39460771D01*
X100917262Y-39460771D02*
X101060119Y-39460771D01*
X101060119Y-39460771D02*
X101155357Y-39508390D01*
X101155357Y-39508390D02*
X101202976Y-39556009D01*
X101202976Y-39556009D02*
X101250595Y-39651247D01*
X101250595Y-39651247D02*
X101250595Y-39889342D01*
X101250595Y-39889342D02*
X101202976Y-39984580D01*
X101202976Y-39984580D02*
X101155357Y-40032200D01*
X101155357Y-40032200D02*
X101060119Y-40079819D01*
X101060119Y-40079819D02*
X100774405Y-40079819D01*
X100774405Y-40079819D02*
X100679167Y-40032200D01*
X100679167Y-40032200D02*
X100631548Y-39984580D01*
X213074405Y-40032200D02*
X213217262Y-40079819D01*
X213217262Y-40079819D02*
X213455357Y-40079819D01*
X213455357Y-40079819D02*
X213550595Y-40032200D01*
X213550595Y-40032200D02*
X213598214Y-39984580D01*
X213598214Y-39984580D02*
X213645833Y-39889342D01*
X213645833Y-39889342D02*
X213645833Y-39794104D01*
X213645833Y-39794104D02*
X213598214Y-39698866D01*
X213598214Y-39698866D02*
X213550595Y-39651247D01*
X213550595Y-39651247D02*
X213455357Y-39603628D01*
X213455357Y-39603628D02*
X213264881Y-39556009D01*
X213264881Y-39556009D02*
X213169643Y-39508390D01*
X213169643Y-39508390D02*
X213122024Y-39460771D01*
X213122024Y-39460771D02*
X213074405Y-39365533D01*
X213074405Y-39365533D02*
X213074405Y-39270295D01*
X213074405Y-39270295D02*
X213122024Y-39175057D01*
X213122024Y-39175057D02*
X213169643Y-39127438D01*
X213169643Y-39127438D02*
X213264881Y-39079819D01*
X213264881Y-39079819D02*
X213502976Y-39079819D01*
X213502976Y-39079819D02*
X213645833Y-39127438D01*
X213979167Y-39079819D02*
X214598214Y-39079819D01*
X214598214Y-39079819D02*
X214264881Y-39460771D01*
X214264881Y-39460771D02*
X214407738Y-39460771D01*
X214407738Y-39460771D02*
X214502976Y-39508390D01*
X214502976Y-39508390D02*
X214550595Y-39556009D01*
X214550595Y-39556009D02*
X214598214Y-39651247D01*
X214598214Y-39651247D02*
X214598214Y-39889342D01*
X214598214Y-39889342D02*
X214550595Y-39984580D01*
X214550595Y-39984580D02*
X214502976Y-40032200D01*
X214502976Y-40032200D02*
X214407738Y-40079819D01*
X214407738Y-40079819D02*
X214122024Y-40079819D01*
X214122024Y-40079819D02*
X214026786Y-40032200D01*
X214026786Y-40032200D02*
X213979167Y-39984580D01*
X215074405Y-40079819D02*
X215264881Y-40079819D01*
X215264881Y-40079819D02*
X215360119Y-40032200D01*
X215360119Y-40032200D02*
X215407738Y-39984580D01*
X215407738Y-39984580D02*
X215502976Y-39841723D01*
X215502976Y-39841723D02*
X215550595Y-39651247D01*
X215550595Y-39651247D02*
X215550595Y-39270295D01*
X215550595Y-39270295D02*
X215502976Y-39175057D01*
X215502976Y-39175057D02*
X215455357Y-39127438D01*
X215455357Y-39127438D02*
X215360119Y-39079819D01*
X215360119Y-39079819D02*
X215169643Y-39079819D01*
X215169643Y-39079819D02*
X215074405Y-39127438D01*
X215074405Y-39127438D02*
X215026786Y-39175057D01*
X215026786Y-39175057D02*
X214979167Y-39270295D01*
X214979167Y-39270295D02*
X214979167Y-39508390D01*
X214979167Y-39508390D02*
X215026786Y-39603628D01*
X215026786Y-39603628D02*
X215074405Y-39651247D01*
X215074405Y-39651247D02*
X215169643Y-39698866D01*
X215169643Y-39698866D02*
X215360119Y-39698866D01*
X215360119Y-39698866D02*
X215455357Y-39651247D01*
X215455357Y-39651247D02*
X215502976Y-39603628D01*
X215502976Y-39603628D02*
X215550595Y-39508390D01*
X194024405Y-40032200D02*
X194167262Y-40079819D01*
X194167262Y-40079819D02*
X194405357Y-40079819D01*
X194405357Y-40079819D02*
X194500595Y-40032200D01*
X194500595Y-40032200D02*
X194548214Y-39984580D01*
X194548214Y-39984580D02*
X194595833Y-39889342D01*
X194595833Y-39889342D02*
X194595833Y-39794104D01*
X194595833Y-39794104D02*
X194548214Y-39698866D01*
X194548214Y-39698866D02*
X194500595Y-39651247D01*
X194500595Y-39651247D02*
X194405357Y-39603628D01*
X194405357Y-39603628D02*
X194214881Y-39556009D01*
X194214881Y-39556009D02*
X194119643Y-39508390D01*
X194119643Y-39508390D02*
X194072024Y-39460771D01*
X194072024Y-39460771D02*
X194024405Y-39365533D01*
X194024405Y-39365533D02*
X194024405Y-39270295D01*
X194024405Y-39270295D02*
X194072024Y-39175057D01*
X194072024Y-39175057D02*
X194119643Y-39127438D01*
X194119643Y-39127438D02*
X194214881Y-39079819D01*
X194214881Y-39079819D02*
X194452976Y-39079819D01*
X194452976Y-39079819D02*
X194595833Y-39127438D01*
X194929167Y-39079819D02*
X195548214Y-39079819D01*
X195548214Y-39079819D02*
X195214881Y-39460771D01*
X195214881Y-39460771D02*
X195357738Y-39460771D01*
X195357738Y-39460771D02*
X195452976Y-39508390D01*
X195452976Y-39508390D02*
X195500595Y-39556009D01*
X195500595Y-39556009D02*
X195548214Y-39651247D01*
X195548214Y-39651247D02*
X195548214Y-39889342D01*
X195548214Y-39889342D02*
X195500595Y-39984580D01*
X195500595Y-39984580D02*
X195452976Y-40032200D01*
X195452976Y-40032200D02*
X195357738Y-40079819D01*
X195357738Y-40079819D02*
X195072024Y-40079819D01*
X195072024Y-40079819D02*
X194976786Y-40032200D01*
X194976786Y-40032200D02*
X194929167Y-39984580D01*
X196119643Y-39508390D02*
X196024405Y-39460771D01*
X196024405Y-39460771D02*
X195976786Y-39413152D01*
X195976786Y-39413152D02*
X195929167Y-39317914D01*
X195929167Y-39317914D02*
X195929167Y-39270295D01*
X195929167Y-39270295D02*
X195976786Y-39175057D01*
X195976786Y-39175057D02*
X196024405Y-39127438D01*
X196024405Y-39127438D02*
X196119643Y-39079819D01*
X196119643Y-39079819D02*
X196310119Y-39079819D01*
X196310119Y-39079819D02*
X196405357Y-39127438D01*
X196405357Y-39127438D02*
X196452976Y-39175057D01*
X196452976Y-39175057D02*
X196500595Y-39270295D01*
X196500595Y-39270295D02*
X196500595Y-39317914D01*
X196500595Y-39317914D02*
X196452976Y-39413152D01*
X196452976Y-39413152D02*
X196405357Y-39460771D01*
X196405357Y-39460771D02*
X196310119Y-39508390D01*
X196310119Y-39508390D02*
X196119643Y-39508390D01*
X196119643Y-39508390D02*
X196024405Y-39556009D01*
X196024405Y-39556009D02*
X195976786Y-39603628D01*
X195976786Y-39603628D02*
X195929167Y-39698866D01*
X195929167Y-39698866D02*
X195929167Y-39889342D01*
X195929167Y-39889342D02*
X195976786Y-39984580D01*
X195976786Y-39984580D02*
X196024405Y-40032200D01*
X196024405Y-40032200D02*
X196119643Y-40079819D01*
X196119643Y-40079819D02*
X196310119Y-40079819D01*
X196310119Y-40079819D02*
X196405357Y-40032200D01*
X196405357Y-40032200D02*
X196452976Y-39984580D01*
X196452976Y-39984580D02*
X196500595Y-39889342D01*
X196500595Y-39889342D02*
X196500595Y-39698866D01*
X196500595Y-39698866D02*
X196452976Y-39603628D01*
X196452976Y-39603628D02*
X196405357Y-39556009D01*
X196405357Y-39556009D02*
X196310119Y-39508390D01*
X84963095Y-1932200D02*
X85105952Y-1979819D01*
X85105952Y-1979819D02*
X85344047Y-1979819D01*
X85344047Y-1979819D02*
X85439285Y-1932200D01*
X85439285Y-1932200D02*
X85486904Y-1884580D01*
X85486904Y-1884580D02*
X85534523Y-1789342D01*
X85534523Y-1789342D02*
X85534523Y-1694104D01*
X85534523Y-1694104D02*
X85486904Y-1598866D01*
X85486904Y-1598866D02*
X85439285Y-1551247D01*
X85439285Y-1551247D02*
X85344047Y-1503628D01*
X85344047Y-1503628D02*
X85153571Y-1456009D01*
X85153571Y-1456009D02*
X85058333Y-1408390D01*
X85058333Y-1408390D02*
X85010714Y-1360771D01*
X85010714Y-1360771D02*
X84963095Y-1265533D01*
X84963095Y-1265533D02*
X84963095Y-1170295D01*
X84963095Y-1170295D02*
X85010714Y-1075057D01*
X85010714Y-1075057D02*
X85058333Y-1027438D01*
X85058333Y-1027438D02*
X85153571Y-979819D01*
X85153571Y-979819D02*
X85391666Y-979819D01*
X85391666Y-979819D02*
X85534523Y-1027438D01*
X86439285Y-979819D02*
X85963095Y-979819D01*
X85963095Y-979819D02*
X85915476Y-1456009D01*
X85915476Y-1456009D02*
X85963095Y-1408390D01*
X85963095Y-1408390D02*
X86058333Y-1360771D01*
X86058333Y-1360771D02*
X86296428Y-1360771D01*
X86296428Y-1360771D02*
X86391666Y-1408390D01*
X86391666Y-1408390D02*
X86439285Y-1456009D01*
X86439285Y-1456009D02*
X86486904Y-1551247D01*
X86486904Y-1551247D02*
X86486904Y-1789342D01*
X86486904Y-1789342D02*
X86439285Y-1884580D01*
X86439285Y-1884580D02*
X86391666Y-1932200D01*
X86391666Y-1932200D02*
X86296428Y-1979819D01*
X86296428Y-1979819D02*
X86058333Y-1979819D01*
X86058333Y-1979819D02*
X85963095Y-1932200D01*
X85963095Y-1932200D02*
X85915476Y-1884580D01*
X142113095Y-1932200D02*
X142255952Y-1979819D01*
X142255952Y-1979819D02*
X142494047Y-1979819D01*
X142494047Y-1979819D02*
X142589285Y-1932200D01*
X142589285Y-1932200D02*
X142636904Y-1884580D01*
X142636904Y-1884580D02*
X142684523Y-1789342D01*
X142684523Y-1789342D02*
X142684523Y-1694104D01*
X142684523Y-1694104D02*
X142636904Y-1598866D01*
X142636904Y-1598866D02*
X142589285Y-1551247D01*
X142589285Y-1551247D02*
X142494047Y-1503628D01*
X142494047Y-1503628D02*
X142303571Y-1456009D01*
X142303571Y-1456009D02*
X142208333Y-1408390D01*
X142208333Y-1408390D02*
X142160714Y-1360771D01*
X142160714Y-1360771D02*
X142113095Y-1265533D01*
X142113095Y-1265533D02*
X142113095Y-1170295D01*
X142113095Y-1170295D02*
X142160714Y-1075057D01*
X142160714Y-1075057D02*
X142208333Y-1027438D01*
X142208333Y-1027438D02*
X142303571Y-979819D01*
X142303571Y-979819D02*
X142541666Y-979819D01*
X142541666Y-979819D02*
X142684523Y-1027438D01*
X143255952Y-1408390D02*
X143160714Y-1360771D01*
X143160714Y-1360771D02*
X143113095Y-1313152D01*
X143113095Y-1313152D02*
X143065476Y-1217914D01*
X143065476Y-1217914D02*
X143065476Y-1170295D01*
X143065476Y-1170295D02*
X143113095Y-1075057D01*
X143113095Y-1075057D02*
X143160714Y-1027438D01*
X143160714Y-1027438D02*
X143255952Y-979819D01*
X143255952Y-979819D02*
X143446428Y-979819D01*
X143446428Y-979819D02*
X143541666Y-1027438D01*
X143541666Y-1027438D02*
X143589285Y-1075057D01*
X143589285Y-1075057D02*
X143636904Y-1170295D01*
X143636904Y-1170295D02*
X143636904Y-1217914D01*
X143636904Y-1217914D02*
X143589285Y-1313152D01*
X143589285Y-1313152D02*
X143541666Y-1360771D01*
X143541666Y-1360771D02*
X143446428Y-1408390D01*
X143446428Y-1408390D02*
X143255952Y-1408390D01*
X143255952Y-1408390D02*
X143160714Y-1456009D01*
X143160714Y-1456009D02*
X143113095Y-1503628D01*
X143113095Y-1503628D02*
X143065476Y-1598866D01*
X143065476Y-1598866D02*
X143065476Y-1789342D01*
X143065476Y-1789342D02*
X143113095Y-1884580D01*
X143113095Y-1884580D02*
X143160714Y-1932200D01*
X143160714Y-1932200D02*
X143255952Y-1979819D01*
X143255952Y-1979819D02*
X143446428Y-1979819D01*
X143446428Y-1979819D02*
X143541666Y-1932200D01*
X143541666Y-1932200D02*
X143589285Y-1884580D01*
X143589285Y-1884580D02*
X143636904Y-1789342D01*
X143636904Y-1789342D02*
X143636904Y-1598866D01*
X143636904Y-1598866D02*
X143589285Y-1503628D01*
X143589285Y-1503628D02*
X143541666Y-1456009D01*
X143541666Y-1456009D02*
X143446428Y-1408390D01*
X232124405Y-40032200D02*
X232267262Y-40079819D01*
X232267262Y-40079819D02*
X232505357Y-40079819D01*
X232505357Y-40079819D02*
X232600595Y-40032200D01*
X232600595Y-40032200D02*
X232648214Y-39984580D01*
X232648214Y-39984580D02*
X232695833Y-39889342D01*
X232695833Y-39889342D02*
X232695833Y-39794104D01*
X232695833Y-39794104D02*
X232648214Y-39698866D01*
X232648214Y-39698866D02*
X232600595Y-39651247D01*
X232600595Y-39651247D02*
X232505357Y-39603628D01*
X232505357Y-39603628D02*
X232314881Y-39556009D01*
X232314881Y-39556009D02*
X232219643Y-39508390D01*
X232219643Y-39508390D02*
X232172024Y-39460771D01*
X232172024Y-39460771D02*
X232124405Y-39365533D01*
X232124405Y-39365533D02*
X232124405Y-39270295D01*
X232124405Y-39270295D02*
X232172024Y-39175057D01*
X232172024Y-39175057D02*
X232219643Y-39127438D01*
X232219643Y-39127438D02*
X232314881Y-39079819D01*
X232314881Y-39079819D02*
X232552976Y-39079819D01*
X232552976Y-39079819D02*
X232695833Y-39127438D01*
X233552976Y-39413152D02*
X233552976Y-40079819D01*
X233314881Y-39032200D02*
X233076786Y-39746485D01*
X233076786Y-39746485D02*
X233695833Y-39746485D01*
X234267262Y-39079819D02*
X234362500Y-39079819D01*
X234362500Y-39079819D02*
X234457738Y-39127438D01*
X234457738Y-39127438D02*
X234505357Y-39175057D01*
X234505357Y-39175057D02*
X234552976Y-39270295D01*
X234552976Y-39270295D02*
X234600595Y-39460771D01*
X234600595Y-39460771D02*
X234600595Y-39698866D01*
X234600595Y-39698866D02*
X234552976Y-39889342D01*
X234552976Y-39889342D02*
X234505357Y-39984580D01*
X234505357Y-39984580D02*
X234457738Y-40032200D01*
X234457738Y-40032200D02*
X234362500Y-40079819D01*
X234362500Y-40079819D02*
X234267262Y-40079819D01*
X234267262Y-40079819D02*
X234172024Y-40032200D01*
X234172024Y-40032200D02*
X234124405Y-39984580D01*
X234124405Y-39984580D02*
X234076786Y-39889342D01*
X234076786Y-39889342D02*
X234029167Y-39698866D01*
X234029167Y-39698866D02*
X234029167Y-39460771D01*
X234029167Y-39460771D02*
X234076786Y-39270295D01*
X234076786Y-39270295D02*
X234124405Y-39175057D01*
X234124405Y-39175057D02*
X234172024Y-39127438D01*
X234172024Y-39127438D02*
X234267262Y-39079819D01*
X41624405Y-40032200D02*
X41767262Y-40079819D01*
X41767262Y-40079819D02*
X42005357Y-40079819D01*
X42005357Y-40079819D02*
X42100595Y-40032200D01*
X42100595Y-40032200D02*
X42148214Y-39984580D01*
X42148214Y-39984580D02*
X42195833Y-39889342D01*
X42195833Y-39889342D02*
X42195833Y-39794104D01*
X42195833Y-39794104D02*
X42148214Y-39698866D01*
X42148214Y-39698866D02*
X42100595Y-39651247D01*
X42100595Y-39651247D02*
X42005357Y-39603628D01*
X42005357Y-39603628D02*
X41814881Y-39556009D01*
X41814881Y-39556009D02*
X41719643Y-39508390D01*
X41719643Y-39508390D02*
X41672024Y-39460771D01*
X41672024Y-39460771D02*
X41624405Y-39365533D01*
X41624405Y-39365533D02*
X41624405Y-39270295D01*
X41624405Y-39270295D02*
X41672024Y-39175057D01*
X41672024Y-39175057D02*
X41719643Y-39127438D01*
X41719643Y-39127438D02*
X41814881Y-39079819D01*
X41814881Y-39079819D02*
X42052976Y-39079819D01*
X42052976Y-39079819D02*
X42195833Y-39127438D01*
X42529167Y-39079819D02*
X43148214Y-39079819D01*
X43148214Y-39079819D02*
X42814881Y-39460771D01*
X42814881Y-39460771D02*
X42957738Y-39460771D01*
X42957738Y-39460771D02*
X43052976Y-39508390D01*
X43052976Y-39508390D02*
X43100595Y-39556009D01*
X43100595Y-39556009D02*
X43148214Y-39651247D01*
X43148214Y-39651247D02*
X43148214Y-39889342D01*
X43148214Y-39889342D02*
X43100595Y-39984580D01*
X43100595Y-39984580D02*
X43052976Y-40032200D01*
X43052976Y-40032200D02*
X42957738Y-40079819D01*
X42957738Y-40079819D02*
X42672024Y-40079819D01*
X42672024Y-40079819D02*
X42576786Y-40032200D01*
X42576786Y-40032200D02*
X42529167Y-39984580D01*
X43767262Y-39079819D02*
X43862500Y-39079819D01*
X43862500Y-39079819D02*
X43957738Y-39127438D01*
X43957738Y-39127438D02*
X44005357Y-39175057D01*
X44005357Y-39175057D02*
X44052976Y-39270295D01*
X44052976Y-39270295D02*
X44100595Y-39460771D01*
X44100595Y-39460771D02*
X44100595Y-39698866D01*
X44100595Y-39698866D02*
X44052976Y-39889342D01*
X44052976Y-39889342D02*
X44005357Y-39984580D01*
X44005357Y-39984580D02*
X43957738Y-40032200D01*
X43957738Y-40032200D02*
X43862500Y-40079819D01*
X43862500Y-40079819D02*
X43767262Y-40079819D01*
X43767262Y-40079819D02*
X43672024Y-40032200D01*
X43672024Y-40032200D02*
X43624405Y-39984580D01*
X43624405Y-39984580D02*
X43576786Y-39889342D01*
X43576786Y-39889342D02*
X43529167Y-39698866D01*
X43529167Y-39698866D02*
X43529167Y-39460771D01*
X43529167Y-39460771D02*
X43576786Y-39270295D01*
X43576786Y-39270295D02*
X43624405Y-39175057D01*
X43624405Y-39175057D02*
X43672024Y-39127438D01*
X43672024Y-39127438D02*
X43767262Y-39079819D01*
X132111905Y-20982200D02*
X132254762Y-21029819D01*
X132254762Y-21029819D02*
X132492857Y-21029819D01*
X132492857Y-21029819D02*
X132588095Y-20982200D01*
X132588095Y-20982200D02*
X132635714Y-20934580D01*
X132635714Y-20934580D02*
X132683333Y-20839342D01*
X132683333Y-20839342D02*
X132683333Y-20744104D01*
X132683333Y-20744104D02*
X132635714Y-20648866D01*
X132635714Y-20648866D02*
X132588095Y-20601247D01*
X132588095Y-20601247D02*
X132492857Y-20553628D01*
X132492857Y-20553628D02*
X132302381Y-20506009D01*
X132302381Y-20506009D02*
X132207143Y-20458390D01*
X132207143Y-20458390D02*
X132159524Y-20410771D01*
X132159524Y-20410771D02*
X132111905Y-20315533D01*
X132111905Y-20315533D02*
X132111905Y-20220295D01*
X132111905Y-20220295D02*
X132159524Y-20125057D01*
X132159524Y-20125057D02*
X132207143Y-20077438D01*
X132207143Y-20077438D02*
X132302381Y-20029819D01*
X132302381Y-20029819D02*
X132540476Y-20029819D01*
X132540476Y-20029819D02*
X132683333Y-20077438D01*
X133064286Y-20125057D02*
X133111905Y-20077438D01*
X133111905Y-20077438D02*
X133207143Y-20029819D01*
X133207143Y-20029819D02*
X133445238Y-20029819D01*
X133445238Y-20029819D02*
X133540476Y-20077438D01*
X133540476Y-20077438D02*
X133588095Y-20125057D01*
X133588095Y-20125057D02*
X133635714Y-20220295D01*
X133635714Y-20220295D02*
X133635714Y-20315533D01*
X133635714Y-20315533D02*
X133588095Y-20458390D01*
X133588095Y-20458390D02*
X133016667Y-21029819D01*
X133016667Y-21029819D02*
X133635714Y-21029819D01*
X134588095Y-21029819D02*
X134016667Y-21029819D01*
X134302381Y-21029819D02*
X134302381Y-20029819D01*
X134302381Y-20029819D02*
X134207143Y-20172676D01*
X134207143Y-20172676D02*
X134111905Y-20267914D01*
X134111905Y-20267914D02*
X134016667Y-20315533D01*
X217836905Y-1932200D02*
X217979762Y-1979819D01*
X217979762Y-1979819D02*
X218217857Y-1979819D01*
X218217857Y-1979819D02*
X218313095Y-1932200D01*
X218313095Y-1932200D02*
X218360714Y-1884580D01*
X218360714Y-1884580D02*
X218408333Y-1789342D01*
X218408333Y-1789342D02*
X218408333Y-1694104D01*
X218408333Y-1694104D02*
X218360714Y-1598866D01*
X218360714Y-1598866D02*
X218313095Y-1551247D01*
X218313095Y-1551247D02*
X218217857Y-1503628D01*
X218217857Y-1503628D02*
X218027381Y-1456009D01*
X218027381Y-1456009D02*
X217932143Y-1408390D01*
X217932143Y-1408390D02*
X217884524Y-1360771D01*
X217884524Y-1360771D02*
X217836905Y-1265533D01*
X217836905Y-1265533D02*
X217836905Y-1170295D01*
X217836905Y-1170295D02*
X217884524Y-1075057D01*
X217884524Y-1075057D02*
X217932143Y-1027438D01*
X217932143Y-1027438D02*
X218027381Y-979819D01*
X218027381Y-979819D02*
X218265476Y-979819D01*
X218265476Y-979819D02*
X218408333Y-1027438D01*
X219360714Y-1979819D02*
X218789286Y-1979819D01*
X219075000Y-1979819D02*
X219075000Y-979819D01*
X219075000Y-979819D02*
X218979762Y-1122676D01*
X218979762Y-1122676D02*
X218884524Y-1217914D01*
X218884524Y-1217914D02*
X218789286Y-1265533D01*
X219741667Y-1075057D02*
X219789286Y-1027438D01*
X219789286Y-1027438D02*
X219884524Y-979819D01*
X219884524Y-979819D02*
X220122619Y-979819D01*
X220122619Y-979819D02*
X220217857Y-1027438D01*
X220217857Y-1027438D02*
X220265476Y-1075057D01*
X220265476Y-1075057D02*
X220313095Y-1170295D01*
X220313095Y-1170295D02*
X220313095Y-1265533D01*
X220313095Y-1265533D02*
X220265476Y-1408390D01*
X220265476Y-1408390D02*
X219694048Y-1979819D01*
X219694048Y-1979819D02*
X220313095Y-1979819D01*
X13049405Y-20982200D02*
X13192262Y-21029819D01*
X13192262Y-21029819D02*
X13430357Y-21029819D01*
X13430357Y-21029819D02*
X13525595Y-20982200D01*
X13525595Y-20982200D02*
X13573214Y-20934580D01*
X13573214Y-20934580D02*
X13620833Y-20839342D01*
X13620833Y-20839342D02*
X13620833Y-20744104D01*
X13620833Y-20744104D02*
X13573214Y-20648866D01*
X13573214Y-20648866D02*
X13525595Y-20601247D01*
X13525595Y-20601247D02*
X13430357Y-20553628D01*
X13430357Y-20553628D02*
X13239881Y-20506009D01*
X13239881Y-20506009D02*
X13144643Y-20458390D01*
X13144643Y-20458390D02*
X13097024Y-20410771D01*
X13097024Y-20410771D02*
X13049405Y-20315533D01*
X13049405Y-20315533D02*
X13049405Y-20220295D01*
X13049405Y-20220295D02*
X13097024Y-20125057D01*
X13097024Y-20125057D02*
X13144643Y-20077438D01*
X13144643Y-20077438D02*
X13239881Y-20029819D01*
X13239881Y-20029819D02*
X13477976Y-20029819D01*
X13477976Y-20029819D02*
X13620833Y-20077438D01*
X14573214Y-21029819D02*
X14001786Y-21029819D01*
X14287500Y-21029819D02*
X14287500Y-20029819D01*
X14287500Y-20029819D02*
X14192262Y-20172676D01*
X14192262Y-20172676D02*
X14097024Y-20267914D01*
X14097024Y-20267914D02*
X14001786Y-20315533D01*
X15477976Y-20029819D02*
X15001786Y-20029819D01*
X15001786Y-20029819D02*
X14954167Y-20506009D01*
X14954167Y-20506009D02*
X15001786Y-20458390D01*
X15001786Y-20458390D02*
X15097024Y-20410771D01*
X15097024Y-20410771D02*
X15335119Y-20410771D01*
X15335119Y-20410771D02*
X15430357Y-20458390D01*
X15430357Y-20458390D02*
X15477976Y-20506009D01*
X15477976Y-20506009D02*
X15525595Y-20601247D01*
X15525595Y-20601247D02*
X15525595Y-20839342D01*
X15525595Y-20839342D02*
X15477976Y-20934580D01*
X15477976Y-20934580D02*
X15430357Y-20982200D01*
X15430357Y-20982200D02*
X15335119Y-21029819D01*
X15335119Y-21029819D02*
X15097024Y-21029819D01*
X15097024Y-21029819D02*
X15001786Y-20982200D01*
X15001786Y-20982200D02*
X14954167Y-20934580D01*
X198786905Y-1932200D02*
X198929762Y-1979819D01*
X198929762Y-1979819D02*
X199167857Y-1979819D01*
X199167857Y-1979819D02*
X199263095Y-1932200D01*
X199263095Y-1932200D02*
X199310714Y-1884580D01*
X199310714Y-1884580D02*
X199358333Y-1789342D01*
X199358333Y-1789342D02*
X199358333Y-1694104D01*
X199358333Y-1694104D02*
X199310714Y-1598866D01*
X199310714Y-1598866D02*
X199263095Y-1551247D01*
X199263095Y-1551247D02*
X199167857Y-1503628D01*
X199167857Y-1503628D02*
X198977381Y-1456009D01*
X198977381Y-1456009D02*
X198882143Y-1408390D01*
X198882143Y-1408390D02*
X198834524Y-1360771D01*
X198834524Y-1360771D02*
X198786905Y-1265533D01*
X198786905Y-1265533D02*
X198786905Y-1170295D01*
X198786905Y-1170295D02*
X198834524Y-1075057D01*
X198834524Y-1075057D02*
X198882143Y-1027438D01*
X198882143Y-1027438D02*
X198977381Y-979819D01*
X198977381Y-979819D02*
X199215476Y-979819D01*
X199215476Y-979819D02*
X199358333Y-1027438D01*
X200310714Y-1979819D02*
X199739286Y-1979819D01*
X200025000Y-1979819D02*
X200025000Y-979819D01*
X200025000Y-979819D02*
X199929762Y-1122676D01*
X199929762Y-1122676D02*
X199834524Y-1217914D01*
X199834524Y-1217914D02*
X199739286Y-1265533D01*
X201263095Y-1979819D02*
X200691667Y-1979819D01*
X200977381Y-1979819D02*
X200977381Y-979819D01*
X200977381Y-979819D02*
X200882143Y-1122676D01*
X200882143Y-1122676D02*
X200786905Y-1217914D01*
X200786905Y-1217914D02*
X200691667Y-1265533D01*
X74961905Y-20982200D02*
X75104762Y-21029819D01*
X75104762Y-21029819D02*
X75342857Y-21029819D01*
X75342857Y-21029819D02*
X75438095Y-20982200D01*
X75438095Y-20982200D02*
X75485714Y-20934580D01*
X75485714Y-20934580D02*
X75533333Y-20839342D01*
X75533333Y-20839342D02*
X75533333Y-20744104D01*
X75533333Y-20744104D02*
X75485714Y-20648866D01*
X75485714Y-20648866D02*
X75438095Y-20601247D01*
X75438095Y-20601247D02*
X75342857Y-20553628D01*
X75342857Y-20553628D02*
X75152381Y-20506009D01*
X75152381Y-20506009D02*
X75057143Y-20458390D01*
X75057143Y-20458390D02*
X75009524Y-20410771D01*
X75009524Y-20410771D02*
X74961905Y-20315533D01*
X74961905Y-20315533D02*
X74961905Y-20220295D01*
X74961905Y-20220295D02*
X75009524Y-20125057D01*
X75009524Y-20125057D02*
X75057143Y-20077438D01*
X75057143Y-20077438D02*
X75152381Y-20029819D01*
X75152381Y-20029819D02*
X75390476Y-20029819D01*
X75390476Y-20029819D02*
X75533333Y-20077438D01*
X76485714Y-21029819D02*
X75914286Y-21029819D01*
X76200000Y-21029819D02*
X76200000Y-20029819D01*
X76200000Y-20029819D02*
X76104762Y-20172676D01*
X76104762Y-20172676D02*
X76009524Y-20267914D01*
X76009524Y-20267914D02*
X75914286Y-20315533D01*
X77057143Y-20458390D02*
X76961905Y-20410771D01*
X76961905Y-20410771D02*
X76914286Y-20363152D01*
X76914286Y-20363152D02*
X76866667Y-20267914D01*
X76866667Y-20267914D02*
X76866667Y-20220295D01*
X76866667Y-20220295D02*
X76914286Y-20125057D01*
X76914286Y-20125057D02*
X76961905Y-20077438D01*
X76961905Y-20077438D02*
X77057143Y-20029819D01*
X77057143Y-20029819D02*
X77247619Y-20029819D01*
X77247619Y-20029819D02*
X77342857Y-20077438D01*
X77342857Y-20077438D02*
X77390476Y-20125057D01*
X77390476Y-20125057D02*
X77438095Y-20220295D01*
X77438095Y-20220295D02*
X77438095Y-20267914D01*
X77438095Y-20267914D02*
X77390476Y-20363152D01*
X77390476Y-20363152D02*
X77342857Y-20410771D01*
X77342857Y-20410771D02*
X77247619Y-20458390D01*
X77247619Y-20458390D02*
X77057143Y-20458390D01*
X77057143Y-20458390D02*
X76961905Y-20506009D01*
X76961905Y-20506009D02*
X76914286Y-20553628D01*
X76914286Y-20553628D02*
X76866667Y-20648866D01*
X76866667Y-20648866D02*
X76866667Y-20839342D01*
X76866667Y-20839342D02*
X76914286Y-20934580D01*
X76914286Y-20934580D02*
X76961905Y-20982200D01*
X76961905Y-20982200D02*
X77057143Y-21029819D01*
X77057143Y-21029819D02*
X77247619Y-21029819D01*
X77247619Y-21029819D02*
X77342857Y-20982200D01*
X77342857Y-20982200D02*
X77390476Y-20934580D01*
X77390476Y-20934580D02*
X77438095Y-20839342D01*
X77438095Y-20839342D02*
X77438095Y-20648866D01*
X77438095Y-20648866D02*
X77390476Y-20553628D01*
X77390476Y-20553628D02*
X77342857Y-20506009D01*
X77342857Y-20506009D02*
X77247619Y-20458390D01*
X224980655Y-78132200D02*
X225123512Y-78179819D01*
X225123512Y-78179819D02*
X225361607Y-78179819D01*
X225361607Y-78179819D02*
X225456845Y-78132200D01*
X225456845Y-78132200D02*
X225504464Y-78084580D01*
X225504464Y-78084580D02*
X225552083Y-77989342D01*
X225552083Y-77989342D02*
X225552083Y-77894104D01*
X225552083Y-77894104D02*
X225504464Y-77798866D01*
X225504464Y-77798866D02*
X225456845Y-77751247D01*
X225456845Y-77751247D02*
X225361607Y-77703628D01*
X225361607Y-77703628D02*
X225171131Y-77656009D01*
X225171131Y-77656009D02*
X225075893Y-77608390D01*
X225075893Y-77608390D02*
X225028274Y-77560771D01*
X225028274Y-77560771D02*
X224980655Y-77465533D01*
X224980655Y-77465533D02*
X224980655Y-77370295D01*
X224980655Y-77370295D02*
X225028274Y-77275057D01*
X225028274Y-77275057D02*
X225075893Y-77227438D01*
X225075893Y-77227438D02*
X225171131Y-77179819D01*
X225171131Y-77179819D02*
X225409226Y-77179819D01*
X225409226Y-77179819D02*
X225552083Y-77227438D01*
X226409226Y-77179819D02*
X226218750Y-77179819D01*
X226218750Y-77179819D02*
X226123512Y-77227438D01*
X226123512Y-77227438D02*
X226075893Y-77275057D01*
X226075893Y-77275057D02*
X225980655Y-77417914D01*
X225980655Y-77417914D02*
X225933036Y-77608390D01*
X225933036Y-77608390D02*
X225933036Y-77989342D01*
X225933036Y-77989342D02*
X225980655Y-78084580D01*
X225980655Y-78084580D02*
X226028274Y-78132200D01*
X226028274Y-78132200D02*
X226123512Y-78179819D01*
X226123512Y-78179819D02*
X226313988Y-78179819D01*
X226313988Y-78179819D02*
X226409226Y-78132200D01*
X226409226Y-78132200D02*
X226456845Y-78084580D01*
X226456845Y-78084580D02*
X226504464Y-77989342D01*
X226504464Y-77989342D02*
X226504464Y-77751247D01*
X226504464Y-77751247D02*
X226456845Y-77656009D01*
X226456845Y-77656009D02*
X226409226Y-77608390D01*
X226409226Y-77608390D02*
X226313988Y-77560771D01*
X226313988Y-77560771D02*
X226123512Y-77560771D01*
X226123512Y-77560771D02*
X226028274Y-77608390D01*
X226028274Y-77608390D02*
X225980655Y-77656009D01*
X225980655Y-77656009D02*
X225933036Y-77751247D01*
X227123512Y-77179819D02*
X227218750Y-77179819D01*
X227218750Y-77179819D02*
X227313988Y-77227438D01*
X227313988Y-77227438D02*
X227361607Y-77275057D01*
X227361607Y-77275057D02*
X227409226Y-77370295D01*
X227409226Y-77370295D02*
X227456845Y-77560771D01*
X227456845Y-77560771D02*
X227456845Y-77798866D01*
X227456845Y-77798866D02*
X227409226Y-77989342D01*
X227409226Y-77989342D02*
X227361607Y-78084580D01*
X227361607Y-78084580D02*
X227313988Y-78132200D01*
X227313988Y-78132200D02*
X227218750Y-78179819D01*
X227218750Y-78179819D02*
X227123512Y-78179819D01*
X227123512Y-78179819D02*
X227028274Y-78132200D01*
X227028274Y-78132200D02*
X226980655Y-78084580D01*
X226980655Y-78084580D02*
X226933036Y-77989342D01*
X226933036Y-77989342D02*
X226885417Y-77798866D01*
X226885417Y-77798866D02*
X226885417Y-77560771D01*
X226885417Y-77560771D02*
X226933036Y-77370295D01*
X226933036Y-77370295D02*
X226980655Y-77275057D01*
X226980655Y-77275057D02*
X227028274Y-77227438D01*
X227028274Y-77227438D02*
X227123512Y-77179819D01*
X34480655Y-78132200D02*
X34623512Y-78179819D01*
X34623512Y-78179819D02*
X34861607Y-78179819D01*
X34861607Y-78179819D02*
X34956845Y-78132200D01*
X34956845Y-78132200D02*
X35004464Y-78084580D01*
X35004464Y-78084580D02*
X35052083Y-77989342D01*
X35052083Y-77989342D02*
X35052083Y-77894104D01*
X35052083Y-77894104D02*
X35004464Y-77798866D01*
X35004464Y-77798866D02*
X34956845Y-77751247D01*
X34956845Y-77751247D02*
X34861607Y-77703628D01*
X34861607Y-77703628D02*
X34671131Y-77656009D01*
X34671131Y-77656009D02*
X34575893Y-77608390D01*
X34575893Y-77608390D02*
X34528274Y-77560771D01*
X34528274Y-77560771D02*
X34480655Y-77465533D01*
X34480655Y-77465533D02*
X34480655Y-77370295D01*
X34480655Y-77370295D02*
X34528274Y-77275057D01*
X34528274Y-77275057D02*
X34575893Y-77227438D01*
X34575893Y-77227438D02*
X34671131Y-77179819D01*
X34671131Y-77179819D02*
X34909226Y-77179819D01*
X34909226Y-77179819D02*
X35052083Y-77227438D01*
X35956845Y-77179819D02*
X35480655Y-77179819D01*
X35480655Y-77179819D02*
X35433036Y-77656009D01*
X35433036Y-77656009D02*
X35480655Y-77608390D01*
X35480655Y-77608390D02*
X35575893Y-77560771D01*
X35575893Y-77560771D02*
X35813988Y-77560771D01*
X35813988Y-77560771D02*
X35909226Y-77608390D01*
X35909226Y-77608390D02*
X35956845Y-77656009D01*
X35956845Y-77656009D02*
X36004464Y-77751247D01*
X36004464Y-77751247D02*
X36004464Y-77989342D01*
X36004464Y-77989342D02*
X35956845Y-78084580D01*
X35956845Y-78084580D02*
X35909226Y-78132200D01*
X35909226Y-78132200D02*
X35813988Y-78179819D01*
X35813988Y-78179819D02*
X35575893Y-78179819D01*
X35575893Y-78179819D02*
X35480655Y-78132200D01*
X35480655Y-78132200D02*
X35433036Y-78084580D01*
X36861607Y-77179819D02*
X36671131Y-77179819D01*
X36671131Y-77179819D02*
X36575893Y-77227438D01*
X36575893Y-77227438D02*
X36528274Y-77275057D01*
X36528274Y-77275057D02*
X36433036Y-77417914D01*
X36433036Y-77417914D02*
X36385417Y-77608390D01*
X36385417Y-77608390D02*
X36385417Y-77989342D01*
X36385417Y-77989342D02*
X36433036Y-78084580D01*
X36433036Y-78084580D02*
X36480655Y-78132200D01*
X36480655Y-78132200D02*
X36575893Y-78179819D01*
X36575893Y-78179819D02*
X36766369Y-78179819D01*
X36766369Y-78179819D02*
X36861607Y-78132200D01*
X36861607Y-78132200D02*
X36909226Y-78084580D01*
X36909226Y-78084580D02*
X36956845Y-77989342D01*
X36956845Y-77989342D02*
X36956845Y-77751247D01*
X36956845Y-77751247D02*
X36909226Y-77656009D01*
X36909226Y-77656009D02*
X36861607Y-77608390D01*
X36861607Y-77608390D02*
X36766369Y-77560771D01*
X36766369Y-77560771D02*
X36575893Y-77560771D01*
X36575893Y-77560771D02*
X36480655Y-77608390D01*
X36480655Y-77608390D02*
X36433036Y-77656009D01*
X36433036Y-77656009D02*
X36385417Y-77751247D01*
X165449405Y-59082200D02*
X165592262Y-59129819D01*
X165592262Y-59129819D02*
X165830357Y-59129819D01*
X165830357Y-59129819D02*
X165925595Y-59082200D01*
X165925595Y-59082200D02*
X165973214Y-59034580D01*
X165973214Y-59034580D02*
X166020833Y-58939342D01*
X166020833Y-58939342D02*
X166020833Y-58844104D01*
X166020833Y-58844104D02*
X165973214Y-58748866D01*
X165973214Y-58748866D02*
X165925595Y-58701247D01*
X165925595Y-58701247D02*
X165830357Y-58653628D01*
X165830357Y-58653628D02*
X165639881Y-58606009D01*
X165639881Y-58606009D02*
X165544643Y-58558390D01*
X165544643Y-58558390D02*
X165497024Y-58510771D01*
X165497024Y-58510771D02*
X165449405Y-58415533D01*
X165449405Y-58415533D02*
X165449405Y-58320295D01*
X165449405Y-58320295D02*
X165497024Y-58225057D01*
X165497024Y-58225057D02*
X165544643Y-58177438D01*
X165544643Y-58177438D02*
X165639881Y-58129819D01*
X165639881Y-58129819D02*
X165877976Y-58129819D01*
X165877976Y-58129819D02*
X166020833Y-58177438D01*
X166925595Y-58129819D02*
X166449405Y-58129819D01*
X166449405Y-58129819D02*
X166401786Y-58606009D01*
X166401786Y-58606009D02*
X166449405Y-58558390D01*
X166449405Y-58558390D02*
X166544643Y-58510771D01*
X166544643Y-58510771D02*
X166782738Y-58510771D01*
X166782738Y-58510771D02*
X166877976Y-58558390D01*
X166877976Y-58558390D02*
X166925595Y-58606009D01*
X166925595Y-58606009D02*
X166973214Y-58701247D01*
X166973214Y-58701247D02*
X166973214Y-58939342D01*
X166973214Y-58939342D02*
X166925595Y-59034580D01*
X166925595Y-59034580D02*
X166877976Y-59082200D01*
X166877976Y-59082200D02*
X166782738Y-59129819D01*
X166782738Y-59129819D02*
X166544643Y-59129819D01*
X166544643Y-59129819D02*
X166449405Y-59082200D01*
X166449405Y-59082200D02*
X166401786Y-59034580D01*
X167592262Y-58129819D02*
X167687500Y-58129819D01*
X167687500Y-58129819D02*
X167782738Y-58177438D01*
X167782738Y-58177438D02*
X167830357Y-58225057D01*
X167830357Y-58225057D02*
X167877976Y-58320295D01*
X167877976Y-58320295D02*
X167925595Y-58510771D01*
X167925595Y-58510771D02*
X167925595Y-58748866D01*
X167925595Y-58748866D02*
X167877976Y-58939342D01*
X167877976Y-58939342D02*
X167830357Y-59034580D01*
X167830357Y-59034580D02*
X167782738Y-59082200D01*
X167782738Y-59082200D02*
X167687500Y-59129819D01*
X167687500Y-59129819D02*
X167592262Y-59129819D01*
X167592262Y-59129819D02*
X167497024Y-59082200D01*
X167497024Y-59082200D02*
X167449405Y-59034580D01*
X167449405Y-59034580D02*
X167401786Y-58939342D01*
X167401786Y-58939342D02*
X167354167Y-58748866D01*
X167354167Y-58748866D02*
X167354167Y-58510771D01*
X167354167Y-58510771D02*
X167401786Y-58320295D01*
X167401786Y-58320295D02*
X167449405Y-58225057D01*
X167449405Y-58225057D02*
X167497024Y-58177438D01*
X167497024Y-58177438D02*
X167592262Y-58129819D01*
X32099405Y-59082200D02*
X32242262Y-59129819D01*
X32242262Y-59129819D02*
X32480357Y-59129819D01*
X32480357Y-59129819D02*
X32575595Y-59082200D01*
X32575595Y-59082200D02*
X32623214Y-59034580D01*
X32623214Y-59034580D02*
X32670833Y-58939342D01*
X32670833Y-58939342D02*
X32670833Y-58844104D01*
X32670833Y-58844104D02*
X32623214Y-58748866D01*
X32623214Y-58748866D02*
X32575595Y-58701247D01*
X32575595Y-58701247D02*
X32480357Y-58653628D01*
X32480357Y-58653628D02*
X32289881Y-58606009D01*
X32289881Y-58606009D02*
X32194643Y-58558390D01*
X32194643Y-58558390D02*
X32147024Y-58510771D01*
X32147024Y-58510771D02*
X32099405Y-58415533D01*
X32099405Y-58415533D02*
X32099405Y-58320295D01*
X32099405Y-58320295D02*
X32147024Y-58225057D01*
X32147024Y-58225057D02*
X32194643Y-58177438D01*
X32194643Y-58177438D02*
X32289881Y-58129819D01*
X32289881Y-58129819D02*
X32527976Y-58129819D01*
X32527976Y-58129819D02*
X32670833Y-58177438D01*
X33527976Y-58463152D02*
X33527976Y-59129819D01*
X33289881Y-58082200D02*
X33051786Y-58796485D01*
X33051786Y-58796485D02*
X33670833Y-58796485D01*
X33956548Y-58129819D02*
X34575595Y-58129819D01*
X34575595Y-58129819D02*
X34242262Y-58510771D01*
X34242262Y-58510771D02*
X34385119Y-58510771D01*
X34385119Y-58510771D02*
X34480357Y-58558390D01*
X34480357Y-58558390D02*
X34527976Y-58606009D01*
X34527976Y-58606009D02*
X34575595Y-58701247D01*
X34575595Y-58701247D02*
X34575595Y-58939342D01*
X34575595Y-58939342D02*
X34527976Y-59034580D01*
X34527976Y-59034580D02*
X34480357Y-59082200D01*
X34480357Y-59082200D02*
X34385119Y-59129819D01*
X34385119Y-59129819D02*
X34099405Y-59129819D01*
X34099405Y-59129819D02*
X34004167Y-59082200D01*
X34004167Y-59082200D02*
X33956548Y-59034580D01*
X184499405Y-59082200D02*
X184642262Y-59129819D01*
X184642262Y-59129819D02*
X184880357Y-59129819D01*
X184880357Y-59129819D02*
X184975595Y-59082200D01*
X184975595Y-59082200D02*
X185023214Y-59034580D01*
X185023214Y-59034580D02*
X185070833Y-58939342D01*
X185070833Y-58939342D02*
X185070833Y-58844104D01*
X185070833Y-58844104D02*
X185023214Y-58748866D01*
X185023214Y-58748866D02*
X184975595Y-58701247D01*
X184975595Y-58701247D02*
X184880357Y-58653628D01*
X184880357Y-58653628D02*
X184689881Y-58606009D01*
X184689881Y-58606009D02*
X184594643Y-58558390D01*
X184594643Y-58558390D02*
X184547024Y-58510771D01*
X184547024Y-58510771D02*
X184499405Y-58415533D01*
X184499405Y-58415533D02*
X184499405Y-58320295D01*
X184499405Y-58320295D02*
X184547024Y-58225057D01*
X184547024Y-58225057D02*
X184594643Y-58177438D01*
X184594643Y-58177438D02*
X184689881Y-58129819D01*
X184689881Y-58129819D02*
X184927976Y-58129819D01*
X184927976Y-58129819D02*
X185070833Y-58177438D01*
X185975595Y-58129819D02*
X185499405Y-58129819D01*
X185499405Y-58129819D02*
X185451786Y-58606009D01*
X185451786Y-58606009D02*
X185499405Y-58558390D01*
X185499405Y-58558390D02*
X185594643Y-58510771D01*
X185594643Y-58510771D02*
X185832738Y-58510771D01*
X185832738Y-58510771D02*
X185927976Y-58558390D01*
X185927976Y-58558390D02*
X185975595Y-58606009D01*
X185975595Y-58606009D02*
X186023214Y-58701247D01*
X186023214Y-58701247D02*
X186023214Y-58939342D01*
X186023214Y-58939342D02*
X185975595Y-59034580D01*
X185975595Y-59034580D02*
X185927976Y-59082200D01*
X185927976Y-59082200D02*
X185832738Y-59129819D01*
X185832738Y-59129819D02*
X185594643Y-59129819D01*
X185594643Y-59129819D02*
X185499405Y-59082200D01*
X185499405Y-59082200D02*
X185451786Y-59034580D01*
X186975595Y-59129819D02*
X186404167Y-59129819D01*
X186689881Y-59129819D02*
X186689881Y-58129819D01*
X186689881Y-58129819D02*
X186594643Y-58272676D01*
X186594643Y-58272676D02*
X186499405Y-58367914D01*
X186499405Y-58367914D02*
X186404167Y-58415533D01*
X203549405Y-59082200D02*
X203692262Y-59129819D01*
X203692262Y-59129819D02*
X203930357Y-59129819D01*
X203930357Y-59129819D02*
X204025595Y-59082200D01*
X204025595Y-59082200D02*
X204073214Y-59034580D01*
X204073214Y-59034580D02*
X204120833Y-58939342D01*
X204120833Y-58939342D02*
X204120833Y-58844104D01*
X204120833Y-58844104D02*
X204073214Y-58748866D01*
X204073214Y-58748866D02*
X204025595Y-58701247D01*
X204025595Y-58701247D02*
X203930357Y-58653628D01*
X203930357Y-58653628D02*
X203739881Y-58606009D01*
X203739881Y-58606009D02*
X203644643Y-58558390D01*
X203644643Y-58558390D02*
X203597024Y-58510771D01*
X203597024Y-58510771D02*
X203549405Y-58415533D01*
X203549405Y-58415533D02*
X203549405Y-58320295D01*
X203549405Y-58320295D02*
X203597024Y-58225057D01*
X203597024Y-58225057D02*
X203644643Y-58177438D01*
X203644643Y-58177438D02*
X203739881Y-58129819D01*
X203739881Y-58129819D02*
X203977976Y-58129819D01*
X203977976Y-58129819D02*
X204120833Y-58177438D01*
X205025595Y-58129819D02*
X204549405Y-58129819D01*
X204549405Y-58129819D02*
X204501786Y-58606009D01*
X204501786Y-58606009D02*
X204549405Y-58558390D01*
X204549405Y-58558390D02*
X204644643Y-58510771D01*
X204644643Y-58510771D02*
X204882738Y-58510771D01*
X204882738Y-58510771D02*
X204977976Y-58558390D01*
X204977976Y-58558390D02*
X205025595Y-58606009D01*
X205025595Y-58606009D02*
X205073214Y-58701247D01*
X205073214Y-58701247D02*
X205073214Y-58939342D01*
X205073214Y-58939342D02*
X205025595Y-59034580D01*
X205025595Y-59034580D02*
X204977976Y-59082200D01*
X204977976Y-59082200D02*
X204882738Y-59129819D01*
X204882738Y-59129819D02*
X204644643Y-59129819D01*
X204644643Y-59129819D02*
X204549405Y-59082200D01*
X204549405Y-59082200D02*
X204501786Y-59034580D01*
X205454167Y-58225057D02*
X205501786Y-58177438D01*
X205501786Y-58177438D02*
X205597024Y-58129819D01*
X205597024Y-58129819D02*
X205835119Y-58129819D01*
X205835119Y-58129819D02*
X205930357Y-58177438D01*
X205930357Y-58177438D02*
X205977976Y-58225057D01*
X205977976Y-58225057D02*
X206025595Y-58320295D01*
X206025595Y-58320295D02*
X206025595Y-58415533D01*
X206025595Y-58415533D02*
X205977976Y-58558390D01*
X205977976Y-58558390D02*
X205406548Y-59129819D01*
X205406548Y-59129819D02*
X206025595Y-59129819D01*
X127349405Y-59082200D02*
X127492262Y-59129819D01*
X127492262Y-59129819D02*
X127730357Y-59129819D01*
X127730357Y-59129819D02*
X127825595Y-59082200D01*
X127825595Y-59082200D02*
X127873214Y-59034580D01*
X127873214Y-59034580D02*
X127920833Y-58939342D01*
X127920833Y-58939342D02*
X127920833Y-58844104D01*
X127920833Y-58844104D02*
X127873214Y-58748866D01*
X127873214Y-58748866D02*
X127825595Y-58701247D01*
X127825595Y-58701247D02*
X127730357Y-58653628D01*
X127730357Y-58653628D02*
X127539881Y-58606009D01*
X127539881Y-58606009D02*
X127444643Y-58558390D01*
X127444643Y-58558390D02*
X127397024Y-58510771D01*
X127397024Y-58510771D02*
X127349405Y-58415533D01*
X127349405Y-58415533D02*
X127349405Y-58320295D01*
X127349405Y-58320295D02*
X127397024Y-58225057D01*
X127397024Y-58225057D02*
X127444643Y-58177438D01*
X127444643Y-58177438D02*
X127539881Y-58129819D01*
X127539881Y-58129819D02*
X127777976Y-58129819D01*
X127777976Y-58129819D02*
X127920833Y-58177438D01*
X128777976Y-58463152D02*
X128777976Y-59129819D01*
X128539881Y-58082200D02*
X128301786Y-58796485D01*
X128301786Y-58796485D02*
X128920833Y-58796485D01*
X129444643Y-58558390D02*
X129349405Y-58510771D01*
X129349405Y-58510771D02*
X129301786Y-58463152D01*
X129301786Y-58463152D02*
X129254167Y-58367914D01*
X129254167Y-58367914D02*
X129254167Y-58320295D01*
X129254167Y-58320295D02*
X129301786Y-58225057D01*
X129301786Y-58225057D02*
X129349405Y-58177438D01*
X129349405Y-58177438D02*
X129444643Y-58129819D01*
X129444643Y-58129819D02*
X129635119Y-58129819D01*
X129635119Y-58129819D02*
X129730357Y-58177438D01*
X129730357Y-58177438D02*
X129777976Y-58225057D01*
X129777976Y-58225057D02*
X129825595Y-58320295D01*
X129825595Y-58320295D02*
X129825595Y-58367914D01*
X129825595Y-58367914D02*
X129777976Y-58463152D01*
X129777976Y-58463152D02*
X129730357Y-58510771D01*
X129730357Y-58510771D02*
X129635119Y-58558390D01*
X129635119Y-58558390D02*
X129444643Y-58558390D01*
X129444643Y-58558390D02*
X129349405Y-58606009D01*
X129349405Y-58606009D02*
X129301786Y-58653628D01*
X129301786Y-58653628D02*
X129254167Y-58748866D01*
X129254167Y-58748866D02*
X129254167Y-58939342D01*
X129254167Y-58939342D02*
X129301786Y-59034580D01*
X129301786Y-59034580D02*
X129349405Y-59082200D01*
X129349405Y-59082200D02*
X129444643Y-59129819D01*
X129444643Y-59129819D02*
X129635119Y-59129819D01*
X129635119Y-59129819D02*
X129730357Y-59082200D01*
X129730357Y-59082200D02*
X129777976Y-59034580D01*
X129777976Y-59034580D02*
X129825595Y-58939342D01*
X129825595Y-58939342D02*
X129825595Y-58748866D01*
X129825595Y-58748866D02*
X129777976Y-58653628D01*
X129777976Y-58653628D02*
X129730357Y-58606009D01*
X129730357Y-58606009D02*
X129635119Y-58558390D01*
X10668155Y-59082200D02*
X10811012Y-59129819D01*
X10811012Y-59129819D02*
X11049107Y-59129819D01*
X11049107Y-59129819D02*
X11144345Y-59082200D01*
X11144345Y-59082200D02*
X11191964Y-59034580D01*
X11191964Y-59034580D02*
X11239583Y-58939342D01*
X11239583Y-58939342D02*
X11239583Y-58844104D01*
X11239583Y-58844104D02*
X11191964Y-58748866D01*
X11191964Y-58748866D02*
X11144345Y-58701247D01*
X11144345Y-58701247D02*
X11049107Y-58653628D01*
X11049107Y-58653628D02*
X10858631Y-58606009D01*
X10858631Y-58606009D02*
X10763393Y-58558390D01*
X10763393Y-58558390D02*
X10715774Y-58510771D01*
X10715774Y-58510771D02*
X10668155Y-58415533D01*
X10668155Y-58415533D02*
X10668155Y-58320295D01*
X10668155Y-58320295D02*
X10715774Y-58225057D01*
X10715774Y-58225057D02*
X10763393Y-58177438D01*
X10763393Y-58177438D02*
X10858631Y-58129819D01*
X10858631Y-58129819D02*
X11096726Y-58129819D01*
X11096726Y-58129819D02*
X11239583Y-58177438D01*
X12096726Y-58463152D02*
X12096726Y-59129819D01*
X11858631Y-58082200D02*
X11620536Y-58796485D01*
X11620536Y-58796485D02*
X12239583Y-58796485D01*
X12572917Y-58225057D02*
X12620536Y-58177438D01*
X12620536Y-58177438D02*
X12715774Y-58129819D01*
X12715774Y-58129819D02*
X12953869Y-58129819D01*
X12953869Y-58129819D02*
X13049107Y-58177438D01*
X13049107Y-58177438D02*
X13096726Y-58225057D01*
X13096726Y-58225057D02*
X13144345Y-58320295D01*
X13144345Y-58320295D02*
X13144345Y-58415533D01*
X13144345Y-58415533D02*
X13096726Y-58558390D01*
X13096726Y-58558390D02*
X12525298Y-59129819D01*
X12525298Y-59129819D02*
X13144345Y-59129819D01*
X151161905Y-20982200D02*
X151304762Y-21029819D01*
X151304762Y-21029819D02*
X151542857Y-21029819D01*
X151542857Y-21029819D02*
X151638095Y-20982200D01*
X151638095Y-20982200D02*
X151685714Y-20934580D01*
X151685714Y-20934580D02*
X151733333Y-20839342D01*
X151733333Y-20839342D02*
X151733333Y-20744104D01*
X151733333Y-20744104D02*
X151685714Y-20648866D01*
X151685714Y-20648866D02*
X151638095Y-20601247D01*
X151638095Y-20601247D02*
X151542857Y-20553628D01*
X151542857Y-20553628D02*
X151352381Y-20506009D01*
X151352381Y-20506009D02*
X151257143Y-20458390D01*
X151257143Y-20458390D02*
X151209524Y-20410771D01*
X151209524Y-20410771D02*
X151161905Y-20315533D01*
X151161905Y-20315533D02*
X151161905Y-20220295D01*
X151161905Y-20220295D02*
X151209524Y-20125057D01*
X151209524Y-20125057D02*
X151257143Y-20077438D01*
X151257143Y-20077438D02*
X151352381Y-20029819D01*
X151352381Y-20029819D02*
X151590476Y-20029819D01*
X151590476Y-20029819D02*
X151733333Y-20077438D01*
X152114286Y-20125057D02*
X152161905Y-20077438D01*
X152161905Y-20077438D02*
X152257143Y-20029819D01*
X152257143Y-20029819D02*
X152495238Y-20029819D01*
X152495238Y-20029819D02*
X152590476Y-20077438D01*
X152590476Y-20077438D02*
X152638095Y-20125057D01*
X152638095Y-20125057D02*
X152685714Y-20220295D01*
X152685714Y-20220295D02*
X152685714Y-20315533D01*
X152685714Y-20315533D02*
X152638095Y-20458390D01*
X152638095Y-20458390D02*
X152066667Y-21029819D01*
X152066667Y-21029819D02*
X152685714Y-21029819D01*
X153066667Y-20125057D02*
X153114286Y-20077438D01*
X153114286Y-20077438D02*
X153209524Y-20029819D01*
X153209524Y-20029819D02*
X153447619Y-20029819D01*
X153447619Y-20029819D02*
X153542857Y-20077438D01*
X153542857Y-20077438D02*
X153590476Y-20125057D01*
X153590476Y-20125057D02*
X153638095Y-20220295D01*
X153638095Y-20220295D02*
X153638095Y-20315533D01*
X153638095Y-20315533D02*
X153590476Y-20458390D01*
X153590476Y-20458390D02*
X153019048Y-21029819D01*
X153019048Y-21029819D02*
X153638095Y-21029819D01*
X248793155Y-78132200D02*
X248936012Y-78179819D01*
X248936012Y-78179819D02*
X249174107Y-78179819D01*
X249174107Y-78179819D02*
X249269345Y-78132200D01*
X249269345Y-78132200D02*
X249316964Y-78084580D01*
X249316964Y-78084580D02*
X249364583Y-77989342D01*
X249364583Y-77989342D02*
X249364583Y-77894104D01*
X249364583Y-77894104D02*
X249316964Y-77798866D01*
X249316964Y-77798866D02*
X249269345Y-77751247D01*
X249269345Y-77751247D02*
X249174107Y-77703628D01*
X249174107Y-77703628D02*
X248983631Y-77656009D01*
X248983631Y-77656009D02*
X248888393Y-77608390D01*
X248888393Y-77608390D02*
X248840774Y-77560771D01*
X248840774Y-77560771D02*
X248793155Y-77465533D01*
X248793155Y-77465533D02*
X248793155Y-77370295D01*
X248793155Y-77370295D02*
X248840774Y-77275057D01*
X248840774Y-77275057D02*
X248888393Y-77227438D01*
X248888393Y-77227438D02*
X248983631Y-77179819D01*
X248983631Y-77179819D02*
X249221726Y-77179819D01*
X249221726Y-77179819D02*
X249364583Y-77227438D01*
X250221726Y-77179819D02*
X250031250Y-77179819D01*
X250031250Y-77179819D02*
X249936012Y-77227438D01*
X249936012Y-77227438D02*
X249888393Y-77275057D01*
X249888393Y-77275057D02*
X249793155Y-77417914D01*
X249793155Y-77417914D02*
X249745536Y-77608390D01*
X249745536Y-77608390D02*
X249745536Y-77989342D01*
X249745536Y-77989342D02*
X249793155Y-78084580D01*
X249793155Y-78084580D02*
X249840774Y-78132200D01*
X249840774Y-78132200D02*
X249936012Y-78179819D01*
X249936012Y-78179819D02*
X250126488Y-78179819D01*
X250126488Y-78179819D02*
X250221726Y-78132200D01*
X250221726Y-78132200D02*
X250269345Y-78084580D01*
X250269345Y-78084580D02*
X250316964Y-77989342D01*
X250316964Y-77989342D02*
X250316964Y-77751247D01*
X250316964Y-77751247D02*
X250269345Y-77656009D01*
X250269345Y-77656009D02*
X250221726Y-77608390D01*
X250221726Y-77608390D02*
X250126488Y-77560771D01*
X250126488Y-77560771D02*
X249936012Y-77560771D01*
X249936012Y-77560771D02*
X249840774Y-77608390D01*
X249840774Y-77608390D02*
X249793155Y-77656009D01*
X249793155Y-77656009D02*
X249745536Y-77751247D01*
X251269345Y-78179819D02*
X250697917Y-78179819D01*
X250983631Y-78179819D02*
X250983631Y-77179819D01*
X250983631Y-77179819D02*
X250888393Y-77322676D01*
X250888393Y-77322676D02*
X250793155Y-77417914D01*
X250793155Y-77417914D02*
X250697917Y-77465533D01*
X265461905Y-1932200D02*
X265604762Y-1979819D01*
X265604762Y-1979819D02*
X265842857Y-1979819D01*
X265842857Y-1979819D02*
X265938095Y-1932200D01*
X265938095Y-1932200D02*
X265985714Y-1884580D01*
X265985714Y-1884580D02*
X266033333Y-1789342D01*
X266033333Y-1789342D02*
X266033333Y-1694104D01*
X266033333Y-1694104D02*
X265985714Y-1598866D01*
X265985714Y-1598866D02*
X265938095Y-1551247D01*
X265938095Y-1551247D02*
X265842857Y-1503628D01*
X265842857Y-1503628D02*
X265652381Y-1456009D01*
X265652381Y-1456009D02*
X265557143Y-1408390D01*
X265557143Y-1408390D02*
X265509524Y-1360771D01*
X265509524Y-1360771D02*
X265461905Y-1265533D01*
X265461905Y-1265533D02*
X265461905Y-1170295D01*
X265461905Y-1170295D02*
X265509524Y-1075057D01*
X265509524Y-1075057D02*
X265557143Y-1027438D01*
X265557143Y-1027438D02*
X265652381Y-979819D01*
X265652381Y-979819D02*
X265890476Y-979819D01*
X265890476Y-979819D02*
X266033333Y-1027438D01*
X266985714Y-1979819D02*
X266414286Y-1979819D01*
X266700000Y-1979819D02*
X266700000Y-979819D01*
X266700000Y-979819D02*
X266604762Y-1122676D01*
X266604762Y-1122676D02*
X266509524Y-1217914D01*
X266509524Y-1217914D02*
X266414286Y-1265533D01*
X267842857Y-1313152D02*
X267842857Y-1979819D01*
X267604762Y-932200D02*
X267366667Y-1646485D01*
X267366667Y-1646485D02*
X267985714Y-1646485D01*
X65913095Y-1932200D02*
X66055952Y-1979819D01*
X66055952Y-1979819D02*
X66294047Y-1979819D01*
X66294047Y-1979819D02*
X66389285Y-1932200D01*
X66389285Y-1932200D02*
X66436904Y-1884580D01*
X66436904Y-1884580D02*
X66484523Y-1789342D01*
X66484523Y-1789342D02*
X66484523Y-1694104D01*
X66484523Y-1694104D02*
X66436904Y-1598866D01*
X66436904Y-1598866D02*
X66389285Y-1551247D01*
X66389285Y-1551247D02*
X66294047Y-1503628D01*
X66294047Y-1503628D02*
X66103571Y-1456009D01*
X66103571Y-1456009D02*
X66008333Y-1408390D01*
X66008333Y-1408390D02*
X65960714Y-1360771D01*
X65960714Y-1360771D02*
X65913095Y-1265533D01*
X65913095Y-1265533D02*
X65913095Y-1170295D01*
X65913095Y-1170295D02*
X65960714Y-1075057D01*
X65960714Y-1075057D02*
X66008333Y-1027438D01*
X66008333Y-1027438D02*
X66103571Y-979819D01*
X66103571Y-979819D02*
X66341666Y-979819D01*
X66341666Y-979819D02*
X66484523Y-1027438D01*
X67341666Y-1313152D02*
X67341666Y-1979819D01*
X67103571Y-932200D02*
X66865476Y-1646485D01*
X66865476Y-1646485D02*
X67484523Y-1646485D01*
X179736905Y-1932200D02*
X179879762Y-1979819D01*
X179879762Y-1979819D02*
X180117857Y-1979819D01*
X180117857Y-1979819D02*
X180213095Y-1932200D01*
X180213095Y-1932200D02*
X180260714Y-1884580D01*
X180260714Y-1884580D02*
X180308333Y-1789342D01*
X180308333Y-1789342D02*
X180308333Y-1694104D01*
X180308333Y-1694104D02*
X180260714Y-1598866D01*
X180260714Y-1598866D02*
X180213095Y-1551247D01*
X180213095Y-1551247D02*
X180117857Y-1503628D01*
X180117857Y-1503628D02*
X179927381Y-1456009D01*
X179927381Y-1456009D02*
X179832143Y-1408390D01*
X179832143Y-1408390D02*
X179784524Y-1360771D01*
X179784524Y-1360771D02*
X179736905Y-1265533D01*
X179736905Y-1265533D02*
X179736905Y-1170295D01*
X179736905Y-1170295D02*
X179784524Y-1075057D01*
X179784524Y-1075057D02*
X179832143Y-1027438D01*
X179832143Y-1027438D02*
X179927381Y-979819D01*
X179927381Y-979819D02*
X180165476Y-979819D01*
X180165476Y-979819D02*
X180308333Y-1027438D01*
X181260714Y-1979819D02*
X180689286Y-1979819D01*
X180975000Y-1979819D02*
X180975000Y-979819D01*
X180975000Y-979819D02*
X180879762Y-1122676D01*
X180879762Y-1122676D02*
X180784524Y-1217914D01*
X180784524Y-1217914D02*
X180689286Y-1265533D01*
X181879762Y-979819D02*
X181975000Y-979819D01*
X181975000Y-979819D02*
X182070238Y-1027438D01*
X182070238Y-1027438D02*
X182117857Y-1075057D01*
X182117857Y-1075057D02*
X182165476Y-1170295D01*
X182165476Y-1170295D02*
X182213095Y-1360771D01*
X182213095Y-1360771D02*
X182213095Y-1598866D01*
X182213095Y-1598866D02*
X182165476Y-1789342D01*
X182165476Y-1789342D02*
X182117857Y-1884580D01*
X182117857Y-1884580D02*
X182070238Y-1932200D01*
X182070238Y-1932200D02*
X181975000Y-1979819D01*
X181975000Y-1979819D02*
X181879762Y-1979819D01*
X181879762Y-1979819D02*
X181784524Y-1932200D01*
X181784524Y-1932200D02*
X181736905Y-1884580D01*
X181736905Y-1884580D02*
X181689286Y-1789342D01*
X181689286Y-1789342D02*
X181641667Y-1598866D01*
X181641667Y-1598866D02*
X181641667Y-1360771D01*
X181641667Y-1360771D02*
X181689286Y-1170295D01*
X181689286Y-1170295D02*
X181736905Y-1075057D01*
X181736905Y-1075057D02*
X181784524Y-1027438D01*
X181784524Y-1027438D02*
X181879762Y-979819D01*
X251174405Y-40032200D02*
X251317262Y-40079819D01*
X251317262Y-40079819D02*
X251555357Y-40079819D01*
X251555357Y-40079819D02*
X251650595Y-40032200D01*
X251650595Y-40032200D02*
X251698214Y-39984580D01*
X251698214Y-39984580D02*
X251745833Y-39889342D01*
X251745833Y-39889342D02*
X251745833Y-39794104D01*
X251745833Y-39794104D02*
X251698214Y-39698866D01*
X251698214Y-39698866D02*
X251650595Y-39651247D01*
X251650595Y-39651247D02*
X251555357Y-39603628D01*
X251555357Y-39603628D02*
X251364881Y-39556009D01*
X251364881Y-39556009D02*
X251269643Y-39508390D01*
X251269643Y-39508390D02*
X251222024Y-39460771D01*
X251222024Y-39460771D02*
X251174405Y-39365533D01*
X251174405Y-39365533D02*
X251174405Y-39270295D01*
X251174405Y-39270295D02*
X251222024Y-39175057D01*
X251222024Y-39175057D02*
X251269643Y-39127438D01*
X251269643Y-39127438D02*
X251364881Y-39079819D01*
X251364881Y-39079819D02*
X251602976Y-39079819D01*
X251602976Y-39079819D02*
X251745833Y-39127438D01*
X252602976Y-39413152D02*
X252602976Y-40079819D01*
X252364881Y-39032200D02*
X252126786Y-39746485D01*
X252126786Y-39746485D02*
X252745833Y-39746485D01*
X253650595Y-40079819D02*
X253079167Y-40079819D01*
X253364881Y-40079819D02*
X253364881Y-39079819D01*
X253364881Y-39079819D02*
X253269643Y-39222676D01*
X253269643Y-39222676D02*
X253174405Y-39317914D01*
X253174405Y-39317914D02*
X253079167Y-39365533D01*
X108299405Y-59082200D02*
X108442262Y-59129819D01*
X108442262Y-59129819D02*
X108680357Y-59129819D01*
X108680357Y-59129819D02*
X108775595Y-59082200D01*
X108775595Y-59082200D02*
X108823214Y-59034580D01*
X108823214Y-59034580D02*
X108870833Y-58939342D01*
X108870833Y-58939342D02*
X108870833Y-58844104D01*
X108870833Y-58844104D02*
X108823214Y-58748866D01*
X108823214Y-58748866D02*
X108775595Y-58701247D01*
X108775595Y-58701247D02*
X108680357Y-58653628D01*
X108680357Y-58653628D02*
X108489881Y-58606009D01*
X108489881Y-58606009D02*
X108394643Y-58558390D01*
X108394643Y-58558390D02*
X108347024Y-58510771D01*
X108347024Y-58510771D02*
X108299405Y-58415533D01*
X108299405Y-58415533D02*
X108299405Y-58320295D01*
X108299405Y-58320295D02*
X108347024Y-58225057D01*
X108347024Y-58225057D02*
X108394643Y-58177438D01*
X108394643Y-58177438D02*
X108489881Y-58129819D01*
X108489881Y-58129819D02*
X108727976Y-58129819D01*
X108727976Y-58129819D02*
X108870833Y-58177438D01*
X109727976Y-58463152D02*
X109727976Y-59129819D01*
X109489881Y-58082200D02*
X109251786Y-58796485D01*
X109251786Y-58796485D02*
X109870833Y-58796485D01*
X110156548Y-58129819D02*
X110823214Y-58129819D01*
X110823214Y-58129819D02*
X110394643Y-59129819D01*
X46863095Y-1932200D02*
X47005952Y-1979819D01*
X47005952Y-1979819D02*
X47244047Y-1979819D01*
X47244047Y-1979819D02*
X47339285Y-1932200D01*
X47339285Y-1932200D02*
X47386904Y-1884580D01*
X47386904Y-1884580D02*
X47434523Y-1789342D01*
X47434523Y-1789342D02*
X47434523Y-1694104D01*
X47434523Y-1694104D02*
X47386904Y-1598866D01*
X47386904Y-1598866D02*
X47339285Y-1551247D01*
X47339285Y-1551247D02*
X47244047Y-1503628D01*
X47244047Y-1503628D02*
X47053571Y-1456009D01*
X47053571Y-1456009D02*
X46958333Y-1408390D01*
X46958333Y-1408390D02*
X46910714Y-1360771D01*
X46910714Y-1360771D02*
X46863095Y-1265533D01*
X46863095Y-1265533D02*
X46863095Y-1170295D01*
X46863095Y-1170295D02*
X46910714Y-1075057D01*
X46910714Y-1075057D02*
X46958333Y-1027438D01*
X46958333Y-1027438D02*
X47053571Y-979819D01*
X47053571Y-979819D02*
X47291666Y-979819D01*
X47291666Y-979819D02*
X47434523Y-1027438D01*
X47767857Y-979819D02*
X48386904Y-979819D01*
X48386904Y-979819D02*
X48053571Y-1360771D01*
X48053571Y-1360771D02*
X48196428Y-1360771D01*
X48196428Y-1360771D02*
X48291666Y-1408390D01*
X48291666Y-1408390D02*
X48339285Y-1456009D01*
X48339285Y-1456009D02*
X48386904Y-1551247D01*
X48386904Y-1551247D02*
X48386904Y-1789342D01*
X48386904Y-1789342D02*
X48339285Y-1884580D01*
X48339285Y-1884580D02*
X48291666Y-1932200D01*
X48291666Y-1932200D02*
X48196428Y-1979819D01*
X48196428Y-1979819D02*
X47910714Y-1979819D01*
X47910714Y-1979819D02*
X47815476Y-1932200D01*
X47815476Y-1932200D02*
X47767857Y-1884580D01*
X36861905Y-20982200D02*
X37004762Y-21029819D01*
X37004762Y-21029819D02*
X37242857Y-21029819D01*
X37242857Y-21029819D02*
X37338095Y-20982200D01*
X37338095Y-20982200D02*
X37385714Y-20934580D01*
X37385714Y-20934580D02*
X37433333Y-20839342D01*
X37433333Y-20839342D02*
X37433333Y-20744104D01*
X37433333Y-20744104D02*
X37385714Y-20648866D01*
X37385714Y-20648866D02*
X37338095Y-20601247D01*
X37338095Y-20601247D02*
X37242857Y-20553628D01*
X37242857Y-20553628D02*
X37052381Y-20506009D01*
X37052381Y-20506009D02*
X36957143Y-20458390D01*
X36957143Y-20458390D02*
X36909524Y-20410771D01*
X36909524Y-20410771D02*
X36861905Y-20315533D01*
X36861905Y-20315533D02*
X36861905Y-20220295D01*
X36861905Y-20220295D02*
X36909524Y-20125057D01*
X36909524Y-20125057D02*
X36957143Y-20077438D01*
X36957143Y-20077438D02*
X37052381Y-20029819D01*
X37052381Y-20029819D02*
X37290476Y-20029819D01*
X37290476Y-20029819D02*
X37433333Y-20077438D01*
X38385714Y-21029819D02*
X37814286Y-21029819D01*
X38100000Y-21029819D02*
X38100000Y-20029819D01*
X38100000Y-20029819D02*
X38004762Y-20172676D01*
X38004762Y-20172676D02*
X37909524Y-20267914D01*
X37909524Y-20267914D02*
X37814286Y-20315533D01*
X39242857Y-20029819D02*
X39052381Y-20029819D01*
X39052381Y-20029819D02*
X38957143Y-20077438D01*
X38957143Y-20077438D02*
X38909524Y-20125057D01*
X38909524Y-20125057D02*
X38814286Y-20267914D01*
X38814286Y-20267914D02*
X38766667Y-20458390D01*
X38766667Y-20458390D02*
X38766667Y-20839342D01*
X38766667Y-20839342D02*
X38814286Y-20934580D01*
X38814286Y-20934580D02*
X38861905Y-20982200D01*
X38861905Y-20982200D02*
X38957143Y-21029819D01*
X38957143Y-21029819D02*
X39147619Y-21029819D01*
X39147619Y-21029819D02*
X39242857Y-20982200D01*
X39242857Y-20982200D02*
X39290476Y-20934580D01*
X39290476Y-20934580D02*
X39338095Y-20839342D01*
X39338095Y-20839342D02*
X39338095Y-20601247D01*
X39338095Y-20601247D02*
X39290476Y-20506009D01*
X39290476Y-20506009D02*
X39242857Y-20458390D01*
X39242857Y-20458390D02*
X39147619Y-20410771D01*
X39147619Y-20410771D02*
X38957143Y-20410771D01*
X38957143Y-20410771D02*
X38861905Y-20458390D01*
X38861905Y-20458390D02*
X38814286Y-20506009D01*
X38814286Y-20506009D02*
X38766667Y-20601247D01*
X123063095Y-1932200D02*
X123205952Y-1979819D01*
X123205952Y-1979819D02*
X123444047Y-1979819D01*
X123444047Y-1979819D02*
X123539285Y-1932200D01*
X123539285Y-1932200D02*
X123586904Y-1884580D01*
X123586904Y-1884580D02*
X123634523Y-1789342D01*
X123634523Y-1789342D02*
X123634523Y-1694104D01*
X123634523Y-1694104D02*
X123586904Y-1598866D01*
X123586904Y-1598866D02*
X123539285Y-1551247D01*
X123539285Y-1551247D02*
X123444047Y-1503628D01*
X123444047Y-1503628D02*
X123253571Y-1456009D01*
X123253571Y-1456009D02*
X123158333Y-1408390D01*
X123158333Y-1408390D02*
X123110714Y-1360771D01*
X123110714Y-1360771D02*
X123063095Y-1265533D01*
X123063095Y-1265533D02*
X123063095Y-1170295D01*
X123063095Y-1170295D02*
X123110714Y-1075057D01*
X123110714Y-1075057D02*
X123158333Y-1027438D01*
X123158333Y-1027438D02*
X123253571Y-979819D01*
X123253571Y-979819D02*
X123491666Y-979819D01*
X123491666Y-979819D02*
X123634523Y-1027438D01*
X123967857Y-979819D02*
X124634523Y-979819D01*
X124634523Y-979819D02*
X124205952Y-1979819D01*
X170211905Y-20982200D02*
X170354762Y-21029819D01*
X170354762Y-21029819D02*
X170592857Y-21029819D01*
X170592857Y-21029819D02*
X170688095Y-20982200D01*
X170688095Y-20982200D02*
X170735714Y-20934580D01*
X170735714Y-20934580D02*
X170783333Y-20839342D01*
X170783333Y-20839342D02*
X170783333Y-20744104D01*
X170783333Y-20744104D02*
X170735714Y-20648866D01*
X170735714Y-20648866D02*
X170688095Y-20601247D01*
X170688095Y-20601247D02*
X170592857Y-20553628D01*
X170592857Y-20553628D02*
X170402381Y-20506009D01*
X170402381Y-20506009D02*
X170307143Y-20458390D01*
X170307143Y-20458390D02*
X170259524Y-20410771D01*
X170259524Y-20410771D02*
X170211905Y-20315533D01*
X170211905Y-20315533D02*
X170211905Y-20220295D01*
X170211905Y-20220295D02*
X170259524Y-20125057D01*
X170259524Y-20125057D02*
X170307143Y-20077438D01*
X170307143Y-20077438D02*
X170402381Y-20029819D01*
X170402381Y-20029819D02*
X170640476Y-20029819D01*
X170640476Y-20029819D02*
X170783333Y-20077438D01*
X171164286Y-20125057D02*
X171211905Y-20077438D01*
X171211905Y-20077438D02*
X171307143Y-20029819D01*
X171307143Y-20029819D02*
X171545238Y-20029819D01*
X171545238Y-20029819D02*
X171640476Y-20077438D01*
X171640476Y-20077438D02*
X171688095Y-20125057D01*
X171688095Y-20125057D02*
X171735714Y-20220295D01*
X171735714Y-20220295D02*
X171735714Y-20315533D01*
X171735714Y-20315533D02*
X171688095Y-20458390D01*
X171688095Y-20458390D02*
X171116667Y-21029819D01*
X171116667Y-21029819D02*
X171735714Y-21029819D01*
X172069048Y-20029819D02*
X172688095Y-20029819D01*
X172688095Y-20029819D02*
X172354762Y-20410771D01*
X172354762Y-20410771D02*
X172497619Y-20410771D01*
X172497619Y-20410771D02*
X172592857Y-20458390D01*
X172592857Y-20458390D02*
X172640476Y-20506009D01*
X172640476Y-20506009D02*
X172688095Y-20601247D01*
X172688095Y-20601247D02*
X172688095Y-20839342D01*
X172688095Y-20839342D02*
X172640476Y-20934580D01*
X172640476Y-20934580D02*
X172592857Y-20982200D01*
X172592857Y-20982200D02*
X172497619Y-21029819D01*
X172497619Y-21029819D02*
X172211905Y-21029819D01*
X172211905Y-21029819D02*
X172116667Y-20982200D01*
X172116667Y-20982200D02*
X172069048Y-20934580D01*
X222599405Y-59082200D02*
X222742262Y-59129819D01*
X222742262Y-59129819D02*
X222980357Y-59129819D01*
X222980357Y-59129819D02*
X223075595Y-59082200D01*
X223075595Y-59082200D02*
X223123214Y-59034580D01*
X223123214Y-59034580D02*
X223170833Y-58939342D01*
X223170833Y-58939342D02*
X223170833Y-58844104D01*
X223170833Y-58844104D02*
X223123214Y-58748866D01*
X223123214Y-58748866D02*
X223075595Y-58701247D01*
X223075595Y-58701247D02*
X222980357Y-58653628D01*
X222980357Y-58653628D02*
X222789881Y-58606009D01*
X222789881Y-58606009D02*
X222694643Y-58558390D01*
X222694643Y-58558390D02*
X222647024Y-58510771D01*
X222647024Y-58510771D02*
X222599405Y-58415533D01*
X222599405Y-58415533D02*
X222599405Y-58320295D01*
X222599405Y-58320295D02*
X222647024Y-58225057D01*
X222647024Y-58225057D02*
X222694643Y-58177438D01*
X222694643Y-58177438D02*
X222789881Y-58129819D01*
X222789881Y-58129819D02*
X223027976Y-58129819D01*
X223027976Y-58129819D02*
X223170833Y-58177438D01*
X224075595Y-58129819D02*
X223599405Y-58129819D01*
X223599405Y-58129819D02*
X223551786Y-58606009D01*
X223551786Y-58606009D02*
X223599405Y-58558390D01*
X223599405Y-58558390D02*
X223694643Y-58510771D01*
X223694643Y-58510771D02*
X223932738Y-58510771D01*
X223932738Y-58510771D02*
X224027976Y-58558390D01*
X224027976Y-58558390D02*
X224075595Y-58606009D01*
X224075595Y-58606009D02*
X224123214Y-58701247D01*
X224123214Y-58701247D02*
X224123214Y-58939342D01*
X224123214Y-58939342D02*
X224075595Y-59034580D01*
X224075595Y-59034580D02*
X224027976Y-59082200D01*
X224027976Y-59082200D02*
X223932738Y-59129819D01*
X223932738Y-59129819D02*
X223694643Y-59129819D01*
X223694643Y-59129819D02*
X223599405Y-59082200D01*
X223599405Y-59082200D02*
X223551786Y-59034580D01*
X224456548Y-58129819D02*
X225075595Y-58129819D01*
X225075595Y-58129819D02*
X224742262Y-58510771D01*
X224742262Y-58510771D02*
X224885119Y-58510771D01*
X224885119Y-58510771D02*
X224980357Y-58558390D01*
X224980357Y-58558390D02*
X225027976Y-58606009D01*
X225027976Y-58606009D02*
X225075595Y-58701247D01*
X225075595Y-58701247D02*
X225075595Y-58939342D01*
X225075595Y-58939342D02*
X225027976Y-59034580D01*
X225027976Y-59034580D02*
X224980357Y-59082200D01*
X224980357Y-59082200D02*
X224885119Y-59129819D01*
X224885119Y-59129819D02*
X224599405Y-59129819D01*
X224599405Y-59129819D02*
X224504167Y-59082200D01*
X224504167Y-59082200D02*
X224456548Y-59034580D01*
X246411905Y-20982200D02*
X246554762Y-21029819D01*
X246554762Y-21029819D02*
X246792857Y-21029819D01*
X246792857Y-21029819D02*
X246888095Y-20982200D01*
X246888095Y-20982200D02*
X246935714Y-20934580D01*
X246935714Y-20934580D02*
X246983333Y-20839342D01*
X246983333Y-20839342D02*
X246983333Y-20744104D01*
X246983333Y-20744104D02*
X246935714Y-20648866D01*
X246935714Y-20648866D02*
X246888095Y-20601247D01*
X246888095Y-20601247D02*
X246792857Y-20553628D01*
X246792857Y-20553628D02*
X246602381Y-20506009D01*
X246602381Y-20506009D02*
X246507143Y-20458390D01*
X246507143Y-20458390D02*
X246459524Y-20410771D01*
X246459524Y-20410771D02*
X246411905Y-20315533D01*
X246411905Y-20315533D02*
X246411905Y-20220295D01*
X246411905Y-20220295D02*
X246459524Y-20125057D01*
X246459524Y-20125057D02*
X246507143Y-20077438D01*
X246507143Y-20077438D02*
X246602381Y-20029819D01*
X246602381Y-20029819D02*
X246840476Y-20029819D01*
X246840476Y-20029819D02*
X246983333Y-20077438D01*
X247364286Y-20125057D02*
X247411905Y-20077438D01*
X247411905Y-20077438D02*
X247507143Y-20029819D01*
X247507143Y-20029819D02*
X247745238Y-20029819D01*
X247745238Y-20029819D02*
X247840476Y-20077438D01*
X247840476Y-20077438D02*
X247888095Y-20125057D01*
X247888095Y-20125057D02*
X247935714Y-20220295D01*
X247935714Y-20220295D02*
X247935714Y-20315533D01*
X247935714Y-20315533D02*
X247888095Y-20458390D01*
X247888095Y-20458390D02*
X247316667Y-21029819D01*
X247316667Y-21029819D02*
X247935714Y-21029819D01*
X248269048Y-20029819D02*
X248935714Y-20029819D01*
X248935714Y-20029819D02*
X248507143Y-21029819D01*
X104013095Y-1932200D02*
X104155952Y-1979819D01*
X104155952Y-1979819D02*
X104394047Y-1979819D01*
X104394047Y-1979819D02*
X104489285Y-1932200D01*
X104489285Y-1932200D02*
X104536904Y-1884580D01*
X104536904Y-1884580D02*
X104584523Y-1789342D01*
X104584523Y-1789342D02*
X104584523Y-1694104D01*
X104584523Y-1694104D02*
X104536904Y-1598866D01*
X104536904Y-1598866D02*
X104489285Y-1551247D01*
X104489285Y-1551247D02*
X104394047Y-1503628D01*
X104394047Y-1503628D02*
X104203571Y-1456009D01*
X104203571Y-1456009D02*
X104108333Y-1408390D01*
X104108333Y-1408390D02*
X104060714Y-1360771D01*
X104060714Y-1360771D02*
X104013095Y-1265533D01*
X104013095Y-1265533D02*
X104013095Y-1170295D01*
X104013095Y-1170295D02*
X104060714Y-1075057D01*
X104060714Y-1075057D02*
X104108333Y-1027438D01*
X104108333Y-1027438D02*
X104203571Y-979819D01*
X104203571Y-979819D02*
X104441666Y-979819D01*
X104441666Y-979819D02*
X104584523Y-1027438D01*
X105441666Y-979819D02*
X105251190Y-979819D01*
X105251190Y-979819D02*
X105155952Y-1027438D01*
X105155952Y-1027438D02*
X105108333Y-1075057D01*
X105108333Y-1075057D02*
X105013095Y-1217914D01*
X105013095Y-1217914D02*
X104965476Y-1408390D01*
X104965476Y-1408390D02*
X104965476Y-1789342D01*
X104965476Y-1789342D02*
X105013095Y-1884580D01*
X105013095Y-1884580D02*
X105060714Y-1932200D01*
X105060714Y-1932200D02*
X105155952Y-1979819D01*
X105155952Y-1979819D02*
X105346428Y-1979819D01*
X105346428Y-1979819D02*
X105441666Y-1932200D01*
X105441666Y-1932200D02*
X105489285Y-1884580D01*
X105489285Y-1884580D02*
X105536904Y-1789342D01*
X105536904Y-1789342D02*
X105536904Y-1551247D01*
X105536904Y-1551247D02*
X105489285Y-1456009D01*
X105489285Y-1456009D02*
X105441666Y-1408390D01*
X105441666Y-1408390D02*
X105346428Y-1360771D01*
X105346428Y-1360771D02*
X105155952Y-1360771D01*
X105155952Y-1360771D02*
X105060714Y-1408390D01*
X105060714Y-1408390D02*
X105013095Y-1456009D01*
X105013095Y-1456009D02*
X104965476Y-1551247D01*
X189261905Y-20982200D02*
X189404762Y-21029819D01*
X189404762Y-21029819D02*
X189642857Y-21029819D01*
X189642857Y-21029819D02*
X189738095Y-20982200D01*
X189738095Y-20982200D02*
X189785714Y-20934580D01*
X189785714Y-20934580D02*
X189833333Y-20839342D01*
X189833333Y-20839342D02*
X189833333Y-20744104D01*
X189833333Y-20744104D02*
X189785714Y-20648866D01*
X189785714Y-20648866D02*
X189738095Y-20601247D01*
X189738095Y-20601247D02*
X189642857Y-20553628D01*
X189642857Y-20553628D02*
X189452381Y-20506009D01*
X189452381Y-20506009D02*
X189357143Y-20458390D01*
X189357143Y-20458390D02*
X189309524Y-20410771D01*
X189309524Y-20410771D02*
X189261905Y-20315533D01*
X189261905Y-20315533D02*
X189261905Y-20220295D01*
X189261905Y-20220295D02*
X189309524Y-20125057D01*
X189309524Y-20125057D02*
X189357143Y-20077438D01*
X189357143Y-20077438D02*
X189452381Y-20029819D01*
X189452381Y-20029819D02*
X189690476Y-20029819D01*
X189690476Y-20029819D02*
X189833333Y-20077438D01*
X190214286Y-20125057D02*
X190261905Y-20077438D01*
X190261905Y-20077438D02*
X190357143Y-20029819D01*
X190357143Y-20029819D02*
X190595238Y-20029819D01*
X190595238Y-20029819D02*
X190690476Y-20077438D01*
X190690476Y-20077438D02*
X190738095Y-20125057D01*
X190738095Y-20125057D02*
X190785714Y-20220295D01*
X190785714Y-20220295D02*
X190785714Y-20315533D01*
X190785714Y-20315533D02*
X190738095Y-20458390D01*
X190738095Y-20458390D02*
X190166667Y-21029819D01*
X190166667Y-21029819D02*
X190785714Y-21029819D01*
X191642857Y-20363152D02*
X191642857Y-21029819D01*
X191404762Y-19982200D02*
X191166667Y-20696485D01*
X191166667Y-20696485D02*
X191785714Y-20696485D01*
X129730655Y-78132200D02*
X129873512Y-78179819D01*
X129873512Y-78179819D02*
X130111607Y-78179819D01*
X130111607Y-78179819D02*
X130206845Y-78132200D01*
X130206845Y-78132200D02*
X130254464Y-78084580D01*
X130254464Y-78084580D02*
X130302083Y-77989342D01*
X130302083Y-77989342D02*
X130302083Y-77894104D01*
X130302083Y-77894104D02*
X130254464Y-77798866D01*
X130254464Y-77798866D02*
X130206845Y-77751247D01*
X130206845Y-77751247D02*
X130111607Y-77703628D01*
X130111607Y-77703628D02*
X129921131Y-77656009D01*
X129921131Y-77656009D02*
X129825893Y-77608390D01*
X129825893Y-77608390D02*
X129778274Y-77560771D01*
X129778274Y-77560771D02*
X129730655Y-77465533D01*
X129730655Y-77465533D02*
X129730655Y-77370295D01*
X129730655Y-77370295D02*
X129778274Y-77275057D01*
X129778274Y-77275057D02*
X129825893Y-77227438D01*
X129825893Y-77227438D02*
X129921131Y-77179819D01*
X129921131Y-77179819D02*
X130159226Y-77179819D01*
X130159226Y-77179819D02*
X130302083Y-77227438D01*
X131206845Y-77179819D02*
X130730655Y-77179819D01*
X130730655Y-77179819D02*
X130683036Y-77656009D01*
X130683036Y-77656009D02*
X130730655Y-77608390D01*
X130730655Y-77608390D02*
X130825893Y-77560771D01*
X130825893Y-77560771D02*
X131063988Y-77560771D01*
X131063988Y-77560771D02*
X131159226Y-77608390D01*
X131159226Y-77608390D02*
X131206845Y-77656009D01*
X131206845Y-77656009D02*
X131254464Y-77751247D01*
X131254464Y-77751247D02*
X131254464Y-77989342D01*
X131254464Y-77989342D02*
X131206845Y-78084580D01*
X131206845Y-78084580D02*
X131159226Y-78132200D01*
X131159226Y-78132200D02*
X131063988Y-78179819D01*
X131063988Y-78179819D02*
X130825893Y-78179819D01*
X130825893Y-78179819D02*
X130730655Y-78132200D01*
X130730655Y-78132200D02*
X130683036Y-78084580D01*
X131825893Y-77608390D02*
X131730655Y-77560771D01*
X131730655Y-77560771D02*
X131683036Y-77513152D01*
X131683036Y-77513152D02*
X131635417Y-77417914D01*
X131635417Y-77417914D02*
X131635417Y-77370295D01*
X131635417Y-77370295D02*
X131683036Y-77275057D01*
X131683036Y-77275057D02*
X131730655Y-77227438D01*
X131730655Y-77227438D02*
X131825893Y-77179819D01*
X131825893Y-77179819D02*
X132016369Y-77179819D01*
X132016369Y-77179819D02*
X132111607Y-77227438D01*
X132111607Y-77227438D02*
X132159226Y-77275057D01*
X132159226Y-77275057D02*
X132206845Y-77370295D01*
X132206845Y-77370295D02*
X132206845Y-77417914D01*
X132206845Y-77417914D02*
X132159226Y-77513152D01*
X132159226Y-77513152D02*
X132111607Y-77560771D01*
X132111607Y-77560771D02*
X132016369Y-77608390D01*
X132016369Y-77608390D02*
X131825893Y-77608390D01*
X131825893Y-77608390D02*
X131730655Y-77656009D01*
X131730655Y-77656009D02*
X131683036Y-77703628D01*
X131683036Y-77703628D02*
X131635417Y-77798866D01*
X131635417Y-77798866D02*
X131635417Y-77989342D01*
X131635417Y-77989342D02*
X131683036Y-78084580D01*
X131683036Y-78084580D02*
X131730655Y-78132200D01*
X131730655Y-78132200D02*
X131825893Y-78179819D01*
X131825893Y-78179819D02*
X132016369Y-78179819D01*
X132016369Y-78179819D02*
X132111607Y-78132200D01*
X132111607Y-78132200D02*
X132159226Y-78084580D01*
X132159226Y-78084580D02*
X132206845Y-77989342D01*
X132206845Y-77989342D02*
X132206845Y-77798866D01*
X132206845Y-77798866D02*
X132159226Y-77703628D01*
X132159226Y-77703628D02*
X132111607Y-77656009D01*
X132111607Y-77656009D02*
X132016369Y-77608390D01*
X58293155Y-78132200D02*
X58436012Y-78179819D01*
X58436012Y-78179819D02*
X58674107Y-78179819D01*
X58674107Y-78179819D02*
X58769345Y-78132200D01*
X58769345Y-78132200D02*
X58816964Y-78084580D01*
X58816964Y-78084580D02*
X58864583Y-77989342D01*
X58864583Y-77989342D02*
X58864583Y-77894104D01*
X58864583Y-77894104D02*
X58816964Y-77798866D01*
X58816964Y-77798866D02*
X58769345Y-77751247D01*
X58769345Y-77751247D02*
X58674107Y-77703628D01*
X58674107Y-77703628D02*
X58483631Y-77656009D01*
X58483631Y-77656009D02*
X58388393Y-77608390D01*
X58388393Y-77608390D02*
X58340774Y-77560771D01*
X58340774Y-77560771D02*
X58293155Y-77465533D01*
X58293155Y-77465533D02*
X58293155Y-77370295D01*
X58293155Y-77370295D02*
X58340774Y-77275057D01*
X58340774Y-77275057D02*
X58388393Y-77227438D01*
X58388393Y-77227438D02*
X58483631Y-77179819D01*
X58483631Y-77179819D02*
X58721726Y-77179819D01*
X58721726Y-77179819D02*
X58864583Y-77227438D01*
X59769345Y-77179819D02*
X59293155Y-77179819D01*
X59293155Y-77179819D02*
X59245536Y-77656009D01*
X59245536Y-77656009D02*
X59293155Y-77608390D01*
X59293155Y-77608390D02*
X59388393Y-77560771D01*
X59388393Y-77560771D02*
X59626488Y-77560771D01*
X59626488Y-77560771D02*
X59721726Y-77608390D01*
X59721726Y-77608390D02*
X59769345Y-77656009D01*
X59769345Y-77656009D02*
X59816964Y-77751247D01*
X59816964Y-77751247D02*
X59816964Y-77989342D01*
X59816964Y-77989342D02*
X59769345Y-78084580D01*
X59769345Y-78084580D02*
X59721726Y-78132200D01*
X59721726Y-78132200D02*
X59626488Y-78179819D01*
X59626488Y-78179819D02*
X59388393Y-78179819D01*
X59388393Y-78179819D02*
X59293155Y-78132200D01*
X59293155Y-78132200D02*
X59245536Y-78084580D01*
X60150298Y-77179819D02*
X60816964Y-77179819D01*
X60816964Y-77179819D02*
X60388393Y-78179819D01*
X8763095Y-1932200D02*
X8905952Y-1979819D01*
X8905952Y-1979819D02*
X9144047Y-1979819D01*
X9144047Y-1979819D02*
X9239285Y-1932200D01*
X9239285Y-1932200D02*
X9286904Y-1884580D01*
X9286904Y-1884580D02*
X9334523Y-1789342D01*
X9334523Y-1789342D02*
X9334523Y-1694104D01*
X9334523Y-1694104D02*
X9286904Y-1598866D01*
X9286904Y-1598866D02*
X9239285Y-1551247D01*
X9239285Y-1551247D02*
X9144047Y-1503628D01*
X9144047Y-1503628D02*
X8953571Y-1456009D01*
X8953571Y-1456009D02*
X8858333Y-1408390D01*
X8858333Y-1408390D02*
X8810714Y-1360771D01*
X8810714Y-1360771D02*
X8763095Y-1265533D01*
X8763095Y-1265533D02*
X8763095Y-1170295D01*
X8763095Y-1170295D02*
X8810714Y-1075057D01*
X8810714Y-1075057D02*
X8858333Y-1027438D01*
X8858333Y-1027438D02*
X8953571Y-979819D01*
X8953571Y-979819D02*
X9191666Y-979819D01*
X9191666Y-979819D02*
X9334523Y-1027438D01*
X10286904Y-1979819D02*
X9715476Y-1979819D01*
X10001190Y-1979819D02*
X10001190Y-979819D01*
X10001190Y-979819D02*
X9905952Y-1122676D01*
X9905952Y-1122676D02*
X9810714Y-1217914D01*
X9810714Y-1217914D02*
X9715476Y-1265533D01*
X79724405Y-40032200D02*
X79867262Y-40079819D01*
X79867262Y-40079819D02*
X80105357Y-40079819D01*
X80105357Y-40079819D02*
X80200595Y-40032200D01*
X80200595Y-40032200D02*
X80248214Y-39984580D01*
X80248214Y-39984580D02*
X80295833Y-39889342D01*
X80295833Y-39889342D02*
X80295833Y-39794104D01*
X80295833Y-39794104D02*
X80248214Y-39698866D01*
X80248214Y-39698866D02*
X80200595Y-39651247D01*
X80200595Y-39651247D02*
X80105357Y-39603628D01*
X80105357Y-39603628D02*
X79914881Y-39556009D01*
X79914881Y-39556009D02*
X79819643Y-39508390D01*
X79819643Y-39508390D02*
X79772024Y-39460771D01*
X79772024Y-39460771D02*
X79724405Y-39365533D01*
X79724405Y-39365533D02*
X79724405Y-39270295D01*
X79724405Y-39270295D02*
X79772024Y-39175057D01*
X79772024Y-39175057D02*
X79819643Y-39127438D01*
X79819643Y-39127438D02*
X79914881Y-39079819D01*
X79914881Y-39079819D02*
X80152976Y-39079819D01*
X80152976Y-39079819D02*
X80295833Y-39127438D01*
X80629167Y-39079819D02*
X81248214Y-39079819D01*
X81248214Y-39079819D02*
X80914881Y-39460771D01*
X80914881Y-39460771D02*
X81057738Y-39460771D01*
X81057738Y-39460771D02*
X81152976Y-39508390D01*
X81152976Y-39508390D02*
X81200595Y-39556009D01*
X81200595Y-39556009D02*
X81248214Y-39651247D01*
X81248214Y-39651247D02*
X81248214Y-39889342D01*
X81248214Y-39889342D02*
X81200595Y-39984580D01*
X81200595Y-39984580D02*
X81152976Y-40032200D01*
X81152976Y-40032200D02*
X81057738Y-40079819D01*
X81057738Y-40079819D02*
X80772024Y-40079819D01*
X80772024Y-40079819D02*
X80676786Y-40032200D01*
X80676786Y-40032200D02*
X80629167Y-39984580D01*
X81629167Y-39175057D02*
X81676786Y-39127438D01*
X81676786Y-39127438D02*
X81772024Y-39079819D01*
X81772024Y-39079819D02*
X82010119Y-39079819D01*
X82010119Y-39079819D02*
X82105357Y-39127438D01*
X82105357Y-39127438D02*
X82152976Y-39175057D01*
X82152976Y-39175057D02*
X82200595Y-39270295D01*
X82200595Y-39270295D02*
X82200595Y-39365533D01*
X82200595Y-39365533D02*
X82152976Y-39508390D01*
X82152976Y-39508390D02*
X81581548Y-40079819D01*
X81581548Y-40079819D02*
X82200595Y-40079819D01*
X55911905Y-20982200D02*
X56054762Y-21029819D01*
X56054762Y-21029819D02*
X56292857Y-21029819D01*
X56292857Y-21029819D02*
X56388095Y-20982200D01*
X56388095Y-20982200D02*
X56435714Y-20934580D01*
X56435714Y-20934580D02*
X56483333Y-20839342D01*
X56483333Y-20839342D02*
X56483333Y-20744104D01*
X56483333Y-20744104D02*
X56435714Y-20648866D01*
X56435714Y-20648866D02*
X56388095Y-20601247D01*
X56388095Y-20601247D02*
X56292857Y-20553628D01*
X56292857Y-20553628D02*
X56102381Y-20506009D01*
X56102381Y-20506009D02*
X56007143Y-20458390D01*
X56007143Y-20458390D02*
X55959524Y-20410771D01*
X55959524Y-20410771D02*
X55911905Y-20315533D01*
X55911905Y-20315533D02*
X55911905Y-20220295D01*
X55911905Y-20220295D02*
X55959524Y-20125057D01*
X55959524Y-20125057D02*
X56007143Y-20077438D01*
X56007143Y-20077438D02*
X56102381Y-20029819D01*
X56102381Y-20029819D02*
X56340476Y-20029819D01*
X56340476Y-20029819D02*
X56483333Y-20077438D01*
X57435714Y-21029819D02*
X56864286Y-21029819D01*
X57150000Y-21029819D02*
X57150000Y-20029819D01*
X57150000Y-20029819D02*
X57054762Y-20172676D01*
X57054762Y-20172676D02*
X56959524Y-20267914D01*
X56959524Y-20267914D02*
X56864286Y-20315533D01*
X57769048Y-20029819D02*
X58435714Y-20029819D01*
X58435714Y-20029819D02*
X58007143Y-21029819D01*
D11*
%TO.C,S36*%
X150062500Y-40525000D02*
X150062500Y-54725000D01*
X150062500Y-54725000D02*
X164262500Y-54725000D01*
X164262500Y-40525000D02*
X150062500Y-40525000D01*
X164262500Y-54725000D02*
X164262500Y-40525000D01*
%TO.C,S19*%
X88150000Y-21475000D02*
X88150000Y-35675000D01*
X88150000Y-35675000D02*
X102350000Y-35675000D01*
X102350000Y-21475000D02*
X88150000Y-21475000D01*
X102350000Y-35675000D02*
X102350000Y-21475000D01*
%TO.C,S35*%
X131012500Y-40525000D02*
X131012500Y-54725000D01*
X131012500Y-54725000D02*
X145212500Y-54725000D01*
X145212500Y-40525000D02*
X131012500Y-40525000D01*
X145212500Y-54725000D02*
X145212500Y-40525000D01*
%TO.C,S28*%
X266743750Y-31000000D02*
X266743750Y-45200000D01*
X266743750Y-45200000D02*
X280943750Y-45200000D01*
X280943750Y-31000000D02*
X266743750Y-31000000D01*
X280943750Y-45200000D02*
X280943750Y-31000000D01*
%TO.C,S13*%
X231025000Y-2425000D02*
X231025000Y-16625000D01*
X231025000Y-16625000D02*
X245225000Y-16625000D01*
X245225000Y-2425000D02*
X231025000Y-2425000D01*
X245225000Y-16625000D02*
X245225000Y-2425000D01*
%TO.C,S2*%
X21475000Y-2425000D02*
X21475000Y-16625000D01*
X21475000Y-16625000D02*
X35675000Y-16625000D01*
X35675000Y-2425000D02*
X21475000Y-2425000D01*
X35675000Y-16625000D02*
X35675000Y-2425000D01*
%TO.C,S49*%
X140537500Y-59575000D02*
X140537500Y-73775000D01*
X140537500Y-73775000D02*
X154737500Y-73775000D01*
X154737500Y-59575000D02*
X140537500Y-59575000D01*
X154737500Y-73775000D02*
X154737500Y-59575000D01*
%TO.C,S54*%
X252456250Y-59575000D02*
X252456250Y-73775000D01*
X252456250Y-73775000D02*
X266656250Y-73775000D01*
X266656250Y-59575000D02*
X252456250Y-59575000D01*
X266656250Y-73775000D02*
X266656250Y-59575000D01*
%TO.C,S29*%
X9568750Y-40525000D02*
X9568750Y-54725000D01*
X9568750Y-54725000D02*
X23768750Y-54725000D01*
X23768750Y-40525000D02*
X9568750Y-40525000D01*
X23768750Y-54725000D02*
X23768750Y-40525000D01*
%TO.C,S25*%
X202450000Y-21475000D02*
X202450000Y-35675000D01*
X202450000Y-35675000D02*
X216650000Y-35675000D01*
X216650000Y-21475000D02*
X202450000Y-21475000D01*
X216650000Y-35675000D02*
X216650000Y-21475000D01*
%TO.C,S55*%
X4806250Y-78625000D02*
X4806250Y-92825000D01*
X4806250Y-92825000D02*
X19006250Y-92825000D01*
X19006250Y-78625000D02*
X4806250Y-78625000D01*
X19006250Y-92825000D02*
X19006250Y-78625000D01*
%TO.C,S26*%
X221500000Y-21475000D02*
X221500000Y-35675000D01*
X221500000Y-35675000D02*
X235700000Y-35675000D01*
X235700000Y-21475000D02*
X221500000Y-21475000D01*
X235700000Y-35675000D02*
X235700000Y-21475000D01*
%TO.C,S62*%
X266743750Y-78625000D02*
X266743750Y-92825000D01*
X266743750Y-92825000D02*
X280943750Y-92825000D01*
X280943750Y-78625000D02*
X266743750Y-78625000D01*
X280943750Y-92825000D02*
X280943750Y-78625000D01*
%TO.C,S31*%
X54812500Y-40525000D02*
X54812500Y-54725000D01*
X54812500Y-54725000D02*
X69012500Y-54725000D01*
X69012500Y-40525000D02*
X54812500Y-40525000D01*
X69012500Y-54725000D02*
X69012500Y-40525000D01*
%TO.C,S44*%
X45287500Y-59575000D02*
X45287500Y-73775000D01*
X45287500Y-73775000D02*
X59487500Y-73775000D01*
X59487500Y-59575000D02*
X45287500Y-59575000D01*
X59487500Y-73775000D02*
X59487500Y-59575000D01*
%TO.C,S59*%
X195306250Y-78625000D02*
X195306250Y-92825000D01*
X195306250Y-92825000D02*
X209506250Y-92825000D01*
X209506250Y-78625000D02*
X195306250Y-78625000D01*
X209506250Y-92825000D02*
X209506250Y-78625000D01*
%TO.C,S45*%
X64337500Y-59575000D02*
X64337500Y-73775000D01*
X64337500Y-73775000D02*
X78537500Y-73775000D01*
X78537500Y-59575000D02*
X64337500Y-59575000D01*
X78537500Y-73775000D02*
X78537500Y-59575000D01*
%TO.C,S34*%
X111962500Y-40525000D02*
X111962500Y-54725000D01*
X111962500Y-54725000D02*
X126162500Y-54725000D01*
X126162500Y-40525000D02*
X111962500Y-40525000D01*
X126162500Y-54725000D02*
X126162500Y-40525000D01*
%TO.C,S37*%
X169112500Y-40525000D02*
X169112500Y-54725000D01*
X169112500Y-54725000D02*
X183312500Y-54725000D01*
X183312500Y-40525000D02*
X169112500Y-40525000D01*
X183312500Y-54725000D02*
X183312500Y-40525000D01*
%TO.C,S46*%
X83387500Y-59575000D02*
X83387500Y-73775000D01*
X83387500Y-73775000D02*
X97587500Y-73775000D01*
X97587500Y-59575000D02*
X83387500Y-59575000D01*
X97587500Y-73775000D02*
X97587500Y-59575000D01*
%TO.C,S20*%
X107200000Y-21475000D02*
X107200000Y-35675000D01*
X107200000Y-35675000D02*
X121400000Y-35675000D01*
X121400000Y-21475000D02*
X107200000Y-21475000D01*
X121400000Y-35675000D02*
X121400000Y-21475000D01*
%TO.C,S9*%
X154825000Y-2425000D02*
X154825000Y-16625000D01*
X154825000Y-16625000D02*
X169025000Y-16625000D01*
X169025000Y-2425000D02*
X154825000Y-2425000D01*
X169025000Y-16625000D02*
X169025000Y-2425000D01*
%TO.C,S33*%
X92912500Y-40525000D02*
X92912500Y-54725000D01*
X92912500Y-54725000D02*
X107112500Y-54725000D01*
X107112500Y-40525000D02*
X92912500Y-40525000D01*
X107112500Y-54725000D02*
X107112500Y-40525000D01*
%TO.C,S39*%
X207212500Y-40525000D02*
X207212500Y-54725000D01*
X207212500Y-54725000D02*
X221412500Y-54725000D01*
X221412500Y-40525000D02*
X207212500Y-40525000D01*
X221412500Y-54725000D02*
X221412500Y-40525000D01*
%TO.C,S38*%
X188162500Y-40525000D02*
X188162500Y-54725000D01*
X188162500Y-54725000D02*
X202362500Y-54725000D01*
X202362500Y-40525000D02*
X188162500Y-40525000D01*
X202362500Y-54725000D02*
X202362500Y-40525000D01*
%TO.C,S5*%
X78625000Y-2425000D02*
X78625000Y-16625000D01*
X78625000Y-16625000D02*
X92825000Y-16625000D01*
X92825000Y-2425000D02*
X78625000Y-2425000D01*
X92825000Y-16625000D02*
X92825000Y-2425000D01*
%TO.C,S8*%
X135775000Y-2425000D02*
X135775000Y-16625000D01*
X135775000Y-16625000D02*
X149975000Y-16625000D01*
X149975000Y-2425000D02*
X135775000Y-2425000D01*
X149975000Y-16625000D02*
X149975000Y-2425000D01*
%TO.C,S40*%
X226262500Y-40525000D02*
X226262500Y-54725000D01*
X226262500Y-54725000D02*
X240462500Y-54725000D01*
X240462500Y-40525000D02*
X226262500Y-40525000D01*
X240462500Y-54725000D02*
X240462500Y-40525000D01*
%TO.C,S30*%
X35762500Y-40525000D02*
X35762500Y-54725000D01*
X35762500Y-54725000D02*
X49962500Y-54725000D01*
X49962500Y-40525000D02*
X35762500Y-40525000D01*
X49962500Y-54725000D02*
X49962500Y-40525000D01*
%TO.C,S21*%
X126250000Y-21475000D02*
X126250000Y-35675000D01*
X126250000Y-35675000D02*
X140450000Y-35675000D01*
X140450000Y-21475000D02*
X126250000Y-21475000D01*
X140450000Y-35675000D02*
X140450000Y-21475000D01*
%TO.C,S12*%
X211975000Y-2425000D02*
X211975000Y-16625000D01*
X211975000Y-16625000D02*
X226175000Y-16625000D01*
X226175000Y-2425000D02*
X211975000Y-2425000D01*
X226175000Y-16625000D02*
X226175000Y-2425000D01*
%TO.C,S15*%
X7187500Y-21475000D02*
X7187500Y-35675000D01*
X7187500Y-35675000D02*
X21387500Y-35675000D01*
X21387500Y-21475000D02*
X7187500Y-21475000D01*
X21387500Y-35675000D02*
X21387500Y-21475000D01*
%TO.C,S11*%
X192925000Y-2425000D02*
X192925000Y-16625000D01*
X192925000Y-16625000D02*
X207125000Y-16625000D01*
X207125000Y-2425000D02*
X192925000Y-2425000D01*
X207125000Y-16625000D02*
X207125000Y-2425000D01*
%TO.C,S18*%
X69100000Y-21475000D02*
X69100000Y-35675000D01*
X69100000Y-35675000D02*
X83300000Y-35675000D01*
X83300000Y-21475000D02*
X69100000Y-21475000D01*
X83300000Y-35675000D02*
X83300000Y-21475000D01*
%TO.C,S60*%
X219118750Y-78625000D02*
X219118750Y-92825000D01*
X219118750Y-92825000D02*
X233318750Y-92825000D01*
X233318750Y-78625000D02*
X219118750Y-78625000D01*
X233318750Y-92825000D02*
X233318750Y-78625000D01*
%TO.C,S56*%
X28618750Y-78625000D02*
X28618750Y-92825000D01*
X28618750Y-92825000D02*
X42818750Y-92825000D01*
X42818750Y-78625000D02*
X28618750Y-78625000D01*
X42818750Y-92825000D02*
X42818750Y-78625000D01*
%TO.C,S50*%
X159587500Y-59575000D02*
X159587500Y-73775000D01*
X159587500Y-73775000D02*
X173787500Y-73775000D01*
X173787500Y-59575000D02*
X159587500Y-59575000D01*
X173787500Y-73775000D02*
X173787500Y-59575000D01*
%TO.C,S43*%
X26237500Y-59575000D02*
X26237500Y-73775000D01*
X26237500Y-73775000D02*
X40437500Y-73775000D01*
X40437500Y-59575000D02*
X26237500Y-59575000D01*
X40437500Y-73775000D02*
X40437500Y-59575000D01*
%TO.C,S51*%
X178637500Y-59575000D02*
X178637500Y-73775000D01*
X178637500Y-73775000D02*
X192837500Y-73775000D01*
X192837500Y-59575000D02*
X178637500Y-59575000D01*
X192837500Y-73775000D02*
X192837500Y-59575000D01*
%TO.C,S52*%
X197687500Y-59575000D02*
X197687500Y-73775000D01*
X197687500Y-73775000D02*
X211887500Y-73775000D01*
X211887500Y-59575000D02*
X197687500Y-59575000D01*
X211887500Y-73775000D02*
X211887500Y-59575000D01*
%TO.C,S48*%
X121487500Y-59575000D02*
X121487500Y-73775000D01*
X121487500Y-73775000D02*
X135687500Y-73775000D01*
X135687500Y-59575000D02*
X121487500Y-59575000D01*
X135687500Y-73775000D02*
X135687500Y-59575000D01*
%TO.C,S42*%
X4806250Y-59575000D02*
X4806250Y-73775000D01*
X4806250Y-73775000D02*
X19006250Y-73775000D01*
X19006250Y-59575000D02*
X4806250Y-59575000D01*
X19006250Y-73775000D02*
X19006250Y-59575000D01*
%TO.C,S22*%
X145300000Y-21475000D02*
X145300000Y-35675000D01*
X145300000Y-35675000D02*
X159500000Y-35675000D01*
X159500000Y-21475000D02*
X145300000Y-21475000D01*
X159500000Y-35675000D02*
X159500000Y-21475000D01*
%TO.C,S61*%
X242931250Y-78625000D02*
X242931250Y-92825000D01*
X242931250Y-92825000D02*
X257131250Y-92825000D01*
X257131250Y-78625000D02*
X242931250Y-78625000D01*
X257131250Y-92825000D02*
X257131250Y-78625000D01*
%TO.C,S14*%
X259600000Y-2425000D02*
X259600000Y-16625000D01*
X259600000Y-16625000D02*
X273800000Y-16625000D01*
X273800000Y-2425000D02*
X259600000Y-2425000D01*
X273800000Y-16625000D02*
X273800000Y-2425000D01*
%TO.C,S4*%
X59575000Y-2425000D02*
X59575000Y-16625000D01*
X59575000Y-16625000D02*
X73775000Y-16625000D01*
X73775000Y-2425000D02*
X59575000Y-2425000D01*
X73775000Y-16625000D02*
X73775000Y-2425000D01*
%TO.C,S10*%
X173875000Y-2425000D02*
X173875000Y-16625000D01*
X173875000Y-16625000D02*
X188075000Y-16625000D01*
X188075000Y-2425000D02*
X173875000Y-2425000D01*
X188075000Y-16625000D02*
X188075000Y-2425000D01*
%TO.C,S41*%
X245312500Y-40525000D02*
X245312500Y-54725000D01*
X245312500Y-54725000D02*
X259512500Y-54725000D01*
X259512500Y-40525000D02*
X245312500Y-40525000D01*
X259512500Y-54725000D02*
X259512500Y-40525000D01*
%TO.C,S47*%
X102437500Y-59575000D02*
X102437500Y-73775000D01*
X102437500Y-73775000D02*
X116637500Y-73775000D01*
X116637500Y-59575000D02*
X102437500Y-59575000D01*
X116637500Y-73775000D02*
X116637500Y-59575000D01*
%TO.C,S3*%
X40525000Y-2425000D02*
X40525000Y-16625000D01*
X40525000Y-16625000D02*
X54725000Y-16625000D01*
X54725000Y-2425000D02*
X40525000Y-2425000D01*
X54725000Y-16625000D02*
X54725000Y-2425000D01*
%TO.C,S16*%
X31000000Y-21475000D02*
X31000000Y-35675000D01*
X31000000Y-35675000D02*
X45200000Y-35675000D01*
X45200000Y-21475000D02*
X31000000Y-21475000D01*
X45200000Y-35675000D02*
X45200000Y-21475000D01*
%TO.C,S7*%
X116725000Y-2425000D02*
X116725000Y-16625000D01*
X116725000Y-16625000D02*
X130925000Y-16625000D01*
X130925000Y-2425000D02*
X116725000Y-2425000D01*
X130925000Y-16625000D02*
X130925000Y-2425000D01*
%TO.C,S23*%
X164350000Y-21475000D02*
X164350000Y-35675000D01*
X164350000Y-35675000D02*
X178550000Y-35675000D01*
X178550000Y-21475000D02*
X164350000Y-21475000D01*
X178550000Y-35675000D02*
X178550000Y-21475000D01*
%TO.C,S53*%
X216737500Y-59575000D02*
X216737500Y-73775000D01*
X216737500Y-73775000D02*
X230937500Y-73775000D01*
X230937500Y-59575000D02*
X216737500Y-59575000D01*
X230937500Y-73775000D02*
X230937500Y-59575000D01*
%TO.C,S27*%
X240550000Y-21475000D02*
X240550000Y-35675000D01*
X240550000Y-35675000D02*
X254750000Y-35675000D01*
X254750000Y-21475000D02*
X240550000Y-21475000D01*
X254750000Y-35675000D02*
X254750000Y-21475000D01*
%TO.C,S6*%
X97675000Y-2425000D02*
X97675000Y-16625000D01*
X97675000Y-16625000D02*
X111875000Y-16625000D01*
X111875000Y-2425000D02*
X97675000Y-2425000D01*
X111875000Y-16625000D02*
X111875000Y-2425000D01*
%TO.C,S24*%
X183400000Y-21475000D02*
X183400000Y-35675000D01*
X183400000Y-35675000D02*
X197600000Y-35675000D01*
X197600000Y-21475000D02*
X183400000Y-21475000D01*
X197600000Y-35675000D02*
X197600000Y-21475000D01*
%TO.C,S58*%
X123868750Y-78625000D02*
X123868750Y-92825000D01*
X123868750Y-92825000D02*
X138068750Y-92825000D01*
X138068750Y-78625000D02*
X123868750Y-78625000D01*
X138068750Y-92825000D02*
X138068750Y-78625000D01*
%TO.C,S57*%
X52431250Y-78625000D02*
X52431250Y-92825000D01*
X52431250Y-92825000D02*
X66631250Y-92825000D01*
X66631250Y-78625000D02*
X52431250Y-78625000D01*
X66631250Y-92825000D02*
X66631250Y-78625000D01*
%TO.C,S1*%
X2425000Y-2425000D02*
X2425000Y-16625000D01*
X2425000Y-16625000D02*
X16625000Y-16625000D01*
X16625000Y-2425000D02*
X2425000Y-2425000D01*
X16625000Y-16625000D02*
X16625000Y-2425000D01*
%TO.C,S32*%
X73862500Y-40525000D02*
X73862500Y-54725000D01*
X73862500Y-54725000D02*
X88062500Y-54725000D01*
X88062500Y-40525000D02*
X73862500Y-40525000D01*
X88062500Y-54725000D02*
X88062500Y-40525000D01*
%TO.C,S17*%
X50050000Y-21475000D02*
X50050000Y-35675000D01*
X50050000Y-35675000D02*
X64250000Y-35675000D01*
X64250000Y-21475000D02*
X50050000Y-21475000D01*
X64250000Y-35675000D02*
X64250000Y-21475000D01*
%TD*%
%LPC*%
D12*
%TO.C,S36*%
X152082500Y-47625000D03*
D13*
X153352500Y-45085000D03*
D14*
X157162500Y-47625000D03*
D13*
X159702500Y-42545000D03*
D12*
X162242500Y-47625000D03*
%TD*%
%TO.C,S19*%
X90170000Y-28575000D03*
D13*
X91440000Y-26035000D03*
D14*
X95250000Y-28575000D03*
D13*
X97790000Y-23495000D03*
D12*
X100330000Y-28575000D03*
%TD*%
%TO.C,S35*%
X133032500Y-47625000D03*
D13*
X134302500Y-45085000D03*
D14*
X138112500Y-47625000D03*
D13*
X140652500Y-42545000D03*
D12*
X143192500Y-47625000D03*
%TD*%
%TO.C,S28*%
X268763750Y-38100000D03*
D13*
X270033750Y-35560000D03*
D14*
X273843750Y-38100000D03*
D13*
X276383750Y-33020000D03*
D12*
X278923750Y-38100000D03*
%TD*%
%TO.C,S13*%
X233045000Y-9525000D03*
D13*
X234315000Y-6985000D03*
D14*
X238125000Y-9525000D03*
D13*
X240665000Y-4445000D03*
D12*
X243205000Y-9525000D03*
%TD*%
%TO.C,S2*%
X23495000Y-9525000D03*
D13*
X24765000Y-6985000D03*
D14*
X28575000Y-9525000D03*
D13*
X31115000Y-4445000D03*
D12*
X33655000Y-9525000D03*
%TD*%
%TO.C,S49*%
X142557500Y-66675000D03*
D13*
X143827500Y-64135000D03*
D14*
X147637500Y-66675000D03*
D13*
X150177500Y-61595000D03*
D12*
X152717500Y-66675000D03*
%TD*%
%TO.C,S54*%
X254476250Y-66675000D03*
D13*
X255746250Y-64135000D03*
D14*
X259556250Y-66675000D03*
D13*
X262096250Y-61595000D03*
D12*
X264636250Y-66675000D03*
%TD*%
%TO.C,S29*%
X11588750Y-47625000D03*
D13*
X12858750Y-45085000D03*
D14*
X16668750Y-47625000D03*
D13*
X19208750Y-42545000D03*
D12*
X21748750Y-47625000D03*
%TD*%
%TO.C,S25*%
X204470000Y-28575000D03*
D13*
X205740000Y-26035000D03*
D14*
X209550000Y-28575000D03*
D13*
X212090000Y-23495000D03*
D12*
X214630000Y-28575000D03*
%TD*%
%TO.C,S55*%
X6826250Y-85725000D03*
D13*
X8096250Y-83185000D03*
D14*
X11906250Y-85725000D03*
D13*
X14446250Y-80645000D03*
D12*
X16986250Y-85725000D03*
%TD*%
%TO.C,S26*%
X223520000Y-28575000D03*
D13*
X224790000Y-26035000D03*
D14*
X228600000Y-28575000D03*
D13*
X231140000Y-23495000D03*
D12*
X233680000Y-28575000D03*
%TD*%
%TO.C,S62*%
X268763750Y-85725000D03*
D13*
X270033750Y-83185000D03*
D14*
X273843750Y-85725000D03*
D13*
X276383750Y-80645000D03*
D12*
X278923750Y-85725000D03*
%TD*%
%TO.C,S31*%
X56832500Y-47625000D03*
D13*
X58102500Y-45085000D03*
D14*
X61912500Y-47625000D03*
D13*
X64452500Y-42545000D03*
D12*
X66992500Y-47625000D03*
%TD*%
%TO.C,S44*%
X47307500Y-66675000D03*
D13*
X48577500Y-64135000D03*
D14*
X52387500Y-66675000D03*
D13*
X54927500Y-61595000D03*
D12*
X57467500Y-66675000D03*
%TD*%
%TO.C,S59*%
X197326250Y-85725000D03*
D13*
X198596250Y-83185000D03*
D14*
X202406250Y-85725000D03*
D13*
X204946250Y-80645000D03*
D12*
X207486250Y-85725000D03*
%TD*%
%TO.C,S45*%
X66357500Y-66675000D03*
D13*
X67627500Y-64135000D03*
D14*
X71437500Y-66675000D03*
D13*
X73977500Y-61595000D03*
D12*
X76517500Y-66675000D03*
%TD*%
%TO.C,S34*%
X113982500Y-47625000D03*
D13*
X115252500Y-45085000D03*
D14*
X119062500Y-47625000D03*
D13*
X121602500Y-42545000D03*
D12*
X124142500Y-47625000D03*
%TD*%
%TO.C,S37*%
X171132500Y-47625000D03*
D13*
X172402500Y-45085000D03*
D14*
X176212500Y-47625000D03*
D13*
X178752500Y-42545000D03*
D12*
X181292500Y-47625000D03*
%TD*%
%TO.C,S46*%
X85407500Y-66675000D03*
D13*
X86677500Y-64135000D03*
D14*
X90487500Y-66675000D03*
D13*
X93027500Y-61595000D03*
D12*
X95567500Y-66675000D03*
%TD*%
%TO.C,S20*%
X109220000Y-28575000D03*
D13*
X110490000Y-26035000D03*
D14*
X114300000Y-28575000D03*
D13*
X116840000Y-23495000D03*
D12*
X119380000Y-28575000D03*
%TD*%
%TO.C,S9*%
X156845000Y-9525000D03*
D13*
X158115000Y-6985000D03*
D14*
X161925000Y-9525000D03*
D13*
X164465000Y-4445000D03*
D12*
X167005000Y-9525000D03*
%TD*%
%TO.C,S33*%
X94932500Y-47625000D03*
D13*
X96202500Y-45085000D03*
D14*
X100012500Y-47625000D03*
D13*
X102552500Y-42545000D03*
D12*
X105092500Y-47625000D03*
%TD*%
%TO.C,S39*%
X209232500Y-47625000D03*
D13*
X210502500Y-45085000D03*
D14*
X214312500Y-47625000D03*
D13*
X216852500Y-42545000D03*
D12*
X219392500Y-47625000D03*
%TD*%
%TO.C,S38*%
X190182500Y-47625000D03*
D13*
X191452500Y-45085000D03*
D14*
X195262500Y-47625000D03*
D13*
X197802500Y-42545000D03*
D12*
X200342500Y-47625000D03*
%TD*%
%TO.C,S5*%
X80645000Y-9525000D03*
D13*
X81915000Y-6985000D03*
D14*
X85725000Y-9525000D03*
D13*
X88265000Y-4445000D03*
D12*
X90805000Y-9525000D03*
%TD*%
%TO.C,S8*%
X137795000Y-9525000D03*
D13*
X139065000Y-6985000D03*
D14*
X142875000Y-9525000D03*
D13*
X145415000Y-4445000D03*
D12*
X147955000Y-9525000D03*
%TD*%
%TO.C,S40*%
X228282500Y-47625000D03*
D13*
X229552500Y-45085000D03*
D14*
X233362500Y-47625000D03*
D13*
X235902500Y-42545000D03*
D12*
X238442500Y-47625000D03*
%TD*%
%TO.C,S30*%
X37782500Y-47625000D03*
D13*
X39052500Y-45085000D03*
D14*
X42862500Y-47625000D03*
D13*
X45402500Y-42545000D03*
D12*
X47942500Y-47625000D03*
%TD*%
%TO.C,S21*%
X128270000Y-28575000D03*
D13*
X129540000Y-26035000D03*
D14*
X133350000Y-28575000D03*
D13*
X135890000Y-23495000D03*
D12*
X138430000Y-28575000D03*
%TD*%
%TO.C,S12*%
X213995000Y-9525000D03*
D13*
X215265000Y-6985000D03*
D14*
X219075000Y-9525000D03*
D13*
X221615000Y-4445000D03*
D12*
X224155000Y-9525000D03*
%TD*%
%TO.C,S15*%
X9207500Y-28575000D03*
D13*
X10477500Y-26035000D03*
D14*
X14287500Y-28575000D03*
D13*
X16827500Y-23495000D03*
D12*
X19367500Y-28575000D03*
%TD*%
%TO.C,S11*%
X194945000Y-9525000D03*
D13*
X196215000Y-6985000D03*
D14*
X200025000Y-9525000D03*
D13*
X202565000Y-4445000D03*
D12*
X205105000Y-9525000D03*
%TD*%
%TO.C,S18*%
X71120000Y-28575000D03*
D13*
X72390000Y-26035000D03*
D14*
X76200000Y-28575000D03*
D13*
X78740000Y-23495000D03*
D12*
X81280000Y-28575000D03*
%TD*%
%TO.C,S60*%
X221138750Y-85725000D03*
D13*
X222408750Y-83185000D03*
D14*
X226218750Y-85725000D03*
D13*
X228758750Y-80645000D03*
D12*
X231298750Y-85725000D03*
%TD*%
%TO.C,S56*%
X30638750Y-85725000D03*
D13*
X31908750Y-83185000D03*
D14*
X35718750Y-85725000D03*
D13*
X38258750Y-80645000D03*
D12*
X40798750Y-85725000D03*
%TD*%
%TO.C,S50*%
X161607500Y-66675000D03*
D13*
X162877500Y-64135000D03*
D14*
X166687500Y-66675000D03*
D13*
X169227500Y-61595000D03*
D12*
X171767500Y-66675000D03*
%TD*%
%TO.C,S43*%
X28257500Y-66675000D03*
D13*
X29527500Y-64135000D03*
D14*
X33337500Y-66675000D03*
D13*
X35877500Y-61595000D03*
D12*
X38417500Y-66675000D03*
%TD*%
%TO.C,S51*%
X180657500Y-66675000D03*
D13*
X181927500Y-64135000D03*
D14*
X185737500Y-66675000D03*
D13*
X188277500Y-61595000D03*
D12*
X190817500Y-66675000D03*
%TD*%
%TO.C,S52*%
X199707500Y-66675000D03*
D13*
X200977500Y-64135000D03*
D14*
X204787500Y-66675000D03*
D13*
X207327500Y-61595000D03*
D12*
X209867500Y-66675000D03*
%TD*%
%TO.C,S48*%
X123507500Y-66675000D03*
D13*
X124777500Y-64135000D03*
D14*
X128587500Y-66675000D03*
D13*
X131127500Y-61595000D03*
D12*
X133667500Y-66675000D03*
%TD*%
%TO.C,S42*%
X6826250Y-66675000D03*
D13*
X8096250Y-64135000D03*
D14*
X11906250Y-66675000D03*
D13*
X14446250Y-61595000D03*
D12*
X16986250Y-66675000D03*
%TD*%
%TO.C,S22*%
X147320000Y-28575000D03*
D13*
X148590000Y-26035000D03*
D14*
X152400000Y-28575000D03*
D13*
X154940000Y-23495000D03*
D12*
X157480000Y-28575000D03*
%TD*%
%TO.C,S61*%
X244951250Y-85725000D03*
D13*
X246221250Y-83185000D03*
D14*
X250031250Y-85725000D03*
D13*
X252571250Y-80645000D03*
D12*
X255111250Y-85725000D03*
%TD*%
%TO.C,S14*%
X261620000Y-9525000D03*
D13*
X262890000Y-6985000D03*
D14*
X266700000Y-9525000D03*
D13*
X269240000Y-4445000D03*
D12*
X271780000Y-9525000D03*
%TD*%
%TO.C,S4*%
X61595000Y-9525000D03*
D13*
X62865000Y-6985000D03*
D14*
X66675000Y-9525000D03*
D13*
X69215000Y-4445000D03*
D12*
X71755000Y-9525000D03*
%TD*%
%TO.C,S10*%
X175895000Y-9525000D03*
D13*
X177165000Y-6985000D03*
D14*
X180975000Y-9525000D03*
D13*
X183515000Y-4445000D03*
D12*
X186055000Y-9525000D03*
%TD*%
%TO.C,S41*%
X247332500Y-47625000D03*
D13*
X248602500Y-45085000D03*
D14*
X252412500Y-47625000D03*
D13*
X254952500Y-42545000D03*
D12*
X257492500Y-47625000D03*
%TD*%
%TO.C,S47*%
X104457500Y-66675000D03*
D13*
X105727500Y-64135000D03*
D14*
X109537500Y-66675000D03*
D13*
X112077500Y-61595000D03*
D12*
X114617500Y-66675000D03*
%TD*%
%TO.C,S3*%
X42545000Y-9525000D03*
D13*
X43815000Y-6985000D03*
D14*
X47625000Y-9525000D03*
D13*
X50165000Y-4445000D03*
D12*
X52705000Y-9525000D03*
%TD*%
%TO.C,S16*%
X33020000Y-28575000D03*
D13*
X34290000Y-26035000D03*
D14*
X38100000Y-28575000D03*
D13*
X40640000Y-23495000D03*
D12*
X43180000Y-28575000D03*
%TD*%
%TO.C,S7*%
X118745000Y-9525000D03*
D13*
X120015000Y-6985000D03*
D14*
X123825000Y-9525000D03*
D13*
X126365000Y-4445000D03*
D12*
X128905000Y-9525000D03*
%TD*%
%TO.C,S23*%
X166370000Y-28575000D03*
D13*
X167640000Y-26035000D03*
D14*
X171450000Y-28575000D03*
D13*
X173990000Y-23495000D03*
D12*
X176530000Y-28575000D03*
%TD*%
%TO.C,S53*%
X218757500Y-66675000D03*
D13*
X220027500Y-64135000D03*
D14*
X223837500Y-66675000D03*
D13*
X226377500Y-61595000D03*
D12*
X228917500Y-66675000D03*
%TD*%
%TO.C,S27*%
X242570000Y-28575000D03*
D13*
X243840000Y-26035000D03*
D14*
X247650000Y-28575000D03*
D13*
X250190000Y-23495000D03*
D12*
X252730000Y-28575000D03*
%TD*%
%TO.C,S6*%
X99695000Y-9525000D03*
D13*
X100965000Y-6985000D03*
D14*
X104775000Y-9525000D03*
D13*
X107315000Y-4445000D03*
D12*
X109855000Y-9525000D03*
%TD*%
%TO.C,S24*%
X185420000Y-28575000D03*
D13*
X186690000Y-26035000D03*
D14*
X190500000Y-28575000D03*
D13*
X193040000Y-23495000D03*
D12*
X195580000Y-28575000D03*
%TD*%
%TO.C,S58*%
X125888750Y-85725000D03*
D13*
X127158750Y-83185000D03*
D14*
X130968750Y-85725000D03*
D13*
X133508750Y-80645000D03*
D12*
X136048750Y-85725000D03*
%TD*%
%TO.C,S57*%
X54451250Y-85725000D03*
D13*
X55721250Y-83185000D03*
D14*
X59531250Y-85725000D03*
D13*
X62071250Y-80645000D03*
D12*
X64611250Y-85725000D03*
%TD*%
%TO.C,S1*%
X4445000Y-9525000D03*
D13*
X5715000Y-6985000D03*
D14*
X9525000Y-9525000D03*
D13*
X12065000Y-4445000D03*
D12*
X14605000Y-9525000D03*
%TD*%
%TO.C,S32*%
X75882500Y-47625000D03*
D13*
X77152500Y-45085000D03*
D14*
X80962500Y-47625000D03*
D13*
X83502500Y-42545000D03*
D12*
X86042500Y-47625000D03*
%TD*%
%TO.C,S17*%
X52070000Y-28575000D03*
D13*
X53340000Y-26035000D03*
D14*
X57150000Y-28575000D03*
D13*
X59690000Y-23495000D03*
D12*
X62230000Y-28575000D03*
%TD*%
D15*
%TO.C,J2*%
X105800000Y-78500000D03*
D16*
X105800000Y-77500000D03*
%TD*%
%LPD*%
M02*
