%TF.GenerationSoftware,KiCad,Pcbnew,8.0.3*%
%TF.CreationDate,2024-08-17T23:38:57+08:00*%
%TF.ProjectId,PH60_Rev3,50483630-5f52-4657-9633-2e6b69636164,rev?*%
%TF.SameCoordinates,Original*%
%TF.FileFunction,Soldermask,Top*%
%TF.FilePolarity,Negative*%
%FSLAX46Y46*%
G04 Gerber Fmt 4.6, Leading zero omitted, Abs format (unit mm)*
G04 Created by KiCad (PCBNEW 8.0.3) date 2024-08-17 23:38:57*
%MOMM*%
%LPD*%
G01*
G04 APERTURE LIST*
%ADD10C,1.750000*%
%ADD11C,3.050000*%
%ADD12C,4.000000*%
%ADD13R,0.850000X0.850000*%
%ADD14O,0.850000X0.850000*%
G04 APERTURE END LIST*
D10*
%TO.C,S36*%
X152082500Y-47625000D03*
D11*
X153352500Y-45085000D03*
D12*
X157162500Y-47625000D03*
D11*
X159702500Y-42545000D03*
D10*
X162242500Y-47625000D03*
%TD*%
%TO.C,S19*%
X90170000Y-28575000D03*
D11*
X91440000Y-26035000D03*
D12*
X95250000Y-28575000D03*
D11*
X97790000Y-23495000D03*
D10*
X100330000Y-28575000D03*
%TD*%
%TO.C,S35*%
X133032500Y-47625000D03*
D11*
X134302500Y-45085000D03*
D12*
X138112500Y-47625000D03*
D11*
X140652500Y-42545000D03*
D10*
X143192500Y-47625000D03*
%TD*%
%TO.C,S28*%
X268763750Y-38100000D03*
D11*
X270033750Y-35560000D03*
D12*
X273843750Y-38100000D03*
D11*
X276383750Y-33020000D03*
D10*
X278923750Y-38100000D03*
%TD*%
%TO.C,S13*%
X233045000Y-9525000D03*
D11*
X234315000Y-6985000D03*
D12*
X238125000Y-9525000D03*
D11*
X240665000Y-4445000D03*
D10*
X243205000Y-9525000D03*
%TD*%
%TO.C,S2*%
X23495000Y-9525000D03*
D11*
X24765000Y-6985000D03*
D12*
X28575000Y-9525000D03*
D11*
X31115000Y-4445000D03*
D10*
X33655000Y-9525000D03*
%TD*%
%TO.C,S49*%
X142557500Y-66675000D03*
D11*
X143827500Y-64135000D03*
D12*
X147637500Y-66675000D03*
D11*
X150177500Y-61595000D03*
D10*
X152717500Y-66675000D03*
%TD*%
%TO.C,S54*%
X254476250Y-66675000D03*
D11*
X255746250Y-64135000D03*
D12*
X259556250Y-66675000D03*
D11*
X262096250Y-61595000D03*
D10*
X264636250Y-66675000D03*
%TD*%
%TO.C,S29*%
X11588750Y-47625000D03*
D11*
X12858750Y-45085000D03*
D12*
X16668750Y-47625000D03*
D11*
X19208750Y-42545000D03*
D10*
X21748750Y-47625000D03*
%TD*%
%TO.C,S25*%
X204470000Y-28575000D03*
D11*
X205740000Y-26035000D03*
D12*
X209550000Y-28575000D03*
D11*
X212090000Y-23495000D03*
D10*
X214630000Y-28575000D03*
%TD*%
%TO.C,S55*%
X6826250Y-85725000D03*
D11*
X8096250Y-83185000D03*
D12*
X11906250Y-85725000D03*
D11*
X14446250Y-80645000D03*
D10*
X16986250Y-85725000D03*
%TD*%
%TO.C,S26*%
X223520000Y-28575000D03*
D11*
X224790000Y-26035000D03*
D12*
X228600000Y-28575000D03*
D11*
X231140000Y-23495000D03*
D10*
X233680000Y-28575000D03*
%TD*%
%TO.C,S62*%
X268763750Y-85725000D03*
D11*
X270033750Y-83185000D03*
D12*
X273843750Y-85725000D03*
D11*
X276383750Y-80645000D03*
D10*
X278923750Y-85725000D03*
%TD*%
%TO.C,S31*%
X56832500Y-47625000D03*
D11*
X58102500Y-45085000D03*
D12*
X61912500Y-47625000D03*
D11*
X64452500Y-42545000D03*
D10*
X66992500Y-47625000D03*
%TD*%
%TO.C,S44*%
X47307500Y-66675000D03*
D11*
X48577500Y-64135000D03*
D12*
X52387500Y-66675000D03*
D11*
X54927500Y-61595000D03*
D10*
X57467500Y-66675000D03*
%TD*%
%TO.C,S59*%
X197326250Y-85725000D03*
D11*
X198596250Y-83185000D03*
D12*
X202406250Y-85725000D03*
D11*
X204946250Y-80645000D03*
D10*
X207486250Y-85725000D03*
%TD*%
%TO.C,S45*%
X66357500Y-66675000D03*
D11*
X67627500Y-64135000D03*
D12*
X71437500Y-66675000D03*
D11*
X73977500Y-61595000D03*
D10*
X76517500Y-66675000D03*
%TD*%
%TO.C,S34*%
X113982500Y-47625000D03*
D11*
X115252500Y-45085000D03*
D12*
X119062500Y-47625000D03*
D11*
X121602500Y-42545000D03*
D10*
X124142500Y-47625000D03*
%TD*%
%TO.C,S37*%
X171132500Y-47625000D03*
D11*
X172402500Y-45085000D03*
D12*
X176212500Y-47625000D03*
D11*
X178752500Y-42545000D03*
D10*
X181292500Y-47625000D03*
%TD*%
%TO.C,S46*%
X85407500Y-66675000D03*
D11*
X86677500Y-64135000D03*
D12*
X90487500Y-66675000D03*
D11*
X93027500Y-61595000D03*
D10*
X95567500Y-66675000D03*
%TD*%
%TO.C,S20*%
X109220000Y-28575000D03*
D11*
X110490000Y-26035000D03*
D12*
X114300000Y-28575000D03*
D11*
X116840000Y-23495000D03*
D10*
X119380000Y-28575000D03*
%TD*%
%TO.C,S9*%
X156845000Y-9525000D03*
D11*
X158115000Y-6985000D03*
D12*
X161925000Y-9525000D03*
D11*
X164465000Y-4445000D03*
D10*
X167005000Y-9525000D03*
%TD*%
%TO.C,S33*%
X94932500Y-47625000D03*
D11*
X96202500Y-45085000D03*
D12*
X100012500Y-47625000D03*
D11*
X102552500Y-42545000D03*
D10*
X105092500Y-47625000D03*
%TD*%
%TO.C,S39*%
X209232500Y-47625000D03*
D11*
X210502500Y-45085000D03*
D12*
X214312500Y-47625000D03*
D11*
X216852500Y-42545000D03*
D10*
X219392500Y-47625000D03*
%TD*%
%TO.C,S38*%
X190182500Y-47625000D03*
D11*
X191452500Y-45085000D03*
D12*
X195262500Y-47625000D03*
D11*
X197802500Y-42545000D03*
D10*
X200342500Y-47625000D03*
%TD*%
%TO.C,S5*%
X80645000Y-9525000D03*
D11*
X81915000Y-6985000D03*
D12*
X85725000Y-9525000D03*
D11*
X88265000Y-4445000D03*
D10*
X90805000Y-9525000D03*
%TD*%
%TO.C,S8*%
X137795000Y-9525000D03*
D11*
X139065000Y-6985000D03*
D12*
X142875000Y-9525000D03*
D11*
X145415000Y-4445000D03*
D10*
X147955000Y-9525000D03*
%TD*%
%TO.C,S40*%
X228282500Y-47625000D03*
D11*
X229552500Y-45085000D03*
D12*
X233362500Y-47625000D03*
D11*
X235902500Y-42545000D03*
D10*
X238442500Y-47625000D03*
%TD*%
%TO.C,S30*%
X37782500Y-47625000D03*
D11*
X39052500Y-45085000D03*
D12*
X42862500Y-47625000D03*
D11*
X45402500Y-42545000D03*
D10*
X47942500Y-47625000D03*
%TD*%
%TO.C,S21*%
X128270000Y-28575000D03*
D11*
X129540000Y-26035000D03*
D12*
X133350000Y-28575000D03*
D11*
X135890000Y-23495000D03*
D10*
X138430000Y-28575000D03*
%TD*%
%TO.C,S12*%
X213995000Y-9525000D03*
D11*
X215265000Y-6985000D03*
D12*
X219075000Y-9525000D03*
D11*
X221615000Y-4445000D03*
D10*
X224155000Y-9525000D03*
%TD*%
%TO.C,S15*%
X9207500Y-28575000D03*
D11*
X10477500Y-26035000D03*
D12*
X14287500Y-28575000D03*
D11*
X16827500Y-23495000D03*
D10*
X19367500Y-28575000D03*
%TD*%
%TO.C,S11*%
X194945000Y-9525000D03*
D11*
X196215000Y-6985000D03*
D12*
X200025000Y-9525000D03*
D11*
X202565000Y-4445000D03*
D10*
X205105000Y-9525000D03*
%TD*%
%TO.C,S18*%
X71120000Y-28575000D03*
D11*
X72390000Y-26035000D03*
D12*
X76200000Y-28575000D03*
D11*
X78740000Y-23495000D03*
D10*
X81280000Y-28575000D03*
%TD*%
%TO.C,S60*%
X221138750Y-85725000D03*
D11*
X222408750Y-83185000D03*
D12*
X226218750Y-85725000D03*
D11*
X228758750Y-80645000D03*
D10*
X231298750Y-85725000D03*
%TD*%
%TO.C,S56*%
X30638750Y-85725000D03*
D11*
X31908750Y-83185000D03*
D12*
X35718750Y-85725000D03*
D11*
X38258750Y-80645000D03*
D10*
X40798750Y-85725000D03*
%TD*%
%TO.C,S50*%
X161607500Y-66675000D03*
D11*
X162877500Y-64135000D03*
D12*
X166687500Y-66675000D03*
D11*
X169227500Y-61595000D03*
D10*
X171767500Y-66675000D03*
%TD*%
%TO.C,S43*%
X28257500Y-66675000D03*
D11*
X29527500Y-64135000D03*
D12*
X33337500Y-66675000D03*
D11*
X35877500Y-61595000D03*
D10*
X38417500Y-66675000D03*
%TD*%
%TO.C,S51*%
X180657500Y-66675000D03*
D11*
X181927500Y-64135000D03*
D12*
X185737500Y-66675000D03*
D11*
X188277500Y-61595000D03*
D10*
X190817500Y-66675000D03*
%TD*%
%TO.C,S52*%
X199707500Y-66675000D03*
D11*
X200977500Y-64135000D03*
D12*
X204787500Y-66675000D03*
D11*
X207327500Y-61595000D03*
D10*
X209867500Y-66675000D03*
%TD*%
%TO.C,S48*%
X123507500Y-66675000D03*
D11*
X124777500Y-64135000D03*
D12*
X128587500Y-66675000D03*
D11*
X131127500Y-61595000D03*
D10*
X133667500Y-66675000D03*
%TD*%
%TO.C,S42*%
X6826250Y-66675000D03*
D11*
X8096250Y-64135000D03*
D12*
X11906250Y-66675000D03*
D11*
X14446250Y-61595000D03*
D10*
X16986250Y-66675000D03*
%TD*%
%TO.C,S22*%
X147320000Y-28575000D03*
D11*
X148590000Y-26035000D03*
D12*
X152400000Y-28575000D03*
D11*
X154940000Y-23495000D03*
D10*
X157480000Y-28575000D03*
%TD*%
%TO.C,S61*%
X244951250Y-85725000D03*
D11*
X246221250Y-83185000D03*
D12*
X250031250Y-85725000D03*
D11*
X252571250Y-80645000D03*
D10*
X255111250Y-85725000D03*
%TD*%
%TO.C,S14*%
X261620000Y-9525000D03*
D11*
X262890000Y-6985000D03*
D12*
X266700000Y-9525000D03*
D11*
X269240000Y-4445000D03*
D10*
X271780000Y-9525000D03*
%TD*%
%TO.C,S4*%
X61595000Y-9525000D03*
D11*
X62865000Y-6985000D03*
D12*
X66675000Y-9525000D03*
D11*
X69215000Y-4445000D03*
D10*
X71755000Y-9525000D03*
%TD*%
%TO.C,S10*%
X175895000Y-9525000D03*
D11*
X177165000Y-6985000D03*
D12*
X180975000Y-9525000D03*
D11*
X183515000Y-4445000D03*
D10*
X186055000Y-9525000D03*
%TD*%
%TO.C,S41*%
X247332500Y-47625000D03*
D11*
X248602500Y-45085000D03*
D12*
X252412500Y-47625000D03*
D11*
X254952500Y-42545000D03*
D10*
X257492500Y-47625000D03*
%TD*%
%TO.C,S47*%
X104457500Y-66675000D03*
D11*
X105727500Y-64135000D03*
D12*
X109537500Y-66675000D03*
D11*
X112077500Y-61595000D03*
D10*
X114617500Y-66675000D03*
%TD*%
%TO.C,S3*%
X42545000Y-9525000D03*
D11*
X43815000Y-6985000D03*
D12*
X47625000Y-9525000D03*
D11*
X50165000Y-4445000D03*
D10*
X52705000Y-9525000D03*
%TD*%
%TO.C,S16*%
X33020000Y-28575000D03*
D11*
X34290000Y-26035000D03*
D12*
X38100000Y-28575000D03*
D11*
X40640000Y-23495000D03*
D10*
X43180000Y-28575000D03*
%TD*%
%TO.C,S7*%
X118745000Y-9525000D03*
D11*
X120015000Y-6985000D03*
D12*
X123825000Y-9525000D03*
D11*
X126365000Y-4445000D03*
D10*
X128905000Y-9525000D03*
%TD*%
%TO.C,S23*%
X166370000Y-28575000D03*
D11*
X167640000Y-26035000D03*
D12*
X171450000Y-28575000D03*
D11*
X173990000Y-23495000D03*
D10*
X176530000Y-28575000D03*
%TD*%
%TO.C,S53*%
X218757500Y-66675000D03*
D11*
X220027500Y-64135000D03*
D12*
X223837500Y-66675000D03*
D11*
X226377500Y-61595000D03*
D10*
X228917500Y-66675000D03*
%TD*%
%TO.C,S27*%
X242570000Y-28575000D03*
D11*
X243840000Y-26035000D03*
D12*
X247650000Y-28575000D03*
D11*
X250190000Y-23495000D03*
D10*
X252730000Y-28575000D03*
%TD*%
%TO.C,S6*%
X99695000Y-9525000D03*
D11*
X100965000Y-6985000D03*
D12*
X104775000Y-9525000D03*
D11*
X107315000Y-4445000D03*
D10*
X109855000Y-9525000D03*
%TD*%
%TO.C,S24*%
X185420000Y-28575000D03*
D11*
X186690000Y-26035000D03*
D12*
X190500000Y-28575000D03*
D11*
X193040000Y-23495000D03*
D10*
X195580000Y-28575000D03*
%TD*%
%TO.C,S58*%
X125888750Y-85725000D03*
D11*
X127158750Y-83185000D03*
D12*
X130968750Y-85725000D03*
D11*
X133508750Y-80645000D03*
D10*
X136048750Y-85725000D03*
%TD*%
%TO.C,S57*%
X54451250Y-85725000D03*
D11*
X55721250Y-83185000D03*
D12*
X59531250Y-85725000D03*
D11*
X62071250Y-80645000D03*
D10*
X64611250Y-85725000D03*
%TD*%
%TO.C,S1*%
X4445000Y-9525000D03*
D11*
X5715000Y-6985000D03*
D12*
X9525000Y-9525000D03*
D11*
X12065000Y-4445000D03*
D10*
X14605000Y-9525000D03*
%TD*%
%TO.C,S32*%
X75882500Y-47625000D03*
D11*
X77152500Y-45085000D03*
D12*
X80962500Y-47625000D03*
D11*
X83502500Y-42545000D03*
D10*
X86042500Y-47625000D03*
%TD*%
%TO.C,S17*%
X52070000Y-28575000D03*
D11*
X53340000Y-26035000D03*
D12*
X57150000Y-28575000D03*
D11*
X59690000Y-23495000D03*
D10*
X62230000Y-28575000D03*
%TD*%
D13*
%TO.C,J2*%
X105800000Y-78500000D03*
D14*
X105800000Y-77500000D03*
%TD*%
M02*
