%TF.GenerationSoftware,KiCad,Pcbnew,8.0.3*%
%TF.CreationDate,2024-07-23T17:59:11+08:00*%
%TF.ProjectId,udb-s,7564622d-732e-46b6-9963-61645f706362,rev?*%
%TF.SameCoordinates,Original*%
%TF.FileFunction,Drillmap*%
%TF.FilePolarity,Positive*%
%FSLAX45Y45*%
G04 Gerber Fmt 4.5, Leading zero omitted, Abs format (unit mm)*
G04 Created by KiCad (PCBNEW 8.0.3) date 2024-07-23 17:59:11*
%MOMM*%
%LPD*%
G01*
G04 APERTURE LIST*
%ADD10C,0.100000*%
%ADD11C,0.200000*%
G04 APERTURE END LIST*
D10*
X14350000Y-4050000D02*
X14350000Y-3250000D01*
X14350000Y-3250000D02*
G75*
G02*
X14450000Y-3150000I100000J0D01*
G01*
X14450000Y-3150000D02*
X17750000Y-3150000D01*
X14450000Y-4150000D02*
G75*
G02*
X14350000Y-4050000I0J100000D01*
G01*
X17850000Y-3250000D02*
X17850000Y-4050000D01*
X17750000Y-3150000D02*
G75*
G02*
X17850000Y-3250000I0J-100000D01*
G01*
X17850000Y-4050000D02*
G75*
G02*
X17750000Y-4150000I-100000J0D01*
G01*
X17750000Y-4150000D02*
X14450000Y-4150000D01*
D11*
D10*
X14732500Y-3895000D02*
X14762500Y-3925000D01*
X14762500Y-3895000D02*
X14732500Y-3925000D01*
X15167500Y-3902500D02*
X15197500Y-3932500D01*
X15197500Y-3902500D02*
X15167500Y-3932500D01*
X16770000Y-3215000D02*
X16800000Y-3245000D01*
X16800000Y-3215000D02*
X16770000Y-3245000D01*
X14569500Y-3288000D02*
G75*
G02*
X14509500Y-3288000I-30000J0D01*
G01*
X14509500Y-3288000D02*
G75*
G02*
X14569500Y-3288000I30000J0D01*
G01*
X14569500Y-3318000D02*
X14569500Y-3258000D01*
X14509500Y-3258000D02*
G75*
G02*
X14569500Y-3258000I30000J0D01*
G01*
X14509500Y-3258000D02*
X14509500Y-3318000D01*
X14509500Y-3318000D02*
G75*
G03*
X14569500Y-3318000I30000J0D01*
G01*
X14569500Y-3706000D02*
G75*
G02*
X14509500Y-3706000I-30000J0D01*
G01*
X14509500Y-3706000D02*
G75*
G02*
X14569500Y-3706000I30000J0D01*
G01*
X14569500Y-3761000D02*
X14569500Y-3651000D01*
X14509500Y-3651000D02*
G75*
G02*
X14569500Y-3651000I30000J0D01*
G01*
X14509500Y-3651000D02*
X14509500Y-3761000D01*
X14509500Y-3761000D02*
G75*
G03*
X14569500Y-3761000I30000J0D01*
G01*
X15433500Y-3288000D02*
G75*
G02*
X15373500Y-3288000I-30000J0D01*
G01*
X15373500Y-3288000D02*
G75*
G02*
X15433500Y-3288000I30000J0D01*
G01*
X15433500Y-3318000D02*
X15433500Y-3258000D01*
X15373500Y-3258000D02*
G75*
G02*
X15433500Y-3258000I30000J0D01*
G01*
X15373500Y-3258000D02*
X15373500Y-3318000D01*
X15373500Y-3318000D02*
G75*
G03*
X15433500Y-3318000I30000J0D01*
G01*
X15433500Y-3706000D02*
G75*
G02*
X15373500Y-3706000I-30000J0D01*
G01*
X15373500Y-3706000D02*
G75*
G02*
X15433500Y-3706000I30000J0D01*
G01*
X15433500Y-3761000D02*
X15433500Y-3651000D01*
X15373500Y-3651000D02*
G75*
G02*
X15433500Y-3651000I30000J0D01*
G01*
X15373500Y-3651000D02*
X15373500Y-3761000D01*
X15373500Y-3761000D02*
G75*
G03*
X15433500Y-3761000I30000J0D01*
G01*
D11*
X14605777Y-4466484D02*
X14605777Y-4266484D01*
X14605777Y-4266484D02*
X14653396Y-4266484D01*
X14653396Y-4266484D02*
X14681967Y-4276008D01*
X14681967Y-4276008D02*
X14701015Y-4295055D01*
X14701015Y-4295055D02*
X14710539Y-4314103D01*
X14710539Y-4314103D02*
X14720062Y-4352198D01*
X14720062Y-4352198D02*
X14720062Y-4380770D01*
X14720062Y-4380770D02*
X14710539Y-4418865D01*
X14710539Y-4418865D02*
X14701015Y-4437912D01*
X14701015Y-4437912D02*
X14681967Y-4456960D01*
X14681967Y-4456960D02*
X14653396Y-4466484D01*
X14653396Y-4466484D02*
X14605777Y-4466484D01*
X14805777Y-4466484D02*
X14805777Y-4333150D01*
X14805777Y-4371246D02*
X14815301Y-4352198D01*
X14815301Y-4352198D02*
X14824824Y-4342674D01*
X14824824Y-4342674D02*
X14843872Y-4333150D01*
X14843872Y-4333150D02*
X14862920Y-4333150D01*
X14929586Y-4466484D02*
X14929586Y-4333150D01*
X14929586Y-4266484D02*
X14920062Y-4276008D01*
X14920062Y-4276008D02*
X14929586Y-4285531D01*
X14929586Y-4285531D02*
X14939110Y-4276008D01*
X14939110Y-4276008D02*
X14929586Y-4266484D01*
X14929586Y-4266484D02*
X14929586Y-4285531D01*
X15053396Y-4466484D02*
X15034348Y-4456960D01*
X15034348Y-4456960D02*
X15024824Y-4437912D01*
X15024824Y-4437912D02*
X15024824Y-4266484D01*
X15158158Y-4466484D02*
X15139110Y-4456960D01*
X15139110Y-4456960D02*
X15129586Y-4437912D01*
X15129586Y-4437912D02*
X15129586Y-4266484D01*
X15386729Y-4466484D02*
X15386729Y-4266484D01*
X15386729Y-4266484D02*
X15453396Y-4409341D01*
X15453396Y-4409341D02*
X15520062Y-4266484D01*
X15520062Y-4266484D02*
X15520062Y-4466484D01*
X15701015Y-4466484D02*
X15701015Y-4361722D01*
X15701015Y-4361722D02*
X15691491Y-4342674D01*
X15691491Y-4342674D02*
X15672443Y-4333150D01*
X15672443Y-4333150D02*
X15634348Y-4333150D01*
X15634348Y-4333150D02*
X15615301Y-4342674D01*
X15701015Y-4456960D02*
X15681967Y-4466484D01*
X15681967Y-4466484D02*
X15634348Y-4466484D01*
X15634348Y-4466484D02*
X15615301Y-4456960D01*
X15615301Y-4456960D02*
X15605777Y-4437912D01*
X15605777Y-4437912D02*
X15605777Y-4418865D01*
X15605777Y-4418865D02*
X15615301Y-4399817D01*
X15615301Y-4399817D02*
X15634348Y-4390293D01*
X15634348Y-4390293D02*
X15681967Y-4390293D01*
X15681967Y-4390293D02*
X15701015Y-4380770D01*
X15796253Y-4333150D02*
X15796253Y-4533150D01*
X15796253Y-4342674D02*
X15815301Y-4333150D01*
X15815301Y-4333150D02*
X15853396Y-4333150D01*
X15853396Y-4333150D02*
X15872443Y-4342674D01*
X15872443Y-4342674D02*
X15881967Y-4352198D01*
X15881967Y-4352198D02*
X15891491Y-4371246D01*
X15891491Y-4371246D02*
X15891491Y-4428389D01*
X15891491Y-4428389D02*
X15881967Y-4447436D01*
X15881967Y-4447436D02*
X15872443Y-4456960D01*
X15872443Y-4456960D02*
X15853396Y-4466484D01*
X15853396Y-4466484D02*
X15815301Y-4466484D01*
X15815301Y-4466484D02*
X15796253Y-4456960D01*
X15977205Y-4447436D02*
X15986729Y-4456960D01*
X15986729Y-4456960D02*
X15977205Y-4466484D01*
X15977205Y-4466484D02*
X15967682Y-4456960D01*
X15967682Y-4456960D02*
X15977205Y-4447436D01*
X15977205Y-4447436D02*
X15977205Y-4466484D01*
X15977205Y-4342674D02*
X15986729Y-4352198D01*
X15986729Y-4352198D02*
X15977205Y-4361722D01*
X15977205Y-4361722D02*
X15967682Y-4352198D01*
X15967682Y-4352198D02*
X15977205Y-4342674D01*
X15977205Y-4342674D02*
X15977205Y-4361722D01*
D10*
X14315000Y-4780000D02*
X14345000Y-4810000D01*
X14345000Y-4780000D02*
X14315000Y-4810000D01*
D11*
X14643872Y-4686484D02*
X14662920Y-4686484D01*
X14662920Y-4686484D02*
X14681967Y-4696008D01*
X14681967Y-4696008D02*
X14691491Y-4705531D01*
X14691491Y-4705531D02*
X14701015Y-4724579D01*
X14701015Y-4724579D02*
X14710539Y-4762674D01*
X14710539Y-4762674D02*
X14710539Y-4810293D01*
X14710539Y-4810293D02*
X14701015Y-4848389D01*
X14701015Y-4848389D02*
X14691491Y-4867436D01*
X14691491Y-4867436D02*
X14681967Y-4876960D01*
X14681967Y-4876960D02*
X14662920Y-4886484D01*
X14662920Y-4886484D02*
X14643872Y-4886484D01*
X14643872Y-4886484D02*
X14624824Y-4876960D01*
X14624824Y-4876960D02*
X14615301Y-4867436D01*
X14615301Y-4867436D02*
X14605777Y-4848389D01*
X14605777Y-4848389D02*
X14596253Y-4810293D01*
X14596253Y-4810293D02*
X14596253Y-4762674D01*
X14596253Y-4762674D02*
X14605777Y-4724579D01*
X14605777Y-4724579D02*
X14615301Y-4705531D01*
X14615301Y-4705531D02*
X14624824Y-4696008D01*
X14624824Y-4696008D02*
X14643872Y-4686484D01*
X14796253Y-4867436D02*
X14805777Y-4876960D01*
X14805777Y-4876960D02*
X14796253Y-4886484D01*
X14796253Y-4886484D02*
X14786729Y-4876960D01*
X14786729Y-4876960D02*
X14796253Y-4867436D01*
X14796253Y-4867436D02*
X14796253Y-4886484D01*
X14872443Y-4686484D02*
X14996253Y-4686484D01*
X14996253Y-4686484D02*
X14929586Y-4762674D01*
X14929586Y-4762674D02*
X14958158Y-4762674D01*
X14958158Y-4762674D02*
X14977205Y-4772198D01*
X14977205Y-4772198D02*
X14986729Y-4781722D01*
X14986729Y-4781722D02*
X14996253Y-4800770D01*
X14996253Y-4800770D02*
X14996253Y-4848389D01*
X14996253Y-4848389D02*
X14986729Y-4867436D01*
X14986729Y-4867436D02*
X14977205Y-4876960D01*
X14977205Y-4876960D02*
X14958158Y-4886484D01*
X14958158Y-4886484D02*
X14901015Y-4886484D01*
X14901015Y-4886484D02*
X14881967Y-4876960D01*
X14881967Y-4876960D02*
X14872443Y-4867436D01*
X15120062Y-4686484D02*
X15139110Y-4686484D01*
X15139110Y-4686484D02*
X15158158Y-4696008D01*
X15158158Y-4696008D02*
X15167682Y-4705531D01*
X15167682Y-4705531D02*
X15177205Y-4724579D01*
X15177205Y-4724579D02*
X15186729Y-4762674D01*
X15186729Y-4762674D02*
X15186729Y-4810293D01*
X15186729Y-4810293D02*
X15177205Y-4848389D01*
X15177205Y-4848389D02*
X15167682Y-4867436D01*
X15167682Y-4867436D02*
X15158158Y-4876960D01*
X15158158Y-4876960D02*
X15139110Y-4886484D01*
X15139110Y-4886484D02*
X15120062Y-4886484D01*
X15120062Y-4886484D02*
X15101015Y-4876960D01*
X15101015Y-4876960D02*
X15091491Y-4867436D01*
X15091491Y-4867436D02*
X15081967Y-4848389D01*
X15081967Y-4848389D02*
X15072443Y-4810293D01*
X15072443Y-4810293D02*
X15072443Y-4762674D01*
X15072443Y-4762674D02*
X15081967Y-4724579D01*
X15081967Y-4724579D02*
X15091491Y-4705531D01*
X15091491Y-4705531D02*
X15101015Y-4696008D01*
X15101015Y-4696008D02*
X15120062Y-4686484D01*
X15310539Y-4686484D02*
X15329586Y-4686484D01*
X15329586Y-4686484D02*
X15348634Y-4696008D01*
X15348634Y-4696008D02*
X15358158Y-4705531D01*
X15358158Y-4705531D02*
X15367682Y-4724579D01*
X15367682Y-4724579D02*
X15377205Y-4762674D01*
X15377205Y-4762674D02*
X15377205Y-4810293D01*
X15377205Y-4810293D02*
X15367682Y-4848389D01*
X15367682Y-4848389D02*
X15358158Y-4867436D01*
X15358158Y-4867436D02*
X15348634Y-4876960D01*
X15348634Y-4876960D02*
X15329586Y-4886484D01*
X15329586Y-4886484D02*
X15310539Y-4886484D01*
X15310539Y-4886484D02*
X15291491Y-4876960D01*
X15291491Y-4876960D02*
X15281967Y-4867436D01*
X15281967Y-4867436D02*
X15272443Y-4848389D01*
X15272443Y-4848389D02*
X15262920Y-4810293D01*
X15262920Y-4810293D02*
X15262920Y-4762674D01*
X15262920Y-4762674D02*
X15272443Y-4724579D01*
X15272443Y-4724579D02*
X15281967Y-4705531D01*
X15281967Y-4705531D02*
X15291491Y-4696008D01*
X15291491Y-4696008D02*
X15310539Y-4686484D01*
X15462920Y-4886484D02*
X15462920Y-4753150D01*
X15462920Y-4772198D02*
X15472443Y-4762674D01*
X15472443Y-4762674D02*
X15491491Y-4753150D01*
X15491491Y-4753150D02*
X15520063Y-4753150D01*
X15520063Y-4753150D02*
X15539110Y-4762674D01*
X15539110Y-4762674D02*
X15548634Y-4781722D01*
X15548634Y-4781722D02*
X15548634Y-4886484D01*
X15548634Y-4781722D02*
X15558158Y-4762674D01*
X15558158Y-4762674D02*
X15577205Y-4753150D01*
X15577205Y-4753150D02*
X15605777Y-4753150D01*
X15605777Y-4753150D02*
X15624824Y-4762674D01*
X15624824Y-4762674D02*
X15634348Y-4781722D01*
X15634348Y-4781722D02*
X15634348Y-4886484D01*
X15729586Y-4886484D02*
X15729586Y-4753150D01*
X15729586Y-4772198D02*
X15739110Y-4762674D01*
X15739110Y-4762674D02*
X15758158Y-4753150D01*
X15758158Y-4753150D02*
X15786729Y-4753150D01*
X15786729Y-4753150D02*
X15805777Y-4762674D01*
X15805777Y-4762674D02*
X15815301Y-4781722D01*
X15815301Y-4781722D02*
X15815301Y-4886484D01*
X15815301Y-4781722D02*
X15824824Y-4762674D01*
X15824824Y-4762674D02*
X15843872Y-4753150D01*
X15843872Y-4753150D02*
X15872443Y-4753150D01*
X15872443Y-4753150D02*
X15891491Y-4762674D01*
X15891491Y-4762674D02*
X15901015Y-4781722D01*
X15901015Y-4781722D02*
X15901015Y-4886484D01*
X16291491Y-4676960D02*
X16120063Y-4934103D01*
X16548634Y-4686484D02*
X16567682Y-4686484D01*
X16567682Y-4686484D02*
X16586729Y-4696008D01*
X16586729Y-4696008D02*
X16596253Y-4705531D01*
X16596253Y-4705531D02*
X16605777Y-4724579D01*
X16605777Y-4724579D02*
X16615301Y-4762674D01*
X16615301Y-4762674D02*
X16615301Y-4810293D01*
X16615301Y-4810293D02*
X16605777Y-4848389D01*
X16605777Y-4848389D02*
X16596253Y-4867436D01*
X16596253Y-4867436D02*
X16586729Y-4876960D01*
X16586729Y-4876960D02*
X16567682Y-4886484D01*
X16567682Y-4886484D02*
X16548634Y-4886484D01*
X16548634Y-4886484D02*
X16529586Y-4876960D01*
X16529586Y-4876960D02*
X16520063Y-4867436D01*
X16520063Y-4867436D02*
X16510539Y-4848389D01*
X16510539Y-4848389D02*
X16501015Y-4810293D01*
X16501015Y-4810293D02*
X16501015Y-4762674D01*
X16501015Y-4762674D02*
X16510539Y-4724579D01*
X16510539Y-4724579D02*
X16520063Y-4705531D01*
X16520063Y-4705531D02*
X16529586Y-4696008D01*
X16529586Y-4696008D02*
X16548634Y-4686484D01*
X16701015Y-4867436D02*
X16710539Y-4876960D01*
X16710539Y-4876960D02*
X16701015Y-4886484D01*
X16701015Y-4886484D02*
X16691491Y-4876960D01*
X16691491Y-4876960D02*
X16701015Y-4867436D01*
X16701015Y-4867436D02*
X16701015Y-4886484D01*
X16834348Y-4686484D02*
X16853396Y-4686484D01*
X16853396Y-4686484D02*
X16872444Y-4696008D01*
X16872444Y-4696008D02*
X16881968Y-4705531D01*
X16881968Y-4705531D02*
X16891491Y-4724579D01*
X16891491Y-4724579D02*
X16901015Y-4762674D01*
X16901015Y-4762674D02*
X16901015Y-4810293D01*
X16901015Y-4810293D02*
X16891491Y-4848389D01*
X16891491Y-4848389D02*
X16881968Y-4867436D01*
X16881968Y-4867436D02*
X16872444Y-4876960D01*
X16872444Y-4876960D02*
X16853396Y-4886484D01*
X16853396Y-4886484D02*
X16834348Y-4886484D01*
X16834348Y-4886484D02*
X16815301Y-4876960D01*
X16815301Y-4876960D02*
X16805777Y-4867436D01*
X16805777Y-4867436D02*
X16796253Y-4848389D01*
X16796253Y-4848389D02*
X16786729Y-4810293D01*
X16786729Y-4810293D02*
X16786729Y-4762674D01*
X16786729Y-4762674D02*
X16796253Y-4724579D01*
X16796253Y-4724579D02*
X16805777Y-4705531D01*
X16805777Y-4705531D02*
X16815301Y-4696008D01*
X16815301Y-4696008D02*
X16834348Y-4686484D01*
X17091491Y-4886484D02*
X16977206Y-4886484D01*
X17034348Y-4886484D02*
X17034348Y-4686484D01*
X17034348Y-4686484D02*
X17015301Y-4715055D01*
X17015301Y-4715055D02*
X16996253Y-4734103D01*
X16996253Y-4734103D02*
X16977206Y-4743627D01*
X17281968Y-4886484D02*
X17167682Y-4886484D01*
X17224825Y-4886484D02*
X17224825Y-4686484D01*
X17224825Y-4686484D02*
X17205777Y-4715055D01*
X17205777Y-4715055D02*
X17186729Y-4734103D01*
X17186729Y-4734103D02*
X17167682Y-4743627D01*
X17396253Y-4772198D02*
X17377206Y-4762674D01*
X17377206Y-4762674D02*
X17367682Y-4753150D01*
X17367682Y-4753150D02*
X17358158Y-4734103D01*
X17358158Y-4734103D02*
X17358158Y-4724579D01*
X17358158Y-4724579D02*
X17367682Y-4705531D01*
X17367682Y-4705531D02*
X17377206Y-4696008D01*
X17377206Y-4696008D02*
X17396253Y-4686484D01*
X17396253Y-4686484D02*
X17434349Y-4686484D01*
X17434349Y-4686484D02*
X17453396Y-4696008D01*
X17453396Y-4696008D02*
X17462920Y-4705531D01*
X17462920Y-4705531D02*
X17472444Y-4724579D01*
X17472444Y-4724579D02*
X17472444Y-4734103D01*
X17472444Y-4734103D02*
X17462920Y-4753150D01*
X17462920Y-4753150D02*
X17453396Y-4762674D01*
X17453396Y-4762674D02*
X17434349Y-4772198D01*
X17434349Y-4772198D02*
X17396253Y-4772198D01*
X17396253Y-4772198D02*
X17377206Y-4781722D01*
X17377206Y-4781722D02*
X17367682Y-4791246D01*
X17367682Y-4791246D02*
X17358158Y-4810293D01*
X17358158Y-4810293D02*
X17358158Y-4848389D01*
X17358158Y-4848389D02*
X17367682Y-4867436D01*
X17367682Y-4867436D02*
X17377206Y-4876960D01*
X17377206Y-4876960D02*
X17396253Y-4886484D01*
X17396253Y-4886484D02*
X17434349Y-4886484D01*
X17434349Y-4886484D02*
X17453396Y-4876960D01*
X17453396Y-4876960D02*
X17462920Y-4867436D01*
X17462920Y-4867436D02*
X17472444Y-4848389D01*
X17472444Y-4848389D02*
X17472444Y-4810293D01*
X17472444Y-4810293D02*
X17462920Y-4791246D01*
X17462920Y-4791246D02*
X17453396Y-4781722D01*
X17453396Y-4781722D02*
X17434349Y-4772198D01*
X17548634Y-4686484D02*
X17548634Y-4724579D01*
X17624825Y-4686484D02*
X17624825Y-4724579D01*
X17920063Y-4962674D02*
X17910539Y-4953150D01*
X17910539Y-4953150D02*
X17891491Y-4924579D01*
X17891491Y-4924579D02*
X17881968Y-4905531D01*
X17881968Y-4905531D02*
X17872444Y-4876960D01*
X17872444Y-4876960D02*
X17862920Y-4829341D01*
X17862920Y-4829341D02*
X17862920Y-4791246D01*
X17862920Y-4791246D02*
X17872444Y-4743627D01*
X17872444Y-4743627D02*
X17881968Y-4715055D01*
X17881968Y-4715055D02*
X17891491Y-4696008D01*
X17891491Y-4696008D02*
X17910539Y-4667436D01*
X17910539Y-4667436D02*
X17920063Y-4657912D01*
X17977206Y-4686484D02*
X18101015Y-4686484D01*
X18101015Y-4686484D02*
X18034349Y-4762674D01*
X18034349Y-4762674D02*
X18062920Y-4762674D01*
X18062920Y-4762674D02*
X18081968Y-4772198D01*
X18081968Y-4772198D02*
X18091491Y-4781722D01*
X18091491Y-4781722D02*
X18101015Y-4800770D01*
X18101015Y-4800770D02*
X18101015Y-4848389D01*
X18101015Y-4848389D02*
X18091491Y-4867436D01*
X18091491Y-4867436D02*
X18081968Y-4876960D01*
X18081968Y-4876960D02*
X18062920Y-4886484D01*
X18062920Y-4886484D02*
X18005777Y-4886484D01*
X18005777Y-4886484D02*
X17986730Y-4876960D01*
X17986730Y-4876960D02*
X17977206Y-4867436D01*
X18339111Y-4886484D02*
X18339111Y-4686484D01*
X18424825Y-4886484D02*
X18424825Y-4781722D01*
X18424825Y-4781722D02*
X18415301Y-4762674D01*
X18415301Y-4762674D02*
X18396253Y-4753150D01*
X18396253Y-4753150D02*
X18367682Y-4753150D01*
X18367682Y-4753150D02*
X18348634Y-4762674D01*
X18348634Y-4762674D02*
X18339111Y-4772198D01*
X18548634Y-4886484D02*
X18529587Y-4876960D01*
X18529587Y-4876960D02*
X18520063Y-4867436D01*
X18520063Y-4867436D02*
X18510539Y-4848389D01*
X18510539Y-4848389D02*
X18510539Y-4791246D01*
X18510539Y-4791246D02*
X18520063Y-4772198D01*
X18520063Y-4772198D02*
X18529587Y-4762674D01*
X18529587Y-4762674D02*
X18548634Y-4753150D01*
X18548634Y-4753150D02*
X18577206Y-4753150D01*
X18577206Y-4753150D02*
X18596253Y-4762674D01*
X18596253Y-4762674D02*
X18605777Y-4772198D01*
X18605777Y-4772198D02*
X18615301Y-4791246D01*
X18615301Y-4791246D02*
X18615301Y-4848389D01*
X18615301Y-4848389D02*
X18605777Y-4867436D01*
X18605777Y-4867436D02*
X18596253Y-4876960D01*
X18596253Y-4876960D02*
X18577206Y-4886484D01*
X18577206Y-4886484D02*
X18548634Y-4886484D01*
X18729587Y-4886484D02*
X18710539Y-4876960D01*
X18710539Y-4876960D02*
X18701015Y-4857912D01*
X18701015Y-4857912D02*
X18701015Y-4686484D01*
X18881968Y-4876960D02*
X18862920Y-4886484D01*
X18862920Y-4886484D02*
X18824825Y-4886484D01*
X18824825Y-4886484D02*
X18805777Y-4876960D01*
X18805777Y-4876960D02*
X18796253Y-4857912D01*
X18796253Y-4857912D02*
X18796253Y-4781722D01*
X18796253Y-4781722D02*
X18805777Y-4762674D01*
X18805777Y-4762674D02*
X18824825Y-4753150D01*
X18824825Y-4753150D02*
X18862920Y-4753150D01*
X18862920Y-4753150D02*
X18881968Y-4762674D01*
X18881968Y-4762674D02*
X18891492Y-4781722D01*
X18891492Y-4781722D02*
X18891492Y-4800770D01*
X18891492Y-4800770D02*
X18796253Y-4819817D01*
X18967682Y-4876960D02*
X18986730Y-4886484D01*
X18986730Y-4886484D02*
X19024825Y-4886484D01*
X19024825Y-4886484D02*
X19043873Y-4876960D01*
X19043873Y-4876960D02*
X19053396Y-4857912D01*
X19053396Y-4857912D02*
X19053396Y-4848389D01*
X19053396Y-4848389D02*
X19043873Y-4829341D01*
X19043873Y-4829341D02*
X19024825Y-4819817D01*
X19024825Y-4819817D02*
X18996253Y-4819817D01*
X18996253Y-4819817D02*
X18977206Y-4810293D01*
X18977206Y-4810293D02*
X18967682Y-4791246D01*
X18967682Y-4791246D02*
X18967682Y-4781722D01*
X18967682Y-4781722D02*
X18977206Y-4762674D01*
X18977206Y-4762674D02*
X18996253Y-4753150D01*
X18996253Y-4753150D02*
X19024825Y-4753150D01*
X19024825Y-4753150D02*
X19043873Y-4762674D01*
X19120063Y-4962674D02*
X19129587Y-4953150D01*
X19129587Y-4953150D02*
X19148634Y-4924579D01*
X19148634Y-4924579D02*
X19158158Y-4905531D01*
X19158158Y-4905531D02*
X19167682Y-4876960D01*
X19167682Y-4876960D02*
X19177206Y-4829341D01*
X19177206Y-4829341D02*
X19177206Y-4791246D01*
X19177206Y-4791246D02*
X19167682Y-4743627D01*
X19167682Y-4743627D02*
X19158158Y-4715055D01*
X19158158Y-4715055D02*
X19148634Y-4696008D01*
X19148634Y-4696008D02*
X19129587Y-4667436D01*
X19129587Y-4667436D02*
X19120063Y-4657912D01*
D10*
X14345000Y-5059000D02*
G75*
G02*
X14285000Y-5059000I-30000J0D01*
G01*
X14285000Y-5059000D02*
G75*
G02*
X14345000Y-5059000I30000J0D01*
G01*
D11*
X14643872Y-4950484D02*
X14662920Y-4950484D01*
X14662920Y-4950484D02*
X14681967Y-4960008D01*
X14681967Y-4960008D02*
X14691491Y-4969531D01*
X14691491Y-4969531D02*
X14701015Y-4988579D01*
X14701015Y-4988579D02*
X14710539Y-5026674D01*
X14710539Y-5026674D02*
X14710539Y-5074293D01*
X14710539Y-5074293D02*
X14701015Y-5112389D01*
X14701015Y-5112389D02*
X14691491Y-5131436D01*
X14691491Y-5131436D02*
X14681967Y-5140960D01*
X14681967Y-5140960D02*
X14662920Y-5150484D01*
X14662920Y-5150484D02*
X14643872Y-5150484D01*
X14643872Y-5150484D02*
X14624824Y-5140960D01*
X14624824Y-5140960D02*
X14615301Y-5131436D01*
X14615301Y-5131436D02*
X14605777Y-5112389D01*
X14605777Y-5112389D02*
X14596253Y-5074293D01*
X14596253Y-5074293D02*
X14596253Y-5026674D01*
X14596253Y-5026674D02*
X14605777Y-4988579D01*
X14605777Y-4988579D02*
X14615301Y-4969531D01*
X14615301Y-4969531D02*
X14624824Y-4960008D01*
X14624824Y-4960008D02*
X14643872Y-4950484D01*
X14796253Y-5131436D02*
X14805777Y-5140960D01*
X14805777Y-5140960D02*
X14796253Y-5150484D01*
X14796253Y-5150484D02*
X14786729Y-5140960D01*
X14786729Y-5140960D02*
X14796253Y-5131436D01*
X14796253Y-5131436D02*
X14796253Y-5150484D01*
X14977205Y-4950484D02*
X14939110Y-4950484D01*
X14939110Y-4950484D02*
X14920062Y-4960008D01*
X14920062Y-4960008D02*
X14910539Y-4969531D01*
X14910539Y-4969531D02*
X14891491Y-4998103D01*
X14891491Y-4998103D02*
X14881967Y-5036198D01*
X14881967Y-5036198D02*
X14881967Y-5112389D01*
X14881967Y-5112389D02*
X14891491Y-5131436D01*
X14891491Y-5131436D02*
X14901015Y-5140960D01*
X14901015Y-5140960D02*
X14920062Y-5150484D01*
X14920062Y-5150484D02*
X14958158Y-5150484D01*
X14958158Y-5150484D02*
X14977205Y-5140960D01*
X14977205Y-5140960D02*
X14986729Y-5131436D01*
X14986729Y-5131436D02*
X14996253Y-5112389D01*
X14996253Y-5112389D02*
X14996253Y-5064770D01*
X14996253Y-5064770D02*
X14986729Y-5045722D01*
X14986729Y-5045722D02*
X14977205Y-5036198D01*
X14977205Y-5036198D02*
X14958158Y-5026674D01*
X14958158Y-5026674D02*
X14920062Y-5026674D01*
X14920062Y-5026674D02*
X14901015Y-5036198D01*
X14901015Y-5036198D02*
X14891491Y-5045722D01*
X14891491Y-5045722D02*
X14881967Y-5064770D01*
X15120062Y-4950484D02*
X15139110Y-4950484D01*
X15139110Y-4950484D02*
X15158158Y-4960008D01*
X15158158Y-4960008D02*
X15167682Y-4969531D01*
X15167682Y-4969531D02*
X15177205Y-4988579D01*
X15177205Y-4988579D02*
X15186729Y-5026674D01*
X15186729Y-5026674D02*
X15186729Y-5074293D01*
X15186729Y-5074293D02*
X15177205Y-5112389D01*
X15177205Y-5112389D02*
X15167682Y-5131436D01*
X15167682Y-5131436D02*
X15158158Y-5140960D01*
X15158158Y-5140960D02*
X15139110Y-5150484D01*
X15139110Y-5150484D02*
X15120062Y-5150484D01*
X15120062Y-5150484D02*
X15101015Y-5140960D01*
X15101015Y-5140960D02*
X15091491Y-5131436D01*
X15091491Y-5131436D02*
X15081967Y-5112389D01*
X15081967Y-5112389D02*
X15072443Y-5074293D01*
X15072443Y-5074293D02*
X15072443Y-5026674D01*
X15072443Y-5026674D02*
X15081967Y-4988579D01*
X15081967Y-4988579D02*
X15091491Y-4969531D01*
X15091491Y-4969531D02*
X15101015Y-4960008D01*
X15101015Y-4960008D02*
X15120062Y-4950484D01*
X15310539Y-4950484D02*
X15329586Y-4950484D01*
X15329586Y-4950484D02*
X15348634Y-4960008D01*
X15348634Y-4960008D02*
X15358158Y-4969531D01*
X15358158Y-4969531D02*
X15367682Y-4988579D01*
X15367682Y-4988579D02*
X15377205Y-5026674D01*
X15377205Y-5026674D02*
X15377205Y-5074293D01*
X15377205Y-5074293D02*
X15367682Y-5112389D01*
X15367682Y-5112389D02*
X15358158Y-5131436D01*
X15358158Y-5131436D02*
X15348634Y-5140960D01*
X15348634Y-5140960D02*
X15329586Y-5150484D01*
X15329586Y-5150484D02*
X15310539Y-5150484D01*
X15310539Y-5150484D02*
X15291491Y-5140960D01*
X15291491Y-5140960D02*
X15281967Y-5131436D01*
X15281967Y-5131436D02*
X15272443Y-5112389D01*
X15272443Y-5112389D02*
X15262920Y-5074293D01*
X15262920Y-5074293D02*
X15262920Y-5026674D01*
X15262920Y-5026674D02*
X15272443Y-4988579D01*
X15272443Y-4988579D02*
X15281967Y-4969531D01*
X15281967Y-4969531D02*
X15291491Y-4960008D01*
X15291491Y-4960008D02*
X15310539Y-4950484D01*
X15462920Y-5150484D02*
X15462920Y-5017150D01*
X15462920Y-5036198D02*
X15472443Y-5026674D01*
X15472443Y-5026674D02*
X15491491Y-5017150D01*
X15491491Y-5017150D02*
X15520063Y-5017150D01*
X15520063Y-5017150D02*
X15539110Y-5026674D01*
X15539110Y-5026674D02*
X15548634Y-5045722D01*
X15548634Y-5045722D02*
X15548634Y-5150484D01*
X15548634Y-5045722D02*
X15558158Y-5026674D01*
X15558158Y-5026674D02*
X15577205Y-5017150D01*
X15577205Y-5017150D02*
X15605777Y-5017150D01*
X15605777Y-5017150D02*
X15624824Y-5026674D01*
X15624824Y-5026674D02*
X15634348Y-5045722D01*
X15634348Y-5045722D02*
X15634348Y-5150484D01*
X15729586Y-5150484D02*
X15729586Y-5017150D01*
X15729586Y-5036198D02*
X15739110Y-5026674D01*
X15739110Y-5026674D02*
X15758158Y-5017150D01*
X15758158Y-5017150D02*
X15786729Y-5017150D01*
X15786729Y-5017150D02*
X15805777Y-5026674D01*
X15805777Y-5026674D02*
X15815301Y-5045722D01*
X15815301Y-5045722D02*
X15815301Y-5150484D01*
X15815301Y-5045722D02*
X15824824Y-5026674D01*
X15824824Y-5026674D02*
X15843872Y-5017150D01*
X15843872Y-5017150D02*
X15872443Y-5017150D01*
X15872443Y-5017150D02*
X15891491Y-5026674D01*
X15891491Y-5026674D02*
X15901015Y-5045722D01*
X15901015Y-5045722D02*
X15901015Y-5150484D01*
X16291491Y-4940960D02*
X16120063Y-5198103D01*
X16548634Y-4950484D02*
X16567682Y-4950484D01*
X16567682Y-4950484D02*
X16586729Y-4960008D01*
X16586729Y-4960008D02*
X16596253Y-4969531D01*
X16596253Y-4969531D02*
X16605777Y-4988579D01*
X16605777Y-4988579D02*
X16615301Y-5026674D01*
X16615301Y-5026674D02*
X16615301Y-5074293D01*
X16615301Y-5074293D02*
X16605777Y-5112389D01*
X16605777Y-5112389D02*
X16596253Y-5131436D01*
X16596253Y-5131436D02*
X16586729Y-5140960D01*
X16586729Y-5140960D02*
X16567682Y-5150484D01*
X16567682Y-5150484D02*
X16548634Y-5150484D01*
X16548634Y-5150484D02*
X16529586Y-5140960D01*
X16529586Y-5140960D02*
X16520063Y-5131436D01*
X16520063Y-5131436D02*
X16510539Y-5112389D01*
X16510539Y-5112389D02*
X16501015Y-5074293D01*
X16501015Y-5074293D02*
X16501015Y-5026674D01*
X16501015Y-5026674D02*
X16510539Y-4988579D01*
X16510539Y-4988579D02*
X16520063Y-4969531D01*
X16520063Y-4969531D02*
X16529586Y-4960008D01*
X16529586Y-4960008D02*
X16548634Y-4950484D01*
X16701015Y-5131436D02*
X16710539Y-5140960D01*
X16710539Y-5140960D02*
X16701015Y-5150484D01*
X16701015Y-5150484D02*
X16691491Y-5140960D01*
X16691491Y-5140960D02*
X16701015Y-5131436D01*
X16701015Y-5131436D02*
X16701015Y-5150484D01*
X16834348Y-4950484D02*
X16853396Y-4950484D01*
X16853396Y-4950484D02*
X16872444Y-4960008D01*
X16872444Y-4960008D02*
X16881968Y-4969531D01*
X16881968Y-4969531D02*
X16891491Y-4988579D01*
X16891491Y-4988579D02*
X16901015Y-5026674D01*
X16901015Y-5026674D02*
X16901015Y-5074293D01*
X16901015Y-5074293D02*
X16891491Y-5112389D01*
X16891491Y-5112389D02*
X16881968Y-5131436D01*
X16881968Y-5131436D02*
X16872444Y-5140960D01*
X16872444Y-5140960D02*
X16853396Y-5150484D01*
X16853396Y-5150484D02*
X16834348Y-5150484D01*
X16834348Y-5150484D02*
X16815301Y-5140960D01*
X16815301Y-5140960D02*
X16805777Y-5131436D01*
X16805777Y-5131436D02*
X16796253Y-5112389D01*
X16796253Y-5112389D02*
X16786729Y-5074293D01*
X16786729Y-5074293D02*
X16786729Y-5026674D01*
X16786729Y-5026674D02*
X16796253Y-4988579D01*
X16796253Y-4988579D02*
X16805777Y-4969531D01*
X16805777Y-4969531D02*
X16815301Y-4960008D01*
X16815301Y-4960008D02*
X16834348Y-4950484D01*
X16977206Y-4969531D02*
X16986729Y-4960008D01*
X16986729Y-4960008D02*
X17005777Y-4950484D01*
X17005777Y-4950484D02*
X17053396Y-4950484D01*
X17053396Y-4950484D02*
X17072444Y-4960008D01*
X17072444Y-4960008D02*
X17081968Y-4969531D01*
X17081968Y-4969531D02*
X17091491Y-4988579D01*
X17091491Y-4988579D02*
X17091491Y-5007627D01*
X17091491Y-5007627D02*
X17081968Y-5036198D01*
X17081968Y-5036198D02*
X16967682Y-5150484D01*
X16967682Y-5150484D02*
X17091491Y-5150484D01*
X17158158Y-4950484D02*
X17281968Y-4950484D01*
X17281968Y-4950484D02*
X17215301Y-5026674D01*
X17215301Y-5026674D02*
X17243872Y-5026674D01*
X17243872Y-5026674D02*
X17262920Y-5036198D01*
X17262920Y-5036198D02*
X17272444Y-5045722D01*
X17272444Y-5045722D02*
X17281968Y-5064770D01*
X17281968Y-5064770D02*
X17281968Y-5112389D01*
X17281968Y-5112389D02*
X17272444Y-5131436D01*
X17272444Y-5131436D02*
X17262920Y-5140960D01*
X17262920Y-5140960D02*
X17243872Y-5150484D01*
X17243872Y-5150484D02*
X17186729Y-5150484D01*
X17186729Y-5150484D02*
X17167682Y-5140960D01*
X17167682Y-5140960D02*
X17158158Y-5131436D01*
X17453396Y-4950484D02*
X17415301Y-4950484D01*
X17415301Y-4950484D02*
X17396253Y-4960008D01*
X17396253Y-4960008D02*
X17386729Y-4969531D01*
X17386729Y-4969531D02*
X17367682Y-4998103D01*
X17367682Y-4998103D02*
X17358158Y-5036198D01*
X17358158Y-5036198D02*
X17358158Y-5112389D01*
X17358158Y-5112389D02*
X17367682Y-5131436D01*
X17367682Y-5131436D02*
X17377206Y-5140960D01*
X17377206Y-5140960D02*
X17396253Y-5150484D01*
X17396253Y-5150484D02*
X17434349Y-5150484D01*
X17434349Y-5150484D02*
X17453396Y-5140960D01*
X17453396Y-5140960D02*
X17462920Y-5131436D01*
X17462920Y-5131436D02*
X17472444Y-5112389D01*
X17472444Y-5112389D02*
X17472444Y-5064770D01*
X17472444Y-5064770D02*
X17462920Y-5045722D01*
X17462920Y-5045722D02*
X17453396Y-5036198D01*
X17453396Y-5036198D02*
X17434349Y-5026674D01*
X17434349Y-5026674D02*
X17396253Y-5026674D01*
X17396253Y-5026674D02*
X17377206Y-5036198D01*
X17377206Y-5036198D02*
X17367682Y-5045722D01*
X17367682Y-5045722D02*
X17358158Y-5064770D01*
X17548634Y-4950484D02*
X17548634Y-4988579D01*
X17624825Y-4950484D02*
X17624825Y-4988579D01*
X17920063Y-5226674D02*
X17910539Y-5217150D01*
X17910539Y-5217150D02*
X17891491Y-5188579D01*
X17891491Y-5188579D02*
X17881968Y-5169531D01*
X17881968Y-5169531D02*
X17872444Y-5140960D01*
X17872444Y-5140960D02*
X17862920Y-5093341D01*
X17862920Y-5093341D02*
X17862920Y-5055246D01*
X17862920Y-5055246D02*
X17872444Y-5007627D01*
X17872444Y-5007627D02*
X17881968Y-4979055D01*
X17881968Y-4979055D02*
X17891491Y-4960008D01*
X17891491Y-4960008D02*
X17910539Y-4931436D01*
X17910539Y-4931436D02*
X17920063Y-4921912D01*
X18034349Y-4950484D02*
X18053396Y-4950484D01*
X18053396Y-4950484D02*
X18072444Y-4960008D01*
X18072444Y-4960008D02*
X18081968Y-4969531D01*
X18081968Y-4969531D02*
X18091491Y-4988579D01*
X18091491Y-4988579D02*
X18101015Y-5026674D01*
X18101015Y-5026674D02*
X18101015Y-5074293D01*
X18101015Y-5074293D02*
X18091491Y-5112389D01*
X18091491Y-5112389D02*
X18081968Y-5131436D01*
X18081968Y-5131436D02*
X18072444Y-5140960D01*
X18072444Y-5140960D02*
X18053396Y-5150484D01*
X18053396Y-5150484D02*
X18034349Y-5150484D01*
X18034349Y-5150484D02*
X18015301Y-5140960D01*
X18015301Y-5140960D02*
X18005777Y-5131436D01*
X18005777Y-5131436D02*
X17996253Y-5112389D01*
X17996253Y-5112389D02*
X17986730Y-5074293D01*
X17986730Y-5074293D02*
X17986730Y-5026674D01*
X17986730Y-5026674D02*
X17996253Y-4988579D01*
X17996253Y-4988579D02*
X18005777Y-4969531D01*
X18005777Y-4969531D02*
X18015301Y-4960008D01*
X18015301Y-4960008D02*
X18034349Y-4950484D01*
X18339111Y-5150484D02*
X18339111Y-4950484D01*
X18424825Y-5150484D02*
X18424825Y-5045722D01*
X18424825Y-5045722D02*
X18415301Y-5026674D01*
X18415301Y-5026674D02*
X18396253Y-5017150D01*
X18396253Y-5017150D02*
X18367682Y-5017150D01*
X18367682Y-5017150D02*
X18348634Y-5026674D01*
X18348634Y-5026674D02*
X18339111Y-5036198D01*
X18548634Y-5150484D02*
X18529587Y-5140960D01*
X18529587Y-5140960D02*
X18520063Y-5131436D01*
X18520063Y-5131436D02*
X18510539Y-5112389D01*
X18510539Y-5112389D02*
X18510539Y-5055246D01*
X18510539Y-5055246D02*
X18520063Y-5036198D01*
X18520063Y-5036198D02*
X18529587Y-5026674D01*
X18529587Y-5026674D02*
X18548634Y-5017150D01*
X18548634Y-5017150D02*
X18577206Y-5017150D01*
X18577206Y-5017150D02*
X18596253Y-5026674D01*
X18596253Y-5026674D02*
X18605777Y-5036198D01*
X18605777Y-5036198D02*
X18615301Y-5055246D01*
X18615301Y-5055246D02*
X18615301Y-5112389D01*
X18615301Y-5112389D02*
X18605777Y-5131436D01*
X18605777Y-5131436D02*
X18596253Y-5140960D01*
X18596253Y-5140960D02*
X18577206Y-5150484D01*
X18577206Y-5150484D02*
X18548634Y-5150484D01*
X18729587Y-5150484D02*
X18710539Y-5140960D01*
X18710539Y-5140960D02*
X18701015Y-5121912D01*
X18701015Y-5121912D02*
X18701015Y-4950484D01*
X18881968Y-5140960D02*
X18862920Y-5150484D01*
X18862920Y-5150484D02*
X18824825Y-5150484D01*
X18824825Y-5150484D02*
X18805777Y-5140960D01*
X18805777Y-5140960D02*
X18796253Y-5121912D01*
X18796253Y-5121912D02*
X18796253Y-5045722D01*
X18796253Y-5045722D02*
X18805777Y-5026674D01*
X18805777Y-5026674D02*
X18824825Y-5017150D01*
X18824825Y-5017150D02*
X18862920Y-5017150D01*
X18862920Y-5017150D02*
X18881968Y-5026674D01*
X18881968Y-5026674D02*
X18891492Y-5045722D01*
X18891492Y-5045722D02*
X18891492Y-5064770D01*
X18891492Y-5064770D02*
X18796253Y-5083817D01*
X18967682Y-5140960D02*
X18986730Y-5150484D01*
X18986730Y-5150484D02*
X19024825Y-5150484D01*
X19024825Y-5150484D02*
X19043873Y-5140960D01*
X19043873Y-5140960D02*
X19053396Y-5121912D01*
X19053396Y-5121912D02*
X19053396Y-5112389D01*
X19053396Y-5112389D02*
X19043873Y-5093341D01*
X19043873Y-5093341D02*
X19024825Y-5083817D01*
X19024825Y-5083817D02*
X18996253Y-5083817D01*
X18996253Y-5083817D02*
X18977206Y-5074293D01*
X18977206Y-5074293D02*
X18967682Y-5055246D01*
X18967682Y-5055246D02*
X18967682Y-5045722D01*
X18967682Y-5045722D02*
X18977206Y-5026674D01*
X18977206Y-5026674D02*
X18996253Y-5017150D01*
X18996253Y-5017150D02*
X19024825Y-5017150D01*
X19024825Y-5017150D02*
X19043873Y-5026674D01*
X19291492Y-5074293D02*
X19443873Y-5074293D01*
X19367682Y-5150484D02*
X19367682Y-4998103D01*
X19777206Y-5017150D02*
X19777206Y-5150484D01*
X19729587Y-4940960D02*
X19681968Y-5083817D01*
X19681968Y-5083817D02*
X19805777Y-5083817D01*
X20024825Y-5140960D02*
X20043873Y-5150484D01*
X20043873Y-5150484D02*
X20081968Y-5150484D01*
X20081968Y-5150484D02*
X20101016Y-5140960D01*
X20101016Y-5140960D02*
X20110539Y-5121912D01*
X20110539Y-5121912D02*
X20110539Y-5112389D01*
X20110539Y-5112389D02*
X20101016Y-5093341D01*
X20101016Y-5093341D02*
X20081968Y-5083817D01*
X20081968Y-5083817D02*
X20053396Y-5083817D01*
X20053396Y-5083817D02*
X20034349Y-5074293D01*
X20034349Y-5074293D02*
X20024825Y-5055246D01*
X20024825Y-5055246D02*
X20024825Y-5045722D01*
X20024825Y-5045722D02*
X20034349Y-5026674D01*
X20034349Y-5026674D02*
X20053396Y-5017150D01*
X20053396Y-5017150D02*
X20081968Y-5017150D01*
X20081968Y-5017150D02*
X20101016Y-5026674D01*
X20224825Y-5150484D02*
X20205777Y-5140960D01*
X20205777Y-5140960D02*
X20196254Y-5121912D01*
X20196254Y-5121912D02*
X20196254Y-4950484D01*
X20329587Y-5150484D02*
X20310539Y-5140960D01*
X20310539Y-5140960D02*
X20301016Y-5131436D01*
X20301016Y-5131436D02*
X20291492Y-5112389D01*
X20291492Y-5112389D02*
X20291492Y-5055246D01*
X20291492Y-5055246D02*
X20301016Y-5036198D01*
X20301016Y-5036198D02*
X20310539Y-5026674D01*
X20310539Y-5026674D02*
X20329587Y-5017150D01*
X20329587Y-5017150D02*
X20358158Y-5017150D01*
X20358158Y-5017150D02*
X20377206Y-5026674D01*
X20377206Y-5026674D02*
X20386730Y-5036198D01*
X20386730Y-5036198D02*
X20396254Y-5055246D01*
X20396254Y-5055246D02*
X20396254Y-5112389D01*
X20396254Y-5112389D02*
X20386730Y-5131436D01*
X20386730Y-5131436D02*
X20377206Y-5140960D01*
X20377206Y-5140960D02*
X20358158Y-5150484D01*
X20358158Y-5150484D02*
X20329587Y-5150484D01*
X20453397Y-5017150D02*
X20529587Y-5017150D01*
X20481968Y-4950484D02*
X20481968Y-5121912D01*
X20481968Y-5121912D02*
X20491492Y-5140960D01*
X20491492Y-5140960D02*
X20510539Y-5150484D01*
X20510539Y-5150484D02*
X20529587Y-5150484D01*
X20586730Y-5140960D02*
X20605777Y-5150484D01*
X20605777Y-5150484D02*
X20643873Y-5150484D01*
X20643873Y-5150484D02*
X20662920Y-5140960D01*
X20662920Y-5140960D02*
X20672444Y-5121912D01*
X20672444Y-5121912D02*
X20672444Y-5112389D01*
X20672444Y-5112389D02*
X20662920Y-5093341D01*
X20662920Y-5093341D02*
X20643873Y-5083817D01*
X20643873Y-5083817D02*
X20615301Y-5083817D01*
X20615301Y-5083817D02*
X20596254Y-5074293D01*
X20596254Y-5074293D02*
X20586730Y-5055246D01*
X20586730Y-5055246D02*
X20586730Y-5045722D01*
X20586730Y-5045722D02*
X20596254Y-5026674D01*
X20596254Y-5026674D02*
X20615301Y-5017150D01*
X20615301Y-5017150D02*
X20643873Y-5017150D01*
X20643873Y-5017150D02*
X20662920Y-5026674D01*
X20739111Y-5226674D02*
X20748635Y-5217150D01*
X20748635Y-5217150D02*
X20767682Y-5188579D01*
X20767682Y-5188579D02*
X20777206Y-5169531D01*
X20777206Y-5169531D02*
X20786730Y-5140960D01*
X20786730Y-5140960D02*
X20796254Y-5093341D01*
X20796254Y-5093341D02*
X20796254Y-5055246D01*
X20796254Y-5055246D02*
X20786730Y-5007627D01*
X20786730Y-5007627D02*
X20777206Y-4979055D01*
X20777206Y-4979055D02*
X20767682Y-4960008D01*
X20767682Y-4960008D02*
X20748635Y-4931436D01*
X20748635Y-4931436D02*
X20739111Y-4921912D01*
M02*
