%TF.GenerationSoftware,KiCad,Pcbnew,8.0.3*%
%TF.CreationDate,2024-07-23T17:59:13+08:00*%
%TF.ProjectId,udb-s,7564622d-732e-46b6-9963-61645f706362,rev?*%
%TF.SameCoordinates,Original*%
%TF.FileFunction,Copper,L1,Top*%
%TF.FilePolarity,Positive*%
%FSLAX46Y46*%
G04 Gerber Fmt 4.6, Leading zero omitted, Abs format (unit mm)*
G04 Created by KiCad (PCBNEW 8.0.3) date 2024-07-23 17:59:13*
%MOMM*%
%LPD*%
G01*
G04 APERTURE LIST*
G04 Aperture macros list*
%AMRoundRect*
0 Rectangle with rounded corners*
0 $1 Rounding radius*
0 $2 $3 $4 $5 $6 $7 $8 $9 X,Y pos of 4 corners*
0 Add a 4 corners polygon primitive as box body*
4,1,4,$2,$3,$4,$5,$6,$7,$8,$9,$2,$3,0*
0 Add four circle primitives for the rounded corners*
1,1,$1+$1,$2,$3*
1,1,$1+$1,$4,$5*
1,1,$1+$1,$6,$7*
1,1,$1+$1,$8,$9*
0 Add four rect primitives between the rounded corners*
20,1,$1+$1,$2,$3,$4,$5,0*
20,1,$1+$1,$4,$5,$6,$7,0*
20,1,$1+$1,$6,$7,$8,$9,0*
20,1,$1+$1,$8,$9,$2,$3,0*%
G04 Aperture macros list end*
%TA.AperFunction,SMDPad,CuDef*%
%ADD10RoundRect,0.250000X-0.350000X-0.450000X0.350000X-0.450000X0.350000X0.450000X-0.350000X0.450000X0*%
%TD*%
%TA.AperFunction,SMDPad,CuDef*%
%ADD11R,0.400000X1.000000*%
%TD*%
%TA.AperFunction,SMDPad,CuDef*%
%ADD12R,2.000000X1.300000*%
%TD*%
%TA.AperFunction,SMDPad,CuDef*%
%ADD13R,0.600000X1.450000*%
%TD*%
%TA.AperFunction,SMDPad,CuDef*%
%ADD14R,0.300000X1.450000*%
%TD*%
%TA.AperFunction,ComponentPad*%
%ADD15O,1.000000X2.100000*%
%TD*%
%TA.AperFunction,ComponentPad*%
%ADD16O,1.000000X1.600000*%
%TD*%
%TA.AperFunction,ViaPad*%
%ADD17C,0.600000*%
%TD*%
%TA.AperFunction,Conductor*%
%ADD18C,0.200000*%
%TD*%
%TA.AperFunction,Conductor*%
%ADD19C,0.250000*%
%TD*%
G04 APERTURE END LIST*
D10*
%TO.P,R1,1*%
%TO.N,GND*%
X159000000Y-36050000D03*
%TO.P,R1,2*%
%TO.N,Net-(J1-CC1)*%
X161000000Y-36050000D03*
%TD*%
%TO.P,R2,1*%
%TO.N,Net-(J1-CC2)*%
X159000000Y-39000000D03*
%TO.P,R2,2*%
%TO.N,GND*%
X161000000Y-39000000D03*
%TD*%
D11*
%TO.P,J2,1,Pin_1*%
%TO.N,VBUS*%
X169200000Y-32785000D03*
%TO.P,J2,2,Pin_2*%
%TO.N,D-*%
X170200000Y-32785000D03*
%TO.P,J2,3,Pin_3*%
%TO.N,D+*%
X171200000Y-32785000D03*
%TO.P,J2,4,Pin_4*%
%TO.N,GND*%
X172200000Y-32785000D03*
D12*
%TO.P,J2,MP,MountPin*%
X166400000Y-35485000D03*
X175000000Y-35485000D03*
%TD*%
D13*
%TO.P,J1,A1,GND*%
%TO.N,GND*%
X152965000Y-37975000D03*
%TO.P,J1,A4,VBUS*%
%TO.N,VBUS*%
X152165000Y-37975000D03*
D14*
%TO.P,J1,A5,CC1*%
%TO.N,Net-(J1-CC1)*%
X150965000Y-37975000D03*
%TO.P,J1,A6,D+*%
%TO.N,D+*%
X149965000Y-37975000D03*
%TO.P,J1,A7,D-*%
%TO.N,D-*%
X149465000Y-37975000D03*
%TO.P,J1,A8,SBU1*%
%TO.N,unconnected-(J1-SBU1-PadA8)*%
X148465000Y-37975000D03*
D13*
%TO.P,J1,A9,VBUS*%
%TO.N,VBUS*%
X147265000Y-37975000D03*
%TO.P,J1,A12,GND*%
%TO.N,GND*%
X146465000Y-37975000D03*
%TO.P,J1,B1,GND*%
X146465000Y-37975000D03*
%TO.P,J1,B4,VBUS*%
%TO.N,VBUS*%
X147265000Y-37975000D03*
D14*
%TO.P,J1,B5,CC2*%
%TO.N,Net-(J1-CC2)*%
X147965000Y-37975000D03*
%TO.P,J1,B6,D+*%
%TO.N,D+*%
X148965000Y-37975000D03*
%TO.P,J1,B7,D-*%
%TO.N,D-*%
X150465000Y-37975000D03*
%TO.P,J1,B8,SBU2*%
%TO.N,unconnected-(J1-SBU2-PadB8)*%
X151465000Y-37975000D03*
D13*
%TO.P,J1,B9,VBUS*%
%TO.N,VBUS*%
X152165000Y-37975000D03*
%TO.P,J1,B12,GND*%
%TO.N,GND*%
X152965000Y-37975000D03*
D15*
%TO.P,J1,S1,SHIELD*%
%TO.N,GNDPWR*%
X154035000Y-37060000D03*
D16*
X154035000Y-32880000D03*
D15*
X145395000Y-37060000D03*
D16*
X145395000Y-32880000D03*
%TD*%
D17*
%TO.N,VBUS*%
X151825000Y-39175000D03*
X147475000Y-39100000D03*
X167850000Y-32300000D03*
%TD*%
D18*
%TO.N,GND*%
X161000000Y-37997300D02*
X161976100Y-37021200D01*
X161976100Y-35485000D02*
X161976100Y-35362400D01*
X152965000Y-38743100D02*
X157579900Y-38743100D01*
X166400000Y-35485000D02*
X170701700Y-35485000D01*
X146465000Y-37975000D02*
X146465000Y-39001700D01*
X170701700Y-35485000D02*
X172200000Y-33986700D01*
X175000000Y-35485000D02*
X173698300Y-35485000D01*
X173698300Y-35485000D02*
X172200000Y-33986700D01*
X172200000Y-33986700D02*
X172200000Y-32785000D01*
X152965000Y-38935000D02*
X152965000Y-37975000D01*
X161976100Y-35362400D02*
X161608700Y-34995000D01*
X146465000Y-39001700D02*
X147913300Y-40450000D01*
X161000000Y-39000000D02*
X161000000Y-37997300D01*
X166400000Y-35485000D02*
X165098300Y-35485000D01*
X161976100Y-37021200D02*
X161976100Y-35485000D01*
X147913300Y-40450000D02*
X151450000Y-40450000D01*
X157579900Y-38743100D02*
X158325700Y-37997300D01*
X151450000Y-40450000D02*
X152965000Y-38935000D01*
X161608700Y-34995000D02*
X160055000Y-34995000D01*
X161976100Y-35485000D02*
X165098300Y-35485000D01*
X158325700Y-37997300D02*
X161000000Y-37997300D01*
X152965000Y-37975000D02*
X152965000Y-38743100D01*
X160055000Y-34995000D02*
X159000000Y-36050000D01*
%TO.N,VBUS*%
X152165000Y-38835000D02*
X152165000Y-38790000D01*
X152165000Y-38790000D02*
X152165000Y-37975000D01*
X168715000Y-32300000D02*
X167850000Y-32300000D01*
X151825000Y-39175000D02*
X152165000Y-38835000D01*
X169200000Y-32785000D02*
X168715000Y-32300000D01*
X147265000Y-37975000D02*
X147265000Y-38890000D01*
X147265000Y-38890000D02*
X147475000Y-39100000D01*
D19*
%TO.N,D+*%
X170050000Y-34500000D02*
X152475000Y-34500000D01*
X149965000Y-37010000D02*
X149965000Y-37975000D01*
X171200000Y-32785000D02*
X171200000Y-33350000D01*
X152475000Y-34500000D02*
X149965000Y-37010000D01*
X171200000Y-33350000D02*
X170050000Y-34500000D01*
X149965000Y-37975000D02*
X149965000Y-38500800D01*
%TO.N,D-*%
X170200000Y-32785000D02*
X170200000Y-33625000D01*
X152225000Y-34050000D02*
X149465000Y-36810000D01*
X149465000Y-36810000D02*
X149465000Y-36890000D01*
X170200000Y-33625000D02*
X169775000Y-34050000D01*
X149465000Y-36890000D02*
X149465000Y-37975000D01*
X169775000Y-34050000D02*
X152225000Y-34050000D01*
D18*
%TO.N,Net-(J1-CC2)*%
X145163500Y-35540300D02*
X144550800Y-36153000D01*
X147482200Y-40850000D02*
X157150000Y-40850000D01*
X144550800Y-37918600D02*
X147482200Y-40850000D01*
X157150000Y-40850000D02*
X159000000Y-39000000D01*
X144550800Y-36153000D02*
X144550800Y-37918600D01*
X147965000Y-36295300D02*
X147210000Y-35540300D01*
X147210000Y-35540300D02*
X145163500Y-35540300D01*
X147965000Y-37975000D02*
X147965000Y-36295300D01*
%TO.N,Net-(J1-CC1)*%
X150965000Y-36859500D02*
X150965000Y-36948300D01*
X154262100Y-35603300D02*
X152221200Y-35603300D01*
X152221200Y-35603300D02*
X150965000Y-36859500D01*
X159989100Y-37060900D02*
X155719700Y-37060900D01*
X161000000Y-36050000D02*
X159989100Y-37060900D01*
X155719700Y-37060900D02*
X154262100Y-35603300D01*
X150965000Y-37975000D02*
X150965000Y-36948300D01*
%TD*%
%TA.AperFunction,Conductor*%
%TO.N,GND*%
G36*
X177509640Y-32001526D02*
G01*
X177635109Y-32021399D01*
X177672004Y-32033386D01*
X177776396Y-32086577D01*
X177807781Y-32109380D01*
X177890619Y-32192218D01*
X177913423Y-32223604D01*
X177966612Y-32327994D01*
X177978600Y-32364890D01*
X177992527Y-32452819D01*
X177998064Y-32487779D01*
X177998473Y-32490358D01*
X178000000Y-32509757D01*
X178000000Y-40490242D01*
X177998473Y-40509641D01*
X177978600Y-40635109D01*
X177966612Y-40672005D01*
X177913423Y-40776395D01*
X177890619Y-40807781D01*
X177807781Y-40890619D01*
X177776395Y-40913423D01*
X177672005Y-40966612D01*
X177635109Y-40978600D01*
X177538757Y-40993861D01*
X177509639Y-40998473D01*
X177490243Y-41000000D01*
X157724333Y-41000000D01*
X157636652Y-40963681D01*
X157600333Y-40876000D01*
X157636652Y-40788319D01*
X157789863Y-40635108D01*
X158491069Y-39933900D01*
X158578749Y-39897582D01*
X158602939Y-39899965D01*
X158605629Y-39900500D01*
X159394370Y-39900499D01*
X159525776Y-39874362D01*
X159674793Y-39774793D01*
X159727757Y-39695525D01*
X159806666Y-39642800D01*
X159899748Y-39661314D01*
X159942258Y-39709956D01*
X160031173Y-39891832D01*
X160031173Y-39891833D01*
X160208166Y-40068826D01*
X160208169Y-40068828D01*
X160433035Y-40178758D01*
X160578830Y-40200000D01*
X160750000Y-40200000D01*
X161250000Y-40200000D01*
X161421170Y-40200000D01*
X161566964Y-40178758D01*
X161791830Y-40068828D01*
X161791833Y-40068826D01*
X161968826Y-39891833D01*
X161968828Y-39891830D01*
X162078758Y-39666964D01*
X162100000Y-39521170D01*
X162100000Y-39250000D01*
X161250000Y-39250000D01*
X161250000Y-40200000D01*
X160750000Y-40200000D01*
X160750000Y-38750000D01*
X161250000Y-38750000D01*
X162100000Y-38750000D01*
X162100000Y-38478829D01*
X162078758Y-38333035D01*
X161968828Y-38108169D01*
X161968826Y-38108166D01*
X161791833Y-37931173D01*
X161791830Y-37931171D01*
X161566964Y-37821241D01*
X161421170Y-37800000D01*
X161250000Y-37800000D01*
X161250000Y-38750000D01*
X160750000Y-38750000D01*
X160750000Y-37800000D01*
X160578830Y-37800000D01*
X160433035Y-37821241D01*
X160208169Y-37931171D01*
X160208166Y-37931173D01*
X160031173Y-38108166D01*
X160031173Y-38108167D01*
X159942258Y-38290043D01*
X159871120Y-38352864D01*
X159776397Y-38346982D01*
X159727756Y-38304473D01*
X159674793Y-38225207D01*
X159674792Y-38225206D01*
X159525776Y-38125637D01*
X159394373Y-38099500D01*
X158605631Y-38099500D01*
X158518223Y-38116886D01*
X158474224Y-38125638D01*
X158474223Y-38125638D01*
X158474221Y-38125639D01*
X158325207Y-38225206D01*
X158225637Y-38374223D01*
X158225637Y-38374224D01*
X158199500Y-38505624D01*
X158199500Y-39324166D01*
X158163181Y-39411847D01*
X157061848Y-40513181D01*
X156974167Y-40549500D01*
X147658033Y-40549500D01*
X147570352Y-40513181D01*
X146251319Y-39194148D01*
X146215000Y-39106467D01*
X146215000Y-38225000D01*
X146063572Y-38225000D01*
X145975891Y-38188681D01*
X145939572Y-38101000D01*
X145956185Y-38039000D01*
X145966133Y-38021768D01*
X146047762Y-37880383D01*
X146064771Y-37816904D01*
X146122545Y-37741613D01*
X146184545Y-37725000D01*
X146215000Y-37725000D01*
X146215000Y-37103952D01*
X146251319Y-37016271D01*
X146339000Y-36979952D01*
X146426681Y-37016271D01*
X146440934Y-37030524D01*
X146583566Y-37112873D01*
X146583565Y-37112873D01*
X146593797Y-37115614D01*
X146623092Y-37123464D01*
X146698386Y-37181236D01*
X146715000Y-37243238D01*
X146715000Y-39200000D01*
X146814248Y-39200000D01*
X146856483Y-39191598D01*
X146949566Y-39210111D01*
X147002294Y-39289021D01*
X147003540Y-39295285D01*
X147114160Y-39460840D01*
X147279715Y-39571460D01*
X147279718Y-39571460D01*
X147279719Y-39571461D01*
X147474998Y-39610305D01*
X147475000Y-39610305D01*
X147475002Y-39610305D01*
X147670280Y-39571461D01*
X147670280Y-39571460D01*
X147670285Y-39571460D01*
X147835840Y-39460840D01*
X147946460Y-39295285D01*
X147947706Y-39289021D01*
X147985305Y-39100002D01*
X147985305Y-39099999D01*
X147975099Y-39048692D01*
X147993613Y-38955610D01*
X148072524Y-38902883D01*
X148096716Y-38900500D01*
X148134750Y-38900500D01*
X148190808Y-38889349D01*
X148239192Y-38889349D01*
X148295249Y-38900500D01*
X148295252Y-38900500D01*
X148634750Y-38900500D01*
X148690808Y-38889349D01*
X148739192Y-38889349D01*
X148795249Y-38900500D01*
X148795252Y-38900500D01*
X149134750Y-38900500D01*
X149190808Y-38889349D01*
X149239192Y-38889349D01*
X149295249Y-38900500D01*
X149295252Y-38900500D01*
X149634750Y-38900500D01*
X149690808Y-38889349D01*
X149739192Y-38889349D01*
X149795249Y-38900500D01*
X149795252Y-38900500D01*
X150134750Y-38900500D01*
X150190808Y-38889349D01*
X150239192Y-38889349D01*
X150295249Y-38900500D01*
X150295252Y-38900500D01*
X150634750Y-38900500D01*
X150690808Y-38889349D01*
X150739192Y-38889349D01*
X150795249Y-38900500D01*
X150795252Y-38900500D01*
X151134750Y-38900500D01*
X151190808Y-38889349D01*
X151239197Y-38889349D01*
X151244749Y-38890454D01*
X151244868Y-38890478D01*
X151323776Y-38943210D01*
X151342286Y-39036285D01*
X151314695Y-39174997D01*
X151314695Y-39175002D01*
X151353538Y-39370280D01*
X151353539Y-39370283D01*
X151353540Y-39370285D01*
X151464160Y-39535840D01*
X151629715Y-39646460D01*
X151629718Y-39646460D01*
X151629719Y-39646461D01*
X151824998Y-39685305D01*
X151825000Y-39685305D01*
X151825002Y-39685305D01*
X152020280Y-39646461D01*
X152020280Y-39646460D01*
X152020285Y-39646460D01*
X152185840Y-39535840D01*
X152296460Y-39370285D01*
X152317004Y-39267001D01*
X152369730Y-39188093D01*
X152462812Y-39169577D01*
X152462813Y-39169578D01*
X152615749Y-39200000D01*
X152715000Y-39200000D01*
X152715000Y-38225000D01*
X152701819Y-38211819D01*
X152665500Y-38124138D01*
X152665500Y-37825862D01*
X152701819Y-37738181D01*
X152715000Y-37725000D01*
X152715000Y-37243238D01*
X152751319Y-37155557D01*
X152806906Y-37123464D01*
X152846434Y-37112873D01*
X152989066Y-37030524D01*
X153003319Y-37016271D01*
X153091000Y-36979952D01*
X153178681Y-37016271D01*
X153215000Y-37103952D01*
X153215000Y-39200000D01*
X153314250Y-39200000D01*
X153314252Y-39199999D01*
X153460085Y-39170991D01*
X153460089Y-39170989D01*
X153625479Y-39060479D01*
X153735989Y-38895089D01*
X153735991Y-38895085D01*
X153764999Y-38749252D01*
X153765000Y-38749250D01*
X153765000Y-38424464D01*
X153801319Y-38336783D01*
X153889000Y-38300464D01*
X153921092Y-38304689D01*
X153942777Y-38310500D01*
X153942779Y-38310500D01*
X154127220Y-38310500D01*
X154127223Y-38310500D01*
X154305383Y-38262762D01*
X154465117Y-38170540D01*
X154595540Y-38040117D01*
X154687762Y-37880383D01*
X154735500Y-37702223D01*
X154735500Y-36801033D01*
X154771819Y-36713352D01*
X154859500Y-36677033D01*
X154947181Y-36713352D01*
X155549481Y-37315652D01*
X155597400Y-37335500D01*
X155659927Y-37361400D01*
X155659928Y-37361400D01*
X160048871Y-37361400D01*
X160048873Y-37361400D01*
X160126970Y-37329050D01*
X160159320Y-37315651D01*
X160491069Y-36983900D01*
X160578749Y-36947582D01*
X160602939Y-36949965D01*
X160605629Y-36950500D01*
X161394370Y-36950499D01*
X161525776Y-36924362D01*
X161674793Y-36824793D01*
X161774362Y-36675776D01*
X161800500Y-36544371D01*
X161800500Y-36184252D01*
X164900000Y-36184252D01*
X164929008Y-36330085D01*
X164929010Y-36330089D01*
X165039520Y-36495479D01*
X165204910Y-36605989D01*
X165204914Y-36605991D01*
X165350747Y-36634999D01*
X165350750Y-36635000D01*
X166150000Y-36635000D01*
X166650000Y-36635000D01*
X167449250Y-36635000D01*
X167449252Y-36634999D01*
X167595085Y-36605991D01*
X167595089Y-36605989D01*
X167760479Y-36495479D01*
X167870989Y-36330089D01*
X167870991Y-36330085D01*
X167899999Y-36184252D01*
X173500000Y-36184252D01*
X173529008Y-36330085D01*
X173529010Y-36330089D01*
X173639520Y-36495479D01*
X173804910Y-36605989D01*
X173804914Y-36605991D01*
X173950747Y-36634999D01*
X173950750Y-36635000D01*
X174750000Y-36635000D01*
X175250000Y-36635000D01*
X176049250Y-36635000D01*
X176049252Y-36634999D01*
X176195085Y-36605991D01*
X176195089Y-36605989D01*
X176360479Y-36495479D01*
X176470989Y-36330089D01*
X176470991Y-36330085D01*
X176499999Y-36184252D01*
X176500000Y-36184250D01*
X176500000Y-35735000D01*
X175250000Y-35735000D01*
X175250000Y-36635000D01*
X174750000Y-36635000D01*
X174750000Y-35735000D01*
X173500000Y-35735000D01*
X173500000Y-36184252D01*
X167899999Y-36184252D01*
X167900000Y-36184250D01*
X167900000Y-35735000D01*
X166650000Y-35735000D01*
X166650000Y-36635000D01*
X166150000Y-36635000D01*
X166150000Y-35735000D01*
X164900000Y-35735000D01*
X164900000Y-36184252D01*
X161800500Y-36184252D01*
X161800499Y-35555630D01*
X161774362Y-35424224D01*
X161774360Y-35424221D01*
X161774361Y-35424221D01*
X161674793Y-35275207D01*
X161525776Y-35175637D01*
X161394373Y-35149500D01*
X160605631Y-35149500D01*
X160518223Y-35166886D01*
X160474224Y-35175638D01*
X160474223Y-35175638D01*
X160474221Y-35175639D01*
X160325207Y-35275206D01*
X160272243Y-35354473D01*
X160193332Y-35407199D01*
X160100250Y-35388684D01*
X160057741Y-35340043D01*
X159968826Y-35158166D01*
X159847841Y-35037181D01*
X159811522Y-34949500D01*
X159847841Y-34861819D01*
X159935522Y-34825500D01*
X164776000Y-34825500D01*
X164863681Y-34861819D01*
X164900000Y-34949500D01*
X164900000Y-35235000D01*
X167900000Y-35235000D01*
X167900000Y-34949500D01*
X167936319Y-34861819D01*
X168024000Y-34825500D01*
X170114744Y-34825500D01*
X170114746Y-34825500D01*
X170174563Y-34800723D01*
X170210720Y-34785747D01*
X173500000Y-34785747D01*
X173500000Y-35235000D01*
X174750000Y-35235000D01*
X175250000Y-35235000D01*
X176500000Y-35235000D01*
X176500000Y-34785749D01*
X176499999Y-34785747D01*
X176470991Y-34639914D01*
X176470989Y-34639910D01*
X176360479Y-34474520D01*
X176195089Y-34364010D01*
X176195085Y-34364008D01*
X176049251Y-34335000D01*
X175250000Y-34335000D01*
X175250000Y-35235000D01*
X174750000Y-35235000D01*
X174750000Y-34335000D01*
X173950749Y-34335000D01*
X173804914Y-34364008D01*
X173804910Y-34364010D01*
X173639520Y-34474520D01*
X173529010Y-34639910D01*
X173529008Y-34639914D01*
X173500000Y-34785747D01*
X170210720Y-34785747D01*
X170234378Y-34775948D01*
X170234379Y-34775946D01*
X170234381Y-34775946D01*
X171422662Y-33587664D01*
X171510342Y-33551346D01*
X171598023Y-33587665D01*
X171613444Y-33606454D01*
X171639521Y-33645480D01*
X171804910Y-33755989D01*
X171804914Y-33755991D01*
X171950747Y-33784999D01*
X171950750Y-33785000D01*
X172000000Y-33785000D01*
X172400000Y-33785000D01*
X172449250Y-33785000D01*
X172449252Y-33784999D01*
X172595085Y-33755991D01*
X172595089Y-33755989D01*
X172760479Y-33645479D01*
X172870989Y-33480089D01*
X172870991Y-33480085D01*
X172899999Y-33334252D01*
X172900000Y-33334250D01*
X172900000Y-32985000D01*
X172400000Y-32985000D01*
X172400000Y-33785000D01*
X172000000Y-33785000D01*
X172000000Y-32709000D01*
X172036319Y-32621319D01*
X172124000Y-32585000D01*
X172900000Y-32585000D01*
X172900000Y-32235749D01*
X172899999Y-32235747D01*
X172882584Y-32148191D01*
X172901099Y-32055109D01*
X172980010Y-32002383D01*
X173004201Y-32000000D01*
X177411837Y-32000000D01*
X177490243Y-32000000D01*
X177509640Y-32001526D01*
G37*
%TD.AperFunction*%
%TA.AperFunction,Conductor*%
G36*
X158152159Y-34861819D02*
G01*
X158188478Y-34949500D01*
X158152159Y-35037181D01*
X158031173Y-35158166D01*
X158031171Y-35158169D01*
X157921241Y-35383035D01*
X157900000Y-35528829D01*
X157900000Y-35800000D01*
X159126000Y-35800000D01*
X159213681Y-35836319D01*
X159250000Y-35924000D01*
X159250000Y-36176000D01*
X159213681Y-36263681D01*
X159126000Y-36300000D01*
X157900000Y-36300000D01*
X157900000Y-36571169D01*
X157906899Y-36618523D01*
X157883600Y-36710524D01*
X157802071Y-36759105D01*
X157784194Y-36760400D01*
X155895533Y-36760400D01*
X155807852Y-36724081D01*
X154432322Y-35348550D01*
X154432318Y-35348548D01*
X154399970Y-35335148D01*
X154399970Y-35335149D01*
X154321875Y-35302800D01*
X154321873Y-35302800D01*
X152431888Y-35302800D01*
X152344207Y-35266481D01*
X152307888Y-35178800D01*
X152344207Y-35091119D01*
X152398146Y-35037181D01*
X152573508Y-34861819D01*
X152661189Y-34825500D01*
X158064478Y-34825500D01*
X158152159Y-34861819D01*
G37*
%TD.AperFunction*%
%TD*%
M02*
