%TF.GenerationSoftware,KiCad,Pcbnew,8.0.3*%
%TF.CreationDate,2024-11-28T23:23:16+08:00*%
%TF.ProjectId,PH60_Rev2,50483630-5f52-4657-9632-2e6b69636164,rev?*%
%TF.SameCoordinates,Original*%
%TF.FileFunction,Drillmap*%
%TF.FilePolarity,Positive*%
%FSLAX45Y45*%
G04 Gerber Fmt 4.5, Leading zero omitted, Abs format (unit mm)*
G04 Created by KiCad (PCBNEW 8.0.3) date 2024-11-28 23:23:16*
%MOMM*%
%LPD*%
G01*
G04 APERTURE LIST*
%ADD10C,0.050000*%
%ADD11C,0.100000*%
%ADD12C,0.200000*%
%ADD13C,0.305000*%
G04 APERTURE END LIST*
D10*
X2857500Y-3157500D02*
G75*
G02*
X3157500Y-2857500I300000J0D01*
G01*
X3157500Y-12382500D02*
G75*
G02*
X2857500Y-12082500I0J300000D01*
G01*
X3157500Y-12382500D02*
X31132500Y-12382500D01*
X31132500Y-2857500D02*
X3157500Y-2857500D01*
X31432500Y-12082500D02*
X31432500Y-3157500D01*
X2857500Y-3157500D02*
X2857500Y-12082500D01*
X31432500Y-12082500D02*
G75*
G02*
X31132500Y-12382500I-300000J0D01*
G01*
X31132500Y-2857500D02*
G75*
G02*
X31432500Y-3157500I0J-300000D01*
G01*
D11*
X14117500Y-6194716D02*
X14117500Y-6335284D01*
X14208055Y-6415000D02*
X14366945Y-6415000D01*
X14366945Y-6115000D02*
X14208055Y-6115000D01*
X14457500Y-6335284D02*
X14457500Y-6194716D01*
X14112552Y-6173028D02*
G75*
G02*
X14117501Y-6194716I-45102J-21702D01*
G01*
X14112552Y-6173028D02*
G75*
G02*
X14182829Y-6108170I45051J21688D01*
G01*
X14117500Y-6335284D02*
G75*
G02*
X14112552Y-6356972I-50042J9D01*
G01*
X14182829Y-6421830D02*
G75*
G02*
X14112552Y-6356972I-25226J43170D01*
G01*
X14182829Y-6421830D02*
G75*
G02*
X14208055Y-6415000I25226J-43171D01*
G01*
X14208055Y-6115000D02*
G75*
G02*
X14182829Y-6108170I0J50001D01*
G01*
X14366945Y-6415000D02*
G75*
G02*
X14392171Y-6421830I0J-50001D01*
G01*
X14392171Y-6108170D02*
G75*
G02*
X14366945Y-6115000I-25226J43171D01*
G01*
X14392171Y-6108170D02*
G75*
G02*
X14462448Y-6173028I25226J-43170D01*
G01*
X14457500Y-6194716D02*
G75*
G02*
X14462448Y-6173028I49999J0D01*
G01*
X14462448Y-6356972D02*
G75*
G02*
X14392171Y-6421830I-45052J-21688D01*
G01*
X14462448Y-6356972D02*
G75*
G02*
X14457500Y-6335284I45051J21688D01*
G01*
X15784375Y-11909716D02*
X15784375Y-12050284D01*
X15874930Y-12130000D02*
X16033820Y-12130000D01*
X16033820Y-11830000D02*
X15874930Y-11830000D01*
X16124375Y-12050284D02*
X16124375Y-11909716D01*
X15779427Y-11888028D02*
G75*
G02*
X15784376Y-11909716I-45102J-21702D01*
G01*
X15779427Y-11888028D02*
G75*
G02*
X15849704Y-11823170I45051J21688D01*
G01*
X15784375Y-12050284D02*
G75*
G02*
X15779427Y-12071972I-50042J9D01*
G01*
X15849704Y-12136830D02*
G75*
G02*
X15779427Y-12071972I-25226J43170D01*
G01*
X15849704Y-12136830D02*
G75*
G02*
X15874930Y-12130000I25226J-43171D01*
G01*
X15874930Y-11830000D02*
G75*
G02*
X15849704Y-11823170I0J50001D01*
G01*
X16033820Y-12130000D02*
G75*
G02*
X16059046Y-12136830I0J-50001D01*
G01*
X16059046Y-11823170D02*
G75*
G02*
X16033820Y-11830000I-25226J43171D01*
G01*
X16059046Y-11823170D02*
G75*
G02*
X16129323Y-11888028I25226J-43170D01*
G01*
X16124375Y-11909716D02*
G75*
G02*
X16129323Y-11888028I49999J0D01*
G01*
X16129323Y-12071972D02*
G75*
G02*
X16059046Y-12136830I-45052J-21688D01*
G01*
X16129323Y-12071972D02*
G75*
G02*
X16124375Y-12050284I45051J21688D01*
G01*
X29357500Y-4289716D02*
X29357500Y-4430284D01*
X29448055Y-4510000D02*
X29606945Y-4510000D01*
X29606945Y-4210000D02*
X29448055Y-4210000D01*
X29697500Y-4430284D02*
X29697500Y-4289716D01*
X29352552Y-4268028D02*
G75*
G02*
X29357501Y-4289716I-45102J-21702D01*
G01*
X29352552Y-4268028D02*
G75*
G02*
X29422829Y-4203170I45051J21688D01*
G01*
X29357500Y-4430284D02*
G75*
G02*
X29352552Y-4451972I-50042J9D01*
G01*
X29422829Y-4516830D02*
G75*
G02*
X29352552Y-4451972I-25226J43170D01*
G01*
X29422829Y-4516830D02*
G75*
G02*
X29448055Y-4510000I25226J-43171D01*
G01*
X29448055Y-4210000D02*
G75*
G02*
X29422829Y-4203170I0J50001D01*
G01*
X29606945Y-4510000D02*
G75*
G02*
X29632171Y-4516830I0J-50001D01*
G01*
X29632171Y-4203170D02*
G75*
G02*
X29606945Y-4210000I-25226J43171D01*
G01*
X29632171Y-4203170D02*
G75*
G02*
X29702448Y-4268028I25226J-43170D01*
G01*
X29697500Y-4289716D02*
G75*
G02*
X29702448Y-4268028I49999J0D01*
G01*
X29702448Y-4451972D02*
G75*
G02*
X29632171Y-4516830I-45052J-21688D01*
G01*
X29702448Y-4451972D02*
G75*
G02*
X29697500Y-4430284I45051J21688D01*
G01*
X3878125Y-11909716D02*
X3878125Y-12050284D01*
X3968680Y-12130000D02*
X4127570Y-12130000D01*
X4127570Y-11830000D02*
X3968680Y-11830000D01*
X4218125Y-12050284D02*
X4218125Y-11909716D01*
X3873177Y-11888028D02*
G75*
G02*
X3878126Y-11909716I-45102J-21702D01*
G01*
X3873177Y-11888028D02*
G75*
G02*
X3943454Y-11823170I45051J21688D01*
G01*
X3878125Y-12050284D02*
G75*
G02*
X3873177Y-12071972I-50042J9D01*
G01*
X3943454Y-12136830D02*
G75*
G02*
X3873177Y-12071972I-25226J43170D01*
G01*
X3943454Y-12136830D02*
G75*
G02*
X3968680Y-12130000I25226J-43171D01*
G01*
X3968680Y-11830000D02*
G75*
G02*
X3943454Y-11823170I0J50001D01*
G01*
X4127570Y-12130000D02*
G75*
G02*
X4152796Y-12136830I0J-50001D01*
G01*
X4152796Y-11823170D02*
G75*
G02*
X4127570Y-11830000I-25226J43171D01*
G01*
X4152796Y-11823170D02*
G75*
G02*
X4223073Y-11888028I25226J-43170D01*
G01*
X4218125Y-11909716D02*
G75*
G02*
X4223073Y-11888028I49999J0D01*
G01*
X4223073Y-12071972D02*
G75*
G02*
X4152796Y-12136830I-45052J-21688D01*
G01*
X4223073Y-12071972D02*
G75*
G02*
X4218125Y-12050284I45051J21688D01*
G01*
X8640625Y-11909716D02*
X8640625Y-12050284D01*
X8731180Y-12130000D02*
X8890070Y-12130000D01*
X8890070Y-11830000D02*
X8731180Y-11830000D01*
X8980625Y-12050284D02*
X8980625Y-11909716D01*
X8635677Y-11888028D02*
G75*
G02*
X8640626Y-11909716I-45102J-21702D01*
G01*
X8635677Y-11888028D02*
G75*
G02*
X8705954Y-11823170I45051J21688D01*
G01*
X8640625Y-12050284D02*
G75*
G02*
X8635677Y-12071972I-50042J9D01*
G01*
X8705954Y-12136830D02*
G75*
G02*
X8635677Y-12071972I-25226J43170D01*
G01*
X8705954Y-12136830D02*
G75*
G02*
X8731180Y-12130000I25226J-43171D01*
G01*
X8731180Y-11830000D02*
G75*
G02*
X8705954Y-11823170I0J50001D01*
G01*
X8890070Y-12130000D02*
G75*
G02*
X8915296Y-12136830I0J-50001D01*
G01*
X8915296Y-11823170D02*
G75*
G02*
X8890070Y-11830000I-25226J43171D01*
G01*
X8915296Y-11823170D02*
G75*
G02*
X8985573Y-11888028I25226J-43170D01*
G01*
X8980625Y-11909716D02*
G75*
G02*
X8985573Y-11888028I49999J0D01*
G01*
X8985573Y-12071972D02*
G75*
G02*
X8915296Y-12136830I-45052J-21688D01*
G01*
X8985573Y-12071972D02*
G75*
G02*
X8980625Y-12050284I45051J21688D01*
G01*
X22213750Y-8099716D02*
X22213750Y-8240284D01*
X22304305Y-8320000D02*
X22463195Y-8320000D01*
X22463195Y-8020000D02*
X22304305Y-8020000D01*
X22553750Y-8240284D02*
X22553750Y-8099716D01*
X22208802Y-8078028D02*
G75*
G02*
X22213751Y-8099716I-45102J-21702D01*
G01*
X22208802Y-8078028D02*
G75*
G02*
X22279079Y-8013170I45051J21688D01*
G01*
X22213750Y-8240284D02*
G75*
G02*
X22208802Y-8261972I-50042J9D01*
G01*
X22279079Y-8326830D02*
G75*
G02*
X22208802Y-8261972I-25226J43170D01*
G01*
X22279079Y-8326830D02*
G75*
G02*
X22304305Y-8320000I25226J-43171D01*
G01*
X22304305Y-8020000D02*
G75*
G02*
X22279079Y-8013170I0J50001D01*
G01*
X22463195Y-8320000D02*
G75*
G02*
X22488421Y-8326830I0J-50001D01*
G01*
X22488421Y-8013170D02*
G75*
G02*
X22463195Y-8020000I-25226J43171D01*
G01*
X22488421Y-8013170D02*
G75*
G02*
X22558698Y-8078028I25226J-43170D01*
G01*
X22553750Y-8099716D02*
G75*
G02*
X22558698Y-8078028I49999J0D01*
G01*
X22558698Y-8261972D02*
G75*
G02*
X22488421Y-8326830I-45052J-21688D01*
G01*
X22558698Y-8261972D02*
G75*
G02*
X22553750Y-8240284I45051J21688D01*
G01*
X20308750Y-8099716D02*
X20308750Y-8240284D01*
X20399305Y-8320000D02*
X20558195Y-8320000D01*
X20558195Y-8020000D02*
X20399305Y-8020000D01*
X20648750Y-8240284D02*
X20648750Y-8099716D01*
X20303802Y-8078028D02*
G75*
G02*
X20308751Y-8099716I-45102J-21702D01*
G01*
X20303802Y-8078028D02*
G75*
G02*
X20374079Y-8013170I45051J21688D01*
G01*
X20308750Y-8240284D02*
G75*
G02*
X20303802Y-8261972I-50042J9D01*
G01*
X20374079Y-8326830D02*
G75*
G02*
X20303802Y-8261972I-25226J43170D01*
G01*
X20374079Y-8326830D02*
G75*
G02*
X20399305Y-8320000I25226J-43171D01*
G01*
X20399305Y-8020000D02*
G75*
G02*
X20374079Y-8013170I0J50001D01*
G01*
X20558195Y-8320000D02*
G75*
G02*
X20583421Y-8326830I0J-50001D01*
G01*
X20583421Y-8013170D02*
G75*
G02*
X20558195Y-8020000I-25226J43171D01*
G01*
X20583421Y-8013170D02*
G75*
G02*
X20653698Y-8078028I25226J-43170D01*
G01*
X20648750Y-8099716D02*
G75*
G02*
X20653698Y-8078028I49999J0D01*
G01*
X20653698Y-8261972D02*
G75*
G02*
X20583421Y-8326830I-45052J-21688D01*
G01*
X20653698Y-8261972D02*
G75*
G02*
X20648750Y-8240284I45051J21688D01*
G01*
X23166250Y-10004716D02*
X23166250Y-10145284D01*
X23256805Y-10225000D02*
X23415695Y-10225000D01*
X23415695Y-9925000D02*
X23256805Y-9925000D01*
X23506250Y-10145284D02*
X23506250Y-10004716D01*
X23161302Y-9983028D02*
G75*
G02*
X23166251Y-10004716I-45102J-21702D01*
G01*
X23161302Y-9983028D02*
G75*
G02*
X23231579Y-9918170I45051J21688D01*
G01*
X23166250Y-10145284D02*
G75*
G02*
X23161302Y-10166972I-50042J9D01*
G01*
X23231579Y-10231830D02*
G75*
G02*
X23161302Y-10166972I-25226J43170D01*
G01*
X23231579Y-10231830D02*
G75*
G02*
X23256805Y-10225000I25226J-43171D01*
G01*
X23256805Y-9925000D02*
G75*
G02*
X23231579Y-9918170I0J50001D01*
G01*
X23415695Y-10225000D02*
G75*
G02*
X23440921Y-10231830I0J-50001D01*
G01*
X23440921Y-9918170D02*
G75*
G02*
X23415695Y-9925000I-25226J43171D01*
G01*
X23440921Y-9918170D02*
G75*
G02*
X23511198Y-9983028I25226J-43170D01*
G01*
X23506250Y-10004716D02*
G75*
G02*
X23511198Y-9983028I49999J0D01*
G01*
X23511198Y-10166972D02*
G75*
G02*
X23440921Y-10231830I-45052J-21688D01*
G01*
X23511198Y-10166972D02*
G75*
G02*
X23506250Y-10145284I45051J21688D01*
G01*
X7450000Y-4289716D02*
X7450000Y-4430284D01*
X7540555Y-4510000D02*
X7699445Y-4510000D01*
X7699445Y-4210000D02*
X7540555Y-4210000D01*
X7790000Y-4430284D02*
X7790000Y-4289716D01*
X7445052Y-4268028D02*
G75*
G02*
X7450001Y-4289716I-45102J-21702D01*
G01*
X7445052Y-4268028D02*
G75*
G02*
X7515329Y-4203170I45051J21688D01*
G01*
X7450000Y-4430284D02*
G75*
G02*
X7445052Y-4451972I-50042J9D01*
G01*
X7515329Y-4516830D02*
G75*
G02*
X7445052Y-4451972I-25226J43170D01*
G01*
X7515329Y-4516830D02*
G75*
G02*
X7540555Y-4510000I25226J-43171D01*
G01*
X7540555Y-4210000D02*
G75*
G02*
X7515329Y-4203170I0J50001D01*
G01*
X7699445Y-4510000D02*
G75*
G02*
X7724671Y-4516830I0J-50001D01*
G01*
X7724671Y-4203170D02*
G75*
G02*
X7699445Y-4210000I-25226J43171D01*
G01*
X7724671Y-4203170D02*
G75*
G02*
X7794948Y-4268028I25226J-43170D01*
G01*
X7790000Y-4289716D02*
G75*
G02*
X7794948Y-4268028I49999J0D01*
G01*
X7794948Y-4451972D02*
G75*
G02*
X7724671Y-4516830I-45052J-21688D01*
G01*
X7794948Y-4451972D02*
G75*
G02*
X7790000Y-4430284I45051J21688D01*
G01*
X25309375Y-11909716D02*
X25309375Y-12050284D01*
X25399930Y-12130000D02*
X25558820Y-12130000D01*
X25558820Y-11830000D02*
X25399930Y-11830000D01*
X25649375Y-12050284D02*
X25649375Y-11909716D01*
X25304427Y-11888028D02*
G75*
G02*
X25309376Y-11909716I-45102J-21702D01*
G01*
X25304427Y-11888028D02*
G75*
G02*
X25374704Y-11823170I45051J21688D01*
G01*
X25309375Y-12050284D02*
G75*
G02*
X25304427Y-12071972I-50042J9D01*
G01*
X25374704Y-12136830D02*
G75*
G02*
X25304427Y-12071972I-25226J43170D01*
G01*
X25374704Y-12136830D02*
G75*
G02*
X25399930Y-12130000I25226J-43171D01*
G01*
X25399930Y-11830000D02*
G75*
G02*
X25374704Y-11823170I0J50001D01*
G01*
X25558820Y-12130000D02*
G75*
G02*
X25584046Y-12136830I0J-50001D01*
G01*
X25584046Y-11823170D02*
G75*
G02*
X25558820Y-11830000I-25226J43171D01*
G01*
X25584046Y-11823170D02*
G75*
G02*
X25654323Y-11888028I25226J-43170D01*
G01*
X25649375Y-11909716D02*
G75*
G02*
X25654323Y-11888028I49999J0D01*
G01*
X25654323Y-12071972D02*
G75*
G02*
X25584046Y-12136830I-45052J-21688D01*
G01*
X25654323Y-12071972D02*
G75*
G02*
X25649375Y-12050284I45051J21688D01*
G01*
X11260000Y-4289716D02*
X11260000Y-4430284D01*
X11350555Y-4510000D02*
X11509445Y-4510000D01*
X11509445Y-4210000D02*
X11350555Y-4210000D01*
X11600000Y-4430284D02*
X11600000Y-4289716D01*
X11255052Y-4268028D02*
G75*
G02*
X11260001Y-4289716I-45102J-21702D01*
G01*
X11255052Y-4268028D02*
G75*
G02*
X11325329Y-4203170I45051J21688D01*
G01*
X11260000Y-4430284D02*
G75*
G02*
X11255052Y-4451972I-50042J9D01*
G01*
X11325329Y-4516830D02*
G75*
G02*
X11255052Y-4451972I-25226J43170D01*
G01*
X11325329Y-4516830D02*
G75*
G02*
X11350555Y-4510000I25226J-43171D01*
G01*
X11350555Y-4210000D02*
G75*
G02*
X11325329Y-4203170I0J50001D01*
G01*
X11509445Y-4510000D02*
G75*
G02*
X11534671Y-4516830I0J-50001D01*
G01*
X11534671Y-4203170D02*
G75*
G02*
X11509445Y-4210000I-25226J43171D01*
G01*
X11534671Y-4203170D02*
G75*
G02*
X11604948Y-4268028I25226J-43170D01*
G01*
X11600000Y-4289716D02*
G75*
G02*
X11604948Y-4268028I49999J0D01*
G01*
X11604948Y-4451972D02*
G75*
G02*
X11534671Y-4516830I-45052J-21688D01*
G01*
X11604948Y-4451972D02*
G75*
G02*
X11600000Y-4430284I45051J21688D01*
G01*
X6497500Y-6194716D02*
X6497500Y-6335284D01*
X6588055Y-6415000D02*
X6746945Y-6415000D01*
X6746945Y-6115000D02*
X6588055Y-6115000D01*
X6837500Y-6335284D02*
X6837500Y-6194716D01*
X6492552Y-6173028D02*
G75*
G02*
X6497501Y-6194716I-45102J-21702D01*
G01*
X6492552Y-6173028D02*
G75*
G02*
X6562829Y-6108170I45051J21688D01*
G01*
X6497500Y-6335284D02*
G75*
G02*
X6492552Y-6356972I-50042J9D01*
G01*
X6562829Y-6421830D02*
G75*
G02*
X6492552Y-6356972I-25226J43170D01*
G01*
X6562829Y-6421830D02*
G75*
G02*
X6588055Y-6415000I25226J-43171D01*
G01*
X6588055Y-6115000D02*
G75*
G02*
X6562829Y-6108170I0J50001D01*
G01*
X6746945Y-6415000D02*
G75*
G02*
X6772171Y-6421830I0J-50001D01*
G01*
X6772171Y-6108170D02*
G75*
G02*
X6746945Y-6115000I-25226J43171D01*
G01*
X6772171Y-6108170D02*
G75*
G02*
X6842448Y-6173028I25226J-43170D01*
G01*
X6837500Y-6194716D02*
G75*
G02*
X6842448Y-6173028I49999J0D01*
G01*
X6842448Y-6356972D02*
G75*
G02*
X6772171Y-6421830I-45052J-21688D01*
G01*
X6842448Y-6356972D02*
G75*
G02*
X6837500Y-6335284I45051J21688D01*
G01*
X21737500Y-6194716D02*
X21737500Y-6335284D01*
X21828055Y-6415000D02*
X21986945Y-6415000D01*
X21986945Y-6115000D02*
X21828055Y-6115000D01*
X22077500Y-6335284D02*
X22077500Y-6194716D01*
X21732552Y-6173028D02*
G75*
G02*
X21737501Y-6194716I-45102J-21702D01*
G01*
X21732552Y-6173028D02*
G75*
G02*
X21802829Y-6108170I45051J21688D01*
G01*
X21737500Y-6335284D02*
G75*
G02*
X21732552Y-6356972I-50042J9D01*
G01*
X21802829Y-6421830D02*
G75*
G02*
X21732552Y-6356972I-25226J43170D01*
G01*
X21802829Y-6421830D02*
G75*
G02*
X21828055Y-6415000I25226J-43171D01*
G01*
X21828055Y-6115000D02*
G75*
G02*
X21802829Y-6108170I0J50001D01*
G01*
X21986945Y-6415000D02*
G75*
G02*
X22012171Y-6421830I0J-50001D01*
G01*
X22012171Y-6108170D02*
G75*
G02*
X21986945Y-6115000I-25226J43171D01*
G01*
X22012171Y-6108170D02*
G75*
G02*
X22082448Y-6173028I25226J-43170D01*
G01*
X22077500Y-6194716D02*
G75*
G02*
X22082448Y-6173028I49999J0D01*
G01*
X22082448Y-6356972D02*
G75*
G02*
X22012171Y-6421830I-45052J-21688D01*
G01*
X22082448Y-6356972D02*
G75*
G02*
X22077500Y-6335284I45051J21688D01*
G01*
X10307500Y-6194716D02*
X10307500Y-6335284D01*
X10398055Y-6415000D02*
X10556945Y-6415000D01*
X10556945Y-6115000D02*
X10398055Y-6115000D01*
X10647500Y-6335284D02*
X10647500Y-6194716D01*
X10302552Y-6173028D02*
G75*
G02*
X10307501Y-6194716I-45102J-21702D01*
G01*
X10302552Y-6173028D02*
G75*
G02*
X10372829Y-6108170I45051J21688D01*
G01*
X10307500Y-6335284D02*
G75*
G02*
X10302552Y-6356972I-50042J9D01*
G01*
X10372829Y-6421830D02*
G75*
G02*
X10302552Y-6356972I-25226J43170D01*
G01*
X10372829Y-6421830D02*
G75*
G02*
X10398055Y-6415000I25226J-43171D01*
G01*
X10398055Y-6115000D02*
G75*
G02*
X10372829Y-6108170I0J50001D01*
G01*
X10556945Y-6415000D02*
G75*
G02*
X10582171Y-6421830I0J-50001D01*
G01*
X10582171Y-6108170D02*
G75*
G02*
X10556945Y-6115000I-25226J43171D01*
G01*
X10582171Y-6108170D02*
G75*
G02*
X10652448Y-6173028I25226J-43170D01*
G01*
X10647500Y-6194716D02*
G75*
G02*
X10652448Y-6173028I49999J0D01*
G01*
X10652448Y-6356972D02*
G75*
G02*
X10582171Y-6421830I-45052J-21688D01*
G01*
X10652448Y-6356972D02*
G75*
G02*
X10647500Y-6335284I45051J21688D01*
G01*
X27452500Y-6194716D02*
X27452500Y-6335284D01*
X27543055Y-6415000D02*
X27701945Y-6415000D01*
X27701945Y-6115000D02*
X27543055Y-6115000D01*
X27792500Y-6335284D02*
X27792500Y-6194716D01*
X27447552Y-6173028D02*
G75*
G02*
X27452501Y-6194716I-45102J-21702D01*
G01*
X27447552Y-6173028D02*
G75*
G02*
X27517829Y-6108170I45051J21688D01*
G01*
X27452500Y-6335284D02*
G75*
G02*
X27447552Y-6356972I-50042J9D01*
G01*
X27517829Y-6421830D02*
G75*
G02*
X27447552Y-6356972I-25226J43170D01*
G01*
X27517829Y-6421830D02*
G75*
G02*
X27543055Y-6415000I25226J-43171D01*
G01*
X27543055Y-6115000D02*
G75*
G02*
X27517829Y-6108170I0J50001D01*
G01*
X27701945Y-6415000D02*
G75*
G02*
X27727171Y-6421830I0J-50001D01*
G01*
X27727171Y-6108170D02*
G75*
G02*
X27701945Y-6115000I-25226J43171D01*
G01*
X27727171Y-6108170D02*
G75*
G02*
X27797448Y-6173028I25226J-43170D01*
G01*
X27792500Y-6194716D02*
G75*
G02*
X27797448Y-6173028I49999J0D01*
G01*
X27797448Y-6356972D02*
G75*
G02*
X27727171Y-6421830I-45052J-21688D01*
G01*
X27797448Y-6356972D02*
G75*
G02*
X27792500Y-6335284I45051J21688D01*
G01*
X14593750Y-8099716D02*
X14593750Y-8240284D01*
X14684305Y-8320000D02*
X14843195Y-8320000D01*
X14843195Y-8020000D02*
X14684305Y-8020000D01*
X14933750Y-8240284D02*
X14933750Y-8099716D01*
X14588802Y-8078028D02*
G75*
G02*
X14593751Y-8099716I-45102J-21702D01*
G01*
X14588802Y-8078028D02*
G75*
G02*
X14659079Y-8013170I45051J21688D01*
G01*
X14593750Y-8240284D02*
G75*
G02*
X14588802Y-8261972I-50042J9D01*
G01*
X14659079Y-8326830D02*
G75*
G02*
X14588802Y-8261972I-25226J43170D01*
G01*
X14659079Y-8326830D02*
G75*
G02*
X14684305Y-8320000I25226J-43171D01*
G01*
X14684305Y-8020000D02*
G75*
G02*
X14659079Y-8013170I0J50001D01*
G01*
X14843195Y-8320000D02*
G75*
G02*
X14868421Y-8326830I0J-50001D01*
G01*
X14868421Y-8013170D02*
G75*
G02*
X14843195Y-8020000I-25226J43171D01*
G01*
X14868421Y-8013170D02*
G75*
G02*
X14938698Y-8078028I25226J-43170D01*
G01*
X14933750Y-8099716D02*
G75*
G02*
X14938698Y-8078028I49999J0D01*
G01*
X14938698Y-8261972D02*
G75*
G02*
X14868421Y-8326830I-45052J-21688D01*
G01*
X14938698Y-8261972D02*
G75*
G02*
X14933750Y-8240284I45051J21688D01*
G01*
X13641250Y-10004716D02*
X13641250Y-10145284D01*
X13731805Y-10225000D02*
X13890695Y-10225000D01*
X13890695Y-9925000D02*
X13731805Y-9925000D01*
X13981250Y-10145284D02*
X13981250Y-10004716D01*
X13636302Y-9983028D02*
G75*
G02*
X13641251Y-10004716I-45102J-21702D01*
G01*
X13636302Y-9983028D02*
G75*
G02*
X13706579Y-9918170I45051J21688D01*
G01*
X13641250Y-10145284D02*
G75*
G02*
X13636302Y-10166972I-50042J9D01*
G01*
X13706579Y-10231830D02*
G75*
G02*
X13636302Y-10166972I-25226J43170D01*
G01*
X13706579Y-10231830D02*
G75*
G02*
X13731805Y-10225000I25226J-43171D01*
G01*
X13731805Y-9925000D02*
G75*
G02*
X13706579Y-9918170I0J50001D01*
G01*
X13890695Y-10225000D02*
G75*
G02*
X13915921Y-10231830I0J-50001D01*
G01*
X13915921Y-9918170D02*
G75*
G02*
X13890695Y-9925000I-25226J43171D01*
G01*
X13915921Y-9918170D02*
G75*
G02*
X13986198Y-9983028I25226J-43170D01*
G01*
X13981250Y-10004716D02*
G75*
G02*
X13986198Y-9983028I49999J0D01*
G01*
X13986198Y-10166972D02*
G75*
G02*
X13915921Y-10231830I-45052J-21688D01*
G01*
X13986198Y-10166972D02*
G75*
G02*
X13981250Y-10145284I45051J21688D01*
G01*
X4354375Y-8099716D02*
X4354375Y-8240284D01*
X4444930Y-8320000D02*
X4603820Y-8320000D01*
X4603820Y-8020000D02*
X4444930Y-8020000D01*
X4694375Y-8240284D02*
X4694375Y-8099716D01*
X4349427Y-8078028D02*
G75*
G02*
X4354376Y-8099716I-45102J-21702D01*
G01*
X4349427Y-8078028D02*
G75*
G02*
X4419704Y-8013170I45051J21688D01*
G01*
X4354375Y-8240284D02*
G75*
G02*
X4349427Y-8261972I-50042J9D01*
G01*
X4419704Y-8326830D02*
G75*
G02*
X4349427Y-8261972I-25226J43170D01*
G01*
X4419704Y-8326830D02*
G75*
G02*
X4444930Y-8320000I25226J-43171D01*
G01*
X4444930Y-8020000D02*
G75*
G02*
X4419704Y-8013170I0J50001D01*
G01*
X4603820Y-8320000D02*
G75*
G02*
X4629046Y-8326830I0J-50001D01*
G01*
X4629046Y-8013170D02*
G75*
G02*
X4603820Y-8020000I-25226J43171D01*
G01*
X4629046Y-8013170D02*
G75*
G02*
X4699323Y-8078028I25226J-43170D01*
G01*
X4694375Y-8099716D02*
G75*
G02*
X4699323Y-8078028I49999J0D01*
G01*
X4699323Y-8261972D02*
G75*
G02*
X4629046Y-8326830I-45052J-21688D01*
G01*
X4699323Y-8261972D02*
G75*
G02*
X4694375Y-8240284I45051J21688D01*
G01*
X15070000Y-4289716D02*
X15070000Y-4430284D01*
X15160555Y-4510000D02*
X15319445Y-4510000D01*
X15319445Y-4210000D02*
X15160555Y-4210000D01*
X15410000Y-4430284D02*
X15410000Y-4289716D01*
X15065052Y-4268028D02*
G75*
G02*
X15070001Y-4289716I-45102J-21702D01*
G01*
X15065052Y-4268028D02*
G75*
G02*
X15135329Y-4203170I45051J21688D01*
G01*
X15070000Y-4430284D02*
G75*
G02*
X15065052Y-4451972I-50042J9D01*
G01*
X15135329Y-4516830D02*
G75*
G02*
X15065052Y-4451972I-25226J43170D01*
G01*
X15135329Y-4516830D02*
G75*
G02*
X15160555Y-4510000I25226J-43171D01*
G01*
X15160555Y-4210000D02*
G75*
G02*
X15135329Y-4203170I0J50001D01*
G01*
X15319445Y-4510000D02*
G75*
G02*
X15344671Y-4516830I0J-50001D01*
G01*
X15344671Y-4203170D02*
G75*
G02*
X15319445Y-4210000I-25226J43171D01*
G01*
X15344671Y-4203170D02*
G75*
G02*
X15414948Y-4268028I25226J-43170D01*
G01*
X15410000Y-4289716D02*
G75*
G02*
X15414948Y-4268028I49999J0D01*
G01*
X15414948Y-4451972D02*
G75*
G02*
X15344671Y-4516830I-45052J-21688D01*
G01*
X15414948Y-4451972D02*
G75*
G02*
X15410000Y-4430284I45051J21688D01*
G01*
X15546250Y-10004716D02*
X15546250Y-10145284D01*
X15636805Y-10225000D02*
X15795695Y-10225000D01*
X15795695Y-9925000D02*
X15636805Y-9925000D01*
X15886250Y-10145284D02*
X15886250Y-10004716D01*
X15541302Y-9983028D02*
G75*
G02*
X15546251Y-10004716I-45102J-21702D01*
G01*
X15541302Y-9983028D02*
G75*
G02*
X15611579Y-9918170I45051J21688D01*
G01*
X15546250Y-10145284D02*
G75*
G02*
X15541302Y-10166972I-50042J9D01*
G01*
X15611579Y-10231830D02*
G75*
G02*
X15541302Y-10166972I-25226J43170D01*
G01*
X15611579Y-10231830D02*
G75*
G02*
X15636805Y-10225000I25226J-43171D01*
G01*
X15636805Y-9925000D02*
G75*
G02*
X15611579Y-9918170I0J50001D01*
G01*
X15795695Y-10225000D02*
G75*
G02*
X15820921Y-10231830I0J-50001D01*
G01*
X15820921Y-9918170D02*
G75*
G02*
X15795695Y-9925000I-25226J43171D01*
G01*
X15820921Y-9918170D02*
G75*
G02*
X15891198Y-9983028I25226J-43170D01*
G01*
X15886250Y-10004716D02*
G75*
G02*
X15891198Y-9983028I49999J0D01*
G01*
X15891198Y-10166972D02*
G75*
G02*
X15820921Y-10231830I-45052J-21688D01*
G01*
X15891198Y-10166972D02*
G75*
G02*
X15886250Y-10145284I45051J21688D01*
G01*
X9355000Y-4289716D02*
X9355000Y-4430284D01*
X9445555Y-4510000D02*
X9604445Y-4510000D01*
X9604445Y-4210000D02*
X9445555Y-4210000D01*
X9695000Y-4430284D02*
X9695000Y-4289716D01*
X9350052Y-4268028D02*
G75*
G02*
X9355001Y-4289716I-45102J-21702D01*
G01*
X9350052Y-4268028D02*
G75*
G02*
X9420329Y-4203170I45051J21688D01*
G01*
X9355000Y-4430284D02*
G75*
G02*
X9350052Y-4451972I-50042J9D01*
G01*
X9420329Y-4516830D02*
G75*
G02*
X9350052Y-4451972I-25226J43170D01*
G01*
X9420329Y-4516830D02*
G75*
G02*
X9445555Y-4510000I25226J-43171D01*
G01*
X9445555Y-4210000D02*
G75*
G02*
X9420329Y-4203170I0J50001D01*
G01*
X9604445Y-4510000D02*
G75*
G02*
X9629671Y-4516830I0J-50001D01*
G01*
X9629671Y-4203170D02*
G75*
G02*
X9604445Y-4210000I-25226J43171D01*
G01*
X9629671Y-4203170D02*
G75*
G02*
X9699948Y-4268028I25226J-43170D01*
G01*
X9695000Y-4289716D02*
G75*
G02*
X9699948Y-4268028I49999J0D01*
G01*
X9699948Y-4451972D02*
G75*
G02*
X9629671Y-4516830I-45052J-21688D01*
G01*
X9699948Y-4451972D02*
G75*
G02*
X9695000Y-4430284I45051J21688D01*
G01*
X8402500Y-6194716D02*
X8402500Y-6335284D01*
X8493055Y-6415000D02*
X8651945Y-6415000D01*
X8651945Y-6115000D02*
X8493055Y-6115000D01*
X8742500Y-6335284D02*
X8742500Y-6194716D01*
X8397552Y-6173028D02*
G75*
G02*
X8402501Y-6194716I-45102J-21702D01*
G01*
X8397552Y-6173028D02*
G75*
G02*
X8467829Y-6108170I45051J21688D01*
G01*
X8402500Y-6335284D02*
G75*
G02*
X8397552Y-6356972I-50042J9D01*
G01*
X8467829Y-6421830D02*
G75*
G02*
X8397552Y-6356972I-25226J43170D01*
G01*
X8467829Y-6421830D02*
G75*
G02*
X8493055Y-6415000I25226J-43171D01*
G01*
X8493055Y-6115000D02*
G75*
G02*
X8467829Y-6108170I0J50001D01*
G01*
X8651945Y-6415000D02*
G75*
G02*
X8677171Y-6421830I0J-50001D01*
G01*
X8677171Y-6108170D02*
G75*
G02*
X8651945Y-6115000I-25226J43171D01*
G01*
X8677171Y-6108170D02*
G75*
G02*
X8747448Y-6173028I25226J-43170D01*
G01*
X8742500Y-6194716D02*
G75*
G02*
X8747448Y-6173028I49999J0D01*
G01*
X8747448Y-6356972D02*
G75*
G02*
X8677171Y-6421830I-45052J-21688D01*
G01*
X8747448Y-6356972D02*
G75*
G02*
X8742500Y-6335284I45051J21688D01*
G01*
X18880000Y-4289716D02*
X18880000Y-4430284D01*
X18970555Y-4510000D02*
X19129445Y-4510000D01*
X19129445Y-4210000D02*
X18970555Y-4210000D01*
X19220000Y-4430284D02*
X19220000Y-4289716D01*
X18875052Y-4268028D02*
G75*
G02*
X18880001Y-4289716I-45102J-21702D01*
G01*
X18875052Y-4268028D02*
G75*
G02*
X18945329Y-4203170I45051J21688D01*
G01*
X18880000Y-4430284D02*
G75*
G02*
X18875052Y-4451972I-50042J9D01*
G01*
X18945329Y-4516830D02*
G75*
G02*
X18875052Y-4451972I-25226J43170D01*
G01*
X18945329Y-4516830D02*
G75*
G02*
X18970555Y-4510000I25226J-43171D01*
G01*
X18970555Y-4210000D02*
G75*
G02*
X18945329Y-4203170I0J50001D01*
G01*
X19129445Y-4510000D02*
G75*
G02*
X19154671Y-4516830I0J-50001D01*
G01*
X19154671Y-4203170D02*
G75*
G02*
X19129445Y-4210000I-25226J43171D01*
G01*
X19154671Y-4203170D02*
G75*
G02*
X19224948Y-4268028I25226J-43170D01*
G01*
X19220000Y-4289716D02*
G75*
G02*
X19224948Y-4268028I49999J0D01*
G01*
X19224948Y-4451972D02*
G75*
G02*
X19154671Y-4516830I-45052J-21688D01*
G01*
X19224948Y-4451972D02*
G75*
G02*
X19220000Y-4430284I45051J21688D01*
G01*
X22928125Y-11909716D02*
X22928125Y-12050284D01*
X23018680Y-12130000D02*
X23177570Y-12130000D01*
X23177570Y-11830000D02*
X23018680Y-11830000D01*
X23268125Y-12050284D02*
X23268125Y-11909716D01*
X22923177Y-11888028D02*
G75*
G02*
X22928126Y-11909716I-45102J-21702D01*
G01*
X22923177Y-11888028D02*
G75*
G02*
X22993454Y-11823170I45051J21688D01*
G01*
X22928125Y-12050284D02*
G75*
G02*
X22923177Y-12071972I-50042J9D01*
G01*
X22993454Y-12136830D02*
G75*
G02*
X22923177Y-12071972I-25226J43170D01*
G01*
X22993454Y-12136830D02*
G75*
G02*
X23018680Y-12130000I25226J-43171D01*
G01*
X23018680Y-11830000D02*
G75*
G02*
X22993454Y-11823170I0J50001D01*
G01*
X23177570Y-12130000D02*
G75*
G02*
X23202796Y-12136830I0J-50001D01*
G01*
X23202796Y-11823170D02*
G75*
G02*
X23177570Y-11830000I-25226J43171D01*
G01*
X23202796Y-11823170D02*
G75*
G02*
X23273073Y-11888028I25226J-43170D01*
G01*
X23268125Y-11909716D02*
G75*
G02*
X23273073Y-11888028I49999J0D01*
G01*
X23273073Y-12071972D02*
G75*
G02*
X23202796Y-12136830I-45052J-21688D01*
G01*
X23273073Y-12071972D02*
G75*
G02*
X23268125Y-12050284I45051J21688D01*
G01*
X16498750Y-8099716D02*
X16498750Y-8240284D01*
X16589305Y-8320000D02*
X16748195Y-8320000D01*
X16748195Y-8020000D02*
X16589305Y-8020000D01*
X16838750Y-8240284D02*
X16838750Y-8099716D01*
X16493802Y-8078028D02*
G75*
G02*
X16498751Y-8099716I-45102J-21702D01*
G01*
X16493802Y-8078028D02*
G75*
G02*
X16564079Y-8013170I45051J21688D01*
G01*
X16498750Y-8240284D02*
G75*
G02*
X16493802Y-8261972I-50042J9D01*
G01*
X16564079Y-8326830D02*
G75*
G02*
X16493802Y-8261972I-25226J43170D01*
G01*
X16564079Y-8326830D02*
G75*
G02*
X16589305Y-8320000I25226J-43171D01*
G01*
X16589305Y-8020000D02*
G75*
G02*
X16564079Y-8013170I0J50001D01*
G01*
X16748195Y-8320000D02*
G75*
G02*
X16773421Y-8326830I0J-50001D01*
G01*
X16773421Y-8013170D02*
G75*
G02*
X16748195Y-8020000I-25226J43171D01*
G01*
X16773421Y-8013170D02*
G75*
G02*
X16843698Y-8078028I25226J-43170D01*
G01*
X16838750Y-8099716D02*
G75*
G02*
X16843698Y-8078028I49999J0D01*
G01*
X16843698Y-8261972D02*
G75*
G02*
X16773421Y-8326830I-45052J-21688D01*
G01*
X16843698Y-8261972D02*
G75*
G02*
X16838750Y-8240284I45051J21688D01*
G01*
X11736250Y-10004716D02*
X11736250Y-10145284D01*
X11826805Y-10225000D02*
X11985695Y-10225000D01*
X11985695Y-9925000D02*
X11826805Y-9925000D01*
X12076250Y-10145284D02*
X12076250Y-10004716D01*
X11731302Y-9983028D02*
G75*
G02*
X11736251Y-10004716I-45102J-21702D01*
G01*
X11731302Y-9983028D02*
G75*
G02*
X11801579Y-9918170I45051J21688D01*
G01*
X11736250Y-10145284D02*
G75*
G02*
X11731302Y-10166972I-50042J9D01*
G01*
X11801579Y-10231830D02*
G75*
G02*
X11731302Y-10166972I-25226J43170D01*
G01*
X11801579Y-10231830D02*
G75*
G02*
X11826805Y-10225000I25226J-43171D01*
G01*
X11826805Y-9925000D02*
G75*
G02*
X11801579Y-9918170I0J50001D01*
G01*
X11985695Y-10225000D02*
G75*
G02*
X12010921Y-10231830I0J-50001D01*
G01*
X12010921Y-9918170D02*
G75*
G02*
X11985695Y-9925000I-25226J43171D01*
G01*
X12010921Y-9918170D02*
G75*
G02*
X12081198Y-9983028I25226J-43170D01*
G01*
X12076250Y-10004716D02*
G75*
G02*
X12081198Y-9983028I49999J0D01*
G01*
X12081198Y-10166972D02*
G75*
G02*
X12010921Y-10231830I-45052J-21688D01*
G01*
X12081198Y-10166972D02*
G75*
G02*
X12076250Y-10145284I45051J21688D01*
G01*
X7926250Y-10004716D02*
X7926250Y-10145284D01*
X8016805Y-10225000D02*
X8175695Y-10225000D01*
X8175695Y-9925000D02*
X8016805Y-9925000D01*
X8266250Y-10145284D02*
X8266250Y-10004716D01*
X7921302Y-9983028D02*
G75*
G02*
X7926251Y-10004716I-45102J-21702D01*
G01*
X7921302Y-9983028D02*
G75*
G02*
X7991579Y-9918170I45051J21688D01*
G01*
X7926250Y-10145284D02*
G75*
G02*
X7921302Y-10166972I-50042J9D01*
G01*
X7991579Y-10231830D02*
G75*
G02*
X7921302Y-10166972I-25226J43170D01*
G01*
X7991579Y-10231830D02*
G75*
G02*
X8016805Y-10225000I25226J-43171D01*
G01*
X8016805Y-9925000D02*
G75*
G02*
X7991579Y-9918170I0J50001D01*
G01*
X8175695Y-10225000D02*
G75*
G02*
X8200921Y-10231830I0J-50001D01*
G01*
X8200921Y-9918170D02*
G75*
G02*
X8175695Y-9925000I-25226J43171D01*
G01*
X8200921Y-9918170D02*
G75*
G02*
X8271198Y-9983028I25226J-43170D01*
G01*
X8266250Y-10004716D02*
G75*
G02*
X8271198Y-9983028I49999J0D01*
G01*
X8271198Y-10166972D02*
G75*
G02*
X8200921Y-10231830I-45052J-21688D01*
G01*
X8271198Y-10166972D02*
G75*
G02*
X8266250Y-10145284I45051J21688D01*
G01*
X19832500Y-6194716D02*
X19832500Y-6335284D01*
X19923055Y-6415000D02*
X20081945Y-6415000D01*
X20081945Y-6115000D02*
X19923055Y-6115000D01*
X20172500Y-6335284D02*
X20172500Y-6194716D01*
X19827552Y-6173028D02*
G75*
G02*
X19832501Y-6194716I-45102J-21702D01*
G01*
X19827552Y-6173028D02*
G75*
G02*
X19897829Y-6108170I45051J21688D01*
G01*
X19832500Y-6335284D02*
G75*
G02*
X19827552Y-6356972I-50042J9D01*
G01*
X19897829Y-6421830D02*
G75*
G02*
X19827552Y-6356972I-25226J43170D01*
G01*
X19897829Y-6421830D02*
G75*
G02*
X19923055Y-6415000I25226J-43171D01*
G01*
X19923055Y-6115000D02*
G75*
G02*
X19897829Y-6108170I0J50001D01*
G01*
X20081945Y-6415000D02*
G75*
G02*
X20107171Y-6421830I0J-50001D01*
G01*
X20107171Y-6108170D02*
G75*
G02*
X20081945Y-6115000I-25226J43171D01*
G01*
X20107171Y-6108170D02*
G75*
G02*
X20177448Y-6173028I25226J-43170D01*
G01*
X20172500Y-6194716D02*
G75*
G02*
X20177448Y-6173028I49999J0D01*
G01*
X20177448Y-6356972D02*
G75*
G02*
X20107171Y-6421830I-45052J-21688D01*
G01*
X20177448Y-6356972D02*
G75*
G02*
X20172500Y-6335284I45051J21688D01*
G01*
X19356250Y-10004716D02*
X19356250Y-10145284D01*
X19446805Y-10225000D02*
X19605695Y-10225000D01*
X19605695Y-9925000D02*
X19446805Y-9925000D01*
X19696250Y-10145284D02*
X19696250Y-10004716D01*
X19351302Y-9983028D02*
G75*
G02*
X19356251Y-10004716I-45102J-21702D01*
G01*
X19351302Y-9983028D02*
G75*
G02*
X19421579Y-9918170I45051J21688D01*
G01*
X19356250Y-10145284D02*
G75*
G02*
X19351302Y-10166972I-50042J9D01*
G01*
X19421579Y-10231830D02*
G75*
G02*
X19351302Y-10166972I-25226J43170D01*
G01*
X19421579Y-10231830D02*
G75*
G02*
X19446805Y-10225000I25226J-43171D01*
G01*
X19446805Y-9925000D02*
G75*
G02*
X19421579Y-9918170I0J50001D01*
G01*
X19605695Y-10225000D02*
G75*
G02*
X19630921Y-10231830I0J-50001D01*
G01*
X19630921Y-9918170D02*
G75*
G02*
X19605695Y-9925000I-25226J43171D01*
G01*
X19630921Y-9918170D02*
G75*
G02*
X19701198Y-9983028I25226J-43170D01*
G01*
X19696250Y-10004716D02*
G75*
G02*
X19701198Y-9983028I49999J0D01*
G01*
X19701198Y-10166972D02*
G75*
G02*
X19630921Y-10231830I-45052J-21688D01*
G01*
X19701198Y-10166972D02*
G75*
G02*
X19696250Y-10145284I45051J21688D01*
G01*
X12688750Y-8099716D02*
X12688750Y-8240284D01*
X12779305Y-8320000D02*
X12938195Y-8320000D01*
X12938195Y-8020000D02*
X12779305Y-8020000D01*
X13028750Y-8240284D02*
X13028750Y-8099716D01*
X12683802Y-8078028D02*
G75*
G02*
X12688751Y-8099716I-45102J-21702D01*
G01*
X12683802Y-8078028D02*
G75*
G02*
X12754079Y-8013170I45051J21688D01*
G01*
X12688750Y-8240284D02*
G75*
G02*
X12683802Y-8261972I-50042J9D01*
G01*
X12754079Y-8326830D02*
G75*
G02*
X12683802Y-8261972I-25226J43170D01*
G01*
X12754079Y-8326830D02*
G75*
G02*
X12779305Y-8320000I25226J-43171D01*
G01*
X12779305Y-8020000D02*
G75*
G02*
X12754079Y-8013170I0J50001D01*
G01*
X12938195Y-8320000D02*
G75*
G02*
X12963421Y-8326830I0J-50001D01*
G01*
X12963421Y-8013170D02*
G75*
G02*
X12938195Y-8020000I-25226J43171D01*
G01*
X12963421Y-8013170D02*
G75*
G02*
X13033698Y-8078028I25226J-43170D01*
G01*
X13028750Y-8099716D02*
G75*
G02*
X13033698Y-8078028I49999J0D01*
G01*
X13033698Y-8261972D02*
G75*
G02*
X12963421Y-8326830I-45052J-21688D01*
G01*
X13033698Y-8261972D02*
G75*
G02*
X13028750Y-8240284I45051J21688D01*
G01*
X25547500Y-6194716D02*
X25547500Y-6335284D01*
X25638055Y-6415000D02*
X25796945Y-6415000D01*
X25796945Y-6115000D02*
X25638055Y-6115000D01*
X25887500Y-6335284D02*
X25887500Y-6194716D01*
X25542552Y-6173028D02*
G75*
G02*
X25547501Y-6194716I-45102J-21702D01*
G01*
X25542552Y-6173028D02*
G75*
G02*
X25612829Y-6108170I45051J21688D01*
G01*
X25547500Y-6335284D02*
G75*
G02*
X25542552Y-6356972I-50042J9D01*
G01*
X25612829Y-6421830D02*
G75*
G02*
X25542552Y-6356972I-25226J43170D01*
G01*
X25612829Y-6421830D02*
G75*
G02*
X25638055Y-6415000I25226J-43171D01*
G01*
X25638055Y-6115000D02*
G75*
G02*
X25612829Y-6108170I0J50001D01*
G01*
X25796945Y-6415000D02*
G75*
G02*
X25822171Y-6421830I0J-50001D01*
G01*
X25822171Y-6108170D02*
G75*
G02*
X25796945Y-6115000I-25226J43171D01*
G01*
X25822171Y-6108170D02*
G75*
G02*
X25892448Y-6173028I25226J-43170D01*
G01*
X25887500Y-6194716D02*
G75*
G02*
X25892448Y-6173028I49999J0D01*
G01*
X25892448Y-6356972D02*
G75*
G02*
X25822171Y-6421830I-45052J-21688D01*
G01*
X25892448Y-6356972D02*
G75*
G02*
X25887500Y-6335284I45051J21688D01*
G01*
X27690625Y-11909716D02*
X27690625Y-12050284D01*
X27781180Y-12130000D02*
X27940070Y-12130000D01*
X27940070Y-11830000D02*
X27781180Y-11830000D01*
X28030625Y-12050284D02*
X28030625Y-11909716D01*
X27685677Y-11888028D02*
G75*
G02*
X27690626Y-11909716I-45102J-21702D01*
G01*
X27685677Y-11888028D02*
G75*
G02*
X27755954Y-11823170I45051J21688D01*
G01*
X27690625Y-12050284D02*
G75*
G02*
X27685677Y-12071972I-50042J9D01*
G01*
X27755954Y-12136830D02*
G75*
G02*
X27685677Y-12071972I-25226J43170D01*
G01*
X27755954Y-12136830D02*
G75*
G02*
X27781180Y-12130000I25226J-43171D01*
G01*
X27781180Y-11830000D02*
G75*
G02*
X27755954Y-11823170I0J50001D01*
G01*
X27940070Y-12130000D02*
G75*
G02*
X27965296Y-12136830I0J-50001D01*
G01*
X27965296Y-11823170D02*
G75*
G02*
X27940070Y-11830000I-25226J43171D01*
G01*
X27965296Y-11823170D02*
G75*
G02*
X28035573Y-11888028I25226J-43170D01*
G01*
X28030625Y-11909716D02*
G75*
G02*
X28035573Y-11888028I49999J0D01*
G01*
X28035573Y-12071972D02*
G75*
G02*
X27965296Y-12136830I-45052J-21688D01*
G01*
X28035573Y-12071972D02*
G75*
G02*
X28030625Y-12050284I45051J21688D01*
G01*
X30071875Y-11909716D02*
X30071875Y-12050284D01*
X30162430Y-12130000D02*
X30321320Y-12130000D01*
X30321320Y-11830000D02*
X30162430Y-11830000D01*
X30411875Y-12050284D02*
X30411875Y-11909716D01*
X30066927Y-11888028D02*
G75*
G02*
X30071876Y-11909716I-45102J-21702D01*
G01*
X30066927Y-11888028D02*
G75*
G02*
X30137204Y-11823170I45051J21688D01*
G01*
X30071875Y-12050284D02*
G75*
G02*
X30066927Y-12071972I-50042J9D01*
G01*
X30137204Y-12136830D02*
G75*
G02*
X30066927Y-12071972I-25226J43170D01*
G01*
X30137204Y-12136830D02*
G75*
G02*
X30162430Y-12130000I25226J-43171D01*
G01*
X30162430Y-11830000D02*
G75*
G02*
X30137204Y-11823170I0J50001D01*
G01*
X30321320Y-12130000D02*
G75*
G02*
X30346546Y-12136830I0J-50001D01*
G01*
X30346546Y-11823170D02*
G75*
G02*
X30321320Y-11830000I-25226J43171D01*
G01*
X30346546Y-11823170D02*
G75*
G02*
X30416823Y-11888028I25226J-43170D01*
G01*
X30411875Y-11909716D02*
G75*
G02*
X30416823Y-11888028I49999J0D01*
G01*
X30416823Y-12071972D02*
G75*
G02*
X30346546Y-12136830I-45052J-21688D01*
G01*
X30416823Y-12071972D02*
G75*
G02*
X30411875Y-12050284I45051J21688D01*
G01*
X17451250Y-10004716D02*
X17451250Y-10145284D01*
X17541805Y-10225000D02*
X17700695Y-10225000D01*
X17700695Y-9925000D02*
X17541805Y-9925000D01*
X17791250Y-10145284D02*
X17791250Y-10004716D01*
X17446302Y-9983028D02*
G75*
G02*
X17451251Y-10004716I-45102J-21702D01*
G01*
X17446302Y-9983028D02*
G75*
G02*
X17516579Y-9918170I45051J21688D01*
G01*
X17451250Y-10145284D02*
G75*
G02*
X17446302Y-10166972I-50042J9D01*
G01*
X17516579Y-10231830D02*
G75*
G02*
X17446302Y-10166972I-25226J43170D01*
G01*
X17516579Y-10231830D02*
G75*
G02*
X17541805Y-10225000I25226J-43171D01*
G01*
X17541805Y-9925000D02*
G75*
G02*
X17516579Y-9918170I0J50001D01*
G01*
X17700695Y-10225000D02*
G75*
G02*
X17725921Y-10231830I0J-50001D01*
G01*
X17725921Y-9918170D02*
G75*
G02*
X17700695Y-9925000I-25226J43171D01*
G01*
X17725921Y-9918170D02*
G75*
G02*
X17796198Y-9983028I25226J-43170D01*
G01*
X17791250Y-10004716D02*
G75*
G02*
X17796198Y-9983028I49999J0D01*
G01*
X17796198Y-10166972D02*
G75*
G02*
X17725921Y-10231830I-45052J-21688D01*
G01*
X17796198Y-10166972D02*
G75*
G02*
X17791250Y-10145284I45051J21688D01*
G01*
X30071875Y-7147216D02*
X30071875Y-7287784D01*
X30162430Y-7367500D02*
X30321320Y-7367500D01*
X30321320Y-7067500D02*
X30162430Y-7067500D01*
X30411875Y-7287784D02*
X30411875Y-7147216D01*
X30066927Y-7125528D02*
G75*
G02*
X30071876Y-7147216I-45102J-21702D01*
G01*
X30066927Y-7125528D02*
G75*
G02*
X30137204Y-7060670I45051J21688D01*
G01*
X30071875Y-7287784D02*
G75*
G02*
X30066927Y-7309472I-50042J9D01*
G01*
X30137204Y-7374330D02*
G75*
G02*
X30066927Y-7309472I-25226J43170D01*
G01*
X30137204Y-7374330D02*
G75*
G02*
X30162430Y-7367500I25226J-43171D01*
G01*
X30162430Y-7067500D02*
G75*
G02*
X30137204Y-7060670I0J50001D01*
G01*
X30321320Y-7367500D02*
G75*
G02*
X30346546Y-7374330I0J-50001D01*
G01*
X30346546Y-7060670D02*
G75*
G02*
X30321320Y-7067500I-25226J43171D01*
G01*
X30346546Y-7060670D02*
G75*
G02*
X30416823Y-7125528I25226J-43170D01*
G01*
X30411875Y-7147216D02*
G75*
G02*
X30416823Y-7125528I49999J0D01*
G01*
X30416823Y-7309472D02*
G75*
G02*
X30346546Y-7374330I-45052J-21688D01*
G01*
X30416823Y-7309472D02*
G75*
G02*
X30411875Y-7287784I45051J21688D01*
G01*
X26500000Y-4289716D02*
X26500000Y-4430284D01*
X26590555Y-4510000D02*
X26749445Y-4510000D01*
X26749445Y-4210000D02*
X26590555Y-4210000D01*
X26840000Y-4430284D02*
X26840000Y-4289716D01*
X26495052Y-4268028D02*
G75*
G02*
X26500001Y-4289716I-45102J-21702D01*
G01*
X26495052Y-4268028D02*
G75*
G02*
X26565329Y-4203170I45051J21688D01*
G01*
X26500000Y-4430284D02*
G75*
G02*
X26495052Y-4451972I-50042J9D01*
G01*
X26565329Y-4516830D02*
G75*
G02*
X26495052Y-4451972I-25226J43170D01*
G01*
X26565329Y-4516830D02*
G75*
G02*
X26590555Y-4510000I25226J-43171D01*
G01*
X26590555Y-4210000D02*
G75*
G02*
X26565329Y-4203170I0J50001D01*
G01*
X26749445Y-4510000D02*
G75*
G02*
X26774671Y-4516830I0J-50001D01*
G01*
X26774671Y-4203170D02*
G75*
G02*
X26749445Y-4210000I-25226J43171D01*
G01*
X26774671Y-4203170D02*
G75*
G02*
X26844948Y-4268028I25226J-43170D01*
G01*
X26840000Y-4289716D02*
G75*
G02*
X26844948Y-4268028I49999J0D01*
G01*
X26844948Y-4451972D02*
G75*
G02*
X26774671Y-4516830I-45052J-21688D01*
G01*
X26844948Y-4451972D02*
G75*
G02*
X26840000Y-4430284I45051J21688D01*
G01*
X24595000Y-4289716D02*
X24595000Y-4430284D01*
X24685555Y-4510000D02*
X24844445Y-4510000D01*
X24844445Y-4210000D02*
X24685555Y-4210000D01*
X24935000Y-4430284D02*
X24935000Y-4289716D01*
X24590052Y-4268028D02*
G75*
G02*
X24595001Y-4289716I-45102J-21702D01*
G01*
X24590052Y-4268028D02*
G75*
G02*
X24660329Y-4203170I45051J21688D01*
G01*
X24595000Y-4430284D02*
G75*
G02*
X24590052Y-4451972I-50042J9D01*
G01*
X24660329Y-4516830D02*
G75*
G02*
X24590052Y-4451972I-25226J43170D01*
G01*
X24660329Y-4516830D02*
G75*
G02*
X24685555Y-4510000I25226J-43171D01*
G01*
X24685555Y-4210000D02*
G75*
G02*
X24660329Y-4203170I0J50001D01*
G01*
X24844445Y-4510000D02*
G75*
G02*
X24869671Y-4516830I0J-50001D01*
G01*
X24869671Y-4203170D02*
G75*
G02*
X24844445Y-4210000I-25226J43171D01*
G01*
X24869671Y-4203170D02*
G75*
G02*
X24939948Y-4268028I25226J-43170D01*
G01*
X24935000Y-4289716D02*
G75*
G02*
X24939948Y-4268028I49999J0D01*
G01*
X24939948Y-4451972D02*
G75*
G02*
X24869671Y-4516830I-45052J-21688D01*
G01*
X24939948Y-4451972D02*
G75*
G02*
X24935000Y-4430284I45051J21688D01*
G01*
X28643125Y-10004716D02*
X28643125Y-10145284D01*
X28733680Y-10225000D02*
X28892570Y-10225000D01*
X28892570Y-9925000D02*
X28733680Y-9925000D01*
X28983125Y-10145284D02*
X28983125Y-10004716D01*
X28638177Y-9983028D02*
G75*
G02*
X28643126Y-10004716I-45102J-21702D01*
G01*
X28638177Y-9983028D02*
G75*
G02*
X28708454Y-9918170I45051J21688D01*
G01*
X28643125Y-10145284D02*
G75*
G02*
X28638177Y-10166972I-50042J9D01*
G01*
X28708454Y-10231830D02*
G75*
G02*
X28638177Y-10166972I-25226J43170D01*
G01*
X28708454Y-10231830D02*
G75*
G02*
X28733680Y-10225000I25226J-43171D01*
G01*
X28733680Y-9925000D02*
G75*
G02*
X28708454Y-9918170I0J50001D01*
G01*
X28892570Y-10225000D02*
G75*
G02*
X28917796Y-10231830I0J-50001D01*
G01*
X28917796Y-9918170D02*
G75*
G02*
X28892570Y-9925000I-25226J43171D01*
G01*
X28917796Y-9918170D02*
G75*
G02*
X28988073Y-9983028I25226J-43170D01*
G01*
X28983125Y-10004716D02*
G75*
G02*
X28988073Y-9983028I49999J0D01*
G01*
X28988073Y-10166972D02*
G75*
G02*
X28917796Y-10231830I-45052J-21688D01*
G01*
X28988073Y-10166972D02*
G75*
G02*
X28983125Y-10145284I45051J21688D01*
G01*
X27928750Y-8099716D02*
X27928750Y-8240284D01*
X28019305Y-8320000D02*
X28178195Y-8320000D01*
X28178195Y-8020000D02*
X28019305Y-8020000D01*
X28268750Y-8240284D02*
X28268750Y-8099716D01*
X27923802Y-8078028D02*
G75*
G02*
X27928751Y-8099716I-45102J-21702D01*
G01*
X27923802Y-8078028D02*
G75*
G02*
X27994079Y-8013170I45051J21688D01*
G01*
X27928750Y-8240284D02*
G75*
G02*
X27923802Y-8261972I-50042J9D01*
G01*
X27994079Y-8326830D02*
G75*
G02*
X27923802Y-8261972I-25226J43170D01*
G01*
X27994079Y-8326830D02*
G75*
G02*
X28019305Y-8320000I25226J-43171D01*
G01*
X28019305Y-8020000D02*
G75*
G02*
X27994079Y-8013170I0J50001D01*
G01*
X28178195Y-8320000D02*
G75*
G02*
X28203421Y-8326830I0J-50001D01*
G01*
X28203421Y-8013170D02*
G75*
G02*
X28178195Y-8020000I-25226J43171D01*
G01*
X28203421Y-8013170D02*
G75*
G02*
X28273698Y-8078028I25226J-43170D01*
G01*
X28268750Y-8099716D02*
G75*
G02*
X28273698Y-8078028I49999J0D01*
G01*
X28273698Y-8261972D02*
G75*
G02*
X28203421Y-8326830I-45052J-21688D01*
G01*
X28273698Y-8261972D02*
G75*
G02*
X28268750Y-8240284I45051J21688D01*
G01*
X5545000Y-3189716D02*
X5545000Y-3330284D01*
X5635555Y-3410000D02*
X5794445Y-3410000D01*
X5794445Y-3110000D02*
X5635555Y-3110000D01*
X5885000Y-3330284D02*
X5885000Y-3189716D01*
X5540052Y-3168028D02*
G75*
G02*
X5545001Y-3189716I-45102J-21702D01*
G01*
X5540052Y-3168028D02*
G75*
G02*
X5610329Y-3103170I45051J21688D01*
G01*
X5545000Y-3330284D02*
G75*
G02*
X5540052Y-3351972I-50042J9D01*
G01*
X5610329Y-3416830D02*
G75*
G02*
X5540052Y-3351972I-25226J43170D01*
G01*
X5610329Y-3416830D02*
G75*
G02*
X5635555Y-3410000I25226J-43171D01*
G01*
X5635555Y-3110000D02*
G75*
G02*
X5610329Y-3103170I0J50001D01*
G01*
X5794445Y-3410000D02*
G75*
G02*
X5819671Y-3416830I0J-50001D01*
G01*
X5819671Y-3103170D02*
G75*
G02*
X5794445Y-3110000I-25226J43171D01*
G01*
X5819671Y-3103170D02*
G75*
G02*
X5889948Y-3168028I25226J-43170D01*
G01*
X5885000Y-3189716D02*
G75*
G02*
X5889948Y-3168028I49999J0D01*
G01*
X5889948Y-3351972D02*
G75*
G02*
X5819671Y-3416830I-45052J-21688D01*
G01*
X5889948Y-3351972D02*
G75*
G02*
X5885000Y-3330284I45051J21688D01*
G01*
X6021250Y-10004716D02*
X6021250Y-10145284D01*
X6111805Y-10225000D02*
X6270695Y-10225000D01*
X6270695Y-9925000D02*
X6111805Y-9925000D01*
X6361250Y-10145284D02*
X6361250Y-10004716D01*
X6016302Y-9983028D02*
G75*
G02*
X6021251Y-10004716I-45102J-21702D01*
G01*
X6016302Y-9983028D02*
G75*
G02*
X6086579Y-9918170I45051J21688D01*
G01*
X6021250Y-10145284D02*
G75*
G02*
X6016302Y-10166972I-50042J9D01*
G01*
X6086579Y-10231830D02*
G75*
G02*
X6016302Y-10166972I-25226J43170D01*
G01*
X6086579Y-10231830D02*
G75*
G02*
X6111805Y-10225000I25226J-43171D01*
G01*
X6111805Y-9925000D02*
G75*
G02*
X6086579Y-9918170I0J50001D01*
G01*
X6270695Y-10225000D02*
G75*
G02*
X6295921Y-10231830I0J-50001D01*
G01*
X6295921Y-9918170D02*
G75*
G02*
X6270695Y-9925000I-25226J43171D01*
G01*
X6295921Y-9918170D02*
G75*
G02*
X6366198Y-9983028I25226J-43170D01*
G01*
X6361250Y-10004716D02*
G75*
G02*
X6366198Y-9983028I49999J0D01*
G01*
X6366198Y-10166972D02*
G75*
G02*
X6295921Y-10231830I-45052J-21688D01*
G01*
X6366198Y-10166972D02*
G75*
G02*
X6361250Y-10145284I45051J21688D01*
G01*
X3640000Y-3189716D02*
X3640000Y-3330284D01*
X3730555Y-3410000D02*
X3889445Y-3410000D01*
X3889445Y-3110000D02*
X3730555Y-3110000D01*
X3980000Y-3330284D02*
X3980000Y-3189716D01*
X3635052Y-3168028D02*
G75*
G02*
X3640001Y-3189716I-45102J-21702D01*
G01*
X3635052Y-3168028D02*
G75*
G02*
X3705329Y-3103170I45051J21688D01*
G01*
X3640000Y-3330284D02*
G75*
G02*
X3635052Y-3351972I-50042J9D01*
G01*
X3705329Y-3416830D02*
G75*
G02*
X3635052Y-3351972I-25226J43170D01*
G01*
X3705329Y-3416830D02*
G75*
G02*
X3730555Y-3410000I25226J-43171D01*
G01*
X3730555Y-3110000D02*
G75*
G02*
X3705329Y-3103170I0J50001D01*
G01*
X3889445Y-3410000D02*
G75*
G02*
X3914671Y-3416830I0J-50001D01*
G01*
X3914671Y-3103170D02*
G75*
G02*
X3889445Y-3110000I-25226J43171D01*
G01*
X3914671Y-3103170D02*
G75*
G02*
X3984948Y-3168028I25226J-43170D01*
G01*
X3980000Y-3189716D02*
G75*
G02*
X3984948Y-3168028I49999J0D01*
G01*
X3984948Y-3351972D02*
G75*
G02*
X3914671Y-3416830I-45052J-21688D01*
G01*
X3984948Y-3351972D02*
G75*
G02*
X3980000Y-3330284I45051J21688D01*
G01*
X26023750Y-8099716D02*
X26023750Y-8240284D01*
X26114305Y-8320000D02*
X26273195Y-8320000D01*
X26273195Y-8020000D02*
X26114305Y-8020000D01*
X26363750Y-8240284D02*
X26363750Y-8099716D01*
X26018802Y-8078028D02*
G75*
G02*
X26023751Y-8099716I-45102J-21702D01*
G01*
X26018802Y-8078028D02*
G75*
G02*
X26089079Y-8013170I45051J21688D01*
G01*
X26023750Y-8240284D02*
G75*
G02*
X26018802Y-8261972I-50042J9D01*
G01*
X26089079Y-8326830D02*
G75*
G02*
X26018802Y-8261972I-25226J43170D01*
G01*
X26089079Y-8326830D02*
G75*
G02*
X26114305Y-8320000I25226J-43171D01*
G01*
X26114305Y-8020000D02*
G75*
G02*
X26089079Y-8013170I0J50001D01*
G01*
X26273195Y-8320000D02*
G75*
G02*
X26298421Y-8326830I0J-50001D01*
G01*
X26298421Y-8013170D02*
G75*
G02*
X26273195Y-8020000I-25226J43171D01*
G01*
X26298421Y-8013170D02*
G75*
G02*
X26368698Y-8078028I25226J-43170D01*
G01*
X26363750Y-8099716D02*
G75*
G02*
X26368698Y-8078028I49999J0D01*
G01*
X26368698Y-8261972D02*
G75*
G02*
X26298421Y-8326830I-45052J-21688D01*
G01*
X26368698Y-8261972D02*
G75*
G02*
X26363750Y-8240284I45051J21688D01*
G01*
X17927500Y-6194716D02*
X17927500Y-6335284D01*
X18018055Y-6415000D02*
X18176945Y-6415000D01*
X18176945Y-6115000D02*
X18018055Y-6115000D01*
X18267500Y-6335284D02*
X18267500Y-6194716D01*
X17922552Y-6173028D02*
G75*
G02*
X17927501Y-6194716I-45102J-21702D01*
G01*
X17922552Y-6173028D02*
G75*
G02*
X17992829Y-6108170I45051J21688D01*
G01*
X17927500Y-6335284D02*
G75*
G02*
X17922552Y-6356972I-50042J9D01*
G01*
X17992829Y-6421830D02*
G75*
G02*
X17922552Y-6356972I-25226J43170D01*
G01*
X17992829Y-6421830D02*
G75*
G02*
X18018055Y-6415000I25226J-43171D01*
G01*
X18018055Y-6115000D02*
G75*
G02*
X17992829Y-6108170I0J50001D01*
G01*
X18176945Y-6415000D02*
G75*
G02*
X18202171Y-6421830I0J-50001D01*
G01*
X18202171Y-6108170D02*
G75*
G02*
X18176945Y-6115000I-25226J43171D01*
G01*
X18202171Y-6108170D02*
G75*
G02*
X18272448Y-6173028I25226J-43170D01*
G01*
X18267500Y-6194716D02*
G75*
G02*
X18272448Y-6173028I49999J0D01*
G01*
X18272448Y-6356972D02*
G75*
G02*
X18202171Y-6421830I-45052J-21688D01*
G01*
X18272448Y-6356972D02*
G75*
G02*
X18267500Y-6335284I45051J21688D01*
G01*
X13165000Y-4289716D02*
X13165000Y-4430284D01*
X13255555Y-4510000D02*
X13414445Y-4510000D01*
X13414445Y-4210000D02*
X13255555Y-4210000D01*
X13505000Y-4430284D02*
X13505000Y-4289716D01*
X13160052Y-4268028D02*
G75*
G02*
X13165001Y-4289716I-45102J-21702D01*
G01*
X13160052Y-4268028D02*
G75*
G02*
X13230329Y-4203170I45051J21688D01*
G01*
X13165000Y-4430284D02*
G75*
G02*
X13160052Y-4451972I-50042J9D01*
G01*
X13230329Y-4516830D02*
G75*
G02*
X13160052Y-4451972I-25226J43170D01*
G01*
X13230329Y-4516830D02*
G75*
G02*
X13255555Y-4510000I25226J-43171D01*
G01*
X13255555Y-4210000D02*
G75*
G02*
X13230329Y-4203170I0J50001D01*
G01*
X13414445Y-4510000D02*
G75*
G02*
X13439671Y-4516830I0J-50001D01*
G01*
X13439671Y-4203170D02*
G75*
G02*
X13414445Y-4210000I-25226J43171D01*
G01*
X13439671Y-4203170D02*
G75*
G02*
X13509948Y-4268028I25226J-43170D01*
G01*
X13505000Y-4289716D02*
G75*
G02*
X13509948Y-4268028I49999J0D01*
G01*
X13509948Y-4451972D02*
G75*
G02*
X13439671Y-4516830I-45052J-21688D01*
G01*
X13509948Y-4451972D02*
G75*
G02*
X13505000Y-4430284I45051J21688D01*
G01*
X25071250Y-10004716D02*
X25071250Y-10145284D01*
X25161805Y-10225000D02*
X25320695Y-10225000D01*
X25320695Y-9925000D02*
X25161805Y-9925000D01*
X25411250Y-10145284D02*
X25411250Y-10004716D01*
X25066302Y-9983028D02*
G75*
G02*
X25071251Y-10004716I-45102J-21702D01*
G01*
X25066302Y-9983028D02*
G75*
G02*
X25136579Y-9918170I45051J21688D01*
G01*
X25071250Y-10145284D02*
G75*
G02*
X25066302Y-10166972I-50042J9D01*
G01*
X25136579Y-10231830D02*
G75*
G02*
X25066302Y-10166972I-25226J43170D01*
G01*
X25136579Y-10231830D02*
G75*
G02*
X25161805Y-10225000I25226J-43171D01*
G01*
X25161805Y-9925000D02*
G75*
G02*
X25136579Y-9918170I0J50001D01*
G01*
X25320695Y-10225000D02*
G75*
G02*
X25345921Y-10231830I0J-50001D01*
G01*
X25345921Y-9918170D02*
G75*
G02*
X25320695Y-9925000I-25226J43171D01*
G01*
X25345921Y-9918170D02*
G75*
G02*
X25416198Y-9983028I25226J-43170D01*
G01*
X25411250Y-10004716D02*
G75*
G02*
X25416198Y-9983028I49999J0D01*
G01*
X25416198Y-10166972D02*
G75*
G02*
X25345921Y-10231830I-45052J-21688D01*
G01*
X25416198Y-10166972D02*
G75*
G02*
X25411250Y-10145284I45051J21688D01*
G01*
X9831250Y-10004716D02*
X9831250Y-10145284D01*
X9921805Y-10225000D02*
X10080695Y-10225000D01*
X10080695Y-9925000D02*
X9921805Y-9925000D01*
X10171250Y-10145284D02*
X10171250Y-10004716D01*
X9826302Y-9983028D02*
G75*
G02*
X9831251Y-10004716I-45102J-21702D01*
G01*
X9826302Y-9983028D02*
G75*
G02*
X9896579Y-9918170I45051J21688D01*
G01*
X9831250Y-10145284D02*
G75*
G02*
X9826302Y-10166972I-50042J9D01*
G01*
X9896579Y-10231830D02*
G75*
G02*
X9826302Y-10166972I-25226J43170D01*
G01*
X9896579Y-10231830D02*
G75*
G02*
X9921805Y-10225000I25226J-43171D01*
G01*
X9921805Y-9925000D02*
G75*
G02*
X9896579Y-9918170I0J50001D01*
G01*
X10080695Y-10225000D02*
G75*
G02*
X10105921Y-10231830I0J-50001D01*
G01*
X10105921Y-9918170D02*
G75*
G02*
X10080695Y-9925000I-25226J43171D01*
G01*
X10105921Y-9918170D02*
G75*
G02*
X10176198Y-9983028I25226J-43170D01*
G01*
X10171250Y-10004716D02*
G75*
G02*
X10176198Y-9983028I49999J0D01*
G01*
X10176198Y-10166972D02*
G75*
G02*
X10105921Y-10231830I-45052J-21688D01*
G01*
X10176198Y-10166972D02*
G75*
G02*
X10171250Y-10145284I45051J21688D01*
G01*
X6259375Y-11909716D02*
X6259375Y-12050284D01*
X6349930Y-12130000D02*
X6508820Y-12130000D01*
X6508820Y-11830000D02*
X6349930Y-11830000D01*
X6599375Y-12050284D02*
X6599375Y-11909716D01*
X6254427Y-11888028D02*
G75*
G02*
X6259376Y-11909716I-45102J-21702D01*
G01*
X6254427Y-11888028D02*
G75*
G02*
X6324704Y-11823170I45051J21688D01*
G01*
X6259375Y-12050284D02*
G75*
G02*
X6254427Y-12071972I-50042J9D01*
G01*
X6324704Y-12136830D02*
G75*
G02*
X6254427Y-12071972I-25226J43170D01*
G01*
X6324704Y-12136830D02*
G75*
G02*
X6349930Y-12130000I25226J-43171D01*
G01*
X6349930Y-11830000D02*
G75*
G02*
X6324704Y-11823170I0J50001D01*
G01*
X6508820Y-12130000D02*
G75*
G02*
X6534046Y-12136830I0J-50001D01*
G01*
X6534046Y-11823170D02*
G75*
G02*
X6508820Y-11830000I-25226J43171D01*
G01*
X6534046Y-11823170D02*
G75*
G02*
X6604323Y-11888028I25226J-43170D01*
G01*
X6599375Y-11909716D02*
G75*
G02*
X6604323Y-11888028I49999J0D01*
G01*
X6604323Y-12071972D02*
G75*
G02*
X6534046Y-12136830I-45052J-21688D01*
G01*
X6604323Y-12071972D02*
G75*
G02*
X6599375Y-12050284I45051J21688D01*
G01*
X8878750Y-8099716D02*
X8878750Y-8240284D01*
X8969305Y-8320000D02*
X9128195Y-8320000D01*
X9128195Y-8020000D02*
X8969305Y-8020000D01*
X9218750Y-8240284D02*
X9218750Y-8099716D01*
X8873802Y-8078028D02*
G75*
G02*
X8878751Y-8099716I-45102J-21702D01*
G01*
X8873802Y-8078028D02*
G75*
G02*
X8944079Y-8013170I45051J21688D01*
G01*
X8878750Y-8240284D02*
G75*
G02*
X8873802Y-8261972I-50042J9D01*
G01*
X8944079Y-8326830D02*
G75*
G02*
X8873802Y-8261972I-25226J43170D01*
G01*
X8944079Y-8326830D02*
G75*
G02*
X8969305Y-8320000I25226J-43171D01*
G01*
X8969305Y-8020000D02*
G75*
G02*
X8944079Y-8013170I0J50001D01*
G01*
X9128195Y-8320000D02*
G75*
G02*
X9153421Y-8326830I0J-50001D01*
G01*
X9153421Y-8013170D02*
G75*
G02*
X9128195Y-8020000I-25226J43171D01*
G01*
X9153421Y-8013170D02*
G75*
G02*
X9223698Y-8078028I25226J-43170D01*
G01*
X9218750Y-8099716D02*
G75*
G02*
X9223698Y-8078028I49999J0D01*
G01*
X9223698Y-8261972D02*
G75*
G02*
X9153421Y-8326830I-45052J-21688D01*
G01*
X9223698Y-8261972D02*
G75*
G02*
X9218750Y-8240284I45051J21688D01*
G01*
X23642500Y-6194716D02*
X23642500Y-6335284D01*
X23733055Y-6415000D02*
X23891945Y-6415000D01*
X23891945Y-6115000D02*
X23733055Y-6115000D01*
X23982500Y-6335284D02*
X23982500Y-6194716D01*
X23637552Y-6173028D02*
G75*
G02*
X23642501Y-6194716I-45102J-21702D01*
G01*
X23637552Y-6173028D02*
G75*
G02*
X23707829Y-6108170I45051J21688D01*
G01*
X23642500Y-6335284D02*
G75*
G02*
X23637552Y-6356972I-50042J9D01*
G01*
X23707829Y-6421830D02*
G75*
G02*
X23637552Y-6356972I-25226J43170D01*
G01*
X23707829Y-6421830D02*
G75*
G02*
X23733055Y-6415000I25226J-43171D01*
G01*
X23733055Y-6115000D02*
G75*
G02*
X23707829Y-6108170I0J50001D01*
G01*
X23891945Y-6415000D02*
G75*
G02*
X23917171Y-6421830I0J-50001D01*
G01*
X23917171Y-6108170D02*
G75*
G02*
X23891945Y-6115000I-25226J43171D01*
G01*
X23917171Y-6108170D02*
G75*
G02*
X23987448Y-6173028I25226J-43170D01*
G01*
X23982500Y-6194716D02*
G75*
G02*
X23987448Y-6173028I49999J0D01*
G01*
X23987448Y-6356972D02*
G75*
G02*
X23917171Y-6421830I-45052J-21688D01*
G01*
X23987448Y-6356972D02*
G75*
G02*
X23982500Y-6335284I45051J21688D01*
G01*
X20785000Y-4289716D02*
X20785000Y-4430284D01*
X20875555Y-4510000D02*
X21034445Y-4510000D01*
X21034445Y-4210000D02*
X20875555Y-4210000D01*
X21125000Y-4430284D02*
X21125000Y-4289716D01*
X20780052Y-4268028D02*
G75*
G02*
X20785001Y-4289716I-45102J-21702D01*
G01*
X20780052Y-4268028D02*
G75*
G02*
X20850329Y-4203170I45051J21688D01*
G01*
X20785000Y-4430284D02*
G75*
G02*
X20780052Y-4451972I-50042J9D01*
G01*
X20850329Y-4516830D02*
G75*
G02*
X20780052Y-4451972I-25226J43170D01*
G01*
X20850329Y-4516830D02*
G75*
G02*
X20875555Y-4510000I25226J-43171D01*
G01*
X20875555Y-4210000D02*
G75*
G02*
X20850329Y-4203170I0J50001D01*
G01*
X21034445Y-4510000D02*
G75*
G02*
X21059671Y-4516830I0J-50001D01*
G01*
X21059671Y-4203170D02*
G75*
G02*
X21034445Y-4210000I-25226J43171D01*
G01*
X21059671Y-4203170D02*
G75*
G02*
X21129948Y-4268028I25226J-43170D01*
G01*
X21125000Y-4289716D02*
G75*
G02*
X21129948Y-4268028I49999J0D01*
G01*
X21129948Y-4451972D02*
G75*
G02*
X21059671Y-4516830I-45052J-21688D01*
G01*
X21129948Y-4451972D02*
G75*
G02*
X21125000Y-4430284I45051J21688D01*
G01*
X21261250Y-10004716D02*
X21261250Y-10145284D01*
X21351805Y-10225000D02*
X21510695Y-10225000D01*
X21510695Y-9925000D02*
X21351805Y-9925000D01*
X21601250Y-10145284D02*
X21601250Y-10004716D01*
X21256302Y-9983028D02*
G75*
G02*
X21261251Y-10004716I-45102J-21702D01*
G01*
X21256302Y-9983028D02*
G75*
G02*
X21326579Y-9918170I45051J21688D01*
G01*
X21261250Y-10145284D02*
G75*
G02*
X21256302Y-10166972I-50042J9D01*
G01*
X21326579Y-10231830D02*
G75*
G02*
X21256302Y-10166972I-25226J43170D01*
G01*
X21326579Y-10231830D02*
G75*
G02*
X21351805Y-10225000I25226J-43171D01*
G01*
X21351805Y-9925000D02*
G75*
G02*
X21326579Y-9918170I0J50001D01*
G01*
X21510695Y-10225000D02*
G75*
G02*
X21535921Y-10231830I0J-50001D01*
G01*
X21535921Y-9918170D02*
G75*
G02*
X21510695Y-9925000I-25226J43171D01*
G01*
X21535921Y-9918170D02*
G75*
G02*
X21606198Y-9983028I25226J-43170D01*
G01*
X21601250Y-10004716D02*
G75*
G02*
X21606198Y-9983028I49999J0D01*
G01*
X21606198Y-10166972D02*
G75*
G02*
X21535921Y-10231830I-45052J-21688D01*
G01*
X21606198Y-10166972D02*
G75*
G02*
X21601250Y-10145284I45051J21688D01*
G01*
X16975000Y-4289716D02*
X16975000Y-4430284D01*
X17065555Y-4510000D02*
X17224445Y-4510000D01*
X17224445Y-4210000D02*
X17065555Y-4210000D01*
X17315000Y-4430284D02*
X17315000Y-4289716D01*
X16970052Y-4268028D02*
G75*
G02*
X16975001Y-4289716I-45102J-21702D01*
G01*
X16970052Y-4268028D02*
G75*
G02*
X17040329Y-4203170I45051J21688D01*
G01*
X16975000Y-4430284D02*
G75*
G02*
X16970052Y-4451972I-50042J9D01*
G01*
X17040329Y-4516830D02*
G75*
G02*
X16970052Y-4451972I-25226J43170D01*
G01*
X17040329Y-4516830D02*
G75*
G02*
X17065555Y-4510000I25226J-43171D01*
G01*
X17065555Y-4210000D02*
G75*
G02*
X17040329Y-4203170I0J50001D01*
G01*
X17224445Y-4510000D02*
G75*
G02*
X17249671Y-4516830I0J-50001D01*
G01*
X17249671Y-4203170D02*
G75*
G02*
X17224445Y-4210000I-25226J43171D01*
G01*
X17249671Y-4203170D02*
G75*
G02*
X17319948Y-4268028I25226J-43170D01*
G01*
X17315000Y-4289716D02*
G75*
G02*
X17319948Y-4268028I49999J0D01*
G01*
X17319948Y-4451972D02*
G75*
G02*
X17249671Y-4516830I-45052J-21688D01*
G01*
X17319948Y-4451972D02*
G75*
G02*
X17315000Y-4430284I45051J21688D01*
G01*
X4116250Y-6194716D02*
X4116250Y-6335284D01*
X4206805Y-6415000D02*
X4365695Y-6415000D01*
X4365695Y-6115000D02*
X4206805Y-6115000D01*
X4456250Y-6335284D02*
X4456250Y-6194716D01*
X4111302Y-6173028D02*
G75*
G02*
X4116251Y-6194716I-45102J-21702D01*
G01*
X4111302Y-6173028D02*
G75*
G02*
X4181579Y-6108170I45051J21688D01*
G01*
X4116250Y-6335284D02*
G75*
G02*
X4111302Y-6356972I-50042J9D01*
G01*
X4181579Y-6421830D02*
G75*
G02*
X4111302Y-6356972I-25226J43170D01*
G01*
X4181579Y-6421830D02*
G75*
G02*
X4206805Y-6415000I25226J-43171D01*
G01*
X4206805Y-6115000D02*
G75*
G02*
X4181579Y-6108170I0J50001D01*
G01*
X4365695Y-6415000D02*
G75*
G02*
X4390921Y-6421830I0J-50001D01*
G01*
X4390921Y-6108170D02*
G75*
G02*
X4365695Y-6115000I-25226J43171D01*
G01*
X4390921Y-6108170D02*
G75*
G02*
X4461198Y-6173028I25226J-43170D01*
G01*
X4456250Y-6194716D02*
G75*
G02*
X4461198Y-6173028I49999J0D01*
G01*
X4461198Y-6356972D02*
G75*
G02*
X4390921Y-6421830I-45052J-21688D01*
G01*
X4461198Y-6356972D02*
G75*
G02*
X4456250Y-6335284I45051J21688D01*
G01*
X22690000Y-4289716D02*
X22690000Y-4430284D01*
X22780555Y-4510000D02*
X22939445Y-4510000D01*
X22939445Y-4210000D02*
X22780555Y-4210000D01*
X23030000Y-4430284D02*
X23030000Y-4289716D01*
X22685052Y-4268028D02*
G75*
G02*
X22690001Y-4289716I-45102J-21702D01*
G01*
X22685052Y-4268028D02*
G75*
G02*
X22755329Y-4203170I45051J21688D01*
G01*
X22690000Y-4430284D02*
G75*
G02*
X22685052Y-4451972I-50042J9D01*
G01*
X22755329Y-4516830D02*
G75*
G02*
X22685052Y-4451972I-25226J43170D01*
G01*
X22755329Y-4516830D02*
G75*
G02*
X22780555Y-4510000I25226J-43171D01*
G01*
X22780555Y-4210000D02*
G75*
G02*
X22755329Y-4203170I0J50001D01*
G01*
X22939445Y-4510000D02*
G75*
G02*
X22964671Y-4516830I0J-50001D01*
G01*
X22964671Y-4203170D02*
G75*
G02*
X22939445Y-4210000I-25226J43171D01*
G01*
X22964671Y-4203170D02*
G75*
G02*
X23034948Y-4268028I25226J-43170D01*
G01*
X23030000Y-4289716D02*
G75*
G02*
X23034948Y-4268028I49999J0D01*
G01*
X23034948Y-4451972D02*
G75*
G02*
X22964671Y-4516830I-45052J-21688D01*
G01*
X23034948Y-4451972D02*
G75*
G02*
X23030000Y-4430284I45051J21688D01*
G01*
X10783750Y-8099716D02*
X10783750Y-8240284D01*
X10874305Y-8320000D02*
X11033195Y-8320000D01*
X11033195Y-8020000D02*
X10874305Y-8020000D01*
X11123750Y-8240284D02*
X11123750Y-8099716D01*
X10778802Y-8078028D02*
G75*
G02*
X10783751Y-8099716I-45102J-21702D01*
G01*
X10778802Y-8078028D02*
G75*
G02*
X10849079Y-8013170I45051J21688D01*
G01*
X10783750Y-8240284D02*
G75*
G02*
X10778802Y-8261972I-50042J9D01*
G01*
X10849079Y-8326830D02*
G75*
G02*
X10778802Y-8261972I-25226J43170D01*
G01*
X10849079Y-8326830D02*
G75*
G02*
X10874305Y-8320000I25226J-43171D01*
G01*
X10874305Y-8020000D02*
G75*
G02*
X10849079Y-8013170I0J50001D01*
G01*
X11033195Y-8320000D02*
G75*
G02*
X11058421Y-8326830I0J-50001D01*
G01*
X11058421Y-8013170D02*
G75*
G02*
X11033195Y-8020000I-25226J43171D01*
G01*
X11058421Y-8013170D02*
G75*
G02*
X11128698Y-8078028I25226J-43170D01*
G01*
X11123750Y-8099716D02*
G75*
G02*
X11128698Y-8078028I49999J0D01*
G01*
X11128698Y-8261972D02*
G75*
G02*
X11058421Y-8326830I-45052J-21688D01*
G01*
X11128698Y-8261972D02*
G75*
G02*
X11123750Y-8240284I45051J21688D01*
G01*
X12212500Y-6194716D02*
X12212500Y-6335284D01*
X12303055Y-6415000D02*
X12461945Y-6415000D01*
X12461945Y-6115000D02*
X12303055Y-6115000D01*
X12552500Y-6335284D02*
X12552500Y-6194716D01*
X12207552Y-6173028D02*
G75*
G02*
X12212501Y-6194716I-45102J-21702D01*
G01*
X12207552Y-6173028D02*
G75*
G02*
X12277829Y-6108170I45051J21688D01*
G01*
X12212500Y-6335284D02*
G75*
G02*
X12207552Y-6356972I-50042J9D01*
G01*
X12277829Y-6421830D02*
G75*
G02*
X12207552Y-6356972I-25226J43170D01*
G01*
X12277829Y-6421830D02*
G75*
G02*
X12303055Y-6415000I25226J-43171D01*
G01*
X12303055Y-6115000D02*
G75*
G02*
X12277829Y-6108170I0J50001D01*
G01*
X12461945Y-6415000D02*
G75*
G02*
X12487171Y-6421830I0J-50001D01*
G01*
X12487171Y-6108170D02*
G75*
G02*
X12461945Y-6115000I-25226J43171D01*
G01*
X12487171Y-6108170D02*
G75*
G02*
X12557448Y-6173028I25226J-43170D01*
G01*
X12552500Y-6194716D02*
G75*
G02*
X12557448Y-6173028I49999J0D01*
G01*
X12557448Y-6356972D02*
G75*
G02*
X12487171Y-6421830I-45052J-21688D01*
G01*
X12557448Y-6356972D02*
G75*
G02*
X12552500Y-6335284I45051J21688D01*
G01*
X6973750Y-8099716D02*
X6973750Y-8240284D01*
X7064305Y-8320000D02*
X7223195Y-8320000D01*
X7223195Y-8020000D02*
X7064305Y-8020000D01*
X7313750Y-8240284D02*
X7313750Y-8099716D01*
X6968802Y-8078028D02*
G75*
G02*
X6973751Y-8099716I-45102J-21702D01*
G01*
X6968802Y-8078028D02*
G75*
G02*
X7039079Y-8013170I45051J21688D01*
G01*
X6973750Y-8240284D02*
G75*
G02*
X6968802Y-8261972I-50042J9D01*
G01*
X7039079Y-8326830D02*
G75*
G02*
X6968802Y-8261972I-25226J43170D01*
G01*
X7039079Y-8326830D02*
G75*
G02*
X7064305Y-8320000I25226J-43171D01*
G01*
X7064305Y-8020000D02*
G75*
G02*
X7039079Y-8013170I0J50001D01*
G01*
X7223195Y-8320000D02*
G75*
G02*
X7248421Y-8326830I0J-50001D01*
G01*
X7248421Y-8013170D02*
G75*
G02*
X7223195Y-8020000I-25226J43171D01*
G01*
X7248421Y-8013170D02*
G75*
G02*
X7318698Y-8078028I25226J-43170D01*
G01*
X7313750Y-8099716D02*
G75*
G02*
X7318698Y-8078028I49999J0D01*
G01*
X7318698Y-8261972D02*
G75*
G02*
X7248421Y-8326830I-45052J-21688D01*
G01*
X7318698Y-8261972D02*
G75*
G02*
X7313750Y-8240284I45051J21688D01*
G01*
X3878125Y-10004716D02*
X3878125Y-10145284D01*
X3968680Y-10225000D02*
X4127570Y-10225000D01*
X4127570Y-9925000D02*
X3968680Y-9925000D01*
X4218125Y-10145284D02*
X4218125Y-10004716D01*
X3873177Y-9983028D02*
G75*
G02*
X3878126Y-10004716I-45102J-21702D01*
G01*
X3873177Y-9983028D02*
G75*
G02*
X3943454Y-9918170I45051J21688D01*
G01*
X3878125Y-10145284D02*
G75*
G02*
X3873177Y-10166972I-50042J9D01*
G01*
X3943454Y-10231830D02*
G75*
G02*
X3873177Y-10166972I-25226J43170D01*
G01*
X3943454Y-10231830D02*
G75*
G02*
X3968680Y-10225000I25226J-43171D01*
G01*
X3968680Y-9925000D02*
G75*
G02*
X3943454Y-9918170I0J50001D01*
G01*
X4127570Y-10225000D02*
G75*
G02*
X4152796Y-10231830I0J-50001D01*
G01*
X4152796Y-9918170D02*
G75*
G02*
X4127570Y-9925000I-25226J43171D01*
G01*
X4152796Y-9918170D02*
G75*
G02*
X4223073Y-9983028I25226J-43170D01*
G01*
X4218125Y-10004716D02*
G75*
G02*
X4223073Y-9983028I49999J0D01*
G01*
X4223073Y-10166972D02*
G75*
G02*
X4152796Y-10231830I-45052J-21688D01*
G01*
X4223073Y-10166972D02*
G75*
G02*
X4218125Y-10145284I45051J21688D01*
G01*
X24118750Y-8099716D02*
X24118750Y-8240284D01*
X24209305Y-8320000D02*
X24368195Y-8320000D01*
X24368195Y-8020000D02*
X24209305Y-8020000D01*
X24458750Y-8240284D02*
X24458750Y-8099716D01*
X24113802Y-8078028D02*
G75*
G02*
X24118751Y-8099716I-45102J-21702D01*
G01*
X24113802Y-8078028D02*
G75*
G02*
X24184079Y-8013170I45051J21688D01*
G01*
X24118750Y-8240284D02*
G75*
G02*
X24113802Y-8261972I-50042J9D01*
G01*
X24184079Y-8326830D02*
G75*
G02*
X24113802Y-8261972I-25226J43170D01*
G01*
X24184079Y-8326830D02*
G75*
G02*
X24209305Y-8320000I25226J-43171D01*
G01*
X24209305Y-8020000D02*
G75*
G02*
X24184079Y-8013170I0J50001D01*
G01*
X24368195Y-8320000D02*
G75*
G02*
X24393421Y-8326830I0J-50001D01*
G01*
X24393421Y-8013170D02*
G75*
G02*
X24368195Y-8020000I-25226J43171D01*
G01*
X24393421Y-8013170D02*
G75*
G02*
X24463698Y-8078028I25226J-43170D01*
G01*
X24458750Y-8099716D02*
G75*
G02*
X24463698Y-8078028I49999J0D01*
G01*
X24463698Y-8261972D02*
G75*
G02*
X24393421Y-8326830I-45052J-21688D01*
G01*
X24463698Y-8261972D02*
G75*
G02*
X24458750Y-8240284I45051J21688D01*
G01*
X16022500Y-6194716D02*
X16022500Y-6335284D01*
X16113055Y-6415000D02*
X16271945Y-6415000D01*
X16271945Y-6115000D02*
X16113055Y-6115000D01*
X16362500Y-6335284D02*
X16362500Y-6194716D01*
X16017552Y-6173028D02*
G75*
G02*
X16022501Y-6194716I-45102J-21702D01*
G01*
X16017552Y-6173028D02*
G75*
G02*
X16087829Y-6108170I45051J21688D01*
G01*
X16022500Y-6335284D02*
G75*
G02*
X16017552Y-6356972I-50042J9D01*
G01*
X16087829Y-6421830D02*
G75*
G02*
X16017552Y-6356972I-25226J43170D01*
G01*
X16087829Y-6421830D02*
G75*
G02*
X16113055Y-6415000I25226J-43171D01*
G01*
X16113055Y-6115000D02*
G75*
G02*
X16087829Y-6108170I0J50001D01*
G01*
X16271945Y-6415000D02*
G75*
G02*
X16297171Y-6421830I0J-50001D01*
G01*
X16297171Y-6108170D02*
G75*
G02*
X16271945Y-6115000I-25226J43171D01*
G01*
X16297171Y-6108170D02*
G75*
G02*
X16367448Y-6173028I25226J-43170D01*
G01*
X16362500Y-6194716D02*
G75*
G02*
X16367448Y-6173028I49999J0D01*
G01*
X16367448Y-6356972D02*
G75*
G02*
X16297171Y-6421830I-45052J-21688D01*
G01*
X16367448Y-6356972D02*
G75*
G02*
X16362500Y-6335284I45051J21688D01*
G01*
X18403750Y-8099716D02*
X18403750Y-8240284D01*
X18494305Y-8320000D02*
X18653195Y-8320000D01*
X18653195Y-8020000D02*
X18494305Y-8020000D01*
X18743750Y-8240284D02*
X18743750Y-8099716D01*
X18398802Y-8078028D02*
G75*
G02*
X18403751Y-8099716I-45102J-21702D01*
G01*
X18398802Y-8078028D02*
G75*
G02*
X18469079Y-8013170I45051J21688D01*
G01*
X18403750Y-8240284D02*
G75*
G02*
X18398802Y-8261972I-50042J9D01*
G01*
X18469079Y-8326830D02*
G75*
G02*
X18398802Y-8261972I-25226J43170D01*
G01*
X18469079Y-8326830D02*
G75*
G02*
X18494305Y-8320000I25226J-43171D01*
G01*
X18494305Y-8020000D02*
G75*
G02*
X18469079Y-8013170I0J50001D01*
G01*
X18653195Y-8320000D02*
G75*
G02*
X18678421Y-8326830I0J-50001D01*
G01*
X18678421Y-8013170D02*
G75*
G02*
X18653195Y-8020000I-25226J43171D01*
G01*
X18678421Y-8013170D02*
G75*
G02*
X18748698Y-8078028I25226J-43170D01*
G01*
X18743750Y-8099716D02*
G75*
G02*
X18748698Y-8078028I49999J0D01*
G01*
X18748698Y-8261972D02*
G75*
G02*
X18678421Y-8326830I-45052J-21688D01*
G01*
X18748698Y-8261972D02*
G75*
G02*
X18743750Y-8240284I45051J21688D01*
G01*
D12*
D11*
X14387500Y-11234500D02*
X14407500Y-11254500D01*
X14407500Y-11234500D02*
X14387500Y-11254500D01*
X12765000Y-11205000D02*
G75*
G02*
X12745000Y-11205000I-10000J0D01*
G01*
X12745000Y-11205000D02*
G75*
G02*
X12765000Y-11205000I10000J0D01*
G01*
X12765000Y-11475000D02*
G75*
G02*
X12745000Y-11475000I-10000J0D01*
G01*
X12745000Y-11475000D02*
G75*
G02*
X12765000Y-11475000I10000J0D01*
G01*
X13035000Y-11205000D02*
G75*
G02*
X13015000Y-11205000I-10000J0D01*
G01*
X13015000Y-11205000D02*
G75*
G02*
X13035000Y-11205000I10000J0D01*
G01*
X13035000Y-11475000D02*
G75*
G02*
X13015000Y-11475000I-10000J0D01*
G01*
X13015000Y-11475000D02*
G75*
G02*
X13035000Y-11475000I10000J0D01*
G01*
X3302000Y-3492000D02*
X3302000Y-3522000D01*
X3287000Y-3507000D02*
X3317000Y-3507000D01*
X3387500Y-3170000D02*
X3387500Y-3200000D01*
X3372500Y-3185000D02*
X3402500Y-3185000D01*
X3775625Y-9885000D02*
X3775625Y-9915000D01*
X3760625Y-9900000D02*
X3790625Y-9900000D01*
X3775625Y-11790000D02*
X3775625Y-11820000D01*
X3760625Y-11805000D02*
X3790625Y-11805000D01*
X4013750Y-6075000D02*
X4013750Y-6105000D01*
X3998750Y-6090000D02*
X4028750Y-6090000D01*
X4182500Y-3492500D02*
X4182500Y-3522500D01*
X4167500Y-3507500D02*
X4197500Y-3507500D01*
X4251875Y-7980000D02*
X4251875Y-8010000D01*
X4236875Y-7995000D02*
X4266875Y-7995000D01*
X4704125Y-10135000D02*
X4704125Y-10165000D01*
X4689125Y-10150000D02*
X4719125Y-10150000D01*
X4704125Y-12040000D02*
X4704125Y-12070000D01*
X4689125Y-12055000D02*
X4719125Y-12055000D01*
X4730000Y-3842500D02*
X4730000Y-3872500D01*
X4715000Y-3857500D02*
X4745000Y-3857500D01*
X4755000Y-4177500D02*
X4755000Y-4207500D01*
X4740000Y-4192500D02*
X4770000Y-4192500D01*
X4857777Y-4509450D02*
X4857777Y-4539450D01*
X4842777Y-4524450D02*
X4872777Y-4524450D01*
X4875000Y-4177500D02*
X4875000Y-4207500D01*
X4860000Y-4192500D02*
X4890000Y-4192500D01*
X4942250Y-6325000D02*
X4942250Y-6355000D01*
X4927250Y-6340000D02*
X4957250Y-6340000D01*
X5180375Y-8230000D02*
X5180375Y-8260000D01*
X5165375Y-8245000D02*
X5195375Y-8245000D01*
X5382500Y-3592500D02*
X5382500Y-3622500D01*
X5367500Y-3607500D02*
X5397500Y-3607500D01*
X5680000Y-10442500D02*
X5680000Y-10472500D01*
X5665000Y-10457500D02*
X5695000Y-10457500D01*
X5680000Y-10527500D02*
X5680000Y-10557500D01*
X5665000Y-10542500D02*
X5695000Y-10542500D01*
X5745000Y-10590000D02*
X5745000Y-10620000D01*
X5730000Y-10605000D02*
X5760000Y-10605000D01*
X5918750Y-9885000D02*
X5918750Y-9915000D01*
X5903750Y-9900000D02*
X5933750Y-9900000D01*
X6156875Y-11790000D02*
X6156875Y-11820000D01*
X6141875Y-11805000D02*
X6171875Y-11805000D01*
X6223000Y-3492000D02*
X6223000Y-3522000D01*
X6208000Y-3507000D02*
X6238000Y-3507000D01*
X6371000Y-3170000D02*
X6371000Y-3200000D01*
X6356000Y-3185000D02*
X6386000Y-3185000D01*
X6395000Y-6075000D02*
X6395000Y-6105000D01*
X6380000Y-6090000D02*
X6410000Y-6090000D01*
X6847250Y-10135000D02*
X6847250Y-10165000D01*
X6832250Y-10150000D02*
X6862250Y-10150000D01*
X6871250Y-7980000D02*
X6871250Y-8010000D01*
X6856250Y-7995000D02*
X6886250Y-7995000D01*
X7085375Y-12040000D02*
X7085375Y-12070000D01*
X7070375Y-12055000D02*
X7100375Y-12055000D01*
X7323500Y-6325000D02*
X7323500Y-6355000D01*
X7308500Y-6340000D02*
X7338500Y-6340000D01*
X7347500Y-4170000D02*
X7347500Y-4200000D01*
X7332500Y-4185000D02*
X7362500Y-4185000D01*
X7799750Y-8230000D02*
X7799750Y-8260000D01*
X7784750Y-8245000D02*
X7814750Y-8245000D01*
X7823750Y-9885000D02*
X7823750Y-9915000D01*
X7808750Y-9900000D02*
X7838750Y-9900000D01*
X8276000Y-4420000D02*
X8276000Y-4450000D01*
X8261000Y-4435000D02*
X8291000Y-4435000D01*
X8300000Y-6075000D02*
X8300000Y-6105000D01*
X8285000Y-6090000D02*
X8315000Y-6090000D01*
X8332500Y-10292500D02*
X8332500Y-10322500D01*
X8317500Y-10307500D02*
X8347500Y-10307500D01*
X8538125Y-11790000D02*
X8538125Y-11820000D01*
X8523125Y-11805000D02*
X8553125Y-11805000D01*
X8707500Y-4110000D02*
X8707500Y-4140000D01*
X8692500Y-4125000D02*
X8722500Y-4125000D01*
X8752250Y-10135000D02*
X8752250Y-10165000D01*
X8737250Y-10150000D02*
X8767250Y-10150000D01*
X8776250Y-7980000D02*
X8776250Y-8010000D01*
X8761250Y-7995000D02*
X8791250Y-7995000D01*
X9017499Y-9825000D02*
X9017499Y-9855000D01*
X9002499Y-9840000D02*
X9032499Y-9840000D01*
X9017499Y-10045000D02*
X9017499Y-10075000D01*
X9002499Y-10060000D02*
X9032499Y-10060000D01*
X9035000Y-10530000D02*
X9035000Y-10560000D01*
X9020000Y-10545000D02*
X9050000Y-10545000D01*
X9037500Y-10447500D02*
X9037500Y-10477500D01*
X9022500Y-10462500D02*
X9052500Y-10462500D01*
X9097499Y-10045000D02*
X9097499Y-10075000D01*
X9082499Y-10060000D02*
X9112499Y-10060000D01*
X9177500Y-10045000D02*
X9177500Y-10075000D01*
X9162500Y-10060000D02*
X9192500Y-10060000D01*
X9182500Y-10385000D02*
X9182500Y-10415000D01*
X9167500Y-10400000D02*
X9197500Y-10400000D01*
X9228500Y-6325000D02*
X9228500Y-6355000D01*
X9213500Y-6340000D02*
X9243500Y-6340000D01*
X9252500Y-4170000D02*
X9252500Y-4200000D01*
X9237500Y-4185000D02*
X9267500Y-4185000D01*
X9257500Y-10045000D02*
X9257500Y-10075000D01*
X9242500Y-10060000D02*
X9272500Y-10060000D01*
X9466625Y-12040000D02*
X9466625Y-12070000D01*
X9451625Y-12055000D02*
X9481625Y-12055000D01*
X9609958Y-10292500D02*
X9609958Y-10322500D01*
X9594958Y-10307500D02*
X9624958Y-10307500D01*
X9704750Y-8230000D02*
X9704750Y-8260000D01*
X9689750Y-8245000D02*
X9719750Y-8245000D01*
X9728750Y-9885000D02*
X9728750Y-9915000D01*
X9713750Y-9900000D02*
X9743750Y-9900000D01*
X9787000Y-6035000D02*
X9787000Y-6065000D01*
X9772000Y-6050000D02*
X9802000Y-6050000D01*
X10007500Y-7940000D02*
X10007500Y-7970000D01*
X9992500Y-7955000D02*
X10022500Y-7955000D01*
X10181000Y-4420000D02*
X10181000Y-4450000D01*
X10166000Y-4435000D02*
X10196000Y-4435000D01*
X10205000Y-6075000D02*
X10205000Y-6105000D01*
X10190000Y-6090000D02*
X10220000Y-6090000D01*
X10657250Y-10135000D02*
X10657250Y-10165000D01*
X10642250Y-10150000D02*
X10672250Y-10150000D01*
X10681250Y-7980000D02*
X10681250Y-8010000D01*
X10666250Y-7995000D02*
X10696250Y-7995000D01*
X11133500Y-6325000D02*
X11133500Y-6355000D01*
X11118500Y-6340000D02*
X11148500Y-6340000D01*
X11157500Y-4170000D02*
X11157500Y-4200000D01*
X11142500Y-4185000D02*
X11172500Y-4185000D01*
X11322500Y-11362500D02*
X11322500Y-11392500D01*
X11307500Y-11377500D02*
X11337500Y-11377500D01*
X11387500Y-11310000D02*
X11387500Y-11340000D01*
X11372500Y-11325000D02*
X11402500Y-11325000D01*
X11609750Y-8230000D02*
X11609750Y-8260000D01*
X11594750Y-8245000D02*
X11624750Y-8245000D01*
X11633750Y-9885000D02*
X11633750Y-9915000D01*
X11618750Y-9900000D02*
X11648750Y-9900000D01*
X11760750Y-11245000D02*
X11760750Y-11275000D01*
X11745750Y-11260000D02*
X11775750Y-11260000D01*
X11801500Y-11585500D02*
X11801500Y-11615500D01*
X11786500Y-11600500D02*
X11816500Y-11600500D01*
X11883750Y-10968576D02*
X11883750Y-10998576D01*
X11868750Y-10983576D02*
X11898750Y-10983576D01*
X11970561Y-11345000D02*
X11970561Y-11375000D01*
X11955561Y-11360000D02*
X11985561Y-11360000D01*
X12086000Y-4420000D02*
X12086000Y-4450000D01*
X12071000Y-4435000D02*
X12101000Y-4435000D01*
X12110000Y-6075000D02*
X12110000Y-6105000D01*
X12095000Y-6090000D02*
X12125000Y-6090000D01*
X12258750Y-10885000D02*
X12258750Y-10915000D01*
X12243750Y-10900000D02*
X12273750Y-10900000D01*
X12321250Y-9825000D02*
X12321250Y-9855000D01*
X12306250Y-9840000D02*
X12336250Y-9840000D01*
X12460750Y-10760000D02*
X12460750Y-10790000D01*
X12445750Y-10775000D02*
X12475750Y-10775000D01*
X12556750Y-10760000D02*
X12556750Y-10790000D01*
X12541750Y-10775000D02*
X12571750Y-10775000D01*
X12562250Y-10135000D02*
X12562250Y-10165000D01*
X12547250Y-10150000D02*
X12577250Y-10150000D01*
X12586250Y-7980000D02*
X12586250Y-8010000D01*
X12571250Y-7995000D02*
X12601250Y-7995000D01*
X12610000Y-9985000D02*
X12610000Y-10015000D01*
X12595000Y-10000000D02*
X12625000Y-10000000D01*
X12982500Y-10292500D02*
X12982500Y-10322500D01*
X12967500Y-10307500D02*
X12997500Y-10307500D01*
X13010750Y-11910000D02*
X13010750Y-11940000D01*
X12995750Y-11925000D02*
X13025750Y-11925000D01*
X13038500Y-6325000D02*
X13038500Y-6355000D01*
X13023500Y-6340000D02*
X13053500Y-6340000D01*
X13062500Y-4170000D02*
X13062500Y-4200000D01*
X13047500Y-4185000D02*
X13077500Y-4185000D01*
X13132500Y-10596500D02*
X13132500Y-10626500D01*
X13117500Y-10611500D02*
X13147500Y-10611500D01*
X13332500Y-10135000D02*
X13332500Y-10165000D01*
X13317500Y-10150000D02*
X13347500Y-10150000D01*
X13358750Y-11606000D02*
X13358750Y-11636000D01*
X13343750Y-11621000D02*
X13373750Y-11621000D01*
X13507500Y-9692500D02*
X13507500Y-9722500D01*
X13492500Y-9707500D02*
X13522500Y-9707500D01*
X13514750Y-8230000D02*
X13514750Y-8260000D01*
X13499750Y-8245000D02*
X13529750Y-8245000D01*
X13538750Y-9885000D02*
X13538750Y-9915000D01*
X13523750Y-9900000D02*
X13553750Y-9900000D01*
X13898750Y-11945000D02*
X13898750Y-11975000D01*
X13883750Y-11960000D02*
X13913750Y-11960000D01*
X13991000Y-4420000D02*
X13991000Y-4450000D01*
X13976000Y-4435000D02*
X14006000Y-4435000D01*
X14015000Y-6075000D02*
X14015000Y-6105000D01*
X14000000Y-6090000D02*
X14030000Y-6090000D01*
X14024750Y-11819000D02*
X14024750Y-11849000D01*
X14009750Y-11834000D02*
X14039750Y-11834000D01*
X14319250Y-9825000D02*
X14319250Y-9855000D01*
X14304250Y-9840000D02*
X14334250Y-9840000D01*
X14467250Y-10092500D02*
X14467250Y-10122500D01*
X14452250Y-10107500D02*
X14482250Y-10107500D01*
X14491250Y-7980000D02*
X14491250Y-8010000D01*
X14476250Y-7995000D02*
X14506250Y-7995000D01*
X14580037Y-9985110D02*
X14580037Y-10015110D01*
X14565037Y-10000110D02*
X14595037Y-10000110D01*
X14607500Y-10292500D02*
X14607500Y-10322500D01*
X14592500Y-10307500D02*
X14622500Y-10307500D01*
X14657500Y-10517000D02*
X14657500Y-10547000D01*
X14642500Y-10532000D02*
X14672500Y-10532000D01*
X14943500Y-6325000D02*
X14943500Y-6355000D01*
X14928500Y-6340000D02*
X14958500Y-6340000D01*
X14967500Y-4170000D02*
X14967500Y-4200000D01*
X14952500Y-4185000D02*
X14982500Y-4185000D01*
X15275250Y-9825000D02*
X15275250Y-9855000D01*
X15260250Y-9840000D02*
X15290250Y-9840000D01*
X15275250Y-10135000D02*
X15275250Y-10165000D01*
X15260250Y-10150000D02*
X15290250Y-10150000D01*
X15419750Y-8230000D02*
X15419750Y-8260000D01*
X15404750Y-8245000D02*
X15434750Y-8245000D01*
X15443750Y-9885000D02*
X15443750Y-9915000D01*
X15428750Y-9900000D02*
X15458750Y-9900000D01*
X15681875Y-11790000D02*
X15681875Y-11820000D01*
X15666875Y-11805000D02*
X15696875Y-11805000D01*
X15896000Y-4420000D02*
X15896000Y-4450000D01*
X15881000Y-4435000D02*
X15911000Y-4435000D01*
X15920000Y-6075000D02*
X15920000Y-6105000D01*
X15905000Y-6090000D02*
X15935000Y-6090000D01*
X16372250Y-10135000D02*
X16372250Y-10165000D01*
X16357250Y-10150000D02*
X16387250Y-10150000D01*
X16396250Y-7980000D02*
X16396250Y-8010000D01*
X16381250Y-7995000D02*
X16411250Y-7995000D01*
X16610375Y-12040000D02*
X16610375Y-12070000D01*
X16595375Y-12055000D02*
X16625375Y-12055000D01*
X16848500Y-6325000D02*
X16848500Y-6355000D01*
X16833500Y-6340000D02*
X16863500Y-6340000D01*
X16872500Y-4170000D02*
X16872500Y-4200000D01*
X16857500Y-4185000D02*
X16887500Y-4185000D01*
X17324750Y-8230000D02*
X17324750Y-8260000D01*
X17309750Y-8245000D02*
X17339750Y-8245000D01*
X17348750Y-9885000D02*
X17348750Y-9915000D01*
X17333750Y-9900000D02*
X17363750Y-9900000D01*
X17801000Y-4420000D02*
X17801000Y-4450000D01*
X17786000Y-4435000D02*
X17816000Y-4435000D01*
X17825000Y-6075000D02*
X17825000Y-6105000D01*
X17810000Y-6090000D02*
X17840000Y-6090000D01*
X18277250Y-10135000D02*
X18277250Y-10165000D01*
X18262250Y-10150000D02*
X18292250Y-10150000D01*
X18301250Y-7980000D02*
X18301250Y-8010000D01*
X18286250Y-7995000D02*
X18316250Y-7995000D01*
X18753500Y-6325000D02*
X18753500Y-6355000D01*
X18738500Y-6340000D02*
X18768500Y-6340000D01*
X18777500Y-4170000D02*
X18777500Y-4200000D01*
X18762500Y-4185000D02*
X18792500Y-4185000D01*
X19229750Y-8230000D02*
X19229750Y-8260000D01*
X19214750Y-8245000D02*
X19244750Y-8245000D01*
X19253750Y-9885000D02*
X19253750Y-9915000D01*
X19238750Y-9900000D02*
X19268750Y-9900000D01*
X19706000Y-4420000D02*
X19706000Y-4450000D01*
X19691000Y-4435000D02*
X19721000Y-4435000D01*
X19730000Y-6075000D02*
X19730000Y-6105000D01*
X19715000Y-6090000D02*
X19745000Y-6090000D01*
X20182250Y-10135000D02*
X20182250Y-10165000D01*
X20167250Y-10150000D02*
X20197250Y-10150000D01*
X20206250Y-7980000D02*
X20206250Y-8010000D01*
X20191250Y-7995000D02*
X20221250Y-7995000D01*
X20658500Y-6325000D02*
X20658500Y-6355000D01*
X20643500Y-6340000D02*
X20673500Y-6340000D01*
X20682500Y-4170000D02*
X20682500Y-4200000D01*
X20667500Y-4185000D02*
X20697500Y-4185000D01*
X21134750Y-8230000D02*
X21134750Y-8260000D01*
X21119750Y-8245000D02*
X21149750Y-8245000D01*
X21158750Y-9885000D02*
X21158750Y-9915000D01*
X21143750Y-9900000D02*
X21173750Y-9900000D01*
X21611000Y-4420000D02*
X21611000Y-4450000D01*
X21596000Y-4435000D02*
X21626000Y-4435000D01*
X21635000Y-6075000D02*
X21635000Y-6105000D01*
X21620000Y-6090000D02*
X21650000Y-6090000D01*
X22087250Y-10135000D02*
X22087250Y-10165000D01*
X22072250Y-10150000D02*
X22102250Y-10150000D01*
X22111250Y-7980000D02*
X22111250Y-8010000D01*
X22096250Y-7995000D02*
X22126250Y-7995000D01*
X22563500Y-6325000D02*
X22563500Y-6355000D01*
X22548500Y-6340000D02*
X22578500Y-6340000D01*
X22587500Y-4170000D02*
X22587500Y-4200000D01*
X22572500Y-4185000D02*
X22602500Y-4185000D01*
X22825625Y-11790000D02*
X22825625Y-11820000D01*
X22810625Y-11805000D02*
X22840625Y-11805000D01*
X23039750Y-8230000D02*
X23039750Y-8260000D01*
X23024750Y-8245000D02*
X23054750Y-8245000D01*
X23063750Y-9885000D02*
X23063750Y-9915000D01*
X23048750Y-9900000D02*
X23078750Y-9900000D01*
X23516000Y-4420000D02*
X23516000Y-4450000D01*
X23501000Y-4435000D02*
X23531000Y-4435000D01*
X23540000Y-6075000D02*
X23540000Y-6105000D01*
X23525000Y-6090000D02*
X23555000Y-6090000D01*
X23754125Y-12040000D02*
X23754125Y-12070000D01*
X23739125Y-12055000D02*
X23769125Y-12055000D01*
X23992250Y-10135000D02*
X23992250Y-10165000D01*
X23977250Y-10150000D02*
X24007250Y-10150000D01*
X24016250Y-7980000D02*
X24016250Y-8010000D01*
X24001250Y-7995000D02*
X24031250Y-7995000D01*
X24468500Y-6325000D02*
X24468500Y-6355000D01*
X24453500Y-6340000D02*
X24483500Y-6340000D01*
X24492500Y-4170000D02*
X24492500Y-4200000D01*
X24477500Y-4185000D02*
X24507500Y-4185000D01*
X24944750Y-8230000D02*
X24944750Y-8260000D01*
X24929750Y-8245000D02*
X24959750Y-8245000D01*
X24968750Y-9885000D02*
X24968750Y-9915000D01*
X24953750Y-9900000D02*
X24983750Y-9900000D01*
X25206875Y-11790000D02*
X25206875Y-11820000D01*
X25191875Y-11805000D02*
X25221875Y-11805000D01*
X25421000Y-4420000D02*
X25421000Y-4450000D01*
X25406000Y-4435000D02*
X25436000Y-4435000D01*
X25445000Y-6075000D02*
X25445000Y-6105000D01*
X25430000Y-6090000D02*
X25460000Y-6090000D01*
X25897250Y-10135000D02*
X25897250Y-10165000D01*
X25882250Y-10150000D02*
X25912250Y-10150000D01*
X25921250Y-7980000D02*
X25921250Y-8010000D01*
X25906250Y-7995000D02*
X25936250Y-7995000D01*
X26135375Y-12040000D02*
X26135375Y-12070000D01*
X26120375Y-12055000D02*
X26150375Y-12055000D01*
X26373500Y-6325000D02*
X26373500Y-6355000D01*
X26358500Y-6340000D02*
X26388500Y-6340000D01*
X26397500Y-4170000D02*
X26397500Y-4200000D01*
X26382500Y-4185000D02*
X26412500Y-4185000D01*
X26849750Y-8230000D02*
X26849750Y-8260000D01*
X26834750Y-8245000D02*
X26864750Y-8245000D01*
X27326000Y-4420000D02*
X27326000Y-4450000D01*
X27311000Y-4435000D02*
X27341000Y-4435000D01*
X27350000Y-6075000D02*
X27350000Y-6105000D01*
X27335000Y-6090000D02*
X27365000Y-6090000D01*
X27588125Y-11790000D02*
X27588125Y-11820000D01*
X27573125Y-11805000D02*
X27603125Y-11805000D01*
X27826250Y-7980000D02*
X27826250Y-8010000D01*
X27811250Y-7995000D02*
X27841250Y-7995000D01*
X28278500Y-6325000D02*
X28278500Y-6355000D01*
X28263500Y-6340000D02*
X28293500Y-6340000D01*
X28516625Y-12040000D02*
X28516625Y-12070000D01*
X28501625Y-12055000D02*
X28531625Y-12055000D01*
X28540625Y-9885000D02*
X28540625Y-9915000D01*
X28525625Y-9900000D02*
X28555625Y-9900000D01*
X28754750Y-8230000D02*
X28754750Y-8260000D01*
X28739750Y-8245000D02*
X28769750Y-8245000D01*
X29255000Y-4170000D02*
X29255000Y-4200000D01*
X29240000Y-4185000D02*
X29270000Y-4185000D01*
X29469125Y-10135000D02*
X29469125Y-10165000D01*
X29454125Y-10150000D02*
X29484125Y-10150000D01*
X29969375Y-7027500D02*
X29969375Y-7057500D01*
X29954375Y-7042500D02*
X29984375Y-7042500D01*
X29969375Y-11790000D02*
X29969375Y-11820000D01*
X29954375Y-11805000D02*
X29984375Y-11805000D01*
X30183500Y-4420000D02*
X30183500Y-4450000D01*
X30168500Y-4435000D02*
X30198500Y-4435000D01*
X30897875Y-7277500D02*
X30897875Y-7307500D01*
X30882875Y-7292500D02*
X30912875Y-7292500D01*
X30897875Y-12040000D02*
X30897875Y-12070000D01*
X30882875Y-12055000D02*
X30912875Y-12055000D01*
X4351713Y-3138713D02*
X4351713Y-3096287D01*
X4309287Y-3096287D01*
X4309287Y-3138713D01*
X4351713Y-3138713D01*
X4300500Y-3077500D02*
X4300500Y-3157500D01*
X4360500Y-3157500D02*
G75*
G02*
X4300500Y-3157500I-30000J0D01*
G01*
X4360500Y-3157500D02*
X4360500Y-3077500D01*
X4360500Y-3077500D02*
G75*
G03*
X4300500Y-3077500I-30000J0D01*
G01*
X4351713Y-3556713D02*
X4351713Y-3514287D01*
X4309287Y-3514287D01*
X4309287Y-3556713D01*
X4351713Y-3556713D01*
X4300500Y-3480500D02*
X4300500Y-3590500D01*
X4360500Y-3590500D02*
G75*
G02*
X4300500Y-3590500I-30000J0D01*
G01*
X4360500Y-3590500D02*
X4360500Y-3480500D01*
X4360500Y-3480500D02*
G75*
G03*
X4300500Y-3480500I-30000J0D01*
G01*
X5215713Y-3138713D02*
X5215713Y-3096287D01*
X5173287Y-3096287D01*
X5173287Y-3138713D01*
X5215713Y-3138713D01*
X5164500Y-3077500D02*
X5164500Y-3157500D01*
X5224500Y-3157500D02*
G75*
G02*
X5164500Y-3157500I-30000J0D01*
G01*
X5224500Y-3157500D02*
X5224500Y-3077500D01*
X5224500Y-3077500D02*
G75*
G03*
X5164500Y-3077500I-30000J0D01*
G01*
X5215713Y-3556713D02*
X5215713Y-3514287D01*
X5173287Y-3514287D01*
X5173287Y-3556713D01*
X5215713Y-3556713D01*
X5164500Y-3480500D02*
X5164500Y-3590500D01*
X5224500Y-3590500D02*
G75*
G02*
X5164500Y-3590500I-30000J0D01*
G01*
X5224500Y-3590500D02*
X5224500Y-3480500D01*
X5224500Y-3480500D02*
G75*
G03*
X5164500Y-3480500I-30000J0D01*
G01*
X11854750Y-10700000D02*
X11904750Y-10650000D01*
X11854750Y-10600000D01*
X11804750Y-10650000D01*
X11854750Y-10700000D01*
X12108750Y-10700000D02*
X12158750Y-10650000D01*
X12108750Y-10600000D01*
X12058750Y-10650000D01*
X12108750Y-10700000D01*
D13*
X3403500Y-4165500D02*
X3708500Y-4470500D01*
X3708500Y-4165500D02*
X3403500Y-4470500D01*
X3708500Y-4318000D02*
G75*
G02*
X3403500Y-4318000I-152500J0D01*
G01*
X3403500Y-4318000D02*
G75*
G02*
X3708500Y-4318000I152500J0D01*
G01*
X3514625Y-9118500D02*
X3819625Y-9423500D01*
X3819625Y-9118500D02*
X3514625Y-9423500D01*
X3819625Y-9271000D02*
G75*
G02*
X3514625Y-9271000I-152500J0D01*
G01*
X3514625Y-9271000D02*
G75*
G02*
X3819625Y-9271000I152500J0D01*
G01*
X3514625Y-11023500D02*
X3819625Y-11328500D01*
X3819625Y-11023500D02*
X3514625Y-11328500D01*
X3819625Y-11176000D02*
G75*
G02*
X3514625Y-11176000I-152500J0D01*
G01*
X3514625Y-11176000D02*
G75*
G02*
X3819625Y-11176000I152500J0D01*
G01*
X3752750Y-5308500D02*
X4057750Y-5613500D01*
X4057750Y-5308500D02*
X3752750Y-5613500D01*
X4057750Y-5461000D02*
G75*
G02*
X3752750Y-5461000I-152500J0D01*
G01*
X3752750Y-5461000D02*
G75*
G02*
X4057750Y-5461000I152500J0D01*
G01*
X3990875Y-7213500D02*
X4295875Y-7518500D01*
X4295875Y-7213500D02*
X3990875Y-7518500D01*
X4295875Y-7366000D02*
G75*
G02*
X3990875Y-7366000I-152500J0D01*
G01*
X3990875Y-7366000D02*
G75*
G02*
X4295875Y-7366000I152500J0D01*
G01*
X4038500Y-3911500D02*
X4343500Y-4216500D01*
X4343500Y-3911500D02*
X4038500Y-4216500D01*
X4343500Y-4064000D02*
G75*
G02*
X4038500Y-4064000I-152500J0D01*
G01*
X4038500Y-4064000D02*
G75*
G02*
X4343500Y-4064000I152500J0D01*
G01*
X4149625Y-8864500D02*
X4454625Y-9169500D01*
X4454625Y-8864500D02*
X4149625Y-9169500D01*
X4454625Y-9017000D02*
G75*
G02*
X4149625Y-9017000I-152500J0D01*
G01*
X4149625Y-9017000D02*
G75*
G02*
X4454625Y-9017000I152500J0D01*
G01*
X4149625Y-10769500D02*
X4454625Y-11074500D01*
X4454625Y-10769500D02*
X4149625Y-11074500D01*
X4454625Y-10922000D02*
G75*
G02*
X4149625Y-10922000I-152500J0D01*
G01*
X4149625Y-10922000D02*
G75*
G02*
X4454625Y-10922000I152500J0D01*
G01*
X4387750Y-5054500D02*
X4692750Y-5359500D01*
X4692750Y-5054500D02*
X4387750Y-5359500D01*
X4692750Y-5207000D02*
G75*
G02*
X4387750Y-5207000I-152500J0D01*
G01*
X4387750Y-5207000D02*
G75*
G02*
X4692750Y-5207000I152500J0D01*
G01*
X4625875Y-6959500D02*
X4930875Y-7264500D01*
X4930875Y-6959500D02*
X4625875Y-7264500D01*
X4930875Y-7112000D02*
G75*
G02*
X4625875Y-7112000I-152500J0D01*
G01*
X4625875Y-7112000D02*
G75*
G02*
X4930875Y-7112000I152500J0D01*
G01*
X5308500Y-4165500D02*
X5613500Y-4470500D01*
X5613500Y-4165500D02*
X5308500Y-4470500D01*
X5613500Y-4318000D02*
G75*
G02*
X5308500Y-4318000I-152500J0D01*
G01*
X5308500Y-4318000D02*
G75*
G02*
X5613500Y-4318000I152500J0D01*
G01*
X5657750Y-9118500D02*
X5962750Y-9423500D01*
X5962750Y-9118500D02*
X5657750Y-9423500D01*
X5962750Y-9271000D02*
G75*
G02*
X5657750Y-9271000I-152500J0D01*
G01*
X5657750Y-9271000D02*
G75*
G02*
X5962750Y-9271000I152500J0D01*
G01*
X5895875Y-11023500D02*
X6200875Y-11328500D01*
X6200875Y-11023500D02*
X5895875Y-11328500D01*
X6200875Y-11176000D02*
G75*
G02*
X5895875Y-11176000I-152500J0D01*
G01*
X5895875Y-11176000D02*
G75*
G02*
X6200875Y-11176000I152500J0D01*
G01*
X5943500Y-3911500D02*
X6248500Y-4216500D01*
X6248500Y-3911500D02*
X5943500Y-4216500D01*
X6248500Y-4064000D02*
G75*
G02*
X5943500Y-4064000I-152500J0D01*
G01*
X5943500Y-4064000D02*
G75*
G02*
X6248500Y-4064000I152500J0D01*
G01*
X6134000Y-5308500D02*
X6439000Y-5613500D01*
X6439000Y-5308500D02*
X6134000Y-5613500D01*
X6439000Y-5461000D02*
G75*
G02*
X6134000Y-5461000I-152500J0D01*
G01*
X6134000Y-5461000D02*
G75*
G02*
X6439000Y-5461000I152500J0D01*
G01*
X6292750Y-8864500D02*
X6597750Y-9169500D01*
X6597750Y-8864500D02*
X6292750Y-9169500D01*
X6597750Y-9017000D02*
G75*
G02*
X6292750Y-9017000I-152500J0D01*
G01*
X6292750Y-9017000D02*
G75*
G02*
X6597750Y-9017000I152500J0D01*
G01*
X6530875Y-10769500D02*
X6835875Y-11074500D01*
X6835875Y-10769500D02*
X6530875Y-11074500D01*
X6835875Y-10922000D02*
G75*
G02*
X6530875Y-10922000I-152500J0D01*
G01*
X6530875Y-10922000D02*
G75*
G02*
X6835875Y-10922000I152500J0D01*
G01*
X6610250Y-7213500D02*
X6915250Y-7518500D01*
X6915250Y-7213500D02*
X6610250Y-7518500D01*
X6915250Y-7366000D02*
G75*
G02*
X6610250Y-7366000I-152500J0D01*
G01*
X6610250Y-7366000D02*
G75*
G02*
X6915250Y-7366000I152500J0D01*
G01*
X6769000Y-5054500D02*
X7074000Y-5359500D01*
X7074000Y-5054500D02*
X6769000Y-5359500D01*
X7074000Y-5207000D02*
G75*
G02*
X6769000Y-5207000I-152500J0D01*
G01*
X6769000Y-5207000D02*
G75*
G02*
X7074000Y-5207000I152500J0D01*
G01*
X7086500Y-3403500D02*
X7391500Y-3708500D01*
X7391500Y-3403500D02*
X7086500Y-3708500D01*
X7391500Y-3556000D02*
G75*
G02*
X7086500Y-3556000I-152500J0D01*
G01*
X7086500Y-3556000D02*
G75*
G02*
X7391500Y-3556000I152500J0D01*
G01*
X7245250Y-6959500D02*
X7550250Y-7264500D01*
X7550250Y-6959500D02*
X7245250Y-7264500D01*
X7550250Y-7112000D02*
G75*
G02*
X7245250Y-7112000I-152500J0D01*
G01*
X7245250Y-7112000D02*
G75*
G02*
X7550250Y-7112000I152500J0D01*
G01*
X7562750Y-9118500D02*
X7867750Y-9423500D01*
X7867750Y-9118500D02*
X7562750Y-9423500D01*
X7867750Y-9271000D02*
G75*
G02*
X7562750Y-9271000I-152500J0D01*
G01*
X7562750Y-9271000D02*
G75*
G02*
X7867750Y-9271000I152500J0D01*
G01*
X7721500Y-3149500D02*
X8026500Y-3454500D01*
X8026500Y-3149500D02*
X7721500Y-3454500D01*
X8026500Y-3302000D02*
G75*
G02*
X7721500Y-3302000I-152500J0D01*
G01*
X7721500Y-3302000D02*
G75*
G02*
X8026500Y-3302000I152500J0D01*
G01*
X8039000Y-5308500D02*
X8344000Y-5613500D01*
X8344000Y-5308500D02*
X8039000Y-5613500D01*
X8344000Y-5461000D02*
G75*
G02*
X8039000Y-5461000I-152500J0D01*
G01*
X8039000Y-5461000D02*
G75*
G02*
X8344000Y-5461000I152500J0D01*
G01*
X8197750Y-8864500D02*
X8502750Y-9169500D01*
X8502750Y-8864500D02*
X8197750Y-9169500D01*
X8502750Y-9017000D02*
G75*
G02*
X8197750Y-9017000I-152500J0D01*
G01*
X8197750Y-9017000D02*
G75*
G02*
X8502750Y-9017000I152500J0D01*
G01*
X8277125Y-11023500D02*
X8582125Y-11328500D01*
X8582125Y-11023500D02*
X8277125Y-11328500D01*
X8582125Y-11176000D02*
G75*
G02*
X8277125Y-11176000I-152500J0D01*
G01*
X8277125Y-11176000D02*
G75*
G02*
X8582125Y-11176000I152500J0D01*
G01*
X8515250Y-7213500D02*
X8820250Y-7518500D01*
X8820250Y-7213500D02*
X8515250Y-7518500D01*
X8820250Y-7366000D02*
G75*
G02*
X8515250Y-7366000I-152500J0D01*
G01*
X8515250Y-7366000D02*
G75*
G02*
X8820250Y-7366000I152500J0D01*
G01*
X8674000Y-5054500D02*
X8979000Y-5359500D01*
X8979000Y-5054500D02*
X8674000Y-5359500D01*
X8979000Y-5207000D02*
G75*
G02*
X8674000Y-5207000I-152500J0D01*
G01*
X8674000Y-5207000D02*
G75*
G02*
X8979000Y-5207000I152500J0D01*
G01*
X8912125Y-10769500D02*
X9217125Y-11074500D01*
X9217125Y-10769500D02*
X8912125Y-11074500D01*
X9217125Y-10922000D02*
G75*
G02*
X8912125Y-10922000I-152500J0D01*
G01*
X8912125Y-10922000D02*
G75*
G02*
X9217125Y-10922000I152500J0D01*
G01*
X8991500Y-3403500D02*
X9296500Y-3708500D01*
X9296500Y-3403500D02*
X8991500Y-3708500D01*
X9296500Y-3556000D02*
G75*
G02*
X8991500Y-3556000I-152500J0D01*
G01*
X8991500Y-3556000D02*
G75*
G02*
X9296500Y-3556000I152500J0D01*
G01*
X9150250Y-6959500D02*
X9455250Y-7264500D01*
X9455250Y-6959500D02*
X9150250Y-7264500D01*
X9455250Y-7112000D02*
G75*
G02*
X9150250Y-7112000I-152500J0D01*
G01*
X9150250Y-7112000D02*
G75*
G02*
X9455250Y-7112000I152500J0D01*
G01*
X9467750Y-9118500D02*
X9772750Y-9423500D01*
X9772750Y-9118500D02*
X9467750Y-9423500D01*
X9772750Y-9271000D02*
G75*
G02*
X9467750Y-9271000I-152500J0D01*
G01*
X9467750Y-9271000D02*
G75*
G02*
X9772750Y-9271000I152500J0D01*
G01*
X9626500Y-3149500D02*
X9931500Y-3454500D01*
X9931500Y-3149500D02*
X9626500Y-3454500D01*
X9931500Y-3302000D02*
G75*
G02*
X9626500Y-3302000I-152500J0D01*
G01*
X9626500Y-3302000D02*
G75*
G02*
X9931500Y-3302000I152500J0D01*
G01*
X9944000Y-5308500D02*
X10249000Y-5613500D01*
X10249000Y-5308500D02*
X9944000Y-5613500D01*
X10249000Y-5461000D02*
G75*
G02*
X9944000Y-5461000I-152500J0D01*
G01*
X9944000Y-5461000D02*
G75*
G02*
X10249000Y-5461000I152500J0D01*
G01*
X10102750Y-8864500D02*
X10407750Y-9169500D01*
X10407750Y-8864500D02*
X10102750Y-9169500D01*
X10407750Y-9017000D02*
G75*
G02*
X10102750Y-9017000I-152500J0D01*
G01*
X10102750Y-9017000D02*
G75*
G02*
X10407750Y-9017000I152500J0D01*
G01*
X10420250Y-7213500D02*
X10725250Y-7518500D01*
X10725250Y-7213500D02*
X10420250Y-7518500D01*
X10725250Y-7366000D02*
G75*
G02*
X10420250Y-7366000I-152500J0D01*
G01*
X10420250Y-7366000D02*
G75*
G02*
X10725250Y-7366000I152500J0D01*
G01*
X10579000Y-5054500D02*
X10884000Y-5359500D01*
X10884000Y-5054500D02*
X10579000Y-5359500D01*
X10884000Y-5207000D02*
G75*
G02*
X10579000Y-5207000I-152500J0D01*
G01*
X10579000Y-5207000D02*
G75*
G02*
X10884000Y-5207000I152500J0D01*
G01*
X10896500Y-3403500D02*
X11201500Y-3708500D01*
X11201500Y-3403500D02*
X10896500Y-3708500D01*
X11201500Y-3556000D02*
G75*
G02*
X10896500Y-3556000I-152500J0D01*
G01*
X10896500Y-3556000D02*
G75*
G02*
X11201500Y-3556000I152500J0D01*
G01*
X11055250Y-6959500D02*
X11360250Y-7264500D01*
X11360250Y-6959500D02*
X11055250Y-7264500D01*
X11360250Y-7112000D02*
G75*
G02*
X11055250Y-7112000I-152500J0D01*
G01*
X11055250Y-7112000D02*
G75*
G02*
X11360250Y-7112000I152500J0D01*
G01*
X11372750Y-9118500D02*
X11677750Y-9423500D01*
X11677750Y-9118500D02*
X11372750Y-9423500D01*
X11677750Y-9271000D02*
G75*
G02*
X11372750Y-9271000I-152500J0D01*
G01*
X11372750Y-9271000D02*
G75*
G02*
X11677750Y-9271000I152500J0D01*
G01*
X11531500Y-3149500D02*
X11836500Y-3454500D01*
X11836500Y-3149500D02*
X11531500Y-3454500D01*
X11836500Y-3302000D02*
G75*
G02*
X11531500Y-3302000I-152500J0D01*
G01*
X11531500Y-3302000D02*
G75*
G02*
X11836500Y-3302000I152500J0D01*
G01*
X11849000Y-5308500D02*
X12154000Y-5613500D01*
X12154000Y-5308500D02*
X11849000Y-5613500D01*
X12154000Y-5461000D02*
G75*
G02*
X11849000Y-5461000I-152500J0D01*
G01*
X11849000Y-5461000D02*
G75*
G02*
X12154000Y-5461000I152500J0D01*
G01*
X12007750Y-8864500D02*
X12312750Y-9169500D01*
X12312750Y-8864500D02*
X12007750Y-9169500D01*
X12312750Y-9017000D02*
G75*
G02*
X12007750Y-9017000I-152500J0D01*
G01*
X12007750Y-9017000D02*
G75*
G02*
X12312750Y-9017000I152500J0D01*
G01*
X12325250Y-7213500D02*
X12630250Y-7518500D01*
X12630250Y-7213500D02*
X12325250Y-7518500D01*
X12630250Y-7366000D02*
G75*
G02*
X12325250Y-7366000I-152500J0D01*
G01*
X12325250Y-7366000D02*
G75*
G02*
X12630250Y-7366000I152500J0D01*
G01*
X12484000Y-5054500D02*
X12789000Y-5359500D01*
X12789000Y-5054500D02*
X12484000Y-5359500D01*
X12789000Y-5207000D02*
G75*
G02*
X12484000Y-5207000I-152500J0D01*
G01*
X12484000Y-5207000D02*
G75*
G02*
X12789000Y-5207000I152500J0D01*
G01*
X12801500Y-3403500D02*
X13106500Y-3708500D01*
X13106500Y-3403500D02*
X12801500Y-3708500D01*
X13106500Y-3556000D02*
G75*
G02*
X12801500Y-3556000I-152500J0D01*
G01*
X12801500Y-3556000D02*
G75*
G02*
X13106500Y-3556000I152500J0D01*
G01*
X12960250Y-6959500D02*
X13265250Y-7264500D01*
X13265250Y-6959500D02*
X12960250Y-7264500D01*
X13265250Y-7112000D02*
G75*
G02*
X12960250Y-7112000I-152500J0D01*
G01*
X12960250Y-7112000D02*
G75*
G02*
X13265250Y-7112000I152500J0D01*
G01*
X13277750Y-9118500D02*
X13582750Y-9423500D01*
X13582750Y-9118500D02*
X13277750Y-9423500D01*
X13582750Y-9271000D02*
G75*
G02*
X13277750Y-9271000I-152500J0D01*
G01*
X13277750Y-9271000D02*
G75*
G02*
X13582750Y-9271000I152500J0D01*
G01*
X13436500Y-3149500D02*
X13741500Y-3454500D01*
X13741500Y-3149500D02*
X13436500Y-3454500D01*
X13741500Y-3302000D02*
G75*
G02*
X13436500Y-3302000I-152500J0D01*
G01*
X13436500Y-3302000D02*
G75*
G02*
X13741500Y-3302000I152500J0D01*
G01*
X13754000Y-5308500D02*
X14059000Y-5613500D01*
X14059000Y-5308500D02*
X13754000Y-5613500D01*
X14059000Y-5461000D02*
G75*
G02*
X13754000Y-5461000I-152500J0D01*
G01*
X13754000Y-5461000D02*
G75*
G02*
X14059000Y-5461000I152500J0D01*
G01*
X13912750Y-8864500D02*
X14217750Y-9169500D01*
X14217750Y-8864500D02*
X13912750Y-9169500D01*
X14217750Y-9017000D02*
G75*
G02*
X13912750Y-9017000I-152500J0D01*
G01*
X13912750Y-9017000D02*
G75*
G02*
X14217750Y-9017000I152500J0D01*
G01*
X14230250Y-7213500D02*
X14535250Y-7518500D01*
X14535250Y-7213500D02*
X14230250Y-7518500D01*
X14535250Y-7366000D02*
G75*
G02*
X14230250Y-7366000I-152500J0D01*
G01*
X14230250Y-7366000D02*
G75*
G02*
X14535250Y-7366000I152500J0D01*
G01*
X14389000Y-5054500D02*
X14694000Y-5359500D01*
X14694000Y-5054500D02*
X14389000Y-5359500D01*
X14694000Y-5207000D02*
G75*
G02*
X14389000Y-5207000I-152500J0D01*
G01*
X14389000Y-5207000D02*
G75*
G02*
X14694000Y-5207000I152500J0D01*
G01*
X14706500Y-3403500D02*
X15011500Y-3708500D01*
X15011500Y-3403500D02*
X14706500Y-3708500D01*
X15011500Y-3556000D02*
G75*
G02*
X14706500Y-3556000I-152500J0D01*
G01*
X14706500Y-3556000D02*
G75*
G02*
X15011500Y-3556000I152500J0D01*
G01*
X14865250Y-6959500D02*
X15170250Y-7264500D01*
X15170250Y-6959500D02*
X14865250Y-7264500D01*
X15170250Y-7112000D02*
G75*
G02*
X14865250Y-7112000I-152500J0D01*
G01*
X14865250Y-7112000D02*
G75*
G02*
X15170250Y-7112000I152500J0D01*
G01*
X15182750Y-9118500D02*
X15487750Y-9423500D01*
X15487750Y-9118500D02*
X15182750Y-9423500D01*
X15487750Y-9271000D02*
G75*
G02*
X15182750Y-9271000I-152500J0D01*
G01*
X15182750Y-9271000D02*
G75*
G02*
X15487750Y-9271000I152500J0D01*
G01*
X15341500Y-3149500D02*
X15646500Y-3454500D01*
X15646500Y-3149500D02*
X15341500Y-3454500D01*
X15646500Y-3302000D02*
G75*
G02*
X15341500Y-3302000I-152500J0D01*
G01*
X15341500Y-3302000D02*
G75*
G02*
X15646500Y-3302000I152500J0D01*
G01*
X15420875Y-11023500D02*
X15725875Y-11328500D01*
X15725875Y-11023500D02*
X15420875Y-11328500D01*
X15725875Y-11176000D02*
G75*
G02*
X15420875Y-11176000I-152500J0D01*
G01*
X15420875Y-11176000D02*
G75*
G02*
X15725875Y-11176000I152500J0D01*
G01*
X15659000Y-5308500D02*
X15964000Y-5613500D01*
X15964000Y-5308500D02*
X15659000Y-5613500D01*
X15964000Y-5461000D02*
G75*
G02*
X15659000Y-5461000I-152500J0D01*
G01*
X15659000Y-5461000D02*
G75*
G02*
X15964000Y-5461000I152500J0D01*
G01*
X15817750Y-8864500D02*
X16122750Y-9169500D01*
X16122750Y-8864500D02*
X15817750Y-9169500D01*
X16122750Y-9017000D02*
G75*
G02*
X15817750Y-9017000I-152500J0D01*
G01*
X15817750Y-9017000D02*
G75*
G02*
X16122750Y-9017000I152500J0D01*
G01*
X16055875Y-10769500D02*
X16360875Y-11074500D01*
X16360875Y-10769500D02*
X16055875Y-11074500D01*
X16360875Y-10922000D02*
G75*
G02*
X16055875Y-10922000I-152500J0D01*
G01*
X16055875Y-10922000D02*
G75*
G02*
X16360875Y-10922000I152500J0D01*
G01*
X16135250Y-7213500D02*
X16440250Y-7518500D01*
X16440250Y-7213500D02*
X16135250Y-7518500D01*
X16440250Y-7366000D02*
G75*
G02*
X16135250Y-7366000I-152500J0D01*
G01*
X16135250Y-7366000D02*
G75*
G02*
X16440250Y-7366000I152500J0D01*
G01*
X16294000Y-5054500D02*
X16599000Y-5359500D01*
X16599000Y-5054500D02*
X16294000Y-5359500D01*
X16599000Y-5207000D02*
G75*
G02*
X16294000Y-5207000I-152500J0D01*
G01*
X16294000Y-5207000D02*
G75*
G02*
X16599000Y-5207000I152500J0D01*
G01*
X16611500Y-3403500D02*
X16916500Y-3708500D01*
X16916500Y-3403500D02*
X16611500Y-3708500D01*
X16916500Y-3556000D02*
G75*
G02*
X16611500Y-3556000I-152500J0D01*
G01*
X16611500Y-3556000D02*
G75*
G02*
X16916500Y-3556000I152500J0D01*
G01*
X16770250Y-6959500D02*
X17075250Y-7264500D01*
X17075250Y-6959500D02*
X16770250Y-7264500D01*
X17075250Y-7112000D02*
G75*
G02*
X16770250Y-7112000I-152500J0D01*
G01*
X16770250Y-7112000D02*
G75*
G02*
X17075250Y-7112000I152500J0D01*
G01*
X17087750Y-9118500D02*
X17392750Y-9423500D01*
X17392750Y-9118500D02*
X17087750Y-9423500D01*
X17392750Y-9271000D02*
G75*
G02*
X17087750Y-9271000I-152500J0D01*
G01*
X17087750Y-9271000D02*
G75*
G02*
X17392750Y-9271000I152500J0D01*
G01*
X17246500Y-3149500D02*
X17551500Y-3454500D01*
X17551500Y-3149500D02*
X17246500Y-3454500D01*
X17551500Y-3302000D02*
G75*
G02*
X17246500Y-3302000I-152500J0D01*
G01*
X17246500Y-3302000D02*
G75*
G02*
X17551500Y-3302000I152500J0D01*
G01*
X17564000Y-5308500D02*
X17869000Y-5613500D01*
X17869000Y-5308500D02*
X17564000Y-5613500D01*
X17869000Y-5461000D02*
G75*
G02*
X17564000Y-5461000I-152500J0D01*
G01*
X17564000Y-5461000D02*
G75*
G02*
X17869000Y-5461000I152500J0D01*
G01*
X17722750Y-8864500D02*
X18027750Y-9169500D01*
X18027750Y-8864500D02*
X17722750Y-9169500D01*
X18027750Y-9017000D02*
G75*
G02*
X17722750Y-9017000I-152500J0D01*
G01*
X17722750Y-9017000D02*
G75*
G02*
X18027750Y-9017000I152500J0D01*
G01*
X18040250Y-7213500D02*
X18345250Y-7518500D01*
X18345250Y-7213500D02*
X18040250Y-7518500D01*
X18345250Y-7366000D02*
G75*
G02*
X18040250Y-7366000I-152500J0D01*
G01*
X18040250Y-7366000D02*
G75*
G02*
X18345250Y-7366000I152500J0D01*
G01*
X18199000Y-5054500D02*
X18504000Y-5359500D01*
X18504000Y-5054500D02*
X18199000Y-5359500D01*
X18504000Y-5207000D02*
G75*
G02*
X18199000Y-5207000I-152500J0D01*
G01*
X18199000Y-5207000D02*
G75*
G02*
X18504000Y-5207000I152500J0D01*
G01*
X18516500Y-3403500D02*
X18821500Y-3708500D01*
X18821500Y-3403500D02*
X18516500Y-3708500D01*
X18821500Y-3556000D02*
G75*
G02*
X18516500Y-3556000I-152500J0D01*
G01*
X18516500Y-3556000D02*
G75*
G02*
X18821500Y-3556000I152500J0D01*
G01*
X18675250Y-6959500D02*
X18980250Y-7264500D01*
X18980250Y-6959500D02*
X18675250Y-7264500D01*
X18980250Y-7112000D02*
G75*
G02*
X18675250Y-7112000I-152500J0D01*
G01*
X18675250Y-7112000D02*
G75*
G02*
X18980250Y-7112000I152500J0D01*
G01*
X18992750Y-9118500D02*
X19297750Y-9423500D01*
X19297750Y-9118500D02*
X18992750Y-9423500D01*
X19297750Y-9271000D02*
G75*
G02*
X18992750Y-9271000I-152500J0D01*
G01*
X18992750Y-9271000D02*
G75*
G02*
X19297750Y-9271000I152500J0D01*
G01*
X19151500Y-3149500D02*
X19456500Y-3454500D01*
X19456500Y-3149500D02*
X19151500Y-3454500D01*
X19456500Y-3302000D02*
G75*
G02*
X19151500Y-3302000I-152500J0D01*
G01*
X19151500Y-3302000D02*
G75*
G02*
X19456500Y-3302000I152500J0D01*
G01*
X19469000Y-5308500D02*
X19774000Y-5613500D01*
X19774000Y-5308500D02*
X19469000Y-5613500D01*
X19774000Y-5461000D02*
G75*
G02*
X19469000Y-5461000I-152500J0D01*
G01*
X19469000Y-5461000D02*
G75*
G02*
X19774000Y-5461000I152500J0D01*
G01*
X19627750Y-8864500D02*
X19932750Y-9169500D01*
X19932750Y-8864500D02*
X19627750Y-9169500D01*
X19932750Y-9017000D02*
G75*
G02*
X19627750Y-9017000I-152500J0D01*
G01*
X19627750Y-9017000D02*
G75*
G02*
X19932750Y-9017000I152500J0D01*
G01*
X19945250Y-7213500D02*
X20250250Y-7518500D01*
X20250250Y-7213500D02*
X19945250Y-7518500D01*
X20250250Y-7366000D02*
G75*
G02*
X19945250Y-7366000I-152500J0D01*
G01*
X19945250Y-7366000D02*
G75*
G02*
X20250250Y-7366000I152500J0D01*
G01*
X20104000Y-5054500D02*
X20409000Y-5359500D01*
X20409000Y-5054500D02*
X20104000Y-5359500D01*
X20409000Y-5207000D02*
G75*
G02*
X20104000Y-5207000I-152500J0D01*
G01*
X20104000Y-5207000D02*
G75*
G02*
X20409000Y-5207000I152500J0D01*
G01*
X20421500Y-3403500D02*
X20726500Y-3708500D01*
X20726500Y-3403500D02*
X20421500Y-3708500D01*
X20726500Y-3556000D02*
G75*
G02*
X20421500Y-3556000I-152500J0D01*
G01*
X20421500Y-3556000D02*
G75*
G02*
X20726500Y-3556000I152500J0D01*
G01*
X20580250Y-6959500D02*
X20885250Y-7264500D01*
X20885250Y-6959500D02*
X20580250Y-7264500D01*
X20885250Y-7112000D02*
G75*
G02*
X20580250Y-7112000I-152500J0D01*
G01*
X20580250Y-7112000D02*
G75*
G02*
X20885250Y-7112000I152500J0D01*
G01*
X20897750Y-9118500D02*
X21202750Y-9423500D01*
X21202750Y-9118500D02*
X20897750Y-9423500D01*
X21202750Y-9271000D02*
G75*
G02*
X20897750Y-9271000I-152500J0D01*
G01*
X20897750Y-9271000D02*
G75*
G02*
X21202750Y-9271000I152500J0D01*
G01*
X21056500Y-3149500D02*
X21361500Y-3454500D01*
X21361500Y-3149500D02*
X21056500Y-3454500D01*
X21361500Y-3302000D02*
G75*
G02*
X21056500Y-3302000I-152500J0D01*
G01*
X21056500Y-3302000D02*
G75*
G02*
X21361500Y-3302000I152500J0D01*
G01*
X21374000Y-5308500D02*
X21679000Y-5613500D01*
X21679000Y-5308500D02*
X21374000Y-5613500D01*
X21679000Y-5461000D02*
G75*
G02*
X21374000Y-5461000I-152500J0D01*
G01*
X21374000Y-5461000D02*
G75*
G02*
X21679000Y-5461000I152500J0D01*
G01*
X21532750Y-8864500D02*
X21837750Y-9169500D01*
X21837750Y-8864500D02*
X21532750Y-9169500D01*
X21837750Y-9017000D02*
G75*
G02*
X21532750Y-9017000I-152500J0D01*
G01*
X21532750Y-9017000D02*
G75*
G02*
X21837750Y-9017000I152500J0D01*
G01*
X21850250Y-7213500D02*
X22155250Y-7518500D01*
X22155250Y-7213500D02*
X21850250Y-7518500D01*
X22155250Y-7366000D02*
G75*
G02*
X21850250Y-7366000I-152500J0D01*
G01*
X21850250Y-7366000D02*
G75*
G02*
X22155250Y-7366000I152500J0D01*
G01*
X22009000Y-5054500D02*
X22314000Y-5359500D01*
X22314000Y-5054500D02*
X22009000Y-5359500D01*
X22314000Y-5207000D02*
G75*
G02*
X22009000Y-5207000I-152500J0D01*
G01*
X22009000Y-5207000D02*
G75*
G02*
X22314000Y-5207000I152500J0D01*
G01*
X22326500Y-3403500D02*
X22631500Y-3708500D01*
X22631500Y-3403500D02*
X22326500Y-3708500D01*
X22631500Y-3556000D02*
G75*
G02*
X22326500Y-3556000I-152500J0D01*
G01*
X22326500Y-3556000D02*
G75*
G02*
X22631500Y-3556000I152500J0D01*
G01*
X22485250Y-6959500D02*
X22790250Y-7264500D01*
X22790250Y-6959500D02*
X22485250Y-7264500D01*
X22790250Y-7112000D02*
G75*
G02*
X22485250Y-7112000I-152500J0D01*
G01*
X22485250Y-7112000D02*
G75*
G02*
X22790250Y-7112000I152500J0D01*
G01*
X22564625Y-11023500D02*
X22869625Y-11328500D01*
X22869625Y-11023500D02*
X22564625Y-11328500D01*
X22869625Y-11176000D02*
G75*
G02*
X22564625Y-11176000I-152500J0D01*
G01*
X22564625Y-11176000D02*
G75*
G02*
X22869625Y-11176000I152500J0D01*
G01*
X22802750Y-9118500D02*
X23107750Y-9423500D01*
X23107750Y-9118500D02*
X22802750Y-9423500D01*
X23107750Y-9271000D02*
G75*
G02*
X22802750Y-9271000I-152500J0D01*
G01*
X22802750Y-9271000D02*
G75*
G02*
X23107750Y-9271000I152500J0D01*
G01*
X22961500Y-3149500D02*
X23266500Y-3454500D01*
X23266500Y-3149500D02*
X22961500Y-3454500D01*
X23266500Y-3302000D02*
G75*
G02*
X22961500Y-3302000I-152500J0D01*
G01*
X22961500Y-3302000D02*
G75*
G02*
X23266500Y-3302000I152500J0D01*
G01*
X23199625Y-10769500D02*
X23504625Y-11074500D01*
X23504625Y-10769500D02*
X23199625Y-11074500D01*
X23504625Y-10922000D02*
G75*
G02*
X23199625Y-10922000I-152500J0D01*
G01*
X23199625Y-10922000D02*
G75*
G02*
X23504625Y-10922000I152500J0D01*
G01*
X23279000Y-5308500D02*
X23584000Y-5613500D01*
X23584000Y-5308500D02*
X23279000Y-5613500D01*
X23584000Y-5461000D02*
G75*
G02*
X23279000Y-5461000I-152500J0D01*
G01*
X23279000Y-5461000D02*
G75*
G02*
X23584000Y-5461000I152500J0D01*
G01*
X23437750Y-8864500D02*
X23742750Y-9169500D01*
X23742750Y-8864500D02*
X23437750Y-9169500D01*
X23742750Y-9017000D02*
G75*
G02*
X23437750Y-9017000I-152500J0D01*
G01*
X23437750Y-9017000D02*
G75*
G02*
X23742750Y-9017000I152500J0D01*
G01*
X23755250Y-7213500D02*
X24060250Y-7518500D01*
X24060250Y-7213500D02*
X23755250Y-7518500D01*
X24060250Y-7366000D02*
G75*
G02*
X23755250Y-7366000I-152500J0D01*
G01*
X23755250Y-7366000D02*
G75*
G02*
X24060250Y-7366000I152500J0D01*
G01*
X23914000Y-5054500D02*
X24219000Y-5359500D01*
X24219000Y-5054500D02*
X23914000Y-5359500D01*
X24219000Y-5207000D02*
G75*
G02*
X23914000Y-5207000I-152500J0D01*
G01*
X23914000Y-5207000D02*
G75*
G02*
X24219000Y-5207000I152500J0D01*
G01*
X24231500Y-3403500D02*
X24536500Y-3708500D01*
X24536500Y-3403500D02*
X24231500Y-3708500D01*
X24536500Y-3556000D02*
G75*
G02*
X24231500Y-3556000I-152500J0D01*
G01*
X24231500Y-3556000D02*
G75*
G02*
X24536500Y-3556000I152500J0D01*
G01*
X24390250Y-6959500D02*
X24695250Y-7264500D01*
X24695250Y-6959500D02*
X24390250Y-7264500D01*
X24695250Y-7112000D02*
G75*
G02*
X24390250Y-7112000I-152500J0D01*
G01*
X24390250Y-7112000D02*
G75*
G02*
X24695250Y-7112000I152500J0D01*
G01*
X24707750Y-9118500D02*
X25012750Y-9423500D01*
X25012750Y-9118500D02*
X24707750Y-9423500D01*
X25012750Y-9271000D02*
G75*
G02*
X24707750Y-9271000I-152500J0D01*
G01*
X24707750Y-9271000D02*
G75*
G02*
X25012750Y-9271000I152500J0D01*
G01*
X24866500Y-3149500D02*
X25171500Y-3454500D01*
X25171500Y-3149500D02*
X24866500Y-3454500D01*
X25171500Y-3302000D02*
G75*
G02*
X24866500Y-3302000I-152500J0D01*
G01*
X24866500Y-3302000D02*
G75*
G02*
X25171500Y-3302000I152500J0D01*
G01*
X24945875Y-11023500D02*
X25250875Y-11328500D01*
X25250875Y-11023500D02*
X24945875Y-11328500D01*
X25250875Y-11176000D02*
G75*
G02*
X24945875Y-11176000I-152500J0D01*
G01*
X24945875Y-11176000D02*
G75*
G02*
X25250875Y-11176000I152500J0D01*
G01*
X25184000Y-5308500D02*
X25489000Y-5613500D01*
X25489000Y-5308500D02*
X25184000Y-5613500D01*
X25489000Y-5461000D02*
G75*
G02*
X25184000Y-5461000I-152500J0D01*
G01*
X25184000Y-5461000D02*
G75*
G02*
X25489000Y-5461000I152500J0D01*
G01*
X25342750Y-8864500D02*
X25647750Y-9169500D01*
X25647750Y-8864500D02*
X25342750Y-9169500D01*
X25647750Y-9017000D02*
G75*
G02*
X25342750Y-9017000I-152500J0D01*
G01*
X25342750Y-9017000D02*
G75*
G02*
X25647750Y-9017000I152500J0D01*
G01*
X25580875Y-10769500D02*
X25885875Y-11074500D01*
X25885875Y-10769500D02*
X25580875Y-11074500D01*
X25885875Y-10922000D02*
G75*
G02*
X25580875Y-10922000I-152500J0D01*
G01*
X25580875Y-10922000D02*
G75*
G02*
X25885875Y-10922000I152500J0D01*
G01*
X25660250Y-7213500D02*
X25965250Y-7518500D01*
X25965250Y-7213500D02*
X25660250Y-7518500D01*
X25965250Y-7366000D02*
G75*
G02*
X25660250Y-7366000I-152500J0D01*
G01*
X25660250Y-7366000D02*
G75*
G02*
X25965250Y-7366000I152500J0D01*
G01*
X25819000Y-5054500D02*
X26124000Y-5359500D01*
X26124000Y-5054500D02*
X25819000Y-5359500D01*
X26124000Y-5207000D02*
G75*
G02*
X25819000Y-5207000I-152500J0D01*
G01*
X25819000Y-5207000D02*
G75*
G02*
X26124000Y-5207000I152500J0D01*
G01*
X26136500Y-3403500D02*
X26441500Y-3708500D01*
X26441500Y-3403500D02*
X26136500Y-3708500D01*
X26441500Y-3556000D02*
G75*
G02*
X26136500Y-3556000I-152500J0D01*
G01*
X26136500Y-3556000D02*
G75*
G02*
X26441500Y-3556000I152500J0D01*
G01*
X26295250Y-6959500D02*
X26600250Y-7264500D01*
X26600250Y-6959500D02*
X26295250Y-7264500D01*
X26600250Y-7112000D02*
G75*
G02*
X26295250Y-7112000I-152500J0D01*
G01*
X26295250Y-7112000D02*
G75*
G02*
X26600250Y-7112000I152500J0D01*
G01*
X26771500Y-3149500D02*
X27076500Y-3454500D01*
X27076500Y-3149500D02*
X26771500Y-3454500D01*
X27076500Y-3302000D02*
G75*
G02*
X26771500Y-3302000I-152500J0D01*
G01*
X26771500Y-3302000D02*
G75*
G02*
X27076500Y-3302000I152500J0D01*
G01*
X27089000Y-5308500D02*
X27394000Y-5613500D01*
X27394000Y-5308500D02*
X27089000Y-5613500D01*
X27394000Y-5461000D02*
G75*
G02*
X27089000Y-5461000I-152500J0D01*
G01*
X27089000Y-5461000D02*
G75*
G02*
X27394000Y-5461000I152500J0D01*
G01*
X27327125Y-11023500D02*
X27632125Y-11328500D01*
X27632125Y-11023500D02*
X27327125Y-11328500D01*
X27632125Y-11176000D02*
G75*
G02*
X27327125Y-11176000I-152500J0D01*
G01*
X27327125Y-11176000D02*
G75*
G02*
X27632125Y-11176000I152500J0D01*
G01*
X27565250Y-7213500D02*
X27870250Y-7518500D01*
X27870250Y-7213500D02*
X27565250Y-7518500D01*
X27870250Y-7366000D02*
G75*
G02*
X27565250Y-7366000I-152500J0D01*
G01*
X27565250Y-7366000D02*
G75*
G02*
X27870250Y-7366000I152500J0D01*
G01*
X27724000Y-5054500D02*
X28029000Y-5359500D01*
X28029000Y-5054500D02*
X27724000Y-5359500D01*
X28029000Y-5207000D02*
G75*
G02*
X27724000Y-5207000I-152500J0D01*
G01*
X27724000Y-5207000D02*
G75*
G02*
X28029000Y-5207000I152500J0D01*
G01*
X27962125Y-10769500D02*
X28267125Y-11074500D01*
X28267125Y-10769500D02*
X27962125Y-11074500D01*
X28267125Y-10922000D02*
G75*
G02*
X27962125Y-10922000I-152500J0D01*
G01*
X27962125Y-10922000D02*
G75*
G02*
X28267125Y-10922000I152500J0D01*
G01*
X28200250Y-6959500D02*
X28505250Y-7264500D01*
X28505250Y-6959500D02*
X28200250Y-7264500D01*
X28505250Y-7112000D02*
G75*
G02*
X28200250Y-7112000I-152500J0D01*
G01*
X28200250Y-7112000D02*
G75*
G02*
X28505250Y-7112000I152500J0D01*
G01*
X28279625Y-9118500D02*
X28584625Y-9423500D01*
X28584625Y-9118500D02*
X28279625Y-9423500D01*
X28584625Y-9271000D02*
G75*
G02*
X28279625Y-9271000I-152500J0D01*
G01*
X28279625Y-9271000D02*
G75*
G02*
X28584625Y-9271000I152500J0D01*
G01*
X28914625Y-8864500D02*
X29219625Y-9169500D01*
X29219625Y-8864500D02*
X28914625Y-9169500D01*
X29219625Y-9017000D02*
G75*
G02*
X28914625Y-9017000I-152500J0D01*
G01*
X28914625Y-9017000D02*
G75*
G02*
X29219625Y-9017000I152500J0D01*
G01*
X28994000Y-3403500D02*
X29299000Y-3708500D01*
X29299000Y-3403500D02*
X28994000Y-3708500D01*
X29299000Y-3556000D02*
G75*
G02*
X28994000Y-3556000I-152500J0D01*
G01*
X28994000Y-3556000D02*
G75*
G02*
X29299000Y-3556000I152500J0D01*
G01*
X29629000Y-3149500D02*
X29934000Y-3454500D01*
X29934000Y-3149500D02*
X29629000Y-3454500D01*
X29934000Y-3302000D02*
G75*
G02*
X29629000Y-3302000I-152500J0D01*
G01*
X29629000Y-3302000D02*
G75*
G02*
X29934000Y-3302000I152500J0D01*
G01*
X29708375Y-6261000D02*
X30013375Y-6566000D01*
X30013375Y-6261000D02*
X29708375Y-6566000D01*
X30013375Y-6413500D02*
G75*
G02*
X29708375Y-6413500I-152500J0D01*
G01*
X29708375Y-6413500D02*
G75*
G02*
X30013375Y-6413500I152500J0D01*
G01*
X29708375Y-11023500D02*
X30013375Y-11328500D01*
X30013375Y-11023500D02*
X29708375Y-11328500D01*
X30013375Y-11176000D02*
G75*
G02*
X29708375Y-11176000I-152500J0D01*
G01*
X29708375Y-11176000D02*
G75*
G02*
X30013375Y-11176000I152500J0D01*
G01*
X30343375Y-6007000D02*
X30648375Y-6312000D01*
X30648375Y-6007000D02*
X30343375Y-6312000D01*
X30648375Y-6159500D02*
G75*
G02*
X30343375Y-6159500I-152500J0D01*
G01*
X30343375Y-6159500D02*
G75*
G02*
X30648375Y-6159500I152500J0D01*
G01*
X30343375Y-10769500D02*
X30648375Y-11074500D01*
X30648375Y-10769500D02*
X30343375Y-11074500D01*
X30648375Y-10922000D02*
G75*
G02*
X30343375Y-10922000I-152500J0D01*
G01*
X30343375Y-10922000D02*
G75*
G02*
X30648375Y-10922000I152500J0D01*
G01*
D12*
X3115777Y-12696484D02*
X3115777Y-12496484D01*
X3115777Y-12496484D02*
X3163396Y-12496484D01*
X3163396Y-12496484D02*
X3191967Y-12506008D01*
X3191967Y-12506008D02*
X3211015Y-12525055D01*
X3211015Y-12525055D02*
X3220539Y-12544103D01*
X3220539Y-12544103D02*
X3230062Y-12582198D01*
X3230062Y-12582198D02*
X3230062Y-12610769D01*
X3230062Y-12610769D02*
X3220539Y-12648865D01*
X3220539Y-12648865D02*
X3211015Y-12667912D01*
X3211015Y-12667912D02*
X3191967Y-12686960D01*
X3191967Y-12686960D02*
X3163396Y-12696484D01*
X3163396Y-12696484D02*
X3115777Y-12696484D01*
X3315777Y-12696484D02*
X3315777Y-12563150D01*
X3315777Y-12601246D02*
X3325301Y-12582198D01*
X3325301Y-12582198D02*
X3334824Y-12572674D01*
X3334824Y-12572674D02*
X3353872Y-12563150D01*
X3353872Y-12563150D02*
X3372920Y-12563150D01*
X3439586Y-12696484D02*
X3439586Y-12563150D01*
X3439586Y-12496484D02*
X3430062Y-12506008D01*
X3430062Y-12506008D02*
X3439586Y-12515531D01*
X3439586Y-12515531D02*
X3449110Y-12506008D01*
X3449110Y-12506008D02*
X3439586Y-12496484D01*
X3439586Y-12496484D02*
X3439586Y-12515531D01*
X3563396Y-12696484D02*
X3544348Y-12686960D01*
X3544348Y-12686960D02*
X3534824Y-12667912D01*
X3534824Y-12667912D02*
X3534824Y-12496484D01*
X3668158Y-12696484D02*
X3649110Y-12686960D01*
X3649110Y-12686960D02*
X3639586Y-12667912D01*
X3639586Y-12667912D02*
X3639586Y-12496484D01*
X3896729Y-12696484D02*
X3896729Y-12496484D01*
X3896729Y-12496484D02*
X3963396Y-12639341D01*
X3963396Y-12639341D02*
X4030062Y-12496484D01*
X4030062Y-12496484D02*
X4030062Y-12696484D01*
X4211015Y-12696484D02*
X4211015Y-12591722D01*
X4211015Y-12591722D02*
X4201491Y-12572674D01*
X4201491Y-12572674D02*
X4182443Y-12563150D01*
X4182443Y-12563150D02*
X4144348Y-12563150D01*
X4144348Y-12563150D02*
X4125301Y-12572674D01*
X4211015Y-12686960D02*
X4191967Y-12696484D01*
X4191967Y-12696484D02*
X4144348Y-12696484D01*
X4144348Y-12696484D02*
X4125301Y-12686960D01*
X4125301Y-12686960D02*
X4115777Y-12667912D01*
X4115777Y-12667912D02*
X4115777Y-12648865D01*
X4115777Y-12648865D02*
X4125301Y-12629817D01*
X4125301Y-12629817D02*
X4144348Y-12620293D01*
X4144348Y-12620293D02*
X4191967Y-12620293D01*
X4191967Y-12620293D02*
X4211015Y-12610769D01*
X4306253Y-12563150D02*
X4306253Y-12763150D01*
X4306253Y-12572674D02*
X4325301Y-12563150D01*
X4325301Y-12563150D02*
X4363396Y-12563150D01*
X4363396Y-12563150D02*
X4382444Y-12572674D01*
X4382444Y-12572674D02*
X4391967Y-12582198D01*
X4391967Y-12582198D02*
X4401491Y-12601246D01*
X4401491Y-12601246D02*
X4401491Y-12658388D01*
X4401491Y-12658388D02*
X4391967Y-12677436D01*
X4391967Y-12677436D02*
X4382444Y-12686960D01*
X4382444Y-12686960D02*
X4363396Y-12696484D01*
X4363396Y-12696484D02*
X4325301Y-12696484D01*
X4325301Y-12696484D02*
X4306253Y-12686960D01*
X4487205Y-12677436D02*
X4496729Y-12686960D01*
X4496729Y-12686960D02*
X4487205Y-12696484D01*
X4487205Y-12696484D02*
X4477682Y-12686960D01*
X4477682Y-12686960D02*
X4487205Y-12677436D01*
X4487205Y-12677436D02*
X4487205Y-12696484D01*
X4487205Y-12572674D02*
X4496729Y-12582198D01*
X4496729Y-12582198D02*
X4487205Y-12591722D01*
X4487205Y-12591722D02*
X4477682Y-12582198D01*
X4477682Y-12582198D02*
X4487205Y-12572674D01*
X4487205Y-12572674D02*
X4487205Y-12591722D01*
D11*
X2835000Y-13015000D02*
X2855000Y-13035000D01*
X2855000Y-13015000D02*
X2835000Y-13035000D01*
D12*
X3153872Y-12916484D02*
X3172920Y-12916484D01*
X3172920Y-12916484D02*
X3191967Y-12926008D01*
X3191967Y-12926008D02*
X3201491Y-12935531D01*
X3201491Y-12935531D02*
X3211015Y-12954579D01*
X3211015Y-12954579D02*
X3220539Y-12992674D01*
X3220539Y-12992674D02*
X3220539Y-13040293D01*
X3220539Y-13040293D02*
X3211015Y-13078388D01*
X3211015Y-13078388D02*
X3201491Y-13097436D01*
X3201491Y-13097436D02*
X3191967Y-13106960D01*
X3191967Y-13106960D02*
X3172920Y-13116484D01*
X3172920Y-13116484D02*
X3153872Y-13116484D01*
X3153872Y-13116484D02*
X3134824Y-13106960D01*
X3134824Y-13106960D02*
X3125301Y-13097436D01*
X3125301Y-13097436D02*
X3115777Y-13078388D01*
X3115777Y-13078388D02*
X3106253Y-13040293D01*
X3106253Y-13040293D02*
X3106253Y-12992674D01*
X3106253Y-12992674D02*
X3115777Y-12954579D01*
X3115777Y-12954579D02*
X3125301Y-12935531D01*
X3125301Y-12935531D02*
X3134824Y-12926008D01*
X3134824Y-12926008D02*
X3153872Y-12916484D01*
X3306253Y-13097436D02*
X3315777Y-13106960D01*
X3315777Y-13106960D02*
X3306253Y-13116484D01*
X3306253Y-13116484D02*
X3296729Y-13106960D01*
X3296729Y-13106960D02*
X3306253Y-13097436D01*
X3306253Y-13097436D02*
X3306253Y-13116484D01*
X3391967Y-12935531D02*
X3401491Y-12926008D01*
X3401491Y-12926008D02*
X3420539Y-12916484D01*
X3420539Y-12916484D02*
X3468158Y-12916484D01*
X3468158Y-12916484D02*
X3487205Y-12926008D01*
X3487205Y-12926008D02*
X3496729Y-12935531D01*
X3496729Y-12935531D02*
X3506253Y-12954579D01*
X3506253Y-12954579D02*
X3506253Y-12973627D01*
X3506253Y-12973627D02*
X3496729Y-13002198D01*
X3496729Y-13002198D02*
X3382443Y-13116484D01*
X3382443Y-13116484D02*
X3506253Y-13116484D01*
X3630062Y-12916484D02*
X3649110Y-12916484D01*
X3649110Y-12916484D02*
X3668158Y-12926008D01*
X3668158Y-12926008D02*
X3677682Y-12935531D01*
X3677682Y-12935531D02*
X3687205Y-12954579D01*
X3687205Y-12954579D02*
X3696729Y-12992674D01*
X3696729Y-12992674D02*
X3696729Y-13040293D01*
X3696729Y-13040293D02*
X3687205Y-13078388D01*
X3687205Y-13078388D02*
X3677682Y-13097436D01*
X3677682Y-13097436D02*
X3668158Y-13106960D01*
X3668158Y-13106960D02*
X3649110Y-13116484D01*
X3649110Y-13116484D02*
X3630062Y-13116484D01*
X3630062Y-13116484D02*
X3611015Y-13106960D01*
X3611015Y-13106960D02*
X3601491Y-13097436D01*
X3601491Y-13097436D02*
X3591967Y-13078388D01*
X3591967Y-13078388D02*
X3582443Y-13040293D01*
X3582443Y-13040293D02*
X3582443Y-12992674D01*
X3582443Y-12992674D02*
X3591967Y-12954579D01*
X3591967Y-12954579D02*
X3601491Y-12935531D01*
X3601491Y-12935531D02*
X3611015Y-12926008D01*
X3611015Y-12926008D02*
X3630062Y-12916484D01*
X3820539Y-12916484D02*
X3839586Y-12916484D01*
X3839586Y-12916484D02*
X3858634Y-12926008D01*
X3858634Y-12926008D02*
X3868158Y-12935531D01*
X3868158Y-12935531D02*
X3877682Y-12954579D01*
X3877682Y-12954579D02*
X3887205Y-12992674D01*
X3887205Y-12992674D02*
X3887205Y-13040293D01*
X3887205Y-13040293D02*
X3877682Y-13078388D01*
X3877682Y-13078388D02*
X3868158Y-13097436D01*
X3868158Y-13097436D02*
X3858634Y-13106960D01*
X3858634Y-13106960D02*
X3839586Y-13116484D01*
X3839586Y-13116484D02*
X3820539Y-13116484D01*
X3820539Y-13116484D02*
X3801491Y-13106960D01*
X3801491Y-13106960D02*
X3791967Y-13097436D01*
X3791967Y-13097436D02*
X3782443Y-13078388D01*
X3782443Y-13078388D02*
X3772920Y-13040293D01*
X3772920Y-13040293D02*
X3772920Y-12992674D01*
X3772920Y-12992674D02*
X3782443Y-12954579D01*
X3782443Y-12954579D02*
X3791967Y-12935531D01*
X3791967Y-12935531D02*
X3801491Y-12926008D01*
X3801491Y-12926008D02*
X3820539Y-12916484D01*
X3972920Y-13116484D02*
X3972920Y-12983150D01*
X3972920Y-13002198D02*
X3982443Y-12992674D01*
X3982443Y-12992674D02*
X4001491Y-12983150D01*
X4001491Y-12983150D02*
X4030063Y-12983150D01*
X4030063Y-12983150D02*
X4049110Y-12992674D01*
X4049110Y-12992674D02*
X4058634Y-13011722D01*
X4058634Y-13011722D02*
X4058634Y-13116484D01*
X4058634Y-13011722D02*
X4068158Y-12992674D01*
X4068158Y-12992674D02*
X4087205Y-12983150D01*
X4087205Y-12983150D02*
X4115777Y-12983150D01*
X4115777Y-12983150D02*
X4134824Y-12992674D01*
X4134824Y-12992674D02*
X4144348Y-13011722D01*
X4144348Y-13011722D02*
X4144348Y-13116484D01*
X4239586Y-13116484D02*
X4239586Y-12983150D01*
X4239586Y-13002198D02*
X4249110Y-12992674D01*
X4249110Y-12992674D02*
X4268158Y-12983150D01*
X4268158Y-12983150D02*
X4296729Y-12983150D01*
X4296729Y-12983150D02*
X4315777Y-12992674D01*
X4315777Y-12992674D02*
X4325301Y-13011722D01*
X4325301Y-13011722D02*
X4325301Y-13116484D01*
X4325301Y-13011722D02*
X4334825Y-12992674D01*
X4334825Y-12992674D02*
X4353872Y-12983150D01*
X4353872Y-12983150D02*
X4382444Y-12983150D01*
X4382444Y-12983150D02*
X4401491Y-12992674D01*
X4401491Y-12992674D02*
X4411015Y-13011722D01*
X4411015Y-13011722D02*
X4411015Y-13116484D01*
X4801491Y-12906960D02*
X4630063Y-13164103D01*
X5058634Y-12916484D02*
X5077682Y-12916484D01*
X5077682Y-12916484D02*
X5096729Y-12926008D01*
X5096729Y-12926008D02*
X5106253Y-12935531D01*
X5106253Y-12935531D02*
X5115777Y-12954579D01*
X5115777Y-12954579D02*
X5125301Y-12992674D01*
X5125301Y-12992674D02*
X5125301Y-13040293D01*
X5125301Y-13040293D02*
X5115777Y-13078388D01*
X5115777Y-13078388D02*
X5106253Y-13097436D01*
X5106253Y-13097436D02*
X5096729Y-13106960D01*
X5096729Y-13106960D02*
X5077682Y-13116484D01*
X5077682Y-13116484D02*
X5058634Y-13116484D01*
X5058634Y-13116484D02*
X5039587Y-13106960D01*
X5039587Y-13106960D02*
X5030063Y-13097436D01*
X5030063Y-13097436D02*
X5020539Y-13078388D01*
X5020539Y-13078388D02*
X5011015Y-13040293D01*
X5011015Y-13040293D02*
X5011015Y-12992674D01*
X5011015Y-12992674D02*
X5020539Y-12954579D01*
X5020539Y-12954579D02*
X5030063Y-12935531D01*
X5030063Y-12935531D02*
X5039587Y-12926008D01*
X5039587Y-12926008D02*
X5058634Y-12916484D01*
X5211015Y-13097436D02*
X5220539Y-13106960D01*
X5220539Y-13106960D02*
X5211015Y-13116484D01*
X5211015Y-13116484D02*
X5201491Y-13106960D01*
X5201491Y-13106960D02*
X5211015Y-13097436D01*
X5211015Y-13097436D02*
X5211015Y-13116484D01*
X5344348Y-12916484D02*
X5363396Y-12916484D01*
X5363396Y-12916484D02*
X5382444Y-12926008D01*
X5382444Y-12926008D02*
X5391968Y-12935531D01*
X5391968Y-12935531D02*
X5401491Y-12954579D01*
X5401491Y-12954579D02*
X5411015Y-12992674D01*
X5411015Y-12992674D02*
X5411015Y-13040293D01*
X5411015Y-13040293D02*
X5401491Y-13078388D01*
X5401491Y-13078388D02*
X5391968Y-13097436D01*
X5391968Y-13097436D02*
X5382444Y-13106960D01*
X5382444Y-13106960D02*
X5363396Y-13116484D01*
X5363396Y-13116484D02*
X5344348Y-13116484D01*
X5344348Y-13116484D02*
X5325301Y-13106960D01*
X5325301Y-13106960D02*
X5315777Y-13097436D01*
X5315777Y-13097436D02*
X5306253Y-13078388D01*
X5306253Y-13078388D02*
X5296729Y-13040293D01*
X5296729Y-13040293D02*
X5296729Y-12992674D01*
X5296729Y-12992674D02*
X5306253Y-12954579D01*
X5306253Y-12954579D02*
X5315777Y-12935531D01*
X5315777Y-12935531D02*
X5325301Y-12926008D01*
X5325301Y-12926008D02*
X5344348Y-12916484D01*
X5534825Y-12916484D02*
X5553872Y-12916484D01*
X5553872Y-12916484D02*
X5572920Y-12926008D01*
X5572920Y-12926008D02*
X5582444Y-12935531D01*
X5582444Y-12935531D02*
X5591968Y-12954579D01*
X5591968Y-12954579D02*
X5601491Y-12992674D01*
X5601491Y-12992674D02*
X5601491Y-13040293D01*
X5601491Y-13040293D02*
X5591968Y-13078388D01*
X5591968Y-13078388D02*
X5582444Y-13097436D01*
X5582444Y-13097436D02*
X5572920Y-13106960D01*
X5572920Y-13106960D02*
X5553872Y-13116484D01*
X5553872Y-13116484D02*
X5534825Y-13116484D01*
X5534825Y-13116484D02*
X5515777Y-13106960D01*
X5515777Y-13106960D02*
X5506253Y-13097436D01*
X5506253Y-13097436D02*
X5496729Y-13078388D01*
X5496729Y-13078388D02*
X5487206Y-13040293D01*
X5487206Y-13040293D02*
X5487206Y-12992674D01*
X5487206Y-12992674D02*
X5496729Y-12954579D01*
X5496729Y-12954579D02*
X5506253Y-12935531D01*
X5506253Y-12935531D02*
X5515777Y-12926008D01*
X5515777Y-12926008D02*
X5534825Y-12916484D01*
X5668158Y-12916484D02*
X5801491Y-12916484D01*
X5801491Y-12916484D02*
X5715777Y-13116484D01*
X5887206Y-13116484D02*
X5925301Y-13116484D01*
X5925301Y-13116484D02*
X5944348Y-13106960D01*
X5944348Y-13106960D02*
X5953872Y-13097436D01*
X5953872Y-13097436D02*
X5972920Y-13068865D01*
X5972920Y-13068865D02*
X5982444Y-13030769D01*
X5982444Y-13030769D02*
X5982444Y-12954579D01*
X5982444Y-12954579D02*
X5972920Y-12935531D01*
X5972920Y-12935531D02*
X5963396Y-12926008D01*
X5963396Y-12926008D02*
X5944348Y-12916484D01*
X5944348Y-12916484D02*
X5906253Y-12916484D01*
X5906253Y-12916484D02*
X5887206Y-12926008D01*
X5887206Y-12926008D02*
X5877682Y-12935531D01*
X5877682Y-12935531D02*
X5868158Y-12954579D01*
X5868158Y-12954579D02*
X5868158Y-13002198D01*
X5868158Y-13002198D02*
X5877682Y-13021246D01*
X5877682Y-13021246D02*
X5887206Y-13030769D01*
X5887206Y-13030769D02*
X5906253Y-13040293D01*
X5906253Y-13040293D02*
X5944348Y-13040293D01*
X5944348Y-13040293D02*
X5963396Y-13030769D01*
X5963396Y-13030769D02*
X5972920Y-13021246D01*
X5972920Y-13021246D02*
X5982444Y-13002198D01*
X6058634Y-12916484D02*
X6058634Y-12954579D01*
X6134825Y-12916484D02*
X6134825Y-12954579D01*
X6430063Y-13192674D02*
X6420539Y-13183150D01*
X6420539Y-13183150D02*
X6401491Y-13154579D01*
X6401491Y-13154579D02*
X6391968Y-13135531D01*
X6391968Y-13135531D02*
X6382444Y-13106960D01*
X6382444Y-13106960D02*
X6372920Y-13059341D01*
X6372920Y-13059341D02*
X6372920Y-13021246D01*
X6372920Y-13021246D02*
X6382444Y-12973627D01*
X6382444Y-12973627D02*
X6391968Y-12945055D01*
X6391968Y-12945055D02*
X6401491Y-12926008D01*
X6401491Y-12926008D02*
X6420539Y-12897436D01*
X6420539Y-12897436D02*
X6430063Y-12887912D01*
X6611015Y-13116484D02*
X6496729Y-13116484D01*
X6553872Y-13116484D02*
X6553872Y-12916484D01*
X6553872Y-12916484D02*
X6534825Y-12945055D01*
X6534825Y-12945055D02*
X6515777Y-12964103D01*
X6515777Y-12964103D02*
X6496729Y-12973627D01*
X6849110Y-13116484D02*
X6849110Y-12916484D01*
X6934825Y-13116484D02*
X6934825Y-13011722D01*
X6934825Y-13011722D02*
X6925301Y-12992674D01*
X6925301Y-12992674D02*
X6906253Y-12983150D01*
X6906253Y-12983150D02*
X6877682Y-12983150D01*
X6877682Y-12983150D02*
X6858634Y-12992674D01*
X6858634Y-12992674D02*
X6849110Y-13002198D01*
X7058634Y-13116484D02*
X7039587Y-13106960D01*
X7039587Y-13106960D02*
X7030063Y-13097436D01*
X7030063Y-13097436D02*
X7020539Y-13078388D01*
X7020539Y-13078388D02*
X7020539Y-13021246D01*
X7020539Y-13021246D02*
X7030063Y-13002198D01*
X7030063Y-13002198D02*
X7039587Y-12992674D01*
X7039587Y-12992674D02*
X7058634Y-12983150D01*
X7058634Y-12983150D02*
X7087206Y-12983150D01*
X7087206Y-12983150D02*
X7106253Y-12992674D01*
X7106253Y-12992674D02*
X7115777Y-13002198D01*
X7115777Y-13002198D02*
X7125301Y-13021246D01*
X7125301Y-13021246D02*
X7125301Y-13078388D01*
X7125301Y-13078388D02*
X7115777Y-13097436D01*
X7115777Y-13097436D02*
X7106253Y-13106960D01*
X7106253Y-13106960D02*
X7087206Y-13116484D01*
X7087206Y-13116484D02*
X7058634Y-13116484D01*
X7239587Y-13116484D02*
X7220539Y-13106960D01*
X7220539Y-13106960D02*
X7211015Y-13087912D01*
X7211015Y-13087912D02*
X7211015Y-12916484D01*
X7391968Y-13106960D02*
X7372920Y-13116484D01*
X7372920Y-13116484D02*
X7334825Y-13116484D01*
X7334825Y-13116484D02*
X7315777Y-13106960D01*
X7315777Y-13106960D02*
X7306253Y-13087912D01*
X7306253Y-13087912D02*
X7306253Y-13011722D01*
X7306253Y-13011722D02*
X7315777Y-12992674D01*
X7315777Y-12992674D02*
X7334825Y-12983150D01*
X7334825Y-12983150D02*
X7372920Y-12983150D01*
X7372920Y-12983150D02*
X7391968Y-12992674D01*
X7391968Y-12992674D02*
X7401491Y-13011722D01*
X7401491Y-13011722D02*
X7401491Y-13030769D01*
X7401491Y-13030769D02*
X7306253Y-13049817D01*
X7468158Y-13192674D02*
X7477682Y-13183150D01*
X7477682Y-13183150D02*
X7496730Y-13154579D01*
X7496730Y-13154579D02*
X7506253Y-13135531D01*
X7506253Y-13135531D02*
X7515777Y-13106960D01*
X7515777Y-13106960D02*
X7525301Y-13059341D01*
X7525301Y-13059341D02*
X7525301Y-13021246D01*
X7525301Y-13021246D02*
X7515777Y-12973627D01*
X7515777Y-12973627D02*
X7506253Y-12945055D01*
X7506253Y-12945055D02*
X7496730Y-12926008D01*
X7496730Y-12926008D02*
X7477682Y-12897436D01*
X7477682Y-12897436D02*
X7468158Y-12887912D01*
D11*
X2855000Y-13289000D02*
G75*
G02*
X2835000Y-13289000I-10000J0D01*
G01*
X2835000Y-13289000D02*
G75*
G02*
X2855000Y-13289000I10000J0D01*
G01*
D12*
X3153872Y-13180484D02*
X3172920Y-13180484D01*
X3172920Y-13180484D02*
X3191967Y-13190008D01*
X3191967Y-13190008D02*
X3201491Y-13199531D01*
X3201491Y-13199531D02*
X3211015Y-13218579D01*
X3211015Y-13218579D02*
X3220539Y-13256674D01*
X3220539Y-13256674D02*
X3220539Y-13304293D01*
X3220539Y-13304293D02*
X3211015Y-13342388D01*
X3211015Y-13342388D02*
X3201491Y-13361436D01*
X3201491Y-13361436D02*
X3191967Y-13370960D01*
X3191967Y-13370960D02*
X3172920Y-13380484D01*
X3172920Y-13380484D02*
X3153872Y-13380484D01*
X3153872Y-13380484D02*
X3134824Y-13370960D01*
X3134824Y-13370960D02*
X3125301Y-13361436D01*
X3125301Y-13361436D02*
X3115777Y-13342388D01*
X3115777Y-13342388D02*
X3106253Y-13304293D01*
X3106253Y-13304293D02*
X3106253Y-13256674D01*
X3106253Y-13256674D02*
X3115777Y-13218579D01*
X3115777Y-13218579D02*
X3125301Y-13199531D01*
X3125301Y-13199531D02*
X3134824Y-13190008D01*
X3134824Y-13190008D02*
X3153872Y-13180484D01*
X3306253Y-13361436D02*
X3315777Y-13370960D01*
X3315777Y-13370960D02*
X3306253Y-13380484D01*
X3306253Y-13380484D02*
X3296729Y-13370960D01*
X3296729Y-13370960D02*
X3306253Y-13361436D01*
X3306253Y-13361436D02*
X3306253Y-13380484D01*
X3391967Y-13199531D02*
X3401491Y-13190008D01*
X3401491Y-13190008D02*
X3420539Y-13180484D01*
X3420539Y-13180484D02*
X3468158Y-13180484D01*
X3468158Y-13180484D02*
X3487205Y-13190008D01*
X3487205Y-13190008D02*
X3496729Y-13199531D01*
X3496729Y-13199531D02*
X3506253Y-13218579D01*
X3506253Y-13218579D02*
X3506253Y-13237627D01*
X3506253Y-13237627D02*
X3496729Y-13266198D01*
X3496729Y-13266198D02*
X3382443Y-13380484D01*
X3382443Y-13380484D02*
X3506253Y-13380484D01*
X3630062Y-13180484D02*
X3649110Y-13180484D01*
X3649110Y-13180484D02*
X3668158Y-13190008D01*
X3668158Y-13190008D02*
X3677682Y-13199531D01*
X3677682Y-13199531D02*
X3687205Y-13218579D01*
X3687205Y-13218579D02*
X3696729Y-13256674D01*
X3696729Y-13256674D02*
X3696729Y-13304293D01*
X3696729Y-13304293D02*
X3687205Y-13342388D01*
X3687205Y-13342388D02*
X3677682Y-13361436D01*
X3677682Y-13361436D02*
X3668158Y-13370960D01*
X3668158Y-13370960D02*
X3649110Y-13380484D01*
X3649110Y-13380484D02*
X3630062Y-13380484D01*
X3630062Y-13380484D02*
X3611015Y-13370960D01*
X3611015Y-13370960D02*
X3601491Y-13361436D01*
X3601491Y-13361436D02*
X3591967Y-13342388D01*
X3591967Y-13342388D02*
X3582443Y-13304293D01*
X3582443Y-13304293D02*
X3582443Y-13256674D01*
X3582443Y-13256674D02*
X3591967Y-13218579D01*
X3591967Y-13218579D02*
X3601491Y-13199531D01*
X3601491Y-13199531D02*
X3611015Y-13190008D01*
X3611015Y-13190008D02*
X3630062Y-13180484D01*
X3820539Y-13180484D02*
X3839586Y-13180484D01*
X3839586Y-13180484D02*
X3858634Y-13190008D01*
X3858634Y-13190008D02*
X3868158Y-13199531D01*
X3868158Y-13199531D02*
X3877682Y-13218579D01*
X3877682Y-13218579D02*
X3887205Y-13256674D01*
X3887205Y-13256674D02*
X3887205Y-13304293D01*
X3887205Y-13304293D02*
X3877682Y-13342388D01*
X3877682Y-13342388D02*
X3868158Y-13361436D01*
X3868158Y-13361436D02*
X3858634Y-13370960D01*
X3858634Y-13370960D02*
X3839586Y-13380484D01*
X3839586Y-13380484D02*
X3820539Y-13380484D01*
X3820539Y-13380484D02*
X3801491Y-13370960D01*
X3801491Y-13370960D02*
X3791967Y-13361436D01*
X3791967Y-13361436D02*
X3782443Y-13342388D01*
X3782443Y-13342388D02*
X3772920Y-13304293D01*
X3772920Y-13304293D02*
X3772920Y-13256674D01*
X3772920Y-13256674D02*
X3782443Y-13218579D01*
X3782443Y-13218579D02*
X3791967Y-13199531D01*
X3791967Y-13199531D02*
X3801491Y-13190008D01*
X3801491Y-13190008D02*
X3820539Y-13180484D01*
X3972920Y-13380484D02*
X3972920Y-13247150D01*
X3972920Y-13266198D02*
X3982443Y-13256674D01*
X3982443Y-13256674D02*
X4001491Y-13247150D01*
X4001491Y-13247150D02*
X4030063Y-13247150D01*
X4030063Y-13247150D02*
X4049110Y-13256674D01*
X4049110Y-13256674D02*
X4058634Y-13275722D01*
X4058634Y-13275722D02*
X4058634Y-13380484D01*
X4058634Y-13275722D02*
X4068158Y-13256674D01*
X4068158Y-13256674D02*
X4087205Y-13247150D01*
X4087205Y-13247150D02*
X4115777Y-13247150D01*
X4115777Y-13247150D02*
X4134824Y-13256674D01*
X4134824Y-13256674D02*
X4144348Y-13275722D01*
X4144348Y-13275722D02*
X4144348Y-13380484D01*
X4239586Y-13380484D02*
X4239586Y-13247150D01*
X4239586Y-13266198D02*
X4249110Y-13256674D01*
X4249110Y-13256674D02*
X4268158Y-13247150D01*
X4268158Y-13247150D02*
X4296729Y-13247150D01*
X4296729Y-13247150D02*
X4315777Y-13256674D01*
X4315777Y-13256674D02*
X4325301Y-13275722D01*
X4325301Y-13275722D02*
X4325301Y-13380484D01*
X4325301Y-13275722D02*
X4334825Y-13256674D01*
X4334825Y-13256674D02*
X4353872Y-13247150D01*
X4353872Y-13247150D02*
X4382444Y-13247150D01*
X4382444Y-13247150D02*
X4401491Y-13256674D01*
X4401491Y-13256674D02*
X4411015Y-13275722D01*
X4411015Y-13275722D02*
X4411015Y-13380484D01*
X4801491Y-13170960D02*
X4630063Y-13428103D01*
X5058634Y-13180484D02*
X5077682Y-13180484D01*
X5077682Y-13180484D02*
X5096729Y-13190008D01*
X5096729Y-13190008D02*
X5106253Y-13199531D01*
X5106253Y-13199531D02*
X5115777Y-13218579D01*
X5115777Y-13218579D02*
X5125301Y-13256674D01*
X5125301Y-13256674D02*
X5125301Y-13304293D01*
X5125301Y-13304293D02*
X5115777Y-13342388D01*
X5115777Y-13342388D02*
X5106253Y-13361436D01*
X5106253Y-13361436D02*
X5096729Y-13370960D01*
X5096729Y-13370960D02*
X5077682Y-13380484D01*
X5077682Y-13380484D02*
X5058634Y-13380484D01*
X5058634Y-13380484D02*
X5039587Y-13370960D01*
X5039587Y-13370960D02*
X5030063Y-13361436D01*
X5030063Y-13361436D02*
X5020539Y-13342388D01*
X5020539Y-13342388D02*
X5011015Y-13304293D01*
X5011015Y-13304293D02*
X5011015Y-13256674D01*
X5011015Y-13256674D02*
X5020539Y-13218579D01*
X5020539Y-13218579D02*
X5030063Y-13199531D01*
X5030063Y-13199531D02*
X5039587Y-13190008D01*
X5039587Y-13190008D02*
X5058634Y-13180484D01*
X5211015Y-13361436D02*
X5220539Y-13370960D01*
X5220539Y-13370960D02*
X5211015Y-13380484D01*
X5211015Y-13380484D02*
X5201491Y-13370960D01*
X5201491Y-13370960D02*
X5211015Y-13361436D01*
X5211015Y-13361436D02*
X5211015Y-13380484D01*
X5344348Y-13180484D02*
X5363396Y-13180484D01*
X5363396Y-13180484D02*
X5382444Y-13190008D01*
X5382444Y-13190008D02*
X5391968Y-13199531D01*
X5391968Y-13199531D02*
X5401491Y-13218579D01*
X5401491Y-13218579D02*
X5411015Y-13256674D01*
X5411015Y-13256674D02*
X5411015Y-13304293D01*
X5411015Y-13304293D02*
X5401491Y-13342388D01*
X5401491Y-13342388D02*
X5391968Y-13361436D01*
X5391968Y-13361436D02*
X5382444Y-13370960D01*
X5382444Y-13370960D02*
X5363396Y-13380484D01*
X5363396Y-13380484D02*
X5344348Y-13380484D01*
X5344348Y-13380484D02*
X5325301Y-13370960D01*
X5325301Y-13370960D02*
X5315777Y-13361436D01*
X5315777Y-13361436D02*
X5306253Y-13342388D01*
X5306253Y-13342388D02*
X5296729Y-13304293D01*
X5296729Y-13304293D02*
X5296729Y-13256674D01*
X5296729Y-13256674D02*
X5306253Y-13218579D01*
X5306253Y-13218579D02*
X5315777Y-13199531D01*
X5315777Y-13199531D02*
X5325301Y-13190008D01*
X5325301Y-13190008D02*
X5344348Y-13180484D01*
X5534825Y-13180484D02*
X5553872Y-13180484D01*
X5553872Y-13180484D02*
X5572920Y-13190008D01*
X5572920Y-13190008D02*
X5582444Y-13199531D01*
X5582444Y-13199531D02*
X5591968Y-13218579D01*
X5591968Y-13218579D02*
X5601491Y-13256674D01*
X5601491Y-13256674D02*
X5601491Y-13304293D01*
X5601491Y-13304293D02*
X5591968Y-13342388D01*
X5591968Y-13342388D02*
X5582444Y-13361436D01*
X5582444Y-13361436D02*
X5572920Y-13370960D01*
X5572920Y-13370960D02*
X5553872Y-13380484D01*
X5553872Y-13380484D02*
X5534825Y-13380484D01*
X5534825Y-13380484D02*
X5515777Y-13370960D01*
X5515777Y-13370960D02*
X5506253Y-13361436D01*
X5506253Y-13361436D02*
X5496729Y-13342388D01*
X5496729Y-13342388D02*
X5487206Y-13304293D01*
X5487206Y-13304293D02*
X5487206Y-13256674D01*
X5487206Y-13256674D02*
X5496729Y-13218579D01*
X5496729Y-13218579D02*
X5506253Y-13199531D01*
X5506253Y-13199531D02*
X5515777Y-13190008D01*
X5515777Y-13190008D02*
X5534825Y-13180484D01*
X5668158Y-13180484D02*
X5801491Y-13180484D01*
X5801491Y-13180484D02*
X5715777Y-13380484D01*
X5887206Y-13380484D02*
X5925301Y-13380484D01*
X5925301Y-13380484D02*
X5944348Y-13370960D01*
X5944348Y-13370960D02*
X5953872Y-13361436D01*
X5953872Y-13361436D02*
X5972920Y-13332865D01*
X5972920Y-13332865D02*
X5982444Y-13294769D01*
X5982444Y-13294769D02*
X5982444Y-13218579D01*
X5982444Y-13218579D02*
X5972920Y-13199531D01*
X5972920Y-13199531D02*
X5963396Y-13190008D01*
X5963396Y-13190008D02*
X5944348Y-13180484D01*
X5944348Y-13180484D02*
X5906253Y-13180484D01*
X5906253Y-13180484D02*
X5887206Y-13190008D01*
X5887206Y-13190008D02*
X5877682Y-13199531D01*
X5877682Y-13199531D02*
X5868158Y-13218579D01*
X5868158Y-13218579D02*
X5868158Y-13266198D01*
X5868158Y-13266198D02*
X5877682Y-13285246D01*
X5877682Y-13285246D02*
X5887206Y-13294769D01*
X5887206Y-13294769D02*
X5906253Y-13304293D01*
X5906253Y-13304293D02*
X5944348Y-13304293D01*
X5944348Y-13304293D02*
X5963396Y-13294769D01*
X5963396Y-13294769D02*
X5972920Y-13285246D01*
X5972920Y-13285246D02*
X5982444Y-13266198D01*
X6058634Y-13180484D02*
X6058634Y-13218579D01*
X6134825Y-13180484D02*
X6134825Y-13218579D01*
X6430063Y-13456674D02*
X6420539Y-13447150D01*
X6420539Y-13447150D02*
X6401491Y-13418579D01*
X6401491Y-13418579D02*
X6391968Y-13399531D01*
X6391968Y-13399531D02*
X6382444Y-13370960D01*
X6382444Y-13370960D02*
X6372920Y-13323341D01*
X6372920Y-13323341D02*
X6372920Y-13285246D01*
X6372920Y-13285246D02*
X6382444Y-13237627D01*
X6382444Y-13237627D02*
X6391968Y-13209055D01*
X6391968Y-13209055D02*
X6401491Y-13190008D01*
X6401491Y-13190008D02*
X6420539Y-13161436D01*
X6420539Y-13161436D02*
X6430063Y-13151912D01*
X6591968Y-13247150D02*
X6591968Y-13380484D01*
X6544348Y-13170960D02*
X6496729Y-13313817D01*
X6496729Y-13313817D02*
X6620539Y-13313817D01*
X6849110Y-13380484D02*
X6849110Y-13180484D01*
X6934825Y-13380484D02*
X6934825Y-13275722D01*
X6934825Y-13275722D02*
X6925301Y-13256674D01*
X6925301Y-13256674D02*
X6906253Y-13247150D01*
X6906253Y-13247150D02*
X6877682Y-13247150D01*
X6877682Y-13247150D02*
X6858634Y-13256674D01*
X6858634Y-13256674D02*
X6849110Y-13266198D01*
X7058634Y-13380484D02*
X7039587Y-13370960D01*
X7039587Y-13370960D02*
X7030063Y-13361436D01*
X7030063Y-13361436D02*
X7020539Y-13342388D01*
X7020539Y-13342388D02*
X7020539Y-13285246D01*
X7020539Y-13285246D02*
X7030063Y-13266198D01*
X7030063Y-13266198D02*
X7039587Y-13256674D01*
X7039587Y-13256674D02*
X7058634Y-13247150D01*
X7058634Y-13247150D02*
X7087206Y-13247150D01*
X7087206Y-13247150D02*
X7106253Y-13256674D01*
X7106253Y-13256674D02*
X7115777Y-13266198D01*
X7115777Y-13266198D02*
X7125301Y-13285246D01*
X7125301Y-13285246D02*
X7125301Y-13342388D01*
X7125301Y-13342388D02*
X7115777Y-13361436D01*
X7115777Y-13361436D02*
X7106253Y-13370960D01*
X7106253Y-13370960D02*
X7087206Y-13380484D01*
X7087206Y-13380484D02*
X7058634Y-13380484D01*
X7239587Y-13380484D02*
X7220539Y-13370960D01*
X7220539Y-13370960D02*
X7211015Y-13351912D01*
X7211015Y-13351912D02*
X7211015Y-13180484D01*
X7391968Y-13370960D02*
X7372920Y-13380484D01*
X7372920Y-13380484D02*
X7334825Y-13380484D01*
X7334825Y-13380484D02*
X7315777Y-13370960D01*
X7315777Y-13370960D02*
X7306253Y-13351912D01*
X7306253Y-13351912D02*
X7306253Y-13275722D01*
X7306253Y-13275722D02*
X7315777Y-13256674D01*
X7315777Y-13256674D02*
X7334825Y-13247150D01*
X7334825Y-13247150D02*
X7372920Y-13247150D01*
X7372920Y-13247150D02*
X7391968Y-13256674D01*
X7391968Y-13256674D02*
X7401491Y-13275722D01*
X7401491Y-13275722D02*
X7401491Y-13294769D01*
X7401491Y-13294769D02*
X7306253Y-13313817D01*
X7477682Y-13370960D02*
X7496730Y-13380484D01*
X7496730Y-13380484D02*
X7534825Y-13380484D01*
X7534825Y-13380484D02*
X7553872Y-13370960D01*
X7553872Y-13370960D02*
X7563396Y-13351912D01*
X7563396Y-13351912D02*
X7563396Y-13342388D01*
X7563396Y-13342388D02*
X7553872Y-13323341D01*
X7553872Y-13323341D02*
X7534825Y-13313817D01*
X7534825Y-13313817D02*
X7506253Y-13313817D01*
X7506253Y-13313817D02*
X7487206Y-13304293D01*
X7487206Y-13304293D02*
X7477682Y-13285246D01*
X7477682Y-13285246D02*
X7477682Y-13275722D01*
X7477682Y-13275722D02*
X7487206Y-13256674D01*
X7487206Y-13256674D02*
X7506253Y-13247150D01*
X7506253Y-13247150D02*
X7534825Y-13247150D01*
X7534825Y-13247150D02*
X7553872Y-13256674D01*
X7630063Y-13456674D02*
X7639587Y-13447150D01*
X7639587Y-13447150D02*
X7658634Y-13418579D01*
X7658634Y-13418579D02*
X7668158Y-13399531D01*
X7668158Y-13399531D02*
X7677682Y-13370960D01*
X7677682Y-13370960D02*
X7687206Y-13323341D01*
X7687206Y-13323341D02*
X7687206Y-13285246D01*
X7687206Y-13285246D02*
X7677682Y-13237627D01*
X7677682Y-13237627D02*
X7668158Y-13209055D01*
X7668158Y-13209055D02*
X7658634Y-13190008D01*
X7658634Y-13190008D02*
X7639587Y-13161436D01*
X7639587Y-13161436D02*
X7630063Y-13151912D01*
D11*
X2840000Y-13538000D02*
X2840000Y-13568000D01*
X2825000Y-13553000D02*
X2855000Y-13553000D01*
D12*
X3153872Y-13444484D02*
X3172920Y-13444484D01*
X3172920Y-13444484D02*
X3191967Y-13454008D01*
X3191967Y-13454008D02*
X3201491Y-13463531D01*
X3201491Y-13463531D02*
X3211015Y-13482579D01*
X3211015Y-13482579D02*
X3220539Y-13520674D01*
X3220539Y-13520674D02*
X3220539Y-13568293D01*
X3220539Y-13568293D02*
X3211015Y-13606388D01*
X3211015Y-13606388D02*
X3201491Y-13625436D01*
X3201491Y-13625436D02*
X3191967Y-13634960D01*
X3191967Y-13634960D02*
X3172920Y-13644484D01*
X3172920Y-13644484D02*
X3153872Y-13644484D01*
X3153872Y-13644484D02*
X3134824Y-13634960D01*
X3134824Y-13634960D02*
X3125301Y-13625436D01*
X3125301Y-13625436D02*
X3115777Y-13606388D01*
X3115777Y-13606388D02*
X3106253Y-13568293D01*
X3106253Y-13568293D02*
X3106253Y-13520674D01*
X3106253Y-13520674D02*
X3115777Y-13482579D01*
X3115777Y-13482579D02*
X3125301Y-13463531D01*
X3125301Y-13463531D02*
X3134824Y-13454008D01*
X3134824Y-13454008D02*
X3153872Y-13444484D01*
X3306253Y-13625436D02*
X3315777Y-13634960D01*
X3315777Y-13634960D02*
X3306253Y-13644484D01*
X3306253Y-13644484D02*
X3296729Y-13634960D01*
X3296729Y-13634960D02*
X3306253Y-13625436D01*
X3306253Y-13625436D02*
X3306253Y-13644484D01*
X3382443Y-13444484D02*
X3506253Y-13444484D01*
X3506253Y-13444484D02*
X3439586Y-13520674D01*
X3439586Y-13520674D02*
X3468158Y-13520674D01*
X3468158Y-13520674D02*
X3487205Y-13530198D01*
X3487205Y-13530198D02*
X3496729Y-13539722D01*
X3496729Y-13539722D02*
X3506253Y-13558769D01*
X3506253Y-13558769D02*
X3506253Y-13606388D01*
X3506253Y-13606388D02*
X3496729Y-13625436D01*
X3496729Y-13625436D02*
X3487205Y-13634960D01*
X3487205Y-13634960D02*
X3468158Y-13644484D01*
X3468158Y-13644484D02*
X3411015Y-13644484D01*
X3411015Y-13644484D02*
X3391967Y-13634960D01*
X3391967Y-13634960D02*
X3382443Y-13625436D01*
X3630062Y-13444484D02*
X3649110Y-13444484D01*
X3649110Y-13444484D02*
X3668158Y-13454008D01*
X3668158Y-13454008D02*
X3677682Y-13463531D01*
X3677682Y-13463531D02*
X3687205Y-13482579D01*
X3687205Y-13482579D02*
X3696729Y-13520674D01*
X3696729Y-13520674D02*
X3696729Y-13568293D01*
X3696729Y-13568293D02*
X3687205Y-13606388D01*
X3687205Y-13606388D02*
X3677682Y-13625436D01*
X3677682Y-13625436D02*
X3668158Y-13634960D01*
X3668158Y-13634960D02*
X3649110Y-13644484D01*
X3649110Y-13644484D02*
X3630062Y-13644484D01*
X3630062Y-13644484D02*
X3611015Y-13634960D01*
X3611015Y-13634960D02*
X3601491Y-13625436D01*
X3601491Y-13625436D02*
X3591967Y-13606388D01*
X3591967Y-13606388D02*
X3582443Y-13568293D01*
X3582443Y-13568293D02*
X3582443Y-13520674D01*
X3582443Y-13520674D02*
X3591967Y-13482579D01*
X3591967Y-13482579D02*
X3601491Y-13463531D01*
X3601491Y-13463531D02*
X3611015Y-13454008D01*
X3611015Y-13454008D02*
X3630062Y-13444484D01*
X3820539Y-13444484D02*
X3839586Y-13444484D01*
X3839586Y-13444484D02*
X3858634Y-13454008D01*
X3858634Y-13454008D02*
X3868158Y-13463531D01*
X3868158Y-13463531D02*
X3877682Y-13482579D01*
X3877682Y-13482579D02*
X3887205Y-13520674D01*
X3887205Y-13520674D02*
X3887205Y-13568293D01*
X3887205Y-13568293D02*
X3877682Y-13606388D01*
X3877682Y-13606388D02*
X3868158Y-13625436D01*
X3868158Y-13625436D02*
X3858634Y-13634960D01*
X3858634Y-13634960D02*
X3839586Y-13644484D01*
X3839586Y-13644484D02*
X3820539Y-13644484D01*
X3820539Y-13644484D02*
X3801491Y-13634960D01*
X3801491Y-13634960D02*
X3791967Y-13625436D01*
X3791967Y-13625436D02*
X3782443Y-13606388D01*
X3782443Y-13606388D02*
X3772920Y-13568293D01*
X3772920Y-13568293D02*
X3772920Y-13520674D01*
X3772920Y-13520674D02*
X3782443Y-13482579D01*
X3782443Y-13482579D02*
X3791967Y-13463531D01*
X3791967Y-13463531D02*
X3801491Y-13454008D01*
X3801491Y-13454008D02*
X3820539Y-13444484D01*
X3972920Y-13644484D02*
X3972920Y-13511150D01*
X3972920Y-13530198D02*
X3982443Y-13520674D01*
X3982443Y-13520674D02*
X4001491Y-13511150D01*
X4001491Y-13511150D02*
X4030063Y-13511150D01*
X4030063Y-13511150D02*
X4049110Y-13520674D01*
X4049110Y-13520674D02*
X4058634Y-13539722D01*
X4058634Y-13539722D02*
X4058634Y-13644484D01*
X4058634Y-13539722D02*
X4068158Y-13520674D01*
X4068158Y-13520674D02*
X4087205Y-13511150D01*
X4087205Y-13511150D02*
X4115777Y-13511150D01*
X4115777Y-13511150D02*
X4134824Y-13520674D01*
X4134824Y-13520674D02*
X4144348Y-13539722D01*
X4144348Y-13539722D02*
X4144348Y-13644484D01*
X4239586Y-13644484D02*
X4239586Y-13511150D01*
X4239586Y-13530198D02*
X4249110Y-13520674D01*
X4249110Y-13520674D02*
X4268158Y-13511150D01*
X4268158Y-13511150D02*
X4296729Y-13511150D01*
X4296729Y-13511150D02*
X4315777Y-13520674D01*
X4315777Y-13520674D02*
X4325301Y-13539722D01*
X4325301Y-13539722D02*
X4325301Y-13644484D01*
X4325301Y-13539722D02*
X4334825Y-13520674D01*
X4334825Y-13520674D02*
X4353872Y-13511150D01*
X4353872Y-13511150D02*
X4382444Y-13511150D01*
X4382444Y-13511150D02*
X4401491Y-13520674D01*
X4401491Y-13520674D02*
X4411015Y-13539722D01*
X4411015Y-13539722D02*
X4411015Y-13644484D01*
X4801491Y-13434960D02*
X4630063Y-13692103D01*
X5058634Y-13444484D02*
X5077682Y-13444484D01*
X5077682Y-13444484D02*
X5096729Y-13454008D01*
X5096729Y-13454008D02*
X5106253Y-13463531D01*
X5106253Y-13463531D02*
X5115777Y-13482579D01*
X5115777Y-13482579D02*
X5125301Y-13520674D01*
X5125301Y-13520674D02*
X5125301Y-13568293D01*
X5125301Y-13568293D02*
X5115777Y-13606388D01*
X5115777Y-13606388D02*
X5106253Y-13625436D01*
X5106253Y-13625436D02*
X5096729Y-13634960D01*
X5096729Y-13634960D02*
X5077682Y-13644484D01*
X5077682Y-13644484D02*
X5058634Y-13644484D01*
X5058634Y-13644484D02*
X5039587Y-13634960D01*
X5039587Y-13634960D02*
X5030063Y-13625436D01*
X5030063Y-13625436D02*
X5020539Y-13606388D01*
X5020539Y-13606388D02*
X5011015Y-13568293D01*
X5011015Y-13568293D02*
X5011015Y-13520674D01*
X5011015Y-13520674D02*
X5020539Y-13482579D01*
X5020539Y-13482579D02*
X5030063Y-13463531D01*
X5030063Y-13463531D02*
X5039587Y-13454008D01*
X5039587Y-13454008D02*
X5058634Y-13444484D01*
X5211015Y-13625436D02*
X5220539Y-13634960D01*
X5220539Y-13634960D02*
X5211015Y-13644484D01*
X5211015Y-13644484D02*
X5201491Y-13634960D01*
X5201491Y-13634960D02*
X5211015Y-13625436D01*
X5211015Y-13625436D02*
X5211015Y-13644484D01*
X5344348Y-13444484D02*
X5363396Y-13444484D01*
X5363396Y-13444484D02*
X5382444Y-13454008D01*
X5382444Y-13454008D02*
X5391968Y-13463531D01*
X5391968Y-13463531D02*
X5401491Y-13482579D01*
X5401491Y-13482579D02*
X5411015Y-13520674D01*
X5411015Y-13520674D02*
X5411015Y-13568293D01*
X5411015Y-13568293D02*
X5401491Y-13606388D01*
X5401491Y-13606388D02*
X5391968Y-13625436D01*
X5391968Y-13625436D02*
X5382444Y-13634960D01*
X5382444Y-13634960D02*
X5363396Y-13644484D01*
X5363396Y-13644484D02*
X5344348Y-13644484D01*
X5344348Y-13644484D02*
X5325301Y-13634960D01*
X5325301Y-13634960D02*
X5315777Y-13625436D01*
X5315777Y-13625436D02*
X5306253Y-13606388D01*
X5306253Y-13606388D02*
X5296729Y-13568293D01*
X5296729Y-13568293D02*
X5296729Y-13520674D01*
X5296729Y-13520674D02*
X5306253Y-13482579D01*
X5306253Y-13482579D02*
X5315777Y-13463531D01*
X5315777Y-13463531D02*
X5325301Y-13454008D01*
X5325301Y-13454008D02*
X5344348Y-13444484D01*
X5601491Y-13644484D02*
X5487206Y-13644484D01*
X5544348Y-13644484D02*
X5544348Y-13444484D01*
X5544348Y-13444484D02*
X5525301Y-13473055D01*
X5525301Y-13473055D02*
X5506253Y-13492103D01*
X5506253Y-13492103D02*
X5487206Y-13501627D01*
X5791967Y-13644484D02*
X5677682Y-13644484D01*
X5734825Y-13644484D02*
X5734825Y-13444484D01*
X5734825Y-13444484D02*
X5715777Y-13473055D01*
X5715777Y-13473055D02*
X5696729Y-13492103D01*
X5696729Y-13492103D02*
X5677682Y-13501627D01*
X5906253Y-13530198D02*
X5887206Y-13520674D01*
X5887206Y-13520674D02*
X5877682Y-13511150D01*
X5877682Y-13511150D02*
X5868158Y-13492103D01*
X5868158Y-13492103D02*
X5868158Y-13482579D01*
X5868158Y-13482579D02*
X5877682Y-13463531D01*
X5877682Y-13463531D02*
X5887206Y-13454008D01*
X5887206Y-13454008D02*
X5906253Y-13444484D01*
X5906253Y-13444484D02*
X5944348Y-13444484D01*
X5944348Y-13444484D02*
X5963396Y-13454008D01*
X5963396Y-13454008D02*
X5972920Y-13463531D01*
X5972920Y-13463531D02*
X5982444Y-13482579D01*
X5982444Y-13482579D02*
X5982444Y-13492103D01*
X5982444Y-13492103D02*
X5972920Y-13511150D01*
X5972920Y-13511150D02*
X5963396Y-13520674D01*
X5963396Y-13520674D02*
X5944348Y-13530198D01*
X5944348Y-13530198D02*
X5906253Y-13530198D01*
X5906253Y-13530198D02*
X5887206Y-13539722D01*
X5887206Y-13539722D02*
X5877682Y-13549246D01*
X5877682Y-13549246D02*
X5868158Y-13568293D01*
X5868158Y-13568293D02*
X5868158Y-13606388D01*
X5868158Y-13606388D02*
X5877682Y-13625436D01*
X5877682Y-13625436D02*
X5887206Y-13634960D01*
X5887206Y-13634960D02*
X5906253Y-13644484D01*
X5906253Y-13644484D02*
X5944348Y-13644484D01*
X5944348Y-13644484D02*
X5963396Y-13634960D01*
X5963396Y-13634960D02*
X5972920Y-13625436D01*
X5972920Y-13625436D02*
X5982444Y-13606388D01*
X5982444Y-13606388D02*
X5982444Y-13568293D01*
X5982444Y-13568293D02*
X5972920Y-13549246D01*
X5972920Y-13549246D02*
X5963396Y-13539722D01*
X5963396Y-13539722D02*
X5944348Y-13530198D01*
X6058634Y-13444484D02*
X6058634Y-13482579D01*
X6134825Y-13444484D02*
X6134825Y-13482579D01*
X6430063Y-13720674D02*
X6420539Y-13711150D01*
X6420539Y-13711150D02*
X6401491Y-13682579D01*
X6401491Y-13682579D02*
X6391968Y-13663531D01*
X6391968Y-13663531D02*
X6382444Y-13634960D01*
X6382444Y-13634960D02*
X6372920Y-13587341D01*
X6372920Y-13587341D02*
X6372920Y-13549246D01*
X6372920Y-13549246D02*
X6382444Y-13501627D01*
X6382444Y-13501627D02*
X6391968Y-13473055D01*
X6391968Y-13473055D02*
X6401491Y-13454008D01*
X6401491Y-13454008D02*
X6420539Y-13425436D01*
X6420539Y-13425436D02*
X6430063Y-13415912D01*
X6611015Y-13644484D02*
X6496729Y-13644484D01*
X6553872Y-13644484D02*
X6553872Y-13444484D01*
X6553872Y-13444484D02*
X6534825Y-13473055D01*
X6534825Y-13473055D02*
X6515777Y-13492103D01*
X6515777Y-13492103D02*
X6496729Y-13501627D01*
X6677682Y-13444484D02*
X6811015Y-13444484D01*
X6811015Y-13444484D02*
X6725301Y-13644484D01*
X6991968Y-13644484D02*
X6877682Y-13644484D01*
X6934825Y-13644484D02*
X6934825Y-13444484D01*
X6934825Y-13444484D02*
X6915777Y-13473055D01*
X6915777Y-13473055D02*
X6896729Y-13492103D01*
X6896729Y-13492103D02*
X6877682Y-13501627D01*
X7230063Y-13644484D02*
X7230063Y-13444484D01*
X7315777Y-13644484D02*
X7315777Y-13539722D01*
X7315777Y-13539722D02*
X7306253Y-13520674D01*
X7306253Y-13520674D02*
X7287206Y-13511150D01*
X7287206Y-13511150D02*
X7258634Y-13511150D01*
X7258634Y-13511150D02*
X7239587Y-13520674D01*
X7239587Y-13520674D02*
X7230063Y-13530198D01*
X7439587Y-13644484D02*
X7420539Y-13634960D01*
X7420539Y-13634960D02*
X7411015Y-13625436D01*
X7411015Y-13625436D02*
X7401491Y-13606388D01*
X7401491Y-13606388D02*
X7401491Y-13549246D01*
X7401491Y-13549246D02*
X7411015Y-13530198D01*
X7411015Y-13530198D02*
X7420539Y-13520674D01*
X7420539Y-13520674D02*
X7439587Y-13511150D01*
X7439587Y-13511150D02*
X7468158Y-13511150D01*
X7468158Y-13511150D02*
X7487206Y-13520674D01*
X7487206Y-13520674D02*
X7496730Y-13530198D01*
X7496730Y-13530198D02*
X7506253Y-13549246D01*
X7506253Y-13549246D02*
X7506253Y-13606388D01*
X7506253Y-13606388D02*
X7496730Y-13625436D01*
X7496730Y-13625436D02*
X7487206Y-13634960D01*
X7487206Y-13634960D02*
X7468158Y-13644484D01*
X7468158Y-13644484D02*
X7439587Y-13644484D01*
X7620539Y-13644484D02*
X7601491Y-13634960D01*
X7601491Y-13634960D02*
X7591968Y-13615912D01*
X7591968Y-13615912D02*
X7591968Y-13444484D01*
X7772920Y-13634960D02*
X7753872Y-13644484D01*
X7753872Y-13644484D02*
X7715777Y-13644484D01*
X7715777Y-13644484D02*
X7696730Y-13634960D01*
X7696730Y-13634960D02*
X7687206Y-13615912D01*
X7687206Y-13615912D02*
X7687206Y-13539722D01*
X7687206Y-13539722D02*
X7696730Y-13520674D01*
X7696730Y-13520674D02*
X7715777Y-13511150D01*
X7715777Y-13511150D02*
X7753872Y-13511150D01*
X7753872Y-13511150D02*
X7772920Y-13520674D01*
X7772920Y-13520674D02*
X7782444Y-13539722D01*
X7782444Y-13539722D02*
X7782444Y-13558769D01*
X7782444Y-13558769D02*
X7687206Y-13577817D01*
X7858634Y-13634960D02*
X7877682Y-13644484D01*
X7877682Y-13644484D02*
X7915777Y-13644484D01*
X7915777Y-13644484D02*
X7934825Y-13634960D01*
X7934825Y-13634960D02*
X7944349Y-13615912D01*
X7944349Y-13615912D02*
X7944349Y-13606388D01*
X7944349Y-13606388D02*
X7934825Y-13587341D01*
X7934825Y-13587341D02*
X7915777Y-13577817D01*
X7915777Y-13577817D02*
X7887206Y-13577817D01*
X7887206Y-13577817D02*
X7868158Y-13568293D01*
X7868158Y-13568293D02*
X7858634Y-13549246D01*
X7858634Y-13549246D02*
X7858634Y-13539722D01*
X7858634Y-13539722D02*
X7868158Y-13520674D01*
X7868158Y-13520674D02*
X7887206Y-13511150D01*
X7887206Y-13511150D02*
X7915777Y-13511150D01*
X7915777Y-13511150D02*
X7934825Y-13520674D01*
X8011015Y-13720674D02*
X8020539Y-13711150D01*
X8020539Y-13711150D02*
X8039587Y-13682579D01*
X8039587Y-13682579D02*
X8049111Y-13663531D01*
X8049111Y-13663531D02*
X8058634Y-13634960D01*
X8058634Y-13634960D02*
X8068158Y-13587341D01*
X8068158Y-13587341D02*
X8068158Y-13549246D01*
X8068158Y-13549246D02*
X8058634Y-13501627D01*
X8058634Y-13501627D02*
X8049111Y-13473055D01*
X8049111Y-13473055D02*
X8039587Y-13454008D01*
X8039587Y-13454008D02*
X8020539Y-13425436D01*
X8020539Y-13425436D02*
X8011015Y-13415912D01*
D11*
X2846213Y-13838213D02*
X2846213Y-13795787D01*
X2803787Y-13795787D01*
X2803787Y-13838213D01*
X2846213Y-13838213D01*
D12*
X3153872Y-13708484D02*
X3172920Y-13708484D01*
X3172920Y-13708484D02*
X3191967Y-13718008D01*
X3191967Y-13718008D02*
X3201491Y-13727531D01*
X3201491Y-13727531D02*
X3211015Y-13746579D01*
X3211015Y-13746579D02*
X3220539Y-13784674D01*
X3220539Y-13784674D02*
X3220539Y-13832293D01*
X3220539Y-13832293D02*
X3211015Y-13870388D01*
X3211015Y-13870388D02*
X3201491Y-13889436D01*
X3201491Y-13889436D02*
X3191967Y-13898960D01*
X3191967Y-13898960D02*
X3172920Y-13908484D01*
X3172920Y-13908484D02*
X3153872Y-13908484D01*
X3153872Y-13908484D02*
X3134824Y-13898960D01*
X3134824Y-13898960D02*
X3125301Y-13889436D01*
X3125301Y-13889436D02*
X3115777Y-13870388D01*
X3115777Y-13870388D02*
X3106253Y-13832293D01*
X3106253Y-13832293D02*
X3106253Y-13784674D01*
X3106253Y-13784674D02*
X3115777Y-13746579D01*
X3115777Y-13746579D02*
X3125301Y-13727531D01*
X3125301Y-13727531D02*
X3134824Y-13718008D01*
X3134824Y-13718008D02*
X3153872Y-13708484D01*
X3306253Y-13889436D02*
X3315777Y-13898960D01*
X3315777Y-13898960D02*
X3306253Y-13908484D01*
X3306253Y-13908484D02*
X3296729Y-13898960D01*
X3296729Y-13898960D02*
X3306253Y-13889436D01*
X3306253Y-13889436D02*
X3306253Y-13908484D01*
X3487205Y-13708484D02*
X3449110Y-13708484D01*
X3449110Y-13708484D02*
X3430062Y-13718008D01*
X3430062Y-13718008D02*
X3420539Y-13727531D01*
X3420539Y-13727531D02*
X3401491Y-13756103D01*
X3401491Y-13756103D02*
X3391967Y-13794198D01*
X3391967Y-13794198D02*
X3391967Y-13870388D01*
X3391967Y-13870388D02*
X3401491Y-13889436D01*
X3401491Y-13889436D02*
X3411015Y-13898960D01*
X3411015Y-13898960D02*
X3430062Y-13908484D01*
X3430062Y-13908484D02*
X3468158Y-13908484D01*
X3468158Y-13908484D02*
X3487205Y-13898960D01*
X3487205Y-13898960D02*
X3496729Y-13889436D01*
X3496729Y-13889436D02*
X3506253Y-13870388D01*
X3506253Y-13870388D02*
X3506253Y-13822769D01*
X3506253Y-13822769D02*
X3496729Y-13803722D01*
X3496729Y-13803722D02*
X3487205Y-13794198D01*
X3487205Y-13794198D02*
X3468158Y-13784674D01*
X3468158Y-13784674D02*
X3430062Y-13784674D01*
X3430062Y-13784674D02*
X3411015Y-13794198D01*
X3411015Y-13794198D02*
X3401491Y-13803722D01*
X3401491Y-13803722D02*
X3391967Y-13822769D01*
X3630062Y-13708484D02*
X3649110Y-13708484D01*
X3649110Y-13708484D02*
X3668158Y-13718008D01*
X3668158Y-13718008D02*
X3677682Y-13727531D01*
X3677682Y-13727531D02*
X3687205Y-13746579D01*
X3687205Y-13746579D02*
X3696729Y-13784674D01*
X3696729Y-13784674D02*
X3696729Y-13832293D01*
X3696729Y-13832293D02*
X3687205Y-13870388D01*
X3687205Y-13870388D02*
X3677682Y-13889436D01*
X3677682Y-13889436D02*
X3668158Y-13898960D01*
X3668158Y-13898960D02*
X3649110Y-13908484D01*
X3649110Y-13908484D02*
X3630062Y-13908484D01*
X3630062Y-13908484D02*
X3611015Y-13898960D01*
X3611015Y-13898960D02*
X3601491Y-13889436D01*
X3601491Y-13889436D02*
X3591967Y-13870388D01*
X3591967Y-13870388D02*
X3582443Y-13832293D01*
X3582443Y-13832293D02*
X3582443Y-13784674D01*
X3582443Y-13784674D02*
X3591967Y-13746579D01*
X3591967Y-13746579D02*
X3601491Y-13727531D01*
X3601491Y-13727531D02*
X3611015Y-13718008D01*
X3611015Y-13718008D02*
X3630062Y-13708484D01*
X3820539Y-13708484D02*
X3839586Y-13708484D01*
X3839586Y-13708484D02*
X3858634Y-13718008D01*
X3858634Y-13718008D02*
X3868158Y-13727531D01*
X3868158Y-13727531D02*
X3877682Y-13746579D01*
X3877682Y-13746579D02*
X3887205Y-13784674D01*
X3887205Y-13784674D02*
X3887205Y-13832293D01*
X3887205Y-13832293D02*
X3877682Y-13870388D01*
X3877682Y-13870388D02*
X3868158Y-13889436D01*
X3868158Y-13889436D02*
X3858634Y-13898960D01*
X3858634Y-13898960D02*
X3839586Y-13908484D01*
X3839586Y-13908484D02*
X3820539Y-13908484D01*
X3820539Y-13908484D02*
X3801491Y-13898960D01*
X3801491Y-13898960D02*
X3791967Y-13889436D01*
X3791967Y-13889436D02*
X3782443Y-13870388D01*
X3782443Y-13870388D02*
X3772920Y-13832293D01*
X3772920Y-13832293D02*
X3772920Y-13784674D01*
X3772920Y-13784674D02*
X3782443Y-13746579D01*
X3782443Y-13746579D02*
X3791967Y-13727531D01*
X3791967Y-13727531D02*
X3801491Y-13718008D01*
X3801491Y-13718008D02*
X3820539Y-13708484D01*
X3972920Y-13908484D02*
X3972920Y-13775150D01*
X3972920Y-13794198D02*
X3982443Y-13784674D01*
X3982443Y-13784674D02*
X4001491Y-13775150D01*
X4001491Y-13775150D02*
X4030063Y-13775150D01*
X4030063Y-13775150D02*
X4049110Y-13784674D01*
X4049110Y-13784674D02*
X4058634Y-13803722D01*
X4058634Y-13803722D02*
X4058634Y-13908484D01*
X4058634Y-13803722D02*
X4068158Y-13784674D01*
X4068158Y-13784674D02*
X4087205Y-13775150D01*
X4087205Y-13775150D02*
X4115777Y-13775150D01*
X4115777Y-13775150D02*
X4134824Y-13784674D01*
X4134824Y-13784674D02*
X4144348Y-13803722D01*
X4144348Y-13803722D02*
X4144348Y-13908484D01*
X4239586Y-13908484D02*
X4239586Y-13775150D01*
X4239586Y-13794198D02*
X4249110Y-13784674D01*
X4249110Y-13784674D02*
X4268158Y-13775150D01*
X4268158Y-13775150D02*
X4296729Y-13775150D01*
X4296729Y-13775150D02*
X4315777Y-13784674D01*
X4315777Y-13784674D02*
X4325301Y-13803722D01*
X4325301Y-13803722D02*
X4325301Y-13908484D01*
X4325301Y-13803722D02*
X4334825Y-13784674D01*
X4334825Y-13784674D02*
X4353872Y-13775150D01*
X4353872Y-13775150D02*
X4382444Y-13775150D01*
X4382444Y-13775150D02*
X4401491Y-13784674D01*
X4401491Y-13784674D02*
X4411015Y-13803722D01*
X4411015Y-13803722D02*
X4411015Y-13908484D01*
X4801491Y-13698960D02*
X4630063Y-13956103D01*
X5058634Y-13708484D02*
X5077682Y-13708484D01*
X5077682Y-13708484D02*
X5096729Y-13718008D01*
X5096729Y-13718008D02*
X5106253Y-13727531D01*
X5106253Y-13727531D02*
X5115777Y-13746579D01*
X5115777Y-13746579D02*
X5125301Y-13784674D01*
X5125301Y-13784674D02*
X5125301Y-13832293D01*
X5125301Y-13832293D02*
X5115777Y-13870388D01*
X5115777Y-13870388D02*
X5106253Y-13889436D01*
X5106253Y-13889436D02*
X5096729Y-13898960D01*
X5096729Y-13898960D02*
X5077682Y-13908484D01*
X5077682Y-13908484D02*
X5058634Y-13908484D01*
X5058634Y-13908484D02*
X5039587Y-13898960D01*
X5039587Y-13898960D02*
X5030063Y-13889436D01*
X5030063Y-13889436D02*
X5020539Y-13870388D01*
X5020539Y-13870388D02*
X5011015Y-13832293D01*
X5011015Y-13832293D02*
X5011015Y-13784674D01*
X5011015Y-13784674D02*
X5020539Y-13746579D01*
X5020539Y-13746579D02*
X5030063Y-13727531D01*
X5030063Y-13727531D02*
X5039587Y-13718008D01*
X5039587Y-13718008D02*
X5058634Y-13708484D01*
X5211015Y-13889436D02*
X5220539Y-13898960D01*
X5220539Y-13898960D02*
X5211015Y-13908484D01*
X5211015Y-13908484D02*
X5201491Y-13898960D01*
X5201491Y-13898960D02*
X5211015Y-13889436D01*
X5211015Y-13889436D02*
X5211015Y-13908484D01*
X5344348Y-13708484D02*
X5363396Y-13708484D01*
X5363396Y-13708484D02*
X5382444Y-13718008D01*
X5382444Y-13718008D02*
X5391968Y-13727531D01*
X5391968Y-13727531D02*
X5401491Y-13746579D01*
X5401491Y-13746579D02*
X5411015Y-13784674D01*
X5411015Y-13784674D02*
X5411015Y-13832293D01*
X5411015Y-13832293D02*
X5401491Y-13870388D01*
X5401491Y-13870388D02*
X5391968Y-13889436D01*
X5391968Y-13889436D02*
X5382444Y-13898960D01*
X5382444Y-13898960D02*
X5363396Y-13908484D01*
X5363396Y-13908484D02*
X5344348Y-13908484D01*
X5344348Y-13908484D02*
X5325301Y-13898960D01*
X5325301Y-13898960D02*
X5315777Y-13889436D01*
X5315777Y-13889436D02*
X5306253Y-13870388D01*
X5306253Y-13870388D02*
X5296729Y-13832293D01*
X5296729Y-13832293D02*
X5296729Y-13784674D01*
X5296729Y-13784674D02*
X5306253Y-13746579D01*
X5306253Y-13746579D02*
X5315777Y-13727531D01*
X5315777Y-13727531D02*
X5325301Y-13718008D01*
X5325301Y-13718008D02*
X5344348Y-13708484D01*
X5487206Y-13727531D02*
X5496729Y-13718008D01*
X5496729Y-13718008D02*
X5515777Y-13708484D01*
X5515777Y-13708484D02*
X5563396Y-13708484D01*
X5563396Y-13708484D02*
X5582444Y-13718008D01*
X5582444Y-13718008D02*
X5591968Y-13727531D01*
X5591968Y-13727531D02*
X5601491Y-13746579D01*
X5601491Y-13746579D02*
X5601491Y-13765627D01*
X5601491Y-13765627D02*
X5591968Y-13794198D01*
X5591968Y-13794198D02*
X5477682Y-13908484D01*
X5477682Y-13908484D02*
X5601491Y-13908484D01*
X5668158Y-13708484D02*
X5791967Y-13708484D01*
X5791967Y-13708484D02*
X5725301Y-13784674D01*
X5725301Y-13784674D02*
X5753872Y-13784674D01*
X5753872Y-13784674D02*
X5772920Y-13794198D01*
X5772920Y-13794198D02*
X5782444Y-13803722D01*
X5782444Y-13803722D02*
X5791967Y-13822769D01*
X5791967Y-13822769D02*
X5791967Y-13870388D01*
X5791967Y-13870388D02*
X5782444Y-13889436D01*
X5782444Y-13889436D02*
X5772920Y-13898960D01*
X5772920Y-13898960D02*
X5753872Y-13908484D01*
X5753872Y-13908484D02*
X5696729Y-13908484D01*
X5696729Y-13908484D02*
X5677682Y-13898960D01*
X5677682Y-13898960D02*
X5668158Y-13889436D01*
X5963396Y-13708484D02*
X5925301Y-13708484D01*
X5925301Y-13708484D02*
X5906253Y-13718008D01*
X5906253Y-13718008D02*
X5896729Y-13727531D01*
X5896729Y-13727531D02*
X5877682Y-13756103D01*
X5877682Y-13756103D02*
X5868158Y-13794198D01*
X5868158Y-13794198D02*
X5868158Y-13870388D01*
X5868158Y-13870388D02*
X5877682Y-13889436D01*
X5877682Y-13889436D02*
X5887206Y-13898960D01*
X5887206Y-13898960D02*
X5906253Y-13908484D01*
X5906253Y-13908484D02*
X5944348Y-13908484D01*
X5944348Y-13908484D02*
X5963396Y-13898960D01*
X5963396Y-13898960D02*
X5972920Y-13889436D01*
X5972920Y-13889436D02*
X5982444Y-13870388D01*
X5982444Y-13870388D02*
X5982444Y-13822769D01*
X5982444Y-13822769D02*
X5972920Y-13803722D01*
X5972920Y-13803722D02*
X5963396Y-13794198D01*
X5963396Y-13794198D02*
X5944348Y-13784674D01*
X5944348Y-13784674D02*
X5906253Y-13784674D01*
X5906253Y-13784674D02*
X5887206Y-13794198D01*
X5887206Y-13794198D02*
X5877682Y-13803722D01*
X5877682Y-13803722D02*
X5868158Y-13822769D01*
X6058634Y-13708484D02*
X6058634Y-13746579D01*
X6134825Y-13708484D02*
X6134825Y-13746579D01*
X6430063Y-13984674D02*
X6420539Y-13975150D01*
X6420539Y-13975150D02*
X6401491Y-13946579D01*
X6401491Y-13946579D02*
X6391968Y-13927531D01*
X6391968Y-13927531D02*
X6382444Y-13898960D01*
X6382444Y-13898960D02*
X6372920Y-13851341D01*
X6372920Y-13851341D02*
X6372920Y-13813246D01*
X6372920Y-13813246D02*
X6382444Y-13765627D01*
X6382444Y-13765627D02*
X6391968Y-13737055D01*
X6391968Y-13737055D02*
X6401491Y-13718008D01*
X6401491Y-13718008D02*
X6420539Y-13689436D01*
X6420539Y-13689436D02*
X6430063Y-13679912D01*
X6544348Y-13708484D02*
X6563396Y-13708484D01*
X6563396Y-13708484D02*
X6582444Y-13718008D01*
X6582444Y-13718008D02*
X6591968Y-13727531D01*
X6591968Y-13727531D02*
X6601491Y-13746579D01*
X6601491Y-13746579D02*
X6611015Y-13784674D01*
X6611015Y-13784674D02*
X6611015Y-13832293D01*
X6611015Y-13832293D02*
X6601491Y-13870388D01*
X6601491Y-13870388D02*
X6591968Y-13889436D01*
X6591968Y-13889436D02*
X6582444Y-13898960D01*
X6582444Y-13898960D02*
X6563396Y-13908484D01*
X6563396Y-13908484D02*
X6544348Y-13908484D01*
X6544348Y-13908484D02*
X6525301Y-13898960D01*
X6525301Y-13898960D02*
X6515777Y-13889436D01*
X6515777Y-13889436D02*
X6506253Y-13870388D01*
X6506253Y-13870388D02*
X6496729Y-13832293D01*
X6496729Y-13832293D02*
X6496729Y-13784674D01*
X6496729Y-13784674D02*
X6506253Y-13746579D01*
X6506253Y-13746579D02*
X6515777Y-13727531D01*
X6515777Y-13727531D02*
X6525301Y-13718008D01*
X6525301Y-13718008D02*
X6544348Y-13708484D01*
X6849110Y-13908484D02*
X6849110Y-13708484D01*
X6934825Y-13908484D02*
X6934825Y-13803722D01*
X6934825Y-13803722D02*
X6925301Y-13784674D01*
X6925301Y-13784674D02*
X6906253Y-13775150D01*
X6906253Y-13775150D02*
X6877682Y-13775150D01*
X6877682Y-13775150D02*
X6858634Y-13784674D01*
X6858634Y-13784674D02*
X6849110Y-13794198D01*
X7058634Y-13908484D02*
X7039587Y-13898960D01*
X7039587Y-13898960D02*
X7030063Y-13889436D01*
X7030063Y-13889436D02*
X7020539Y-13870388D01*
X7020539Y-13870388D02*
X7020539Y-13813246D01*
X7020539Y-13813246D02*
X7030063Y-13794198D01*
X7030063Y-13794198D02*
X7039587Y-13784674D01*
X7039587Y-13784674D02*
X7058634Y-13775150D01*
X7058634Y-13775150D02*
X7087206Y-13775150D01*
X7087206Y-13775150D02*
X7106253Y-13784674D01*
X7106253Y-13784674D02*
X7115777Y-13794198D01*
X7115777Y-13794198D02*
X7125301Y-13813246D01*
X7125301Y-13813246D02*
X7125301Y-13870388D01*
X7125301Y-13870388D02*
X7115777Y-13889436D01*
X7115777Y-13889436D02*
X7106253Y-13898960D01*
X7106253Y-13898960D02*
X7087206Y-13908484D01*
X7087206Y-13908484D02*
X7058634Y-13908484D01*
X7239587Y-13908484D02*
X7220539Y-13898960D01*
X7220539Y-13898960D02*
X7211015Y-13879912D01*
X7211015Y-13879912D02*
X7211015Y-13708484D01*
X7391968Y-13898960D02*
X7372920Y-13908484D01*
X7372920Y-13908484D02*
X7334825Y-13908484D01*
X7334825Y-13908484D02*
X7315777Y-13898960D01*
X7315777Y-13898960D02*
X7306253Y-13879912D01*
X7306253Y-13879912D02*
X7306253Y-13803722D01*
X7306253Y-13803722D02*
X7315777Y-13784674D01*
X7315777Y-13784674D02*
X7334825Y-13775150D01*
X7334825Y-13775150D02*
X7372920Y-13775150D01*
X7372920Y-13775150D02*
X7391968Y-13784674D01*
X7391968Y-13784674D02*
X7401491Y-13803722D01*
X7401491Y-13803722D02*
X7401491Y-13822769D01*
X7401491Y-13822769D02*
X7306253Y-13841817D01*
X7477682Y-13898960D02*
X7496730Y-13908484D01*
X7496730Y-13908484D02*
X7534825Y-13908484D01*
X7534825Y-13908484D02*
X7553872Y-13898960D01*
X7553872Y-13898960D02*
X7563396Y-13879912D01*
X7563396Y-13879912D02*
X7563396Y-13870388D01*
X7563396Y-13870388D02*
X7553872Y-13851341D01*
X7553872Y-13851341D02*
X7534825Y-13841817D01*
X7534825Y-13841817D02*
X7506253Y-13841817D01*
X7506253Y-13841817D02*
X7487206Y-13832293D01*
X7487206Y-13832293D02*
X7477682Y-13813246D01*
X7477682Y-13813246D02*
X7477682Y-13803722D01*
X7477682Y-13803722D02*
X7487206Y-13784674D01*
X7487206Y-13784674D02*
X7506253Y-13775150D01*
X7506253Y-13775150D02*
X7534825Y-13775150D01*
X7534825Y-13775150D02*
X7553872Y-13784674D01*
X7801492Y-13832293D02*
X7953873Y-13832293D01*
X7877682Y-13908484D02*
X7877682Y-13756103D01*
X8287206Y-13775150D02*
X8287206Y-13908484D01*
X8239587Y-13698960D02*
X8191968Y-13841817D01*
X8191968Y-13841817D02*
X8315777Y-13841817D01*
X8534825Y-13898960D02*
X8553873Y-13908484D01*
X8553873Y-13908484D02*
X8591968Y-13908484D01*
X8591968Y-13908484D02*
X8611016Y-13898960D01*
X8611016Y-13898960D02*
X8620539Y-13879912D01*
X8620539Y-13879912D02*
X8620539Y-13870388D01*
X8620539Y-13870388D02*
X8611016Y-13851341D01*
X8611016Y-13851341D02*
X8591968Y-13841817D01*
X8591968Y-13841817D02*
X8563396Y-13841817D01*
X8563396Y-13841817D02*
X8544349Y-13832293D01*
X8544349Y-13832293D02*
X8534825Y-13813246D01*
X8534825Y-13813246D02*
X8534825Y-13803722D01*
X8534825Y-13803722D02*
X8544349Y-13784674D01*
X8544349Y-13784674D02*
X8563396Y-13775150D01*
X8563396Y-13775150D02*
X8591968Y-13775150D01*
X8591968Y-13775150D02*
X8611016Y-13784674D01*
X8734825Y-13908484D02*
X8715777Y-13898960D01*
X8715777Y-13898960D02*
X8706254Y-13879912D01*
X8706254Y-13879912D02*
X8706254Y-13708484D01*
X8839587Y-13908484D02*
X8820539Y-13898960D01*
X8820539Y-13898960D02*
X8811016Y-13889436D01*
X8811016Y-13889436D02*
X8801492Y-13870388D01*
X8801492Y-13870388D02*
X8801492Y-13813246D01*
X8801492Y-13813246D02*
X8811016Y-13794198D01*
X8811016Y-13794198D02*
X8820539Y-13784674D01*
X8820539Y-13784674D02*
X8839587Y-13775150D01*
X8839587Y-13775150D02*
X8868158Y-13775150D01*
X8868158Y-13775150D02*
X8887206Y-13784674D01*
X8887206Y-13784674D02*
X8896730Y-13794198D01*
X8896730Y-13794198D02*
X8906254Y-13813246D01*
X8906254Y-13813246D02*
X8906254Y-13870388D01*
X8906254Y-13870388D02*
X8896730Y-13889436D01*
X8896730Y-13889436D02*
X8887206Y-13898960D01*
X8887206Y-13898960D02*
X8868158Y-13908484D01*
X8868158Y-13908484D02*
X8839587Y-13908484D01*
X8963397Y-13775150D02*
X9039587Y-13775150D01*
X8991968Y-13708484D02*
X8991968Y-13879912D01*
X8991968Y-13879912D02*
X9001492Y-13898960D01*
X9001492Y-13898960D02*
X9020539Y-13908484D01*
X9020539Y-13908484D02*
X9039587Y-13908484D01*
X9096730Y-13898960D02*
X9115777Y-13908484D01*
X9115777Y-13908484D02*
X9153873Y-13908484D01*
X9153873Y-13908484D02*
X9172920Y-13898960D01*
X9172920Y-13898960D02*
X9182444Y-13879912D01*
X9182444Y-13879912D02*
X9182444Y-13870388D01*
X9182444Y-13870388D02*
X9172920Y-13851341D01*
X9172920Y-13851341D02*
X9153873Y-13841817D01*
X9153873Y-13841817D02*
X9125301Y-13841817D01*
X9125301Y-13841817D02*
X9106254Y-13832293D01*
X9106254Y-13832293D02*
X9096730Y-13813246D01*
X9096730Y-13813246D02*
X9096730Y-13803722D01*
X9096730Y-13803722D02*
X9106254Y-13784674D01*
X9106254Y-13784674D02*
X9125301Y-13775150D01*
X9125301Y-13775150D02*
X9153873Y-13775150D01*
X9153873Y-13775150D02*
X9172920Y-13784674D01*
X9249111Y-13984674D02*
X9258635Y-13975150D01*
X9258635Y-13975150D02*
X9277682Y-13946579D01*
X9277682Y-13946579D02*
X9287206Y-13927531D01*
X9287206Y-13927531D02*
X9296730Y-13898960D01*
X9296730Y-13898960D02*
X9306254Y-13851341D01*
X9306254Y-13851341D02*
X9306254Y-13813246D01*
X9306254Y-13813246D02*
X9296730Y-13765627D01*
X9296730Y-13765627D02*
X9287206Y-13737055D01*
X9287206Y-13737055D02*
X9277682Y-13718008D01*
X9277682Y-13718008D02*
X9258635Y-13689436D01*
X9258635Y-13689436D02*
X9249111Y-13679912D01*
D11*
X2805000Y-14131000D02*
X2855000Y-14081000D01*
X2805000Y-14031000D01*
X2755000Y-14081000D01*
X2805000Y-14131000D01*
D12*
X3220539Y-14172484D02*
X3106253Y-14172484D01*
X3163396Y-14172484D02*
X3163396Y-13972484D01*
X3163396Y-13972484D02*
X3144348Y-14001055D01*
X3144348Y-14001055D02*
X3125301Y-14020103D01*
X3125301Y-14020103D02*
X3106253Y-14029627D01*
X3306253Y-14153436D02*
X3315777Y-14162960D01*
X3315777Y-14162960D02*
X3306253Y-14172484D01*
X3306253Y-14172484D02*
X3296729Y-14162960D01*
X3296729Y-14162960D02*
X3306253Y-14153436D01*
X3306253Y-14153436D02*
X3306253Y-14172484D01*
X3439586Y-13972484D02*
X3458634Y-13972484D01*
X3458634Y-13972484D02*
X3477682Y-13982008D01*
X3477682Y-13982008D02*
X3487205Y-13991531D01*
X3487205Y-13991531D02*
X3496729Y-14010579D01*
X3496729Y-14010579D02*
X3506253Y-14048674D01*
X3506253Y-14048674D02*
X3506253Y-14096293D01*
X3506253Y-14096293D02*
X3496729Y-14134388D01*
X3496729Y-14134388D02*
X3487205Y-14153436D01*
X3487205Y-14153436D02*
X3477682Y-14162960D01*
X3477682Y-14162960D02*
X3458634Y-14172484D01*
X3458634Y-14172484D02*
X3439586Y-14172484D01*
X3439586Y-14172484D02*
X3420539Y-14162960D01*
X3420539Y-14162960D02*
X3411015Y-14153436D01*
X3411015Y-14153436D02*
X3401491Y-14134388D01*
X3401491Y-14134388D02*
X3391967Y-14096293D01*
X3391967Y-14096293D02*
X3391967Y-14048674D01*
X3391967Y-14048674D02*
X3401491Y-14010579D01*
X3401491Y-14010579D02*
X3411015Y-13991531D01*
X3411015Y-13991531D02*
X3420539Y-13982008D01*
X3420539Y-13982008D02*
X3439586Y-13972484D01*
X3630062Y-13972484D02*
X3649110Y-13972484D01*
X3649110Y-13972484D02*
X3668158Y-13982008D01*
X3668158Y-13982008D02*
X3677682Y-13991531D01*
X3677682Y-13991531D02*
X3687205Y-14010579D01*
X3687205Y-14010579D02*
X3696729Y-14048674D01*
X3696729Y-14048674D02*
X3696729Y-14096293D01*
X3696729Y-14096293D02*
X3687205Y-14134388D01*
X3687205Y-14134388D02*
X3677682Y-14153436D01*
X3677682Y-14153436D02*
X3668158Y-14162960D01*
X3668158Y-14162960D02*
X3649110Y-14172484D01*
X3649110Y-14172484D02*
X3630062Y-14172484D01*
X3630062Y-14172484D02*
X3611015Y-14162960D01*
X3611015Y-14162960D02*
X3601491Y-14153436D01*
X3601491Y-14153436D02*
X3591967Y-14134388D01*
X3591967Y-14134388D02*
X3582443Y-14096293D01*
X3582443Y-14096293D02*
X3582443Y-14048674D01*
X3582443Y-14048674D02*
X3591967Y-14010579D01*
X3591967Y-14010579D02*
X3601491Y-13991531D01*
X3601491Y-13991531D02*
X3611015Y-13982008D01*
X3611015Y-13982008D02*
X3630062Y-13972484D01*
X3820539Y-13972484D02*
X3839586Y-13972484D01*
X3839586Y-13972484D02*
X3858634Y-13982008D01*
X3858634Y-13982008D02*
X3868158Y-13991531D01*
X3868158Y-13991531D02*
X3877682Y-14010579D01*
X3877682Y-14010579D02*
X3887205Y-14048674D01*
X3887205Y-14048674D02*
X3887205Y-14096293D01*
X3887205Y-14096293D02*
X3877682Y-14134388D01*
X3877682Y-14134388D02*
X3868158Y-14153436D01*
X3868158Y-14153436D02*
X3858634Y-14162960D01*
X3858634Y-14162960D02*
X3839586Y-14172484D01*
X3839586Y-14172484D02*
X3820539Y-14172484D01*
X3820539Y-14172484D02*
X3801491Y-14162960D01*
X3801491Y-14162960D02*
X3791967Y-14153436D01*
X3791967Y-14153436D02*
X3782443Y-14134388D01*
X3782443Y-14134388D02*
X3772920Y-14096293D01*
X3772920Y-14096293D02*
X3772920Y-14048674D01*
X3772920Y-14048674D02*
X3782443Y-14010579D01*
X3782443Y-14010579D02*
X3791967Y-13991531D01*
X3791967Y-13991531D02*
X3801491Y-13982008D01*
X3801491Y-13982008D02*
X3820539Y-13972484D01*
X3972920Y-14172484D02*
X3972920Y-14039150D01*
X3972920Y-14058198D02*
X3982443Y-14048674D01*
X3982443Y-14048674D02*
X4001491Y-14039150D01*
X4001491Y-14039150D02*
X4030063Y-14039150D01*
X4030063Y-14039150D02*
X4049110Y-14048674D01*
X4049110Y-14048674D02*
X4058634Y-14067722D01*
X4058634Y-14067722D02*
X4058634Y-14172484D01*
X4058634Y-14067722D02*
X4068158Y-14048674D01*
X4068158Y-14048674D02*
X4087205Y-14039150D01*
X4087205Y-14039150D02*
X4115777Y-14039150D01*
X4115777Y-14039150D02*
X4134824Y-14048674D01*
X4134824Y-14048674D02*
X4144348Y-14067722D01*
X4144348Y-14067722D02*
X4144348Y-14172484D01*
X4239586Y-14172484D02*
X4239586Y-14039150D01*
X4239586Y-14058198D02*
X4249110Y-14048674D01*
X4249110Y-14048674D02*
X4268158Y-14039150D01*
X4268158Y-14039150D02*
X4296729Y-14039150D01*
X4296729Y-14039150D02*
X4315777Y-14048674D01*
X4315777Y-14048674D02*
X4325301Y-14067722D01*
X4325301Y-14067722D02*
X4325301Y-14172484D01*
X4325301Y-14067722D02*
X4334825Y-14048674D01*
X4334825Y-14048674D02*
X4353872Y-14039150D01*
X4353872Y-14039150D02*
X4382444Y-14039150D01*
X4382444Y-14039150D02*
X4401491Y-14048674D01*
X4401491Y-14048674D02*
X4411015Y-14067722D01*
X4411015Y-14067722D02*
X4411015Y-14172484D01*
X4801491Y-13962960D02*
X4630063Y-14220103D01*
X5058634Y-13972484D02*
X5077682Y-13972484D01*
X5077682Y-13972484D02*
X5096729Y-13982008D01*
X5096729Y-13982008D02*
X5106253Y-13991531D01*
X5106253Y-13991531D02*
X5115777Y-14010579D01*
X5115777Y-14010579D02*
X5125301Y-14048674D01*
X5125301Y-14048674D02*
X5125301Y-14096293D01*
X5125301Y-14096293D02*
X5115777Y-14134388D01*
X5115777Y-14134388D02*
X5106253Y-14153436D01*
X5106253Y-14153436D02*
X5096729Y-14162960D01*
X5096729Y-14162960D02*
X5077682Y-14172484D01*
X5077682Y-14172484D02*
X5058634Y-14172484D01*
X5058634Y-14172484D02*
X5039587Y-14162960D01*
X5039587Y-14162960D02*
X5030063Y-14153436D01*
X5030063Y-14153436D02*
X5020539Y-14134388D01*
X5020539Y-14134388D02*
X5011015Y-14096293D01*
X5011015Y-14096293D02*
X5011015Y-14048674D01*
X5011015Y-14048674D02*
X5020539Y-14010579D01*
X5020539Y-14010579D02*
X5030063Y-13991531D01*
X5030063Y-13991531D02*
X5039587Y-13982008D01*
X5039587Y-13982008D02*
X5058634Y-13972484D01*
X5211015Y-14153436D02*
X5220539Y-14162960D01*
X5220539Y-14162960D02*
X5211015Y-14172484D01*
X5211015Y-14172484D02*
X5201491Y-14162960D01*
X5201491Y-14162960D02*
X5211015Y-14153436D01*
X5211015Y-14153436D02*
X5211015Y-14172484D01*
X5344348Y-13972484D02*
X5363396Y-13972484D01*
X5363396Y-13972484D02*
X5382444Y-13982008D01*
X5382444Y-13982008D02*
X5391968Y-13991531D01*
X5391968Y-13991531D02*
X5401491Y-14010579D01*
X5401491Y-14010579D02*
X5411015Y-14048674D01*
X5411015Y-14048674D02*
X5411015Y-14096293D01*
X5411015Y-14096293D02*
X5401491Y-14134388D01*
X5401491Y-14134388D02*
X5391968Y-14153436D01*
X5391968Y-14153436D02*
X5382444Y-14162960D01*
X5382444Y-14162960D02*
X5363396Y-14172484D01*
X5363396Y-14172484D02*
X5344348Y-14172484D01*
X5344348Y-14172484D02*
X5325301Y-14162960D01*
X5325301Y-14162960D02*
X5315777Y-14153436D01*
X5315777Y-14153436D02*
X5306253Y-14134388D01*
X5306253Y-14134388D02*
X5296729Y-14096293D01*
X5296729Y-14096293D02*
X5296729Y-14048674D01*
X5296729Y-14048674D02*
X5306253Y-14010579D01*
X5306253Y-14010579D02*
X5315777Y-13991531D01*
X5315777Y-13991531D02*
X5325301Y-13982008D01*
X5325301Y-13982008D02*
X5344348Y-13972484D01*
X5477682Y-13972484D02*
X5601491Y-13972484D01*
X5601491Y-13972484D02*
X5534825Y-14048674D01*
X5534825Y-14048674D02*
X5563396Y-14048674D01*
X5563396Y-14048674D02*
X5582444Y-14058198D01*
X5582444Y-14058198D02*
X5591968Y-14067722D01*
X5591968Y-14067722D02*
X5601491Y-14086769D01*
X5601491Y-14086769D02*
X5601491Y-14134388D01*
X5601491Y-14134388D02*
X5591968Y-14153436D01*
X5591968Y-14153436D02*
X5582444Y-14162960D01*
X5582444Y-14162960D02*
X5563396Y-14172484D01*
X5563396Y-14172484D02*
X5506253Y-14172484D01*
X5506253Y-14172484D02*
X5487206Y-14162960D01*
X5487206Y-14162960D02*
X5477682Y-14153436D01*
X5696729Y-14172484D02*
X5734825Y-14172484D01*
X5734825Y-14172484D02*
X5753872Y-14162960D01*
X5753872Y-14162960D02*
X5763396Y-14153436D01*
X5763396Y-14153436D02*
X5782444Y-14124865D01*
X5782444Y-14124865D02*
X5791967Y-14086769D01*
X5791967Y-14086769D02*
X5791967Y-14010579D01*
X5791967Y-14010579D02*
X5782444Y-13991531D01*
X5782444Y-13991531D02*
X5772920Y-13982008D01*
X5772920Y-13982008D02*
X5753872Y-13972484D01*
X5753872Y-13972484D02*
X5715777Y-13972484D01*
X5715777Y-13972484D02*
X5696729Y-13982008D01*
X5696729Y-13982008D02*
X5687206Y-13991531D01*
X5687206Y-13991531D02*
X5677682Y-14010579D01*
X5677682Y-14010579D02*
X5677682Y-14058198D01*
X5677682Y-14058198D02*
X5687206Y-14077246D01*
X5687206Y-14077246D02*
X5696729Y-14086769D01*
X5696729Y-14086769D02*
X5715777Y-14096293D01*
X5715777Y-14096293D02*
X5753872Y-14096293D01*
X5753872Y-14096293D02*
X5772920Y-14086769D01*
X5772920Y-14086769D02*
X5782444Y-14077246D01*
X5782444Y-14077246D02*
X5791967Y-14058198D01*
X5963396Y-14039150D02*
X5963396Y-14172484D01*
X5915777Y-13962960D02*
X5868158Y-14105817D01*
X5868158Y-14105817D02*
X5991967Y-14105817D01*
X6058634Y-13972484D02*
X6058634Y-14010579D01*
X6134825Y-13972484D02*
X6134825Y-14010579D01*
X6430063Y-14248674D02*
X6420539Y-14239150D01*
X6420539Y-14239150D02*
X6401491Y-14210579D01*
X6401491Y-14210579D02*
X6391968Y-14191531D01*
X6391968Y-14191531D02*
X6382444Y-14162960D01*
X6382444Y-14162960D02*
X6372920Y-14115341D01*
X6372920Y-14115341D02*
X6372920Y-14077246D01*
X6372920Y-14077246D02*
X6382444Y-14029627D01*
X6382444Y-14029627D02*
X6391968Y-14001055D01*
X6391968Y-14001055D02*
X6401491Y-13982008D01*
X6401491Y-13982008D02*
X6420539Y-13953436D01*
X6420539Y-13953436D02*
X6430063Y-13943912D01*
X6496729Y-13991531D02*
X6506253Y-13982008D01*
X6506253Y-13982008D02*
X6525301Y-13972484D01*
X6525301Y-13972484D02*
X6572920Y-13972484D01*
X6572920Y-13972484D02*
X6591968Y-13982008D01*
X6591968Y-13982008D02*
X6601491Y-13991531D01*
X6601491Y-13991531D02*
X6611015Y-14010579D01*
X6611015Y-14010579D02*
X6611015Y-14029627D01*
X6611015Y-14029627D02*
X6601491Y-14058198D01*
X6601491Y-14058198D02*
X6487206Y-14172484D01*
X6487206Y-14172484D02*
X6611015Y-14172484D01*
X6849110Y-14172484D02*
X6849110Y-13972484D01*
X6934825Y-14172484D02*
X6934825Y-14067722D01*
X6934825Y-14067722D02*
X6925301Y-14048674D01*
X6925301Y-14048674D02*
X6906253Y-14039150D01*
X6906253Y-14039150D02*
X6877682Y-14039150D01*
X6877682Y-14039150D02*
X6858634Y-14048674D01*
X6858634Y-14048674D02*
X6849110Y-14058198D01*
X7058634Y-14172484D02*
X7039587Y-14162960D01*
X7039587Y-14162960D02*
X7030063Y-14153436D01*
X7030063Y-14153436D02*
X7020539Y-14134388D01*
X7020539Y-14134388D02*
X7020539Y-14077246D01*
X7020539Y-14077246D02*
X7030063Y-14058198D01*
X7030063Y-14058198D02*
X7039587Y-14048674D01*
X7039587Y-14048674D02*
X7058634Y-14039150D01*
X7058634Y-14039150D02*
X7087206Y-14039150D01*
X7087206Y-14039150D02*
X7106253Y-14048674D01*
X7106253Y-14048674D02*
X7115777Y-14058198D01*
X7115777Y-14058198D02*
X7125301Y-14077246D01*
X7125301Y-14077246D02*
X7125301Y-14134388D01*
X7125301Y-14134388D02*
X7115777Y-14153436D01*
X7115777Y-14153436D02*
X7106253Y-14162960D01*
X7106253Y-14162960D02*
X7087206Y-14172484D01*
X7087206Y-14172484D02*
X7058634Y-14172484D01*
X7239587Y-14172484D02*
X7220539Y-14162960D01*
X7220539Y-14162960D02*
X7211015Y-14143912D01*
X7211015Y-14143912D02*
X7211015Y-13972484D01*
X7391968Y-14162960D02*
X7372920Y-14172484D01*
X7372920Y-14172484D02*
X7334825Y-14172484D01*
X7334825Y-14172484D02*
X7315777Y-14162960D01*
X7315777Y-14162960D02*
X7306253Y-14143912D01*
X7306253Y-14143912D02*
X7306253Y-14067722D01*
X7306253Y-14067722D02*
X7315777Y-14048674D01*
X7315777Y-14048674D02*
X7334825Y-14039150D01*
X7334825Y-14039150D02*
X7372920Y-14039150D01*
X7372920Y-14039150D02*
X7391968Y-14048674D01*
X7391968Y-14048674D02*
X7401491Y-14067722D01*
X7401491Y-14067722D02*
X7401491Y-14086769D01*
X7401491Y-14086769D02*
X7306253Y-14105817D01*
X7477682Y-14162960D02*
X7496730Y-14172484D01*
X7496730Y-14172484D02*
X7534825Y-14172484D01*
X7534825Y-14172484D02*
X7553872Y-14162960D01*
X7553872Y-14162960D02*
X7563396Y-14143912D01*
X7563396Y-14143912D02*
X7563396Y-14134388D01*
X7563396Y-14134388D02*
X7553872Y-14115341D01*
X7553872Y-14115341D02*
X7534825Y-14105817D01*
X7534825Y-14105817D02*
X7506253Y-14105817D01*
X7506253Y-14105817D02*
X7487206Y-14096293D01*
X7487206Y-14096293D02*
X7477682Y-14077246D01*
X7477682Y-14077246D02*
X7477682Y-14067722D01*
X7477682Y-14067722D02*
X7487206Y-14048674D01*
X7487206Y-14048674D02*
X7506253Y-14039150D01*
X7506253Y-14039150D02*
X7534825Y-14039150D01*
X7534825Y-14039150D02*
X7553872Y-14048674D01*
X7630063Y-14248674D02*
X7639587Y-14239150D01*
X7639587Y-14239150D02*
X7658634Y-14210579D01*
X7658634Y-14210579D02*
X7668158Y-14191531D01*
X7668158Y-14191531D02*
X7677682Y-14162960D01*
X7677682Y-14162960D02*
X7687206Y-14115341D01*
X7687206Y-14115341D02*
X7687206Y-14077246D01*
X7687206Y-14077246D02*
X7677682Y-14029627D01*
X7677682Y-14029627D02*
X7668158Y-14001055D01*
X7668158Y-14001055D02*
X7658634Y-13982008D01*
X7658634Y-13982008D02*
X7639587Y-13953436D01*
X7639587Y-13953436D02*
X7630063Y-13943912D01*
X2655000Y-14245000D02*
X2855000Y-14445000D01*
X2855000Y-14245000D02*
X2655000Y-14445000D01*
X2855000Y-14345000D02*
G75*
G02*
X2655000Y-14345000I-100000J0D01*
G01*
X2655000Y-14345000D02*
G75*
G02*
X2855000Y-14345000I100000J0D01*
G01*
X3096729Y-14236484D02*
X3220539Y-14236484D01*
X3220539Y-14236484D02*
X3153872Y-14312674D01*
X3153872Y-14312674D02*
X3182443Y-14312674D01*
X3182443Y-14312674D02*
X3201491Y-14322198D01*
X3201491Y-14322198D02*
X3211015Y-14331722D01*
X3211015Y-14331722D02*
X3220539Y-14350769D01*
X3220539Y-14350769D02*
X3220539Y-14398388D01*
X3220539Y-14398388D02*
X3211015Y-14417436D01*
X3211015Y-14417436D02*
X3201491Y-14426960D01*
X3201491Y-14426960D02*
X3182443Y-14436484D01*
X3182443Y-14436484D02*
X3125301Y-14436484D01*
X3125301Y-14436484D02*
X3106253Y-14426960D01*
X3106253Y-14426960D02*
X3096729Y-14417436D01*
X3306253Y-14417436D02*
X3315777Y-14426960D01*
X3315777Y-14426960D02*
X3306253Y-14436484D01*
X3306253Y-14436484D02*
X3296729Y-14426960D01*
X3296729Y-14426960D02*
X3306253Y-14417436D01*
X3306253Y-14417436D02*
X3306253Y-14436484D01*
X3439586Y-14236484D02*
X3458634Y-14236484D01*
X3458634Y-14236484D02*
X3477682Y-14246008D01*
X3477682Y-14246008D02*
X3487205Y-14255531D01*
X3487205Y-14255531D02*
X3496729Y-14274579D01*
X3496729Y-14274579D02*
X3506253Y-14312674D01*
X3506253Y-14312674D02*
X3506253Y-14360293D01*
X3506253Y-14360293D02*
X3496729Y-14398388D01*
X3496729Y-14398388D02*
X3487205Y-14417436D01*
X3487205Y-14417436D02*
X3477682Y-14426960D01*
X3477682Y-14426960D02*
X3458634Y-14436484D01*
X3458634Y-14436484D02*
X3439586Y-14436484D01*
X3439586Y-14436484D02*
X3420539Y-14426960D01*
X3420539Y-14426960D02*
X3411015Y-14417436D01*
X3411015Y-14417436D02*
X3401491Y-14398388D01*
X3401491Y-14398388D02*
X3391967Y-14360293D01*
X3391967Y-14360293D02*
X3391967Y-14312674D01*
X3391967Y-14312674D02*
X3401491Y-14274579D01*
X3401491Y-14274579D02*
X3411015Y-14255531D01*
X3411015Y-14255531D02*
X3420539Y-14246008D01*
X3420539Y-14246008D02*
X3439586Y-14236484D01*
X3687205Y-14236484D02*
X3591967Y-14236484D01*
X3591967Y-14236484D02*
X3582443Y-14331722D01*
X3582443Y-14331722D02*
X3591967Y-14322198D01*
X3591967Y-14322198D02*
X3611015Y-14312674D01*
X3611015Y-14312674D02*
X3658634Y-14312674D01*
X3658634Y-14312674D02*
X3677682Y-14322198D01*
X3677682Y-14322198D02*
X3687205Y-14331722D01*
X3687205Y-14331722D02*
X3696729Y-14350769D01*
X3696729Y-14350769D02*
X3696729Y-14398388D01*
X3696729Y-14398388D02*
X3687205Y-14417436D01*
X3687205Y-14417436D02*
X3677682Y-14426960D01*
X3677682Y-14426960D02*
X3658634Y-14436484D01*
X3658634Y-14436484D02*
X3611015Y-14436484D01*
X3611015Y-14436484D02*
X3591967Y-14426960D01*
X3591967Y-14426960D02*
X3582443Y-14417436D01*
X3820539Y-14236484D02*
X3839586Y-14236484D01*
X3839586Y-14236484D02*
X3858634Y-14246008D01*
X3858634Y-14246008D02*
X3868158Y-14255531D01*
X3868158Y-14255531D02*
X3877682Y-14274579D01*
X3877682Y-14274579D02*
X3887205Y-14312674D01*
X3887205Y-14312674D02*
X3887205Y-14360293D01*
X3887205Y-14360293D02*
X3877682Y-14398388D01*
X3877682Y-14398388D02*
X3868158Y-14417436D01*
X3868158Y-14417436D02*
X3858634Y-14426960D01*
X3858634Y-14426960D02*
X3839586Y-14436484D01*
X3839586Y-14436484D02*
X3820539Y-14436484D01*
X3820539Y-14436484D02*
X3801491Y-14426960D01*
X3801491Y-14426960D02*
X3791967Y-14417436D01*
X3791967Y-14417436D02*
X3782443Y-14398388D01*
X3782443Y-14398388D02*
X3772920Y-14360293D01*
X3772920Y-14360293D02*
X3772920Y-14312674D01*
X3772920Y-14312674D02*
X3782443Y-14274579D01*
X3782443Y-14274579D02*
X3791967Y-14255531D01*
X3791967Y-14255531D02*
X3801491Y-14246008D01*
X3801491Y-14246008D02*
X3820539Y-14236484D01*
X3972920Y-14436484D02*
X3972920Y-14303150D01*
X3972920Y-14322198D02*
X3982443Y-14312674D01*
X3982443Y-14312674D02*
X4001491Y-14303150D01*
X4001491Y-14303150D02*
X4030063Y-14303150D01*
X4030063Y-14303150D02*
X4049110Y-14312674D01*
X4049110Y-14312674D02*
X4058634Y-14331722D01*
X4058634Y-14331722D02*
X4058634Y-14436484D01*
X4058634Y-14331722D02*
X4068158Y-14312674D01*
X4068158Y-14312674D02*
X4087205Y-14303150D01*
X4087205Y-14303150D02*
X4115777Y-14303150D01*
X4115777Y-14303150D02*
X4134824Y-14312674D01*
X4134824Y-14312674D02*
X4144348Y-14331722D01*
X4144348Y-14331722D02*
X4144348Y-14436484D01*
X4239586Y-14436484D02*
X4239586Y-14303150D01*
X4239586Y-14322198D02*
X4249110Y-14312674D01*
X4249110Y-14312674D02*
X4268158Y-14303150D01*
X4268158Y-14303150D02*
X4296729Y-14303150D01*
X4296729Y-14303150D02*
X4315777Y-14312674D01*
X4315777Y-14312674D02*
X4325301Y-14331722D01*
X4325301Y-14331722D02*
X4325301Y-14436484D01*
X4325301Y-14331722D02*
X4334825Y-14312674D01*
X4334825Y-14312674D02*
X4353872Y-14303150D01*
X4353872Y-14303150D02*
X4382444Y-14303150D01*
X4382444Y-14303150D02*
X4401491Y-14312674D01*
X4401491Y-14312674D02*
X4411015Y-14331722D01*
X4411015Y-14331722D02*
X4411015Y-14436484D01*
X4801491Y-14226960D02*
X4630063Y-14484103D01*
X5058634Y-14236484D02*
X5077682Y-14236484D01*
X5077682Y-14236484D02*
X5096729Y-14246008D01*
X5096729Y-14246008D02*
X5106253Y-14255531D01*
X5106253Y-14255531D02*
X5115777Y-14274579D01*
X5115777Y-14274579D02*
X5125301Y-14312674D01*
X5125301Y-14312674D02*
X5125301Y-14360293D01*
X5125301Y-14360293D02*
X5115777Y-14398388D01*
X5115777Y-14398388D02*
X5106253Y-14417436D01*
X5106253Y-14417436D02*
X5096729Y-14426960D01*
X5096729Y-14426960D02*
X5077682Y-14436484D01*
X5077682Y-14436484D02*
X5058634Y-14436484D01*
X5058634Y-14436484D02*
X5039587Y-14426960D01*
X5039587Y-14426960D02*
X5030063Y-14417436D01*
X5030063Y-14417436D02*
X5020539Y-14398388D01*
X5020539Y-14398388D02*
X5011015Y-14360293D01*
X5011015Y-14360293D02*
X5011015Y-14312674D01*
X5011015Y-14312674D02*
X5020539Y-14274579D01*
X5020539Y-14274579D02*
X5030063Y-14255531D01*
X5030063Y-14255531D02*
X5039587Y-14246008D01*
X5039587Y-14246008D02*
X5058634Y-14236484D01*
X5211015Y-14417436D02*
X5220539Y-14426960D01*
X5220539Y-14426960D02*
X5211015Y-14436484D01*
X5211015Y-14436484D02*
X5201491Y-14426960D01*
X5201491Y-14426960D02*
X5211015Y-14417436D01*
X5211015Y-14417436D02*
X5211015Y-14436484D01*
X5411015Y-14436484D02*
X5296729Y-14436484D01*
X5353872Y-14436484D02*
X5353872Y-14236484D01*
X5353872Y-14236484D02*
X5334825Y-14265055D01*
X5334825Y-14265055D02*
X5315777Y-14284103D01*
X5315777Y-14284103D02*
X5296729Y-14293627D01*
X5487206Y-14255531D02*
X5496729Y-14246008D01*
X5496729Y-14246008D02*
X5515777Y-14236484D01*
X5515777Y-14236484D02*
X5563396Y-14236484D01*
X5563396Y-14236484D02*
X5582444Y-14246008D01*
X5582444Y-14246008D02*
X5591968Y-14255531D01*
X5591968Y-14255531D02*
X5601491Y-14274579D01*
X5601491Y-14274579D02*
X5601491Y-14293627D01*
X5601491Y-14293627D02*
X5591968Y-14322198D01*
X5591968Y-14322198D02*
X5477682Y-14436484D01*
X5477682Y-14436484D02*
X5601491Y-14436484D01*
X5725301Y-14236484D02*
X5744348Y-14236484D01*
X5744348Y-14236484D02*
X5763396Y-14246008D01*
X5763396Y-14246008D02*
X5772920Y-14255531D01*
X5772920Y-14255531D02*
X5782444Y-14274579D01*
X5782444Y-14274579D02*
X5791967Y-14312674D01*
X5791967Y-14312674D02*
X5791967Y-14360293D01*
X5791967Y-14360293D02*
X5782444Y-14398388D01*
X5782444Y-14398388D02*
X5772920Y-14417436D01*
X5772920Y-14417436D02*
X5763396Y-14426960D01*
X5763396Y-14426960D02*
X5744348Y-14436484D01*
X5744348Y-14436484D02*
X5725301Y-14436484D01*
X5725301Y-14436484D02*
X5706253Y-14426960D01*
X5706253Y-14426960D02*
X5696729Y-14417436D01*
X5696729Y-14417436D02*
X5687206Y-14398388D01*
X5687206Y-14398388D02*
X5677682Y-14360293D01*
X5677682Y-14360293D02*
X5677682Y-14312674D01*
X5677682Y-14312674D02*
X5687206Y-14274579D01*
X5687206Y-14274579D02*
X5696729Y-14255531D01*
X5696729Y-14255531D02*
X5706253Y-14246008D01*
X5706253Y-14246008D02*
X5725301Y-14236484D01*
X5982444Y-14436484D02*
X5868158Y-14436484D01*
X5925301Y-14436484D02*
X5925301Y-14236484D01*
X5925301Y-14236484D02*
X5906253Y-14265055D01*
X5906253Y-14265055D02*
X5887206Y-14284103D01*
X5887206Y-14284103D02*
X5868158Y-14293627D01*
X6058634Y-14236484D02*
X6058634Y-14274579D01*
X6134825Y-14236484D02*
X6134825Y-14274579D01*
X6430063Y-14512674D02*
X6420539Y-14503150D01*
X6420539Y-14503150D02*
X6401491Y-14474579D01*
X6401491Y-14474579D02*
X6391968Y-14455531D01*
X6391968Y-14455531D02*
X6382444Y-14426960D01*
X6382444Y-14426960D02*
X6372920Y-14379341D01*
X6372920Y-14379341D02*
X6372920Y-14341246D01*
X6372920Y-14341246D02*
X6382444Y-14293627D01*
X6382444Y-14293627D02*
X6391968Y-14265055D01*
X6391968Y-14265055D02*
X6401491Y-14246008D01*
X6401491Y-14246008D02*
X6420539Y-14217436D01*
X6420539Y-14217436D02*
X6430063Y-14207912D01*
X6611015Y-14436484D02*
X6496729Y-14436484D01*
X6553872Y-14436484D02*
X6553872Y-14236484D01*
X6553872Y-14236484D02*
X6534825Y-14265055D01*
X6534825Y-14265055D02*
X6515777Y-14284103D01*
X6515777Y-14284103D02*
X6496729Y-14293627D01*
X6687206Y-14255531D02*
X6696729Y-14246008D01*
X6696729Y-14246008D02*
X6715777Y-14236484D01*
X6715777Y-14236484D02*
X6763396Y-14236484D01*
X6763396Y-14236484D02*
X6782444Y-14246008D01*
X6782444Y-14246008D02*
X6791968Y-14255531D01*
X6791968Y-14255531D02*
X6801491Y-14274579D01*
X6801491Y-14274579D02*
X6801491Y-14293627D01*
X6801491Y-14293627D02*
X6791968Y-14322198D01*
X6791968Y-14322198D02*
X6677682Y-14436484D01*
X6677682Y-14436484D02*
X6801491Y-14436484D01*
X6972920Y-14303150D02*
X6972920Y-14436484D01*
X6925301Y-14226960D02*
X6877682Y-14369817D01*
X6877682Y-14369817D02*
X7001491Y-14369817D01*
X7230063Y-14436484D02*
X7230063Y-14236484D01*
X7315777Y-14436484D02*
X7315777Y-14331722D01*
X7315777Y-14331722D02*
X7306253Y-14312674D01*
X7306253Y-14312674D02*
X7287206Y-14303150D01*
X7287206Y-14303150D02*
X7258634Y-14303150D01*
X7258634Y-14303150D02*
X7239587Y-14312674D01*
X7239587Y-14312674D02*
X7230063Y-14322198D01*
X7439587Y-14436484D02*
X7420539Y-14426960D01*
X7420539Y-14426960D02*
X7411015Y-14417436D01*
X7411015Y-14417436D02*
X7401491Y-14398388D01*
X7401491Y-14398388D02*
X7401491Y-14341246D01*
X7401491Y-14341246D02*
X7411015Y-14322198D01*
X7411015Y-14322198D02*
X7420539Y-14312674D01*
X7420539Y-14312674D02*
X7439587Y-14303150D01*
X7439587Y-14303150D02*
X7468158Y-14303150D01*
X7468158Y-14303150D02*
X7487206Y-14312674D01*
X7487206Y-14312674D02*
X7496730Y-14322198D01*
X7496730Y-14322198D02*
X7506253Y-14341246D01*
X7506253Y-14341246D02*
X7506253Y-14398388D01*
X7506253Y-14398388D02*
X7496730Y-14417436D01*
X7496730Y-14417436D02*
X7487206Y-14426960D01*
X7487206Y-14426960D02*
X7468158Y-14436484D01*
X7468158Y-14436484D02*
X7439587Y-14436484D01*
X7620539Y-14436484D02*
X7601491Y-14426960D01*
X7601491Y-14426960D02*
X7591968Y-14407912D01*
X7591968Y-14407912D02*
X7591968Y-14236484D01*
X7772920Y-14426960D02*
X7753872Y-14436484D01*
X7753872Y-14436484D02*
X7715777Y-14436484D01*
X7715777Y-14436484D02*
X7696730Y-14426960D01*
X7696730Y-14426960D02*
X7687206Y-14407912D01*
X7687206Y-14407912D02*
X7687206Y-14331722D01*
X7687206Y-14331722D02*
X7696730Y-14312674D01*
X7696730Y-14312674D02*
X7715777Y-14303150D01*
X7715777Y-14303150D02*
X7753872Y-14303150D01*
X7753872Y-14303150D02*
X7772920Y-14312674D01*
X7772920Y-14312674D02*
X7782444Y-14331722D01*
X7782444Y-14331722D02*
X7782444Y-14350769D01*
X7782444Y-14350769D02*
X7687206Y-14369817D01*
X7858634Y-14426960D02*
X7877682Y-14436484D01*
X7877682Y-14436484D02*
X7915777Y-14436484D01*
X7915777Y-14436484D02*
X7934825Y-14426960D01*
X7934825Y-14426960D02*
X7944349Y-14407912D01*
X7944349Y-14407912D02*
X7944349Y-14398388D01*
X7944349Y-14398388D02*
X7934825Y-14379341D01*
X7934825Y-14379341D02*
X7915777Y-14369817D01*
X7915777Y-14369817D02*
X7887206Y-14369817D01*
X7887206Y-14369817D02*
X7868158Y-14360293D01*
X7868158Y-14360293D02*
X7858634Y-14341246D01*
X7858634Y-14341246D02*
X7858634Y-14331722D01*
X7858634Y-14331722D02*
X7868158Y-14312674D01*
X7868158Y-14312674D02*
X7887206Y-14303150D01*
X7887206Y-14303150D02*
X7915777Y-14303150D01*
X7915777Y-14303150D02*
X7934825Y-14312674D01*
X8011015Y-14512674D02*
X8020539Y-14503150D01*
X8020539Y-14503150D02*
X8039587Y-14474579D01*
X8039587Y-14474579D02*
X8049111Y-14455531D01*
X8049111Y-14455531D02*
X8058634Y-14426960D01*
X8058634Y-14426960D02*
X8068158Y-14379341D01*
X8068158Y-14379341D02*
X8068158Y-14341246D01*
X8068158Y-14341246D02*
X8058634Y-14293627D01*
X8058634Y-14293627D02*
X8049111Y-14265055D01*
X8049111Y-14265055D02*
X8039587Y-14246008D01*
X8039587Y-14246008D02*
X8020539Y-14217436D01*
X8020539Y-14217436D02*
X8011015Y-14207912D01*
M02*
