%TF.GenerationSoftware,KiCad,Pcbnew,8.0.3*%
%TF.CreationDate,2024-11-03T23:48:13+08:00*%
%TF.ProjectId,PH60_Rev2,50483630-5f52-4657-9632-2e6b69636164,rev?*%
%TF.SameCoordinates,Original*%
%TF.FileFunction,Soldermask,Bot*%
%TF.FilePolarity,Negative*%
%FSLAX46Y46*%
G04 Gerber Fmt 4.6, Leading zero omitted, Abs format (unit mm)*
G04 Created by KiCad (PCBNEW 8.0.3) date 2024-11-03 23:48:13*
%MOMM*%
%LPD*%
G01*
G04 APERTURE LIST*
G04 Aperture macros list*
%AMRoundRect*
0 Rectangle with rounded corners*
0 $1 Rounding radius*
0 $2 $3 $4 $5 $6 $7 $8 $9 X,Y pos of 4 corners*
0 Add a 4 corners polygon primitive as box body*
4,1,4,$2,$3,$4,$5,$6,$7,$8,$9,$2,$3,0*
0 Add four circle primitives for the rounded corners*
1,1,$1+$1,$2,$3*
1,1,$1+$1,$4,$5*
1,1,$1+$1,$6,$7*
1,1,$1+$1,$8,$9*
0 Add four rect primitives between the rounded corners*
20,1,$1+$1,$2,$3,$4,$5,0*
20,1,$1+$1,$4,$5,$6,$7,0*
20,1,$1+$1,$6,$7,$8,$9,0*
20,1,$1+$1,$8,$9,$2,$3,0*%
%AMFreePoly0*
4,1,18,-0.410000,0.593000,-0.403758,0.624380,-0.385983,0.650983,-0.359380,0.668758,-0.328000,0.675000,0.328000,0.675000,0.359380,0.668758,0.385983,0.650983,0.403758,0.624380,0.410000,0.593000,0.410000,-0.593000,0.403758,-0.624380,0.385983,-0.650983,0.359380,-0.668758,0.328000,-0.675000,0.000000,-0.675000,-0.410000,-0.265000,-0.410000,0.593000,-0.410000,0.593000,$1*%
G04 Aperture macros list end*
%ADD10RoundRect,0.250000X-1.025000X-1.000000X1.025000X-1.000000X1.025000X1.000000X-1.025000X1.000000X0*%
%ADD11C,1.750000*%
%ADD12C,4.000000*%
%ADD13C,3.600000*%
%ADD14RoundRect,0.250000X1.025000X1.000000X-1.025000X1.000000X-1.025000X-1.000000X1.025000X-1.000000X0*%
%ADD15C,3.048000*%
%ADD16C,3.987800*%
%ADD17RoundRect,0.140000X-0.140000X-0.170000X0.140000X-0.170000X0.140000X0.170000X-0.140000X0.170000X0*%
%ADD18RoundRect,0.112500X0.112500X-0.187500X0.112500X0.187500X-0.112500X0.187500X-0.112500X-0.187500X0*%
%ADD19RoundRect,0.082000X-0.593000X0.328000X-0.593000X-0.328000X0.593000X-0.328000X0.593000X0.328000X0*%
%ADD20FreePoly0,270.000000*%
%ADD21RoundRect,0.140000X0.140000X0.170000X-0.140000X0.170000X-0.140000X-0.170000X0.140000X-0.170000X0*%
%ADD22RoundRect,0.140000X-0.170000X0.140000X-0.170000X-0.140000X0.170000X-0.140000X0.170000X0.140000X0*%
%ADD23RoundRect,0.150000X0.512500X0.150000X-0.512500X0.150000X-0.512500X-0.150000X0.512500X-0.150000X0*%
%ADD24RoundRect,0.050000X-0.050000X0.387500X-0.050000X-0.387500X0.050000X-0.387500X0.050000X0.387500X0*%
%ADD25RoundRect,0.050000X-0.387500X0.050000X-0.387500X-0.050000X0.387500X-0.050000X0.387500X0.050000X0*%
%ADD26R,3.200000X3.200000*%
%ADD27RoundRect,0.135000X-0.135000X-0.185000X0.135000X-0.185000X0.135000X0.185000X-0.135000X0.185000X0*%
%ADD28RoundRect,0.112500X-0.112500X0.187500X-0.112500X-0.187500X0.112500X-0.187500X0.112500X0.187500X0*%
%ADD29RoundRect,0.135000X0.135000X0.185000X-0.135000X0.185000X-0.135000X-0.185000X0.135000X-0.185000X0*%
%ADD30R,1.700000X1.700000*%
%ADD31O,1.700000X1.700000*%
%ADD32RoundRect,0.140000X0.170000X-0.140000X0.170000X0.140000X-0.170000X0.140000X-0.170000X-0.140000X0*%
%ADD33RoundRect,0.062500X0.387500X0.062500X-0.387500X0.062500X-0.387500X-0.062500X0.387500X-0.062500X0*%
%ADD34R,0.200000X1.600000*%
%ADD35RoundRect,0.135000X-0.185000X0.135000X-0.185000X-0.135000X0.185000X-0.135000X0.185000X0.135000X0*%
%ADD36C,0.650000*%
%ADD37RoundRect,0.150000X-0.150000X-0.425000X0.150000X-0.425000X0.150000X0.425000X-0.150000X0.425000X0*%
%ADD38RoundRect,0.075000X-0.075000X-0.500000X0.075000X-0.500000X0.075000X0.500000X-0.075000X0.500000X0*%
%ADD39O,1.000000X1.800000*%
%ADD40O,1.000000X2.100000*%
%ADD41R,1.400000X1.200000*%
G04 APERTURE END LIST*
D10*
%TO.C,S30*%
X64352500Y-73660000D03*
D11*
X66357500Y-76200000D03*
D12*
X71437500Y-76200000D03*
D11*
X76517500Y-76200000D03*
D10*
X77279500Y-71120000D03*
D13*
X67627500Y-73660000D03*
X73977500Y-71120000D03*
%TD*%
D10*
%TO.C,S27*%
X269140000Y-54610000D03*
D11*
X271145000Y-57150000D03*
D12*
X276225000Y-57150000D03*
D11*
X281305000Y-57150000D03*
D10*
X282067000Y-52070000D03*
D13*
X272415000Y-54610000D03*
X278765000Y-52070000D03*
%TD*%
D10*
%TO.C,S42*%
X33396250Y-92710000D03*
D11*
X35401250Y-95250000D03*
D12*
X40481250Y-95250000D03*
D11*
X45561250Y-95250000D03*
D10*
X46323250Y-90170000D03*
D13*
X36671250Y-92710000D03*
X43021250Y-90170000D03*
%TD*%
D10*
%TO.C,S32*%
X102452500Y-73660000D03*
D11*
X104457500Y-76200000D03*
D12*
X109537500Y-76200000D03*
D11*
X114617500Y-76200000D03*
D10*
X115379500Y-71120000D03*
D13*
X105727500Y-73660000D03*
X112077500Y-71120000D03*
%TD*%
D10*
%TO.C,S38*%
X216752500Y-73660000D03*
D11*
X218757500Y-76200000D03*
D12*
X223837500Y-76200000D03*
D11*
X228917500Y-76200000D03*
D10*
X229679500Y-71120000D03*
D13*
X220027500Y-73660000D03*
X226377500Y-71120000D03*
%TD*%
D10*
%TO.C,S35*%
X159602500Y-73660000D03*
D11*
X161607500Y-76200000D03*
D12*
X166687500Y-76200000D03*
D11*
X171767500Y-76200000D03*
D10*
X172529500Y-71120000D03*
D13*
X162877500Y-73660000D03*
X169227500Y-71120000D03*
%TD*%
D10*
%TO.C,S4*%
X88165000Y-35560000D03*
D11*
X90170000Y-38100000D03*
D12*
X95250000Y-38100000D03*
D11*
X100330000Y-38100000D03*
D10*
X101092000Y-33020000D03*
D13*
X91440000Y-35560000D03*
X97790000Y-33020000D03*
%TD*%
D14*
%TO.C,S2*%
X64235000Y-40640000D03*
D11*
X62230000Y-38100000D03*
D12*
X57150000Y-38100000D03*
D11*
X52070000Y-38100000D03*
D14*
X51308000Y-43180000D03*
D13*
X60960000Y-40640000D03*
X54610000Y-43180000D03*
%TD*%
D10*
%TO.C,S22*%
X173890000Y-54610000D03*
D11*
X175895000Y-57150000D03*
D12*
X180975000Y-57150000D03*
D11*
X186055000Y-57150000D03*
D10*
X186817000Y-52070000D03*
D13*
X177165000Y-54610000D03*
X183515000Y-52070000D03*
%TD*%
D10*
%TO.C,S28*%
X295333750Y-64135000D03*
D11*
X297338750Y-66675000D03*
D12*
X302418750Y-66675000D03*
D11*
X307498750Y-66675000D03*
D10*
X308260750Y-61595000D03*
D13*
X298608750Y-64135000D03*
X304958750Y-61595000D03*
%TD*%
D10*
%TO.C,S46*%
X111977500Y-92710000D03*
D11*
X113982500Y-95250000D03*
D12*
X119062500Y-95250000D03*
D11*
X124142500Y-95250000D03*
D10*
X124904500Y-90170000D03*
D13*
X115252500Y-92710000D03*
X121602500Y-90170000D03*
%TD*%
D15*
%TO.C,REF\u002A\u002A*%
X295433750Y-78613000D03*
D16*
X310643750Y-78613000D03*
D15*
X295433750Y-54737000D03*
D16*
X310643750Y-54737000D03*
%TD*%
D14*
%TO.C,S1*%
X45185000Y-40640000D03*
D11*
X43180000Y-38100000D03*
D12*
X38100000Y-38100000D03*
D11*
X33020000Y-38100000D03*
D14*
X32258000Y-43180000D03*
D13*
X41910000Y-40640000D03*
X35560000Y-43180000D03*
%TD*%
D10*
%TO.C,S54*%
X281046250Y-92710000D03*
D11*
X283051250Y-95250000D03*
D12*
X288131250Y-95250000D03*
D11*
X293211250Y-95250000D03*
D10*
X293973250Y-90170000D03*
D13*
X284321250Y-92710000D03*
X290671250Y-90170000D03*
%TD*%
D10*
%TO.C,S10*%
X202465000Y-35560000D03*
D11*
X204470000Y-38100000D03*
D12*
X209550000Y-38100000D03*
D11*
X214630000Y-38100000D03*
D10*
X215392000Y-33020000D03*
D13*
X205740000Y-35560000D03*
X212090000Y-33020000D03*
%TD*%
D15*
%TO.C,REF\u002A\u002A*%
X283337000Y-31115000D03*
D16*
X283337000Y-46325000D03*
D15*
X307213000Y-31115000D03*
D16*
X307213000Y-46325000D03*
%TD*%
D10*
%TO.C,S34*%
X140552500Y-73660000D03*
D11*
X142557500Y-76200000D03*
D12*
X147637500Y-76200000D03*
D11*
X152717500Y-76200000D03*
D10*
X153479500Y-71120000D03*
D13*
X143827500Y-73660000D03*
X150177500Y-71120000D03*
%TD*%
D10*
%TO.C,S15*%
X35777500Y-54610000D03*
D11*
X37782500Y-57150000D03*
D12*
X42862500Y-57150000D03*
D11*
X47942500Y-57150000D03*
D10*
X48704500Y-52070000D03*
D13*
X39052500Y-54610000D03*
X45402500Y-52070000D03*
%TD*%
D10*
%TO.C,S56*%
X57208750Y-111760000D03*
D11*
X59213750Y-114300000D03*
D12*
X64293750Y-114300000D03*
D11*
X69373750Y-114300000D03*
D10*
X70135750Y-109220000D03*
D13*
X60483750Y-111760000D03*
X66833750Y-109220000D03*
%TD*%
D10*
%TO.C,S20*%
X135790000Y-54610000D03*
D11*
X137795000Y-57150000D03*
D12*
X142875000Y-57150000D03*
D11*
X147955000Y-57150000D03*
D10*
X148717000Y-52070000D03*
D13*
X139065000Y-54610000D03*
X145415000Y-52070000D03*
%TD*%
D10*
%TO.C,S17*%
X78640000Y-54610000D03*
D11*
X80645000Y-57150000D03*
D12*
X85725000Y-57150000D03*
D11*
X90805000Y-57150000D03*
D10*
X91567000Y-52070000D03*
D13*
X81915000Y-54610000D03*
X88265000Y-52070000D03*
%TD*%
D10*
%TO.C,S31*%
X83402500Y-73660000D03*
D11*
X85407500Y-76200000D03*
D12*
X90487500Y-76200000D03*
D11*
X95567500Y-76200000D03*
D10*
X96329500Y-71120000D03*
D13*
X86677500Y-73660000D03*
X93027500Y-71120000D03*
%TD*%
D15*
%TO.C,REF\u002A\u002A*%
X276193250Y-88265000D03*
D16*
X276193250Y-103475000D03*
D15*
X300069250Y-88265000D03*
D16*
X300069250Y-103475000D03*
%TD*%
D10*
%TO.C,S48*%
X150077500Y-92710000D03*
D11*
X152082500Y-95250000D03*
D12*
X157162500Y-95250000D03*
D11*
X162242500Y-95250000D03*
D10*
X163004500Y-90170000D03*
D13*
X153352500Y-92710000D03*
X159702500Y-90170000D03*
%TD*%
D10*
%TO.C,S51*%
X207227500Y-92710000D03*
D11*
X209232500Y-95250000D03*
D12*
X214312500Y-95250000D03*
D11*
X219392500Y-95250000D03*
D10*
X220154500Y-90170000D03*
D13*
X210502500Y-92710000D03*
X216852500Y-90170000D03*
%TD*%
D10*
%TO.C,S23*%
X192940000Y-54610000D03*
D11*
X194945000Y-57150000D03*
D12*
X200025000Y-57150000D03*
D11*
X205105000Y-57150000D03*
D10*
X205867000Y-52070000D03*
D13*
X196215000Y-54610000D03*
X202565000Y-52070000D03*
%TD*%
D10*
%TO.C,S50*%
X188177500Y-92710000D03*
D11*
X190182500Y-95250000D03*
D12*
X195262500Y-95250000D03*
D11*
X200342500Y-95250000D03*
D10*
X201104500Y-90170000D03*
D13*
X191452500Y-92710000D03*
X197802500Y-90170000D03*
%TD*%
D10*
%TO.C,S18*%
X97690000Y-54610000D03*
D11*
X99695000Y-57150000D03*
D12*
X104775000Y-57150000D03*
D11*
X109855000Y-57150000D03*
D10*
X110617000Y-52070000D03*
D13*
X100965000Y-54610000D03*
X107315000Y-52070000D03*
%TD*%
D10*
%TO.C,S33*%
X121502500Y-73660000D03*
D11*
X123507500Y-76200000D03*
D12*
X128587500Y-76200000D03*
D11*
X133667500Y-76200000D03*
D10*
X134429500Y-71120000D03*
D13*
X124777500Y-73660000D03*
X131127500Y-71120000D03*
%TD*%
D10*
%TO.C,S61*%
X271521250Y-111760000D03*
D11*
X273526250Y-114300000D03*
D12*
X278606250Y-114300000D03*
D11*
X283686250Y-114300000D03*
D10*
X284448250Y-109220000D03*
D13*
X274796250Y-111760000D03*
X281146250Y-109220000D03*
%TD*%
D10*
%TO.C,S16*%
X59590000Y-54610000D03*
D11*
X61595000Y-57150000D03*
D12*
X66675000Y-57150000D03*
D11*
X71755000Y-57150000D03*
D10*
X72517000Y-52070000D03*
D13*
X62865000Y-54610000D03*
X69215000Y-52070000D03*
%TD*%
D10*
%TO.C,S60*%
X247708750Y-111760000D03*
D11*
X249713750Y-114300000D03*
D12*
X254793750Y-114300000D03*
D11*
X259873750Y-114300000D03*
D10*
X260635750Y-109220000D03*
D13*
X250983750Y-111760000D03*
X257333750Y-109220000D03*
%TD*%
D10*
%TO.C,S58*%
X152458750Y-111760000D03*
D11*
X154463750Y-114300000D03*
D12*
X159543750Y-114300000D03*
D11*
X164623750Y-114300000D03*
D10*
X165385750Y-109220000D03*
D13*
X155733750Y-111760000D03*
X162083750Y-109220000D03*
%TD*%
D10*
%TO.C,S24*%
X211990000Y-54610000D03*
D11*
X213995000Y-57150000D03*
D12*
X219075000Y-57150000D03*
D11*
X224155000Y-57150000D03*
D10*
X224917000Y-52070000D03*
D13*
X215265000Y-54610000D03*
X221615000Y-52070000D03*
%TD*%
D10*
%TO.C,S29*%
X38158750Y-73660000D03*
D11*
X40163750Y-76200000D03*
D12*
X45243750Y-76200000D03*
D11*
X50323750Y-76200000D03*
D10*
X51085750Y-71120000D03*
D13*
X41433750Y-73660000D03*
X47783750Y-71120000D03*
%TD*%
D10*
%TO.C,S37*%
X197702500Y-73660000D03*
D11*
X199707500Y-76200000D03*
D12*
X204787500Y-76200000D03*
D11*
X209867500Y-76200000D03*
D10*
X210629500Y-71120000D03*
D13*
X200977500Y-73660000D03*
X207327500Y-71120000D03*
%TD*%
D10*
%TO.C,S43*%
X54827500Y-92710000D03*
D11*
X56832500Y-95250000D03*
D12*
X61912500Y-95250000D03*
D11*
X66992500Y-95250000D03*
D10*
X67754500Y-90170000D03*
D13*
X58102500Y-92710000D03*
X64452500Y-90170000D03*
%TD*%
D10*
%TO.C,S3*%
X69115000Y-35560000D03*
D11*
X71120000Y-38100000D03*
D12*
X76200000Y-38100000D03*
D11*
X81280000Y-38100000D03*
D10*
X82042000Y-33020000D03*
D13*
X72390000Y-35560000D03*
X78740000Y-33020000D03*
%TD*%
D10*
%TO.C,S36*%
X178652500Y-73660000D03*
D11*
X180657500Y-76200000D03*
D12*
X185737500Y-76200000D03*
D11*
X190817500Y-76200000D03*
D10*
X191579500Y-71120000D03*
D13*
X181927500Y-73660000D03*
X188277500Y-71120000D03*
%TD*%
D10*
%TO.C,S6*%
X126265000Y-35560000D03*
D11*
X128270000Y-38100000D03*
D12*
X133350000Y-38100000D03*
D11*
X138430000Y-38100000D03*
D10*
X139192000Y-33020000D03*
D13*
X129540000Y-35560000D03*
X135890000Y-33020000D03*
%TD*%
D10*
%TO.C,S55*%
X33396250Y-111760000D03*
D11*
X35401250Y-114300000D03*
D12*
X40481250Y-114300000D03*
D11*
X45561250Y-114300000D03*
D10*
X46323250Y-109220000D03*
D13*
X36671250Y-111760000D03*
X43021250Y-109220000D03*
%TD*%
D10*
%TO.C,S25*%
X231040000Y-54610000D03*
D11*
X233045000Y-57150000D03*
D12*
X238125000Y-57150000D03*
D11*
X243205000Y-57150000D03*
D10*
X243967000Y-52070000D03*
D13*
X234315000Y-54610000D03*
X240665000Y-52070000D03*
%TD*%
D10*
%TO.C,S9*%
X183415000Y-35560000D03*
D11*
X185420000Y-38100000D03*
D12*
X190500000Y-38100000D03*
D11*
X195580000Y-38100000D03*
D10*
X196342000Y-33020000D03*
D13*
X186690000Y-35560000D03*
X193040000Y-33020000D03*
%TD*%
D10*
%TO.C,S26*%
X250090000Y-54610000D03*
D11*
X252095000Y-57150000D03*
D12*
X257175000Y-57150000D03*
D11*
X262255000Y-57150000D03*
D10*
X263017000Y-52070000D03*
D13*
X253365000Y-54610000D03*
X259715000Y-52070000D03*
%TD*%
D10*
%TO.C,S11*%
X221515000Y-35560000D03*
D11*
X223520000Y-38100000D03*
D12*
X228600000Y-38100000D03*
D11*
X233680000Y-38100000D03*
D10*
X234442000Y-33020000D03*
D13*
X224790000Y-35560000D03*
X231140000Y-33020000D03*
%TD*%
D10*
%TO.C,S59*%
X223896250Y-111760000D03*
D11*
X225901250Y-114300000D03*
D12*
X230981250Y-114300000D03*
D11*
X236061250Y-114300000D03*
D10*
X236823250Y-109220000D03*
D13*
X227171250Y-111760000D03*
X233521250Y-109220000D03*
%TD*%
D10*
%TO.C,S53*%
X245327500Y-92710000D03*
D11*
X247332500Y-95250000D03*
D12*
X252412500Y-95250000D03*
D11*
X257492500Y-95250000D03*
D10*
X258254500Y-90170000D03*
D13*
X248602500Y-92710000D03*
X254952500Y-90170000D03*
%TD*%
D10*
%TO.C,S12*%
X240565000Y-35560000D03*
D11*
X242570000Y-38100000D03*
D12*
X247650000Y-38100000D03*
D11*
X252730000Y-38100000D03*
D10*
X253492000Y-33020000D03*
D13*
X243840000Y-35560000D03*
X250190000Y-33020000D03*
%TD*%
D10*
%TO.C,S57*%
X81021250Y-111760000D03*
D11*
X83026250Y-114300000D03*
D12*
X88106250Y-114300000D03*
D11*
X93186250Y-114300000D03*
D10*
X93948250Y-109220000D03*
D13*
X84296250Y-111760000D03*
X90646250Y-109220000D03*
%TD*%
D10*
%TO.C,S8*%
X164365000Y-35560000D03*
D11*
X166370000Y-38100000D03*
D12*
X171450000Y-38100000D03*
D11*
X176530000Y-38100000D03*
D10*
X177292000Y-33020000D03*
D13*
X167640000Y-35560000D03*
X173990000Y-33020000D03*
%TD*%
D10*
%TO.C,S13*%
X259615000Y-35560000D03*
D11*
X261620000Y-38100000D03*
D12*
X266700000Y-38100000D03*
D11*
X271780000Y-38100000D03*
D10*
X272542000Y-33020000D03*
D13*
X262890000Y-35560000D03*
X269240000Y-33020000D03*
%TD*%
D10*
%TO.C,S14*%
X288190000Y-35560000D03*
D11*
X290195000Y-38100000D03*
D12*
X295275000Y-38100000D03*
D11*
X300355000Y-38100000D03*
D10*
X301117000Y-33020000D03*
D13*
X291465000Y-35560000D03*
X297815000Y-33020000D03*
%TD*%
D10*
%TO.C,S21*%
X154840000Y-54610000D03*
D11*
X156845000Y-57150000D03*
D12*
X161925000Y-57150000D03*
D11*
X167005000Y-57150000D03*
D10*
X167767000Y-52070000D03*
D13*
X158115000Y-54610000D03*
X164465000Y-52070000D03*
%TD*%
D10*
%TO.C,S19*%
X116740000Y-54610000D03*
D11*
X118745000Y-57150000D03*
D12*
X123825000Y-57150000D03*
D11*
X128905000Y-57150000D03*
D10*
X129667000Y-52070000D03*
D13*
X120015000Y-54610000D03*
X126365000Y-52070000D03*
%TD*%
D15*
%TO.C,REF\u002A\u002A*%
X209543750Y-121285000D03*
D16*
X209543750Y-106075000D03*
D15*
X109543750Y-121285000D03*
D16*
X109543750Y-106075000D03*
%TD*%
D10*
%TO.C,S5*%
X107215000Y-35560000D03*
D11*
X109220000Y-38100000D03*
D12*
X114300000Y-38100000D03*
D11*
X119380000Y-38100000D03*
D10*
X120142000Y-33020000D03*
D13*
X110490000Y-35560000D03*
X116840000Y-33020000D03*
%TD*%
D10*
%TO.C,S45*%
X92927500Y-92710000D03*
D11*
X94932500Y-95250000D03*
D12*
X100012500Y-95250000D03*
D11*
X105092500Y-95250000D03*
D10*
X105854500Y-90170000D03*
D13*
X96202500Y-92710000D03*
X102552500Y-90170000D03*
%TD*%
D10*
%TO.C,S62*%
X295333750Y-111760000D03*
D11*
X297338750Y-114300000D03*
D12*
X302418750Y-114300000D03*
D11*
X307498750Y-114300000D03*
D10*
X308260750Y-109220000D03*
D13*
X298608750Y-111760000D03*
X304958750Y-109220000D03*
%TD*%
D10*
%TO.C,S52*%
X226277500Y-92710000D03*
D11*
X228282500Y-95250000D03*
D12*
X233362500Y-95250000D03*
D11*
X238442500Y-95250000D03*
D10*
X239204500Y-90170000D03*
D13*
X229552500Y-92710000D03*
X235902500Y-90170000D03*
%TD*%
D10*
%TO.C,S7*%
X145315000Y-35560000D03*
D11*
X147320000Y-38100000D03*
D12*
X152400000Y-38100000D03*
D11*
X157480000Y-38100000D03*
D10*
X158242000Y-33020000D03*
D13*
X148590000Y-35560000D03*
X154940000Y-33020000D03*
%TD*%
D10*
%TO.C,S41*%
X273902500Y-73660000D03*
D11*
X275907500Y-76200000D03*
D12*
X280987500Y-76200000D03*
D11*
X286067500Y-76200000D03*
D10*
X286829500Y-71120000D03*
D13*
X277177500Y-73660000D03*
X283527500Y-71120000D03*
%TD*%
D10*
%TO.C,S49*%
X169127500Y-92710000D03*
D11*
X171132500Y-95250000D03*
D12*
X176212500Y-95250000D03*
D11*
X181292500Y-95250000D03*
D10*
X182054500Y-90170000D03*
D13*
X172402500Y-92710000D03*
X178752500Y-90170000D03*
%TD*%
D10*
%TO.C,S44*%
X73877500Y-92710000D03*
D11*
X75882500Y-95250000D03*
D12*
X80962500Y-95250000D03*
D11*
X86042500Y-95250000D03*
D10*
X86804500Y-90170000D03*
D13*
X77152500Y-92710000D03*
X83502500Y-90170000D03*
%TD*%
D10*
%TO.C,S39*%
X235802500Y-73660000D03*
D11*
X237807500Y-76200000D03*
D12*
X242887500Y-76200000D03*
D11*
X247967500Y-76200000D03*
D10*
X248729500Y-71120000D03*
D13*
X239077500Y-73660000D03*
X245427500Y-71120000D03*
%TD*%
D10*
%TO.C,S40*%
X254852500Y-73660000D03*
D11*
X256857500Y-76200000D03*
D12*
X261937500Y-76200000D03*
D11*
X267017500Y-76200000D03*
D10*
X267779500Y-71120000D03*
D13*
X258127500Y-73660000D03*
X264477500Y-71120000D03*
%TD*%
D10*
%TO.C,S47*%
X131027500Y-92710000D03*
D11*
X133032500Y-95250000D03*
D12*
X138112500Y-95250000D03*
D11*
X143192500Y-95250000D03*
D10*
X143954500Y-90170000D03*
D13*
X134302500Y-92710000D03*
X140652500Y-90170000D03*
%TD*%
D17*
%TO.C,RGBC15*%
X47462500Y-63400000D03*
X48422500Y-63400000D03*
%TD*%
D18*
%TO.C,D21*%
X167005000Y-61230000D03*
X167005000Y-59130000D03*
%TD*%
D17*
%TO.C,RGBC49*%
X180812500Y-101500000D03*
X181772500Y-101500000D03*
%TD*%
%TO.C,RGBC28*%
X307018750Y-72925000D03*
X307978750Y-72925000D03*
%TD*%
D19*
%TO.C,RGB20*%
X145600000Y-63400000D03*
X145600000Y-61900000D03*
D20*
X140150000Y-61900000D03*
D19*
X140150000Y-63400000D03*
%TD*%
D21*
%TO.C,C13*%
X125305000Y-118275000D03*
X124345000Y-118275000D03*
%TD*%
D22*
%TO.C,C3*%
X133737500Y-117370000D03*
X133737500Y-118330000D03*
%TD*%
D18*
%TO.C,D46*%
X124142500Y-99330000D03*
X124142500Y-97230000D03*
%TD*%
D17*
%TO.C,RGBC58*%
X164143750Y-120550000D03*
X165103750Y-120550000D03*
%TD*%
%TO.C,RGBC14*%
X299875000Y-44350000D03*
X300835000Y-44350000D03*
%TD*%
D18*
%TO.C,D55*%
X45561250Y-118380000D03*
X45561250Y-116280000D03*
%TD*%
D19*
%TO.C,RGB58*%
X162268750Y-120550000D03*
X162268750Y-119050000D03*
D20*
X156818750Y-119050000D03*
D19*
X156818750Y-120550000D03*
%TD*%
%TO.C,RGB14*%
X298000000Y-44350000D03*
X298000000Y-42850000D03*
D20*
X292550000Y-42850000D03*
D19*
X292550000Y-44350000D03*
%TD*%
D17*
%TO.C,RGBC21*%
X166525000Y-63400000D03*
X167485000Y-63400000D03*
%TD*%
D21*
%TO.C,C8*%
X120855000Y-116000000D03*
X119895000Y-116000000D03*
%TD*%
D17*
%TO.C,C18*%
X115370000Y-112625000D03*
X116330000Y-112625000D03*
%TD*%
D23*
%TO.C,U1*%
X115425000Y-108825000D03*
X115425000Y-110725000D03*
X113150000Y-109775000D03*
%TD*%
D19*
%TO.C,RGB55*%
X43206250Y-120550000D03*
X43206250Y-119050000D03*
D20*
X37756250Y-119050000D03*
D19*
X37756250Y-120550000D03*
%TD*%
D18*
%TO.C,D7*%
X157480000Y-42180000D03*
X157480000Y-40080000D03*
%TD*%
D24*
%TO.C,U3*%
X126300000Y-109962500D03*
X126700000Y-109962500D03*
X127100000Y-109962500D03*
X127500000Y-109962500D03*
X127900000Y-109962500D03*
X128300000Y-109962500D03*
X128700000Y-109962500D03*
X129100000Y-109962500D03*
X129500000Y-109962500D03*
X129900000Y-109962500D03*
X130300000Y-109962500D03*
X130700000Y-109962500D03*
X131100000Y-109962500D03*
X131500000Y-109962500D03*
D25*
X132337500Y-110800000D03*
X132337500Y-111200000D03*
X132337500Y-111600000D03*
X132337500Y-112000000D03*
X132337500Y-112400000D03*
X132337500Y-112800000D03*
X132337500Y-113200000D03*
X132337500Y-113600000D03*
X132337500Y-114000000D03*
X132337500Y-114400000D03*
X132337500Y-114800000D03*
X132337500Y-115200000D03*
X132337500Y-115600000D03*
X132337500Y-116000000D03*
D24*
X131500000Y-116837500D03*
X131100000Y-116837500D03*
X130700000Y-116837500D03*
X130300000Y-116837500D03*
X129900000Y-116837500D03*
X129500000Y-116837500D03*
X129100000Y-116837500D03*
X128700000Y-116837500D03*
X128300000Y-116837500D03*
X127900000Y-116837500D03*
X127500000Y-116837500D03*
X127100000Y-116837500D03*
X126700000Y-116837500D03*
X126300000Y-116837500D03*
D25*
X125462500Y-116000000D03*
X125462500Y-115600000D03*
X125462500Y-115200000D03*
X125462500Y-114800000D03*
X125462500Y-114400000D03*
X125462500Y-114000000D03*
X125462500Y-113600000D03*
X125462500Y-113200000D03*
X125462500Y-112800000D03*
X125462500Y-112400000D03*
X125462500Y-112000000D03*
X125462500Y-111600000D03*
X125462500Y-111200000D03*
X125462500Y-110800000D03*
D26*
X128900000Y-113400000D03*
%TD*%
D18*
%TO.C,D15*%
X47942500Y-61230000D03*
X47942500Y-59130000D03*
%TD*%
D19*
%TO.C,RGB57*%
X90831250Y-120550000D03*
X90831250Y-119050000D03*
D20*
X85381250Y-119050000D03*
D19*
X85381250Y-120550000D03*
%TD*%
D17*
%TO.C,RGBC62*%
X307018750Y-120550000D03*
X307978750Y-120550000D03*
%TD*%
D19*
%TO.C,RGB38*%
X226562500Y-82450000D03*
X226562500Y-80950000D03*
D20*
X221112500Y-80950000D03*
D19*
X221112500Y-82450000D03*
%TD*%
%TO.C,RGB37*%
X207512500Y-82450000D03*
X207512500Y-80950000D03*
D20*
X202062500Y-80950000D03*
D19*
X202062500Y-82450000D03*
%TD*%
D18*
%TO.C,D43*%
X66992500Y-99330000D03*
X66992500Y-97230000D03*
%TD*%
D17*
%TO.C,RGBC34*%
X152237500Y-82450000D03*
X153197500Y-82450000D03*
%TD*%
D18*
%TO.C,D22*%
X186055000Y-61230000D03*
X186055000Y-59130000D03*
%TD*%
%TO.C,D44*%
X86042500Y-99330000D03*
X86042500Y-97230000D03*
%TD*%
D27*
%TO.C,R5*%
X135977500Y-115600000D03*
X136997500Y-115600000D03*
%TD*%
D19*
%TO.C,RGB52*%
X236087500Y-101500000D03*
X236087500Y-100000000D03*
D20*
X230637500Y-100000000D03*
D19*
X230637500Y-101500000D03*
%TD*%
D17*
%TO.C,RGBC51*%
X218912500Y-101500000D03*
X219872500Y-101500000D03*
%TD*%
D27*
%TO.C,R7*%
X49375000Y-37575000D03*
X50395000Y-37575000D03*
%TD*%
D18*
%TO.C,D58*%
X164623750Y-118380000D03*
X164623750Y-116280000D03*
%TD*%
%TO.C,D20*%
X147955000Y-61230000D03*
X147955000Y-59130000D03*
%TD*%
D19*
%TO.C,RGB3*%
X78925000Y-44350000D03*
X78925000Y-42850000D03*
D20*
X73475000Y-42850000D03*
D19*
X73475000Y-44350000D03*
%TD*%
D17*
%TO.C,RGBC32*%
X114137500Y-82450000D03*
X115097500Y-82450000D03*
%TD*%
D19*
%TO.C,RGB60*%
X257518750Y-120550000D03*
X257518750Y-119050000D03*
D20*
X252068750Y-119050000D03*
D19*
X252068750Y-120550000D03*
%TD*%
D17*
%TO.C,RGBC30*%
X76037500Y-82450000D03*
X76997500Y-82450000D03*
%TD*%
D19*
%TO.C,RGB5*%
X117025000Y-44350000D03*
X117025000Y-42850000D03*
D20*
X111575000Y-42850000D03*
D19*
X111575000Y-44350000D03*
%TD*%
%TO.C,RGB16*%
X69400000Y-63400000D03*
X69400000Y-61900000D03*
D20*
X63950000Y-61900000D03*
D19*
X63950000Y-63400000D03*
%TD*%
D18*
%TO.C,D19*%
X128905000Y-61230000D03*
X128905000Y-59130000D03*
%TD*%
D21*
%TO.C,C16*%
X118567500Y-113600000D03*
X117607500Y-113600000D03*
%TD*%
D18*
%TO.C,D4*%
X100330000Y-42180000D03*
X100330000Y-40080000D03*
%TD*%
%TO.C,D13*%
X271780000Y-42180000D03*
X271780000Y-40080000D03*
%TD*%
%TO.C,D29*%
X50323750Y-80280000D03*
X50323750Y-78180000D03*
%TD*%
D19*
%TO.C,RGB24*%
X221800000Y-63400000D03*
X221800000Y-61900000D03*
D20*
X216350000Y-61900000D03*
D19*
X216350000Y-63400000D03*
%TD*%
D18*
%TO.C,D11*%
X233680000Y-42180000D03*
X233680000Y-40080000D03*
%TD*%
D17*
%TO.C,C5*%
X120357500Y-109000000D03*
X121317500Y-109000000D03*
%TD*%
D19*
%TO.C,RGB18*%
X107500000Y-63400000D03*
X107500000Y-61900000D03*
D20*
X102050000Y-61900000D03*
D19*
X102050000Y-63400000D03*
%TD*%
%TO.C,RGB27*%
X278950000Y-63400000D03*
X278950000Y-61900000D03*
D20*
X273500000Y-61900000D03*
D19*
X273500000Y-63400000D03*
%TD*%
%TO.C,RGB34*%
X150362500Y-82450000D03*
X150362500Y-80950000D03*
D20*
X144912500Y-80950000D03*
D19*
X144912500Y-82450000D03*
%TD*%
D17*
%TO.C,RGBC43*%
X66512500Y-101500000D03*
X67472500Y-101500000D03*
%TD*%
D19*
%TO.C,RGB47*%
X140837500Y-101500000D03*
X140837500Y-100000000D03*
D20*
X135387500Y-100000000D03*
D19*
X135387500Y-101500000D03*
%TD*%
D17*
%TO.C,C9*%
X130107500Y-118250000D03*
X131067500Y-118250000D03*
%TD*%
D28*
%TO.C,D2*%
X62230000Y-34020000D03*
X62230000Y-36120000D03*
%TD*%
D19*
%TO.C,RGB29*%
X47968750Y-82450000D03*
X47968750Y-80950000D03*
D20*
X42518750Y-80950000D03*
D19*
X42518750Y-82450000D03*
%TD*%
%TO.C,RGB7*%
X155125000Y-44350000D03*
X155125000Y-42850000D03*
D20*
X149675000Y-42850000D03*
D19*
X149675000Y-44350000D03*
%TD*%
D18*
%TO.C,D34*%
X152717500Y-80280000D03*
X152717500Y-78180000D03*
%TD*%
D17*
%TO.C,RGBC35*%
X171287500Y-82450000D03*
X172247500Y-82450000D03*
%TD*%
D19*
%TO.C,RGB48*%
X159887500Y-101500000D03*
X159887500Y-100000000D03*
D20*
X154437500Y-100000000D03*
D19*
X154437500Y-101500000D03*
%TD*%
D17*
%TO.C,RGBC42*%
X45081250Y-101500000D03*
X46041250Y-101500000D03*
%TD*%
D18*
%TO.C,D27*%
X281305000Y-61230000D03*
X281305000Y-59130000D03*
%TD*%
D17*
%TO.C,RGBC41*%
X285587500Y-82450000D03*
X286547500Y-82450000D03*
%TD*%
%TO.C,RGBC52*%
X237962500Y-101500000D03*
X238922500Y-101500000D03*
%TD*%
D19*
%TO.C,RGB4*%
X97975000Y-44350000D03*
X97975000Y-42850000D03*
D20*
X92525000Y-42850000D03*
D19*
X92525000Y-44350000D03*
%TD*%
%TO.C,RGB17*%
X88450000Y-63400000D03*
X88450000Y-61900000D03*
D20*
X83000000Y-61900000D03*
D19*
X83000000Y-63400000D03*
%TD*%
%TO.C,RGB9*%
X193225000Y-44350000D03*
X193225000Y-42850000D03*
D20*
X187775000Y-42850000D03*
D19*
X187775000Y-44350000D03*
%TD*%
%TO.C,RGB59*%
X233706250Y-120550000D03*
X233706250Y-119050000D03*
D20*
X228256250Y-119050000D03*
D19*
X228256250Y-120550000D03*
%TD*%
D27*
%TO.C,R3*%
X122131814Y-114400000D03*
X123151814Y-114400000D03*
%TD*%
D18*
%TO.C,D18*%
X109855000Y-61230000D03*
X109855000Y-59130000D03*
%TD*%
%TO.C,D30*%
X76517500Y-80280000D03*
X76517500Y-78180000D03*
%TD*%
D17*
%TO.C,RGBC37*%
X209387500Y-82450000D03*
X210347500Y-82450000D03*
%TD*%
D18*
%TO.C,D57*%
X93186250Y-118380000D03*
X93186250Y-116280000D03*
%TD*%
%TO.C,D45*%
X105092500Y-99330000D03*
X105092500Y-97230000D03*
%TD*%
D19*
%TO.C,RGB35*%
X169412500Y-82450000D03*
X169412500Y-80950000D03*
D20*
X163962500Y-80950000D03*
D19*
X163962500Y-82450000D03*
%TD*%
D17*
%TO.C,RGBC44*%
X85562500Y-101500000D03*
X86522500Y-101500000D03*
%TD*%
D21*
%TO.C,C14*%
X125567500Y-108750000D03*
X124607500Y-108750000D03*
%TD*%
D17*
%TO.C,RGBC27*%
X280825000Y-63400000D03*
X281785000Y-63400000D03*
%TD*%
D21*
%TO.C,C10*%
X123130000Y-116675000D03*
X122170000Y-116675000D03*
%TD*%
D18*
%TO.C,D31*%
X95567500Y-80280000D03*
X95567500Y-78180000D03*
%TD*%
D17*
%TO.C,RGBC3*%
X80800000Y-44350000D03*
X81760000Y-44350000D03*
%TD*%
D18*
%TO.C,D61*%
X283686250Y-118380000D03*
X283686250Y-116280000D03*
%TD*%
D29*
%TO.C,R6*%
X46375000Y-37575000D03*
X45355000Y-37575000D03*
%TD*%
D18*
%TO.C,D16*%
X71755000Y-61230000D03*
X71755000Y-59130000D03*
%TD*%
D17*
%TO.C,RGBC10*%
X214150000Y-44350000D03*
X215110000Y-44350000D03*
%TD*%
D19*
%TO.C,RGB46*%
X121787500Y-101500000D03*
X121787500Y-100000000D03*
D20*
X116337500Y-100000000D03*
D19*
X116337500Y-101500000D03*
%TD*%
D17*
%TO.C,RGBC4*%
X99850000Y-44350000D03*
X100810000Y-44350000D03*
%TD*%
D18*
%TO.C,D6*%
X138430000Y-42180000D03*
X138430000Y-40080000D03*
%TD*%
D17*
%TO.C,RGBC26*%
X261775000Y-63400000D03*
X262735000Y-63400000D03*
%TD*%
D18*
%TO.C,D48*%
X162242500Y-99330000D03*
X162242500Y-97230000D03*
%TD*%
D19*
%TO.C,RGB44*%
X83687500Y-101500000D03*
X83687500Y-100000000D03*
D20*
X78237500Y-100000000D03*
D19*
X78237500Y-101500000D03*
%TD*%
%TO.C,RGB23*%
X202750000Y-63400000D03*
X202750000Y-61900000D03*
D20*
X197300000Y-61900000D03*
D19*
X197300000Y-63400000D03*
%TD*%
%TO.C,RGB50*%
X197987500Y-101500000D03*
X197987500Y-100000000D03*
D20*
X192537500Y-100000000D03*
D19*
X192537500Y-101500000D03*
%TD*%
%TO.C,RGB33*%
X131312500Y-82450000D03*
X131312500Y-80950000D03*
D20*
X125862500Y-80950000D03*
D19*
X125862500Y-82450000D03*
%TD*%
D30*
%TO.C,J2*%
X121087500Y-106500000D03*
D31*
X118547500Y-106500000D03*
%TD*%
D19*
%TO.C,RGB26*%
X259900000Y-63400000D03*
X259900000Y-61900000D03*
D20*
X254450000Y-61900000D03*
D19*
X254450000Y-63400000D03*
%TD*%
D17*
%TO.C,RGBC13*%
X271300000Y-44350000D03*
X272260000Y-44350000D03*
%TD*%
%TO.C,RGBC16*%
X71275000Y-63400000D03*
X72235000Y-63400000D03*
%TD*%
D18*
%TO.C,D24*%
X224155000Y-61230000D03*
X224155000Y-59130000D03*
%TD*%
D32*
%TO.C,C2*%
X139237500Y-118330000D03*
X139237500Y-117370000D03*
%TD*%
D17*
%TO.C,RGBC17*%
X90325000Y-63400000D03*
X91285000Y-63400000D03*
%TD*%
%TO.C,RGBC8*%
X176050000Y-44350000D03*
X177010000Y-44350000D03*
%TD*%
%TO.C,RGBC53*%
X257012500Y-101500000D03*
X257972500Y-101500000D03*
%TD*%
D18*
%TO.C,D35*%
X171767500Y-80280000D03*
X171767500Y-78180000D03*
%TD*%
D19*
%TO.C,RGB61*%
X281331250Y-120550000D03*
X281331250Y-119050000D03*
D20*
X275881250Y-119050000D03*
D19*
X275881250Y-120550000D03*
%TD*%
D17*
%TO.C,RGBC59*%
X235581250Y-120550000D03*
X236541250Y-120550000D03*
%TD*%
D18*
%TO.C,D38*%
X228917500Y-80280000D03*
X228917500Y-78180000D03*
%TD*%
D17*
%TO.C,RGBC5*%
X118900000Y-44350000D03*
X119860000Y-44350000D03*
%TD*%
D19*
%TO.C,RGB62*%
X305143750Y-120550000D03*
X305143750Y-119050000D03*
D20*
X299693750Y-119050000D03*
D19*
X299693750Y-120550000D03*
%TD*%
%TO.C,RGB49*%
X178937500Y-101500000D03*
X178937500Y-100000000D03*
D20*
X173487500Y-100000000D03*
D19*
X173487500Y-101500000D03*
%TD*%
D17*
%TO.C,RGBC60*%
X259393750Y-120550000D03*
X260353750Y-120550000D03*
%TD*%
D22*
%TO.C,C12*%
X134587500Y-114250000D03*
X134587500Y-115210000D03*
%TD*%
D19*
%TO.C,RGB28*%
X305143750Y-72925000D03*
X305143750Y-71425000D03*
D20*
X299693750Y-71425000D03*
D19*
X299693750Y-72925000D03*
%TD*%
D17*
%TO.C,RGBC22*%
X185575000Y-63400000D03*
X186535000Y-63400000D03*
%TD*%
D18*
%TO.C,D62*%
X307498750Y-118380000D03*
X307498750Y-116280000D03*
%TD*%
D19*
%TO.C,RGB13*%
X269425000Y-44350000D03*
X269425000Y-42850000D03*
D20*
X263975000Y-42850000D03*
D19*
X263975000Y-44350000D03*
%TD*%
%TO.C,RGB12*%
X250375000Y-44350000D03*
X250375000Y-42850000D03*
D20*
X244925000Y-42850000D03*
D19*
X244925000Y-44350000D03*
%TD*%
D21*
%TO.C,C11*%
X123155000Y-117725000D03*
X122195000Y-117725000D03*
%TD*%
D17*
%TO.C,RGBC18*%
X109375000Y-63400000D03*
X110335000Y-63400000D03*
%TD*%
%TO.C,RGBC7*%
X157000000Y-44350000D03*
X157960000Y-44350000D03*
%TD*%
D19*
%TO.C,RGB54*%
X290856250Y-101500000D03*
X290856250Y-100000000D03*
D20*
X285406250Y-100000000D03*
D19*
X285406250Y-101500000D03*
%TD*%
%TO.C,RGB41*%
X283712500Y-82450000D03*
X283712500Y-80950000D03*
D20*
X278262500Y-80950000D03*
D19*
X278262500Y-82450000D03*
%TD*%
%TO.C,RGB2*%
X59875000Y-33350000D03*
X59875000Y-31850000D03*
D20*
X54425000Y-31850000D03*
D19*
X54425000Y-33350000D03*
%TD*%
D17*
%TO.C,RGBC50*%
X199862500Y-101500000D03*
X200822500Y-101500000D03*
%TD*%
D19*
%TO.C,RGB43*%
X64637500Y-101500000D03*
X64637500Y-100000000D03*
D20*
X59187500Y-100000000D03*
D19*
X59187500Y-101500000D03*
%TD*%
D17*
%TO.C,RGBC25*%
X242725000Y-63400000D03*
X243685000Y-63400000D03*
%TD*%
D19*
%TO.C,RGB1*%
X40825000Y-33350000D03*
X40825000Y-31850000D03*
D20*
X35375000Y-31850000D03*
D19*
X35375000Y-33350000D03*
%TD*%
D18*
%TO.C,D56*%
X69373750Y-118380000D03*
X69373750Y-116280000D03*
%TD*%
D32*
%TO.C,C15*%
X130325000Y-107075000D03*
X130325000Y-106115000D03*
%TD*%
D17*
%TO.C,RGBC29*%
X49843750Y-82450000D03*
X50803750Y-82450000D03*
%TD*%
D18*
%TO.C,D49*%
X181292500Y-99330000D03*
X181292500Y-97230000D03*
%TD*%
D19*
%TO.C,RGB40*%
X264662500Y-82450000D03*
X264662500Y-80950000D03*
D20*
X259212500Y-80950000D03*
D19*
X259212500Y-82450000D03*
%TD*%
%TO.C,RGB22*%
X183700000Y-63400000D03*
X183700000Y-61900000D03*
D20*
X178250000Y-61900000D03*
D19*
X178250000Y-63400000D03*
%TD*%
D18*
%TO.C,D59*%
X236061250Y-118380000D03*
X236061250Y-116280000D03*
%TD*%
D17*
%TO.C,RGBC2*%
X61750000Y-31850000D03*
X62710000Y-31850000D03*
%TD*%
%TO.C,RGBC57*%
X92706250Y-120550000D03*
X93666250Y-120550000D03*
%TD*%
D27*
%TO.C,R4*%
X122131814Y-115400000D03*
X123151814Y-115400000D03*
%TD*%
D19*
%TO.C,RGB6*%
X136075000Y-44350000D03*
X136075000Y-42850000D03*
D20*
X130625000Y-42850000D03*
D19*
X130625000Y-44350000D03*
%TD*%
D18*
%TO.C,D54*%
X293211250Y-99330000D03*
X293211250Y-97230000D03*
%TD*%
%TO.C,D17*%
X90805000Y-61230000D03*
X90805000Y-59130000D03*
%TD*%
D19*
%TO.C,RGB53*%
X255137500Y-101500000D03*
X255137500Y-100000000D03*
D20*
X249687500Y-100000000D03*
D19*
X249687500Y-101500000D03*
%TD*%
D17*
%TO.C,RGBC54*%
X292731250Y-101500000D03*
X293691250Y-101500000D03*
%TD*%
D18*
%TO.C,D60*%
X259873750Y-118380000D03*
X259873750Y-116280000D03*
%TD*%
D33*
%TO.C,U2*%
X123562500Y-110075000D03*
X123562500Y-110575000D03*
X123562500Y-111075000D03*
X123562500Y-111575000D03*
X120712500Y-111575000D03*
X120712500Y-111075000D03*
X120712500Y-110575000D03*
X120712500Y-110075000D03*
D34*
X122137500Y-110825000D03*
%TD*%
D19*
%TO.C,RGB45*%
X102737500Y-101500000D03*
X102737500Y-100000000D03*
D20*
X97287500Y-100000000D03*
D19*
X97287500Y-101500000D03*
%TD*%
D17*
%TO.C,RGBC33*%
X133187500Y-82450000D03*
X134147500Y-82450000D03*
%TD*%
D35*
%TO.C,R1*%
X123562500Y-108000000D03*
X123562500Y-109020000D03*
%TD*%
D36*
%TO.C,J1*%
X44735000Y-34855000D03*
X50515000Y-34855000D03*
D37*
X44425000Y-35930000D03*
X45225000Y-35930000D03*
D38*
X46375000Y-35930000D03*
X47375000Y-35930000D03*
X47875000Y-35930000D03*
X48875000Y-35930000D03*
D37*
X50025000Y-35930000D03*
X50825000Y-35930000D03*
X50825000Y-35930000D03*
X50025000Y-35930000D03*
D38*
X49375000Y-35930000D03*
X48375000Y-35930000D03*
X46875000Y-35930000D03*
X45875000Y-35930000D03*
D37*
X45225000Y-35930000D03*
X44425000Y-35930000D03*
D39*
X43305000Y-31175000D03*
D40*
X43305000Y-35355000D03*
D39*
X51945000Y-31175000D03*
D40*
X51945000Y-35355000D03*
%TD*%
D17*
%TO.C,RGBC6*%
X137950000Y-44350000D03*
X138910000Y-44350000D03*
%TD*%
D19*
%TO.C,RGB56*%
X67018750Y-120550000D03*
X67018750Y-119050000D03*
D20*
X61568750Y-119050000D03*
D19*
X61568750Y-120550000D03*
%TD*%
D17*
%TO.C,RGBC46*%
X123662500Y-101500000D03*
X124622500Y-101500000D03*
%TD*%
D19*
%TO.C,RGB31*%
X93212500Y-82450000D03*
X93212500Y-80950000D03*
D20*
X87762500Y-80950000D03*
D19*
X87762500Y-82450000D03*
%TD*%
D32*
%TO.C,C7*%
X118837500Y-111795758D03*
X118837500Y-110835758D03*
%TD*%
D17*
%TO.C,RGBC45*%
X104612500Y-101500000D03*
X105572500Y-101500000D03*
%TD*%
D18*
%TO.C,D26*%
X262255000Y-61230000D03*
X262255000Y-59130000D03*
%TD*%
D17*
%TO.C,RGBC11*%
X233200000Y-44350000D03*
X234160000Y-44350000D03*
%TD*%
D19*
%TO.C,RGB25*%
X240850000Y-63400000D03*
X240850000Y-61900000D03*
D20*
X235400000Y-61900000D03*
D19*
X235400000Y-63400000D03*
%TD*%
D17*
%TO.C,RGBC38*%
X228437500Y-82450000D03*
X229397500Y-82450000D03*
%TD*%
%TO.C,RGBC20*%
X147475000Y-63400000D03*
X148435000Y-63400000D03*
%TD*%
D18*
%TO.C,D5*%
X119380000Y-42180000D03*
X119380000Y-40080000D03*
%TD*%
D19*
%TO.C,RGB10*%
X212275000Y-44350000D03*
X212275000Y-42850000D03*
D20*
X206825000Y-42850000D03*
D19*
X206825000Y-44350000D03*
%TD*%
D18*
%TO.C,D12*%
X252730000Y-42180000D03*
X252730000Y-40080000D03*
%TD*%
D22*
%TO.C,RGBC1*%
X40825000Y-35095000D03*
X40825000Y-36055000D03*
%TD*%
D19*
%TO.C,RGB51*%
X217037500Y-101500000D03*
X217037500Y-100000000D03*
D20*
X211587500Y-100000000D03*
D19*
X211587500Y-101500000D03*
%TD*%
D18*
%TO.C,D9*%
X195580000Y-42180000D03*
X195580000Y-40080000D03*
%TD*%
D17*
%TO.C,RGBC39*%
X247487500Y-82450000D03*
X248447500Y-82450000D03*
%TD*%
D19*
%TO.C,RGB8*%
X174175000Y-44350000D03*
X174175000Y-42850000D03*
D20*
X168725000Y-42850000D03*
D19*
X168725000Y-44350000D03*
%TD*%
D18*
%TO.C,D25*%
X243205000Y-61230000D03*
X243205000Y-59130000D03*
%TD*%
D17*
%TO.C,RGBC31*%
X95087500Y-82450000D03*
X96047500Y-82450000D03*
%TD*%
%TO.C,RGBC19*%
X128425000Y-63400000D03*
X129385000Y-63400000D03*
%TD*%
D22*
%TO.C,C6*%
X133587500Y-114250000D03*
X133587500Y-115210000D03*
%TD*%
D17*
%TO.C,RGBC9*%
X195100000Y-44350000D03*
X196060000Y-44350000D03*
%TD*%
%TO.C,RGBC47*%
X142712500Y-101500000D03*
X143672500Y-101500000D03*
%TD*%
D18*
%TO.C,D53*%
X257492500Y-99330000D03*
X257492500Y-97230000D03*
%TD*%
%TO.C,D23*%
X205105000Y-61230000D03*
X205105000Y-59130000D03*
%TD*%
%TO.C,D28*%
X307498750Y-70755000D03*
X307498750Y-68655000D03*
%TD*%
D41*
%TO.C,Y1*%
X135387500Y-117000000D03*
X137587500Y-117000000D03*
X137587500Y-118700000D03*
X135387500Y-118700000D03*
%TD*%
D19*
%TO.C,RGB15*%
X45587500Y-63400000D03*
X45587500Y-61900000D03*
D20*
X40137500Y-61900000D03*
D19*
X40137500Y-63400000D03*
%TD*%
%TO.C,RGB11*%
X231325000Y-44350000D03*
X231325000Y-42850000D03*
D20*
X225875000Y-42850000D03*
D19*
X225875000Y-44350000D03*
%TD*%
D18*
%TO.C,D32*%
X114617500Y-80280000D03*
X114617500Y-78180000D03*
%TD*%
D17*
%TO.C,RGBC48*%
X161762500Y-101500000D03*
X162722500Y-101500000D03*
%TD*%
%TO.C,RGBC55*%
X45081250Y-120550000D03*
X46041250Y-120550000D03*
%TD*%
D19*
%TO.C,RGB32*%
X112262500Y-82450000D03*
X112262500Y-80950000D03*
D20*
X106812500Y-80950000D03*
D19*
X106812500Y-82450000D03*
%TD*%
D18*
%TO.C,D3*%
X81280000Y-42180000D03*
X81280000Y-40080000D03*
%TD*%
D19*
%TO.C,RGB19*%
X126550000Y-63400000D03*
X126550000Y-61900000D03*
D20*
X121100000Y-61900000D03*
D19*
X121100000Y-63400000D03*
%TD*%
D17*
%TO.C,RGBC12*%
X252250000Y-44350000D03*
X253210000Y-44350000D03*
%TD*%
D18*
%TO.C,D42*%
X45561250Y-99330000D03*
X45561250Y-97230000D03*
%TD*%
%TO.C,D36*%
X190817500Y-80280000D03*
X190817500Y-78180000D03*
%TD*%
%TO.C,D33*%
X133667500Y-80280000D03*
X133667500Y-78180000D03*
%TD*%
D19*
%TO.C,RGB30*%
X74162500Y-82450000D03*
X74162500Y-80950000D03*
D20*
X68712500Y-80950000D03*
D19*
X68712500Y-82450000D03*
%TD*%
D17*
%TO.C,RGBC61*%
X283206250Y-120550000D03*
X284166250Y-120550000D03*
%TD*%
D18*
%TO.C,D10*%
X214630000Y-42180000D03*
X214630000Y-40080000D03*
%TD*%
D19*
%TO.C,RGB42*%
X43206250Y-101500000D03*
X43206250Y-100000000D03*
D20*
X37756250Y-100000000D03*
D19*
X37756250Y-101500000D03*
%TD*%
D28*
%TO.C,D1*%
X33020000Y-34020000D03*
X33020000Y-36120000D03*
%TD*%
D19*
%TO.C,RGB39*%
X245612500Y-82450000D03*
X245612500Y-80950000D03*
D20*
X240162500Y-80950000D03*
D19*
X240162500Y-82450000D03*
%TD*%
D18*
%TO.C,D39*%
X247967500Y-80280000D03*
X247967500Y-78180000D03*
%TD*%
%TO.C,D14*%
X300355000Y-42180000D03*
X300355000Y-40080000D03*
%TD*%
%TO.C,D51*%
X219392500Y-99330000D03*
X219392500Y-97230000D03*
%TD*%
%TO.C,D41*%
X286067500Y-80280000D03*
X286067500Y-78180000D03*
%TD*%
D17*
%TO.C,RGBC23*%
X204625000Y-63400000D03*
X205585000Y-63400000D03*
%TD*%
D19*
%TO.C,RGB21*%
X164650000Y-63400000D03*
X164650000Y-61900000D03*
D20*
X159200000Y-61900000D03*
D19*
X159200000Y-63400000D03*
%TD*%
D18*
%TO.C,D47*%
X143192500Y-99330000D03*
X143192500Y-97230000D03*
%TD*%
%TO.C,D40*%
X267017500Y-80280000D03*
X267017500Y-78180000D03*
%TD*%
%TO.C,D37*%
X209867500Y-80280000D03*
X209867500Y-78180000D03*
%TD*%
%TO.C,D52*%
X238442500Y-99330000D03*
X238442500Y-97230000D03*
%TD*%
D17*
%TO.C,RGBC56*%
X68893750Y-120550000D03*
X69853750Y-120550000D03*
%TD*%
D18*
%TO.C,D50*%
X200342500Y-99330000D03*
X200342500Y-97230000D03*
%TD*%
D19*
%TO.C,RGB36*%
X188462500Y-82450000D03*
X188462500Y-80950000D03*
D20*
X183012500Y-80950000D03*
D19*
X183012500Y-82450000D03*
%TD*%
D17*
%TO.C,C17*%
X113890000Y-107425000D03*
X114850000Y-107425000D03*
%TD*%
%TO.C,RGBC40*%
X266537500Y-82450000D03*
X267497500Y-82450000D03*
%TD*%
%TO.C,RGBC36*%
X190337500Y-82450000D03*
X191297500Y-82450000D03*
%TD*%
D18*
%TO.C,D8*%
X176530000Y-42180000D03*
X176530000Y-40080000D03*
%TD*%
D17*
%TO.C,RGBC24*%
X223675000Y-63400000D03*
X224635000Y-63400000D03*
%TD*%
M02*
