%TF.GenerationSoftware,KiCad,Pcbnew,8.0.3*%
%TF.CreationDate,2024-11-28T23:23:16+08:00*%
%TF.ProjectId,PH60_Rev2,50483630-5f52-4657-9632-2e6b69636164,rev?*%
%TF.SameCoordinates,Original*%
%TF.FileFunction,Plated,1,2,PTH,Mixed*%
%TF.FilePolarity,Positive*%
%FSLAX46Y46*%
G04 Gerber Fmt 4.6, Leading zero omitted, Abs format (unit mm)*
G04 Created by KiCad (PCBNEW 8.0.3) date 2024-11-28 23:23:16*
%MOMM*%
%LPD*%
G01*
G04 APERTURE LIST*
%TA.AperFunction,ViaDrill*%
%ADD10C,0.200000*%
%TD*%
%TA.AperFunction,ComponentDrill*%
%ADD11C,0.200000*%
%TD*%
%TA.AperFunction,ViaDrill*%
%ADD12C,0.300000*%
%TD*%
G04 aperture for slot hole*
%TA.AperFunction,ComponentDrill*%
%ADD13C,0.600000*%
%TD*%
%TA.AperFunction,ComponentDrill*%
%ADD14C,1.000000*%
%TD*%
%TA.AperFunction,ComponentDrill*%
%ADD15C,3.050000*%
%TD*%
G04 APERTURE END LIST*
D10*
X143975000Y-112445000D03*
D11*
%TO.C,U3*%
X127550000Y-112050000D03*
X127550000Y-114750000D03*
X130250000Y-112050000D03*
X130250000Y-114750000D03*
%TD*%
D12*
X33020000Y-35070000D03*
X33875000Y-31850000D03*
X37756250Y-99000000D03*
X37756250Y-118050000D03*
X40137500Y-60900000D03*
X41825000Y-35075000D03*
X42518750Y-79950000D03*
X47041250Y-101500000D03*
X47041250Y-120550000D03*
X47299999Y-38575000D03*
X47550000Y-41925000D03*
X48577767Y-45244495D03*
X48750000Y-41925000D03*
X49422500Y-63400000D03*
X51803750Y-82450000D03*
X53825000Y-36075000D03*
X56800000Y-104575000D03*
X56800000Y-105425000D03*
X57450000Y-106050000D03*
X59187500Y-99000000D03*
X61568750Y-118050000D03*
X62230000Y-35070000D03*
X63710000Y-31850000D03*
X63950000Y-60900000D03*
X68472500Y-101500000D03*
X68712500Y-79950000D03*
X70853750Y-120550000D03*
X73235000Y-63400000D03*
X73475000Y-41850000D03*
X77997500Y-82450000D03*
X78237500Y-99000000D03*
X82760000Y-44350000D03*
X83000000Y-60900000D03*
X83325000Y-103075000D03*
X85381250Y-118050000D03*
X87075000Y-41250000D03*
X87522500Y-101500000D03*
X87762500Y-79950000D03*
X90174991Y-98400000D03*
X90174991Y-100600000D03*
X90350000Y-105450000D03*
X90375000Y-104625000D03*
X90974994Y-100600000D03*
X91774997Y-100600000D03*
X91825000Y-103999999D03*
X92285000Y-63400000D03*
X92525000Y-41850000D03*
X92575000Y-100600000D03*
X94666250Y-120550000D03*
X96099576Y-103075000D03*
X97047500Y-82450000D03*
X97287500Y-99000000D03*
X97870000Y-60500000D03*
X100075000Y-79550000D03*
X101810000Y-44350000D03*
X102050000Y-60900000D03*
X106572500Y-101500000D03*
X106812500Y-79950000D03*
X111335000Y-63400000D03*
X111575000Y-41850000D03*
X113225000Y-113775000D03*
X113875000Y-113250000D03*
X116097500Y-82450000D03*
X116337500Y-99000000D03*
X117607500Y-112600000D03*
X118015000Y-116005000D03*
X118837500Y-109835758D03*
X119705608Y-113600000D03*
X120860000Y-44350000D03*
X121100000Y-60900000D03*
X122587500Y-109000000D03*
X123212500Y-98400000D03*
X124607500Y-107750000D03*
X125567500Y-107750000D03*
X125622500Y-101500000D03*
X125862500Y-79950000D03*
X126100000Y-100000000D03*
X129825000Y-103075000D03*
X130107500Y-119250000D03*
X130385000Y-63400000D03*
X130625000Y-41850000D03*
X131325000Y-106115000D03*
X133325000Y-101500000D03*
X133587500Y-116210000D03*
X135075000Y-97075000D03*
X135147500Y-82450000D03*
X135387500Y-99000000D03*
X138987500Y-119600000D03*
X139910000Y-44350000D03*
X140150000Y-60900000D03*
X140247500Y-118340000D03*
X143192500Y-98400000D03*
X144672500Y-101075000D03*
X144912500Y-79950000D03*
X145800368Y-100001103D03*
X146075000Y-103075000D03*
X146575000Y-105320000D03*
X149435000Y-63400000D03*
X149675000Y-41850000D03*
X152752500Y-98400000D03*
X152752500Y-101500000D03*
X154197500Y-82450000D03*
X154437500Y-99000000D03*
X156818750Y-118050000D03*
X158960000Y-44350000D03*
X159200000Y-60900000D03*
X163722500Y-101500000D03*
X163962500Y-79950000D03*
X166103750Y-120550000D03*
X168485000Y-63400000D03*
X168725000Y-41850000D03*
X173247500Y-82450000D03*
X173487500Y-99000000D03*
X178010000Y-44350000D03*
X178250000Y-60900000D03*
X182772500Y-101500000D03*
X183012500Y-79950000D03*
X187535000Y-63400000D03*
X187775000Y-41850000D03*
X192297500Y-82450000D03*
X192537500Y-99000000D03*
X197060000Y-44350000D03*
X197300000Y-60900000D03*
X201822500Y-101500000D03*
X202062500Y-79950000D03*
X206585000Y-63400000D03*
X206825000Y-41850000D03*
X211347500Y-82450000D03*
X211587500Y-99000000D03*
X216110000Y-44350000D03*
X216350000Y-60900000D03*
X220872500Y-101500000D03*
X221112500Y-79950000D03*
X225635000Y-63400000D03*
X225875000Y-41850000D03*
X228256250Y-118050000D03*
X230397500Y-82450000D03*
X230637500Y-99000000D03*
X235160000Y-44350000D03*
X235400000Y-60900000D03*
X237541250Y-120550000D03*
X239922500Y-101500000D03*
X240162500Y-79950000D03*
X244685000Y-63400000D03*
X244925000Y-41850000D03*
X249447500Y-82450000D03*
X249687500Y-99000000D03*
X252068750Y-118050000D03*
X254210000Y-44350000D03*
X254450000Y-60900000D03*
X258972500Y-101500000D03*
X259212500Y-79950000D03*
X261353750Y-120550000D03*
X263735000Y-63400000D03*
X263975000Y-41850000D03*
X268497500Y-82450000D03*
X273260000Y-44350000D03*
X273500000Y-60900000D03*
X275881250Y-118050000D03*
X278262500Y-79950000D03*
X282785000Y-63400000D03*
X285166250Y-120550000D03*
X285406250Y-99000000D03*
X287547500Y-82450000D03*
X292550000Y-41850000D03*
X294691250Y-101500000D03*
X299693750Y-70425000D03*
X299693750Y-118050000D03*
X301835000Y-44350000D03*
X308978750Y-72925000D03*
X308978750Y-120550000D03*
D13*
%TO.C,J1*%
X43305000Y-31575000D02*
X43305000Y-30775000D01*
X43305000Y-35905000D02*
X43305000Y-34805000D01*
X51945000Y-31575000D02*
X51945000Y-30775000D01*
X51945000Y-35905000D02*
X51945000Y-34805000D01*
D14*
%TO.C,J2*%
X118547500Y-106500000D03*
X121087500Y-106500000D03*
D15*
%TO.C,S1*%
X35560000Y-43180000D03*
%TO.C,S42*%
X36671250Y-92710000D03*
%TO.C,S55*%
X36671250Y-111760000D03*
%TO.C,S15*%
X39052500Y-54610000D03*
%TO.C,S29*%
X41433750Y-73660000D03*
%TO.C,S1*%
X41910000Y-40640000D03*
%TO.C,S42*%
X43021250Y-90170000D03*
%TO.C,S55*%
X43021250Y-109220000D03*
%TO.C,S15*%
X45402500Y-52070000D03*
%TO.C,S29*%
X47783750Y-71120000D03*
%TO.C,S2*%
X54610000Y-43180000D03*
%TO.C,S43*%
X58102500Y-92710000D03*
%TO.C,S56*%
X60483750Y-111760000D03*
%TO.C,S2*%
X60960000Y-40640000D03*
%TO.C,S16*%
X62865000Y-54610000D03*
%TO.C,S43*%
X64452500Y-90170000D03*
%TO.C,S56*%
X66833750Y-109220000D03*
%TO.C,S30*%
X67627500Y-73660000D03*
%TO.C,S16*%
X69215000Y-52070000D03*
%TO.C,S3*%
X72390000Y-35560000D03*
%TO.C,S30*%
X73977500Y-71120000D03*
%TO.C,S44*%
X77152500Y-92710000D03*
%TO.C,S3*%
X78740000Y-33020000D03*
%TO.C,S17*%
X81915000Y-54610000D03*
%TO.C,S44*%
X83502500Y-90170000D03*
%TO.C,S57*%
X84296250Y-111760000D03*
%TO.C,S31*%
X86677500Y-73660000D03*
%TO.C,S17*%
X88265000Y-52070000D03*
%TO.C,S57*%
X90646250Y-109220000D03*
%TO.C,S4*%
X91440000Y-35560000D03*
%TO.C,S31*%
X93027500Y-71120000D03*
%TO.C,S45*%
X96202500Y-92710000D03*
%TO.C,S4*%
X97790000Y-33020000D03*
%TO.C,S18*%
X100965000Y-54610000D03*
%TO.C,S45*%
X102552500Y-90170000D03*
%TO.C,S32*%
X105727500Y-73660000D03*
%TO.C,S18*%
X107315000Y-52070000D03*
%TO.C,S5*%
X110490000Y-35560000D03*
%TO.C,S32*%
X112077500Y-71120000D03*
%TO.C,S46*%
X115252500Y-92710000D03*
%TO.C,S5*%
X116840000Y-33020000D03*
%TO.C,S19*%
X120015000Y-54610000D03*
%TO.C,S46*%
X121602500Y-90170000D03*
%TO.C,S33*%
X124777500Y-73660000D03*
%TO.C,S19*%
X126365000Y-52070000D03*
%TO.C,S6*%
X129540000Y-35560000D03*
%TO.C,S33*%
X131127500Y-71120000D03*
%TO.C,S47*%
X134302500Y-92710000D03*
%TO.C,S6*%
X135890000Y-33020000D03*
%TO.C,S20*%
X139065000Y-54610000D03*
%TO.C,S47*%
X140652500Y-90170000D03*
%TO.C,S34*%
X143827500Y-73660000D03*
%TO.C,S20*%
X145415000Y-52070000D03*
%TO.C,S7*%
X148590000Y-35560000D03*
%TO.C,S34*%
X150177500Y-71120000D03*
%TO.C,S48*%
X153352500Y-92710000D03*
%TO.C,S7*%
X154940000Y-33020000D03*
%TO.C,S58*%
X155733750Y-111760000D03*
%TO.C,S21*%
X158115000Y-54610000D03*
%TO.C,S48*%
X159702500Y-90170000D03*
%TO.C,S58*%
X162083750Y-109220000D03*
%TO.C,S35*%
X162877500Y-73660000D03*
%TO.C,S21*%
X164465000Y-52070000D03*
%TO.C,S8*%
X167640000Y-35560000D03*
%TO.C,S35*%
X169227500Y-71120000D03*
%TO.C,S49*%
X172402500Y-92710000D03*
%TO.C,S8*%
X173990000Y-33020000D03*
%TO.C,S22*%
X177165000Y-54610000D03*
%TO.C,S49*%
X178752500Y-90170000D03*
%TO.C,S36*%
X181927500Y-73660000D03*
%TO.C,S22*%
X183515000Y-52070000D03*
%TO.C,S9*%
X186690000Y-35560000D03*
%TO.C,S36*%
X188277500Y-71120000D03*
%TO.C,S50*%
X191452500Y-92710000D03*
%TO.C,S9*%
X193040000Y-33020000D03*
%TO.C,S23*%
X196215000Y-54610000D03*
%TO.C,S50*%
X197802500Y-90170000D03*
%TO.C,S37*%
X200977500Y-73660000D03*
%TO.C,S23*%
X202565000Y-52070000D03*
%TO.C,S10*%
X205740000Y-35560000D03*
%TO.C,S37*%
X207327500Y-71120000D03*
%TO.C,S51*%
X210502500Y-92710000D03*
%TO.C,S10*%
X212090000Y-33020000D03*
%TO.C,S24*%
X215265000Y-54610000D03*
%TO.C,S51*%
X216852500Y-90170000D03*
%TO.C,S38*%
X220027500Y-73660000D03*
%TO.C,S24*%
X221615000Y-52070000D03*
%TO.C,S11*%
X224790000Y-35560000D03*
%TO.C,S38*%
X226377500Y-71120000D03*
%TO.C,S59*%
X227171250Y-111760000D03*
%TO.C,S52*%
X229552500Y-92710000D03*
%TO.C,S11*%
X231140000Y-33020000D03*
%TO.C,S59*%
X233521250Y-109220000D03*
%TO.C,S25*%
X234315000Y-54610000D03*
%TO.C,S52*%
X235902500Y-90170000D03*
%TO.C,S39*%
X239077500Y-73660000D03*
%TO.C,S25*%
X240665000Y-52070000D03*
%TO.C,S12*%
X243840000Y-35560000D03*
%TO.C,S39*%
X245427500Y-71120000D03*
%TO.C,S53*%
X248602500Y-92710000D03*
%TO.C,S12*%
X250190000Y-33020000D03*
%TO.C,S60*%
X250983750Y-111760000D03*
%TO.C,S26*%
X253365000Y-54610000D03*
%TO.C,S53*%
X254952500Y-90170000D03*
%TO.C,S60*%
X257333750Y-109220000D03*
%TO.C,S40*%
X258127500Y-73660000D03*
%TO.C,S26*%
X259715000Y-52070000D03*
%TO.C,S13*%
X262890000Y-35560000D03*
%TO.C,S40*%
X264477500Y-71120000D03*
%TO.C,S13*%
X269240000Y-33020000D03*
%TO.C,S27*%
X272415000Y-54610000D03*
%TO.C,S61*%
X274796250Y-111760000D03*
%TO.C,S41*%
X277177500Y-73660000D03*
%TO.C,S27*%
X278765000Y-52070000D03*
%TO.C,S61*%
X281146250Y-109220000D03*
%TO.C,S41*%
X283527500Y-71120000D03*
%TO.C,S54*%
X284321250Y-92710000D03*
X290671250Y-90170000D03*
%TO.C,S14*%
X291465000Y-35560000D03*
X297815000Y-33020000D03*
%TO.C,S28*%
X298608750Y-64135000D03*
%TO.C,S62*%
X298608750Y-111760000D03*
%TO.C,S28*%
X304958750Y-61595000D03*
%TO.C,S62*%
X304958750Y-109220000D03*
M02*
