%TF.GenerationSoftware,KiCad,Pcbnew,8.0.3*%
%TF.CreationDate,2024-10-19T17:43:03+08:00*%
%TF.ProjectId,PH60_Rev1,50483630-5f52-4657-9631-2e6b69636164,rev?*%
%TF.SameCoordinates,Original*%
%TF.FileFunction,Plated,1,4,PTH,Drill*%
%TF.FilePolarity,Positive*%
%FSLAX46Y46*%
G04 Gerber Fmt 4.6, Leading zero omitted, Abs format (unit mm)*
G04 Created by KiCad (PCBNEW 8.0.3) date 2024-10-19 17:43:03*
%MOMM*%
%LPD*%
G01*
G04 APERTURE LIST*
%TA.AperFunction,ViaDrill*%
%ADD10C,0.300000*%
%TD*%
%TA.AperFunction,ComponentDrill*%
%ADD11C,0.500000*%
%TD*%
G04 APERTURE END LIST*
D10*
X43950000Y-34975000D03*
X46325000Y-92125000D03*
X46325000Y-111175000D03*
X48725000Y-54025000D03*
X51100000Y-73075000D03*
X63000000Y-34975000D03*
X67775000Y-92125000D03*
X70150000Y-111175000D03*
X72525000Y-54025000D03*
X77300000Y-73075000D03*
X82050000Y-34975000D03*
X86825000Y-92125000D03*
X91575000Y-54025000D03*
X93950000Y-111175000D03*
X96350000Y-73075000D03*
X101100000Y-34975000D03*
X105875000Y-92125000D03*
X110625000Y-54025000D03*
X115400000Y-73075000D03*
X120150000Y-34975000D03*
X124925000Y-92125000D03*
X129675000Y-54025000D03*
X129875000Y-118025000D03*
X131825000Y-111425000D03*
X132825000Y-118975000D03*
X134450000Y-73075000D03*
X135475000Y-117475000D03*
X135475000Y-118275003D03*
X135475000Y-120325000D03*
X139200000Y-34975000D03*
X139675000Y-118975000D03*
X140024985Y-109625000D03*
X140824988Y-109625000D03*
X141146700Y-111653300D03*
X141624991Y-109625000D03*
X141625000Y-120725000D03*
X141775000Y-104075000D03*
X141775000Y-107275000D03*
X142424994Y-109625000D03*
X142725000Y-108225000D03*
X143224997Y-109625000D03*
X143975000Y-92125000D03*
X144025000Y-109625000D03*
X144225000Y-116125000D03*
X144825003Y-109625000D03*
X145225000Y-120725000D03*
X145425000Y-111161240D03*
X145625006Y-109625000D03*
X146425009Y-109625000D03*
X147225012Y-109625000D03*
X148025015Y-109625000D03*
X148725000Y-54025000D03*
X148825000Y-117575000D03*
X148825000Y-118375003D03*
X148825000Y-119175006D03*
X148825018Y-109625000D03*
X149010209Y-116796732D03*
X149425000Y-110325000D03*
X149425000Y-111173528D03*
X149425000Y-112274991D03*
X149425000Y-113074994D03*
X150019692Y-114659101D03*
X150032108Y-115517892D03*
X150042748Y-113859431D03*
X150675000Y-109075000D03*
X153500000Y-73075000D03*
X153598525Y-109798525D03*
X156625000Y-118025000D03*
X157525000Y-43475000D03*
X158250000Y-34975000D03*
X162675000Y-101600000D03*
X163025000Y-92125000D03*
X165400000Y-111175000D03*
X166075000Y-101575000D03*
X167025000Y-62525000D03*
X167775000Y-54025000D03*
X170325000Y-115475000D03*
X170325000Y-118425000D03*
X171275000Y-118425000D03*
X171775000Y-81575000D03*
X172225000Y-118425000D03*
X172550000Y-73075000D03*
X173175000Y-118425000D03*
X177300000Y-34975000D03*
X181325000Y-107775000D03*
X181325000Y-109975000D03*
X182075000Y-92125000D03*
X186825000Y-54025000D03*
X191600000Y-73075000D03*
X191925000Y-112425000D03*
X192925000Y-112425000D03*
X193925000Y-112425000D03*
X196375000Y-34975000D03*
X201125000Y-92125000D03*
X205875000Y-54025000D03*
X210650000Y-73075000D03*
X215425000Y-34975000D03*
X220175000Y-92125000D03*
X224925000Y-54025000D03*
X229700000Y-73075000D03*
X234450000Y-34975000D03*
X236825000Y-111175000D03*
X239225000Y-92125000D03*
X243975000Y-54025000D03*
X248750000Y-73075000D03*
X253500000Y-34975000D03*
X258275000Y-92125000D03*
X260650000Y-111175000D03*
X263025000Y-54025000D03*
X267800000Y-73075000D03*
X272550000Y-34975000D03*
X282075000Y-54025000D03*
X284475000Y-111175000D03*
X286850000Y-73075000D03*
X293975000Y-92125000D03*
X301125000Y-34975000D03*
X308275000Y-63550000D03*
X308275000Y-111175000D03*
D11*
%TO.C,J2*%
X134375000Y-106075000D03*
X134375000Y-107075000D03*
M02*
