%TF.GenerationSoftware,KiCad,Pcbnew,8.0.3*%
%TF.CreationDate,2024-10-19T17:43:03+08:00*%
%TF.ProjectId,PH60_Rev1,50483630-5f52-4657-9631-2e6b69636164,rev?*%
%TF.SameCoordinates,Original*%
%TF.FileFunction,NonPlated,1,4,NPTH,Drill*%
%TF.FilePolarity,Positive*%
%FSLAX46Y46*%
G04 Gerber Fmt 4.6, Leading zero omitted, Abs format (unit mm)*
G04 Created by KiCad (PCBNEW 8.0.3) date 2024-10-19 17:43:03*
%MOMM*%
%LPD*%
G01*
G04 APERTURE LIST*
%TA.AperFunction,ComponentDrill*%
%ADD10C,1.750000*%
%TD*%
%TA.AperFunction,ComponentDrill*%
%ADD11C,3.050000*%
%TD*%
%TA.AperFunction,ComponentDrill*%
%ADD12C,4.000000*%
%TD*%
G04 APERTURE END LIST*
D10*
%TO.C,S1*%
X33020000Y-38100000D03*
%TO.C,S42*%
X35401250Y-95250000D03*
%TO.C,S55*%
X35401250Y-114300000D03*
%TO.C,S15*%
X37782500Y-57150000D03*
%TO.C,S29*%
X40163750Y-76200000D03*
%TO.C,S1*%
X43180000Y-38100000D03*
%TO.C,S42*%
X45561250Y-95250000D03*
%TO.C,S55*%
X45561250Y-114300000D03*
%TO.C,S15*%
X47942500Y-57150000D03*
%TO.C,S29*%
X50323750Y-76200000D03*
%TO.C,S2*%
X52070000Y-38100000D03*
%TO.C,S43*%
X56832500Y-95250000D03*
%TO.C,S56*%
X59213750Y-114300000D03*
%TO.C,S16*%
X61595000Y-57150000D03*
%TO.C,S2*%
X62230000Y-38100000D03*
%TO.C,S30*%
X66357500Y-76200000D03*
%TO.C,S43*%
X66992500Y-95250000D03*
%TO.C,S56*%
X69373750Y-114300000D03*
%TO.C,S3*%
X71120000Y-38100000D03*
%TO.C,S16*%
X71755000Y-57150000D03*
%TO.C,S44*%
X75882500Y-95250000D03*
%TO.C,S30*%
X76517500Y-76200000D03*
%TO.C,S17*%
X80645000Y-57150000D03*
%TO.C,S3*%
X81280000Y-38100000D03*
%TO.C,S57*%
X83026250Y-114300000D03*
%TO.C,S31*%
X85407500Y-76200000D03*
%TO.C,S44*%
X86042500Y-95250000D03*
%TO.C,S4*%
X90170000Y-38100000D03*
%TO.C,S17*%
X90805000Y-57150000D03*
%TO.C,S57*%
X93186250Y-114300000D03*
%TO.C,S45*%
X94932500Y-95250000D03*
%TO.C,S31*%
X95567500Y-76200000D03*
%TO.C,S18*%
X99695000Y-57150000D03*
%TO.C,S4*%
X100330000Y-38100000D03*
%TO.C,S32*%
X104457500Y-76200000D03*
%TO.C,S45*%
X105092500Y-95250000D03*
%TO.C,S5*%
X109220000Y-38100000D03*
%TO.C,S18*%
X109855000Y-57150000D03*
%TO.C,S46*%
X113982500Y-95250000D03*
%TO.C,S32*%
X114617500Y-76200000D03*
%TO.C,S19*%
X118745000Y-57150000D03*
%TO.C,S5*%
X119380000Y-38100000D03*
%TO.C,S33*%
X123507500Y-76200000D03*
%TO.C,S46*%
X124142500Y-95250000D03*
%TO.C,S6*%
X128270000Y-38100000D03*
%TO.C,S19*%
X128905000Y-57150000D03*
%TO.C,S47*%
X133032500Y-95250000D03*
%TO.C,S33*%
X133667500Y-76200000D03*
%TO.C,S20*%
X137795000Y-57150000D03*
%TO.C,S6*%
X138430000Y-38100000D03*
%TO.C,S34*%
X142557500Y-76200000D03*
%TO.C,S47*%
X143192500Y-95250000D03*
%TO.C,S7*%
X147320000Y-38100000D03*
%TO.C,S20*%
X147955000Y-57150000D03*
%TO.C,S48*%
X152082500Y-95250000D03*
%TO.C,S34*%
X152717500Y-76200000D03*
%TO.C,S58*%
X154463750Y-114300000D03*
%TO.C,S21*%
X156845000Y-57150000D03*
%TO.C,S7*%
X157480000Y-38100000D03*
%TO.C,S35*%
X161607500Y-76200000D03*
%TO.C,S48*%
X162242500Y-95250000D03*
%TO.C,S58*%
X164623750Y-114300000D03*
%TO.C,S8*%
X166370000Y-38100000D03*
%TO.C,S21*%
X167005000Y-57150000D03*
%TO.C,S49*%
X171132500Y-95250000D03*
%TO.C,S35*%
X171767500Y-76200000D03*
%TO.C,S22*%
X175895000Y-57150000D03*
%TO.C,S8*%
X176530000Y-38100000D03*
%TO.C,S36*%
X180657500Y-76200000D03*
%TO.C,S49*%
X181292500Y-95250000D03*
%TO.C,S9*%
X185420000Y-38100000D03*
%TO.C,S22*%
X186055000Y-57150000D03*
%TO.C,S50*%
X190182500Y-95250000D03*
%TO.C,S36*%
X190817500Y-76200000D03*
%TO.C,S23*%
X194945000Y-57150000D03*
%TO.C,S9*%
X195580000Y-38100000D03*
%TO.C,S37*%
X199707500Y-76200000D03*
%TO.C,S50*%
X200342500Y-95250000D03*
%TO.C,S10*%
X204470000Y-38100000D03*
%TO.C,S23*%
X205105000Y-57150000D03*
%TO.C,S51*%
X209232500Y-95250000D03*
%TO.C,S37*%
X209867500Y-76200000D03*
%TO.C,S24*%
X213995000Y-57150000D03*
%TO.C,S10*%
X214630000Y-38100000D03*
%TO.C,S38*%
X218757500Y-76200000D03*
%TO.C,S51*%
X219392500Y-95250000D03*
%TO.C,S11*%
X223520000Y-38100000D03*
%TO.C,S24*%
X224155000Y-57150000D03*
%TO.C,S59*%
X225901250Y-114300000D03*
%TO.C,S52*%
X228282500Y-95250000D03*
%TO.C,S38*%
X228917500Y-76200000D03*
%TO.C,S25*%
X233045000Y-57150000D03*
%TO.C,S11*%
X233680000Y-38100000D03*
%TO.C,S59*%
X236061250Y-114300000D03*
%TO.C,S39*%
X237807500Y-76200000D03*
%TO.C,S52*%
X238442500Y-95250000D03*
%TO.C,S12*%
X242570000Y-38100000D03*
%TO.C,S25*%
X243205000Y-57150000D03*
%TO.C,S53*%
X247332500Y-95250000D03*
%TO.C,S39*%
X247967500Y-76200000D03*
%TO.C,S60*%
X249713750Y-114300000D03*
%TO.C,S26*%
X252095000Y-57150000D03*
%TO.C,S12*%
X252730000Y-38100000D03*
%TO.C,S40*%
X256857500Y-76200000D03*
%TO.C,S53*%
X257492500Y-95250000D03*
%TO.C,S60*%
X259873750Y-114300000D03*
%TO.C,S13*%
X261620000Y-38100000D03*
%TO.C,S26*%
X262255000Y-57150000D03*
%TO.C,S40*%
X267017500Y-76200000D03*
%TO.C,S27*%
X271145000Y-57150000D03*
%TO.C,S13*%
X271780000Y-38100000D03*
%TO.C,S61*%
X273526250Y-114300000D03*
%TO.C,S41*%
X275907500Y-76200000D03*
%TO.C,S27*%
X281305000Y-57150000D03*
%TO.C,S54*%
X283051250Y-95250000D03*
%TO.C,S61*%
X283686250Y-114300000D03*
%TO.C,S41*%
X286067500Y-76200000D03*
%TO.C,S14*%
X290195000Y-38100000D03*
%TO.C,S54*%
X293211250Y-95250000D03*
%TO.C,S28*%
X297338750Y-66675000D03*
%TO.C,S62*%
X297338750Y-114300000D03*
%TO.C,S14*%
X300355000Y-38100000D03*
%TO.C,S28*%
X307498750Y-66675000D03*
%TO.C,S62*%
X307498750Y-114300000D03*
D11*
%TO.C,S1*%
X34290000Y-35560000D03*
%TO.C,S42*%
X36671250Y-92710000D03*
%TO.C,S55*%
X36671250Y-111760000D03*
%TO.C,S15*%
X39052500Y-54610000D03*
%TO.C,S1*%
X40640000Y-33020000D03*
%TO.C,S29*%
X41433750Y-73660000D03*
%TO.C,S42*%
X43021250Y-90170000D03*
%TO.C,S55*%
X43021250Y-109220000D03*
%TO.C,S15*%
X45402500Y-52070000D03*
%TO.C,S29*%
X47783750Y-71120000D03*
%TO.C,S2*%
X53340000Y-35560000D03*
%TO.C,S43*%
X58102500Y-92710000D03*
%TO.C,S2*%
X59690000Y-33020000D03*
%TO.C,S56*%
X60483750Y-111760000D03*
%TO.C,S16*%
X62865000Y-54610000D03*
%TO.C,S43*%
X64452500Y-90170000D03*
%TO.C,S56*%
X66833750Y-109220000D03*
%TO.C,S30*%
X67627500Y-73660000D03*
%TO.C,S16*%
X69215000Y-52070000D03*
%TO.C,S3*%
X72390000Y-35560000D03*
%TO.C,S30*%
X73977500Y-71120000D03*
%TO.C,S44*%
X77152500Y-92710000D03*
%TO.C,S3*%
X78740000Y-33020000D03*
%TO.C,S17*%
X81915000Y-54610000D03*
%TO.C,S44*%
X83502500Y-90170000D03*
%TO.C,S57*%
X84296250Y-111760000D03*
%TO.C,S31*%
X86677500Y-73660000D03*
%TO.C,S17*%
X88265000Y-52070000D03*
%TO.C,S57*%
X90646250Y-109220000D03*
%TO.C,S4*%
X91440000Y-35560000D03*
%TO.C,S31*%
X93027500Y-71120000D03*
%TO.C,S45*%
X96202500Y-92710000D03*
%TO.C,S4*%
X97790000Y-33020000D03*
%TO.C,S18*%
X100965000Y-54610000D03*
%TO.C,S45*%
X102552500Y-90170000D03*
%TO.C,S32*%
X105727500Y-73660000D03*
%TO.C,S18*%
X107315000Y-52070000D03*
%TO.C,S5*%
X110490000Y-35560000D03*
%TO.C,S32*%
X112077500Y-71120000D03*
%TO.C,S46*%
X115252500Y-92710000D03*
%TO.C,S5*%
X116840000Y-33020000D03*
%TO.C,S19*%
X120015000Y-54610000D03*
%TO.C,S46*%
X121602500Y-90170000D03*
%TO.C,S33*%
X124777500Y-73660000D03*
%TO.C,S19*%
X126365000Y-52070000D03*
%TO.C,S6*%
X129540000Y-35560000D03*
%TO.C,S33*%
X131127500Y-71120000D03*
%TO.C,S47*%
X134302500Y-92710000D03*
%TO.C,S6*%
X135890000Y-33020000D03*
%TO.C,S20*%
X139065000Y-54610000D03*
%TO.C,S47*%
X140652500Y-90170000D03*
%TO.C,S34*%
X143827500Y-73660000D03*
%TO.C,S20*%
X145415000Y-52070000D03*
%TO.C,S7*%
X148590000Y-35560000D03*
%TO.C,S34*%
X150177500Y-71120000D03*
%TO.C,S48*%
X153352500Y-92710000D03*
%TO.C,S7*%
X154940000Y-33020000D03*
%TO.C,S58*%
X155733750Y-111760000D03*
%TO.C,S21*%
X158115000Y-54610000D03*
%TO.C,S48*%
X159702500Y-90170000D03*
%TO.C,S58*%
X162083750Y-109220000D03*
%TO.C,S35*%
X162877500Y-73660000D03*
%TO.C,S21*%
X164465000Y-52070000D03*
%TO.C,S8*%
X167640000Y-35560000D03*
%TO.C,S35*%
X169227500Y-71120000D03*
%TO.C,S49*%
X172402500Y-92710000D03*
%TO.C,S8*%
X173990000Y-33020000D03*
%TO.C,S22*%
X177165000Y-54610000D03*
%TO.C,S49*%
X178752500Y-90170000D03*
%TO.C,S36*%
X181927500Y-73660000D03*
%TO.C,S22*%
X183515000Y-52070000D03*
%TO.C,S9*%
X186690000Y-35560000D03*
%TO.C,S36*%
X188277500Y-71120000D03*
%TO.C,S50*%
X191452500Y-92710000D03*
%TO.C,S9*%
X193040000Y-33020000D03*
%TO.C,S23*%
X196215000Y-54610000D03*
%TO.C,S50*%
X197802500Y-90170000D03*
%TO.C,S37*%
X200977500Y-73660000D03*
%TO.C,S23*%
X202565000Y-52070000D03*
%TO.C,S10*%
X205740000Y-35560000D03*
%TO.C,S37*%
X207327500Y-71120000D03*
%TO.C,S51*%
X210502500Y-92710000D03*
%TO.C,S10*%
X212090000Y-33020000D03*
%TO.C,S24*%
X215265000Y-54610000D03*
%TO.C,S51*%
X216852500Y-90170000D03*
%TO.C,S38*%
X220027500Y-73660000D03*
%TO.C,S24*%
X221615000Y-52070000D03*
%TO.C,S11*%
X224790000Y-35560000D03*
%TO.C,S38*%
X226377500Y-71120000D03*
%TO.C,S59*%
X227171250Y-111760000D03*
%TO.C,S52*%
X229552500Y-92710000D03*
%TO.C,S11*%
X231140000Y-33020000D03*
%TO.C,S59*%
X233521250Y-109220000D03*
%TO.C,S25*%
X234315000Y-54610000D03*
%TO.C,S52*%
X235902500Y-90170000D03*
%TO.C,S39*%
X239077500Y-73660000D03*
%TO.C,S25*%
X240665000Y-52070000D03*
%TO.C,S12*%
X243840000Y-35560000D03*
%TO.C,S39*%
X245427500Y-71120000D03*
%TO.C,S53*%
X248602500Y-92710000D03*
%TO.C,S12*%
X250190000Y-33020000D03*
%TO.C,S60*%
X250983750Y-111760000D03*
%TO.C,S26*%
X253365000Y-54610000D03*
%TO.C,S53*%
X254952500Y-90170000D03*
%TO.C,S60*%
X257333750Y-109220000D03*
%TO.C,S40*%
X258127500Y-73660000D03*
%TO.C,S26*%
X259715000Y-52070000D03*
%TO.C,S13*%
X262890000Y-35560000D03*
%TO.C,S40*%
X264477500Y-71120000D03*
%TO.C,S13*%
X269240000Y-33020000D03*
%TO.C,S27*%
X272415000Y-54610000D03*
%TO.C,S61*%
X274796250Y-111760000D03*
%TO.C,S41*%
X277177500Y-73660000D03*
%TO.C,S27*%
X278765000Y-52070000D03*
%TO.C,S61*%
X281146250Y-109220000D03*
%TO.C,S41*%
X283527500Y-71120000D03*
%TO.C,S54*%
X284321250Y-92710000D03*
X290671250Y-90170000D03*
%TO.C,S14*%
X291465000Y-35560000D03*
X297815000Y-33020000D03*
%TO.C,S28*%
X298608750Y-64135000D03*
%TO.C,S62*%
X298608750Y-111760000D03*
%TO.C,S28*%
X304958750Y-61595000D03*
%TO.C,S62*%
X304958750Y-109220000D03*
D12*
%TO.C,S1*%
X38100000Y-38100000D03*
%TO.C,S42*%
X40481250Y-95250000D03*
%TO.C,S55*%
X40481250Y-114300000D03*
%TO.C,S15*%
X42862500Y-57150000D03*
%TO.C,S29*%
X45243750Y-76200000D03*
%TO.C,S2*%
X57150000Y-38100000D03*
%TO.C,S43*%
X61912500Y-95250000D03*
%TO.C,S56*%
X64293750Y-114300000D03*
%TO.C,S16*%
X66675000Y-57150000D03*
%TO.C,S30*%
X71437500Y-76200000D03*
%TO.C,S3*%
X76200000Y-38100000D03*
%TO.C,S44*%
X80962500Y-95250000D03*
%TO.C,S17*%
X85725000Y-57150000D03*
%TO.C,S57*%
X88106250Y-114300000D03*
%TO.C,S31*%
X90487500Y-76200000D03*
%TO.C,S4*%
X95250000Y-38100000D03*
%TO.C,S45*%
X100012500Y-95250000D03*
%TO.C,S18*%
X104775000Y-57150000D03*
%TO.C,S32*%
X109537500Y-76200000D03*
%TO.C,S5*%
X114300000Y-38100000D03*
%TO.C,S46*%
X119062500Y-95250000D03*
%TO.C,S19*%
X123825000Y-57150000D03*
%TO.C,S33*%
X128587500Y-76200000D03*
%TO.C,S6*%
X133350000Y-38100000D03*
%TO.C,S47*%
X138112500Y-95250000D03*
%TO.C,S20*%
X142875000Y-57150000D03*
%TO.C,S34*%
X147637500Y-76200000D03*
%TO.C,S7*%
X152400000Y-38100000D03*
%TO.C,S48*%
X157162500Y-95250000D03*
%TO.C,S58*%
X159543750Y-114300000D03*
%TO.C,S21*%
X161925000Y-57150000D03*
%TO.C,S35*%
X166687500Y-76200000D03*
%TO.C,S8*%
X171450000Y-38100000D03*
%TO.C,S49*%
X176212500Y-95250000D03*
%TO.C,S22*%
X180975000Y-57150000D03*
%TO.C,S36*%
X185737500Y-76200000D03*
%TO.C,S9*%
X190500000Y-38100000D03*
%TO.C,S50*%
X195262500Y-95250000D03*
%TO.C,S23*%
X200025000Y-57150000D03*
%TO.C,S37*%
X204787500Y-76200000D03*
%TO.C,S10*%
X209550000Y-38100000D03*
%TO.C,S51*%
X214312500Y-95250000D03*
%TO.C,S24*%
X219075000Y-57150000D03*
%TO.C,S38*%
X223837500Y-76200000D03*
%TO.C,S11*%
X228600000Y-38100000D03*
%TO.C,S59*%
X230981250Y-114300000D03*
%TO.C,S52*%
X233362500Y-95250000D03*
%TO.C,S25*%
X238125000Y-57150000D03*
%TO.C,S39*%
X242887500Y-76200000D03*
%TO.C,S12*%
X247650000Y-38100000D03*
%TO.C,S53*%
X252412500Y-95250000D03*
%TO.C,S60*%
X254793750Y-114300000D03*
%TO.C,S26*%
X257175000Y-57150000D03*
%TO.C,S40*%
X261937500Y-76200000D03*
%TO.C,S13*%
X266700000Y-38100000D03*
%TO.C,S27*%
X276225000Y-57150000D03*
%TO.C,S61*%
X278606250Y-114300000D03*
%TO.C,S41*%
X280987500Y-76200000D03*
%TO.C,S54*%
X288131250Y-95250000D03*
%TO.C,S14*%
X295275000Y-38100000D03*
%TO.C,S28*%
X302418750Y-66675000D03*
%TO.C,S62*%
X302418750Y-114300000D03*
M02*
