%TF.GenerationSoftware,KiCad,Pcbnew,8.0.3*%
%TF.CreationDate,2024-10-19T17:43:13+08:00*%
%TF.ProjectId,PH60_Rev1,50483630-5f52-4657-9631-2e6b69636164,rev?*%
%TF.SameCoordinates,Original*%
%TF.FileFunction,Paste,Bot*%
%TF.FilePolarity,Positive*%
%FSLAX46Y46*%
G04 Gerber Fmt 4.6, Leading zero omitted, Abs format (unit mm)*
G04 Created by KiCad (PCBNEW 8.0.3) date 2024-10-19 17:43:13*
%MOMM*%
%LPD*%
G01*
G04 APERTURE LIST*
G04 Aperture macros list*
%AMRoundRect*
0 Rectangle with rounded corners*
0 $1 Rounding radius*
0 $2 $3 $4 $5 $6 $7 $8 $9 X,Y pos of 4 corners*
0 Add a 4 corners polygon primitive as box body*
4,1,4,$2,$3,$4,$5,$6,$7,$8,$9,$2,$3,0*
0 Add four circle primitives for the rounded corners*
1,1,$1+$1,$2,$3*
1,1,$1+$1,$4,$5*
1,1,$1+$1,$6,$7*
1,1,$1+$1,$8,$9*
0 Add four rect primitives between the rounded corners*
20,1,$1+$1,$2,$3,$4,$5,0*
20,1,$1+$1,$4,$5,$6,$7,0*
20,1,$1+$1,$6,$7,$8,$9,0*
20,1,$1+$1,$8,$9,$2,$3,0*%
G04 Aperture macros list end*
%ADD10RoundRect,0.250000X-1.025000X-1.000000X1.025000X-1.000000X1.025000X1.000000X-1.025000X1.000000X0*%
%ADD11RoundRect,0.225000X0.375000X-0.225000X0.375000X0.225000X-0.375000X0.225000X-0.375000X-0.225000X0*%
%ADD12RoundRect,0.140000X0.170000X-0.140000X0.170000X0.140000X-0.170000X0.140000X-0.170000X-0.140000X0*%
%ADD13RoundRect,0.135000X-0.135000X-0.185000X0.135000X-0.185000X0.135000X0.185000X-0.135000X0.185000X0*%
%ADD14RoundRect,0.249999X-0.395001X0.395001X-0.395001X-0.395001X0.395001X-0.395001X0.395001X0.395001X0*%
%ADD15RoundRect,0.050000X-0.050000X0.387500X-0.050000X-0.387500X0.050000X-0.387500X0.050000X0.387500X0*%
%ADD16RoundRect,0.050000X-0.387500X0.050000X-0.387500X-0.050000X0.387500X-0.050000X0.387500X0.050000X0*%
%ADD17RoundRect,0.140000X0.140000X0.170000X-0.140000X0.170000X-0.140000X-0.170000X0.140000X-0.170000X0*%
%ADD18RoundRect,0.375000X0.625000X0.375000X-0.625000X0.375000X-0.625000X-0.375000X0.625000X-0.375000X0*%
%ADD19RoundRect,0.500000X0.500000X1.400000X-0.500000X1.400000X-0.500000X-1.400000X0.500000X-1.400000X0*%
%ADD20RoundRect,0.140000X-0.170000X0.140000X-0.170000X-0.140000X0.170000X-0.140000X0.170000X0.140000X0*%
%ADD21RoundRect,0.135000X0.135000X0.185000X-0.135000X0.185000X-0.135000X-0.185000X0.135000X-0.185000X0*%
%ADD22RoundRect,0.150000X0.650000X0.150000X-0.650000X0.150000X-0.650000X-0.150000X0.650000X-0.150000X0*%
%ADD23RoundRect,0.140000X-0.140000X-0.170000X0.140000X-0.170000X0.140000X0.170000X-0.140000X0.170000X0*%
%ADD24R,1.400000X1.200000*%
%ADD25R,0.400000X1.000000*%
%ADD26R,2.000000X1.300000*%
G04 APERTURE END LIST*
D10*
%TO.C,S36*%
X178652500Y-73660000D03*
X191579500Y-71120000D03*
%TD*%
%TO.C,S19*%
X116740000Y-54610000D03*
X129667000Y-52070000D03*
%TD*%
%TO.C,S35*%
X159602500Y-73660000D03*
X172529500Y-71120000D03*
%TD*%
%TO.C,S28*%
X295333750Y-64135000D03*
X308260750Y-61595000D03*
%TD*%
%TO.C,S13*%
X259615000Y-35560000D03*
X272542000Y-33020000D03*
%TD*%
%TO.C,S2*%
X50065000Y-35560000D03*
X62992000Y-33020000D03*
%TD*%
%TO.C,S49*%
X169127500Y-92710000D03*
X182054500Y-90170000D03*
%TD*%
%TO.C,S54*%
X281046250Y-92710000D03*
X293973250Y-90170000D03*
%TD*%
%TO.C,S29*%
X38158750Y-73660000D03*
X51085750Y-71120000D03*
%TD*%
%TO.C,S25*%
X231040000Y-54610000D03*
X243967000Y-52070000D03*
%TD*%
%TO.C,S55*%
X33396250Y-111760000D03*
X46323250Y-109220000D03*
%TD*%
%TO.C,S26*%
X250090000Y-54610000D03*
X263017000Y-52070000D03*
%TD*%
%TO.C,S62*%
X295333750Y-111760000D03*
X308260750Y-109220000D03*
%TD*%
%TO.C,S31*%
X83402500Y-73660000D03*
X96329500Y-71120000D03*
%TD*%
%TO.C,S44*%
X73877500Y-92710000D03*
X86804500Y-90170000D03*
%TD*%
%TO.C,S59*%
X223896250Y-111760000D03*
X236823250Y-109220000D03*
%TD*%
%TO.C,S45*%
X92927500Y-92710000D03*
X105854500Y-90170000D03*
%TD*%
%TO.C,S34*%
X140552500Y-73660000D03*
X153479500Y-71120000D03*
%TD*%
%TO.C,S37*%
X197702500Y-73660000D03*
X210629500Y-71120000D03*
%TD*%
%TO.C,S46*%
X111977500Y-92710000D03*
X124904500Y-90170000D03*
%TD*%
%TO.C,S20*%
X135790000Y-54610000D03*
X148717000Y-52070000D03*
%TD*%
%TO.C,S9*%
X183415000Y-35560000D03*
X196342000Y-33020000D03*
%TD*%
%TO.C,S33*%
X121502500Y-73660000D03*
X134429500Y-71120000D03*
%TD*%
%TO.C,S39*%
X235802500Y-73660000D03*
X248729500Y-71120000D03*
%TD*%
%TO.C,S38*%
X216752500Y-73660000D03*
X229679500Y-71120000D03*
%TD*%
%TO.C,S5*%
X107215000Y-35560000D03*
X120142000Y-33020000D03*
%TD*%
%TO.C,S8*%
X164365000Y-35560000D03*
X177292000Y-33020000D03*
%TD*%
%TO.C,S40*%
X254852500Y-73660000D03*
X267779500Y-71120000D03*
%TD*%
%TO.C,S30*%
X64352500Y-73660000D03*
X77279500Y-71120000D03*
%TD*%
%TO.C,S21*%
X154840000Y-54610000D03*
X167767000Y-52070000D03*
%TD*%
%TO.C,S12*%
X240565000Y-35560000D03*
X253492000Y-33020000D03*
%TD*%
%TO.C,S15*%
X35777500Y-54610000D03*
X48704500Y-52070000D03*
%TD*%
%TO.C,S11*%
X221515000Y-35560000D03*
X234442000Y-33020000D03*
%TD*%
%TO.C,S18*%
X97690000Y-54610000D03*
X110617000Y-52070000D03*
%TD*%
%TO.C,S60*%
X247708750Y-111760000D03*
X260635750Y-109220000D03*
%TD*%
%TO.C,S56*%
X57208750Y-111760000D03*
X70135750Y-109220000D03*
%TD*%
%TO.C,S50*%
X188177500Y-92710000D03*
X201104500Y-90170000D03*
%TD*%
%TO.C,S43*%
X54827500Y-92710000D03*
X67754500Y-90170000D03*
%TD*%
%TO.C,S51*%
X207227500Y-92710000D03*
X220154500Y-90170000D03*
%TD*%
%TO.C,S52*%
X226277500Y-92710000D03*
X239204500Y-90170000D03*
%TD*%
%TO.C,S48*%
X150077500Y-92710000D03*
X163004500Y-90170000D03*
%TD*%
%TO.C,S42*%
X33396250Y-92710000D03*
X46323250Y-90170000D03*
%TD*%
%TO.C,S22*%
X173890000Y-54610000D03*
X186817000Y-52070000D03*
%TD*%
%TO.C,S61*%
X271521250Y-111760000D03*
X284448250Y-109220000D03*
%TD*%
%TO.C,S14*%
X288190000Y-35560000D03*
X301117000Y-33020000D03*
%TD*%
%TO.C,S4*%
X88165000Y-35560000D03*
X101092000Y-33020000D03*
%TD*%
%TO.C,S10*%
X202465000Y-35560000D03*
X215392000Y-33020000D03*
%TD*%
%TO.C,S41*%
X273902500Y-73660000D03*
X286829500Y-71120000D03*
%TD*%
%TO.C,S47*%
X131027500Y-92710000D03*
X143954500Y-90170000D03*
%TD*%
%TO.C,S3*%
X69115000Y-35560000D03*
X82042000Y-33020000D03*
%TD*%
%TO.C,S16*%
X59590000Y-54610000D03*
X72517000Y-52070000D03*
%TD*%
%TO.C,S7*%
X145315000Y-35560000D03*
X158242000Y-33020000D03*
%TD*%
%TO.C,S23*%
X192940000Y-54610000D03*
X205867000Y-52070000D03*
%TD*%
%TO.C,S53*%
X245327500Y-92710000D03*
X258254500Y-90170000D03*
%TD*%
%TO.C,S27*%
X269140000Y-54610000D03*
X282067000Y-52070000D03*
%TD*%
%TO.C,S6*%
X126265000Y-35560000D03*
X139192000Y-33020000D03*
%TD*%
%TO.C,S24*%
X211990000Y-54610000D03*
X224917000Y-52070000D03*
%TD*%
%TO.C,S58*%
X152458750Y-111760000D03*
X165385750Y-109220000D03*
%TD*%
%TO.C,S57*%
X81021250Y-111760000D03*
X93948250Y-109220000D03*
%TD*%
%TO.C,S1*%
X31015000Y-35560000D03*
X43942000Y-33020000D03*
%TD*%
%TO.C,S32*%
X102452500Y-73660000D03*
X115379500Y-71120000D03*
%TD*%
%TO.C,S17*%
X78640000Y-54610000D03*
X91567000Y-52070000D03*
%TD*%
D11*
%TO.C,D42*%
X45561250Y-100550000D03*
X45561250Y-97250000D03*
%TD*%
D12*
%TO.C,C7*%
X170325000Y-117425000D03*
X170325000Y-116465000D03*
%TD*%
D11*
%TO.C,D38*%
X228917500Y-81500000D03*
X228917500Y-78200000D03*
%TD*%
%TO.C,D18*%
X109855000Y-62450000D03*
X109855000Y-59150000D03*
%TD*%
D13*
%TO.C,R3*%
X136455000Y-117475000D03*
X137475000Y-117475000D03*
%TD*%
D11*
%TO.C,D55*%
X45561250Y-119600000D03*
X45561250Y-116300000D03*
%TD*%
%TO.C,D23*%
X205105000Y-62450000D03*
X205105000Y-59150000D03*
%TD*%
%TO.C,D53*%
X257492500Y-100550000D03*
X257492500Y-97250000D03*
%TD*%
D12*
%TO.C,C3*%
X155575000Y-119005000D03*
X155575000Y-118045000D03*
%TD*%
D14*
%TO.C,U3*%
X145025000Y-115312500D03*
X143425000Y-115312500D03*
X145025000Y-116912500D03*
X143425000Y-116912500D03*
D15*
X141625000Y-112675000D03*
X142025000Y-112675000D03*
X142425000Y-112675000D03*
X142825000Y-112675000D03*
X143225000Y-112675000D03*
X143625000Y-112675000D03*
X144025000Y-112675000D03*
X144425000Y-112675000D03*
X144825000Y-112675000D03*
X145225000Y-112675000D03*
X145625000Y-112675000D03*
X146025000Y-112675000D03*
X146425000Y-112675000D03*
X146825000Y-112675000D03*
D16*
X147662500Y-113512500D03*
X147662500Y-113912500D03*
X147662500Y-114312500D03*
X147662500Y-114712500D03*
X147662500Y-115112500D03*
X147662500Y-115512500D03*
X147662500Y-115912500D03*
X147662500Y-116312500D03*
X147662500Y-116712500D03*
X147662500Y-117112500D03*
X147662500Y-117512500D03*
X147662500Y-117912500D03*
X147662500Y-118312500D03*
X147662500Y-118712500D03*
D15*
X146825000Y-119550000D03*
X146425000Y-119550000D03*
X146025000Y-119550000D03*
X145625000Y-119550000D03*
X145225000Y-119550000D03*
X144825000Y-119550000D03*
X144425000Y-119550000D03*
X144025000Y-119550000D03*
X143625000Y-119550000D03*
X143225000Y-119550000D03*
X142825000Y-119550000D03*
X142425000Y-119550000D03*
X142025000Y-119550000D03*
X141625000Y-119550000D03*
D16*
X140787500Y-118712500D03*
X140787500Y-118312500D03*
X140787500Y-117912500D03*
X140787500Y-117512500D03*
X140787500Y-117112500D03*
X140787500Y-116712500D03*
X140787500Y-116312500D03*
X140787500Y-115912500D03*
X140787500Y-115512500D03*
X140787500Y-115112500D03*
X140787500Y-114712500D03*
X140787500Y-114312500D03*
X140787500Y-113912500D03*
X140787500Y-113512500D03*
%TD*%
D11*
%TO.C,D50*%
X200342500Y-100550000D03*
X200342500Y-97250000D03*
%TD*%
%TO.C,D57*%
X93186250Y-119600000D03*
X93186250Y-116300000D03*
%TD*%
D17*
%TO.C,C13*%
X131825000Y-117105000D03*
X130865000Y-117105000D03*
%TD*%
D11*
%TO.C,D15*%
X47942500Y-62450000D03*
X47942500Y-59150000D03*
%TD*%
D17*
%TO.C,C10*%
X137425000Y-120325000D03*
X136465000Y-120325000D03*
%TD*%
D11*
%TO.C,D8*%
X176530000Y-43400000D03*
X176530000Y-40100000D03*
%TD*%
D18*
%TO.C,U1*%
X179575000Y-107675000D03*
X179575000Y-109975000D03*
X179575000Y-112275000D03*
D19*
X173275000Y-109975000D03*
%TD*%
D12*
%TO.C,C11*%
X173175000Y-117425000D03*
X173175000Y-116465000D03*
%TD*%
D11*
%TO.C,D19*%
X128905000Y-62450000D03*
X128905000Y-59150000D03*
%TD*%
%TO.C,D21*%
X167005000Y-62450000D03*
X167005000Y-59150000D03*
%TD*%
%TO.C,D40*%
X267017500Y-81500000D03*
X267017500Y-78200000D03*
%TD*%
%TO.C,D36*%
X190817500Y-81500000D03*
X190817500Y-78200000D03*
%TD*%
D20*
%TO.C,C2*%
X150375000Y-118025000D03*
X150375000Y-118985000D03*
%TD*%
D11*
%TO.C,D52*%
X238442500Y-100550000D03*
X238442500Y-97250000D03*
%TD*%
%TO.C,D16*%
X71755000Y-62450000D03*
X71755000Y-59150000D03*
%TD*%
%TO.C,D28*%
X307498750Y-71975000D03*
X307498750Y-68675000D03*
%TD*%
%TO.C,D58*%
X164623750Y-119600000D03*
X164623750Y-116300000D03*
%TD*%
%TO.C,D59*%
X236061250Y-119600000D03*
X236061250Y-116300000D03*
%TD*%
%TO.C,D48*%
X162242500Y-100550000D03*
X162242500Y-97250000D03*
%TD*%
D17*
%TO.C,C14*%
X131825000Y-118025000D03*
X130865000Y-118025000D03*
%TD*%
D21*
%TO.C,R5*%
X153475000Y-120725000D03*
X152455000Y-120725000D03*
%TD*%
D11*
%TO.C,D49*%
X181292500Y-100550000D03*
X181292500Y-97250000D03*
%TD*%
%TO.C,D35*%
X171767500Y-81500000D03*
X171767500Y-78200000D03*
%TD*%
D12*
%TO.C,C15*%
X142695000Y-106035000D03*
X142695000Y-105075000D03*
%TD*%
D11*
%TO.C,D43*%
X66992500Y-100550000D03*
X66992500Y-97250000D03*
%TD*%
%TO.C,D45*%
X105092500Y-100550000D03*
X105092500Y-97250000D03*
%TD*%
%TO.C,D10*%
X214630000Y-43400000D03*
X214630000Y-40100000D03*
%TD*%
%TO.C,D37*%
X209867500Y-81500000D03*
X209867500Y-78200000D03*
%TD*%
%TO.C,D56*%
X69373750Y-119600000D03*
X69373750Y-116300000D03*
%TD*%
%TO.C,D44*%
X86042500Y-100550000D03*
X86042500Y-97250000D03*
%TD*%
%TO.C,D6*%
X138430000Y-43400000D03*
X138430000Y-40100000D03*
%TD*%
%TO.C,D30*%
X76517500Y-81500000D03*
X76517500Y-78200000D03*
%TD*%
D12*
%TO.C,C4*%
X171275000Y-117425000D03*
X171275000Y-116465000D03*
%TD*%
D17*
%TO.C,C6*%
X131815000Y-116175000D03*
X130855000Y-116175000D03*
%TD*%
D11*
%TO.C,D12*%
X252730000Y-43400000D03*
X252730000Y-40100000D03*
%TD*%
%TO.C,D32*%
X114617500Y-81500000D03*
X114617500Y-78200000D03*
%TD*%
D12*
%TO.C,C16*%
X141775000Y-106035000D03*
X141775000Y-105075000D03*
%TD*%
D11*
%TO.C,D25*%
X243205000Y-62450000D03*
X243205000Y-59150000D03*
%TD*%
%TO.C,D20*%
X147955000Y-62450000D03*
X147955000Y-59150000D03*
%TD*%
D22*
%TO.C,U2*%
X130275000Y-107620000D03*
X130275000Y-108890000D03*
X130275000Y-110160000D03*
X130275000Y-111430000D03*
X123075000Y-111430000D03*
X123075000Y-110160000D03*
X123075000Y-108890000D03*
X123075000Y-107620000D03*
%TD*%
D11*
%TO.C,D39*%
X247967500Y-81500000D03*
X247967500Y-78200000D03*
%TD*%
%TO.C,D3*%
X81280000Y-43400000D03*
X81280000Y-40100000D03*
%TD*%
%TO.C,D22*%
X186055000Y-62450000D03*
X186055000Y-59150000D03*
%TD*%
%TO.C,D60*%
X259873750Y-119600000D03*
X259873750Y-116300000D03*
%TD*%
D17*
%TO.C,C8*%
X137425000Y-119375000D03*
X136465000Y-119375000D03*
%TD*%
D11*
%TO.C,D61*%
X283686250Y-119600000D03*
X283686250Y-116300000D03*
%TD*%
%TO.C,D1*%
X43180000Y-43400000D03*
X43180000Y-40100000D03*
%TD*%
%TO.C,D62*%
X307498750Y-119600000D03*
X307498750Y-116300000D03*
%TD*%
%TO.C,D26*%
X262255000Y-62450000D03*
X262255000Y-59150000D03*
%TD*%
%TO.C,D17*%
X90805000Y-62450000D03*
X90805000Y-59150000D03*
%TD*%
%TO.C,D4*%
X100330000Y-43400000D03*
X100330000Y-40100000D03*
%TD*%
D12*
%TO.C,C12*%
X172225000Y-117405000D03*
X172225000Y-116445000D03*
%TD*%
D21*
%TO.C,R1*%
X132785000Y-107625000D03*
X131765000Y-107625000D03*
%TD*%
D23*
%TO.C,C5*%
X126195000Y-112875000D03*
X127155000Y-112875000D03*
%TD*%
D24*
%TO.C,Y1*%
X154075000Y-119375000D03*
X151875000Y-119375000D03*
X151875000Y-117675000D03*
X154075000Y-117675000D03*
%TD*%
D11*
%TO.C,D51*%
X219392500Y-100550000D03*
X219392500Y-97250000D03*
%TD*%
D12*
%TO.C,C1*%
X182125000Y-110455000D03*
X182125000Y-109495000D03*
%TD*%
D11*
%TO.C,D47*%
X143192500Y-100550000D03*
X143192500Y-97250000D03*
%TD*%
%TO.C,D5*%
X119380000Y-43400000D03*
X119380000Y-40100000D03*
%TD*%
D13*
%TO.C,R2*%
X126175000Y-106175000D03*
X127195000Y-106175000D03*
%TD*%
D11*
%TO.C,D46*%
X124142500Y-100550000D03*
X124142500Y-97250000D03*
%TD*%
%TO.C,D29*%
X50323750Y-81500000D03*
X50323750Y-78200000D03*
%TD*%
D25*
%TO.C,J3*%
X190925000Y-111225000D03*
X191925000Y-111225000D03*
X192925000Y-111225000D03*
X193925000Y-111225000D03*
D26*
X188125000Y-108525000D03*
X196725000Y-108525000D03*
%TD*%
D11*
%TO.C,D2*%
X62230000Y-43400000D03*
X62230000Y-40100000D03*
%TD*%
%TO.C,D34*%
X152717500Y-81500000D03*
X152717500Y-78200000D03*
%TD*%
%TO.C,D14*%
X300355000Y-43400000D03*
X300355000Y-40100000D03*
%TD*%
%TO.C,D41*%
X286067500Y-81500000D03*
X286067500Y-78200000D03*
%TD*%
%TO.C,D7*%
X157480000Y-43400000D03*
X157480000Y-40100000D03*
%TD*%
%TO.C,D13*%
X271780000Y-43400000D03*
X271780000Y-40100000D03*
%TD*%
%TO.C,D9*%
X195580000Y-43400000D03*
X195580000Y-40100000D03*
%TD*%
%TO.C,D31*%
X95567500Y-81500000D03*
X95567500Y-78200000D03*
%TD*%
%TO.C,D33*%
X133667500Y-81500000D03*
X133667500Y-78200000D03*
%TD*%
D13*
%TO.C,R4*%
X136455000Y-118425000D03*
X137475000Y-118425000D03*
%TD*%
D11*
%TO.C,D11*%
X233680000Y-43400000D03*
X233680000Y-40100000D03*
%TD*%
D17*
%TO.C,C9*%
X131805000Y-118975000D03*
X130845000Y-118975000D03*
%TD*%
D11*
%TO.C,D24*%
X224155000Y-62450000D03*
X224155000Y-59150000D03*
%TD*%
%TO.C,D54*%
X293211250Y-100550000D03*
X293211250Y-97250000D03*
%TD*%
%TO.C,D27*%
X281305000Y-62450000D03*
X281305000Y-59150000D03*
%TD*%
M02*
