<?xml version="1.0" encoding="UTF-8" standalone="no"?>
<!DOCTYPE svg PUBLIC "-//W3C//DTD SVG 1.1//EN" "http://www.w3.org/Graphics/SVG/1.1/DTD/svg11.dtd">
<!-- Created with Vectornator (http://vectornator.io/) -->
<svg height="100%" stroke-miterlimit="10" style="fill-rule:nonzero;clip-rule:evenodd;stroke-linecap:round;stroke-linejoin:round;" version="1.1" viewBox="13.7735 86.681 83.5304 23.7356" width="100%" xml:space="preserve" xmlns="http://www.w3.org/2000/svg" xmlns:vectornator="http://vectornator.io" xmlns:xlink="http://www.w3.org/1999/xlink">
<defs/>
<clipPath id="ArtboardFrame">
<rect height="23.7356" width="83.5304" x="13.7735" y="86.681"/>
</clipPath>
<g clip-path="url(#ArtboardFrame)" id="Layer" vectornator:layerName="Layer">
<path d="M13.7735 86.681L13.7735 110.417L97.304 110.417L97.304 86.681L13.7735 86.681ZM71.2304 91.8323C71.4435 91.8323 71.6137 91.8557 71.7456 91.9115C71.8775 91.9673 71.9722 92.0722 72.0229 92.1889C72.0736 92.3055 72.1266 92.4044 72.1418 92.5059C72.1571 92.6073 72.1418 92.7398 72.1418 92.9021C72.1419 93.0543 72.157 93.202 72.1418 93.2984C72.1265 93.3948 72.0737 93.4937 72.0229 93.6154C71.9722 93.7371 71.8774 93.837 71.7456 93.8928C71.6138 93.9486 71.4435 93.972 71.2304 93.972C70.9667 93.972 70.7781 93.8906 70.6361 93.7739C70.4941 93.6572 70.4237 93.5441 70.3983 93.4173C70.3728 93.2905 70.3587 93.1152 70.3587 92.9021C70.3587 92.679 70.3729 92.5138 70.3983 92.387C70.4237 92.2602 70.494 92.147 70.6361 92.0304C70.7781 91.9137 70.9667 91.8323 71.2304 91.8323ZM27.9991 92.5851L30.4559 92.5851L30.4559 95.9137C31.3891 95.2949 32.3249 94.9627 33.3089 94.9627C35.0638 94.9627 35.9638 95.9004 35.9638 97.7364L35.9638 102.848L36.8752 102.848L36.8752 103.878L33.5466 103.878L33.5466 102.848L34.4184 102.848L34.4184 97.8157C34.4183 97.2273 34.2799 96.7962 34.0618 96.5477C33.8436 96.2992 33.5092 96.1911 32.9919 96.1911C32.1094 96.1911 31.2572 96.5131 30.4559 97.1421L30.4559 102.848L31.288 102.848L31.288 103.878L27.9991 103.878L27.9991 102.848L28.9105 102.848L28.9105 93.6154L27.9991 93.6154L27.9991 92.5851ZM46.8212 92.5851L49.2383 92.5851L49.2383 102.848L50.1497 102.848L50.1497 103.878L48.2477 103.878L48.0496 103.126C47.238 103.785 46.3675 104.077 45.4343 104.077C44.8559 104.077 44.3495 104.011 43.9285 103.839C43.5075 103.666 43.1763 103.429 42.9379 103.165C42.6996 102.901 42.515 102.561 42.3831 102.135C42.2511 101.709 42.1859 101.297 42.1454 100.906C42.1049 100.516 42.0661 100.057 42.0661 99.5196C42.0661 98.982 42.1048 98.5233 42.1454 98.1327C42.186 97.7422 42.2462 97.3304 42.3831 96.9043C42.5201 96.4783 42.7391 96.1378 42.9775 95.8741C43.2157 95.6103 43.5421 95.4125 43.9681 95.24C44.3943 95.0676 44.8855 94.9627 45.4739 94.9627C46.1942 94.9627 46.9616 95.1145 47.7325 95.3985L47.7325 93.6154L46.8212 93.6154L46.8212 92.5851ZM18.8456 92.7833L19.757 92.7833L23.1648 92.7833C23.885 92.7833 24.4711 92.873 24.9479 93.0606C25.4248 93.2483 25.7601 93.5327 25.9782 93.8928C26.1961 94.2529 26.3776 94.5975 26.4537 94.9627C26.5298 95.3279 26.5329 95.7824 26.5329 96.3099C26.533 96.8273 26.5298 97.2473 26.4537 97.6176C26.3776 97.9878 26.1963 98.372 25.9782 98.7271C25.7603 99.0821 25.4247 99.3319 24.9479 99.5196C24.4711 99.7073 23.885 99.8366 23.1648 99.8366L21.342 99.8366L21.342 102.848L22.5308 102.848L22.5308 103.878L18.8456 103.878L18.8456 102.848L19.757 102.848L19.757 93.8135L18.8456 93.8135L18.8456 92.7833ZM21.342 94.0117L21.342 98.5686L23.0063 98.5686C23.4325 98.5686 23.7626 98.5166 24.0365 98.4101C24.3103 98.3036 24.5387 98.1577 24.6705 97.9346C24.8025 97.7114 24.8677 97.4597 24.9083 97.2213C24.9489 96.9829 24.9875 96.6954 24.9875 96.3099C24.9877 95.5288 24.8398 94.9417 24.5913 94.5664C24.3428 94.1911 23.8279 94.0117 23.0063 94.0117L21.342 94.0117ZM81.216 94.1305L82.0878 95.0419L81.0972 96.0326C81.4117 96.4789 81.5727 97.1598 81.5727 98.0931C81.5727 98.5597 81.5594 98.9623 81.4934 99.2818C81.4274 99.6014 81.2706 99.9082 81.0575 100.233C80.8445 100.557 80.5285 100.784 80.0669 100.946C79.6054 101.108 78.9938 101.223 78.2838 101.223C77.6143 101.223 77.0658 101.138 76.6195 100.986L76.0647 101.54C75.8415 101.764 75.7477 102 75.7477 102.254C75.7476 102.609 75.9354 102.769 76.3817 102.769L79.7895 102.769C80.5503 102.769 81.1568 102.953 81.5727 103.324C81.9886 103.694 82.1671 104.229 82.1671 104.909C82.1671 105.365 82.0967 105.773 81.9293 106.097C81.762 106.422 81.5632 106.648 81.3349 106.811C81.1068 106.973 80.7947 107.116 80.3839 107.207C79.9731 107.298 79.6183 107.35 79.314 107.365C79.0096 107.381 78.5928 107.365 78.0856 107.365C77.6088 107.365 77.2266 107.351 76.8969 107.326C76.5672 107.3 76.2359 107.283 75.9062 107.207C75.5765 107.131 75.3115 106.992 75.1137 106.85C74.9157 106.708 74.76 106.544 74.6382 106.296C74.5166 106.047 74.4401 105.729 74.4401 105.384C74.4402 104.725 74.7327 104.186 75.3515 103.76C74.7732 103.546 74.4797 103.111 74.4797 102.452C74.4797 101.955 74.6978 101.481 75.1137 101.065L75.7477 100.471C75.271 100.014 74.9949 99.2292 74.9949 98.0931C74.9948 97.7279 75.0386 97.4109 75.0741 97.1421C75.1095 96.8732 75.18 96.599 75.3119 96.3099C75.4436 96.0208 75.6384 95.7793 75.8666 95.5967C76.0947 95.4141 76.4068 95.2775 76.8176 95.1608C77.2284 95.0441 77.7055 94.9627 78.2838 94.9627C79.0039 94.9627 79.6196 95.0473 80.1065 95.24L81.216 94.1305ZM55.5388 94.9627C56.1779 94.9627 56.7069 95.0676 57.1634 95.24C57.6198 95.4125 57.9797 95.6103 58.2333 95.8741C58.4867 96.1378 58.6857 96.4783 58.8277 96.9043C58.9698 97.3304 59.0645 97.7422 59.105 98.1327C59.1455 98.5233 59.1843 98.982 59.1843 99.5196L59.1843 99.9158L53.3594 99.9158C53.3794 101.001 53.5651 101.773 53.8745 102.214C54.184 102.655 54.7456 102.888 55.618 102.888C56.4092 102.888 56.983 102.746 57.2823 102.452C57.5817 102.158 57.7172 101.712 57.7578 101.144L59.0258 101.223C58.9853 101.66 58.9291 102.024 58.8277 102.333C58.7263 102.642 58.5459 102.916 58.3125 103.205C58.079 103.494 57.7388 103.731 57.2823 103.878C56.8258 104.025 56.2875 104.077 55.618 104.077C54.8572 104.077 54.2131 103.992 53.716 103.799C53.2188 103.606 52.8357 103.333 52.5669 102.927C52.2981 102.522 52.1186 102.033 52.0121 101.501C51.9057 100.968 51.8536 100.301 51.8536 99.5196C51.8537 98.982 51.8526 98.5233 51.8932 98.1327C51.9337 97.7422 52.0184 97.3304 52.1706 96.9043C52.3227 96.4783 52.5459 96.1378 52.8046 95.8741C53.0633 95.6103 53.4129 95.4125 53.8745 95.24C54.3362 95.0676 54.8997 94.9627 55.5388 94.9627ZM63.9394 94.9627C65.0145 94.9627 65.7995 95.2654 66.3169 95.8741L66.3169 95.1608L67.3471 95.1608L67.3471 98.3308L66.3565 98.3308C66.3059 97.4584 66.1314 96.8612 65.8017 96.5873C65.4721 96.3134 64.8799 96.1911 64.0582 96.1911C63.5103 96.1911 63.1231 96.2798 62.8695 96.5081C62.616 96.7363 62.4732 97.0441 62.4732 97.4194C62.4733 97.7643 62.5823 98.0294 62.7902 98.212C62.9982 98.3945 63.3538 98.5657 63.8205 98.6875L65.3262 99.0837C66.1481 99.2967 66.7341 99.5557 67.1094 99.9158C67.4846 100.276 67.6641 100.82 67.6641 101.54C67.6642 103.235 66.652 104.077 64.613 104.077C63.4364 104.077 62.5363 103.708 61.9581 102.967L61.9977 103.878L60.9674 103.878L60.9674 100.748L61.9185 100.748C62.0605 102.168 62.885 102.888 64.3356 102.888C65.5427 102.888 66.1188 102.452 66.1188 101.62C66.1187 101.315 66.0341 101.094 65.8414 100.906C65.6486 100.719 65.3275 100.563 64.8507 100.431L63.345 100.035C62.503 99.7913 61.8975 99.4733 61.5222 99.1233C61.147 98.7734 60.9674 98.2107 60.9674 97.4194C60.9675 96.6891 61.1836 96.0928 61.6807 95.6363C62.1776 95.1798 62.9452 94.9627 63.9394 94.9627ZM88.9034 94.9627C90.6584 94.9627 91.5583 95.9004 91.5583 97.7364L91.5583 102.848L92.4697 102.848L92.4697 103.878L89.1411 103.878L89.1411 102.848L90.0129 102.848L90.0129 97.8157C90.0129 97.2273 89.8744 96.7962 89.6563 96.5477C89.4382 96.2992 89.1037 96.1911 88.5864 96.1911C87.7038 96.1911 86.8517 96.5131 86.0503 97.1421L86.0503 102.848L86.8825 102.848L86.8825 103.878L83.5936 103.878L83.5936 102.848L84.505 102.848L84.505 96.2307L83.5936 96.2307L83.5936 95.1608L85.3371 95.1608L85.8126 96.0326C86.8068 95.3123 87.8281 94.9627 88.9034 94.9627ZM69.5662 95.1608L71.9833 95.1608L71.9833 102.848L72.9343 102.848L72.9343 103.878L69.5662 103.878L69.5662 102.848L70.4776 102.848L70.4776 96.2307L69.5662 96.2307L69.5662 95.1608ZM78.2838 96.0326C77.5331 96.0326 77.0459 96.218 76.8176 96.5477C76.5894 96.8774 76.5006 97.3931 76.5006 98.0931C76.5006 98.793 76.5894 99.3088 76.8176 99.6385C77.0459 99.9682 77.5331 100.114 78.2838 100.114C79.0345 100.114 79.5217 99.9682 79.7499 99.6385C79.9781 99.3088 80.1065 98.793 80.1065 98.0931C80.1065 97.3931 79.9781 96.8774 79.7499 96.5477C79.5216 96.218 79.0344 96.0326 78.2838 96.0326ZM45.8305 96.1911C45.4552 96.1911 45.1483 96.243 44.8795 96.3496C44.6109 96.4561 44.3682 96.6028 44.2059 96.7854C44.0434 96.968 43.9406 97.1994 43.8493 97.4987C43.758 97.7979 43.6816 98.1007 43.6511 98.4101C43.6207 98.7195 43.6115 99.0834 43.6115 99.5196C43.6116 99.9456 43.6207 100.325 43.6511 100.629C43.6816 100.933 43.7234 101.241 43.8096 101.54C43.896 101.84 44.0486 102.066 44.2059 102.254C44.3631 102.441 44.5711 102.618 44.8399 102.729C45.1088 102.841 45.4156 102.888 45.7909 102.888C46.4807 102.888 47.1442 102.641 47.7325 102.174L47.7325 96.5477C47.1137 96.3042 46.4696 96.1911 45.8305 96.1911ZM55.5388 96.1911C54.7375 96.1911 54.1737 96.3889 53.8745 96.8251C53.5752 97.2613 53.3898 97.9238 53.3594 98.8063L57.6389 98.8063C57.6085 97.9238 57.4474 97.2613 57.1634 96.8251C56.8794 96.3889 56.3604 96.1911 55.5388 96.1911ZM39.4508 101.857C39.7246 101.857 39.9428 101.939 40.0848 102.056C40.2269 102.172 40.2922 102.28 40.3226 102.412C40.3531 102.544 40.4018 102.714 40.4018 102.927C40.4018 103.252 40.3204 103.527 40.2037 103.72C40.0869 103.913 39.8363 103.997 39.4508 103.997C39.187 103.997 38.9934 103.955 38.8564 103.839C38.7197 103.722 38.6491 103.574 38.6187 103.443C38.5882 103.311 38.5394 103.14 38.5394 102.927C38.5394 102.714 38.5883 102.544 38.6187 102.412C38.6493 102.28 38.7195 102.172 38.8564 102.056C38.9932 101.939 39.1871 101.857 39.4508 101.857ZM76.3421 103.878C75.9566 104.213 75.7874 104.629 75.7874 105.146C75.7874 105.613 75.9566 105.921 76.3421 106.058C76.7275 106.195 77.3534 106.256 78.1649 106.256C78.5606 106.256 78.848 106.266 79.0763 106.256C79.3047 106.246 79.5511 106.227 79.7895 106.177C80.0279 106.126 80.2226 106.035 80.3443 105.939C80.466 105.843 80.5456 105.705 80.6217 105.543C80.6977 105.38 80.7405 105.202 80.7405 104.948C80.7404 104.654 80.66 104.402 80.5028 104.235C80.3456 104.068 80.1652 103.954 79.9877 103.918C79.8102 103.883 79.6174 103.878 79.3536 103.878L76.3421 103.878Z" fill="#ffffff" fill-rule="nonzero" opacity="1" stroke="none" vectornator:layerName="Ph.design 1"/>
</g>
</svg>
