<?xml version="1.0" encoding="UTF-8"?><svg xmlns="http://www.w3.org/2000/svg" viewBox="0 0 186.9261 186.9262"><defs><style>.cls-1{stroke:#000;stroke-miterlimit:10;stroke-width:.25px;}</style></defs><g id="_图层_3"><path class="cls-1" d="m153.4631,39.5327v-6.0695h-5.9775c2.1006,1.9136,4.0891,3.9459,5.9775,6.0695Z"/><path class="cls-1" d="m38.9725,33.4631h-5.5095v5.5291c1.7471-1.93,3.585-3.776,5.5095-5.5291Z"/><path class="cls-1" d="m33.4631,147.1255v6.3376h6.4362c-2.2584-1.9954-4.4141-4.1037-6.4362-6.3376Z"/><path class="cls-1" d="m153.4631,146.5851c-2.1609,2.43-4.4673,4.7249-6.9043,6.8781h6.9043v-6.8781Z"/><path class="cls-1" d="m153.4631,146.5851V39.5327c-1.8885-2.1236-3.877-4.1559-5.9775-6.0695H38.9725c-1.9244,1.7531-3.7624,3.5991-5.5095,5.5291v108.1332c2.0222,2.2339,4.1778,4.3422,6.4362,6.3376h106.6595c2.437-2.1532,4.7433-4.4481,6.9043-6.8781Zm-13-6.1219H46.4631V46.4631h94v94Z"/><path class="cls-1" d="m93.4631.125C41.9139.125.125,41.9139.125,93.4631s41.7889,93.3381,93.3381,93.3381,93.3381-41.7889,93.3381-93.3381S145.0123.125,93.4631.125Zm-.2341,173.5296c-44.5118,0-80.5957-36.0839-80.5957-80.5958S48.7172,12.4631,93.229,12.4631s80.5958,36.0839,80.5958,80.5957-36.0839,80.5958-80.5958,80.5958Z"/></g><g id="_图层_1"><rect class="cls-1" x="140.4631" y="86.4631" width="13" height="14"/><rect class="cls-1" x="67.4631" y="86.4631" width="73" height="14"/><polygon class="cls-1" points="102.86 46.4631 117.7736 46.4631 119.5262 41.6888 106.3837 36.8643 102.86 46.4631"/><polygon class="cls-1" points="66.7282 144.8895 79.8707 149.7141 83.2666 140.4631 68.3531 140.4631 66.7282 144.8895"/><polygon class="cls-1" points="68.3531 140.4631 83.2666 140.4631 117.7736 46.4631 102.86 46.4631 68.3531 140.4631"/></g></svg>