<?xml version="1.0"?>
<svg width="1260" height="371" xmlns="http://www.w3.org/2000/svg" xmlns:svg="http://www.w3.org/2000/svg" clip-rule="evenodd" fill-rule="evenodd" stroke-linejoin="round" version="1.1" xml:space="preserve">
 <g class="layer">
  <title>Layer 1</title>
  <rect fill="none" height="370" id="badge.-dark" width="1260" x="0" y="0.32"/>
  <path d="m118.02,302.02l-6.44,0c-1.77,0 -3.21,-1.44 -3.21,-3.22l0,-20.67l-4.55,0c-15.37,0 -27.84,-12.48 -27.84,-27.85l0,-4.54l-20.68,0c-1.78,0 -3.22,-1.45 -3.22,-3.22l0,-6.43c0,-1.78 1.44,-3.22 3.22,-3.22l20.68,0l0,-14.12l-20.68,0c-1.78,0 -3.22,-1.45 -3.22,-3.22l0,-6.44c0,-1.77 1.44,-3.21 3.22,-3.21l20.68,0l0,-14.13l-20.68,0c-1.78,0 -3.22,-1.44 -3.22,-3.21l0,-6.44c0,-1.77 1.44,-3.21 3.22,-3.21l20.68,0l0,-14.13l-20.68,0c-1.78,0 -3.22,-1.44 -3.22,-3.21l0,-6.44c0,-1.77 1.44,-3.21 3.22,-3.21l20.68,0l0,-14.13l-20.68,0c-1.78,0 -3.22,-1.44 -3.22,-3.21l0,-6.44c0,-1.77 1.44,-3.21 3.22,-3.22l20.68,0l0,-4.54c0,-15.37 12.47,-27.84 27.84,-27.84l4.55,0l0,-20.68c0,-1.78 1.44,-3.22 3.21,-3.22l6.44,0c1.77,0 3.22,1.44 3.22,3.22l0,20.68l14.12,0l0,-20.68c0,-1.78 1.44,-3.22 3.22,-3.22l6.43,0c1.77,0 3.22,1.44 3.22,3.22l0,20.68l14.12,0l0,-20.68c0,-1.78 1.44,-3.22 3.22,-3.22l6.43,0c1.78,0 3.22,1.44 3.22,3.22l0,20.68l14.12,0l0,-20.68c0,-1.78 1.44,-3.22 3.22,-3.22l6.43,0c1.78,0 3.22,1.44 3.22,3.22l0,20.68l14.12,0l0,-20.68c0,-1.78 1.44,-3.22 3.22,-3.22l6.43,0c1.78,0 3.22,1.44 3.22,3.22l0,20.68l4.55,0c15.36,0 27.84,12.47 27.84,27.84l0,4.55l20.68,0c1.77,0 3.21,1.44 3.21,3.21l0,6.44c0,1.77 -1.44,3.21 -3.21,3.21l-20.68,0l0,14.13l20.68,0c1.77,0 3.21,1.44 3.21,3.21l0,6.44c0,1.77 -1.44,3.21 -3.21,3.21l-20.68,0l0,14.13l20.68,0c1.77,0 3.21,1.44 3.21,3.21l0,6.44c0,1.77 -1.44,3.21 -3.21,3.21l-20.68,0l0,14.13l20.68,0c1.77,0 3.21,1.44 3.21,3.21l0,6.44c0,1.77 -1.44,3.22 -3.21,3.22l-20.68,0l0,14.12l20.68,0c1.77,0 3.21,1.44 3.21,3.22l0,6.43c0,1.77 -1.44,3.22 -3.21,3.22l-20.68,0l0,4.54c0,15.37 -12.48,27.85 -27.84,27.85l-4.55,0l0,20.67c0,1.78 -1.44,3.22 -3.22,3.22l-6.43,0c-1.78,0 -3.22,-1.44 -3.22,-3.22l0,-20.67l-14.12,0l0,20.67c0,1.78 -1.44,3.22 -3.22,3.22l-6.43,0c-1.78,0 -3.22,-1.44 -3.22,-3.22l0,-20.67l-14.12,0l0,20.67c0,1.78 -1.44,3.22 -3.22,3.22l-6.43,0c-1.78,0 -3.22,-1.44 -3.22,-3.22l0,-20.67l-14.12,0l0,20.67c0,1.78 -1.45,3.22 -3.22,3.22l-6.44,0c-1.77,0 -3.21,-1.44 -3.21,-3.22l0,-20.67l-14.13,0l0,20.67c0,1.78 -1.44,3.22 -3.21,3.22zm103.74,-127.25c0,6.77 -1.06,12.84 -3.19,18.21c-2.12,5.37 -5.15,9.95 -9.08,13.74c-3.94,3.78 -8.7,6.71 -14.3,8.78c-5.6,2.07 -11.93,3.19 -18.99,3.36l0,20.58c0,0.46 -0.11,0.86 -0.34,1.21c-0.23,0.34 -0.63,0.61 -1.21,0.81c-0.57,0.2 -1.33,0.36 -2.28,0.48c-0.95,0.11 -2.14,0.17 -3.57,0.17c-1.44,0 -2.63,-0.06 -3.58,-0.17c-0.94,-0.12 -1.69,-0.27 -2.24,-0.48c-0.54,-0.2 -0.94,-0.47 -1.2,-0.81c-0.26,-0.35 -0.39,-0.75 -0.39,-1.21l0,-20.58c-7.18,-0.17 -13.58,-1.21 -19.2,-3.1c-5.63,-1.9 -10.39,-4.64 -14.3,-8.23c-3.9,-3.58 -6.89,-7.99 -8.95,-13.21c-2.07,-5.23 -3.1,-11.23 -3.1,-18l0,-44.01c0,-0.4 0.13,-0.77 0.38,-1.12c0.26,-0.34 0.66,-0.63 1.21,-0.86c0.54,-0.23 1.29,-0.4 2.24,-0.51c0.95,-0.12 2.14,-0.18 3.57,-0.18c1.44,0 2.63,0.06 3.58,0.18c0.94,0.11 1.7,0.28 2.28,0.51c0.57,0.23 0.97,0.52 1.2,0.86c0.23,0.35 0.35,0.72 0.35,1.12l0,42.72c0,4.76 0.63,9.05 1.89,12.87c1.27,3.82 3.16,7.06 5.69,9.73c2.52,2.67 5.72,4.74 9.6,6.2c3.87,1.47 8.39,2.26 13.56,2.37l0,-73.89c0,-0.4 0.13,-0.77 0.39,-1.12c0.26,-0.34 0.69,-0.63 1.29,-0.86c0.6,-0.23 1.38,-0.4 2.33,-0.51c0.94,-0.12 2.08,-0.18 3.4,-0.18c1.43,0 2.62,0.06 3.57,0.18c0.95,0.11 1.71,0.28 2.28,0.51c0.58,0.23 0.98,0.52 1.21,0.86c0.23,0.35 0.34,0.72 0.34,1.12l0,73.89c5.17,-0.06 9.68,-0.85 13.52,-2.37c3.85,-1.52 7.05,-3.61 9.6,-6.28c2.56,-2.67 4.48,-5.89 5.77,-9.65c1.3,-3.76 1.94,-7.94 1.94,-12.53l0,-43.06c0,-0.4 0.12,-0.77 0.35,-1.12c0.23,-0.34 0.63,-0.63 1.2,-0.86c0.58,-0.23 1.32,-0.4 2.24,-0.51c0.92,-0.12 2.12,-0.18 3.62,-0.18c1.38,0 2.54,0.06 3.49,0.18c0.94,0.11 1.69,0.28 2.23,0.51c0.55,0.23 0.95,0.52 1.21,0.86c0.26,0.35 0.39,0.72 0.39,1.12l0,42.46z" fill="#fff" id="svg_2"/>
  <path d="m386.04,103.18c0,3.47 -0.57,6.6 -1.71,9.39c-1.15,2.79 -2.78,5.16 -4.91,7.13c-2.13,1.97 -4.74,3.49 -7.84,4.56c-3.09,1.07 -6.78,1.61 -11.08,1.61l-7.88,0l0,25c0,0.29 -0.08,0.54 -0.24,0.76c-0.16,0.21 -0.41,0.38 -0.75,0.5c-0.34,0.13 -0.81,0.24 -1.4,0.33c-0.59,0.09 -1.33,0.13 -2.23,0.13c-0.89,0 -1.63,-0.04 -2.22,-0.13c-0.59,-0.09 -1.07,-0.2 -1.42,-0.33c-0.36,-0.12 -0.61,-0.29 -0.75,-0.5c-0.15,-0.22 -0.22,-0.47 -0.22,-0.76l0,-64.06c0,-1.43 0.38,-2.45 1.13,-3.06c0.75,-0.6 1.59,-0.91 2.52,-0.91l14.86,0c1.5,0 2.94,0.07 4.32,0.19c1.38,0.13 3,0.39 4.88,0.81c1.88,0.41 3.79,1.18 5.74,2.3c1.95,1.13 3.61,2.52 4.97,4.16c1.36,1.65 2.4,3.55 3.13,5.71c0.74,2.17 1.1,4.56 1.1,7.17zm-9.71,0.75c0,-2.83 -0.53,-5.19 -1.58,-7.08c-1.06,-1.9 -2.36,-3.31 -3.92,-4.24c-1.55,-0.93 -3.16,-1.52 -4.83,-1.77c-1.66,-0.25 -3.28,-0.38 -4.85,-0.38l-8.53,0l0,27.85l8.31,0c2.79,0 5.11,-0.36 6.95,-1.08c1.84,-0.71 3.39,-1.7 4.64,-2.97c1.25,-1.27 2.2,-2.79 2.85,-4.56c0.64,-1.77 0.96,-3.7 0.96,-5.77z" fill="#fff" fill-rule="nonzero" id="svg_3"/>
  <path d="m441.84,126.25c0,3.93 -0.52,7.55 -1.55,10.86c-1.04,3.31 -2.59,6.16 -4.65,8.56c-2.05,2.4 -4.63,4.26 -7.72,5.61c-3.09,1.34 -6.68,2.01 -10.76,2.01c-3.97,0 -7.43,-0.59 -10.38,-1.77c-2.95,-1.18 -5.41,-2.9 -7.38,-5.15c-1.96,-2.26 -3.43,-4.99 -4.4,-8.21c-0.96,-3.22 -1.45,-6.87 -1.45,-10.95c0,-3.93 0.51,-7.55 1.53,-10.86c1.02,-3.31 2.56,-6.16 4.62,-8.56c2.05,-2.4 4.62,-4.26 7.7,-5.58c3.07,-1.32 6.67,-1.98 10.78,-1.98c3.97,0 7.43,0.59 10.38,1.77c2.95,1.18 5.41,2.89 7.38,5.15c1.97,2.25 3.44,4.99 4.43,8.21c0.98,3.21 1.47,6.84 1.47,10.89zm-9.17,0.59c0,-2.61 -0.25,-5.08 -0.73,-7.41c-0.49,-2.32 -1.29,-4.36 -2.41,-6.11c-1.12,-1.76 -2.64,-3.14 -4.55,-4.16c-1.91,-1.02 -4.3,-1.53 -7.15,-1.53c-2.63,0 -4.9,0.47 -6.79,1.4c-1.9,0.93 -3.46,2.24 -4.68,3.94c-1.23,1.7 -2.14,3.71 -2.74,6.03c-0.59,2.33 -0.89,4.87 -0.89,7.62c0,2.65 0.24,5.13 0.73,7.46c0.49,2.33 1.3,4.36 2.44,6.09c1.13,1.74 2.66,3.11 4.57,4.13c1.91,1.02 4.3,1.53 7.15,1.53c2.6,0 4.85,-0.46 6.76,-1.39c1.92,-0.94 3.49,-2.24 4.71,-3.92c1.23,-1.68 2.13,-3.68 2.71,-6.01c0.58,-2.32 0.87,-4.88 0.87,-7.67z" fill="#fff" fill-rule="nonzero" id="svg_4"/>
  <path d="m522,102.53c0,0.25 -0.04,0.56 -0.11,0.92c-0.07,0.35 -0.19,0.8 -0.37,1.34l-14.22,45.87c-0.11,0.39 -0.28,0.71 -0.51,0.97c-0.23,0.25 -0.56,0.44 -0.97,0.59c-0.41,0.14 -0.97,0.24 -1.69,0.29c-0.71,0.05 -1.61,0.08 -2.68,0.08c-1.11,0 -2.04,-0.03 -2.79,-0.11c-0.75,-0.07 -1.35,-0.18 -1.8,-0.32c-0.44,-0.14 -0.77,-0.34 -0.99,-0.59c-0.21,-0.25 -0.38,-0.55 -0.48,-0.91l-10.14,-35.04l-0.11,-0.48l-0.11,0.48l-9.39,35.04c-0.1,0.39 -0.27,0.71 -0.51,0.97c-0.23,0.25 -0.58,0.44 -1.04,0.59c-0.47,0.14 -1.07,0.24 -1.8,0.29c-0.73,0.05 -1.64,0.08 -2.71,0.08c-1.11,0 -2.01,-0.03 -2.71,-0.11c-0.7,-0.07 -1.27,-0.18 -1.72,-0.32c-0.44,-0.14 -0.77,-0.34 -0.99,-0.59c-0.21,-0.25 -0.37,-0.55 -0.48,-0.91l-14.11,-45.87c-0.18,-0.54 -0.31,-0.99 -0.38,-1.34c-0.07,-0.36 -0.1,-0.67 -0.1,-0.92c0,-0.32 0.07,-0.58 0.21,-0.78c0.14,-0.19 0.38,-0.35 0.72,-0.48c0.34,-0.12 0.8,-0.2 1.37,-0.24c0.57,-0.04 1.27,-0.05 2.1,-0.05c1,0 1.8,0.02 2.41,0.08c0.61,0.05 1.07,0.14 1.39,0.27c0.33,0.12 0.56,0.3 0.7,0.53c0.14,0.23 0.27,0.51 0.38,0.83l11.64,39.81l0.11,0.49l0.1,-0.49l10.68,-39.81c0.07,-0.32 0.19,-0.6 0.35,-0.83c0.16,-0.23 0.4,-0.41 0.72,-0.53c0.33,-0.13 0.76,-0.22 1.32,-0.27c0.55,-0.06 1.28,-0.08 2.17,-0.08c0.86,0 1.57,0.02 2.12,0.08c0.55,0.05 0.99,0.14 1.32,0.27c0.32,0.12 0.55,0.29 0.69,0.5c0.15,0.22 0.25,0.47 0.33,0.76l11.53,39.91l0.11,0.49l0.05,-0.49l11.48,-39.81c0.07,-0.32 0.19,-0.6 0.35,-0.83c0.16,-0.23 0.41,-0.41 0.75,-0.53c0.34,-0.13 0.81,-0.22 1.4,-0.27c0.59,-0.06 1.35,-0.08 2.28,-0.08c0.86,0 1.54,0.01 2.06,0.05c0.52,0.04 0.93,0.13 1.24,0.27c0.3,0.14 0.52,0.3 0.64,0.48c0.13,0.18 0.19,0.43 0.19,0.75z" fill="#fff" fill-rule="nonzero" id="svg_5"/>
  <path d="m573.24,124.69c0,1.4 -0.35,2.39 -1.05,2.98c-0.71,0.59 -1.5,0.88 -2.4,0.88l-31.8,0c0,2.69 0.27,5.1 0.81,7.25c0.53,2.14 1.43,3.98 2.69,5.52c1.26,1.54 2.89,2.72 4.91,3.54c2.01,0.83 4.47,1.24 7.38,1.24c2.3,0 4.35,-0.19 6.15,-0.56c1.8,-0.38 3.35,-0.8 4.66,-1.27c1.31,-0.46 2.39,-0.88 3.24,-1.26c0.84,-0.37 1.48,-0.56 1.91,-0.56c0.25,0 0.48,0.06 0.68,0.19c0.19,0.12 0.35,0.31 0.45,0.56c0.11,0.25 0.19,0.6 0.25,1.05c0.05,0.45 0.08,0.99 0.08,1.63c0,0.47 -0.02,0.87 -0.06,1.21c-0.03,0.34 -0.08,0.65 -0.13,0.91c-0.05,0.27 -0.14,0.51 -0.27,0.73c-0.12,0.21 -0.28,0.42 -0.48,0.61c-0.2,0.2 -0.78,0.52 -1.75,0.97c-0.96,0.45 -2.21,0.88 -3.75,1.32c-1.54,0.42 -3.32,0.81 -5.34,1.15c-2.02,0.34 -4.18,0.51 -6.46,0.51c-3.97,0 -7.45,-0.56 -10.44,-1.67c-2.99,-1.1 -5.5,-2.75 -7.54,-4.93c-2.04,-2.18 -3.57,-4.92 -4.61,-8.21c-1.04,-3.29 -1.56,-7.12 -1.56,-11.48c0,-4.15 0.54,-7.88 1.61,-11.19c1.08,-3.31 2.62,-6.12 4.64,-8.42c2.02,-2.31 4.46,-4.08 7.33,-5.31c2.86,-1.24 6.06,-1.85 9.6,-1.85c3.79,0 7.02,0.6 9.68,1.82c2.67,1.22 4.86,2.85 6.58,4.91c1.71,2.06 2.97,4.47 3.78,7.24c0.8,2.77 1.21,5.73 1.21,8.88l0,1.61zm-8.91,-2.63c0.11,-4.65 -0.93,-8.3 -3.1,-10.94c-2.18,-2.65 -5.41,-3.97 -9.69,-3.97c-2.2,0 -4.12,0.41 -5.78,1.23c-1.65,0.82 -3.04,1.91 -4.16,3.27c-1.11,1.36 -1.98,2.95 -2.59,4.75c-0.61,1.81 -0.95,3.69 -1.02,5.66l26.34,0z" fill="#fff" fill-rule="nonzero" id="svg_6"/>
  <path d="m614.92,105.81c0,0.78 -0.01,1.44 -0.05,1.98c-0.03,0.54 -0.11,0.96 -0.21,1.26c-0.11,0.31 -0.25,0.54 -0.41,0.7c-0.16,0.16 -0.38,0.24 -0.67,0.24c-0.28,0 -0.63,-0.08 -1.04,-0.24c-0.41,-0.16 -0.88,-0.32 -1.4,-0.48c-0.52,-0.17 -1.1,-0.32 -1.74,-0.46c-0.65,-0.14 -1.34,-0.21 -2.09,-0.21c-0.9,0 -1.78,0.17 -2.63,0.53c-0.86,0.36 -1.77,0.95 -2.71,1.77c-0.95,0.82 -1.94,1.92 -2.98,3.27c-1.04,1.36 -2.18,3.03 -3.43,4.99l0,31.77c0,0.28 -0.08,0.52 -0.22,0.72c-0.14,0.2 -0.37,0.37 -0.7,0.51c-0.32,0.14 -0.77,0.25 -1.34,0.32c-0.57,0.07 -1.3,0.11 -2.2,0.11c-0.86,0 -1.57,-0.04 -2.14,-0.11c-0.58,-0.07 -1.03,-0.18 -1.37,-0.32c-0.34,-0.14 -0.57,-0.31 -0.7,-0.51c-0.12,-0.2 -0.19,-0.44 -0.19,-0.72l0,-48.29c0,-0.29 0.06,-0.53 0.16,-0.72c0.11,-0.2 0.33,-0.38 0.65,-0.54c0.32,-0.16 0.73,-0.27 1.23,-0.32c0.5,-0.06 1.16,-0.08 1.99,-0.08c0.78,0 1.44,0.02 1.96,0.08c0.51,0.05 0.92,0.16 1.2,0.32c0.29,0.16 0.49,0.34 0.62,0.54c0.12,0.19 0.19,0.43 0.19,0.72l0,7.03c1.32,-1.93 2.56,-3.51 3.73,-4.72c1.16,-1.22 2.26,-2.18 3.3,-2.87c1.03,-0.7 2.06,-1.18 3.08,-1.45c1.02,-0.27 2.05,-0.4 3.09,-0.4c0.46,0 0.99,0.02 1.58,0.08c0.59,0.05 1.21,0.15 1.85,0.29c0.64,0.14 1.22,0.3 1.74,0.48c0.52,0.18 0.89,0.36 1.1,0.54c0.22,0.18 0.36,0.35 0.43,0.51c0.07,0.16 0.14,0.37 0.19,0.62c0.05,0.25 0.09,0.61 0.11,1.1c0.01,0.48 0.02,1.13 0.02,1.96z" fill="#fff" fill-rule="nonzero" id="svg_7"/>
  <path d="m664.77,124.69c0,1.4 -0.35,2.39 -1.05,2.98c-0.7,0.59 -1.5,0.88 -2.4,0.88l-31.8,0c0,2.69 0.27,5.1 0.81,7.25c0.54,2.14 1.43,3.98 2.69,5.52c1.26,1.54 2.9,2.72 4.91,3.54c2.01,0.83 4.47,1.24 7.38,1.24c2.3,0 4.35,-0.19 6.15,-0.56c1.8,-0.38 3.35,-0.8 4.66,-1.27c1.32,-0.46 2.39,-0.88 3.24,-1.26c0.84,-0.37 1.48,-0.56 1.91,-0.56c0.25,0 0.48,0.06 0.68,0.19c0.19,0.12 0.35,0.31 0.45,0.56c0.11,0.25 0.19,0.6 0.25,1.05c0.05,0.45 0.08,0.99 0.08,1.63c0,0.47 -0.02,0.87 -0.06,1.21c-0.03,0.34 -0.08,0.65 -0.13,0.91c-0.05,0.27 -0.14,0.51 -0.27,0.73c-0.12,0.21 -0.28,0.42 -0.48,0.61c-0.2,0.2 -0.78,0.52 -1.74,0.97c-0.97,0.45 -2.22,0.88 -3.76,1.32c-1.54,0.42 -3.32,0.81 -5.34,1.15c-2.02,0.34 -4.17,0.51 -6.46,0.51c-3.97,0 -7.45,-0.56 -10.44,-1.67c-2.99,-1.1 -5.5,-2.75 -7.54,-4.93c-2.04,-2.18 -3.57,-4.92 -4.61,-8.21c-1.04,-3.29 -1.56,-7.12 -1.56,-11.48c0,-4.15 0.54,-7.88 1.61,-11.19c1.08,-3.31 2.62,-6.12 4.64,-8.42c2.02,-2.31 4.47,-4.08 7.33,-5.31c2.86,-1.24 6.06,-1.85 9.6,-1.85c3.79,0 7.02,0.6 9.68,1.82c2.67,1.22 4.86,2.85 6.58,4.91c1.71,2.06 2.97,4.47 3.78,7.24c0.8,2.77 1.21,5.73 1.21,8.88l0,1.61zm-8.91,-2.63c0.11,-4.65 -0.93,-8.3 -3.1,-10.94c-2.18,-2.65 -5.41,-3.97 -9.69,-3.97c-2.2,0 -4.12,0.41 -5.78,1.23c-1.65,0.82 -3.04,1.91 -4.15,3.27c-1.12,1.36 -1.98,2.95 -2.6,4.75c-0.61,1.81 -0.95,3.69 -1.02,5.66l26.34,0z" fill="#fff" fill-rule="nonzero" id="svg_8"/>
  <path d="m719.6,150.93c0,0.28 -0.06,0.53 -0.19,0.75c-0.12,0.21 -0.34,0.38 -0.64,0.51c-0.31,0.12 -0.71,0.22 -1.21,0.29c-0.5,0.07 -1.11,0.11 -1.82,0.11c-0.75,0 -1.38,-0.04 -1.88,-0.11c-0.5,-0.07 -0.91,-0.17 -1.23,-0.29c-0.33,-0.13 -0.56,-0.3 -0.7,-0.51c-0.15,-0.22 -0.22,-0.47 -0.22,-0.75l0,-6.39c-2.54,2.76 -5.17,4.9 -7.91,6.44c-2.74,1.54 -5.73,2.31 -8.99,2.31c-3.54,0 -6.56,-0.69 -9.06,-2.07c-2.51,-1.38 -4.54,-3.24 -6.09,-5.58c-1.56,-2.34 -2.7,-5.1 -3.41,-8.26c-0.72,-3.17 -1.07,-6.5 -1.07,-10.01c0,-4.15 0.44,-7.89 1.34,-11.24c0.89,-3.34 2.21,-6.19 3.97,-8.55c1.75,-2.37 3.92,-4.18 6.52,-5.45c2.59,-1.27 5.59,-1.9 8.98,-1.9c2.83,0 5.41,0.61 7.76,1.85c2.34,1.23 4.65,3.05 6.94,5.44l0,-28.06c0,-0.25 0.07,-0.49 0.19,-0.72c0.13,-0.23 0.37,-0.41 0.73,-0.54c0.35,-0.12 0.81,-0.23 1.36,-0.32c0.56,-0.09 1.27,-0.13 2.12,-0.13c0.9,0 1.63,0.04 2.2,0.13c0.58,0.09 1.02,0.2 1.34,0.32c0.33,0.13 0.57,0.31 0.73,0.54c0.16,0.23 0.24,0.47 0.24,0.72l0,71.47zm-8.91,-33.97c-2.39,-2.96 -4.71,-5.23 -6.94,-6.78c-2.24,-1.56 -4.57,-2.34 -7.01,-2.34c-2.25,0 -4.16,0.54 -5.74,1.61c-1.57,1.08 -2.85,2.49 -3.83,4.24c-0.99,1.75 -1.7,3.74 -2.15,5.96c-0.45,2.22 -0.67,4.47 -0.67,6.76c0,2.43 0.19,4.81 0.56,7.13c0.38,2.33 1.03,4.39 1.96,6.2c0.93,1.81 2.17,3.26 3.7,4.35c1.54,1.09 3.47,1.63 5.8,1.63c1.18,0 2.31,-0.16 3.41,-0.48c1.09,-0.32 2.2,-0.86 3.35,-1.61c1.14,-0.75 2.34,-1.73 3.59,-2.92c1.26,-1.2 2.58,-2.68 3.97,-4.43l0,-19.32z" fill="#fff" fill-rule="nonzero" id="svg_9"/>
  <path d="m805.23,126.14c0,4.18 -0.46,7.95 -1.37,11.29c-0.91,3.35 -2.25,6.2 -4.02,8.56c-1.77,2.36 -3.95,4.17 -6.52,5.42c-2.58,1.25 -5.53,1.88 -8.85,1.88c-1.54,0 -2.96,-0.15 -4.27,-0.46c-1.3,-0.3 -2.58,-0.79 -3.84,-1.47c-1.25,-0.68 -2.5,-1.54 -3.75,-2.58c-1.25,-1.04 -2.58,-2.29 -3.97,-3.75l0,5.9c0,0.28 -0.07,0.53 -0.22,0.75c-0.14,0.21 -0.37,0.38 -0.69,0.51c-0.33,0.12 -0.73,0.22 -1.21,0.29c-0.48,0.08 -1.1,0.11 -1.85,0.11c-0.72,0 -1.33,-0.03 -1.83,-0.11c-0.5,-0.07 -0.91,-0.17 -1.23,-0.29c-0.32,-0.13 -0.54,-0.3 -0.64,-0.51c-0.11,-0.22 -0.16,-0.47 -0.16,-0.75l0,-71.68c0,-0.29 0.06,-0.54 0.18,-0.75c0.13,-0.22 0.36,-0.4 0.7,-0.54c0.34,-0.14 0.8,-0.25 1.37,-0.32c0.57,-0.07 1.29,-0.11 2.14,-0.11c0.9,0 1.63,0.04 2.2,0.11c0.58,0.07 1.02,0.18 1.35,0.32c0.32,0.14 0.55,0.32 0.69,0.54c0.15,0.21 0.22,0.46 0.22,0.75l0,28.92c1.43,-1.47 2.81,-2.7 4.16,-3.71c1.34,-1 2.65,-1.81 3.94,-2.44c1.29,-0.62 2.57,-1.08 3.86,-1.36c1.29,-0.29 2.65,-0.43 4.08,-0.43c3.51,0 6.5,0.69 8.99,2.09c2.48,1.39 4.5,3.26 6.06,5.61c1.56,2.34 2.69,5.08 3.41,8.23c0.71,3.15 1.07,6.48 1.07,9.98zm-9.18,1.02c0,-2.47 -0.18,-4.86 -0.56,-7.19c-0.38,-2.33 -1.04,-4.38 -1.97,-6.17c-0.94,-1.79 -2.18,-3.23 -3.73,-4.32c-1.54,-1.09 -3.47,-1.64 -5.77,-1.64c-1.15,0 -2.29,0.16 -3.4,0.49c-1.12,0.32 -2.25,0.86 -3.4,1.61c-1.16,0.75 -2.35,1.71 -3.59,2.89c-1.25,1.18 -2.57,2.67 -3.97,4.46l0,19.26c2.45,2.97 4.78,5.23 7.02,6.79c2.23,1.55 4.55,2.33 6.96,2.33c2.23,0 4.14,-0.54 5.72,-1.61c1.58,-1.07 2.87,-2.5 3.86,-4.27c0.99,-1.77 1.71,-3.75 2.16,-5.95c0.45,-2.2 0.67,-4.43 0.67,-6.68z" fill="#fff" fill-rule="nonzero" id="svg_10"/>
  <path d="m840,152.27l-6.44,17.76c-0.22,0.57 -0.76,1.01 -1.64,1.31c-0.88,0.31 -2.21,0.46 -4,0.46c-0.93,0 -1.68,-0.05 -2.25,-0.14c-0.57,-0.09 -1.01,-0.24 -1.31,-0.45c-0.31,-0.22 -0.48,-0.5 -0.51,-0.86c-0.04,-0.36 0.05,-0.79 0.26,-1.29l6.66,-16.79c-0.32,-0.15 -0.63,-0.38 -0.91,-0.7c-0.29,-0.32 -0.49,-0.66 -0.59,-1.02l-17.23,-46.14c-0.28,-0.75 -0.43,-1.34 -0.43,-1.77c0,-0.43 0.15,-0.77 0.43,-1.02c0.29,-0.25 0.75,-0.42 1.4,-0.51c0.64,-0.09 1.5,-0.13 2.57,-0.13c1.08,0 1.92,0.02 2.53,0.08c0.6,0.05 1.09,0.15 1.44,0.29c0.36,0.15 0.62,0.35 0.78,0.62c0.16,0.27 0.33,0.63 0.51,1.1l13.79,38.74l0.16,0l13.31,-38.96c0.21,-0.68 0.47,-1.11 0.77,-1.31c0.31,-0.2 0.76,-0.34 1.37,-0.43c0.61,-0.09 1.49,-0.13 2.63,-0.13c1,0 1.83,0.04 2.47,0.13c0.64,0.09 1.12,0.26 1.42,0.51c0.31,0.25 0.46,0.59 0.46,1.02c0,0.43 -0.11,0.97 -0.32,1.61l-17.33,48.02z" fill="#fff" fill-rule="nonzero" id="svg_11"/>
  <path d="m428.82,287.7c0,1.08 -0.06,1.98 -0.17,2.71c-0.12,0.72 -0.3,1.28 -0.53,1.68c-0.23,0.4 -0.49,0.67 -0.77,0.81c-0.29,0.14 -0.57,0.21 -0.85,0.21c-0.93,0 -2.44,-0.39 -4.53,-1.16c-2.08,-0.77 -4.48,-1.9 -7.2,-3.37c-2.72,-1.48 -5.62,-3.27 -8.71,-5.38c-3.09,-2.1 -6.09,-4.56 -8.99,-7.37c-2.3,1.4 -5.2,2.62 -8.72,3.65c-3.51,1.03 -7.58,1.55 -12.22,1.55c-6.84,0 -12.75,-1.01 -17.74,-3.02c-4.99,-2.02 -9.11,-4.97 -12.36,-8.86c-3.26,-3.88 -5.68,-8.72 -7.27,-14.5c-1.6,-5.79 -2.39,-12.43 -2.39,-19.92c0,-7.21 0.86,-13.74 2.6,-19.57c1.73,-5.83 4.33,-10.79 7.8,-14.89c3.46,-4.1 7.79,-7.26 12.99,-9.48c5.2,-2.23 11.27,-3.34 18.2,-3.34c6.51,0 12.23,1.01 17.18,3.02c4.94,2.01 9.08,4.95 12.43,8.82c3.35,3.86 5.87,8.63 7.55,14.29c1.69,5.67 2.53,12.18 2.53,19.53c0,3.8 -0.22,7.43 -0.67,10.89c-0.44,3.47 -1.14,6.75 -2.1,9.84c-0.96,3.09 -2.17,5.95 -3.62,8.57c-1.45,2.62 -3.16,4.99 -5.13,7.09c3.42,2.81 6.42,5 8.99,6.57c2.58,1.57 4.71,2.75 6.4,3.55c1.68,0.8 2.99,1.37 3.93,1.72c0.94,0.35 1.64,0.75 2.11,1.2c0.47,0.44 0.79,1.07 0.98,1.89c0.19,0.82 0.28,1.91 0.28,3.27zm-23.88,-53.74c0,-5.15 -0.46,-9.93 -1.38,-14.33c-0.91,-4.41 -2.43,-8.24 -4.56,-11.49c-2.13,-3.26 -4.98,-5.8 -8.54,-7.62c-3.56,-1.83 -7.96,-2.74 -13.21,-2.74c-5.24,0 -9.64,0.97 -13.2,2.91c-3.56,1.94 -6.45,4.57 -8.68,7.87c-2.22,3.3 -3.82,7.13 -4.78,11.49c-0.96,4.35 -1.44,8.96 -1.44,13.84c0,5.34 0.45,10.24 1.34,14.71c0.89,4.48 2.39,8.35 4.49,11.63c2.11,3.28 4.93,5.82 8.47,7.62c3.54,1.81 7.97,2.71 13.31,2.71c5.3,0 9.74,-0.99 13.35,-2.95c3.61,-1.97 6.51,-4.63 8.71,-7.98c2.2,-3.34 3.77,-7.23 4.71,-11.66c0.94,-4.42 1.4,-9.1 1.4,-14.01l0.01,0z" fill="#fff" fill-rule="nonzero" id="svg_12"/>
  <path d="m537.15,277.87c0,0.37 -0.09,0.7 -0.29,0.98c-0.19,0.28 -0.53,0.5 -1.01,0.67c-0.48,0.16 -1.1,0.3 -1.85,0.42c-0.74,0.12 -1.72,0.17 -2.92,0.17c-1.11,0 -2.07,-0.05 -2.86,-0.17c-0.8,-0.12 -1.43,-0.26 -1.88,-0.42c-0.46,-0.17 -0.79,-0.39 -0.98,-0.67c-0.19,-0.28 -0.29,-0.61 -0.29,-0.98l0,-79.18l-0.14,0l-32.04,79.53c-0.14,0.32 -0.34,0.6 -0.59,0.84c-0.26,0.23 -0.64,0.43 -1.13,0.6c-0.49,0.16 -1.07,0.28 -1.75,0.35c-0.68,0.07 -1.49,0.1 -2.43,0.1c-0.98,0 -1.82,-0.04 -2.53,-0.14c-0.7,-0.09 -1.28,-0.22 -1.75,-0.38c-0.47,-0.17 -0.83,-0.37 -1.09,-0.6c-0.26,-0.23 -0.44,-0.49 -0.53,-0.77l-30.63,-79.53l-0.07,0l0,79.18c0,0.37 -0.1,0.7 -0.29,0.98c-0.19,0.28 -0.53,0.5 -1.01,0.67c-0.49,0.16 -1.11,0.3 -1.88,0.42c-0.78,0.12 -1.76,0.17 -2.97,0.17c-1.16,0 -2.12,-0.05 -2.89,-0.17c-0.78,-0.12 -1.39,-0.26 -1.85,-0.42c-0.46,-0.17 -0.77,-0.39 -0.94,-0.67c-0.17,-0.28 -0.25,-0.61 -0.25,-0.98l0,-83.61c0,-1.96 0.52,-3.37 1.57,-4.21c1.04,-0.84 2.21,-1.27 3.49,-1.27l7.42,0c1.52,0 2.85,0.14 4,0.43c1.14,0.28 2.14,0.72 2.99,1.33c0.86,0.61 1.57,1.38 2.14,2.32c0.57,0.94 1.07,2.04 1.5,3.3l25.99,65.83l0.36,0l27.04,-65.62c0.53,-1.4 1.1,-2.6 1.72,-3.58c0.61,-0.99 1.29,-1.77 2.03,-2.36c0.74,-0.58 1.56,-1 2.46,-1.26c0.91,-0.26 1.95,-0.39 3.14,-0.39l7.78,0c0.72,0 1.4,0.11 2.04,0.32c0.64,0.21 1.19,0.54 1.64,0.98c0.45,0.45 0.82,1.01 1.11,1.69c0.28,0.68 0.42,1.51 0.42,2.49l0,83.61z" fill="#fff" fill-rule="nonzero" id="svg_13"/>
  <path d="m620.61,277.73c0,0.37 -0.08,0.71 -0.24,1.01c-0.16,0.31 -0.48,0.55 -0.95,0.74c-0.47,0.19 -1.1,0.34 -1.9,0.46c-0.79,0.12 -1.82,0.17 -3.09,0.17c-1.64,0 -2.97,-0.07 -4,-0.21c-1.03,-0.14 -1.81,-0.4 -2.32,-0.77c-0.52,-0.38 -0.94,-0.8 -1.26,-1.26l-33.45,-45.46l0,45.46c0,0.32 -0.09,0.64 -0.28,0.94c-0.18,0.31 -0.51,0.54 -0.98,0.71c-0.47,0.16 -1.09,0.3 -1.86,0.42c-0.78,0.12 -1.75,0.17 -2.92,0.17c-1.12,0 -2.08,-0.05 -2.88,-0.17c-0.8,-0.12 -1.43,-0.26 -1.9,-0.42c-0.46,-0.17 -0.79,-0.4 -0.98,-0.71c-0.19,-0.3 -0.28,-0.62 -0.28,-0.94l0,-87.26c0,-0.37 0.09,-0.7 0.28,-0.98c0.19,-0.29 0.52,-0.51 0.98,-0.67c0.47,-0.16 1.1,-0.3 1.9,-0.42c0.8,-0.12 1.76,-0.18 2.88,-0.18c1.17,0 2.14,0.06 2.92,0.18c0.77,0.12 1.39,0.26 1.86,0.42c0.47,0.16 0.8,0.38 0.98,0.67c0.19,0.28 0.28,0.61 0.28,0.98l0,40.4l32.18,-40.4c0.28,-0.42 0.61,-0.77 0.98,-1.05c0.38,-0.28 0.84,-0.51 1.37,-0.67c0.54,-0.16 1.2,-0.29 1.97,-0.39c0.77,-0.09 1.77,-0.14 2.99,-0.14c1.21,0 2.2,0.06 2.95,0.18c0.75,0.12 1.34,0.27 1.79,0.45c0.44,0.19 0.75,0.43 0.91,0.71c0.17,0.28 0.25,0.58 0.25,0.91c0,0.61 -0.15,1.22 -0.46,1.83c-0.3,0.61 -0.88,1.45 -1.72,2.53l-30.14,36.04l32.46,43.13c0.8,1.22 1.28,2.05 1.44,2.5c0.16,0.44 0.24,0.8 0.24,1.08l0,0.01z" fill="#fff" fill-rule="nonzero" id="svg_14"/>
  <path d="m716.37,193.98c0,0.89 -0.05,1.67 -0.14,2.32c-0.09,0.66 -0.26,1.18 -0.49,1.58c-0.24,0.4 -0.5,0.69 -0.81,0.88c-0.3,0.19 -0.62,0.28 -0.95,0.28l-33.3,0l0,30.91l31.48,0c0.32,0 0.64,0.08 0.94,0.25c0.31,0.16 0.58,0.43 0.81,0.81c0.24,0.37 0.4,0.87 0.49,1.51c0.1,0.63 0.14,1.44 0.14,2.42c0,0.89 -0.04,1.65 -0.14,2.28c-0.09,0.64 -0.25,1.15 -0.49,1.55c-0.23,0.4 -0.5,0.7 -0.81,0.91c-0.3,0.21 -0.62,0.32 -0.94,0.32l-31.48,0l0,37.87c0,0.32 -0.09,0.64 -0.28,0.94c-0.19,0.31 -0.51,0.54 -0.98,0.71c-0.47,0.16 -1.08,0.3 -1.83,0.42c-0.75,0.12 -1.73,0.17 -2.95,0.17c-1.12,0 -2.08,-0.05 -2.88,-0.17c-0.8,-0.12 -1.43,-0.26 -1.9,-0.42c-0.47,-0.17 -0.79,-0.4 -0.98,-0.71c-0.19,-0.3 -0.28,-0.62 -0.28,-0.94l0,-84.17c0,-1.82 0.48,-3.1 1.44,-3.83c0.96,-0.72 1.98,-1.09 3.05,-1.09l40.89,0c0.33,0 0.65,0.1 0.95,0.28c0.31,0.19 0.57,0.5 0.81,0.92c0.23,0.42 0.4,0.97 0.49,1.65c0.09,0.68 0.14,1.46 0.14,2.35z" fill="#fff" fill-rule="nonzero" id="svg_15"/>
  <path d="m744.96,277.94c0,0.37 -0.09,0.69 -0.28,0.94c-0.18,0.26 -0.49,0.48 -0.91,0.67c-0.42,0.19 -1.01,0.33 -1.76,0.42c-0.75,0.1 -1.71,0.14 -2.88,0.14c-1.12,0 -2.06,-0.04 -2.81,-0.14c-0.75,-0.09 -1.34,-0.23 -1.79,-0.42c-0.44,-0.19 -0.75,-0.41 -0.91,-0.67c-0.17,-0.25 -0.25,-0.57 -0.25,-0.94l0,-63.23c0,-0.33 0.08,-0.64 0.25,-0.92c0.16,-0.28 0.47,-0.51 0.91,-0.7c0.45,-0.19 1.04,-0.33 1.79,-0.42c0.75,-0.09 1.69,-0.14 2.81,-0.14c1.17,0 2.13,0.05 2.88,0.14c0.75,0.09 1.34,0.23 1.76,0.42c0.42,0.19 0.73,0.42 0.91,0.7c0.19,0.28 0.28,0.59 0.28,0.92l0,63.23zm1.34,-84.59c0,2.72 -0.52,4.57 -1.55,5.55c-1.03,0.98 -2.92,1.48 -5.69,1.48c-2.71,0 -4.58,-0.48 -5.58,-1.44c-1.01,-0.96 -1.51,-2.78 -1.51,-5.45c0,-2.72 0.51,-4.57 1.54,-5.55c1.03,-0.98 2.93,-1.47 5.69,-1.47c2.72,0 4.58,0.48 5.59,1.44c1,0.96 1.51,2.77 1.51,5.44z" fill="#fff" fill-rule="nonzero" id="svg_16"/>
  <path d="m803.35,218.85c0,1.03 -0.03,1.9 -0.08,2.6c-0.04,0.7 -0.14,1.25 -0.28,1.65c-0.14,0.4 -0.31,0.71 -0.52,0.92c-0.21,0.21 -0.51,0.31 -0.88,0.31c-0.38,0 -0.83,-0.1 -1.37,-0.31c-0.54,-0.22 -1.15,-0.43 -1.83,-0.64c-0.68,-0.21 -1.44,-0.41 -2.28,-0.59c-0.85,-0.19 -1.76,-0.29 -2.74,-0.29c-1.17,0 -2.32,0.24 -3.44,0.71c-1.13,0.47 -2.31,1.24 -3.55,2.32c-1.24,1.07 -2.54,2.5 -3.9,4.28c-1.36,1.78 -2.86,3.96 -4.5,6.53l0,41.59c0,0.38 -0.09,0.7 -0.28,0.95c-0.19,0.26 -0.49,0.48 -0.91,0.67c-0.42,0.19 -1.01,0.33 -1.76,0.42c-0.75,0.1 -1.71,0.14 -2.88,0.14c-1.12,0 -2.06,-0.04 -2.81,-0.14c-0.75,-0.09 -1.34,-0.23 -1.79,-0.42c-0.44,-0.19 -0.75,-0.41 -0.91,-0.67c-0.17,-0.25 -0.25,-0.57 -0.25,-0.95l0,-63.22c0,-0.38 0.07,-0.69 0.21,-0.95c0.14,-0.26 0.42,-0.49 0.85,-0.7c0.42,-0.22 0.96,-0.36 1.61,-0.43c0.66,-0.07 1.52,-0.1 2.6,-0.1c1.03,0 1.89,0.03 2.56,0.1c0.68,0.07 1.21,0.21 1.59,0.43c0.37,0.21 0.64,0.44 0.8,0.7c0.17,0.26 0.25,0.57 0.25,0.95l0,9.2c1.73,-2.53 3.36,-4.59 4.88,-6.18c1.52,-1.59 2.96,-2.85 4.32,-3.76c1.36,-0.91 2.71,-1.55 4.04,-1.9c1.34,-0.35 2.68,-0.52 4.04,-0.52c0.61,0 1.3,0.03 2.07,0.1c0.78,0.07 1.59,0.2 2.43,0.39c0.84,0.18 1.6,0.4 2.28,0.63c0.68,0.23 1.16,0.47 1.44,0.7c0.28,0.24 0.47,0.46 0.56,0.67c0.1,0.21 0.18,0.48 0.25,0.81c0.07,0.32 0.12,0.8 0.14,1.44c0.02,0.63 0.04,1.48 0.04,2.56z" fill="#fff" fill-rule="nonzero" id="svg_17"/>
  <path d="m910.34,277.94c0,0.37 -0.09,0.69 -0.28,0.94c-0.19,0.26 -0.49,0.48 -0.91,0.67c-0.42,0.19 -1.01,0.33 -1.76,0.42c-0.75,0.1 -1.69,0.14 -2.81,0.14c-1.17,0 -2.13,-0.04 -2.88,-0.14c-0.75,-0.09 -1.35,-0.23 -1.79,-0.42c-0.45,-0.19 -0.76,-0.41 -0.95,-0.67c-0.19,-0.25 -0.28,-0.57 -0.28,-0.94l0,-38.43c0,-2.67 -0.23,-5.11 -0.7,-7.31c-0.47,-2.2 -1.22,-4.1 -2.25,-5.69c-1.03,-1.59 -2.34,-2.81 -3.94,-3.65c-1.59,-0.85 -3.46,-1.27 -5.62,-1.27c-2.67,0 -5.35,1.03 -8.04,3.09c-2.69,2.06 -5.66,5.09 -8.89,9.07l0,44.19c0,0.37 -0.09,0.69 -0.28,0.94c-0.19,0.26 -0.5,0.48 -0.95,0.67c-0.44,0.19 -1.04,0.33 -1.79,0.42c-0.75,0.1 -1.68,0.14 -2.81,0.14c-1.08,0 -2,-0.04 -2.77,-0.14c-0.78,-0.09 -1.38,-0.23 -1.83,-0.42c-0.44,-0.19 -0.75,-0.41 -0.91,-0.67c-0.17,-0.25 -0.25,-0.57 -0.25,-0.94l0,-38.43c0,-2.67 -0.26,-5.11 -0.77,-7.31c-0.52,-2.2 -1.29,-4.1 -2.32,-5.69c-1.03,-1.59 -2.33,-2.81 -3.9,-3.65c-1.57,-0.85 -3.43,-1.27 -5.58,-1.27c-2.67,0 -5.37,1.03 -8.08,3.09c-2.72,2.06 -5.67,5.09 -8.86,9.07l0,44.19c0,0.37 -0.09,0.69 -0.28,0.94c-0.18,0.26 -0.49,0.48 -0.91,0.67c-0.42,0.19 -1.01,0.33 -1.76,0.42c-0.75,0.1 -1.71,0.14 -2.88,0.14c-1.12,0 -2.06,-0.04 -2.81,-0.14c-0.75,-0.09 -1.34,-0.23 -1.79,-0.42c-0.44,-0.19 -0.75,-0.41 -0.91,-0.67c-0.17,-0.25 -0.25,-0.57 -0.25,-0.94l0,-63.23c0,-0.38 0.07,-0.69 0.21,-0.95c0.14,-0.26 0.43,-0.49 0.85,-0.7c0.42,-0.21 0.96,-0.35 1.61,-0.42c0.66,-0.08 1.52,-0.11 2.6,-0.11c1.03,0 1.89,0.03 2.57,0.11c0.68,0.07 1.2,0.21 1.58,0.42c0.37,0.21 0.64,0.44 0.8,0.7c0.17,0.26 0.25,0.57 0.25,0.95l0,8.36c3.56,-3.98 7.01,-6.9 10.36,-8.75c3.35,-1.85 6.74,-2.77 10.15,-2.77c2.63,0 4.98,0.3 7.07,0.91c2.08,0.61 3.92,1.46 5.51,2.56c1.59,1.1 2.95,2.42 4.07,3.94c1.13,1.52 2.07,3.22 2.81,5.09c2.11,-2.29 4.11,-4.24 6.01,-5.83c1.9,-1.59 3.73,-2.88 5.48,-3.86c1.76,-0.99 3.47,-1.7 5.13,-2.15c1.66,-0.44 3.34,-0.66 5.02,-0.66c4.08,0 7.5,0.71 10.26,2.14c2.76,1.43 5,3.34 6.71,5.72c1.71,2.39 2.93,5.19 3.65,8.4c0.73,3.21 1.09,6.59 1.09,10.15l0,39.98z" fill="#fff" fill-rule="nonzero" id="svg_18"/>
  <path d="m1018.95,214.57c0,0.32 -0.05,0.72 -0.14,1.19c-0.09,0.47 -0.26,1.05 -0.49,1.76l-18.62,60.06c-0.14,0.52 -0.36,0.94 -0.67,1.27c-0.3,0.33 -0.72,0.58 -1.26,0.77c-0.54,0.19 -1.28,0.32 -2.21,0.39c-0.94,0.07 -2.11,0.1 -3.52,0.1c-1.45,0 -2.67,-0.04 -3.65,-0.14c-0.98,-0.09 -1.77,-0.23 -2.35,-0.42c-0.59,-0.19 -1.02,-0.44 -1.3,-0.77c-0.28,-0.33 -0.49,-0.73 -0.63,-1.2l-13.28,-45.87l-0.14,-0.63l-0.14,0.63l-12.3,45.87c-0.14,0.52 -0.36,0.94 -0.67,1.27c-0.3,0.33 -0.76,0.58 -1.37,0.77c-0.6,0.19 -1.39,0.32 -2.35,0.39c-0.96,0.07 -2.14,0.1 -3.55,0.1c-1.45,0 -2.63,-0.04 -3.54,-0.14c-0.92,-0.09 -1.67,-0.23 -2.25,-0.42c-0.59,-0.19 -1.02,-0.44 -1.3,-0.77c-0.28,-0.33 -0.49,-0.73 -0.63,-1.2l-18.48,-60.06c-0.24,-0.7 -0.4,-1.29 -0.49,-1.76c-0.1,-0.47 -0.14,-0.87 -0.14,-1.19c0,-0.42 0.09,-0.76 0.28,-1.02c0.18,-0.26 0.5,-0.47 0.95,-0.63c0.44,-0.17 1.04,-0.27 1.79,-0.32c0.75,-0.05 1.66,-0.07 2.74,-0.07c1.31,0 2.36,0.03 3.16,0.11c0.79,0.07 1.4,0.18 1.82,0.35c0.43,0.16 0.73,0.39 0.92,0.7c0.19,0.3 0.35,0.67 0.49,1.09l15.25,52.13l0.14,0.63l0.14,-0.63l13.98,-52.13c0.09,-0.42 0.24,-0.79 0.45,-1.09c0.21,-0.31 0.53,-0.54 0.95,-0.7c0.42,-0.17 1,-0.28 1.72,-0.35c0.73,-0.08 1.68,-0.11 2.85,-0.11c1.12,0 2.05,0.03 2.77,0.11c0.73,0.07 1.3,0.18 1.72,0.35c0.43,0.16 0.73,0.38 0.92,0.66c0.18,0.28 0.33,0.61 0.42,0.99l15.1,52.27l0.14,0.63l0.07,-0.63l15.04,-52.13c0.09,-0.42 0.24,-0.79 0.46,-1.09c0.21,-0.31 0.53,-0.54 0.98,-0.7c0.44,-0.17 1.05,-0.28 1.83,-0.35c0.77,-0.08 1.76,-0.11 2.98,-0.11c1.13,0 2.03,0.02 2.71,0.07c0.68,0.05 1.21,0.16 1.61,0.35c0.4,0.19 0.68,0.4 0.85,0.63c0.16,0.24 0.24,0.57 0.24,0.99z" fill="#fff" fill-rule="nonzero" id="svg_19"/>
  <path d="m1079.37,278.01c0,0.56 -0.19,0.98 -0.56,1.26c-0.38,0.28 -0.89,0.49 -1.55,0.63c-0.65,0.14 -1.61,0.21 -2.88,0.21c-1.22,0 -2.19,-0.07 -2.91,-0.21c-0.73,-0.14 -1.26,-0.35 -1.59,-0.63c-0.32,-0.28 -0.49,-0.7 -0.49,-1.26l0,-6.33c-2.76,2.95 -5.84,5.25 -9.24,6.89c-3.39,1.64 -6.99,2.46 -10.78,2.46c-3.32,0 -6.33,-0.44 -9.03,-1.3c-2.69,-0.87 -4.98,-2.12 -6.88,-3.76c-1.9,-1.64 -3.37,-3.66 -4.43,-6.04c-1.05,-2.39 -1.58,-5.11 -1.58,-8.15c0,-3.56 0.73,-6.65 2.18,-9.28c1.45,-2.62 3.54,-4.8 6.25,-6.53c2.72,-1.73 6.04,-3.03 9.98,-3.9c3.93,-0.87 8.36,-1.3 13.28,-1.3l8.71,0l0,-4.92c0,-2.43 -0.26,-4.59 -0.77,-6.46c-0.52,-1.87 -1.35,-3.43 -2.5,-4.67c-1.15,-1.24 -2.63,-2.18 -4.46,-2.81c-1.83,-0.63 -4.07,-0.95 -6.74,-0.95c-2.86,0 -5.42,0.34 -7.7,1.02c-2.27,0.68 -4.26,1.43 -5.97,2.25c-1.71,0.82 -3.14,1.56 -4.28,2.24c-1.15,0.68 -2.01,1.02 -2.57,1.02c-0.37,0 -0.7,-0.09 -0.98,-0.28c-0.28,-0.19 -0.53,-0.47 -0.74,-0.84c-0.21,-0.38 -0.36,-0.86 -0.46,-1.44c-0.09,-0.59 -0.14,-1.23 -0.14,-1.93c0,-1.17 0.09,-2.1 0.25,-2.78c0.16,-0.68 0.56,-1.32 1.19,-1.93c0.64,-0.61 1.73,-1.32 3.27,-2.14c1.55,-0.82 3.33,-1.57 5.34,-2.25c2.01,-0.68 4.22,-1.24 6.6,-1.69c2.39,-0.44 4.8,-0.66 7.24,-0.66c4.54,0 8.41,0.51 11.59,1.54c3.19,1.03 5.76,2.54 7.73,4.53c1.97,1.99 3.4,4.46 4.29,7.41c0.89,2.95 1.33,6.4 1.33,10.33l0,42.65zm-11.52,-28.88l-9.91,0c-3.18,0 -5.95,0.27 -8.29,0.81c-2.34,0.54 -4.28,1.33 -5.83,2.39c-1.54,1.05 -2.68,2.32 -3.41,3.79c-0.72,1.48 -1.08,3.17 -1.08,5.09c0,3.28 1.04,5.89 3.12,7.84c2.09,1.94 5,2.91 8.75,2.91c3.04,0 5.86,-0.77 8.46,-2.31c2.6,-1.55 5.33,-3.91 8.19,-7.1l0,-13.42z" fill="#fff" fill-rule="nonzero" id="svg_20"/>
  <path d="m1137.61,218.85c0,1.03 -0.02,1.9 -0.07,2.6c-0.05,0.7 -0.14,1.25 -0.28,1.65c-0.14,0.4 -0.32,0.71 -0.53,0.92c-0.21,0.21 -0.5,0.31 -0.88,0.31c-0.37,0 -0.83,-0.1 -1.37,-0.31c-0.53,-0.22 -1.14,-0.43 -1.82,-0.64c-0.68,-0.21 -1.44,-0.41 -2.29,-0.59c-0.84,-0.19 -1.75,-0.29 -2.74,-0.29c-1.17,0 -2.31,0.24 -3.44,0.71c-1.12,0.47 -2.3,1.24 -3.55,2.32c-1.24,1.07 -2.54,2.5 -3.89,4.28c-1.36,1.78 -2.86,3.96 -4.5,6.53l0,41.59c0,0.38 -0.09,0.7 -0.28,0.95c-0.19,0.26 -0.49,0.48 -0.92,0.67c-0.42,0.19 -1,0.33 -1.75,0.42c-0.75,0.1 -1.71,0.14 -2.88,0.14c-1.13,0 -2.06,-0.04 -2.81,-0.14c-0.75,-0.09 -1.35,-0.23 -1.79,-0.42c-0.45,-0.19 -0.75,-0.41 -0.92,-0.67c-0.16,-0.25 -0.24,-0.57 -0.24,-0.95l0,-63.22c0,-0.38 0.07,-0.69 0.21,-0.95c0.14,-0.26 0.42,-0.49 0.84,-0.7c0.42,-0.22 0.96,-0.36 1.62,-0.43c0.65,-0.07 1.52,-0.1 2.6,-0.1c1.03,0 1.88,0.03 2.56,0.1c0.68,0.07 1.21,0.21 1.58,0.43c0.38,0.21 0.65,0.44 0.81,0.7c0.16,0.26 0.24,0.57 0.24,0.95l0,9.2c1.74,-2.53 3.37,-4.59 4.89,-6.18c1.52,-1.59 2.96,-2.85 4.32,-3.76c1.36,-0.91 2.7,-1.55 4.04,-1.9c1.33,-0.35 2.68,-0.52 4.04,-0.52c0.61,0 1.3,0.03 2.07,0.1c0.77,0.07 1.58,0.2 2.42,0.39c0.85,0.18 1.61,0.4 2.29,0.63c0.68,0.23 1.16,0.47 1.44,0.7c0.28,0.24 0.47,0.46 0.56,0.67c0.09,0.21 0.17,0.48 0.24,0.81c0.07,0.32 0.12,0.8 0.14,1.44c0.03,0.63 0.04,1.48 0.04,2.56z" fill="#fff" fill-rule="nonzero" id="svg_21"/>
  <path d="m1202.88,243.58c0,1.83 -0.46,3.13 -1.38,3.9c-0.91,0.77 -1.96,1.16 -3.14,1.16l-41.64,0c0,3.51 0.36,6.67 1.06,9.48c0.71,2.81 1.88,5.23 3.53,7.24c1.65,2.01 3.79,3.56 6.43,4.64c2.63,1.07 5.85,1.61 9.67,1.61c3.01,0 5.69,-0.24 8.04,-0.74c2.36,-0.49 4.39,-1.04 6.11,-1.65c1.72,-0.61 3.13,-1.16 4.24,-1.65c1.1,-0.49 1.94,-0.74 2.51,-0.74c0.32,0 0.62,0.09 0.88,0.25c0.26,0.16 0.46,0.41 0.6,0.74c0.14,0.33 0.24,0.78 0.31,1.37c0.07,0.58 0.11,1.3 0.11,2.14c0,0.61 -0.02,1.14 -0.07,1.58c-0.05,0.45 -0.1,0.84 -0.18,1.2c-0.07,0.35 -0.18,0.66 -0.35,0.94c-0.16,0.29 -0.37,0.55 -0.63,0.81c-0.26,0.26 -1.02,0.68 -2.28,1.27c-1.27,0.58 -2.91,1.16 -4.92,1.72c-2.01,0.56 -4.34,1.06 -6.99,1.51c-2.65,0.44 -5.47,0.67 -8.47,0.67c-5.19,0 -9.75,-0.73 -13.66,-2.18c-3.91,-1.45 -7.2,-3.61 -9.87,-6.47c-2.67,-2.85 -4.68,-6.43 -6.04,-10.74c-1.36,-4.31 -2.04,-9.32 -2.04,-15.04c0,-5.43 0.7,-10.31 2.11,-14.65c1.4,-4.33 3.43,-8.01 6.07,-11.03c2.65,-3.02 5.85,-5.34 9.59,-6.95c3.75,-1.62 7.94,-2.42 12.58,-2.42c4.96,0 9.19,0.79 12.68,2.38c3.49,1.6 6.36,3.74 8.61,6.43c2.24,2.7 3.9,5.86 4.95,9.49c1.05,3.63 1.58,7.5 1.58,11.62l0,2.11zm-11.66,-3.44c0.14,-6.09 -1.22,-10.87 -4.07,-14.33c-2.85,-3.47 -7.08,-5.2 -12.69,-5.2c-2.87,0 -5.39,0.54 -7.56,1.61c-2.17,1.08 -3.98,2.51 -5.44,4.29c-1.46,1.78 -2.59,3.85 -3.39,6.22c-0.81,2.36 -1.25,4.83 -1.35,7.41l34.5,0z" fill="#fff" fill-rule="nonzero" id="svg_22"/>
 </g>
</svg>