<?xml version="1.0" encoding="utf-8"?>
<!-- Generator: Adobe Illustrator 27.5.0, SVG Export Plug-In . SVG Version: 6.00 Build 0)  -->
<svg version="1.1" id="图层_1" xmlns="http://www.w3.org/2000/svg" xmlns:xlink="http://www.w3.org/1999/xlink" x="0px" y="0px"
	 viewBox="0 0 192 192" style="enable-background:new 0 0 192 192;" xml:space="preserve">
<style type="text/css">
	.st0{fill:none;}
	.st1{fill-rule:evenodd;clip-rule:evenodd;fill:#FFFFFF;}
	.st2{fill:#FFFFFF;}
</style>
<rect id="badge.-dark" y="67.8" class="st0" width="192" height="56.4"/>
<path class="st1" d="M18,113.8h-1c-0.3,0-0.5-0.2-0.5-0.5v-3.2h-0.7c-2.3,0-4.2-1.9-4.2-4.2v-0.7H8.4c-0.3,0-0.5-0.2-0.5-0.5v-1
	c0-0.3,0.2-0.5,0.5-0.5h3.2v-2.2H8.4c-0.3,0-0.5-0.2-0.5-0.5v-1c0-0.3,0.2-0.5,0.5-0.5h3.2V97H8.4c-0.3,0-0.5-0.2-0.5-0.5v-1
	c0-0.3,0.2-0.5,0.5-0.5h3.2v-2.2H8.4c-0.3,0-0.5-0.2-0.5-0.5v-1c0-0.3,0.2-0.5,0.5-0.5h3.2v-2.2H8.4c-0.3,0-0.5-0.2-0.5-0.5v-1
	c0-0.3,0.2-0.5,0.5-0.5h3.2v-0.7c0-2.3,1.9-4.2,4.2-4.2h0.7v-3.2c0-0.3,0.2-0.5,0.5-0.5h1c0.3,0,0.5,0.2,0.5,0.5v3.2h2.2v-3.2
	c0-0.3,0.2-0.5,0.5-0.5h1c0.3,0,0.5,0.2,0.5,0.5v3.2h2.2v-3.2c0-0.3,0.2-0.5,0.5-0.5h1c0.3,0,0.5,0.2,0.5,0.5v3.2h2.2v-3.2
	c0-0.3,0.2-0.5,0.5-0.5h1c0.3,0,0.5,0.2,0.5,0.5v3.2H33v-3.2c0-0.3,0.2-0.5,0.5-0.5h1c0.3,0,0.5,0.2,0.5,0.5v3.2h0.7
	c2.3,0,4.2,1.9,4.2,4.2v0.7H43c0.3,0,0.5,0.2,0.5,0.5v1c0,0.3-0.2,0.5-0.5,0.5h-3.2v2.2H43c0.3,0,0.5,0.2,0.5,0.5v1
	c0,0.3-0.2,0.5-0.5,0.5h-3.2V95H43c0.3,0,0.5,0.2,0.5,0.5v1c0,0.3-0.2,0.5-0.5,0.5h-3.2v2.2H43c0.3,0,0.5,0.2,0.5,0.5v1
	c0,0.3-0.2,0.5-0.5,0.5h-3.2v2.2H43c0.3,0,0.5,0.2,0.5,0.5v1c0,0.3-0.2,0.5-0.5,0.5h-3.2v0.7c0,2.3-1.9,4.2-4.2,4.2h-0.7v3.2
	c0,0.3-0.2,0.5-0.5,0.5h-1c-0.3,0-0.5-0.2-0.5-0.5v-3.2h-2.2v3.2c0,0.3-0.2,0.5-0.5,0.5h-1c-0.3,0-0.5-0.2-0.5-0.5v-3.2h-2.2v3.2
	c0,0.3-0.2,0.5-0.5,0.5h-1c-0.3,0-0.5-0.2-0.5-0.5v-3.2h-2.2v3.2c0,0.3-0.2,0.5-0.5,0.5h-1c-0.3,0-0.5-0.2-0.5-0.5v-3.2h-2.2v3.2
	C18.5,113.5,18.3,113.8,18,113.8z M33.8,94.4c0,1-0.2,2-0.5,2.8c-0.3,0.8-0.8,1.5-1.4,2.1c-0.6,0.6-1.3,1-2.2,1.3
	c-0.9,0.3-1.8,0.5-2.9,0.5v3.1c0,0.1,0,0.1-0.1,0.2c0,0.1-0.1,0.1-0.2,0.1c-0.1,0-0.2,0.1-0.3,0.1c-0.1,0-0.3,0-0.5,0
	c-0.2,0-0.4,0-0.5,0c-0.1,0-0.3,0-0.3-0.1c-0.1,0-0.1-0.1-0.2-0.1c0-0.1-0.1-0.1-0.1-0.2v-3.1c-1.1,0-2.1-0.2-2.9-0.5
	c-0.9-0.3-1.6-0.7-2.2-1.3c-0.6-0.5-1-1.2-1.4-2c-0.3-0.8-0.5-1.7-0.5-2.7v-6.7c0-0.1,0-0.1,0.1-0.2c0-0.1,0.1-0.1,0.2-0.1
	c0.1,0,0.2-0.1,0.3-0.1c0.1,0,0.3,0,0.5,0c0.2,0,0.4,0,0.5,0s0.3,0,0.3,0.1c0.1,0,0.1,0.1,0.2,0.1c0,0.1,0.1,0.1,0.1,0.2v6.5
	c0,0.7,0.1,1.4,0.3,2c0.2,0.6,0.5,1.1,0.9,1.5c0.4,0.4,0.9,0.7,1.5,0.9c0.6,0.2,1.3,0.3,2.1,0.4V87.9c0-0.1,0-0.1,0.1-0.2
	c0-0.1,0.1-0.1,0.2-0.1c0.1,0,0.2-0.1,0.4-0.1c0.1,0,0.3,0,0.5,0c0.2,0,0.4,0,0.5,0s0.3,0,0.3,0.1c0.1,0,0.1,0.1,0.2,0.1
	c0,0.1,0.1,0.1,0.1,0.2v11.3c0.8,0,1.5-0.1,2.1-0.4c0.6-0.2,1.1-0.6,1.5-1c0.4-0.4,0.7-0.9,0.9-1.5c0.2-0.6,0.3-1.2,0.3-1.9v-6.6
	c0-0.1,0-0.1,0.1-0.2c0-0.1,0.1-0.1,0.2-0.1c0.1,0,0.2-0.1,0.3-0.1c0.1,0,0.3,0,0.6,0c0.2,0,0.4,0,0.5,0c0.1,0,0.3,0,0.3,0.1
	c0.1,0,0.1,0.1,0.2,0.1c0,0.1,0.1,0.1,0.1,0.2C33.8,87.9,33.8,94.4,33.8,94.4z"/>
<path class="st2" d="M58.8,83.5c0,0.5-0.1,1-0.3,1.4s-0.4,0.8-0.7,1.1c-0.3,0.3-0.7,0.5-1.2,0.7s-1,0.2-1.7,0.2h-1.2v3.8
	c0,0,0,0.1,0,0.1c0,0-0.1,0.1-0.1,0.1c-0.1,0-0.1,0-0.2,0c-0.1,0-0.2,0-0.3,0c-0.1,0-0.2,0-0.3,0c-0.1,0-0.2,0-0.2,0
	c-0.1,0-0.1,0-0.1-0.1c0,0,0-0.1,0-0.1V81c0-0.2,0.1-0.4,0.2-0.5c0.1-0.1,0.2-0.1,0.4-0.1h2.3c0.2,0,0.4,0,0.7,0
	c0.2,0,0.5,0.1,0.7,0.1c0.3,0.1,0.6,0.2,0.9,0.4c0.3,0.2,0.5,0.4,0.8,0.6c0.2,0.3,0.4,0.5,0.5,0.9C58.8,82.7,58.8,83.1,58.8,83.5z
	 M57.3,83.6c0-0.4-0.1-0.8-0.2-1.1c-0.2-0.3-0.4-0.5-0.6-0.6c-0.2-0.1-0.5-0.2-0.7-0.3c-0.3,0-0.5-0.1-0.7-0.1h-1.3v4.2H55
	c0.4,0,0.8-0.1,1.1-0.2c0.3-0.1,0.5-0.3,0.7-0.5c0.2-0.2,0.3-0.4,0.4-0.7C57.3,84.2,57.3,83.9,57.3,83.6z"/>
<path class="st2" d="M67.3,87c0,0.6-0.1,1.2-0.2,1.7c-0.2,0.5-0.4,0.9-0.7,1.3c-0.3,0.4-0.7,0.7-1.2,0.9c-0.5,0.2-1,0.3-1.6,0.3
	c-0.6,0-1.1-0.1-1.6-0.3c-0.4-0.2-0.8-0.4-1.1-0.8c-0.3-0.3-0.5-0.8-0.7-1.3c-0.1-0.5-0.2-1-0.2-1.7c0-0.6,0.1-1.2,0.2-1.7
	c0.2-0.5,0.4-0.9,0.7-1.3c0.3-0.4,0.7-0.6,1.2-0.9c0.5-0.2,1-0.3,1.6-0.3c0.6,0,1.1,0.1,1.6,0.3c0.4,0.2,0.8,0.4,1.1,0.8
	c0.3,0.3,0.5,0.8,0.7,1.3C67.3,85.8,67.3,86.4,67.3,87z M65.9,87.1c0-0.4,0-0.8-0.1-1.1c-0.1-0.4-0.2-0.7-0.4-0.9
	c-0.2-0.3-0.4-0.5-0.7-0.6c-0.3-0.2-0.7-0.2-1.1-0.2c-0.4,0-0.7,0.1-1,0.2c-0.3,0.1-0.5,0.3-0.7,0.6s-0.3,0.6-0.4,0.9
	c-0.1,0.4-0.1,0.7-0.1,1.2c0,0.4,0,0.8,0.1,1.1c0.1,0.4,0.2,0.7,0.4,0.9s0.4,0.5,0.7,0.6c0.3,0.2,0.7,0.2,1.1,0.2
	c0.4,0,0.7-0.1,1-0.2c0.3-0.1,0.5-0.3,0.7-0.6c0.2-0.3,0.3-0.6,0.4-0.9C65.9,87.9,65.9,87.5,65.9,87.1z"/>
<path class="st2" d="M79.5,83.4c0,0,0,0.1,0,0.1c0,0.1,0,0.1-0.1,0.2l-2.2,7c0,0.1,0,0.1-0.1,0.1c0,0-0.1,0.1-0.1,0.1
	c-0.1,0-0.1,0-0.3,0c-0.1,0-0.2,0-0.4,0c-0.2,0-0.3,0-0.4,0c-0.1,0-0.2,0-0.3,0c-0.1,0-0.1-0.1-0.2-0.1s-0.1-0.1-0.1-0.1l-1.5-5.3
	l0-0.1l0,0.1l-1.4,5.3c0,0.1,0,0.1-0.1,0.1c0,0-0.1,0.1-0.2,0.1c-0.1,0-0.2,0-0.3,0c-0.1,0-0.2,0-0.4,0c-0.2,0-0.3,0-0.4,0
	c-0.1,0-0.2,0-0.3,0c-0.1,0-0.1-0.1-0.2-0.1c0,0-0.1-0.1-0.1-0.1l-2.2-7c0-0.1,0-0.1-0.1-0.2c0-0.1,0-0.1,0-0.1c0,0,0-0.1,0-0.1
	c0,0,0.1-0.1,0.1-0.1c0.1,0,0.1,0,0.2,0c0.1,0,0.2,0,0.3,0c0.2,0,0.3,0,0.4,0c0.1,0,0.2,0,0.2,0c0,0,0.1,0,0.1,0.1
	c0,0,0,0.1,0.1,0.1l1.8,6.1l0,0.1l0-0.1l1.6-6.1c0,0,0-0.1,0.1-0.1c0,0,0.1-0.1,0.1-0.1c0,0,0.1,0,0.2,0c0.1,0,0.2,0,0.3,0
	c0.1,0,0.2,0,0.3,0c0.1,0,0.2,0,0.2,0c0,0,0.1,0,0.1,0.1c0,0,0,0.1,0,0.1l1.8,6.1l0,0.1l0-0.1l1.7-6.1c0,0,0-0.1,0.1-0.1
	c0,0,0.1-0.1,0.1-0.1c0.1,0,0.1,0,0.2,0c0.1,0,0.2,0,0.3,0c0.1,0,0.2,0,0.3,0c0.1,0,0.1,0,0.2,0s0.1,0,0.1,0.1
	C79.5,83.3,79.5,83.3,79.5,83.4L79.5,83.4z"/>
<path class="st2" d="M87.4,86.7c0,0.2-0.1,0.4-0.2,0.5c-0.1,0.1-0.2,0.1-0.4,0.1H82c0,0.4,0,0.8,0.1,1.1c0.1,0.3,0.2,0.6,0.4,0.8
	c0.2,0.2,0.4,0.4,0.7,0.5c0.3,0.1,0.7,0.2,1.1,0.2c0.4,0,0.7,0,0.9-0.1c0.3-0.1,0.5-0.1,0.7-0.2c0.2-0.1,0.4-0.1,0.5-0.2
	c0.1-0.1,0.2-0.1,0.3-0.1c0,0,0.1,0,0.1,0c0,0,0.1,0,0.1,0.1c0,0,0,0.1,0,0.2c0,0.1,0,0.2,0,0.2c0,0.1,0,0.1,0,0.2
	c0,0.1,0,0.1,0,0.1c0,0,0,0.1,0,0.1c0,0,0,0.1-0.1,0.1c0,0-0.1,0.1-0.3,0.1c-0.1,0.1-0.3,0.1-0.6,0.2c-0.2,0.1-0.5,0.1-0.8,0.2
	s-0.6,0.1-1,0.1c-0.6,0-1.1-0.1-1.6-0.3c-0.5-0.2-0.8-0.4-1.1-0.8c-0.3-0.3-0.5-0.7-0.7-1.3c-0.2-0.5-0.2-1.1-0.2-1.7
	c0-0.6,0.1-1.2,0.2-1.7c0.2-0.5,0.4-0.9,0.7-1.3c0.3-0.4,0.7-0.6,1.1-0.8c0.4-0.2,0.9-0.3,1.5-0.3c0.6,0,1.1,0.1,1.5,0.3
	c0.4,0.2,0.7,0.4,1,0.7c0.3,0.3,0.5,0.7,0.6,1.1c0.1,0.4,0.2,0.9,0.2,1.4C87.4,86.5,87.4,86.7,87.4,86.7z M86,86.3
	c0-0.7-0.1-1.3-0.5-1.7c-0.3-0.4-0.8-0.6-1.5-0.6c-0.3,0-0.6,0.1-0.9,0.2c-0.3,0.1-0.5,0.3-0.6,0.5c-0.2,0.2-0.3,0.4-0.4,0.7
	C82,85.7,82,86,82,86.3C82,86.3,86,86.3,86,86.3z"/>
<path class="st2" d="M93.7,83.9c0,0.1,0,0.2,0,0.3c0,0.1,0,0.1,0,0.2c0,0,0,0.1-0.1,0.1c0,0-0.1,0-0.1,0c0,0-0.1,0-0.2,0
	c-0.1,0-0.1,0-0.2-0.1c-0.1,0-0.2,0-0.3-0.1c-0.1,0-0.2,0-0.3,0c-0.1,0-0.3,0-0.4,0.1c-0.1,0.1-0.3,0.1-0.4,0.3
	c-0.1,0.1-0.3,0.3-0.5,0.5c-0.2,0.2-0.3,0.5-0.5,0.8v4.8c0,0,0,0.1,0,0.1c0,0-0.1,0.1-0.1,0.1c0,0-0.1,0-0.2,0c-0.1,0-0.2,0-0.3,0
	c-0.1,0-0.2,0-0.3,0c-0.1,0-0.2,0-0.2,0c-0.1,0-0.1,0-0.1-0.1c0,0,0-0.1,0-0.1v-7.4c0,0,0-0.1,0-0.1c0,0,0-0.1,0.1-0.1
	c0,0,0.1,0,0.2,0c0.1,0,0.2,0,0.3,0c0.1,0,0.2,0,0.3,0c0.1,0,0.1,0,0.2,0c0,0,0.1,0.1,0.1,0.1c0,0,0,0.1,0,0.1v1.1
	c0.2-0.3,0.4-0.5,0.6-0.7c0.2-0.2,0.3-0.3,0.5-0.4c0.2-0.1,0.3-0.2,0.5-0.2c0.2,0,0.3-0.1,0.5-0.1c0.1,0,0.2,0,0.2,0
	c0.1,0,0.2,0,0.3,0c0.1,0,0.2,0,0.3,0.1c0.1,0,0.1,0.1,0.2,0.1c0,0,0.1,0.1,0.1,0.1c0,0,0,0.1,0,0.1c0,0,0,0.1,0,0.2
	C93.7,83.6,93.7,83.7,93.7,83.9L93.7,83.9z"/>
<path class="st2" d="M101.3,86.7c0,0.2-0.1,0.4-0.2,0.5c-0.1,0.1-0.2,0.1-0.4,0.1h-4.8c0,0.4,0,0.8,0.1,1.1c0.1,0.3,0.2,0.6,0.4,0.8
	s0.4,0.4,0.7,0.5c0.3,0.1,0.7,0.2,1.1,0.2c0.4,0,0.7,0,0.9-0.1c0.3-0.1,0.5-0.1,0.7-0.2c0.2-0.1,0.4-0.1,0.5-0.2
	c0.1-0.1,0.2-0.1,0.3-0.1c0,0,0.1,0,0.1,0c0,0,0.1,0,0.1,0.1c0,0,0,0.1,0,0.2c0,0.1,0,0.2,0,0.2c0,0.1,0,0.1,0,0.2
	c0,0.1,0,0.1,0,0.1c0,0,0,0.1,0,0.1c0,0,0,0.1-0.1,0.1c0,0-0.1,0.1-0.3,0.1s-0.3,0.1-0.6,0.2c-0.2,0.1-0.5,0.1-0.8,0.2
	s-0.6,0.1-1,0.1c-0.6,0-1.1-0.1-1.6-0.3c-0.5-0.2-0.8-0.4-1.1-0.8c-0.3-0.3-0.5-0.7-0.7-1.3s-0.2-1.1-0.2-1.7c0-0.6,0.1-1.2,0.2-1.7
	c0.2-0.5,0.4-0.9,0.7-1.3c0.3-0.4,0.7-0.6,1.1-0.8c0.4-0.2,0.9-0.3,1.5-0.3c0.6,0,1.1,0.1,1.5,0.3c0.4,0.2,0.7,0.4,1,0.7
	c0.3,0.3,0.5,0.7,0.6,1.1c0.1,0.4,0.2,0.9,0.2,1.4L101.3,86.7L101.3,86.7z M99.9,86.3c0-0.7-0.1-1.3-0.5-1.7
	c-0.3-0.4-0.8-0.6-1.5-0.6c-0.3,0-0.6,0.1-0.9,0.2c-0.3,0.1-0.5,0.3-0.6,0.5c-0.2,0.2-0.3,0.4-0.4,0.7c-0.1,0.3-0.1,0.6-0.2,0.9
	C95.9,86.3,99.9,86.3,99.9,86.3z"/>
<path class="st2" d="M109.7,90.7c0,0,0,0.1,0,0.1c0,0-0.1,0.1-0.1,0.1c0,0-0.1,0-0.2,0c-0.1,0-0.2,0-0.3,0c-0.1,0-0.2,0-0.3,0
	c-0.1,0-0.1,0-0.2,0c0,0-0.1,0-0.1-0.1c0,0,0-0.1,0-0.1v-1c-0.4,0.4-0.8,0.7-1.2,1c-0.4,0.2-0.9,0.4-1.4,0.4c-0.5,0-1-0.1-1.4-0.3
	c-0.4-0.2-0.7-0.5-0.9-0.9c-0.2-0.4-0.4-0.8-0.5-1.3c-0.1-0.5-0.2-1-0.2-1.5c0-0.6,0.1-1.2,0.2-1.7c0.1-0.5,0.3-0.9,0.6-1.3
	c0.3-0.4,0.6-0.6,1-0.8c0.4-0.2,0.9-0.3,1.4-0.3c0.4,0,0.8,0.1,1.2,0.3c0.4,0.2,0.7,0.5,1.1,0.8v-4.3c0,0,0-0.1,0-0.1
	c0,0,0.1-0.1,0.1-0.1c0.1,0,0.1,0,0.2,0c0.1,0,0.2,0,0.3,0c0.1,0,0.2,0,0.3,0c0.1,0,0.2,0,0.2,0c0,0,0.1,0,0.1,0.1c0,0,0,0.1,0,0.1
	C109.7,79.8,109.7,90.7,109.7,90.7z M108.3,85.6c-0.4-0.5-0.7-0.8-1.1-1c-0.3-0.2-0.7-0.4-1.1-0.4c-0.3,0-0.6,0.1-0.9,0.2
	c-0.2,0.2-0.4,0.4-0.6,0.6c-0.1,0.3-0.3,0.6-0.3,0.9s-0.1,0.7-0.1,1c0,0.4,0,0.7,0.1,1.1c0.1,0.4,0.2,0.7,0.3,0.9
	c0.1,0.3,0.3,0.5,0.6,0.7c0.2,0.2,0.5,0.2,0.9,0.2c0.2,0,0.4,0,0.5-0.1c0.2,0,0.3-0.1,0.5-0.2c0.2-0.1,0.4-0.3,0.5-0.4
	c0.2-0.2,0.4-0.4,0.6-0.7V85.6z"/>
<path class="st2" d="M122.7,87c0,0.6-0.1,1.2-0.2,1.7c-0.1,0.5-0.3,0.9-0.6,1.3c-0.3,0.4-0.6,0.6-1,0.8c-0.4,0.2-0.8,0.3-1.3,0.3
	c-0.2,0-0.5,0-0.6-0.1c-0.2,0-0.4-0.1-0.6-0.2c-0.2-0.1-0.4-0.2-0.6-0.4c-0.2-0.2-0.4-0.3-0.6-0.6v0.9c0,0,0,0.1,0,0.1
	c0,0-0.1,0.1-0.1,0.1c0,0-0.1,0-0.2,0c-0.1,0-0.2,0-0.3,0c-0.1,0-0.2,0-0.3,0c-0.1,0-0.1,0-0.2,0c0,0-0.1,0-0.1-0.1c0,0,0-0.1,0-0.1
	V79.8c0,0,0-0.1,0-0.1c0,0,0.1-0.1,0.1-0.1s0.1,0,0.2,0c0.1,0,0.2,0,0.3,0c0.1,0,0.2,0,0.3,0c0.1,0,0.2,0,0.2,0c0,0,0.1,0,0.1,0.1
	c0,0,0,0.1,0,0.1v4.4c0.2-0.2,0.4-0.4,0.6-0.6c0.2-0.2,0.4-0.3,0.6-0.4c0.2-0.1,0.4-0.2,0.6-0.2c0.2,0,0.4-0.1,0.6-0.1
	c0.5,0,1,0.1,1.4,0.3c0.4,0.2,0.7,0.5,0.9,0.9c0.2,0.4,0.4,0.8,0.5,1.3C122.6,85.9,122.7,86.4,122.7,87z M121.3,87.1
	c0-0.4,0-0.7-0.1-1.1c-0.1-0.4-0.2-0.7-0.3-0.9c-0.1-0.3-0.3-0.5-0.6-0.7c-0.2-0.2-0.5-0.2-0.9-0.2c-0.2,0-0.3,0-0.5,0.1
	c-0.2,0-0.3,0.1-0.5,0.2s-0.4,0.3-0.5,0.4c-0.2,0.2-0.4,0.4-0.6,0.7v2.9c0.4,0.5,0.7,0.8,1.1,1c0.3,0.2,0.7,0.4,1.1,0.4
	c0.3,0,0.6-0.1,0.9-0.2c0.2-0.2,0.4-0.4,0.6-0.7c0.2-0.3,0.3-0.6,0.3-0.9C121.3,87.8,121.3,87.5,121.3,87.1z"/>
<path class="st2" d="M128,90.9l-1,2.7c0,0.1-0.1,0.2-0.2,0.2c-0.1,0-0.3,0.1-0.6,0.1c-0.1,0-0.3,0-0.3,0c-0.1,0-0.2,0-0.2-0.1
	c0,0-0.1-0.1-0.1-0.1c0-0.1,0-0.1,0-0.2l1-2.6c0,0-0.1-0.1-0.1-0.1c0,0-0.1-0.1-0.1-0.2l-2.6-7c0-0.1-0.1-0.2-0.1-0.3s0-0.1,0.1-0.2
	c0,0,0.1-0.1,0.2-0.1c0.1,0,0.2,0,0.4,0s0.3,0,0.4,0c0.1,0,0.2,0,0.2,0c0.1,0,0.1,0.1,0.1,0.1c0,0,0.1,0.1,0.1,0.2l2.1,5.9h0l2-5.9
	c0-0.1,0.1-0.2,0.1-0.2c0,0,0.1-0.1,0.2-0.1c0.1,0,0.2,0,0.4,0c0.2,0,0.3,0,0.4,0c0.1,0,0.2,0,0.2,0.1c0,0,0.1,0.1,0.1,0.2
	s0,0.1,0,0.2C130.6,83.6,128,90.9,128,90.9z"/>
<path class="st2" d="M65.3,111.6c0,0.2,0,0.3,0,0.4c0,0.1,0,0.2-0.1,0.3c0,0.1-0.1,0.1-0.1,0.1c0,0-0.1,0-0.1,0
	c-0.1,0-0.4-0.1-0.7-0.2c-0.3-0.1-0.7-0.3-1.1-0.5c-0.4-0.2-0.9-0.5-1.3-0.8c-0.5-0.3-0.9-0.7-1.4-1.1c-0.3,0.2-0.8,0.4-1.3,0.6
	c-0.5,0.2-1.2,0.2-1.9,0.2c-1,0-1.9-0.2-2.7-0.5c-0.8-0.3-1.4-0.8-1.9-1.3c-0.5-0.6-0.9-1.3-1.1-2.2c-0.2-0.9-0.4-1.9-0.4-3
	c0-1.1,0.1-2.1,0.4-3s0.7-1.6,1.2-2.3c0.5-0.6,1.2-1.1,2-1.4c0.8-0.3,1.7-0.5,2.8-0.5c1,0,1.9,0.2,2.6,0.5c0.8,0.3,1.4,0.8,1.9,1.3
	c0.5,0.6,0.9,1.3,1.2,2.2s0.4,1.9,0.4,3c0,0.6,0,1.1-0.1,1.7s-0.2,1-0.3,1.5c-0.1,0.5-0.3,0.9-0.6,1.3c-0.2,0.4-0.5,0.8-0.8,1.1
	c0.5,0.4,1,0.8,1.4,1c0.4,0.2,0.7,0.4,1,0.5c0.3,0.1,0.5,0.2,0.6,0.3c0.1,0.1,0.2,0.1,0.3,0.2s0.1,0.2,0.1,0.3
	C65.3,111.2,65.3,111.4,65.3,111.6z M61.7,103.4c0-0.8-0.1-1.5-0.2-2.2c-0.1-0.7-0.4-1.3-0.7-1.8c-0.3-0.5-0.8-0.9-1.3-1.2
	c-0.5-0.3-1.2-0.4-2-0.4c-0.8,0-1.5,0.1-2,0.4c-0.5,0.3-1,0.7-1.3,1.2c-0.3,0.5-0.6,1.1-0.7,1.8c-0.1,0.7-0.2,1.4-0.2,2.1
	c0,0.8,0.1,1.6,0.2,2.2c0.1,0.7,0.4,1.3,0.7,1.8c0.3,0.5,0.8,0.9,1.3,1.2c0.5,0.3,1.2,0.4,2,0.4c0.8,0,1.5-0.1,2-0.4
	c0.5-0.3,1-0.7,1.3-1.2c0.3-0.5,0.6-1.1,0.7-1.8C61.6,104.8,61.7,104.1,61.7,103.4z"/>
<path class="st2" d="M81.9,110.1c0,0.1,0,0.1,0,0.1c0,0-0.1,0.1-0.2,0.1c-0.1,0-0.2,0-0.3,0.1c-0.1,0-0.3,0-0.4,0
	c-0.2,0-0.3,0-0.4,0c-0.1,0-0.2,0-0.3-0.1c-0.1,0-0.1-0.1-0.1-0.1c0,0,0-0.1,0-0.1V98h0l-4.9,12.1c0,0-0.1,0.1-0.1,0.1
	c0,0-0.1,0.1-0.2,0.1c-0.1,0-0.2,0-0.3,0.1c-0.1,0-0.2,0-0.4,0c-0.1,0-0.3,0-0.4,0c-0.1,0-0.2,0-0.3-0.1c-0.1,0-0.1-0.1-0.2-0.1
	c0,0-0.1-0.1-0.1-0.1L68.6,98h0v12.1c0,0.1,0,0.1,0,0.1c0,0-0.1,0.1-0.2,0.1c-0.1,0-0.2,0-0.3,0.1c-0.1,0-0.3,0-0.5,0
	c-0.2,0-0.3,0-0.4,0c-0.1,0-0.2,0-0.3-0.1c-0.1,0-0.1-0.1-0.1-0.1c0,0,0-0.1,0-0.1V97.3c0-0.3,0.1-0.5,0.2-0.6
	c0.2-0.1,0.3-0.2,0.5-0.2h1.1c0.2,0,0.4,0,0.6,0.1c0.2,0,0.3,0.1,0.5,0.2c0.1,0.1,0.2,0.2,0.3,0.4c0.1,0.1,0.2,0.3,0.2,0.5l4,10h0.1
	l4.1-10c0.1-0.2,0.2-0.4,0.3-0.5c0.1-0.1,0.2-0.3,0.3-0.4c0.1-0.1,0.2-0.2,0.4-0.2c0.1,0,0.3-0.1,0.5-0.1h1.2c0.1,0,0.2,0,0.3,0
	c0.1,0,0.2,0.1,0.3,0.1c0.1,0.1,0.1,0.2,0.2,0.3c0,0.1,0.1,0.2,0.1,0.4L81.9,110.1L81.9,110.1z"/>
<path class="st2" d="M94.6,110.1c0,0.1,0,0.1,0,0.2c0,0-0.1,0.1-0.1,0.1c-0.1,0-0.2,0.1-0.3,0.1c-0.1,0-0.3,0-0.5,0
	c-0.2,0-0.5,0-0.6,0c-0.2,0-0.3-0.1-0.4-0.1c-0.1-0.1-0.1-0.1-0.2-0.2l-5.1-6.9v6.9c0,0,0,0.1,0,0.1c0,0-0.1,0.1-0.1,0.1
	c-0.1,0-0.2,0-0.3,0.1c-0.1,0-0.3,0-0.4,0c-0.2,0-0.3,0-0.4,0c-0.1,0-0.2,0-0.3-0.1c-0.1,0-0.1-0.1-0.1-0.1c0,0,0-0.1,0-0.1V96.8
	c0-0.1,0-0.1,0-0.1c0,0,0.1-0.1,0.1-0.1c0.1,0,0.2,0,0.3-0.1c0.1,0,0.3,0,0.4,0c0.2,0,0.3,0,0.4,0c0.1,0,0.2,0,0.3,0.1
	c0.1,0,0.1,0.1,0.1,0.1c0,0,0,0.1,0,0.1v6.2l4.9-6.2c0-0.1,0.1-0.1,0.1-0.2c0.1,0,0.1-0.1,0.2-0.1c0.1,0,0.2,0,0.3-0.1
	c0.1,0,0.3,0,0.5,0c0.2,0,0.3,0,0.4,0c0.1,0,0.2,0,0.3,0.1c0.1,0,0.1,0.1,0.1,0.1c0,0,0,0.1,0,0.1c0,0.1,0,0.2-0.1,0.3
	c0,0.1-0.1,0.2-0.3,0.4l-4.6,5.5l4.9,6.6c0.1,0.2,0.2,0.3,0.2,0.4C94.6,110,94.6,110,94.6,110.1L94.6,110.1z"/>
<path class="st2" d="M109.2,97.3c0,0.1,0,0.3,0,0.4c0,0.1,0,0.2-0.1,0.2c0,0.1-0.1,0.1-0.1,0.1c0,0-0.1,0-0.1,0h-5.1v4.7h4.8
	c0,0,0.1,0,0.1,0c0,0,0.1,0.1,0.1,0.1c0,0.1,0.1,0.1,0.1,0.2c0,0.1,0,0.2,0,0.4c0,0.1,0,0.3,0,0.3c0,0.1,0,0.2-0.1,0.2
	c0,0.1-0.1,0.1-0.1,0.1c0,0-0.1,0-0.1,0h-4.8v5.8c0,0,0,0.1,0,0.1c0,0-0.1,0.1-0.1,0.1c-0.1,0-0.2,0-0.3,0.1c-0.1,0-0.3,0-0.4,0
	c-0.2,0-0.3,0-0.4,0c-0.1,0-0.2,0-0.3-0.1c-0.1,0-0.1-0.1-0.1-0.1c0,0,0-0.1,0-0.1V97.2c0-0.3,0.1-0.5,0.2-0.6s0.3-0.2,0.5-0.2h6.2
	c0,0,0.1,0,0.1,0c0,0,0.1,0.1,0.1,0.1c0,0.1,0.1,0.1,0.1,0.3C109.2,97,109.2,97.2,109.2,97.3z"/>
<path class="st2" d="M113.5,110.1c0,0.1,0,0.1,0,0.1c0,0-0.1,0.1-0.1,0.1c-0.1,0-0.2,0-0.3,0.1c-0.1,0-0.3,0-0.4,0
	c-0.2,0-0.3,0-0.4,0c-0.1,0-0.2,0-0.3-0.1c-0.1,0-0.1-0.1-0.1-0.1c0,0,0-0.1,0-0.1v-9.6c0,0,0-0.1,0-0.1c0,0,0.1-0.1,0.1-0.1
	c0.1,0,0.2,0,0.3-0.1c0.1,0,0.3,0,0.4,0c0.2,0,0.3,0,0.4,0c0.1,0,0.2,0,0.3,0.1c0.1,0,0.1,0.1,0.1,0.1c0,0,0,0.1,0,0.1V110.1z
	 M113.7,97.2c0,0.4-0.1,0.7-0.2,0.8c-0.2,0.1-0.4,0.2-0.9,0.2c-0.4,0-0.7-0.1-0.9-0.2c-0.2-0.1-0.2-0.4-0.2-0.8
	c0-0.4,0.1-0.7,0.2-0.8c0.2-0.1,0.4-0.2,0.9-0.2c0.4,0,0.7,0.1,0.9,0.2C113.6,96.5,113.7,96.8,113.7,97.2z"/>
<path class="st2" d="M122.4,101.1c0,0.2,0,0.3,0,0.4c0,0.1,0,0.2,0,0.3c0,0.1,0,0.1-0.1,0.1c0,0-0.1,0-0.1,0c-0.1,0-0.1,0-0.2,0
	c-0.1,0-0.2-0.1-0.3-0.1c-0.1,0-0.2-0.1-0.3-0.1c-0.1,0-0.3,0-0.4,0c-0.2,0-0.4,0-0.5,0.1c-0.2,0.1-0.4,0.2-0.5,0.4
	c-0.2,0.2-0.4,0.4-0.6,0.7c-0.2,0.3-0.4,0.6-0.7,1v6.3c0,0.1,0,0.1,0,0.1s-0.1,0.1-0.1,0.1c-0.1,0-0.2,0-0.3,0.1c-0.1,0-0.3,0-0.4,0
	c-0.2,0-0.3,0-0.4,0c-0.1,0-0.2,0-0.3-0.1c-0.1,0-0.1-0.1-0.1-0.1s0-0.1,0-0.1v-9.6c0-0.1,0-0.1,0-0.1c0,0,0.1-0.1,0.1-0.1
	c0.1,0,0.1-0.1,0.2-0.1c0.1,0,0.2,0,0.4,0c0.2,0,0.3,0,0.4,0c0.1,0,0.2,0,0.2,0.1c0.1,0,0.1,0.1,0.1,0.1c0,0,0,0.1,0,0.1v1.4
	c0.3-0.4,0.5-0.7,0.7-0.9c0.2-0.2,0.5-0.4,0.7-0.6c0.2-0.1,0.4-0.2,0.6-0.3c0.2-0.1,0.4-0.1,0.6-0.1c0.1,0,0.2,0,0.3,0
	c0.1,0,0.2,0,0.4,0.1c0.1,0,0.2,0.1,0.3,0.1c0.1,0,0.2,0.1,0.2,0.1c0,0,0.1,0.1,0.1,0.1c0,0,0,0.1,0,0.1c0,0,0,0.1,0,0.2
	C122.4,100.8,122.4,100.9,122.4,101.1L122.4,101.1z"/>
<path class="st2" d="M138.7,110.1c0,0.1,0,0.1,0,0.1c0,0-0.1,0.1-0.1,0.1c-0.1,0-0.2,0-0.3,0.1c-0.1,0-0.3,0-0.4,0
	c-0.2,0-0.3,0-0.4,0c-0.1,0-0.2,0-0.3-0.1c-0.1,0-0.1-0.1-0.1-0.1c0,0,0-0.1,0-0.1v-5.9c0-0.4,0-0.8-0.1-1.1
	c-0.1-0.3-0.2-0.6-0.3-0.9c-0.2-0.2-0.4-0.4-0.6-0.6c-0.2-0.1-0.5-0.2-0.9-0.2c-0.4,0-0.8,0.2-1.2,0.5c-0.4,0.3-0.9,0.8-1.4,1.4v6.7
	c0,0.1,0,0.1,0,0.1c0,0-0.1,0.1-0.1,0.1c-0.1,0-0.2,0-0.3,0.1c-0.1,0-0.3,0-0.4,0c-0.2,0-0.3,0-0.4,0c-0.1,0-0.2,0-0.3-0.1
	c-0.1,0-0.1-0.1-0.1-0.1s0-0.1,0-0.1v-5.9c0-0.4,0-0.8-0.1-1.1c-0.1-0.3-0.2-0.6-0.4-0.9c-0.2-0.2-0.4-0.4-0.6-0.6
	c-0.2-0.1-0.5-0.2-0.9-0.2c-0.4,0-0.8,0.2-1.2,0.5c-0.4,0.3-0.9,0.8-1.3,1.4v6.7c0,0.1,0,0.1,0,0.1s-0.1,0.1-0.1,0.1
	c-0.1,0-0.2,0-0.3,0.1c-0.1,0-0.3,0-0.4,0c-0.2,0-0.3,0-0.4,0c-0.1,0-0.2,0-0.3-0.1c-0.1,0-0.1-0.1-0.1-0.1c0,0,0-0.1,0-0.1v-9.6
	c0-0.1,0-0.1,0-0.1c0,0,0.1-0.1,0.1-0.1c0.1,0,0.1-0.1,0.2-0.1c0.1,0,0.2,0,0.4,0c0.2,0,0.3,0,0.4,0c0.1,0,0.2,0,0.2,0.1
	c0.1,0,0.1,0.1,0.1,0.1c0,0,0,0.1,0,0.1v1.3c0.5-0.6,1.1-1.1,1.6-1.3c0.5-0.3,1-0.4,1.5-0.4c0.4,0,0.8,0,1.1,0.1
	c0.3,0.1,0.6,0.2,0.8,0.4c0.2,0.2,0.4,0.4,0.6,0.6c0.2,0.2,0.3,0.5,0.4,0.8c0.3-0.3,0.6-0.6,0.9-0.9c0.3-0.2,0.6-0.4,0.8-0.6
	c0.3-0.1,0.5-0.3,0.8-0.3c0.3-0.1,0.5-0.1,0.8-0.1c0.6,0,1.1,0.1,1.6,0.3c0.4,0.2,0.8,0.5,1,0.9c0.3,0.4,0.4,0.8,0.6,1.3
	c0.1,0.5,0.2,1,0.2,1.5L138.7,110.1L138.7,110.1z"/>
<path class="st2" d="M155.3,100.4c0,0,0,0.1,0,0.2c0,0.1,0,0.2-0.1,0.3l-2.8,9.2c0,0.1-0.1,0.1-0.1,0.2c0,0-0.1,0.1-0.2,0.1
	c-0.1,0-0.2,0-0.3,0.1c-0.1,0-0.3,0-0.5,0c-0.2,0-0.4,0-0.6,0c-0.1,0-0.3,0-0.4-0.1c-0.1,0-0.2-0.1-0.2-0.1c0,0-0.1-0.1-0.1-0.2
	l-2-7l0-0.1l0,0.1l-1.9,7c0,0.1-0.1,0.1-0.1,0.2c0,0-0.1,0.1-0.2,0.1c-0.1,0-0.2,0-0.4,0.1c-0.1,0-0.3,0-0.5,0c-0.2,0-0.4,0-0.5,0
	c-0.1,0-0.3,0-0.3-0.1c-0.1,0-0.2-0.1-0.2-0.1c0,0-0.1-0.1-0.1-0.2l-2.8-9.2c0-0.1-0.1-0.2-0.1-0.3c0-0.1,0-0.1,0-0.2
	c0-0.1,0-0.1,0-0.2c0,0,0.1-0.1,0.1-0.1c0.1,0,0.2,0,0.3,0c0.1,0,0.3,0,0.4,0c0.2,0,0.4,0,0.5,0c0.1,0,0.2,0,0.3,0.1
	c0.1,0,0.1,0.1,0.1,0.1c0,0,0.1,0.1,0.1,0.2l2.3,7.9l0,0.1l0-0.1l2.1-7.9c0-0.1,0-0.1,0.1-0.2c0,0,0.1-0.1,0.1-0.1
	c0.1,0,0.2,0,0.3-0.1c0.1,0,0.3,0,0.4,0c0.2,0,0.3,0,0.4,0c0.1,0,0.2,0,0.3,0.1c0.1,0,0.1,0.1,0.1,0.1c0,0,0,0.1,0.1,0.1l2.3,8
	l0,0.1l0-0.1l2.3-7.9c0-0.1,0-0.1,0.1-0.2c0,0,0.1-0.1,0.1-0.1c0.1,0,0.2,0,0.3-0.1c0.1,0,0.3,0,0.5,0c0.2,0,0.3,0,0.4,0
	c0.1,0,0.2,0,0.2,0.1c0.1,0,0.1,0.1,0.1,0.1C155.3,100.3,155.3,100.4,155.3,100.4z"/>
<path class="st2" d="M164.5,110.1c0,0.1,0,0.1-0.1,0.2c-0.1,0-0.1,0.1-0.2,0.1c-0.1,0-0.2,0-0.4,0c-0.2,0-0.3,0-0.4,0
	c-0.1,0-0.2-0.1-0.2-0.1c0,0-0.1-0.1-0.1-0.2v-1c-0.4,0.4-0.9,0.8-1.4,1c-0.5,0.2-1.1,0.4-1.6,0.4c-0.5,0-1-0.1-1.4-0.2
	c-0.4-0.1-0.8-0.3-1-0.6c-0.3-0.2-0.5-0.6-0.7-0.9c-0.2-0.4-0.2-0.8-0.2-1.2c0-0.5,0.1-1,0.3-1.4c0.2-0.4,0.5-0.7,1-1
	c0.4-0.3,0.9-0.5,1.5-0.6c0.6-0.1,1.3-0.2,2-0.2h1.3v-0.7c0-0.4,0-0.7-0.1-1c-0.1-0.3-0.2-0.5-0.4-0.7c-0.2-0.2-0.4-0.3-0.7-0.4
	c-0.3-0.1-0.6-0.1-1-0.1c-0.4,0-0.8,0.1-1.2,0.2s-0.6,0.2-0.9,0.3c-0.3,0.1-0.5,0.2-0.7,0.3c-0.2,0.1-0.3,0.2-0.4,0.2
	c-0.1,0-0.1,0-0.1,0c0,0-0.1-0.1-0.1-0.1c0-0.1-0.1-0.1-0.1-0.2c0-0.1,0-0.2,0-0.3c0-0.2,0-0.3,0-0.4c0-0.1,0.1-0.2,0.2-0.3
	c0.1-0.1,0.3-0.2,0.5-0.3c0.2-0.1,0.5-0.2,0.8-0.3c0.3-0.1,0.6-0.2,1-0.3c0.4-0.1,0.7-0.1,1.1-0.1c0.7,0,1.3,0.1,1.8,0.2
	c0.5,0.2,0.9,0.4,1.2,0.7c0.3,0.3,0.5,0.7,0.7,1.1c0.1,0.4,0.2,1,0.2,1.6L164.5,110.1L164.5,110.1z M162.7,105.7h-1.5
	c-0.5,0-0.9,0-1.3,0.1c-0.4,0.1-0.7,0.2-0.9,0.4c-0.2,0.2-0.4,0.4-0.5,0.6c-0.1,0.2-0.2,0.5-0.2,0.8c0,0.5,0.2,0.9,0.5,1.2
	c0.3,0.3,0.8,0.4,1.3,0.4c0.5,0,0.9-0.1,1.3-0.4c0.4-0.2,0.8-0.6,1.2-1.1L162.7,105.7L162.7,105.7z"/>
<path class="st2" d="M173.4,101.1c0,0.2,0,0.3,0,0.4c0,0.1,0,0.2,0,0.3c0,0.1,0,0.1-0.1,0.1c0,0-0.1,0-0.1,0c-0.1,0-0.1,0-0.2,0
	c-0.1,0-0.2-0.1-0.3-0.1c-0.1,0-0.2-0.1-0.3-0.1c-0.1,0-0.3,0-0.4,0c-0.2,0-0.4,0-0.5,0.1c-0.2,0.1-0.4,0.2-0.5,0.4
	s-0.4,0.4-0.6,0.7c-0.2,0.3-0.4,0.6-0.7,1v6.3c0,0.1,0,0.1,0,0.1c0,0-0.1,0.1-0.1,0.1c-0.1,0-0.2,0-0.3,0.1c-0.1,0-0.3,0-0.4,0
	c-0.2,0-0.3,0-0.4,0c-0.1,0-0.2,0-0.3-0.1c-0.1,0-0.1-0.1-0.1-0.1c0,0,0-0.1,0-0.1v-9.6c0-0.1,0-0.1,0-0.1c0,0,0.1-0.1,0.1-0.1
	c0.1,0,0.1-0.1,0.2-0.1c0.1,0,0.2,0,0.4,0c0.2,0,0.3,0,0.4,0c0.1,0,0.2,0,0.2,0.1c0.1,0,0.1,0.1,0.1,0.1c0,0,0,0.1,0,0.1v1.4
	c0.3-0.4,0.5-0.7,0.7-0.9c0.2-0.2,0.5-0.4,0.7-0.6c0.2-0.1,0.4-0.2,0.6-0.3c0.2-0.1,0.4-0.1,0.6-0.1c0.1,0,0.2,0,0.3,0
	c0.1,0,0.2,0,0.4,0.1c0.1,0,0.2,0.1,0.3,0.1c0.1,0,0.2,0.1,0.2,0.1c0,0,0.1,0.1,0.1,0.1c0,0,0,0.1,0,0.1c0,0,0,0.1,0,0.2
	C173.3,100.8,173.4,100.9,173.4,101.1L173.4,101.1z"/>
<path class="st2" d="M183.3,104.9c0,0.3-0.1,0.5-0.2,0.6c-0.1,0.1-0.3,0.2-0.5,0.2h-6.3c0,0.5,0.1,1,0.2,1.4
	c0.1,0.4,0.3,0.8,0.5,1.1c0.3,0.3,0.6,0.5,1,0.7c0.4,0.2,0.9,0.2,1.5,0.2c0.5,0,0.9,0,1.2-0.1c0.4-0.1,0.7-0.2,0.9-0.3
	c0.3-0.1,0.5-0.2,0.6-0.3c0.2-0.1,0.3-0.1,0.4-0.1c0.1,0,0.1,0,0.1,0c0,0,0.1,0.1,0.1,0.1c0,0,0,0.1,0,0.2c0,0.1,0,0.2,0,0.3
	c0,0.1,0,0.2,0,0.2c0,0.1,0,0.1,0,0.2c0,0.1,0,0.1-0.1,0.1c0,0-0.1,0.1-0.1,0.1c0,0-0.2,0.1-0.3,0.2c-0.2,0.1-0.4,0.2-0.7,0.3
	c-0.3,0.1-0.7,0.2-1.1,0.2c-0.4,0.1-0.8,0.1-1.3,0.1c-0.8,0-1.5-0.1-2.1-0.3c-0.6-0.2-1.1-0.5-1.5-1c-0.4-0.4-0.7-1-0.9-1.6
	s-0.3-1.4-0.3-2.3c0-0.8,0.1-1.6,0.3-2.2c0.2-0.7,0.5-1.2,0.9-1.7c0.4-0.5,0.9-0.8,1.5-1.1c0.6-0.2,1.2-0.4,1.9-0.4
	c0.8,0,1.4,0.1,1.9,0.4c0.5,0.2,1,0.6,1.3,1c0.3,0.4,0.6,0.9,0.8,1.4c0.2,0.6,0.2,1.1,0.2,1.8L183.3,104.9L183.3,104.9z
	 M181.5,104.3c0-0.9-0.2-1.7-0.6-2.2c-0.4-0.5-1.1-0.8-1.9-0.8c-0.4,0-0.8,0.1-1.2,0.2c-0.3,0.2-0.6,0.4-0.8,0.7
	c-0.2,0.3-0.4,0.6-0.5,0.9c-0.1,0.4-0.2,0.7-0.2,1.1L181.5,104.3L181.5,104.3z"/>
</svg>
