%TF.GenerationSoftware,KiCad,Pcbnew,8.0.3*%
%TF.CreationDate,2024-11-03T20:57:16+08:00*%
%TF.ProjectId,PH60_Rev2,50483630-5f52-4657-9632-2e6b69636164,rev?*%
%TF.SameCoordinates,Original*%
%TF.FileFunction,Soldermask,Top*%
%TF.FilePolarity,Negative*%
%FSLAX46Y46*%
G04 Gerber Fmt 4.6, Leading zero omitted, Abs format (unit mm)*
G04 Created by KiCad (PCBNEW 8.0.3) date 2024-11-03 20:57:16*
%MOMM*%
%LPD*%
G01*
G04 APERTURE LIST*
%ADD10C,3.048000*%
%ADD11C,3.987800*%
%ADD12C,1.750000*%
%ADD13C,4.000000*%
%ADD14C,3.600000*%
%ADD15R,1.700000X1.700000*%
%ADD16O,1.700000X1.700000*%
%ADD17C,0.650000*%
%ADD18O,1.000000X1.800000*%
%ADD19O,1.000000X2.100000*%
G04 APERTURE END LIST*
D10*
%TO.C,REF\u002A\u002A*%
X280955750Y-69215000D03*
D11*
X280955750Y-84425000D03*
D10*
X304831750Y-69215000D03*
D11*
X304831750Y-84425000D03*
%TD*%
D12*
%TO.C,S30*%
X76517500Y-76200000D03*
D13*
X71437500Y-76200000D03*
D12*
X66357500Y-76200000D03*
D14*
X75247500Y-78740000D03*
X68897500Y-81280000D03*
%TD*%
D12*
%TO.C,S27*%
X281305000Y-57150000D03*
D13*
X276225000Y-57150000D03*
D12*
X271145000Y-57150000D03*
D14*
X280035000Y-59690000D03*
X273685000Y-62230000D03*
%TD*%
D12*
%TO.C,S42*%
X45561250Y-95250000D03*
D13*
X40481250Y-95250000D03*
D12*
X35401250Y-95250000D03*
D14*
X44291250Y-97790000D03*
X37941250Y-100330000D03*
%TD*%
D12*
%TO.C,S32*%
X114617500Y-76200000D03*
D13*
X109537500Y-76200000D03*
D12*
X104457500Y-76200000D03*
D14*
X113347500Y-78740000D03*
X106997500Y-81280000D03*
%TD*%
D12*
%TO.C,S38*%
X228917500Y-76200000D03*
D13*
X223837500Y-76200000D03*
D12*
X218757500Y-76200000D03*
D14*
X227647500Y-78740000D03*
X221297500Y-81280000D03*
%TD*%
D12*
%TO.C,S35*%
X171767500Y-76200000D03*
D13*
X166687500Y-76200000D03*
D12*
X161607500Y-76200000D03*
D14*
X170497500Y-78740000D03*
X164147500Y-81280000D03*
%TD*%
D12*
%TO.C,S4*%
X100330000Y-38100000D03*
D13*
X95250000Y-38100000D03*
D12*
X90170000Y-38100000D03*
D14*
X99060000Y-40640000D03*
X92710000Y-43180000D03*
%TD*%
D12*
%TO.C,S2*%
X62230000Y-38100000D03*
D13*
X57150000Y-38100000D03*
D12*
X52070000Y-38100000D03*
D14*
X60960000Y-40640000D03*
X54610000Y-43180000D03*
%TD*%
D12*
%TO.C,S22*%
X186055000Y-57150000D03*
D13*
X180975000Y-57150000D03*
D12*
X175895000Y-57150000D03*
D14*
X184785000Y-59690000D03*
X178435000Y-62230000D03*
%TD*%
D12*
%TO.C,S28*%
X305117500Y-57150000D03*
D13*
X300037500Y-57150000D03*
D12*
X294957500Y-57150000D03*
D14*
X303847500Y-59690000D03*
X297497500Y-62230000D03*
%TD*%
D12*
%TO.C,S46*%
X124142500Y-95250000D03*
D13*
X119062500Y-95250000D03*
D12*
X113982500Y-95250000D03*
D14*
X122872500Y-97790000D03*
X116522500Y-100330000D03*
%TD*%
D12*
%TO.C,S1*%
X43180000Y-38100000D03*
D13*
X38100000Y-38100000D03*
D12*
X33020000Y-38100000D03*
D14*
X41910000Y-40640000D03*
X35560000Y-43180000D03*
%TD*%
D12*
%TO.C,S54*%
X293211250Y-95250000D03*
D13*
X288131250Y-95250000D03*
D12*
X283051250Y-95250000D03*
D14*
X291941250Y-97790000D03*
X285591250Y-100330000D03*
%TD*%
D12*
%TO.C,S10*%
X214630000Y-38100000D03*
D13*
X209550000Y-38100000D03*
D12*
X204470000Y-38100000D03*
D14*
X213360000Y-40640000D03*
X207010000Y-43180000D03*
%TD*%
D10*
%TO.C,REF\u002A\u002A*%
X283337000Y-31115000D03*
D11*
X283337000Y-46325000D03*
D10*
X307213000Y-31115000D03*
D11*
X307213000Y-46325000D03*
%TD*%
D12*
%TO.C,S34*%
X152717500Y-76200000D03*
D13*
X147637500Y-76200000D03*
D12*
X142557500Y-76200000D03*
D14*
X151447500Y-78740000D03*
X145097500Y-81280000D03*
%TD*%
D12*
%TO.C,S15*%
X47942500Y-57150000D03*
D13*
X42862500Y-57150000D03*
D12*
X37782500Y-57150000D03*
D14*
X46672500Y-59690000D03*
X40322500Y-62230000D03*
%TD*%
D12*
%TO.C,S56*%
X69373750Y-114300000D03*
D13*
X64293750Y-114300000D03*
D12*
X59213750Y-114300000D03*
D14*
X68103750Y-116840000D03*
X61753750Y-119380000D03*
%TD*%
D12*
%TO.C,S20*%
X147955000Y-57150000D03*
D13*
X142875000Y-57150000D03*
D12*
X137795000Y-57150000D03*
D14*
X146685000Y-59690000D03*
X140335000Y-62230000D03*
%TD*%
D12*
%TO.C,S17*%
X90805000Y-57150000D03*
D13*
X85725000Y-57150000D03*
D12*
X80645000Y-57150000D03*
D14*
X89535000Y-59690000D03*
X83185000Y-62230000D03*
%TD*%
D12*
%TO.C,S31*%
X95567500Y-76200000D03*
D13*
X90487500Y-76200000D03*
D12*
X85407500Y-76200000D03*
D14*
X94297500Y-78740000D03*
X87947500Y-81280000D03*
%TD*%
D10*
%TO.C,REF\u002A\u002A*%
X276193250Y-88265000D03*
D11*
X276193250Y-103475000D03*
D10*
X300069250Y-88265000D03*
D11*
X300069250Y-103475000D03*
%TD*%
D12*
%TO.C,S48*%
X162242500Y-95250000D03*
D13*
X157162500Y-95250000D03*
D12*
X152082500Y-95250000D03*
D14*
X160972500Y-97790000D03*
X154622500Y-100330000D03*
%TD*%
D12*
%TO.C,S51*%
X219392500Y-95250000D03*
D13*
X214312500Y-95250000D03*
D12*
X209232500Y-95250000D03*
D14*
X218122500Y-97790000D03*
X211772500Y-100330000D03*
%TD*%
D12*
%TO.C,S23*%
X205105000Y-57150000D03*
D13*
X200025000Y-57150000D03*
D12*
X194945000Y-57150000D03*
D14*
X203835000Y-59690000D03*
X197485000Y-62230000D03*
%TD*%
D12*
%TO.C,S50*%
X200342500Y-95250000D03*
D13*
X195262500Y-95250000D03*
D12*
X190182500Y-95250000D03*
D14*
X199072500Y-97790000D03*
X192722500Y-100330000D03*
%TD*%
D12*
%TO.C,S18*%
X109855000Y-57150000D03*
D13*
X104775000Y-57150000D03*
D12*
X99695000Y-57150000D03*
D14*
X108585000Y-59690000D03*
X102235000Y-62230000D03*
%TD*%
D12*
%TO.C,S33*%
X133667500Y-76200000D03*
D13*
X128587500Y-76200000D03*
D12*
X123507500Y-76200000D03*
D14*
X132397500Y-78740000D03*
X126047500Y-81280000D03*
%TD*%
D12*
%TO.C,S61*%
X283686250Y-114300000D03*
D13*
X278606250Y-114300000D03*
D12*
X273526250Y-114300000D03*
D14*
X282416250Y-116840000D03*
X276066250Y-119380000D03*
%TD*%
D12*
%TO.C,S16*%
X71755000Y-57150000D03*
D13*
X66675000Y-57150000D03*
D12*
X61595000Y-57150000D03*
D14*
X70485000Y-59690000D03*
X64135000Y-62230000D03*
%TD*%
D12*
%TO.C,S60*%
X259873750Y-114300000D03*
D13*
X254793750Y-114300000D03*
D12*
X249713750Y-114300000D03*
D14*
X258603750Y-116840000D03*
X252253750Y-119380000D03*
%TD*%
D12*
%TO.C,S58*%
X164623750Y-114300000D03*
D13*
X159543750Y-114300000D03*
D12*
X154463750Y-114300000D03*
D14*
X163353750Y-116840000D03*
X157003750Y-119380000D03*
%TD*%
D12*
%TO.C,S24*%
X224155000Y-57150000D03*
D13*
X219075000Y-57150000D03*
D12*
X213995000Y-57150000D03*
D14*
X222885000Y-59690000D03*
X216535000Y-62230000D03*
%TD*%
D12*
%TO.C,S29*%
X50323750Y-76200000D03*
D13*
X45243750Y-76200000D03*
D12*
X40163750Y-76200000D03*
D14*
X49053750Y-78740000D03*
X42703750Y-81280000D03*
%TD*%
D12*
%TO.C,S37*%
X209867500Y-76200000D03*
D13*
X204787500Y-76200000D03*
D12*
X199707500Y-76200000D03*
D14*
X208597500Y-78740000D03*
X202247500Y-81280000D03*
%TD*%
D12*
%TO.C,S43*%
X66992500Y-95250000D03*
D13*
X61912500Y-95250000D03*
D12*
X56832500Y-95250000D03*
D14*
X65722500Y-97790000D03*
X59372500Y-100330000D03*
%TD*%
D12*
%TO.C,S3*%
X81280000Y-38100000D03*
D13*
X76200000Y-38100000D03*
D12*
X71120000Y-38100000D03*
D14*
X80010000Y-40640000D03*
X73660000Y-43180000D03*
%TD*%
D12*
%TO.C,S36*%
X190817500Y-76200000D03*
D13*
X185737500Y-76200000D03*
D12*
X180657500Y-76200000D03*
D14*
X189547500Y-78740000D03*
X183197500Y-81280000D03*
%TD*%
D12*
%TO.C,S6*%
X138430000Y-38100000D03*
D13*
X133350000Y-38100000D03*
D12*
X128270000Y-38100000D03*
D14*
X137160000Y-40640000D03*
X130810000Y-43180000D03*
%TD*%
D12*
%TO.C,S55*%
X45561250Y-114300000D03*
D13*
X40481250Y-114300000D03*
D12*
X35401250Y-114300000D03*
D14*
X44291250Y-116840000D03*
X37941250Y-119380000D03*
%TD*%
D12*
%TO.C,S25*%
X243205000Y-57150000D03*
D13*
X238125000Y-57150000D03*
D12*
X233045000Y-57150000D03*
D14*
X241935000Y-59690000D03*
X235585000Y-62230000D03*
%TD*%
D12*
%TO.C,S9*%
X195580000Y-38100000D03*
D13*
X190500000Y-38100000D03*
D12*
X185420000Y-38100000D03*
D14*
X194310000Y-40640000D03*
X187960000Y-43180000D03*
%TD*%
D12*
%TO.C,S26*%
X262255000Y-57150000D03*
D13*
X257175000Y-57150000D03*
D12*
X252095000Y-57150000D03*
D14*
X260985000Y-59690000D03*
X254635000Y-62230000D03*
%TD*%
D12*
%TO.C,S11*%
X233680000Y-38100000D03*
D13*
X228600000Y-38100000D03*
D12*
X223520000Y-38100000D03*
D14*
X232410000Y-40640000D03*
X226060000Y-43180000D03*
%TD*%
D12*
%TO.C,S59*%
X236061250Y-114300000D03*
D13*
X230981250Y-114300000D03*
D12*
X225901250Y-114300000D03*
D14*
X234791250Y-116840000D03*
X228441250Y-119380000D03*
%TD*%
D12*
%TO.C,S53*%
X257492500Y-95250000D03*
D13*
X252412500Y-95250000D03*
D12*
X247332500Y-95250000D03*
D14*
X256222500Y-97790000D03*
X249872500Y-100330000D03*
%TD*%
D12*
%TO.C,S12*%
X252730000Y-38100000D03*
D13*
X247650000Y-38100000D03*
D12*
X242570000Y-38100000D03*
D14*
X251460000Y-40640000D03*
X245110000Y-43180000D03*
%TD*%
D12*
%TO.C,S57*%
X93186250Y-114300000D03*
D13*
X88106250Y-114300000D03*
D12*
X83026250Y-114300000D03*
D14*
X91916250Y-116840000D03*
X85566250Y-119380000D03*
%TD*%
D12*
%TO.C,S8*%
X176530000Y-38100000D03*
D13*
X171450000Y-38100000D03*
D12*
X166370000Y-38100000D03*
D14*
X175260000Y-40640000D03*
X168910000Y-43180000D03*
%TD*%
D12*
%TO.C,S13*%
X271780000Y-38100000D03*
D13*
X266700000Y-38100000D03*
D12*
X261620000Y-38100000D03*
D14*
X270510000Y-40640000D03*
X264160000Y-43180000D03*
%TD*%
D12*
%TO.C,S14*%
X300355000Y-38100000D03*
D13*
X295275000Y-38100000D03*
D12*
X290195000Y-38100000D03*
D14*
X299085000Y-40640000D03*
X292735000Y-43180000D03*
%TD*%
D12*
%TO.C,S21*%
X167005000Y-57150000D03*
D13*
X161925000Y-57150000D03*
D12*
X156845000Y-57150000D03*
D14*
X165735000Y-59690000D03*
X159385000Y-62230000D03*
%TD*%
D12*
%TO.C,S19*%
X128905000Y-57150000D03*
D13*
X123825000Y-57150000D03*
D12*
X118745000Y-57150000D03*
D14*
X127635000Y-59690000D03*
X121285000Y-62230000D03*
%TD*%
D10*
%TO.C,REF\u002A\u002A*%
X209543750Y-121285000D03*
D11*
X209543750Y-106075000D03*
D10*
X109543750Y-121285000D03*
D11*
X109543750Y-106075000D03*
%TD*%
D12*
%TO.C,S5*%
X119380000Y-38100000D03*
D13*
X114300000Y-38100000D03*
D12*
X109220000Y-38100000D03*
D14*
X118110000Y-40640000D03*
X111760000Y-43180000D03*
%TD*%
D12*
%TO.C,S45*%
X105092500Y-95250000D03*
D13*
X100012500Y-95250000D03*
D12*
X94932500Y-95250000D03*
D14*
X103822500Y-97790000D03*
X97472500Y-100330000D03*
%TD*%
D12*
%TO.C,S62*%
X307498750Y-114300000D03*
D13*
X302418750Y-114300000D03*
D12*
X297338750Y-114300000D03*
D14*
X306228750Y-116840000D03*
X299878750Y-119380000D03*
%TD*%
D12*
%TO.C,S52*%
X238442500Y-95250000D03*
D13*
X233362500Y-95250000D03*
D12*
X228282500Y-95250000D03*
D14*
X237172500Y-97790000D03*
X230822500Y-100330000D03*
%TD*%
D12*
%TO.C,S7*%
X157480000Y-38100000D03*
D13*
X152400000Y-38100000D03*
D12*
X147320000Y-38100000D03*
D14*
X156210000Y-40640000D03*
X149860000Y-43180000D03*
%TD*%
D12*
%TO.C,S41*%
X297973750Y-76200000D03*
D13*
X292893750Y-76200000D03*
D12*
X287813750Y-76200000D03*
D14*
X296703750Y-78740000D03*
X290353750Y-81280000D03*
%TD*%
D12*
%TO.C,S49*%
X181292500Y-95250000D03*
D13*
X176212500Y-95250000D03*
D12*
X171132500Y-95250000D03*
D14*
X180022500Y-97790000D03*
X173672500Y-100330000D03*
%TD*%
D12*
%TO.C,S44*%
X86042500Y-95250000D03*
D13*
X80962500Y-95250000D03*
D12*
X75882500Y-95250000D03*
D14*
X84772500Y-97790000D03*
X78422500Y-100330000D03*
%TD*%
D12*
%TO.C,S39*%
X247967500Y-76200000D03*
D13*
X242887500Y-76200000D03*
D12*
X237807500Y-76200000D03*
D14*
X246697500Y-78740000D03*
X240347500Y-81280000D03*
%TD*%
D12*
%TO.C,S40*%
X267017500Y-76200000D03*
D13*
X261937500Y-76200000D03*
D12*
X256857500Y-76200000D03*
D14*
X265747500Y-78740000D03*
X259397500Y-81280000D03*
%TD*%
D12*
%TO.C,S47*%
X143192500Y-95250000D03*
D13*
X138112500Y-95250000D03*
D12*
X133032500Y-95250000D03*
D14*
X141922500Y-97790000D03*
X135572500Y-100330000D03*
%TD*%
D15*
%TO.C,J2*%
X120940000Y-106325000D03*
D16*
X118400000Y-106325000D03*
%TD*%
D17*
%TO.C,J1*%
X44735000Y-34855000D03*
X50515000Y-34855000D03*
D18*
X43305000Y-31175000D03*
D19*
X43305000Y-35355000D03*
D18*
X51945000Y-31175000D03*
D19*
X51945000Y-35355000D03*
%TD*%
M02*
