%TF.GenerationSoftware,KiCad,Pcbnew,8.0.3*%
%TF.CreationDate,2024-11-03T20:57:16+08:00*%
%TF.ProjectId,PH60_Rev2,50483630-5f52-4657-9632-2e6b69636164,rev?*%
%TF.SameCoordinates,Original*%
%TF.FileFunction,Soldermask,Bot*%
%TF.FilePolarity,Negative*%
%FSLAX46Y46*%
G04 Gerber Fmt 4.6, Leading zero omitted, Abs format (unit mm)*
G04 Created by KiCad (PCBNEW 8.0.3) date 2024-11-03 20:57:16*
%MOMM*%
%LPD*%
G01*
G04 APERTURE LIST*
G04 Aperture macros list*
%AMRoundRect*
0 Rectangle with rounded corners*
0 $1 Rounding radius*
0 $2 $3 $4 $5 $6 $7 $8 $9 X,Y pos of 4 corners*
0 Add a 4 corners polygon primitive as box body*
4,1,4,$2,$3,$4,$5,$6,$7,$8,$9,$2,$3,0*
0 Add four circle primitives for the rounded corners*
1,1,$1+$1,$2,$3*
1,1,$1+$1,$4,$5*
1,1,$1+$1,$6,$7*
1,1,$1+$1,$8,$9*
0 Add four rect primitives between the rounded corners*
20,1,$1+$1,$2,$3,$4,$5,0*
20,1,$1+$1,$4,$5,$6,$7,0*
20,1,$1+$1,$6,$7,$8,$9,0*
20,1,$1+$1,$8,$9,$2,$3,0*%
%AMFreePoly0*
4,1,18,-0.410000,0.593000,-0.403758,0.624380,-0.385983,0.650983,-0.359380,0.668758,-0.328000,0.675000,0.328000,0.675000,0.359380,0.668758,0.385983,0.650983,0.403758,0.624380,0.410000,0.593000,0.410000,-0.593000,0.403758,-0.624380,0.385983,-0.650983,0.359380,-0.668758,0.328000,-0.675000,0.000000,-0.675000,-0.410000,-0.265000,-0.410000,0.593000,-0.410000,0.593000,$1*%
G04 Aperture macros list end*
%ADD10C,3.048000*%
%ADD11C,3.987800*%
%ADD12RoundRect,0.250000X1.025000X1.000000X-1.025000X1.000000X-1.025000X-1.000000X1.025000X-1.000000X0*%
%ADD13C,1.750000*%
%ADD14C,4.000000*%
%ADD15C,3.600000*%
%ADD16RoundRect,0.112500X-0.187500X-0.112500X0.187500X-0.112500X0.187500X0.112500X-0.187500X0.112500X0*%
%ADD17RoundRect,0.082000X-0.593000X0.328000X-0.593000X-0.328000X0.593000X-0.328000X0.593000X0.328000X0*%
%ADD18FreePoly0,270.000000*%
%ADD19RoundRect,0.140000X0.140000X0.170000X-0.140000X0.170000X-0.140000X-0.170000X0.140000X-0.170000X0*%
%ADD20RoundRect,0.140000X-0.170000X0.140000X-0.170000X-0.140000X0.170000X-0.140000X0.170000X0.140000X0*%
%ADD21RoundRect,0.112500X-0.112500X0.187500X-0.112500X-0.187500X0.112500X-0.187500X0.112500X0.187500X0*%
%ADD22RoundRect,0.140000X-0.140000X-0.170000X0.140000X-0.170000X0.140000X0.170000X-0.140000X0.170000X0*%
%ADD23RoundRect,0.150000X0.512500X0.150000X-0.512500X0.150000X-0.512500X-0.150000X0.512500X-0.150000X0*%
%ADD24RoundRect,0.050000X-0.050000X0.387500X-0.050000X-0.387500X0.050000X-0.387500X0.050000X0.387500X0*%
%ADD25RoundRect,0.050000X-0.387500X0.050000X-0.387500X-0.050000X0.387500X-0.050000X0.387500X0.050000X0*%
%ADD26R,3.200000X3.200000*%
%ADD27RoundRect,0.135000X-0.135000X-0.185000X0.135000X-0.185000X0.135000X0.185000X-0.135000X0.185000X0*%
%ADD28RoundRect,0.112500X0.112500X-0.187500X0.112500X0.187500X-0.112500X0.187500X-0.112500X-0.187500X0*%
%ADD29RoundRect,0.135000X0.135000X0.185000X-0.135000X0.185000X-0.135000X-0.185000X0.135000X-0.185000X0*%
%ADD30R,1.700000X1.700000*%
%ADD31O,1.700000X1.700000*%
%ADD32RoundRect,0.140000X0.170000X-0.140000X0.170000X0.140000X-0.170000X0.140000X-0.170000X-0.140000X0*%
%ADD33RoundRect,0.062500X0.387500X0.062500X-0.387500X0.062500X-0.387500X-0.062500X0.387500X-0.062500X0*%
%ADD34R,0.200000X1.600000*%
%ADD35RoundRect,0.135000X-0.185000X0.135000X-0.185000X-0.135000X0.185000X-0.135000X0.185000X0.135000X0*%
%ADD36C,0.650000*%
%ADD37RoundRect,0.150000X-0.150000X-0.425000X0.150000X-0.425000X0.150000X0.425000X-0.150000X0.425000X0*%
%ADD38RoundRect,0.075000X-0.075000X-0.500000X0.075000X-0.500000X0.075000X0.500000X-0.075000X0.500000X0*%
%ADD39O,1.000000X1.800000*%
%ADD40O,1.000000X2.100000*%
%ADD41R,1.400000X1.200000*%
G04 APERTURE END LIST*
D10*
%TO.C,REF\u002A\u002A*%
X280955750Y-69215000D03*
D11*
X280955750Y-84425000D03*
D10*
X304831750Y-69215000D03*
D11*
X304831750Y-84425000D03*
%TD*%
D12*
%TO.C,S30*%
X78522500Y-78740000D03*
D13*
X76517500Y-76200000D03*
D14*
X71437500Y-76200000D03*
D13*
X66357500Y-76200000D03*
D12*
X65595500Y-81280000D03*
D15*
X75247500Y-78740000D03*
X68897500Y-81280000D03*
%TD*%
D12*
%TO.C,S27*%
X283310000Y-59690000D03*
D13*
X281305000Y-57150000D03*
D14*
X276225000Y-57150000D03*
D13*
X271145000Y-57150000D03*
D12*
X270383000Y-62230000D03*
D15*
X280035000Y-59690000D03*
X273685000Y-62230000D03*
%TD*%
D12*
%TO.C,S42*%
X47566250Y-97790000D03*
D13*
X45561250Y-95250000D03*
D14*
X40481250Y-95250000D03*
D13*
X35401250Y-95250000D03*
D12*
X34639250Y-100330000D03*
D15*
X44291250Y-97790000D03*
X37941250Y-100330000D03*
%TD*%
D12*
%TO.C,S32*%
X116622500Y-78740000D03*
D13*
X114617500Y-76200000D03*
D14*
X109537500Y-76200000D03*
D13*
X104457500Y-76200000D03*
D12*
X103695500Y-81280000D03*
D15*
X113347500Y-78740000D03*
X106997500Y-81280000D03*
%TD*%
D12*
%TO.C,S38*%
X230922500Y-78740000D03*
D13*
X228917500Y-76200000D03*
D14*
X223837500Y-76200000D03*
D13*
X218757500Y-76200000D03*
D12*
X217995500Y-81280000D03*
D15*
X227647500Y-78740000D03*
X221297500Y-81280000D03*
%TD*%
D12*
%TO.C,S35*%
X173772500Y-78740000D03*
D13*
X171767500Y-76200000D03*
D14*
X166687500Y-76200000D03*
D13*
X161607500Y-76200000D03*
D12*
X160845500Y-81280000D03*
D15*
X170497500Y-78740000D03*
X164147500Y-81280000D03*
%TD*%
D12*
%TO.C,S4*%
X102335000Y-40640000D03*
D13*
X100330000Y-38100000D03*
D14*
X95250000Y-38100000D03*
D13*
X90170000Y-38100000D03*
D12*
X89408000Y-43180000D03*
D15*
X99060000Y-40640000D03*
X92710000Y-43180000D03*
%TD*%
D12*
%TO.C,S2*%
X64235000Y-40640000D03*
D13*
X62230000Y-38100000D03*
D14*
X57150000Y-38100000D03*
D13*
X52070000Y-38100000D03*
D12*
X51308000Y-43180000D03*
D15*
X60960000Y-40640000D03*
X54610000Y-43180000D03*
%TD*%
D12*
%TO.C,S22*%
X188060000Y-59690000D03*
D13*
X186055000Y-57150000D03*
D14*
X180975000Y-57150000D03*
D13*
X175895000Y-57150000D03*
D12*
X175133000Y-62230000D03*
D15*
X184785000Y-59690000D03*
X178435000Y-62230000D03*
%TD*%
D12*
%TO.C,S28*%
X307122500Y-59690000D03*
D13*
X305117500Y-57150000D03*
D14*
X300037500Y-57150000D03*
D13*
X294957500Y-57150000D03*
D12*
X294195500Y-62230000D03*
D15*
X303847500Y-59690000D03*
X297497500Y-62230000D03*
%TD*%
D12*
%TO.C,S46*%
X126147500Y-97790000D03*
D13*
X124142500Y-95250000D03*
D14*
X119062500Y-95250000D03*
D13*
X113982500Y-95250000D03*
D12*
X113220500Y-100330000D03*
D15*
X122872500Y-97790000D03*
X116522500Y-100330000D03*
%TD*%
D12*
%TO.C,S1*%
X45185000Y-40640000D03*
D13*
X43180000Y-38100000D03*
D14*
X38100000Y-38100000D03*
D13*
X33020000Y-38100000D03*
D12*
X32258000Y-43180000D03*
D15*
X41910000Y-40640000D03*
X35560000Y-43180000D03*
%TD*%
D12*
%TO.C,S54*%
X295216250Y-97790000D03*
D13*
X293211250Y-95250000D03*
D14*
X288131250Y-95250000D03*
D13*
X283051250Y-95250000D03*
D12*
X282289250Y-100330000D03*
D15*
X291941250Y-97790000D03*
X285591250Y-100330000D03*
%TD*%
D12*
%TO.C,S10*%
X216635000Y-40640000D03*
D13*
X214630000Y-38100000D03*
D14*
X209550000Y-38100000D03*
D13*
X204470000Y-38100000D03*
D12*
X203708000Y-43180000D03*
D15*
X213360000Y-40640000D03*
X207010000Y-43180000D03*
%TD*%
D10*
%TO.C,REF\u002A\u002A*%
X283337000Y-31115000D03*
D11*
X283337000Y-46325000D03*
D10*
X307213000Y-31115000D03*
D11*
X307213000Y-46325000D03*
%TD*%
D12*
%TO.C,S34*%
X154722500Y-78740000D03*
D13*
X152717500Y-76200000D03*
D14*
X147637500Y-76200000D03*
D13*
X142557500Y-76200000D03*
D12*
X141795500Y-81280000D03*
D15*
X151447500Y-78740000D03*
X145097500Y-81280000D03*
%TD*%
D12*
%TO.C,S15*%
X49947500Y-59690000D03*
D13*
X47942500Y-57150000D03*
D14*
X42862500Y-57150000D03*
D13*
X37782500Y-57150000D03*
D12*
X37020500Y-62230000D03*
D15*
X46672500Y-59690000D03*
X40322500Y-62230000D03*
%TD*%
D12*
%TO.C,S56*%
X71378750Y-116840000D03*
D13*
X69373750Y-114300000D03*
D14*
X64293750Y-114300000D03*
D13*
X59213750Y-114300000D03*
D12*
X58451750Y-119380000D03*
D15*
X68103750Y-116840000D03*
X61753750Y-119380000D03*
%TD*%
D12*
%TO.C,S20*%
X149960000Y-59690000D03*
D13*
X147955000Y-57150000D03*
D14*
X142875000Y-57150000D03*
D13*
X137795000Y-57150000D03*
D12*
X137033000Y-62230000D03*
D15*
X146685000Y-59690000D03*
X140335000Y-62230000D03*
%TD*%
D12*
%TO.C,S17*%
X92810000Y-59690000D03*
D13*
X90805000Y-57150000D03*
D14*
X85725000Y-57150000D03*
D13*
X80645000Y-57150000D03*
D12*
X79883000Y-62230000D03*
D15*
X89535000Y-59690000D03*
X83185000Y-62230000D03*
%TD*%
D12*
%TO.C,S31*%
X97572500Y-78740000D03*
D13*
X95567500Y-76200000D03*
D14*
X90487500Y-76200000D03*
D13*
X85407500Y-76200000D03*
D12*
X84645500Y-81280000D03*
D15*
X94297500Y-78740000D03*
X87947500Y-81280000D03*
%TD*%
D10*
%TO.C,REF\u002A\u002A*%
X276193250Y-88265000D03*
D11*
X276193250Y-103475000D03*
D10*
X300069250Y-88265000D03*
D11*
X300069250Y-103475000D03*
%TD*%
D12*
%TO.C,S48*%
X164247500Y-97790000D03*
D13*
X162242500Y-95250000D03*
D14*
X157162500Y-95250000D03*
D13*
X152082500Y-95250000D03*
D12*
X151320500Y-100330000D03*
D15*
X160972500Y-97790000D03*
X154622500Y-100330000D03*
%TD*%
D12*
%TO.C,S51*%
X221397500Y-97790000D03*
D13*
X219392500Y-95250000D03*
D14*
X214312500Y-95250000D03*
D13*
X209232500Y-95250000D03*
D12*
X208470500Y-100330000D03*
D15*
X218122500Y-97790000D03*
X211772500Y-100330000D03*
%TD*%
D12*
%TO.C,S23*%
X207110000Y-59690000D03*
D13*
X205105000Y-57150000D03*
D14*
X200025000Y-57150000D03*
D13*
X194945000Y-57150000D03*
D12*
X194183000Y-62230000D03*
D15*
X203835000Y-59690000D03*
X197485000Y-62230000D03*
%TD*%
D12*
%TO.C,S50*%
X202347500Y-97790000D03*
D13*
X200342500Y-95250000D03*
D14*
X195262500Y-95250000D03*
D13*
X190182500Y-95250000D03*
D12*
X189420500Y-100330000D03*
D15*
X199072500Y-97790000D03*
X192722500Y-100330000D03*
%TD*%
D12*
%TO.C,S18*%
X111860000Y-59690000D03*
D13*
X109855000Y-57150000D03*
D14*
X104775000Y-57150000D03*
D13*
X99695000Y-57150000D03*
D12*
X98933000Y-62230000D03*
D15*
X108585000Y-59690000D03*
X102235000Y-62230000D03*
%TD*%
D12*
%TO.C,S33*%
X135672500Y-78740000D03*
D13*
X133667500Y-76200000D03*
D14*
X128587500Y-76200000D03*
D13*
X123507500Y-76200000D03*
D12*
X122745500Y-81280000D03*
D15*
X132397500Y-78740000D03*
X126047500Y-81280000D03*
%TD*%
D12*
%TO.C,S61*%
X285691250Y-116840000D03*
D13*
X283686250Y-114300000D03*
D14*
X278606250Y-114300000D03*
D13*
X273526250Y-114300000D03*
D12*
X272764250Y-119380000D03*
D15*
X282416250Y-116840000D03*
X276066250Y-119380000D03*
%TD*%
D12*
%TO.C,S16*%
X73760000Y-59690000D03*
D13*
X71755000Y-57150000D03*
D14*
X66675000Y-57150000D03*
D13*
X61595000Y-57150000D03*
D12*
X60833000Y-62230000D03*
D15*
X70485000Y-59690000D03*
X64135000Y-62230000D03*
%TD*%
D12*
%TO.C,S60*%
X261878750Y-116840000D03*
D13*
X259873750Y-114300000D03*
D14*
X254793750Y-114300000D03*
D13*
X249713750Y-114300000D03*
D12*
X248951750Y-119380000D03*
D15*
X258603750Y-116840000D03*
X252253750Y-119380000D03*
%TD*%
D12*
%TO.C,S58*%
X166628750Y-116840000D03*
D13*
X164623750Y-114300000D03*
D14*
X159543750Y-114300000D03*
D13*
X154463750Y-114300000D03*
D12*
X153701750Y-119380000D03*
D15*
X163353750Y-116840000D03*
X157003750Y-119380000D03*
%TD*%
D12*
%TO.C,S24*%
X226160000Y-59690000D03*
D13*
X224155000Y-57150000D03*
D14*
X219075000Y-57150000D03*
D13*
X213995000Y-57150000D03*
D12*
X213233000Y-62230000D03*
D15*
X222885000Y-59690000D03*
X216535000Y-62230000D03*
%TD*%
D12*
%TO.C,S29*%
X52328750Y-78740000D03*
D13*
X50323750Y-76200000D03*
D14*
X45243750Y-76200000D03*
D13*
X40163750Y-76200000D03*
D12*
X39401750Y-81280000D03*
D15*
X49053750Y-78740000D03*
X42703750Y-81280000D03*
%TD*%
D12*
%TO.C,S37*%
X211872500Y-78740000D03*
D13*
X209867500Y-76200000D03*
D14*
X204787500Y-76200000D03*
D13*
X199707500Y-76200000D03*
D12*
X198945500Y-81280000D03*
D15*
X208597500Y-78740000D03*
X202247500Y-81280000D03*
%TD*%
D12*
%TO.C,S43*%
X68997500Y-97790000D03*
D13*
X66992500Y-95250000D03*
D14*
X61912500Y-95250000D03*
D13*
X56832500Y-95250000D03*
D12*
X56070500Y-100330000D03*
D15*
X65722500Y-97790000D03*
X59372500Y-100330000D03*
%TD*%
D12*
%TO.C,S3*%
X83285000Y-40640000D03*
D13*
X81280000Y-38100000D03*
D14*
X76200000Y-38100000D03*
D13*
X71120000Y-38100000D03*
D12*
X70358000Y-43180000D03*
D15*
X80010000Y-40640000D03*
X73660000Y-43180000D03*
%TD*%
D12*
%TO.C,S36*%
X192822500Y-78740000D03*
D13*
X190817500Y-76200000D03*
D14*
X185737500Y-76200000D03*
D13*
X180657500Y-76200000D03*
D12*
X179895500Y-81280000D03*
D15*
X189547500Y-78740000D03*
X183197500Y-81280000D03*
%TD*%
D12*
%TO.C,S6*%
X140435000Y-40640000D03*
D13*
X138430000Y-38100000D03*
D14*
X133350000Y-38100000D03*
D13*
X128270000Y-38100000D03*
D12*
X127508000Y-43180000D03*
D15*
X137160000Y-40640000D03*
X130810000Y-43180000D03*
%TD*%
D12*
%TO.C,S55*%
X47566250Y-116840000D03*
D13*
X45561250Y-114300000D03*
D14*
X40481250Y-114300000D03*
D13*
X35401250Y-114300000D03*
D12*
X34639250Y-119380000D03*
D15*
X44291250Y-116840000D03*
X37941250Y-119380000D03*
%TD*%
D12*
%TO.C,S25*%
X245210000Y-59690000D03*
D13*
X243205000Y-57150000D03*
D14*
X238125000Y-57150000D03*
D13*
X233045000Y-57150000D03*
D12*
X232283000Y-62230000D03*
D15*
X241935000Y-59690000D03*
X235585000Y-62230000D03*
%TD*%
D12*
%TO.C,S9*%
X197585000Y-40640000D03*
D13*
X195580000Y-38100000D03*
D14*
X190500000Y-38100000D03*
D13*
X185420000Y-38100000D03*
D12*
X184658000Y-43180000D03*
D15*
X194310000Y-40640000D03*
X187960000Y-43180000D03*
%TD*%
D12*
%TO.C,S26*%
X264260000Y-59690000D03*
D13*
X262255000Y-57150000D03*
D14*
X257175000Y-57150000D03*
D13*
X252095000Y-57150000D03*
D12*
X251333000Y-62230000D03*
D15*
X260985000Y-59690000D03*
X254635000Y-62230000D03*
%TD*%
D12*
%TO.C,S11*%
X235685000Y-40640000D03*
D13*
X233680000Y-38100000D03*
D14*
X228600000Y-38100000D03*
D13*
X223520000Y-38100000D03*
D12*
X222758000Y-43180000D03*
D15*
X232410000Y-40640000D03*
X226060000Y-43180000D03*
%TD*%
D12*
%TO.C,S59*%
X238066250Y-116840000D03*
D13*
X236061250Y-114300000D03*
D14*
X230981250Y-114300000D03*
D13*
X225901250Y-114300000D03*
D12*
X225139250Y-119380000D03*
D15*
X234791250Y-116840000D03*
X228441250Y-119380000D03*
%TD*%
D12*
%TO.C,S53*%
X259497500Y-97790000D03*
D13*
X257492500Y-95250000D03*
D14*
X252412500Y-95250000D03*
D13*
X247332500Y-95250000D03*
D12*
X246570500Y-100330000D03*
D15*
X256222500Y-97790000D03*
X249872500Y-100330000D03*
%TD*%
D12*
%TO.C,S12*%
X254735000Y-40640000D03*
D13*
X252730000Y-38100000D03*
D14*
X247650000Y-38100000D03*
D13*
X242570000Y-38100000D03*
D12*
X241808000Y-43180000D03*
D15*
X251460000Y-40640000D03*
X245110000Y-43180000D03*
%TD*%
D12*
%TO.C,S57*%
X95191250Y-116840000D03*
D13*
X93186250Y-114300000D03*
D14*
X88106250Y-114300000D03*
D13*
X83026250Y-114300000D03*
D12*
X82264250Y-119380000D03*
D15*
X91916250Y-116840000D03*
X85566250Y-119380000D03*
%TD*%
D12*
%TO.C,S8*%
X178535000Y-40640000D03*
D13*
X176530000Y-38100000D03*
D14*
X171450000Y-38100000D03*
D13*
X166370000Y-38100000D03*
D12*
X165608000Y-43180000D03*
D15*
X175260000Y-40640000D03*
X168910000Y-43180000D03*
%TD*%
D12*
%TO.C,S13*%
X273785000Y-40640000D03*
D13*
X271780000Y-38100000D03*
D14*
X266700000Y-38100000D03*
D13*
X261620000Y-38100000D03*
D12*
X260858000Y-43180000D03*
D15*
X270510000Y-40640000D03*
X264160000Y-43180000D03*
%TD*%
D12*
%TO.C,S14*%
X302360000Y-40640000D03*
D13*
X300355000Y-38100000D03*
D14*
X295275000Y-38100000D03*
D13*
X290195000Y-38100000D03*
D12*
X289433000Y-43180000D03*
D15*
X299085000Y-40640000D03*
X292735000Y-43180000D03*
%TD*%
D12*
%TO.C,S21*%
X169010000Y-59690000D03*
D13*
X167005000Y-57150000D03*
D14*
X161925000Y-57150000D03*
D13*
X156845000Y-57150000D03*
D12*
X156083000Y-62230000D03*
D15*
X165735000Y-59690000D03*
X159385000Y-62230000D03*
%TD*%
D12*
%TO.C,S19*%
X130910000Y-59690000D03*
D13*
X128905000Y-57150000D03*
D14*
X123825000Y-57150000D03*
D13*
X118745000Y-57150000D03*
D12*
X117983000Y-62230000D03*
D15*
X127635000Y-59690000D03*
X121285000Y-62230000D03*
%TD*%
D10*
%TO.C,REF\u002A\u002A*%
X209543750Y-121285000D03*
D11*
X209543750Y-106075000D03*
D10*
X109543750Y-121285000D03*
D11*
X109543750Y-106075000D03*
%TD*%
D12*
%TO.C,S5*%
X121385000Y-40640000D03*
D13*
X119380000Y-38100000D03*
D14*
X114300000Y-38100000D03*
D13*
X109220000Y-38100000D03*
D12*
X108458000Y-43180000D03*
D15*
X118110000Y-40640000D03*
X111760000Y-43180000D03*
%TD*%
D12*
%TO.C,S45*%
X107097500Y-97790000D03*
D13*
X105092500Y-95250000D03*
D14*
X100012500Y-95250000D03*
D13*
X94932500Y-95250000D03*
D12*
X94170500Y-100330000D03*
D15*
X103822500Y-97790000D03*
X97472500Y-100330000D03*
%TD*%
D12*
%TO.C,S62*%
X309503750Y-116840000D03*
D13*
X307498750Y-114300000D03*
D14*
X302418750Y-114300000D03*
D13*
X297338750Y-114300000D03*
D12*
X296576750Y-119380000D03*
D15*
X306228750Y-116840000D03*
X299878750Y-119380000D03*
%TD*%
D12*
%TO.C,S52*%
X240447500Y-97790000D03*
D13*
X238442500Y-95250000D03*
D14*
X233362500Y-95250000D03*
D13*
X228282500Y-95250000D03*
D12*
X227520500Y-100330000D03*
D15*
X237172500Y-97790000D03*
X230822500Y-100330000D03*
%TD*%
D12*
%TO.C,S7*%
X159485000Y-40640000D03*
D13*
X157480000Y-38100000D03*
D14*
X152400000Y-38100000D03*
D13*
X147320000Y-38100000D03*
D12*
X146558000Y-43180000D03*
D15*
X156210000Y-40640000D03*
X149860000Y-43180000D03*
%TD*%
D12*
%TO.C,S41*%
X299978750Y-78740000D03*
D13*
X297973750Y-76200000D03*
D14*
X292893750Y-76200000D03*
D13*
X287813750Y-76200000D03*
D12*
X287051750Y-81280000D03*
D15*
X296703750Y-78740000D03*
X290353750Y-81280000D03*
%TD*%
D12*
%TO.C,S49*%
X183297500Y-97790000D03*
D13*
X181292500Y-95250000D03*
D14*
X176212500Y-95250000D03*
D13*
X171132500Y-95250000D03*
D12*
X170370500Y-100330000D03*
D15*
X180022500Y-97790000D03*
X173672500Y-100330000D03*
%TD*%
D12*
%TO.C,S44*%
X88047500Y-97790000D03*
D13*
X86042500Y-95250000D03*
D14*
X80962500Y-95250000D03*
D13*
X75882500Y-95250000D03*
D12*
X75120500Y-100330000D03*
D15*
X84772500Y-97790000D03*
X78422500Y-100330000D03*
%TD*%
D12*
%TO.C,S39*%
X249972500Y-78740000D03*
D13*
X247967500Y-76200000D03*
D14*
X242887500Y-76200000D03*
D13*
X237807500Y-76200000D03*
D12*
X237045500Y-81280000D03*
D15*
X246697500Y-78740000D03*
X240347500Y-81280000D03*
%TD*%
D12*
%TO.C,S40*%
X269022500Y-78740000D03*
D13*
X267017500Y-76200000D03*
D14*
X261937500Y-76200000D03*
D13*
X256857500Y-76200000D03*
D12*
X256095500Y-81280000D03*
D15*
X265747500Y-78740000D03*
X259397500Y-81280000D03*
%TD*%
D12*
%TO.C,S47*%
X145197500Y-97790000D03*
D13*
X143192500Y-95250000D03*
D14*
X138112500Y-95250000D03*
D13*
X133032500Y-95250000D03*
D12*
X132270500Y-100330000D03*
D15*
X141922500Y-97790000D03*
X135572500Y-100330000D03*
%TD*%
D16*
%TO.C,D21*%
X163874999Y-65650000D03*
X165974999Y-65650000D03*
%TD*%
D17*
%TO.C,RGB20*%
X145600000Y-52400000D03*
X145600000Y-50900000D03*
D18*
X140150000Y-50900000D03*
D17*
X140150000Y-52400000D03*
%TD*%
D19*
%TO.C,C13*%
X125305000Y-118275000D03*
X124345000Y-118275000D03*
%TD*%
D20*
%TO.C,C3*%
X133737500Y-117370000D03*
X133737500Y-118330000D03*
%TD*%
D16*
%TO.C,D46*%
X121035000Y-103435000D03*
X123135000Y-103435000D03*
%TD*%
D21*
%TO.C,D55*%
X50225000Y-113335000D03*
X50225000Y-115435000D03*
%TD*%
D17*
%TO.C,RGB58*%
X162268750Y-109550000D03*
X162268750Y-108050000D03*
D18*
X156818750Y-108050000D03*
D17*
X156818750Y-109550000D03*
%TD*%
%TO.C,RGB14*%
X298000000Y-33350000D03*
X298000000Y-31850000D03*
D18*
X292550000Y-31850000D03*
D17*
X292550000Y-33350000D03*
%TD*%
D19*
%TO.C,C8*%
X120855000Y-116000000D03*
X119895000Y-116000000D03*
%TD*%
D22*
%TO.C,C18*%
X115370000Y-112625000D03*
X116330000Y-112625000D03*
%TD*%
D23*
%TO.C,U1*%
X115425000Y-108825000D03*
X115425000Y-110725000D03*
X113150000Y-109775000D03*
%TD*%
D17*
%TO.C,RGB55*%
X43206250Y-109550000D03*
X43206250Y-108050000D03*
D18*
X37756250Y-108050000D03*
D17*
X37756250Y-109550000D03*
%TD*%
D16*
%TO.C,D7*%
X154349999Y-46600000D03*
X156449999Y-46600000D03*
%TD*%
D24*
%TO.C,U3*%
X126300000Y-109962500D03*
X126700000Y-109962500D03*
X127100000Y-109962500D03*
X127500000Y-109962500D03*
X127900000Y-109962500D03*
X128300000Y-109962500D03*
X128700000Y-109962500D03*
X129100000Y-109962500D03*
X129500000Y-109962500D03*
X129900000Y-109962500D03*
X130300000Y-109962500D03*
X130700000Y-109962500D03*
X131100000Y-109962500D03*
X131500000Y-109962500D03*
D25*
X132337500Y-110800000D03*
X132337500Y-111200000D03*
X132337500Y-111600000D03*
X132337500Y-112000000D03*
X132337500Y-112400000D03*
X132337500Y-112800000D03*
X132337500Y-113200000D03*
X132337500Y-113600000D03*
X132337500Y-114000000D03*
X132337500Y-114400000D03*
X132337500Y-114800000D03*
X132337500Y-115200000D03*
X132337500Y-115600000D03*
X132337500Y-116000000D03*
D24*
X131500000Y-116837500D03*
X131100000Y-116837500D03*
X130700000Y-116837500D03*
X130300000Y-116837500D03*
X129900000Y-116837500D03*
X129500000Y-116837500D03*
X129100000Y-116837500D03*
X128700000Y-116837500D03*
X128300000Y-116837500D03*
X127900000Y-116837500D03*
X127500000Y-116837500D03*
X127100000Y-116837500D03*
X126700000Y-116837500D03*
X126300000Y-116837500D03*
D25*
X125462500Y-116000000D03*
X125462500Y-115600000D03*
X125462500Y-115200000D03*
X125462500Y-114800000D03*
X125462500Y-114400000D03*
X125462500Y-114000000D03*
X125462500Y-113600000D03*
X125462500Y-113200000D03*
X125462500Y-112800000D03*
X125462500Y-112400000D03*
X125462500Y-112000000D03*
X125462500Y-111600000D03*
X125462500Y-111200000D03*
X125462500Y-110800000D03*
D26*
X128900000Y-113400000D03*
%TD*%
D16*
%TO.C,D15*%
X44812499Y-65650000D03*
X46912499Y-65650000D03*
%TD*%
D17*
%TO.C,RGB57*%
X90831250Y-109550000D03*
X90831250Y-108050000D03*
D18*
X85381250Y-108050000D03*
D17*
X85381250Y-109550000D03*
%TD*%
%TO.C,RGB38*%
X226562500Y-71450000D03*
X226562500Y-69950000D03*
D18*
X221112500Y-69950000D03*
D17*
X221112500Y-71450000D03*
%TD*%
%TO.C,RGB37*%
X207512500Y-71450000D03*
X207512500Y-69950000D03*
D18*
X202062500Y-69950000D03*
D17*
X202062500Y-71450000D03*
%TD*%
D16*
%TO.C,D43*%
X63862499Y-103750000D03*
X65962499Y-103750000D03*
%TD*%
%TO.C,D22*%
X182924999Y-65650000D03*
X185024999Y-65650000D03*
%TD*%
%TO.C,D44*%
X82912499Y-103750000D03*
X85012499Y-103750000D03*
%TD*%
D27*
%TO.C,R5*%
X135977500Y-115600000D03*
X136997500Y-115600000D03*
%TD*%
D17*
%TO.C,RGB52*%
X236087500Y-90500000D03*
X236087500Y-89000000D03*
D18*
X230637500Y-89000000D03*
D17*
X230637500Y-90500000D03*
%TD*%
D27*
%TO.C,R7*%
X49375000Y-37575000D03*
X50395000Y-37575000D03*
%TD*%
D28*
%TO.C,D58*%
X169975000Y-119215000D03*
X169975000Y-117115000D03*
%TD*%
D16*
%TO.C,D20*%
X144824999Y-65650000D03*
X146924999Y-65650000D03*
%TD*%
D17*
%TO.C,RGB3*%
X78925000Y-33350000D03*
X78925000Y-31850000D03*
D18*
X73475000Y-31850000D03*
D17*
X73475000Y-33350000D03*
%TD*%
%TO.C,RGB60*%
X257518750Y-109550000D03*
X257518750Y-108050000D03*
D18*
X252068750Y-108050000D03*
D17*
X252068750Y-109550000D03*
%TD*%
%TO.C,RGB5*%
X117025000Y-33350000D03*
X117025000Y-31850000D03*
D18*
X111575000Y-31850000D03*
D17*
X111575000Y-33350000D03*
%TD*%
%TO.C,RGB16*%
X69400000Y-52400000D03*
X69400000Y-50900000D03*
D18*
X63950000Y-50900000D03*
D17*
X63950000Y-52400000D03*
%TD*%
D16*
%TO.C,D19*%
X125774999Y-65650000D03*
X127874999Y-65650000D03*
%TD*%
D19*
%TO.C,C16*%
X118567500Y-113600000D03*
X117607500Y-113600000D03*
%TD*%
D16*
%TO.C,D4*%
X97199999Y-46600000D03*
X99299999Y-46600000D03*
%TD*%
%TO.C,D13*%
X268649999Y-46600000D03*
X270749999Y-46600000D03*
%TD*%
%TO.C,D29*%
X47193749Y-84700000D03*
X49293749Y-84700000D03*
%TD*%
D17*
%TO.C,RGB24*%
X221800000Y-52400000D03*
X221800000Y-50900000D03*
D18*
X216350000Y-50900000D03*
D17*
X216350000Y-52400000D03*
%TD*%
D16*
%TO.C,D11*%
X230549999Y-46600000D03*
X232649999Y-46600000D03*
%TD*%
D22*
%TO.C,C5*%
X120357500Y-109000000D03*
X121317500Y-109000000D03*
%TD*%
D17*
%TO.C,RGB18*%
X107500000Y-52400000D03*
X107500000Y-50900000D03*
D18*
X102050000Y-50900000D03*
D17*
X102050000Y-52400000D03*
%TD*%
%TO.C,RGB27*%
X278950000Y-52400000D03*
X278950000Y-50900000D03*
D18*
X273500000Y-50900000D03*
D17*
X273500000Y-52400000D03*
%TD*%
%TO.C,RGB34*%
X150362500Y-71450000D03*
X150362500Y-69950000D03*
D18*
X144912500Y-69950000D03*
D17*
X144912500Y-71450000D03*
%TD*%
%TO.C,RGB47*%
X140837500Y-90500000D03*
X140837500Y-89000000D03*
D18*
X135387500Y-89000000D03*
D17*
X135387500Y-90500000D03*
%TD*%
D22*
%TO.C,C9*%
X130107500Y-118250000D03*
X131067500Y-118250000D03*
%TD*%
D16*
%TO.C,D2*%
X59099999Y-46600000D03*
X61199999Y-46600000D03*
%TD*%
D17*
%TO.C,RGB29*%
X47968750Y-71450000D03*
X47968750Y-69950000D03*
D18*
X42518750Y-69950000D03*
D17*
X42518750Y-71450000D03*
%TD*%
%TO.C,RGB7*%
X155125000Y-33350000D03*
X155125000Y-31850000D03*
D18*
X149675000Y-31850000D03*
D17*
X149675000Y-33350000D03*
%TD*%
D16*
%TO.C,D34*%
X149587499Y-84700000D03*
X151687499Y-84700000D03*
%TD*%
D17*
%TO.C,RGB48*%
X159887500Y-90500000D03*
X159887500Y-89000000D03*
D18*
X154437500Y-89000000D03*
D17*
X154437500Y-90500000D03*
%TD*%
D16*
%TO.C,D27*%
X278174999Y-65650000D03*
X280274999Y-65650000D03*
%TD*%
D17*
%TO.C,RGB4*%
X97975000Y-33350000D03*
X97975000Y-31850000D03*
D18*
X92525000Y-31850000D03*
D17*
X92525000Y-33350000D03*
%TD*%
%TO.C,RGB17*%
X88450000Y-52400000D03*
X88450000Y-50900000D03*
D18*
X83000000Y-50900000D03*
D17*
X83000000Y-52400000D03*
%TD*%
%TO.C,RGB9*%
X193225000Y-33350000D03*
X193225000Y-31850000D03*
D18*
X187775000Y-31850000D03*
D17*
X187775000Y-33350000D03*
%TD*%
%TO.C,RGB59*%
X233706250Y-109550000D03*
X233706250Y-108050000D03*
D18*
X228256250Y-108050000D03*
D17*
X228256250Y-109550000D03*
%TD*%
D27*
%TO.C,R3*%
X122135000Y-114285000D03*
X123155000Y-114285000D03*
%TD*%
D16*
%TO.C,D18*%
X106724999Y-65650000D03*
X108824999Y-65650000D03*
%TD*%
%TO.C,D30*%
X73387499Y-84700000D03*
X75487499Y-84700000D03*
%TD*%
D21*
%TO.C,D57*%
X98165000Y-112987500D03*
X98165000Y-115087500D03*
%TD*%
D16*
%TO.C,D45*%
X101962499Y-103750000D03*
X104062499Y-103750000D03*
%TD*%
D17*
%TO.C,RGB35*%
X169412500Y-71450000D03*
X169412500Y-69950000D03*
D18*
X163962500Y-69950000D03*
D17*
X163962500Y-71450000D03*
%TD*%
D19*
%TO.C,C14*%
X125567500Y-108750000D03*
X124607500Y-108750000D03*
%TD*%
%TO.C,C10*%
X123130000Y-116675000D03*
X122170000Y-116675000D03*
%TD*%
D16*
%TO.C,D31*%
X92437499Y-84700000D03*
X94537499Y-84700000D03*
%TD*%
D28*
%TO.C,D61*%
X289055000Y-119042500D03*
X289055000Y-116942500D03*
%TD*%
D29*
%TO.C,R6*%
X46375000Y-37575000D03*
X45355000Y-37575000D03*
%TD*%
D16*
%TO.C,D16*%
X68624999Y-65650000D03*
X70724999Y-65650000D03*
%TD*%
D17*
%TO.C,RGB46*%
X121787500Y-90500000D03*
X121787500Y-89000000D03*
D18*
X116337500Y-89000000D03*
D17*
X116337500Y-90500000D03*
%TD*%
D16*
%TO.C,D6*%
X135299999Y-46600000D03*
X137399999Y-46600000D03*
%TD*%
%TO.C,D48*%
X159112499Y-103750000D03*
X161212499Y-103750000D03*
%TD*%
D17*
%TO.C,RGB44*%
X83687500Y-90500000D03*
X83687500Y-89000000D03*
D18*
X78237500Y-89000000D03*
D17*
X78237500Y-90500000D03*
%TD*%
%TO.C,RGB23*%
X202750000Y-52400000D03*
X202750000Y-50900000D03*
D18*
X197300000Y-50900000D03*
D17*
X197300000Y-52400000D03*
%TD*%
%TO.C,RGB50*%
X197987500Y-90500000D03*
X197987500Y-89000000D03*
D18*
X192537500Y-89000000D03*
D17*
X192537500Y-90500000D03*
%TD*%
%TO.C,RGB33*%
X131312500Y-71450000D03*
X131312500Y-69950000D03*
D18*
X125862500Y-69950000D03*
D17*
X125862500Y-71450000D03*
%TD*%
D30*
%TO.C,J2*%
X120940000Y-106325000D03*
D31*
X118400000Y-106325000D03*
%TD*%
D17*
%TO.C,RGB26*%
X259900000Y-52400000D03*
X259900000Y-50900000D03*
D18*
X254450000Y-50900000D03*
D17*
X254450000Y-52400000D03*
%TD*%
D16*
%TO.C,D24*%
X221024999Y-65650000D03*
X223124999Y-65650000D03*
%TD*%
D32*
%TO.C,C2*%
X139237500Y-118330000D03*
X139237500Y-117370000D03*
%TD*%
D16*
%TO.C,D35*%
X168637499Y-84700000D03*
X170737499Y-84700000D03*
%TD*%
D17*
%TO.C,RGB61*%
X281331250Y-109550000D03*
X281331250Y-108050000D03*
D18*
X275881250Y-108050000D03*
D17*
X275881250Y-109550000D03*
%TD*%
D16*
%TO.C,D38*%
X225787499Y-84700000D03*
X227887499Y-84700000D03*
%TD*%
D17*
%TO.C,RGB62*%
X305143750Y-109550000D03*
X305143750Y-108050000D03*
D18*
X299693750Y-108050000D03*
D17*
X299693750Y-109550000D03*
%TD*%
%TO.C,RGB49*%
X178937500Y-90500000D03*
X178937500Y-89000000D03*
D18*
X173487500Y-89000000D03*
D17*
X173487500Y-90500000D03*
%TD*%
D20*
%TO.C,C12*%
X134587500Y-114250000D03*
X134587500Y-115210000D03*
%TD*%
D17*
%TO.C,RGB28*%
X302762500Y-52400000D03*
X302762500Y-50900000D03*
D18*
X297312500Y-50900000D03*
D17*
X297312500Y-52400000D03*
%TD*%
D28*
%TO.C,D62*%
X292125000Y-119062500D03*
X292125000Y-116962500D03*
%TD*%
D17*
%TO.C,RGB13*%
X269425000Y-33350000D03*
X269425000Y-31850000D03*
D18*
X263975000Y-31850000D03*
D17*
X263975000Y-33350000D03*
%TD*%
%TO.C,RGB12*%
X250375000Y-33350000D03*
X250375000Y-31850000D03*
D18*
X244925000Y-31850000D03*
D17*
X244925000Y-33350000D03*
%TD*%
D19*
%TO.C,C11*%
X123155000Y-117725000D03*
X122195000Y-117725000D03*
%TD*%
D17*
%TO.C,RGB54*%
X290856250Y-90500000D03*
X290856250Y-89000000D03*
D18*
X285406250Y-89000000D03*
D17*
X285406250Y-90500000D03*
%TD*%
%TO.C,RGB41*%
X295618750Y-71450000D03*
X295618750Y-69950000D03*
D18*
X290168750Y-69950000D03*
D17*
X290168750Y-71450000D03*
%TD*%
%TO.C,RGB2*%
X59875000Y-33350000D03*
X59875000Y-31850000D03*
D18*
X54425000Y-31850000D03*
D17*
X54425000Y-33350000D03*
%TD*%
%TO.C,RGB43*%
X64637500Y-90500000D03*
X64637500Y-89000000D03*
D18*
X59187500Y-89000000D03*
D17*
X59187500Y-90500000D03*
%TD*%
%TO.C,RGB1*%
X40825000Y-33350000D03*
X40825000Y-31850000D03*
D18*
X35375000Y-31850000D03*
D17*
X35375000Y-33350000D03*
%TD*%
D21*
%TO.C,D56*%
X74465000Y-112785000D03*
X74465000Y-114885000D03*
%TD*%
D32*
%TO.C,C15*%
X130325000Y-107075000D03*
X130325000Y-106115000D03*
%TD*%
D16*
%TO.C,D49*%
X178162499Y-103750000D03*
X180262499Y-103750000D03*
%TD*%
D17*
%TO.C,RGB40*%
X264662500Y-71450000D03*
X264662500Y-69950000D03*
D18*
X259212500Y-69950000D03*
D17*
X259212500Y-71450000D03*
%TD*%
%TO.C,RGB22*%
X183700000Y-52400000D03*
X183700000Y-50900000D03*
D18*
X178250000Y-50900000D03*
D17*
X178250000Y-52400000D03*
%TD*%
D28*
%TO.C,D59*%
X240985000Y-119355000D03*
X240985000Y-117255000D03*
%TD*%
D27*
%TO.C,R4*%
X122125000Y-115365000D03*
X123145000Y-115365000D03*
%TD*%
D17*
%TO.C,RGB6*%
X136075000Y-33350000D03*
X136075000Y-31850000D03*
D18*
X130625000Y-31850000D03*
D17*
X130625000Y-33350000D03*
%TD*%
D16*
%TO.C,D54*%
X290081249Y-103750000D03*
X292181249Y-103750000D03*
%TD*%
%TO.C,D17*%
X87674999Y-65650000D03*
X89774999Y-65650000D03*
%TD*%
D17*
%TO.C,RGB53*%
X255137500Y-90500000D03*
X255137500Y-89000000D03*
D18*
X249687500Y-89000000D03*
D17*
X249687500Y-90500000D03*
%TD*%
D28*
%TO.C,D60*%
X265225000Y-119042500D03*
X265225000Y-116942500D03*
%TD*%
D33*
%TO.C,U2*%
X123562500Y-110075000D03*
X123562500Y-110575000D03*
X123562500Y-111075000D03*
X123562500Y-111575000D03*
X120712500Y-111575000D03*
X120712500Y-111075000D03*
X120712500Y-110575000D03*
X120712500Y-110075000D03*
D34*
X122137500Y-110825000D03*
%TD*%
D17*
%TO.C,RGB45*%
X102737500Y-90500000D03*
X102737500Y-89000000D03*
D18*
X97287500Y-89000000D03*
D17*
X97287500Y-90500000D03*
%TD*%
D35*
%TO.C,R1*%
X123562500Y-108000000D03*
X123562500Y-109020000D03*
%TD*%
D36*
%TO.C,J1*%
X44735000Y-34855000D03*
X50515000Y-34855000D03*
D37*
X44425000Y-35930000D03*
X45225000Y-35930000D03*
D38*
X46375000Y-35930000D03*
X47375000Y-35930000D03*
X47875000Y-35930000D03*
X48875000Y-35930000D03*
D37*
X50025000Y-35930000D03*
X50825000Y-35930000D03*
X50825000Y-35930000D03*
X50025000Y-35930000D03*
D38*
X49375000Y-35930000D03*
X48375000Y-35930000D03*
X46875000Y-35930000D03*
X45875000Y-35930000D03*
D37*
X45225000Y-35930000D03*
X44425000Y-35930000D03*
D39*
X43305000Y-31175000D03*
D40*
X43305000Y-35355000D03*
D39*
X51945000Y-31175000D03*
D40*
X51945000Y-35355000D03*
%TD*%
D17*
%TO.C,RGB56*%
X67018750Y-109550000D03*
X67018750Y-108050000D03*
D18*
X61568750Y-108050000D03*
D17*
X61568750Y-109550000D03*
%TD*%
%TO.C,RGB31*%
X93212500Y-71450000D03*
X93212500Y-69950000D03*
D18*
X87762500Y-69950000D03*
D17*
X87762500Y-71450000D03*
%TD*%
D32*
%TO.C,C7*%
X118837500Y-111795758D03*
X118837500Y-110835758D03*
%TD*%
D16*
%TO.C,D26*%
X259124999Y-65650000D03*
X261224999Y-65650000D03*
%TD*%
D17*
%TO.C,RGB25*%
X240850000Y-52400000D03*
X240850000Y-50900000D03*
D18*
X235400000Y-50900000D03*
D17*
X235400000Y-52400000D03*
%TD*%
D16*
%TO.C,D5*%
X116249999Y-46600000D03*
X118349999Y-46600000D03*
%TD*%
D17*
%TO.C,RGB10*%
X212275000Y-33350000D03*
X212275000Y-31850000D03*
D18*
X206825000Y-31850000D03*
D17*
X206825000Y-33350000D03*
%TD*%
D16*
%TO.C,D12*%
X249599999Y-46600000D03*
X251699999Y-46600000D03*
%TD*%
D17*
%TO.C,RGB51*%
X217037500Y-90500000D03*
X217037500Y-89000000D03*
D18*
X211587500Y-89000000D03*
D17*
X211587500Y-90500000D03*
%TD*%
D16*
%TO.C,D9*%
X192449999Y-46600000D03*
X194549999Y-46600000D03*
%TD*%
D17*
%TO.C,RGB8*%
X174175000Y-33350000D03*
X174175000Y-31850000D03*
D18*
X168725000Y-31850000D03*
D17*
X168725000Y-33350000D03*
%TD*%
D16*
%TO.C,D25*%
X240074999Y-65650000D03*
X242174999Y-65650000D03*
%TD*%
D20*
%TO.C,C6*%
X133587500Y-114250000D03*
X133587500Y-115210000D03*
%TD*%
D16*
%TO.C,D53*%
X254362499Y-103750000D03*
X256462499Y-103750000D03*
%TD*%
%TO.C,D23*%
X201974999Y-65650000D03*
X204074999Y-65650000D03*
%TD*%
%TO.C,D28*%
X301987499Y-65650000D03*
X304087499Y-65650000D03*
%TD*%
D41*
%TO.C,Y1*%
X135387500Y-117000000D03*
X137587500Y-117000000D03*
X137587500Y-118700000D03*
X135387500Y-118700000D03*
%TD*%
D17*
%TO.C,RGB15*%
X45587500Y-52400000D03*
X45587500Y-50900000D03*
D18*
X40137500Y-50900000D03*
D17*
X40137500Y-52400000D03*
%TD*%
%TO.C,RGB11*%
X231325000Y-33350000D03*
X231325000Y-31850000D03*
D18*
X225875000Y-31850000D03*
D17*
X225875000Y-33350000D03*
%TD*%
D16*
%TO.C,D32*%
X111487499Y-84700000D03*
X113587499Y-84700000D03*
%TD*%
D17*
%TO.C,RGB32*%
X112262500Y-71450000D03*
X112262500Y-69950000D03*
D18*
X106812500Y-69950000D03*
D17*
X106812500Y-71450000D03*
%TD*%
D16*
%TO.C,D3*%
X78149999Y-46600000D03*
X80249999Y-46600000D03*
%TD*%
D17*
%TO.C,RGB19*%
X126550000Y-52400000D03*
X126550000Y-50900000D03*
D18*
X121100000Y-50900000D03*
D17*
X121100000Y-52400000D03*
%TD*%
D16*
%TO.C,D42*%
X42431249Y-103750000D03*
X44531249Y-103750000D03*
%TD*%
%TO.C,D36*%
X187687499Y-84700000D03*
X189787499Y-84700000D03*
%TD*%
%TO.C,D33*%
X130537499Y-84700000D03*
X132637499Y-84700000D03*
%TD*%
D17*
%TO.C,RGB30*%
X74162500Y-71450000D03*
X74162500Y-69950000D03*
D18*
X68712500Y-69950000D03*
D17*
X68712500Y-71450000D03*
%TD*%
D16*
%TO.C,D10*%
X211499999Y-46600000D03*
X213599999Y-46600000D03*
%TD*%
D17*
%TO.C,RGB42*%
X43206250Y-90500000D03*
X43206250Y-89000000D03*
D18*
X37756250Y-89000000D03*
D17*
X37756250Y-90500000D03*
%TD*%
D16*
%TO.C,D1*%
X40049999Y-46600000D03*
X42149999Y-46600000D03*
%TD*%
D17*
%TO.C,RGB39*%
X245612500Y-71450000D03*
X245612500Y-69950000D03*
D18*
X240162500Y-69950000D03*
D17*
X240162500Y-71450000D03*
%TD*%
D16*
%TO.C,D39*%
X244837499Y-84700000D03*
X246937499Y-84700000D03*
%TD*%
%TO.C,D14*%
X297224999Y-46600000D03*
X299324999Y-46600000D03*
%TD*%
%TO.C,D51*%
X216262499Y-103750000D03*
X218362499Y-103750000D03*
%TD*%
%TO.C,D41*%
X294843749Y-84700000D03*
X296943749Y-84700000D03*
%TD*%
D17*
%TO.C,RGB21*%
X164650000Y-52400000D03*
X164650000Y-50900000D03*
D18*
X159200000Y-50900000D03*
D17*
X159200000Y-52400000D03*
%TD*%
D16*
%TO.C,D47*%
X140062499Y-103750000D03*
X142162499Y-103750000D03*
%TD*%
%TO.C,D40*%
X263887499Y-84700000D03*
X265987499Y-84700000D03*
%TD*%
%TO.C,D37*%
X206737499Y-84700000D03*
X208837499Y-84700000D03*
%TD*%
%TO.C,D52*%
X235312499Y-103750000D03*
X237412499Y-103750000D03*
%TD*%
%TO.C,D50*%
X197212499Y-103750000D03*
X199312499Y-103750000D03*
%TD*%
D17*
%TO.C,RGB36*%
X188462500Y-71450000D03*
X188462500Y-69950000D03*
D18*
X183012500Y-69950000D03*
D17*
X183012500Y-71450000D03*
%TD*%
D22*
%TO.C,C17*%
X113890000Y-107425000D03*
X114850000Y-107425000D03*
%TD*%
D16*
%TO.C,D8*%
X173399999Y-46600000D03*
X175499999Y-46600000D03*
%TD*%
M02*
