%TF.GenerationSoftware,KiCad,Pcbnew,8.0.3*%
%TF.CreationDate,2024-11-03T20:57:16+08:00*%
%TF.ProjectId,PH60_Rev2,50483630-5f52-4657-9632-2e6b69636164,rev?*%
%TF.SameCoordinates,Original*%
%TF.FileFunction,Legend,Bot*%
%TF.FilePolarity,Positive*%
%FSLAX46Y46*%
G04 Gerber Fmt 4.6, Leading zero omitted, Abs format (unit mm)*
G04 Created by KiCad (PCBNEW 8.0.3) date 2024-11-03 20:57:16*
%MOMM*%
%LPD*%
G01*
G04 APERTURE LIST*
%ADD10C,0.120000*%
G04 APERTURE END LIST*
D10*
%TO.C,S30*%
X71637500Y-78900000D02*
X66537500Y-78900000D01*
X75537500Y-83100000D02*
X70437500Y-83100000D01*
X73637500Y-76900000D02*
G75*
G02*
X71637500Y-78900000I-1999999J-1D01*
G01*
X77537500Y-81100000D02*
G75*
G02*
X75537500Y-83100000I-1999999J-1D01*
G01*
%TO.C,S27*%
X276425000Y-59850000D02*
X271325000Y-59850000D01*
X280325000Y-64050000D02*
X275225000Y-64050000D01*
X278425000Y-57850000D02*
G75*
G02*
X276425000Y-59850000I-1999999J-1D01*
G01*
X282325000Y-62050000D02*
G75*
G02*
X280325000Y-64050000I-1999999J-1D01*
G01*
%TO.C,S42*%
X40681250Y-97950000D02*
X35581250Y-97950000D01*
X44581250Y-102150000D02*
X39481250Y-102150000D01*
X42681250Y-95950000D02*
G75*
G02*
X40681250Y-97950000I-1999999J-1D01*
G01*
X46581250Y-100150000D02*
G75*
G02*
X44581250Y-102150000I-1999999J-1D01*
G01*
%TO.C,S32*%
X109737500Y-78900000D02*
X104637500Y-78900000D01*
X113637500Y-83100000D02*
X108537500Y-83100000D01*
X111737500Y-76900000D02*
G75*
G02*
X109737500Y-78900000I-1999999J-1D01*
G01*
X115637500Y-81100000D02*
G75*
G02*
X113637500Y-83100000I-1999999J-1D01*
G01*
%TO.C,S38*%
X224037500Y-78900000D02*
X218937500Y-78900000D01*
X227937500Y-83100000D02*
X222837500Y-83100000D01*
X226037500Y-76900000D02*
G75*
G02*
X224037500Y-78900000I-1999999J-1D01*
G01*
X229937500Y-81100000D02*
G75*
G02*
X227937500Y-83100000I-1999999J-1D01*
G01*
%TO.C,S35*%
X166887500Y-78900000D02*
X161787500Y-78900000D01*
X170787500Y-83100000D02*
X165687500Y-83100000D01*
X168887500Y-76900000D02*
G75*
G02*
X166887500Y-78900000I-1999999J-1D01*
G01*
X172787500Y-81100000D02*
G75*
G02*
X170787500Y-83100000I-1999999J-1D01*
G01*
%TO.C,S4*%
X95450000Y-40800000D02*
X90350000Y-40800000D01*
X99350000Y-45000000D02*
X94250000Y-45000000D01*
X97450000Y-38800000D02*
G75*
G02*
X95450000Y-40800000I-1999999J-1D01*
G01*
X101350000Y-43000000D02*
G75*
G02*
X99350000Y-45000000I-1999999J-1D01*
G01*
%TO.C,S2*%
X57350000Y-40800000D02*
X52250000Y-40800000D01*
X61250000Y-45000000D02*
X56150000Y-45000000D01*
X59350000Y-38800000D02*
G75*
G02*
X57350000Y-40800000I-1999999J-1D01*
G01*
X63250000Y-43000000D02*
G75*
G02*
X61250000Y-45000000I-1999999J-1D01*
G01*
%TO.C,S22*%
X181175000Y-59850000D02*
X176075000Y-59850000D01*
X185075000Y-64050000D02*
X179975000Y-64050000D01*
X183175000Y-57850000D02*
G75*
G02*
X181175000Y-59850000I-1999999J-1D01*
G01*
X187075000Y-62050000D02*
G75*
G02*
X185075000Y-64050000I-1999999J-1D01*
G01*
%TO.C,S28*%
X300237500Y-59850000D02*
X295137500Y-59850000D01*
X304137500Y-64050000D02*
X299037500Y-64050000D01*
X302237500Y-57850000D02*
G75*
G02*
X300237500Y-59850000I-1999999J-1D01*
G01*
X306137500Y-62050000D02*
G75*
G02*
X304137500Y-64050000I-1999999J-1D01*
G01*
%TO.C,S46*%
X119262500Y-97950000D02*
X114162500Y-97950000D01*
X123162500Y-102150000D02*
X118062500Y-102150000D01*
X121262500Y-95950000D02*
G75*
G02*
X119262500Y-97950000I-1999999J-1D01*
G01*
X125162500Y-100150000D02*
G75*
G02*
X123162500Y-102150000I-1999999J-1D01*
G01*
%TO.C,S1*%
X38300000Y-40800000D02*
X33200000Y-40800000D01*
X42200000Y-45000000D02*
X37100000Y-45000000D01*
X40300000Y-38800000D02*
G75*
G02*
X38300000Y-40800000I-1999999J-1D01*
G01*
X44200000Y-43000000D02*
G75*
G02*
X42200000Y-45000000I-1999999J-1D01*
G01*
%TO.C,S54*%
X288331250Y-97950000D02*
X283231250Y-97950000D01*
X292231250Y-102150000D02*
X287131250Y-102150000D01*
X290331250Y-95950000D02*
G75*
G02*
X288331250Y-97950000I-1999999J-1D01*
G01*
X294231250Y-100150000D02*
G75*
G02*
X292231250Y-102150000I-1999999J-1D01*
G01*
%TO.C,S10*%
X209750000Y-40800000D02*
X204650000Y-40800000D01*
X213650000Y-45000000D02*
X208550000Y-45000000D01*
X211750000Y-38800000D02*
G75*
G02*
X209750000Y-40800000I-1999999J-1D01*
G01*
X215650000Y-43000000D02*
G75*
G02*
X213650000Y-45000000I-1999999J-1D01*
G01*
%TO.C,S34*%
X147837500Y-78900000D02*
X142737500Y-78900000D01*
X151737500Y-83100000D02*
X146637500Y-83100000D01*
X149837500Y-76900000D02*
G75*
G02*
X147837500Y-78900000I-1999999J-1D01*
G01*
X153737500Y-81100000D02*
G75*
G02*
X151737500Y-83100000I-1999999J-1D01*
G01*
%TO.C,S15*%
X43062500Y-59850000D02*
X37962500Y-59850000D01*
X46962500Y-64050000D02*
X41862500Y-64050000D01*
X45062500Y-57850000D02*
G75*
G02*
X43062500Y-59850000I-1999999J-1D01*
G01*
X48962500Y-62050000D02*
G75*
G02*
X46962500Y-64050000I-1999999J-1D01*
G01*
%TO.C,S56*%
X64493750Y-117000000D02*
X59393750Y-117000000D01*
X68393750Y-121200000D02*
X63293750Y-121200000D01*
X66493750Y-115000000D02*
G75*
G02*
X64493750Y-117000000I-1999999J-1D01*
G01*
X70393750Y-119200000D02*
G75*
G02*
X68393750Y-121200000I-1999999J-1D01*
G01*
%TO.C,S20*%
X143075000Y-59850000D02*
X137975000Y-59850000D01*
X146975000Y-64050000D02*
X141875000Y-64050000D01*
X145075000Y-57850000D02*
G75*
G02*
X143075000Y-59850000I-1999999J-1D01*
G01*
X148975000Y-62050000D02*
G75*
G02*
X146975000Y-64050000I-1999999J-1D01*
G01*
%TO.C,S17*%
X85925000Y-59850000D02*
X80825000Y-59850000D01*
X89825000Y-64050000D02*
X84725000Y-64050000D01*
X87925000Y-57850000D02*
G75*
G02*
X85925000Y-59850000I-1999999J-1D01*
G01*
X91825000Y-62050000D02*
G75*
G02*
X89825000Y-64050000I-1999999J-1D01*
G01*
%TO.C,S31*%
X90687500Y-78900000D02*
X85587500Y-78900000D01*
X94587500Y-83100000D02*
X89487500Y-83100000D01*
X92687500Y-76900000D02*
G75*
G02*
X90687500Y-78900000I-1999999J-1D01*
G01*
X96587500Y-81100000D02*
G75*
G02*
X94587500Y-83100000I-1999999J-1D01*
G01*
%TO.C,S48*%
X157362500Y-97950000D02*
X152262500Y-97950000D01*
X161262500Y-102150000D02*
X156162500Y-102150000D01*
X159362500Y-95950000D02*
G75*
G02*
X157362500Y-97950000I-1999999J-1D01*
G01*
X163262500Y-100150000D02*
G75*
G02*
X161262500Y-102150000I-1999999J-1D01*
G01*
%TO.C,S51*%
X214512500Y-97950000D02*
X209412500Y-97950000D01*
X218412500Y-102150000D02*
X213312500Y-102150000D01*
X216512500Y-95950000D02*
G75*
G02*
X214512500Y-97950000I-1999999J-1D01*
G01*
X220412500Y-100150000D02*
G75*
G02*
X218412500Y-102150000I-1999999J-1D01*
G01*
%TO.C,S23*%
X200225000Y-59850000D02*
X195125000Y-59850000D01*
X204125000Y-64050000D02*
X199025000Y-64050000D01*
X202225000Y-57850000D02*
G75*
G02*
X200225000Y-59850000I-1999999J-1D01*
G01*
X206125000Y-62050000D02*
G75*
G02*
X204125000Y-64050000I-1999999J-1D01*
G01*
%TO.C,S50*%
X195462500Y-97950000D02*
X190362500Y-97950000D01*
X199362500Y-102150000D02*
X194262500Y-102150000D01*
X197462500Y-95950000D02*
G75*
G02*
X195462500Y-97950000I-1999999J-1D01*
G01*
X201362500Y-100150000D02*
G75*
G02*
X199362500Y-102150000I-1999999J-1D01*
G01*
%TO.C,S18*%
X104975000Y-59850000D02*
X99875000Y-59850000D01*
X108875000Y-64050000D02*
X103775000Y-64050000D01*
X106975000Y-57850000D02*
G75*
G02*
X104975000Y-59850000I-1999999J-1D01*
G01*
X110875000Y-62050000D02*
G75*
G02*
X108875000Y-64050000I-1999999J-1D01*
G01*
%TO.C,S33*%
X128787500Y-78900000D02*
X123687500Y-78900000D01*
X132687500Y-83100000D02*
X127587500Y-83100000D01*
X130787500Y-76900000D02*
G75*
G02*
X128787500Y-78900000I-1999999J-1D01*
G01*
X134687500Y-81100000D02*
G75*
G02*
X132687500Y-83100000I-1999999J-1D01*
G01*
%TO.C,S61*%
X278806250Y-117000000D02*
X273706250Y-117000000D01*
X282706250Y-121200000D02*
X277606250Y-121200000D01*
X280806250Y-115000000D02*
G75*
G02*
X278806250Y-117000000I-1999999J-1D01*
G01*
X284706250Y-119200000D02*
G75*
G02*
X282706250Y-121200000I-1999999J-1D01*
G01*
%TO.C,S16*%
X66875000Y-59850000D02*
X61775000Y-59850000D01*
X70775000Y-64050000D02*
X65675000Y-64050000D01*
X68875000Y-57850000D02*
G75*
G02*
X66875000Y-59850000I-1999999J-1D01*
G01*
X72775000Y-62050000D02*
G75*
G02*
X70775000Y-64050000I-1999999J-1D01*
G01*
%TO.C,S60*%
X254993750Y-117000000D02*
X249893750Y-117000000D01*
X258893750Y-121200000D02*
X253793750Y-121200000D01*
X256993750Y-115000000D02*
G75*
G02*
X254993750Y-117000000I-1999999J-1D01*
G01*
X260893750Y-119200000D02*
G75*
G02*
X258893750Y-121200000I-1999999J-1D01*
G01*
%TO.C,S58*%
X159743750Y-117000000D02*
X154643750Y-117000000D01*
X163643750Y-121200000D02*
X158543750Y-121200000D01*
X161743750Y-115000000D02*
G75*
G02*
X159743750Y-117000000I-1999999J-1D01*
G01*
X165643750Y-119200000D02*
G75*
G02*
X163643750Y-121200000I-1999999J-1D01*
G01*
%TO.C,S24*%
X219275000Y-59850000D02*
X214175000Y-59850000D01*
X223175000Y-64050000D02*
X218075000Y-64050000D01*
X221275000Y-57850000D02*
G75*
G02*
X219275000Y-59850000I-1999999J-1D01*
G01*
X225175000Y-62050000D02*
G75*
G02*
X223175000Y-64050000I-1999999J-1D01*
G01*
%TO.C,S29*%
X45443750Y-78900000D02*
X40343750Y-78900000D01*
X49343750Y-83100000D02*
X44243750Y-83100000D01*
X47443750Y-76900000D02*
G75*
G02*
X45443750Y-78900000I-1999999J-1D01*
G01*
X51343750Y-81100000D02*
G75*
G02*
X49343750Y-83100000I-1999999J-1D01*
G01*
%TO.C,S37*%
X204987500Y-78900000D02*
X199887500Y-78900000D01*
X208887500Y-83100000D02*
X203787500Y-83100000D01*
X206987500Y-76900000D02*
G75*
G02*
X204987500Y-78900000I-1999999J-1D01*
G01*
X210887500Y-81100000D02*
G75*
G02*
X208887500Y-83100000I-1999999J-1D01*
G01*
%TO.C,S43*%
X62112500Y-97950000D02*
X57012500Y-97950000D01*
X66012500Y-102150000D02*
X60912500Y-102150000D01*
X64112500Y-95950000D02*
G75*
G02*
X62112500Y-97950000I-1999999J-1D01*
G01*
X68012500Y-100150000D02*
G75*
G02*
X66012500Y-102150000I-1999999J-1D01*
G01*
%TO.C,S3*%
X76400000Y-40800000D02*
X71300000Y-40800000D01*
X80300000Y-45000000D02*
X75200000Y-45000000D01*
X78400000Y-38800000D02*
G75*
G02*
X76400000Y-40800000I-1999999J-1D01*
G01*
X82300000Y-43000000D02*
G75*
G02*
X80300000Y-45000000I-1999999J-1D01*
G01*
%TO.C,S36*%
X185937500Y-78900000D02*
X180837500Y-78900000D01*
X189837500Y-83100000D02*
X184737500Y-83100000D01*
X187937500Y-76900000D02*
G75*
G02*
X185937500Y-78900000I-1999999J-1D01*
G01*
X191837500Y-81100000D02*
G75*
G02*
X189837500Y-83100000I-1999999J-1D01*
G01*
%TO.C,S6*%
X133550000Y-40800000D02*
X128450000Y-40800000D01*
X137450000Y-45000000D02*
X132350000Y-45000000D01*
X135550000Y-38800000D02*
G75*
G02*
X133550000Y-40800000I-1999999J-1D01*
G01*
X139450000Y-43000000D02*
G75*
G02*
X137450000Y-45000000I-1999999J-1D01*
G01*
%TO.C,S55*%
X40681250Y-117000000D02*
X35581250Y-117000000D01*
X44581250Y-121200000D02*
X39481250Y-121200000D01*
X42681250Y-115000000D02*
G75*
G02*
X40681250Y-117000000I-1999999J-1D01*
G01*
X46581250Y-119200000D02*
G75*
G02*
X44581250Y-121200000I-1999999J-1D01*
G01*
%TO.C,S25*%
X238325000Y-59850000D02*
X233225000Y-59850000D01*
X242225000Y-64050000D02*
X237125000Y-64050000D01*
X240325000Y-57850000D02*
G75*
G02*
X238325000Y-59850000I-1999999J-1D01*
G01*
X244225000Y-62050000D02*
G75*
G02*
X242225000Y-64050000I-1999999J-1D01*
G01*
%TO.C,S9*%
X190700000Y-40800000D02*
X185600000Y-40800000D01*
X194600000Y-45000000D02*
X189500000Y-45000000D01*
X192700000Y-38800000D02*
G75*
G02*
X190700000Y-40800000I-1999999J-1D01*
G01*
X196600000Y-43000000D02*
G75*
G02*
X194600000Y-45000000I-1999999J-1D01*
G01*
%TO.C,S26*%
X257375000Y-59850000D02*
X252275000Y-59850000D01*
X261275000Y-64050000D02*
X256175000Y-64050000D01*
X259375000Y-57850000D02*
G75*
G02*
X257375000Y-59850000I-1999999J-1D01*
G01*
X263275000Y-62050000D02*
G75*
G02*
X261275000Y-64050000I-1999999J-1D01*
G01*
%TO.C,S11*%
X228800000Y-40800000D02*
X223700000Y-40800000D01*
X232700000Y-45000000D02*
X227600000Y-45000000D01*
X230800000Y-38800000D02*
G75*
G02*
X228800000Y-40800000I-1999999J-1D01*
G01*
X234700000Y-43000000D02*
G75*
G02*
X232700000Y-45000000I-1999999J-1D01*
G01*
%TO.C,S59*%
X231181250Y-117000000D02*
X226081250Y-117000000D01*
X235081250Y-121200000D02*
X229981250Y-121200000D01*
X233181250Y-115000000D02*
G75*
G02*
X231181250Y-117000000I-1999999J-1D01*
G01*
X237081250Y-119200000D02*
G75*
G02*
X235081250Y-121200000I-1999999J-1D01*
G01*
%TO.C,S53*%
X252612500Y-97950000D02*
X247512500Y-97950000D01*
X256512500Y-102150000D02*
X251412500Y-102150000D01*
X254612500Y-95950000D02*
G75*
G02*
X252612500Y-97950000I-1999999J-1D01*
G01*
X258512500Y-100150000D02*
G75*
G02*
X256512500Y-102150000I-1999999J-1D01*
G01*
%TO.C,S12*%
X247850000Y-40800000D02*
X242750000Y-40800000D01*
X251750000Y-45000000D02*
X246650000Y-45000000D01*
X249850000Y-38800000D02*
G75*
G02*
X247850000Y-40800000I-1999999J-1D01*
G01*
X253750000Y-43000000D02*
G75*
G02*
X251750000Y-45000000I-1999999J-1D01*
G01*
%TO.C,S57*%
X88306250Y-117000000D02*
X83206250Y-117000000D01*
X92206250Y-121200000D02*
X87106250Y-121200000D01*
X90306250Y-115000000D02*
G75*
G02*
X88306250Y-117000000I-1999999J-1D01*
G01*
X94206250Y-119200000D02*
G75*
G02*
X92206250Y-121200000I-1999999J-1D01*
G01*
%TO.C,S8*%
X171650000Y-40800000D02*
X166550000Y-40800000D01*
X175550000Y-45000000D02*
X170450000Y-45000000D01*
X173650000Y-38800000D02*
G75*
G02*
X171650000Y-40800000I-1999999J-1D01*
G01*
X177550000Y-43000000D02*
G75*
G02*
X175550000Y-45000000I-1999999J-1D01*
G01*
%TO.C,S13*%
X266900000Y-40800000D02*
X261800000Y-40800000D01*
X270800000Y-45000000D02*
X265700000Y-45000000D01*
X268900000Y-38800000D02*
G75*
G02*
X266900000Y-40800000I-1999999J-1D01*
G01*
X272800000Y-43000000D02*
G75*
G02*
X270800000Y-45000000I-1999999J-1D01*
G01*
%TO.C,S14*%
X295475000Y-40800000D02*
X290375000Y-40800000D01*
X299375000Y-45000000D02*
X294275000Y-45000000D01*
X297475000Y-38800000D02*
G75*
G02*
X295475000Y-40800000I-1999999J-1D01*
G01*
X301375000Y-43000000D02*
G75*
G02*
X299375000Y-45000000I-1999999J-1D01*
G01*
%TO.C,S21*%
X162125000Y-59850000D02*
X157025000Y-59850000D01*
X166025000Y-64050000D02*
X160925000Y-64050000D01*
X164125000Y-57850000D02*
G75*
G02*
X162125000Y-59850000I-1999999J-1D01*
G01*
X168025000Y-62050000D02*
G75*
G02*
X166025000Y-64050000I-1999999J-1D01*
G01*
%TO.C,S19*%
X124025000Y-59850000D02*
X118925000Y-59850000D01*
X127925000Y-64050000D02*
X122825000Y-64050000D01*
X126025000Y-57850000D02*
G75*
G02*
X124025000Y-59850000I-1999999J-1D01*
G01*
X129925000Y-62050000D02*
G75*
G02*
X127925000Y-64050000I-1999999J-1D01*
G01*
%TO.C,S5*%
X114500000Y-40800000D02*
X109400000Y-40800000D01*
X118400000Y-45000000D02*
X113300000Y-45000000D01*
X116500000Y-38800000D02*
G75*
G02*
X114500000Y-40800000I-1999999J-1D01*
G01*
X120400000Y-43000000D02*
G75*
G02*
X118400000Y-45000000I-1999999J-1D01*
G01*
%TO.C,S45*%
X100212500Y-97950000D02*
X95112500Y-97950000D01*
X104112500Y-102150000D02*
X99012500Y-102150000D01*
X102212500Y-95950000D02*
G75*
G02*
X100212500Y-97950000I-1999999J-1D01*
G01*
X106112500Y-100150000D02*
G75*
G02*
X104112500Y-102150000I-1999999J-1D01*
G01*
%TO.C,S62*%
X302618750Y-117000000D02*
X297518750Y-117000000D01*
X306518750Y-121200000D02*
X301418750Y-121200000D01*
X304618750Y-115000000D02*
G75*
G02*
X302618750Y-117000000I-1999999J-1D01*
G01*
X308518750Y-119200000D02*
G75*
G02*
X306518750Y-121200000I-1999999J-1D01*
G01*
%TO.C,S52*%
X233562500Y-97950000D02*
X228462500Y-97950000D01*
X237462500Y-102150000D02*
X232362500Y-102150000D01*
X235562500Y-95950000D02*
G75*
G02*
X233562500Y-97950000I-1999999J-1D01*
G01*
X239462500Y-100150000D02*
G75*
G02*
X237462500Y-102150000I-1999999J-1D01*
G01*
%TO.C,S7*%
X152600000Y-40800000D02*
X147500000Y-40800000D01*
X156500000Y-45000000D02*
X151400000Y-45000000D01*
X154600000Y-38800000D02*
G75*
G02*
X152600000Y-40800000I-1999999J-1D01*
G01*
X158500000Y-43000000D02*
G75*
G02*
X156500000Y-45000000I-1999999J-1D01*
G01*
%TO.C,S41*%
X293093750Y-78900000D02*
X287993750Y-78900000D01*
X296993750Y-83100000D02*
X291893750Y-83100000D01*
X295093750Y-76900000D02*
G75*
G02*
X293093750Y-78900000I-1999999J-1D01*
G01*
X298993750Y-81100000D02*
G75*
G02*
X296993750Y-83100000I-1999999J-1D01*
G01*
%TO.C,S49*%
X176412500Y-97950000D02*
X171312500Y-97950000D01*
X180312500Y-102150000D02*
X175212500Y-102150000D01*
X178412500Y-95950000D02*
G75*
G02*
X176412500Y-97950000I-1999999J-1D01*
G01*
X182312500Y-100150000D02*
G75*
G02*
X180312500Y-102150000I-1999999J-1D01*
G01*
%TO.C,S44*%
X81162500Y-97950000D02*
X76062500Y-97950000D01*
X85062500Y-102150000D02*
X79962500Y-102150000D01*
X83162500Y-95950000D02*
G75*
G02*
X81162500Y-97950000I-1999999J-1D01*
G01*
X87062500Y-100150000D02*
G75*
G02*
X85062500Y-102150000I-1999999J-1D01*
G01*
%TO.C,S39*%
X243087500Y-78900000D02*
X237987500Y-78900000D01*
X246987500Y-83100000D02*
X241887500Y-83100000D01*
X245087500Y-76900000D02*
G75*
G02*
X243087500Y-78900000I-1999999J-1D01*
G01*
X248987500Y-81100000D02*
G75*
G02*
X246987500Y-83100000I-1999999J-1D01*
G01*
%TO.C,S40*%
X262137500Y-78900000D02*
X257037500Y-78900000D01*
X266037500Y-83100000D02*
X260937500Y-83100000D01*
X264137500Y-76900000D02*
G75*
G02*
X262137500Y-78900000I-1999999J-1D01*
G01*
X268037500Y-81100000D02*
G75*
G02*
X266037500Y-83100000I-1999999J-1D01*
G01*
%TO.C,S47*%
X138312500Y-97950000D02*
X133212500Y-97950000D01*
X142212500Y-102150000D02*
X137112500Y-102150000D01*
X140312500Y-95950000D02*
G75*
G02*
X138312500Y-97950000I-1999999J-1D01*
G01*
X144212500Y-100150000D02*
G75*
G02*
X142212500Y-102150000I-1999999J-1D01*
G01*
%TO.C,D21*%
X163314999Y-64800000D02*
X163314999Y-66500000D01*
X165974999Y-64800000D02*
X163314999Y-64800000D01*
X165974999Y-66500000D02*
X163314999Y-66500000D01*
%TO.C,RGB20*%
X139375000Y-50400000D02*
X138895000Y-50400000D01*
X139375000Y-49920000D01*
X139375000Y-50400000D01*
G36*
X139375000Y-50400000D02*
G01*
X138895000Y-50400000D01*
X139375000Y-49920000D01*
X139375000Y-50400000D01*
G37*
%TO.C,C13*%
X124717164Y-117915000D02*
X124932836Y-117915000D01*
X124717164Y-118635000D02*
X124932836Y-118635000D01*
%TO.C,C3*%
X133377500Y-117957836D02*
X133377500Y-117742164D01*
X134097500Y-117957836D02*
X134097500Y-117742164D01*
%TO.C,D46*%
X120475000Y-102585000D02*
X120475000Y-104285000D01*
X123135000Y-102585000D02*
X120475000Y-102585000D01*
X123135000Y-104285000D02*
X120475000Y-104285000D01*
%TO.C,D55*%
X49375000Y-115435000D02*
X49375000Y-112775000D01*
X51075000Y-112775000D02*
X49375000Y-112775000D01*
X51075000Y-115435000D02*
X51075000Y-112775000D01*
%TO.C,RGB58*%
X156043750Y-107550000D02*
X155563750Y-107550000D01*
X156043750Y-107070000D01*
X156043750Y-107550000D01*
G36*
X156043750Y-107550000D02*
G01*
X155563750Y-107550000D01*
X156043750Y-107070000D01*
X156043750Y-107550000D01*
G37*
%TO.C,RGB14*%
X291775000Y-31350000D02*
X291295000Y-31350000D01*
X291775000Y-30870000D01*
X291775000Y-31350000D01*
G36*
X291775000Y-31350000D02*
G01*
X291295000Y-31350000D01*
X291775000Y-30870000D01*
X291775000Y-31350000D01*
G37*
%TO.C,C8*%
X120267164Y-115640000D02*
X120482836Y-115640000D01*
X120267164Y-116360000D02*
X120482836Y-116360000D01*
%TO.C,C18*%
X115957836Y-112265000D02*
X115742164Y-112265000D01*
X115957836Y-112985000D02*
X115742164Y-112985000D01*
%TO.C,U1*%
X113487500Y-108215000D02*
X114287500Y-108215000D01*
X113487500Y-111335000D02*
X114287500Y-111335000D01*
X115087500Y-108215000D02*
X114287500Y-108215000D01*
X115087500Y-111335000D02*
X114287500Y-111335000D01*
X115587500Y-108265000D02*
X115347500Y-107935000D01*
X115827500Y-107935000D01*
X115587500Y-108265000D01*
G36*
X115587500Y-108265000D02*
G01*
X115347500Y-107935000D01*
X115827500Y-107935000D01*
X115587500Y-108265000D01*
G37*
%TO.C,RGB55*%
X36981250Y-107550000D02*
X36501250Y-107550000D01*
X36981250Y-107070000D01*
X36981250Y-107550000D01*
G36*
X36981250Y-107550000D02*
G01*
X36501250Y-107550000D01*
X36981250Y-107070000D01*
X36981250Y-107550000D01*
G37*
%TO.C,D7*%
X153789999Y-45750000D02*
X153789999Y-47450000D01*
X156449999Y-45750000D02*
X153789999Y-45750000D01*
X156449999Y-47450000D02*
X153789999Y-47450000D01*
%TO.C,U3*%
X125290000Y-110090000D02*
X125290000Y-110440000D01*
X125290000Y-117010000D02*
X125290000Y-116360000D01*
X125530000Y-109790000D02*
X125940000Y-109790000D01*
X125940000Y-117010000D02*
X125290000Y-117010000D01*
X131860000Y-109790000D02*
X132510000Y-109790000D01*
X131860000Y-117010000D02*
X132510000Y-117010000D01*
X132510000Y-109790000D02*
X132510000Y-110440000D01*
X132510000Y-117010000D02*
X132510000Y-116360000D01*
X125290000Y-109790000D02*
X124960000Y-110030000D01*
X124960000Y-109550000D01*
X125290000Y-109790000D01*
G36*
X125290000Y-109790000D02*
G01*
X124960000Y-110030000D01*
X124960000Y-109550000D01*
X125290000Y-109790000D01*
G37*
%TO.C,D15*%
X44252499Y-64800000D02*
X44252499Y-66500000D01*
X46912499Y-64800000D02*
X44252499Y-64800000D01*
X46912499Y-66500000D02*
X44252499Y-66500000D01*
%TO.C,RGB57*%
X84606250Y-107550000D02*
X84126250Y-107550000D01*
X84606250Y-107070000D01*
X84606250Y-107550000D01*
G36*
X84606250Y-107550000D02*
G01*
X84126250Y-107550000D01*
X84606250Y-107070000D01*
X84606250Y-107550000D01*
G37*
%TO.C,RGB38*%
X220337500Y-69450000D02*
X219857500Y-69450000D01*
X220337500Y-68970000D01*
X220337500Y-69450000D01*
G36*
X220337500Y-69450000D02*
G01*
X219857500Y-69450000D01*
X220337500Y-68970000D01*
X220337500Y-69450000D01*
G37*
%TO.C,RGB37*%
X201287500Y-69450000D02*
X200807500Y-69450000D01*
X201287500Y-68970000D01*
X201287500Y-69450000D01*
G36*
X201287500Y-69450000D02*
G01*
X200807500Y-69450000D01*
X201287500Y-68970000D01*
X201287500Y-69450000D01*
G37*
%TO.C,D43*%
X63302499Y-102900000D02*
X63302499Y-104600000D01*
X65962499Y-102900000D02*
X63302499Y-102900000D01*
X65962499Y-104600000D02*
X63302499Y-104600000D01*
%TO.C,D22*%
X182364999Y-64800000D02*
X182364999Y-66500000D01*
X185024999Y-64800000D02*
X182364999Y-64800000D01*
X185024999Y-66500000D02*
X182364999Y-66500000D01*
%TO.C,D44*%
X82352499Y-102900000D02*
X82352499Y-104600000D01*
X85012499Y-102900000D02*
X82352499Y-102900000D01*
X85012499Y-104600000D02*
X82352499Y-104600000D01*
%TO.C,R5*%
X136641141Y-115220000D02*
X136333859Y-115220000D01*
X136641141Y-115980000D02*
X136333859Y-115980000D01*
%TO.C,RGB52*%
X229862500Y-88500000D02*
X229382500Y-88500000D01*
X229862500Y-88020000D01*
X229862500Y-88500000D01*
G36*
X229862500Y-88500000D02*
G01*
X229382500Y-88500000D01*
X229862500Y-88020000D01*
X229862500Y-88500000D01*
G37*
%TO.C,R7*%
X50038641Y-37195000D02*
X49731359Y-37195000D01*
X50038641Y-37955000D02*
X49731359Y-37955000D01*
%TO.C,D58*%
X169125000Y-117115000D02*
X169125000Y-119775000D01*
X169125000Y-119775000D02*
X170825000Y-119775000D01*
X170825000Y-117115000D02*
X170825000Y-119775000D01*
%TO.C,D20*%
X144264999Y-64800000D02*
X144264999Y-66500000D01*
X146924999Y-64800000D02*
X144264999Y-64800000D01*
X146924999Y-66500000D02*
X144264999Y-66500000D01*
%TO.C,RGB3*%
X72700000Y-31350000D02*
X72220000Y-31350000D01*
X72700000Y-30870000D01*
X72700000Y-31350000D01*
G36*
X72700000Y-31350000D02*
G01*
X72220000Y-31350000D01*
X72700000Y-30870000D01*
X72700000Y-31350000D01*
G37*
%TO.C,RGB60*%
X251293750Y-107550000D02*
X250813750Y-107550000D01*
X251293750Y-107070000D01*
X251293750Y-107550000D01*
G36*
X251293750Y-107550000D02*
G01*
X250813750Y-107550000D01*
X251293750Y-107070000D01*
X251293750Y-107550000D01*
G37*
%TO.C,RGB5*%
X110800000Y-31350000D02*
X110320000Y-31350000D01*
X110800000Y-30870000D01*
X110800000Y-31350000D01*
G36*
X110800000Y-31350000D02*
G01*
X110320000Y-31350000D01*
X110800000Y-30870000D01*
X110800000Y-31350000D01*
G37*
%TO.C,RGB16*%
X63175000Y-50400000D02*
X62695000Y-50400000D01*
X63175000Y-49920000D01*
X63175000Y-50400000D01*
G36*
X63175000Y-50400000D02*
G01*
X62695000Y-50400000D01*
X63175000Y-49920000D01*
X63175000Y-50400000D01*
G37*
%TO.C,D19*%
X125214999Y-64800000D02*
X125214999Y-66500000D01*
X127874999Y-64800000D02*
X125214999Y-64800000D01*
X127874999Y-66500000D02*
X125214999Y-66500000D01*
%TO.C,C16*%
X117979664Y-113240000D02*
X118195336Y-113240000D01*
X117979664Y-113960000D02*
X118195336Y-113960000D01*
%TO.C,D4*%
X96639999Y-45750000D02*
X96639999Y-47450000D01*
X99299999Y-45750000D02*
X96639999Y-45750000D01*
X99299999Y-47450000D02*
X96639999Y-47450000D01*
%TO.C,D13*%
X268089999Y-45750000D02*
X268089999Y-47450000D01*
X270749999Y-45750000D02*
X268089999Y-45750000D01*
X270749999Y-47450000D02*
X268089999Y-47450000D01*
%TO.C,D29*%
X46633749Y-83850000D02*
X46633749Y-85550000D01*
X49293749Y-83850000D02*
X46633749Y-83850000D01*
X49293749Y-85550000D02*
X46633749Y-85550000D01*
%TO.C,RGB24*%
X215575000Y-50400000D02*
X215095000Y-50400000D01*
X215575000Y-49920000D01*
X215575000Y-50400000D01*
G36*
X215575000Y-50400000D02*
G01*
X215095000Y-50400000D01*
X215575000Y-49920000D01*
X215575000Y-50400000D01*
G37*
%TO.C,D11*%
X229989999Y-45750000D02*
X229989999Y-47450000D01*
X232649999Y-45750000D02*
X229989999Y-45750000D01*
X232649999Y-47450000D02*
X229989999Y-47450000D01*
%TO.C,C5*%
X120945336Y-108640000D02*
X120729664Y-108640000D01*
X120945336Y-109360000D02*
X120729664Y-109360000D01*
%TO.C,RGB18*%
X101275000Y-50400000D02*
X100795000Y-50400000D01*
X101275000Y-49920000D01*
X101275000Y-50400000D01*
G36*
X101275000Y-50400000D02*
G01*
X100795000Y-50400000D01*
X101275000Y-49920000D01*
X101275000Y-50400000D01*
G37*
%TO.C,RGB27*%
X272725000Y-50400000D02*
X272245000Y-50400000D01*
X272725000Y-49920000D01*
X272725000Y-50400000D01*
G36*
X272725000Y-50400000D02*
G01*
X272245000Y-50400000D01*
X272725000Y-49920000D01*
X272725000Y-50400000D01*
G37*
%TO.C,RGB34*%
X144137500Y-69450000D02*
X143657500Y-69450000D01*
X144137500Y-68970000D01*
X144137500Y-69450000D01*
G36*
X144137500Y-69450000D02*
G01*
X143657500Y-69450000D01*
X144137500Y-68970000D01*
X144137500Y-69450000D01*
G37*
%TO.C,RGB47*%
X134612500Y-88500000D02*
X134132500Y-88500000D01*
X134612500Y-88020000D01*
X134612500Y-88500000D01*
G36*
X134612500Y-88500000D02*
G01*
X134132500Y-88500000D01*
X134612500Y-88020000D01*
X134612500Y-88500000D01*
G37*
%TO.C,C9*%
X130695336Y-117890000D02*
X130479664Y-117890000D01*
X130695336Y-118610000D02*
X130479664Y-118610000D01*
%TO.C,D2*%
X58539999Y-45750000D02*
X58539999Y-47450000D01*
X61199999Y-45750000D02*
X58539999Y-45750000D01*
X61199999Y-47450000D02*
X58539999Y-47450000D01*
%TO.C,RGB29*%
X41743750Y-69450000D02*
X41263750Y-69450000D01*
X41743750Y-68970000D01*
X41743750Y-69450000D01*
G36*
X41743750Y-69450000D02*
G01*
X41263750Y-69450000D01*
X41743750Y-68970000D01*
X41743750Y-69450000D01*
G37*
%TO.C,RGB7*%
X148900000Y-31350000D02*
X148420000Y-31350000D01*
X148900000Y-30870000D01*
X148900000Y-31350000D01*
G36*
X148900000Y-31350000D02*
G01*
X148420000Y-31350000D01*
X148900000Y-30870000D01*
X148900000Y-31350000D01*
G37*
%TO.C,D34*%
X149027499Y-83850000D02*
X149027499Y-85550000D01*
X151687499Y-83850000D02*
X149027499Y-83850000D01*
X151687499Y-85550000D02*
X149027499Y-85550000D01*
%TO.C,RGB48*%
X153662500Y-88500000D02*
X153182500Y-88500000D01*
X153662500Y-88020000D01*
X153662500Y-88500000D01*
G36*
X153662500Y-88500000D02*
G01*
X153182500Y-88500000D01*
X153662500Y-88020000D01*
X153662500Y-88500000D01*
G37*
%TO.C,D27*%
X277614999Y-64800000D02*
X277614999Y-66500000D01*
X280274999Y-64800000D02*
X277614999Y-64800000D01*
X280274999Y-66500000D02*
X277614999Y-66500000D01*
%TO.C,RGB4*%
X91750000Y-31350000D02*
X91270000Y-31350000D01*
X91750000Y-30870000D01*
X91750000Y-31350000D01*
G36*
X91750000Y-31350000D02*
G01*
X91270000Y-31350000D01*
X91750000Y-30870000D01*
X91750000Y-31350000D01*
G37*
%TO.C,RGB17*%
X82225000Y-50400000D02*
X81745000Y-50400000D01*
X82225000Y-49920000D01*
X82225000Y-50400000D01*
G36*
X82225000Y-50400000D02*
G01*
X81745000Y-50400000D01*
X82225000Y-49920000D01*
X82225000Y-50400000D01*
G37*
%TO.C,RGB9*%
X187000000Y-31350000D02*
X186520000Y-31350000D01*
X187000000Y-30870000D01*
X187000000Y-31350000D01*
G36*
X187000000Y-31350000D02*
G01*
X186520000Y-31350000D01*
X187000000Y-30870000D01*
X187000000Y-31350000D01*
G37*
%TO.C,RGB59*%
X227481250Y-107550000D02*
X227001250Y-107550000D01*
X227481250Y-107070000D01*
X227481250Y-107550000D01*
G36*
X227481250Y-107550000D02*
G01*
X227001250Y-107550000D01*
X227481250Y-107070000D01*
X227481250Y-107550000D01*
G37*
%TO.C,R3*%
X122798641Y-113905000D02*
X122491359Y-113905000D01*
X122798641Y-114665000D02*
X122491359Y-114665000D01*
%TO.C,D18*%
X106164999Y-64800000D02*
X106164999Y-66500000D01*
X108824999Y-64800000D02*
X106164999Y-64800000D01*
X108824999Y-66500000D02*
X106164999Y-66500000D01*
%TO.C,D30*%
X72827499Y-83850000D02*
X72827499Y-85550000D01*
X75487499Y-83850000D02*
X72827499Y-83850000D01*
X75487499Y-85550000D02*
X72827499Y-85550000D01*
%TO.C,D57*%
X97315000Y-115087500D02*
X97315000Y-112427500D01*
X99015000Y-112427500D02*
X97315000Y-112427500D01*
X99015000Y-115087500D02*
X99015000Y-112427500D01*
%TO.C,D45*%
X101402499Y-102900000D02*
X101402499Y-104600000D01*
X104062499Y-102900000D02*
X101402499Y-102900000D01*
X104062499Y-104600000D02*
X101402499Y-104600000D01*
%TO.C,RGB35*%
X163187500Y-69450000D02*
X162707500Y-69450000D01*
X163187500Y-68970000D01*
X163187500Y-69450000D01*
G36*
X163187500Y-69450000D02*
G01*
X162707500Y-69450000D01*
X163187500Y-68970000D01*
X163187500Y-69450000D01*
G37*
%TO.C,C14*%
X124979664Y-108390000D02*
X125195336Y-108390000D01*
X124979664Y-109110000D02*
X125195336Y-109110000D01*
%TO.C,C10*%
X122542164Y-116315000D02*
X122757836Y-116315000D01*
X122542164Y-117035000D02*
X122757836Y-117035000D01*
%TO.C,D31*%
X91877499Y-83850000D02*
X91877499Y-85550000D01*
X94537499Y-83850000D02*
X91877499Y-83850000D01*
X94537499Y-85550000D02*
X91877499Y-85550000D01*
%TO.C,D61*%
X288205000Y-116942500D02*
X288205000Y-119602500D01*
X288205000Y-119602500D02*
X289905000Y-119602500D01*
X289905000Y-116942500D02*
X289905000Y-119602500D01*
%TO.C,R6*%
X45711359Y-37195000D02*
X46018641Y-37195000D01*
X45711359Y-37955000D02*
X46018641Y-37955000D01*
%TO.C,D16*%
X68064999Y-64800000D02*
X68064999Y-66500000D01*
X70724999Y-64800000D02*
X68064999Y-64800000D01*
X70724999Y-66500000D02*
X68064999Y-66500000D01*
%TO.C,RGB46*%
X115562500Y-88500000D02*
X115082500Y-88500000D01*
X115562500Y-88020000D01*
X115562500Y-88500000D01*
G36*
X115562500Y-88500000D02*
G01*
X115082500Y-88500000D01*
X115562500Y-88020000D01*
X115562500Y-88500000D01*
G37*
%TO.C,D6*%
X134739999Y-45750000D02*
X134739999Y-47450000D01*
X137399999Y-45750000D02*
X134739999Y-45750000D01*
X137399999Y-47450000D02*
X134739999Y-47450000D01*
%TO.C,D48*%
X158552499Y-102900000D02*
X158552499Y-104600000D01*
X161212499Y-102900000D02*
X158552499Y-102900000D01*
X161212499Y-104600000D02*
X158552499Y-104600000D01*
%TO.C,RGB44*%
X77462500Y-88500000D02*
X76982500Y-88500000D01*
X77462500Y-88020000D01*
X77462500Y-88500000D01*
G36*
X77462500Y-88500000D02*
G01*
X76982500Y-88500000D01*
X77462500Y-88020000D01*
X77462500Y-88500000D01*
G37*
%TO.C,RGB23*%
X196525000Y-50400000D02*
X196045000Y-50400000D01*
X196525000Y-49920000D01*
X196525000Y-50400000D01*
G36*
X196525000Y-50400000D02*
G01*
X196045000Y-50400000D01*
X196525000Y-49920000D01*
X196525000Y-50400000D01*
G37*
%TO.C,RGB50*%
X191762500Y-88500000D02*
X191282500Y-88500000D01*
X191762500Y-88020000D01*
X191762500Y-88500000D01*
G36*
X191762500Y-88500000D02*
G01*
X191282500Y-88500000D01*
X191762500Y-88020000D01*
X191762500Y-88500000D01*
G37*
%TO.C,RGB33*%
X125087500Y-69450000D02*
X124607500Y-69450000D01*
X125087500Y-68970000D01*
X125087500Y-69450000D01*
G36*
X125087500Y-69450000D02*
G01*
X124607500Y-69450000D01*
X125087500Y-68970000D01*
X125087500Y-69450000D01*
G37*
%TO.C,J2*%
X117070000Y-104995000D02*
X117070000Y-107655000D01*
X117070000Y-104995000D02*
X119670000Y-104995000D01*
X117070000Y-107655000D02*
X119670000Y-107655000D01*
X119670000Y-104995000D02*
X119670000Y-107655000D01*
X122270000Y-106325000D02*
X122270000Y-107655000D01*
X122270000Y-107655000D02*
X120940000Y-107655000D01*
%TO.C,RGB26*%
X253675000Y-50400000D02*
X253195000Y-50400000D01*
X253675000Y-49920000D01*
X253675000Y-50400000D01*
G36*
X253675000Y-50400000D02*
G01*
X253195000Y-50400000D01*
X253675000Y-49920000D01*
X253675000Y-50400000D01*
G37*
%TO.C,D24*%
X220464999Y-64800000D02*
X220464999Y-66500000D01*
X223124999Y-64800000D02*
X220464999Y-64800000D01*
X223124999Y-66500000D02*
X220464999Y-66500000D01*
%TO.C,C2*%
X138877500Y-117742164D02*
X138877500Y-117957836D01*
X139597500Y-117742164D02*
X139597500Y-117957836D01*
%TO.C,D35*%
X168077499Y-83850000D02*
X168077499Y-85550000D01*
X170737499Y-83850000D02*
X168077499Y-83850000D01*
X170737499Y-85550000D02*
X168077499Y-85550000D01*
%TO.C,RGB61*%
X275106250Y-107550000D02*
X274626250Y-107550000D01*
X275106250Y-107070000D01*
X275106250Y-107550000D01*
G36*
X275106250Y-107550000D02*
G01*
X274626250Y-107550000D01*
X275106250Y-107070000D01*
X275106250Y-107550000D01*
G37*
%TO.C,D38*%
X225227499Y-83850000D02*
X225227499Y-85550000D01*
X227887499Y-83850000D02*
X225227499Y-83850000D01*
X227887499Y-85550000D02*
X225227499Y-85550000D01*
%TO.C,RGB62*%
X298918750Y-107550000D02*
X298438750Y-107550000D01*
X298918750Y-107070000D01*
X298918750Y-107550000D01*
G36*
X298918750Y-107550000D02*
G01*
X298438750Y-107550000D01*
X298918750Y-107070000D01*
X298918750Y-107550000D01*
G37*
%TO.C,RGB49*%
X172712500Y-88500000D02*
X172232500Y-88500000D01*
X172712500Y-88020000D01*
X172712500Y-88500000D01*
G36*
X172712500Y-88500000D02*
G01*
X172232500Y-88500000D01*
X172712500Y-88020000D01*
X172712500Y-88500000D01*
G37*
%TO.C,C12*%
X134227500Y-114837836D02*
X134227500Y-114622164D01*
X134947500Y-114837836D02*
X134947500Y-114622164D01*
%TO.C,RGB28*%
X296537500Y-50400000D02*
X296057500Y-50400000D01*
X296537500Y-49920000D01*
X296537500Y-50400000D01*
G36*
X296537500Y-50400000D02*
G01*
X296057500Y-50400000D01*
X296537500Y-49920000D01*
X296537500Y-50400000D01*
G37*
%TO.C,D62*%
X291275000Y-116962500D02*
X291275000Y-119622500D01*
X291275000Y-119622500D02*
X292975000Y-119622500D01*
X292975000Y-116962500D02*
X292975000Y-119622500D01*
%TO.C,RGB13*%
X263200000Y-31350000D02*
X262720000Y-31350000D01*
X263200000Y-30870000D01*
X263200000Y-31350000D01*
G36*
X263200000Y-31350000D02*
G01*
X262720000Y-31350000D01*
X263200000Y-30870000D01*
X263200000Y-31350000D01*
G37*
%TO.C,RGB12*%
X244150000Y-31350000D02*
X243670000Y-31350000D01*
X244150000Y-30870000D01*
X244150000Y-31350000D01*
G36*
X244150000Y-31350000D02*
G01*
X243670000Y-31350000D01*
X244150000Y-30870000D01*
X244150000Y-31350000D01*
G37*
%TO.C,C11*%
X122567164Y-117365000D02*
X122782836Y-117365000D01*
X122567164Y-118085000D02*
X122782836Y-118085000D01*
%TO.C,RGB54*%
X284631250Y-88500000D02*
X284151250Y-88500000D01*
X284631250Y-88020000D01*
X284631250Y-88500000D01*
G36*
X284631250Y-88500000D02*
G01*
X284151250Y-88500000D01*
X284631250Y-88020000D01*
X284631250Y-88500000D01*
G37*
%TO.C,RGB41*%
X289393750Y-69450000D02*
X288913750Y-69450000D01*
X289393750Y-68970000D01*
X289393750Y-69450000D01*
G36*
X289393750Y-69450000D02*
G01*
X288913750Y-69450000D01*
X289393750Y-68970000D01*
X289393750Y-69450000D01*
G37*
%TO.C,RGB2*%
X53650000Y-31350000D02*
X53170000Y-31350000D01*
X53650000Y-30870000D01*
X53650000Y-31350000D01*
G36*
X53650000Y-31350000D02*
G01*
X53170000Y-31350000D01*
X53650000Y-30870000D01*
X53650000Y-31350000D01*
G37*
%TO.C,RGB43*%
X58412500Y-88500000D02*
X57932500Y-88500000D01*
X58412500Y-88020000D01*
X58412500Y-88500000D01*
G36*
X58412500Y-88500000D02*
G01*
X57932500Y-88500000D01*
X58412500Y-88020000D01*
X58412500Y-88500000D01*
G37*
%TO.C,RGB1*%
X34600000Y-31350000D02*
X34120000Y-31350000D01*
X34600000Y-30870000D01*
X34600000Y-31350000D01*
G36*
X34600000Y-31350000D02*
G01*
X34120000Y-31350000D01*
X34600000Y-30870000D01*
X34600000Y-31350000D01*
G37*
%TO.C,D56*%
X73615000Y-114885000D02*
X73615000Y-112225000D01*
X75315000Y-112225000D02*
X73615000Y-112225000D01*
X75315000Y-114885000D02*
X75315000Y-112225000D01*
%TO.C,C15*%
X129965000Y-106487164D02*
X129965000Y-106702836D01*
X130685000Y-106487164D02*
X130685000Y-106702836D01*
%TO.C,D49*%
X177602499Y-102900000D02*
X177602499Y-104600000D01*
X180262499Y-102900000D02*
X177602499Y-102900000D01*
X180262499Y-104600000D02*
X177602499Y-104600000D01*
%TO.C,RGB40*%
X258437500Y-69450000D02*
X257957500Y-69450000D01*
X258437500Y-68970000D01*
X258437500Y-69450000D01*
G36*
X258437500Y-69450000D02*
G01*
X257957500Y-69450000D01*
X258437500Y-68970000D01*
X258437500Y-69450000D01*
G37*
%TO.C,RGB22*%
X177475000Y-50400000D02*
X176995000Y-50400000D01*
X177475000Y-49920000D01*
X177475000Y-50400000D01*
G36*
X177475000Y-50400000D02*
G01*
X176995000Y-50400000D01*
X177475000Y-49920000D01*
X177475000Y-50400000D01*
G37*
%TO.C,D59*%
X240135000Y-117255000D02*
X240135000Y-119915000D01*
X240135000Y-119915000D02*
X241835000Y-119915000D01*
X241835000Y-117255000D02*
X241835000Y-119915000D01*
%TO.C,R4*%
X122788641Y-114985000D02*
X122481359Y-114985000D01*
X122788641Y-115745000D02*
X122481359Y-115745000D01*
%TO.C,RGB6*%
X129850000Y-31350000D02*
X129370000Y-31350000D01*
X129850000Y-30870000D01*
X129850000Y-31350000D01*
G36*
X129850000Y-31350000D02*
G01*
X129370000Y-31350000D01*
X129850000Y-30870000D01*
X129850000Y-31350000D01*
G37*
%TO.C,D54*%
X289521249Y-102900000D02*
X289521249Y-104600000D01*
X292181249Y-102900000D02*
X289521249Y-102900000D01*
X292181249Y-104600000D02*
X289521249Y-104600000D01*
%TO.C,D17*%
X87114999Y-64800000D02*
X87114999Y-66500000D01*
X89774999Y-64800000D02*
X87114999Y-64800000D01*
X89774999Y-66500000D02*
X87114999Y-66500000D01*
%TO.C,RGB53*%
X248912500Y-88500000D02*
X248432500Y-88500000D01*
X248912500Y-88020000D01*
X248912500Y-88500000D01*
G36*
X248912500Y-88500000D02*
G01*
X248432500Y-88500000D01*
X248912500Y-88020000D01*
X248912500Y-88500000D01*
G37*
%TO.C,D60*%
X264375000Y-116942500D02*
X264375000Y-119602500D01*
X264375000Y-119602500D02*
X266075000Y-119602500D01*
X266075000Y-116942500D02*
X266075000Y-119602500D01*
%TO.C,U2*%
X120637500Y-109690000D02*
X123637500Y-109690000D01*
X120637500Y-111960000D02*
X123637500Y-111960000D01*
X124467500Y-109775000D02*
X124187500Y-109775000D01*
X124187500Y-109495000D01*
X124467500Y-109775000D01*
G36*
X124467500Y-109775000D02*
G01*
X124187500Y-109775000D01*
X124187500Y-109495000D01*
X124467500Y-109775000D01*
G37*
%TO.C,RGB45*%
X96512500Y-88500000D02*
X96032500Y-88500000D01*
X96512500Y-88020000D01*
X96512500Y-88500000D01*
G36*
X96512500Y-88500000D02*
G01*
X96032500Y-88500000D01*
X96512500Y-88020000D01*
X96512500Y-88500000D01*
G37*
%TO.C,R1*%
X123182500Y-108663641D02*
X123182500Y-108356359D01*
X123942500Y-108663641D02*
X123942500Y-108356359D01*
%TO.C,J1*%
X42955000Y-34050000D02*
X42955000Y-32350000D01*
X52295000Y-34050000D02*
X52295000Y-32350000D01*
%TO.C,RGB56*%
X60793750Y-107550000D02*
X60313750Y-107550000D01*
X60793750Y-107070000D01*
X60793750Y-107550000D01*
G36*
X60793750Y-107550000D02*
G01*
X60313750Y-107550000D01*
X60793750Y-107070000D01*
X60793750Y-107550000D01*
G37*
%TO.C,RGB31*%
X86987500Y-69450000D02*
X86507500Y-69450000D01*
X86987500Y-68970000D01*
X86987500Y-69450000D01*
G36*
X86987500Y-69450000D02*
G01*
X86507500Y-69450000D01*
X86987500Y-68970000D01*
X86987500Y-69450000D01*
G37*
%TO.C,C7*%
X118477500Y-111207922D02*
X118477500Y-111423594D01*
X119197500Y-111207922D02*
X119197500Y-111423594D01*
%TO.C,D26*%
X258564999Y-64800000D02*
X258564999Y-66500000D01*
X261224999Y-64800000D02*
X258564999Y-64800000D01*
X261224999Y-66500000D02*
X258564999Y-66500000D01*
%TO.C,RGB25*%
X234625000Y-50400000D02*
X234145000Y-50400000D01*
X234625000Y-49920000D01*
X234625000Y-50400000D01*
G36*
X234625000Y-50400000D02*
G01*
X234145000Y-50400000D01*
X234625000Y-49920000D01*
X234625000Y-50400000D01*
G37*
%TO.C,D5*%
X115689999Y-45750000D02*
X115689999Y-47450000D01*
X118349999Y-45750000D02*
X115689999Y-45750000D01*
X118349999Y-47450000D02*
X115689999Y-47450000D01*
%TO.C,RGB10*%
X206050000Y-31350000D02*
X205570000Y-31350000D01*
X206050000Y-30870000D01*
X206050000Y-31350000D01*
G36*
X206050000Y-31350000D02*
G01*
X205570000Y-31350000D01*
X206050000Y-30870000D01*
X206050000Y-31350000D01*
G37*
%TO.C,D12*%
X249039999Y-45750000D02*
X249039999Y-47450000D01*
X251699999Y-45750000D02*
X249039999Y-45750000D01*
X251699999Y-47450000D02*
X249039999Y-47450000D01*
%TO.C,RGB51*%
X210812500Y-88500000D02*
X210332500Y-88500000D01*
X210812500Y-88020000D01*
X210812500Y-88500000D01*
G36*
X210812500Y-88500000D02*
G01*
X210332500Y-88500000D01*
X210812500Y-88020000D01*
X210812500Y-88500000D01*
G37*
%TO.C,D9*%
X191889999Y-45750000D02*
X191889999Y-47450000D01*
X194549999Y-45750000D02*
X191889999Y-45750000D01*
X194549999Y-47450000D02*
X191889999Y-47450000D01*
%TO.C,RGB8*%
X167950000Y-31350000D02*
X167470000Y-31350000D01*
X167950000Y-30870000D01*
X167950000Y-31350000D01*
G36*
X167950000Y-31350000D02*
G01*
X167470000Y-31350000D01*
X167950000Y-30870000D01*
X167950000Y-31350000D01*
G37*
%TO.C,D25*%
X239514999Y-64800000D02*
X239514999Y-66500000D01*
X242174999Y-64800000D02*
X239514999Y-64800000D01*
X242174999Y-66500000D02*
X239514999Y-66500000D01*
%TO.C,C6*%
X133227500Y-114837836D02*
X133227500Y-114622164D01*
X133947500Y-114837836D02*
X133947500Y-114622164D01*
%TO.C,D53*%
X253802499Y-102900000D02*
X253802499Y-104600000D01*
X256462499Y-102900000D02*
X253802499Y-102900000D01*
X256462499Y-104600000D02*
X253802499Y-104600000D01*
%TO.C,D23*%
X201414999Y-64800000D02*
X201414999Y-66500000D01*
X204074999Y-64800000D02*
X201414999Y-64800000D01*
X204074999Y-66500000D02*
X201414999Y-66500000D01*
%TO.C,D28*%
X301427499Y-64800000D02*
X301427499Y-66500000D01*
X304087499Y-64800000D02*
X301427499Y-64800000D01*
X304087499Y-66500000D02*
X301427499Y-66500000D01*
%TO.C,Y1*%
X134487500Y-116200000D02*
X134487500Y-119500000D01*
X138487500Y-116200000D02*
X134487500Y-116200000D01*
%TO.C,RGB15*%
X39362500Y-50400000D02*
X38882500Y-50400000D01*
X39362500Y-49920000D01*
X39362500Y-50400000D01*
G36*
X39362500Y-50400000D02*
G01*
X38882500Y-50400000D01*
X39362500Y-49920000D01*
X39362500Y-50400000D01*
G37*
%TO.C,RGB11*%
X225100000Y-31350000D02*
X224620000Y-31350000D01*
X225100000Y-30870000D01*
X225100000Y-31350000D01*
G36*
X225100000Y-31350000D02*
G01*
X224620000Y-31350000D01*
X225100000Y-30870000D01*
X225100000Y-31350000D01*
G37*
%TO.C,D32*%
X110927499Y-83850000D02*
X110927499Y-85550000D01*
X113587499Y-83850000D02*
X110927499Y-83850000D01*
X113587499Y-85550000D02*
X110927499Y-85550000D01*
%TO.C,RGB32*%
X106037500Y-69450000D02*
X105557500Y-69450000D01*
X106037500Y-68970000D01*
X106037500Y-69450000D01*
G36*
X106037500Y-69450000D02*
G01*
X105557500Y-69450000D01*
X106037500Y-68970000D01*
X106037500Y-69450000D01*
G37*
%TO.C,D3*%
X77589999Y-45750000D02*
X77589999Y-47450000D01*
X80249999Y-45750000D02*
X77589999Y-45750000D01*
X80249999Y-47450000D02*
X77589999Y-47450000D01*
%TO.C,RGB19*%
X120325000Y-50400000D02*
X119845000Y-50400000D01*
X120325000Y-49920000D01*
X120325000Y-50400000D01*
G36*
X120325000Y-50400000D02*
G01*
X119845000Y-50400000D01*
X120325000Y-49920000D01*
X120325000Y-50400000D01*
G37*
%TO.C,D42*%
X41871249Y-102900000D02*
X41871249Y-104600000D01*
X44531249Y-102900000D02*
X41871249Y-102900000D01*
X44531249Y-104600000D02*
X41871249Y-104600000D01*
%TO.C,D36*%
X187127499Y-83850000D02*
X187127499Y-85550000D01*
X189787499Y-83850000D02*
X187127499Y-83850000D01*
X189787499Y-85550000D02*
X187127499Y-85550000D01*
%TO.C,D33*%
X129977499Y-83850000D02*
X129977499Y-85550000D01*
X132637499Y-83850000D02*
X129977499Y-83850000D01*
X132637499Y-85550000D02*
X129977499Y-85550000D01*
%TO.C,RGB30*%
X67937500Y-69450000D02*
X67457500Y-69450000D01*
X67937500Y-68970000D01*
X67937500Y-69450000D01*
G36*
X67937500Y-69450000D02*
G01*
X67457500Y-69450000D01*
X67937500Y-68970000D01*
X67937500Y-69450000D01*
G37*
%TO.C,D10*%
X210939999Y-45750000D02*
X210939999Y-47450000D01*
X213599999Y-45750000D02*
X210939999Y-45750000D01*
X213599999Y-47450000D02*
X210939999Y-47450000D01*
%TO.C,RGB42*%
X36981250Y-88500000D02*
X36501250Y-88500000D01*
X36981250Y-88020000D01*
X36981250Y-88500000D01*
G36*
X36981250Y-88500000D02*
G01*
X36501250Y-88500000D01*
X36981250Y-88020000D01*
X36981250Y-88500000D01*
G37*
%TO.C,D1*%
X39489999Y-45750000D02*
X39489999Y-47450000D01*
X42149999Y-45750000D02*
X39489999Y-45750000D01*
X42149999Y-47450000D02*
X39489999Y-47450000D01*
%TO.C,RGB39*%
X239387500Y-69450000D02*
X238907500Y-69450000D01*
X239387500Y-68970000D01*
X239387500Y-69450000D01*
G36*
X239387500Y-69450000D02*
G01*
X238907500Y-69450000D01*
X239387500Y-68970000D01*
X239387500Y-69450000D01*
G37*
%TO.C,D39*%
X244277499Y-83850000D02*
X244277499Y-85550000D01*
X246937499Y-83850000D02*
X244277499Y-83850000D01*
X246937499Y-85550000D02*
X244277499Y-85550000D01*
%TO.C,D14*%
X296664999Y-45750000D02*
X296664999Y-47450000D01*
X299324999Y-45750000D02*
X296664999Y-45750000D01*
X299324999Y-47450000D02*
X296664999Y-47450000D01*
%TO.C,D51*%
X215702499Y-102900000D02*
X215702499Y-104600000D01*
X218362499Y-102900000D02*
X215702499Y-102900000D01*
X218362499Y-104600000D02*
X215702499Y-104600000D01*
%TO.C,D41*%
X294283749Y-83850000D02*
X294283749Y-85550000D01*
X296943749Y-83850000D02*
X294283749Y-83850000D01*
X296943749Y-85550000D02*
X294283749Y-85550000D01*
%TO.C,RGB21*%
X158425000Y-50400000D02*
X157945000Y-50400000D01*
X158425000Y-49920000D01*
X158425000Y-50400000D01*
G36*
X158425000Y-50400000D02*
G01*
X157945000Y-50400000D01*
X158425000Y-49920000D01*
X158425000Y-50400000D01*
G37*
%TO.C,D47*%
X139502499Y-102900000D02*
X139502499Y-104600000D01*
X142162499Y-102900000D02*
X139502499Y-102900000D01*
X142162499Y-104600000D02*
X139502499Y-104600000D01*
%TO.C,D40*%
X263327499Y-83850000D02*
X263327499Y-85550000D01*
X265987499Y-83850000D02*
X263327499Y-83850000D01*
X265987499Y-85550000D02*
X263327499Y-85550000D01*
%TO.C,D37*%
X206177499Y-83850000D02*
X206177499Y-85550000D01*
X208837499Y-83850000D02*
X206177499Y-83850000D01*
X208837499Y-85550000D02*
X206177499Y-85550000D01*
%TO.C,D52*%
X234752499Y-102900000D02*
X234752499Y-104600000D01*
X237412499Y-102900000D02*
X234752499Y-102900000D01*
X237412499Y-104600000D02*
X234752499Y-104600000D01*
%TO.C,D50*%
X196652499Y-102900000D02*
X196652499Y-104600000D01*
X199312499Y-102900000D02*
X196652499Y-102900000D01*
X199312499Y-104600000D02*
X196652499Y-104600000D01*
%TO.C,RGB36*%
X182237500Y-69450000D02*
X181757500Y-69450000D01*
X182237500Y-68970000D01*
X182237500Y-69450000D01*
G36*
X182237500Y-69450000D02*
G01*
X181757500Y-69450000D01*
X182237500Y-68970000D01*
X182237500Y-69450000D01*
G37*
%TO.C,C17*%
X114477836Y-107065000D02*
X114262164Y-107065000D01*
X114477836Y-107785000D02*
X114262164Y-107785000D01*
%TO.C,D8*%
X172839999Y-45750000D02*
X172839999Y-47450000D01*
X175499999Y-45750000D02*
X172839999Y-45750000D01*
X175499999Y-47450000D02*
X172839999Y-47450000D01*
%TD*%
M02*
