%TF.GenerationSoftware,KiCad,Pcbnew,8.0.7*%
%TF.CreationDate,2024-12-19T21:55:52+08:00*%
%TF.ProjectId,PH60_Rev2,50483630-5f52-4657-9632-2e6b69636164,rev?*%
%TF.SameCoordinates,PX1b40518PY1b40518*%
%TF.FileFunction,Drillmap*%
%TF.FilePolarity,Positive*%
%FSLAX45Y45*%
G04 Gerber Fmt 4.5, Leading zero omitted, Abs format (unit mm)*
G04 Created by KiCad (PCBNEW 8.0.7) date 2024-12-19 21:55:52*
%MOMM*%
%LPD*%
G01*
G04 APERTURE LIST*
%ADD10C,0.050000*%
%ADD11C,0.200000*%
%ADD12C,0.100000*%
%ADD13C,0.305000*%
G04 APERTURE END LIST*
D10*
X28337500Y-9492500D02*
X237500Y-9492500D01*
X37500Y-232500D02*
G75*
G02*
X237500Y-32500I200000J0D01*
G01*
X237500Y-9492500D02*
G75*
G02*
X37500Y-9292500I0J200000D01*
G01*
X28337500Y-32500D02*
G75*
G02*
X28537500Y-232500I0J-200000D01*
G01*
X237500Y-32500D02*
X28337500Y-32500D01*
X28537500Y-232500D02*
X28537500Y-9292500D01*
X37500Y-9292500D02*
X37500Y-232500D01*
X28537500Y-9292500D02*
G75*
G02*
X28337500Y-9492500I-200000J0D01*
G01*
D11*
D12*
X2003969Y-470500D02*
X2033969Y-500500D01*
X2033969Y-470500D02*
X2003969Y-500500D01*
X6454948Y-1925052D02*
X6484948Y-1955052D01*
X6484948Y-1925052D02*
X6454948Y-1955052D01*
X6515052Y-1864948D02*
X6545052Y-1894948D01*
X6545052Y-1864948D02*
X6515052Y-1894948D01*
X7377448Y-7705052D02*
X7407448Y-7735052D01*
X7407448Y-7705052D02*
X7377448Y-7735052D01*
X7437552Y-7644948D02*
X7467552Y-7674948D01*
X7467552Y-7644948D02*
X7437552Y-7674948D01*
X7837485Y-7200500D02*
X7867485Y-7230500D01*
X7867485Y-7200500D02*
X7837485Y-7230500D01*
X9435000Y-8150000D02*
X9465000Y-8180000D01*
X9465000Y-8150000D02*
X9435000Y-8180000D01*
X9924500Y-8387500D02*
X9954500Y-8417500D01*
X9954500Y-8387500D02*
X9924500Y-8417500D01*
X9924500Y-8487500D02*
X9954500Y-8517500D01*
X9954500Y-8487500D02*
X9924500Y-8517500D01*
X9924500Y-8787500D02*
X9954500Y-8817500D01*
X9954500Y-8787500D02*
X9924500Y-8817500D01*
X9924500Y-8887500D02*
X9954500Y-8917500D01*
X9954500Y-8887500D02*
X9924500Y-8917500D01*
X9925000Y-7945000D02*
X9955000Y-7975000D01*
X9955000Y-7945000D02*
X9925000Y-7975000D01*
X10120500Y-8983500D02*
X10150500Y-9013500D01*
X10150500Y-8983500D02*
X10120500Y-9013500D01*
X10188559Y-7901059D02*
X10218559Y-7931059D01*
X10218559Y-7901059D02*
X10188559Y-7931059D01*
X10217500Y-7737500D02*
X10247500Y-7767500D01*
X10247500Y-7737500D02*
X10217500Y-7767500D01*
X10235000Y-8527500D02*
X10265000Y-8557500D01*
X10265000Y-8527500D02*
X10235000Y-8557500D01*
X10297500Y-7737500D02*
X10327500Y-7767500D01*
X10327500Y-7737500D02*
X10297500Y-7767500D01*
X10377500Y-7737500D02*
X10407500Y-7767500D01*
X10407500Y-7737500D02*
X10377500Y-7767500D01*
X10457500Y-7737500D02*
X10487500Y-7767500D01*
X10487500Y-7737500D02*
X10457500Y-7767500D01*
X10497864Y-8237500D02*
X10527864Y-8267500D01*
X10527864Y-8237500D02*
X10497864Y-8267500D01*
X10497864Y-8737500D02*
X10527864Y-8767500D01*
X10527864Y-8737500D02*
X10497864Y-8767500D01*
X10537500Y-7737500D02*
X10567500Y-7767500D01*
X10567500Y-7737500D02*
X10537500Y-7767500D01*
X10617500Y-7737500D02*
X10647500Y-7767500D01*
X10647500Y-7737500D02*
X10617500Y-7767500D01*
X10621500Y-8983500D02*
X10651500Y-9013500D01*
X10651500Y-8983500D02*
X10621500Y-9013500D01*
X10697500Y-7737500D02*
X10727500Y-7767500D01*
X10727500Y-7737500D02*
X10697500Y-7767500D01*
X10717500Y-8487500D02*
X10747500Y-8517500D01*
X10747500Y-8487500D02*
X10717500Y-8517500D01*
X10777500Y-7737500D02*
X10807500Y-7767500D01*
X10807500Y-7737500D02*
X10777500Y-7767500D01*
X10858500Y-7741353D02*
X10888500Y-7771353D01*
X10888500Y-7741353D02*
X10858500Y-7771353D01*
X10939500Y-7737500D02*
X10969500Y-7767500D01*
X10969500Y-7737500D02*
X10939500Y-7767500D01*
X11019500Y-7737500D02*
X11049500Y-7767500D01*
X11049500Y-7737500D02*
X11019500Y-7767500D01*
X11099500Y-7737500D02*
X11129500Y-7767500D01*
X11129500Y-7737500D02*
X11099500Y-7767500D01*
X11179500Y-7737500D02*
X11209500Y-7767500D01*
X11209500Y-7737500D02*
X11179500Y-7767500D01*
X11259500Y-7737500D02*
X11289500Y-7767500D01*
X11289500Y-7737500D02*
X11259500Y-7767500D01*
X11339500Y-7737500D02*
X11369500Y-7767500D01*
X11369500Y-7737500D02*
X11339500Y-7767500D01*
X11347966Y-8447500D02*
X11377966Y-8477500D01*
X11377966Y-8447500D02*
X11347966Y-8477500D01*
X11427500Y-8734500D02*
X11457500Y-8764500D01*
X11457500Y-8734500D02*
X11427500Y-8764500D01*
X11492545Y-8161500D02*
X11522545Y-8191500D01*
X11522545Y-8161500D02*
X11492545Y-8191500D01*
X11767113Y-8161500D02*
X11797113Y-8191500D01*
X11797113Y-8161500D02*
X11767113Y-8191500D01*
X11767113Y-8734500D02*
X11797113Y-8764500D01*
X11797113Y-8734500D02*
X11767113Y-8764500D01*
X11826557Y-8220943D02*
X11856557Y-8250943D01*
X11856557Y-8220943D02*
X11826557Y-8250943D01*
X11829557Y-8672057D02*
X11859557Y-8702057D01*
X11859557Y-8672057D02*
X11829557Y-8702057D01*
X11853499Y-7200500D02*
X11883499Y-7230500D01*
X11883499Y-7200500D02*
X11853499Y-7230500D01*
X11900807Y-8600807D02*
X11930807Y-8630807D01*
X11930807Y-8600807D02*
X11900807Y-8630807D01*
X11912500Y-8306887D02*
X11942500Y-8336887D01*
X11942500Y-8306887D02*
X11912500Y-8336887D01*
X11933500Y-7200500D02*
X11963500Y-7230500D01*
X11963500Y-7200500D02*
X11933500Y-7230500D01*
X12013500Y-7200500D02*
X12043500Y-7230500D01*
X12043500Y-7200500D02*
X12013500Y-7230500D01*
X12285000Y-5235500D02*
X12315000Y-5265500D01*
X12315000Y-5235500D02*
X12285000Y-5265500D01*
X12355000Y-1425500D02*
X12385000Y-1455500D01*
X12385000Y-1425500D02*
X12355000Y-1455500D01*
X12415250Y-3330500D02*
X12445250Y-3360500D01*
X12445250Y-3330500D02*
X12415250Y-3360500D01*
X12468045Y-7360545D02*
X12498045Y-7390545D01*
X12498045Y-7360545D02*
X12468045Y-7390545D01*
X1455500Y-142500D02*
G75*
G02*
X1395500Y-142500I-30000J0D01*
G01*
X1395500Y-142500D02*
G75*
G02*
X1455500Y-142500I30000J0D01*
G01*
X1395500Y-102500D02*
X1395500Y-182500D01*
X1455500Y-182500D02*
G75*
G02*
X1395500Y-182500I-30000J0D01*
G01*
X1455500Y-182500D02*
X1455500Y-102500D01*
X1455500Y-102500D02*
G75*
G03*
X1395500Y-102500I-30000J0D01*
G01*
X1455500Y-560500D02*
G75*
G02*
X1395500Y-560500I-30000J0D01*
G01*
X1395500Y-560500D02*
G75*
G02*
X1455500Y-560500I30000J0D01*
G01*
X1395500Y-505500D02*
X1395500Y-615500D01*
X1455500Y-615500D02*
G75*
G02*
X1395500Y-615500I-30000J0D01*
G01*
X1455500Y-615500D02*
X1455500Y-505500D01*
X1455500Y-505500D02*
G75*
G03*
X1395500Y-505500I-30000J0D01*
G01*
X2319500Y-142500D02*
G75*
G02*
X2259500Y-142500I-30000J0D01*
G01*
X2259500Y-142500D02*
G75*
G02*
X2319500Y-142500I30000J0D01*
G01*
X2259500Y-102500D02*
X2259500Y-182500D01*
X2319500Y-182500D02*
G75*
G02*
X2259500Y-182500I-30000J0D01*
G01*
X2319500Y-182500D02*
X2319500Y-102500D01*
X2319500Y-102500D02*
G75*
G03*
X2259500Y-102500I-30000J0D01*
G01*
X2319500Y-560500D02*
G75*
G02*
X2259500Y-560500I-30000J0D01*
G01*
X2259500Y-560500D02*
G75*
G02*
X2319500Y-560500I30000J0D01*
G01*
X2259500Y-505500D02*
X2259500Y-615500D01*
X2319500Y-615500D02*
G75*
G02*
X2259500Y-615500I-30000J0D01*
G01*
X2319500Y-615500D02*
X2319500Y-505500D01*
X2319500Y-505500D02*
G75*
G03*
X2259500Y-505500I-30000J0D01*
G01*
X9586000Y-7810000D02*
X9586000Y-7875000D01*
X9553500Y-7842500D02*
X9618500Y-7842500D01*
X9713000Y-7810000D02*
X9713000Y-7875000D01*
X9680500Y-7842500D02*
X9745500Y-7842500D01*
D13*
X806335Y-1568335D02*
X806335Y-1352665D01*
X590665Y-1352665D01*
X590665Y-1568335D01*
X806335Y-1568335D01*
X917460Y-4616335D02*
X917460Y-4400665D01*
X701790Y-4400665D01*
X701790Y-4616335D01*
X917460Y-4616335D01*
X917460Y-6521335D02*
X917460Y-6305665D01*
X701790Y-6305665D01*
X701790Y-6521335D01*
X917460Y-6521335D01*
X917460Y-8426335D02*
X917460Y-8210665D01*
X701790Y-8210665D01*
X701790Y-8426335D01*
X917460Y-8426335D01*
X1155585Y-2711335D02*
X1155585Y-2495665D01*
X939915Y-2495665D01*
X939915Y-2711335D01*
X1155585Y-2711335D01*
X1282585Y-9188335D02*
X1282585Y-8972665D01*
X1066915Y-8972665D01*
X1066915Y-9188335D01*
X1282585Y-9188335D01*
X1441335Y-1314335D02*
X1441335Y-1098665D01*
X1225665Y-1098665D01*
X1225665Y-1314335D01*
X1441335Y-1314335D01*
X1520710Y-5378335D02*
X1520710Y-5162665D01*
X1305040Y-5162665D01*
X1305040Y-5378335D01*
X1520710Y-5378335D01*
X1552460Y-4362335D02*
X1552460Y-4146665D01*
X1336790Y-4146665D01*
X1336790Y-4362335D01*
X1552460Y-4362335D01*
X1552460Y-6267335D02*
X1552460Y-6051665D01*
X1336790Y-6051665D01*
X1336790Y-6267335D01*
X1552460Y-6267335D01*
X1552460Y-8172335D02*
X1552460Y-7956665D01*
X1336790Y-7956665D01*
X1336790Y-8172335D01*
X1552460Y-8172335D01*
X1790585Y-2457335D02*
X1790585Y-2241665D01*
X1574915Y-2241665D01*
X1574915Y-2457335D01*
X1790585Y-2457335D01*
X1917585Y-8934335D02*
X1917585Y-8718665D01*
X1701915Y-8718665D01*
X1701915Y-8934335D01*
X1917585Y-8934335D01*
X1996960Y-7283335D02*
X1996960Y-7067665D01*
X1781290Y-7067665D01*
X1781290Y-7283335D01*
X1996960Y-7283335D01*
X2155710Y-5124335D02*
X2155710Y-4908665D01*
X1940040Y-4908665D01*
X1940040Y-5124335D01*
X2155710Y-5124335D01*
X2631960Y-7029335D02*
X2631960Y-6813665D01*
X2416290Y-6813665D01*
X2416290Y-7029335D01*
X2631960Y-7029335D01*
X2711335Y-1568335D02*
X2711335Y-1352665D01*
X2495665Y-1352665D01*
X2495665Y-1568335D01*
X2711335Y-1568335D01*
X3060585Y-6521335D02*
X3060585Y-6305665D01*
X2844915Y-6305665D01*
X2844915Y-6521335D01*
X3060585Y-6521335D01*
X3298710Y-8426335D02*
X3298710Y-8210665D01*
X3083040Y-8210665D01*
X3083040Y-8426335D01*
X3298710Y-8426335D01*
X3346335Y-1314335D02*
X3346335Y-1098665D01*
X3130665Y-1098665D01*
X3130665Y-1314335D01*
X3346335Y-1314335D01*
X3536835Y-2711335D02*
X3536835Y-2495665D01*
X3321165Y-2495665D01*
X3321165Y-2711335D01*
X3536835Y-2711335D01*
X3663835Y-9188335D02*
X3663835Y-8972665D01*
X3448165Y-8972665D01*
X3448165Y-9188335D01*
X3663835Y-9188335D01*
X3695585Y-6267335D02*
X3695585Y-6051665D01*
X3479915Y-6051665D01*
X3479915Y-6267335D01*
X3695585Y-6267335D01*
X3933710Y-8172335D02*
X3933710Y-7956665D01*
X3718040Y-7956665D01*
X3718040Y-8172335D01*
X3933710Y-8172335D01*
X4013085Y-4616335D02*
X4013085Y-4400665D01*
X3797415Y-4400665D01*
X3797415Y-4616335D01*
X4013085Y-4616335D01*
X4171835Y-2457335D02*
X4171835Y-2241665D01*
X3956165Y-2241665D01*
X3956165Y-2457335D01*
X4171835Y-2457335D01*
X4298835Y-8934335D02*
X4298835Y-8718665D01*
X4083165Y-8718665D01*
X4083165Y-8934335D01*
X4298835Y-8934335D01*
X4489335Y-806335D02*
X4489335Y-590665D01*
X4273665Y-590665D01*
X4273665Y-806335D01*
X4489335Y-806335D01*
X4648085Y-4362335D02*
X4648085Y-4146665D01*
X4432415Y-4146665D01*
X4432415Y-4362335D01*
X4648085Y-4362335D01*
X4965585Y-6521335D02*
X4965585Y-6305665D01*
X4749915Y-6305665D01*
X4749915Y-6521335D01*
X4965585Y-6521335D01*
X5124335Y-552335D02*
X5124335Y-336665D01*
X4908665Y-336665D01*
X4908665Y-552335D01*
X5124335Y-552335D01*
X5441835Y-2711335D02*
X5441835Y-2495665D01*
X5226165Y-2495665D01*
X5226165Y-2711335D01*
X5441835Y-2711335D01*
X5600585Y-6267335D02*
X5600585Y-6051665D01*
X5384915Y-6051665D01*
X5384915Y-6267335D01*
X5600585Y-6267335D01*
X5679960Y-8426335D02*
X5679960Y-8210665D01*
X5464290Y-8210665D01*
X5464290Y-8426335D01*
X5679960Y-8426335D01*
X5918085Y-4616335D02*
X5918085Y-4400665D01*
X5702415Y-4400665D01*
X5702415Y-4616335D01*
X5918085Y-4616335D01*
X6045085Y-9188335D02*
X6045085Y-8972665D01*
X5829415Y-8972665D01*
X5829415Y-9188335D01*
X6045085Y-9188335D01*
X6076835Y-2457335D02*
X6076835Y-2241665D01*
X5861165Y-2241665D01*
X5861165Y-2457335D01*
X6076835Y-2457335D01*
X6314960Y-8172335D02*
X6314960Y-7956665D01*
X6099290Y-7956665D01*
X6099290Y-8172335D01*
X6314960Y-8172335D01*
X6394335Y-806335D02*
X6394335Y-590665D01*
X6178665Y-590665D01*
X6178665Y-806335D01*
X6394335Y-806335D01*
X6553085Y-4362335D02*
X6553085Y-4146665D01*
X6337415Y-4146665D01*
X6337415Y-4362335D01*
X6553085Y-4362335D01*
X6680085Y-8934335D02*
X6680085Y-8718665D01*
X6464415Y-8718665D01*
X6464415Y-8934335D01*
X6680085Y-8934335D01*
X6870585Y-6521335D02*
X6870585Y-6305665D01*
X6654915Y-6305665D01*
X6654915Y-6521335D01*
X6870585Y-6521335D01*
X7029335Y-552335D02*
X7029335Y-336665D01*
X6813665Y-336665D01*
X6813665Y-552335D01*
X7029335Y-552335D01*
X7346835Y-2711335D02*
X7346835Y-2495665D01*
X7131165Y-2495665D01*
X7131165Y-2711335D01*
X7346835Y-2711335D01*
X7505585Y-6267335D02*
X7505585Y-6051665D01*
X7289915Y-6051665D01*
X7289915Y-6267335D01*
X7505585Y-6267335D01*
X7823085Y-4616335D02*
X7823085Y-4400665D01*
X7607415Y-4400665D01*
X7607415Y-4616335D01*
X7823085Y-4616335D01*
X7981835Y-2457335D02*
X7981835Y-2241665D01*
X7766165Y-2241665D01*
X7766165Y-2457335D01*
X7981835Y-2457335D01*
X8299335Y-806335D02*
X8299335Y-590665D01*
X8083665Y-590665D01*
X8083665Y-806335D01*
X8299335Y-806335D01*
X8458085Y-4362335D02*
X8458085Y-4146665D01*
X8242415Y-4146665D01*
X8242415Y-4362335D01*
X8458085Y-4362335D01*
X8775585Y-6521335D02*
X8775585Y-6305665D01*
X8559915Y-6305665D01*
X8559915Y-6521335D01*
X8775585Y-6521335D01*
X8934335Y-552335D02*
X8934335Y-336665D01*
X8718665Y-336665D01*
X8718665Y-552335D01*
X8934335Y-552335D01*
X9251835Y-2711335D02*
X9251835Y-2495665D01*
X9036165Y-2495665D01*
X9036165Y-2711335D01*
X9251835Y-2711335D01*
X9410585Y-6267335D02*
X9410585Y-6051665D01*
X9194915Y-6051665D01*
X9194915Y-6267335D01*
X9410585Y-6267335D01*
X9728085Y-4616335D02*
X9728085Y-4400665D01*
X9512415Y-4400665D01*
X9512415Y-4616335D01*
X9728085Y-4616335D01*
X9886835Y-2457335D02*
X9886835Y-2241665D01*
X9671165Y-2241665D01*
X9671165Y-2457335D01*
X9886835Y-2457335D01*
X10204335Y-806335D02*
X10204335Y-590665D01*
X9988665Y-590665D01*
X9988665Y-806335D01*
X10204335Y-806335D01*
X10363085Y-4362335D02*
X10363085Y-4146665D01*
X10147415Y-4146665D01*
X10147415Y-4362335D01*
X10363085Y-4362335D01*
X10680585Y-6521335D02*
X10680585Y-6305665D01*
X10464915Y-6305665D01*
X10464915Y-6521335D01*
X10680585Y-6521335D01*
X10839335Y-552335D02*
X10839335Y-336665D01*
X10623665Y-336665D01*
X10623665Y-552335D01*
X10839335Y-552335D01*
X11156835Y-2711335D02*
X11156835Y-2495665D01*
X10941165Y-2495665D01*
X10941165Y-2711335D01*
X11156835Y-2711335D01*
X11315585Y-6267335D02*
X11315585Y-6051665D01*
X11099915Y-6051665D01*
X11099915Y-6267335D01*
X11315585Y-6267335D01*
X11633085Y-4616335D02*
X11633085Y-4400665D01*
X11417415Y-4400665D01*
X11417415Y-4616335D01*
X11633085Y-4616335D01*
X11791835Y-2457335D02*
X11791835Y-2241665D01*
X11576165Y-2241665D01*
X11576165Y-2457335D01*
X11791835Y-2457335D01*
X12109335Y-806335D02*
X12109335Y-590665D01*
X11893665Y-590665D01*
X11893665Y-806335D01*
X12109335Y-806335D01*
X12268085Y-4362335D02*
X12268085Y-4146665D01*
X12052415Y-4146665D01*
X12052415Y-4362335D01*
X12268085Y-4362335D01*
X12585585Y-6521335D02*
X12585585Y-6305665D01*
X12369915Y-6305665D01*
X12369915Y-6521335D01*
X12585585Y-6521335D01*
X12744335Y-552335D02*
X12744335Y-336665D01*
X12528665Y-336665D01*
X12528665Y-552335D01*
X12744335Y-552335D01*
X12823710Y-8426335D02*
X12823710Y-8210665D01*
X12608040Y-8210665D01*
X12608040Y-8426335D01*
X12823710Y-8426335D01*
X13061835Y-2711335D02*
X13061835Y-2495665D01*
X12846165Y-2495665D01*
X12846165Y-2711335D01*
X13061835Y-2711335D01*
X13220585Y-6267335D02*
X13220585Y-6051665D01*
X13004915Y-6051665D01*
X13004915Y-6267335D01*
X13220585Y-6267335D01*
X13458710Y-8172335D02*
X13458710Y-7956665D01*
X13243040Y-7956665D01*
X13243040Y-8172335D01*
X13458710Y-8172335D01*
X13538085Y-4616335D02*
X13538085Y-4400665D01*
X13322415Y-4400665D01*
X13322415Y-4616335D01*
X13538085Y-4616335D01*
X13696835Y-2457335D02*
X13696835Y-2241665D01*
X13481165Y-2241665D01*
X13481165Y-2457335D01*
X13696835Y-2457335D01*
X14014335Y-806335D02*
X14014335Y-590665D01*
X13798665Y-590665D01*
X13798665Y-806335D01*
X14014335Y-806335D01*
X14141335Y-9188335D02*
X14141335Y-8972665D01*
X13925665Y-8972665D01*
X13925665Y-9188335D01*
X14141335Y-9188335D01*
X14173085Y-4362335D02*
X14173085Y-4146665D01*
X13957415Y-4146665D01*
X13957415Y-4362335D01*
X14173085Y-4362335D01*
X14490585Y-6521335D02*
X14490585Y-6305665D01*
X14274915Y-6305665D01*
X14274915Y-6521335D01*
X14490585Y-6521335D01*
X14649335Y-552335D02*
X14649335Y-336665D01*
X14433665Y-336665D01*
X14433665Y-552335D01*
X14649335Y-552335D01*
X14776335Y-8934335D02*
X14776335Y-8718665D01*
X14560665Y-8718665D01*
X14560665Y-8934335D01*
X14776335Y-8934335D01*
X14966835Y-2711335D02*
X14966835Y-2495665D01*
X14751165Y-2495665D01*
X14751165Y-2711335D01*
X14966835Y-2711335D01*
X15125585Y-6267335D02*
X15125585Y-6051665D01*
X14909915Y-6051665D01*
X14909915Y-6267335D01*
X15125585Y-6267335D01*
X15443085Y-4616335D02*
X15443085Y-4400665D01*
X15227415Y-4400665D01*
X15227415Y-4616335D01*
X15443085Y-4616335D01*
X15601835Y-2457335D02*
X15601835Y-2241665D01*
X15386165Y-2241665D01*
X15386165Y-2457335D01*
X15601835Y-2457335D01*
X15919335Y-806335D02*
X15919335Y-590665D01*
X15703665Y-590665D01*
X15703665Y-806335D01*
X15919335Y-806335D01*
X16078085Y-4362335D02*
X16078085Y-4146665D01*
X15862415Y-4146665D01*
X15862415Y-4362335D01*
X16078085Y-4362335D01*
X16395585Y-6521335D02*
X16395585Y-6305665D01*
X16179915Y-6305665D01*
X16179915Y-6521335D01*
X16395585Y-6521335D01*
X16554335Y-552335D02*
X16554335Y-336665D01*
X16338665Y-336665D01*
X16338665Y-552335D01*
X16554335Y-552335D01*
X16871835Y-2711335D02*
X16871835Y-2495665D01*
X16656165Y-2495665D01*
X16656165Y-2711335D01*
X16871835Y-2711335D01*
X17030585Y-6267335D02*
X17030585Y-6051665D01*
X16814915Y-6051665D01*
X16814915Y-6267335D01*
X17030585Y-6267335D01*
X17348085Y-4616335D02*
X17348085Y-4400665D01*
X17132415Y-4400665D01*
X17132415Y-4616335D01*
X17348085Y-4616335D01*
X17506835Y-2457335D02*
X17506835Y-2241665D01*
X17291165Y-2241665D01*
X17291165Y-2457335D01*
X17506835Y-2457335D01*
X17824335Y-806335D02*
X17824335Y-590665D01*
X17608665Y-590665D01*
X17608665Y-806335D01*
X17824335Y-806335D01*
X17983085Y-4362335D02*
X17983085Y-4146665D01*
X17767415Y-4146665D01*
X17767415Y-4362335D01*
X17983085Y-4362335D01*
X18300585Y-6521335D02*
X18300585Y-6305665D01*
X18084915Y-6305665D01*
X18084915Y-6521335D01*
X18300585Y-6521335D01*
X18459335Y-552335D02*
X18459335Y-336665D01*
X18243665Y-336665D01*
X18243665Y-552335D01*
X18459335Y-552335D01*
X18776835Y-2711335D02*
X18776835Y-2495665D01*
X18561165Y-2495665D01*
X18561165Y-2711335D01*
X18776835Y-2711335D01*
X18935585Y-6267335D02*
X18935585Y-6051665D01*
X18719915Y-6051665D01*
X18719915Y-6267335D01*
X18935585Y-6267335D01*
X19253085Y-4616335D02*
X19253085Y-4400665D01*
X19037415Y-4400665D01*
X19037415Y-4616335D01*
X19253085Y-4616335D01*
X19411835Y-2457335D02*
X19411835Y-2241665D01*
X19196165Y-2241665D01*
X19196165Y-2457335D01*
X19411835Y-2457335D01*
X19729335Y-806335D02*
X19729335Y-590665D01*
X19513665Y-590665D01*
X19513665Y-806335D01*
X19729335Y-806335D01*
X19888085Y-4362335D02*
X19888085Y-4146665D01*
X19672415Y-4146665D01*
X19672415Y-4362335D01*
X19888085Y-4362335D01*
X19967460Y-8426335D02*
X19967460Y-8210665D01*
X19751790Y-8210665D01*
X19751790Y-8426335D01*
X19967460Y-8426335D01*
X20205585Y-6521335D02*
X20205585Y-6305665D01*
X19989915Y-6305665D01*
X19989915Y-6521335D01*
X20205585Y-6521335D01*
X20364335Y-552335D02*
X20364335Y-336665D01*
X20148665Y-336665D01*
X20148665Y-552335D01*
X20364335Y-552335D01*
X20602460Y-8172335D02*
X20602460Y-7956665D01*
X20386790Y-7956665D01*
X20386790Y-8172335D01*
X20602460Y-8172335D01*
X20681835Y-2711335D02*
X20681835Y-2495665D01*
X20466165Y-2495665D01*
X20466165Y-2711335D01*
X20681835Y-2711335D01*
X20840585Y-6267335D02*
X20840585Y-6051665D01*
X20624915Y-6051665D01*
X20624915Y-6267335D01*
X20840585Y-6267335D01*
X21158085Y-4616335D02*
X21158085Y-4400665D01*
X20942415Y-4400665D01*
X20942415Y-4616335D01*
X21158085Y-4616335D01*
X21316835Y-2457335D02*
X21316835Y-2241665D01*
X21101165Y-2241665D01*
X21101165Y-2457335D01*
X21316835Y-2457335D01*
X21634335Y-806335D02*
X21634335Y-590665D01*
X21418665Y-590665D01*
X21418665Y-806335D01*
X21634335Y-806335D01*
X21793085Y-4362335D02*
X21793085Y-4146665D01*
X21577415Y-4146665D01*
X21577415Y-4362335D01*
X21793085Y-4362335D01*
X22110585Y-6521335D02*
X22110585Y-6305665D01*
X21894915Y-6305665D01*
X21894915Y-6521335D01*
X22110585Y-6521335D01*
X22110585Y-8426335D02*
X22110585Y-8210665D01*
X21894915Y-8210665D01*
X21894915Y-8426335D01*
X22110585Y-8426335D01*
X22269335Y-552335D02*
X22269335Y-336665D01*
X22053665Y-336665D01*
X22053665Y-552335D01*
X22269335Y-552335D01*
X22475710Y-9188335D02*
X22475710Y-8972665D01*
X22260040Y-8972665D01*
X22260040Y-9188335D01*
X22475710Y-9188335D01*
X22586835Y-2711335D02*
X22586835Y-2495665D01*
X22371165Y-2495665D01*
X22371165Y-2711335D01*
X22586835Y-2711335D01*
X22745585Y-6267335D02*
X22745585Y-6051665D01*
X22529915Y-6051665D01*
X22529915Y-6267335D01*
X22745585Y-6267335D01*
X22745585Y-8172335D02*
X22745585Y-7956665D01*
X22529915Y-7956665D01*
X22529915Y-8172335D01*
X22745585Y-8172335D01*
X23063085Y-4616335D02*
X23063085Y-4400665D01*
X22847415Y-4400665D01*
X22847415Y-4616335D01*
X23063085Y-4616335D01*
X23110710Y-8934335D02*
X23110710Y-8718665D01*
X22895040Y-8718665D01*
X22895040Y-8934335D01*
X23110710Y-8934335D01*
X23221835Y-2457335D02*
X23221835Y-2241665D01*
X23006165Y-2241665D01*
X23006165Y-2457335D01*
X23221835Y-2457335D01*
X23539335Y-806335D02*
X23539335Y-590665D01*
X23323665Y-590665D01*
X23323665Y-806335D01*
X23539335Y-806335D01*
X23698085Y-4362335D02*
X23698085Y-4146665D01*
X23482415Y-4146665D01*
X23482415Y-4362335D01*
X23698085Y-4362335D01*
X24174335Y-552335D02*
X24174335Y-336665D01*
X23958665Y-336665D01*
X23958665Y-552335D01*
X24174335Y-552335D01*
X24491835Y-2711335D02*
X24491835Y-2495665D01*
X24276165Y-2495665D01*
X24276165Y-2711335D01*
X24491835Y-2711335D01*
X24491835Y-8426335D02*
X24491835Y-8210665D01*
X24276165Y-8210665D01*
X24276165Y-8426335D01*
X24491835Y-8426335D01*
X24841085Y-4616335D02*
X24841085Y-4400665D01*
X24625415Y-4400665D01*
X24625415Y-4616335D01*
X24841085Y-4616335D01*
X24856960Y-9188335D02*
X24856960Y-8972665D01*
X24641290Y-8972665D01*
X24641290Y-9188335D01*
X24856960Y-9188335D01*
X25095085Y-5251335D02*
X25095085Y-5035665D01*
X24879415Y-5035665D01*
X24879415Y-5251335D01*
X25095085Y-5251335D01*
X25126835Y-2457335D02*
X25126835Y-2241665D01*
X24911165Y-2241665D01*
X24911165Y-2457335D01*
X25126835Y-2457335D01*
X25126835Y-8172335D02*
X25126835Y-7956665D01*
X24911165Y-7956665D01*
X24911165Y-8172335D01*
X25126835Y-8172335D01*
X25491960Y-7029335D02*
X25491960Y-6813665D01*
X25276290Y-6813665D01*
X25276290Y-7029335D01*
X25491960Y-7029335D01*
X25491960Y-8934335D02*
X25491960Y-8718665D01*
X25276290Y-8718665D01*
X25276290Y-8934335D01*
X25491960Y-8934335D01*
X25682460Y-6521335D02*
X25682460Y-6305665D01*
X25466790Y-6305665D01*
X25466790Y-6521335D01*
X25682460Y-6521335D01*
X26031710Y-4616335D02*
X26031710Y-4400665D01*
X25816040Y-4400665D01*
X25816040Y-4616335D01*
X26031710Y-4616335D01*
X26206335Y-1314335D02*
X26206335Y-1098665D01*
X25990665Y-1098665D01*
X25990665Y-1314335D01*
X26206335Y-1314335D01*
X26285710Y-5251335D02*
X26285710Y-5035665D01*
X26070040Y-5035665D01*
X26070040Y-5251335D01*
X26285710Y-5251335D01*
X26317460Y-6267335D02*
X26317460Y-6051665D01*
X26101790Y-6051665D01*
X26101790Y-6267335D01*
X26317460Y-6267335D01*
X26396835Y-806335D02*
X26396835Y-590665D01*
X26181165Y-590665D01*
X26181165Y-806335D01*
X26396835Y-806335D01*
X26873085Y-8426335D02*
X26873085Y-8210665D01*
X26657415Y-8210665D01*
X26657415Y-8426335D01*
X26873085Y-8426335D01*
X26984210Y-3663835D02*
X26984210Y-3448165D01*
X26768540Y-3448165D01*
X26768540Y-3663835D01*
X26984210Y-3663835D01*
X27031835Y-552335D02*
X27031835Y-336665D01*
X26816165Y-336665D01*
X26816165Y-552335D01*
X27031835Y-552335D01*
X27238210Y-4298835D02*
X27238210Y-4083165D01*
X27022540Y-4083165D01*
X27022540Y-4298835D01*
X27238210Y-4298835D01*
X27238210Y-9188335D02*
X27238210Y-8972665D01*
X27022540Y-8972665D01*
X27022540Y-9188335D01*
X27238210Y-9188335D01*
X27476335Y-1568335D02*
X27476335Y-1352665D01*
X27260665Y-1352665D01*
X27260665Y-1568335D01*
X27476335Y-1568335D01*
X27508085Y-2584335D02*
X27508085Y-2368665D01*
X27292415Y-2368665D01*
X27292415Y-2584335D01*
X27508085Y-2584335D01*
X27508085Y-8172335D02*
X27508085Y-7956665D01*
X27292415Y-7956665D01*
X27292415Y-8172335D01*
X27508085Y-8172335D01*
X27762085Y-3219335D02*
X27762085Y-3003665D01*
X27546415Y-3003665D01*
X27546415Y-3219335D01*
X27762085Y-3219335D01*
X27873210Y-8934335D02*
X27873210Y-8718665D01*
X27657540Y-8718665D01*
X27657540Y-8934335D01*
X27873210Y-8934335D01*
X27984335Y-6394335D02*
X27984335Y-6178665D01*
X27768665Y-6178665D01*
X27768665Y-6394335D01*
X27984335Y-6394335D01*
X28111335Y-1314335D02*
X28111335Y-1098665D01*
X27895665Y-1098665D01*
X27895665Y-1314335D01*
X28111335Y-1314335D01*
X28238335Y-7029335D02*
X28238335Y-6813665D01*
X28022665Y-6813665D01*
X28022665Y-7029335D01*
X28238335Y-7029335D01*
D11*
X295777Y-9806484D02*
X295777Y-9606484D01*
X295777Y-9606484D02*
X343396Y-9606484D01*
X343396Y-9606484D02*
X371967Y-9616008D01*
X371967Y-9616008D02*
X391015Y-9635055D01*
X391015Y-9635055D02*
X400539Y-9654103D01*
X400539Y-9654103D02*
X410062Y-9692198D01*
X410062Y-9692198D02*
X410062Y-9720770D01*
X410062Y-9720770D02*
X400539Y-9758865D01*
X400539Y-9758865D02*
X391015Y-9777912D01*
X391015Y-9777912D02*
X371967Y-9796960D01*
X371967Y-9796960D02*
X343396Y-9806484D01*
X343396Y-9806484D02*
X295777Y-9806484D01*
X495777Y-9806484D02*
X495777Y-9673150D01*
X495777Y-9711246D02*
X505301Y-9692198D01*
X505301Y-9692198D02*
X514824Y-9682674D01*
X514824Y-9682674D02*
X533872Y-9673150D01*
X533872Y-9673150D02*
X552920Y-9673150D01*
X619586Y-9806484D02*
X619586Y-9673150D01*
X619586Y-9606484D02*
X610063Y-9616008D01*
X610063Y-9616008D02*
X619586Y-9625531D01*
X619586Y-9625531D02*
X629110Y-9616008D01*
X629110Y-9616008D02*
X619586Y-9606484D01*
X619586Y-9606484D02*
X619586Y-9625531D01*
X743396Y-9806484D02*
X724348Y-9796960D01*
X724348Y-9796960D02*
X714824Y-9777912D01*
X714824Y-9777912D02*
X714824Y-9606484D01*
X848158Y-9806484D02*
X829110Y-9796960D01*
X829110Y-9796960D02*
X819586Y-9777912D01*
X819586Y-9777912D02*
X819586Y-9606484D01*
X1076729Y-9806484D02*
X1076729Y-9606484D01*
X1076729Y-9606484D02*
X1143396Y-9749341D01*
X1143396Y-9749341D02*
X1210063Y-9606484D01*
X1210063Y-9606484D02*
X1210063Y-9806484D01*
X1391015Y-9806484D02*
X1391015Y-9701722D01*
X1391015Y-9701722D02*
X1381491Y-9682674D01*
X1381491Y-9682674D02*
X1362444Y-9673150D01*
X1362444Y-9673150D02*
X1324348Y-9673150D01*
X1324348Y-9673150D02*
X1305301Y-9682674D01*
X1391015Y-9796960D02*
X1371967Y-9806484D01*
X1371967Y-9806484D02*
X1324348Y-9806484D01*
X1324348Y-9806484D02*
X1305301Y-9796960D01*
X1305301Y-9796960D02*
X1295777Y-9777912D01*
X1295777Y-9777912D02*
X1295777Y-9758865D01*
X1295777Y-9758865D02*
X1305301Y-9739817D01*
X1305301Y-9739817D02*
X1324348Y-9730293D01*
X1324348Y-9730293D02*
X1371967Y-9730293D01*
X1371967Y-9730293D02*
X1391015Y-9720770D01*
X1486253Y-9673150D02*
X1486253Y-9873150D01*
X1486253Y-9682674D02*
X1505301Y-9673150D01*
X1505301Y-9673150D02*
X1543396Y-9673150D01*
X1543396Y-9673150D02*
X1562443Y-9682674D01*
X1562443Y-9682674D02*
X1571967Y-9692198D01*
X1571967Y-9692198D02*
X1581491Y-9711246D01*
X1581491Y-9711246D02*
X1581491Y-9768389D01*
X1581491Y-9768389D02*
X1571967Y-9787436D01*
X1571967Y-9787436D02*
X1562443Y-9796960D01*
X1562443Y-9796960D02*
X1543396Y-9806484D01*
X1543396Y-9806484D02*
X1505301Y-9806484D01*
X1505301Y-9806484D02*
X1486253Y-9796960D01*
X1667205Y-9787436D02*
X1676729Y-9796960D01*
X1676729Y-9796960D02*
X1667205Y-9806484D01*
X1667205Y-9806484D02*
X1657682Y-9796960D01*
X1657682Y-9796960D02*
X1667205Y-9787436D01*
X1667205Y-9787436D02*
X1667205Y-9806484D01*
X1667205Y-9682674D02*
X1676729Y-9692198D01*
X1676729Y-9692198D02*
X1667205Y-9701722D01*
X1667205Y-9701722D02*
X1657682Y-9692198D01*
X1657682Y-9692198D02*
X1667205Y-9682674D01*
X1667205Y-9682674D02*
X1667205Y-9701722D01*
D12*
X5000Y-10120000D02*
X35000Y-10150000D01*
X35000Y-10120000D02*
X5000Y-10150000D01*
D11*
X333872Y-10026484D02*
X352920Y-10026484D01*
X352920Y-10026484D02*
X371967Y-10036008D01*
X371967Y-10036008D02*
X381491Y-10045531D01*
X381491Y-10045531D02*
X391015Y-10064579D01*
X391015Y-10064579D02*
X400539Y-10102674D01*
X400539Y-10102674D02*
X400539Y-10150293D01*
X400539Y-10150293D02*
X391015Y-10188389D01*
X391015Y-10188389D02*
X381491Y-10207436D01*
X381491Y-10207436D02*
X371967Y-10216960D01*
X371967Y-10216960D02*
X352920Y-10226484D01*
X352920Y-10226484D02*
X333872Y-10226484D01*
X333872Y-10226484D02*
X314824Y-10216960D01*
X314824Y-10216960D02*
X305301Y-10207436D01*
X305301Y-10207436D02*
X295777Y-10188389D01*
X295777Y-10188389D02*
X286253Y-10150293D01*
X286253Y-10150293D02*
X286253Y-10102674D01*
X286253Y-10102674D02*
X295777Y-10064579D01*
X295777Y-10064579D02*
X305301Y-10045531D01*
X305301Y-10045531D02*
X314824Y-10036008D01*
X314824Y-10036008D02*
X333872Y-10026484D01*
X486253Y-10207436D02*
X495777Y-10216960D01*
X495777Y-10216960D02*
X486253Y-10226484D01*
X486253Y-10226484D02*
X476729Y-10216960D01*
X476729Y-10216960D02*
X486253Y-10207436D01*
X486253Y-10207436D02*
X486253Y-10226484D01*
X562444Y-10026484D02*
X686253Y-10026484D01*
X686253Y-10026484D02*
X619586Y-10102674D01*
X619586Y-10102674D02*
X648158Y-10102674D01*
X648158Y-10102674D02*
X667205Y-10112198D01*
X667205Y-10112198D02*
X676729Y-10121722D01*
X676729Y-10121722D02*
X686253Y-10140770D01*
X686253Y-10140770D02*
X686253Y-10188389D01*
X686253Y-10188389D02*
X676729Y-10207436D01*
X676729Y-10207436D02*
X667205Y-10216960D01*
X667205Y-10216960D02*
X648158Y-10226484D01*
X648158Y-10226484D02*
X591015Y-10226484D01*
X591015Y-10226484D02*
X571967Y-10216960D01*
X571967Y-10216960D02*
X562444Y-10207436D01*
X810062Y-10026484D02*
X829110Y-10026484D01*
X829110Y-10026484D02*
X848158Y-10036008D01*
X848158Y-10036008D02*
X857682Y-10045531D01*
X857682Y-10045531D02*
X867205Y-10064579D01*
X867205Y-10064579D02*
X876729Y-10102674D01*
X876729Y-10102674D02*
X876729Y-10150293D01*
X876729Y-10150293D02*
X867205Y-10188389D01*
X867205Y-10188389D02*
X857682Y-10207436D01*
X857682Y-10207436D02*
X848158Y-10216960D01*
X848158Y-10216960D02*
X829110Y-10226484D01*
X829110Y-10226484D02*
X810062Y-10226484D01*
X810062Y-10226484D02*
X791015Y-10216960D01*
X791015Y-10216960D02*
X781491Y-10207436D01*
X781491Y-10207436D02*
X771967Y-10188389D01*
X771967Y-10188389D02*
X762443Y-10150293D01*
X762443Y-10150293D02*
X762443Y-10102674D01*
X762443Y-10102674D02*
X771967Y-10064579D01*
X771967Y-10064579D02*
X781491Y-10045531D01*
X781491Y-10045531D02*
X791015Y-10036008D01*
X791015Y-10036008D02*
X810062Y-10026484D01*
X1000539Y-10026484D02*
X1019586Y-10026484D01*
X1019586Y-10026484D02*
X1038634Y-10036008D01*
X1038634Y-10036008D02*
X1048158Y-10045531D01*
X1048158Y-10045531D02*
X1057682Y-10064579D01*
X1057682Y-10064579D02*
X1067205Y-10102674D01*
X1067205Y-10102674D02*
X1067205Y-10150293D01*
X1067205Y-10150293D02*
X1057682Y-10188389D01*
X1057682Y-10188389D02*
X1048158Y-10207436D01*
X1048158Y-10207436D02*
X1038634Y-10216960D01*
X1038634Y-10216960D02*
X1019586Y-10226484D01*
X1019586Y-10226484D02*
X1000539Y-10226484D01*
X1000539Y-10226484D02*
X981491Y-10216960D01*
X981491Y-10216960D02*
X971967Y-10207436D01*
X971967Y-10207436D02*
X962443Y-10188389D01*
X962443Y-10188389D02*
X952920Y-10150293D01*
X952920Y-10150293D02*
X952920Y-10102674D01*
X952920Y-10102674D02*
X962443Y-10064579D01*
X962443Y-10064579D02*
X971967Y-10045531D01*
X971967Y-10045531D02*
X981491Y-10036008D01*
X981491Y-10036008D02*
X1000539Y-10026484D01*
X1152920Y-10226484D02*
X1152920Y-10093150D01*
X1152920Y-10112198D02*
X1162444Y-10102674D01*
X1162444Y-10102674D02*
X1181491Y-10093150D01*
X1181491Y-10093150D02*
X1210063Y-10093150D01*
X1210063Y-10093150D02*
X1229110Y-10102674D01*
X1229110Y-10102674D02*
X1238634Y-10121722D01*
X1238634Y-10121722D02*
X1238634Y-10226484D01*
X1238634Y-10121722D02*
X1248158Y-10102674D01*
X1248158Y-10102674D02*
X1267205Y-10093150D01*
X1267205Y-10093150D02*
X1295777Y-10093150D01*
X1295777Y-10093150D02*
X1314825Y-10102674D01*
X1314825Y-10102674D02*
X1324348Y-10121722D01*
X1324348Y-10121722D02*
X1324348Y-10226484D01*
X1419586Y-10226484D02*
X1419586Y-10093150D01*
X1419586Y-10112198D02*
X1429110Y-10102674D01*
X1429110Y-10102674D02*
X1448158Y-10093150D01*
X1448158Y-10093150D02*
X1476729Y-10093150D01*
X1476729Y-10093150D02*
X1495777Y-10102674D01*
X1495777Y-10102674D02*
X1505301Y-10121722D01*
X1505301Y-10121722D02*
X1505301Y-10226484D01*
X1505301Y-10121722D02*
X1514824Y-10102674D01*
X1514824Y-10102674D02*
X1533872Y-10093150D01*
X1533872Y-10093150D02*
X1562443Y-10093150D01*
X1562443Y-10093150D02*
X1581491Y-10102674D01*
X1581491Y-10102674D02*
X1591015Y-10121722D01*
X1591015Y-10121722D02*
X1591015Y-10226484D01*
X1981491Y-10016960D02*
X1810063Y-10274103D01*
X2238634Y-10026484D02*
X2257682Y-10026484D01*
X2257682Y-10026484D02*
X2276729Y-10036008D01*
X2276729Y-10036008D02*
X2286253Y-10045531D01*
X2286253Y-10045531D02*
X2295777Y-10064579D01*
X2295777Y-10064579D02*
X2305301Y-10102674D01*
X2305301Y-10102674D02*
X2305301Y-10150293D01*
X2305301Y-10150293D02*
X2295777Y-10188389D01*
X2295777Y-10188389D02*
X2286253Y-10207436D01*
X2286253Y-10207436D02*
X2276729Y-10216960D01*
X2276729Y-10216960D02*
X2257682Y-10226484D01*
X2257682Y-10226484D02*
X2238634Y-10226484D01*
X2238634Y-10226484D02*
X2219587Y-10216960D01*
X2219587Y-10216960D02*
X2210063Y-10207436D01*
X2210063Y-10207436D02*
X2200539Y-10188389D01*
X2200539Y-10188389D02*
X2191015Y-10150293D01*
X2191015Y-10150293D02*
X2191015Y-10102674D01*
X2191015Y-10102674D02*
X2200539Y-10064579D01*
X2200539Y-10064579D02*
X2210063Y-10045531D01*
X2210063Y-10045531D02*
X2219587Y-10036008D01*
X2219587Y-10036008D02*
X2238634Y-10026484D01*
X2391015Y-10207436D02*
X2400539Y-10216960D01*
X2400539Y-10216960D02*
X2391015Y-10226484D01*
X2391015Y-10226484D02*
X2381491Y-10216960D01*
X2381491Y-10216960D02*
X2391015Y-10207436D01*
X2391015Y-10207436D02*
X2391015Y-10226484D01*
X2524348Y-10026484D02*
X2543396Y-10026484D01*
X2543396Y-10026484D02*
X2562444Y-10036008D01*
X2562444Y-10036008D02*
X2571968Y-10045531D01*
X2571968Y-10045531D02*
X2581491Y-10064579D01*
X2581491Y-10064579D02*
X2591015Y-10102674D01*
X2591015Y-10102674D02*
X2591015Y-10150293D01*
X2591015Y-10150293D02*
X2581491Y-10188389D01*
X2581491Y-10188389D02*
X2571968Y-10207436D01*
X2571968Y-10207436D02*
X2562444Y-10216960D01*
X2562444Y-10216960D02*
X2543396Y-10226484D01*
X2543396Y-10226484D02*
X2524348Y-10226484D01*
X2524348Y-10226484D02*
X2505301Y-10216960D01*
X2505301Y-10216960D02*
X2495777Y-10207436D01*
X2495777Y-10207436D02*
X2486253Y-10188389D01*
X2486253Y-10188389D02*
X2476729Y-10150293D01*
X2476729Y-10150293D02*
X2476729Y-10102674D01*
X2476729Y-10102674D02*
X2486253Y-10064579D01*
X2486253Y-10064579D02*
X2495777Y-10045531D01*
X2495777Y-10045531D02*
X2505301Y-10036008D01*
X2505301Y-10036008D02*
X2524348Y-10026484D01*
X2781491Y-10226484D02*
X2667206Y-10226484D01*
X2724348Y-10226484D02*
X2724348Y-10026484D01*
X2724348Y-10026484D02*
X2705301Y-10055055D01*
X2705301Y-10055055D02*
X2686253Y-10074103D01*
X2686253Y-10074103D02*
X2667206Y-10083627D01*
X2971967Y-10226484D02*
X2857682Y-10226484D01*
X2914825Y-10226484D02*
X2914825Y-10026484D01*
X2914825Y-10026484D02*
X2895777Y-10055055D01*
X2895777Y-10055055D02*
X2876729Y-10074103D01*
X2876729Y-10074103D02*
X2857682Y-10083627D01*
X3086253Y-10112198D02*
X3067206Y-10102674D01*
X3067206Y-10102674D02*
X3057682Y-10093150D01*
X3057682Y-10093150D02*
X3048158Y-10074103D01*
X3048158Y-10074103D02*
X3048158Y-10064579D01*
X3048158Y-10064579D02*
X3057682Y-10045531D01*
X3057682Y-10045531D02*
X3067206Y-10036008D01*
X3067206Y-10036008D02*
X3086253Y-10026484D01*
X3086253Y-10026484D02*
X3124348Y-10026484D01*
X3124348Y-10026484D02*
X3143396Y-10036008D01*
X3143396Y-10036008D02*
X3152920Y-10045531D01*
X3152920Y-10045531D02*
X3162444Y-10064579D01*
X3162444Y-10064579D02*
X3162444Y-10074103D01*
X3162444Y-10074103D02*
X3152920Y-10093150D01*
X3152920Y-10093150D02*
X3143396Y-10102674D01*
X3143396Y-10102674D02*
X3124348Y-10112198D01*
X3124348Y-10112198D02*
X3086253Y-10112198D01*
X3086253Y-10112198D02*
X3067206Y-10121722D01*
X3067206Y-10121722D02*
X3057682Y-10131246D01*
X3057682Y-10131246D02*
X3048158Y-10150293D01*
X3048158Y-10150293D02*
X3048158Y-10188389D01*
X3048158Y-10188389D02*
X3057682Y-10207436D01*
X3057682Y-10207436D02*
X3067206Y-10216960D01*
X3067206Y-10216960D02*
X3086253Y-10226484D01*
X3086253Y-10226484D02*
X3124348Y-10226484D01*
X3124348Y-10226484D02*
X3143396Y-10216960D01*
X3143396Y-10216960D02*
X3152920Y-10207436D01*
X3152920Y-10207436D02*
X3162444Y-10188389D01*
X3162444Y-10188389D02*
X3162444Y-10150293D01*
X3162444Y-10150293D02*
X3152920Y-10131246D01*
X3152920Y-10131246D02*
X3143396Y-10121722D01*
X3143396Y-10121722D02*
X3124348Y-10112198D01*
X3238634Y-10026484D02*
X3238634Y-10064579D01*
X3314825Y-10026484D02*
X3314825Y-10064579D01*
X3610063Y-10302674D02*
X3600539Y-10293150D01*
X3600539Y-10293150D02*
X3581491Y-10264579D01*
X3581491Y-10264579D02*
X3571968Y-10245531D01*
X3571968Y-10245531D02*
X3562444Y-10216960D01*
X3562444Y-10216960D02*
X3552920Y-10169341D01*
X3552920Y-10169341D02*
X3552920Y-10131246D01*
X3552920Y-10131246D02*
X3562444Y-10083627D01*
X3562444Y-10083627D02*
X3571968Y-10055055D01*
X3571968Y-10055055D02*
X3581491Y-10036008D01*
X3581491Y-10036008D02*
X3600539Y-10007436D01*
X3600539Y-10007436D02*
X3610063Y-9997912D01*
X3781491Y-10026484D02*
X3686253Y-10026484D01*
X3686253Y-10026484D02*
X3676729Y-10121722D01*
X3676729Y-10121722D02*
X3686253Y-10112198D01*
X3686253Y-10112198D02*
X3705301Y-10102674D01*
X3705301Y-10102674D02*
X3752920Y-10102674D01*
X3752920Y-10102674D02*
X3771968Y-10112198D01*
X3771968Y-10112198D02*
X3781491Y-10121722D01*
X3781491Y-10121722D02*
X3791015Y-10140770D01*
X3791015Y-10140770D02*
X3791015Y-10188389D01*
X3791015Y-10188389D02*
X3781491Y-10207436D01*
X3781491Y-10207436D02*
X3771968Y-10216960D01*
X3771968Y-10216960D02*
X3752920Y-10226484D01*
X3752920Y-10226484D02*
X3705301Y-10226484D01*
X3705301Y-10226484D02*
X3686253Y-10216960D01*
X3686253Y-10216960D02*
X3676729Y-10207436D01*
X3914825Y-10026484D02*
X3933872Y-10026484D01*
X3933872Y-10026484D02*
X3952920Y-10036008D01*
X3952920Y-10036008D02*
X3962444Y-10045531D01*
X3962444Y-10045531D02*
X3971968Y-10064579D01*
X3971968Y-10064579D02*
X3981491Y-10102674D01*
X3981491Y-10102674D02*
X3981491Y-10150293D01*
X3981491Y-10150293D02*
X3971968Y-10188389D01*
X3971968Y-10188389D02*
X3962444Y-10207436D01*
X3962444Y-10207436D02*
X3952920Y-10216960D01*
X3952920Y-10216960D02*
X3933872Y-10226484D01*
X3933872Y-10226484D02*
X3914825Y-10226484D01*
X3914825Y-10226484D02*
X3895777Y-10216960D01*
X3895777Y-10216960D02*
X3886253Y-10207436D01*
X3886253Y-10207436D02*
X3876729Y-10188389D01*
X3876729Y-10188389D02*
X3867206Y-10150293D01*
X3867206Y-10150293D02*
X3867206Y-10102674D01*
X3867206Y-10102674D02*
X3876729Y-10064579D01*
X3876729Y-10064579D02*
X3886253Y-10045531D01*
X3886253Y-10045531D02*
X3895777Y-10036008D01*
X3895777Y-10036008D02*
X3914825Y-10026484D01*
X4219587Y-10226484D02*
X4219587Y-10026484D01*
X4305301Y-10226484D02*
X4305301Y-10121722D01*
X4305301Y-10121722D02*
X4295777Y-10102674D01*
X4295777Y-10102674D02*
X4276730Y-10093150D01*
X4276730Y-10093150D02*
X4248158Y-10093150D01*
X4248158Y-10093150D02*
X4229111Y-10102674D01*
X4229111Y-10102674D02*
X4219587Y-10112198D01*
X4429111Y-10226484D02*
X4410063Y-10216960D01*
X4410063Y-10216960D02*
X4400539Y-10207436D01*
X4400539Y-10207436D02*
X4391015Y-10188389D01*
X4391015Y-10188389D02*
X4391015Y-10131246D01*
X4391015Y-10131246D02*
X4400539Y-10112198D01*
X4400539Y-10112198D02*
X4410063Y-10102674D01*
X4410063Y-10102674D02*
X4429111Y-10093150D01*
X4429111Y-10093150D02*
X4457682Y-10093150D01*
X4457682Y-10093150D02*
X4476730Y-10102674D01*
X4476730Y-10102674D02*
X4486253Y-10112198D01*
X4486253Y-10112198D02*
X4495777Y-10131246D01*
X4495777Y-10131246D02*
X4495777Y-10188389D01*
X4495777Y-10188389D02*
X4486253Y-10207436D01*
X4486253Y-10207436D02*
X4476730Y-10216960D01*
X4476730Y-10216960D02*
X4457682Y-10226484D01*
X4457682Y-10226484D02*
X4429111Y-10226484D01*
X4610063Y-10226484D02*
X4591015Y-10216960D01*
X4591015Y-10216960D02*
X4581492Y-10197912D01*
X4581492Y-10197912D02*
X4581492Y-10026484D01*
X4762444Y-10216960D02*
X4743396Y-10226484D01*
X4743396Y-10226484D02*
X4705301Y-10226484D01*
X4705301Y-10226484D02*
X4686253Y-10216960D01*
X4686253Y-10216960D02*
X4676730Y-10197912D01*
X4676730Y-10197912D02*
X4676730Y-10121722D01*
X4676730Y-10121722D02*
X4686253Y-10102674D01*
X4686253Y-10102674D02*
X4705301Y-10093150D01*
X4705301Y-10093150D02*
X4743396Y-10093150D01*
X4743396Y-10093150D02*
X4762444Y-10102674D01*
X4762444Y-10102674D02*
X4771968Y-10121722D01*
X4771968Y-10121722D02*
X4771968Y-10140770D01*
X4771968Y-10140770D02*
X4676730Y-10159817D01*
X4848158Y-10216960D02*
X4867206Y-10226484D01*
X4867206Y-10226484D02*
X4905301Y-10226484D01*
X4905301Y-10226484D02*
X4924349Y-10216960D01*
X4924349Y-10216960D02*
X4933873Y-10197912D01*
X4933873Y-10197912D02*
X4933873Y-10188389D01*
X4933873Y-10188389D02*
X4924349Y-10169341D01*
X4924349Y-10169341D02*
X4905301Y-10159817D01*
X4905301Y-10159817D02*
X4876730Y-10159817D01*
X4876730Y-10159817D02*
X4857682Y-10150293D01*
X4857682Y-10150293D02*
X4848158Y-10131246D01*
X4848158Y-10131246D02*
X4848158Y-10121722D01*
X4848158Y-10121722D02*
X4857682Y-10102674D01*
X4857682Y-10102674D02*
X4876730Y-10093150D01*
X4876730Y-10093150D02*
X4905301Y-10093150D01*
X4905301Y-10093150D02*
X4924349Y-10102674D01*
X5000539Y-10302674D02*
X5010063Y-10293150D01*
X5010063Y-10293150D02*
X5029111Y-10264579D01*
X5029111Y-10264579D02*
X5038634Y-10245531D01*
X5038634Y-10245531D02*
X5048158Y-10216960D01*
X5048158Y-10216960D02*
X5057682Y-10169341D01*
X5057682Y-10169341D02*
X5057682Y-10131246D01*
X5057682Y-10131246D02*
X5048158Y-10083627D01*
X5048158Y-10083627D02*
X5038634Y-10055055D01*
X5038634Y-10055055D02*
X5029111Y-10036008D01*
X5029111Y-10036008D02*
X5010063Y-10007436D01*
X5010063Y-10007436D02*
X5000539Y-9997912D01*
D12*
X35000Y-10399000D02*
G75*
G02*
X-25000Y-10399000I-30000J0D01*
G01*
X-25000Y-10399000D02*
G75*
G02*
X35000Y-10399000I30000J0D01*
G01*
D11*
X333872Y-10290484D02*
X352920Y-10290484D01*
X352920Y-10290484D02*
X371967Y-10300008D01*
X371967Y-10300008D02*
X381491Y-10309531D01*
X381491Y-10309531D02*
X391015Y-10328579D01*
X391015Y-10328579D02*
X400539Y-10366674D01*
X400539Y-10366674D02*
X400539Y-10414293D01*
X400539Y-10414293D02*
X391015Y-10452389D01*
X391015Y-10452389D02*
X381491Y-10471436D01*
X381491Y-10471436D02*
X371967Y-10480960D01*
X371967Y-10480960D02*
X352920Y-10490484D01*
X352920Y-10490484D02*
X333872Y-10490484D01*
X333872Y-10490484D02*
X314824Y-10480960D01*
X314824Y-10480960D02*
X305301Y-10471436D01*
X305301Y-10471436D02*
X295777Y-10452389D01*
X295777Y-10452389D02*
X286253Y-10414293D01*
X286253Y-10414293D02*
X286253Y-10366674D01*
X286253Y-10366674D02*
X295777Y-10328579D01*
X295777Y-10328579D02*
X305301Y-10309531D01*
X305301Y-10309531D02*
X314824Y-10300008D01*
X314824Y-10300008D02*
X333872Y-10290484D01*
X486253Y-10471436D02*
X495777Y-10480960D01*
X495777Y-10480960D02*
X486253Y-10490484D01*
X486253Y-10490484D02*
X476729Y-10480960D01*
X476729Y-10480960D02*
X486253Y-10471436D01*
X486253Y-10471436D02*
X486253Y-10490484D01*
X667205Y-10290484D02*
X629110Y-10290484D01*
X629110Y-10290484D02*
X610063Y-10300008D01*
X610063Y-10300008D02*
X600539Y-10309531D01*
X600539Y-10309531D02*
X581491Y-10338103D01*
X581491Y-10338103D02*
X571967Y-10376198D01*
X571967Y-10376198D02*
X571967Y-10452389D01*
X571967Y-10452389D02*
X581491Y-10471436D01*
X581491Y-10471436D02*
X591015Y-10480960D01*
X591015Y-10480960D02*
X610063Y-10490484D01*
X610063Y-10490484D02*
X648158Y-10490484D01*
X648158Y-10490484D02*
X667205Y-10480960D01*
X667205Y-10480960D02*
X676729Y-10471436D01*
X676729Y-10471436D02*
X686253Y-10452389D01*
X686253Y-10452389D02*
X686253Y-10404770D01*
X686253Y-10404770D02*
X676729Y-10385722D01*
X676729Y-10385722D02*
X667205Y-10376198D01*
X667205Y-10376198D02*
X648158Y-10366674D01*
X648158Y-10366674D02*
X610063Y-10366674D01*
X610063Y-10366674D02*
X591015Y-10376198D01*
X591015Y-10376198D02*
X581491Y-10385722D01*
X581491Y-10385722D02*
X571967Y-10404770D01*
X810062Y-10290484D02*
X829110Y-10290484D01*
X829110Y-10290484D02*
X848158Y-10300008D01*
X848158Y-10300008D02*
X857682Y-10309531D01*
X857682Y-10309531D02*
X867205Y-10328579D01*
X867205Y-10328579D02*
X876729Y-10366674D01*
X876729Y-10366674D02*
X876729Y-10414293D01*
X876729Y-10414293D02*
X867205Y-10452389D01*
X867205Y-10452389D02*
X857682Y-10471436D01*
X857682Y-10471436D02*
X848158Y-10480960D01*
X848158Y-10480960D02*
X829110Y-10490484D01*
X829110Y-10490484D02*
X810062Y-10490484D01*
X810062Y-10490484D02*
X791015Y-10480960D01*
X791015Y-10480960D02*
X781491Y-10471436D01*
X781491Y-10471436D02*
X771967Y-10452389D01*
X771967Y-10452389D02*
X762443Y-10414293D01*
X762443Y-10414293D02*
X762443Y-10366674D01*
X762443Y-10366674D02*
X771967Y-10328579D01*
X771967Y-10328579D02*
X781491Y-10309531D01*
X781491Y-10309531D02*
X791015Y-10300008D01*
X791015Y-10300008D02*
X810062Y-10290484D01*
X1000539Y-10290484D02*
X1019586Y-10290484D01*
X1019586Y-10290484D02*
X1038634Y-10300008D01*
X1038634Y-10300008D02*
X1048158Y-10309531D01*
X1048158Y-10309531D02*
X1057682Y-10328579D01*
X1057682Y-10328579D02*
X1067205Y-10366674D01*
X1067205Y-10366674D02*
X1067205Y-10414293D01*
X1067205Y-10414293D02*
X1057682Y-10452389D01*
X1057682Y-10452389D02*
X1048158Y-10471436D01*
X1048158Y-10471436D02*
X1038634Y-10480960D01*
X1038634Y-10480960D02*
X1019586Y-10490484D01*
X1019586Y-10490484D02*
X1000539Y-10490484D01*
X1000539Y-10490484D02*
X981491Y-10480960D01*
X981491Y-10480960D02*
X971967Y-10471436D01*
X971967Y-10471436D02*
X962443Y-10452389D01*
X962443Y-10452389D02*
X952920Y-10414293D01*
X952920Y-10414293D02*
X952920Y-10366674D01*
X952920Y-10366674D02*
X962443Y-10328579D01*
X962443Y-10328579D02*
X971967Y-10309531D01*
X971967Y-10309531D02*
X981491Y-10300008D01*
X981491Y-10300008D02*
X1000539Y-10290484D01*
X1152920Y-10490484D02*
X1152920Y-10357150D01*
X1152920Y-10376198D02*
X1162444Y-10366674D01*
X1162444Y-10366674D02*
X1181491Y-10357150D01*
X1181491Y-10357150D02*
X1210063Y-10357150D01*
X1210063Y-10357150D02*
X1229110Y-10366674D01*
X1229110Y-10366674D02*
X1238634Y-10385722D01*
X1238634Y-10385722D02*
X1238634Y-10490484D01*
X1238634Y-10385722D02*
X1248158Y-10366674D01*
X1248158Y-10366674D02*
X1267205Y-10357150D01*
X1267205Y-10357150D02*
X1295777Y-10357150D01*
X1295777Y-10357150D02*
X1314825Y-10366674D01*
X1314825Y-10366674D02*
X1324348Y-10385722D01*
X1324348Y-10385722D02*
X1324348Y-10490484D01*
X1419586Y-10490484D02*
X1419586Y-10357150D01*
X1419586Y-10376198D02*
X1429110Y-10366674D01*
X1429110Y-10366674D02*
X1448158Y-10357150D01*
X1448158Y-10357150D02*
X1476729Y-10357150D01*
X1476729Y-10357150D02*
X1495777Y-10366674D01*
X1495777Y-10366674D02*
X1505301Y-10385722D01*
X1505301Y-10385722D02*
X1505301Y-10490484D01*
X1505301Y-10385722D02*
X1514824Y-10366674D01*
X1514824Y-10366674D02*
X1533872Y-10357150D01*
X1533872Y-10357150D02*
X1562443Y-10357150D01*
X1562443Y-10357150D02*
X1581491Y-10366674D01*
X1581491Y-10366674D02*
X1591015Y-10385722D01*
X1591015Y-10385722D02*
X1591015Y-10490484D01*
X1981491Y-10280960D02*
X1810063Y-10538103D01*
X2238634Y-10290484D02*
X2257682Y-10290484D01*
X2257682Y-10290484D02*
X2276729Y-10300008D01*
X2276729Y-10300008D02*
X2286253Y-10309531D01*
X2286253Y-10309531D02*
X2295777Y-10328579D01*
X2295777Y-10328579D02*
X2305301Y-10366674D01*
X2305301Y-10366674D02*
X2305301Y-10414293D01*
X2305301Y-10414293D02*
X2295777Y-10452389D01*
X2295777Y-10452389D02*
X2286253Y-10471436D01*
X2286253Y-10471436D02*
X2276729Y-10480960D01*
X2276729Y-10480960D02*
X2257682Y-10490484D01*
X2257682Y-10490484D02*
X2238634Y-10490484D01*
X2238634Y-10490484D02*
X2219587Y-10480960D01*
X2219587Y-10480960D02*
X2210063Y-10471436D01*
X2210063Y-10471436D02*
X2200539Y-10452389D01*
X2200539Y-10452389D02*
X2191015Y-10414293D01*
X2191015Y-10414293D02*
X2191015Y-10366674D01*
X2191015Y-10366674D02*
X2200539Y-10328579D01*
X2200539Y-10328579D02*
X2210063Y-10309531D01*
X2210063Y-10309531D02*
X2219587Y-10300008D01*
X2219587Y-10300008D02*
X2238634Y-10290484D01*
X2391015Y-10471436D02*
X2400539Y-10480960D01*
X2400539Y-10480960D02*
X2391015Y-10490484D01*
X2391015Y-10490484D02*
X2381491Y-10480960D01*
X2381491Y-10480960D02*
X2391015Y-10471436D01*
X2391015Y-10471436D02*
X2391015Y-10490484D01*
X2524348Y-10290484D02*
X2543396Y-10290484D01*
X2543396Y-10290484D02*
X2562444Y-10300008D01*
X2562444Y-10300008D02*
X2571968Y-10309531D01*
X2571968Y-10309531D02*
X2581491Y-10328579D01*
X2581491Y-10328579D02*
X2591015Y-10366674D01*
X2591015Y-10366674D02*
X2591015Y-10414293D01*
X2591015Y-10414293D02*
X2581491Y-10452389D01*
X2581491Y-10452389D02*
X2571968Y-10471436D01*
X2571968Y-10471436D02*
X2562444Y-10480960D01*
X2562444Y-10480960D02*
X2543396Y-10490484D01*
X2543396Y-10490484D02*
X2524348Y-10490484D01*
X2524348Y-10490484D02*
X2505301Y-10480960D01*
X2505301Y-10480960D02*
X2495777Y-10471436D01*
X2495777Y-10471436D02*
X2486253Y-10452389D01*
X2486253Y-10452389D02*
X2476729Y-10414293D01*
X2476729Y-10414293D02*
X2476729Y-10366674D01*
X2476729Y-10366674D02*
X2486253Y-10328579D01*
X2486253Y-10328579D02*
X2495777Y-10309531D01*
X2495777Y-10309531D02*
X2505301Y-10300008D01*
X2505301Y-10300008D02*
X2524348Y-10290484D01*
X2667206Y-10309531D02*
X2676729Y-10300008D01*
X2676729Y-10300008D02*
X2695777Y-10290484D01*
X2695777Y-10290484D02*
X2743396Y-10290484D01*
X2743396Y-10290484D02*
X2762444Y-10300008D01*
X2762444Y-10300008D02*
X2771968Y-10309531D01*
X2771968Y-10309531D02*
X2781491Y-10328579D01*
X2781491Y-10328579D02*
X2781491Y-10347627D01*
X2781491Y-10347627D02*
X2771968Y-10376198D01*
X2771968Y-10376198D02*
X2657682Y-10490484D01*
X2657682Y-10490484D02*
X2781491Y-10490484D01*
X2848158Y-10290484D02*
X2971967Y-10290484D01*
X2971967Y-10290484D02*
X2905301Y-10366674D01*
X2905301Y-10366674D02*
X2933872Y-10366674D01*
X2933872Y-10366674D02*
X2952920Y-10376198D01*
X2952920Y-10376198D02*
X2962444Y-10385722D01*
X2962444Y-10385722D02*
X2971967Y-10404770D01*
X2971967Y-10404770D02*
X2971967Y-10452389D01*
X2971967Y-10452389D02*
X2962444Y-10471436D01*
X2962444Y-10471436D02*
X2952920Y-10480960D01*
X2952920Y-10480960D02*
X2933872Y-10490484D01*
X2933872Y-10490484D02*
X2876729Y-10490484D01*
X2876729Y-10490484D02*
X2857682Y-10480960D01*
X2857682Y-10480960D02*
X2848158Y-10471436D01*
X3143396Y-10290484D02*
X3105301Y-10290484D01*
X3105301Y-10290484D02*
X3086253Y-10300008D01*
X3086253Y-10300008D02*
X3076729Y-10309531D01*
X3076729Y-10309531D02*
X3057682Y-10338103D01*
X3057682Y-10338103D02*
X3048158Y-10376198D01*
X3048158Y-10376198D02*
X3048158Y-10452389D01*
X3048158Y-10452389D02*
X3057682Y-10471436D01*
X3057682Y-10471436D02*
X3067206Y-10480960D01*
X3067206Y-10480960D02*
X3086253Y-10490484D01*
X3086253Y-10490484D02*
X3124348Y-10490484D01*
X3124348Y-10490484D02*
X3143396Y-10480960D01*
X3143396Y-10480960D02*
X3152920Y-10471436D01*
X3152920Y-10471436D02*
X3162444Y-10452389D01*
X3162444Y-10452389D02*
X3162444Y-10404770D01*
X3162444Y-10404770D02*
X3152920Y-10385722D01*
X3152920Y-10385722D02*
X3143396Y-10376198D01*
X3143396Y-10376198D02*
X3124348Y-10366674D01*
X3124348Y-10366674D02*
X3086253Y-10366674D01*
X3086253Y-10366674D02*
X3067206Y-10376198D01*
X3067206Y-10376198D02*
X3057682Y-10385722D01*
X3057682Y-10385722D02*
X3048158Y-10404770D01*
X3238634Y-10290484D02*
X3238634Y-10328579D01*
X3314825Y-10290484D02*
X3314825Y-10328579D01*
X3610063Y-10566674D02*
X3600539Y-10557150D01*
X3600539Y-10557150D02*
X3581491Y-10528579D01*
X3581491Y-10528579D02*
X3571968Y-10509531D01*
X3571968Y-10509531D02*
X3562444Y-10480960D01*
X3562444Y-10480960D02*
X3552920Y-10433341D01*
X3552920Y-10433341D02*
X3552920Y-10395246D01*
X3552920Y-10395246D02*
X3562444Y-10347627D01*
X3562444Y-10347627D02*
X3571968Y-10319055D01*
X3571968Y-10319055D02*
X3581491Y-10300008D01*
X3581491Y-10300008D02*
X3600539Y-10271436D01*
X3600539Y-10271436D02*
X3610063Y-10261912D01*
X3724348Y-10290484D02*
X3743396Y-10290484D01*
X3743396Y-10290484D02*
X3762444Y-10300008D01*
X3762444Y-10300008D02*
X3771968Y-10309531D01*
X3771968Y-10309531D02*
X3781491Y-10328579D01*
X3781491Y-10328579D02*
X3791015Y-10366674D01*
X3791015Y-10366674D02*
X3791015Y-10414293D01*
X3791015Y-10414293D02*
X3781491Y-10452389D01*
X3781491Y-10452389D02*
X3771968Y-10471436D01*
X3771968Y-10471436D02*
X3762444Y-10480960D01*
X3762444Y-10480960D02*
X3743396Y-10490484D01*
X3743396Y-10490484D02*
X3724348Y-10490484D01*
X3724348Y-10490484D02*
X3705301Y-10480960D01*
X3705301Y-10480960D02*
X3695777Y-10471436D01*
X3695777Y-10471436D02*
X3686253Y-10452389D01*
X3686253Y-10452389D02*
X3676729Y-10414293D01*
X3676729Y-10414293D02*
X3676729Y-10366674D01*
X3676729Y-10366674D02*
X3686253Y-10328579D01*
X3686253Y-10328579D02*
X3695777Y-10309531D01*
X3695777Y-10309531D02*
X3705301Y-10300008D01*
X3705301Y-10300008D02*
X3724348Y-10290484D01*
X4029110Y-10490484D02*
X4029110Y-10290484D01*
X4114825Y-10490484D02*
X4114825Y-10385722D01*
X4114825Y-10385722D02*
X4105301Y-10366674D01*
X4105301Y-10366674D02*
X4086253Y-10357150D01*
X4086253Y-10357150D02*
X4057682Y-10357150D01*
X4057682Y-10357150D02*
X4038634Y-10366674D01*
X4038634Y-10366674D02*
X4029110Y-10376198D01*
X4238634Y-10490484D02*
X4219587Y-10480960D01*
X4219587Y-10480960D02*
X4210063Y-10471436D01*
X4210063Y-10471436D02*
X4200539Y-10452389D01*
X4200539Y-10452389D02*
X4200539Y-10395246D01*
X4200539Y-10395246D02*
X4210063Y-10376198D01*
X4210063Y-10376198D02*
X4219587Y-10366674D01*
X4219587Y-10366674D02*
X4238634Y-10357150D01*
X4238634Y-10357150D02*
X4267206Y-10357150D01*
X4267206Y-10357150D02*
X4286253Y-10366674D01*
X4286253Y-10366674D02*
X4295777Y-10376198D01*
X4295777Y-10376198D02*
X4305301Y-10395246D01*
X4305301Y-10395246D02*
X4305301Y-10452389D01*
X4305301Y-10452389D02*
X4295777Y-10471436D01*
X4295777Y-10471436D02*
X4286253Y-10480960D01*
X4286253Y-10480960D02*
X4267206Y-10490484D01*
X4267206Y-10490484D02*
X4238634Y-10490484D01*
X4419587Y-10490484D02*
X4400539Y-10480960D01*
X4400539Y-10480960D02*
X4391015Y-10461912D01*
X4391015Y-10461912D02*
X4391015Y-10290484D01*
X4571968Y-10480960D02*
X4552920Y-10490484D01*
X4552920Y-10490484D02*
X4514825Y-10490484D01*
X4514825Y-10490484D02*
X4495777Y-10480960D01*
X4495777Y-10480960D02*
X4486253Y-10461912D01*
X4486253Y-10461912D02*
X4486253Y-10385722D01*
X4486253Y-10385722D02*
X4495777Y-10366674D01*
X4495777Y-10366674D02*
X4514825Y-10357150D01*
X4514825Y-10357150D02*
X4552920Y-10357150D01*
X4552920Y-10357150D02*
X4571968Y-10366674D01*
X4571968Y-10366674D02*
X4581492Y-10385722D01*
X4581492Y-10385722D02*
X4581492Y-10404770D01*
X4581492Y-10404770D02*
X4486253Y-10423817D01*
X4657682Y-10480960D02*
X4676730Y-10490484D01*
X4676730Y-10490484D02*
X4714825Y-10490484D01*
X4714825Y-10490484D02*
X4733873Y-10480960D01*
X4733873Y-10480960D02*
X4743396Y-10461912D01*
X4743396Y-10461912D02*
X4743396Y-10452389D01*
X4743396Y-10452389D02*
X4733873Y-10433341D01*
X4733873Y-10433341D02*
X4714825Y-10423817D01*
X4714825Y-10423817D02*
X4686253Y-10423817D01*
X4686253Y-10423817D02*
X4667206Y-10414293D01*
X4667206Y-10414293D02*
X4657682Y-10395246D01*
X4657682Y-10395246D02*
X4657682Y-10385722D01*
X4657682Y-10385722D02*
X4667206Y-10366674D01*
X4667206Y-10366674D02*
X4686253Y-10357150D01*
X4686253Y-10357150D02*
X4714825Y-10357150D01*
X4714825Y-10357150D02*
X4733873Y-10366674D01*
X4981492Y-10414293D02*
X5133873Y-10414293D01*
X5057682Y-10490484D02*
X5057682Y-10338103D01*
X5467206Y-10357150D02*
X5467206Y-10490484D01*
X5419587Y-10280960D02*
X5371968Y-10423817D01*
X5371968Y-10423817D02*
X5495777Y-10423817D01*
X5714825Y-10480960D02*
X5733873Y-10490484D01*
X5733873Y-10490484D02*
X5771968Y-10490484D01*
X5771968Y-10490484D02*
X5791015Y-10480960D01*
X5791015Y-10480960D02*
X5800539Y-10461912D01*
X5800539Y-10461912D02*
X5800539Y-10452389D01*
X5800539Y-10452389D02*
X5791015Y-10433341D01*
X5791015Y-10433341D02*
X5771968Y-10423817D01*
X5771968Y-10423817D02*
X5743396Y-10423817D01*
X5743396Y-10423817D02*
X5724349Y-10414293D01*
X5724349Y-10414293D02*
X5714825Y-10395246D01*
X5714825Y-10395246D02*
X5714825Y-10385722D01*
X5714825Y-10385722D02*
X5724349Y-10366674D01*
X5724349Y-10366674D02*
X5743396Y-10357150D01*
X5743396Y-10357150D02*
X5771968Y-10357150D01*
X5771968Y-10357150D02*
X5791015Y-10366674D01*
X5914825Y-10490484D02*
X5895777Y-10480960D01*
X5895777Y-10480960D02*
X5886254Y-10461912D01*
X5886254Y-10461912D02*
X5886254Y-10290484D01*
X6019587Y-10490484D02*
X6000539Y-10480960D01*
X6000539Y-10480960D02*
X5991015Y-10471436D01*
X5991015Y-10471436D02*
X5981492Y-10452389D01*
X5981492Y-10452389D02*
X5981492Y-10395246D01*
X5981492Y-10395246D02*
X5991015Y-10376198D01*
X5991015Y-10376198D02*
X6000539Y-10366674D01*
X6000539Y-10366674D02*
X6019587Y-10357150D01*
X6019587Y-10357150D02*
X6048158Y-10357150D01*
X6048158Y-10357150D02*
X6067206Y-10366674D01*
X6067206Y-10366674D02*
X6076730Y-10376198D01*
X6076730Y-10376198D02*
X6086254Y-10395246D01*
X6086254Y-10395246D02*
X6086254Y-10452389D01*
X6086254Y-10452389D02*
X6076730Y-10471436D01*
X6076730Y-10471436D02*
X6067206Y-10480960D01*
X6067206Y-10480960D02*
X6048158Y-10490484D01*
X6048158Y-10490484D02*
X6019587Y-10490484D01*
X6143396Y-10357150D02*
X6219587Y-10357150D01*
X6171968Y-10290484D02*
X6171968Y-10461912D01*
X6171968Y-10461912D02*
X6181492Y-10480960D01*
X6181492Y-10480960D02*
X6200539Y-10490484D01*
X6200539Y-10490484D02*
X6219587Y-10490484D01*
X6276730Y-10480960D02*
X6295777Y-10490484D01*
X6295777Y-10490484D02*
X6333873Y-10490484D01*
X6333873Y-10490484D02*
X6352920Y-10480960D01*
X6352920Y-10480960D02*
X6362444Y-10461912D01*
X6362444Y-10461912D02*
X6362444Y-10452389D01*
X6362444Y-10452389D02*
X6352920Y-10433341D01*
X6352920Y-10433341D02*
X6333873Y-10423817D01*
X6333873Y-10423817D02*
X6305301Y-10423817D01*
X6305301Y-10423817D02*
X6286254Y-10414293D01*
X6286254Y-10414293D02*
X6276730Y-10395246D01*
X6276730Y-10395246D02*
X6276730Y-10385722D01*
X6276730Y-10385722D02*
X6286254Y-10366674D01*
X6286254Y-10366674D02*
X6305301Y-10357150D01*
X6305301Y-10357150D02*
X6333873Y-10357150D01*
X6333873Y-10357150D02*
X6352920Y-10366674D01*
X6429111Y-10566674D02*
X6438635Y-10557150D01*
X6438635Y-10557150D02*
X6457682Y-10528579D01*
X6457682Y-10528579D02*
X6467206Y-10509531D01*
X6467206Y-10509531D02*
X6476730Y-10480960D01*
X6476730Y-10480960D02*
X6486254Y-10433341D01*
X6486254Y-10433341D02*
X6486254Y-10395246D01*
X6486254Y-10395246D02*
X6476730Y-10347627D01*
X6476730Y-10347627D02*
X6467206Y-10319055D01*
X6467206Y-10319055D02*
X6457682Y-10300008D01*
X6457682Y-10300008D02*
X6438635Y-10271436D01*
X6438635Y-10271436D02*
X6429111Y-10261912D01*
D12*
X2500Y-10630500D02*
X2500Y-10695500D01*
X-30000Y-10663000D02*
X35000Y-10663000D01*
D11*
X333872Y-10554484D02*
X352920Y-10554484D01*
X352920Y-10554484D02*
X371967Y-10564008D01*
X371967Y-10564008D02*
X381491Y-10573531D01*
X381491Y-10573531D02*
X391015Y-10592579D01*
X391015Y-10592579D02*
X400539Y-10630674D01*
X400539Y-10630674D02*
X400539Y-10678293D01*
X400539Y-10678293D02*
X391015Y-10716389D01*
X391015Y-10716389D02*
X381491Y-10735436D01*
X381491Y-10735436D02*
X371967Y-10744960D01*
X371967Y-10744960D02*
X352920Y-10754484D01*
X352920Y-10754484D02*
X333872Y-10754484D01*
X333872Y-10754484D02*
X314824Y-10744960D01*
X314824Y-10744960D02*
X305301Y-10735436D01*
X305301Y-10735436D02*
X295777Y-10716389D01*
X295777Y-10716389D02*
X286253Y-10678293D01*
X286253Y-10678293D02*
X286253Y-10630674D01*
X286253Y-10630674D02*
X295777Y-10592579D01*
X295777Y-10592579D02*
X305301Y-10573531D01*
X305301Y-10573531D02*
X314824Y-10564008D01*
X314824Y-10564008D02*
X333872Y-10554484D01*
X486253Y-10735436D02*
X495777Y-10744960D01*
X495777Y-10744960D02*
X486253Y-10754484D01*
X486253Y-10754484D02*
X476729Y-10744960D01*
X476729Y-10744960D02*
X486253Y-10735436D01*
X486253Y-10735436D02*
X486253Y-10754484D01*
X667205Y-10554484D02*
X629110Y-10554484D01*
X629110Y-10554484D02*
X610063Y-10564008D01*
X610063Y-10564008D02*
X600539Y-10573531D01*
X600539Y-10573531D02*
X581491Y-10602103D01*
X581491Y-10602103D02*
X571967Y-10640198D01*
X571967Y-10640198D02*
X571967Y-10716389D01*
X571967Y-10716389D02*
X581491Y-10735436D01*
X581491Y-10735436D02*
X591015Y-10744960D01*
X591015Y-10744960D02*
X610063Y-10754484D01*
X610063Y-10754484D02*
X648158Y-10754484D01*
X648158Y-10754484D02*
X667205Y-10744960D01*
X667205Y-10744960D02*
X676729Y-10735436D01*
X676729Y-10735436D02*
X686253Y-10716389D01*
X686253Y-10716389D02*
X686253Y-10668770D01*
X686253Y-10668770D02*
X676729Y-10649722D01*
X676729Y-10649722D02*
X667205Y-10640198D01*
X667205Y-10640198D02*
X648158Y-10630674D01*
X648158Y-10630674D02*
X610063Y-10630674D01*
X610063Y-10630674D02*
X591015Y-10640198D01*
X591015Y-10640198D02*
X581491Y-10649722D01*
X581491Y-10649722D02*
X571967Y-10668770D01*
X867205Y-10554484D02*
X771967Y-10554484D01*
X771967Y-10554484D02*
X762443Y-10649722D01*
X762443Y-10649722D02*
X771967Y-10640198D01*
X771967Y-10640198D02*
X791015Y-10630674D01*
X791015Y-10630674D02*
X838634Y-10630674D01*
X838634Y-10630674D02*
X857682Y-10640198D01*
X857682Y-10640198D02*
X867205Y-10649722D01*
X867205Y-10649722D02*
X876729Y-10668770D01*
X876729Y-10668770D02*
X876729Y-10716389D01*
X876729Y-10716389D02*
X867205Y-10735436D01*
X867205Y-10735436D02*
X857682Y-10744960D01*
X857682Y-10744960D02*
X838634Y-10754484D01*
X838634Y-10754484D02*
X791015Y-10754484D01*
X791015Y-10754484D02*
X771967Y-10744960D01*
X771967Y-10744960D02*
X762443Y-10735436D01*
X1000539Y-10554484D02*
X1019586Y-10554484D01*
X1019586Y-10554484D02*
X1038634Y-10564008D01*
X1038634Y-10564008D02*
X1048158Y-10573531D01*
X1048158Y-10573531D02*
X1057682Y-10592579D01*
X1057682Y-10592579D02*
X1067205Y-10630674D01*
X1067205Y-10630674D02*
X1067205Y-10678293D01*
X1067205Y-10678293D02*
X1057682Y-10716389D01*
X1057682Y-10716389D02*
X1048158Y-10735436D01*
X1048158Y-10735436D02*
X1038634Y-10744960D01*
X1038634Y-10744960D02*
X1019586Y-10754484D01*
X1019586Y-10754484D02*
X1000539Y-10754484D01*
X1000539Y-10754484D02*
X981491Y-10744960D01*
X981491Y-10744960D02*
X971967Y-10735436D01*
X971967Y-10735436D02*
X962443Y-10716389D01*
X962443Y-10716389D02*
X952920Y-10678293D01*
X952920Y-10678293D02*
X952920Y-10630674D01*
X952920Y-10630674D02*
X962443Y-10592579D01*
X962443Y-10592579D02*
X971967Y-10573531D01*
X971967Y-10573531D02*
X981491Y-10564008D01*
X981491Y-10564008D02*
X1000539Y-10554484D01*
X1152920Y-10754484D02*
X1152920Y-10621150D01*
X1152920Y-10640198D02*
X1162444Y-10630674D01*
X1162444Y-10630674D02*
X1181491Y-10621150D01*
X1181491Y-10621150D02*
X1210063Y-10621150D01*
X1210063Y-10621150D02*
X1229110Y-10630674D01*
X1229110Y-10630674D02*
X1238634Y-10649722D01*
X1238634Y-10649722D02*
X1238634Y-10754484D01*
X1238634Y-10649722D02*
X1248158Y-10630674D01*
X1248158Y-10630674D02*
X1267205Y-10621150D01*
X1267205Y-10621150D02*
X1295777Y-10621150D01*
X1295777Y-10621150D02*
X1314825Y-10630674D01*
X1314825Y-10630674D02*
X1324348Y-10649722D01*
X1324348Y-10649722D02*
X1324348Y-10754484D01*
X1419586Y-10754484D02*
X1419586Y-10621150D01*
X1419586Y-10640198D02*
X1429110Y-10630674D01*
X1429110Y-10630674D02*
X1448158Y-10621150D01*
X1448158Y-10621150D02*
X1476729Y-10621150D01*
X1476729Y-10621150D02*
X1495777Y-10630674D01*
X1495777Y-10630674D02*
X1505301Y-10649722D01*
X1505301Y-10649722D02*
X1505301Y-10754484D01*
X1505301Y-10649722D02*
X1514824Y-10630674D01*
X1514824Y-10630674D02*
X1533872Y-10621150D01*
X1533872Y-10621150D02*
X1562443Y-10621150D01*
X1562443Y-10621150D02*
X1581491Y-10630674D01*
X1581491Y-10630674D02*
X1591015Y-10649722D01*
X1591015Y-10649722D02*
X1591015Y-10754484D01*
X1981491Y-10544960D02*
X1810063Y-10802103D01*
X2238634Y-10554484D02*
X2257682Y-10554484D01*
X2257682Y-10554484D02*
X2276729Y-10564008D01*
X2276729Y-10564008D02*
X2286253Y-10573531D01*
X2286253Y-10573531D02*
X2295777Y-10592579D01*
X2295777Y-10592579D02*
X2305301Y-10630674D01*
X2305301Y-10630674D02*
X2305301Y-10678293D01*
X2305301Y-10678293D02*
X2295777Y-10716389D01*
X2295777Y-10716389D02*
X2286253Y-10735436D01*
X2286253Y-10735436D02*
X2276729Y-10744960D01*
X2276729Y-10744960D02*
X2257682Y-10754484D01*
X2257682Y-10754484D02*
X2238634Y-10754484D01*
X2238634Y-10754484D02*
X2219587Y-10744960D01*
X2219587Y-10744960D02*
X2210063Y-10735436D01*
X2210063Y-10735436D02*
X2200539Y-10716389D01*
X2200539Y-10716389D02*
X2191015Y-10678293D01*
X2191015Y-10678293D02*
X2191015Y-10630674D01*
X2191015Y-10630674D02*
X2200539Y-10592579D01*
X2200539Y-10592579D02*
X2210063Y-10573531D01*
X2210063Y-10573531D02*
X2219587Y-10564008D01*
X2219587Y-10564008D02*
X2238634Y-10554484D01*
X2391015Y-10735436D02*
X2400539Y-10744960D01*
X2400539Y-10744960D02*
X2391015Y-10754484D01*
X2391015Y-10754484D02*
X2381491Y-10744960D01*
X2381491Y-10744960D02*
X2391015Y-10735436D01*
X2391015Y-10735436D02*
X2391015Y-10754484D01*
X2524348Y-10554484D02*
X2543396Y-10554484D01*
X2543396Y-10554484D02*
X2562444Y-10564008D01*
X2562444Y-10564008D02*
X2571968Y-10573531D01*
X2571968Y-10573531D02*
X2581491Y-10592579D01*
X2581491Y-10592579D02*
X2591015Y-10630674D01*
X2591015Y-10630674D02*
X2591015Y-10678293D01*
X2591015Y-10678293D02*
X2581491Y-10716389D01*
X2581491Y-10716389D02*
X2571968Y-10735436D01*
X2571968Y-10735436D02*
X2562444Y-10744960D01*
X2562444Y-10744960D02*
X2543396Y-10754484D01*
X2543396Y-10754484D02*
X2524348Y-10754484D01*
X2524348Y-10754484D02*
X2505301Y-10744960D01*
X2505301Y-10744960D02*
X2495777Y-10735436D01*
X2495777Y-10735436D02*
X2486253Y-10716389D01*
X2486253Y-10716389D02*
X2476729Y-10678293D01*
X2476729Y-10678293D02*
X2476729Y-10630674D01*
X2476729Y-10630674D02*
X2486253Y-10592579D01*
X2486253Y-10592579D02*
X2495777Y-10573531D01*
X2495777Y-10573531D02*
X2505301Y-10564008D01*
X2505301Y-10564008D02*
X2524348Y-10554484D01*
X2667206Y-10573531D02*
X2676729Y-10564008D01*
X2676729Y-10564008D02*
X2695777Y-10554484D01*
X2695777Y-10554484D02*
X2743396Y-10554484D01*
X2743396Y-10554484D02*
X2762444Y-10564008D01*
X2762444Y-10564008D02*
X2771968Y-10573531D01*
X2771968Y-10573531D02*
X2781491Y-10592579D01*
X2781491Y-10592579D02*
X2781491Y-10611627D01*
X2781491Y-10611627D02*
X2771968Y-10640198D01*
X2771968Y-10640198D02*
X2657682Y-10754484D01*
X2657682Y-10754484D02*
X2781491Y-10754484D01*
X2962444Y-10554484D02*
X2867206Y-10554484D01*
X2867206Y-10554484D02*
X2857682Y-10649722D01*
X2857682Y-10649722D02*
X2867206Y-10640198D01*
X2867206Y-10640198D02*
X2886253Y-10630674D01*
X2886253Y-10630674D02*
X2933872Y-10630674D01*
X2933872Y-10630674D02*
X2952920Y-10640198D01*
X2952920Y-10640198D02*
X2962444Y-10649722D01*
X2962444Y-10649722D02*
X2971967Y-10668770D01*
X2971967Y-10668770D02*
X2971967Y-10716389D01*
X2971967Y-10716389D02*
X2962444Y-10735436D01*
X2962444Y-10735436D02*
X2952920Y-10744960D01*
X2952920Y-10744960D02*
X2933872Y-10754484D01*
X2933872Y-10754484D02*
X2886253Y-10754484D01*
X2886253Y-10754484D02*
X2867206Y-10744960D01*
X2867206Y-10744960D02*
X2857682Y-10735436D01*
X3143396Y-10554484D02*
X3105301Y-10554484D01*
X3105301Y-10554484D02*
X3086253Y-10564008D01*
X3086253Y-10564008D02*
X3076729Y-10573531D01*
X3076729Y-10573531D02*
X3057682Y-10602103D01*
X3057682Y-10602103D02*
X3048158Y-10640198D01*
X3048158Y-10640198D02*
X3048158Y-10716389D01*
X3048158Y-10716389D02*
X3057682Y-10735436D01*
X3057682Y-10735436D02*
X3067206Y-10744960D01*
X3067206Y-10744960D02*
X3086253Y-10754484D01*
X3086253Y-10754484D02*
X3124348Y-10754484D01*
X3124348Y-10754484D02*
X3143396Y-10744960D01*
X3143396Y-10744960D02*
X3152920Y-10735436D01*
X3152920Y-10735436D02*
X3162444Y-10716389D01*
X3162444Y-10716389D02*
X3162444Y-10668770D01*
X3162444Y-10668770D02*
X3152920Y-10649722D01*
X3152920Y-10649722D02*
X3143396Y-10640198D01*
X3143396Y-10640198D02*
X3124348Y-10630674D01*
X3124348Y-10630674D02*
X3086253Y-10630674D01*
X3086253Y-10630674D02*
X3067206Y-10640198D01*
X3067206Y-10640198D02*
X3057682Y-10649722D01*
X3057682Y-10649722D02*
X3048158Y-10668770D01*
X3238634Y-10554484D02*
X3238634Y-10592579D01*
X3314825Y-10554484D02*
X3314825Y-10592579D01*
X3610063Y-10830674D02*
X3600539Y-10821150D01*
X3600539Y-10821150D02*
X3581491Y-10792579D01*
X3581491Y-10792579D02*
X3571968Y-10773531D01*
X3571968Y-10773531D02*
X3562444Y-10744960D01*
X3562444Y-10744960D02*
X3552920Y-10697341D01*
X3552920Y-10697341D02*
X3552920Y-10659246D01*
X3552920Y-10659246D02*
X3562444Y-10611627D01*
X3562444Y-10611627D02*
X3571968Y-10583055D01*
X3571968Y-10583055D02*
X3581491Y-10564008D01*
X3581491Y-10564008D02*
X3600539Y-10535436D01*
X3600539Y-10535436D02*
X3610063Y-10525912D01*
X3676729Y-10573531D02*
X3686253Y-10564008D01*
X3686253Y-10564008D02*
X3705301Y-10554484D01*
X3705301Y-10554484D02*
X3752920Y-10554484D01*
X3752920Y-10554484D02*
X3771968Y-10564008D01*
X3771968Y-10564008D02*
X3781491Y-10573531D01*
X3781491Y-10573531D02*
X3791015Y-10592579D01*
X3791015Y-10592579D02*
X3791015Y-10611627D01*
X3791015Y-10611627D02*
X3781491Y-10640198D01*
X3781491Y-10640198D02*
X3667206Y-10754484D01*
X3667206Y-10754484D02*
X3791015Y-10754484D01*
X4029110Y-10754484D02*
X4029110Y-10554484D01*
X4114825Y-10754484D02*
X4114825Y-10649722D01*
X4114825Y-10649722D02*
X4105301Y-10630674D01*
X4105301Y-10630674D02*
X4086253Y-10621150D01*
X4086253Y-10621150D02*
X4057682Y-10621150D01*
X4057682Y-10621150D02*
X4038634Y-10630674D01*
X4038634Y-10630674D02*
X4029110Y-10640198D01*
X4238634Y-10754484D02*
X4219587Y-10744960D01*
X4219587Y-10744960D02*
X4210063Y-10735436D01*
X4210063Y-10735436D02*
X4200539Y-10716389D01*
X4200539Y-10716389D02*
X4200539Y-10659246D01*
X4200539Y-10659246D02*
X4210063Y-10640198D01*
X4210063Y-10640198D02*
X4219587Y-10630674D01*
X4219587Y-10630674D02*
X4238634Y-10621150D01*
X4238634Y-10621150D02*
X4267206Y-10621150D01*
X4267206Y-10621150D02*
X4286253Y-10630674D01*
X4286253Y-10630674D02*
X4295777Y-10640198D01*
X4295777Y-10640198D02*
X4305301Y-10659246D01*
X4305301Y-10659246D02*
X4305301Y-10716389D01*
X4305301Y-10716389D02*
X4295777Y-10735436D01*
X4295777Y-10735436D02*
X4286253Y-10744960D01*
X4286253Y-10744960D02*
X4267206Y-10754484D01*
X4267206Y-10754484D02*
X4238634Y-10754484D01*
X4419587Y-10754484D02*
X4400539Y-10744960D01*
X4400539Y-10744960D02*
X4391015Y-10725912D01*
X4391015Y-10725912D02*
X4391015Y-10554484D01*
X4571968Y-10744960D02*
X4552920Y-10754484D01*
X4552920Y-10754484D02*
X4514825Y-10754484D01*
X4514825Y-10754484D02*
X4495777Y-10744960D01*
X4495777Y-10744960D02*
X4486253Y-10725912D01*
X4486253Y-10725912D02*
X4486253Y-10649722D01*
X4486253Y-10649722D02*
X4495777Y-10630674D01*
X4495777Y-10630674D02*
X4514825Y-10621150D01*
X4514825Y-10621150D02*
X4552920Y-10621150D01*
X4552920Y-10621150D02*
X4571968Y-10630674D01*
X4571968Y-10630674D02*
X4581492Y-10649722D01*
X4581492Y-10649722D02*
X4581492Y-10668770D01*
X4581492Y-10668770D02*
X4486253Y-10687817D01*
X4657682Y-10744960D02*
X4676730Y-10754484D01*
X4676730Y-10754484D02*
X4714825Y-10754484D01*
X4714825Y-10754484D02*
X4733873Y-10744960D01*
X4733873Y-10744960D02*
X4743396Y-10725912D01*
X4743396Y-10725912D02*
X4743396Y-10716389D01*
X4743396Y-10716389D02*
X4733873Y-10697341D01*
X4733873Y-10697341D02*
X4714825Y-10687817D01*
X4714825Y-10687817D02*
X4686253Y-10687817D01*
X4686253Y-10687817D02*
X4667206Y-10678293D01*
X4667206Y-10678293D02*
X4657682Y-10659246D01*
X4657682Y-10659246D02*
X4657682Y-10649722D01*
X4657682Y-10649722D02*
X4667206Y-10630674D01*
X4667206Y-10630674D02*
X4686253Y-10621150D01*
X4686253Y-10621150D02*
X4714825Y-10621150D01*
X4714825Y-10621150D02*
X4733873Y-10630674D01*
X4810063Y-10830674D02*
X4819587Y-10821150D01*
X4819587Y-10821150D02*
X4838634Y-10792579D01*
X4838634Y-10792579D02*
X4848158Y-10773531D01*
X4848158Y-10773531D02*
X4857682Y-10744960D01*
X4857682Y-10744960D02*
X4867206Y-10697341D01*
X4867206Y-10697341D02*
X4867206Y-10659246D01*
X4867206Y-10659246D02*
X4857682Y-10611627D01*
X4857682Y-10611627D02*
X4848158Y-10583055D01*
X4848158Y-10583055D02*
X4838634Y-10564008D01*
X4838634Y-10564008D02*
X4819587Y-10535436D01*
X4819587Y-10535436D02*
X4810063Y-10525912D01*
X5711Y-10997711D02*
X5711Y-10856289D01*
X-135711Y-10856289D01*
X-135711Y-10997711D01*
X5711Y-10997711D01*
X276729Y-10818484D02*
X400539Y-10818484D01*
X400539Y-10818484D02*
X333872Y-10894674D01*
X333872Y-10894674D02*
X362443Y-10894674D01*
X362443Y-10894674D02*
X381491Y-10904198D01*
X381491Y-10904198D02*
X391015Y-10913722D01*
X391015Y-10913722D02*
X400539Y-10932770D01*
X400539Y-10932770D02*
X400539Y-10980389D01*
X400539Y-10980389D02*
X391015Y-10999436D01*
X391015Y-10999436D02*
X381491Y-11008960D01*
X381491Y-11008960D02*
X362443Y-11018484D01*
X362443Y-11018484D02*
X305301Y-11018484D01*
X305301Y-11018484D02*
X286253Y-11008960D01*
X286253Y-11008960D02*
X276729Y-10999436D01*
X486253Y-10999436D02*
X495777Y-11008960D01*
X495777Y-11008960D02*
X486253Y-11018484D01*
X486253Y-11018484D02*
X476729Y-11008960D01*
X476729Y-11008960D02*
X486253Y-10999436D01*
X486253Y-10999436D02*
X486253Y-11018484D01*
X619586Y-10818484D02*
X638634Y-10818484D01*
X638634Y-10818484D02*
X657682Y-10828008D01*
X657682Y-10828008D02*
X667205Y-10837531D01*
X667205Y-10837531D02*
X676729Y-10856579D01*
X676729Y-10856579D02*
X686253Y-10894674D01*
X686253Y-10894674D02*
X686253Y-10942293D01*
X686253Y-10942293D02*
X676729Y-10980389D01*
X676729Y-10980389D02*
X667205Y-10999436D01*
X667205Y-10999436D02*
X657682Y-11008960D01*
X657682Y-11008960D02*
X638634Y-11018484D01*
X638634Y-11018484D02*
X619586Y-11018484D01*
X619586Y-11018484D02*
X600539Y-11008960D01*
X600539Y-11008960D02*
X591015Y-10999436D01*
X591015Y-10999436D02*
X581491Y-10980389D01*
X581491Y-10980389D02*
X571967Y-10942293D01*
X571967Y-10942293D02*
X571967Y-10894674D01*
X571967Y-10894674D02*
X581491Y-10856579D01*
X581491Y-10856579D02*
X591015Y-10837531D01*
X591015Y-10837531D02*
X600539Y-10828008D01*
X600539Y-10828008D02*
X619586Y-10818484D01*
X867205Y-10818484D02*
X771967Y-10818484D01*
X771967Y-10818484D02*
X762443Y-10913722D01*
X762443Y-10913722D02*
X771967Y-10904198D01*
X771967Y-10904198D02*
X791015Y-10894674D01*
X791015Y-10894674D02*
X838634Y-10894674D01*
X838634Y-10894674D02*
X857682Y-10904198D01*
X857682Y-10904198D02*
X867205Y-10913722D01*
X867205Y-10913722D02*
X876729Y-10932770D01*
X876729Y-10932770D02*
X876729Y-10980389D01*
X876729Y-10980389D02*
X867205Y-10999436D01*
X867205Y-10999436D02*
X857682Y-11008960D01*
X857682Y-11008960D02*
X838634Y-11018484D01*
X838634Y-11018484D02*
X791015Y-11018484D01*
X791015Y-11018484D02*
X771967Y-11008960D01*
X771967Y-11008960D02*
X762443Y-10999436D01*
X1000539Y-10818484D02*
X1019586Y-10818484D01*
X1019586Y-10818484D02*
X1038634Y-10828008D01*
X1038634Y-10828008D02*
X1048158Y-10837531D01*
X1048158Y-10837531D02*
X1057682Y-10856579D01*
X1057682Y-10856579D02*
X1067205Y-10894674D01*
X1067205Y-10894674D02*
X1067205Y-10942293D01*
X1067205Y-10942293D02*
X1057682Y-10980389D01*
X1057682Y-10980389D02*
X1048158Y-10999436D01*
X1048158Y-10999436D02*
X1038634Y-11008960D01*
X1038634Y-11008960D02*
X1019586Y-11018484D01*
X1019586Y-11018484D02*
X1000539Y-11018484D01*
X1000539Y-11018484D02*
X981491Y-11008960D01*
X981491Y-11008960D02*
X971967Y-10999436D01*
X971967Y-10999436D02*
X962443Y-10980389D01*
X962443Y-10980389D02*
X952920Y-10942293D01*
X952920Y-10942293D02*
X952920Y-10894674D01*
X952920Y-10894674D02*
X962443Y-10856579D01*
X962443Y-10856579D02*
X971967Y-10837531D01*
X971967Y-10837531D02*
X981491Y-10828008D01*
X981491Y-10828008D02*
X1000539Y-10818484D01*
X1152920Y-11018484D02*
X1152920Y-10885150D01*
X1152920Y-10904198D02*
X1162444Y-10894674D01*
X1162444Y-10894674D02*
X1181491Y-10885150D01*
X1181491Y-10885150D02*
X1210063Y-10885150D01*
X1210063Y-10885150D02*
X1229110Y-10894674D01*
X1229110Y-10894674D02*
X1238634Y-10913722D01*
X1238634Y-10913722D02*
X1238634Y-11018484D01*
X1238634Y-10913722D02*
X1248158Y-10894674D01*
X1248158Y-10894674D02*
X1267205Y-10885150D01*
X1267205Y-10885150D02*
X1295777Y-10885150D01*
X1295777Y-10885150D02*
X1314825Y-10894674D01*
X1314825Y-10894674D02*
X1324348Y-10913722D01*
X1324348Y-10913722D02*
X1324348Y-11018484D01*
X1419586Y-11018484D02*
X1419586Y-10885150D01*
X1419586Y-10904198D02*
X1429110Y-10894674D01*
X1429110Y-10894674D02*
X1448158Y-10885150D01*
X1448158Y-10885150D02*
X1476729Y-10885150D01*
X1476729Y-10885150D02*
X1495777Y-10894674D01*
X1495777Y-10894674D02*
X1505301Y-10913722D01*
X1505301Y-10913722D02*
X1505301Y-11018484D01*
X1505301Y-10913722D02*
X1514824Y-10894674D01*
X1514824Y-10894674D02*
X1533872Y-10885150D01*
X1533872Y-10885150D02*
X1562443Y-10885150D01*
X1562443Y-10885150D02*
X1581491Y-10894674D01*
X1581491Y-10894674D02*
X1591015Y-10913722D01*
X1591015Y-10913722D02*
X1591015Y-11018484D01*
X1981491Y-10808960D02*
X1810063Y-11066103D01*
X2238634Y-10818484D02*
X2257682Y-10818484D01*
X2257682Y-10818484D02*
X2276729Y-10828008D01*
X2276729Y-10828008D02*
X2286253Y-10837531D01*
X2286253Y-10837531D02*
X2295777Y-10856579D01*
X2295777Y-10856579D02*
X2305301Y-10894674D01*
X2305301Y-10894674D02*
X2305301Y-10942293D01*
X2305301Y-10942293D02*
X2295777Y-10980389D01*
X2295777Y-10980389D02*
X2286253Y-10999436D01*
X2286253Y-10999436D02*
X2276729Y-11008960D01*
X2276729Y-11008960D02*
X2257682Y-11018484D01*
X2257682Y-11018484D02*
X2238634Y-11018484D01*
X2238634Y-11018484D02*
X2219587Y-11008960D01*
X2219587Y-11008960D02*
X2210063Y-10999436D01*
X2210063Y-10999436D02*
X2200539Y-10980389D01*
X2200539Y-10980389D02*
X2191015Y-10942293D01*
X2191015Y-10942293D02*
X2191015Y-10894674D01*
X2191015Y-10894674D02*
X2200539Y-10856579D01*
X2200539Y-10856579D02*
X2210063Y-10837531D01*
X2210063Y-10837531D02*
X2219587Y-10828008D01*
X2219587Y-10828008D02*
X2238634Y-10818484D01*
X2391015Y-10999436D02*
X2400539Y-11008960D01*
X2400539Y-11008960D02*
X2391015Y-11018484D01*
X2391015Y-11018484D02*
X2381491Y-11008960D01*
X2381491Y-11008960D02*
X2391015Y-10999436D01*
X2391015Y-10999436D02*
X2391015Y-11018484D01*
X2591015Y-11018484D02*
X2476729Y-11018484D01*
X2533872Y-11018484D02*
X2533872Y-10818484D01*
X2533872Y-10818484D02*
X2514825Y-10847055D01*
X2514825Y-10847055D02*
X2495777Y-10866103D01*
X2495777Y-10866103D02*
X2476729Y-10875627D01*
X2667206Y-10837531D02*
X2676729Y-10828008D01*
X2676729Y-10828008D02*
X2695777Y-10818484D01*
X2695777Y-10818484D02*
X2743396Y-10818484D01*
X2743396Y-10818484D02*
X2762444Y-10828008D01*
X2762444Y-10828008D02*
X2771968Y-10837531D01*
X2771968Y-10837531D02*
X2781491Y-10856579D01*
X2781491Y-10856579D02*
X2781491Y-10875627D01*
X2781491Y-10875627D02*
X2771968Y-10904198D01*
X2771968Y-10904198D02*
X2657682Y-11018484D01*
X2657682Y-11018484D02*
X2781491Y-11018484D01*
X2905301Y-10818484D02*
X2924348Y-10818484D01*
X2924348Y-10818484D02*
X2943396Y-10828008D01*
X2943396Y-10828008D02*
X2952920Y-10837531D01*
X2952920Y-10837531D02*
X2962444Y-10856579D01*
X2962444Y-10856579D02*
X2971967Y-10894674D01*
X2971967Y-10894674D02*
X2971967Y-10942293D01*
X2971967Y-10942293D02*
X2962444Y-10980389D01*
X2962444Y-10980389D02*
X2952920Y-10999436D01*
X2952920Y-10999436D02*
X2943396Y-11008960D01*
X2943396Y-11008960D02*
X2924348Y-11018484D01*
X2924348Y-11018484D02*
X2905301Y-11018484D01*
X2905301Y-11018484D02*
X2886253Y-11008960D01*
X2886253Y-11008960D02*
X2876729Y-10999436D01*
X2876729Y-10999436D02*
X2867206Y-10980389D01*
X2867206Y-10980389D02*
X2857682Y-10942293D01*
X2857682Y-10942293D02*
X2857682Y-10894674D01*
X2857682Y-10894674D02*
X2867206Y-10856579D01*
X2867206Y-10856579D02*
X2876729Y-10837531D01*
X2876729Y-10837531D02*
X2886253Y-10828008D01*
X2886253Y-10828008D02*
X2905301Y-10818484D01*
X3162444Y-11018484D02*
X3048158Y-11018484D01*
X3105301Y-11018484D02*
X3105301Y-10818484D01*
X3105301Y-10818484D02*
X3086253Y-10847055D01*
X3086253Y-10847055D02*
X3067206Y-10866103D01*
X3067206Y-10866103D02*
X3048158Y-10875627D01*
X3238634Y-10818484D02*
X3238634Y-10856579D01*
X3314825Y-10818484D02*
X3314825Y-10856579D01*
X3610063Y-11094674D02*
X3600539Y-11085150D01*
X3600539Y-11085150D02*
X3581491Y-11056579D01*
X3581491Y-11056579D02*
X3571968Y-11037531D01*
X3571968Y-11037531D02*
X3562444Y-11008960D01*
X3562444Y-11008960D02*
X3552920Y-10961341D01*
X3552920Y-10961341D02*
X3552920Y-10923246D01*
X3552920Y-10923246D02*
X3562444Y-10875627D01*
X3562444Y-10875627D02*
X3571968Y-10847055D01*
X3571968Y-10847055D02*
X3581491Y-10828008D01*
X3581491Y-10828008D02*
X3600539Y-10799436D01*
X3600539Y-10799436D02*
X3610063Y-10789912D01*
X3791015Y-11018484D02*
X3676729Y-11018484D01*
X3733872Y-11018484D02*
X3733872Y-10818484D01*
X3733872Y-10818484D02*
X3714825Y-10847055D01*
X3714825Y-10847055D02*
X3695777Y-10866103D01*
X3695777Y-10866103D02*
X3676729Y-10875627D01*
X3971968Y-10818484D02*
X3876729Y-10818484D01*
X3876729Y-10818484D02*
X3867206Y-10913722D01*
X3867206Y-10913722D02*
X3876729Y-10904198D01*
X3876729Y-10904198D02*
X3895777Y-10894674D01*
X3895777Y-10894674D02*
X3943396Y-10894674D01*
X3943396Y-10894674D02*
X3962444Y-10904198D01*
X3962444Y-10904198D02*
X3971968Y-10913722D01*
X3971968Y-10913722D02*
X3981491Y-10932770D01*
X3981491Y-10932770D02*
X3981491Y-10980389D01*
X3981491Y-10980389D02*
X3971968Y-10999436D01*
X3971968Y-10999436D02*
X3962444Y-11008960D01*
X3962444Y-11008960D02*
X3943396Y-11018484D01*
X3943396Y-11018484D02*
X3895777Y-11018484D01*
X3895777Y-11018484D02*
X3876729Y-11008960D01*
X3876729Y-11008960D02*
X3867206Y-10999436D01*
X4057682Y-10837531D02*
X4067206Y-10828008D01*
X4067206Y-10828008D02*
X4086253Y-10818484D01*
X4086253Y-10818484D02*
X4133872Y-10818484D01*
X4133872Y-10818484D02*
X4152920Y-10828008D01*
X4152920Y-10828008D02*
X4162444Y-10837531D01*
X4162444Y-10837531D02*
X4171968Y-10856579D01*
X4171968Y-10856579D02*
X4171968Y-10875627D01*
X4171968Y-10875627D02*
X4162444Y-10904198D01*
X4162444Y-10904198D02*
X4048158Y-11018484D01*
X4048158Y-11018484D02*
X4171968Y-11018484D01*
X4410063Y-11018484D02*
X4410063Y-10818484D01*
X4495777Y-11018484D02*
X4495777Y-10913722D01*
X4495777Y-10913722D02*
X4486253Y-10894674D01*
X4486253Y-10894674D02*
X4467206Y-10885150D01*
X4467206Y-10885150D02*
X4438634Y-10885150D01*
X4438634Y-10885150D02*
X4419587Y-10894674D01*
X4419587Y-10894674D02*
X4410063Y-10904198D01*
X4619587Y-11018484D02*
X4600539Y-11008960D01*
X4600539Y-11008960D02*
X4591015Y-10999436D01*
X4591015Y-10999436D02*
X4581492Y-10980389D01*
X4581492Y-10980389D02*
X4581492Y-10923246D01*
X4581492Y-10923246D02*
X4591015Y-10904198D01*
X4591015Y-10904198D02*
X4600539Y-10894674D01*
X4600539Y-10894674D02*
X4619587Y-10885150D01*
X4619587Y-10885150D02*
X4648158Y-10885150D01*
X4648158Y-10885150D02*
X4667206Y-10894674D01*
X4667206Y-10894674D02*
X4676730Y-10904198D01*
X4676730Y-10904198D02*
X4686253Y-10923246D01*
X4686253Y-10923246D02*
X4686253Y-10980389D01*
X4686253Y-10980389D02*
X4676730Y-10999436D01*
X4676730Y-10999436D02*
X4667206Y-11008960D01*
X4667206Y-11008960D02*
X4648158Y-11018484D01*
X4648158Y-11018484D02*
X4619587Y-11018484D01*
X4800539Y-11018484D02*
X4781492Y-11008960D01*
X4781492Y-11008960D02*
X4771968Y-10989912D01*
X4771968Y-10989912D02*
X4771968Y-10818484D01*
X4952920Y-11008960D02*
X4933873Y-11018484D01*
X4933873Y-11018484D02*
X4895777Y-11018484D01*
X4895777Y-11018484D02*
X4876730Y-11008960D01*
X4876730Y-11008960D02*
X4867206Y-10989912D01*
X4867206Y-10989912D02*
X4867206Y-10913722D01*
X4867206Y-10913722D02*
X4876730Y-10894674D01*
X4876730Y-10894674D02*
X4895777Y-10885150D01*
X4895777Y-10885150D02*
X4933873Y-10885150D01*
X4933873Y-10885150D02*
X4952920Y-10894674D01*
X4952920Y-10894674D02*
X4962444Y-10913722D01*
X4962444Y-10913722D02*
X4962444Y-10932770D01*
X4962444Y-10932770D02*
X4867206Y-10951817D01*
X5038634Y-11008960D02*
X5057682Y-11018484D01*
X5057682Y-11018484D02*
X5095777Y-11018484D01*
X5095777Y-11018484D02*
X5114825Y-11008960D01*
X5114825Y-11008960D02*
X5124349Y-10989912D01*
X5124349Y-10989912D02*
X5124349Y-10980389D01*
X5124349Y-10980389D02*
X5114825Y-10961341D01*
X5114825Y-10961341D02*
X5095777Y-10951817D01*
X5095777Y-10951817D02*
X5067206Y-10951817D01*
X5067206Y-10951817D02*
X5048158Y-10942293D01*
X5048158Y-10942293D02*
X5038634Y-10923246D01*
X5038634Y-10923246D02*
X5038634Y-10913722D01*
X5038634Y-10913722D02*
X5048158Y-10894674D01*
X5048158Y-10894674D02*
X5067206Y-10885150D01*
X5067206Y-10885150D02*
X5095777Y-10885150D01*
X5095777Y-10885150D02*
X5114825Y-10894674D01*
X5191015Y-11094674D02*
X5200539Y-11085150D01*
X5200539Y-11085150D02*
X5219587Y-11056579D01*
X5219587Y-11056579D02*
X5229111Y-11037531D01*
X5229111Y-11037531D02*
X5238634Y-11008960D01*
X5238634Y-11008960D02*
X5248158Y-10961341D01*
X5248158Y-10961341D02*
X5248158Y-10923246D01*
X5248158Y-10923246D02*
X5238634Y-10875627D01*
X5238634Y-10875627D02*
X5229111Y-10847055D01*
X5229111Y-10847055D02*
X5219587Y-10828008D01*
X5219587Y-10828008D02*
X5200539Y-10799436D01*
X5200539Y-10799436D02*
X5191015Y-10789912D01*
M02*
