%TF.GenerationSoftware,KiCad,Pcbnew,8.0.6*%
%TF.CreationDate,2024-12-05T21:57:40+08:00*%
%TF.ProjectId,PH60_Rev2,50483630-5f52-4657-9632-2e6b69636164,rev?*%
%TF.SameCoordinates,Original*%
%TF.FileFunction,NonPlated,1,2,NPTH,Mixed*%
%TF.FilePolarity,Positive*%
%FSLAX46Y46*%
G04 Gerber Fmt 4.6, Leading zero omitted, Abs format (unit mm)*
G04 Created by KiCad (PCBNEW 8.0.6) date 2024-12-05 21:57:40*
%MOMM*%
%LPD*%
G01*
G04 APERTURE LIST*
%TA.AperFunction,ComponentDrill*%
%ADD10C,0.650000*%
%TD*%
%TA.AperFunction,ComponentDrill*%
%ADD11C,1.750000*%
%TD*%
G04 aperture for slot hole*
%TA.AperFunction,ComponentDrill*%
%ADD12C,2.500000*%
%TD*%
%TA.AperFunction,ComponentDrill*%
%ADD13C,2.500000*%
%TD*%
%TA.AperFunction,ComponentDrill*%
%ADD14C,3.048000*%
%TD*%
%TA.AperFunction,ComponentDrill*%
%ADD15C,3.987800*%
%TD*%
%TA.AperFunction,ComponentDrill*%
%ADD16C,4.000000*%
%TD*%
G04 APERTURE END LIST*
D10*
%TO.C,J1*%
X44260000Y-35180000D03*
X50040000Y-35180000D03*
D11*
%TO.C,S1*%
X33020000Y-38100000D03*
%TO.C,S43*%
X35401250Y-95250000D03*
%TO.C,S15*%
X37782500Y-57150000D03*
%TO.C,S29-2*%
X40481250Y-71120000D03*
X40481250Y-81280000D03*
%TO.C,S57*%
X40481250Y-109220000D03*
X40481250Y-119380000D03*
%TO.C,S57-2*%
X42862500Y-109220000D03*
X42862500Y-119380000D03*
%TO.C,S1*%
X43180000Y-38100000D03*
%TO.C,S43-2*%
X44926250Y-95250000D03*
%TO.C,S29*%
X45243750Y-71120000D03*
X45243750Y-81280000D03*
%TO.C,S43*%
X45561250Y-95250000D03*
%TO.C,S15*%
X47942500Y-57150000D03*
%TO.C,S2*%
X52070000Y-38100000D03*
%TO.C,S43-2*%
X55086250Y-95250000D03*
%TO.C,S44*%
X56832500Y-95250000D03*
%TO.C,S16*%
X61595000Y-57150000D03*
%TO.C,S2*%
X62230000Y-38100000D03*
%TO.C,S58*%
X64293750Y-109220000D03*
X64293750Y-119380000D03*
%TO.C,S30*%
X66357500Y-76200000D03*
%TO.C,S58-2*%
X66675000Y-109220000D03*
X66675000Y-119380000D03*
%TO.C,S44*%
X66992500Y-95250000D03*
%TO.C,S3*%
X71120000Y-38100000D03*
%TO.C,S16*%
X71755000Y-57150000D03*
%TO.C,S45*%
X75882500Y-95250000D03*
%TO.C,S30*%
X76517500Y-76200000D03*
%TO.C,S17*%
X80645000Y-57150000D03*
%TO.C,S3*%
X81280000Y-38100000D03*
%TO.C,S31*%
X85407500Y-76200000D03*
%TO.C,S45*%
X86042500Y-95250000D03*
%TO.C,S59*%
X88106250Y-109220000D03*
X88106250Y-119380000D03*
%TO.C,S4*%
X90170000Y-38100000D03*
%TO.C,S59-2*%
X90487500Y-109220000D03*
X90487500Y-119380000D03*
%TO.C,S17*%
X90805000Y-57150000D03*
%TO.C,S46*%
X94932500Y-95250000D03*
%TO.C,S31*%
X95567500Y-76200000D03*
%TO.C,S18*%
X99695000Y-57150000D03*
%TO.C,S4*%
X100330000Y-38100000D03*
%TO.C,S32*%
X104457500Y-76200000D03*
%TO.C,S46*%
X105092500Y-95250000D03*
%TO.C,S5*%
X109220000Y-38100000D03*
%TO.C,S18*%
X109855000Y-57150000D03*
%TO.C,S47*%
X113982500Y-95250000D03*
%TO.C,S32*%
X114617500Y-76200000D03*
%TO.C,S19*%
X118745000Y-57150000D03*
%TO.C,S5*%
X119380000Y-38100000D03*
%TO.C,S33*%
X123507500Y-76200000D03*
%TO.C,S47*%
X124142500Y-95250000D03*
%TO.C,S6*%
X128270000Y-38100000D03*
%TO.C,S19*%
X128905000Y-57150000D03*
%TO.C,S48*%
X133032500Y-95250000D03*
%TO.C,S33*%
X133667500Y-76200000D03*
%TO.C,S20*%
X137795000Y-57150000D03*
%TO.C,S6*%
X138430000Y-38100000D03*
%TO.C,S34*%
X142557500Y-76200000D03*
%TO.C,S48*%
X143192500Y-95250000D03*
%TO.C,S7*%
X147320000Y-38100000D03*
%TO.C,S20*%
X147955000Y-57150000D03*
%TO.C,S49*%
X152082500Y-95250000D03*
%TO.C,S34*%
X152717500Y-76200000D03*
%TO.C,S60*%
X154463750Y-114300000D03*
%TO.C,S21*%
X156845000Y-57150000D03*
%TO.C,S7*%
X157480000Y-38100000D03*
%TO.C,S35*%
X161607500Y-76200000D03*
%TO.C,S49*%
X162242500Y-95250000D03*
%TO.C,S60*%
X164623750Y-114300000D03*
%TO.C,S8*%
X166370000Y-38100000D03*
%TO.C,S60-2*%
X166370000Y-114300000D03*
%TO.C,S21*%
X167005000Y-57150000D03*
%TO.C,S50*%
X171132500Y-95250000D03*
%TO.C,S35*%
X171767500Y-76200000D03*
%TO.C,S22*%
X175895000Y-57150000D03*
%TO.C,S8*%
X176530000Y-38100000D03*
%TO.C,S60-2*%
X176530000Y-114300000D03*
%TO.C,S36*%
X180657500Y-76200000D03*
%TO.C,S50*%
X181292500Y-95250000D03*
%TO.C,S9*%
X185420000Y-38100000D03*
%TO.C,S22*%
X186055000Y-57150000D03*
%TO.C,S51*%
X190182500Y-95250000D03*
%TO.C,S36*%
X190817500Y-76200000D03*
%TO.C,S23*%
X194945000Y-57150000D03*
%TO.C,S9*%
X195580000Y-38100000D03*
%TO.C,S37*%
X199707500Y-76200000D03*
%TO.C,S51*%
X200342500Y-95250000D03*
%TO.C,S10*%
X204470000Y-38100000D03*
%TO.C,S23*%
X205105000Y-57150000D03*
%TO.C,S52*%
X209232500Y-95250000D03*
%TO.C,S37*%
X209867500Y-76200000D03*
%TO.C,S24*%
X213995000Y-57150000D03*
%TO.C,S10*%
X214630000Y-38100000D03*
%TO.C,S38*%
X218757500Y-76200000D03*
%TO.C,S52*%
X219392500Y-95250000D03*
%TO.C,S11*%
X223520000Y-38100000D03*
%TO.C,S24*%
X224155000Y-57150000D03*
%TO.C,S61*%
X225901250Y-114300000D03*
%TO.C,S53*%
X228282500Y-95250000D03*
%TO.C,S38*%
X228917500Y-76200000D03*
%TO.C,S25*%
X233045000Y-57150000D03*
%TO.C,S11*%
X233680000Y-38100000D03*
%TO.C,S61*%
X236061250Y-114300000D03*
%TO.C,S39*%
X237807500Y-76200000D03*
%TO.C,S53*%
X238442500Y-95250000D03*
%TO.C,S12*%
X242570000Y-38100000D03*
%TO.C,S25*%
X243205000Y-57150000D03*
%TO.C,S54*%
X247332500Y-95250000D03*
%TO.C,S39*%
X247967500Y-76200000D03*
%TO.C,S26*%
X252095000Y-57150000D03*
%TO.C,S62-2*%
X252412500Y-109220000D03*
X252412500Y-119380000D03*
%TO.C,S12*%
X252730000Y-38100000D03*
%TO.C,S62*%
X254793750Y-109220000D03*
X254793750Y-119380000D03*
%TO.C,S40*%
X256857500Y-76200000D03*
%TO.C,S54*%
X257492500Y-95250000D03*
%TO.C,S13*%
X261620000Y-38100000D03*
%TO.C,S26*%
X262255000Y-57150000D03*
%TO.C,S40*%
X267017500Y-76200000D03*
%TO.C,S27*%
X271145000Y-57150000D03*
%TO.C,S13*%
X271780000Y-38100000D03*
%TO.C,S63-2*%
X276225000Y-109220000D03*
X276225000Y-119380000D03*
%TO.C,S55*%
X278606250Y-90170000D03*
X278606250Y-100330000D03*
%TO.C,S63*%
X278606250Y-109220000D03*
X278606250Y-119380000D03*
%TO.C,S14-2*%
X280670000Y-38100000D03*
%TO.C,S41*%
X280987500Y-71120000D03*
X280987500Y-81280000D03*
%TO.C,S27*%
X281305000Y-57150000D03*
%TO.C,S55-2*%
X288131250Y-90170000D03*
X288131250Y-100330000D03*
%TO.C,S14*%
X290195000Y-38100000D03*
%TO.C,S14-2*%
X290830000Y-38100000D03*
%TO.C,S28-2*%
X292893750Y-71120000D03*
X292893750Y-81280000D03*
%TO.C,S42*%
X299720000Y-38100000D03*
%TO.C,S41-2*%
X300037500Y-52070000D03*
X300037500Y-62230000D03*
%TO.C,S64-2*%
X300037500Y-109220000D03*
X300037500Y-119380000D03*
%TO.C,S14*%
X300355000Y-38100000D03*
%TO.C,S28*%
X302418750Y-61595000D03*
X302418750Y-71755000D03*
%TO.C,S64*%
X302418750Y-109220000D03*
X302418750Y-119380000D03*
%TO.C,S56*%
X304800000Y-90170000D03*
X304800000Y-100330000D03*
%TO.C,S42*%
X309880000Y-38100000D03*
D12*
%TO.C,HOLE*%
X32660000Y-85400000D02*
X28160000Y-85400000D01*
D13*
X54150000Y-56800000D03*
D12*
X158400000Y-75900000D02*
X155900000Y-75900000D01*
X220700000Y-114100000D02*
X218200000Y-114100000D01*
X290250000Y-56800000D02*
X287750000Y-56800000D01*
X314740000Y-85400000D02*
X310240000Y-85400000D01*
D14*
%TO.C,REF\u002A\u002A*%
X38068250Y-102235000D03*
X61944250Y-102235000D03*
X109543750Y-121285000D03*
X114300000Y-121285000D03*
X209543750Y-121285000D03*
X228600000Y-121285000D03*
X276193250Y-88265000D03*
X280955750Y-69215000D03*
X283337000Y-31115000D03*
X295433750Y-54737000D03*
X295433750Y-78613000D03*
X300069250Y-88265000D03*
X304831750Y-69215000D03*
X307213000Y-31115000D03*
D15*
X38068250Y-87025000D03*
X61944250Y-87025000D03*
X109543750Y-106075000D03*
X114300000Y-106075000D03*
X209543750Y-106075000D03*
X228600000Y-106075000D03*
X276193250Y-103475000D03*
X280955750Y-84425000D03*
X283337000Y-46325000D03*
X300069250Y-103475000D03*
X304831750Y-84425000D03*
X307213000Y-46325000D03*
X310643750Y-54737000D03*
X310643750Y-78613000D03*
D16*
%TO.C,S1*%
X38100000Y-38100000D03*
%TO.C,S29-2*%
X40481250Y-76200000D03*
%TO.C,S43*%
X40481250Y-95250000D03*
%TO.C,S57*%
X40481250Y-114300000D03*
%TO.C,S15*%
X42862500Y-57150000D03*
%TO.C,S57-2*%
X42862500Y-114300000D03*
%TO.C,S29*%
X45243750Y-76200000D03*
%TO.C,S43-2*%
X50006250Y-95250000D03*
%TO.C,S2*%
X57150000Y-38100000D03*
%TO.C,S44*%
X61912500Y-95250000D03*
%TO.C,S58*%
X64293750Y-114300000D03*
%TO.C,S16*%
X66675000Y-57150000D03*
%TO.C,S58-2*%
X66675000Y-114300000D03*
%TO.C,S30*%
X71437500Y-76200000D03*
%TO.C,S3*%
X76200000Y-38100000D03*
%TO.C,S45*%
X80962500Y-95250000D03*
%TO.C,S17*%
X85725000Y-57150000D03*
%TO.C,S59*%
X88106250Y-114300000D03*
%TO.C,S31*%
X90487500Y-76200000D03*
%TO.C,S59-2*%
X90487500Y-114300000D03*
%TO.C,S4*%
X95250000Y-38100000D03*
%TO.C,S46*%
X100012500Y-95250000D03*
%TO.C,S18*%
X104775000Y-57150000D03*
%TO.C,S32*%
X109537500Y-76200000D03*
%TO.C,S5*%
X114300000Y-38100000D03*
%TO.C,S47*%
X119062500Y-95250000D03*
%TO.C,S19*%
X123825000Y-57150000D03*
%TO.C,S33*%
X128587500Y-76200000D03*
%TO.C,S6*%
X133350000Y-38100000D03*
%TO.C,S48*%
X138112500Y-95250000D03*
%TO.C,S20*%
X142875000Y-57150000D03*
%TO.C,S34*%
X147637500Y-76200000D03*
%TO.C,S7*%
X152400000Y-38100000D03*
%TO.C,S49*%
X157162500Y-95250000D03*
%TO.C,S60*%
X159543750Y-114300000D03*
%TO.C,S21*%
X161925000Y-57150000D03*
%TO.C,S35*%
X166687500Y-76200000D03*
%TO.C,S8*%
X171450000Y-38100000D03*
%TO.C,S60-2*%
X171450000Y-114300000D03*
%TO.C,S50*%
X176212500Y-95250000D03*
%TO.C,S22*%
X180975000Y-57150000D03*
%TO.C,S36*%
X185737500Y-76200000D03*
%TO.C,S9*%
X190500000Y-38100000D03*
%TO.C,S51*%
X195262500Y-95250000D03*
%TO.C,S23*%
X200025000Y-57150000D03*
%TO.C,S37*%
X204787500Y-76200000D03*
%TO.C,S10*%
X209550000Y-38100000D03*
%TO.C,S52*%
X214312500Y-95250000D03*
%TO.C,S24*%
X219075000Y-57150000D03*
%TO.C,S38*%
X223837500Y-76200000D03*
%TO.C,S11*%
X228600000Y-38100000D03*
%TO.C,S61*%
X230981250Y-114300000D03*
%TO.C,S53*%
X233362500Y-95250000D03*
%TO.C,S25*%
X238125000Y-57150000D03*
%TO.C,S39*%
X242887500Y-76200000D03*
%TO.C,S12*%
X247650000Y-38100000D03*
%TO.C,S54*%
X252412500Y-95250000D03*
%TO.C,S62-2*%
X252412500Y-114300000D03*
%TO.C,S62*%
X254793750Y-114300000D03*
%TO.C,S26*%
X257175000Y-57150000D03*
%TO.C,S40*%
X261937500Y-76200000D03*
%TO.C,S13*%
X266700000Y-38100000D03*
%TO.C,S27*%
X276225000Y-57150000D03*
%TO.C,S63-2*%
X276225000Y-114300000D03*
%TO.C,S55*%
X278606250Y-95250000D03*
%TO.C,S63*%
X278606250Y-114300000D03*
%TO.C,S41*%
X280987500Y-76200000D03*
%TO.C,S14-2*%
X285750000Y-38100000D03*
%TO.C,S55-2*%
X288131250Y-95250000D03*
%TO.C,S28-2*%
X292893750Y-76200000D03*
%TO.C,S14*%
X295275000Y-38100000D03*
%TO.C,S41-2*%
X300037500Y-57150000D03*
%TO.C,S64-2*%
X300037500Y-114300000D03*
%TO.C,S28*%
X302418750Y-66675000D03*
%TO.C,S64*%
X302418750Y-114300000D03*
%TO.C,S42*%
X304800000Y-38100000D03*
%TO.C,S56*%
X304800000Y-95250000D03*
M02*
