%TF.GenerationSoftware,KiCad,Pcbnew,8.0.7*%
%TF.CreationDate,2024-12-21T00:00:35+08:00*%
%TF.ProjectId,PH60_Rev2,50483630-5f52-4657-9632-2e6b69636164,rev?*%
%TF.SameCoordinates,PX1b40518PY1b40518*%
%TF.FileFunction,Component,L2,Bot*%
%TF.FilePolarity,Positive*%
%FSLAX46Y46*%
G04 Gerber Fmt 4.6, Leading zero omitted, Abs format (unit mm)*
G04 Created by KiCad (PCBNEW 8.0.7) date 2024-12-21 00:00:35*
%MOMM*%
%LPD*%
G01*
G04 APERTURE LIST*
%TA.AperFunction,ComponentMain*%
%ADD10C,0.300000*%
%TD*%
%TA.AperFunction,ComponentOutline,Courtyard*%
%ADD11C,0.100000*%
%TD*%
%TA.AperFunction,ComponentPin*%
%ADD12P,0.360000X4X0.000000*%
%TD*%
%TA.AperFunction,ComponentPin*%
%ADD13C,0.100000*%
%TD*%
G04 APERTURE END LIST*
D10*
%TO.C,D1*%
%TO.CFtp,D_SOD-123*%
%TO.CVal,DIODE*%
%TO.CLbN,Diode_SMD*%
%TO.CMnt,SMD*%
%TO.CRot,90*%
X4445000Y-6295000D03*
D11*
X5590000Y-3950000D02*
X5590000Y-8640000D01*
X3300000Y-8640000D01*
X3300000Y-3950000D01*
X5590000Y-3950000D01*
D12*
%TO.P,D1,1,K*%
X4445000Y-4645000D03*
D13*
%TO.P,D1,2,A*%
X4445000Y-7945000D03*
%TD*%
D10*
%TO.C,D46*%
%TO.CFtp,D_SOD-123*%
%TO.CVal,DIODE*%
%TO.CLbN,Diode_SMD*%
%TO.CMnt,SMD*%
%TO.CRot,-90*%
X66357500Y-69905000D03*
D11*
X67502500Y-67560000D02*
X67502500Y-72250000D01*
X65212500Y-72250000D01*
X65212500Y-67560000D01*
X67502500Y-67560000D01*
D12*
%TO.P,D46,1,K*%
X66357500Y-71555000D03*
D13*
%TO.P,D46,2,A*%
X66357500Y-68255000D03*
%TD*%
D10*
%TO.C,D32*%
%TO.CFtp,D_SOD-123*%
%TO.CVal,DIODE*%
%TO.CLbN,Diode_SMD*%
%TO.CMnt,SMD*%
%TO.CRot,-90*%
X75882500Y-50855000D03*
D11*
X77027500Y-48510000D02*
X77027500Y-53200000D01*
X74737500Y-53200000D01*
X74737500Y-48510000D01*
X77027500Y-48510000D01*
D12*
%TO.P,D32,1,K*%
X75882500Y-52505000D03*
D13*
%TO.P,D32,2,A*%
X75882500Y-49205000D03*
%TD*%
D10*
%TO.C,D34*%
%TO.CFtp,D_SOD-123*%
%TO.CVal,DIODE*%
%TO.CLbN,Diode_SMD*%
%TO.CMnt,SMD*%
%TO.CRot,-90*%
X113982500Y-50855000D03*
D11*
X115127500Y-48510000D02*
X115127500Y-53200000D01*
X112837500Y-53200000D01*
X112837500Y-48510000D01*
X115127500Y-48510000D01*
D12*
%TO.P,D34,1,K*%
X113982500Y-52505000D03*
D13*
%TO.P,D34,2,A*%
X113982500Y-49205000D03*
%TD*%
D10*
%TO.C,D41*%
%TO.CFtp,D_SOD-123*%
%TO.CVal,DIODE*%
%TO.CLbN,Diode_SMD*%
%TO.CMnt,SMD*%
%TO.CRot,90*%
X242412500Y-54155000D03*
D11*
X243557500Y-51810000D02*
X243557500Y-56500000D01*
X241267500Y-56500000D01*
X241267500Y-51810000D01*
X243557500Y-51810000D01*
D12*
%TO.P,D41,1,K*%
X242412500Y-52505000D03*
D13*
%TO.P,D41,2,A*%
X242412500Y-55805000D03*
%TD*%
D10*
%TO.C,D56*%
%TO.CFtp,D_SOD-123*%
%TO.CVal,DIODE*%
%TO.CLbN,Diode_SMD*%
%TO.CMnt,SMD*%
%TO.CRot,-90*%
X271145000Y-66675000D03*
D11*
X272290000Y-64330000D02*
X272290000Y-69020000D01*
X270000000Y-69020000D01*
X270000000Y-64330000D01*
X272290000Y-64330000D01*
D12*
%TO.P,D56,1,K*%
X271145000Y-68325000D03*
D13*
%TO.P,D56,2,A*%
X271145000Y-65025000D03*
%TD*%
D10*
%TO.C,D50*%
%TO.CFtp,D_SOD-123*%
%TO.CVal,DIODE*%
%TO.CLbN,Diode_SMD*%
%TO.CMnt,SMD*%
%TO.CRot,-90*%
X142557500Y-69905000D03*
D11*
X143702500Y-67560000D02*
X143702500Y-72250000D01*
X141412500Y-72250000D01*
X141412500Y-67560000D01*
X143702500Y-67560000D01*
D12*
%TO.P,D50,1,K*%
X142557500Y-71555000D03*
D13*
%TO.P,D50,2,A*%
X142557500Y-68255000D03*
%TD*%
D10*
%TO.C,D51*%
%TO.CFtp,D_SOD-123*%
%TO.CVal,DIODE*%
%TO.CLbN,Diode_SMD*%
%TO.CMnt,SMD*%
%TO.CRot,-90*%
X161607500Y-69905000D03*
D11*
X162752500Y-67560000D02*
X162752500Y-72250000D01*
X160462500Y-72250000D01*
X160462500Y-67560000D01*
X162752500Y-67560000D01*
D12*
%TO.P,D51,1,K*%
X161607500Y-71555000D03*
D13*
%TO.P,D51,2,A*%
X161607500Y-68255000D03*
%TD*%
D10*
%TO.C,D5*%
%TO.CFtp,D_SOD-123*%
%TO.CVal,DIODE*%
%TO.CLbN,Diode_SMD*%
%TO.CMnt,SMD*%
%TO.CRot,-90*%
X80645000Y-12755000D03*
D11*
X81790000Y-10410000D02*
X81790000Y-15100000D01*
X79500000Y-15100000D01*
X79500000Y-10410000D01*
X81790000Y-10410000D01*
D12*
%TO.P,D5,1,K*%
X80645000Y-14405000D03*
D13*
%TO.P,D5,2,A*%
X80645000Y-11105000D03*
%TD*%
D10*
%TO.C,R1*%
%TO.CFtp,R_0402_1005Metric*%
%TO.CVal,1k*%
%TO.CLbN,Resistor_SMD*%
%TO.CMnt,SMD*%
%TO.CRot,180*%
X99380000Y-78425000D03*
D11*
X100305000Y-77960000D02*
X100305000Y-78890000D01*
X98455000Y-78890000D01*
X98455000Y-77960000D01*
X100305000Y-77960000D01*
D12*
%TO.P,R1,1*%
X98870000Y-78425000D03*
D13*
%TO.P,R1,2*%
X99890000Y-78425000D03*
%TD*%
D10*
%TO.C,D38*%
%TO.CFtp,D_SOD-123*%
%TO.CVal,DIODE*%
%TO.CLbN,Diode_SMD*%
%TO.CMnt,SMD*%
%TO.CRot,-90*%
X190182500Y-50855000D03*
D11*
X191327500Y-48510000D02*
X191327500Y-53200000D01*
X189037500Y-53200000D01*
X189037500Y-48510000D01*
X191327500Y-48510000D01*
D12*
%TO.P,D38,1,K*%
X190182500Y-52505000D03*
D13*
%TO.P,D38,2,A*%
X190182500Y-49205000D03*
%TD*%
D10*
%TO.C,D52*%
%TO.CFtp,D_SOD-123*%
%TO.CVal,DIODE*%
%TO.CLbN,Diode_SMD*%
%TO.CMnt,SMD*%
%TO.CRot,-90*%
X180657500Y-69905000D03*
D11*
X181802500Y-67560000D02*
X181802500Y-72250000D01*
X179512500Y-72250000D01*
X179512500Y-67560000D01*
X181802500Y-67560000D01*
D12*
%TO.P,D52,1,K*%
X180657500Y-71555000D03*
D13*
%TO.P,D52,2,A*%
X180657500Y-68255000D03*
%TD*%
D10*
%TO.C,D60*%
%TO.CFtp,D_SOD-123*%
%TO.CVal,DIODE*%
%TO.CLbN,Diode_SMD*%
%TO.CMnt,SMD*%
%TO.CRot,-90*%
X125888750Y-88955000D03*
D11*
X127033750Y-86610000D02*
X127033750Y-91300000D01*
X124743750Y-91300000D01*
X124743750Y-86610000D01*
X127033750Y-86610000D01*
D12*
%TO.P,D60,1,K*%
X125888750Y-90605000D03*
D13*
%TO.P,D60,2,A*%
X125888750Y-87305000D03*
%TD*%
D10*
%TO.C,D48*%
%TO.CFtp,D_SOD-123*%
%TO.CVal,DIODE*%
%TO.CLbN,Diode_SMD*%
%TO.CMnt,SMD*%
%TO.CRot,-90*%
X104457500Y-69905000D03*
D11*
X105602500Y-67560000D02*
X105602500Y-72250000D01*
X103312500Y-72250000D01*
X103312500Y-67560000D01*
X105602500Y-67560000D01*
D12*
%TO.P,D48,1,K*%
X104457500Y-71555000D03*
D13*
%TO.P,D48,2,A*%
X104457500Y-68255000D03*
%TD*%
D10*
%TO.C,D20*%
%TO.CFtp,D_SOD-123*%
%TO.CVal,DIODE*%
%TO.CLbN,Diode_SMD*%
%TO.CMnt,SMD*%
%TO.CRot,-90*%
X109220000Y-31805000D03*
D11*
X110365000Y-29460000D02*
X110365000Y-34150000D01*
X108075000Y-34150000D01*
X108075000Y-29460000D01*
X110365000Y-29460000D01*
D12*
%TO.P,D20,1,K*%
X109220000Y-33455000D03*
D13*
%TO.P,D20,2,A*%
X109220000Y-30155000D03*
%TD*%
D10*
%TO.C,C8*%
%TO.CFtp,C_0402_1005Metric*%
%TO.CVal,1u*%
%TO.CLbN,Capacitor_SMD*%
%TO.CMnt,SMD*%
%TO.CRot,0*%
X100875000Y-88025000D03*
D11*
X101780000Y-87570000D02*
X101780000Y-88480000D01*
X99970000Y-88480000D01*
X99970000Y-87570000D01*
X101780000Y-87570000D01*
D12*
%TO.P,C8,1*%
X101355000Y-88025000D03*
D13*
%TO.P,C8,2*%
X100395000Y-88025000D03*
%TD*%
D10*
%TO.C,R4*%
%TO.CFtp,R_0402_1005Metric*%
%TO.CVal,27.4*%
%TO.CLbN,Resistor_SMD*%
%TO.CMnt,SMD*%
%TO.CRot,180*%
X100875000Y-87025000D03*
D11*
X101800000Y-86560000D02*
X101800000Y-87490000D01*
X99950000Y-87490000D01*
X99950000Y-86560000D01*
X101800000Y-86560000D01*
D12*
%TO.P,R4,1*%
X100365000Y-87025000D03*
D13*
%TO.P,R4,2*%
X101385000Y-87025000D03*
%TD*%
D10*
%TO.C,D42*%
%TO.CFtp,D_SOD-123*%
%TO.CVal,DIODE*%
%TO.CLbN,Diode_SMD*%
%TO.CMnt,SMD*%
%TO.CRot,-90*%
X255462500Y-28575000D03*
D11*
X256607500Y-26230000D02*
X256607500Y-30920000D01*
X254317500Y-30920000D01*
X254317500Y-26230000D01*
X256607500Y-26230000D01*
D12*
%TO.P,D42,1,K*%
X255462500Y-30225000D03*
D13*
%TO.P,D42,2,A*%
X255462500Y-26925000D03*
%TD*%
D10*
%TO.C,D55*%
%TO.CFtp,D_SOD-123*%
%TO.CVal,DIODE*%
%TO.CLbN,Diode_SMD*%
%TO.CMnt,SMD*%
%TO.CRot,180*%
X238000000Y-71555000D03*
D11*
X240345000Y-70410000D02*
X240345000Y-72700000D01*
X235655000Y-72700000D01*
X235655000Y-70410000D01*
X240345000Y-70410000D01*
D12*
%TO.P,D55,1,K*%
X236350000Y-71555000D03*
D13*
%TO.P,D55,2,A*%
X239650000Y-71555000D03*
%TD*%
D10*
%TO.C,D49*%
%TO.CFtp,D_SOD-123*%
%TO.CVal,DIODE*%
%TO.CLbN,Diode_SMD*%
%TO.CMnt,SMD*%
%TO.CRot,-90*%
X123507500Y-69905000D03*
D11*
X124652500Y-67560000D02*
X124652500Y-72250000D01*
X122362500Y-72250000D01*
X122362500Y-67560000D01*
X124652500Y-67560000D01*
D12*
%TO.P,D49,1,K*%
X123507500Y-71555000D03*
D13*
%TO.P,D49,2,A*%
X123507500Y-68255000D03*
%TD*%
D10*
%TO.C,D64*%
%TO.CFtp,D_SOD-123*%
%TO.CVal,DIODE*%
%TO.CLbN,Diode_SMD*%
%TO.CMnt,SMD*%
%TO.CRot,90*%
X261462500Y-78995000D03*
D11*
X262607500Y-76650000D02*
X262607500Y-81340000D01*
X260317500Y-81340000D01*
X260317500Y-76650000D01*
X262607500Y-76650000D01*
D12*
%TO.P,D64,1,K*%
X261462500Y-77345000D03*
D13*
%TO.P,D64,2,A*%
X261462500Y-80645000D03*
%TD*%
D10*
%TO.C,D27*%
%TO.CFtp,D_SOD-123*%
%TO.CVal,DIODE*%
%TO.CLbN,Diode_SMD*%
%TO.CMnt,SMD*%
%TO.CRot,-90*%
X242570000Y-31805000D03*
D11*
X243715000Y-29460000D02*
X243715000Y-34150000D01*
X241425000Y-34150000D01*
X241425000Y-29460000D01*
X243715000Y-29460000D01*
D12*
%TO.P,D27,1,K*%
X242570000Y-33455000D03*
D13*
%TO.P,D27,2,A*%
X242570000Y-30155000D03*
%TD*%
D10*
%TO.C,C10*%
%TO.CFtp,C_0402_1005Metric*%
%TO.CVal,1u*%
%TO.CLbN,Capacitor_SMD*%
%TO.CMnt,SMD*%
%TO.CRot,0*%
X100875000Y-89025000D03*
D11*
X101780000Y-88570000D02*
X101780000Y-89480000D01*
X99970000Y-89480000D01*
X99970000Y-88570000D01*
X101780000Y-88570000D01*
D12*
%TO.P,C10,1*%
X101355000Y-89025000D03*
D13*
%TO.P,C10,2*%
X100395000Y-89025000D03*
%TD*%
D10*
%TO.C,D3*%
%TO.CFtp,D_SOD-123*%
%TO.CVal,DIODE*%
%TO.CLbN,Diode_SMD*%
%TO.CMnt,SMD*%
%TO.CRot,-90*%
X42545000Y-12755000D03*
D11*
X43690000Y-10410000D02*
X43690000Y-15100000D01*
X41400000Y-15100000D01*
X41400000Y-10410000D01*
X43690000Y-10410000D01*
D12*
%TO.P,D3,1,K*%
X42545000Y-14405000D03*
D13*
%TO.P,D3,2,A*%
X42545000Y-11105000D03*
%TD*%
D10*
%TO.C,R6*%
%TO.CFtp,R_0402_1005Metric*%
%TO.CVal,5K1*%
%TO.CLbN,Resistor_SMD*%
%TO.CMnt,SMD*%
%TO.CRot,0*%
X16815000Y-8675000D03*
D11*
X17740000Y-8210000D02*
X17740000Y-9140000D01*
X15890000Y-9140000D01*
X15890000Y-8210000D01*
X17740000Y-8210000D01*
D12*
%TO.P,R6,1*%
X17325000Y-8675000D03*
D13*
%TO.P,R6,2*%
X16305000Y-8675000D03*
%TD*%
D10*
%TO.C,D4*%
%TO.CFtp,D_SOD-123*%
%TO.CVal,DIODE*%
%TO.CLbN,Diode_SMD*%
%TO.CMnt,SMD*%
%TO.CRot,-90*%
X61595000Y-12755000D03*
D11*
X62740000Y-10410000D02*
X62740000Y-15100000D01*
X60450000Y-15100000D01*
X60450000Y-10410000D01*
X62740000Y-10410000D01*
D12*
%TO.P,D4,1,K*%
X61595000Y-14405000D03*
D13*
%TO.P,D4,2,A*%
X61595000Y-11105000D03*
%TD*%
D10*
%TO.C,D33*%
%TO.CFtp,D_SOD-123*%
%TO.CVal,DIODE*%
%TO.CLbN,Diode_SMD*%
%TO.CMnt,SMD*%
%TO.CRot,-90*%
X94932500Y-50855000D03*
D11*
X96077500Y-48510000D02*
X96077500Y-53200000D01*
X93787500Y-53200000D01*
X93787500Y-48510000D01*
X96077500Y-48510000D01*
D12*
%TO.P,D33,1,K*%
X94932500Y-52505000D03*
D13*
%TO.P,D33,2,A*%
X94932500Y-49205000D03*
%TD*%
D10*
%TO.C,C9*%
%TO.CFtp,C_0402_1005Metric*%
%TO.CVal,100n*%
%TO.CLbN,Capacitor_SMD*%
%TO.CMnt,SMD*%
%TO.CRot,90*%
X102355000Y-89505000D03*
D11*
X102810000Y-88600000D02*
X102810000Y-90410000D01*
X101900000Y-90410000D01*
X101900000Y-88600000D01*
X102810000Y-88600000D01*
D12*
%TO.P,C9,1*%
X102355000Y-89025000D03*
D13*
%TO.P,C9,2*%
X102355000Y-89985000D03*
%TD*%
D10*
%TO.C,C7*%
%TO.CFtp,C_0402_1005Metric*%
%TO.CVal,100n*%
%TO.CLbN,Capacitor_SMD*%
%TO.CMnt,SMD*%
%TO.CRot,0*%
X100875000Y-84025000D03*
D11*
X101780000Y-83570000D02*
X101780000Y-84480000D01*
X99970000Y-84480000D01*
X99970000Y-83570000D01*
X101780000Y-83570000D01*
D12*
%TO.P,C7,1*%
X101355000Y-84025000D03*
D13*
%TO.P,C7,2*%
X100395000Y-84025000D03*
%TD*%
D10*
%TO.C,D17*%
%TO.CFtp,D_SOD-123*%
%TO.CVal,DIODE*%
%TO.CLbN,Diode_SMD*%
%TO.CMnt,SMD*%
%TO.CRot,-90*%
X52070000Y-31805000D03*
D11*
X53215000Y-29460000D02*
X53215000Y-34150000D01*
X50925000Y-34150000D01*
X50925000Y-29460000D01*
X53215000Y-29460000D01*
D12*
%TO.P,D17,1,K*%
X52070000Y-33455000D03*
D13*
%TO.P,D17,2,A*%
X52070000Y-30155000D03*
%TD*%
D10*
%TO.C,Y1*%
%TO.CFtp,Crystal_SMD_3225-4Pin_3.2x2.5mm*%
%TO.CVal,Crystal_GND24*%
%TO.CLbN,Crystal*%
%TO.CMnt,SMD*%
%TO.CRot,0*%
X116525000Y-84625000D03*
D11*
X118620000Y-82930000D02*
X118620000Y-86320000D01*
X114430000Y-86320000D01*
X114430000Y-82930000D01*
X118620000Y-82930000D01*
D12*
%TO.P,Y1,1,1*%
X117625000Y-85475000D03*
D13*
%TO.P,Y1,2,2*%
X115425000Y-85475000D03*
%TO.P,Y1,3,3*%
X115425000Y-83775000D03*
%TO.P,Y1,4,4*%
X117625000Y-83775000D03*
%TD*%
D10*
%TO.C,U2*%
%TO.CFtp,Winbond_USON-8-1EP_3x2mm_P0.5mm_EP0.2x1.6mm*%
%TO.CVal,W25Q128JVS*%
%TO.CLbN,Package_SON*%
%TO.CMnt,SMD*%
%TO.CRot,0*%
X99765000Y-81440000D03*
D11*
X101890000Y-80195000D02*
X101890000Y-82685000D01*
X97640000Y-82685000D01*
X97640000Y-80195000D01*
X101890000Y-80195000D01*
D12*
%TO.P,U2,1,~{CS}*%
X101190000Y-80690000D03*
D13*
%TO.P,U2,2,DO(IO1)*%
X101190000Y-81190000D03*
%TO.P,U2,3,IO2*%
X101190000Y-81690000D03*
%TO.P,U2,4,GND*%
X101190000Y-82190000D03*
%TO.P,U2,5,DI(IO0)*%
X98340000Y-82190000D03*
%TO.P,U2,6,CLK*%
X98340000Y-81690000D03*
%TO.P,U2,7,IO3*%
X98340000Y-81190000D03*
%TO.P,U2,8,VCC*%
X98340000Y-80690000D03*
%TO.P,U2,9*%
X99765000Y-81440000D03*
%TD*%
D10*
%TO.C,C2*%
%TO.CFtp,C_0402_1005Metric*%
%TO.CVal,20p*%
%TO.CLbN,Capacitor_SMD*%
%TO.CMnt,SMD*%
%TO.CRot,180*%
X116525000Y-82375000D03*
D11*
X117430000Y-81920000D02*
X117430000Y-82830000D01*
X115620000Y-82830000D01*
X115620000Y-81920000D01*
X117430000Y-81920000D01*
D12*
%TO.P,C2,1*%
X116045000Y-82375000D03*
D13*
%TO.P,C2,2*%
X117005000Y-82375000D03*
%TD*%
D10*
%TO.C,D28*%
%TO.CFtp,D_SOD-123*%
%TO.CVal,DIODE*%
%TO.CLbN,Diode_SMD*%
%TO.CMnt,SMD*%
%TO.CRot,180*%
X255462500Y-33455000D03*
D11*
X257807500Y-32310000D02*
X257807500Y-34600000D01*
X253117500Y-34600000D01*
X253117500Y-32310000D01*
X257807500Y-32310000D01*
D12*
%TO.P,D28,1,K*%
X253812500Y-33455000D03*
D13*
%TO.P,D28,2,A*%
X257112500Y-33455000D03*
%TD*%
D10*
%TO.C,D63*%
%TO.CFtp,D_SOD-123*%
%TO.CVal,DIODE*%
%TO.CLbN,Diode_SMD*%
%TO.CMnt,SMD*%
%TO.CRot,90*%
X237650000Y-78995000D03*
D11*
X238795000Y-76650000D02*
X238795000Y-81340000D01*
X236505000Y-81340000D01*
X236505000Y-76650000D01*
X238795000Y-76650000D01*
D12*
%TO.P,D63,1,K*%
X237650000Y-77345000D03*
D13*
%TO.P,D63,2,A*%
X237650000Y-80645000D03*
%TD*%
D10*
%TO.C,D31*%
%TO.CFtp,D_SOD-123*%
%TO.CVal,DIODE*%
%TO.CLbN,Diode_SMD*%
%TO.CMnt,SMD*%
%TO.CRot,-90*%
X56832500Y-50855000D03*
D11*
X57977500Y-48510000D02*
X57977500Y-53200000D01*
X55687500Y-53200000D01*
X55687500Y-48510000D01*
X57977500Y-48510000D01*
D12*
%TO.P,D31,1,K*%
X56832500Y-52505000D03*
D13*
%TO.P,D31,2,A*%
X56832500Y-49205000D03*
%TD*%
D10*
%TO.C,U3*%
%TO.CFtp,QFN-56-1EP_7x7mm_P0.4mm_EP3.2x3.2mm*%
%TO.CVal,RP2040*%
%TO.CLbN,Package_DFN_QFN*%
%TO.CMnt,SMD*%
%TO.CRot,90*%
X107325000Y-85025000D03*
D11*
X111450000Y-80900000D02*
X111450000Y-89150000D01*
X103200000Y-89150000D01*
X103200000Y-80900000D01*
X111450000Y-80900000D01*
D12*
%TO.P,U3,1,IOVDD*%
X104725000Y-81587500D03*
D13*
%TO.P,U3,2,GPIO0*%
X105125000Y-81587500D03*
%TO.P,U3,3,GPIO1*%
X105525000Y-81587500D03*
%TO.P,U3,4,GPIO2*%
X105925000Y-81587500D03*
%TO.P,U3,5,GPIO3*%
X106325000Y-81587500D03*
%TO.P,U3,6,GPIO4*%
X106725000Y-81587500D03*
%TO.P,U3,7,GPIO5*%
X107125000Y-81587500D03*
%TO.P,U3,8,GPIO6*%
X107525000Y-81587500D03*
%TO.P,U3,9,GPIO7*%
X107925000Y-81587500D03*
%TO.P,U3,10,IOVDD*%
X108325000Y-81587500D03*
%TO.P,U3,11,GPIO8*%
X108725000Y-81587500D03*
%TO.P,U3,12,GPIO9*%
X109125000Y-81587500D03*
%TO.P,U3,13,GPIO10*%
X109525000Y-81587500D03*
%TO.P,U3,14,GPIO11*%
X109925000Y-81587500D03*
%TO.P,U3,15,GPIO12*%
X110762500Y-82425000D03*
%TO.P,U3,16,GPIO13*%
X110762500Y-82825000D03*
%TO.P,U3,17,GPIO14*%
X110762500Y-83225000D03*
%TO.P,U3,18,GPIO15*%
X110762500Y-83625000D03*
%TO.P,U3,19,TESTEN*%
X110762500Y-84025000D03*
%TO.P,U3,20,XIN*%
X110762500Y-84425000D03*
%TO.P,U3,21,XOUT*%
X110762500Y-84825000D03*
%TO.P,U3,22,IOVDD*%
X110762500Y-85225000D03*
%TO.P,U3,23,DVDD*%
X110762500Y-85625000D03*
%TO.P,U3,24,SWCLK*%
X110762500Y-86025000D03*
%TO.P,U3,25,SWD*%
X110762500Y-86425000D03*
%TO.P,U3,26,RUN*%
X110762500Y-86825000D03*
%TO.P,U3,27,GPIO16*%
X110762500Y-87225000D03*
%TO.P,U3,28,GPIO17*%
X110762500Y-87625000D03*
%TO.P,U3,29,GPIO18*%
X109925000Y-88462500D03*
%TO.P,U3,30,GPIO19*%
X109525000Y-88462500D03*
%TO.P,U3,31,GPIO20*%
X109125000Y-88462500D03*
%TO.P,U3,32,GPIO21*%
X108725000Y-88462500D03*
%TO.P,U3,33,IOVDD*%
X108325000Y-88462500D03*
%TO.P,U3,34,GPIO22*%
X107925000Y-88462500D03*
%TO.P,U3,35,GPIO23*%
X107525000Y-88462500D03*
%TO.P,U3,36,GPIO24*%
X107125000Y-88462500D03*
%TO.P,U3,37,GPIO25*%
X106725000Y-88462500D03*
%TO.P,U3,38,GPIO26_ADC0*%
X106325000Y-88462500D03*
%TO.P,U3,39,GPIO27_ADC1*%
X105925000Y-88462500D03*
%TO.P,U3,40,GPIO28_ADC2*%
X105525000Y-88462500D03*
%TO.P,U3,41,GPIO29_ADC3*%
X105125000Y-88462500D03*
%TO.P,U3,42,IOVDD*%
X104725000Y-88462500D03*
%TO.P,U3,43,ADC_AVDD*%
X103887500Y-87625000D03*
%TO.P,U3,44,VREG_IN*%
X103887500Y-87225000D03*
%TO.P,U3,45,VREG_VOUT*%
X103887500Y-86825000D03*
%TO.P,U3,46,USB_DM*%
X103887500Y-86425000D03*
%TO.P,U3,47,USB_DP*%
X103887500Y-86025000D03*
%TO.P,U3,48,USB_VDD*%
X103887500Y-85625000D03*
%TO.P,U3,49,IOVDD*%
X103887500Y-85225000D03*
%TO.P,U3,50,DVDD*%
X103887500Y-84825000D03*
%TO.P,U3,51,QSPI_SD3*%
X103887500Y-84425000D03*
%TO.P,U3,52,QSPI_SCLK*%
X103887500Y-84025000D03*
%TO.P,U3,53,QSPI_SD0*%
X103887500Y-83625000D03*
%TO.P,U3,54,QSPI_SD2*%
X103887500Y-83225000D03*
%TO.P,U3,55,QSPI_SD1*%
X103887500Y-82825000D03*
%TO.P,U3,56,QSPI_SS*%
X103887500Y-82425000D03*
%TO.P,U3,57,GND*%
X107325000Y-85025000D03*
%TD*%
D10*
%TO.C,C4*%
%TO.CFtp,C_0402_1005Metric*%
%TO.CVal,1u*%
%TO.CLbN,Capacitor_SMD*%
%TO.CMnt,SMD*%
%TO.CRot,-90*%
X93500000Y-81170000D03*
D11*
X93955000Y-80265000D02*
X93955000Y-82075000D01*
X93045000Y-82075000D01*
X93045000Y-80265000D01*
X93955000Y-80265000D01*
D12*
%TO.P,C4,1*%
X93500000Y-81650000D03*
D13*
%TO.P,C4,2*%
X93500000Y-80690000D03*
%TD*%
D10*
%TO.C,D29*%
%TO.CFtp,D_SOD-123*%
%TO.CVal,DIODE*%
%TO.CLbN,Diode_SMD*%
%TO.CMnt,SMD*%
%TO.CRot,-90*%
X26668750Y-50855000D03*
D11*
X27813750Y-48510000D02*
X27813750Y-53200000D01*
X25523750Y-53200000D01*
X25523750Y-48510000D01*
X27813750Y-48510000D01*
D12*
%TO.P,D29,1,K*%
X26668750Y-52505000D03*
D13*
%TO.P,D29,2,A*%
X26668750Y-49205000D03*
%TD*%
D10*
%TO.C,D40*%
%TO.CFtp,D_SOD-123*%
%TO.CVal,DIODE*%
%TO.CLbN,Diode_SMD*%
%TO.CMnt,SMD*%
%TO.CRot,-90*%
X228282500Y-50855000D03*
D11*
X229427500Y-48510000D02*
X229427500Y-53200000D01*
X227137500Y-53200000D01*
X227137500Y-48510000D01*
X229427500Y-48510000D01*
D12*
%TO.P,D40,1,K*%
X228282500Y-52505000D03*
D13*
%TO.P,D40,2,A*%
X228282500Y-49205000D03*
%TD*%
D10*
%TO.C,D47*%
%TO.CFtp,D_SOD-123*%
%TO.CVal,DIODE*%
%TO.CLbN,Diode_SMD*%
%TO.CMnt,SMD*%
%TO.CRot,-90*%
X85407500Y-69905000D03*
D11*
X86552500Y-67560000D02*
X86552500Y-72250000D01*
X84262500Y-72250000D01*
X84262500Y-67560000D01*
X86552500Y-67560000D01*
D12*
%TO.P,D47,1,K*%
X85407500Y-71555000D03*
D13*
%TO.P,D47,2,A*%
X85407500Y-68255000D03*
%TD*%
D10*
%TO.C,D9*%
%TO.CFtp,D_SOD-123*%
%TO.CVal,DIODE*%
%TO.CLbN,Diode_SMD*%
%TO.CMnt,SMD*%
%TO.CRot,-90*%
X156845000Y-12755000D03*
D11*
X157990000Y-10410000D02*
X157990000Y-15100000D01*
X155700000Y-15100000D01*
X155700000Y-10410000D01*
X157990000Y-10410000D01*
D12*
%TO.P,D9,1,K*%
X156845000Y-14405000D03*
D13*
%TO.P,D9,2,A*%
X156845000Y-11105000D03*
%TD*%
D10*
%TO.C,R5*%
%TO.CFtp,R_0402_1005Metric*%
%TO.CVal,1k*%
%TO.CLbN,Resistor_SMD*%
%TO.CMnt,SMD*%
%TO.CRot,0*%
X116525000Y-86875000D03*
D11*
X117450000Y-86410000D02*
X117450000Y-87340000D01*
X115600000Y-87340000D01*
X115600000Y-86410000D01*
X117450000Y-86410000D01*
D12*
%TO.P,R5,1*%
X117035000Y-86875000D03*
D13*
%TO.P,R5,2*%
X116015000Y-86875000D03*
%TD*%
D10*
%TO.C,D45*%
%TO.CFtp,D_SOD-123*%
%TO.CVal,DIODE*%
%TO.CLbN,Diode_SMD*%
%TO.CMnt,SMD*%
%TO.CRot,-90*%
X47307500Y-69905000D03*
D11*
X48452500Y-67560000D02*
X48452500Y-72250000D01*
X46162500Y-72250000D01*
X46162500Y-67560000D01*
X48452500Y-67560000D01*
D12*
%TO.P,D45,1,K*%
X47307500Y-71555000D03*
D13*
%TO.P,D45,2,A*%
X47307500Y-68255000D03*
%TD*%
D10*
%TO.C,D54*%
%TO.CFtp,D_SOD-123*%
%TO.CVal,DIODE*%
%TO.CLbN,Diode_SMD*%
%TO.CMnt,SMD*%
%TO.CRot,-90*%
X218757500Y-69905000D03*
D11*
X219902500Y-67560000D02*
X219902500Y-72250000D01*
X217612500Y-72250000D01*
X217612500Y-67560000D01*
X219902500Y-67560000D01*
D12*
%TO.P,D54,1,K*%
X218757500Y-71555000D03*
D13*
%TO.P,D54,2,A*%
X218757500Y-68255000D03*
%TD*%
D10*
%TO.C,D7*%
%TO.CFtp,D_SOD-123*%
%TO.CVal,DIODE*%
%TO.CLbN,Diode_SMD*%
%TO.CMnt,SMD*%
%TO.CRot,-90*%
X118745000Y-12755000D03*
D11*
X119890000Y-10410000D02*
X119890000Y-15100000D01*
X117600000Y-15100000D01*
X117600000Y-10410000D01*
X119890000Y-10410000D01*
D12*
%TO.P,D7,1,K*%
X118745000Y-14405000D03*
D13*
%TO.P,D7,2,A*%
X118745000Y-11105000D03*
%TD*%
D10*
%TO.C,D53*%
%TO.CFtp,D_SOD-123*%
%TO.CVal,DIODE*%
%TO.CLbN,Diode_SMD*%
%TO.CMnt,SMD*%
%TO.CRot,-90*%
X199707500Y-69905000D03*
D11*
X200852500Y-67560000D02*
X200852500Y-72250000D01*
X198562500Y-72250000D01*
X198562500Y-67560000D01*
X200852500Y-67560000D01*
D12*
%TO.P,D53,1,K*%
X199707500Y-71555000D03*
D13*
%TO.P,D53,2,A*%
X199707500Y-68255000D03*
%TD*%
D10*
%TO.C,D24*%
%TO.CFtp,D_SOD-123*%
%TO.CVal,DIODE*%
%TO.CLbN,Diode_SMD*%
%TO.CMnt,SMD*%
%TO.CRot,-90*%
X185420000Y-31805000D03*
D11*
X186565000Y-29460000D02*
X186565000Y-34150000D01*
X184275000Y-34150000D01*
X184275000Y-29460000D01*
X186565000Y-29460000D01*
D12*
%TO.P,D24,1,K*%
X185420000Y-33455000D03*
D13*
%TO.P,D24,2,A*%
X185420000Y-30155000D03*
%TD*%
D10*
%TO.C,C12*%
%TO.CFtp,C_0402_1005Metric*%
%TO.CVal,100n*%
%TO.CLbN,Capacitor_SMD*%
%TO.CMnt,SMD*%
%TO.CRot,0*%
X107845000Y-89985000D03*
D11*
X108750000Y-89530000D02*
X108750000Y-90440000D01*
X106940000Y-90440000D01*
X106940000Y-89530000D01*
X108750000Y-89530000D01*
D12*
%TO.P,C12,1*%
X108325000Y-89985000D03*
D13*
%TO.P,C12,2*%
X107365000Y-89985000D03*
%TD*%
D10*
%TO.C,D39*%
%TO.CFtp,D_SOD-123*%
%TO.CVal,DIODE*%
%TO.CLbN,Diode_SMD*%
%TO.CMnt,SMD*%
%TO.CRot,-90*%
X209232500Y-50855000D03*
D11*
X210377500Y-48510000D02*
X210377500Y-53200000D01*
X208087500Y-53200000D01*
X208087500Y-48510000D01*
X210377500Y-48510000D01*
D12*
%TO.P,D39,1,K*%
X209232500Y-52505000D03*
D13*
%TO.P,D39,2,A*%
X209232500Y-49205000D03*
%TD*%
D10*
%TO.C,D21*%
%TO.CFtp,D_SOD-123*%
%TO.CVal,DIODE*%
%TO.CLbN,Diode_SMD*%
%TO.CMnt,SMD*%
%TO.CRot,-90*%
X128270000Y-31805000D03*
D11*
X129415000Y-29460000D02*
X129415000Y-34150000D01*
X127125000Y-34150000D01*
X127125000Y-29460000D01*
X129415000Y-29460000D01*
D12*
%TO.P,D21,1,K*%
X128270000Y-33455000D03*
D13*
%TO.P,D21,2,A*%
X128270000Y-30155000D03*
%TD*%
D10*
%TO.C,C3*%
%TO.CFtp,C_0402_1005Metric*%
%TO.CVal,20p*%
%TO.CLbN,Capacitor_SMD*%
%TO.CMnt,SMD*%
%TO.CRot,-90*%
X119275000Y-84625000D03*
D11*
X119730000Y-83720000D02*
X119730000Y-85530000D01*
X118820000Y-85530000D01*
X118820000Y-83720000D01*
X119730000Y-83720000D01*
D12*
%TO.P,C3,1*%
X119275000Y-85105000D03*
D13*
%TO.P,C3,2*%
X119275000Y-84145000D03*
%TD*%
D10*
%TO.C,D10*%
%TO.CFtp,D_SOD-123*%
%TO.CVal,DIODE*%
%TO.CLbN,Diode_SMD*%
%TO.CMnt,SMD*%
%TO.CRot,-90*%
X175895000Y-12755000D03*
D11*
X177040000Y-10410000D02*
X177040000Y-15100000D01*
X174750000Y-15100000D01*
X174750000Y-10410000D01*
X177040000Y-10410000D01*
D12*
%TO.P,D10,1,K*%
X175895000Y-14405000D03*
D13*
%TO.P,D10,2,A*%
X175895000Y-11105000D03*
%TD*%
D10*
%TO.C,J2*%
%TO.CFtp,PinHeader_1x02_P1.27mm_Vertical*%
%TO.CVal,Conn_01x02*%
%TO.CLbN,Connector_PinHeader_1.27mm*%
%TO.CMnt,TH*%
%TO.CRot,-90*%
X97130000Y-78425000D03*
D11*
X98275000Y-76880000D02*
X98275000Y-79970000D01*
X94685000Y-79970000D01*
X94685000Y-76880000D01*
X98275000Y-76880000D01*
D12*
%TO.P,J2,1,Pin_1*%
X97130000Y-78425000D03*
D13*
%TO.P,J2,2,Pin_2*%
X95860000Y-78425000D03*
%TD*%
D10*
%TO.C,D2*%
%TO.CFtp,D_SOD-123*%
%TO.CVal,DIODE*%
%TO.CLbN,Diode_SMD*%
%TO.CMnt,SMD*%
%TO.CRot,90*%
X33655000Y-6295000D03*
D11*
X34800000Y-3950000D02*
X34800000Y-8640000D01*
X32510000Y-8640000D01*
X32510000Y-3950000D01*
X34800000Y-3950000D01*
D12*
%TO.P,D2,1,K*%
X33655000Y-4645000D03*
D13*
%TO.P,D2,2,A*%
X33655000Y-7945000D03*
%TD*%
D10*
%TO.C,D25*%
%TO.CFtp,D_SOD-123*%
%TO.CVal,DIODE*%
%TO.CLbN,Diode_SMD*%
%TO.CMnt,SMD*%
%TO.CRot,-90*%
X204470000Y-31805000D03*
D11*
X205615000Y-29460000D02*
X205615000Y-34150000D01*
X203325000Y-34150000D01*
X203325000Y-29460000D01*
X205615000Y-29460000D01*
D12*
%TO.P,D25,1,K*%
X204470000Y-33455000D03*
D13*
%TO.P,D25,2,A*%
X204470000Y-30155000D03*
%TD*%
D10*
%TO.C,D44*%
%TO.CFtp,D_SOD-123*%
%TO.CVal,DIODE*%
%TO.CLbN,Diode_SMD*%
%TO.CMnt,SMD*%
%TO.CRot,-90*%
X42862500Y-69905000D03*
D11*
X44007500Y-67560000D02*
X44007500Y-72250000D01*
X41717500Y-72250000D01*
X41717500Y-67560000D01*
X44007500Y-67560000D01*
D12*
%TO.P,D44,1,K*%
X42862500Y-71555000D03*
D13*
%TO.P,D44,2,A*%
X42862500Y-68255000D03*
%TD*%
D10*
%TO.C,D14*%
%TO.CFtp,D_SOD-123*%
%TO.CVal,DIODE*%
%TO.CLbN,Diode_SMD*%
%TO.CMnt,SMD*%
%TO.CRot,-90*%
X247175000Y-12755000D03*
D11*
X248320000Y-10410000D02*
X248320000Y-15100000D01*
X246030000Y-15100000D01*
X246030000Y-10410000D01*
X248320000Y-10410000D01*
D12*
%TO.P,D14,1,K*%
X247175000Y-14405000D03*
D13*
%TO.P,D14,2,A*%
X247175000Y-11105000D03*
%TD*%
D10*
%TO.C,D57*%
%TO.CFtp,D_SOD-123*%
%TO.CVal,DIODE*%
%TO.CLbN,Diode_SMD*%
%TO.CMnt,SMD*%
%TO.CRot,90*%
X24287500Y-78995000D03*
D11*
X25432500Y-76650000D02*
X25432500Y-81340000D01*
X23142500Y-81340000D01*
X23142500Y-76650000D01*
X25432500Y-76650000D01*
D12*
%TO.P,D57,1,K*%
X24287500Y-77345000D03*
D13*
%TO.P,D57,2,A*%
X24287500Y-80645000D03*
%TD*%
D10*
%TO.C,D16*%
%TO.CFtp,D_SOD-123*%
%TO.CVal,DIODE*%
%TO.CLbN,Diode_SMD*%
%TO.CMnt,SMD*%
%TO.CRot,-90*%
X33020000Y-31805000D03*
D11*
X34165000Y-29460000D02*
X34165000Y-34150000D01*
X31875000Y-34150000D01*
X31875000Y-29460000D01*
X34165000Y-29460000D01*
D12*
%TO.P,D16,1,K*%
X33020000Y-33455000D03*
D13*
%TO.P,D16,2,A*%
X33020000Y-30155000D03*
%TD*%
D10*
%TO.C,C1*%
%TO.CFtp,C_0402_1005Metric*%
%TO.CVal,1u*%
%TO.CLbN,Capacitor_SMD*%
%TO.CMnt,SMD*%
%TO.CRot,90*%
X87300000Y-81180000D03*
D11*
X87755000Y-80275000D02*
X87755000Y-82085000D01*
X86845000Y-82085000D01*
X86845000Y-80275000D01*
X87755000Y-80275000D01*
D12*
%TO.P,C1,1*%
X87300000Y-80700000D03*
D13*
%TO.P,C1,2*%
X87300000Y-81660000D03*
%TD*%
D10*
%TO.C,D13*%
%TO.CFtp,D_SOD-123*%
%TO.CVal,DIODE*%
%TO.CLbN,Diode_SMD*%
%TO.CMnt,SMD*%
%TO.CRot,-90*%
X233045000Y-12755000D03*
D11*
X234190000Y-10410000D02*
X234190000Y-15100000D01*
X231900000Y-15100000D01*
X231900000Y-10410000D01*
X234190000Y-10410000D01*
D12*
%TO.P,D13,1,K*%
X233045000Y-14405000D03*
D13*
%TO.P,D13,2,A*%
X233045000Y-11105000D03*
%TD*%
D10*
%TO.C,D43*%
%TO.CFtp,D_SOD-123*%
%TO.CVal,DIODE*%
%TO.CLbN,Diode_SMD*%
%TO.CMnt,SMD*%
%TO.CRot,-90*%
X38417500Y-69905000D03*
D11*
X39562500Y-67560000D02*
X39562500Y-72250000D01*
X37272500Y-72250000D01*
X37272500Y-67560000D01*
X39562500Y-67560000D01*
D12*
%TO.P,D43,1,K*%
X38417500Y-71555000D03*
D13*
%TO.P,D43,2,A*%
X38417500Y-68255000D03*
%TD*%
D10*
%TO.C,U4*%
%TO.CFtp,SOT-23-3*%
%TO.CVal,XC6206PxxxMR*%
%TO.CLbN,Package_TO_SOT_SMD*%
%TO.CMnt,SMD*%
%TO.CRot,0*%
X90400000Y-80700000D03*
D11*
X92445000Y-79005000D02*
X92445000Y-82395000D01*
X88355000Y-82395000D01*
X88355000Y-79005000D01*
X92445000Y-79005000D01*
D12*
%TO.P,U4,1,GND*%
X91537500Y-79750000D03*
D13*
%TO.P,U4,2,VO*%
X91537500Y-81650000D03*
%TO.P,U4,3,VI*%
X89262500Y-80700000D03*
%TD*%
D10*
%TO.C,R3*%
%TO.CFtp,R_0402_1005Metric*%
%TO.CVal,27.4*%
%TO.CLbN,Resistor_SMD*%
%TO.CMnt,SMD*%
%TO.CRot,180*%
X100875000Y-86025000D03*
D11*
X101800000Y-85560000D02*
X101800000Y-86490000D01*
X99950000Y-86490000D01*
X99950000Y-85560000D01*
X101800000Y-85560000D01*
D12*
%TO.P,R3,1*%
X100365000Y-86025000D03*
D13*
%TO.P,R3,2*%
X101385000Y-86025000D03*
%TD*%
D10*
%TO.C,D15*%
%TO.CFtp,D_SOD-123*%
%TO.CVal,DIODE*%
%TO.CLbN,Diode_SMD*%
%TO.CMnt,SMD*%
%TO.CRot,-90*%
X9207500Y-31805000D03*
D11*
X10352500Y-29460000D02*
X10352500Y-34150000D01*
X8062500Y-34150000D01*
X8062500Y-29460000D01*
X10352500Y-29460000D01*
D12*
%TO.P,D15,1,K*%
X9207500Y-33455000D03*
D13*
%TO.P,D15,2,A*%
X9207500Y-30155000D03*
%TD*%
D10*
%TO.C,D6*%
%TO.CFtp,D_SOD-123*%
%TO.CVal,DIODE*%
%TO.CLbN,Diode_SMD*%
%TO.CMnt,SMD*%
%TO.CRot,-90*%
X99695000Y-12755000D03*
D11*
X100840000Y-10410000D02*
X100840000Y-15100000D01*
X98550000Y-15100000D01*
X98550000Y-10410000D01*
X100840000Y-10410000D01*
D12*
%TO.P,D6,1,K*%
X99695000Y-14405000D03*
D13*
%TO.P,D6,2,A*%
X99695000Y-11105000D03*
%TD*%
D10*
%TO.C,C11*%
%TO.CFtp,C_0402_1005Metric*%
%TO.CVal,100n*%
%TO.CLbN,Capacitor_SMD*%
%TO.CMnt,SMD*%
%TO.CRot,0*%
X104245000Y-89985000D03*
D11*
X105150000Y-89530000D02*
X105150000Y-90440000D01*
X103340000Y-90440000D01*
X103340000Y-89530000D01*
X105150000Y-89530000D01*
D12*
%TO.P,C11,1*%
X104725000Y-89985000D03*
D13*
%TO.P,C11,2*%
X103765000Y-89985000D03*
%TD*%
D10*
%TO.C,C16*%
%TO.CFtp,C_0402_1005Metric*%
%TO.CVal,100n*%
%TO.CLbN,Capacitor_SMD*%
%TO.CMnt,SMD*%
%TO.CRot,0*%
X100875000Y-85025000D03*
D11*
X101780000Y-84570000D02*
X101780000Y-85480000D01*
X99970000Y-85480000D01*
X99970000Y-84570000D01*
X101780000Y-84570000D01*
D12*
%TO.P,C16,1*%
X101355000Y-85025000D03*
D13*
%TO.P,C16,2*%
X100395000Y-85025000D03*
%TD*%
D10*
%TO.C,D59*%
%TO.CFtp,D_SOD-123*%
%TO.CVal,DIODE*%
%TO.CLbN,Diode_SMD*%
%TO.CMnt,SMD*%
%TO.CRot,90*%
X71912500Y-78995000D03*
D11*
X73057500Y-76650000D02*
X73057500Y-81340000D01*
X70767500Y-81340000D01*
X70767500Y-76650000D01*
X73057500Y-76650000D01*
D12*
%TO.P,D59,1,K*%
X71912500Y-77345000D03*
D13*
%TO.P,D59,2,A*%
X71912500Y-80645000D03*
%TD*%
D10*
%TO.C,D26*%
%TO.CFtp,D_SOD-123*%
%TO.CVal,DIODE*%
%TO.CLbN,Diode_SMD*%
%TO.CMnt,SMD*%
%TO.CRot,-90*%
X223520000Y-31805000D03*
D11*
X224665000Y-29460000D02*
X224665000Y-34150000D01*
X222375000Y-34150000D01*
X222375000Y-29460000D01*
X224665000Y-29460000D01*
D12*
%TO.P,D26,1,K*%
X223520000Y-33455000D03*
D13*
%TO.P,D26,2,A*%
X223520000Y-30155000D03*
%TD*%
D10*
%TO.C,D18*%
%TO.CFtp,D_SOD-123*%
%TO.CVal,DIODE*%
%TO.CLbN,Diode_SMD*%
%TO.CMnt,SMD*%
%TO.CRot,-90*%
X71120000Y-31805000D03*
D11*
X72265000Y-29460000D02*
X72265000Y-34150000D01*
X69975000Y-34150000D01*
X69975000Y-29460000D01*
X72265000Y-29460000D01*
D12*
%TO.P,D18,1,K*%
X71120000Y-33455000D03*
D13*
%TO.P,D18,2,A*%
X71120000Y-30155000D03*
%TD*%
D10*
%TO.C,D62*%
%TO.CFtp,D_SOD-123*%
%TO.CVal,DIODE*%
%TO.CLbN,Diode_SMD*%
%TO.CMnt,SMD*%
%TO.CRot,90*%
X213837500Y-78995000D03*
D11*
X214982500Y-76650000D02*
X214982500Y-81340000D01*
X212692500Y-81340000D01*
X212692500Y-76650000D01*
X214982500Y-76650000D01*
D12*
%TO.P,D62,1,K*%
X213837500Y-77345000D03*
D13*
%TO.P,D62,2,A*%
X213837500Y-80645000D03*
%TD*%
D10*
%TO.C,C13*%
%TO.CFtp,C_0402_1005Metric*%
%TO.CVal,100n*%
%TO.CLbN,Capacitor_SMD*%
%TO.CMnt,SMD*%
%TO.CRot,90*%
X113425000Y-87015000D03*
D11*
X113880000Y-86110000D02*
X113880000Y-87920000D01*
X112970000Y-87920000D01*
X112970000Y-86110000D01*
X113880000Y-86110000D01*
D12*
%TO.P,C13,1*%
X113425000Y-86535000D03*
D13*
%TO.P,C13,2*%
X113425000Y-87495000D03*
%TD*%
D10*
%TO.C,D23*%
%TO.CFtp,D_SOD-123*%
%TO.CVal,DIODE*%
%TO.CLbN,Diode_SMD*%
%TO.CMnt,SMD*%
%TO.CRot,-90*%
X166370000Y-31805000D03*
D11*
X167515000Y-29460000D02*
X167515000Y-34150000D01*
X165225000Y-34150000D01*
X165225000Y-29460000D01*
X167515000Y-29460000D01*
D12*
%TO.P,D23,1,K*%
X166370000Y-33455000D03*
D13*
%TO.P,D23,2,A*%
X166370000Y-30155000D03*
%TD*%
D10*
%TO.C,D36*%
%TO.CFtp,D_SOD-123*%
%TO.CVal,DIODE*%
%TO.CLbN,Diode_SMD*%
%TO.CMnt,SMD*%
%TO.CRot,-90*%
X152082500Y-50855000D03*
D11*
X153227500Y-48510000D02*
X153227500Y-53200000D01*
X150937500Y-53200000D01*
X150937500Y-48510000D01*
X153227500Y-48510000D01*
D12*
%TO.P,D36,1,K*%
X152082500Y-52505000D03*
D13*
%TO.P,D36,2,A*%
X152082500Y-49205000D03*
%TD*%
D10*
%TO.C,D58*%
%TO.CFtp,D_SOD-123*%
%TO.CVal,DIODE*%
%TO.CLbN,Diode_SMD*%
%TO.CMnt,SMD*%
%TO.CRot,90*%
X48100000Y-78995000D03*
D11*
X49245000Y-76650000D02*
X49245000Y-81340000D01*
X46955000Y-81340000D01*
X46955000Y-76650000D01*
X49245000Y-76650000D01*
D12*
%TO.P,D58,1,K*%
X48100000Y-77345000D03*
D13*
%TO.P,D58,2,A*%
X48100000Y-80645000D03*
%TD*%
D10*
%TO.C,D37*%
%TO.CFtp,D_SOD-123*%
%TO.CVal,DIODE*%
%TO.CLbN,Diode_SMD*%
%TO.CMnt,SMD*%
%TO.CRot,-90*%
X171132500Y-50855000D03*
D11*
X172277500Y-48510000D02*
X172277500Y-53200000D01*
X169987500Y-53200000D01*
X169987500Y-48510000D01*
X172277500Y-48510000D01*
D12*
%TO.P,D37,1,K*%
X171132500Y-52505000D03*
D13*
%TO.P,D37,2,A*%
X171132500Y-49205000D03*
%TD*%
D10*
%TO.C,D12*%
%TO.CFtp,D_SOD-123*%
%TO.CVal,DIODE*%
%TO.CLbN,Diode_SMD*%
%TO.CMnt,SMD*%
%TO.CRot,-90*%
X213995000Y-12755000D03*
D11*
X215140000Y-10410000D02*
X215140000Y-15100000D01*
X212850000Y-15100000D01*
X212850000Y-10410000D01*
X215140000Y-10410000D01*
D12*
%TO.P,D12,1,K*%
X213995000Y-14405000D03*
D13*
%TO.P,D12,2,A*%
X213995000Y-11105000D03*
%TD*%
D10*
%TO.C,R7*%
%TO.CFtp,R_0402_1005Metric*%
%TO.CVal,5K1*%
%TO.CLbN,Resistor_SMD*%
%TO.CMnt,SMD*%
%TO.CRot,180*%
X20835000Y-8675000D03*
D11*
X21760000Y-8210000D02*
X21760000Y-9140000D01*
X19910000Y-9140000D01*
X19910000Y-8210000D01*
X21760000Y-8210000D01*
D12*
%TO.P,R7,1*%
X20325000Y-8675000D03*
D13*
%TO.P,R7,2*%
X21345000Y-8675000D03*
%TD*%
D10*
%TO.C,D35*%
%TO.CFtp,D_SOD-123*%
%TO.CVal,DIODE*%
%TO.CLbN,Diode_SMD*%
%TO.CMnt,SMD*%
%TO.CRot,-90*%
X133032500Y-50855000D03*
D11*
X134177500Y-48510000D02*
X134177500Y-53200000D01*
X131887500Y-53200000D01*
X131887500Y-48510000D01*
X134177500Y-48510000D01*
D12*
%TO.P,D35,1,K*%
X133032500Y-52505000D03*
D13*
%TO.P,D35,2,A*%
X133032500Y-49205000D03*
%TD*%
D10*
%TO.C,D30*%
%TO.CFtp,D_SOD-123*%
%TO.CVal,DIODE*%
%TO.CLbN,Diode_SMD*%
%TO.CMnt,SMD*%
%TO.CRot,-90*%
X37782500Y-50855000D03*
D11*
X38927500Y-48510000D02*
X38927500Y-53200000D01*
X36637500Y-53200000D01*
X36637500Y-48510000D01*
X38927500Y-48510000D01*
D12*
%TO.P,D30,1,K*%
X37782500Y-52505000D03*
D13*
%TO.P,D30,2,A*%
X37782500Y-49205000D03*
%TD*%
D10*
%TO.C,C6*%
%TO.CFtp,C_0402_1005Metric*%
%TO.CVal,100n*%
%TO.CLbN,Capacitor_SMD*%
%TO.CMnt,SMD*%
%TO.CRot,90*%
X112425000Y-87015000D03*
D11*
X112880000Y-86110000D02*
X112880000Y-87920000D01*
X111970000Y-87920000D01*
X111970000Y-86110000D01*
X112880000Y-86110000D01*
D12*
%TO.P,C6,1*%
X112425000Y-86535000D03*
D13*
%TO.P,C6,2*%
X112425000Y-87495000D03*
%TD*%
D10*
%TO.C,D22*%
%TO.CFtp,D_SOD-123*%
%TO.CVal,DIODE*%
%TO.CLbN,Diode_SMD*%
%TO.CMnt,SMD*%
%TO.CRot,-90*%
X147320000Y-31805000D03*
D11*
X148465000Y-29460000D02*
X148465000Y-34150000D01*
X146175000Y-34150000D01*
X146175000Y-29460000D01*
X148465000Y-29460000D01*
D12*
%TO.P,D22,1,K*%
X147320000Y-33455000D03*
D13*
%TO.P,D22,2,A*%
X147320000Y-30155000D03*
%TD*%
D10*
%TO.C,D61*%
%TO.CFtp,D_SOD-123*%
%TO.CVal,DIODE*%
%TO.CLbN,Diode_SMD*%
%TO.CMnt,SMD*%
%TO.CRot,-90*%
X197326250Y-88955000D03*
D11*
X198471250Y-86610000D02*
X198471250Y-91300000D01*
X196181250Y-91300000D01*
X196181250Y-86610000D01*
X198471250Y-86610000D01*
D12*
%TO.P,D61,1,K*%
X197326250Y-90605000D03*
D13*
%TO.P,D61,2,A*%
X197326250Y-87305000D03*
%TD*%
D10*
%TO.C,C14*%
%TO.CFtp,C_0402_1005Metric*%
%TO.CVal,100n*%
%TO.CLbN,Capacitor_SMD*%
%TO.CMnt,SMD*%
%TO.CRot,-90*%
X108725000Y-78575000D03*
D11*
X109180000Y-77670000D02*
X109180000Y-79480000D01*
X108270000Y-79480000D01*
X108270000Y-77670000D01*
X109180000Y-77670000D01*
D12*
%TO.P,C14,1*%
X108725000Y-79055000D03*
D13*
%TO.P,C14,2*%
X108725000Y-78095000D03*
%TD*%
D10*
%TO.C,D11*%
%TO.CFtp,D_SOD-123*%
%TO.CVal,DIODE*%
%TO.CLbN,Diode_SMD*%
%TO.CMnt,SMD*%
%TO.CRot,-90*%
X194945000Y-12755000D03*
D11*
X196090000Y-10410000D02*
X196090000Y-15100000D01*
X193800000Y-15100000D01*
X193800000Y-10410000D01*
X196090000Y-10410000D01*
D12*
%TO.P,D11,1,K*%
X194945000Y-14405000D03*
D13*
%TO.P,D11,2,A*%
X194945000Y-11105000D03*
%TD*%
D10*
%TO.C,C15*%
%TO.CFtp,C_0402_1005Metric*%
%TO.CVal,100n*%
%TO.CLbN,Capacitor_SMD*%
%TO.CMnt,SMD*%
%TO.CRot,-45*%
X102875000Y-78575000D03*
D11*
X103836664Y-78893198D02*
X103193198Y-79536664D01*
X101913336Y-78256802D01*
X102556802Y-77613336D01*
X103836664Y-78893198D01*
D12*
%TO.P,C15,1*%
X103214411Y-78914411D03*
D13*
%TO.P,C15,2*%
X102535589Y-78235589D03*
%TD*%
D10*
%TO.C,D19*%
%TO.CFtp,D_SOD-123*%
%TO.CVal,DIODE*%
%TO.CLbN,Diode_SMD*%
%TO.CMnt,SMD*%
%TO.CRot,-90*%
X90170000Y-31805000D03*
D11*
X91315000Y-29460000D02*
X91315000Y-34150000D01*
X89025000Y-34150000D01*
X89025000Y-29460000D01*
X91315000Y-29460000D01*
D12*
%TO.P,D19,1,K*%
X90170000Y-33455000D03*
D13*
%TO.P,D19,2,A*%
X90170000Y-30155000D03*
%TD*%
D10*
%TO.C,J1*%
%TO.CFtp,USB_C_Receptacle_GCT_USB4105-xx-A_16P_TopMnt_Horizontal*%
%TO.CVal,USB_C_Receptacle_USB2.0_16P*%
%TO.CLbN,Connector_USB*%
%TO.CMnt,SMD*%
%TO.CRot,180*%
X18575000Y-2500000D03*
D11*
X23890000Y1675000D02*
X23890000Y-7255000D01*
X13260000Y-7255000D01*
X13260000Y1675000D01*
X23890000Y1675000D01*
D12*
%TO.P,J1,A1,GND*%
X15375000Y-6180000D03*
D13*
%TO.P,J1,*%
X15685000Y-5105000D03*
X21465000Y-5105000D03*
%TO.P,J1,A4,VBUS*%
X16175000Y-6180000D03*
%TO.P,J1,A5,CC1*%
X17325000Y-6180000D03*
%TO.P,J1,A6,D+*%
X18325000Y-6180000D03*
%TO.P,J1,A7,D-*%
X18825000Y-6180000D03*
%TO.P,J1,A8,SBU1*%
X19825000Y-6180000D03*
%TO.P,J1,A9,VBUS*%
X20975000Y-6180000D03*
%TO.P,J1,A12,GND*%
X21775000Y-6180000D03*
%TO.P,J1,B1,GND*%
X21775000Y-6180000D03*
%TO.P,J1,B4,VBUS*%
X20975000Y-6180000D03*
%TO.P,J1,B5,CC2*%
X20325000Y-6180000D03*
%TO.P,J1,B6,D+*%
X19325000Y-6180000D03*
%TO.P,J1,B7,D-*%
X17825000Y-6180000D03*
%TO.P,J1,B8,SBU2*%
X16825000Y-6180000D03*
%TO.P,J1,B9,VBUS*%
X16175000Y-6180000D03*
%TO.P,J1,B12,GND*%
X15375000Y-6180000D03*
%TO.P,J1,S1,SHIELD*%
X14255000Y-1425000D03*
X14255000Y-5605000D03*
X22895000Y-1425000D03*
X22895000Y-5605000D03*
%TD*%
D10*
%TO.C,D8*%
%TO.CFtp,D_SOD-123*%
%TO.CVal,DIODE*%
%TO.CLbN,Diode_SMD*%
%TO.CMnt,SMD*%
%TO.CRot,-90*%
X137795000Y-12755000D03*
D11*
X138940000Y-10410000D02*
X138940000Y-15100000D01*
X136650000Y-15100000D01*
X136650000Y-10410000D01*
X138940000Y-10410000D01*
D12*
%TO.P,D8,1,K*%
X137795000Y-14405000D03*
D13*
%TO.P,D8,2,A*%
X137795000Y-11105000D03*
%TD*%
D10*
%TO.C,C5*%
%TO.CFtp,C_0402_1005Metric*%
%TO.CVal,100n*%
%TO.CLbN,Capacitor_SMD*%
%TO.CMnt,SMD*%
%TO.CRot,0*%
X96340000Y-80690000D03*
D11*
X97245000Y-80235000D02*
X97245000Y-81145000D01*
X95435000Y-81145000D01*
X95435000Y-80235000D01*
X97245000Y-80235000D01*
D12*
%TO.P,C5,1*%
X96820000Y-80690000D03*
D13*
%TO.P,C5,2*%
X95860000Y-80690000D03*
%TD*%
M02*
