%TF.GenerationSoftware,KiCad,Pcbnew,8.0.6*%
%TF.CreationDate,2024-12-08T15:52:06+08:00*%
%TF.ProjectId,PH60_Rev2,50483630-5f52-4657-9632-2e6b69636164,rev?*%
%TF.SameCoordinates,Original*%
%TF.FileFunction,Legend,Top*%
%TF.FilePolarity,Positive*%
%FSLAX46Y46*%
G04 Gerber Fmt 4.6, Leading zero omitted, Abs format (unit mm)*
G04 Created by KiCad (PCBNEW 8.0.6) date 2024-12-08 15:52:06*
%MOMM*%
%LPD*%
G01*
G04 APERTURE LIST*
%ADD10C,0.099218*%
G04 APERTURE END LIST*
D10*
X181793794Y-55652076D02*
X181098228Y-57546877D01*
X175179395Y-57546877D01*
X176577863Y-53737354D01*
X181793794Y-55652076D01*
G36*
X181793794Y-55652076D02*
G01*
X181098228Y-57546877D01*
X175179395Y-57546877D01*
X176577863Y-53737354D01*
X181793794Y-55652076D01*
G37*
X167403267Y-94853129D02*
X161484471Y-94853129D01*
X175179395Y-57546877D01*
X181098228Y-57546877D01*
X167403267Y-94853129D01*
G36*
X167403267Y-94853129D02*
G01*
X161484471Y-94853129D01*
X175179395Y-57546877D01*
X181098228Y-57546877D01*
X167403267Y-94853129D01*
G37*
X166055516Y-98524611D02*
X160839588Y-96609849D01*
X161484471Y-94853129D01*
X167403267Y-94853129D01*
X166055516Y-98524611D01*
G36*
X166055516Y-98524611D02*
G01*
X160839588Y-96609849D01*
X161484471Y-94853129D01*
X167403267Y-94853129D01*
X166055516Y-98524611D01*
G37*
X195262503Y-54796374D02*
X194979584Y-54482043D01*
X194692885Y-54171235D01*
X194402351Y-53864080D01*
X194107925Y-53560704D01*
X193809551Y-53261235D01*
X193507173Y-52965800D01*
X193200736Y-52674526D01*
X192890183Y-52387542D01*
X195262503Y-52387542D01*
X195262503Y-54796374D01*
G36*
X195262503Y-54796374D02*
G01*
X194979584Y-54482043D01*
X194692885Y-54171235D01*
X194402351Y-53864080D01*
X194107925Y-53560704D01*
X193809551Y-53261235D01*
X193507173Y-52965800D01*
X193200736Y-52674526D01*
X192890183Y-52387542D01*
X195262503Y-52387542D01*
X195262503Y-54796374D01*
G37*
X190103129Y-78978125D02*
X161131249Y-78978125D01*
X161131249Y-73421876D01*
X190103129Y-73421876D01*
X190103129Y-78978125D01*
G36*
X190103129Y-78978125D02*
G01*
X161131249Y-78978125D01*
X161131249Y-73421876D01*
X190103129Y-73421876D01*
X190103129Y-78978125D01*
G37*
X195262503Y-78978125D02*
X190103129Y-78978125D01*
X190103129Y-73421876D01*
X195262503Y-73421876D01*
X195262503Y-78978125D01*
G36*
X195262503Y-78978125D02*
G01*
X190103129Y-78978125D01*
X190103129Y-73421876D01*
X195262503Y-73421876D01*
X195262503Y-78978125D01*
G37*
X149539240Y-52650134D02*
X149257677Y-52916181D01*
X148979374Y-53185601D01*
X148704352Y-53458355D01*
X148432631Y-53734399D01*
X148164229Y-54013693D01*
X147899167Y-54296195D01*
X147637463Y-54581864D01*
X147637463Y-52387502D01*
X149824046Y-52387502D01*
X149539240Y-52650134D01*
G36*
X149539240Y-52650134D02*
G01*
X149257677Y-52916181D01*
X148979374Y-53185601D01*
X148704352Y-53458355D01*
X148432631Y-53734399D01*
X148164229Y-54013693D01*
X147899167Y-54296195D01*
X147637463Y-54581864D01*
X147637463Y-52387502D01*
X149824046Y-52387502D01*
X149539240Y-52650134D01*
G37*
X193200721Y-52674526D02*
X193507148Y-52965800D01*
X193809520Y-53261235D01*
X194107892Y-53560704D01*
X194402321Y-53864080D01*
X194692862Y-54171235D01*
X194979571Y-54482043D01*
X195262503Y-54796374D01*
X195262503Y-97282796D01*
X195262502Y-97282794D01*
X195262501Y-97282792D01*
X195262498Y-97282789D01*
X195262496Y-97282786D01*
X195262493Y-97282784D01*
X195262490Y-97282781D01*
X195262487Y-97282778D01*
X195262484Y-97282776D01*
X195262480Y-97282773D01*
X195262468Y-97282764D01*
X195262465Y-97282762D01*
X195262462Y-97282760D01*
X195262460Y-97282758D01*
X195262457Y-97282756D01*
X194938149Y-97641889D01*
X194608502Y-97995965D01*
X194273585Y-98344954D01*
X193933464Y-98688824D01*
X193588210Y-99027544D01*
X193237888Y-99361085D01*
X192882569Y-99689415D01*
X192522318Y-100012503D01*
X150191829Y-100012503D01*
X149857652Y-99713420D01*
X149527442Y-99410077D01*
X149201342Y-99102417D01*
X148879494Y-98790379D01*
X148562039Y-98473904D01*
X148249121Y-98152933D01*
X147940882Y-97827406D01*
X147637463Y-97497264D01*
X147637463Y-94853163D01*
X147637463Y-57546877D01*
X152796877Y-57546877D01*
X152796877Y-94853163D01*
X190103129Y-94853163D01*
X190103129Y-57546877D01*
X152796877Y-57546877D01*
X147637463Y-57546877D01*
X147637463Y-54581902D01*
X147899168Y-54296234D01*
X148164234Y-54013732D01*
X148432640Y-53734439D01*
X148704366Y-53458395D01*
X148979391Y-53185642D01*
X149257693Y-52916221D01*
X149539251Y-52650174D01*
X149824046Y-52387542D01*
X192890183Y-52387542D01*
X193200721Y-52674526D01*
G36*
X193200721Y-52674526D02*
G01*
X193507148Y-52965800D01*
X193809520Y-53261235D01*
X194107892Y-53560704D01*
X194402321Y-53864080D01*
X194692862Y-54171235D01*
X194979571Y-54482043D01*
X195262503Y-54796374D01*
X195262503Y-97282796D01*
X195262502Y-97282794D01*
X195262501Y-97282792D01*
X195262498Y-97282789D01*
X195262496Y-97282786D01*
X195262493Y-97282784D01*
X195262490Y-97282781D01*
X195262487Y-97282778D01*
X195262484Y-97282776D01*
X195262480Y-97282773D01*
X195262468Y-97282764D01*
X195262465Y-97282762D01*
X195262462Y-97282760D01*
X195262460Y-97282758D01*
X195262457Y-97282756D01*
X194938149Y-97641889D01*
X194608502Y-97995965D01*
X194273585Y-98344954D01*
X193933464Y-98688824D01*
X193588210Y-99027544D01*
X193237888Y-99361085D01*
X192882569Y-99689415D01*
X192522318Y-100012503D01*
X150191829Y-100012503D01*
X149857652Y-99713420D01*
X149527442Y-99410077D01*
X149201342Y-99102417D01*
X148879494Y-98790379D01*
X148562039Y-98473904D01*
X148249121Y-98152933D01*
X147940882Y-97827406D01*
X147637463Y-97497264D01*
X147637463Y-94853163D01*
X147637463Y-57546877D01*
X152796877Y-57546877D01*
X152796877Y-94853163D01*
X190103129Y-94853163D01*
X190103129Y-57546877D01*
X152796877Y-57546877D01*
X147637463Y-57546877D01*
X147637463Y-54581902D01*
X147899168Y-54296234D01*
X148164234Y-54013732D01*
X148432640Y-53734439D01*
X148704366Y-53458395D01*
X148979391Y-53185642D01*
X149257693Y-52916221D01*
X149539251Y-52650174D01*
X149824046Y-52387542D01*
X192890183Y-52387542D01*
X193200721Y-52674526D01*
G37*
X147940909Y-97827406D02*
X148249143Y-98152933D01*
X148562060Y-98473904D01*
X148879517Y-98790379D01*
X149201370Y-99102417D01*
X149527476Y-99410077D01*
X149857690Y-99713420D01*
X150191869Y-100012503D01*
X147637502Y-100012503D01*
X147637502Y-97497264D01*
X147940909Y-97827406D01*
G36*
X147940909Y-97827406D02*
G01*
X148249143Y-98152933D01*
X148562060Y-98473904D01*
X148879517Y-98790379D01*
X149201370Y-99102417D01*
X149527476Y-99410077D01*
X149857690Y-99713420D01*
X150191869Y-100012503D01*
X147637502Y-100012503D01*
X147637502Y-97497264D01*
X147940909Y-97827406D01*
G37*
X195262503Y-100012538D02*
X192522359Y-100012538D01*
X192882610Y-99689449D01*
X193237934Y-99361119D01*
X193588261Y-99027579D01*
X193933520Y-98688859D01*
X194273644Y-98344990D01*
X194608562Y-97996002D01*
X194938205Y-97641927D01*
X195262503Y-97282796D01*
X195262503Y-100012538D01*
G36*
X195262503Y-100012538D02*
G01*
X192522359Y-100012538D01*
X192882610Y-99689449D01*
X193237934Y-99361119D01*
X193588261Y-99027579D01*
X193933520Y-98688859D01*
X194273644Y-98344990D01*
X194608562Y-97996002D01*
X194938205Y-97641927D01*
X195262503Y-97282796D01*
X195262503Y-100012538D01*
G37*
X173356257Y-39204645D02*
X175237488Y-39347696D01*
X177091368Y-39583269D01*
X178915568Y-39909038D01*
X180707761Y-40322674D01*
X182465620Y-40821849D01*
X184186816Y-41404238D01*
X185869023Y-42067511D01*
X187509913Y-42809341D01*
X189107158Y-43627402D01*
X190658430Y-44519365D01*
X192161404Y-45482902D01*
X193613749Y-46515687D01*
X195013141Y-47615392D01*
X196357250Y-48779689D01*
X197643749Y-50006251D01*
X198870311Y-51292750D01*
X200034608Y-52636859D01*
X201134313Y-54036250D01*
X202167098Y-55488596D01*
X203130635Y-56991570D01*
X204022598Y-58542842D01*
X204840659Y-60140087D01*
X205582489Y-61780977D01*
X206245762Y-63463184D01*
X206828151Y-65184380D01*
X207327326Y-66942239D01*
X207740962Y-68734432D01*
X208066731Y-70558632D01*
X208302304Y-72412512D01*
X208445355Y-74293744D01*
X208493556Y-76200000D01*
X208445355Y-78106257D01*
X208302304Y-79987488D01*
X208066731Y-81841368D01*
X207740962Y-83665568D01*
X207327326Y-85457761D01*
X206828151Y-87215620D01*
X206245762Y-88936816D01*
X205582489Y-90619023D01*
X204840659Y-92259913D01*
X204022598Y-93857158D01*
X203130635Y-95408430D01*
X202167098Y-96911404D01*
X201134313Y-98363749D01*
X200034608Y-99763141D01*
X198870311Y-101107250D01*
X197643749Y-102393749D01*
X196357250Y-103620311D01*
X195013141Y-104784608D01*
X193613749Y-105884313D01*
X192161404Y-106917098D01*
X190658430Y-107880635D01*
X189107158Y-108772598D01*
X187509913Y-109590659D01*
X185869023Y-110332489D01*
X184186816Y-110995762D01*
X182465620Y-111578151D01*
X180707761Y-112077326D01*
X178915568Y-112490962D01*
X177091368Y-112816731D01*
X175237488Y-113052304D01*
X173356257Y-113195355D01*
X171450000Y-113243556D01*
X169543744Y-113195355D01*
X167662513Y-113052304D01*
X165808633Y-112816731D01*
X163984433Y-112490962D01*
X162192240Y-112077326D01*
X160434381Y-111578151D01*
X158713185Y-110995762D01*
X157030978Y-110332489D01*
X155390089Y-109590659D01*
X153792844Y-108772598D01*
X152241571Y-107880635D01*
X150738598Y-106917098D01*
X149286252Y-105884313D01*
X147886860Y-104784608D01*
X146542751Y-103620311D01*
X145256252Y-102393749D01*
X144029690Y-101107250D01*
X142865393Y-99763141D01*
X141765688Y-98363749D01*
X140732903Y-96911404D01*
X139769365Y-95408430D01*
X138877402Y-93857158D01*
X138059342Y-92259913D01*
X137317511Y-90619023D01*
X136654238Y-88936816D01*
X136071850Y-87215620D01*
X135572674Y-85457761D01*
X135159038Y-83665568D01*
X134833270Y-81841368D01*
X134597696Y-79987488D01*
X134454645Y-78106257D01*
X134406444Y-76200000D01*
X134410502Y-76039543D01*
X139370673Y-76039543D01*
X139412293Y-77685564D01*
X139535815Y-79309977D01*
X139739228Y-80910772D01*
X140020523Y-82485939D01*
X140377690Y-84033467D01*
X140808718Y-85551348D01*
X141311599Y-87037572D01*
X141884323Y-88490129D01*
X142524880Y-89907008D01*
X143231259Y-91286201D01*
X144001452Y-92625698D01*
X144833449Y-93923489D01*
X145725239Y-95177564D01*
X146674813Y-96385913D01*
X147680162Y-97546526D01*
X148739275Y-98657395D01*
X149850143Y-99716509D01*
X151010756Y-100721858D01*
X152219104Y-101671433D01*
X153473177Y-102563223D01*
X154770966Y-103395220D01*
X156110461Y-104165413D01*
X157489653Y-104871793D01*
X158906530Y-105512350D01*
X160359085Y-106085073D01*
X161845306Y-106587955D01*
X163363184Y-107018983D01*
X164910710Y-107376150D01*
X166485874Y-107657445D01*
X168086665Y-107860858D01*
X169711074Y-107984379D01*
X171357092Y-108026000D01*
X173003113Y-107984379D01*
X174627526Y-107860857D01*
X176228321Y-107657444D01*
X177803487Y-107376148D01*
X179351016Y-107018981D01*
X180868897Y-106587952D01*
X182355121Y-106085070D01*
X183807677Y-105512345D01*
X185224557Y-104871787D01*
X186603750Y-104165407D01*
X187943247Y-103395212D01*
X189241038Y-102563215D01*
X190495112Y-101671423D01*
X191703461Y-100721847D01*
X192864075Y-99716497D01*
X193974944Y-98657383D01*
X195034058Y-97546514D01*
X196039407Y-96385899D01*
X196988982Y-95177550D01*
X197880772Y-93923475D01*
X198712769Y-92625685D01*
X199482962Y-91286188D01*
X200189342Y-89906995D01*
X200829898Y-88490117D01*
X201402622Y-87037561D01*
X201905503Y-85551339D01*
X202336532Y-84033459D01*
X202693699Y-82485933D01*
X202974993Y-80910768D01*
X203178406Y-79309976D01*
X203301928Y-77685567D01*
X203343548Y-76039549D01*
X203301928Y-74393531D01*
X203178406Y-72769121D01*
X202974992Y-71168329D01*
X202693696Y-69593166D01*
X202336529Y-68045640D01*
X201905499Y-66527761D01*
X201402616Y-65041540D01*
X200829891Y-63588985D01*
X200189333Y-62172107D01*
X199482952Y-60792916D01*
X198712757Y-59453421D01*
X197880759Y-58155632D01*
X196988966Y-56901558D01*
X196039390Y-55693210D01*
X195034040Y-54532597D01*
X193974925Y-53421729D01*
X192864055Y-52362616D01*
X191703440Y-51357268D01*
X190495090Y-50407693D01*
X189241015Y-49515903D01*
X187943224Y-48683907D01*
X186603727Y-47913714D01*
X185224535Y-47207334D01*
X183807656Y-46566778D01*
X182355100Y-45994054D01*
X180868878Y-45491173D01*
X179350999Y-45060144D01*
X177803472Y-44702978D01*
X176228309Y-44421683D01*
X174627518Y-44218270D01*
X173003109Y-44094748D01*
X171357092Y-44053128D01*
X169711074Y-44094748D01*
X168086665Y-44218269D01*
X166485874Y-44421682D01*
X164910711Y-44702976D01*
X163363185Y-45060141D01*
X161845307Y-45491169D01*
X160359085Y-45994049D01*
X158906531Y-46566771D01*
X157489653Y-47207327D01*
X156110462Y-47913705D01*
X154770967Y-48683896D01*
X153473178Y-49515891D01*
X152219104Y-50407680D01*
X151010756Y-51357253D01*
X149850143Y-52362600D01*
X148739276Y-53421712D01*
X147680162Y-54532579D01*
X146674814Y-55693191D01*
X145725239Y-56901538D01*
X144833449Y-58155611D01*
X144001453Y-59453399D01*
X143231260Y-60792895D01*
X142524880Y-62172086D01*
X141884323Y-63588964D01*
X141311600Y-65041519D01*
X140808718Y-66527742D01*
X140377690Y-68045622D01*
X140020523Y-69593149D01*
X139739228Y-71168315D01*
X139535815Y-72769109D01*
X139412293Y-74393521D01*
X139370673Y-76039543D01*
X134410502Y-76039543D01*
X134454645Y-74293744D01*
X134597696Y-72412513D01*
X134833270Y-70558633D01*
X135159038Y-68734433D01*
X135572674Y-66942240D01*
X136071850Y-65184381D01*
X136654238Y-63463185D01*
X137317511Y-61780978D01*
X138059342Y-60140089D01*
X138877402Y-58542844D01*
X139769365Y-56991571D01*
X140732903Y-55488598D01*
X141765688Y-54036252D01*
X142865393Y-52636860D01*
X144029690Y-51292751D01*
X145256252Y-50006252D01*
X146542751Y-48779690D01*
X147886860Y-47615393D01*
X149286252Y-46515688D01*
X150738598Y-45482903D01*
X152241571Y-44519365D01*
X153792844Y-43627402D01*
X155390089Y-42809342D01*
X157030978Y-42067511D01*
X158713185Y-41404238D01*
X160434381Y-40821850D01*
X162192240Y-40322674D01*
X163984433Y-39909038D01*
X165808633Y-39583270D01*
X167662513Y-39347696D01*
X169543744Y-39204645D01*
X171450000Y-39156444D01*
X173356257Y-39204645D01*
G36*
X173356257Y-39204645D02*
G01*
X175237488Y-39347696D01*
X177091368Y-39583269D01*
X178915568Y-39909038D01*
X180707761Y-40322674D01*
X182465620Y-40821849D01*
X184186816Y-41404238D01*
X185869023Y-42067511D01*
X187509913Y-42809341D01*
X189107158Y-43627402D01*
X190658430Y-44519365D01*
X192161404Y-45482902D01*
X193613749Y-46515687D01*
X195013141Y-47615392D01*
X196357250Y-48779689D01*
X197643749Y-50006251D01*
X198870311Y-51292750D01*
X200034608Y-52636859D01*
X201134313Y-54036250D01*
X202167098Y-55488596D01*
X203130635Y-56991570D01*
X204022598Y-58542842D01*
X204840659Y-60140087D01*
X205582489Y-61780977D01*
X206245762Y-63463184D01*
X206828151Y-65184380D01*
X207327326Y-66942239D01*
X207740962Y-68734432D01*
X208066731Y-70558632D01*
X208302304Y-72412512D01*
X208445355Y-74293744D01*
X208493556Y-76200000D01*
X208445355Y-78106257D01*
X208302304Y-79987488D01*
X208066731Y-81841368D01*
X207740962Y-83665568D01*
X207327326Y-85457761D01*
X206828151Y-87215620D01*
X206245762Y-88936816D01*
X205582489Y-90619023D01*
X204840659Y-92259913D01*
X204022598Y-93857158D01*
X203130635Y-95408430D01*
X202167098Y-96911404D01*
X201134313Y-98363749D01*
X200034608Y-99763141D01*
X198870311Y-101107250D01*
X197643749Y-102393749D01*
X196357250Y-103620311D01*
X195013141Y-104784608D01*
X193613749Y-105884313D01*
X192161404Y-106917098D01*
X190658430Y-107880635D01*
X189107158Y-108772598D01*
X187509913Y-109590659D01*
X185869023Y-110332489D01*
X184186816Y-110995762D01*
X182465620Y-111578151D01*
X180707761Y-112077326D01*
X178915568Y-112490962D01*
X177091368Y-112816731D01*
X175237488Y-113052304D01*
X173356257Y-113195355D01*
X171450000Y-113243556D01*
X169543744Y-113195355D01*
X167662513Y-113052304D01*
X165808633Y-112816731D01*
X163984433Y-112490962D01*
X162192240Y-112077326D01*
X160434381Y-111578151D01*
X158713185Y-110995762D01*
X157030978Y-110332489D01*
X155390089Y-109590659D01*
X153792844Y-108772598D01*
X152241571Y-107880635D01*
X150738598Y-106917098D01*
X149286252Y-105884313D01*
X147886860Y-104784608D01*
X146542751Y-103620311D01*
X145256252Y-102393749D01*
X144029690Y-101107250D01*
X142865393Y-99763141D01*
X141765688Y-98363749D01*
X140732903Y-96911404D01*
X139769365Y-95408430D01*
X138877402Y-93857158D01*
X138059342Y-92259913D01*
X137317511Y-90619023D01*
X136654238Y-88936816D01*
X136071850Y-87215620D01*
X135572674Y-85457761D01*
X135159038Y-83665568D01*
X134833270Y-81841368D01*
X134597696Y-79987488D01*
X134454645Y-78106257D01*
X134406444Y-76200000D01*
X134410502Y-76039543D01*
X139370673Y-76039543D01*
X139412293Y-77685564D01*
X139535815Y-79309977D01*
X139739228Y-80910772D01*
X140020523Y-82485939D01*
X140377690Y-84033467D01*
X140808718Y-85551348D01*
X141311599Y-87037572D01*
X141884323Y-88490129D01*
X142524880Y-89907008D01*
X143231259Y-91286201D01*
X144001452Y-92625698D01*
X144833449Y-93923489D01*
X145725239Y-95177564D01*
X146674813Y-96385913D01*
X147680162Y-97546526D01*
X148739275Y-98657395D01*
X149850143Y-99716509D01*
X151010756Y-100721858D01*
X152219104Y-101671433D01*
X153473177Y-102563223D01*
X154770966Y-103395220D01*
X156110461Y-104165413D01*
X157489653Y-104871793D01*
X158906530Y-105512350D01*
X160359085Y-106085073D01*
X161845306Y-106587955D01*
X163363184Y-107018983D01*
X164910710Y-107376150D01*
X166485874Y-107657445D01*
X168086665Y-107860858D01*
X169711074Y-107984379D01*
X171357092Y-108026000D01*
X173003113Y-107984379D01*
X174627526Y-107860857D01*
X176228321Y-107657444D01*
X177803487Y-107376148D01*
X179351016Y-107018981D01*
X180868897Y-106587952D01*
X182355121Y-106085070D01*
X183807677Y-105512345D01*
X185224557Y-104871787D01*
X186603750Y-104165407D01*
X187943247Y-103395212D01*
X189241038Y-102563215D01*
X190495112Y-101671423D01*
X191703461Y-100721847D01*
X192864075Y-99716497D01*
X193974944Y-98657383D01*
X195034058Y-97546514D01*
X196039407Y-96385899D01*
X196988982Y-95177550D01*
X197880772Y-93923475D01*
X198712769Y-92625685D01*
X199482962Y-91286188D01*
X200189342Y-89906995D01*
X200829898Y-88490117D01*
X201402622Y-87037561D01*
X201905503Y-85551339D01*
X202336532Y-84033459D01*
X202693699Y-82485933D01*
X202974993Y-80910768D01*
X203178406Y-79309976D01*
X203301928Y-77685567D01*
X203343548Y-76039549D01*
X203301928Y-74393531D01*
X203178406Y-72769121D01*
X202974992Y-71168329D01*
X202693696Y-69593166D01*
X202336529Y-68045640D01*
X201905499Y-66527761D01*
X201402616Y-65041540D01*
X200829891Y-63588985D01*
X200189333Y-62172107D01*
X199482952Y-60792916D01*
X198712757Y-59453421D01*
X197880759Y-58155632D01*
X196988966Y-56901558D01*
X196039390Y-55693210D01*
X195034040Y-54532597D01*
X193974925Y-53421729D01*
X192864055Y-52362616D01*
X191703440Y-51357268D01*
X190495090Y-50407693D01*
X189241015Y-49515903D01*
X187943224Y-48683907D01*
X186603727Y-47913714D01*
X185224535Y-47207334D01*
X183807656Y-46566778D01*
X182355100Y-45994054D01*
X180868878Y-45491173D01*
X179350999Y-45060144D01*
X177803472Y-44702978D01*
X176228309Y-44421683D01*
X174627518Y-44218270D01*
X173003109Y-44094748D01*
X171357092Y-44053128D01*
X169711074Y-44094748D01*
X168086665Y-44218269D01*
X166485874Y-44421682D01*
X164910711Y-44702976D01*
X163363185Y-45060141D01*
X161845307Y-45491169D01*
X160359085Y-45994049D01*
X158906531Y-46566771D01*
X157489653Y-47207327D01*
X156110462Y-47913705D01*
X154770967Y-48683896D01*
X153473178Y-49515891D01*
X152219104Y-50407680D01*
X151010756Y-51357253D01*
X149850143Y-52362600D01*
X148739276Y-53421712D01*
X147680162Y-54532579D01*
X146674814Y-55693191D01*
X145725239Y-56901538D01*
X144833449Y-58155611D01*
X144001453Y-59453399D01*
X143231260Y-60792895D01*
X142524880Y-62172086D01*
X141884323Y-63588964D01*
X141311600Y-65041519D01*
X140808718Y-66527742D01*
X140377690Y-68045622D01*
X140020523Y-69593149D01*
X139739228Y-71168315D01*
X139535815Y-72769109D01*
X139412293Y-74393521D01*
X139370673Y-76039543D01*
X134410502Y-76039543D01*
X134454645Y-74293744D01*
X134597696Y-72412513D01*
X134833270Y-70558633D01*
X135159038Y-68734433D01*
X135572674Y-66942240D01*
X136071850Y-65184381D01*
X136654238Y-63463185D01*
X137317511Y-61780978D01*
X138059342Y-60140089D01*
X138877402Y-58542844D01*
X139769365Y-56991571D01*
X140732903Y-55488598D01*
X141765688Y-54036252D01*
X142865393Y-52636860D01*
X144029690Y-51292751D01*
X145256252Y-50006252D01*
X146542751Y-48779690D01*
X147886860Y-47615393D01*
X149286252Y-46515688D01*
X150738598Y-45482903D01*
X152241571Y-44519365D01*
X153792844Y-43627402D01*
X155390089Y-42809342D01*
X157030978Y-42067511D01*
X158713185Y-41404238D01*
X160434381Y-40821850D01*
X162192240Y-40322674D01*
X163984433Y-39909038D01*
X165808633Y-39583270D01*
X167662513Y-39347696D01*
X169543744Y-39204645D01*
X171450000Y-39156444D01*
X173356257Y-39204645D01*
G37*
M02*
