%TF.GenerationSoftware,KiCad,Pcbnew,8.0.6*%
%TF.CreationDate,2024-12-06T10:28:02+08:00*%
%TF.ProjectId,PH60_Rev2,50483630-5f52-4657-9632-2e6b69636164,rev?*%
%TF.SameCoordinates,Original*%
%TF.FileFunction,Soldermask,Top*%
%TF.FilePolarity,Negative*%
%FSLAX46Y46*%
G04 Gerber Fmt 4.6, Leading zero omitted, Abs format (unit mm)*
G04 Created by KiCad (PCBNEW 8.0.6) date 2024-12-06 10:28:02*
%MOMM*%
%LPD*%
G01*
G04 APERTURE LIST*
%ADD10C,1.750000*%
%ADD11C,4.000000*%
%ADD12C,3.600000*%
%ADD13C,3.048000*%
%ADD14C,3.987800*%
%ADD15O,5.000000X2.500000*%
%ADD16O,7.000000X2.500000*%
%ADD17C,2.500000*%
%ADD18C,3.050000*%
%ADD19R,1.000000X1.000000*%
%ADD20O,1.000000X1.000000*%
%ADD21C,0.650000*%
%ADD22O,1.000000X1.800000*%
%ADD23O,1.000000X2.100000*%
G04 APERTURE END LIST*
D10*
%TO.C,S20*%
X137795000Y-57150000D03*
D11*
X142875000Y-57150000D03*
D10*
X147955000Y-57150000D03*
D12*
X139065000Y-54610000D03*
X145415000Y-52070000D03*
%TD*%
D10*
%TO.C,S19*%
X118745000Y-57150000D03*
D11*
X123825000Y-57150000D03*
D10*
X128905000Y-57150000D03*
D12*
X120015000Y-54610000D03*
X126365000Y-52070000D03*
%TD*%
D10*
%TO.C,S47*%
X113982500Y-95250000D03*
D11*
X119062500Y-95250000D03*
D10*
X124142500Y-95250000D03*
D12*
X115252500Y-92710000D03*
X121602500Y-90170000D03*
%TD*%
D10*
%TO.C,S4*%
X90170000Y-38100000D03*
D11*
X95250000Y-38100000D03*
D10*
X100330000Y-38100000D03*
D12*
X91440000Y-35560000D03*
X97790000Y-33020000D03*
%TD*%
D10*
%TO.C,S7*%
X147320000Y-38100000D03*
D11*
X152400000Y-38100000D03*
D10*
X157480000Y-38100000D03*
D12*
X148590000Y-35560000D03*
X154940000Y-33020000D03*
%TD*%
D10*
%TO.C,S57-2*%
X42862500Y-109220000D03*
D11*
X42862500Y-114300000D03*
D10*
X42862500Y-119380000D03*
D12*
X45402500Y-110490000D03*
X47942500Y-116840000D03*
%TD*%
D10*
%TO.C,S12*%
X242570000Y-38100000D03*
D11*
X247650000Y-38100000D03*
D10*
X252730000Y-38100000D03*
D12*
X243840000Y-35560000D03*
X250190000Y-33020000D03*
%TD*%
D10*
%TO.C,S62*%
X254793750Y-109220000D03*
D11*
X254793750Y-114300000D03*
D10*
X254793750Y-119380000D03*
D12*
X257333750Y-110490000D03*
X259873750Y-116840000D03*
%TD*%
D10*
%TO.C,S3*%
X71120000Y-38100000D03*
D11*
X76200000Y-38100000D03*
D10*
X81280000Y-38100000D03*
D12*
X72390000Y-35560000D03*
X78740000Y-33020000D03*
%TD*%
D10*
%TO.C,S15*%
X37782500Y-57150000D03*
D11*
X42862500Y-57150000D03*
D10*
X47942500Y-57150000D03*
D12*
X39052500Y-54610000D03*
X45402500Y-52070000D03*
%TD*%
D10*
%TO.C,S62-2*%
X252412500Y-119380000D03*
D11*
X252412500Y-114300000D03*
D10*
X252412500Y-109220000D03*
D12*
X249872500Y-118110000D03*
X247332500Y-111760000D03*
%TD*%
D13*
%TO.C,REF\u002A\u002A*%
X280955750Y-69215000D03*
D14*
X280955750Y-84425000D03*
D13*
X304831750Y-69215000D03*
D14*
X304831750Y-84425000D03*
%TD*%
D10*
%TO.C,S25*%
X233045000Y-57150000D03*
D11*
X238125000Y-57150000D03*
D10*
X243205000Y-57150000D03*
D12*
X234315000Y-54610000D03*
X240665000Y-52070000D03*
%TD*%
D10*
%TO.C,S1*%
X43180000Y-38100000D03*
D11*
X38100000Y-38100000D03*
D10*
X33020000Y-38100000D03*
D12*
X41910000Y-40640000D03*
X35560000Y-43180000D03*
%TD*%
D10*
%TO.C,S9*%
X185420000Y-38100000D03*
D11*
X190500000Y-38100000D03*
D10*
X195580000Y-38100000D03*
D12*
X186690000Y-35560000D03*
X193040000Y-33020000D03*
%TD*%
D10*
%TO.C,S44*%
X56832500Y-95250000D03*
D11*
X61912500Y-95250000D03*
D10*
X66992500Y-95250000D03*
D12*
X58102500Y-92710000D03*
X64452500Y-90170000D03*
%TD*%
D10*
%TO.C,S23*%
X194945000Y-57150000D03*
D11*
X200025000Y-57150000D03*
D10*
X205105000Y-57150000D03*
D12*
X196215000Y-54610000D03*
X202565000Y-52070000D03*
%TD*%
D10*
%TO.C,S64-2*%
X300037500Y-119380000D03*
D11*
X300037500Y-114300000D03*
D10*
X300037500Y-109220000D03*
D12*
X297497500Y-118110000D03*
X294957500Y-111760000D03*
%TD*%
D10*
%TO.C,S57*%
X40481250Y-119380000D03*
D11*
X40481250Y-114300000D03*
D10*
X40481250Y-109220000D03*
D12*
X37941250Y-118110000D03*
X35401250Y-111760000D03*
%TD*%
D10*
%TO.C,S14*%
X290195000Y-38100000D03*
D11*
X295275000Y-38100000D03*
D10*
X300355000Y-38100000D03*
D12*
X291465000Y-35560000D03*
X297815000Y-33020000D03*
%TD*%
D10*
%TO.C,S61*%
X225901250Y-114300000D03*
D11*
X230981250Y-114300000D03*
D10*
X236061250Y-114300000D03*
D12*
X227171250Y-111760000D03*
X233521250Y-109220000D03*
%TD*%
D10*
%TO.C,S16*%
X61595000Y-57150000D03*
D11*
X66675000Y-57150000D03*
D10*
X71755000Y-57150000D03*
D12*
X62865000Y-54610000D03*
X69215000Y-52070000D03*
%TD*%
D10*
%TO.C,S24*%
X213995000Y-57150000D03*
D11*
X219075000Y-57150000D03*
D10*
X224155000Y-57150000D03*
D12*
X215265000Y-54610000D03*
X221615000Y-52070000D03*
%TD*%
D10*
%TO.C,S31*%
X85407500Y-76200000D03*
D11*
X90487500Y-76200000D03*
D10*
X95567500Y-76200000D03*
D12*
X86677500Y-73660000D03*
X93027500Y-71120000D03*
%TD*%
D10*
%TO.C,S33*%
X123507500Y-76200000D03*
D11*
X128587500Y-76200000D03*
D10*
X133667500Y-76200000D03*
D12*
X124777500Y-73660000D03*
X131127500Y-71120000D03*
%TD*%
D10*
%TO.C,S34*%
X142557500Y-76200000D03*
D11*
X147637500Y-76200000D03*
D10*
X152717500Y-76200000D03*
D12*
X143827500Y-73660000D03*
X150177500Y-71120000D03*
%TD*%
D10*
%TO.C,S46*%
X94932500Y-95250000D03*
D11*
X100012500Y-95250000D03*
D10*
X105092500Y-95250000D03*
D12*
X96202500Y-92710000D03*
X102552500Y-90170000D03*
%TD*%
D10*
%TO.C,S50*%
X171132500Y-95250000D03*
D11*
X176212500Y-95250000D03*
D10*
X181292500Y-95250000D03*
D12*
X172402500Y-92710000D03*
X178752500Y-90170000D03*
%TD*%
D15*
%TO.C,HOLE*%
X289000000Y-56800000D03*
%TD*%
D10*
%TO.C,S22*%
X175895000Y-57150000D03*
D11*
X180975000Y-57150000D03*
D10*
X186055000Y-57150000D03*
D12*
X177165000Y-54610000D03*
X183515000Y-52070000D03*
%TD*%
D10*
%TO.C,S41*%
X280987500Y-81280000D03*
D11*
X280987500Y-76200000D03*
D10*
X280987500Y-71120000D03*
D12*
X278447500Y-80010000D03*
X275907500Y-73660000D03*
%TD*%
D10*
%TO.C,S63-2*%
X276225000Y-119380000D03*
D11*
X276225000Y-114300000D03*
D10*
X276225000Y-109220000D03*
D12*
X273685000Y-118110000D03*
X271145000Y-111760000D03*
%TD*%
D10*
%TO.C,S27*%
X271145000Y-57150000D03*
D11*
X276225000Y-57150000D03*
D10*
X281305000Y-57150000D03*
D12*
X272415000Y-54610000D03*
X278765000Y-52070000D03*
%TD*%
D10*
%TO.C,S58*%
X64293750Y-119380000D03*
D11*
X64293750Y-114300000D03*
D10*
X64293750Y-109220000D03*
D12*
X61753750Y-118110000D03*
X59213750Y-111760000D03*
%TD*%
D10*
%TO.C,S60-2*%
X176530000Y-114300000D03*
D11*
X171450000Y-114300000D03*
D10*
X166370000Y-114300000D03*
D12*
X175260000Y-116840000D03*
X168910000Y-119380000D03*
%TD*%
D10*
%TO.C,S8*%
X166370000Y-38100000D03*
D11*
X171450000Y-38100000D03*
D10*
X176530000Y-38100000D03*
D12*
X167640000Y-35560000D03*
X173990000Y-33020000D03*
%TD*%
D10*
%TO.C,S63*%
X278606250Y-109220000D03*
D11*
X278606250Y-114300000D03*
D10*
X278606250Y-119380000D03*
D12*
X281146250Y-110490000D03*
X283686250Y-116840000D03*
%TD*%
D10*
%TO.C,S37*%
X199707500Y-76200000D03*
D11*
X204787500Y-76200000D03*
D10*
X209867500Y-76200000D03*
D12*
X200977500Y-73660000D03*
X207327500Y-71120000D03*
%TD*%
D10*
%TO.C,S55*%
X278606250Y-90170000D03*
D11*
X278606250Y-95250000D03*
D10*
X278606250Y-100330000D03*
D12*
X281146250Y-91440000D03*
X283686250Y-97790000D03*
%TD*%
D15*
%TO.C,HOLE*%
X157150000Y-75900000D03*
%TD*%
D13*
%TO.C,REF\u002A\u002A*%
X295433750Y-78613000D03*
D14*
X310643750Y-78613000D03*
D13*
X295433750Y-54737000D03*
D14*
X310643750Y-54737000D03*
%TD*%
D10*
%TO.C,S21*%
X156845000Y-57150000D03*
D11*
X161925000Y-57150000D03*
D10*
X167005000Y-57150000D03*
D12*
X158115000Y-54610000D03*
X164465000Y-52070000D03*
%TD*%
D10*
%TO.C,S11*%
X223520000Y-38100000D03*
D11*
X228600000Y-38100000D03*
D10*
X233680000Y-38100000D03*
D12*
X224790000Y-35560000D03*
X231140000Y-33020000D03*
%TD*%
D10*
%TO.C,S52*%
X209232500Y-95250000D03*
D11*
X214312500Y-95250000D03*
D10*
X219392500Y-95250000D03*
D12*
X210502500Y-92710000D03*
X216852500Y-90170000D03*
%TD*%
D10*
%TO.C,S30*%
X66357500Y-76200000D03*
D11*
X71437500Y-76200000D03*
D10*
X76517500Y-76200000D03*
D12*
X67627500Y-73660000D03*
X73977500Y-71120000D03*
%TD*%
D10*
%TO.C,S38*%
X218757500Y-76200000D03*
D11*
X223837500Y-76200000D03*
D10*
X228917500Y-76200000D03*
D12*
X220027500Y-73660000D03*
X226377500Y-71120000D03*
%TD*%
D10*
%TO.C,S35*%
X161607500Y-76200000D03*
D11*
X166687500Y-76200000D03*
D10*
X171767500Y-76200000D03*
D12*
X162877500Y-73660000D03*
X169227500Y-71120000D03*
%TD*%
D10*
%TO.C,S39*%
X237807500Y-76200000D03*
D11*
X242887500Y-76200000D03*
D10*
X247967500Y-76200000D03*
D12*
X239077500Y-73660000D03*
X245427500Y-71120000D03*
%TD*%
D10*
%TO.C,S48*%
X133032500Y-95250000D03*
D11*
X138112500Y-95250000D03*
D10*
X143192500Y-95250000D03*
D12*
X134302500Y-92710000D03*
X140652500Y-90170000D03*
%TD*%
D10*
%TO.C,S18*%
X99695000Y-57150000D03*
D11*
X104775000Y-57150000D03*
D10*
X109855000Y-57150000D03*
D12*
X100965000Y-54610000D03*
X107315000Y-52070000D03*
%TD*%
D10*
%TO.C,S28-2*%
X292893750Y-81280000D03*
D11*
X292893750Y-76200000D03*
D10*
X292893750Y-71120000D03*
D12*
X290353750Y-80010000D03*
X287813750Y-73660000D03*
%TD*%
D13*
%TO.C,REF\u002A\u002A*%
X228600000Y-121285000D03*
D14*
X228600000Y-106075000D03*
D13*
X114300000Y-121285000D03*
D14*
X114300000Y-106075000D03*
%TD*%
D10*
%TO.C,S45*%
X75882500Y-95250000D03*
D11*
X80962500Y-95250000D03*
D10*
X86042500Y-95250000D03*
D12*
X77152500Y-92710000D03*
X83502500Y-90170000D03*
%TD*%
D10*
%TO.C,S13*%
X261620000Y-38100000D03*
D11*
X266700000Y-38100000D03*
D10*
X271780000Y-38100000D03*
D12*
X262890000Y-35560000D03*
X269240000Y-33020000D03*
%TD*%
D16*
%TO.C,HOLE*%
X312490000Y-85400000D03*
%TD*%
D10*
%TO.C,S26*%
X252095000Y-57150000D03*
D11*
X257175000Y-57150000D03*
D10*
X262255000Y-57150000D03*
D12*
X253365000Y-54610000D03*
X259715000Y-52070000D03*
%TD*%
D10*
%TO.C,S5*%
X109220000Y-38100000D03*
D11*
X114300000Y-38100000D03*
D10*
X119380000Y-38100000D03*
D12*
X110490000Y-35560000D03*
X116840000Y-33020000D03*
%TD*%
D10*
%TO.C,S17*%
X80645000Y-57150000D03*
D11*
X85725000Y-57150000D03*
D10*
X90805000Y-57150000D03*
D12*
X81915000Y-54610000D03*
X88265000Y-52070000D03*
%TD*%
D10*
%TO.C,S32*%
X104457500Y-76200000D03*
D11*
X109537500Y-76200000D03*
D10*
X114617500Y-76200000D03*
D12*
X105727500Y-73660000D03*
X112077500Y-71120000D03*
%TD*%
D10*
%TO.C,S55-2*%
X288131250Y-90170000D03*
D11*
X288131250Y-95250000D03*
D10*
X288131250Y-100330000D03*
D12*
X290671250Y-91440000D03*
X293211250Y-97790000D03*
%TD*%
D10*
%TO.C,S36*%
X180657500Y-76200000D03*
D11*
X185737500Y-76200000D03*
D10*
X190817500Y-76200000D03*
D12*
X181927500Y-73660000D03*
X188277500Y-71120000D03*
%TD*%
D10*
%TO.C,S49*%
X152082500Y-95250000D03*
D11*
X157162500Y-95250000D03*
D10*
X162242500Y-95250000D03*
D12*
X153352500Y-92710000D03*
X159702500Y-90170000D03*
%TD*%
D10*
%TO.C,S60*%
X154463750Y-114300000D03*
D11*
X159543750Y-114300000D03*
D10*
X164623750Y-114300000D03*
D12*
X155733750Y-111760000D03*
X162083750Y-109220000D03*
%TD*%
D10*
%TO.C,S53*%
X228282500Y-95250000D03*
D11*
X233362500Y-95250000D03*
D10*
X238442500Y-95250000D03*
D12*
X229552500Y-92710000D03*
X235902500Y-90170000D03*
%TD*%
D17*
%TO.C,HOLE*%
X54150000Y-56800000D03*
%TD*%
D10*
%TO.C,S10*%
X204470000Y-38100000D03*
D11*
X209550000Y-38100000D03*
D10*
X214630000Y-38100000D03*
D12*
X205740000Y-35560000D03*
X212090000Y-33020000D03*
%TD*%
D10*
%TO.C,S56*%
X304800000Y-90170000D03*
D11*
X304800000Y-95250000D03*
D10*
X304800000Y-100330000D03*
D12*
X307340000Y-91440000D03*
X309880000Y-97790000D03*
%TD*%
D10*
%TO.C,S59*%
X88106250Y-119380000D03*
D11*
X88106250Y-114300000D03*
D10*
X88106250Y-109220000D03*
D12*
X85566250Y-118110000D03*
X83026250Y-111760000D03*
%TD*%
D13*
%TO.C,REF\u002A\u002A*%
X61944250Y-102235000D03*
D14*
X61944250Y-87025000D03*
D13*
X38068250Y-102235000D03*
D14*
X38068250Y-87025000D03*
%TD*%
D13*
%TO.C,REF\u002A\u002A*%
X209543750Y-121285000D03*
D14*
X209543750Y-106075000D03*
D13*
X109543750Y-121285000D03*
D14*
X109543750Y-106075000D03*
%TD*%
D10*
%TO.C,S42*%
X309880000Y-38100000D03*
D11*
X304800000Y-38100000D03*
D10*
X299720000Y-38100000D03*
D12*
X308610000Y-40640000D03*
X302260000Y-43180000D03*
%TD*%
D10*
%TO.C,S14-2*%
X290830000Y-38100000D03*
D11*
X285750000Y-38100000D03*
D18*
X283210000Y-43180000D03*
D10*
X280670000Y-38100000D03*
D12*
X289560000Y-40640000D03*
%TD*%
D13*
%TO.C,REF\u002A\u002A*%
X283337000Y-31115000D03*
D14*
X283337000Y-46325000D03*
D13*
X307213000Y-31115000D03*
D14*
X307213000Y-46325000D03*
%TD*%
D10*
%TO.C,S54*%
X247332500Y-95250000D03*
D11*
X252412500Y-95250000D03*
D10*
X257492500Y-95250000D03*
D12*
X248602500Y-92710000D03*
X254952500Y-90170000D03*
%TD*%
D10*
%TO.C,S43*%
X35401250Y-95250000D03*
D11*
X40481250Y-95250000D03*
D10*
X45561250Y-95250000D03*
D12*
X36671250Y-92710000D03*
X43021250Y-90170000D03*
%TD*%
D10*
%TO.C,S51*%
X190182500Y-95250000D03*
D11*
X195262500Y-95250000D03*
D10*
X200342500Y-95250000D03*
D12*
X191452500Y-92710000D03*
X197802500Y-90170000D03*
%TD*%
D10*
%TO.C,S58-2*%
X66675000Y-109220000D03*
D11*
X66675000Y-114300000D03*
D10*
X66675000Y-119380000D03*
D12*
X69215000Y-110490000D03*
X71755000Y-116840000D03*
%TD*%
D10*
%TO.C,S41-2*%
X300037500Y-52070000D03*
D11*
X300037500Y-57150000D03*
D10*
X300037500Y-62230000D03*
D12*
X302577500Y-53340000D03*
X305117500Y-59690000D03*
%TD*%
D10*
%TO.C,S28*%
X302418750Y-71755000D03*
D11*
X302418750Y-66675000D03*
D10*
X302418750Y-61595000D03*
D12*
X299878750Y-70485000D03*
X297338750Y-64135000D03*
%TD*%
D13*
%TO.C,REF\u002A\u002A*%
X276193250Y-88265000D03*
D14*
X276193250Y-103475000D03*
D13*
X300069250Y-88265000D03*
D14*
X300069250Y-103475000D03*
%TD*%
D10*
%TO.C,S29-2*%
X40481250Y-81280000D03*
D11*
X40481250Y-76200000D03*
D10*
X40481250Y-71120000D03*
D12*
X37941250Y-80010000D03*
X35401250Y-73660000D03*
%TD*%
D10*
%TO.C,S29*%
X45243750Y-71120000D03*
D11*
X45243750Y-76200000D03*
D10*
X45243750Y-81280000D03*
D12*
X47783750Y-72390000D03*
X50323750Y-78740000D03*
%TD*%
D10*
%TO.C,S6*%
X128270000Y-38100000D03*
D11*
X133350000Y-38100000D03*
D10*
X138430000Y-38100000D03*
D12*
X129540000Y-35560000D03*
X135890000Y-33020000D03*
%TD*%
D16*
%TO.C,HOLE*%
X30410000Y-85400000D03*
%TD*%
D10*
%TO.C,S59-2*%
X90487500Y-109220000D03*
D11*
X90487500Y-114300000D03*
D10*
X90487500Y-119380000D03*
D12*
X93027500Y-110490000D03*
X95567500Y-116840000D03*
%TD*%
D10*
%TO.C,S43-2*%
X55086250Y-95250000D03*
D11*
X50006250Y-95250000D03*
D10*
X44926250Y-95250000D03*
D12*
X53816250Y-97790000D03*
X47466250Y-100330000D03*
%TD*%
D10*
%TO.C,S2*%
X62230000Y-38100000D03*
D11*
X57150000Y-38100000D03*
D10*
X52070000Y-38100000D03*
D12*
X60960000Y-40640000D03*
X54610000Y-43180000D03*
%TD*%
D15*
%TO.C,HOLE*%
X219450000Y-114100000D03*
%TD*%
D10*
%TO.C,S64*%
X302418750Y-109220000D03*
D11*
X302418750Y-114300000D03*
D10*
X302418750Y-119380000D03*
D12*
X304958750Y-110490000D03*
X307498750Y-116840000D03*
%TD*%
D10*
%TO.C,S40*%
X256857500Y-76200000D03*
D11*
X261937500Y-76200000D03*
D10*
X267017500Y-76200000D03*
D12*
X258127500Y-73660000D03*
X264477500Y-71120000D03*
%TD*%
D19*
%TO.C,J2*%
X124225000Y-106150000D03*
D20*
X122955000Y-106150000D03*
%TD*%
D21*
%TO.C,J1*%
X44260000Y-35180000D03*
X50040000Y-35180000D03*
D22*
X42830000Y-31500000D03*
D23*
X42830000Y-35680000D03*
D22*
X51470000Y-31500000D03*
D23*
X51470000Y-35680000D03*
%TD*%
M02*
