%TF.GenerationSoftware,KiCad,Pcbnew,8.0.7*%
%TF.CreationDate,2024-12-20T17:07:47+08:00*%
%TF.ProjectId,PH60_Rev2,50483630-5f52-4657-9632-2e6b69636164,rev?*%
%TF.SameCoordinates,PX1b40518PY1b40518*%
%TF.FileFunction,Soldermask,Bot*%
%TF.FilePolarity,Negative*%
%FSLAX46Y46*%
G04 Gerber Fmt 4.6, Leading zero omitted, Abs format (unit mm)*
G04 Created by KiCad (PCBNEW 8.0.7) date 2024-12-20 17:07:47*
%MOMM*%
%LPD*%
G01*
G04 APERTURE LIST*
G04 Aperture macros list*
%AMRoundRect*
0 Rectangle with rounded corners*
0 $1 Rounding radius*
0 $2 $3 $4 $5 $6 $7 $8 $9 X,Y pos of 4 corners*
0 Add a 4 corners polygon primitive as box body*
4,1,4,$2,$3,$4,$5,$6,$7,$8,$9,$2,$3,0*
0 Add four circle primitives for the rounded corners*
1,1,$1+$1,$2,$3*
1,1,$1+$1,$4,$5*
1,1,$1+$1,$6,$7*
1,1,$1+$1,$8,$9*
0 Add four rect primitives between the rounded corners*
20,1,$1+$1,$2,$3,$4,$5,0*
20,1,$1+$1,$4,$5,$6,$7,0*
20,1,$1+$1,$6,$7,$8,$9,0*
20,1,$1+$1,$8,$9,$2,$3,0*%
G04 Aperture macros list end*
%ADD10C,0.150000*%
%ADD11C,0.300000*%
%ADD12RoundRect,0.250000X-1.025000X-1.000000X1.025000X-1.000000X1.025000X1.000000X-1.025000X1.000000X0*%
%ADD13C,1.750000*%
%ADD14C,4.000000*%
%ADD15C,3.600000*%
%ADD16RoundRect,0.250000X1.025000X1.000000X-1.025000X1.000000X-1.025000X-1.000000X1.025000X-1.000000X0*%
%ADD17C,3.048000*%
%ADD18C,3.987800*%
%ADD19O,5.000000X2.500000*%
%ADD20RoundRect,0.250000X1.000000X-1.025000X1.000000X1.025000X-1.000000X1.025000X-1.000000X-1.025000X0*%
%ADD21C,3.050000*%
%ADD22O,7.000000X2.500000*%
%ADD23C,2.500000*%
%ADD24RoundRect,0.250000X-1.000000X1.025000X-1.000000X-1.025000X1.000000X-1.025000X1.000000X1.025000X0*%
%ADD25RoundRect,0.225000X-0.375000X0.225000X-0.375000X-0.225000X0.375000X-0.225000X0.375000X0.225000X0*%
%ADD26RoundRect,0.225000X0.375000X-0.225000X0.375000X0.225000X-0.375000X0.225000X-0.375000X-0.225000X0*%
%ADD27RoundRect,0.135000X-0.135000X-0.185000X0.135000X-0.185000X0.135000X0.185000X-0.135000X0.185000X0*%
%ADD28RoundRect,0.140000X0.140000X0.170000X-0.140000X0.170000X-0.140000X-0.170000X0.140000X-0.170000X0*%
%ADD29RoundRect,0.225000X-0.225000X-0.375000X0.225000X-0.375000X0.225000X0.375000X-0.225000X0.375000X0*%
%ADD30RoundRect,0.135000X0.135000X0.185000X-0.135000X0.185000X-0.135000X-0.185000X0.135000X-0.185000X0*%
%ADD31RoundRect,0.140000X-0.170000X0.140000X-0.170000X-0.140000X0.170000X-0.140000X0.170000X0.140000X0*%
%ADD32R,1.400000X1.200000*%
%ADD33RoundRect,0.062500X0.387500X0.062500X-0.387500X0.062500X-0.387500X-0.062500X0.387500X-0.062500X0*%
%ADD34R,0.200000X1.600000*%
%ADD35RoundRect,0.140000X-0.140000X-0.170000X0.140000X-0.170000X0.140000X0.170000X-0.140000X0.170000X0*%
%ADD36RoundRect,0.050000X-0.050000X0.387500X-0.050000X-0.387500X0.050000X-0.387500X0.050000X0.387500X0*%
%ADD37RoundRect,0.050000X-0.387500X0.050000X-0.387500X-0.050000X0.387500X-0.050000X0.387500X0.050000X0*%
%ADD38R,3.200000X3.200000*%
%ADD39RoundRect,0.140000X0.170000X-0.140000X0.170000X0.140000X-0.170000X0.140000X-0.170000X-0.140000X0*%
%ADD40R,1.000000X1.000000*%
%ADD41O,1.000000X1.000000*%
%ADD42RoundRect,0.150000X0.512500X0.150000X-0.512500X0.150000X-0.512500X-0.150000X0.512500X-0.150000X0*%
%ADD43RoundRect,0.140000X0.219203X0.021213X0.021213X0.219203X-0.219203X-0.021213X-0.021213X-0.219203X0*%
%ADD44C,0.650000*%
%ADD45RoundRect,0.150000X-0.150000X-0.425000X0.150000X-0.425000X0.150000X0.425000X-0.150000X0.425000X0*%
%ADD46RoundRect,0.075000X-0.075000X-0.500000X0.075000X-0.500000X0.075000X0.500000X-0.075000X0.500000X0*%
%ADD47O,1.000000X1.800000*%
%ADD48O,1.000000X2.100000*%
G04 APERTURE END LIST*
D10*
X170754887Y-83441177D02*
X170612030Y-83488796D01*
X170612030Y-83488796D02*
X170564411Y-83536415D01*
X170564411Y-83536415D02*
X170516792Y-83631653D01*
X170516792Y-83631653D02*
X170516792Y-83774510D01*
X170516792Y-83774510D02*
X170564411Y-83869748D01*
X170564411Y-83869748D02*
X170612030Y-83917368D01*
X170612030Y-83917368D02*
X170707268Y-83964987D01*
X170707268Y-83964987D02*
X171088220Y-83964987D01*
X171088220Y-83964987D02*
X171088220Y-82964987D01*
X171088220Y-82964987D02*
X170754887Y-82964987D01*
X170754887Y-82964987D02*
X170659649Y-83012606D01*
X170659649Y-83012606D02*
X170612030Y-83060225D01*
X170612030Y-83060225D02*
X170564411Y-83155463D01*
X170564411Y-83155463D02*
X170564411Y-83250701D01*
X170564411Y-83250701D02*
X170612030Y-83345939D01*
X170612030Y-83345939D02*
X170659649Y-83393558D01*
X170659649Y-83393558D02*
X170754887Y-83441177D01*
X170754887Y-83441177D02*
X171088220Y-83441177D01*
X170183458Y-83298320D02*
X169945363Y-83964987D01*
X169707268Y-83298320D02*
X169945363Y-83964987D01*
X169945363Y-83964987D02*
X170040601Y-84203082D01*
X170040601Y-84203082D02*
X170088220Y-84250701D01*
X170088220Y-84250701D02*
X170183458Y-84298320D01*
X168707267Y-82964987D02*
X168135839Y-82964987D01*
X168421553Y-83964987D02*
X168421553Y-82964987D01*
X167421553Y-83917368D02*
X167516791Y-83964987D01*
X167516791Y-83964987D02*
X167707267Y-83964987D01*
X167707267Y-83964987D02*
X167802505Y-83917368D01*
X167802505Y-83917368D02*
X167850124Y-83822129D01*
X167850124Y-83822129D02*
X167850124Y-83441177D01*
X167850124Y-83441177D02*
X167802505Y-83345939D01*
X167802505Y-83345939D02*
X167707267Y-83298320D01*
X167707267Y-83298320D02*
X167516791Y-83298320D01*
X167516791Y-83298320D02*
X167421553Y-83345939D01*
X167421553Y-83345939D02*
X167373934Y-83441177D01*
X167373934Y-83441177D02*
X167373934Y-83536415D01*
X167373934Y-83536415D02*
X167850124Y-83631653D01*
X166516791Y-83964987D02*
X166516791Y-83441177D01*
X166516791Y-83441177D02*
X166564410Y-83345939D01*
X166564410Y-83345939D02*
X166659648Y-83298320D01*
X166659648Y-83298320D02*
X166850124Y-83298320D01*
X166850124Y-83298320D02*
X166945362Y-83345939D01*
X166516791Y-83917368D02*
X166612029Y-83964987D01*
X166612029Y-83964987D02*
X166850124Y-83964987D01*
X166850124Y-83964987D02*
X166945362Y-83917368D01*
X166945362Y-83917368D02*
X166992981Y-83822129D01*
X166992981Y-83822129D02*
X166992981Y-83726891D01*
X166992981Y-83726891D02*
X166945362Y-83631653D01*
X166945362Y-83631653D02*
X166850124Y-83584034D01*
X166850124Y-83584034D02*
X166612029Y-83584034D01*
X166612029Y-83584034D02*
X166516791Y-83536415D01*
X166040600Y-83964987D02*
X166040600Y-83298320D01*
X166040600Y-83393558D02*
X165992981Y-83345939D01*
X165992981Y-83345939D02*
X165897743Y-83298320D01*
X165897743Y-83298320D02*
X165754886Y-83298320D01*
X165754886Y-83298320D02*
X165659648Y-83345939D01*
X165659648Y-83345939D02*
X165612029Y-83441177D01*
X165612029Y-83441177D02*
X165612029Y-83964987D01*
X165612029Y-83441177D02*
X165564410Y-83345939D01*
X165564410Y-83345939D02*
X165469172Y-83298320D01*
X165469172Y-83298320D02*
X165326315Y-83298320D01*
X165326315Y-83298320D02*
X165231076Y-83345939D01*
X165231076Y-83345939D02*
X165183457Y-83441177D01*
X165183457Y-83441177D02*
X165183457Y-83964987D01*
X163945362Y-83964987D02*
X163945362Y-82964987D01*
X163945362Y-82964987D02*
X163564410Y-82964987D01*
X163564410Y-82964987D02*
X163469172Y-83012606D01*
X163469172Y-83012606D02*
X163421553Y-83060225D01*
X163421553Y-83060225D02*
X163373934Y-83155463D01*
X163373934Y-83155463D02*
X163373934Y-83298320D01*
X163373934Y-83298320D02*
X163421553Y-83393558D01*
X163421553Y-83393558D02*
X163469172Y-83441177D01*
X163469172Y-83441177D02*
X163564410Y-83488796D01*
X163564410Y-83488796D02*
X163945362Y-83488796D01*
X162945362Y-83964987D02*
X162945362Y-82964987D01*
X162945362Y-83441177D02*
X162373934Y-83441177D01*
X162373934Y-83964987D02*
X162373934Y-82964987D01*
X161897743Y-83964987D02*
X161897743Y-82964987D01*
X161897743Y-82964987D02*
X161659648Y-82964987D01*
X161659648Y-82964987D02*
X161516791Y-83012606D01*
X161516791Y-83012606D02*
X161421553Y-83107844D01*
X161421553Y-83107844D02*
X161373934Y-83203082D01*
X161373934Y-83203082D02*
X161326315Y-83393558D01*
X161326315Y-83393558D02*
X161326315Y-83536415D01*
X161326315Y-83536415D02*
X161373934Y-83726891D01*
X161373934Y-83726891D02*
X161421553Y-83822129D01*
X161421553Y-83822129D02*
X161516791Y-83917368D01*
X161516791Y-83917368D02*
X161659648Y-83964987D01*
X161659648Y-83964987D02*
X161897743Y-83964987D01*
X160516791Y-83917368D02*
X160612029Y-83964987D01*
X160612029Y-83964987D02*
X160802505Y-83964987D01*
X160802505Y-83964987D02*
X160897743Y-83917368D01*
X160897743Y-83917368D02*
X160945362Y-83822129D01*
X160945362Y-83822129D02*
X160945362Y-83441177D01*
X160945362Y-83441177D02*
X160897743Y-83345939D01*
X160897743Y-83345939D02*
X160802505Y-83298320D01*
X160802505Y-83298320D02*
X160612029Y-83298320D01*
X160612029Y-83298320D02*
X160516791Y-83345939D01*
X160516791Y-83345939D02*
X160469172Y-83441177D01*
X160469172Y-83441177D02*
X160469172Y-83536415D01*
X160469172Y-83536415D02*
X160945362Y-83631653D01*
X160088219Y-83917368D02*
X159992981Y-83964987D01*
X159992981Y-83964987D02*
X159802505Y-83964987D01*
X159802505Y-83964987D02*
X159707267Y-83917368D01*
X159707267Y-83917368D02*
X159659648Y-83822129D01*
X159659648Y-83822129D02*
X159659648Y-83774510D01*
X159659648Y-83774510D02*
X159707267Y-83679272D01*
X159707267Y-83679272D02*
X159802505Y-83631653D01*
X159802505Y-83631653D02*
X159945362Y-83631653D01*
X159945362Y-83631653D02*
X160040600Y-83584034D01*
X160040600Y-83584034D02*
X160088219Y-83488796D01*
X160088219Y-83488796D02*
X160088219Y-83441177D01*
X160088219Y-83441177D02*
X160040600Y-83345939D01*
X160040600Y-83345939D02*
X159945362Y-83298320D01*
X159945362Y-83298320D02*
X159802505Y-83298320D01*
X159802505Y-83298320D02*
X159707267Y-83345939D01*
X159231076Y-83964987D02*
X159231076Y-83298320D01*
X159231076Y-82964987D02*
X159278695Y-83012606D01*
X159278695Y-83012606D02*
X159231076Y-83060225D01*
X159231076Y-83060225D02*
X159183457Y-83012606D01*
X159183457Y-83012606D02*
X159231076Y-82964987D01*
X159231076Y-82964987D02*
X159231076Y-83060225D01*
X158326315Y-83298320D02*
X158326315Y-84107844D01*
X158326315Y-84107844D02*
X158373934Y-84203082D01*
X158373934Y-84203082D02*
X158421553Y-84250701D01*
X158421553Y-84250701D02*
X158516791Y-84298320D01*
X158516791Y-84298320D02*
X158659648Y-84298320D01*
X158659648Y-84298320D02*
X158754886Y-84250701D01*
X158326315Y-83917368D02*
X158421553Y-83964987D01*
X158421553Y-83964987D02*
X158612029Y-83964987D01*
X158612029Y-83964987D02*
X158707267Y-83917368D01*
X158707267Y-83917368D02*
X158754886Y-83869748D01*
X158754886Y-83869748D02*
X158802505Y-83774510D01*
X158802505Y-83774510D02*
X158802505Y-83488796D01*
X158802505Y-83488796D02*
X158754886Y-83393558D01*
X158754886Y-83393558D02*
X158707267Y-83345939D01*
X158707267Y-83345939D02*
X158612029Y-83298320D01*
X158612029Y-83298320D02*
X158421553Y-83298320D01*
X158421553Y-83298320D02*
X158326315Y-83345939D01*
X157850124Y-83298320D02*
X157850124Y-83964987D01*
X157850124Y-83393558D02*
X157802505Y-83345939D01*
X157802505Y-83345939D02*
X157707267Y-83298320D01*
X157707267Y-83298320D02*
X157564410Y-83298320D01*
X157564410Y-83298320D02*
X157469172Y-83345939D01*
X157469172Y-83345939D02*
X157421553Y-83441177D01*
X157421553Y-83441177D02*
X157421553Y-83964987D01*
X171088220Y-85574931D02*
X171088220Y-84574931D01*
X171088220Y-84574931D02*
X170754887Y-85289216D01*
X170754887Y-85289216D02*
X170421554Y-84574931D01*
X170421554Y-84574931D02*
X170421554Y-85574931D01*
X170183459Y-85670169D02*
X169421554Y-85670169D01*
X169231077Y-85289216D02*
X168754887Y-85289216D01*
X169326315Y-85574931D02*
X168992982Y-84574931D01*
X168992982Y-84574931D02*
X168659649Y-85574931D01*
X168183458Y-85574931D02*
X168278696Y-85527312D01*
X168278696Y-85527312D02*
X168326315Y-85432073D01*
X168326315Y-85432073D02*
X168326315Y-84574931D01*
X167945362Y-84908264D02*
X167564410Y-84908264D01*
X167802505Y-84574931D02*
X167802505Y-85432073D01*
X167802505Y-85432073D02*
X167754886Y-85527312D01*
X167754886Y-85527312D02*
X167659648Y-85574931D01*
X167659648Y-85574931D02*
X167564410Y-85574931D01*
X167231076Y-85574931D02*
X167231076Y-84908264D01*
X167231076Y-85003502D02*
X167183457Y-84955883D01*
X167183457Y-84955883D02*
X167088219Y-84908264D01*
X167088219Y-84908264D02*
X166945362Y-84908264D01*
X166945362Y-84908264D02*
X166850124Y-84955883D01*
X166850124Y-84955883D02*
X166802505Y-85051121D01*
X166802505Y-85051121D02*
X166802505Y-85574931D01*
X166802505Y-85051121D02*
X166754886Y-84955883D01*
X166754886Y-84955883D02*
X166659648Y-84908264D01*
X166659648Y-84908264D02*
X166516791Y-84908264D01*
X166516791Y-84908264D02*
X166421552Y-84955883D01*
X166421552Y-84955883D02*
X166373933Y-85051121D01*
X166373933Y-85051121D02*
X166373933Y-85574931D01*
X165469172Y-85574931D02*
X165469172Y-85051121D01*
X165469172Y-85051121D02*
X165516791Y-84955883D01*
X165516791Y-84955883D02*
X165612029Y-84908264D01*
X165612029Y-84908264D02*
X165802505Y-84908264D01*
X165802505Y-84908264D02*
X165897743Y-84955883D01*
X165469172Y-85527312D02*
X165564410Y-85574931D01*
X165564410Y-85574931D02*
X165802505Y-85574931D01*
X165802505Y-85574931D02*
X165897743Y-85527312D01*
X165897743Y-85527312D02*
X165945362Y-85432073D01*
X165945362Y-85432073D02*
X165945362Y-85336835D01*
X165945362Y-85336835D02*
X165897743Y-85241597D01*
X165897743Y-85241597D02*
X165802505Y-85193978D01*
X165802505Y-85193978D02*
X165564410Y-85193978D01*
X165564410Y-85193978D02*
X165469172Y-85146359D01*
X164992981Y-84908264D02*
X164992981Y-85574931D01*
X164992981Y-85003502D02*
X164945362Y-84955883D01*
X164945362Y-84955883D02*
X164850124Y-84908264D01*
X164850124Y-84908264D02*
X164707267Y-84908264D01*
X164707267Y-84908264D02*
X164612029Y-84955883D01*
X164612029Y-84955883D02*
X164564410Y-85051121D01*
X164564410Y-85051121D02*
X164564410Y-85574931D01*
X164088219Y-84908264D02*
X164088219Y-85574931D01*
X164088219Y-85003502D02*
X164040600Y-84955883D01*
X164040600Y-84955883D02*
X163945362Y-84908264D01*
X163945362Y-84908264D02*
X163802505Y-84908264D01*
X163802505Y-84908264D02*
X163707267Y-84955883D01*
X163707267Y-84955883D02*
X163659648Y-85051121D01*
X163659648Y-85051121D02*
X163659648Y-85574931D01*
X171088220Y-86518208D02*
X171088220Y-87184875D01*
X171088220Y-86613446D02*
X171040601Y-86565827D01*
X171040601Y-86565827D02*
X170945363Y-86518208D01*
X170945363Y-86518208D02*
X170802506Y-86518208D01*
X170802506Y-86518208D02*
X170707268Y-86565827D01*
X170707268Y-86565827D02*
X170659649Y-86661065D01*
X170659649Y-86661065D02*
X170659649Y-87184875D01*
X170040601Y-87184875D02*
X170135839Y-87137256D01*
X170135839Y-87137256D02*
X170183458Y-87089636D01*
X170183458Y-87089636D02*
X170231077Y-86994398D01*
X170231077Y-86994398D02*
X170231077Y-86708684D01*
X170231077Y-86708684D02*
X170183458Y-86613446D01*
X170183458Y-86613446D02*
X170135839Y-86565827D01*
X170135839Y-86565827D02*
X170040601Y-86518208D01*
X170040601Y-86518208D02*
X169897744Y-86518208D01*
X169897744Y-86518208D02*
X169802506Y-86565827D01*
X169802506Y-86565827D02*
X169754887Y-86613446D01*
X169754887Y-86613446D02*
X169707268Y-86708684D01*
X169707268Y-86708684D02*
X169707268Y-86994398D01*
X169707268Y-86994398D02*
X169754887Y-87089636D01*
X169754887Y-87089636D02*
X169802506Y-87137256D01*
X169802506Y-87137256D02*
X169897744Y-87184875D01*
X169897744Y-87184875D02*
X170040601Y-87184875D01*
X169278696Y-86518208D02*
X169278696Y-87184875D01*
X169278696Y-86613446D02*
X169231077Y-86565827D01*
X169231077Y-86565827D02*
X169135839Y-86518208D01*
X169135839Y-86518208D02*
X168992982Y-86518208D01*
X168992982Y-86518208D02*
X168897744Y-86565827D01*
X168897744Y-86565827D02*
X168850125Y-86661065D01*
X168850125Y-86661065D02*
X168850125Y-87184875D01*
X167945363Y-87184875D02*
X167945363Y-86661065D01*
X167945363Y-86661065D02*
X167992982Y-86565827D01*
X167992982Y-86565827D02*
X168088220Y-86518208D01*
X168088220Y-86518208D02*
X168278696Y-86518208D01*
X168278696Y-86518208D02*
X168373934Y-86565827D01*
X167945363Y-87137256D02*
X168040601Y-87184875D01*
X168040601Y-87184875D02*
X168278696Y-87184875D01*
X168278696Y-87184875D02*
X168373934Y-87137256D01*
X168373934Y-87137256D02*
X168421553Y-87042017D01*
X168421553Y-87042017D02*
X168421553Y-86946779D01*
X168421553Y-86946779D02*
X168373934Y-86851541D01*
X168373934Y-86851541D02*
X168278696Y-86803922D01*
X168278696Y-86803922D02*
X168040601Y-86803922D01*
X168040601Y-86803922D02*
X167945363Y-86756303D01*
X167469172Y-87184875D02*
X167469172Y-86518208D01*
X167469172Y-86613446D02*
X167421553Y-86565827D01*
X167421553Y-86565827D02*
X167326315Y-86518208D01*
X167326315Y-86518208D02*
X167183458Y-86518208D01*
X167183458Y-86518208D02*
X167088220Y-86565827D01*
X167088220Y-86565827D02*
X167040601Y-86661065D01*
X167040601Y-86661065D02*
X167040601Y-87184875D01*
X167040601Y-86661065D02*
X166992982Y-86565827D01*
X166992982Y-86565827D02*
X166897744Y-86518208D01*
X166897744Y-86518208D02*
X166754887Y-86518208D01*
X166754887Y-86518208D02*
X166659648Y-86565827D01*
X166659648Y-86565827D02*
X166612029Y-86661065D01*
X166612029Y-86661065D02*
X166612029Y-87184875D01*
X165754887Y-87137256D02*
X165850125Y-87184875D01*
X165850125Y-87184875D02*
X166040601Y-87184875D01*
X166040601Y-87184875D02*
X166135839Y-87137256D01*
X166135839Y-87137256D02*
X166183458Y-87042017D01*
X166183458Y-87042017D02*
X166183458Y-86661065D01*
X166183458Y-86661065D02*
X166135839Y-86565827D01*
X166135839Y-86565827D02*
X166040601Y-86518208D01*
X166040601Y-86518208D02*
X165850125Y-86518208D01*
X165850125Y-86518208D02*
X165754887Y-86565827D01*
X165754887Y-86565827D02*
X165707268Y-86661065D01*
X165707268Y-86661065D02*
X165707268Y-86756303D01*
X165707268Y-86756303D02*
X166183458Y-86851541D01*
X164707268Y-87089636D02*
X164754887Y-87137256D01*
X164754887Y-87137256D02*
X164897744Y-87184875D01*
X164897744Y-87184875D02*
X164992982Y-87184875D01*
X164992982Y-87184875D02*
X165135839Y-87137256D01*
X165135839Y-87137256D02*
X165231077Y-87042017D01*
X165231077Y-87042017D02*
X165278696Y-86946779D01*
X165278696Y-86946779D02*
X165326315Y-86756303D01*
X165326315Y-86756303D02*
X165326315Y-86613446D01*
X165326315Y-86613446D02*
X165278696Y-86422970D01*
X165278696Y-86422970D02*
X165231077Y-86327732D01*
X165231077Y-86327732D02*
X165135839Y-86232494D01*
X165135839Y-86232494D02*
X164992982Y-86184875D01*
X164992982Y-86184875D02*
X164897744Y-86184875D01*
X164897744Y-86184875D02*
X164754887Y-86232494D01*
X164754887Y-86232494D02*
X164707268Y-86280113D01*
X164516792Y-87280113D02*
X163754887Y-87280113D01*
X170659649Y-88794819D02*
X170659649Y-88271009D01*
X170659649Y-88271009D02*
X170707268Y-88175771D01*
X170707268Y-88175771D02*
X170802506Y-88128152D01*
X170802506Y-88128152D02*
X170992982Y-88128152D01*
X170992982Y-88128152D02*
X171088220Y-88175771D01*
X170659649Y-88747200D02*
X170754887Y-88794819D01*
X170754887Y-88794819D02*
X170992982Y-88794819D01*
X170992982Y-88794819D02*
X171088220Y-88747200D01*
X171088220Y-88747200D02*
X171135839Y-88651961D01*
X171135839Y-88651961D02*
X171135839Y-88556723D01*
X171135839Y-88556723D02*
X171088220Y-88461485D01*
X171088220Y-88461485D02*
X170992982Y-88413866D01*
X170992982Y-88413866D02*
X170754887Y-88413866D01*
X170754887Y-88413866D02*
X170659649Y-88366247D01*
X170040601Y-88794819D02*
X170135839Y-88747200D01*
X170135839Y-88747200D02*
X170183458Y-88651961D01*
X170183458Y-88651961D02*
X170183458Y-87794819D01*
X169802505Y-88128152D02*
X169421553Y-88128152D01*
X169659648Y-87794819D02*
X169659648Y-88651961D01*
X169659648Y-88651961D02*
X169612029Y-88747200D01*
X169612029Y-88747200D02*
X169516791Y-88794819D01*
X169516791Y-88794819D02*
X169421553Y-88794819D01*
X169088219Y-88413866D02*
X168326315Y-88413866D01*
X167659648Y-87794819D02*
X167564410Y-87794819D01*
X167564410Y-87794819D02*
X167469172Y-87842438D01*
X167469172Y-87842438D02*
X167421553Y-87890057D01*
X167421553Y-87890057D02*
X167373934Y-87985295D01*
X167373934Y-87985295D02*
X167326315Y-88175771D01*
X167326315Y-88175771D02*
X167326315Y-88413866D01*
X167326315Y-88413866D02*
X167373934Y-88604342D01*
X167373934Y-88604342D02*
X167421553Y-88699580D01*
X167421553Y-88699580D02*
X167469172Y-88747200D01*
X167469172Y-88747200D02*
X167564410Y-88794819D01*
X167564410Y-88794819D02*
X167659648Y-88794819D01*
X167659648Y-88794819D02*
X167754886Y-88747200D01*
X167754886Y-88747200D02*
X167802505Y-88699580D01*
X167802505Y-88699580D02*
X167850124Y-88604342D01*
X167850124Y-88604342D02*
X167897743Y-88413866D01*
X167897743Y-88413866D02*
X167897743Y-88175771D01*
X167897743Y-88175771D02*
X167850124Y-87985295D01*
X167850124Y-87985295D02*
X167802505Y-87890057D01*
X167802505Y-87890057D02*
X167754886Y-87842438D01*
X167754886Y-87842438D02*
X167659648Y-87794819D01*
X166373934Y-88794819D02*
X166945362Y-88794819D01*
X166659648Y-88794819D02*
X166659648Y-87794819D01*
X166659648Y-87794819D02*
X166754886Y-87937676D01*
X166754886Y-87937676D02*
X166850124Y-88032914D01*
X166850124Y-88032914D02*
X166945362Y-88080533D01*
X165897743Y-88794819D02*
X165707267Y-88794819D01*
X165707267Y-88794819D02*
X165612029Y-88747200D01*
X165612029Y-88747200D02*
X165564410Y-88699580D01*
X165564410Y-88699580D02*
X165469172Y-88556723D01*
X165469172Y-88556723D02*
X165421553Y-88366247D01*
X165421553Y-88366247D02*
X165421553Y-87985295D01*
X165421553Y-87985295D02*
X165469172Y-87890057D01*
X165469172Y-87890057D02*
X165516791Y-87842438D01*
X165516791Y-87842438D02*
X165612029Y-87794819D01*
X165612029Y-87794819D02*
X165802505Y-87794819D01*
X165802505Y-87794819D02*
X165897743Y-87842438D01*
X165897743Y-87842438D02*
X165945362Y-87890057D01*
X165945362Y-87890057D02*
X165992981Y-87985295D01*
X165992981Y-87985295D02*
X165992981Y-88223390D01*
X165992981Y-88223390D02*
X165945362Y-88318628D01*
X165945362Y-88318628D02*
X165897743Y-88366247D01*
X165897743Y-88366247D02*
X165802505Y-88413866D01*
X165802505Y-88413866D02*
X165612029Y-88413866D01*
X165612029Y-88413866D02*
X165516791Y-88366247D01*
X165516791Y-88366247D02*
X165469172Y-88318628D01*
X165469172Y-88318628D02*
X165421553Y-88223390D01*
X164469172Y-88794819D02*
X165040600Y-88794819D01*
X164754886Y-88794819D02*
X164754886Y-87794819D01*
X164754886Y-87794819D02*
X164850124Y-87937676D01*
X164850124Y-87937676D02*
X164945362Y-88032914D01*
X164945362Y-88032914D02*
X165040600Y-88080533D01*
D11*
X170751441Y-80664638D02*
X170751441Y-78664638D01*
X170751441Y-78664638D02*
X169989536Y-78664638D01*
X169989536Y-78664638D02*
X169799060Y-78759876D01*
X169799060Y-78759876D02*
X169703822Y-78855114D01*
X169703822Y-78855114D02*
X169608584Y-79045590D01*
X169608584Y-79045590D02*
X169608584Y-79331304D01*
X169608584Y-79331304D02*
X169703822Y-79521780D01*
X169703822Y-79521780D02*
X169799060Y-79617019D01*
X169799060Y-79617019D02*
X169989536Y-79712257D01*
X169989536Y-79712257D02*
X170751441Y-79712257D01*
X168751441Y-80664638D02*
X168751441Y-78664638D01*
X168751441Y-79617019D02*
X167608584Y-79617019D01*
X167608584Y-80664638D02*
X167608584Y-78664638D01*
X165799060Y-78664638D02*
X166180013Y-78664638D01*
X166180013Y-78664638D02*
X166370489Y-78759876D01*
X166370489Y-78759876D02*
X166465727Y-78855114D01*
X166465727Y-78855114D02*
X166656203Y-79140828D01*
X166656203Y-79140828D02*
X166751441Y-79521780D01*
X166751441Y-79521780D02*
X166751441Y-80283685D01*
X166751441Y-80283685D02*
X166656203Y-80474161D01*
X166656203Y-80474161D02*
X166560965Y-80569400D01*
X166560965Y-80569400D02*
X166370489Y-80664638D01*
X166370489Y-80664638D02*
X165989536Y-80664638D01*
X165989536Y-80664638D02*
X165799060Y-80569400D01*
X165799060Y-80569400D02*
X165703822Y-80474161D01*
X165703822Y-80474161D02*
X165608584Y-80283685D01*
X165608584Y-80283685D02*
X165608584Y-79807495D01*
X165608584Y-79807495D02*
X165703822Y-79617019D01*
X165703822Y-79617019D02*
X165799060Y-79521780D01*
X165799060Y-79521780D02*
X165989536Y-79426542D01*
X165989536Y-79426542D02*
X166370489Y-79426542D01*
X166370489Y-79426542D02*
X166560965Y-79521780D01*
X166560965Y-79521780D02*
X166656203Y-79617019D01*
X166656203Y-79617019D02*
X166751441Y-79807495D01*
X164370489Y-78664638D02*
X164180012Y-78664638D01*
X164180012Y-78664638D02*
X163989536Y-78759876D01*
X163989536Y-78759876D02*
X163894298Y-78855114D01*
X163894298Y-78855114D02*
X163799060Y-79045590D01*
X163799060Y-79045590D02*
X163703822Y-79426542D01*
X163703822Y-79426542D02*
X163703822Y-79902733D01*
X163703822Y-79902733D02*
X163799060Y-80283685D01*
X163799060Y-80283685D02*
X163894298Y-80474161D01*
X163894298Y-80474161D02*
X163989536Y-80569400D01*
X163989536Y-80569400D02*
X164180012Y-80664638D01*
X164180012Y-80664638D02*
X164370489Y-80664638D01*
X164370489Y-80664638D02*
X164560965Y-80569400D01*
X164560965Y-80569400D02*
X164656203Y-80474161D01*
X164656203Y-80474161D02*
X164751441Y-80283685D01*
X164751441Y-80283685D02*
X164846679Y-79902733D01*
X164846679Y-79902733D02*
X164846679Y-79426542D01*
X164846679Y-79426542D02*
X164751441Y-79045590D01*
X164751441Y-79045590D02*
X164656203Y-78855114D01*
X164656203Y-78855114D02*
X164560965Y-78759876D01*
X164560965Y-78759876D02*
X164370489Y-78664638D01*
X161418108Y-78569400D02*
X163132393Y-81140828D01*
X160751441Y-80664638D02*
X160751441Y-78664638D01*
X160751441Y-78664638D02*
X160084774Y-80093209D01*
X160084774Y-80093209D02*
X159418108Y-78664638D01*
X159418108Y-78664638D02*
X159418108Y-80664638D01*
X157608584Y-79331304D02*
X157608584Y-80664638D01*
X158465727Y-79331304D02*
X158465727Y-80378923D01*
X158465727Y-80378923D02*
X158370489Y-80569400D01*
X158370489Y-80569400D02*
X158180013Y-80664638D01*
X158180013Y-80664638D02*
X157894298Y-80664638D01*
X157894298Y-80664638D02*
X157703822Y-80569400D01*
X157703822Y-80569400D02*
X157608584Y-80474161D01*
X156370489Y-80664638D02*
X156560965Y-80569400D01*
X156560965Y-80569400D02*
X156656203Y-80378923D01*
X156656203Y-80378923D02*
X156656203Y-78664638D01*
X155894298Y-79331304D02*
X155132394Y-79331304D01*
X155608584Y-78664638D02*
X155608584Y-80378923D01*
X155608584Y-80378923D02*
X155513346Y-80569400D01*
X155513346Y-80569400D02*
X155322870Y-80664638D01*
X155322870Y-80664638D02*
X155132394Y-80664638D01*
X154465727Y-80664638D02*
X154465727Y-79331304D01*
X154465727Y-78664638D02*
X154560965Y-78759876D01*
X154560965Y-78759876D02*
X154465727Y-78855114D01*
X154465727Y-78855114D02*
X154370489Y-78759876D01*
X154370489Y-78759876D02*
X154465727Y-78664638D01*
X154465727Y-78664638D02*
X154465727Y-78855114D01*
D12*
%TO.C,S20*%
X107215000Y-26035000D03*
D13*
X109220000Y-28575000D03*
D14*
X114300000Y-28575000D03*
D13*
X119380000Y-28575000D03*
D12*
X120142000Y-23495000D03*
D15*
X110490000Y-26035000D03*
X116840000Y-23495000D03*
%TD*%
D12*
%TO.C,S19*%
X88165000Y-26035000D03*
D13*
X90170000Y-28575000D03*
D14*
X95250000Y-28575000D03*
D13*
X100330000Y-28575000D03*
D12*
X101092000Y-23495000D03*
D15*
X91440000Y-26035000D03*
X97790000Y-23495000D03*
%TD*%
D12*
%TO.C,S47*%
X83402500Y-64135000D03*
D13*
X85407500Y-66675000D03*
D14*
X90487500Y-66675000D03*
D13*
X95567500Y-66675000D03*
D12*
X96329500Y-61595000D03*
D15*
X86677500Y-64135000D03*
X93027500Y-61595000D03*
%TD*%
D12*
%TO.C,S4*%
X59590000Y-6985000D03*
D13*
X61595000Y-9525000D03*
D14*
X66675000Y-9525000D03*
D13*
X71755000Y-9525000D03*
D12*
X72517000Y-4445000D03*
D15*
X62865000Y-6985000D03*
X69215000Y-4445000D03*
%TD*%
D12*
%TO.C,S7*%
X116740000Y-6985000D03*
D13*
X118745000Y-9525000D03*
D14*
X123825000Y-9525000D03*
D13*
X128905000Y-9525000D03*
D12*
X129667000Y-4445000D03*
D15*
X120015000Y-6985000D03*
X126365000Y-4445000D03*
%TD*%
D16*
%TO.C,S57-2*%
X21372500Y-88265000D03*
D13*
X19367500Y-85725000D03*
D14*
X14287500Y-85725000D03*
D13*
X9207500Y-85725000D03*
D16*
X8445500Y-90805000D03*
D15*
X18097500Y-88265000D03*
X11747500Y-90805000D03*
%TD*%
D12*
%TO.C,S12*%
X211990000Y-6985000D03*
D13*
X213995000Y-9525000D03*
D14*
X219075000Y-9525000D03*
D13*
X224155000Y-9525000D03*
D12*
X224917000Y-4445000D03*
D15*
X215265000Y-6985000D03*
X221615000Y-4445000D03*
%TD*%
D16*
%TO.C,S62*%
X233303750Y-88265000D03*
D13*
X231298750Y-85725000D03*
D14*
X226218750Y-85725000D03*
D13*
X221138750Y-85725000D03*
D16*
X220376750Y-90805000D03*
D15*
X230028750Y-88265000D03*
X223678750Y-90805000D03*
%TD*%
D12*
%TO.C,S3*%
X40540000Y-6985000D03*
D13*
X42545000Y-9525000D03*
D14*
X47625000Y-9525000D03*
D13*
X52705000Y-9525000D03*
D12*
X53467000Y-4445000D03*
D15*
X43815000Y-6985000D03*
X50165000Y-4445000D03*
%TD*%
D12*
%TO.C,S15*%
X7202500Y-26035000D03*
D13*
X9207500Y-28575000D03*
D14*
X14287500Y-28575000D03*
D13*
X19367500Y-28575000D03*
D12*
X20129500Y-23495000D03*
D15*
X10477500Y-26035000D03*
X16827500Y-23495000D03*
%TD*%
D12*
%TO.C,S62-2*%
X216752500Y-83185000D03*
D13*
X218757500Y-85725000D03*
D14*
X223837500Y-85725000D03*
D13*
X228917500Y-85725000D03*
D12*
X229679500Y-80645000D03*
D15*
X220027500Y-83185000D03*
X226377500Y-80645000D03*
%TD*%
D17*
%TO.C,REF\u002A\u002A*%
X252380750Y-40640000D03*
D18*
X252380750Y-55850000D03*
D17*
X276256750Y-40640000D03*
D18*
X276256750Y-55850000D03*
%TD*%
D12*
%TO.C,S25*%
X202465000Y-26035000D03*
D13*
X204470000Y-28575000D03*
D14*
X209550000Y-28575000D03*
D13*
X214630000Y-28575000D03*
D12*
X215392000Y-23495000D03*
D15*
X205740000Y-26035000D03*
X212090000Y-23495000D03*
%TD*%
D16*
%TO.C,S1*%
X16610000Y-12065000D03*
D13*
X14605000Y-9525000D03*
D14*
X9525000Y-9525000D03*
D13*
X4445000Y-9525000D03*
D16*
X3683000Y-14605000D03*
D15*
X13335000Y-12065000D03*
X6985000Y-14605000D03*
%TD*%
D12*
%TO.C,S9*%
X154840000Y-6985000D03*
D13*
X156845000Y-9525000D03*
D14*
X161925000Y-9525000D03*
D13*
X167005000Y-9525000D03*
D12*
X167767000Y-4445000D03*
D15*
X158115000Y-6985000D03*
X164465000Y-4445000D03*
%TD*%
D12*
%TO.C,S44*%
X26252500Y-64135000D03*
D13*
X28257500Y-66675000D03*
D14*
X33337500Y-66675000D03*
D13*
X38417500Y-66675000D03*
D12*
X39179500Y-61595000D03*
D15*
X29527500Y-64135000D03*
X35877500Y-61595000D03*
%TD*%
D12*
%TO.C,S23*%
X164365000Y-26035000D03*
D13*
X166370000Y-28575000D03*
D14*
X171450000Y-28575000D03*
D13*
X176530000Y-28575000D03*
D12*
X177292000Y-23495000D03*
D15*
X167640000Y-26035000D03*
X173990000Y-23495000D03*
%TD*%
D12*
%TO.C,S64-2*%
X264377500Y-83185000D03*
D13*
X266382500Y-85725000D03*
D14*
X271462500Y-85725000D03*
D13*
X276542500Y-85725000D03*
D12*
X277304500Y-80645000D03*
D15*
X267652500Y-83185000D03*
X274002500Y-80645000D03*
%TD*%
D12*
%TO.C,S57*%
X4821250Y-83185000D03*
D13*
X6826250Y-85725000D03*
D14*
X11906250Y-85725000D03*
D13*
X16986250Y-85725000D03*
D12*
X17748250Y-80645000D03*
D15*
X8096250Y-83185000D03*
X14446250Y-80645000D03*
%TD*%
D12*
%TO.C,S14*%
X259615000Y-6985000D03*
D13*
X261620000Y-9525000D03*
D14*
X266700000Y-9525000D03*
D13*
X271780000Y-9525000D03*
D12*
X272542000Y-4445000D03*
D15*
X262890000Y-6985000D03*
X269240000Y-4445000D03*
%TD*%
D12*
%TO.C,S61*%
X195321250Y-83185000D03*
D13*
X197326250Y-85725000D03*
D14*
X202406250Y-85725000D03*
D13*
X207486250Y-85725000D03*
D12*
X208248250Y-80645000D03*
D15*
X198596250Y-83185000D03*
X204946250Y-80645000D03*
%TD*%
D12*
%TO.C,S16*%
X31015000Y-26035000D03*
D13*
X33020000Y-28575000D03*
D14*
X38100000Y-28575000D03*
D13*
X43180000Y-28575000D03*
D12*
X43942000Y-23495000D03*
D15*
X34290000Y-26035000D03*
X40640000Y-23495000D03*
%TD*%
D12*
%TO.C,S24*%
X183415000Y-26035000D03*
D13*
X185420000Y-28575000D03*
D14*
X190500000Y-28575000D03*
D13*
X195580000Y-28575000D03*
D12*
X196342000Y-23495000D03*
D15*
X186690000Y-26035000D03*
X193040000Y-23495000D03*
%TD*%
D12*
%TO.C,S31*%
X54827500Y-45085000D03*
D13*
X56832500Y-47625000D03*
D14*
X61912500Y-47625000D03*
D13*
X66992500Y-47625000D03*
D12*
X67754500Y-42545000D03*
D15*
X58102500Y-45085000D03*
X64452500Y-42545000D03*
%TD*%
D12*
%TO.C,S33*%
X92927500Y-45085000D03*
D13*
X94932500Y-47625000D03*
D14*
X100012500Y-47625000D03*
D13*
X105092500Y-47625000D03*
D12*
X105854500Y-42545000D03*
D15*
X96202500Y-45085000D03*
X102552500Y-42545000D03*
%TD*%
D12*
%TO.C,S34*%
X111977500Y-45085000D03*
D13*
X113982500Y-47625000D03*
D14*
X119062500Y-47625000D03*
D13*
X124142500Y-47625000D03*
D12*
X124904500Y-42545000D03*
D15*
X115252500Y-45085000D03*
X121602500Y-42545000D03*
%TD*%
D12*
%TO.C,S46*%
X64352500Y-64135000D03*
D13*
X66357500Y-66675000D03*
D14*
X71437500Y-66675000D03*
D13*
X76517500Y-66675000D03*
D12*
X77279500Y-61595000D03*
D15*
X67627500Y-64135000D03*
X73977500Y-61595000D03*
%TD*%
D12*
%TO.C,S50*%
X140552500Y-64135000D03*
D13*
X142557500Y-66675000D03*
D14*
X147637500Y-66675000D03*
D13*
X152717500Y-66675000D03*
D12*
X153479500Y-61595000D03*
D15*
X143827500Y-64135000D03*
X150177500Y-61595000D03*
%TD*%
D19*
%TO.C,HOLE*%
X260425000Y-28225000D03*
%TD*%
D12*
%TO.C,S22*%
X145315000Y-26035000D03*
D13*
X147320000Y-28575000D03*
D14*
X152400000Y-28575000D03*
D13*
X157480000Y-28575000D03*
D12*
X158242000Y-23495000D03*
D15*
X148590000Y-26035000D03*
X154940000Y-23495000D03*
%TD*%
D20*
%TO.C,S41*%
X249872500Y-54710000D03*
D13*
X252412500Y-52705000D03*
D14*
X252412500Y-47625000D03*
D13*
X252412500Y-42545000D03*
D20*
X247332500Y-41783000D03*
D15*
X249872500Y-51435000D03*
X247332500Y-45085000D03*
%TD*%
D12*
%TO.C,S63-2*%
X240565000Y-83185000D03*
D13*
X242570000Y-85725000D03*
D14*
X247650000Y-85725000D03*
D13*
X252730000Y-85725000D03*
D12*
X253492000Y-80645000D03*
D15*
X243840000Y-83185000D03*
X250190000Y-80645000D03*
%TD*%
D12*
%TO.C,S27*%
X240565000Y-26035000D03*
D13*
X242570000Y-28575000D03*
D14*
X247650000Y-28575000D03*
D13*
X252730000Y-28575000D03*
D12*
X253492000Y-23495000D03*
D15*
X243840000Y-26035000D03*
X250190000Y-23495000D03*
%TD*%
D12*
%TO.C,S58*%
X28633750Y-83185000D03*
D13*
X30638750Y-85725000D03*
D14*
X35718750Y-85725000D03*
D13*
X40798750Y-85725000D03*
D12*
X41560750Y-80645000D03*
D15*
X31908750Y-83185000D03*
X38258750Y-80645000D03*
%TD*%
D16*
%TO.C,S60-2*%
X149960000Y-88265000D03*
D13*
X147955000Y-85725000D03*
D14*
X142875000Y-85725000D03*
D13*
X137795000Y-85725000D03*
D16*
X137033000Y-90805000D03*
D15*
X146685000Y-88265000D03*
X140335000Y-90805000D03*
%TD*%
D12*
%TO.C,S8*%
X135790000Y-6985000D03*
D13*
X137795000Y-9525000D03*
D14*
X142875000Y-9525000D03*
D13*
X147955000Y-9525000D03*
D12*
X148717000Y-4445000D03*
D15*
X139065000Y-6985000D03*
X145415000Y-4445000D03*
%TD*%
D16*
%TO.C,S63*%
X257116250Y-88265000D03*
D13*
X255111250Y-85725000D03*
D14*
X250031250Y-85725000D03*
D13*
X244951250Y-85725000D03*
D16*
X244189250Y-90805000D03*
D15*
X253841250Y-88265000D03*
X247491250Y-90805000D03*
%TD*%
D12*
%TO.C,S37*%
X169127500Y-45085000D03*
D13*
X171132500Y-47625000D03*
D14*
X176212500Y-47625000D03*
D13*
X181292500Y-47625000D03*
D12*
X182054500Y-42545000D03*
D15*
X172402500Y-45085000D03*
X178752500Y-42545000D03*
%TD*%
D16*
%TO.C,S55*%
X257116250Y-69215000D03*
D13*
X255111250Y-66675000D03*
D14*
X250031250Y-66675000D03*
D21*
X247491250Y-71755000D03*
D13*
X244951250Y-66675000D03*
D16*
X244189250Y-71755000D03*
D15*
X253841250Y-69215000D03*
%TD*%
D19*
%TO.C,HOLE*%
X128575000Y-47325000D03*
%TD*%
D17*
%TO.C,REF\u002A\u002A*%
X266858750Y-50038000D03*
D18*
X282068750Y-50038000D03*
D17*
X266858750Y-26162000D03*
D18*
X282068750Y-26162000D03*
%TD*%
D12*
%TO.C,S21*%
X126265000Y-26035000D03*
D13*
X128270000Y-28575000D03*
D14*
X133350000Y-28575000D03*
D13*
X138430000Y-28575000D03*
D12*
X139192000Y-23495000D03*
D15*
X129540000Y-26035000D03*
X135890000Y-23495000D03*
%TD*%
D12*
%TO.C,S11*%
X192940000Y-6985000D03*
D13*
X194945000Y-9525000D03*
D14*
X200025000Y-9525000D03*
D13*
X205105000Y-9525000D03*
D12*
X205867000Y-4445000D03*
D15*
X196215000Y-6985000D03*
X202565000Y-4445000D03*
%TD*%
D12*
%TO.C,S52*%
X178652500Y-64135000D03*
D13*
X180657500Y-66675000D03*
D14*
X185737500Y-66675000D03*
D13*
X190817500Y-66675000D03*
D12*
X191579500Y-61595000D03*
D15*
X181927500Y-64135000D03*
X188277500Y-61595000D03*
%TD*%
D12*
%TO.C,S30*%
X35777500Y-45085000D03*
D13*
X37782500Y-47625000D03*
D14*
X42862500Y-47625000D03*
D13*
X47942500Y-47625000D03*
D12*
X48704500Y-42545000D03*
D15*
X39052500Y-45085000D03*
X45402500Y-42545000D03*
%TD*%
D12*
%TO.C,S38*%
X188177500Y-45085000D03*
D13*
X190182500Y-47625000D03*
D14*
X195262500Y-47625000D03*
D13*
X200342500Y-47625000D03*
D12*
X201104500Y-42545000D03*
D15*
X191452500Y-45085000D03*
X197802500Y-42545000D03*
%TD*%
D12*
%TO.C,S35*%
X131027500Y-45085000D03*
D13*
X133032500Y-47625000D03*
D14*
X138112500Y-47625000D03*
D13*
X143192500Y-47625000D03*
D12*
X143954500Y-42545000D03*
D15*
X134302500Y-45085000D03*
X140652500Y-42545000D03*
%TD*%
D12*
%TO.C,S39*%
X207227500Y-45085000D03*
D13*
X209232500Y-47625000D03*
D14*
X214312500Y-47625000D03*
D13*
X219392500Y-47625000D03*
D12*
X220154500Y-42545000D03*
D15*
X210502500Y-45085000D03*
X216852500Y-42545000D03*
%TD*%
D12*
%TO.C,S48*%
X102452500Y-64135000D03*
D13*
X104457500Y-66675000D03*
D14*
X109537500Y-66675000D03*
D13*
X114617500Y-66675000D03*
D12*
X115379500Y-61595000D03*
D15*
X105727500Y-64135000D03*
X112077500Y-61595000D03*
%TD*%
D12*
%TO.C,S18*%
X69115000Y-26035000D03*
D13*
X71120000Y-28575000D03*
D14*
X76200000Y-28575000D03*
D13*
X81280000Y-28575000D03*
D12*
X82042000Y-23495000D03*
D15*
X72390000Y-26035000D03*
X78740000Y-23495000D03*
%TD*%
D20*
%TO.C,S28-2*%
X261778750Y-54710000D03*
D13*
X264318750Y-52705000D03*
D14*
X264318750Y-47625000D03*
D13*
X264318750Y-42545000D03*
D20*
X259238750Y-41783000D03*
D15*
X261778750Y-51435000D03*
X259238750Y-45085000D03*
%TD*%
D17*
%TO.C,REF\u002A\u002A*%
X200025000Y-92710000D03*
D18*
X200025000Y-77500000D03*
D17*
X85725000Y-92710000D03*
D18*
X85725000Y-77500000D03*
%TD*%
D12*
%TO.C,S45*%
X45302500Y-64135000D03*
D13*
X47307500Y-66675000D03*
D14*
X52387500Y-66675000D03*
D13*
X57467500Y-66675000D03*
D12*
X58229500Y-61595000D03*
D15*
X48577500Y-64135000D03*
X54927500Y-61595000D03*
%TD*%
D12*
%TO.C,S13*%
X231040000Y-6985000D03*
D13*
X233045000Y-9525000D03*
D14*
X238125000Y-9525000D03*
D13*
X243205000Y-9525000D03*
D12*
X243967000Y-4445000D03*
D15*
X234315000Y-6985000D03*
X240665000Y-4445000D03*
%TD*%
D22*
%TO.C,HOLE*%
X283915000Y-56825000D03*
%TD*%
D12*
%TO.C,S26*%
X221515000Y-26035000D03*
D13*
X223520000Y-28575000D03*
D14*
X228600000Y-28575000D03*
D13*
X233680000Y-28575000D03*
D12*
X234442000Y-23495000D03*
D15*
X224790000Y-26035000D03*
X231140000Y-23495000D03*
%TD*%
D12*
%TO.C,S5*%
X78640000Y-6985000D03*
D13*
X80645000Y-9525000D03*
D14*
X85725000Y-9525000D03*
D13*
X90805000Y-9525000D03*
D12*
X91567000Y-4445000D03*
D15*
X81915000Y-6985000D03*
X88265000Y-4445000D03*
%TD*%
D12*
%TO.C,S17*%
X50065000Y-26035000D03*
D13*
X52070000Y-28575000D03*
D14*
X57150000Y-28575000D03*
D13*
X62230000Y-28575000D03*
D12*
X62992000Y-23495000D03*
D15*
X53340000Y-26035000D03*
X59690000Y-23495000D03*
%TD*%
D12*
%TO.C,S32*%
X73877500Y-45085000D03*
D13*
X75882500Y-47625000D03*
D14*
X80962500Y-47625000D03*
D13*
X86042500Y-47625000D03*
D12*
X86804500Y-42545000D03*
D15*
X77152500Y-45085000D03*
X83502500Y-42545000D03*
%TD*%
D12*
%TO.C,S55-2*%
X252471250Y-64135000D03*
D13*
X254476250Y-66675000D03*
D14*
X259556250Y-66675000D03*
D13*
X264636250Y-66675000D03*
D12*
X265398250Y-61595000D03*
D15*
X255746250Y-64135000D03*
X262096250Y-61595000D03*
%TD*%
D12*
%TO.C,S36*%
X150077500Y-45085000D03*
D13*
X152082500Y-47625000D03*
D14*
X157162500Y-47625000D03*
D13*
X162242500Y-47625000D03*
D12*
X163004500Y-42545000D03*
D15*
X153352500Y-45085000D03*
X159702500Y-42545000D03*
%TD*%
D12*
%TO.C,S49*%
X121502500Y-64135000D03*
D13*
X123507500Y-66675000D03*
D14*
X128587500Y-66675000D03*
D13*
X133667500Y-66675000D03*
D12*
X134429500Y-61595000D03*
D15*
X124777500Y-64135000D03*
X131127500Y-61595000D03*
%TD*%
D12*
%TO.C,S60*%
X123883750Y-83185000D03*
D13*
X125888750Y-85725000D03*
D14*
X130968750Y-85725000D03*
D13*
X136048750Y-85725000D03*
D12*
X136810750Y-80645000D03*
D15*
X127158750Y-83185000D03*
X133508750Y-80645000D03*
%TD*%
D12*
%TO.C,S53*%
X197702500Y-64135000D03*
D13*
X199707500Y-66675000D03*
D14*
X204787500Y-66675000D03*
D13*
X209867500Y-66675000D03*
D12*
X210629500Y-61595000D03*
D15*
X200977500Y-64135000D03*
X207327500Y-61595000D03*
%TD*%
D23*
%TO.C,HOLE*%
X25575000Y-28225000D03*
%TD*%
D12*
%TO.C,S10*%
X173890000Y-6985000D03*
D13*
X175895000Y-9525000D03*
D14*
X180975000Y-9525000D03*
D13*
X186055000Y-9525000D03*
D12*
X186817000Y-4445000D03*
D15*
X177165000Y-6985000D03*
X183515000Y-4445000D03*
%TD*%
D24*
%TO.C,S56*%
X278765000Y-59590000D03*
D13*
X276225000Y-61595000D03*
D14*
X276225000Y-66675000D03*
D13*
X276225000Y-71755000D03*
D24*
X281305000Y-72517000D03*
D15*
X278765000Y-62865000D03*
X281305000Y-69215000D03*
%TD*%
D12*
%TO.C,S59*%
X52446250Y-83185000D03*
D13*
X54451250Y-85725000D03*
D14*
X59531250Y-85725000D03*
D13*
X64611250Y-85725000D03*
D12*
X65373250Y-80645000D03*
D15*
X55721250Y-83185000D03*
X62071250Y-80645000D03*
%TD*%
D17*
%TO.C,REF\u002A\u002A*%
X33369250Y-73660000D03*
D18*
X33369250Y-58450000D03*
D17*
X9493250Y-73660000D03*
D18*
X9493250Y-58450000D03*
%TD*%
D17*
%TO.C,REF\u002A\u002A*%
X180968750Y-92710000D03*
D18*
X180968750Y-77500000D03*
D17*
X80968750Y-92710000D03*
D18*
X80968750Y-77500000D03*
%TD*%
D16*
%TO.C,S42*%
X264260000Y-12065000D03*
D13*
X262255000Y-9525000D03*
D14*
X257175000Y-9525000D03*
D21*
X254635000Y-14605000D03*
D13*
X252095000Y-9525000D03*
D16*
X251333000Y-14605000D03*
D15*
X260985000Y-12065000D03*
%TD*%
D16*
%TO.C,S14-2*%
X283310000Y-12065000D03*
D13*
X281305000Y-9525000D03*
D14*
X276225000Y-9525000D03*
D13*
X271145000Y-9525000D03*
D16*
X270383000Y-14605000D03*
D15*
X280035000Y-12065000D03*
X273685000Y-14605000D03*
%TD*%
D17*
%TO.C,REF\u002A\u002A*%
X254762000Y-2540000D03*
D18*
X254762000Y-17750000D03*
D17*
X278638000Y-2540000D03*
D18*
X278638000Y-17750000D03*
%TD*%
D12*
%TO.C,S54*%
X216752500Y-64135000D03*
D13*
X218757500Y-66675000D03*
D14*
X223837500Y-66675000D03*
D13*
X228917500Y-66675000D03*
D12*
X229679500Y-61595000D03*
D15*
X220027500Y-64135000D03*
X226377500Y-61595000D03*
%TD*%
D12*
%TO.C,S43*%
X4821250Y-64135000D03*
D13*
X6826250Y-66675000D03*
D14*
X11906250Y-66675000D03*
D13*
X16986250Y-66675000D03*
D12*
X17748250Y-61595000D03*
D15*
X8096250Y-64135000D03*
X14446250Y-61595000D03*
%TD*%
D12*
%TO.C,S51*%
X159602500Y-64135000D03*
D13*
X161607500Y-66675000D03*
D14*
X166687500Y-66675000D03*
D13*
X171767500Y-66675000D03*
D12*
X172529500Y-61595000D03*
D15*
X162877500Y-64135000D03*
X169227500Y-61595000D03*
%TD*%
D16*
%TO.C,S58-2*%
X45185000Y-88265000D03*
D13*
X43180000Y-85725000D03*
D14*
X38100000Y-85725000D03*
D13*
X33020000Y-85725000D03*
D16*
X32258000Y-90805000D03*
D15*
X41910000Y-88265000D03*
X35560000Y-90805000D03*
%TD*%
D24*
%TO.C,S41-2*%
X274002500Y-21490000D03*
D13*
X271462500Y-23495000D03*
D14*
X271462500Y-28575000D03*
D13*
X271462500Y-33655000D03*
D24*
X276542500Y-34417000D03*
D15*
X274002500Y-24765000D03*
X276542500Y-31115000D03*
%TD*%
D20*
%TO.C,S28*%
X271303750Y-45185000D03*
D13*
X273843750Y-43180000D03*
D14*
X273843750Y-38100000D03*
D13*
X273843750Y-33020000D03*
D20*
X268763750Y-32258000D03*
D15*
X271303750Y-41910000D03*
X268763750Y-35560000D03*
%TD*%
D17*
%TO.C,REF\u002A\u002A*%
X247618250Y-59690000D03*
D18*
X247618250Y-74900000D03*
D17*
X271494250Y-59690000D03*
D18*
X271494250Y-74900000D03*
%TD*%
D12*
%TO.C,S29-2*%
X4821250Y-45085000D03*
D13*
X6826250Y-47625000D03*
D14*
X11906250Y-47625000D03*
D13*
X16986250Y-47625000D03*
D12*
X17748250Y-42545000D03*
D15*
X8096250Y-45085000D03*
X14446250Y-42545000D03*
%TD*%
D16*
%TO.C,S29*%
X23753750Y-50165000D03*
D13*
X21748750Y-47625000D03*
D14*
X16668750Y-47625000D03*
D13*
X11588750Y-47625000D03*
D16*
X10826750Y-52705000D03*
D15*
X20478750Y-50165000D03*
X14128750Y-52705000D03*
%TD*%
D12*
%TO.C,S6*%
X97690000Y-6985000D03*
D13*
X99695000Y-9525000D03*
D14*
X104775000Y-9525000D03*
D13*
X109855000Y-9525000D03*
D12*
X110617000Y-4445000D03*
D15*
X100965000Y-6985000D03*
X107315000Y-4445000D03*
%TD*%
D22*
%TO.C,HOLE*%
X1835000Y-56825000D03*
%TD*%
D16*
%TO.C,S59-2*%
X68997500Y-88265000D03*
D13*
X66992500Y-85725000D03*
D14*
X61912500Y-85725000D03*
D13*
X56832500Y-85725000D03*
D16*
X56070500Y-90805000D03*
D15*
X65722500Y-88265000D03*
X59372500Y-90805000D03*
%TD*%
D16*
%TO.C,S43-2*%
X28516250Y-69215000D03*
D13*
X26511250Y-66675000D03*
D14*
X21431250Y-66675000D03*
D13*
X16351250Y-66675000D03*
D16*
X15589250Y-71755000D03*
D15*
X25241250Y-69215000D03*
X18891250Y-71755000D03*
%TD*%
D16*
%TO.C,S2*%
X35660000Y-12065000D03*
D13*
X33655000Y-9525000D03*
D14*
X28575000Y-9525000D03*
D13*
X23495000Y-9525000D03*
D16*
X22733000Y-14605000D03*
D15*
X32385000Y-12065000D03*
X26035000Y-14605000D03*
%TD*%
D19*
%TO.C,HOLE*%
X190875000Y-85525000D03*
%TD*%
D16*
%TO.C,S64*%
X280928750Y-88265000D03*
D13*
X278923750Y-85725000D03*
D14*
X273843750Y-85725000D03*
D13*
X268763750Y-85725000D03*
D16*
X268001750Y-90805000D03*
D15*
X277653750Y-88265000D03*
X271303750Y-90805000D03*
%TD*%
D12*
%TO.C,S40*%
X226277500Y-45085000D03*
D13*
X228282500Y-47625000D03*
D14*
X233362500Y-47625000D03*
D13*
X238442500Y-47625000D03*
D12*
X239204500Y-42545000D03*
D15*
X229552500Y-45085000D03*
X235902500Y-42545000D03*
%TD*%
D25*
%TO.C,D1*%
X4445000Y-4645000D03*
X4445000Y-7945000D03*
%TD*%
D26*
%TO.C,D46*%
X66357500Y-71555000D03*
X66357500Y-68255000D03*
%TD*%
%TO.C,D32*%
X75882500Y-52505000D03*
X75882500Y-49205000D03*
%TD*%
%TO.C,D34*%
X113982500Y-52505000D03*
X113982500Y-49205000D03*
%TD*%
D25*
%TO.C,D41*%
X242412500Y-52505000D03*
X242412500Y-55805000D03*
%TD*%
D26*
%TO.C,D56*%
X271145000Y-68325000D03*
X271145000Y-65025000D03*
%TD*%
%TO.C,D50*%
X142557500Y-71555000D03*
X142557500Y-68255000D03*
%TD*%
%TO.C,D51*%
X161607500Y-71555000D03*
X161607500Y-68255000D03*
%TD*%
%TO.C,D5*%
X80645000Y-14405000D03*
X80645000Y-11105000D03*
%TD*%
D27*
%TO.C,R1*%
X98870000Y-78425000D03*
X99890000Y-78425000D03*
%TD*%
D26*
%TO.C,D38*%
X190182500Y-52505000D03*
X190182500Y-49205000D03*
%TD*%
%TO.C,D52*%
X180657500Y-71555000D03*
X180657500Y-68255000D03*
%TD*%
%TO.C,D60*%
X125888750Y-90605000D03*
X125888750Y-87305000D03*
%TD*%
%TO.C,D48*%
X104457500Y-71555000D03*
X104457500Y-68255000D03*
%TD*%
%TO.C,D20*%
X109220000Y-33455000D03*
X109220000Y-30155000D03*
%TD*%
D28*
%TO.C,C8*%
X101355000Y-88025000D03*
X100395000Y-88025000D03*
%TD*%
D27*
%TO.C,R4*%
X100365000Y-87025000D03*
X101385000Y-87025000D03*
%TD*%
D26*
%TO.C,D42*%
X255462500Y-30225000D03*
X255462500Y-26925000D03*
%TD*%
D29*
%TO.C,D55*%
X236350000Y-71555000D03*
X239650000Y-71555000D03*
%TD*%
D26*
%TO.C,D49*%
X123507500Y-71555000D03*
X123507500Y-68255000D03*
%TD*%
D25*
%TO.C,D64*%
X261462500Y-77345000D03*
X261462500Y-80645000D03*
%TD*%
D26*
%TO.C,D27*%
X242570000Y-33455000D03*
X242570000Y-30155000D03*
%TD*%
D28*
%TO.C,C10*%
X101355000Y-89025000D03*
X100395000Y-89025000D03*
%TD*%
D26*
%TO.C,D3*%
X42545000Y-14405000D03*
X42545000Y-11105000D03*
%TD*%
D30*
%TO.C,R6*%
X17325000Y-8675000D03*
X16305000Y-8675000D03*
%TD*%
D26*
%TO.C,D4*%
X61595000Y-14405000D03*
X61595000Y-11105000D03*
%TD*%
%TO.C,D33*%
X94932500Y-52505000D03*
X94932500Y-49205000D03*
%TD*%
D31*
%TO.C,C9*%
X102355000Y-89025000D03*
X102355000Y-89985000D03*
%TD*%
D28*
%TO.C,C7*%
X101355000Y-84025000D03*
X100395000Y-84025000D03*
%TD*%
D26*
%TO.C,D17*%
X52070000Y-33455000D03*
X52070000Y-30155000D03*
%TD*%
D32*
%TO.C,Y1*%
X117625000Y-85475000D03*
X115425000Y-85475000D03*
X115425000Y-83775000D03*
X117625000Y-83775000D03*
%TD*%
D33*
%TO.C,U2*%
X101190000Y-80690000D03*
X101190000Y-81190000D03*
X101190000Y-81690000D03*
X101190000Y-82190000D03*
X98340000Y-82190000D03*
X98340000Y-81690000D03*
X98340000Y-81190000D03*
X98340000Y-80690000D03*
D34*
X99765000Y-81440000D03*
%TD*%
D35*
%TO.C,C2*%
X116045000Y-82375000D03*
X117005000Y-82375000D03*
%TD*%
D29*
%TO.C,D28*%
X253812500Y-33455000D03*
X257112500Y-33455000D03*
%TD*%
D25*
%TO.C,D63*%
X237650000Y-77345000D03*
X237650000Y-80645000D03*
%TD*%
D26*
%TO.C,D31*%
X56832500Y-52505000D03*
X56832500Y-49205000D03*
%TD*%
D36*
%TO.C,U3*%
X104725000Y-81587500D03*
X105125000Y-81587500D03*
X105525000Y-81587500D03*
X105925000Y-81587500D03*
X106325000Y-81587500D03*
X106725000Y-81587500D03*
X107125000Y-81587500D03*
X107525000Y-81587500D03*
X107925000Y-81587500D03*
X108325000Y-81587500D03*
X108725000Y-81587500D03*
X109125000Y-81587500D03*
X109525000Y-81587500D03*
X109925000Y-81587500D03*
D37*
X110762500Y-82425000D03*
X110762500Y-82825000D03*
X110762500Y-83225000D03*
X110762500Y-83625000D03*
X110762500Y-84025000D03*
X110762500Y-84425000D03*
X110762500Y-84825000D03*
X110762500Y-85225000D03*
X110762500Y-85625000D03*
X110762500Y-86025000D03*
X110762500Y-86425000D03*
X110762500Y-86825000D03*
X110762500Y-87225000D03*
X110762500Y-87625000D03*
D36*
X109925000Y-88462500D03*
X109525000Y-88462500D03*
X109125000Y-88462500D03*
X108725000Y-88462500D03*
X108325000Y-88462500D03*
X107925000Y-88462500D03*
X107525000Y-88462500D03*
X107125000Y-88462500D03*
X106725000Y-88462500D03*
X106325000Y-88462500D03*
X105925000Y-88462500D03*
X105525000Y-88462500D03*
X105125000Y-88462500D03*
X104725000Y-88462500D03*
D37*
X103887500Y-87625000D03*
X103887500Y-87225000D03*
X103887500Y-86825000D03*
X103887500Y-86425000D03*
X103887500Y-86025000D03*
X103887500Y-85625000D03*
X103887500Y-85225000D03*
X103887500Y-84825000D03*
X103887500Y-84425000D03*
X103887500Y-84025000D03*
X103887500Y-83625000D03*
X103887500Y-83225000D03*
X103887500Y-82825000D03*
X103887500Y-82425000D03*
D38*
X107325000Y-85025000D03*
%TD*%
D39*
%TO.C,C4*%
X93500000Y-81650000D03*
X93500000Y-80690000D03*
%TD*%
D26*
%TO.C,D29*%
X26668750Y-52505000D03*
X26668750Y-49205000D03*
%TD*%
%TO.C,D40*%
X228282500Y-52505000D03*
X228282500Y-49205000D03*
%TD*%
%TO.C,D47*%
X85407500Y-71555000D03*
X85407500Y-68255000D03*
%TD*%
%TO.C,D9*%
X156845000Y-14405000D03*
X156845000Y-11105000D03*
%TD*%
D30*
%TO.C,R5*%
X117035000Y-86875000D03*
X116015000Y-86875000D03*
%TD*%
D26*
%TO.C,D45*%
X47307500Y-71555000D03*
X47307500Y-68255000D03*
%TD*%
%TO.C,D54*%
X218757500Y-71555000D03*
X218757500Y-68255000D03*
%TD*%
%TO.C,D7*%
X118745000Y-14405000D03*
X118745000Y-11105000D03*
%TD*%
%TO.C,D53*%
X199707500Y-71555000D03*
X199707500Y-68255000D03*
%TD*%
%TO.C,D24*%
X185420000Y-33455000D03*
X185420000Y-30155000D03*
%TD*%
D28*
%TO.C,C12*%
X108325000Y-89985000D03*
X107365000Y-89985000D03*
%TD*%
D26*
%TO.C,D39*%
X209232500Y-52505000D03*
X209232500Y-49205000D03*
%TD*%
%TO.C,D21*%
X128270000Y-33455000D03*
X128270000Y-30155000D03*
%TD*%
D39*
%TO.C,C3*%
X119275000Y-85105000D03*
X119275000Y-84145000D03*
%TD*%
D26*
%TO.C,D10*%
X175895000Y-14405000D03*
X175895000Y-11105000D03*
%TD*%
D40*
%TO.C,J2*%
X97130000Y-78425000D03*
D41*
X95860000Y-78425000D03*
%TD*%
D25*
%TO.C,D2*%
X33655000Y-4645000D03*
X33655000Y-7945000D03*
%TD*%
D26*
%TO.C,D25*%
X204470000Y-33455000D03*
X204470000Y-30155000D03*
%TD*%
%TO.C,D44*%
X42862500Y-71555000D03*
X42862500Y-68255000D03*
%TD*%
%TO.C,D14*%
X247175000Y-14405000D03*
X247175000Y-11105000D03*
%TD*%
D25*
%TO.C,D57*%
X24287500Y-77345000D03*
X24287500Y-80645000D03*
%TD*%
D26*
%TO.C,D16*%
X33020000Y-33455000D03*
X33020000Y-30155000D03*
%TD*%
D31*
%TO.C,C1*%
X87300000Y-80700000D03*
X87300000Y-81660000D03*
%TD*%
D26*
%TO.C,D13*%
X233045000Y-14405000D03*
X233045000Y-11105000D03*
%TD*%
%TO.C,D43*%
X38417500Y-71555000D03*
X38417500Y-68255000D03*
%TD*%
D42*
%TO.C,U4*%
X91537500Y-79750000D03*
X91537500Y-81650000D03*
X89262500Y-80700000D03*
%TD*%
D27*
%TO.C,R3*%
X100365000Y-86025000D03*
X101385000Y-86025000D03*
%TD*%
D26*
%TO.C,D15*%
X9207500Y-33455000D03*
X9207500Y-30155000D03*
%TD*%
%TO.C,D6*%
X99695000Y-14405000D03*
X99695000Y-11105000D03*
%TD*%
D28*
%TO.C,C11*%
X104725000Y-89985000D03*
X103765000Y-89985000D03*
%TD*%
%TO.C,C16*%
X101355000Y-85025000D03*
X100395000Y-85025000D03*
%TD*%
D25*
%TO.C,D59*%
X71912500Y-77345000D03*
X71912500Y-80645000D03*
%TD*%
D26*
%TO.C,D26*%
X223520000Y-33455000D03*
X223520000Y-30155000D03*
%TD*%
%TO.C,D18*%
X71120000Y-33455000D03*
X71120000Y-30155000D03*
%TD*%
D25*
%TO.C,D62*%
X213837500Y-77345000D03*
X213837500Y-80645000D03*
%TD*%
D31*
%TO.C,C13*%
X113425000Y-86535000D03*
X113425000Y-87495000D03*
%TD*%
D26*
%TO.C,D23*%
X166370000Y-33455000D03*
X166370000Y-30155000D03*
%TD*%
%TO.C,D36*%
X152082500Y-52505000D03*
X152082500Y-49205000D03*
%TD*%
D25*
%TO.C,D58*%
X48100000Y-77345000D03*
X48100000Y-80645000D03*
%TD*%
D26*
%TO.C,D37*%
X171132500Y-52505000D03*
X171132500Y-49205000D03*
%TD*%
%TO.C,D12*%
X213995000Y-14405000D03*
X213995000Y-11105000D03*
%TD*%
D27*
%TO.C,R7*%
X20325000Y-8675000D03*
X21345000Y-8675000D03*
%TD*%
D26*
%TO.C,D35*%
X133032500Y-52505000D03*
X133032500Y-49205000D03*
%TD*%
%TO.C,D30*%
X37782500Y-52505000D03*
X37782500Y-49205000D03*
%TD*%
D31*
%TO.C,C6*%
X112425000Y-86535000D03*
X112425000Y-87495000D03*
%TD*%
D26*
%TO.C,D22*%
X147320000Y-33455000D03*
X147320000Y-30155000D03*
%TD*%
%TO.C,D61*%
X197326250Y-90605000D03*
X197326250Y-87305000D03*
%TD*%
D39*
%TO.C,C14*%
X108725000Y-79055000D03*
X108725000Y-78095000D03*
%TD*%
D26*
%TO.C,D11*%
X194945000Y-14405000D03*
X194945000Y-11105000D03*
%TD*%
D43*
%TO.C,C15*%
X103214411Y-78914411D03*
X102535589Y-78235589D03*
%TD*%
D26*
%TO.C,D19*%
X90170000Y-33455000D03*
X90170000Y-30155000D03*
%TD*%
D44*
%TO.C,J1*%
X15685000Y-5105000D03*
X21465000Y-5105000D03*
D45*
X15375000Y-6180000D03*
X16175000Y-6180000D03*
D46*
X17325000Y-6180000D03*
X18325000Y-6180000D03*
X18825000Y-6180000D03*
X19825000Y-6180000D03*
D45*
X20975000Y-6180000D03*
X21775000Y-6180000D03*
X21775000Y-6180000D03*
X20975000Y-6180000D03*
D46*
X20325000Y-6180000D03*
X19325000Y-6180000D03*
X17825000Y-6180000D03*
X16825000Y-6180000D03*
D45*
X16175000Y-6180000D03*
X15375000Y-6180000D03*
D47*
X14255000Y-1425000D03*
D48*
X14255000Y-5605000D03*
D47*
X22895000Y-1425000D03*
D48*
X22895000Y-5605000D03*
%TD*%
D26*
%TO.C,D8*%
X137795000Y-14405000D03*
X137795000Y-11105000D03*
%TD*%
D28*
%TO.C,C5*%
X96820000Y-80690000D03*
X95860000Y-80690000D03*
%TD*%
M02*
