%TF.GenerationSoftware,KiCad,Pcbnew,8.0.6*%
%TF.CreationDate,2024-12-05T21:15:46+08:00*%
%TF.ProjectId,PH60_Rev2,50483630-5f52-4657-9632-2e6b69636164,rev?*%
%TF.SameCoordinates,Original*%
%TF.FileFunction,Plated,1,2,PTH,Mixed*%
%TF.FilePolarity,Positive*%
%FSLAX46Y46*%
G04 Gerber Fmt 4.6, Leading zero omitted, Abs format (unit mm)*
G04 Created by KiCad (PCBNEW 8.0.6) date 2024-12-05 21:15:46*
%MOMM*%
%LPD*%
G01*
G04 APERTURE LIST*
%TA.AperFunction,ComponentDrill*%
%ADD10C,0.200000*%
%TD*%
%TA.AperFunction,ViaDrill*%
%ADD11C,0.300000*%
%TD*%
G04 aperture for slot hole*
%TA.AperFunction,ComponentDrill*%
%ADD12C,0.600000*%
%TD*%
%TA.AperFunction,ComponentDrill*%
%ADD13C,0.650000*%
%TD*%
%TA.AperFunction,ComponentDrill*%
%ADD14C,3.050000*%
%TD*%
G04 APERTURE END LIST*
D10*
%TO.C,U3*%
X134550000Y-114200000D03*
X134550000Y-116900000D03*
X137250000Y-114200000D03*
X137250000Y-116900000D03*
%TD*%
D11*
X48764695Y-34930000D03*
X93274479Y-47975521D03*
X93875521Y-47374479D03*
X102499479Y-105775521D03*
X103100521Y-105174479D03*
X107099850Y-100730000D03*
X125125000Y-113085758D03*
X126437500Y-111500000D03*
X128170000Y-118550000D03*
X128900000Y-109540000D03*
X130490000Y-108050000D03*
X130995000Y-109850000D03*
X131290000Y-108050000D03*
X132090000Y-108050000D03*
X132890000Y-108050000D03*
X133690000Y-108050000D03*
X133703640Y-113050000D03*
X133703640Y-118050000D03*
X134490000Y-108050000D03*
X134940000Y-120250000D03*
X135290000Y-108050000D03*
X136090000Y-108050000D03*
X136900000Y-107420000D03*
X137710000Y-108050000D03*
X138510000Y-108050000D03*
X139310000Y-108050000D03*
X140110000Y-108050000D03*
X140910000Y-108050000D03*
X141710000Y-108050000D03*
X142204664Y-115150000D03*
X143650448Y-112290000D03*
X143660448Y-118020000D03*
X146396134Y-112290000D03*
X146396134Y-118020000D03*
X146883067Y-117533067D03*
X146990567Y-112884433D03*
X147259994Y-100730000D03*
X147733067Y-116683067D03*
X147778067Y-113671933D03*
X148059997Y-100730000D03*
X148860000Y-100730000D03*
X151575000Y-81080000D03*
X152275000Y-42980000D03*
X152877500Y-62030000D03*
X155000000Y-100730000D03*
D12*
%TO.C,J1*%
X42830000Y-31900000D02*
X42830000Y-31100000D01*
X42830000Y-36230000D02*
X42830000Y-35130000D01*
X51470000Y-31900000D02*
X51470000Y-31100000D01*
X51470000Y-36230000D02*
X51470000Y-35130000D01*
D13*
%TO.C,J2*%
X122955000Y-106150000D03*
X124225000Y-106150000D03*
D14*
%TO.C,S29-2*%
X35401250Y-73660000D03*
%TO.C,S57*%
X35401250Y-111760000D03*
%TO.C,S1*%
X35560000Y-43180000D03*
%TO.C,S43*%
X36671250Y-92710000D03*
%TO.C,S29-2*%
X37941250Y-80010000D03*
%TO.C,S57*%
X37941250Y-118110000D03*
%TO.C,S15*%
X39052500Y-54610000D03*
%TO.C,S1*%
X41910000Y-40640000D03*
%TO.C,S43*%
X43021250Y-90170000D03*
%TO.C,S15*%
X45402500Y-52070000D03*
%TO.C,S57-2*%
X45402500Y-110490000D03*
%TO.C,S43-2*%
X47466250Y-100330000D03*
%TO.C,S29*%
X47783750Y-72390000D03*
%TO.C,S57-2*%
X47942500Y-116840000D03*
%TO.C,S29*%
X50323750Y-78740000D03*
%TO.C,S43-2*%
X53816250Y-97790000D03*
%TO.C,S2*%
X54610000Y-43180000D03*
%TO.C,S44*%
X58102500Y-92710000D03*
%TO.C,S58*%
X59213750Y-111760000D03*
%TO.C,S2*%
X60960000Y-40640000D03*
%TO.C,S58*%
X61753750Y-118110000D03*
%TO.C,S16*%
X62865000Y-54610000D03*
%TO.C,S44*%
X64452500Y-90170000D03*
%TO.C,S30*%
X67627500Y-73660000D03*
%TO.C,S16*%
X69215000Y-52070000D03*
%TO.C,S58-2*%
X69215000Y-110490000D03*
X71755000Y-116840000D03*
%TO.C,S3*%
X72390000Y-35560000D03*
%TO.C,S30*%
X73977500Y-71120000D03*
%TO.C,S45*%
X77152500Y-92710000D03*
%TO.C,S3*%
X78740000Y-33020000D03*
%TO.C,S17*%
X81915000Y-54610000D03*
%TO.C,S59*%
X83026250Y-111760000D03*
%TO.C,S45*%
X83502500Y-90170000D03*
%TO.C,S59*%
X85566250Y-118110000D03*
%TO.C,S31*%
X86677500Y-73660000D03*
%TO.C,S17*%
X88265000Y-52070000D03*
%TO.C,S4*%
X91440000Y-35560000D03*
%TO.C,S31*%
X93027500Y-71120000D03*
%TO.C,S59-2*%
X93027500Y-110490000D03*
X95567500Y-116840000D03*
%TO.C,S46*%
X96202500Y-92710000D03*
%TO.C,S4*%
X97790000Y-33020000D03*
%TO.C,S18*%
X100965000Y-54610000D03*
%TO.C,S46*%
X102552500Y-90170000D03*
%TO.C,S32*%
X105727500Y-73660000D03*
%TO.C,S18*%
X107315000Y-52070000D03*
%TO.C,S5*%
X110490000Y-35560000D03*
%TO.C,S32*%
X112077500Y-71120000D03*
%TO.C,S47*%
X115252500Y-92710000D03*
%TO.C,S5*%
X116840000Y-33020000D03*
%TO.C,S19*%
X120015000Y-54610000D03*
%TO.C,S47*%
X121602500Y-90170000D03*
%TO.C,S33*%
X124777500Y-73660000D03*
%TO.C,S19*%
X126365000Y-52070000D03*
%TO.C,S6*%
X129540000Y-35560000D03*
%TO.C,S33*%
X131127500Y-71120000D03*
%TO.C,S48*%
X134302500Y-92710000D03*
%TO.C,S6*%
X135890000Y-33020000D03*
%TO.C,S20*%
X139065000Y-54610000D03*
%TO.C,S48*%
X140652500Y-90170000D03*
%TO.C,S34*%
X143827500Y-73660000D03*
%TO.C,S20*%
X145415000Y-52070000D03*
%TO.C,S7*%
X148590000Y-35560000D03*
%TO.C,S34*%
X150177500Y-71120000D03*
%TO.C,S49*%
X153352500Y-92710000D03*
%TO.C,S7*%
X154940000Y-33020000D03*
%TO.C,S60*%
X155733750Y-111760000D03*
%TO.C,S21*%
X158115000Y-54610000D03*
%TO.C,S49*%
X159702500Y-90170000D03*
%TO.C,S60*%
X162083750Y-109220000D03*
%TO.C,S35*%
X162877500Y-73660000D03*
%TO.C,S21*%
X164465000Y-52070000D03*
%TO.C,S8*%
X167640000Y-35560000D03*
%TO.C,S60-2*%
X168910000Y-119380000D03*
%TO.C,S35*%
X169227500Y-71120000D03*
%TO.C,S50*%
X172402500Y-92710000D03*
%TO.C,S8*%
X173990000Y-33020000D03*
%TO.C,S60-2*%
X175260000Y-116840000D03*
%TO.C,S22*%
X177165000Y-54610000D03*
%TO.C,S50*%
X178752500Y-90170000D03*
%TO.C,S36*%
X181927500Y-73660000D03*
%TO.C,S22*%
X183515000Y-52070000D03*
%TO.C,S9*%
X186690000Y-35560000D03*
%TO.C,S36*%
X188277500Y-71120000D03*
%TO.C,S51*%
X191452500Y-92710000D03*
%TO.C,S9*%
X193040000Y-33020000D03*
%TO.C,S23*%
X196215000Y-54610000D03*
%TO.C,S51*%
X197802500Y-90170000D03*
%TO.C,S37*%
X200977500Y-73660000D03*
%TO.C,S23*%
X202565000Y-52070000D03*
%TO.C,S10*%
X205740000Y-35560000D03*
%TO.C,S37*%
X207327500Y-71120000D03*
%TO.C,S52*%
X210502500Y-92710000D03*
%TO.C,S10*%
X212090000Y-33020000D03*
%TO.C,S24*%
X215265000Y-54610000D03*
%TO.C,S52*%
X216852500Y-90170000D03*
%TO.C,S38*%
X220027500Y-73660000D03*
%TO.C,S24*%
X221615000Y-52070000D03*
%TO.C,S11*%
X224790000Y-35560000D03*
%TO.C,S38*%
X226377500Y-71120000D03*
%TO.C,S61*%
X227171250Y-111760000D03*
%TO.C,S53*%
X229552500Y-92710000D03*
%TO.C,S11*%
X231140000Y-33020000D03*
%TO.C,S61*%
X233521250Y-109220000D03*
%TO.C,S25*%
X234315000Y-54610000D03*
%TO.C,S53*%
X235902500Y-90170000D03*
%TO.C,S39*%
X239077500Y-73660000D03*
%TO.C,S25*%
X240665000Y-52070000D03*
%TO.C,S12*%
X243840000Y-35560000D03*
%TO.C,S39*%
X245427500Y-71120000D03*
%TO.C,S62-2*%
X247332500Y-111760000D03*
%TO.C,S54*%
X248602500Y-92710000D03*
%TO.C,S62-2*%
X249872500Y-118110000D03*
%TO.C,S12*%
X250190000Y-33020000D03*
%TO.C,S26*%
X253365000Y-54610000D03*
%TO.C,S54*%
X254952500Y-90170000D03*
%TO.C,S62*%
X257333750Y-110490000D03*
%TO.C,S40*%
X258127500Y-73660000D03*
%TO.C,S26*%
X259715000Y-52070000D03*
%TO.C,S62*%
X259873750Y-116840000D03*
%TO.C,S13*%
X262890000Y-35560000D03*
%TO.C,S40*%
X264477500Y-71120000D03*
%TO.C,S13*%
X269240000Y-33020000D03*
%TO.C,S63-2*%
X271145000Y-111760000D03*
%TO.C,S27*%
X272415000Y-54610000D03*
%TO.C,S63-2*%
X273685000Y-118110000D03*
%TO.C,S41*%
X275907500Y-73660000D03*
X278447500Y-80010000D03*
%TO.C,S27*%
X278765000Y-52070000D03*
%TO.C,S55*%
X281146250Y-91440000D03*
%TO.C,S63*%
X281146250Y-110490000D03*
%TO.C,S14-2*%
X283210000Y-43180000D03*
%TO.C,S55*%
X283686250Y-97790000D03*
%TO.C,S63*%
X283686250Y-116840000D03*
%TO.C,S28-2*%
X287813750Y-73660000D03*
%TO.C,S14-2*%
X289560000Y-40640000D03*
%TO.C,S28-2*%
X290353750Y-80010000D03*
%TO.C,S55-2*%
X290671250Y-91440000D03*
%TO.C,S14*%
X291465000Y-35560000D03*
%TO.C,S55-2*%
X293211250Y-97790000D03*
%TO.C,S64-2*%
X294957500Y-111760000D03*
%TO.C,S28*%
X297338750Y-64135000D03*
%TO.C,S64-2*%
X297497500Y-118110000D03*
%TO.C,S14*%
X297815000Y-33020000D03*
%TO.C,S28*%
X299878750Y-70485000D03*
%TO.C,S42*%
X302260000Y-43180000D03*
%TO.C,S41-2*%
X302577500Y-53340000D03*
%TO.C,S64*%
X304958750Y-110490000D03*
%TO.C,S41-2*%
X305117500Y-59690000D03*
%TO.C,S56*%
X307340000Y-91440000D03*
%TO.C,S64*%
X307498750Y-116840000D03*
%TO.C,S42*%
X308610000Y-40640000D03*
%TO.C,S56*%
X309880000Y-97790000D03*
M02*
