%TF.GenerationSoftware,KiCad,Pcbnew,8.0.6*%
%TF.CreationDate,2024-12-08T15:52:05+08:00*%
%TF.ProjectId,PH60_Rev2,50483630-5f52-4657-9632-2e6b69636164,rev?*%
%TF.SameCoordinates,Original*%
%TF.FileFunction,Copper,L2,Bot*%
%TF.FilePolarity,Positive*%
%FSLAX46Y46*%
G04 Gerber Fmt 4.6, Leading zero omitted, Abs format (unit mm)*
G04 Created by KiCad (PCBNEW 8.0.6) date 2024-12-08 15:52:05*
%MOMM*%
%LPD*%
G01*
G04 APERTURE LIST*
G04 Aperture macros list*
%AMRoundRect*
0 Rectangle with rounded corners*
0 $1 Rounding radius*
0 $2 $3 $4 $5 $6 $7 $8 $9 X,Y pos of 4 corners*
0 Add a 4 corners polygon primitive as box body*
4,1,4,$2,$3,$4,$5,$6,$7,$8,$9,$2,$3,0*
0 Add four circle primitives for the rounded corners*
1,1,$1+$1,$2,$3*
1,1,$1+$1,$4,$5*
1,1,$1+$1,$6,$7*
1,1,$1+$1,$8,$9*
0 Add four rect primitives between the rounded corners*
20,1,$1+$1,$2,$3,$4,$5,0*
20,1,$1+$1,$4,$5,$6,$7,0*
20,1,$1+$1,$6,$7,$8,$9,0*
20,1,$1+$1,$8,$9,$2,$3,0*%
G04 Aperture macros list end*
%TA.AperFunction,SMDPad,CuDef*%
%ADD10RoundRect,0.250000X-1.525000X-1.000000X1.525000X-1.000000X1.525000X1.000000X-1.525000X1.000000X0*%
%TD*%
%TA.AperFunction,ComponentPad*%
%ADD11C,3.600000*%
%TD*%
%TA.AperFunction,SMDPad,CuDef*%
%ADD12RoundRect,0.250000X-1.000000X1.525000X-1.000000X-1.525000X1.000000X-1.525000X1.000000X1.525000X0*%
%TD*%
%TA.AperFunction,SMDPad,CuDef*%
%ADD13RoundRect,0.250000X1.000000X-1.525000X1.000000X1.525000X-1.000000X1.525000X-1.000000X-1.525000X0*%
%TD*%
%TA.AperFunction,SMDPad,CuDef*%
%ADD14RoundRect,0.250000X1.525000X1.000000X-1.525000X1.000000X-1.525000X-1.000000X1.525000X-1.000000X0*%
%TD*%
%TA.AperFunction,SMDPad,CuDef*%
%ADD15RoundRect,0.225000X-0.375000X0.225000X-0.375000X-0.225000X0.375000X-0.225000X0.375000X0.225000X0*%
%TD*%
%TA.AperFunction,SMDPad,CuDef*%
%ADD16RoundRect,0.225000X0.375000X-0.225000X0.375000X0.225000X-0.375000X0.225000X-0.375000X-0.225000X0*%
%TD*%
%TA.AperFunction,SMDPad,CuDef*%
%ADD17RoundRect,0.135000X-0.185000X0.135000X-0.185000X-0.135000X0.185000X-0.135000X0.185000X0.135000X0*%
%TD*%
%TA.AperFunction,SMDPad,CuDef*%
%ADD18RoundRect,0.140000X0.140000X0.170000X-0.140000X0.170000X-0.140000X-0.170000X0.140000X-0.170000X0*%
%TD*%
%TA.AperFunction,SMDPad,CuDef*%
%ADD19RoundRect,0.135000X-0.135000X-0.185000X0.135000X-0.185000X0.135000X0.185000X-0.135000X0.185000X0*%
%TD*%
%TA.AperFunction,SMDPad,CuDef*%
%ADD20RoundRect,0.135000X0.135000X0.185000X-0.135000X0.185000X-0.135000X-0.185000X0.135000X-0.185000X0*%
%TD*%
%TA.AperFunction,SMDPad,CuDef*%
%ADD21RoundRect,0.140000X-0.170000X0.140000X-0.170000X-0.140000X0.170000X-0.140000X0.170000X0.140000X0*%
%TD*%
%TA.AperFunction,SMDPad,CuDef*%
%ADD22RoundRect,0.140000X0.170000X-0.140000X0.170000X0.140000X-0.170000X0.140000X-0.170000X-0.140000X0*%
%TD*%
%TA.AperFunction,SMDPad,CuDef*%
%ADD23R,1.400000X1.200000*%
%TD*%
%TA.AperFunction,SMDPad,CuDef*%
%ADD24RoundRect,0.062500X0.387500X0.062500X-0.387500X0.062500X-0.387500X-0.062500X0.387500X-0.062500X0*%
%TD*%
%TA.AperFunction,HeatsinkPad*%
%ADD25R,0.200000X1.600000*%
%TD*%
%TA.AperFunction,SMDPad,CuDef*%
%ADD26RoundRect,0.140000X-0.140000X-0.170000X0.140000X-0.170000X0.140000X0.170000X-0.140000X0.170000X0*%
%TD*%
%TA.AperFunction,SMDPad,CuDef*%
%ADD27RoundRect,0.225000X-0.225000X-0.375000X0.225000X-0.375000X0.225000X0.375000X-0.225000X0.375000X0*%
%TD*%
%TA.AperFunction,SMDPad,CuDef*%
%ADD28RoundRect,0.050000X-0.050000X0.387500X-0.050000X-0.387500X0.050000X-0.387500X0.050000X0.387500X0*%
%TD*%
%TA.AperFunction,SMDPad,CuDef*%
%ADD29RoundRect,0.050000X-0.387500X0.050000X-0.387500X-0.050000X0.387500X-0.050000X0.387500X0.050000X0*%
%TD*%
%TA.AperFunction,HeatsinkPad*%
%ADD30C,0.500000*%
%TD*%
%TA.AperFunction,HeatsinkPad*%
%ADD31R,3.200000X3.200000*%
%TD*%
%TA.AperFunction,ComponentPad*%
%ADD32R,1.000000X1.000000*%
%TD*%
%TA.AperFunction,ComponentPad*%
%ADD33O,1.000000X1.000000*%
%TD*%
%TA.AperFunction,SMDPad,CuDef*%
%ADD34RoundRect,0.150000X0.512500X0.150000X-0.512500X0.150000X-0.512500X-0.150000X0.512500X-0.150000X0*%
%TD*%
%TA.AperFunction,SMDPad,CuDef*%
%ADD35RoundRect,0.150000X-0.150000X-0.425000X0.150000X-0.425000X0.150000X0.425000X-0.150000X0.425000X0*%
%TD*%
%TA.AperFunction,SMDPad,CuDef*%
%ADD36RoundRect,0.075000X-0.075000X-0.500000X0.075000X-0.500000X0.075000X0.500000X-0.075000X0.500000X0*%
%TD*%
%TA.AperFunction,ComponentPad*%
%ADD37O,1.000000X1.800000*%
%TD*%
%TA.AperFunction,ComponentPad*%
%ADD38O,1.000000X2.100000*%
%TD*%
%TA.AperFunction,ViaPad*%
%ADD39C,0.600000*%
%TD*%
%TA.AperFunction,Conductor*%
%ADD40C,0.200000*%
%TD*%
%TA.AperFunction,Conductor*%
%ADD41C,0.400000*%
%TD*%
%TA.AperFunction,Conductor*%
%ADD42C,0.300000*%
%TD*%
G04 APERTURE END LIST*
D10*
%TO.P,S20,1,1*%
%TO.N,Net-(D20-A)*%
X136290000Y-54610000D03*
D11*
X139065000Y-54610000D03*
%TO.P,S20,2,2*%
%TO.N,col_5*%
X145415000Y-52070000D03*
D10*
X148195000Y-52070000D03*
%TD*%
%TO.P,S19,1,1*%
%TO.N,Net-(D19-A)*%
X117240000Y-54610000D03*
D11*
X120015000Y-54610000D03*
%TO.P,S19,2,2*%
%TO.N,col_4*%
X126365000Y-52070000D03*
D10*
X129145000Y-52070000D03*
%TD*%
%TO.P,S47,1,1*%
%TO.N,Net-(D47-A)*%
X112477500Y-92710000D03*
D11*
X115252500Y-92710000D03*
%TO.P,S47,2,2*%
%TO.N,col_4*%
X121602500Y-90170000D03*
D10*
X124382500Y-90170000D03*
%TD*%
%TO.P,S4,1,1*%
%TO.N,Net-(D4-A)*%
X88665000Y-35560000D03*
D11*
X91440000Y-35560000D03*
%TO.P,S4,2,2*%
%TO.N,col_3*%
X97790000Y-33020000D03*
D10*
X100570000Y-33020000D03*
%TD*%
%TO.P,S7,1,1*%
%TO.N,Net-(D7-A)*%
X145815000Y-35560000D03*
D11*
X148590000Y-35560000D03*
%TO.P,S7,2,2*%
%TO.N,col_6*%
X154940000Y-33020000D03*
D10*
X157720000Y-33020000D03*
%TD*%
D12*
%TO.P,S57-2,1,1*%
%TO.N,col_0*%
X45402500Y-107715000D03*
D11*
X45402500Y-110490000D03*
%TO.P,S57-2,2,2*%
%TO.N,Net-(D57-A)*%
X47942500Y-116840000D03*
D12*
X47942500Y-119620000D03*
%TD*%
D10*
%TO.P,S12,1,1*%
%TO.N,Net-(D12-A)*%
X241065000Y-35560000D03*
D11*
X243840000Y-35560000D03*
%TO.P,S12,2,2*%
%TO.N,col_11*%
X250190000Y-33020000D03*
D10*
X252970000Y-33020000D03*
%TD*%
D12*
%TO.P,S62,1,1*%
%TO.N,Net-(D62-A)*%
X257333750Y-107715000D03*
D11*
X257333750Y-110490000D03*
%TO.P,S62,2,2*%
%TO.N,col_11*%
X259873750Y-116840000D03*
D12*
X259873750Y-119620000D03*
%TD*%
D10*
%TO.P,S3,1,1*%
%TO.N,Net-(D3-A)*%
X69615000Y-35560000D03*
D11*
X72390000Y-35560000D03*
%TO.P,S3,2,2*%
%TO.N,col_2*%
X78740000Y-33020000D03*
D10*
X81520000Y-33020000D03*
%TD*%
%TO.P,S15,1,1*%
%TO.N,Net-(D15-A)*%
X36277500Y-54610000D03*
D11*
X39052500Y-54610000D03*
%TO.P,S15,2,2*%
%TO.N,col_0*%
X45402500Y-52070000D03*
D10*
X48182500Y-52070000D03*
%TD*%
D13*
%TO.P,S62-2,1,1*%
%TO.N,col_11*%
X249872500Y-120885000D03*
D11*
X249872500Y-118110000D03*
%TO.P,S62-2,2,2*%
%TO.N,Net-(D62-A)*%
X247332500Y-111760000D03*
D13*
X247332500Y-108980000D03*
%TD*%
D10*
%TO.P,S25,1,1*%
%TO.N,Net-(D25-A)*%
X231540000Y-54610000D03*
D11*
X234315000Y-54610000D03*
%TO.P,S25,2,2*%
%TO.N,col_10*%
X240665000Y-52070000D03*
D10*
X243445000Y-52070000D03*
%TD*%
D14*
%TO.P,S1,1,1*%
%TO.N,Net-(D1-A)*%
X44685000Y-40640000D03*
D11*
X41910000Y-40640000D03*
%TO.P,S1,2,2*%
%TO.N,col_0*%
X35560000Y-43180000D03*
D14*
X32780000Y-43180000D03*
%TD*%
D10*
%TO.P,S9,1,1*%
%TO.N,Net-(D9-A)*%
X183915000Y-35560000D03*
D11*
X186690000Y-35560000D03*
%TO.P,S9,2,2*%
%TO.N,col_8*%
X193040000Y-33020000D03*
D10*
X195820000Y-33020000D03*
%TD*%
%TO.P,S44,1,1*%
%TO.N,Net-(D44-A)*%
X55327500Y-92710000D03*
D11*
X58102500Y-92710000D03*
%TO.P,S44,2,2*%
%TO.N,col_1*%
X64452500Y-90170000D03*
D10*
X67232500Y-90170000D03*
%TD*%
%TO.P,S23,1,1*%
%TO.N,Net-(D23-A)*%
X193440000Y-54610000D03*
D11*
X196215000Y-54610000D03*
%TO.P,S23,2,2*%
%TO.N,col_8*%
X202565000Y-52070000D03*
D10*
X205345000Y-52070000D03*
%TD*%
D13*
%TO.P,S64-2,1,1*%
%TO.N,col_13*%
X297497500Y-120885000D03*
D11*
X297497500Y-118110000D03*
%TO.P,S64-2,2,2*%
%TO.N,Net-(D64-A)*%
X294957500Y-111760000D03*
D13*
X294957500Y-108980000D03*
%TD*%
%TO.P,S57,1,1*%
%TO.N,Net-(D57-A)*%
X37941250Y-120885000D03*
D11*
X37941250Y-118110000D03*
%TO.P,S57,2,2*%
%TO.N,col_0*%
X35401250Y-111760000D03*
D13*
X35401250Y-108980000D03*
%TD*%
D10*
%TO.P,S14,1,1*%
%TO.N,Net-(D14-A)*%
X288690000Y-35560000D03*
D11*
X291465000Y-35560000D03*
%TO.P,S14,2,2*%
%TO.N,col_13*%
X297815000Y-33020000D03*
D10*
X300595000Y-33020000D03*
%TD*%
%TO.P,S61,1,1*%
%TO.N,Net-(D61-A)*%
X224396250Y-111760000D03*
D11*
X227171250Y-111760000D03*
%TO.P,S61,2,2*%
%TO.N,col_10*%
X233521250Y-109220000D03*
D10*
X236301250Y-109220000D03*
%TD*%
%TO.P,S16,1,1*%
%TO.N,Net-(D16-A)*%
X60090000Y-54610000D03*
D11*
X62865000Y-54610000D03*
%TO.P,S16,2,2*%
%TO.N,col_1*%
X69215000Y-52070000D03*
D10*
X71995000Y-52070000D03*
%TD*%
%TO.P,S24,1,1*%
%TO.N,Net-(D24-A)*%
X212490000Y-54610000D03*
D11*
X215265000Y-54610000D03*
%TO.P,S24,2,2*%
%TO.N,col_9*%
X221615000Y-52070000D03*
D10*
X224395000Y-52070000D03*
%TD*%
%TO.P,S31,1,1*%
%TO.N,Net-(D31-A)*%
X83902500Y-73660000D03*
D11*
X86677500Y-73660000D03*
%TO.P,S31,2,2*%
%TO.N,col_2*%
X93027500Y-71120000D03*
D10*
X95807500Y-71120000D03*
%TD*%
%TO.P,S33,1,1*%
%TO.N,Net-(D33-A)*%
X122002500Y-73660000D03*
D11*
X124777500Y-73660000D03*
%TO.P,S33,2,2*%
%TO.N,col_4*%
X131127500Y-71120000D03*
D10*
X133907500Y-71120000D03*
%TD*%
%TO.P,S34,1,1*%
%TO.N,Net-(D34-A)*%
X141052500Y-73660000D03*
D11*
X143827500Y-73660000D03*
%TO.P,S34,2,2*%
%TO.N,col_5*%
X150177500Y-71120000D03*
D10*
X152957500Y-71120000D03*
%TD*%
%TO.P,S46,1,1*%
%TO.N,Net-(D46-A)*%
X93427500Y-92710000D03*
D11*
X96202500Y-92710000D03*
%TO.P,S46,2,2*%
%TO.N,col_3*%
X102552500Y-90170000D03*
D10*
X105332500Y-90170000D03*
%TD*%
%TO.P,S50,1,1*%
%TO.N,Net-(D50-A)*%
X169627500Y-92710000D03*
D11*
X172402500Y-92710000D03*
%TO.P,S50,2,2*%
%TO.N,col_7*%
X178752500Y-90170000D03*
D10*
X181532500Y-90170000D03*
%TD*%
%TO.P,S22,1,1*%
%TO.N,Net-(D22-A)*%
X174390000Y-54610000D03*
D11*
X177165000Y-54610000D03*
%TO.P,S22,2,2*%
%TO.N,col_7*%
X183515000Y-52070000D03*
D10*
X186295000Y-52070000D03*
%TD*%
D13*
%TO.P,S41,1,1*%
%TO.N,Net-(D41-A)*%
X278447500Y-82785000D03*
D11*
X278447500Y-80010000D03*
%TO.P,S41,2,2*%
%TO.N,col_12*%
X275907500Y-73660000D03*
D13*
X275907500Y-70880000D03*
%TD*%
%TO.P,S63-2,1,1*%
%TO.N,col_12*%
X273685000Y-120885000D03*
D11*
X273685000Y-118110000D03*
%TO.P,S63-2,2,2*%
%TO.N,Net-(D63-A)*%
X271145000Y-111760000D03*
D13*
X271145000Y-108980000D03*
%TD*%
D10*
%TO.P,S27,1,1*%
%TO.N,Net-(D27-A)*%
X269640000Y-54610000D03*
D11*
X272415000Y-54610000D03*
%TO.P,S27,2,2*%
%TO.N,col_12*%
X278765000Y-52070000D03*
D10*
X281545000Y-52070000D03*
%TD*%
D13*
%TO.P,S58,1,1*%
%TO.N,Net-(D58-A)*%
X61753750Y-120885000D03*
D11*
X61753750Y-118110000D03*
%TO.P,S58,2,2*%
%TO.N,col_1*%
X59213750Y-111760000D03*
D13*
X59213750Y-108980000D03*
%TD*%
D14*
%TO.P,S60-2,1,1*%
%TO.N,col_6*%
X178035000Y-116840000D03*
D11*
X175260000Y-116840000D03*
%TO.P,S60-2,2,2*%
%TO.N,Net-(D60-A)*%
X168910000Y-119380000D03*
D14*
X166130000Y-119380000D03*
%TD*%
D10*
%TO.P,S8,1,1*%
%TO.N,Net-(D8-A)*%
X164865000Y-35560000D03*
D11*
X167640000Y-35560000D03*
%TO.P,S8,2,2*%
%TO.N,col_7*%
X173990000Y-33020000D03*
D10*
X176770000Y-33020000D03*
%TD*%
D12*
%TO.P,S63,1,1*%
%TO.N,Net-(D63-A)*%
X281146250Y-107715000D03*
D11*
X281146250Y-110490000D03*
%TO.P,S63,2,2*%
%TO.N,col_12*%
X283686250Y-116840000D03*
D12*
X283686250Y-119620000D03*
%TD*%
D10*
%TO.P,S37,1,1*%
%TO.N,Net-(D37-A)*%
X198202500Y-73660000D03*
D11*
X200977500Y-73660000D03*
%TO.P,S37,2,2*%
%TO.N,col_8*%
X207327500Y-71120000D03*
D10*
X210107500Y-71120000D03*
%TD*%
D12*
%TO.P,S55,1,1*%
%TO.N,Net-(D55-A)*%
X281146250Y-88665000D03*
D11*
X281146250Y-91440000D03*
%TO.P,S55,2,2*%
%TO.N,col_12*%
X283686250Y-97790000D03*
D12*
X283686250Y-100570000D03*
%TD*%
D10*
%TO.P,S21,1,1*%
%TO.N,Net-(D21-A)*%
X155340000Y-54610000D03*
D11*
X158115000Y-54610000D03*
%TO.P,S21,2,2*%
%TO.N,col_6*%
X164465000Y-52070000D03*
D10*
X167245000Y-52070000D03*
%TD*%
%TO.P,S11,1,1*%
%TO.N,Net-(D11-A)*%
X222015000Y-35560000D03*
D11*
X224790000Y-35560000D03*
%TO.P,S11,2,2*%
%TO.N,col_10*%
X231140000Y-33020000D03*
D10*
X233920000Y-33020000D03*
%TD*%
%TO.P,S52,1,1*%
%TO.N,Net-(D52-A)*%
X207727500Y-92710000D03*
D11*
X210502500Y-92710000D03*
%TO.P,S52,2,2*%
%TO.N,col_9*%
X216852500Y-90170000D03*
D10*
X219632500Y-90170000D03*
%TD*%
%TO.P,S30,1,1*%
%TO.N,Net-(D30-A)*%
X64852500Y-73660000D03*
D11*
X67627500Y-73660000D03*
%TO.P,S30,2,2*%
%TO.N,col_1*%
X73977500Y-71120000D03*
D10*
X76757500Y-71120000D03*
%TD*%
%TO.P,S38,1,1*%
%TO.N,Net-(D38-A)*%
X217252500Y-73660000D03*
D11*
X220027500Y-73660000D03*
%TO.P,S38,2,2*%
%TO.N,col_9*%
X226377500Y-71120000D03*
D10*
X229157500Y-71120000D03*
%TD*%
%TO.P,S35,1,1*%
%TO.N,Net-(D35-A)*%
X160102500Y-73660000D03*
D11*
X162877500Y-73660000D03*
%TO.P,S35,2,2*%
%TO.N,col_6*%
X169227500Y-71120000D03*
D10*
X172007500Y-71120000D03*
%TD*%
%TO.P,S39,1,1*%
%TO.N,Net-(D39-A)*%
X236302500Y-73660000D03*
D11*
X239077500Y-73660000D03*
%TO.P,S39,2,2*%
%TO.N,col_10*%
X245427500Y-71120000D03*
D10*
X248207500Y-71120000D03*
%TD*%
%TO.P,S48,1,1*%
%TO.N,Net-(D48-A)*%
X131527500Y-92710000D03*
D11*
X134302500Y-92710000D03*
%TO.P,S48,2,2*%
%TO.N,col_5*%
X140652500Y-90170000D03*
D10*
X143432500Y-90170000D03*
%TD*%
%TO.P,S18,1,1*%
%TO.N,Net-(D18-A)*%
X98190000Y-54610000D03*
D11*
X100965000Y-54610000D03*
%TO.P,S18,2,2*%
%TO.N,col_3*%
X107315000Y-52070000D03*
D10*
X110095000Y-52070000D03*
%TD*%
D13*
%TO.P,S28-2,1,1*%
%TO.N,Net-(D28-A)*%
X290353750Y-82785000D03*
D11*
X290353750Y-80010000D03*
%TO.P,S28-2,2,2*%
%TO.N,col_13*%
X287813750Y-73660000D03*
D13*
X287813750Y-70880000D03*
%TD*%
D10*
%TO.P,S45,1,1*%
%TO.N,Net-(D45-A)*%
X74377500Y-92710000D03*
D11*
X77152500Y-92710000D03*
%TO.P,S45,2,2*%
%TO.N,col_2*%
X83502500Y-90170000D03*
D10*
X86282500Y-90170000D03*
%TD*%
%TO.P,S13,1,1*%
%TO.N,Net-(D13-A)*%
X260115000Y-35560000D03*
D11*
X262890000Y-35560000D03*
%TO.P,S13,2,2*%
%TO.N,col_12*%
X269240000Y-33020000D03*
D10*
X272020000Y-33020000D03*
%TD*%
%TO.P,S26,1,1*%
%TO.N,Net-(D26-A)*%
X250590000Y-54610000D03*
D11*
X253365000Y-54610000D03*
%TO.P,S26,2,2*%
%TO.N,col_11*%
X259715000Y-52070000D03*
D10*
X262495000Y-52070000D03*
%TD*%
%TO.P,S5,1,1*%
%TO.N,Net-(D5-A)*%
X107715000Y-35560000D03*
D11*
X110490000Y-35560000D03*
%TO.P,S5,2,2*%
%TO.N,col_4*%
X116840000Y-33020000D03*
D10*
X119620000Y-33020000D03*
%TD*%
%TO.P,S17,1,1*%
%TO.N,Net-(D17-A)*%
X79140000Y-54610000D03*
D11*
X81915000Y-54610000D03*
%TO.P,S17,2,2*%
%TO.N,col_2*%
X88265000Y-52070000D03*
D10*
X91045000Y-52070000D03*
%TD*%
%TO.P,S32,1,1*%
%TO.N,Net-(D32-A)*%
X102952500Y-73660000D03*
D11*
X105727500Y-73660000D03*
%TO.P,S32,2,2*%
%TO.N,col_3*%
X112077500Y-71120000D03*
D10*
X114857500Y-71120000D03*
%TD*%
D12*
%TO.P,S55-2,1,1*%
%TO.N,Net-(D55-A)*%
X290671250Y-88665000D03*
D11*
X290671250Y-91440000D03*
%TO.P,S55-2,2,2*%
%TO.N,col_12*%
X293211250Y-97790000D03*
D12*
X293211250Y-100570000D03*
%TD*%
D10*
%TO.P,S36,1,1*%
%TO.N,Net-(D36-A)*%
X179152500Y-73660000D03*
D11*
X181927500Y-73660000D03*
%TO.P,S36,2,2*%
%TO.N,col_7*%
X188277500Y-71120000D03*
D10*
X191057500Y-71120000D03*
%TD*%
%TO.P,S49,1,1*%
%TO.N,Net-(D49-A)*%
X150577500Y-92710000D03*
D11*
X153352500Y-92710000D03*
%TO.P,S49,2,2*%
%TO.N,col_6*%
X159702500Y-90170000D03*
D10*
X162482500Y-90170000D03*
%TD*%
%TO.P,S60,1,1*%
%TO.N,Net-(D60-A)*%
X152958750Y-111760000D03*
D11*
X155733750Y-111760000D03*
%TO.P,S60,2,2*%
%TO.N,col_6*%
X162083750Y-109220000D03*
D10*
X164863750Y-109220000D03*
%TD*%
%TO.P,S53,1,1*%
%TO.N,Net-(D53-A)*%
X226777500Y-92710000D03*
D11*
X229552500Y-92710000D03*
%TO.P,S53,2,2*%
%TO.N,col_10*%
X235902500Y-90170000D03*
D10*
X238682500Y-90170000D03*
%TD*%
%TO.P,S10,1,1*%
%TO.N,Net-(D10-A)*%
X202965000Y-35560000D03*
D11*
X205740000Y-35560000D03*
%TO.P,S10,2,2*%
%TO.N,col_9*%
X212090000Y-33020000D03*
D10*
X214870000Y-33020000D03*
%TD*%
D12*
%TO.P,S56,1,1*%
%TO.N,Net-(D56-A)*%
X307340000Y-88665000D03*
D11*
X307340000Y-91440000D03*
%TO.P,S56,2,2*%
%TO.N,col_13*%
X309880000Y-97790000D03*
D12*
X309880000Y-100570000D03*
%TD*%
D13*
%TO.P,S59,1,1*%
%TO.N,Net-(D59-A)*%
X85566250Y-120885000D03*
D11*
X85566250Y-118110000D03*
%TO.P,S59,2,2*%
%TO.N,col_2*%
X83026250Y-111760000D03*
D13*
X83026250Y-108980000D03*
%TD*%
D14*
%TO.P,S42,1,1*%
%TO.N,Net-(D42-A)*%
X311385000Y-40640000D03*
D11*
X308610000Y-40640000D03*
%TO.P,S42,2,2*%
%TO.N,col_13*%
X302260000Y-43180000D03*
D14*
X299480000Y-43180000D03*
%TD*%
%TO.P,S14-2,1,1*%
%TO.N,Net-(D14-A)*%
X292335000Y-40640000D03*
D11*
X289560000Y-40640000D03*
D14*
%TO.P,S14-2,2,2*%
%TO.N,col_13*%
X280430000Y-43180000D03*
%TD*%
D10*
%TO.P,S54,1,1*%
%TO.N,Net-(D54-A)*%
X245827500Y-92710000D03*
D11*
X248602500Y-92710000D03*
%TO.P,S54,2,2*%
%TO.N,col_11*%
X254952500Y-90170000D03*
D10*
X257732500Y-90170000D03*
%TD*%
%TO.P,S43,1,1*%
%TO.N,col_0*%
X33896250Y-92710000D03*
D11*
X36671250Y-92710000D03*
%TO.P,S43,2,2*%
%TO.N,Net-(D43-A)*%
X43021250Y-90170000D03*
D10*
X45801250Y-90170000D03*
%TD*%
%TO.P,S51,1,1*%
%TO.N,Net-(D51-A)*%
X188677500Y-92710000D03*
D11*
X191452500Y-92710000D03*
%TO.P,S51,2,2*%
%TO.N,col_8*%
X197802500Y-90170000D03*
D10*
X200582500Y-90170000D03*
%TD*%
D12*
%TO.P,S58-2,1,1*%
%TO.N,col_1*%
X69215000Y-107715000D03*
D11*
X69215000Y-110490000D03*
%TO.P,S58-2,2,2*%
%TO.N,Net-(D58-A)*%
X71755000Y-116840000D03*
D12*
X71755000Y-119620000D03*
%TD*%
%TO.P,S41-2,1,1*%
%TO.N,col_12*%
X302577500Y-50565000D03*
D11*
X302577500Y-53340000D03*
%TO.P,S41-2,2,2*%
%TO.N,Net-(D41-A)*%
X305117500Y-59690000D03*
D12*
X305117500Y-62470000D03*
%TD*%
D13*
%TO.P,S28,1,1*%
%TO.N,Net-(D28-A)*%
X299878750Y-73260000D03*
D11*
X299878750Y-70485000D03*
%TO.P,S28,2,2*%
%TO.N,col_13*%
X297338750Y-64135000D03*
D13*
X297338750Y-61355000D03*
%TD*%
%TO.P,S29-2,1,1*%
%TO.N,col_0*%
X37941250Y-82785000D03*
D11*
X37941250Y-80010000D03*
%TO.P,S29-2,2,2*%
%TO.N,Net-(D29-A)*%
X35401250Y-73660000D03*
D13*
X35401250Y-70880000D03*
%TD*%
D12*
%TO.P,S29,1,1*%
%TO.N,Net-(D29-A)*%
X47783750Y-69615000D03*
D11*
X47783750Y-72390000D03*
%TO.P,S29,2,2*%
%TO.N,col_0*%
X50323750Y-78740000D03*
D12*
X50323750Y-81520000D03*
%TD*%
D10*
%TO.P,S6,1,1*%
%TO.N,Net-(D6-A)*%
X126765000Y-35560000D03*
D11*
X129540000Y-35560000D03*
%TO.P,S6,2,2*%
%TO.N,col_5*%
X135890000Y-33020000D03*
D10*
X138670000Y-33020000D03*
%TD*%
D12*
%TO.P,S59-2,1,1*%
%TO.N,col_2*%
X93027500Y-107715000D03*
D11*
X93027500Y-110490000D03*
%TO.P,S59-2,2,2*%
%TO.N,Net-(D59-A)*%
X95567500Y-116840000D03*
D12*
X95567500Y-119620000D03*
%TD*%
D14*
%TO.P,S43-2,1,1*%
%TO.N,Net-(D43-A)*%
X56591250Y-97790000D03*
D11*
X53816250Y-97790000D03*
%TO.P,S43-2,2,2*%
%TO.N,col_0*%
X47466250Y-100330000D03*
D14*
X44686250Y-100330000D03*
%TD*%
%TO.P,S2,1,1*%
%TO.N,Net-(D2-A)*%
X63735000Y-40640000D03*
D11*
X60960000Y-40640000D03*
%TO.P,S2,2,2*%
%TO.N,col_1*%
X54610000Y-43180000D03*
D14*
X51830000Y-43180000D03*
%TD*%
D12*
%TO.P,S64,1,1*%
%TO.N,Net-(D64-A)*%
X304958750Y-107715000D03*
D11*
X304958750Y-110490000D03*
%TO.P,S64,2,2*%
%TO.N,col_13*%
X307498750Y-116840000D03*
D12*
X307498750Y-119620000D03*
%TD*%
D10*
%TO.P,S40,1,1*%
%TO.N,Net-(D40-A)*%
X255352500Y-73660000D03*
D11*
X258127500Y-73660000D03*
%TO.P,S40,2,2*%
%TO.N,col_11*%
X264477500Y-71120000D03*
D10*
X267257500Y-71120000D03*
%TD*%
D15*
%TO.P,D1,1,K*%
%TO.N,row_0*%
X33020000Y-33220000D03*
%TO.P,D1,2,A*%
%TO.N,Net-(D1-A)*%
X33020000Y-36520000D03*
%TD*%
D16*
%TO.P,D46,1,K*%
%TO.N,row_3*%
X94932500Y-100130000D03*
%TO.P,D46,2,A*%
%TO.N,Net-(D46-A)*%
X94932500Y-96830000D03*
%TD*%
%TO.P,D32,1,K*%
%TO.N,row_2*%
X104457500Y-81080000D03*
%TO.P,D32,2,A*%
%TO.N,Net-(D32-A)*%
X104457500Y-77780000D03*
%TD*%
%TO.P,D34,1,K*%
%TO.N,row_2*%
X142557500Y-81080000D03*
%TO.P,D34,2,A*%
%TO.N,Net-(D34-A)*%
X142557500Y-77780000D03*
%TD*%
D15*
%TO.P,D41,1,K*%
%TO.N,row_2*%
X270987500Y-81080000D03*
%TO.P,D41,2,A*%
%TO.N,Net-(D41-A)*%
X270987500Y-84380000D03*
%TD*%
D16*
%TO.P,D56,1,K*%
%TO.N,row_3*%
X299720000Y-96900000D03*
%TO.P,D56,2,A*%
%TO.N,Net-(D56-A)*%
X299720000Y-93600000D03*
%TD*%
%TO.P,D50,1,K*%
%TO.N,row_3*%
X171132500Y-100130000D03*
%TO.P,D50,2,A*%
%TO.N,Net-(D50-A)*%
X171132500Y-96830000D03*
%TD*%
%TO.P,D51,1,K*%
%TO.N,row_3*%
X190182500Y-100130000D03*
%TO.P,D51,2,A*%
%TO.N,Net-(D51-A)*%
X190182500Y-96830000D03*
%TD*%
%TO.P,D5,1,K*%
%TO.N,row_0*%
X109220000Y-42980000D03*
%TO.P,D5,2,A*%
%TO.N,Net-(D5-A)*%
X109220000Y-39680000D03*
%TD*%
D17*
%TO.P,R1,1*%
%TO.N,/~{USB_BOOT}*%
X129900000Y-109510000D03*
%TO.P,R1,2*%
%TO.N,/QSPI_SS*%
X129900000Y-110530000D03*
%TD*%
D16*
%TO.P,D38,1,K*%
%TO.N,row_2*%
X218757500Y-81080000D03*
%TO.P,D38,2,A*%
%TO.N,Net-(D38-A)*%
X218757500Y-77780000D03*
%TD*%
%TO.P,D52,1,K*%
%TO.N,row_3*%
X209232500Y-100130000D03*
%TO.P,D52,2,A*%
%TO.N,Net-(D52-A)*%
X209232500Y-96830000D03*
%TD*%
%TO.P,D60,1,K*%
%TO.N,row_4*%
X154463750Y-119180000D03*
%TO.P,D60,2,A*%
%TO.N,Net-(D60-A)*%
X154463750Y-115880000D03*
%TD*%
%TO.P,D48,1,K*%
%TO.N,row_3*%
X133032500Y-100130000D03*
%TO.P,D48,2,A*%
%TO.N,Net-(D48-A)*%
X133032500Y-96830000D03*
%TD*%
%TO.P,D20,1,K*%
%TO.N,row_1*%
X137795000Y-62030000D03*
%TO.P,D20,2,A*%
%TO.N,Net-(D20-A)*%
X137795000Y-58730000D03*
%TD*%
D18*
%TO.P,C8,1*%
%TO.N,+1V1*%
X130130000Y-118550000D03*
%TO.P,C8,2*%
%TO.N,GND*%
X129170000Y-118550000D03*
%TD*%
D19*
%TO.P,R4,1*%
%TO.N,/USB_D-*%
X129140000Y-117550000D03*
%TO.P,R4,2*%
%TO.N,Net-(U3-USB_DM)*%
X130160000Y-117550000D03*
%TD*%
D16*
%TO.P,D42,1,K*%
%TO.N,row_2*%
X284037500Y-58800000D03*
%TO.P,D42,2,A*%
%TO.N,Net-(D42-A)*%
X284037500Y-55500000D03*
%TD*%
%TO.P,D55,1,K*%
%TO.N,row_3*%
X266575000Y-100130000D03*
%TO.P,D55,2,A*%
%TO.N,Net-(D55-A)*%
X266575000Y-96830000D03*
%TD*%
%TO.P,D49,1,K*%
%TO.N,row_3*%
X152082500Y-100130000D03*
%TO.P,D49,2,A*%
%TO.N,Net-(D49-A)*%
X152082500Y-96830000D03*
%TD*%
D15*
%TO.P,D64,1,K*%
%TO.N,row_4*%
X290037500Y-105640000D03*
%TO.P,D64,2,A*%
%TO.N,Net-(D64-A)*%
X290037500Y-108940000D03*
%TD*%
D16*
%TO.P,D27,1,K*%
%TO.N,row_1*%
X271145000Y-62030000D03*
%TO.P,D27,2,A*%
%TO.N,Net-(D27-A)*%
X271145000Y-58730000D03*
%TD*%
D18*
%TO.P,C10,1*%
%TO.N,+3V3*%
X130130000Y-119550000D03*
%TO.P,C10,2*%
%TO.N,GND*%
X129170000Y-119550000D03*
%TD*%
D16*
%TO.P,D3,1,K*%
%TO.N,row_0*%
X71120000Y-42980000D03*
%TO.P,D3,2,A*%
%TO.N,Net-(D3-A)*%
X71120000Y-39680000D03*
%TD*%
D20*
%TO.P,R6,1*%
%TO.N,Net-(J1-CC1)*%
X45900000Y-38250000D03*
%TO.P,R6,2*%
%TO.N,GND*%
X44880000Y-38250000D03*
%TD*%
D16*
%TO.P,D4,1,K*%
%TO.N,row_0*%
X90170000Y-42980000D03*
%TO.P,D4,2,A*%
%TO.N,Net-(D4-A)*%
X90170000Y-39680000D03*
%TD*%
%TO.P,D33,1,K*%
%TO.N,row_2*%
X123507500Y-81080000D03*
%TO.P,D33,2,A*%
%TO.N,Net-(D33-A)*%
X123507500Y-77780000D03*
%TD*%
D21*
%TO.P,C9,1*%
%TO.N,+3V3*%
X131130000Y-119550000D03*
%TO.P,C9,2*%
%TO.N,GND*%
X131130000Y-120510000D03*
%TD*%
D22*
%TO.P,C7,1*%
%TO.N,+1V1*%
X126125000Y-114045758D03*
%TO.P,C7,2*%
%TO.N,GND*%
X126125000Y-113085758D03*
%TD*%
D16*
%TO.P,D17,1,K*%
%TO.N,row_1*%
X80645000Y-62030000D03*
%TO.P,D17,2,A*%
%TO.N,Net-(D17-A)*%
X80645000Y-58730000D03*
%TD*%
D23*
%TO.P,Y1,1,1*%
%TO.N,Net-(C3-Pad1)*%
X146200000Y-116000000D03*
%TO.P,Y1,2,2*%
%TO.N,GND*%
X144000000Y-116000000D03*
%TO.P,Y1,3,3*%
%TO.N,/XIN*%
X144000000Y-114300000D03*
%TO.P,Y1,4,4*%
%TO.N,GND*%
X146200000Y-114300000D03*
%TD*%
D24*
%TO.P,U2,1,~{CS}*%
%TO.N,/QSPI_SS*%
X130750000Y-112225000D03*
%TO.P,U2,2,DO(IO1)*%
%TO.N,/QSPI_SD1*%
X130750000Y-112725000D03*
%TO.P,U2,3,IO2*%
%TO.N,/QSPI_SD2*%
X130750000Y-113225000D03*
%TO.P,U2,4,GND*%
%TO.N,GND*%
X130750000Y-113725000D03*
%TO.P,U2,5,DI(IO0)*%
%TO.N,/QSPI_SD0*%
X127900000Y-113725000D03*
%TO.P,U2,6,CLK*%
%TO.N,/QSPI_SCLK*%
X127900000Y-113225000D03*
%TO.P,U2,7,IO3*%
%TO.N,/QSPI_SD3*%
X127900000Y-112725000D03*
%TO.P,U2,8,VCC*%
%TO.N,+3V3*%
X127900000Y-112225000D03*
D25*
%TO.P,U2,9*%
%TO.N,N/C*%
X129325000Y-112975000D03*
%TD*%
D26*
%TO.P,C2,1*%
%TO.N,/XIN*%
X144620000Y-112900000D03*
%TO.P,C2,2*%
%TO.N,GND*%
X145580000Y-112900000D03*
%TD*%
D27*
%TO.P,D28,1,K*%
%TO.N,row_1*%
X282387500Y-62030000D03*
%TO.P,D28,2,A*%
%TO.N,Net-(D28-A)*%
X285687500Y-62030000D03*
%TD*%
D15*
%TO.P,D63,1,K*%
%TO.N,row_4*%
X266225000Y-105640000D03*
%TO.P,D63,2,A*%
%TO.N,Net-(D63-A)*%
X266225000Y-108940000D03*
%TD*%
D16*
%TO.P,D31,1,K*%
%TO.N,row_2*%
X85407500Y-81080000D03*
%TO.P,D31,2,A*%
%TO.N,Net-(D31-A)*%
X85407500Y-77780000D03*
%TD*%
D28*
%TO.P,U3,1,IOVDD*%
%TO.N,+3V3*%
X133300000Y-112112500D03*
%TO.P,U3,2,GPIO0*%
%TO.N,col_0*%
X133700000Y-112112500D03*
%TO.P,U3,3,GPIO1*%
%TO.N,col_1*%
X134100000Y-112112500D03*
%TO.P,U3,4,GPIO2*%
%TO.N,col_2*%
X134500000Y-112112500D03*
%TO.P,U3,5,GPIO3*%
%TO.N,col_3*%
X134900000Y-112112500D03*
%TO.P,U3,6,GPIO4*%
%TO.N,col_4*%
X135300000Y-112112500D03*
%TO.P,U3,7,GPIO5*%
%TO.N,col_5*%
X135700000Y-112112500D03*
%TO.P,U3,8,GPIO6*%
%TO.N,col_6*%
X136100000Y-112112500D03*
%TO.P,U3,9,GPIO7*%
%TO.N,col_7*%
X136500000Y-112112500D03*
%TO.P,U3,10,IOVDD*%
%TO.N,+3V3*%
X136900000Y-112112500D03*
%TO.P,U3,11,GPIO8*%
%TO.N,col_8*%
X137300000Y-112112500D03*
%TO.P,U3,12,GPIO9*%
%TO.N,col_9*%
X137700000Y-112112500D03*
%TO.P,U3,13,GPIO10*%
%TO.N,col_10*%
X138100000Y-112112500D03*
%TO.P,U3,14,GPIO11*%
%TO.N,col_11*%
X138500000Y-112112500D03*
D29*
%TO.P,U3,15,GPIO12*%
%TO.N,col_12*%
X139337500Y-112950000D03*
%TO.P,U3,16,GPIO13*%
%TO.N,col_13*%
X139337500Y-113350000D03*
%TO.P,U3,17,GPIO14*%
%TO.N,row_0*%
X139337500Y-113750000D03*
%TO.P,U3,18,GPIO15*%
%TO.N,row_1*%
X139337500Y-114150000D03*
%TO.P,U3,19,TESTEN*%
%TO.N,GND*%
X139337500Y-114550000D03*
%TO.P,U3,20,XIN*%
%TO.N,/XIN*%
X139337500Y-114950000D03*
%TO.P,U3,21,XOUT*%
%TO.N,/XOUT*%
X139337500Y-115350000D03*
%TO.P,U3,22,IOVDD*%
%TO.N,+3V3*%
X139337500Y-115750000D03*
%TO.P,U3,23,DVDD*%
%TO.N,+1V1*%
X139337500Y-116150000D03*
%TO.P,U3,24,SWCLK*%
%TO.N,/SWCLK*%
X139337500Y-116550000D03*
%TO.P,U3,25,SWD*%
%TO.N,/SWD*%
X139337500Y-116950000D03*
%TO.P,U3,26,RUN*%
%TO.N,unconnected-(U3-RUN-Pad26)*%
X139337500Y-117350000D03*
%TO.P,U3,27,GPIO16*%
%TO.N,unconnected-(U3-GPIO16-Pad27)*%
X139337500Y-117750000D03*
%TO.P,U3,28,GPIO17*%
%TO.N,unconnected-(U3-GPIO17-Pad28)*%
X139337500Y-118150000D03*
D28*
%TO.P,U3,29,GPIO18*%
%TO.N,row_2*%
X138500000Y-118987500D03*
%TO.P,U3,30,GPIO19*%
%TO.N,row_3*%
X138100000Y-118987500D03*
%TO.P,U3,31,GPIO20*%
%TO.N,row_4*%
X137700000Y-118987500D03*
%TO.P,U3,32,GPIO21*%
%TO.N,unconnected-(U3-GPIO21-Pad32)*%
X137300000Y-118987500D03*
%TO.P,U3,33,IOVDD*%
%TO.N,+3V3*%
X136900000Y-118987500D03*
%TO.P,U3,34,GPIO22*%
%TO.N,unconnected-(U3-GPIO22-Pad34)*%
X136500000Y-118987500D03*
%TO.P,U3,35,GPIO23*%
%TO.N,unconnected-(U3-GPIO23-Pad35)*%
X136100000Y-118987500D03*
%TO.P,U3,36,GPIO24*%
%TO.N,unconnected-(U3-GPIO24-Pad36)*%
X135700000Y-118987500D03*
%TO.P,U3,37,GPIO25*%
%TO.N,unconnected-(U3-GPIO25-Pad37)*%
X135300000Y-118987500D03*
%TO.P,U3,38,GPIO26_ADC0*%
%TO.N,unconnected-(U3-GPIO26_ADC0-Pad38)*%
X134900000Y-118987500D03*
%TO.P,U3,39,GPIO27_ADC1*%
%TO.N,unconnected-(U3-GPIO27_ADC1-Pad39)*%
X134500000Y-118987500D03*
%TO.P,U3,40,GPIO28_ADC2*%
%TO.N,unconnected-(U3-GPIO28_ADC2-Pad40)*%
X134100000Y-118987500D03*
%TO.P,U3,41,GPIO29_ADC3*%
%TO.N,unconnected-(U3-GPIO29_ADC3-Pad41)*%
X133700000Y-118987500D03*
%TO.P,U3,42,IOVDD*%
%TO.N,+3V3*%
X133300000Y-118987500D03*
D29*
%TO.P,U3,43,ADC_AVDD*%
X132462500Y-118150000D03*
%TO.P,U3,44,VREG_IN*%
X132462500Y-117750000D03*
%TO.P,U3,45,VREG_VOUT*%
%TO.N,+1V1*%
X132462500Y-117350000D03*
%TO.P,U3,46,USB_DM*%
%TO.N,Net-(U3-USB_DM)*%
X132462500Y-116950000D03*
%TO.P,U3,47,USB_DP*%
%TO.N,Net-(U3-USB_DP)*%
X132462500Y-116550000D03*
%TO.P,U3,48,USB_VDD*%
%TO.N,+3V3*%
X132462500Y-116150000D03*
%TO.P,U3,49,IOVDD*%
X132462500Y-115750000D03*
%TO.P,U3,50,DVDD*%
%TO.N,+1V1*%
X132462500Y-115350000D03*
%TO.P,U3,51,QSPI_SD3*%
%TO.N,/QSPI_SD3*%
X132462500Y-114950000D03*
%TO.P,U3,52,QSPI_SCLK*%
%TO.N,/QSPI_SCLK*%
X132462500Y-114550000D03*
%TO.P,U3,53,QSPI_SD0*%
%TO.N,/QSPI_SD0*%
X132462500Y-114150000D03*
%TO.P,U3,54,QSPI_SD2*%
%TO.N,/QSPI_SD2*%
X132462500Y-113750000D03*
%TO.P,U3,55,QSPI_SD1*%
%TO.N,/QSPI_SD1*%
X132462500Y-113350000D03*
%TO.P,U3,56,QSPI_SS*%
%TO.N,/QSPI_SS*%
X132462500Y-112950000D03*
D30*
%TO.P,U3,57,GND*%
%TO.N,GND*%
X137250000Y-114200000D03*
X134550000Y-114200000D03*
D31*
X135900000Y-115550000D03*
D30*
X137250000Y-116900000D03*
X134550000Y-116900000D03*
%TD*%
D22*
%TO.P,C4,1*%
%TO.N,+3V3*%
X127900000Y-110500000D03*
%TO.P,C4,2*%
%TO.N,GND*%
X127900000Y-109540000D03*
%TD*%
D16*
%TO.P,D29,1,K*%
%TO.N,row_2*%
X55243750Y-81080000D03*
%TO.P,D29,2,A*%
%TO.N,Net-(D29-A)*%
X55243750Y-77780000D03*
%TD*%
%TO.P,D40,1,K*%
%TO.N,row_2*%
X256857500Y-81080000D03*
%TO.P,D40,2,A*%
%TO.N,Net-(D40-A)*%
X256857500Y-77780000D03*
%TD*%
%TO.P,D47,1,K*%
%TO.N,row_3*%
X113982500Y-100130000D03*
%TO.P,D47,2,A*%
%TO.N,Net-(D47-A)*%
X113982500Y-96830000D03*
%TD*%
%TO.P,D9,1,K*%
%TO.N,row_0*%
X185420000Y-42980000D03*
%TO.P,D9,2,A*%
%TO.N,Net-(D9-A)*%
X185420000Y-39680000D03*
%TD*%
D20*
%TO.P,R5,1*%
%TO.N,Net-(C3-Pad1)*%
X145610000Y-117400000D03*
%TO.P,R5,2*%
%TO.N,/XOUT*%
X144590000Y-117400000D03*
%TD*%
D16*
%TO.P,D45,1,K*%
%TO.N,row_3*%
X75882500Y-100130000D03*
%TO.P,D45,2,A*%
%TO.N,Net-(D45-A)*%
X75882500Y-96830000D03*
%TD*%
%TO.P,D54,1,K*%
%TO.N,row_3*%
X247332500Y-100130000D03*
%TO.P,D54,2,A*%
%TO.N,Net-(D54-A)*%
X247332500Y-96830000D03*
%TD*%
%TO.P,D7,1,K*%
%TO.N,row_0*%
X147320000Y-42980000D03*
%TO.P,D7,2,A*%
%TO.N,Net-(D7-A)*%
X147320000Y-39680000D03*
%TD*%
%TO.P,D53,1,K*%
%TO.N,row_3*%
X228282500Y-100130000D03*
%TO.P,D53,2,A*%
%TO.N,Net-(D53-A)*%
X228282500Y-96830000D03*
%TD*%
%TO.P,D24,1,K*%
%TO.N,row_1*%
X213995000Y-62030000D03*
%TO.P,D24,2,A*%
%TO.N,Net-(D24-A)*%
X213995000Y-58730000D03*
%TD*%
D18*
%TO.P,C12,1*%
%TO.N,+3V3*%
X136900000Y-120250000D03*
%TO.P,C12,2*%
%TO.N,GND*%
X135940000Y-120250000D03*
%TD*%
D16*
%TO.P,D39,1,K*%
%TO.N,row_2*%
X237807500Y-81080000D03*
%TO.P,D39,2,A*%
%TO.N,Net-(D39-A)*%
X237807500Y-77780000D03*
%TD*%
%TO.P,D21,1,K*%
%TO.N,row_1*%
X156845000Y-62030000D03*
%TO.P,D21,2,A*%
%TO.N,Net-(D21-A)*%
X156845000Y-58730000D03*
%TD*%
D22*
%TO.P,C3,1*%
%TO.N,Net-(C3-Pad1)*%
X147850000Y-115630000D03*
%TO.P,C3,2*%
%TO.N,GND*%
X147850000Y-114670000D03*
%TD*%
D16*
%TO.P,D10,1,K*%
%TO.N,row_0*%
X204470000Y-42980000D03*
%TO.P,D10,2,A*%
%TO.N,Net-(D10-A)*%
X204470000Y-39680000D03*
%TD*%
D32*
%TO.P,J2,1,Pin_1*%
%TO.N,/~{USB_BOOT}*%
X124225000Y-106150000D03*
D33*
%TO.P,J2,2,Pin_2*%
%TO.N,GND*%
X122955000Y-106150000D03*
%TD*%
D15*
%TO.P,D2,1,K*%
%TO.N,row_0*%
X62230000Y-33220000D03*
%TO.P,D2,2,A*%
%TO.N,Net-(D2-A)*%
X62230000Y-36520000D03*
%TD*%
D16*
%TO.P,D25,1,K*%
%TO.N,row_1*%
X233045000Y-62030000D03*
%TO.P,D25,2,A*%
%TO.N,Net-(D25-A)*%
X233045000Y-58730000D03*
%TD*%
%TO.P,D44,1,K*%
%TO.N,row_3*%
X71437500Y-100130000D03*
%TO.P,D44,2,A*%
%TO.N,Net-(D44-A)*%
X71437500Y-96830000D03*
%TD*%
D15*
%TO.P,D14,1,K*%
%TO.N,row_0*%
X275750000Y-42980000D03*
%TO.P,D14,2,A*%
%TO.N,Net-(D14-A)*%
X275750000Y-46280000D03*
%TD*%
%TO.P,D57,1,K*%
%TO.N,row_4*%
X52862500Y-105640000D03*
%TO.P,D57,2,A*%
%TO.N,Net-(D57-A)*%
X52862500Y-108940000D03*
%TD*%
D16*
%TO.P,D16,1,K*%
%TO.N,row_1*%
X61595000Y-62030000D03*
%TO.P,D16,2,A*%
%TO.N,Net-(D16-A)*%
X61595000Y-58730000D03*
%TD*%
D21*
%TO.P,C1,1*%
%TO.N,VBUS*%
X122700000Y-109550000D03*
%TO.P,C1,2*%
%TO.N,GND*%
X122700000Y-110510000D03*
%TD*%
D16*
%TO.P,D13,1,K*%
%TO.N,row_0*%
X261620000Y-42980000D03*
%TO.P,D13,2,A*%
%TO.N,Net-(D13-A)*%
X261620000Y-39680000D03*
%TD*%
%TO.P,D43,1,K*%
%TO.N,row_3*%
X66992500Y-100130000D03*
%TO.P,D43,2,A*%
%TO.N,Net-(D43-A)*%
X66992500Y-96830000D03*
%TD*%
D34*
%TO.P,U4,1,GND*%
%TO.N,GND*%
X126437500Y-108600000D03*
%TO.P,U4,2,VO*%
%TO.N,+3V3*%
X126437500Y-110500000D03*
%TO.P,U4,3,VI*%
%TO.N,VBUS*%
X124162500Y-109550000D03*
%TD*%
D19*
%TO.P,R3,1*%
%TO.N,/USB_D+*%
X129140000Y-116550000D03*
%TO.P,R3,2*%
%TO.N,Net-(U3-USB_DP)*%
X130160000Y-116550000D03*
%TD*%
D16*
%TO.P,D15,1,K*%
%TO.N,row_1*%
X37782500Y-62030000D03*
%TO.P,D15,2,A*%
%TO.N,Net-(D15-A)*%
X37782500Y-58730000D03*
%TD*%
%TO.P,D6,1,K*%
%TO.N,row_0*%
X128270000Y-42980000D03*
%TO.P,D6,2,A*%
%TO.N,Net-(D6-A)*%
X128270000Y-39680000D03*
%TD*%
D18*
%TO.P,C11,1*%
%TO.N,+3V3*%
X133300000Y-120250000D03*
%TO.P,C11,2*%
%TO.N,GND*%
X132340000Y-120250000D03*
%TD*%
%TO.P,C16,1*%
%TO.N,+3V3*%
X126680000Y-115540000D03*
%TO.P,C16,2*%
%TO.N,GND*%
X125720000Y-115540000D03*
%TD*%
D15*
%TO.P,D59,1,K*%
%TO.N,row_4*%
X100487500Y-105640000D03*
%TO.P,D59,2,A*%
%TO.N,Net-(D59-A)*%
X100487500Y-108940000D03*
%TD*%
D16*
%TO.P,D26,1,K*%
%TO.N,row_1*%
X252095000Y-62030000D03*
%TO.P,D26,2,A*%
%TO.N,Net-(D26-A)*%
X252095000Y-58730000D03*
%TD*%
%TO.P,D18,1,K*%
%TO.N,row_1*%
X99695000Y-62030000D03*
%TO.P,D18,2,A*%
%TO.N,Net-(D18-A)*%
X99695000Y-58730000D03*
%TD*%
D15*
%TO.P,D62,1,K*%
%TO.N,row_4*%
X242412500Y-105640000D03*
%TO.P,D62,2,A*%
%TO.N,Net-(D62-A)*%
X242412500Y-108940000D03*
%TD*%
D21*
%TO.P,C13,1*%
%TO.N,+3V3*%
X141600000Y-116330000D03*
%TO.P,C13,2*%
%TO.N,GND*%
X141600000Y-117290000D03*
%TD*%
D16*
%TO.P,D23,1,K*%
%TO.N,row_1*%
X194945000Y-62030000D03*
%TO.P,D23,2,A*%
%TO.N,Net-(D23-A)*%
X194945000Y-58730000D03*
%TD*%
%TO.P,D36,1,K*%
%TO.N,row_2*%
X180657500Y-81080000D03*
%TO.P,D36,2,A*%
%TO.N,Net-(D36-A)*%
X180657500Y-77780000D03*
%TD*%
D15*
%TO.P,D58,1,K*%
%TO.N,row_4*%
X76675000Y-105640000D03*
%TO.P,D58,2,A*%
%TO.N,Net-(D58-A)*%
X76675000Y-108940000D03*
%TD*%
D16*
%TO.P,D37,1,K*%
%TO.N,row_2*%
X199707500Y-81080000D03*
%TO.P,D37,2,A*%
%TO.N,Net-(D37-A)*%
X199707500Y-77780000D03*
%TD*%
%TO.P,D12,1,K*%
%TO.N,row_0*%
X242570000Y-42980000D03*
%TO.P,D12,2,A*%
%TO.N,Net-(D12-A)*%
X242570000Y-39680000D03*
%TD*%
D19*
%TO.P,R7,1*%
%TO.N,Net-(J1-CC2)*%
X48900000Y-38250000D03*
%TO.P,R7,2*%
%TO.N,GND*%
X49920000Y-38250000D03*
%TD*%
D16*
%TO.P,D35,1,K*%
%TO.N,row_2*%
X161607500Y-81080000D03*
%TO.P,D35,2,A*%
%TO.N,Net-(D35-A)*%
X161607500Y-77780000D03*
%TD*%
%TO.P,D30,1,K*%
%TO.N,row_2*%
X66357500Y-81080000D03*
%TO.P,D30,2,A*%
%TO.N,Net-(D30-A)*%
X66357500Y-77780000D03*
%TD*%
D21*
%TO.P,C6,1*%
%TO.N,+1V1*%
X140600000Y-116330000D03*
%TO.P,C6,2*%
%TO.N,GND*%
X140600000Y-117290000D03*
%TD*%
D16*
%TO.P,D22,1,K*%
%TO.N,row_1*%
X175895000Y-62030000D03*
%TO.P,D22,2,A*%
%TO.N,Net-(D22-A)*%
X175895000Y-58730000D03*
%TD*%
%TO.P,D61,1,K*%
%TO.N,row_4*%
X225901250Y-119180000D03*
%TO.P,D61,2,A*%
%TO.N,Net-(D61-A)*%
X225901250Y-115880000D03*
%TD*%
D22*
%TO.P,C14,1*%
%TO.N,+3V3*%
X136900000Y-109880000D03*
%TO.P,C14,2*%
%TO.N,GND*%
X136900000Y-108920000D03*
%TD*%
D16*
%TO.P,D11,1,K*%
%TO.N,row_0*%
X223520000Y-42980000D03*
%TO.P,D11,2,A*%
%TO.N,Net-(D11-A)*%
X223520000Y-39680000D03*
%TD*%
D18*
%TO.P,C15,1*%
%TO.N,+3V3*%
X131955000Y-110850000D03*
%TO.P,C15,2*%
%TO.N,GND*%
X130995000Y-110850000D03*
%TD*%
D16*
%TO.P,D19,1,K*%
%TO.N,row_1*%
X118745000Y-62030000D03*
%TO.P,D19,2,A*%
%TO.N,Net-(D19-A)*%
X118745000Y-58730000D03*
%TD*%
D35*
%TO.P,J1,A1,GND*%
%TO.N,GND*%
X43950000Y-36255000D03*
%TO.P,J1,A4,VBUS*%
%TO.N,VBUS*%
X44750000Y-36255000D03*
D36*
%TO.P,J1,A5,CC1*%
%TO.N,Net-(J1-CC1)*%
X45900000Y-36255000D03*
%TO.P,J1,A6,D+*%
%TO.N,/USB_D+*%
X46900000Y-36255000D03*
%TO.P,J1,A7,D-*%
%TO.N,/USB_D-*%
X47400000Y-36255000D03*
%TO.P,J1,A8,SBU1*%
%TO.N,unconnected-(J1-SBU1-PadA8)*%
X48400000Y-36255000D03*
D35*
%TO.P,J1,A9,VBUS*%
%TO.N,VBUS*%
X49550000Y-36255000D03*
%TO.P,J1,A12,GND*%
%TO.N,GND*%
X50350000Y-36255000D03*
%TO.P,J1,B1,GND*%
X50350000Y-36255000D03*
%TO.P,J1,B4,VBUS*%
%TO.N,VBUS*%
X49550000Y-36255000D03*
D36*
%TO.P,J1,B5,CC2*%
%TO.N,Net-(J1-CC2)*%
X48900000Y-36255000D03*
%TO.P,J1,B6,D+*%
%TO.N,/USB_D+*%
X47900000Y-36255000D03*
%TO.P,J1,B7,D-*%
%TO.N,/USB_D-*%
X46400000Y-36255000D03*
%TO.P,J1,B8,SBU2*%
%TO.N,unconnected-(J1-SBU2-PadB8)*%
X45400000Y-36255000D03*
D35*
%TO.P,J1,B9,VBUS*%
%TO.N,VBUS*%
X44750000Y-36255000D03*
%TO.P,J1,B12,GND*%
%TO.N,GND*%
X43950000Y-36255000D03*
D37*
%TO.P,J1,S1,SHIELD*%
X42830000Y-31500000D03*
D38*
X42830000Y-35680000D03*
D37*
X51470000Y-31500000D03*
D38*
X51470000Y-35680000D03*
%TD*%
D16*
%TO.P,D8,1,K*%
%TO.N,row_0*%
X166370000Y-42980000D03*
%TO.P,D8,2,A*%
%TO.N,Net-(D8-A)*%
X166370000Y-39680000D03*
%TD*%
D18*
%TO.P,C5,1*%
%TO.N,+3V3*%
X125155000Y-114045758D03*
%TO.P,C5,2*%
%TO.N,GND*%
X124195000Y-114045758D03*
%TD*%
D39*
%TO.N,GND*%
X143660448Y-118020000D03*
X122700000Y-111510000D03*
X128170000Y-118550000D03*
X125125000Y-113085758D03*
X146990567Y-112884433D03*
X128900000Y-109540000D03*
X124720000Y-115540000D03*
X140600000Y-117290000D03*
X147020567Y-117395567D03*
X134940000Y-120250000D03*
X130995000Y-109850000D03*
X136900000Y-108088529D03*
X147733067Y-116683067D03*
X147850000Y-113743866D03*
X130110000Y-120490000D03*
X127937500Y-108600000D03*
X146396134Y-112290000D03*
X123195000Y-114045758D03*
X143650448Y-112290000D03*
X146396134Y-118020000D03*
X142204664Y-115150000D03*
%TO.N,VBUS*%
X48764695Y-34930000D03*
X107099850Y-100730000D03*
%TO.N,+3V3*%
X133703640Y-113050000D03*
X133703640Y-118050000D03*
X126437500Y-111500000D03*
%TO.N,row_0*%
X147259994Y-100730000D03*
X152275000Y-42980000D03*
%TO.N,row_1*%
X152877500Y-62030000D03*
X148059997Y-100730000D03*
%TO.N,row_2*%
X148860000Y-100730000D03*
X151575000Y-81080000D03*
%TO.N,/USB_D+*%
X103100521Y-105174479D03*
X93875521Y-47374479D03*
%TO.N,/USB_D-*%
X102499479Y-105775521D03*
X93274479Y-47975521D03*
%TO.N,col_0*%
X130490000Y-108050000D03*
%TO.N,col_1*%
X131290000Y-108050000D03*
%TO.N,col_2*%
X132090000Y-108050000D03*
%TO.N,col_3*%
X132890000Y-108050000D03*
%TO.N,col_4*%
X133690000Y-108050000D03*
%TO.N,col_5*%
X134490000Y-108050000D03*
%TO.N,col_6*%
X155000000Y-100730000D03*
X135290000Y-108050000D03*
%TO.N,col_7*%
X136090000Y-108050000D03*
%TO.N,col_8*%
X137710000Y-108050000D03*
%TO.N,col_9*%
X138510000Y-108050000D03*
%TO.N,col_10*%
X139310000Y-108050000D03*
%TO.N,col_11*%
X140110000Y-108050000D03*
%TO.N,col_12*%
X140910000Y-108050000D03*
%TO.N,col_13*%
X141710000Y-108050000D03*
%TD*%
D40*
%TO.N,GND*%
X145580000Y-112900000D02*
X145786134Y-112900000D01*
X43950000Y-36255000D02*
X43405000Y-36255000D01*
X43950000Y-36670552D02*
X44880000Y-37600552D01*
X142930448Y-117290000D02*
X141600000Y-117290000D01*
X145950000Y-114300000D02*
X146200000Y-114300000D01*
X148460000Y-114353866D02*
X148460000Y-115956134D01*
X145786134Y-112900000D02*
X146396134Y-112290000D01*
X144000000Y-116000000D02*
X143054664Y-116000000D01*
X132080000Y-120510000D02*
X132340000Y-120250000D01*
X146990567Y-112884433D02*
X146975000Y-112900000D01*
X44880000Y-37600552D02*
X44880000Y-38250000D01*
X129170000Y-118550000D02*
X129170000Y-119550000D01*
X124195000Y-114045758D02*
X123195000Y-114045758D01*
X128900000Y-111225000D02*
X128900000Y-109540000D01*
X126437500Y-108600000D02*
X127937500Y-108600000D01*
X141390448Y-114550000D02*
X139337500Y-114550000D01*
X147480000Y-114300000D02*
X147850000Y-114670000D01*
X146200000Y-114300000D02*
X146200000Y-113520000D01*
X129725000Y-113164386D02*
X129725000Y-112050000D01*
X144250000Y-116000000D02*
X145950000Y-114300000D01*
X146396134Y-112290000D02*
X146990567Y-112884433D01*
X43950000Y-36255000D02*
X43950000Y-36670552D01*
X50350000Y-36255000D02*
X50895000Y-36255000D01*
X122700000Y-110510000D02*
X122700000Y-111510000D01*
X130110000Y-120490000D02*
X130130000Y-120510000D01*
X130750000Y-113725000D02*
X130285614Y-113725000D01*
X147850000Y-113743866D02*
X148460000Y-114353866D01*
X43405000Y-36255000D02*
X42830000Y-35680000D01*
X50350000Y-36255000D02*
X50350000Y-37820000D01*
X129170000Y-118550000D02*
X128170000Y-118550000D01*
X130110000Y-120490000D02*
X129170000Y-119550000D01*
X135940000Y-120250000D02*
X134940000Y-120250000D01*
X148460000Y-115956134D02*
X147733067Y-116683067D01*
X136900000Y-108920000D02*
X136900000Y-108088529D01*
X126125000Y-113085758D02*
X125125000Y-113085758D01*
X146396134Y-118020000D02*
X143660448Y-118020000D01*
X131130000Y-120510000D02*
X132080000Y-120510000D01*
X146200000Y-113520000D02*
X145580000Y-112900000D01*
X143660448Y-118020000D02*
X142930448Y-117290000D01*
X146396134Y-112290000D02*
X143650448Y-112290000D01*
X125720000Y-115540000D02*
X124720000Y-115540000D01*
X130995000Y-110850000D02*
X130995000Y-109850000D01*
X147850000Y-113743866D02*
X147850000Y-114670000D01*
X146396134Y-118020000D02*
X147020567Y-117395567D01*
X144000000Y-116000000D02*
X144250000Y-116000000D01*
X128900000Y-109540000D02*
X127900000Y-109540000D01*
X50895000Y-36255000D02*
X51470000Y-35680000D01*
X143650448Y-112290000D02*
X141390448Y-114550000D01*
X146200000Y-114300000D02*
X147480000Y-114300000D01*
X147733067Y-116683067D02*
X147020567Y-117395567D01*
X146990567Y-112884433D02*
X147850000Y-113743866D01*
X143054664Y-116000000D02*
X142204664Y-115150000D01*
X50350000Y-37820000D02*
X49920000Y-38250000D01*
X130130000Y-120510000D02*
X131130000Y-120510000D01*
X129725000Y-112050000D02*
X128900000Y-111225000D01*
X130285614Y-113725000D02*
X129725000Y-113164386D01*
D41*
%TO.N,VBUS*%
X107099850Y-107087297D02*
X109562553Y-109550000D01*
D42*
X49550000Y-35715305D02*
X48764695Y-34930000D01*
D41*
X107099850Y-100730000D02*
X107099850Y-107087297D01*
D42*
X44750000Y-35726880D02*
X44750000Y-36255000D01*
X45546880Y-34930000D02*
X44750000Y-35726880D01*
X48764695Y-34930000D02*
X45546880Y-34930000D01*
D41*
X109562553Y-109550000D02*
X122700000Y-109550000D01*
X124162500Y-109550000D02*
X122700000Y-109550000D01*
D42*
X49550000Y-36255000D02*
X49550000Y-35715305D01*
D40*
%TO.N,/XIN*%
X143606134Y-112900000D02*
X144620000Y-112900000D01*
X139337500Y-114950000D02*
X141556134Y-114950000D01*
X144000000Y-114300000D02*
X144000000Y-113520000D01*
X144000000Y-113520000D02*
X144620000Y-112900000D01*
X141556134Y-114950000D02*
X143606134Y-112900000D01*
%TO.N,Net-(C3-Pad1)*%
X147480000Y-116000000D02*
X147850000Y-115630000D01*
X146200000Y-116000000D02*
X146200000Y-116810000D01*
X146200000Y-116000000D02*
X147480000Y-116000000D01*
X146200000Y-116810000D02*
X145610000Y-117400000D01*
%TO.N,+3V3*%
X131930000Y-117750000D02*
X130130000Y-119550000D01*
X133300000Y-118453640D02*
X133300000Y-118987500D01*
X133603640Y-118150000D02*
X133703640Y-118050000D01*
X133300000Y-112646360D02*
X133300000Y-112112500D01*
X132462500Y-118150000D02*
X131130000Y-119482500D01*
X124525000Y-112837229D02*
X125137229Y-112225000D01*
X132462500Y-115750000D02*
X126890000Y-115750000D01*
X136496360Y-113050000D02*
X136900000Y-112646360D01*
X131130000Y-119482500D02*
X131130000Y-119550000D01*
X133703640Y-113050000D02*
X133300000Y-112646360D01*
X132462500Y-117750000D02*
X133403640Y-117750000D01*
X132462500Y-118150000D02*
X133603640Y-118150000D01*
X136496360Y-118050000D02*
X136900000Y-118453640D01*
X126437500Y-110500000D02*
X126437500Y-111500000D01*
X124525000Y-113439624D02*
X124525000Y-112837229D01*
X141020000Y-115750000D02*
X141600000Y-116330000D01*
X136900000Y-118453640D02*
X136900000Y-118987500D01*
X132405674Y-110850000D02*
X133300000Y-111744326D01*
X138803640Y-115750000D02*
X138600000Y-115546360D01*
X126680000Y-115536892D02*
X125188866Y-114045758D01*
X133703640Y-118050000D02*
X136496360Y-118050000D01*
X136900000Y-112112500D02*
X136900000Y-109880000D01*
X133703640Y-113050000D02*
X136496360Y-113050000D01*
X126890000Y-115750000D02*
X126680000Y-115540000D01*
X131955000Y-110850000D02*
X132405674Y-110850000D01*
X125188866Y-114045758D02*
X125155000Y-114045758D01*
X137925000Y-113050000D02*
X136496360Y-113050000D01*
X127900000Y-110500000D02*
X127900000Y-112225000D01*
X138600000Y-113725000D02*
X137925000Y-113050000D01*
X126680000Y-115540000D02*
X126680000Y-115536892D01*
X132462500Y-117750000D02*
X131930000Y-117750000D01*
X125137229Y-112225000D02*
X127900000Y-112225000D01*
X133403640Y-117750000D02*
X133703640Y-118050000D01*
X133300000Y-112112500D02*
X133300000Y-111744326D01*
X139337500Y-115750000D02*
X138803640Y-115750000D01*
X133300000Y-118987500D02*
X133300000Y-120250000D01*
X136900000Y-112646360D02*
X136900000Y-112112500D01*
X126437500Y-110500000D02*
X127900000Y-110500000D01*
X138600000Y-115546360D02*
X138600000Y-113725000D01*
X125131134Y-114045758D02*
X124525000Y-113439624D01*
X125155000Y-114045758D02*
X125131134Y-114045758D01*
X136900000Y-118987500D02*
X136900000Y-120250000D01*
X139337500Y-115750000D02*
X141020000Y-115750000D01*
X133703640Y-118050000D02*
X133300000Y-118453640D01*
X132462500Y-116150000D02*
X132462500Y-115750000D01*
%TO.N,+1V1*%
X139337500Y-116150000D02*
X138803640Y-116150000D01*
X132462500Y-117350000D02*
X132996360Y-117350000D01*
X132996360Y-117350000D02*
X133200000Y-117146360D01*
X140420000Y-116150000D02*
X140600000Y-116330000D01*
X139337500Y-116150000D02*
X140420000Y-116150000D01*
X127429242Y-115350000D02*
X126125000Y-114045758D01*
X133200000Y-117146360D02*
X133200000Y-115553640D01*
X137950000Y-117650000D02*
X134152169Y-117650000D01*
X133200000Y-115553640D02*
X132996360Y-115350000D01*
X134152169Y-117650000D02*
X133200000Y-116697831D01*
X132462500Y-117350000D02*
X131330000Y-117350000D01*
X131330000Y-117350000D02*
X130130000Y-118550000D01*
X138600000Y-116353640D02*
X138600000Y-117000000D01*
X138803640Y-116150000D02*
X138600000Y-116353640D01*
X132996360Y-115350000D02*
X132462500Y-115350000D01*
X132462500Y-115350000D02*
X127429242Y-115350000D01*
X138600000Y-117000000D02*
X137950000Y-117650000D01*
%TO.N,Net-(D1-A)*%
X33172412Y-36520000D02*
X33020000Y-36520000D01*
X37292412Y-40640000D02*
X33172412Y-36520000D01*
X41910000Y-40640000D02*
X37292412Y-40640000D01*
%TO.N,row_0*%
X140271360Y-113515685D02*
X147259994Y-106527051D01*
X62230000Y-33280000D02*
X71120000Y-42170000D01*
X71120000Y-42980000D02*
X152275000Y-42980000D01*
X140037046Y-113750000D02*
X140271360Y-113515685D01*
X152275000Y-42980000D02*
X275750000Y-42980000D01*
X139337500Y-113750000D02*
X140037046Y-113750000D01*
X33020000Y-33220000D02*
X62230000Y-33220000D01*
X147259994Y-106527051D02*
X147259994Y-100730000D01*
X62230000Y-33220000D02*
X62230000Y-33280000D01*
X71120000Y-42170000D02*
X71120000Y-42980000D01*
%TO.N,Net-(D2-A)*%
X62830000Y-36520000D02*
X62230000Y-36520000D01*
X63735000Y-40640000D02*
X63735000Y-37425000D01*
X63735000Y-37425000D02*
X62830000Y-36520000D01*
%TO.N,Net-(D3-A)*%
X69615000Y-38775000D02*
X70520000Y-39680000D01*
X69615000Y-35560000D02*
X69615000Y-38775000D01*
X70520000Y-39680000D02*
X71120000Y-39680000D01*
%TO.N,Net-(D4-A)*%
X88665000Y-38775000D02*
X89570000Y-39680000D01*
X89570000Y-39680000D02*
X90170000Y-39680000D01*
X88665000Y-35560000D02*
X88665000Y-38775000D01*
%TO.N,Net-(D5-A)*%
X107715000Y-35560000D02*
X107715000Y-38775000D01*
X107715000Y-38775000D02*
X108620000Y-39680000D01*
X108620000Y-39680000D02*
X109220000Y-39680000D01*
%TO.N,Net-(D6-A)*%
X126765000Y-35560000D02*
X126765000Y-38775000D01*
X126765000Y-38775000D02*
X127670000Y-39680000D01*
X127670000Y-39680000D02*
X128270000Y-39680000D01*
%TO.N,Net-(D7-A)*%
X145815000Y-38775000D02*
X146720000Y-39680000D01*
X146720000Y-39680000D02*
X147320000Y-39680000D01*
X145815000Y-35560000D02*
X145815000Y-38775000D01*
%TO.N,Net-(D8-A)*%
X164865000Y-38775000D02*
X165770000Y-39680000D01*
X164865000Y-35560000D02*
X164865000Y-38775000D01*
X165770000Y-39680000D02*
X166370000Y-39680000D01*
%TO.N,Net-(D9-A)*%
X183915000Y-35560000D02*
X183915000Y-38775000D01*
X183915000Y-38775000D02*
X184820000Y-39680000D01*
X184820000Y-39680000D02*
X185420000Y-39680000D01*
%TO.N,Net-(D10-A)*%
X203870000Y-39680000D02*
X204470000Y-39680000D01*
X202965000Y-35560000D02*
X202965000Y-38775000D01*
X202965000Y-38775000D02*
X203870000Y-39680000D01*
%TO.N,Net-(D11-A)*%
X222015000Y-38775000D02*
X222920000Y-39680000D01*
X222920000Y-39680000D02*
X223520000Y-39680000D01*
X222015000Y-35560000D02*
X222015000Y-38775000D01*
%TO.N,Net-(D12-A)*%
X241065000Y-38775000D02*
X241970000Y-39680000D01*
X241970000Y-39680000D02*
X242570000Y-39680000D01*
X241065000Y-35560000D02*
X241065000Y-38775000D01*
%TO.N,Net-(D13-A)*%
X261020000Y-39680000D02*
X261620000Y-39680000D01*
X260115000Y-38775000D02*
X261020000Y-39680000D01*
X260115000Y-35560000D02*
X260115000Y-38775000D01*
%TO.N,Net-(D14-A)*%
X292335000Y-40640000D02*
X292335000Y-36430000D01*
X292335000Y-36430000D02*
X291465000Y-35560000D01*
X289560000Y-40640000D02*
X289560000Y-43416775D01*
X284307875Y-48668900D02*
X278138900Y-48668900D01*
X289560000Y-43416775D02*
X284307875Y-48668900D01*
X278138900Y-48668900D02*
X275750000Y-46280000D01*
%TO.N,Net-(D15-A)*%
X37182500Y-58730000D02*
X37782500Y-58730000D01*
X36277500Y-57825000D02*
X37182500Y-58730000D01*
X36277500Y-54610000D02*
X36277500Y-57825000D01*
%TO.N,row_1*%
X139337500Y-114150000D02*
X140202732Y-114150000D01*
X282387500Y-62030000D02*
X152877500Y-62030000D01*
X148059997Y-106292735D02*
X148059997Y-100730000D01*
X152877500Y-62030000D02*
X37782500Y-62030000D01*
X140202732Y-114150000D02*
X148059997Y-106292735D01*
%TO.N,Net-(D16-A)*%
X60090000Y-57825000D02*
X60995000Y-58730000D01*
X60090000Y-54610000D02*
X60090000Y-57825000D01*
X60995000Y-58730000D02*
X61595000Y-58730000D01*
%TO.N,Net-(D17-A)*%
X79140000Y-54610000D02*
X79140000Y-57825000D01*
X79140000Y-57825000D02*
X80045000Y-58730000D01*
X80045000Y-58730000D02*
X80645000Y-58730000D01*
%TO.N,Net-(D18-A)*%
X98190000Y-57825000D02*
X99095000Y-58730000D01*
X98190000Y-54610000D02*
X98190000Y-57825000D01*
X99095000Y-58730000D02*
X99695000Y-58730000D01*
%TO.N,Net-(D19-A)*%
X118145000Y-58730000D02*
X118745000Y-58730000D01*
X117240000Y-57825000D02*
X118145000Y-58730000D01*
X117240000Y-54610000D02*
X117240000Y-57825000D01*
%TO.N,Net-(D20-A)*%
X136290000Y-54610000D02*
X136290000Y-57825000D01*
X137195000Y-58730000D02*
X137795000Y-58730000D01*
X136290000Y-57825000D02*
X137195000Y-58730000D01*
%TO.N,Net-(D21-A)*%
X155340000Y-54610000D02*
X155340000Y-57825000D01*
X155340000Y-57825000D02*
X156245000Y-58730000D01*
X156245000Y-58730000D02*
X156845000Y-58730000D01*
%TO.N,Net-(D22-A)*%
X174390000Y-54610000D02*
X174390000Y-57825000D01*
X175295000Y-58730000D02*
X175895000Y-58730000D01*
X174390000Y-57825000D02*
X175295000Y-58730000D01*
%TO.N,Net-(D23-A)*%
X193440000Y-57825000D02*
X194345000Y-58730000D01*
X194345000Y-58730000D02*
X194945000Y-58730000D01*
X193440000Y-54610000D02*
X193440000Y-57825000D01*
%TO.N,Net-(D24-A)*%
X212490000Y-54610000D02*
X212490000Y-57825000D01*
X213395000Y-58730000D02*
X213995000Y-58730000D01*
X212490000Y-57825000D02*
X213395000Y-58730000D01*
%TO.N,Net-(D25-A)*%
X231540000Y-57825000D02*
X232445000Y-58730000D01*
X231540000Y-54610000D02*
X231540000Y-57825000D01*
X232445000Y-58730000D02*
X233045000Y-58730000D01*
%TO.N,Net-(D26-A)*%
X251495000Y-58730000D02*
X252095000Y-58730000D01*
X250590000Y-54610000D02*
X250590000Y-57825000D01*
X250590000Y-57825000D02*
X251495000Y-58730000D01*
%TO.N,Net-(D27-A)*%
X269640000Y-57825000D02*
X270545000Y-58730000D01*
X270545000Y-58730000D02*
X271145000Y-58730000D01*
X269640000Y-54610000D02*
X269640000Y-57825000D01*
%TO.N,Net-(D28-A)*%
X290353750Y-80010000D02*
X285713750Y-75370000D01*
X299878750Y-73260000D02*
X299878750Y-76818236D01*
X293911986Y-82785000D02*
X290353750Y-82785000D01*
X285713750Y-62056250D02*
X285687500Y-62030000D01*
X285713750Y-75370000D02*
X285713750Y-62056250D01*
X299878750Y-76818236D02*
X293911986Y-82785000D01*
%TO.N,Net-(D29-A)*%
X36666250Y-69615000D02*
X35401250Y-70880000D01*
X53173750Y-77780000D02*
X55243750Y-77780000D01*
X47783750Y-69615000D02*
X36666250Y-69615000D01*
X47783750Y-72390000D02*
X53173750Y-77780000D01*
%TO.N,row_2*%
X55243750Y-81080000D02*
X151575000Y-81080000D01*
X148860000Y-100730000D02*
X148860000Y-116404663D01*
X284037500Y-69802412D02*
X272759912Y-81080000D01*
X138837500Y-119325000D02*
X138500000Y-118987500D01*
X151575000Y-81080000D02*
X270987500Y-81080000D01*
X145939663Y-119325000D02*
X138837500Y-119325000D01*
X272759912Y-81080000D02*
X270987500Y-81080000D01*
X284037500Y-58800000D02*
X284037500Y-69802412D01*
X148860000Y-116404663D02*
X145939663Y-119325000D01*
%TO.N,Net-(D30-A)*%
X64852500Y-73660000D02*
X64852500Y-76875000D01*
X65757500Y-77780000D02*
X66357500Y-77780000D01*
X64852500Y-76875000D02*
X65757500Y-77780000D01*
%TO.N,Net-(D31-A)*%
X84807500Y-77780000D02*
X85407500Y-77780000D01*
X83902500Y-73660000D02*
X83902500Y-76875000D01*
X83902500Y-76875000D02*
X84807500Y-77780000D01*
%TO.N,Net-(D32-A)*%
X103857500Y-77780000D02*
X104457500Y-77780000D01*
X102952500Y-76875000D02*
X103857500Y-77780000D01*
X102952500Y-73660000D02*
X102952500Y-76875000D01*
%TO.N,Net-(D33-A)*%
X122002500Y-76875000D02*
X122907500Y-77780000D01*
X122002500Y-73660000D02*
X122002500Y-76875000D01*
X122907500Y-77780000D02*
X123507500Y-77780000D01*
%TO.N,Net-(D34-A)*%
X141052500Y-76875000D02*
X141957500Y-77780000D01*
X141052500Y-73660000D02*
X141052500Y-76875000D01*
X141957500Y-77780000D02*
X142557500Y-77780000D01*
%TO.N,Net-(D35-A)*%
X161007500Y-77780000D02*
X161607500Y-77780000D01*
X160250000Y-77022500D02*
X161007500Y-77780000D01*
X160102500Y-73660000D02*
X160250000Y-73807500D01*
X160250000Y-73807500D02*
X160250000Y-77022500D01*
%TO.N,Net-(D36-A)*%
X180057500Y-77780000D02*
X180657500Y-77780000D01*
X179152500Y-76875000D02*
X180057500Y-77780000D01*
X179152500Y-73660000D02*
X179152500Y-76875000D01*
%TO.N,Net-(D37-A)*%
X198202500Y-76875000D02*
X199107500Y-77780000D01*
X198202500Y-73660000D02*
X198202500Y-76875000D01*
X199107500Y-77780000D02*
X199707500Y-77780000D01*
%TO.N,Net-(D38-A)*%
X218157500Y-77780000D02*
X218757500Y-77780000D01*
X217252500Y-76875000D02*
X218157500Y-77780000D01*
X217252500Y-73660000D02*
X217252500Y-76875000D01*
%TO.N,Net-(D39-A)*%
X236302500Y-73660000D02*
X236302500Y-76875000D01*
X236302500Y-76875000D02*
X237207500Y-77780000D01*
X237207500Y-77780000D02*
X237807500Y-77780000D01*
%TO.N,Net-(D40-A)*%
X255352500Y-76875000D02*
X256257500Y-77780000D01*
X255352500Y-73660000D02*
X255352500Y-76875000D01*
X256257500Y-77780000D02*
X256857500Y-77780000D01*
%TO.N,Net-(D41-A)*%
X281449912Y-80010000D02*
X286299912Y-84860000D01*
X278447500Y-80010000D02*
X281449912Y-80010000D01*
X278447500Y-82785000D02*
X276852500Y-84380000D01*
X286299912Y-84860000D02*
X292540000Y-84860000D01*
X306705750Y-64058250D02*
X305117500Y-62470000D01*
X292540000Y-84860000D02*
X306705750Y-70694250D01*
X276852500Y-84380000D02*
X270987500Y-84380000D01*
X306705750Y-70694250D02*
X306705750Y-64058250D01*
%TO.N,Net-(D42-A)*%
X296387000Y-52863000D02*
X286674500Y-52863000D01*
X308610000Y-40640000D02*
X296387000Y-52863000D01*
X286674500Y-52863000D02*
X284037500Y-55500000D01*
%TO.N,row_3*%
X149475000Y-116375000D02*
X149475000Y-100155000D01*
X149475000Y-100155000D02*
X149450000Y-100130000D01*
X138100000Y-119521360D02*
X138303640Y-119725000D01*
X276163025Y-100130000D02*
X266575000Y-100130000D01*
X138100000Y-118987500D02*
X138100000Y-119521360D01*
X299720000Y-97370994D02*
X294445994Y-102645000D01*
X278678025Y-102645000D02*
X276163025Y-100130000D01*
X149450000Y-100130000D02*
X66992500Y-100130000D01*
X299720000Y-96900000D02*
X299720000Y-97370994D01*
X266575000Y-100130000D02*
X149450000Y-100130000D01*
X146125000Y-119725000D02*
X149475000Y-116375000D01*
X138303640Y-119725000D02*
X146125000Y-119725000D01*
X294445994Y-102645000D02*
X278678025Y-102645000D01*
%TO.N,Net-(D43-A)*%
X48249652Y-90170000D02*
X53816250Y-95736598D01*
X56591250Y-97790000D02*
X66032500Y-97790000D01*
X66032500Y-97790000D02*
X66992500Y-96830000D01*
X53816250Y-95736598D02*
X53816250Y-97790000D01*
X45801250Y-90170000D02*
X48249652Y-90170000D01*
%TO.N,Net-(D44-A)*%
X67317500Y-92710000D02*
X71437500Y-96830000D01*
X58102500Y-92710000D02*
X67317500Y-92710000D01*
%TO.N,Net-(D45-A)*%
X74377500Y-92710000D02*
X74377500Y-95925000D01*
X74377500Y-95925000D02*
X75282500Y-96830000D01*
X75282500Y-96830000D02*
X75882500Y-96830000D01*
%TO.N,Net-(D46-A)*%
X94332500Y-96830000D02*
X94932500Y-96830000D01*
X93427500Y-95925000D02*
X94332500Y-96830000D01*
X93427500Y-92710000D02*
X93427500Y-95925000D01*
%TO.N,Net-(D47-A)*%
X112477500Y-92710000D02*
X112477500Y-95925000D01*
X113382500Y-96830000D02*
X113982500Y-96830000D01*
X112477500Y-95925000D02*
X113382500Y-96830000D01*
%TO.N,Net-(D48-A)*%
X132432500Y-96830000D02*
X133032500Y-96830000D01*
X131527500Y-95925000D02*
X132432500Y-96830000D01*
X131527500Y-92710000D02*
X131527500Y-95925000D01*
%TO.N,Net-(D49-A)*%
X150577500Y-95925000D02*
X151482500Y-96830000D01*
X150577500Y-92710000D02*
X150577500Y-95925000D01*
X151482500Y-96830000D02*
X152082500Y-96830000D01*
%TO.N,Net-(D50-A)*%
X169627500Y-95925000D02*
X170532500Y-96830000D01*
X170532500Y-96830000D02*
X171132500Y-96830000D01*
X169627500Y-92710000D02*
X169627500Y-95925000D01*
%TO.N,Net-(D51-A)*%
X189582500Y-96830000D02*
X190182500Y-96830000D01*
X188677500Y-92710000D02*
X188677500Y-95925000D01*
X188677500Y-95925000D02*
X189582500Y-96830000D01*
%TO.N,Net-(D52-A)*%
X208632500Y-96830000D02*
X209232500Y-96830000D01*
X207727500Y-92710000D02*
X207727500Y-95925000D01*
X207727500Y-95925000D02*
X208632500Y-96830000D01*
%TO.N,Net-(D53-A)*%
X226777500Y-95925000D02*
X227682500Y-96830000D01*
X226777500Y-92710000D02*
X226777500Y-95925000D01*
X227682500Y-96830000D02*
X228282500Y-96830000D01*
%TO.N,Net-(D54-A)*%
X245827500Y-92710000D02*
X245827500Y-95925000D01*
X246732500Y-96830000D02*
X247332500Y-96830000D01*
X245827500Y-95925000D02*
X246732500Y-96830000D01*
%TO.N,Net-(D55-A)*%
X281146250Y-88665000D02*
X290671250Y-88665000D01*
X271965000Y-91440000D02*
X266575000Y-96830000D01*
X281146250Y-91440000D02*
X271965000Y-91440000D01*
%TO.N,Net-(D56-A)*%
X307340000Y-91440000D02*
X301880000Y-91440000D01*
X301880000Y-91440000D02*
X299720000Y-93600000D01*
%TO.N,Net-(D57-A)*%
X37941250Y-120885000D02*
X46677500Y-120885000D01*
X47942500Y-116840000D02*
X52862500Y-111920000D01*
X46677500Y-120885000D02*
X47942500Y-119620000D01*
X52862500Y-111920000D02*
X52862500Y-108940000D01*
%TO.N,row_4*%
X137700000Y-120386134D02*
X136711134Y-121375000D01*
X232945000Y-119180000D02*
X225901250Y-119180000D01*
X153518750Y-120125000D02*
X154463750Y-119180000D01*
X279911506Y-105640000D02*
X278646506Y-106905000D01*
X137700000Y-118987500D02*
X137700000Y-120386134D01*
X290037500Y-105640000D02*
X279911506Y-105640000D01*
X137700000Y-120386134D02*
X137961134Y-120125000D01*
X117100000Y-121375000D02*
X101365000Y-105640000D01*
X206698514Y-121480000D02*
X156763750Y-121480000D01*
X267490000Y-106905000D02*
X266225000Y-105640000D01*
X208998514Y-119180000D02*
X206698514Y-121480000D01*
X136711134Y-121375000D02*
X117100000Y-121375000D01*
X278646506Y-106905000D02*
X267490000Y-106905000D01*
X101365000Y-105640000D02*
X100487500Y-105640000D01*
X238376250Y-109676250D02*
X238376250Y-113748750D01*
X266225000Y-105640000D02*
X242412500Y-105640000D01*
X225901250Y-119180000D02*
X208998514Y-119180000D01*
X156763750Y-121480000D02*
X154463750Y-119180000D01*
X242412500Y-105640000D02*
X238376250Y-109676250D01*
X137961134Y-120125000D02*
X153518750Y-120125000D01*
X52862500Y-105640000D02*
X100487500Y-105640000D01*
X238376250Y-113748750D02*
X232945000Y-119180000D01*
%TO.N,Net-(D58-A)*%
X76675000Y-111920000D02*
X76675000Y-108940000D01*
X61753750Y-120885000D02*
X70490000Y-120885000D01*
X70490000Y-120885000D02*
X71755000Y-119620000D01*
X71755000Y-116840000D02*
X76675000Y-111920000D01*
%TO.N,Net-(D59-A)*%
X100487500Y-111920000D02*
X95567500Y-116840000D01*
X100487500Y-108940000D02*
X100487500Y-111920000D01*
X94302500Y-120885000D02*
X95567500Y-119620000D01*
X85566250Y-120885000D02*
X94302500Y-120885000D01*
%TO.N,Net-(D60-A)*%
X155733750Y-114305584D02*
X160808166Y-119380000D01*
X152958750Y-111760000D02*
X152958750Y-114975000D01*
X152958750Y-114975000D02*
X153863750Y-115880000D01*
X160808166Y-119380000D02*
X166130000Y-119380000D01*
X153863750Y-115880000D02*
X154463750Y-115880000D01*
X155733750Y-111760000D02*
X155733750Y-114305584D01*
%TO.N,Net-(D61-A)*%
X225301250Y-115880000D02*
X225901250Y-115880000D01*
X224396250Y-114975000D02*
X225301250Y-115880000D01*
X224396250Y-111760000D02*
X224396250Y-114975000D01*
%TO.N,Net-(D62-A)*%
X257333750Y-107715000D02*
X248597500Y-107715000D01*
X248597500Y-107715000D02*
X247332500Y-108980000D01*
X247332500Y-108980000D02*
X242452500Y-108980000D01*
X242452500Y-108980000D02*
X242412500Y-108940000D01*
%TO.N,Net-(D63-A)*%
X281146250Y-107715000D02*
X272410000Y-107715000D01*
X266265000Y-108980000D02*
X266225000Y-108940000D01*
X272410000Y-107715000D02*
X271145000Y-108980000D01*
X271145000Y-108980000D02*
X266265000Y-108980000D01*
%TO.N,Net-(D64-A)*%
X294957500Y-108980000D02*
X290077500Y-108980000D01*
X304958750Y-107715000D02*
X296222500Y-107715000D01*
X290077500Y-108980000D02*
X290037500Y-108940000D01*
X296222500Y-107715000D02*
X294957500Y-108980000D01*
%TO.N,Net-(J1-CC2)*%
X48900000Y-36255000D02*
X48900000Y-38250000D01*
%TO.N,/USB_D+*%
X103100521Y-105174479D02*
X103100521Y-105457322D01*
X47167590Y-35380000D02*
X47632410Y-35380000D01*
X47900000Y-44256800D02*
X50143200Y-46500000D01*
X128659999Y-116550000D02*
X129140000Y-116550000D01*
X47900000Y-36255000D02*
X47900000Y-44256800D01*
X46900000Y-35647590D02*
X47167590Y-35380000D01*
X50143200Y-46500000D02*
X92718199Y-46500000D01*
X93592678Y-47374479D02*
X93875521Y-47374479D01*
X92718199Y-46500000D02*
X93592678Y-47374479D01*
X47900000Y-35647590D02*
X47900000Y-36255000D01*
X103100521Y-105457322D02*
X114468199Y-116825000D01*
X47632410Y-35380000D02*
X47900000Y-35647590D01*
X46900000Y-36255000D02*
X46900000Y-35647590D01*
X114468199Y-116825000D02*
X128384999Y-116825000D01*
X128384999Y-116825000D02*
X128659999Y-116550000D01*
%TO.N,Net-(J1-CC1)*%
X45900000Y-36255000D02*
X45900000Y-38250000D01*
%TO.N,/USB_D-*%
X102499479Y-105775521D02*
X102782322Y-105775521D01*
X93274479Y-47692678D02*
X93274479Y-47975521D01*
X46900000Y-37362410D02*
X46900000Y-43893200D01*
X47400000Y-36862410D02*
X47400000Y-36255000D01*
X92531801Y-46950000D02*
X93274479Y-47692678D01*
X46400000Y-36255000D02*
X46400000Y-36862410D01*
X46900000Y-43893200D02*
X49956800Y-46950000D01*
X114281801Y-117275000D02*
X128384999Y-117275000D01*
X49956800Y-46950000D02*
X92531801Y-46950000D01*
X46400000Y-36862410D02*
X46900000Y-37362410D01*
X102782322Y-105775521D02*
X114281801Y-117275000D01*
X46900000Y-37362410D02*
X47400000Y-36862410D01*
X128384999Y-117275000D02*
X128659999Y-117550000D01*
X128659999Y-117550000D02*
X129140000Y-117550000D01*
%TO.N,/~{USB_BOOT}*%
X129900000Y-109510000D02*
X126540000Y-106150000D01*
X126540000Y-106150000D02*
X124225000Y-106150000D01*
%TO.N,/QSPI_SS*%
X129900000Y-110530000D02*
X129900000Y-111375000D01*
X132094326Y-112950000D02*
X131369326Y-112225000D01*
X132462500Y-112950000D02*
X132094326Y-112950000D01*
X131369326Y-112225000D02*
X130750000Y-112225000D01*
X129900000Y-111375000D02*
X130750000Y-112225000D01*
%TO.N,Net-(U3-USB_DP)*%
X132462500Y-116550000D02*
X130160000Y-116550000D01*
%TO.N,Net-(U3-USB_DM)*%
X132462500Y-116950000D02*
X130760000Y-116950000D01*
X130760000Y-116950000D02*
X130160000Y-117550000D01*
%TO.N,/XOUT*%
X139337500Y-115350000D02*
X141556134Y-115350000D01*
X143606134Y-117400000D02*
X144590000Y-117400000D01*
X141556134Y-115350000D02*
X143606134Y-117400000D01*
%TO.N,col_0*%
X37941250Y-82785000D02*
X49058750Y-82785000D01*
X130490000Y-108368640D02*
X130490000Y-108050000D01*
X44686250Y-100330000D02*
X42237848Y-100330000D01*
X49058750Y-82785000D02*
X50323750Y-81520000D01*
X45402500Y-107715000D02*
X36666250Y-107715000D01*
X133700000Y-111578640D02*
X130490000Y-108368640D01*
X36666250Y-107715000D02*
X35401250Y-108980000D01*
X42237848Y-100330000D02*
X36671250Y-94763402D01*
X36671250Y-94763402D02*
X36671250Y-92710000D01*
X133700000Y-112112500D02*
X133700000Y-111578640D01*
%TO.N,col_1*%
X131290000Y-108602954D02*
X131290000Y-108050000D01*
X69215000Y-107715000D02*
X60478750Y-107715000D01*
X60478750Y-107715000D02*
X59213750Y-108980000D01*
X134100000Y-111412954D02*
X131290000Y-108602954D01*
X134100000Y-112112500D02*
X134100000Y-111412954D01*
%TO.N,col_2*%
X134500000Y-112112500D02*
X134500000Y-111247268D01*
X132090000Y-108837268D02*
X132090000Y-108050000D01*
X134500000Y-111247268D02*
X132090000Y-108837268D01*
X84291250Y-107715000D02*
X83026250Y-108980000D01*
X93027500Y-107715000D02*
X84291250Y-107715000D01*
%TO.N,col_3*%
X132890000Y-109071582D02*
X132890000Y-108050000D01*
X134900000Y-112112500D02*
X134900000Y-111081582D01*
X134900000Y-111081582D02*
X132890000Y-109071582D01*
%TO.N,col_4*%
X135300000Y-110915896D02*
X133690000Y-109305896D01*
X135300000Y-112112500D02*
X135300000Y-110915896D01*
X133690000Y-109305896D02*
X133690000Y-108050000D01*
%TO.N,col_5*%
X135700000Y-110750210D02*
X134490000Y-109540210D01*
X135700000Y-112112500D02*
X135700000Y-110750210D01*
X134490000Y-109540210D02*
X134490000Y-108050000D01*
%TO.N,col_6*%
X155000000Y-100730000D02*
X155000000Y-102136250D01*
X170185584Y-109220000D02*
X164863750Y-109220000D01*
X175260000Y-116840000D02*
X175260000Y-114294416D01*
X155000000Y-102136250D02*
X162083750Y-109220000D01*
X135290000Y-109771820D02*
X135290000Y-108050000D01*
X136100000Y-112112500D02*
X136100000Y-110581820D01*
X175260000Y-114294416D02*
X170185584Y-109220000D01*
X136100000Y-110581820D02*
X135290000Y-109771820D01*
%TO.N,col_7*%
X136500000Y-112112500D02*
X136500000Y-110416134D01*
X136090000Y-110006134D02*
X136090000Y-108050000D01*
X136500000Y-110416134D02*
X136090000Y-110006134D01*
%TO.N,col_8*%
X137300000Y-111247268D02*
X137710000Y-110837268D01*
X137300000Y-112112500D02*
X137300000Y-111247268D01*
X137710000Y-110837268D02*
X137710000Y-108050000D01*
%TO.N,col_9*%
X137700000Y-111412954D02*
X138510000Y-110602954D01*
X138510000Y-110602954D02*
X138510000Y-108050000D01*
X137700000Y-112112500D02*
X137700000Y-111412954D01*
%TO.N,col_10*%
X139310000Y-110368640D02*
X139310000Y-108050000D01*
X138100000Y-111578640D02*
X139310000Y-110368640D01*
X138100000Y-112112500D02*
X138100000Y-111578640D01*
%TO.N,col_11*%
X138500000Y-112112500D02*
X138500000Y-111744326D01*
X138500000Y-111744326D02*
X140110000Y-110134326D01*
X258608750Y-120885000D02*
X259873750Y-119620000D01*
X249872500Y-120885000D02*
X258608750Y-120885000D01*
X140110000Y-110134326D02*
X140110000Y-108050000D01*
%TO.N,col_12*%
X139705674Y-112950000D02*
X140910000Y-111745674D01*
X282421250Y-120885000D02*
X283686250Y-119620000D01*
X140910000Y-111745674D02*
X140910000Y-108050000D01*
X293211250Y-97790000D02*
X283686250Y-97790000D01*
X273685000Y-120885000D02*
X282421250Y-120885000D01*
X139337500Y-112950000D02*
X139705674Y-112950000D01*
%TO.N,col_13*%
X302260000Y-43180000D02*
X302260000Y-34685000D01*
X141710000Y-111511360D02*
X141710000Y-108050000D01*
X302260000Y-34685000D02*
X300595000Y-33020000D01*
X297497500Y-120885000D02*
X306233750Y-120885000D01*
X306233750Y-120885000D02*
X307498750Y-119620000D01*
X287813750Y-73660000D02*
X297338750Y-64135000D01*
X139337500Y-113350000D02*
X139871360Y-113350000D01*
X287506598Y-33020000D02*
X297815000Y-33020000D01*
X280430000Y-40096598D02*
X287506598Y-33020000D01*
X139871360Y-113350000D02*
X141710000Y-111511360D01*
X280430000Y-43180000D02*
X280430000Y-40096598D01*
%TO.N,/QSPI_SD3*%
X126750000Y-113344928D02*
X127369928Y-112725000D01*
X127594928Y-114950000D02*
X126750000Y-114105072D01*
X126750000Y-114105072D02*
X126750000Y-113344928D01*
X127369928Y-112725000D02*
X127900000Y-112725000D01*
X132462500Y-114950000D02*
X127594928Y-114950000D01*
%TO.N,/QSPI_SCLK*%
X127150000Y-113939386D02*
X127150000Y-113510614D01*
X132462500Y-114550000D02*
X127760614Y-114550000D01*
X127435614Y-113225000D02*
X127900000Y-113225000D01*
X127150000Y-113510614D02*
X127435614Y-113225000D01*
X127760614Y-114550000D02*
X127150000Y-113939386D01*
%TO.N,/QSPI_SD1*%
X131303640Y-112725000D02*
X130750000Y-112725000D01*
X132462500Y-113350000D02*
X131928640Y-113350000D01*
X131928640Y-113350000D02*
X131303640Y-112725000D01*
%TO.N,/QSPI_SD2*%
X131237954Y-113225000D02*
X130750000Y-113225000D01*
X131762954Y-113750000D02*
X131237954Y-113225000D01*
X132462500Y-113750000D02*
X131762954Y-113750000D01*
%TO.N,/QSPI_SD0*%
X132462500Y-114150000D02*
X128325000Y-114150000D01*
X128325000Y-114150000D02*
X127900000Y-113725000D01*
%TD*%
M02*
