%TF.GenerationSoftware,KiCad,Pcbnew,8.0.6*%
%TF.CreationDate,2024-12-08T15:52:06+08:00*%
%TF.ProjectId,PH60_Rev2,50483630-5f52-4657-9632-2e6b69636164,rev?*%
%TF.SameCoordinates,Original*%
%TF.FileFunction,Soldermask,Bot*%
%TF.FilePolarity,Negative*%
%FSLAX46Y46*%
G04 Gerber Fmt 4.6, Leading zero omitted, Abs format (unit mm)*
G04 Created by KiCad (PCBNEW 8.0.6) date 2024-12-08 15:52:06*
%MOMM*%
%LPD*%
G01*
G04 APERTURE LIST*
G04 Aperture macros list*
%AMRoundRect*
0 Rectangle with rounded corners*
0 $1 Rounding radius*
0 $2 $3 $4 $5 $6 $7 $8 $9 X,Y pos of 4 corners*
0 Add a 4 corners polygon primitive as box body*
4,1,4,$2,$3,$4,$5,$6,$7,$8,$9,$2,$3,0*
0 Add four circle primitives for the rounded corners*
1,1,$1+$1,$2,$3*
1,1,$1+$1,$4,$5*
1,1,$1+$1,$6,$7*
1,1,$1+$1,$8,$9*
0 Add four rect primitives between the rounded corners*
20,1,$1+$1,$2,$3,$4,$5,0*
20,1,$1+$1,$4,$5,$6,$7,0*
20,1,$1+$1,$6,$7,$8,$9,0*
20,1,$1+$1,$8,$9,$2,$3,0*%
G04 Aperture macros list end*
%ADD10RoundRect,0.250000X-1.025000X-1.000000X1.025000X-1.000000X1.025000X1.000000X-1.025000X1.000000X0*%
%ADD11C,1.750000*%
%ADD12C,4.000000*%
%ADD13C,3.600000*%
%ADD14RoundRect,0.250000X-1.000000X1.025000X-1.000000X-1.025000X1.000000X-1.025000X1.000000X1.025000X0*%
%ADD15RoundRect,0.250000X1.000000X-1.025000X1.000000X1.025000X-1.000000X1.025000X-1.000000X-1.025000X0*%
%ADD16C,3.048000*%
%ADD17C,3.987800*%
%ADD18RoundRect,0.250000X1.025000X1.000000X-1.025000X1.000000X-1.025000X-1.000000X1.025000X-1.000000X0*%
%ADD19O,5.000000X2.500000*%
%ADD20O,7.000000X2.500000*%
%ADD21C,2.500000*%
%ADD22C,3.050000*%
%ADD23RoundRect,0.225000X-0.375000X0.225000X-0.375000X-0.225000X0.375000X-0.225000X0.375000X0.225000X0*%
%ADD24RoundRect,0.225000X0.375000X-0.225000X0.375000X0.225000X-0.375000X0.225000X-0.375000X-0.225000X0*%
%ADD25RoundRect,0.135000X-0.185000X0.135000X-0.185000X-0.135000X0.185000X-0.135000X0.185000X0.135000X0*%
%ADD26RoundRect,0.140000X0.140000X0.170000X-0.140000X0.170000X-0.140000X-0.170000X0.140000X-0.170000X0*%
%ADD27RoundRect,0.135000X-0.135000X-0.185000X0.135000X-0.185000X0.135000X0.185000X-0.135000X0.185000X0*%
%ADD28RoundRect,0.135000X0.135000X0.185000X-0.135000X0.185000X-0.135000X-0.185000X0.135000X-0.185000X0*%
%ADD29RoundRect,0.140000X-0.170000X0.140000X-0.170000X-0.140000X0.170000X-0.140000X0.170000X0.140000X0*%
%ADD30RoundRect,0.140000X0.170000X-0.140000X0.170000X0.140000X-0.170000X0.140000X-0.170000X-0.140000X0*%
%ADD31R,1.400000X1.200000*%
%ADD32RoundRect,0.062500X0.387500X0.062500X-0.387500X0.062500X-0.387500X-0.062500X0.387500X-0.062500X0*%
%ADD33R,0.200000X1.600000*%
%ADD34RoundRect,0.140000X-0.140000X-0.170000X0.140000X-0.170000X0.140000X0.170000X-0.140000X0.170000X0*%
%ADD35RoundRect,0.225000X-0.225000X-0.375000X0.225000X-0.375000X0.225000X0.375000X-0.225000X0.375000X0*%
%ADD36RoundRect,0.050000X-0.050000X0.387500X-0.050000X-0.387500X0.050000X-0.387500X0.050000X0.387500X0*%
%ADD37RoundRect,0.050000X-0.387500X0.050000X-0.387500X-0.050000X0.387500X-0.050000X0.387500X0.050000X0*%
%ADD38R,3.200000X3.200000*%
%ADD39R,1.000000X1.000000*%
%ADD40O,1.000000X1.000000*%
%ADD41RoundRect,0.150000X0.512500X0.150000X-0.512500X0.150000X-0.512500X-0.150000X0.512500X-0.150000X0*%
%ADD42C,0.650000*%
%ADD43RoundRect,0.150000X-0.150000X-0.425000X0.150000X-0.425000X0.150000X0.425000X-0.150000X0.425000X0*%
%ADD44RoundRect,0.075000X-0.075000X-0.500000X0.075000X-0.500000X0.075000X0.500000X-0.075000X0.500000X0*%
%ADD45O,1.000000X1.800000*%
%ADD46O,1.000000X2.100000*%
G04 APERTURE END LIST*
D10*
%TO.C,S20*%
X135790000Y-54610000D03*
D11*
X137795000Y-57150000D03*
D12*
X142875000Y-57150000D03*
D11*
X147955000Y-57150000D03*
D10*
X148717000Y-52070000D03*
D13*
X139065000Y-54610000D03*
X145415000Y-52070000D03*
%TD*%
D10*
%TO.C,S19*%
X116740000Y-54610000D03*
D11*
X118745000Y-57150000D03*
D12*
X123825000Y-57150000D03*
D11*
X128905000Y-57150000D03*
D10*
X129667000Y-52070000D03*
D13*
X120015000Y-54610000D03*
X126365000Y-52070000D03*
%TD*%
D10*
%TO.C,S47*%
X111977500Y-92710000D03*
D11*
X113982500Y-95250000D03*
D12*
X119062500Y-95250000D03*
D11*
X124142500Y-95250000D03*
D10*
X124904500Y-90170000D03*
D13*
X115252500Y-92710000D03*
X121602500Y-90170000D03*
%TD*%
D10*
%TO.C,S4*%
X88165000Y-35560000D03*
D11*
X90170000Y-38100000D03*
D12*
X95250000Y-38100000D03*
D11*
X100330000Y-38100000D03*
D10*
X101092000Y-33020000D03*
D13*
X91440000Y-35560000D03*
X97790000Y-33020000D03*
%TD*%
D10*
%TO.C,S7*%
X145315000Y-35560000D03*
D11*
X147320000Y-38100000D03*
D12*
X152400000Y-38100000D03*
D11*
X157480000Y-38100000D03*
D10*
X158242000Y-33020000D03*
D13*
X148590000Y-35560000D03*
X154940000Y-33020000D03*
%TD*%
D14*
%TO.C,S57-2*%
X45402500Y-107215000D03*
D11*
X42862500Y-109220000D03*
D12*
X42862500Y-114300000D03*
D11*
X42862500Y-119380000D03*
D14*
X47942500Y-120142000D03*
D13*
X45402500Y-110490000D03*
X47942500Y-116840000D03*
%TD*%
D10*
%TO.C,S12*%
X240565000Y-35560000D03*
D11*
X242570000Y-38100000D03*
D12*
X247650000Y-38100000D03*
D11*
X252730000Y-38100000D03*
D10*
X253492000Y-33020000D03*
D13*
X243840000Y-35560000D03*
X250190000Y-33020000D03*
%TD*%
D14*
%TO.C,S62*%
X257333750Y-107215000D03*
D11*
X254793750Y-109220000D03*
D12*
X254793750Y-114300000D03*
D11*
X254793750Y-119380000D03*
D14*
X259873750Y-120142000D03*
D13*
X257333750Y-110490000D03*
X259873750Y-116840000D03*
%TD*%
D10*
%TO.C,S3*%
X69115000Y-35560000D03*
D11*
X71120000Y-38100000D03*
D12*
X76200000Y-38100000D03*
D11*
X81280000Y-38100000D03*
D10*
X82042000Y-33020000D03*
D13*
X72390000Y-35560000D03*
X78740000Y-33020000D03*
%TD*%
D10*
%TO.C,S15*%
X35777500Y-54610000D03*
D11*
X37782500Y-57150000D03*
D12*
X42862500Y-57150000D03*
D11*
X47942500Y-57150000D03*
D10*
X48704500Y-52070000D03*
D13*
X39052500Y-54610000D03*
X45402500Y-52070000D03*
%TD*%
D15*
%TO.C,S62-2*%
X249872500Y-121385000D03*
D11*
X252412500Y-119380000D03*
D12*
X252412500Y-114300000D03*
D11*
X252412500Y-109220000D03*
D15*
X247332500Y-108458000D03*
D13*
X249872500Y-118110000D03*
X247332500Y-111760000D03*
%TD*%
D16*
%TO.C,REF\u002A\u002A*%
X280955750Y-69215000D03*
D17*
X280955750Y-84425000D03*
D16*
X304831750Y-69215000D03*
D17*
X304831750Y-84425000D03*
%TD*%
D10*
%TO.C,S25*%
X231040000Y-54610000D03*
D11*
X233045000Y-57150000D03*
D12*
X238125000Y-57150000D03*
D11*
X243205000Y-57150000D03*
D10*
X243967000Y-52070000D03*
D13*
X234315000Y-54610000D03*
X240665000Y-52070000D03*
%TD*%
D18*
%TO.C,S1*%
X45185000Y-40640000D03*
D11*
X43180000Y-38100000D03*
D12*
X38100000Y-38100000D03*
D11*
X33020000Y-38100000D03*
D18*
X32258000Y-43180000D03*
D13*
X41910000Y-40640000D03*
X35560000Y-43180000D03*
%TD*%
D10*
%TO.C,S9*%
X183415000Y-35560000D03*
D11*
X185420000Y-38100000D03*
D12*
X190500000Y-38100000D03*
D11*
X195580000Y-38100000D03*
D10*
X196342000Y-33020000D03*
D13*
X186690000Y-35560000D03*
X193040000Y-33020000D03*
%TD*%
D10*
%TO.C,S44*%
X54827500Y-92710000D03*
D11*
X56832500Y-95250000D03*
D12*
X61912500Y-95250000D03*
D11*
X66992500Y-95250000D03*
D10*
X67754500Y-90170000D03*
D13*
X58102500Y-92710000D03*
X64452500Y-90170000D03*
%TD*%
D10*
%TO.C,S23*%
X192940000Y-54610000D03*
D11*
X194945000Y-57150000D03*
D12*
X200025000Y-57150000D03*
D11*
X205105000Y-57150000D03*
D10*
X205867000Y-52070000D03*
D13*
X196215000Y-54610000D03*
X202565000Y-52070000D03*
%TD*%
D15*
%TO.C,S64-2*%
X297497500Y-121385000D03*
D11*
X300037500Y-119380000D03*
D12*
X300037500Y-114300000D03*
D11*
X300037500Y-109220000D03*
D15*
X294957500Y-108458000D03*
D13*
X297497500Y-118110000D03*
X294957500Y-111760000D03*
%TD*%
D15*
%TO.C,S57*%
X37941250Y-121385000D03*
D11*
X40481250Y-119380000D03*
D12*
X40481250Y-114300000D03*
D11*
X40481250Y-109220000D03*
D15*
X35401250Y-108458000D03*
D13*
X37941250Y-118110000D03*
X35401250Y-111760000D03*
%TD*%
D10*
%TO.C,S14*%
X288190000Y-35560000D03*
D11*
X290195000Y-38100000D03*
D12*
X295275000Y-38100000D03*
D11*
X300355000Y-38100000D03*
D10*
X301117000Y-33020000D03*
D13*
X291465000Y-35560000D03*
X297815000Y-33020000D03*
%TD*%
D10*
%TO.C,S61*%
X223896250Y-111760000D03*
D11*
X225901250Y-114300000D03*
D12*
X230981250Y-114300000D03*
D11*
X236061250Y-114300000D03*
D10*
X236823250Y-109220000D03*
D13*
X227171250Y-111760000D03*
X233521250Y-109220000D03*
%TD*%
D10*
%TO.C,S16*%
X59590000Y-54610000D03*
D11*
X61595000Y-57150000D03*
D12*
X66675000Y-57150000D03*
D11*
X71755000Y-57150000D03*
D10*
X72517000Y-52070000D03*
D13*
X62865000Y-54610000D03*
X69215000Y-52070000D03*
%TD*%
D10*
%TO.C,S24*%
X211990000Y-54610000D03*
D11*
X213995000Y-57150000D03*
D12*
X219075000Y-57150000D03*
D11*
X224155000Y-57150000D03*
D10*
X224917000Y-52070000D03*
D13*
X215265000Y-54610000D03*
X221615000Y-52070000D03*
%TD*%
D10*
%TO.C,S31*%
X83402500Y-73660000D03*
D11*
X85407500Y-76200000D03*
D12*
X90487500Y-76200000D03*
D11*
X95567500Y-76200000D03*
D10*
X96329500Y-71120000D03*
D13*
X86677500Y-73660000D03*
X93027500Y-71120000D03*
%TD*%
D10*
%TO.C,S33*%
X121502500Y-73660000D03*
D11*
X123507500Y-76200000D03*
D12*
X128587500Y-76200000D03*
D11*
X133667500Y-76200000D03*
D10*
X134429500Y-71120000D03*
D13*
X124777500Y-73660000D03*
X131127500Y-71120000D03*
%TD*%
D10*
%TO.C,S34*%
X140552500Y-73660000D03*
D11*
X142557500Y-76200000D03*
D12*
X147637500Y-76200000D03*
D11*
X152717500Y-76200000D03*
D10*
X153479500Y-71120000D03*
D13*
X143827500Y-73660000D03*
X150177500Y-71120000D03*
%TD*%
D10*
%TO.C,S46*%
X92927500Y-92710000D03*
D11*
X94932500Y-95250000D03*
D12*
X100012500Y-95250000D03*
D11*
X105092500Y-95250000D03*
D10*
X105854500Y-90170000D03*
D13*
X96202500Y-92710000D03*
X102552500Y-90170000D03*
%TD*%
D10*
%TO.C,S50*%
X169127500Y-92710000D03*
D11*
X171132500Y-95250000D03*
D12*
X176212500Y-95250000D03*
D11*
X181292500Y-95250000D03*
D10*
X182054500Y-90170000D03*
D13*
X172402500Y-92710000D03*
X178752500Y-90170000D03*
%TD*%
D19*
%TO.C,HOLE*%
X289000000Y-56800000D03*
%TD*%
D10*
%TO.C,S22*%
X173890000Y-54610000D03*
D11*
X175895000Y-57150000D03*
D12*
X180975000Y-57150000D03*
D11*
X186055000Y-57150000D03*
D10*
X186817000Y-52070000D03*
D13*
X177165000Y-54610000D03*
X183515000Y-52070000D03*
%TD*%
D15*
%TO.C,S41*%
X278447500Y-83285000D03*
D11*
X280987500Y-81280000D03*
D12*
X280987500Y-76200000D03*
D11*
X280987500Y-71120000D03*
D15*
X275907500Y-70358000D03*
D13*
X278447500Y-80010000D03*
X275907500Y-73660000D03*
%TD*%
D15*
%TO.C,S63-2*%
X273685000Y-121385000D03*
D11*
X276225000Y-119380000D03*
D12*
X276225000Y-114300000D03*
D11*
X276225000Y-109220000D03*
D15*
X271145000Y-108458000D03*
D13*
X273685000Y-118110000D03*
X271145000Y-111760000D03*
%TD*%
D10*
%TO.C,S27*%
X269140000Y-54610000D03*
D11*
X271145000Y-57150000D03*
D12*
X276225000Y-57150000D03*
D11*
X281305000Y-57150000D03*
D10*
X282067000Y-52070000D03*
D13*
X272415000Y-54610000D03*
X278765000Y-52070000D03*
%TD*%
D15*
%TO.C,S58*%
X61753750Y-121385000D03*
D11*
X64293750Y-119380000D03*
D12*
X64293750Y-114300000D03*
D11*
X64293750Y-109220000D03*
D15*
X59213750Y-108458000D03*
D13*
X61753750Y-118110000D03*
X59213750Y-111760000D03*
%TD*%
D18*
%TO.C,S60-2*%
X178535000Y-116840000D03*
D11*
X176530000Y-114300000D03*
D12*
X171450000Y-114300000D03*
D11*
X166370000Y-114300000D03*
D18*
X165608000Y-119380000D03*
D13*
X175260000Y-116840000D03*
X168910000Y-119380000D03*
%TD*%
D10*
%TO.C,S8*%
X164365000Y-35560000D03*
D11*
X166370000Y-38100000D03*
D12*
X171450000Y-38100000D03*
D11*
X176530000Y-38100000D03*
D10*
X177292000Y-33020000D03*
D13*
X167640000Y-35560000D03*
X173990000Y-33020000D03*
%TD*%
D14*
%TO.C,S63*%
X281146250Y-107215000D03*
D11*
X278606250Y-109220000D03*
D12*
X278606250Y-114300000D03*
D11*
X278606250Y-119380000D03*
D14*
X283686250Y-120142000D03*
D13*
X281146250Y-110490000D03*
X283686250Y-116840000D03*
%TD*%
D10*
%TO.C,S37*%
X197702500Y-73660000D03*
D11*
X199707500Y-76200000D03*
D12*
X204787500Y-76200000D03*
D11*
X209867500Y-76200000D03*
D10*
X210629500Y-71120000D03*
D13*
X200977500Y-73660000D03*
X207327500Y-71120000D03*
%TD*%
D14*
%TO.C,S55*%
X281146250Y-88165000D03*
D11*
X278606250Y-90170000D03*
D12*
X278606250Y-95250000D03*
D11*
X278606250Y-100330000D03*
D14*
X283686250Y-101092000D03*
D13*
X281146250Y-91440000D03*
X283686250Y-97790000D03*
%TD*%
D19*
%TO.C,HOLE*%
X157150000Y-75900000D03*
%TD*%
D16*
%TO.C,REF\u002A\u002A*%
X295433750Y-78613000D03*
D17*
X310643750Y-78613000D03*
D16*
X295433750Y-54737000D03*
D17*
X310643750Y-54737000D03*
%TD*%
D10*
%TO.C,S21*%
X154840000Y-54610000D03*
D11*
X156845000Y-57150000D03*
D12*
X161925000Y-57150000D03*
D11*
X167005000Y-57150000D03*
D10*
X167767000Y-52070000D03*
D13*
X158115000Y-54610000D03*
X164465000Y-52070000D03*
%TD*%
D10*
%TO.C,S11*%
X221515000Y-35560000D03*
D11*
X223520000Y-38100000D03*
D12*
X228600000Y-38100000D03*
D11*
X233680000Y-38100000D03*
D10*
X234442000Y-33020000D03*
D13*
X224790000Y-35560000D03*
X231140000Y-33020000D03*
%TD*%
D10*
%TO.C,S52*%
X207227500Y-92710000D03*
D11*
X209232500Y-95250000D03*
D12*
X214312500Y-95250000D03*
D11*
X219392500Y-95250000D03*
D10*
X220154500Y-90170000D03*
D13*
X210502500Y-92710000D03*
X216852500Y-90170000D03*
%TD*%
D10*
%TO.C,S30*%
X64352500Y-73660000D03*
D11*
X66357500Y-76200000D03*
D12*
X71437500Y-76200000D03*
D11*
X76517500Y-76200000D03*
D10*
X77279500Y-71120000D03*
D13*
X67627500Y-73660000D03*
X73977500Y-71120000D03*
%TD*%
D10*
%TO.C,S38*%
X216752500Y-73660000D03*
D11*
X218757500Y-76200000D03*
D12*
X223837500Y-76200000D03*
D11*
X228917500Y-76200000D03*
D10*
X229679500Y-71120000D03*
D13*
X220027500Y-73660000D03*
X226377500Y-71120000D03*
%TD*%
D10*
%TO.C,S35*%
X159602500Y-73660000D03*
D11*
X161607500Y-76200000D03*
D12*
X166687500Y-76200000D03*
D11*
X171767500Y-76200000D03*
D10*
X172529500Y-71120000D03*
D13*
X162877500Y-73660000D03*
X169227500Y-71120000D03*
%TD*%
D10*
%TO.C,S39*%
X235802500Y-73660000D03*
D11*
X237807500Y-76200000D03*
D12*
X242887500Y-76200000D03*
D11*
X247967500Y-76200000D03*
D10*
X248729500Y-71120000D03*
D13*
X239077500Y-73660000D03*
X245427500Y-71120000D03*
%TD*%
D10*
%TO.C,S48*%
X131027500Y-92710000D03*
D11*
X133032500Y-95250000D03*
D12*
X138112500Y-95250000D03*
D11*
X143192500Y-95250000D03*
D10*
X143954500Y-90170000D03*
D13*
X134302500Y-92710000D03*
X140652500Y-90170000D03*
%TD*%
D10*
%TO.C,S18*%
X97690000Y-54610000D03*
D11*
X99695000Y-57150000D03*
D12*
X104775000Y-57150000D03*
D11*
X109855000Y-57150000D03*
D10*
X110617000Y-52070000D03*
D13*
X100965000Y-54610000D03*
X107315000Y-52070000D03*
%TD*%
D15*
%TO.C,S28-2*%
X290353750Y-83285000D03*
D11*
X292893750Y-81280000D03*
D12*
X292893750Y-76200000D03*
D11*
X292893750Y-71120000D03*
D15*
X287813750Y-70358000D03*
D13*
X290353750Y-80010000D03*
X287813750Y-73660000D03*
%TD*%
D16*
%TO.C,REF\u002A\u002A*%
X228600000Y-121285000D03*
D17*
X228600000Y-106075000D03*
D16*
X114300000Y-121285000D03*
D17*
X114300000Y-106075000D03*
%TD*%
D10*
%TO.C,S45*%
X73877500Y-92710000D03*
D11*
X75882500Y-95250000D03*
D12*
X80962500Y-95250000D03*
D11*
X86042500Y-95250000D03*
D10*
X86804500Y-90170000D03*
D13*
X77152500Y-92710000D03*
X83502500Y-90170000D03*
%TD*%
D10*
%TO.C,S13*%
X259615000Y-35560000D03*
D11*
X261620000Y-38100000D03*
D12*
X266700000Y-38100000D03*
D11*
X271780000Y-38100000D03*
D10*
X272542000Y-33020000D03*
D13*
X262890000Y-35560000D03*
X269240000Y-33020000D03*
%TD*%
D20*
%TO.C,HOLE*%
X312490000Y-85400000D03*
%TD*%
D10*
%TO.C,S26*%
X250090000Y-54610000D03*
D11*
X252095000Y-57150000D03*
D12*
X257175000Y-57150000D03*
D11*
X262255000Y-57150000D03*
D10*
X263017000Y-52070000D03*
D13*
X253365000Y-54610000D03*
X259715000Y-52070000D03*
%TD*%
D10*
%TO.C,S5*%
X107215000Y-35560000D03*
D11*
X109220000Y-38100000D03*
D12*
X114300000Y-38100000D03*
D11*
X119380000Y-38100000D03*
D10*
X120142000Y-33020000D03*
D13*
X110490000Y-35560000D03*
X116840000Y-33020000D03*
%TD*%
D10*
%TO.C,S17*%
X78640000Y-54610000D03*
D11*
X80645000Y-57150000D03*
D12*
X85725000Y-57150000D03*
D11*
X90805000Y-57150000D03*
D10*
X91567000Y-52070000D03*
D13*
X81915000Y-54610000D03*
X88265000Y-52070000D03*
%TD*%
D10*
%TO.C,S32*%
X102452500Y-73660000D03*
D11*
X104457500Y-76200000D03*
D12*
X109537500Y-76200000D03*
D11*
X114617500Y-76200000D03*
D10*
X115379500Y-71120000D03*
D13*
X105727500Y-73660000D03*
X112077500Y-71120000D03*
%TD*%
D14*
%TO.C,S55-2*%
X290671250Y-88165000D03*
D11*
X288131250Y-90170000D03*
D12*
X288131250Y-95250000D03*
D11*
X288131250Y-100330000D03*
D14*
X293211250Y-101092000D03*
D13*
X290671250Y-91440000D03*
X293211250Y-97790000D03*
%TD*%
D10*
%TO.C,S36*%
X178652500Y-73660000D03*
D11*
X180657500Y-76200000D03*
D12*
X185737500Y-76200000D03*
D11*
X190817500Y-76200000D03*
D10*
X191579500Y-71120000D03*
D13*
X181927500Y-73660000D03*
X188277500Y-71120000D03*
%TD*%
D10*
%TO.C,S49*%
X150077500Y-92710000D03*
D11*
X152082500Y-95250000D03*
D12*
X157162500Y-95250000D03*
D11*
X162242500Y-95250000D03*
D10*
X163004500Y-90170000D03*
D13*
X153352500Y-92710000D03*
X159702500Y-90170000D03*
%TD*%
D10*
%TO.C,S60*%
X152458750Y-111760000D03*
D11*
X154463750Y-114300000D03*
D12*
X159543750Y-114300000D03*
D11*
X164623750Y-114300000D03*
D10*
X165385750Y-109220000D03*
D13*
X155733750Y-111760000D03*
X162083750Y-109220000D03*
%TD*%
D10*
%TO.C,S53*%
X226277500Y-92710000D03*
D11*
X228282500Y-95250000D03*
D12*
X233362500Y-95250000D03*
D11*
X238442500Y-95250000D03*
D10*
X239204500Y-90170000D03*
D13*
X229552500Y-92710000D03*
X235902500Y-90170000D03*
%TD*%
D21*
%TO.C,HOLE*%
X54150000Y-56800000D03*
%TD*%
D10*
%TO.C,S10*%
X202465000Y-35560000D03*
D11*
X204470000Y-38100000D03*
D12*
X209550000Y-38100000D03*
D11*
X214630000Y-38100000D03*
D10*
X215392000Y-33020000D03*
D13*
X205740000Y-35560000D03*
X212090000Y-33020000D03*
%TD*%
D14*
%TO.C,S56*%
X307340000Y-88165000D03*
D11*
X304800000Y-90170000D03*
D12*
X304800000Y-95250000D03*
D11*
X304800000Y-100330000D03*
D14*
X309880000Y-101092000D03*
D13*
X307340000Y-91440000D03*
X309880000Y-97790000D03*
%TD*%
D15*
%TO.C,S59*%
X85566250Y-121385000D03*
D11*
X88106250Y-119380000D03*
D12*
X88106250Y-114300000D03*
D11*
X88106250Y-109220000D03*
D15*
X83026250Y-108458000D03*
D13*
X85566250Y-118110000D03*
X83026250Y-111760000D03*
%TD*%
D16*
%TO.C,REF\u002A\u002A*%
X61944250Y-102235000D03*
D17*
X61944250Y-87025000D03*
D16*
X38068250Y-102235000D03*
D17*
X38068250Y-87025000D03*
%TD*%
D16*
%TO.C,REF\u002A\u002A*%
X209543750Y-121285000D03*
D17*
X209543750Y-106075000D03*
D16*
X109543750Y-121285000D03*
D17*
X109543750Y-106075000D03*
%TD*%
D18*
%TO.C,S42*%
X311885000Y-40640000D03*
D11*
X309880000Y-38100000D03*
D12*
X304800000Y-38100000D03*
D11*
X299720000Y-38100000D03*
D18*
X298958000Y-43180000D03*
D13*
X308610000Y-40640000D03*
X302260000Y-43180000D03*
%TD*%
D18*
%TO.C,S14-2*%
X292835000Y-40640000D03*
D11*
X290830000Y-38100000D03*
D12*
X285750000Y-38100000D03*
D22*
X283210000Y-43180000D03*
D11*
X280670000Y-38100000D03*
D18*
X279908000Y-43180000D03*
D13*
X289560000Y-40640000D03*
%TD*%
D16*
%TO.C,REF\u002A\u002A*%
X283337000Y-31115000D03*
D17*
X283337000Y-46325000D03*
D16*
X307213000Y-31115000D03*
D17*
X307213000Y-46325000D03*
%TD*%
D10*
%TO.C,S54*%
X245327500Y-92710000D03*
D11*
X247332500Y-95250000D03*
D12*
X252412500Y-95250000D03*
D11*
X257492500Y-95250000D03*
D10*
X258254500Y-90170000D03*
D13*
X248602500Y-92710000D03*
X254952500Y-90170000D03*
%TD*%
D10*
%TO.C,S43*%
X33396250Y-92710000D03*
D11*
X35401250Y-95250000D03*
D12*
X40481250Y-95250000D03*
D11*
X45561250Y-95250000D03*
D10*
X46323250Y-90170000D03*
D13*
X36671250Y-92710000D03*
X43021250Y-90170000D03*
%TD*%
D10*
%TO.C,S51*%
X188177500Y-92710000D03*
D11*
X190182500Y-95250000D03*
D12*
X195262500Y-95250000D03*
D11*
X200342500Y-95250000D03*
D10*
X201104500Y-90170000D03*
D13*
X191452500Y-92710000D03*
X197802500Y-90170000D03*
%TD*%
D14*
%TO.C,S58-2*%
X69215000Y-107215000D03*
D11*
X66675000Y-109220000D03*
D12*
X66675000Y-114300000D03*
D11*
X66675000Y-119380000D03*
D14*
X71755000Y-120142000D03*
D13*
X69215000Y-110490000D03*
X71755000Y-116840000D03*
%TD*%
D14*
%TO.C,S41-2*%
X302577500Y-50065000D03*
D11*
X300037500Y-52070000D03*
D12*
X300037500Y-57150000D03*
D11*
X300037500Y-62230000D03*
D14*
X305117500Y-62992000D03*
D13*
X302577500Y-53340000D03*
X305117500Y-59690000D03*
%TD*%
D15*
%TO.C,S28*%
X299878750Y-73760000D03*
D11*
X302418750Y-71755000D03*
D12*
X302418750Y-66675000D03*
D11*
X302418750Y-61595000D03*
D15*
X297338750Y-60833000D03*
D13*
X299878750Y-70485000D03*
X297338750Y-64135000D03*
%TD*%
D16*
%TO.C,REF\u002A\u002A*%
X276193250Y-88265000D03*
D17*
X276193250Y-103475000D03*
D16*
X300069250Y-88265000D03*
D17*
X300069250Y-103475000D03*
%TD*%
D15*
%TO.C,S29-2*%
X37941250Y-83285000D03*
D11*
X40481250Y-81280000D03*
D12*
X40481250Y-76200000D03*
D11*
X40481250Y-71120000D03*
D15*
X35401250Y-70358000D03*
D13*
X37941250Y-80010000D03*
X35401250Y-73660000D03*
%TD*%
D14*
%TO.C,S29*%
X47783750Y-69115000D03*
D11*
X45243750Y-71120000D03*
D12*
X45243750Y-76200000D03*
D11*
X45243750Y-81280000D03*
D14*
X50323750Y-82042000D03*
D13*
X47783750Y-72390000D03*
X50323750Y-78740000D03*
%TD*%
D10*
%TO.C,S6*%
X126265000Y-35560000D03*
D11*
X128270000Y-38100000D03*
D12*
X133350000Y-38100000D03*
D11*
X138430000Y-38100000D03*
D10*
X139192000Y-33020000D03*
D13*
X129540000Y-35560000D03*
X135890000Y-33020000D03*
%TD*%
D20*
%TO.C,HOLE*%
X30410000Y-85400000D03*
%TD*%
D14*
%TO.C,S59-2*%
X93027500Y-107215000D03*
D11*
X90487500Y-109220000D03*
D12*
X90487500Y-114300000D03*
D11*
X90487500Y-119380000D03*
D14*
X95567500Y-120142000D03*
D13*
X93027500Y-110490000D03*
X95567500Y-116840000D03*
%TD*%
D18*
%TO.C,S43-2*%
X57091250Y-97790000D03*
D11*
X55086250Y-95250000D03*
D12*
X50006250Y-95250000D03*
D11*
X44926250Y-95250000D03*
D18*
X44164250Y-100330000D03*
D13*
X53816250Y-97790000D03*
X47466250Y-100330000D03*
%TD*%
D18*
%TO.C,S2*%
X64235000Y-40640000D03*
D11*
X62230000Y-38100000D03*
D12*
X57150000Y-38100000D03*
D11*
X52070000Y-38100000D03*
D18*
X51308000Y-43180000D03*
D13*
X60960000Y-40640000D03*
X54610000Y-43180000D03*
%TD*%
D19*
%TO.C,HOLE*%
X219450000Y-114100000D03*
%TD*%
D14*
%TO.C,S64*%
X304958750Y-107215000D03*
D11*
X302418750Y-109220000D03*
D12*
X302418750Y-114300000D03*
D11*
X302418750Y-119380000D03*
D14*
X307498750Y-120142000D03*
D13*
X304958750Y-110490000D03*
X307498750Y-116840000D03*
%TD*%
D10*
%TO.C,S40*%
X254852500Y-73660000D03*
D11*
X256857500Y-76200000D03*
D12*
X261937500Y-76200000D03*
D11*
X267017500Y-76200000D03*
D10*
X267779500Y-71120000D03*
D13*
X258127500Y-73660000D03*
X264477500Y-71120000D03*
%TD*%
D23*
%TO.C,D1*%
X33020000Y-33220000D03*
X33020000Y-36520000D03*
%TD*%
D24*
%TO.C,D46*%
X94932500Y-100130000D03*
X94932500Y-96830000D03*
%TD*%
%TO.C,D32*%
X104457500Y-81080000D03*
X104457500Y-77780000D03*
%TD*%
%TO.C,D34*%
X142557500Y-81080000D03*
X142557500Y-77780000D03*
%TD*%
D23*
%TO.C,D41*%
X270987500Y-81080000D03*
X270987500Y-84380000D03*
%TD*%
D24*
%TO.C,D56*%
X299720000Y-96900000D03*
X299720000Y-93600000D03*
%TD*%
%TO.C,D50*%
X171132500Y-100130000D03*
X171132500Y-96830000D03*
%TD*%
%TO.C,D51*%
X190182500Y-100130000D03*
X190182500Y-96830000D03*
%TD*%
%TO.C,D5*%
X109220000Y-42980000D03*
X109220000Y-39680000D03*
%TD*%
D25*
%TO.C,R1*%
X129900000Y-109510000D03*
X129900000Y-110530000D03*
%TD*%
D24*
%TO.C,D38*%
X218757500Y-81080000D03*
X218757500Y-77780000D03*
%TD*%
%TO.C,D52*%
X209232500Y-100130000D03*
X209232500Y-96830000D03*
%TD*%
%TO.C,D60*%
X154463750Y-119180000D03*
X154463750Y-115880000D03*
%TD*%
%TO.C,D48*%
X133032500Y-100130000D03*
X133032500Y-96830000D03*
%TD*%
%TO.C,D20*%
X137795000Y-62030000D03*
X137795000Y-58730000D03*
%TD*%
D26*
%TO.C,C8*%
X130130000Y-118550000D03*
X129170000Y-118550000D03*
%TD*%
D27*
%TO.C,R4*%
X129140000Y-117550000D03*
X130160000Y-117550000D03*
%TD*%
D24*
%TO.C,D42*%
X284037500Y-58800000D03*
X284037500Y-55500000D03*
%TD*%
%TO.C,D55*%
X266575000Y-100130000D03*
X266575000Y-96830000D03*
%TD*%
%TO.C,D49*%
X152082500Y-100130000D03*
X152082500Y-96830000D03*
%TD*%
D23*
%TO.C,D64*%
X290037500Y-105640000D03*
X290037500Y-108940000D03*
%TD*%
D24*
%TO.C,D27*%
X271145000Y-62030000D03*
X271145000Y-58730000D03*
%TD*%
D26*
%TO.C,C10*%
X130130000Y-119550000D03*
X129170000Y-119550000D03*
%TD*%
D24*
%TO.C,D3*%
X71120000Y-42980000D03*
X71120000Y-39680000D03*
%TD*%
D28*
%TO.C,R6*%
X45900000Y-38250000D03*
X44880000Y-38250000D03*
%TD*%
D24*
%TO.C,D4*%
X90170000Y-42980000D03*
X90170000Y-39680000D03*
%TD*%
%TO.C,D33*%
X123507500Y-81080000D03*
X123507500Y-77780000D03*
%TD*%
D29*
%TO.C,C9*%
X131130000Y-119550000D03*
X131130000Y-120510000D03*
%TD*%
D30*
%TO.C,C7*%
X126125000Y-114045758D03*
X126125000Y-113085758D03*
%TD*%
D24*
%TO.C,D17*%
X80645000Y-62030000D03*
X80645000Y-58730000D03*
%TD*%
D31*
%TO.C,Y1*%
X146200000Y-116000000D03*
X144000000Y-116000000D03*
X144000000Y-114300000D03*
X146200000Y-114300000D03*
%TD*%
D32*
%TO.C,U2*%
X130750000Y-112225000D03*
X130750000Y-112725000D03*
X130750000Y-113225000D03*
X130750000Y-113725000D03*
X127900000Y-113725000D03*
X127900000Y-113225000D03*
X127900000Y-112725000D03*
X127900000Y-112225000D03*
D33*
X129325000Y-112975000D03*
%TD*%
D34*
%TO.C,C2*%
X144620000Y-112900000D03*
X145580000Y-112900000D03*
%TD*%
D35*
%TO.C,D28*%
X282387500Y-62030000D03*
X285687500Y-62030000D03*
%TD*%
D23*
%TO.C,D63*%
X266225000Y-105640000D03*
X266225000Y-108940000D03*
%TD*%
D24*
%TO.C,D31*%
X85407500Y-81080000D03*
X85407500Y-77780000D03*
%TD*%
D36*
%TO.C,U3*%
X133300000Y-112112500D03*
X133700000Y-112112500D03*
X134100000Y-112112500D03*
X134500000Y-112112500D03*
X134900000Y-112112500D03*
X135300000Y-112112500D03*
X135700000Y-112112500D03*
X136100000Y-112112500D03*
X136500000Y-112112500D03*
X136900000Y-112112500D03*
X137300000Y-112112500D03*
X137700000Y-112112500D03*
X138100000Y-112112500D03*
X138500000Y-112112500D03*
D37*
X139337500Y-112950000D03*
X139337500Y-113350000D03*
X139337500Y-113750000D03*
X139337500Y-114150000D03*
X139337500Y-114550000D03*
X139337500Y-114950000D03*
X139337500Y-115350000D03*
X139337500Y-115750000D03*
X139337500Y-116150000D03*
X139337500Y-116550000D03*
X139337500Y-116950000D03*
X139337500Y-117350000D03*
X139337500Y-117750000D03*
X139337500Y-118150000D03*
D36*
X138500000Y-118987500D03*
X138100000Y-118987500D03*
X137700000Y-118987500D03*
X137300000Y-118987500D03*
X136900000Y-118987500D03*
X136500000Y-118987500D03*
X136100000Y-118987500D03*
X135700000Y-118987500D03*
X135300000Y-118987500D03*
X134900000Y-118987500D03*
X134500000Y-118987500D03*
X134100000Y-118987500D03*
X133700000Y-118987500D03*
X133300000Y-118987500D03*
D37*
X132462500Y-118150000D03*
X132462500Y-117750000D03*
X132462500Y-117350000D03*
X132462500Y-116950000D03*
X132462500Y-116550000D03*
X132462500Y-116150000D03*
X132462500Y-115750000D03*
X132462500Y-115350000D03*
X132462500Y-114950000D03*
X132462500Y-114550000D03*
X132462500Y-114150000D03*
X132462500Y-113750000D03*
X132462500Y-113350000D03*
X132462500Y-112950000D03*
D38*
X135900000Y-115550000D03*
%TD*%
D30*
%TO.C,C4*%
X127900000Y-110500000D03*
X127900000Y-109540000D03*
%TD*%
D24*
%TO.C,D29*%
X55243750Y-81080000D03*
X55243750Y-77780000D03*
%TD*%
%TO.C,D40*%
X256857500Y-81080000D03*
X256857500Y-77780000D03*
%TD*%
%TO.C,D47*%
X113982500Y-100130000D03*
X113982500Y-96830000D03*
%TD*%
%TO.C,D9*%
X185420000Y-42980000D03*
X185420000Y-39680000D03*
%TD*%
D28*
%TO.C,R5*%
X145610000Y-117400000D03*
X144590000Y-117400000D03*
%TD*%
D24*
%TO.C,D45*%
X75882500Y-100130000D03*
X75882500Y-96830000D03*
%TD*%
%TO.C,D54*%
X247332500Y-100130000D03*
X247332500Y-96830000D03*
%TD*%
%TO.C,D7*%
X147320000Y-42980000D03*
X147320000Y-39680000D03*
%TD*%
%TO.C,D53*%
X228282500Y-100130000D03*
X228282500Y-96830000D03*
%TD*%
%TO.C,D24*%
X213995000Y-62030000D03*
X213995000Y-58730000D03*
%TD*%
D26*
%TO.C,C12*%
X136900000Y-120250000D03*
X135940000Y-120250000D03*
%TD*%
D24*
%TO.C,D39*%
X237807500Y-81080000D03*
X237807500Y-77780000D03*
%TD*%
%TO.C,D21*%
X156845000Y-62030000D03*
X156845000Y-58730000D03*
%TD*%
D30*
%TO.C,C3*%
X147850000Y-115630000D03*
X147850000Y-114670000D03*
%TD*%
D24*
%TO.C,D10*%
X204470000Y-42980000D03*
X204470000Y-39680000D03*
%TD*%
D39*
%TO.C,J2*%
X124225000Y-106150000D03*
D40*
X122955000Y-106150000D03*
%TD*%
D23*
%TO.C,D2*%
X62230000Y-33220000D03*
X62230000Y-36520000D03*
%TD*%
D24*
%TO.C,D25*%
X233045000Y-62030000D03*
X233045000Y-58730000D03*
%TD*%
%TO.C,D44*%
X71437500Y-100130000D03*
X71437500Y-96830000D03*
%TD*%
D23*
%TO.C,D14*%
X275750000Y-42980000D03*
X275750000Y-46280000D03*
%TD*%
%TO.C,D57*%
X52862500Y-105640000D03*
X52862500Y-108940000D03*
%TD*%
D24*
%TO.C,D16*%
X61595000Y-62030000D03*
X61595000Y-58730000D03*
%TD*%
D29*
%TO.C,C1*%
X122700000Y-109550000D03*
X122700000Y-110510000D03*
%TD*%
D24*
%TO.C,D13*%
X261620000Y-42980000D03*
X261620000Y-39680000D03*
%TD*%
%TO.C,D43*%
X66992500Y-100130000D03*
X66992500Y-96830000D03*
%TD*%
D41*
%TO.C,U4*%
X126437500Y-108600000D03*
X126437500Y-110500000D03*
X124162500Y-109550000D03*
%TD*%
D27*
%TO.C,R3*%
X129140000Y-116550000D03*
X130160000Y-116550000D03*
%TD*%
D24*
%TO.C,D15*%
X37782500Y-62030000D03*
X37782500Y-58730000D03*
%TD*%
%TO.C,D6*%
X128270000Y-42980000D03*
X128270000Y-39680000D03*
%TD*%
D26*
%TO.C,C11*%
X133300000Y-120250000D03*
X132340000Y-120250000D03*
%TD*%
%TO.C,C16*%
X126680000Y-115540000D03*
X125720000Y-115540000D03*
%TD*%
D23*
%TO.C,D59*%
X100487500Y-105640000D03*
X100487500Y-108940000D03*
%TD*%
D24*
%TO.C,D26*%
X252095000Y-62030000D03*
X252095000Y-58730000D03*
%TD*%
%TO.C,D18*%
X99695000Y-62030000D03*
X99695000Y-58730000D03*
%TD*%
D23*
%TO.C,D62*%
X242412500Y-105640000D03*
X242412500Y-108940000D03*
%TD*%
D29*
%TO.C,C13*%
X141600000Y-116330000D03*
X141600000Y-117290000D03*
%TD*%
D24*
%TO.C,D23*%
X194945000Y-62030000D03*
X194945000Y-58730000D03*
%TD*%
%TO.C,D36*%
X180657500Y-81080000D03*
X180657500Y-77780000D03*
%TD*%
D23*
%TO.C,D58*%
X76675000Y-105640000D03*
X76675000Y-108940000D03*
%TD*%
D24*
%TO.C,D37*%
X199707500Y-81080000D03*
X199707500Y-77780000D03*
%TD*%
%TO.C,D12*%
X242570000Y-42980000D03*
X242570000Y-39680000D03*
%TD*%
D27*
%TO.C,R7*%
X48900000Y-38250000D03*
X49920000Y-38250000D03*
%TD*%
D24*
%TO.C,D35*%
X161607500Y-81080000D03*
X161607500Y-77780000D03*
%TD*%
%TO.C,D30*%
X66357500Y-81080000D03*
X66357500Y-77780000D03*
%TD*%
D29*
%TO.C,C6*%
X140600000Y-116330000D03*
X140600000Y-117290000D03*
%TD*%
D24*
%TO.C,D22*%
X175895000Y-62030000D03*
X175895000Y-58730000D03*
%TD*%
%TO.C,D61*%
X225901250Y-119180000D03*
X225901250Y-115880000D03*
%TD*%
D30*
%TO.C,C14*%
X136900000Y-109880000D03*
X136900000Y-108920000D03*
%TD*%
D24*
%TO.C,D11*%
X223520000Y-42980000D03*
X223520000Y-39680000D03*
%TD*%
D26*
%TO.C,C15*%
X131955000Y-110850000D03*
X130995000Y-110850000D03*
%TD*%
D24*
%TO.C,D19*%
X118745000Y-62030000D03*
X118745000Y-58730000D03*
%TD*%
D42*
%TO.C,J1*%
X44260000Y-35180000D03*
X50040000Y-35180000D03*
D43*
X43950000Y-36255000D03*
X44750000Y-36255000D03*
D44*
X45900000Y-36255000D03*
X46900000Y-36255000D03*
X47400000Y-36255000D03*
X48400000Y-36255000D03*
D43*
X49550000Y-36255000D03*
X50350000Y-36255000D03*
X50350000Y-36255000D03*
X49550000Y-36255000D03*
D44*
X48900000Y-36255000D03*
X47900000Y-36255000D03*
X46400000Y-36255000D03*
X45400000Y-36255000D03*
D43*
X44750000Y-36255000D03*
X43950000Y-36255000D03*
D45*
X42830000Y-31500000D03*
D46*
X42830000Y-35680000D03*
D45*
X51470000Y-31500000D03*
D46*
X51470000Y-35680000D03*
%TD*%
D24*
%TO.C,D8*%
X166370000Y-42980000D03*
X166370000Y-39680000D03*
%TD*%
D26*
%TO.C,C5*%
X125155000Y-114045758D03*
X124195000Y-114045758D03*
%TD*%
M02*
