%TF.GenerationSoftware,KiCad,Pcbnew,8.0.7*%
%TF.CreationDate,2024-12-19T21:55:55+08:00*%
%TF.ProjectId,PH60_Rev2,50483630-5f52-4657-9632-2e6b69636164,rev?*%
%TF.SameCoordinates,PX1b40518PY1b40518*%
%TF.FileFunction,Legend,Bot*%
%TF.FilePolarity,Positive*%
%FSLAX46Y46*%
G04 Gerber Fmt 4.6, Leading zero omitted, Abs format (unit mm)*
G04 Created by KiCad (PCBNEW 8.0.7) date 2024-12-19 21:55:55*
%MOMM*%
%LPD*%
G01*
G04 APERTURE LIST*
G04 Aperture macros list*
%AMRoundRect*
0 Rectangle with rounded corners*
0 $1 Rounding radius*
0 $2 $3 $4 $5 $6 $7 $8 $9 X,Y pos of 4 corners*
0 Add a 4 corners polygon primitive as box body*
4,1,4,$2,$3,$4,$5,$6,$7,$8,$9,$2,$3,0*
0 Add four circle primitives for the rounded corners*
1,1,$1+$1,$2,$3*
1,1,$1+$1,$4,$5*
1,1,$1+$1,$6,$7*
1,1,$1+$1,$8,$9*
0 Add four rect primitives between the rounded corners*
20,1,$1+$1,$2,$3,$4,$5,0*
20,1,$1+$1,$4,$5,$6,$7,0*
20,1,$1+$1,$6,$7,$8,$9,0*
20,1,$1+$1,$8,$9,$2,$3,0*%
G04 Aperture macros list end*
%ADD10C,0.150000*%
%ADD11C,0.120000*%
%ADD12C,0.300000*%
%ADD13RoundRect,0.250000X-1.025000X-1.000000X1.025000X-1.000000X1.025000X1.000000X-1.025000X1.000000X0*%
%ADD14C,1.750000*%
%ADD15C,4.000000*%
%ADD16C,3.600000*%
%ADD17RoundRect,0.250000X1.025000X1.000000X-1.025000X1.000000X-1.025000X-1.000000X1.025000X-1.000000X0*%
%ADD18C,3.048000*%
%ADD19C,3.987800*%
%ADD20O,5.000000X2.500000*%
%ADD21RoundRect,0.250000X1.000000X-1.025000X1.000000X1.025000X-1.000000X1.025000X-1.000000X-1.025000X0*%
%ADD22C,3.050000*%
%ADD23O,7.000000X2.500000*%
%ADD24C,2.500000*%
%ADD25RoundRect,0.250000X-1.000000X1.025000X-1.000000X-1.025000X1.000000X-1.025000X1.000000X1.025000X0*%
%ADD26RoundRect,0.225000X-0.375000X0.225000X-0.375000X-0.225000X0.375000X-0.225000X0.375000X0.225000X0*%
%ADD27RoundRect,0.225000X0.375000X-0.225000X0.375000X0.225000X-0.375000X0.225000X-0.375000X-0.225000X0*%
%ADD28RoundRect,0.135000X-0.135000X-0.185000X0.135000X-0.185000X0.135000X0.185000X-0.135000X0.185000X0*%
%ADD29RoundRect,0.140000X0.140000X0.170000X-0.140000X0.170000X-0.140000X-0.170000X0.140000X-0.170000X0*%
%ADD30RoundRect,0.225000X-0.225000X-0.375000X0.225000X-0.375000X0.225000X0.375000X-0.225000X0.375000X0*%
%ADD31RoundRect,0.135000X0.135000X0.185000X-0.135000X0.185000X-0.135000X-0.185000X0.135000X-0.185000X0*%
%ADD32RoundRect,0.140000X-0.170000X0.140000X-0.170000X-0.140000X0.170000X-0.140000X0.170000X0.140000X0*%
%ADD33R,1.400000X1.200000*%
%ADD34RoundRect,0.062500X0.387500X0.062500X-0.387500X0.062500X-0.387500X-0.062500X0.387500X-0.062500X0*%
%ADD35R,0.200000X1.600000*%
%ADD36RoundRect,0.140000X-0.140000X-0.170000X0.140000X-0.170000X0.140000X0.170000X-0.140000X0.170000X0*%
%ADD37RoundRect,0.050000X-0.050000X0.387500X-0.050000X-0.387500X0.050000X-0.387500X0.050000X0.387500X0*%
%ADD38RoundRect,0.050000X-0.387500X0.050000X-0.387500X-0.050000X0.387500X-0.050000X0.387500X0.050000X0*%
%ADD39R,3.200000X3.200000*%
%ADD40RoundRect,0.140000X0.170000X-0.140000X0.170000X0.140000X-0.170000X0.140000X-0.170000X-0.140000X0*%
%ADD41R,1.000000X1.000000*%
%ADD42O,1.000000X1.000000*%
%ADD43RoundRect,0.150000X0.512500X0.150000X-0.512500X0.150000X-0.512500X-0.150000X0.512500X-0.150000X0*%
%ADD44RoundRect,0.140000X0.219203X0.021213X0.021213X0.219203X-0.219203X-0.021213X-0.021213X-0.219203X0*%
%ADD45C,0.650000*%
%ADD46RoundRect,0.150000X-0.150000X-0.425000X0.150000X-0.425000X0.150000X0.425000X-0.150000X0.425000X0*%
%ADD47RoundRect,0.075000X-0.075000X-0.500000X0.075000X-0.500000X0.075000X0.500000X-0.075000X0.500000X0*%
%ADD48O,1.000000X1.800000*%
%ADD49O,1.000000X2.100000*%
G04 APERTURE END LIST*
D10*
X2899819Y-5556905D02*
X1899819Y-5556905D01*
X1899819Y-5556905D02*
X1899819Y-5795000D01*
X1899819Y-5795000D02*
X1947438Y-5937857D01*
X1947438Y-5937857D02*
X2042676Y-6033095D01*
X2042676Y-6033095D02*
X2137914Y-6080714D01*
X2137914Y-6080714D02*
X2328390Y-6128333D01*
X2328390Y-6128333D02*
X2471247Y-6128333D01*
X2471247Y-6128333D02*
X2661723Y-6080714D01*
X2661723Y-6080714D02*
X2756961Y-6033095D01*
X2756961Y-6033095D02*
X2852200Y-5937857D01*
X2852200Y-5937857D02*
X2899819Y-5795000D01*
X2899819Y-5795000D02*
X2899819Y-5556905D01*
X2899819Y-7080714D02*
X2899819Y-6509286D01*
X2899819Y-6795000D02*
X1899819Y-6795000D01*
X1899819Y-6795000D02*
X2042676Y-6699762D01*
X2042676Y-6699762D02*
X2137914Y-6604524D01*
X2137914Y-6604524D02*
X2185533Y-6509286D01*
X68812319Y-68690714D02*
X67812319Y-68690714D01*
X67812319Y-68690714D02*
X67812319Y-68928809D01*
X67812319Y-68928809D02*
X67859938Y-69071666D01*
X67859938Y-69071666D02*
X67955176Y-69166904D01*
X67955176Y-69166904D02*
X68050414Y-69214523D01*
X68050414Y-69214523D02*
X68240890Y-69262142D01*
X68240890Y-69262142D02*
X68383747Y-69262142D01*
X68383747Y-69262142D02*
X68574223Y-69214523D01*
X68574223Y-69214523D02*
X68669461Y-69166904D01*
X68669461Y-69166904D02*
X68764700Y-69071666D01*
X68764700Y-69071666D02*
X68812319Y-68928809D01*
X68812319Y-68928809D02*
X68812319Y-68690714D01*
X68145652Y-70119285D02*
X68812319Y-70119285D01*
X67764700Y-69881190D02*
X68478985Y-69643095D01*
X68478985Y-69643095D02*
X68478985Y-70262142D01*
X67812319Y-71071666D02*
X67812319Y-70881190D01*
X67812319Y-70881190D02*
X67859938Y-70785952D01*
X67859938Y-70785952D02*
X67907557Y-70738333D01*
X67907557Y-70738333D02*
X68050414Y-70643095D01*
X68050414Y-70643095D02*
X68240890Y-70595476D01*
X68240890Y-70595476D02*
X68621842Y-70595476D01*
X68621842Y-70595476D02*
X68717080Y-70643095D01*
X68717080Y-70643095D02*
X68764700Y-70690714D01*
X68764700Y-70690714D02*
X68812319Y-70785952D01*
X68812319Y-70785952D02*
X68812319Y-70976428D01*
X68812319Y-70976428D02*
X68764700Y-71071666D01*
X68764700Y-71071666D02*
X68717080Y-71119285D01*
X68717080Y-71119285D02*
X68621842Y-71166904D01*
X68621842Y-71166904D02*
X68383747Y-71166904D01*
X68383747Y-71166904D02*
X68288509Y-71119285D01*
X68288509Y-71119285D02*
X68240890Y-71071666D01*
X68240890Y-71071666D02*
X68193271Y-70976428D01*
X68193271Y-70976428D02*
X68193271Y-70785952D01*
X68193271Y-70785952D02*
X68240890Y-70690714D01*
X68240890Y-70690714D02*
X68288509Y-70643095D01*
X68288509Y-70643095D02*
X68383747Y-70595476D01*
X78337319Y-49640714D02*
X77337319Y-49640714D01*
X77337319Y-49640714D02*
X77337319Y-49878809D01*
X77337319Y-49878809D02*
X77384938Y-50021666D01*
X77384938Y-50021666D02*
X77480176Y-50116904D01*
X77480176Y-50116904D02*
X77575414Y-50164523D01*
X77575414Y-50164523D02*
X77765890Y-50212142D01*
X77765890Y-50212142D02*
X77908747Y-50212142D01*
X77908747Y-50212142D02*
X78099223Y-50164523D01*
X78099223Y-50164523D02*
X78194461Y-50116904D01*
X78194461Y-50116904D02*
X78289700Y-50021666D01*
X78289700Y-50021666D02*
X78337319Y-49878809D01*
X78337319Y-49878809D02*
X78337319Y-49640714D01*
X77337319Y-50545476D02*
X77337319Y-51164523D01*
X77337319Y-51164523D02*
X77718271Y-50831190D01*
X77718271Y-50831190D02*
X77718271Y-50974047D01*
X77718271Y-50974047D02*
X77765890Y-51069285D01*
X77765890Y-51069285D02*
X77813509Y-51116904D01*
X77813509Y-51116904D02*
X77908747Y-51164523D01*
X77908747Y-51164523D02*
X78146842Y-51164523D01*
X78146842Y-51164523D02*
X78242080Y-51116904D01*
X78242080Y-51116904D02*
X78289700Y-51069285D01*
X78289700Y-51069285D02*
X78337319Y-50974047D01*
X78337319Y-50974047D02*
X78337319Y-50688333D01*
X78337319Y-50688333D02*
X78289700Y-50593095D01*
X78289700Y-50593095D02*
X78242080Y-50545476D01*
X77432557Y-51545476D02*
X77384938Y-51593095D01*
X77384938Y-51593095D02*
X77337319Y-51688333D01*
X77337319Y-51688333D02*
X77337319Y-51926428D01*
X77337319Y-51926428D02*
X77384938Y-52021666D01*
X77384938Y-52021666D02*
X77432557Y-52069285D01*
X77432557Y-52069285D02*
X77527795Y-52116904D01*
X77527795Y-52116904D02*
X77623033Y-52116904D01*
X77623033Y-52116904D02*
X77765890Y-52069285D01*
X77765890Y-52069285D02*
X78337319Y-51497857D01*
X78337319Y-51497857D02*
X78337319Y-52116904D01*
X116437319Y-49640714D02*
X115437319Y-49640714D01*
X115437319Y-49640714D02*
X115437319Y-49878809D01*
X115437319Y-49878809D02*
X115484938Y-50021666D01*
X115484938Y-50021666D02*
X115580176Y-50116904D01*
X115580176Y-50116904D02*
X115675414Y-50164523D01*
X115675414Y-50164523D02*
X115865890Y-50212142D01*
X115865890Y-50212142D02*
X116008747Y-50212142D01*
X116008747Y-50212142D02*
X116199223Y-50164523D01*
X116199223Y-50164523D02*
X116294461Y-50116904D01*
X116294461Y-50116904D02*
X116389700Y-50021666D01*
X116389700Y-50021666D02*
X116437319Y-49878809D01*
X116437319Y-49878809D02*
X116437319Y-49640714D01*
X115437319Y-50545476D02*
X115437319Y-51164523D01*
X115437319Y-51164523D02*
X115818271Y-50831190D01*
X115818271Y-50831190D02*
X115818271Y-50974047D01*
X115818271Y-50974047D02*
X115865890Y-51069285D01*
X115865890Y-51069285D02*
X115913509Y-51116904D01*
X115913509Y-51116904D02*
X116008747Y-51164523D01*
X116008747Y-51164523D02*
X116246842Y-51164523D01*
X116246842Y-51164523D02*
X116342080Y-51116904D01*
X116342080Y-51116904D02*
X116389700Y-51069285D01*
X116389700Y-51069285D02*
X116437319Y-50974047D01*
X116437319Y-50974047D02*
X116437319Y-50688333D01*
X116437319Y-50688333D02*
X116389700Y-50593095D01*
X116389700Y-50593095D02*
X116342080Y-50545476D01*
X115770652Y-52021666D02*
X116437319Y-52021666D01*
X115389700Y-51783571D02*
X116103985Y-51545476D01*
X116103985Y-51545476D02*
X116103985Y-52164523D01*
X240867319Y-52940714D02*
X239867319Y-52940714D01*
X239867319Y-52940714D02*
X239867319Y-53178809D01*
X239867319Y-53178809D02*
X239914938Y-53321666D01*
X239914938Y-53321666D02*
X240010176Y-53416904D01*
X240010176Y-53416904D02*
X240105414Y-53464523D01*
X240105414Y-53464523D02*
X240295890Y-53512142D01*
X240295890Y-53512142D02*
X240438747Y-53512142D01*
X240438747Y-53512142D02*
X240629223Y-53464523D01*
X240629223Y-53464523D02*
X240724461Y-53416904D01*
X240724461Y-53416904D02*
X240819700Y-53321666D01*
X240819700Y-53321666D02*
X240867319Y-53178809D01*
X240867319Y-53178809D02*
X240867319Y-52940714D01*
X240200652Y-54369285D02*
X240867319Y-54369285D01*
X239819700Y-54131190D02*
X240533985Y-53893095D01*
X240533985Y-53893095D02*
X240533985Y-54512142D01*
X240867319Y-55416904D02*
X240867319Y-54845476D01*
X240867319Y-55131190D02*
X239867319Y-55131190D01*
X239867319Y-55131190D02*
X240010176Y-55035952D01*
X240010176Y-55035952D02*
X240105414Y-54940714D01*
X240105414Y-54940714D02*
X240153033Y-54845476D01*
X273599819Y-65460714D02*
X272599819Y-65460714D01*
X272599819Y-65460714D02*
X272599819Y-65698809D01*
X272599819Y-65698809D02*
X272647438Y-65841666D01*
X272647438Y-65841666D02*
X272742676Y-65936904D01*
X272742676Y-65936904D02*
X272837914Y-65984523D01*
X272837914Y-65984523D02*
X273028390Y-66032142D01*
X273028390Y-66032142D02*
X273171247Y-66032142D01*
X273171247Y-66032142D02*
X273361723Y-65984523D01*
X273361723Y-65984523D02*
X273456961Y-65936904D01*
X273456961Y-65936904D02*
X273552200Y-65841666D01*
X273552200Y-65841666D02*
X273599819Y-65698809D01*
X273599819Y-65698809D02*
X273599819Y-65460714D01*
X272599819Y-66936904D02*
X272599819Y-66460714D01*
X272599819Y-66460714D02*
X273076009Y-66413095D01*
X273076009Y-66413095D02*
X273028390Y-66460714D01*
X273028390Y-66460714D02*
X272980771Y-66555952D01*
X272980771Y-66555952D02*
X272980771Y-66794047D01*
X272980771Y-66794047D02*
X273028390Y-66889285D01*
X273028390Y-66889285D02*
X273076009Y-66936904D01*
X273076009Y-66936904D02*
X273171247Y-66984523D01*
X273171247Y-66984523D02*
X273409342Y-66984523D01*
X273409342Y-66984523D02*
X273504580Y-66936904D01*
X273504580Y-66936904D02*
X273552200Y-66889285D01*
X273552200Y-66889285D02*
X273599819Y-66794047D01*
X273599819Y-66794047D02*
X273599819Y-66555952D01*
X273599819Y-66555952D02*
X273552200Y-66460714D01*
X273552200Y-66460714D02*
X273504580Y-66413095D01*
X272599819Y-67841666D02*
X272599819Y-67651190D01*
X272599819Y-67651190D02*
X272647438Y-67555952D01*
X272647438Y-67555952D02*
X272695057Y-67508333D01*
X272695057Y-67508333D02*
X272837914Y-67413095D01*
X272837914Y-67413095D02*
X273028390Y-67365476D01*
X273028390Y-67365476D02*
X273409342Y-67365476D01*
X273409342Y-67365476D02*
X273504580Y-67413095D01*
X273504580Y-67413095D02*
X273552200Y-67460714D01*
X273552200Y-67460714D02*
X273599819Y-67555952D01*
X273599819Y-67555952D02*
X273599819Y-67746428D01*
X273599819Y-67746428D02*
X273552200Y-67841666D01*
X273552200Y-67841666D02*
X273504580Y-67889285D01*
X273504580Y-67889285D02*
X273409342Y-67936904D01*
X273409342Y-67936904D02*
X273171247Y-67936904D01*
X273171247Y-67936904D02*
X273076009Y-67889285D01*
X273076009Y-67889285D02*
X273028390Y-67841666D01*
X273028390Y-67841666D02*
X272980771Y-67746428D01*
X272980771Y-67746428D02*
X272980771Y-67555952D01*
X272980771Y-67555952D02*
X273028390Y-67460714D01*
X273028390Y-67460714D02*
X273076009Y-67413095D01*
X273076009Y-67413095D02*
X273171247Y-67365476D01*
X145012319Y-68690714D02*
X144012319Y-68690714D01*
X144012319Y-68690714D02*
X144012319Y-68928809D01*
X144012319Y-68928809D02*
X144059938Y-69071666D01*
X144059938Y-69071666D02*
X144155176Y-69166904D01*
X144155176Y-69166904D02*
X144250414Y-69214523D01*
X144250414Y-69214523D02*
X144440890Y-69262142D01*
X144440890Y-69262142D02*
X144583747Y-69262142D01*
X144583747Y-69262142D02*
X144774223Y-69214523D01*
X144774223Y-69214523D02*
X144869461Y-69166904D01*
X144869461Y-69166904D02*
X144964700Y-69071666D01*
X144964700Y-69071666D02*
X145012319Y-68928809D01*
X145012319Y-68928809D02*
X145012319Y-68690714D01*
X144012319Y-70166904D02*
X144012319Y-69690714D01*
X144012319Y-69690714D02*
X144488509Y-69643095D01*
X144488509Y-69643095D02*
X144440890Y-69690714D01*
X144440890Y-69690714D02*
X144393271Y-69785952D01*
X144393271Y-69785952D02*
X144393271Y-70024047D01*
X144393271Y-70024047D02*
X144440890Y-70119285D01*
X144440890Y-70119285D02*
X144488509Y-70166904D01*
X144488509Y-70166904D02*
X144583747Y-70214523D01*
X144583747Y-70214523D02*
X144821842Y-70214523D01*
X144821842Y-70214523D02*
X144917080Y-70166904D01*
X144917080Y-70166904D02*
X144964700Y-70119285D01*
X144964700Y-70119285D02*
X145012319Y-70024047D01*
X145012319Y-70024047D02*
X145012319Y-69785952D01*
X145012319Y-69785952D02*
X144964700Y-69690714D01*
X144964700Y-69690714D02*
X144917080Y-69643095D01*
X144012319Y-70833571D02*
X144012319Y-70928809D01*
X144012319Y-70928809D02*
X144059938Y-71024047D01*
X144059938Y-71024047D02*
X144107557Y-71071666D01*
X144107557Y-71071666D02*
X144202795Y-71119285D01*
X144202795Y-71119285D02*
X144393271Y-71166904D01*
X144393271Y-71166904D02*
X144631366Y-71166904D01*
X144631366Y-71166904D02*
X144821842Y-71119285D01*
X144821842Y-71119285D02*
X144917080Y-71071666D01*
X144917080Y-71071666D02*
X144964700Y-71024047D01*
X144964700Y-71024047D02*
X145012319Y-70928809D01*
X145012319Y-70928809D02*
X145012319Y-70833571D01*
X145012319Y-70833571D02*
X144964700Y-70738333D01*
X144964700Y-70738333D02*
X144917080Y-70690714D01*
X144917080Y-70690714D02*
X144821842Y-70643095D01*
X144821842Y-70643095D02*
X144631366Y-70595476D01*
X144631366Y-70595476D02*
X144393271Y-70595476D01*
X144393271Y-70595476D02*
X144202795Y-70643095D01*
X144202795Y-70643095D02*
X144107557Y-70690714D01*
X144107557Y-70690714D02*
X144059938Y-70738333D01*
X144059938Y-70738333D02*
X144012319Y-70833571D01*
X164062319Y-68690714D02*
X163062319Y-68690714D01*
X163062319Y-68690714D02*
X163062319Y-68928809D01*
X163062319Y-68928809D02*
X163109938Y-69071666D01*
X163109938Y-69071666D02*
X163205176Y-69166904D01*
X163205176Y-69166904D02*
X163300414Y-69214523D01*
X163300414Y-69214523D02*
X163490890Y-69262142D01*
X163490890Y-69262142D02*
X163633747Y-69262142D01*
X163633747Y-69262142D02*
X163824223Y-69214523D01*
X163824223Y-69214523D02*
X163919461Y-69166904D01*
X163919461Y-69166904D02*
X164014700Y-69071666D01*
X164014700Y-69071666D02*
X164062319Y-68928809D01*
X164062319Y-68928809D02*
X164062319Y-68690714D01*
X163062319Y-70166904D02*
X163062319Y-69690714D01*
X163062319Y-69690714D02*
X163538509Y-69643095D01*
X163538509Y-69643095D02*
X163490890Y-69690714D01*
X163490890Y-69690714D02*
X163443271Y-69785952D01*
X163443271Y-69785952D02*
X163443271Y-70024047D01*
X163443271Y-70024047D02*
X163490890Y-70119285D01*
X163490890Y-70119285D02*
X163538509Y-70166904D01*
X163538509Y-70166904D02*
X163633747Y-70214523D01*
X163633747Y-70214523D02*
X163871842Y-70214523D01*
X163871842Y-70214523D02*
X163967080Y-70166904D01*
X163967080Y-70166904D02*
X164014700Y-70119285D01*
X164014700Y-70119285D02*
X164062319Y-70024047D01*
X164062319Y-70024047D02*
X164062319Y-69785952D01*
X164062319Y-69785952D02*
X164014700Y-69690714D01*
X164014700Y-69690714D02*
X163967080Y-69643095D01*
X164062319Y-71166904D02*
X164062319Y-70595476D01*
X164062319Y-70881190D02*
X163062319Y-70881190D01*
X163062319Y-70881190D02*
X163205176Y-70785952D01*
X163205176Y-70785952D02*
X163300414Y-70690714D01*
X163300414Y-70690714D02*
X163348033Y-70595476D01*
X83099819Y-12016905D02*
X82099819Y-12016905D01*
X82099819Y-12016905D02*
X82099819Y-12255000D01*
X82099819Y-12255000D02*
X82147438Y-12397857D01*
X82147438Y-12397857D02*
X82242676Y-12493095D01*
X82242676Y-12493095D02*
X82337914Y-12540714D01*
X82337914Y-12540714D02*
X82528390Y-12588333D01*
X82528390Y-12588333D02*
X82671247Y-12588333D01*
X82671247Y-12588333D02*
X82861723Y-12540714D01*
X82861723Y-12540714D02*
X82956961Y-12493095D01*
X82956961Y-12493095D02*
X83052200Y-12397857D01*
X83052200Y-12397857D02*
X83099819Y-12255000D01*
X83099819Y-12255000D02*
X83099819Y-12016905D01*
X82099819Y-13493095D02*
X82099819Y-13016905D01*
X82099819Y-13016905D02*
X82576009Y-12969286D01*
X82576009Y-12969286D02*
X82528390Y-13016905D01*
X82528390Y-13016905D02*
X82480771Y-13112143D01*
X82480771Y-13112143D02*
X82480771Y-13350238D01*
X82480771Y-13350238D02*
X82528390Y-13445476D01*
X82528390Y-13445476D02*
X82576009Y-13493095D01*
X82576009Y-13493095D02*
X82671247Y-13540714D01*
X82671247Y-13540714D02*
X82909342Y-13540714D01*
X82909342Y-13540714D02*
X83004580Y-13493095D01*
X83004580Y-13493095D02*
X83052200Y-13445476D01*
X83052200Y-13445476D02*
X83099819Y-13350238D01*
X83099819Y-13350238D02*
X83099819Y-13112143D01*
X83099819Y-13112143D02*
X83052200Y-13016905D01*
X83052200Y-13016905D02*
X83004580Y-12969286D01*
X192637319Y-49640714D02*
X191637319Y-49640714D01*
X191637319Y-49640714D02*
X191637319Y-49878809D01*
X191637319Y-49878809D02*
X191684938Y-50021666D01*
X191684938Y-50021666D02*
X191780176Y-50116904D01*
X191780176Y-50116904D02*
X191875414Y-50164523D01*
X191875414Y-50164523D02*
X192065890Y-50212142D01*
X192065890Y-50212142D02*
X192208747Y-50212142D01*
X192208747Y-50212142D02*
X192399223Y-50164523D01*
X192399223Y-50164523D02*
X192494461Y-50116904D01*
X192494461Y-50116904D02*
X192589700Y-50021666D01*
X192589700Y-50021666D02*
X192637319Y-49878809D01*
X192637319Y-49878809D02*
X192637319Y-49640714D01*
X191637319Y-50545476D02*
X191637319Y-51164523D01*
X191637319Y-51164523D02*
X192018271Y-50831190D01*
X192018271Y-50831190D02*
X192018271Y-50974047D01*
X192018271Y-50974047D02*
X192065890Y-51069285D01*
X192065890Y-51069285D02*
X192113509Y-51116904D01*
X192113509Y-51116904D02*
X192208747Y-51164523D01*
X192208747Y-51164523D02*
X192446842Y-51164523D01*
X192446842Y-51164523D02*
X192542080Y-51116904D01*
X192542080Y-51116904D02*
X192589700Y-51069285D01*
X192589700Y-51069285D02*
X192637319Y-50974047D01*
X192637319Y-50974047D02*
X192637319Y-50688333D01*
X192637319Y-50688333D02*
X192589700Y-50593095D01*
X192589700Y-50593095D02*
X192542080Y-50545476D01*
X192065890Y-51735952D02*
X192018271Y-51640714D01*
X192018271Y-51640714D02*
X191970652Y-51593095D01*
X191970652Y-51593095D02*
X191875414Y-51545476D01*
X191875414Y-51545476D02*
X191827795Y-51545476D01*
X191827795Y-51545476D02*
X191732557Y-51593095D01*
X191732557Y-51593095D02*
X191684938Y-51640714D01*
X191684938Y-51640714D02*
X191637319Y-51735952D01*
X191637319Y-51735952D02*
X191637319Y-51926428D01*
X191637319Y-51926428D02*
X191684938Y-52021666D01*
X191684938Y-52021666D02*
X191732557Y-52069285D01*
X191732557Y-52069285D02*
X191827795Y-52116904D01*
X191827795Y-52116904D02*
X191875414Y-52116904D01*
X191875414Y-52116904D02*
X191970652Y-52069285D01*
X191970652Y-52069285D02*
X192018271Y-52021666D01*
X192018271Y-52021666D02*
X192065890Y-51926428D01*
X192065890Y-51926428D02*
X192065890Y-51735952D01*
X192065890Y-51735952D02*
X192113509Y-51640714D01*
X192113509Y-51640714D02*
X192161128Y-51593095D01*
X192161128Y-51593095D02*
X192256366Y-51545476D01*
X192256366Y-51545476D02*
X192446842Y-51545476D01*
X192446842Y-51545476D02*
X192542080Y-51593095D01*
X192542080Y-51593095D02*
X192589700Y-51640714D01*
X192589700Y-51640714D02*
X192637319Y-51735952D01*
X192637319Y-51735952D02*
X192637319Y-51926428D01*
X192637319Y-51926428D02*
X192589700Y-52021666D01*
X192589700Y-52021666D02*
X192542080Y-52069285D01*
X192542080Y-52069285D02*
X192446842Y-52116904D01*
X192446842Y-52116904D02*
X192256366Y-52116904D01*
X192256366Y-52116904D02*
X192161128Y-52069285D01*
X192161128Y-52069285D02*
X192113509Y-52021666D01*
X192113509Y-52021666D02*
X192065890Y-51926428D01*
X183112319Y-68690714D02*
X182112319Y-68690714D01*
X182112319Y-68690714D02*
X182112319Y-68928809D01*
X182112319Y-68928809D02*
X182159938Y-69071666D01*
X182159938Y-69071666D02*
X182255176Y-69166904D01*
X182255176Y-69166904D02*
X182350414Y-69214523D01*
X182350414Y-69214523D02*
X182540890Y-69262142D01*
X182540890Y-69262142D02*
X182683747Y-69262142D01*
X182683747Y-69262142D02*
X182874223Y-69214523D01*
X182874223Y-69214523D02*
X182969461Y-69166904D01*
X182969461Y-69166904D02*
X183064700Y-69071666D01*
X183064700Y-69071666D02*
X183112319Y-68928809D01*
X183112319Y-68928809D02*
X183112319Y-68690714D01*
X182112319Y-70166904D02*
X182112319Y-69690714D01*
X182112319Y-69690714D02*
X182588509Y-69643095D01*
X182588509Y-69643095D02*
X182540890Y-69690714D01*
X182540890Y-69690714D02*
X182493271Y-69785952D01*
X182493271Y-69785952D02*
X182493271Y-70024047D01*
X182493271Y-70024047D02*
X182540890Y-70119285D01*
X182540890Y-70119285D02*
X182588509Y-70166904D01*
X182588509Y-70166904D02*
X182683747Y-70214523D01*
X182683747Y-70214523D02*
X182921842Y-70214523D01*
X182921842Y-70214523D02*
X183017080Y-70166904D01*
X183017080Y-70166904D02*
X183064700Y-70119285D01*
X183064700Y-70119285D02*
X183112319Y-70024047D01*
X183112319Y-70024047D02*
X183112319Y-69785952D01*
X183112319Y-69785952D02*
X183064700Y-69690714D01*
X183064700Y-69690714D02*
X183017080Y-69643095D01*
X182207557Y-70595476D02*
X182159938Y-70643095D01*
X182159938Y-70643095D02*
X182112319Y-70738333D01*
X182112319Y-70738333D02*
X182112319Y-70976428D01*
X182112319Y-70976428D02*
X182159938Y-71071666D01*
X182159938Y-71071666D02*
X182207557Y-71119285D01*
X182207557Y-71119285D02*
X182302795Y-71166904D01*
X182302795Y-71166904D02*
X182398033Y-71166904D01*
X182398033Y-71166904D02*
X182540890Y-71119285D01*
X182540890Y-71119285D02*
X183112319Y-70547857D01*
X183112319Y-70547857D02*
X183112319Y-71166904D01*
X128343569Y-87740714D02*
X127343569Y-87740714D01*
X127343569Y-87740714D02*
X127343569Y-87978809D01*
X127343569Y-87978809D02*
X127391188Y-88121666D01*
X127391188Y-88121666D02*
X127486426Y-88216904D01*
X127486426Y-88216904D02*
X127581664Y-88264523D01*
X127581664Y-88264523D02*
X127772140Y-88312142D01*
X127772140Y-88312142D02*
X127914997Y-88312142D01*
X127914997Y-88312142D02*
X128105473Y-88264523D01*
X128105473Y-88264523D02*
X128200711Y-88216904D01*
X128200711Y-88216904D02*
X128295950Y-88121666D01*
X128295950Y-88121666D02*
X128343569Y-87978809D01*
X128343569Y-87978809D02*
X128343569Y-87740714D01*
X127343569Y-89169285D02*
X127343569Y-88978809D01*
X127343569Y-88978809D02*
X127391188Y-88883571D01*
X127391188Y-88883571D02*
X127438807Y-88835952D01*
X127438807Y-88835952D02*
X127581664Y-88740714D01*
X127581664Y-88740714D02*
X127772140Y-88693095D01*
X127772140Y-88693095D02*
X128153092Y-88693095D01*
X128153092Y-88693095D02*
X128248330Y-88740714D01*
X128248330Y-88740714D02*
X128295950Y-88788333D01*
X128295950Y-88788333D02*
X128343569Y-88883571D01*
X128343569Y-88883571D02*
X128343569Y-89074047D01*
X128343569Y-89074047D02*
X128295950Y-89169285D01*
X128295950Y-89169285D02*
X128248330Y-89216904D01*
X128248330Y-89216904D02*
X128153092Y-89264523D01*
X128153092Y-89264523D02*
X127914997Y-89264523D01*
X127914997Y-89264523D02*
X127819759Y-89216904D01*
X127819759Y-89216904D02*
X127772140Y-89169285D01*
X127772140Y-89169285D02*
X127724521Y-89074047D01*
X127724521Y-89074047D02*
X127724521Y-88883571D01*
X127724521Y-88883571D02*
X127772140Y-88788333D01*
X127772140Y-88788333D02*
X127819759Y-88740714D01*
X127819759Y-88740714D02*
X127914997Y-88693095D01*
X127343569Y-89883571D02*
X127343569Y-89978809D01*
X127343569Y-89978809D02*
X127391188Y-90074047D01*
X127391188Y-90074047D02*
X127438807Y-90121666D01*
X127438807Y-90121666D02*
X127534045Y-90169285D01*
X127534045Y-90169285D02*
X127724521Y-90216904D01*
X127724521Y-90216904D02*
X127962616Y-90216904D01*
X127962616Y-90216904D02*
X128153092Y-90169285D01*
X128153092Y-90169285D02*
X128248330Y-90121666D01*
X128248330Y-90121666D02*
X128295950Y-90074047D01*
X128295950Y-90074047D02*
X128343569Y-89978809D01*
X128343569Y-89978809D02*
X128343569Y-89883571D01*
X128343569Y-89883571D02*
X128295950Y-89788333D01*
X128295950Y-89788333D02*
X128248330Y-89740714D01*
X128248330Y-89740714D02*
X128153092Y-89693095D01*
X128153092Y-89693095D02*
X127962616Y-89645476D01*
X127962616Y-89645476D02*
X127724521Y-89645476D01*
X127724521Y-89645476D02*
X127534045Y-89693095D01*
X127534045Y-89693095D02*
X127438807Y-89740714D01*
X127438807Y-89740714D02*
X127391188Y-89788333D01*
X127391188Y-89788333D02*
X127343569Y-89883571D01*
X106912319Y-68690714D02*
X105912319Y-68690714D01*
X105912319Y-68690714D02*
X105912319Y-68928809D01*
X105912319Y-68928809D02*
X105959938Y-69071666D01*
X105959938Y-69071666D02*
X106055176Y-69166904D01*
X106055176Y-69166904D02*
X106150414Y-69214523D01*
X106150414Y-69214523D02*
X106340890Y-69262142D01*
X106340890Y-69262142D02*
X106483747Y-69262142D01*
X106483747Y-69262142D02*
X106674223Y-69214523D01*
X106674223Y-69214523D02*
X106769461Y-69166904D01*
X106769461Y-69166904D02*
X106864700Y-69071666D01*
X106864700Y-69071666D02*
X106912319Y-68928809D01*
X106912319Y-68928809D02*
X106912319Y-68690714D01*
X106245652Y-70119285D02*
X106912319Y-70119285D01*
X105864700Y-69881190D02*
X106578985Y-69643095D01*
X106578985Y-69643095D02*
X106578985Y-70262142D01*
X106340890Y-70785952D02*
X106293271Y-70690714D01*
X106293271Y-70690714D02*
X106245652Y-70643095D01*
X106245652Y-70643095D02*
X106150414Y-70595476D01*
X106150414Y-70595476D02*
X106102795Y-70595476D01*
X106102795Y-70595476D02*
X106007557Y-70643095D01*
X106007557Y-70643095D02*
X105959938Y-70690714D01*
X105959938Y-70690714D02*
X105912319Y-70785952D01*
X105912319Y-70785952D02*
X105912319Y-70976428D01*
X105912319Y-70976428D02*
X105959938Y-71071666D01*
X105959938Y-71071666D02*
X106007557Y-71119285D01*
X106007557Y-71119285D02*
X106102795Y-71166904D01*
X106102795Y-71166904D02*
X106150414Y-71166904D01*
X106150414Y-71166904D02*
X106245652Y-71119285D01*
X106245652Y-71119285D02*
X106293271Y-71071666D01*
X106293271Y-71071666D02*
X106340890Y-70976428D01*
X106340890Y-70976428D02*
X106340890Y-70785952D01*
X106340890Y-70785952D02*
X106388509Y-70690714D01*
X106388509Y-70690714D02*
X106436128Y-70643095D01*
X106436128Y-70643095D02*
X106531366Y-70595476D01*
X106531366Y-70595476D02*
X106721842Y-70595476D01*
X106721842Y-70595476D02*
X106817080Y-70643095D01*
X106817080Y-70643095D02*
X106864700Y-70690714D01*
X106864700Y-70690714D02*
X106912319Y-70785952D01*
X106912319Y-70785952D02*
X106912319Y-70976428D01*
X106912319Y-70976428D02*
X106864700Y-71071666D01*
X106864700Y-71071666D02*
X106817080Y-71119285D01*
X106817080Y-71119285D02*
X106721842Y-71166904D01*
X106721842Y-71166904D02*
X106531366Y-71166904D01*
X106531366Y-71166904D02*
X106436128Y-71119285D01*
X106436128Y-71119285D02*
X106388509Y-71071666D01*
X106388509Y-71071666D02*
X106340890Y-70976428D01*
X111674819Y-30590714D02*
X110674819Y-30590714D01*
X110674819Y-30590714D02*
X110674819Y-30828809D01*
X110674819Y-30828809D02*
X110722438Y-30971666D01*
X110722438Y-30971666D02*
X110817676Y-31066904D01*
X110817676Y-31066904D02*
X110912914Y-31114523D01*
X110912914Y-31114523D02*
X111103390Y-31162142D01*
X111103390Y-31162142D02*
X111246247Y-31162142D01*
X111246247Y-31162142D02*
X111436723Y-31114523D01*
X111436723Y-31114523D02*
X111531961Y-31066904D01*
X111531961Y-31066904D02*
X111627200Y-30971666D01*
X111627200Y-30971666D02*
X111674819Y-30828809D01*
X111674819Y-30828809D02*
X111674819Y-30590714D01*
X110770057Y-31543095D02*
X110722438Y-31590714D01*
X110722438Y-31590714D02*
X110674819Y-31685952D01*
X110674819Y-31685952D02*
X110674819Y-31924047D01*
X110674819Y-31924047D02*
X110722438Y-32019285D01*
X110722438Y-32019285D02*
X110770057Y-32066904D01*
X110770057Y-32066904D02*
X110865295Y-32114523D01*
X110865295Y-32114523D02*
X110960533Y-32114523D01*
X110960533Y-32114523D02*
X111103390Y-32066904D01*
X111103390Y-32066904D02*
X111674819Y-31495476D01*
X111674819Y-31495476D02*
X111674819Y-32114523D01*
X110674819Y-32733571D02*
X110674819Y-32828809D01*
X110674819Y-32828809D02*
X110722438Y-32924047D01*
X110722438Y-32924047D02*
X110770057Y-32971666D01*
X110770057Y-32971666D02*
X110865295Y-33019285D01*
X110865295Y-33019285D02*
X111055771Y-33066904D01*
X111055771Y-33066904D02*
X111293866Y-33066904D01*
X111293866Y-33066904D02*
X111484342Y-33019285D01*
X111484342Y-33019285D02*
X111579580Y-32971666D01*
X111579580Y-32971666D02*
X111627200Y-32924047D01*
X111627200Y-32924047D02*
X111674819Y-32828809D01*
X111674819Y-32828809D02*
X111674819Y-32733571D01*
X111674819Y-32733571D02*
X111627200Y-32638333D01*
X111627200Y-32638333D02*
X111579580Y-32590714D01*
X111579580Y-32590714D02*
X111484342Y-32543095D01*
X111484342Y-32543095D02*
X111293866Y-32495476D01*
X111293866Y-32495476D02*
X111055771Y-32495476D01*
X111055771Y-32495476D02*
X110865295Y-32543095D01*
X110865295Y-32543095D02*
X110770057Y-32590714D01*
X110770057Y-32590714D02*
X110722438Y-32638333D01*
X110722438Y-32638333D02*
X110674819Y-32733571D01*
X257917319Y-27360714D02*
X256917319Y-27360714D01*
X256917319Y-27360714D02*
X256917319Y-27598809D01*
X256917319Y-27598809D02*
X256964938Y-27741666D01*
X256964938Y-27741666D02*
X257060176Y-27836904D01*
X257060176Y-27836904D02*
X257155414Y-27884523D01*
X257155414Y-27884523D02*
X257345890Y-27932142D01*
X257345890Y-27932142D02*
X257488747Y-27932142D01*
X257488747Y-27932142D02*
X257679223Y-27884523D01*
X257679223Y-27884523D02*
X257774461Y-27836904D01*
X257774461Y-27836904D02*
X257869700Y-27741666D01*
X257869700Y-27741666D02*
X257917319Y-27598809D01*
X257917319Y-27598809D02*
X257917319Y-27360714D01*
X257250652Y-28789285D02*
X257917319Y-28789285D01*
X256869700Y-28551190D02*
X257583985Y-28313095D01*
X257583985Y-28313095D02*
X257583985Y-28932142D01*
X257012557Y-29265476D02*
X256964938Y-29313095D01*
X256964938Y-29313095D02*
X256917319Y-29408333D01*
X256917319Y-29408333D02*
X256917319Y-29646428D01*
X256917319Y-29646428D02*
X256964938Y-29741666D01*
X256964938Y-29741666D02*
X257012557Y-29789285D01*
X257012557Y-29789285D02*
X257107795Y-29836904D01*
X257107795Y-29836904D02*
X257203033Y-29836904D01*
X257203033Y-29836904D02*
X257345890Y-29789285D01*
X257345890Y-29789285D02*
X257917319Y-29217857D01*
X257917319Y-29217857D02*
X257917319Y-29836904D01*
X239214285Y-74009819D02*
X239214285Y-73009819D01*
X239214285Y-73009819D02*
X238976190Y-73009819D01*
X238976190Y-73009819D02*
X238833333Y-73057438D01*
X238833333Y-73057438D02*
X238738095Y-73152676D01*
X238738095Y-73152676D02*
X238690476Y-73247914D01*
X238690476Y-73247914D02*
X238642857Y-73438390D01*
X238642857Y-73438390D02*
X238642857Y-73581247D01*
X238642857Y-73581247D02*
X238690476Y-73771723D01*
X238690476Y-73771723D02*
X238738095Y-73866961D01*
X238738095Y-73866961D02*
X238833333Y-73962200D01*
X238833333Y-73962200D02*
X238976190Y-74009819D01*
X238976190Y-74009819D02*
X239214285Y-74009819D01*
X237738095Y-73009819D02*
X238214285Y-73009819D01*
X238214285Y-73009819D02*
X238261904Y-73486009D01*
X238261904Y-73486009D02*
X238214285Y-73438390D01*
X238214285Y-73438390D02*
X238119047Y-73390771D01*
X238119047Y-73390771D02*
X237880952Y-73390771D01*
X237880952Y-73390771D02*
X237785714Y-73438390D01*
X237785714Y-73438390D02*
X237738095Y-73486009D01*
X237738095Y-73486009D02*
X237690476Y-73581247D01*
X237690476Y-73581247D02*
X237690476Y-73819342D01*
X237690476Y-73819342D02*
X237738095Y-73914580D01*
X237738095Y-73914580D02*
X237785714Y-73962200D01*
X237785714Y-73962200D02*
X237880952Y-74009819D01*
X237880952Y-74009819D02*
X238119047Y-74009819D01*
X238119047Y-74009819D02*
X238214285Y-73962200D01*
X238214285Y-73962200D02*
X238261904Y-73914580D01*
X236785714Y-73009819D02*
X237261904Y-73009819D01*
X237261904Y-73009819D02*
X237309523Y-73486009D01*
X237309523Y-73486009D02*
X237261904Y-73438390D01*
X237261904Y-73438390D02*
X237166666Y-73390771D01*
X237166666Y-73390771D02*
X236928571Y-73390771D01*
X236928571Y-73390771D02*
X236833333Y-73438390D01*
X236833333Y-73438390D02*
X236785714Y-73486009D01*
X236785714Y-73486009D02*
X236738095Y-73581247D01*
X236738095Y-73581247D02*
X236738095Y-73819342D01*
X236738095Y-73819342D02*
X236785714Y-73914580D01*
X236785714Y-73914580D02*
X236833333Y-73962200D01*
X236833333Y-73962200D02*
X236928571Y-74009819D01*
X236928571Y-74009819D02*
X237166666Y-74009819D01*
X237166666Y-74009819D02*
X237261904Y-73962200D01*
X237261904Y-73962200D02*
X237309523Y-73914580D01*
X125962319Y-68690714D02*
X124962319Y-68690714D01*
X124962319Y-68690714D02*
X124962319Y-68928809D01*
X124962319Y-68928809D02*
X125009938Y-69071666D01*
X125009938Y-69071666D02*
X125105176Y-69166904D01*
X125105176Y-69166904D02*
X125200414Y-69214523D01*
X125200414Y-69214523D02*
X125390890Y-69262142D01*
X125390890Y-69262142D02*
X125533747Y-69262142D01*
X125533747Y-69262142D02*
X125724223Y-69214523D01*
X125724223Y-69214523D02*
X125819461Y-69166904D01*
X125819461Y-69166904D02*
X125914700Y-69071666D01*
X125914700Y-69071666D02*
X125962319Y-68928809D01*
X125962319Y-68928809D02*
X125962319Y-68690714D01*
X125295652Y-70119285D02*
X125962319Y-70119285D01*
X124914700Y-69881190D02*
X125628985Y-69643095D01*
X125628985Y-69643095D02*
X125628985Y-70262142D01*
X125962319Y-70690714D02*
X125962319Y-70881190D01*
X125962319Y-70881190D02*
X125914700Y-70976428D01*
X125914700Y-70976428D02*
X125867080Y-71024047D01*
X125867080Y-71024047D02*
X125724223Y-71119285D01*
X125724223Y-71119285D02*
X125533747Y-71166904D01*
X125533747Y-71166904D02*
X125152795Y-71166904D01*
X125152795Y-71166904D02*
X125057557Y-71119285D01*
X125057557Y-71119285D02*
X125009938Y-71071666D01*
X125009938Y-71071666D02*
X124962319Y-70976428D01*
X124962319Y-70976428D02*
X124962319Y-70785952D01*
X124962319Y-70785952D02*
X125009938Y-70690714D01*
X125009938Y-70690714D02*
X125057557Y-70643095D01*
X125057557Y-70643095D02*
X125152795Y-70595476D01*
X125152795Y-70595476D02*
X125390890Y-70595476D01*
X125390890Y-70595476D02*
X125486128Y-70643095D01*
X125486128Y-70643095D02*
X125533747Y-70690714D01*
X125533747Y-70690714D02*
X125581366Y-70785952D01*
X125581366Y-70785952D02*
X125581366Y-70976428D01*
X125581366Y-70976428D02*
X125533747Y-71071666D01*
X125533747Y-71071666D02*
X125486128Y-71119285D01*
X125486128Y-71119285D02*
X125390890Y-71166904D01*
X259917319Y-77780714D02*
X258917319Y-77780714D01*
X258917319Y-77780714D02*
X258917319Y-78018809D01*
X258917319Y-78018809D02*
X258964938Y-78161666D01*
X258964938Y-78161666D02*
X259060176Y-78256904D01*
X259060176Y-78256904D02*
X259155414Y-78304523D01*
X259155414Y-78304523D02*
X259345890Y-78352142D01*
X259345890Y-78352142D02*
X259488747Y-78352142D01*
X259488747Y-78352142D02*
X259679223Y-78304523D01*
X259679223Y-78304523D02*
X259774461Y-78256904D01*
X259774461Y-78256904D02*
X259869700Y-78161666D01*
X259869700Y-78161666D02*
X259917319Y-78018809D01*
X259917319Y-78018809D02*
X259917319Y-77780714D01*
X258917319Y-79209285D02*
X258917319Y-79018809D01*
X258917319Y-79018809D02*
X258964938Y-78923571D01*
X258964938Y-78923571D02*
X259012557Y-78875952D01*
X259012557Y-78875952D02*
X259155414Y-78780714D01*
X259155414Y-78780714D02*
X259345890Y-78733095D01*
X259345890Y-78733095D02*
X259726842Y-78733095D01*
X259726842Y-78733095D02*
X259822080Y-78780714D01*
X259822080Y-78780714D02*
X259869700Y-78828333D01*
X259869700Y-78828333D02*
X259917319Y-78923571D01*
X259917319Y-78923571D02*
X259917319Y-79114047D01*
X259917319Y-79114047D02*
X259869700Y-79209285D01*
X259869700Y-79209285D02*
X259822080Y-79256904D01*
X259822080Y-79256904D02*
X259726842Y-79304523D01*
X259726842Y-79304523D02*
X259488747Y-79304523D01*
X259488747Y-79304523D02*
X259393509Y-79256904D01*
X259393509Y-79256904D02*
X259345890Y-79209285D01*
X259345890Y-79209285D02*
X259298271Y-79114047D01*
X259298271Y-79114047D02*
X259298271Y-78923571D01*
X259298271Y-78923571D02*
X259345890Y-78828333D01*
X259345890Y-78828333D02*
X259393509Y-78780714D01*
X259393509Y-78780714D02*
X259488747Y-78733095D01*
X259250652Y-80161666D02*
X259917319Y-80161666D01*
X258869700Y-79923571D02*
X259583985Y-79685476D01*
X259583985Y-79685476D02*
X259583985Y-80304523D01*
X245024819Y-30590714D02*
X244024819Y-30590714D01*
X244024819Y-30590714D02*
X244024819Y-30828809D01*
X244024819Y-30828809D02*
X244072438Y-30971666D01*
X244072438Y-30971666D02*
X244167676Y-31066904D01*
X244167676Y-31066904D02*
X244262914Y-31114523D01*
X244262914Y-31114523D02*
X244453390Y-31162142D01*
X244453390Y-31162142D02*
X244596247Y-31162142D01*
X244596247Y-31162142D02*
X244786723Y-31114523D01*
X244786723Y-31114523D02*
X244881961Y-31066904D01*
X244881961Y-31066904D02*
X244977200Y-30971666D01*
X244977200Y-30971666D02*
X245024819Y-30828809D01*
X245024819Y-30828809D02*
X245024819Y-30590714D01*
X244120057Y-31543095D02*
X244072438Y-31590714D01*
X244072438Y-31590714D02*
X244024819Y-31685952D01*
X244024819Y-31685952D02*
X244024819Y-31924047D01*
X244024819Y-31924047D02*
X244072438Y-32019285D01*
X244072438Y-32019285D02*
X244120057Y-32066904D01*
X244120057Y-32066904D02*
X244215295Y-32114523D01*
X244215295Y-32114523D02*
X244310533Y-32114523D01*
X244310533Y-32114523D02*
X244453390Y-32066904D01*
X244453390Y-32066904D02*
X245024819Y-31495476D01*
X245024819Y-31495476D02*
X245024819Y-32114523D01*
X244024819Y-32447857D02*
X244024819Y-33114523D01*
X244024819Y-33114523D02*
X245024819Y-32685952D01*
X44999819Y-12016905D02*
X43999819Y-12016905D01*
X43999819Y-12016905D02*
X43999819Y-12255000D01*
X43999819Y-12255000D02*
X44047438Y-12397857D01*
X44047438Y-12397857D02*
X44142676Y-12493095D01*
X44142676Y-12493095D02*
X44237914Y-12540714D01*
X44237914Y-12540714D02*
X44428390Y-12588333D01*
X44428390Y-12588333D02*
X44571247Y-12588333D01*
X44571247Y-12588333D02*
X44761723Y-12540714D01*
X44761723Y-12540714D02*
X44856961Y-12493095D01*
X44856961Y-12493095D02*
X44952200Y-12397857D01*
X44952200Y-12397857D02*
X44999819Y-12255000D01*
X44999819Y-12255000D02*
X44999819Y-12016905D01*
X43999819Y-12921667D02*
X43999819Y-13540714D01*
X43999819Y-13540714D02*
X44380771Y-13207381D01*
X44380771Y-13207381D02*
X44380771Y-13350238D01*
X44380771Y-13350238D02*
X44428390Y-13445476D01*
X44428390Y-13445476D02*
X44476009Y-13493095D01*
X44476009Y-13493095D02*
X44571247Y-13540714D01*
X44571247Y-13540714D02*
X44809342Y-13540714D01*
X44809342Y-13540714D02*
X44904580Y-13493095D01*
X44904580Y-13493095D02*
X44952200Y-13445476D01*
X44952200Y-13445476D02*
X44999819Y-13350238D01*
X44999819Y-13350238D02*
X44999819Y-13064524D01*
X44999819Y-13064524D02*
X44952200Y-12969286D01*
X44952200Y-12969286D02*
X44904580Y-12921667D01*
X16981666Y-7959819D02*
X17314999Y-7483628D01*
X17553094Y-7959819D02*
X17553094Y-6959819D01*
X17553094Y-6959819D02*
X17172142Y-6959819D01*
X17172142Y-6959819D02*
X17076904Y-7007438D01*
X17076904Y-7007438D02*
X17029285Y-7055057D01*
X17029285Y-7055057D02*
X16981666Y-7150295D01*
X16981666Y-7150295D02*
X16981666Y-7293152D01*
X16981666Y-7293152D02*
X17029285Y-7388390D01*
X17029285Y-7388390D02*
X17076904Y-7436009D01*
X17076904Y-7436009D02*
X17172142Y-7483628D01*
X17172142Y-7483628D02*
X17553094Y-7483628D01*
X16124523Y-6959819D02*
X16314999Y-6959819D01*
X16314999Y-6959819D02*
X16410237Y-7007438D01*
X16410237Y-7007438D02*
X16457856Y-7055057D01*
X16457856Y-7055057D02*
X16553094Y-7197914D01*
X16553094Y-7197914D02*
X16600713Y-7388390D01*
X16600713Y-7388390D02*
X16600713Y-7769342D01*
X16600713Y-7769342D02*
X16553094Y-7864580D01*
X16553094Y-7864580D02*
X16505475Y-7912200D01*
X16505475Y-7912200D02*
X16410237Y-7959819D01*
X16410237Y-7959819D02*
X16219761Y-7959819D01*
X16219761Y-7959819D02*
X16124523Y-7912200D01*
X16124523Y-7912200D02*
X16076904Y-7864580D01*
X16076904Y-7864580D02*
X16029285Y-7769342D01*
X16029285Y-7769342D02*
X16029285Y-7531247D01*
X16029285Y-7531247D02*
X16076904Y-7436009D01*
X16076904Y-7436009D02*
X16124523Y-7388390D01*
X16124523Y-7388390D02*
X16219761Y-7340771D01*
X16219761Y-7340771D02*
X16410237Y-7340771D01*
X16410237Y-7340771D02*
X16505475Y-7388390D01*
X16505475Y-7388390D02*
X16553094Y-7436009D01*
X16553094Y-7436009D02*
X16600713Y-7531247D01*
X64049819Y-12016905D02*
X63049819Y-12016905D01*
X63049819Y-12016905D02*
X63049819Y-12255000D01*
X63049819Y-12255000D02*
X63097438Y-12397857D01*
X63097438Y-12397857D02*
X63192676Y-12493095D01*
X63192676Y-12493095D02*
X63287914Y-12540714D01*
X63287914Y-12540714D02*
X63478390Y-12588333D01*
X63478390Y-12588333D02*
X63621247Y-12588333D01*
X63621247Y-12588333D02*
X63811723Y-12540714D01*
X63811723Y-12540714D02*
X63906961Y-12493095D01*
X63906961Y-12493095D02*
X64002200Y-12397857D01*
X64002200Y-12397857D02*
X64049819Y-12255000D01*
X64049819Y-12255000D02*
X64049819Y-12016905D01*
X63383152Y-13445476D02*
X64049819Y-13445476D01*
X63002200Y-13207381D02*
X63716485Y-12969286D01*
X63716485Y-12969286D02*
X63716485Y-13588333D01*
X97387319Y-49640714D02*
X96387319Y-49640714D01*
X96387319Y-49640714D02*
X96387319Y-49878809D01*
X96387319Y-49878809D02*
X96434938Y-50021666D01*
X96434938Y-50021666D02*
X96530176Y-50116904D01*
X96530176Y-50116904D02*
X96625414Y-50164523D01*
X96625414Y-50164523D02*
X96815890Y-50212142D01*
X96815890Y-50212142D02*
X96958747Y-50212142D01*
X96958747Y-50212142D02*
X97149223Y-50164523D01*
X97149223Y-50164523D02*
X97244461Y-50116904D01*
X97244461Y-50116904D02*
X97339700Y-50021666D01*
X97339700Y-50021666D02*
X97387319Y-49878809D01*
X97387319Y-49878809D02*
X97387319Y-49640714D01*
X96387319Y-50545476D02*
X96387319Y-51164523D01*
X96387319Y-51164523D02*
X96768271Y-50831190D01*
X96768271Y-50831190D02*
X96768271Y-50974047D01*
X96768271Y-50974047D02*
X96815890Y-51069285D01*
X96815890Y-51069285D02*
X96863509Y-51116904D01*
X96863509Y-51116904D02*
X96958747Y-51164523D01*
X96958747Y-51164523D02*
X97196842Y-51164523D01*
X97196842Y-51164523D02*
X97292080Y-51116904D01*
X97292080Y-51116904D02*
X97339700Y-51069285D01*
X97339700Y-51069285D02*
X97387319Y-50974047D01*
X97387319Y-50974047D02*
X97387319Y-50688333D01*
X97387319Y-50688333D02*
X97339700Y-50593095D01*
X97339700Y-50593095D02*
X97292080Y-50545476D01*
X96387319Y-51497857D02*
X96387319Y-52116904D01*
X96387319Y-52116904D02*
X96768271Y-51783571D01*
X96768271Y-51783571D02*
X96768271Y-51926428D01*
X96768271Y-51926428D02*
X96815890Y-52021666D01*
X96815890Y-52021666D02*
X96863509Y-52069285D01*
X96863509Y-52069285D02*
X96958747Y-52116904D01*
X96958747Y-52116904D02*
X97196842Y-52116904D01*
X97196842Y-52116904D02*
X97292080Y-52069285D01*
X97292080Y-52069285D02*
X97339700Y-52021666D01*
X97339700Y-52021666D02*
X97387319Y-51926428D01*
X97387319Y-51926428D02*
X97387319Y-51640714D01*
X97387319Y-51640714D02*
X97339700Y-51545476D01*
X97339700Y-51545476D02*
X97292080Y-51497857D01*
X54524819Y-30590714D02*
X53524819Y-30590714D01*
X53524819Y-30590714D02*
X53524819Y-30828809D01*
X53524819Y-30828809D02*
X53572438Y-30971666D01*
X53572438Y-30971666D02*
X53667676Y-31066904D01*
X53667676Y-31066904D02*
X53762914Y-31114523D01*
X53762914Y-31114523D02*
X53953390Y-31162142D01*
X53953390Y-31162142D02*
X54096247Y-31162142D01*
X54096247Y-31162142D02*
X54286723Y-31114523D01*
X54286723Y-31114523D02*
X54381961Y-31066904D01*
X54381961Y-31066904D02*
X54477200Y-30971666D01*
X54477200Y-30971666D02*
X54524819Y-30828809D01*
X54524819Y-30828809D02*
X54524819Y-30590714D01*
X54524819Y-32114523D02*
X54524819Y-31543095D01*
X54524819Y-31828809D02*
X53524819Y-31828809D01*
X53524819Y-31828809D02*
X53667676Y-31733571D01*
X53667676Y-31733571D02*
X53762914Y-31638333D01*
X53762914Y-31638333D02*
X53810533Y-31543095D01*
X53524819Y-32447857D02*
X53524819Y-33114523D01*
X53524819Y-33114523D02*
X54524819Y-32685952D01*
X256676785Y-35909819D02*
X256676785Y-34909819D01*
X256676785Y-34909819D02*
X256438690Y-34909819D01*
X256438690Y-34909819D02*
X256295833Y-34957438D01*
X256295833Y-34957438D02*
X256200595Y-35052676D01*
X256200595Y-35052676D02*
X256152976Y-35147914D01*
X256152976Y-35147914D02*
X256105357Y-35338390D01*
X256105357Y-35338390D02*
X256105357Y-35481247D01*
X256105357Y-35481247D02*
X256152976Y-35671723D01*
X256152976Y-35671723D02*
X256200595Y-35766961D01*
X256200595Y-35766961D02*
X256295833Y-35862200D01*
X256295833Y-35862200D02*
X256438690Y-35909819D01*
X256438690Y-35909819D02*
X256676785Y-35909819D01*
X255724404Y-35005057D02*
X255676785Y-34957438D01*
X255676785Y-34957438D02*
X255581547Y-34909819D01*
X255581547Y-34909819D02*
X255343452Y-34909819D01*
X255343452Y-34909819D02*
X255248214Y-34957438D01*
X255248214Y-34957438D02*
X255200595Y-35005057D01*
X255200595Y-35005057D02*
X255152976Y-35100295D01*
X255152976Y-35100295D02*
X255152976Y-35195533D01*
X255152976Y-35195533D02*
X255200595Y-35338390D01*
X255200595Y-35338390D02*
X255772023Y-35909819D01*
X255772023Y-35909819D02*
X255152976Y-35909819D01*
X254581547Y-35338390D02*
X254676785Y-35290771D01*
X254676785Y-35290771D02*
X254724404Y-35243152D01*
X254724404Y-35243152D02*
X254772023Y-35147914D01*
X254772023Y-35147914D02*
X254772023Y-35100295D01*
X254772023Y-35100295D02*
X254724404Y-35005057D01*
X254724404Y-35005057D02*
X254676785Y-34957438D01*
X254676785Y-34957438D02*
X254581547Y-34909819D01*
X254581547Y-34909819D02*
X254391071Y-34909819D01*
X254391071Y-34909819D02*
X254295833Y-34957438D01*
X254295833Y-34957438D02*
X254248214Y-35005057D01*
X254248214Y-35005057D02*
X254200595Y-35100295D01*
X254200595Y-35100295D02*
X254200595Y-35147914D01*
X254200595Y-35147914D02*
X254248214Y-35243152D01*
X254248214Y-35243152D02*
X254295833Y-35290771D01*
X254295833Y-35290771D02*
X254391071Y-35338390D01*
X254391071Y-35338390D02*
X254581547Y-35338390D01*
X254581547Y-35338390D02*
X254676785Y-35386009D01*
X254676785Y-35386009D02*
X254724404Y-35433628D01*
X254724404Y-35433628D02*
X254772023Y-35528866D01*
X254772023Y-35528866D02*
X254772023Y-35719342D01*
X254772023Y-35719342D02*
X254724404Y-35814580D01*
X254724404Y-35814580D02*
X254676785Y-35862200D01*
X254676785Y-35862200D02*
X254581547Y-35909819D01*
X254581547Y-35909819D02*
X254391071Y-35909819D01*
X254391071Y-35909819D02*
X254295833Y-35862200D01*
X254295833Y-35862200D02*
X254248214Y-35814580D01*
X254248214Y-35814580D02*
X254200595Y-35719342D01*
X254200595Y-35719342D02*
X254200595Y-35528866D01*
X254200595Y-35528866D02*
X254248214Y-35433628D01*
X254248214Y-35433628D02*
X254295833Y-35386009D01*
X254295833Y-35386009D02*
X254391071Y-35338390D01*
X236104819Y-77780714D02*
X235104819Y-77780714D01*
X235104819Y-77780714D02*
X235104819Y-78018809D01*
X235104819Y-78018809D02*
X235152438Y-78161666D01*
X235152438Y-78161666D02*
X235247676Y-78256904D01*
X235247676Y-78256904D02*
X235342914Y-78304523D01*
X235342914Y-78304523D02*
X235533390Y-78352142D01*
X235533390Y-78352142D02*
X235676247Y-78352142D01*
X235676247Y-78352142D02*
X235866723Y-78304523D01*
X235866723Y-78304523D02*
X235961961Y-78256904D01*
X235961961Y-78256904D02*
X236057200Y-78161666D01*
X236057200Y-78161666D02*
X236104819Y-78018809D01*
X236104819Y-78018809D02*
X236104819Y-77780714D01*
X235104819Y-79209285D02*
X235104819Y-79018809D01*
X235104819Y-79018809D02*
X235152438Y-78923571D01*
X235152438Y-78923571D02*
X235200057Y-78875952D01*
X235200057Y-78875952D02*
X235342914Y-78780714D01*
X235342914Y-78780714D02*
X235533390Y-78733095D01*
X235533390Y-78733095D02*
X235914342Y-78733095D01*
X235914342Y-78733095D02*
X236009580Y-78780714D01*
X236009580Y-78780714D02*
X236057200Y-78828333D01*
X236057200Y-78828333D02*
X236104819Y-78923571D01*
X236104819Y-78923571D02*
X236104819Y-79114047D01*
X236104819Y-79114047D02*
X236057200Y-79209285D01*
X236057200Y-79209285D02*
X236009580Y-79256904D01*
X236009580Y-79256904D02*
X235914342Y-79304523D01*
X235914342Y-79304523D02*
X235676247Y-79304523D01*
X235676247Y-79304523D02*
X235581009Y-79256904D01*
X235581009Y-79256904D02*
X235533390Y-79209285D01*
X235533390Y-79209285D02*
X235485771Y-79114047D01*
X235485771Y-79114047D02*
X235485771Y-78923571D01*
X235485771Y-78923571D02*
X235533390Y-78828333D01*
X235533390Y-78828333D02*
X235581009Y-78780714D01*
X235581009Y-78780714D02*
X235676247Y-78733095D01*
X235104819Y-79637857D02*
X235104819Y-80256904D01*
X235104819Y-80256904D02*
X235485771Y-79923571D01*
X235485771Y-79923571D02*
X235485771Y-80066428D01*
X235485771Y-80066428D02*
X235533390Y-80161666D01*
X235533390Y-80161666D02*
X235581009Y-80209285D01*
X235581009Y-80209285D02*
X235676247Y-80256904D01*
X235676247Y-80256904D02*
X235914342Y-80256904D01*
X235914342Y-80256904D02*
X236009580Y-80209285D01*
X236009580Y-80209285D02*
X236057200Y-80161666D01*
X236057200Y-80161666D02*
X236104819Y-80066428D01*
X236104819Y-80066428D02*
X236104819Y-79780714D01*
X236104819Y-79780714D02*
X236057200Y-79685476D01*
X236057200Y-79685476D02*
X236009580Y-79637857D01*
X59287319Y-49640714D02*
X58287319Y-49640714D01*
X58287319Y-49640714D02*
X58287319Y-49878809D01*
X58287319Y-49878809D02*
X58334938Y-50021666D01*
X58334938Y-50021666D02*
X58430176Y-50116904D01*
X58430176Y-50116904D02*
X58525414Y-50164523D01*
X58525414Y-50164523D02*
X58715890Y-50212142D01*
X58715890Y-50212142D02*
X58858747Y-50212142D01*
X58858747Y-50212142D02*
X59049223Y-50164523D01*
X59049223Y-50164523D02*
X59144461Y-50116904D01*
X59144461Y-50116904D02*
X59239700Y-50021666D01*
X59239700Y-50021666D02*
X59287319Y-49878809D01*
X59287319Y-49878809D02*
X59287319Y-49640714D01*
X58287319Y-50545476D02*
X58287319Y-51164523D01*
X58287319Y-51164523D02*
X58668271Y-50831190D01*
X58668271Y-50831190D02*
X58668271Y-50974047D01*
X58668271Y-50974047D02*
X58715890Y-51069285D01*
X58715890Y-51069285D02*
X58763509Y-51116904D01*
X58763509Y-51116904D02*
X58858747Y-51164523D01*
X58858747Y-51164523D02*
X59096842Y-51164523D01*
X59096842Y-51164523D02*
X59192080Y-51116904D01*
X59192080Y-51116904D02*
X59239700Y-51069285D01*
X59239700Y-51069285D02*
X59287319Y-50974047D01*
X59287319Y-50974047D02*
X59287319Y-50688333D01*
X59287319Y-50688333D02*
X59239700Y-50593095D01*
X59239700Y-50593095D02*
X59192080Y-50545476D01*
X59287319Y-52116904D02*
X59287319Y-51545476D01*
X59287319Y-51831190D02*
X58287319Y-51831190D01*
X58287319Y-51831190D02*
X58430176Y-51735952D01*
X58430176Y-51735952D02*
X58525414Y-51640714D01*
X58525414Y-51640714D02*
X58573033Y-51545476D01*
X29123569Y-49640714D02*
X28123569Y-49640714D01*
X28123569Y-49640714D02*
X28123569Y-49878809D01*
X28123569Y-49878809D02*
X28171188Y-50021666D01*
X28171188Y-50021666D02*
X28266426Y-50116904D01*
X28266426Y-50116904D02*
X28361664Y-50164523D01*
X28361664Y-50164523D02*
X28552140Y-50212142D01*
X28552140Y-50212142D02*
X28694997Y-50212142D01*
X28694997Y-50212142D02*
X28885473Y-50164523D01*
X28885473Y-50164523D02*
X28980711Y-50116904D01*
X28980711Y-50116904D02*
X29075950Y-50021666D01*
X29075950Y-50021666D02*
X29123569Y-49878809D01*
X29123569Y-49878809D02*
X29123569Y-49640714D01*
X28218807Y-50593095D02*
X28171188Y-50640714D01*
X28171188Y-50640714D02*
X28123569Y-50735952D01*
X28123569Y-50735952D02*
X28123569Y-50974047D01*
X28123569Y-50974047D02*
X28171188Y-51069285D01*
X28171188Y-51069285D02*
X28218807Y-51116904D01*
X28218807Y-51116904D02*
X28314045Y-51164523D01*
X28314045Y-51164523D02*
X28409283Y-51164523D01*
X28409283Y-51164523D02*
X28552140Y-51116904D01*
X28552140Y-51116904D02*
X29123569Y-50545476D01*
X29123569Y-50545476D02*
X29123569Y-51164523D01*
X29123569Y-51640714D02*
X29123569Y-51831190D01*
X29123569Y-51831190D02*
X29075950Y-51926428D01*
X29075950Y-51926428D02*
X29028330Y-51974047D01*
X29028330Y-51974047D02*
X28885473Y-52069285D01*
X28885473Y-52069285D02*
X28694997Y-52116904D01*
X28694997Y-52116904D02*
X28314045Y-52116904D01*
X28314045Y-52116904D02*
X28218807Y-52069285D01*
X28218807Y-52069285D02*
X28171188Y-52021666D01*
X28171188Y-52021666D02*
X28123569Y-51926428D01*
X28123569Y-51926428D02*
X28123569Y-51735952D01*
X28123569Y-51735952D02*
X28171188Y-51640714D01*
X28171188Y-51640714D02*
X28218807Y-51593095D01*
X28218807Y-51593095D02*
X28314045Y-51545476D01*
X28314045Y-51545476D02*
X28552140Y-51545476D01*
X28552140Y-51545476D02*
X28647378Y-51593095D01*
X28647378Y-51593095D02*
X28694997Y-51640714D01*
X28694997Y-51640714D02*
X28742616Y-51735952D01*
X28742616Y-51735952D02*
X28742616Y-51926428D01*
X28742616Y-51926428D02*
X28694997Y-52021666D01*
X28694997Y-52021666D02*
X28647378Y-52069285D01*
X28647378Y-52069285D02*
X28552140Y-52116904D01*
X230737319Y-49640714D02*
X229737319Y-49640714D01*
X229737319Y-49640714D02*
X229737319Y-49878809D01*
X229737319Y-49878809D02*
X229784938Y-50021666D01*
X229784938Y-50021666D02*
X229880176Y-50116904D01*
X229880176Y-50116904D02*
X229975414Y-50164523D01*
X229975414Y-50164523D02*
X230165890Y-50212142D01*
X230165890Y-50212142D02*
X230308747Y-50212142D01*
X230308747Y-50212142D02*
X230499223Y-50164523D01*
X230499223Y-50164523D02*
X230594461Y-50116904D01*
X230594461Y-50116904D02*
X230689700Y-50021666D01*
X230689700Y-50021666D02*
X230737319Y-49878809D01*
X230737319Y-49878809D02*
X230737319Y-49640714D01*
X230070652Y-51069285D02*
X230737319Y-51069285D01*
X229689700Y-50831190D02*
X230403985Y-50593095D01*
X230403985Y-50593095D02*
X230403985Y-51212142D01*
X229737319Y-51783571D02*
X229737319Y-51878809D01*
X229737319Y-51878809D02*
X229784938Y-51974047D01*
X229784938Y-51974047D02*
X229832557Y-52021666D01*
X229832557Y-52021666D02*
X229927795Y-52069285D01*
X229927795Y-52069285D02*
X230118271Y-52116904D01*
X230118271Y-52116904D02*
X230356366Y-52116904D01*
X230356366Y-52116904D02*
X230546842Y-52069285D01*
X230546842Y-52069285D02*
X230642080Y-52021666D01*
X230642080Y-52021666D02*
X230689700Y-51974047D01*
X230689700Y-51974047D02*
X230737319Y-51878809D01*
X230737319Y-51878809D02*
X230737319Y-51783571D01*
X230737319Y-51783571D02*
X230689700Y-51688333D01*
X230689700Y-51688333D02*
X230642080Y-51640714D01*
X230642080Y-51640714D02*
X230546842Y-51593095D01*
X230546842Y-51593095D02*
X230356366Y-51545476D01*
X230356366Y-51545476D02*
X230118271Y-51545476D01*
X230118271Y-51545476D02*
X229927795Y-51593095D01*
X229927795Y-51593095D02*
X229832557Y-51640714D01*
X229832557Y-51640714D02*
X229784938Y-51688333D01*
X229784938Y-51688333D02*
X229737319Y-51783571D01*
X87862319Y-68690714D02*
X86862319Y-68690714D01*
X86862319Y-68690714D02*
X86862319Y-68928809D01*
X86862319Y-68928809D02*
X86909938Y-69071666D01*
X86909938Y-69071666D02*
X87005176Y-69166904D01*
X87005176Y-69166904D02*
X87100414Y-69214523D01*
X87100414Y-69214523D02*
X87290890Y-69262142D01*
X87290890Y-69262142D02*
X87433747Y-69262142D01*
X87433747Y-69262142D02*
X87624223Y-69214523D01*
X87624223Y-69214523D02*
X87719461Y-69166904D01*
X87719461Y-69166904D02*
X87814700Y-69071666D01*
X87814700Y-69071666D02*
X87862319Y-68928809D01*
X87862319Y-68928809D02*
X87862319Y-68690714D01*
X87195652Y-70119285D02*
X87862319Y-70119285D01*
X86814700Y-69881190D02*
X87528985Y-69643095D01*
X87528985Y-69643095D02*
X87528985Y-70262142D01*
X86862319Y-70547857D02*
X86862319Y-71214523D01*
X86862319Y-71214523D02*
X87862319Y-70785952D01*
X159299819Y-12016905D02*
X158299819Y-12016905D01*
X158299819Y-12016905D02*
X158299819Y-12255000D01*
X158299819Y-12255000D02*
X158347438Y-12397857D01*
X158347438Y-12397857D02*
X158442676Y-12493095D01*
X158442676Y-12493095D02*
X158537914Y-12540714D01*
X158537914Y-12540714D02*
X158728390Y-12588333D01*
X158728390Y-12588333D02*
X158871247Y-12588333D01*
X158871247Y-12588333D02*
X159061723Y-12540714D01*
X159061723Y-12540714D02*
X159156961Y-12493095D01*
X159156961Y-12493095D02*
X159252200Y-12397857D01*
X159252200Y-12397857D02*
X159299819Y-12255000D01*
X159299819Y-12255000D02*
X159299819Y-12016905D01*
X159299819Y-13064524D02*
X159299819Y-13255000D01*
X159299819Y-13255000D02*
X159252200Y-13350238D01*
X159252200Y-13350238D02*
X159204580Y-13397857D01*
X159204580Y-13397857D02*
X159061723Y-13493095D01*
X159061723Y-13493095D02*
X158871247Y-13540714D01*
X158871247Y-13540714D02*
X158490295Y-13540714D01*
X158490295Y-13540714D02*
X158395057Y-13493095D01*
X158395057Y-13493095D02*
X158347438Y-13445476D01*
X158347438Y-13445476D02*
X158299819Y-13350238D01*
X158299819Y-13350238D02*
X158299819Y-13159762D01*
X158299819Y-13159762D02*
X158347438Y-13064524D01*
X158347438Y-13064524D02*
X158395057Y-13016905D01*
X158395057Y-13016905D02*
X158490295Y-12969286D01*
X158490295Y-12969286D02*
X158728390Y-12969286D01*
X158728390Y-12969286D02*
X158823628Y-13016905D01*
X158823628Y-13016905D02*
X158871247Y-13064524D01*
X158871247Y-13064524D02*
X158918866Y-13159762D01*
X158918866Y-13159762D02*
X158918866Y-13350238D01*
X158918866Y-13350238D02*
X158871247Y-13445476D01*
X158871247Y-13445476D02*
X158823628Y-13493095D01*
X158823628Y-13493095D02*
X158728390Y-13540714D01*
X49762319Y-68690714D02*
X48762319Y-68690714D01*
X48762319Y-68690714D02*
X48762319Y-68928809D01*
X48762319Y-68928809D02*
X48809938Y-69071666D01*
X48809938Y-69071666D02*
X48905176Y-69166904D01*
X48905176Y-69166904D02*
X49000414Y-69214523D01*
X49000414Y-69214523D02*
X49190890Y-69262142D01*
X49190890Y-69262142D02*
X49333747Y-69262142D01*
X49333747Y-69262142D02*
X49524223Y-69214523D01*
X49524223Y-69214523D02*
X49619461Y-69166904D01*
X49619461Y-69166904D02*
X49714700Y-69071666D01*
X49714700Y-69071666D02*
X49762319Y-68928809D01*
X49762319Y-68928809D02*
X49762319Y-68690714D01*
X49095652Y-70119285D02*
X49762319Y-70119285D01*
X48714700Y-69881190D02*
X49428985Y-69643095D01*
X49428985Y-69643095D02*
X49428985Y-70262142D01*
X48762319Y-71119285D02*
X48762319Y-70643095D01*
X48762319Y-70643095D02*
X49238509Y-70595476D01*
X49238509Y-70595476D02*
X49190890Y-70643095D01*
X49190890Y-70643095D02*
X49143271Y-70738333D01*
X49143271Y-70738333D02*
X49143271Y-70976428D01*
X49143271Y-70976428D02*
X49190890Y-71071666D01*
X49190890Y-71071666D02*
X49238509Y-71119285D01*
X49238509Y-71119285D02*
X49333747Y-71166904D01*
X49333747Y-71166904D02*
X49571842Y-71166904D01*
X49571842Y-71166904D02*
X49667080Y-71119285D01*
X49667080Y-71119285D02*
X49714700Y-71071666D01*
X49714700Y-71071666D02*
X49762319Y-70976428D01*
X49762319Y-70976428D02*
X49762319Y-70738333D01*
X49762319Y-70738333D02*
X49714700Y-70643095D01*
X49714700Y-70643095D02*
X49667080Y-70595476D01*
X221212319Y-68690714D02*
X220212319Y-68690714D01*
X220212319Y-68690714D02*
X220212319Y-68928809D01*
X220212319Y-68928809D02*
X220259938Y-69071666D01*
X220259938Y-69071666D02*
X220355176Y-69166904D01*
X220355176Y-69166904D02*
X220450414Y-69214523D01*
X220450414Y-69214523D02*
X220640890Y-69262142D01*
X220640890Y-69262142D02*
X220783747Y-69262142D01*
X220783747Y-69262142D02*
X220974223Y-69214523D01*
X220974223Y-69214523D02*
X221069461Y-69166904D01*
X221069461Y-69166904D02*
X221164700Y-69071666D01*
X221164700Y-69071666D02*
X221212319Y-68928809D01*
X221212319Y-68928809D02*
X221212319Y-68690714D01*
X220212319Y-70166904D02*
X220212319Y-69690714D01*
X220212319Y-69690714D02*
X220688509Y-69643095D01*
X220688509Y-69643095D02*
X220640890Y-69690714D01*
X220640890Y-69690714D02*
X220593271Y-69785952D01*
X220593271Y-69785952D02*
X220593271Y-70024047D01*
X220593271Y-70024047D02*
X220640890Y-70119285D01*
X220640890Y-70119285D02*
X220688509Y-70166904D01*
X220688509Y-70166904D02*
X220783747Y-70214523D01*
X220783747Y-70214523D02*
X221021842Y-70214523D01*
X221021842Y-70214523D02*
X221117080Y-70166904D01*
X221117080Y-70166904D02*
X221164700Y-70119285D01*
X221164700Y-70119285D02*
X221212319Y-70024047D01*
X221212319Y-70024047D02*
X221212319Y-69785952D01*
X221212319Y-69785952D02*
X221164700Y-69690714D01*
X221164700Y-69690714D02*
X221117080Y-69643095D01*
X220545652Y-71071666D02*
X221212319Y-71071666D01*
X220164700Y-70833571D02*
X220878985Y-70595476D01*
X220878985Y-70595476D02*
X220878985Y-71214523D01*
X121199819Y-12016905D02*
X120199819Y-12016905D01*
X120199819Y-12016905D02*
X120199819Y-12255000D01*
X120199819Y-12255000D02*
X120247438Y-12397857D01*
X120247438Y-12397857D02*
X120342676Y-12493095D01*
X120342676Y-12493095D02*
X120437914Y-12540714D01*
X120437914Y-12540714D02*
X120628390Y-12588333D01*
X120628390Y-12588333D02*
X120771247Y-12588333D01*
X120771247Y-12588333D02*
X120961723Y-12540714D01*
X120961723Y-12540714D02*
X121056961Y-12493095D01*
X121056961Y-12493095D02*
X121152200Y-12397857D01*
X121152200Y-12397857D02*
X121199819Y-12255000D01*
X121199819Y-12255000D02*
X121199819Y-12016905D01*
X120199819Y-12921667D02*
X120199819Y-13588333D01*
X120199819Y-13588333D02*
X121199819Y-13159762D01*
X202162319Y-68690714D02*
X201162319Y-68690714D01*
X201162319Y-68690714D02*
X201162319Y-68928809D01*
X201162319Y-68928809D02*
X201209938Y-69071666D01*
X201209938Y-69071666D02*
X201305176Y-69166904D01*
X201305176Y-69166904D02*
X201400414Y-69214523D01*
X201400414Y-69214523D02*
X201590890Y-69262142D01*
X201590890Y-69262142D02*
X201733747Y-69262142D01*
X201733747Y-69262142D02*
X201924223Y-69214523D01*
X201924223Y-69214523D02*
X202019461Y-69166904D01*
X202019461Y-69166904D02*
X202114700Y-69071666D01*
X202114700Y-69071666D02*
X202162319Y-68928809D01*
X202162319Y-68928809D02*
X202162319Y-68690714D01*
X201162319Y-70166904D02*
X201162319Y-69690714D01*
X201162319Y-69690714D02*
X201638509Y-69643095D01*
X201638509Y-69643095D02*
X201590890Y-69690714D01*
X201590890Y-69690714D02*
X201543271Y-69785952D01*
X201543271Y-69785952D02*
X201543271Y-70024047D01*
X201543271Y-70024047D02*
X201590890Y-70119285D01*
X201590890Y-70119285D02*
X201638509Y-70166904D01*
X201638509Y-70166904D02*
X201733747Y-70214523D01*
X201733747Y-70214523D02*
X201971842Y-70214523D01*
X201971842Y-70214523D02*
X202067080Y-70166904D01*
X202067080Y-70166904D02*
X202114700Y-70119285D01*
X202114700Y-70119285D02*
X202162319Y-70024047D01*
X202162319Y-70024047D02*
X202162319Y-69785952D01*
X202162319Y-69785952D02*
X202114700Y-69690714D01*
X202114700Y-69690714D02*
X202067080Y-69643095D01*
X201162319Y-70547857D02*
X201162319Y-71166904D01*
X201162319Y-71166904D02*
X201543271Y-70833571D01*
X201543271Y-70833571D02*
X201543271Y-70976428D01*
X201543271Y-70976428D02*
X201590890Y-71071666D01*
X201590890Y-71071666D02*
X201638509Y-71119285D01*
X201638509Y-71119285D02*
X201733747Y-71166904D01*
X201733747Y-71166904D02*
X201971842Y-71166904D01*
X201971842Y-71166904D02*
X202067080Y-71119285D01*
X202067080Y-71119285D02*
X202114700Y-71071666D01*
X202114700Y-71071666D02*
X202162319Y-70976428D01*
X202162319Y-70976428D02*
X202162319Y-70690714D01*
X202162319Y-70690714D02*
X202114700Y-70595476D01*
X202114700Y-70595476D02*
X202067080Y-70547857D01*
X187874819Y-30590714D02*
X186874819Y-30590714D01*
X186874819Y-30590714D02*
X186874819Y-30828809D01*
X186874819Y-30828809D02*
X186922438Y-30971666D01*
X186922438Y-30971666D02*
X187017676Y-31066904D01*
X187017676Y-31066904D02*
X187112914Y-31114523D01*
X187112914Y-31114523D02*
X187303390Y-31162142D01*
X187303390Y-31162142D02*
X187446247Y-31162142D01*
X187446247Y-31162142D02*
X187636723Y-31114523D01*
X187636723Y-31114523D02*
X187731961Y-31066904D01*
X187731961Y-31066904D02*
X187827200Y-30971666D01*
X187827200Y-30971666D02*
X187874819Y-30828809D01*
X187874819Y-30828809D02*
X187874819Y-30590714D01*
X186970057Y-31543095D02*
X186922438Y-31590714D01*
X186922438Y-31590714D02*
X186874819Y-31685952D01*
X186874819Y-31685952D02*
X186874819Y-31924047D01*
X186874819Y-31924047D02*
X186922438Y-32019285D01*
X186922438Y-32019285D02*
X186970057Y-32066904D01*
X186970057Y-32066904D02*
X187065295Y-32114523D01*
X187065295Y-32114523D02*
X187160533Y-32114523D01*
X187160533Y-32114523D02*
X187303390Y-32066904D01*
X187303390Y-32066904D02*
X187874819Y-31495476D01*
X187874819Y-31495476D02*
X187874819Y-32114523D01*
X187208152Y-32971666D02*
X187874819Y-32971666D01*
X186827200Y-32733571D02*
X187541485Y-32495476D01*
X187541485Y-32495476D02*
X187541485Y-33114523D01*
X211687319Y-49640714D02*
X210687319Y-49640714D01*
X210687319Y-49640714D02*
X210687319Y-49878809D01*
X210687319Y-49878809D02*
X210734938Y-50021666D01*
X210734938Y-50021666D02*
X210830176Y-50116904D01*
X210830176Y-50116904D02*
X210925414Y-50164523D01*
X210925414Y-50164523D02*
X211115890Y-50212142D01*
X211115890Y-50212142D02*
X211258747Y-50212142D01*
X211258747Y-50212142D02*
X211449223Y-50164523D01*
X211449223Y-50164523D02*
X211544461Y-50116904D01*
X211544461Y-50116904D02*
X211639700Y-50021666D01*
X211639700Y-50021666D02*
X211687319Y-49878809D01*
X211687319Y-49878809D02*
X211687319Y-49640714D01*
X210687319Y-50545476D02*
X210687319Y-51164523D01*
X210687319Y-51164523D02*
X211068271Y-50831190D01*
X211068271Y-50831190D02*
X211068271Y-50974047D01*
X211068271Y-50974047D02*
X211115890Y-51069285D01*
X211115890Y-51069285D02*
X211163509Y-51116904D01*
X211163509Y-51116904D02*
X211258747Y-51164523D01*
X211258747Y-51164523D02*
X211496842Y-51164523D01*
X211496842Y-51164523D02*
X211592080Y-51116904D01*
X211592080Y-51116904D02*
X211639700Y-51069285D01*
X211639700Y-51069285D02*
X211687319Y-50974047D01*
X211687319Y-50974047D02*
X211687319Y-50688333D01*
X211687319Y-50688333D02*
X211639700Y-50593095D01*
X211639700Y-50593095D02*
X211592080Y-50545476D01*
X211687319Y-51640714D02*
X211687319Y-51831190D01*
X211687319Y-51831190D02*
X211639700Y-51926428D01*
X211639700Y-51926428D02*
X211592080Y-51974047D01*
X211592080Y-51974047D02*
X211449223Y-52069285D01*
X211449223Y-52069285D02*
X211258747Y-52116904D01*
X211258747Y-52116904D02*
X210877795Y-52116904D01*
X210877795Y-52116904D02*
X210782557Y-52069285D01*
X210782557Y-52069285D02*
X210734938Y-52021666D01*
X210734938Y-52021666D02*
X210687319Y-51926428D01*
X210687319Y-51926428D02*
X210687319Y-51735952D01*
X210687319Y-51735952D02*
X210734938Y-51640714D01*
X210734938Y-51640714D02*
X210782557Y-51593095D01*
X210782557Y-51593095D02*
X210877795Y-51545476D01*
X210877795Y-51545476D02*
X211115890Y-51545476D01*
X211115890Y-51545476D02*
X211211128Y-51593095D01*
X211211128Y-51593095D02*
X211258747Y-51640714D01*
X211258747Y-51640714D02*
X211306366Y-51735952D01*
X211306366Y-51735952D02*
X211306366Y-51926428D01*
X211306366Y-51926428D02*
X211258747Y-52021666D01*
X211258747Y-52021666D02*
X211211128Y-52069285D01*
X211211128Y-52069285D02*
X211115890Y-52116904D01*
X130724819Y-30590714D02*
X129724819Y-30590714D01*
X129724819Y-30590714D02*
X129724819Y-30828809D01*
X129724819Y-30828809D02*
X129772438Y-30971666D01*
X129772438Y-30971666D02*
X129867676Y-31066904D01*
X129867676Y-31066904D02*
X129962914Y-31114523D01*
X129962914Y-31114523D02*
X130153390Y-31162142D01*
X130153390Y-31162142D02*
X130296247Y-31162142D01*
X130296247Y-31162142D02*
X130486723Y-31114523D01*
X130486723Y-31114523D02*
X130581961Y-31066904D01*
X130581961Y-31066904D02*
X130677200Y-30971666D01*
X130677200Y-30971666D02*
X130724819Y-30828809D01*
X130724819Y-30828809D02*
X130724819Y-30590714D01*
X129820057Y-31543095D02*
X129772438Y-31590714D01*
X129772438Y-31590714D02*
X129724819Y-31685952D01*
X129724819Y-31685952D02*
X129724819Y-31924047D01*
X129724819Y-31924047D02*
X129772438Y-32019285D01*
X129772438Y-32019285D02*
X129820057Y-32066904D01*
X129820057Y-32066904D02*
X129915295Y-32114523D01*
X129915295Y-32114523D02*
X130010533Y-32114523D01*
X130010533Y-32114523D02*
X130153390Y-32066904D01*
X130153390Y-32066904D02*
X130724819Y-31495476D01*
X130724819Y-31495476D02*
X130724819Y-32114523D01*
X130724819Y-33066904D02*
X130724819Y-32495476D01*
X130724819Y-32781190D02*
X129724819Y-32781190D01*
X129724819Y-32781190D02*
X129867676Y-32685952D01*
X129867676Y-32685952D02*
X129962914Y-32590714D01*
X129962914Y-32590714D02*
X130010533Y-32495476D01*
X178349819Y-11540714D02*
X177349819Y-11540714D01*
X177349819Y-11540714D02*
X177349819Y-11778809D01*
X177349819Y-11778809D02*
X177397438Y-11921666D01*
X177397438Y-11921666D02*
X177492676Y-12016904D01*
X177492676Y-12016904D02*
X177587914Y-12064523D01*
X177587914Y-12064523D02*
X177778390Y-12112142D01*
X177778390Y-12112142D02*
X177921247Y-12112142D01*
X177921247Y-12112142D02*
X178111723Y-12064523D01*
X178111723Y-12064523D02*
X178206961Y-12016904D01*
X178206961Y-12016904D02*
X178302200Y-11921666D01*
X178302200Y-11921666D02*
X178349819Y-11778809D01*
X178349819Y-11778809D02*
X178349819Y-11540714D01*
X178349819Y-13064523D02*
X178349819Y-12493095D01*
X178349819Y-12778809D02*
X177349819Y-12778809D01*
X177349819Y-12778809D02*
X177492676Y-12683571D01*
X177492676Y-12683571D02*
X177587914Y-12588333D01*
X177587914Y-12588333D02*
X177635533Y-12493095D01*
X177349819Y-13683571D02*
X177349819Y-13778809D01*
X177349819Y-13778809D02*
X177397438Y-13874047D01*
X177397438Y-13874047D02*
X177445057Y-13921666D01*
X177445057Y-13921666D02*
X177540295Y-13969285D01*
X177540295Y-13969285D02*
X177730771Y-14016904D01*
X177730771Y-14016904D02*
X177968866Y-14016904D01*
X177968866Y-14016904D02*
X178159342Y-13969285D01*
X178159342Y-13969285D02*
X178254580Y-13921666D01*
X178254580Y-13921666D02*
X178302200Y-13874047D01*
X178302200Y-13874047D02*
X178349819Y-13778809D01*
X178349819Y-13778809D02*
X178349819Y-13683571D01*
X178349819Y-13683571D02*
X178302200Y-13588333D01*
X178302200Y-13588333D02*
X178254580Y-13540714D01*
X178254580Y-13540714D02*
X178159342Y-13493095D01*
X178159342Y-13493095D02*
X177968866Y-13445476D01*
X177968866Y-13445476D02*
X177730771Y-13445476D01*
X177730771Y-13445476D02*
X177540295Y-13493095D01*
X177540295Y-13493095D02*
X177445057Y-13540714D01*
X177445057Y-13540714D02*
X177397438Y-13588333D01*
X177397438Y-13588333D02*
X177349819Y-13683571D01*
X32109819Y-5556905D02*
X31109819Y-5556905D01*
X31109819Y-5556905D02*
X31109819Y-5795000D01*
X31109819Y-5795000D02*
X31157438Y-5937857D01*
X31157438Y-5937857D02*
X31252676Y-6033095D01*
X31252676Y-6033095D02*
X31347914Y-6080714D01*
X31347914Y-6080714D02*
X31538390Y-6128333D01*
X31538390Y-6128333D02*
X31681247Y-6128333D01*
X31681247Y-6128333D02*
X31871723Y-6080714D01*
X31871723Y-6080714D02*
X31966961Y-6033095D01*
X31966961Y-6033095D02*
X32062200Y-5937857D01*
X32062200Y-5937857D02*
X32109819Y-5795000D01*
X32109819Y-5795000D02*
X32109819Y-5556905D01*
X31205057Y-6509286D02*
X31157438Y-6556905D01*
X31157438Y-6556905D02*
X31109819Y-6652143D01*
X31109819Y-6652143D02*
X31109819Y-6890238D01*
X31109819Y-6890238D02*
X31157438Y-6985476D01*
X31157438Y-6985476D02*
X31205057Y-7033095D01*
X31205057Y-7033095D02*
X31300295Y-7080714D01*
X31300295Y-7080714D02*
X31395533Y-7080714D01*
X31395533Y-7080714D02*
X31538390Y-7033095D01*
X31538390Y-7033095D02*
X32109819Y-6461667D01*
X32109819Y-6461667D02*
X32109819Y-7080714D01*
X206924819Y-30590714D02*
X205924819Y-30590714D01*
X205924819Y-30590714D02*
X205924819Y-30828809D01*
X205924819Y-30828809D02*
X205972438Y-30971666D01*
X205972438Y-30971666D02*
X206067676Y-31066904D01*
X206067676Y-31066904D02*
X206162914Y-31114523D01*
X206162914Y-31114523D02*
X206353390Y-31162142D01*
X206353390Y-31162142D02*
X206496247Y-31162142D01*
X206496247Y-31162142D02*
X206686723Y-31114523D01*
X206686723Y-31114523D02*
X206781961Y-31066904D01*
X206781961Y-31066904D02*
X206877200Y-30971666D01*
X206877200Y-30971666D02*
X206924819Y-30828809D01*
X206924819Y-30828809D02*
X206924819Y-30590714D01*
X206020057Y-31543095D02*
X205972438Y-31590714D01*
X205972438Y-31590714D02*
X205924819Y-31685952D01*
X205924819Y-31685952D02*
X205924819Y-31924047D01*
X205924819Y-31924047D02*
X205972438Y-32019285D01*
X205972438Y-32019285D02*
X206020057Y-32066904D01*
X206020057Y-32066904D02*
X206115295Y-32114523D01*
X206115295Y-32114523D02*
X206210533Y-32114523D01*
X206210533Y-32114523D02*
X206353390Y-32066904D01*
X206353390Y-32066904D02*
X206924819Y-31495476D01*
X206924819Y-31495476D02*
X206924819Y-32114523D01*
X205924819Y-33019285D02*
X205924819Y-32543095D01*
X205924819Y-32543095D02*
X206401009Y-32495476D01*
X206401009Y-32495476D02*
X206353390Y-32543095D01*
X206353390Y-32543095D02*
X206305771Y-32638333D01*
X206305771Y-32638333D02*
X206305771Y-32876428D01*
X206305771Y-32876428D02*
X206353390Y-32971666D01*
X206353390Y-32971666D02*
X206401009Y-33019285D01*
X206401009Y-33019285D02*
X206496247Y-33066904D01*
X206496247Y-33066904D02*
X206734342Y-33066904D01*
X206734342Y-33066904D02*
X206829580Y-33019285D01*
X206829580Y-33019285D02*
X206877200Y-32971666D01*
X206877200Y-32971666D02*
X206924819Y-32876428D01*
X206924819Y-32876428D02*
X206924819Y-32638333D01*
X206924819Y-32638333D02*
X206877200Y-32543095D01*
X206877200Y-32543095D02*
X206829580Y-32495476D01*
X45317319Y-68690714D02*
X44317319Y-68690714D01*
X44317319Y-68690714D02*
X44317319Y-68928809D01*
X44317319Y-68928809D02*
X44364938Y-69071666D01*
X44364938Y-69071666D02*
X44460176Y-69166904D01*
X44460176Y-69166904D02*
X44555414Y-69214523D01*
X44555414Y-69214523D02*
X44745890Y-69262142D01*
X44745890Y-69262142D02*
X44888747Y-69262142D01*
X44888747Y-69262142D02*
X45079223Y-69214523D01*
X45079223Y-69214523D02*
X45174461Y-69166904D01*
X45174461Y-69166904D02*
X45269700Y-69071666D01*
X45269700Y-69071666D02*
X45317319Y-68928809D01*
X45317319Y-68928809D02*
X45317319Y-68690714D01*
X44650652Y-70119285D02*
X45317319Y-70119285D01*
X44269700Y-69881190D02*
X44983985Y-69643095D01*
X44983985Y-69643095D02*
X44983985Y-70262142D01*
X44650652Y-71071666D02*
X45317319Y-71071666D01*
X44269700Y-70833571D02*
X44983985Y-70595476D01*
X44983985Y-70595476D02*
X44983985Y-71214523D01*
X249629819Y-11540714D02*
X248629819Y-11540714D01*
X248629819Y-11540714D02*
X248629819Y-11778809D01*
X248629819Y-11778809D02*
X248677438Y-11921666D01*
X248677438Y-11921666D02*
X248772676Y-12016904D01*
X248772676Y-12016904D02*
X248867914Y-12064523D01*
X248867914Y-12064523D02*
X249058390Y-12112142D01*
X249058390Y-12112142D02*
X249201247Y-12112142D01*
X249201247Y-12112142D02*
X249391723Y-12064523D01*
X249391723Y-12064523D02*
X249486961Y-12016904D01*
X249486961Y-12016904D02*
X249582200Y-11921666D01*
X249582200Y-11921666D02*
X249629819Y-11778809D01*
X249629819Y-11778809D02*
X249629819Y-11540714D01*
X249629819Y-13064523D02*
X249629819Y-12493095D01*
X249629819Y-12778809D02*
X248629819Y-12778809D01*
X248629819Y-12778809D02*
X248772676Y-12683571D01*
X248772676Y-12683571D02*
X248867914Y-12588333D01*
X248867914Y-12588333D02*
X248915533Y-12493095D01*
X248963152Y-13921666D02*
X249629819Y-13921666D01*
X248582200Y-13683571D02*
X249296485Y-13445476D01*
X249296485Y-13445476D02*
X249296485Y-14064523D01*
X22742319Y-77780714D02*
X21742319Y-77780714D01*
X21742319Y-77780714D02*
X21742319Y-78018809D01*
X21742319Y-78018809D02*
X21789938Y-78161666D01*
X21789938Y-78161666D02*
X21885176Y-78256904D01*
X21885176Y-78256904D02*
X21980414Y-78304523D01*
X21980414Y-78304523D02*
X22170890Y-78352142D01*
X22170890Y-78352142D02*
X22313747Y-78352142D01*
X22313747Y-78352142D02*
X22504223Y-78304523D01*
X22504223Y-78304523D02*
X22599461Y-78256904D01*
X22599461Y-78256904D02*
X22694700Y-78161666D01*
X22694700Y-78161666D02*
X22742319Y-78018809D01*
X22742319Y-78018809D02*
X22742319Y-77780714D01*
X21742319Y-79256904D02*
X21742319Y-78780714D01*
X21742319Y-78780714D02*
X22218509Y-78733095D01*
X22218509Y-78733095D02*
X22170890Y-78780714D01*
X22170890Y-78780714D02*
X22123271Y-78875952D01*
X22123271Y-78875952D02*
X22123271Y-79114047D01*
X22123271Y-79114047D02*
X22170890Y-79209285D01*
X22170890Y-79209285D02*
X22218509Y-79256904D01*
X22218509Y-79256904D02*
X22313747Y-79304523D01*
X22313747Y-79304523D02*
X22551842Y-79304523D01*
X22551842Y-79304523D02*
X22647080Y-79256904D01*
X22647080Y-79256904D02*
X22694700Y-79209285D01*
X22694700Y-79209285D02*
X22742319Y-79114047D01*
X22742319Y-79114047D02*
X22742319Y-78875952D01*
X22742319Y-78875952D02*
X22694700Y-78780714D01*
X22694700Y-78780714D02*
X22647080Y-78733095D01*
X21742319Y-79637857D02*
X21742319Y-80304523D01*
X21742319Y-80304523D02*
X22742319Y-79875952D01*
X35474819Y-30590714D02*
X34474819Y-30590714D01*
X34474819Y-30590714D02*
X34474819Y-30828809D01*
X34474819Y-30828809D02*
X34522438Y-30971666D01*
X34522438Y-30971666D02*
X34617676Y-31066904D01*
X34617676Y-31066904D02*
X34712914Y-31114523D01*
X34712914Y-31114523D02*
X34903390Y-31162142D01*
X34903390Y-31162142D02*
X35046247Y-31162142D01*
X35046247Y-31162142D02*
X35236723Y-31114523D01*
X35236723Y-31114523D02*
X35331961Y-31066904D01*
X35331961Y-31066904D02*
X35427200Y-30971666D01*
X35427200Y-30971666D02*
X35474819Y-30828809D01*
X35474819Y-30828809D02*
X35474819Y-30590714D01*
X35474819Y-32114523D02*
X35474819Y-31543095D01*
X35474819Y-31828809D02*
X34474819Y-31828809D01*
X34474819Y-31828809D02*
X34617676Y-31733571D01*
X34617676Y-31733571D02*
X34712914Y-31638333D01*
X34712914Y-31638333D02*
X34760533Y-31543095D01*
X34474819Y-32971666D02*
X34474819Y-32781190D01*
X34474819Y-32781190D02*
X34522438Y-32685952D01*
X34522438Y-32685952D02*
X34570057Y-32638333D01*
X34570057Y-32638333D02*
X34712914Y-32543095D01*
X34712914Y-32543095D02*
X34903390Y-32495476D01*
X34903390Y-32495476D02*
X35284342Y-32495476D01*
X35284342Y-32495476D02*
X35379580Y-32543095D01*
X35379580Y-32543095D02*
X35427200Y-32590714D01*
X35427200Y-32590714D02*
X35474819Y-32685952D01*
X35474819Y-32685952D02*
X35474819Y-32876428D01*
X35474819Y-32876428D02*
X35427200Y-32971666D01*
X35427200Y-32971666D02*
X35379580Y-33019285D01*
X35379580Y-33019285D02*
X35284342Y-33066904D01*
X35284342Y-33066904D02*
X35046247Y-33066904D01*
X35046247Y-33066904D02*
X34951009Y-33019285D01*
X34951009Y-33019285D02*
X34903390Y-32971666D01*
X34903390Y-32971666D02*
X34855771Y-32876428D01*
X34855771Y-32876428D02*
X34855771Y-32685952D01*
X34855771Y-32685952D02*
X34903390Y-32590714D01*
X34903390Y-32590714D02*
X34951009Y-32543095D01*
X34951009Y-32543095D02*
X35046247Y-32495476D01*
X235499819Y-11540714D02*
X234499819Y-11540714D01*
X234499819Y-11540714D02*
X234499819Y-11778809D01*
X234499819Y-11778809D02*
X234547438Y-11921666D01*
X234547438Y-11921666D02*
X234642676Y-12016904D01*
X234642676Y-12016904D02*
X234737914Y-12064523D01*
X234737914Y-12064523D02*
X234928390Y-12112142D01*
X234928390Y-12112142D02*
X235071247Y-12112142D01*
X235071247Y-12112142D02*
X235261723Y-12064523D01*
X235261723Y-12064523D02*
X235356961Y-12016904D01*
X235356961Y-12016904D02*
X235452200Y-11921666D01*
X235452200Y-11921666D02*
X235499819Y-11778809D01*
X235499819Y-11778809D02*
X235499819Y-11540714D01*
X235499819Y-13064523D02*
X235499819Y-12493095D01*
X235499819Y-12778809D02*
X234499819Y-12778809D01*
X234499819Y-12778809D02*
X234642676Y-12683571D01*
X234642676Y-12683571D02*
X234737914Y-12588333D01*
X234737914Y-12588333D02*
X234785533Y-12493095D01*
X234499819Y-13397857D02*
X234499819Y-14016904D01*
X234499819Y-14016904D02*
X234880771Y-13683571D01*
X234880771Y-13683571D02*
X234880771Y-13826428D01*
X234880771Y-13826428D02*
X234928390Y-13921666D01*
X234928390Y-13921666D02*
X234976009Y-13969285D01*
X234976009Y-13969285D02*
X235071247Y-14016904D01*
X235071247Y-14016904D02*
X235309342Y-14016904D01*
X235309342Y-14016904D02*
X235404580Y-13969285D01*
X235404580Y-13969285D02*
X235452200Y-13921666D01*
X235452200Y-13921666D02*
X235499819Y-13826428D01*
X235499819Y-13826428D02*
X235499819Y-13540714D01*
X235499819Y-13540714D02*
X235452200Y-13445476D01*
X235452200Y-13445476D02*
X235404580Y-13397857D01*
X40872319Y-68690714D02*
X39872319Y-68690714D01*
X39872319Y-68690714D02*
X39872319Y-68928809D01*
X39872319Y-68928809D02*
X39919938Y-69071666D01*
X39919938Y-69071666D02*
X40015176Y-69166904D01*
X40015176Y-69166904D02*
X40110414Y-69214523D01*
X40110414Y-69214523D02*
X40300890Y-69262142D01*
X40300890Y-69262142D02*
X40443747Y-69262142D01*
X40443747Y-69262142D02*
X40634223Y-69214523D01*
X40634223Y-69214523D02*
X40729461Y-69166904D01*
X40729461Y-69166904D02*
X40824700Y-69071666D01*
X40824700Y-69071666D02*
X40872319Y-68928809D01*
X40872319Y-68928809D02*
X40872319Y-68690714D01*
X40205652Y-70119285D02*
X40872319Y-70119285D01*
X39824700Y-69881190D02*
X40538985Y-69643095D01*
X40538985Y-69643095D02*
X40538985Y-70262142D01*
X39872319Y-70547857D02*
X39872319Y-71166904D01*
X39872319Y-71166904D02*
X40253271Y-70833571D01*
X40253271Y-70833571D02*
X40253271Y-70976428D01*
X40253271Y-70976428D02*
X40300890Y-71071666D01*
X40300890Y-71071666D02*
X40348509Y-71119285D01*
X40348509Y-71119285D02*
X40443747Y-71166904D01*
X40443747Y-71166904D02*
X40681842Y-71166904D01*
X40681842Y-71166904D02*
X40777080Y-71119285D01*
X40777080Y-71119285D02*
X40824700Y-71071666D01*
X40824700Y-71071666D02*
X40872319Y-70976428D01*
X40872319Y-70976428D02*
X40872319Y-70690714D01*
X40872319Y-70690714D02*
X40824700Y-70595476D01*
X40824700Y-70595476D02*
X40777080Y-70547857D01*
X11662319Y-30590714D02*
X10662319Y-30590714D01*
X10662319Y-30590714D02*
X10662319Y-30828809D01*
X10662319Y-30828809D02*
X10709938Y-30971666D01*
X10709938Y-30971666D02*
X10805176Y-31066904D01*
X10805176Y-31066904D02*
X10900414Y-31114523D01*
X10900414Y-31114523D02*
X11090890Y-31162142D01*
X11090890Y-31162142D02*
X11233747Y-31162142D01*
X11233747Y-31162142D02*
X11424223Y-31114523D01*
X11424223Y-31114523D02*
X11519461Y-31066904D01*
X11519461Y-31066904D02*
X11614700Y-30971666D01*
X11614700Y-30971666D02*
X11662319Y-30828809D01*
X11662319Y-30828809D02*
X11662319Y-30590714D01*
X11662319Y-32114523D02*
X11662319Y-31543095D01*
X11662319Y-31828809D02*
X10662319Y-31828809D01*
X10662319Y-31828809D02*
X10805176Y-31733571D01*
X10805176Y-31733571D02*
X10900414Y-31638333D01*
X10900414Y-31638333D02*
X10948033Y-31543095D01*
X10662319Y-33019285D02*
X10662319Y-32543095D01*
X10662319Y-32543095D02*
X11138509Y-32495476D01*
X11138509Y-32495476D02*
X11090890Y-32543095D01*
X11090890Y-32543095D02*
X11043271Y-32638333D01*
X11043271Y-32638333D02*
X11043271Y-32876428D01*
X11043271Y-32876428D02*
X11090890Y-32971666D01*
X11090890Y-32971666D02*
X11138509Y-33019285D01*
X11138509Y-33019285D02*
X11233747Y-33066904D01*
X11233747Y-33066904D02*
X11471842Y-33066904D01*
X11471842Y-33066904D02*
X11567080Y-33019285D01*
X11567080Y-33019285D02*
X11614700Y-32971666D01*
X11614700Y-32971666D02*
X11662319Y-32876428D01*
X11662319Y-32876428D02*
X11662319Y-32638333D01*
X11662319Y-32638333D02*
X11614700Y-32543095D01*
X11614700Y-32543095D02*
X11567080Y-32495476D01*
X102149819Y-12016905D02*
X101149819Y-12016905D01*
X101149819Y-12016905D02*
X101149819Y-12255000D01*
X101149819Y-12255000D02*
X101197438Y-12397857D01*
X101197438Y-12397857D02*
X101292676Y-12493095D01*
X101292676Y-12493095D02*
X101387914Y-12540714D01*
X101387914Y-12540714D02*
X101578390Y-12588333D01*
X101578390Y-12588333D02*
X101721247Y-12588333D01*
X101721247Y-12588333D02*
X101911723Y-12540714D01*
X101911723Y-12540714D02*
X102006961Y-12493095D01*
X102006961Y-12493095D02*
X102102200Y-12397857D01*
X102102200Y-12397857D02*
X102149819Y-12255000D01*
X102149819Y-12255000D02*
X102149819Y-12016905D01*
X101149819Y-13445476D02*
X101149819Y-13255000D01*
X101149819Y-13255000D02*
X101197438Y-13159762D01*
X101197438Y-13159762D02*
X101245057Y-13112143D01*
X101245057Y-13112143D02*
X101387914Y-13016905D01*
X101387914Y-13016905D02*
X101578390Y-12969286D01*
X101578390Y-12969286D02*
X101959342Y-12969286D01*
X101959342Y-12969286D02*
X102054580Y-13016905D01*
X102054580Y-13016905D02*
X102102200Y-13064524D01*
X102102200Y-13064524D02*
X102149819Y-13159762D01*
X102149819Y-13159762D02*
X102149819Y-13350238D01*
X102149819Y-13350238D02*
X102102200Y-13445476D01*
X102102200Y-13445476D02*
X102054580Y-13493095D01*
X102054580Y-13493095D02*
X101959342Y-13540714D01*
X101959342Y-13540714D02*
X101721247Y-13540714D01*
X101721247Y-13540714D02*
X101626009Y-13493095D01*
X101626009Y-13493095D02*
X101578390Y-13445476D01*
X101578390Y-13445476D02*
X101530771Y-13350238D01*
X101530771Y-13350238D02*
X101530771Y-13159762D01*
X101530771Y-13159762D02*
X101578390Y-13064524D01*
X101578390Y-13064524D02*
X101626009Y-13016905D01*
X101626009Y-13016905D02*
X101721247Y-12969286D01*
X70367319Y-77780714D02*
X69367319Y-77780714D01*
X69367319Y-77780714D02*
X69367319Y-78018809D01*
X69367319Y-78018809D02*
X69414938Y-78161666D01*
X69414938Y-78161666D02*
X69510176Y-78256904D01*
X69510176Y-78256904D02*
X69605414Y-78304523D01*
X69605414Y-78304523D02*
X69795890Y-78352142D01*
X69795890Y-78352142D02*
X69938747Y-78352142D01*
X69938747Y-78352142D02*
X70129223Y-78304523D01*
X70129223Y-78304523D02*
X70224461Y-78256904D01*
X70224461Y-78256904D02*
X70319700Y-78161666D01*
X70319700Y-78161666D02*
X70367319Y-78018809D01*
X70367319Y-78018809D02*
X70367319Y-77780714D01*
X69367319Y-79256904D02*
X69367319Y-78780714D01*
X69367319Y-78780714D02*
X69843509Y-78733095D01*
X69843509Y-78733095D02*
X69795890Y-78780714D01*
X69795890Y-78780714D02*
X69748271Y-78875952D01*
X69748271Y-78875952D02*
X69748271Y-79114047D01*
X69748271Y-79114047D02*
X69795890Y-79209285D01*
X69795890Y-79209285D02*
X69843509Y-79256904D01*
X69843509Y-79256904D02*
X69938747Y-79304523D01*
X69938747Y-79304523D02*
X70176842Y-79304523D01*
X70176842Y-79304523D02*
X70272080Y-79256904D01*
X70272080Y-79256904D02*
X70319700Y-79209285D01*
X70319700Y-79209285D02*
X70367319Y-79114047D01*
X70367319Y-79114047D02*
X70367319Y-78875952D01*
X70367319Y-78875952D02*
X70319700Y-78780714D01*
X70319700Y-78780714D02*
X70272080Y-78733095D01*
X70367319Y-79780714D02*
X70367319Y-79971190D01*
X70367319Y-79971190D02*
X70319700Y-80066428D01*
X70319700Y-80066428D02*
X70272080Y-80114047D01*
X70272080Y-80114047D02*
X70129223Y-80209285D01*
X70129223Y-80209285D02*
X69938747Y-80256904D01*
X69938747Y-80256904D02*
X69557795Y-80256904D01*
X69557795Y-80256904D02*
X69462557Y-80209285D01*
X69462557Y-80209285D02*
X69414938Y-80161666D01*
X69414938Y-80161666D02*
X69367319Y-80066428D01*
X69367319Y-80066428D02*
X69367319Y-79875952D01*
X69367319Y-79875952D02*
X69414938Y-79780714D01*
X69414938Y-79780714D02*
X69462557Y-79733095D01*
X69462557Y-79733095D02*
X69557795Y-79685476D01*
X69557795Y-79685476D02*
X69795890Y-79685476D01*
X69795890Y-79685476D02*
X69891128Y-79733095D01*
X69891128Y-79733095D02*
X69938747Y-79780714D01*
X69938747Y-79780714D02*
X69986366Y-79875952D01*
X69986366Y-79875952D02*
X69986366Y-80066428D01*
X69986366Y-80066428D02*
X69938747Y-80161666D01*
X69938747Y-80161666D02*
X69891128Y-80209285D01*
X69891128Y-80209285D02*
X69795890Y-80256904D01*
X225974819Y-30590714D02*
X224974819Y-30590714D01*
X224974819Y-30590714D02*
X224974819Y-30828809D01*
X224974819Y-30828809D02*
X225022438Y-30971666D01*
X225022438Y-30971666D02*
X225117676Y-31066904D01*
X225117676Y-31066904D02*
X225212914Y-31114523D01*
X225212914Y-31114523D02*
X225403390Y-31162142D01*
X225403390Y-31162142D02*
X225546247Y-31162142D01*
X225546247Y-31162142D02*
X225736723Y-31114523D01*
X225736723Y-31114523D02*
X225831961Y-31066904D01*
X225831961Y-31066904D02*
X225927200Y-30971666D01*
X225927200Y-30971666D02*
X225974819Y-30828809D01*
X225974819Y-30828809D02*
X225974819Y-30590714D01*
X225070057Y-31543095D02*
X225022438Y-31590714D01*
X225022438Y-31590714D02*
X224974819Y-31685952D01*
X224974819Y-31685952D02*
X224974819Y-31924047D01*
X224974819Y-31924047D02*
X225022438Y-32019285D01*
X225022438Y-32019285D02*
X225070057Y-32066904D01*
X225070057Y-32066904D02*
X225165295Y-32114523D01*
X225165295Y-32114523D02*
X225260533Y-32114523D01*
X225260533Y-32114523D02*
X225403390Y-32066904D01*
X225403390Y-32066904D02*
X225974819Y-31495476D01*
X225974819Y-31495476D02*
X225974819Y-32114523D01*
X224974819Y-32971666D02*
X224974819Y-32781190D01*
X224974819Y-32781190D02*
X225022438Y-32685952D01*
X225022438Y-32685952D02*
X225070057Y-32638333D01*
X225070057Y-32638333D02*
X225212914Y-32543095D01*
X225212914Y-32543095D02*
X225403390Y-32495476D01*
X225403390Y-32495476D02*
X225784342Y-32495476D01*
X225784342Y-32495476D02*
X225879580Y-32543095D01*
X225879580Y-32543095D02*
X225927200Y-32590714D01*
X225927200Y-32590714D02*
X225974819Y-32685952D01*
X225974819Y-32685952D02*
X225974819Y-32876428D01*
X225974819Y-32876428D02*
X225927200Y-32971666D01*
X225927200Y-32971666D02*
X225879580Y-33019285D01*
X225879580Y-33019285D02*
X225784342Y-33066904D01*
X225784342Y-33066904D02*
X225546247Y-33066904D01*
X225546247Y-33066904D02*
X225451009Y-33019285D01*
X225451009Y-33019285D02*
X225403390Y-32971666D01*
X225403390Y-32971666D02*
X225355771Y-32876428D01*
X225355771Y-32876428D02*
X225355771Y-32685952D01*
X225355771Y-32685952D02*
X225403390Y-32590714D01*
X225403390Y-32590714D02*
X225451009Y-32543095D01*
X225451009Y-32543095D02*
X225546247Y-32495476D01*
X73574819Y-30590714D02*
X72574819Y-30590714D01*
X72574819Y-30590714D02*
X72574819Y-30828809D01*
X72574819Y-30828809D02*
X72622438Y-30971666D01*
X72622438Y-30971666D02*
X72717676Y-31066904D01*
X72717676Y-31066904D02*
X72812914Y-31114523D01*
X72812914Y-31114523D02*
X73003390Y-31162142D01*
X73003390Y-31162142D02*
X73146247Y-31162142D01*
X73146247Y-31162142D02*
X73336723Y-31114523D01*
X73336723Y-31114523D02*
X73431961Y-31066904D01*
X73431961Y-31066904D02*
X73527200Y-30971666D01*
X73527200Y-30971666D02*
X73574819Y-30828809D01*
X73574819Y-30828809D02*
X73574819Y-30590714D01*
X73574819Y-32114523D02*
X73574819Y-31543095D01*
X73574819Y-31828809D02*
X72574819Y-31828809D01*
X72574819Y-31828809D02*
X72717676Y-31733571D01*
X72717676Y-31733571D02*
X72812914Y-31638333D01*
X72812914Y-31638333D02*
X72860533Y-31543095D01*
X73003390Y-32685952D02*
X72955771Y-32590714D01*
X72955771Y-32590714D02*
X72908152Y-32543095D01*
X72908152Y-32543095D02*
X72812914Y-32495476D01*
X72812914Y-32495476D02*
X72765295Y-32495476D01*
X72765295Y-32495476D02*
X72670057Y-32543095D01*
X72670057Y-32543095D02*
X72622438Y-32590714D01*
X72622438Y-32590714D02*
X72574819Y-32685952D01*
X72574819Y-32685952D02*
X72574819Y-32876428D01*
X72574819Y-32876428D02*
X72622438Y-32971666D01*
X72622438Y-32971666D02*
X72670057Y-33019285D01*
X72670057Y-33019285D02*
X72765295Y-33066904D01*
X72765295Y-33066904D02*
X72812914Y-33066904D01*
X72812914Y-33066904D02*
X72908152Y-33019285D01*
X72908152Y-33019285D02*
X72955771Y-32971666D01*
X72955771Y-32971666D02*
X73003390Y-32876428D01*
X73003390Y-32876428D02*
X73003390Y-32685952D01*
X73003390Y-32685952D02*
X73051009Y-32590714D01*
X73051009Y-32590714D02*
X73098628Y-32543095D01*
X73098628Y-32543095D02*
X73193866Y-32495476D01*
X73193866Y-32495476D02*
X73384342Y-32495476D01*
X73384342Y-32495476D02*
X73479580Y-32543095D01*
X73479580Y-32543095D02*
X73527200Y-32590714D01*
X73527200Y-32590714D02*
X73574819Y-32685952D01*
X73574819Y-32685952D02*
X73574819Y-32876428D01*
X73574819Y-32876428D02*
X73527200Y-32971666D01*
X73527200Y-32971666D02*
X73479580Y-33019285D01*
X73479580Y-33019285D02*
X73384342Y-33066904D01*
X73384342Y-33066904D02*
X73193866Y-33066904D01*
X73193866Y-33066904D02*
X73098628Y-33019285D01*
X73098628Y-33019285D02*
X73051009Y-32971666D01*
X73051009Y-32971666D02*
X73003390Y-32876428D01*
X212292319Y-77780714D02*
X211292319Y-77780714D01*
X211292319Y-77780714D02*
X211292319Y-78018809D01*
X211292319Y-78018809D02*
X211339938Y-78161666D01*
X211339938Y-78161666D02*
X211435176Y-78256904D01*
X211435176Y-78256904D02*
X211530414Y-78304523D01*
X211530414Y-78304523D02*
X211720890Y-78352142D01*
X211720890Y-78352142D02*
X211863747Y-78352142D01*
X211863747Y-78352142D02*
X212054223Y-78304523D01*
X212054223Y-78304523D02*
X212149461Y-78256904D01*
X212149461Y-78256904D02*
X212244700Y-78161666D01*
X212244700Y-78161666D02*
X212292319Y-78018809D01*
X212292319Y-78018809D02*
X212292319Y-77780714D01*
X211292319Y-79209285D02*
X211292319Y-79018809D01*
X211292319Y-79018809D02*
X211339938Y-78923571D01*
X211339938Y-78923571D02*
X211387557Y-78875952D01*
X211387557Y-78875952D02*
X211530414Y-78780714D01*
X211530414Y-78780714D02*
X211720890Y-78733095D01*
X211720890Y-78733095D02*
X212101842Y-78733095D01*
X212101842Y-78733095D02*
X212197080Y-78780714D01*
X212197080Y-78780714D02*
X212244700Y-78828333D01*
X212244700Y-78828333D02*
X212292319Y-78923571D01*
X212292319Y-78923571D02*
X212292319Y-79114047D01*
X212292319Y-79114047D02*
X212244700Y-79209285D01*
X212244700Y-79209285D02*
X212197080Y-79256904D01*
X212197080Y-79256904D02*
X212101842Y-79304523D01*
X212101842Y-79304523D02*
X211863747Y-79304523D01*
X211863747Y-79304523D02*
X211768509Y-79256904D01*
X211768509Y-79256904D02*
X211720890Y-79209285D01*
X211720890Y-79209285D02*
X211673271Y-79114047D01*
X211673271Y-79114047D02*
X211673271Y-78923571D01*
X211673271Y-78923571D02*
X211720890Y-78828333D01*
X211720890Y-78828333D02*
X211768509Y-78780714D01*
X211768509Y-78780714D02*
X211863747Y-78733095D01*
X211387557Y-79685476D02*
X211339938Y-79733095D01*
X211339938Y-79733095D02*
X211292319Y-79828333D01*
X211292319Y-79828333D02*
X211292319Y-80066428D01*
X211292319Y-80066428D02*
X211339938Y-80161666D01*
X211339938Y-80161666D02*
X211387557Y-80209285D01*
X211387557Y-80209285D02*
X211482795Y-80256904D01*
X211482795Y-80256904D02*
X211578033Y-80256904D01*
X211578033Y-80256904D02*
X211720890Y-80209285D01*
X211720890Y-80209285D02*
X212292319Y-79637857D01*
X212292319Y-79637857D02*
X212292319Y-80256904D01*
X168824819Y-30590714D02*
X167824819Y-30590714D01*
X167824819Y-30590714D02*
X167824819Y-30828809D01*
X167824819Y-30828809D02*
X167872438Y-30971666D01*
X167872438Y-30971666D02*
X167967676Y-31066904D01*
X167967676Y-31066904D02*
X168062914Y-31114523D01*
X168062914Y-31114523D02*
X168253390Y-31162142D01*
X168253390Y-31162142D02*
X168396247Y-31162142D01*
X168396247Y-31162142D02*
X168586723Y-31114523D01*
X168586723Y-31114523D02*
X168681961Y-31066904D01*
X168681961Y-31066904D02*
X168777200Y-30971666D01*
X168777200Y-30971666D02*
X168824819Y-30828809D01*
X168824819Y-30828809D02*
X168824819Y-30590714D01*
X167920057Y-31543095D02*
X167872438Y-31590714D01*
X167872438Y-31590714D02*
X167824819Y-31685952D01*
X167824819Y-31685952D02*
X167824819Y-31924047D01*
X167824819Y-31924047D02*
X167872438Y-32019285D01*
X167872438Y-32019285D02*
X167920057Y-32066904D01*
X167920057Y-32066904D02*
X168015295Y-32114523D01*
X168015295Y-32114523D02*
X168110533Y-32114523D01*
X168110533Y-32114523D02*
X168253390Y-32066904D01*
X168253390Y-32066904D02*
X168824819Y-31495476D01*
X168824819Y-31495476D02*
X168824819Y-32114523D01*
X167824819Y-32447857D02*
X167824819Y-33066904D01*
X167824819Y-33066904D02*
X168205771Y-32733571D01*
X168205771Y-32733571D02*
X168205771Y-32876428D01*
X168205771Y-32876428D02*
X168253390Y-32971666D01*
X168253390Y-32971666D02*
X168301009Y-33019285D01*
X168301009Y-33019285D02*
X168396247Y-33066904D01*
X168396247Y-33066904D02*
X168634342Y-33066904D01*
X168634342Y-33066904D02*
X168729580Y-33019285D01*
X168729580Y-33019285D02*
X168777200Y-32971666D01*
X168777200Y-32971666D02*
X168824819Y-32876428D01*
X168824819Y-32876428D02*
X168824819Y-32590714D01*
X168824819Y-32590714D02*
X168777200Y-32495476D01*
X168777200Y-32495476D02*
X168729580Y-32447857D01*
X154537319Y-49640714D02*
X153537319Y-49640714D01*
X153537319Y-49640714D02*
X153537319Y-49878809D01*
X153537319Y-49878809D02*
X153584938Y-50021666D01*
X153584938Y-50021666D02*
X153680176Y-50116904D01*
X153680176Y-50116904D02*
X153775414Y-50164523D01*
X153775414Y-50164523D02*
X153965890Y-50212142D01*
X153965890Y-50212142D02*
X154108747Y-50212142D01*
X154108747Y-50212142D02*
X154299223Y-50164523D01*
X154299223Y-50164523D02*
X154394461Y-50116904D01*
X154394461Y-50116904D02*
X154489700Y-50021666D01*
X154489700Y-50021666D02*
X154537319Y-49878809D01*
X154537319Y-49878809D02*
X154537319Y-49640714D01*
X153537319Y-50545476D02*
X153537319Y-51164523D01*
X153537319Y-51164523D02*
X153918271Y-50831190D01*
X153918271Y-50831190D02*
X153918271Y-50974047D01*
X153918271Y-50974047D02*
X153965890Y-51069285D01*
X153965890Y-51069285D02*
X154013509Y-51116904D01*
X154013509Y-51116904D02*
X154108747Y-51164523D01*
X154108747Y-51164523D02*
X154346842Y-51164523D01*
X154346842Y-51164523D02*
X154442080Y-51116904D01*
X154442080Y-51116904D02*
X154489700Y-51069285D01*
X154489700Y-51069285D02*
X154537319Y-50974047D01*
X154537319Y-50974047D02*
X154537319Y-50688333D01*
X154537319Y-50688333D02*
X154489700Y-50593095D01*
X154489700Y-50593095D02*
X154442080Y-50545476D01*
X153537319Y-52021666D02*
X153537319Y-51831190D01*
X153537319Y-51831190D02*
X153584938Y-51735952D01*
X153584938Y-51735952D02*
X153632557Y-51688333D01*
X153632557Y-51688333D02*
X153775414Y-51593095D01*
X153775414Y-51593095D02*
X153965890Y-51545476D01*
X153965890Y-51545476D02*
X154346842Y-51545476D01*
X154346842Y-51545476D02*
X154442080Y-51593095D01*
X154442080Y-51593095D02*
X154489700Y-51640714D01*
X154489700Y-51640714D02*
X154537319Y-51735952D01*
X154537319Y-51735952D02*
X154537319Y-51926428D01*
X154537319Y-51926428D02*
X154489700Y-52021666D01*
X154489700Y-52021666D02*
X154442080Y-52069285D01*
X154442080Y-52069285D02*
X154346842Y-52116904D01*
X154346842Y-52116904D02*
X154108747Y-52116904D01*
X154108747Y-52116904D02*
X154013509Y-52069285D01*
X154013509Y-52069285D02*
X153965890Y-52021666D01*
X153965890Y-52021666D02*
X153918271Y-51926428D01*
X153918271Y-51926428D02*
X153918271Y-51735952D01*
X153918271Y-51735952D02*
X153965890Y-51640714D01*
X153965890Y-51640714D02*
X154013509Y-51593095D01*
X154013509Y-51593095D02*
X154108747Y-51545476D01*
X46554819Y-77780714D02*
X45554819Y-77780714D01*
X45554819Y-77780714D02*
X45554819Y-78018809D01*
X45554819Y-78018809D02*
X45602438Y-78161666D01*
X45602438Y-78161666D02*
X45697676Y-78256904D01*
X45697676Y-78256904D02*
X45792914Y-78304523D01*
X45792914Y-78304523D02*
X45983390Y-78352142D01*
X45983390Y-78352142D02*
X46126247Y-78352142D01*
X46126247Y-78352142D02*
X46316723Y-78304523D01*
X46316723Y-78304523D02*
X46411961Y-78256904D01*
X46411961Y-78256904D02*
X46507200Y-78161666D01*
X46507200Y-78161666D02*
X46554819Y-78018809D01*
X46554819Y-78018809D02*
X46554819Y-77780714D01*
X45554819Y-79256904D02*
X45554819Y-78780714D01*
X45554819Y-78780714D02*
X46031009Y-78733095D01*
X46031009Y-78733095D02*
X45983390Y-78780714D01*
X45983390Y-78780714D02*
X45935771Y-78875952D01*
X45935771Y-78875952D02*
X45935771Y-79114047D01*
X45935771Y-79114047D02*
X45983390Y-79209285D01*
X45983390Y-79209285D02*
X46031009Y-79256904D01*
X46031009Y-79256904D02*
X46126247Y-79304523D01*
X46126247Y-79304523D02*
X46364342Y-79304523D01*
X46364342Y-79304523D02*
X46459580Y-79256904D01*
X46459580Y-79256904D02*
X46507200Y-79209285D01*
X46507200Y-79209285D02*
X46554819Y-79114047D01*
X46554819Y-79114047D02*
X46554819Y-78875952D01*
X46554819Y-78875952D02*
X46507200Y-78780714D01*
X46507200Y-78780714D02*
X46459580Y-78733095D01*
X45983390Y-79875952D02*
X45935771Y-79780714D01*
X45935771Y-79780714D02*
X45888152Y-79733095D01*
X45888152Y-79733095D02*
X45792914Y-79685476D01*
X45792914Y-79685476D02*
X45745295Y-79685476D01*
X45745295Y-79685476D02*
X45650057Y-79733095D01*
X45650057Y-79733095D02*
X45602438Y-79780714D01*
X45602438Y-79780714D02*
X45554819Y-79875952D01*
X45554819Y-79875952D02*
X45554819Y-80066428D01*
X45554819Y-80066428D02*
X45602438Y-80161666D01*
X45602438Y-80161666D02*
X45650057Y-80209285D01*
X45650057Y-80209285D02*
X45745295Y-80256904D01*
X45745295Y-80256904D02*
X45792914Y-80256904D01*
X45792914Y-80256904D02*
X45888152Y-80209285D01*
X45888152Y-80209285D02*
X45935771Y-80161666D01*
X45935771Y-80161666D02*
X45983390Y-80066428D01*
X45983390Y-80066428D02*
X45983390Y-79875952D01*
X45983390Y-79875952D02*
X46031009Y-79780714D01*
X46031009Y-79780714D02*
X46078628Y-79733095D01*
X46078628Y-79733095D02*
X46173866Y-79685476D01*
X46173866Y-79685476D02*
X46364342Y-79685476D01*
X46364342Y-79685476D02*
X46459580Y-79733095D01*
X46459580Y-79733095D02*
X46507200Y-79780714D01*
X46507200Y-79780714D02*
X46554819Y-79875952D01*
X46554819Y-79875952D02*
X46554819Y-80066428D01*
X46554819Y-80066428D02*
X46507200Y-80161666D01*
X46507200Y-80161666D02*
X46459580Y-80209285D01*
X46459580Y-80209285D02*
X46364342Y-80256904D01*
X46364342Y-80256904D02*
X46173866Y-80256904D01*
X46173866Y-80256904D02*
X46078628Y-80209285D01*
X46078628Y-80209285D02*
X46031009Y-80161666D01*
X46031009Y-80161666D02*
X45983390Y-80066428D01*
X173587319Y-49640714D02*
X172587319Y-49640714D01*
X172587319Y-49640714D02*
X172587319Y-49878809D01*
X172587319Y-49878809D02*
X172634938Y-50021666D01*
X172634938Y-50021666D02*
X172730176Y-50116904D01*
X172730176Y-50116904D02*
X172825414Y-50164523D01*
X172825414Y-50164523D02*
X173015890Y-50212142D01*
X173015890Y-50212142D02*
X173158747Y-50212142D01*
X173158747Y-50212142D02*
X173349223Y-50164523D01*
X173349223Y-50164523D02*
X173444461Y-50116904D01*
X173444461Y-50116904D02*
X173539700Y-50021666D01*
X173539700Y-50021666D02*
X173587319Y-49878809D01*
X173587319Y-49878809D02*
X173587319Y-49640714D01*
X172587319Y-50545476D02*
X172587319Y-51164523D01*
X172587319Y-51164523D02*
X172968271Y-50831190D01*
X172968271Y-50831190D02*
X172968271Y-50974047D01*
X172968271Y-50974047D02*
X173015890Y-51069285D01*
X173015890Y-51069285D02*
X173063509Y-51116904D01*
X173063509Y-51116904D02*
X173158747Y-51164523D01*
X173158747Y-51164523D02*
X173396842Y-51164523D01*
X173396842Y-51164523D02*
X173492080Y-51116904D01*
X173492080Y-51116904D02*
X173539700Y-51069285D01*
X173539700Y-51069285D02*
X173587319Y-50974047D01*
X173587319Y-50974047D02*
X173587319Y-50688333D01*
X173587319Y-50688333D02*
X173539700Y-50593095D01*
X173539700Y-50593095D02*
X173492080Y-50545476D01*
X172587319Y-51497857D02*
X172587319Y-52164523D01*
X172587319Y-52164523D02*
X173587319Y-51735952D01*
X216449819Y-11540714D02*
X215449819Y-11540714D01*
X215449819Y-11540714D02*
X215449819Y-11778809D01*
X215449819Y-11778809D02*
X215497438Y-11921666D01*
X215497438Y-11921666D02*
X215592676Y-12016904D01*
X215592676Y-12016904D02*
X215687914Y-12064523D01*
X215687914Y-12064523D02*
X215878390Y-12112142D01*
X215878390Y-12112142D02*
X216021247Y-12112142D01*
X216021247Y-12112142D02*
X216211723Y-12064523D01*
X216211723Y-12064523D02*
X216306961Y-12016904D01*
X216306961Y-12016904D02*
X216402200Y-11921666D01*
X216402200Y-11921666D02*
X216449819Y-11778809D01*
X216449819Y-11778809D02*
X216449819Y-11540714D01*
X216449819Y-13064523D02*
X216449819Y-12493095D01*
X216449819Y-12778809D02*
X215449819Y-12778809D01*
X215449819Y-12778809D02*
X215592676Y-12683571D01*
X215592676Y-12683571D02*
X215687914Y-12588333D01*
X215687914Y-12588333D02*
X215735533Y-12493095D01*
X215545057Y-13445476D02*
X215497438Y-13493095D01*
X215497438Y-13493095D02*
X215449819Y-13588333D01*
X215449819Y-13588333D02*
X215449819Y-13826428D01*
X215449819Y-13826428D02*
X215497438Y-13921666D01*
X215497438Y-13921666D02*
X215545057Y-13969285D01*
X215545057Y-13969285D02*
X215640295Y-14016904D01*
X215640295Y-14016904D02*
X215735533Y-14016904D01*
X215735533Y-14016904D02*
X215878390Y-13969285D01*
X215878390Y-13969285D02*
X216449819Y-13397857D01*
X216449819Y-13397857D02*
X216449819Y-14016904D01*
X21001666Y-10299819D02*
X21334999Y-9823628D01*
X21573094Y-10299819D02*
X21573094Y-9299819D01*
X21573094Y-9299819D02*
X21192142Y-9299819D01*
X21192142Y-9299819D02*
X21096904Y-9347438D01*
X21096904Y-9347438D02*
X21049285Y-9395057D01*
X21049285Y-9395057D02*
X21001666Y-9490295D01*
X21001666Y-9490295D02*
X21001666Y-9633152D01*
X21001666Y-9633152D02*
X21049285Y-9728390D01*
X21049285Y-9728390D02*
X21096904Y-9776009D01*
X21096904Y-9776009D02*
X21192142Y-9823628D01*
X21192142Y-9823628D02*
X21573094Y-9823628D01*
X20668332Y-9299819D02*
X20001666Y-9299819D01*
X20001666Y-9299819D02*
X20430237Y-10299819D01*
X135487319Y-49640714D02*
X134487319Y-49640714D01*
X134487319Y-49640714D02*
X134487319Y-49878809D01*
X134487319Y-49878809D02*
X134534938Y-50021666D01*
X134534938Y-50021666D02*
X134630176Y-50116904D01*
X134630176Y-50116904D02*
X134725414Y-50164523D01*
X134725414Y-50164523D02*
X134915890Y-50212142D01*
X134915890Y-50212142D02*
X135058747Y-50212142D01*
X135058747Y-50212142D02*
X135249223Y-50164523D01*
X135249223Y-50164523D02*
X135344461Y-50116904D01*
X135344461Y-50116904D02*
X135439700Y-50021666D01*
X135439700Y-50021666D02*
X135487319Y-49878809D01*
X135487319Y-49878809D02*
X135487319Y-49640714D01*
X134487319Y-50545476D02*
X134487319Y-51164523D01*
X134487319Y-51164523D02*
X134868271Y-50831190D01*
X134868271Y-50831190D02*
X134868271Y-50974047D01*
X134868271Y-50974047D02*
X134915890Y-51069285D01*
X134915890Y-51069285D02*
X134963509Y-51116904D01*
X134963509Y-51116904D02*
X135058747Y-51164523D01*
X135058747Y-51164523D02*
X135296842Y-51164523D01*
X135296842Y-51164523D02*
X135392080Y-51116904D01*
X135392080Y-51116904D02*
X135439700Y-51069285D01*
X135439700Y-51069285D02*
X135487319Y-50974047D01*
X135487319Y-50974047D02*
X135487319Y-50688333D01*
X135487319Y-50688333D02*
X135439700Y-50593095D01*
X135439700Y-50593095D02*
X135392080Y-50545476D01*
X134487319Y-52069285D02*
X134487319Y-51593095D01*
X134487319Y-51593095D02*
X134963509Y-51545476D01*
X134963509Y-51545476D02*
X134915890Y-51593095D01*
X134915890Y-51593095D02*
X134868271Y-51688333D01*
X134868271Y-51688333D02*
X134868271Y-51926428D01*
X134868271Y-51926428D02*
X134915890Y-52021666D01*
X134915890Y-52021666D02*
X134963509Y-52069285D01*
X134963509Y-52069285D02*
X135058747Y-52116904D01*
X135058747Y-52116904D02*
X135296842Y-52116904D01*
X135296842Y-52116904D02*
X135392080Y-52069285D01*
X135392080Y-52069285D02*
X135439700Y-52021666D01*
X135439700Y-52021666D02*
X135487319Y-51926428D01*
X135487319Y-51926428D02*
X135487319Y-51688333D01*
X135487319Y-51688333D02*
X135439700Y-51593095D01*
X135439700Y-51593095D02*
X135392080Y-51545476D01*
X40237319Y-49640714D02*
X39237319Y-49640714D01*
X39237319Y-49640714D02*
X39237319Y-49878809D01*
X39237319Y-49878809D02*
X39284938Y-50021666D01*
X39284938Y-50021666D02*
X39380176Y-50116904D01*
X39380176Y-50116904D02*
X39475414Y-50164523D01*
X39475414Y-50164523D02*
X39665890Y-50212142D01*
X39665890Y-50212142D02*
X39808747Y-50212142D01*
X39808747Y-50212142D02*
X39999223Y-50164523D01*
X39999223Y-50164523D02*
X40094461Y-50116904D01*
X40094461Y-50116904D02*
X40189700Y-50021666D01*
X40189700Y-50021666D02*
X40237319Y-49878809D01*
X40237319Y-49878809D02*
X40237319Y-49640714D01*
X39237319Y-50545476D02*
X39237319Y-51164523D01*
X39237319Y-51164523D02*
X39618271Y-50831190D01*
X39618271Y-50831190D02*
X39618271Y-50974047D01*
X39618271Y-50974047D02*
X39665890Y-51069285D01*
X39665890Y-51069285D02*
X39713509Y-51116904D01*
X39713509Y-51116904D02*
X39808747Y-51164523D01*
X39808747Y-51164523D02*
X40046842Y-51164523D01*
X40046842Y-51164523D02*
X40142080Y-51116904D01*
X40142080Y-51116904D02*
X40189700Y-51069285D01*
X40189700Y-51069285D02*
X40237319Y-50974047D01*
X40237319Y-50974047D02*
X40237319Y-50688333D01*
X40237319Y-50688333D02*
X40189700Y-50593095D01*
X40189700Y-50593095D02*
X40142080Y-50545476D01*
X39237319Y-51783571D02*
X39237319Y-51878809D01*
X39237319Y-51878809D02*
X39284938Y-51974047D01*
X39284938Y-51974047D02*
X39332557Y-52021666D01*
X39332557Y-52021666D02*
X39427795Y-52069285D01*
X39427795Y-52069285D02*
X39618271Y-52116904D01*
X39618271Y-52116904D02*
X39856366Y-52116904D01*
X39856366Y-52116904D02*
X40046842Y-52069285D01*
X40046842Y-52069285D02*
X40142080Y-52021666D01*
X40142080Y-52021666D02*
X40189700Y-51974047D01*
X40189700Y-51974047D02*
X40237319Y-51878809D01*
X40237319Y-51878809D02*
X40237319Y-51783571D01*
X40237319Y-51783571D02*
X40189700Y-51688333D01*
X40189700Y-51688333D02*
X40142080Y-51640714D01*
X40142080Y-51640714D02*
X40046842Y-51593095D01*
X40046842Y-51593095D02*
X39856366Y-51545476D01*
X39856366Y-51545476D02*
X39618271Y-51545476D01*
X39618271Y-51545476D02*
X39427795Y-51593095D01*
X39427795Y-51593095D02*
X39332557Y-51640714D01*
X39332557Y-51640714D02*
X39284938Y-51688333D01*
X39284938Y-51688333D02*
X39237319Y-51783571D01*
X149774819Y-30590714D02*
X148774819Y-30590714D01*
X148774819Y-30590714D02*
X148774819Y-30828809D01*
X148774819Y-30828809D02*
X148822438Y-30971666D01*
X148822438Y-30971666D02*
X148917676Y-31066904D01*
X148917676Y-31066904D02*
X149012914Y-31114523D01*
X149012914Y-31114523D02*
X149203390Y-31162142D01*
X149203390Y-31162142D02*
X149346247Y-31162142D01*
X149346247Y-31162142D02*
X149536723Y-31114523D01*
X149536723Y-31114523D02*
X149631961Y-31066904D01*
X149631961Y-31066904D02*
X149727200Y-30971666D01*
X149727200Y-30971666D02*
X149774819Y-30828809D01*
X149774819Y-30828809D02*
X149774819Y-30590714D01*
X148870057Y-31543095D02*
X148822438Y-31590714D01*
X148822438Y-31590714D02*
X148774819Y-31685952D01*
X148774819Y-31685952D02*
X148774819Y-31924047D01*
X148774819Y-31924047D02*
X148822438Y-32019285D01*
X148822438Y-32019285D02*
X148870057Y-32066904D01*
X148870057Y-32066904D02*
X148965295Y-32114523D01*
X148965295Y-32114523D02*
X149060533Y-32114523D01*
X149060533Y-32114523D02*
X149203390Y-32066904D01*
X149203390Y-32066904D02*
X149774819Y-31495476D01*
X149774819Y-31495476D02*
X149774819Y-32114523D01*
X148870057Y-32495476D02*
X148822438Y-32543095D01*
X148822438Y-32543095D02*
X148774819Y-32638333D01*
X148774819Y-32638333D02*
X148774819Y-32876428D01*
X148774819Y-32876428D02*
X148822438Y-32971666D01*
X148822438Y-32971666D02*
X148870057Y-33019285D01*
X148870057Y-33019285D02*
X148965295Y-33066904D01*
X148965295Y-33066904D02*
X149060533Y-33066904D01*
X149060533Y-33066904D02*
X149203390Y-33019285D01*
X149203390Y-33019285D02*
X149774819Y-32447857D01*
X149774819Y-32447857D02*
X149774819Y-33066904D01*
X199781069Y-87740714D02*
X198781069Y-87740714D01*
X198781069Y-87740714D02*
X198781069Y-87978809D01*
X198781069Y-87978809D02*
X198828688Y-88121666D01*
X198828688Y-88121666D02*
X198923926Y-88216904D01*
X198923926Y-88216904D02*
X199019164Y-88264523D01*
X199019164Y-88264523D02*
X199209640Y-88312142D01*
X199209640Y-88312142D02*
X199352497Y-88312142D01*
X199352497Y-88312142D02*
X199542973Y-88264523D01*
X199542973Y-88264523D02*
X199638211Y-88216904D01*
X199638211Y-88216904D02*
X199733450Y-88121666D01*
X199733450Y-88121666D02*
X199781069Y-87978809D01*
X199781069Y-87978809D02*
X199781069Y-87740714D01*
X198781069Y-89169285D02*
X198781069Y-88978809D01*
X198781069Y-88978809D02*
X198828688Y-88883571D01*
X198828688Y-88883571D02*
X198876307Y-88835952D01*
X198876307Y-88835952D02*
X199019164Y-88740714D01*
X199019164Y-88740714D02*
X199209640Y-88693095D01*
X199209640Y-88693095D02*
X199590592Y-88693095D01*
X199590592Y-88693095D02*
X199685830Y-88740714D01*
X199685830Y-88740714D02*
X199733450Y-88788333D01*
X199733450Y-88788333D02*
X199781069Y-88883571D01*
X199781069Y-88883571D02*
X199781069Y-89074047D01*
X199781069Y-89074047D02*
X199733450Y-89169285D01*
X199733450Y-89169285D02*
X199685830Y-89216904D01*
X199685830Y-89216904D02*
X199590592Y-89264523D01*
X199590592Y-89264523D02*
X199352497Y-89264523D01*
X199352497Y-89264523D02*
X199257259Y-89216904D01*
X199257259Y-89216904D02*
X199209640Y-89169285D01*
X199209640Y-89169285D02*
X199162021Y-89074047D01*
X199162021Y-89074047D02*
X199162021Y-88883571D01*
X199162021Y-88883571D02*
X199209640Y-88788333D01*
X199209640Y-88788333D02*
X199257259Y-88740714D01*
X199257259Y-88740714D02*
X199352497Y-88693095D01*
X199781069Y-90216904D02*
X199781069Y-89645476D01*
X199781069Y-89931190D02*
X198781069Y-89931190D01*
X198781069Y-89931190D02*
X198923926Y-89835952D01*
X198923926Y-89835952D02*
X199019164Y-89740714D01*
X199019164Y-89740714D02*
X199066783Y-89645476D01*
X197399819Y-11540714D02*
X196399819Y-11540714D01*
X196399819Y-11540714D02*
X196399819Y-11778809D01*
X196399819Y-11778809D02*
X196447438Y-11921666D01*
X196447438Y-11921666D02*
X196542676Y-12016904D01*
X196542676Y-12016904D02*
X196637914Y-12064523D01*
X196637914Y-12064523D02*
X196828390Y-12112142D01*
X196828390Y-12112142D02*
X196971247Y-12112142D01*
X196971247Y-12112142D02*
X197161723Y-12064523D01*
X197161723Y-12064523D02*
X197256961Y-12016904D01*
X197256961Y-12016904D02*
X197352200Y-11921666D01*
X197352200Y-11921666D02*
X197399819Y-11778809D01*
X197399819Y-11778809D02*
X197399819Y-11540714D01*
X197399819Y-13064523D02*
X197399819Y-12493095D01*
X197399819Y-12778809D02*
X196399819Y-12778809D01*
X196399819Y-12778809D02*
X196542676Y-12683571D01*
X196542676Y-12683571D02*
X196637914Y-12588333D01*
X196637914Y-12588333D02*
X196685533Y-12493095D01*
X197399819Y-14016904D02*
X197399819Y-13445476D01*
X197399819Y-13731190D02*
X196399819Y-13731190D01*
X196399819Y-13731190D02*
X196542676Y-13635952D01*
X196542676Y-13635952D02*
X196637914Y-13540714D01*
X196637914Y-13540714D02*
X196685533Y-13445476D01*
X92624819Y-30590714D02*
X91624819Y-30590714D01*
X91624819Y-30590714D02*
X91624819Y-30828809D01*
X91624819Y-30828809D02*
X91672438Y-30971666D01*
X91672438Y-30971666D02*
X91767676Y-31066904D01*
X91767676Y-31066904D02*
X91862914Y-31114523D01*
X91862914Y-31114523D02*
X92053390Y-31162142D01*
X92053390Y-31162142D02*
X92196247Y-31162142D01*
X92196247Y-31162142D02*
X92386723Y-31114523D01*
X92386723Y-31114523D02*
X92481961Y-31066904D01*
X92481961Y-31066904D02*
X92577200Y-30971666D01*
X92577200Y-30971666D02*
X92624819Y-30828809D01*
X92624819Y-30828809D02*
X92624819Y-30590714D01*
X92624819Y-32114523D02*
X92624819Y-31543095D01*
X92624819Y-31828809D02*
X91624819Y-31828809D01*
X91624819Y-31828809D02*
X91767676Y-31733571D01*
X91767676Y-31733571D02*
X91862914Y-31638333D01*
X91862914Y-31638333D02*
X91910533Y-31543095D01*
X92624819Y-32590714D02*
X92624819Y-32781190D01*
X92624819Y-32781190D02*
X92577200Y-32876428D01*
X92577200Y-32876428D02*
X92529580Y-32924047D01*
X92529580Y-32924047D02*
X92386723Y-33019285D01*
X92386723Y-33019285D02*
X92196247Y-33066904D01*
X92196247Y-33066904D02*
X91815295Y-33066904D01*
X91815295Y-33066904D02*
X91720057Y-33019285D01*
X91720057Y-33019285D02*
X91672438Y-32971666D01*
X91672438Y-32971666D02*
X91624819Y-32876428D01*
X91624819Y-32876428D02*
X91624819Y-32685952D01*
X91624819Y-32685952D02*
X91672438Y-32590714D01*
X91672438Y-32590714D02*
X91720057Y-32543095D01*
X91720057Y-32543095D02*
X91815295Y-32495476D01*
X91815295Y-32495476D02*
X92053390Y-32495476D01*
X92053390Y-32495476D02*
X92148628Y-32543095D01*
X92148628Y-32543095D02*
X92196247Y-32590714D01*
X92196247Y-32590714D02*
X92243866Y-32685952D01*
X92243866Y-32685952D02*
X92243866Y-32876428D01*
X92243866Y-32876428D02*
X92196247Y-32971666D01*
X92196247Y-32971666D02*
X92148628Y-33019285D01*
X92148628Y-33019285D02*
X92053390Y-33066904D01*
X18241666Y-8545180D02*
X18241666Y-7830895D01*
X18241666Y-7830895D02*
X18194047Y-7688038D01*
X18194047Y-7688038D02*
X18098809Y-7592800D01*
X18098809Y-7592800D02*
X17955952Y-7545180D01*
X17955952Y-7545180D02*
X17860714Y-7545180D01*
X19241666Y-7545180D02*
X18670238Y-7545180D01*
X18955952Y-7545180D02*
X18955952Y-8545180D01*
X18955952Y-8545180D02*
X18860714Y-8402323D01*
X18860714Y-8402323D02*
X18765476Y-8307085D01*
X18765476Y-8307085D02*
X18670238Y-8259466D01*
X140249819Y-12016905D02*
X139249819Y-12016905D01*
X139249819Y-12016905D02*
X139249819Y-12255000D01*
X139249819Y-12255000D02*
X139297438Y-12397857D01*
X139297438Y-12397857D02*
X139392676Y-12493095D01*
X139392676Y-12493095D02*
X139487914Y-12540714D01*
X139487914Y-12540714D02*
X139678390Y-12588333D01*
X139678390Y-12588333D02*
X139821247Y-12588333D01*
X139821247Y-12588333D02*
X140011723Y-12540714D01*
X140011723Y-12540714D02*
X140106961Y-12493095D01*
X140106961Y-12493095D02*
X140202200Y-12397857D01*
X140202200Y-12397857D02*
X140249819Y-12255000D01*
X140249819Y-12255000D02*
X140249819Y-12016905D01*
X139678390Y-13159762D02*
X139630771Y-13064524D01*
X139630771Y-13064524D02*
X139583152Y-13016905D01*
X139583152Y-13016905D02*
X139487914Y-12969286D01*
X139487914Y-12969286D02*
X139440295Y-12969286D01*
X139440295Y-12969286D02*
X139345057Y-13016905D01*
X139345057Y-13016905D02*
X139297438Y-13064524D01*
X139297438Y-13064524D02*
X139249819Y-13159762D01*
X139249819Y-13159762D02*
X139249819Y-13350238D01*
X139249819Y-13350238D02*
X139297438Y-13445476D01*
X139297438Y-13445476D02*
X139345057Y-13493095D01*
X139345057Y-13493095D02*
X139440295Y-13540714D01*
X139440295Y-13540714D02*
X139487914Y-13540714D01*
X139487914Y-13540714D02*
X139583152Y-13493095D01*
X139583152Y-13493095D02*
X139630771Y-13445476D01*
X139630771Y-13445476D02*
X139678390Y-13350238D01*
X139678390Y-13350238D02*
X139678390Y-13159762D01*
X139678390Y-13159762D02*
X139726009Y-13064524D01*
X139726009Y-13064524D02*
X139773628Y-13016905D01*
X139773628Y-13016905D02*
X139868866Y-12969286D01*
X139868866Y-12969286D02*
X140059342Y-12969286D01*
X140059342Y-12969286D02*
X140154580Y-13016905D01*
X140154580Y-13016905D02*
X140202200Y-13064524D01*
X140202200Y-13064524D02*
X140249819Y-13159762D01*
X140249819Y-13159762D02*
X140249819Y-13350238D01*
X140249819Y-13350238D02*
X140202200Y-13445476D01*
X140202200Y-13445476D02*
X140154580Y-13493095D01*
X140154580Y-13493095D02*
X140059342Y-13540714D01*
X140059342Y-13540714D02*
X139868866Y-13540714D01*
X139868866Y-13540714D02*
X139773628Y-13493095D01*
X139773628Y-13493095D02*
X139726009Y-13445476D01*
X139726009Y-13445476D02*
X139678390Y-13350238D01*
D11*
%TO.C,S20*%
X110200000Y-21675000D02*
X115300000Y-21675000D01*
X114100000Y-25875000D02*
X119200000Y-25875000D01*
X108200000Y-23675000D02*
G75*
G02*
X110200000Y-21675000I1999999J1D01*
G01*
X112100000Y-27875000D02*
G75*
G02*
X114100000Y-25875000I1999999J1D01*
G01*
%TO.C,S19*%
X91150000Y-21675000D02*
X96250000Y-21675000D01*
X95050000Y-25875000D02*
X100150000Y-25875000D01*
X89150000Y-23675000D02*
G75*
G02*
X91150000Y-21675000I1999999J1D01*
G01*
X93050000Y-27875000D02*
G75*
G02*
X95050000Y-25875000I1999999J1D01*
G01*
%TO.C,S47*%
X86387500Y-59775000D02*
X91487500Y-59775000D01*
X90287500Y-63975000D02*
X95387500Y-63975000D01*
X84387500Y-61775000D02*
G75*
G02*
X86387500Y-59775000I1999999J1D01*
G01*
X88287500Y-65975000D02*
G75*
G02*
X90287500Y-63975000I1999999J1D01*
G01*
%TO.C,S4*%
X62575000Y-2625000D02*
X67675000Y-2625000D01*
X66475000Y-6825000D02*
X71575000Y-6825000D01*
X60575000Y-4625000D02*
G75*
G02*
X62575000Y-2625000I1999999J1D01*
G01*
X64475000Y-8825000D02*
G75*
G02*
X66475000Y-6825000I1999999J1D01*
G01*
%TO.C,S7*%
X119725000Y-2625000D02*
X124825000Y-2625000D01*
X123625000Y-6825000D02*
X128725000Y-6825000D01*
X117725000Y-4625000D02*
G75*
G02*
X119725000Y-2625000I1999999J1D01*
G01*
X121625000Y-8825000D02*
G75*
G02*
X123625000Y-6825000I1999999J1D01*
G01*
%TO.C,S57-2*%
X14487500Y-88425000D02*
X9387500Y-88425000D01*
X18387500Y-92625000D02*
X13287500Y-92625000D01*
X16487500Y-86425000D02*
G75*
G02*
X14487500Y-88425000I-1999999J-1D01*
G01*
X20387500Y-90625000D02*
G75*
G02*
X18387500Y-92625000I-1999999J-1D01*
G01*
%TO.C,S12*%
X214975000Y-2625000D02*
X220075000Y-2625000D01*
X218875000Y-6825000D02*
X223975000Y-6825000D01*
X212975000Y-4625000D02*
G75*
G02*
X214975000Y-2625000I1999999J1D01*
G01*
X216875000Y-8825000D02*
G75*
G02*
X218875000Y-6825000I1999999J1D01*
G01*
%TO.C,S62*%
X226418750Y-88425000D02*
X221318750Y-88425000D01*
X230318750Y-92625000D02*
X225218750Y-92625000D01*
X228418750Y-86425000D02*
G75*
G02*
X226418750Y-88425000I-1999999J-1D01*
G01*
X232318750Y-90625000D02*
G75*
G02*
X230318750Y-92625000I-1999999J-1D01*
G01*
%TO.C,S3*%
X43525000Y-2625000D02*
X48625000Y-2625000D01*
X47425000Y-6825000D02*
X52525000Y-6825000D01*
X41525000Y-4625000D02*
G75*
G02*
X43525000Y-2625000I1999999J1D01*
G01*
X45425000Y-8825000D02*
G75*
G02*
X47425000Y-6825000I1999999J1D01*
G01*
%TO.C,S15*%
X10187500Y-21675000D02*
X15287500Y-21675000D01*
X14087500Y-25875000D02*
X19187500Y-25875000D01*
X8187500Y-23675000D02*
G75*
G02*
X10187500Y-21675000I1999999J1D01*
G01*
X12087500Y-27875000D02*
G75*
G02*
X14087500Y-25875000I1999999J1D01*
G01*
%TO.C,S62-2*%
X219737500Y-78825000D02*
X224837500Y-78825000D01*
X223637500Y-83025000D02*
X228737500Y-83025000D01*
X217737500Y-80825000D02*
G75*
G02*
X219737500Y-78825000I1999999J1D01*
G01*
X221637500Y-85025000D02*
G75*
G02*
X223637500Y-83025000I1999999J1D01*
G01*
%TO.C,S25*%
X205450000Y-21675000D02*
X210550000Y-21675000D01*
X209350000Y-25875000D02*
X214450000Y-25875000D01*
X203450000Y-23675000D02*
G75*
G02*
X205450000Y-21675000I1999999J1D01*
G01*
X207350000Y-27875000D02*
G75*
G02*
X209350000Y-25875000I1999999J1D01*
G01*
%TO.C,S1*%
X9725000Y-12225000D02*
X4625000Y-12225000D01*
X13625000Y-16425000D02*
X8525000Y-16425000D01*
X11725000Y-10225000D02*
G75*
G02*
X9725000Y-12225000I-1999999J-1D01*
G01*
X15625000Y-14425000D02*
G75*
G02*
X13625000Y-16425000I-1999999J-1D01*
G01*
%TO.C,S9*%
X157825000Y-2625000D02*
X162925000Y-2625000D01*
X161725000Y-6825000D02*
X166825000Y-6825000D01*
X155825000Y-4625000D02*
G75*
G02*
X157825000Y-2625000I1999999J1D01*
G01*
X159725000Y-8825000D02*
G75*
G02*
X161725000Y-6825000I1999999J1D01*
G01*
%TO.C,S44*%
X29237500Y-59775000D02*
X34337500Y-59775000D01*
X33137500Y-63975000D02*
X38237500Y-63975000D01*
X27237500Y-61775000D02*
G75*
G02*
X29237500Y-59775000I1999999J1D01*
G01*
X31137500Y-65975000D02*
G75*
G02*
X33137500Y-63975000I1999999J1D01*
G01*
%TO.C,S23*%
X167350000Y-21675000D02*
X172450000Y-21675000D01*
X171250000Y-25875000D02*
X176350000Y-25875000D01*
X165350000Y-23675000D02*
G75*
G02*
X167350000Y-21675000I1999999J1D01*
G01*
X169250000Y-27875000D02*
G75*
G02*
X171250000Y-25875000I1999999J1D01*
G01*
%TO.C,S64-2*%
X267362500Y-78825000D02*
X272462500Y-78825000D01*
X271262500Y-83025000D02*
X276362500Y-83025000D01*
X265362500Y-80825000D02*
G75*
G02*
X267362500Y-78825000I1999999J1D01*
G01*
X269262500Y-85025000D02*
G75*
G02*
X271262500Y-83025000I1999999J1D01*
G01*
%TO.C,S57*%
X7806250Y-78825000D02*
X12906250Y-78825000D01*
X11706250Y-83025000D02*
X16806250Y-83025000D01*
X5806250Y-80825000D02*
G75*
G02*
X7806250Y-78825000I1999999J1D01*
G01*
X9706250Y-85025000D02*
G75*
G02*
X11706250Y-83025000I1999999J1D01*
G01*
%TO.C,S14*%
X262600000Y-2625000D02*
X267700000Y-2625000D01*
X266500000Y-6825000D02*
X271600000Y-6825000D01*
X260600000Y-4625000D02*
G75*
G02*
X262600000Y-2625000I1999999J1D01*
G01*
X264500000Y-8825000D02*
G75*
G02*
X266500000Y-6825000I1999999J1D01*
G01*
%TO.C,S61*%
X198306250Y-78825000D02*
X203406250Y-78825000D01*
X202206250Y-83025000D02*
X207306250Y-83025000D01*
X196306250Y-80825000D02*
G75*
G02*
X198306250Y-78825000I1999999J1D01*
G01*
X200206250Y-85025000D02*
G75*
G02*
X202206250Y-83025000I1999999J1D01*
G01*
%TO.C,S16*%
X34000000Y-21675000D02*
X39100000Y-21675000D01*
X37900000Y-25875000D02*
X43000000Y-25875000D01*
X32000000Y-23675000D02*
G75*
G02*
X34000000Y-21675000I1999999J1D01*
G01*
X35900000Y-27875000D02*
G75*
G02*
X37900000Y-25875000I1999999J1D01*
G01*
%TO.C,S24*%
X186400000Y-21675000D02*
X191500000Y-21675000D01*
X190300000Y-25875000D02*
X195400000Y-25875000D01*
X184400000Y-23675000D02*
G75*
G02*
X186400000Y-21675000I1999999J1D01*
G01*
X188300000Y-27875000D02*
G75*
G02*
X190300000Y-25875000I1999999J1D01*
G01*
%TO.C,S31*%
X57812500Y-40725000D02*
X62912500Y-40725000D01*
X61712500Y-44925000D02*
X66812500Y-44925000D01*
X55812500Y-42725000D02*
G75*
G02*
X57812500Y-40725000I1999999J1D01*
G01*
X59712500Y-46925000D02*
G75*
G02*
X61712500Y-44925000I1999999J1D01*
G01*
%TO.C,S33*%
X95912500Y-40725000D02*
X101012500Y-40725000D01*
X99812500Y-44925000D02*
X104912500Y-44925000D01*
X93912500Y-42725000D02*
G75*
G02*
X95912500Y-40725000I1999999J1D01*
G01*
X97812500Y-46925000D02*
G75*
G02*
X99812500Y-44925000I1999999J1D01*
G01*
%TO.C,S34*%
X114962500Y-40725000D02*
X120062500Y-40725000D01*
X118862500Y-44925000D02*
X123962500Y-44925000D01*
X112962500Y-42725000D02*
G75*
G02*
X114962500Y-40725000I1999999J1D01*
G01*
X116862500Y-46925000D02*
G75*
G02*
X118862500Y-44925000I1999999J1D01*
G01*
%TO.C,S46*%
X67337500Y-59775000D02*
X72437500Y-59775000D01*
X71237500Y-63975000D02*
X76337500Y-63975000D01*
X65337500Y-61775000D02*
G75*
G02*
X67337500Y-59775000I1999999J1D01*
G01*
X69237500Y-65975000D02*
G75*
G02*
X71237500Y-63975000I1999999J1D01*
G01*
%TO.C,S50*%
X143537500Y-59775000D02*
X148637500Y-59775000D01*
X147437500Y-63975000D02*
X152537500Y-63975000D01*
X141537500Y-61775000D02*
G75*
G02*
X143537500Y-59775000I1999999J1D01*
G01*
X145437500Y-65975000D02*
G75*
G02*
X147437500Y-63975000I1999999J1D01*
G01*
%TO.C,S22*%
X148300000Y-21675000D02*
X153400000Y-21675000D01*
X152200000Y-25875000D02*
X157300000Y-25875000D01*
X146300000Y-23675000D02*
G75*
G02*
X148300000Y-21675000I1999999J1D01*
G01*
X150200000Y-27875000D02*
G75*
G02*
X152200000Y-25875000I1999999J1D01*
G01*
%TO.C,S41*%
X245512500Y-51725000D02*
X245512500Y-46625000D01*
X249712500Y-47825000D02*
X249712500Y-42725000D01*
X247512500Y-53725000D02*
G75*
G02*
X245512500Y-51725000I-1J1999999D01*
G01*
X251712500Y-49825000D02*
G75*
G02*
X249712500Y-47825000I-1J1999999D01*
G01*
%TO.C,S63-2*%
X243550000Y-78825000D02*
X248650000Y-78825000D01*
X247450000Y-83025000D02*
X252550000Y-83025000D01*
X241550000Y-80825000D02*
G75*
G02*
X243550000Y-78825000I1999999J1D01*
G01*
X245450000Y-85025000D02*
G75*
G02*
X247450000Y-83025000I1999999J1D01*
G01*
%TO.C,S27*%
X243550000Y-21675000D02*
X248650000Y-21675000D01*
X247450000Y-25875000D02*
X252550000Y-25875000D01*
X241550000Y-23675000D02*
G75*
G02*
X243550000Y-21675000I1999999J1D01*
G01*
X245450000Y-27875000D02*
G75*
G02*
X247450000Y-25875000I1999999J1D01*
G01*
%TO.C,S58*%
X31618750Y-78825000D02*
X36718750Y-78825000D01*
X35518750Y-83025000D02*
X40618750Y-83025000D01*
X29618750Y-80825000D02*
G75*
G02*
X31618750Y-78825000I1999999J1D01*
G01*
X33518750Y-85025000D02*
G75*
G02*
X35518750Y-83025000I1999999J1D01*
G01*
%TO.C,S60-2*%
X143075000Y-88425000D02*
X137975000Y-88425000D01*
X146975000Y-92625000D02*
X141875000Y-92625000D01*
X145075000Y-86425000D02*
G75*
G02*
X143075000Y-88425000I-1999999J-1D01*
G01*
X148975000Y-90625000D02*
G75*
G02*
X146975000Y-92625000I-1999999J-1D01*
G01*
%TO.C,S8*%
X138775000Y-2625000D02*
X143875000Y-2625000D01*
X142675000Y-6825000D02*
X147775000Y-6825000D01*
X136775000Y-4625000D02*
G75*
G02*
X138775000Y-2625000I1999999J1D01*
G01*
X140675000Y-8825000D02*
G75*
G02*
X142675000Y-6825000I1999999J1D01*
G01*
%TO.C,S63*%
X250231250Y-88425000D02*
X245131250Y-88425000D01*
X254131250Y-92625000D02*
X249031250Y-92625000D01*
X252231250Y-86425000D02*
G75*
G02*
X250231250Y-88425000I-1999999J-1D01*
G01*
X256131250Y-90625000D02*
G75*
G02*
X254131250Y-92625000I-1999999J-1D01*
G01*
%TO.C,S37*%
X172112500Y-40725000D02*
X177212500Y-40725000D01*
X176012500Y-44925000D02*
X181112500Y-44925000D01*
X170112500Y-42725000D02*
G75*
G02*
X172112500Y-40725000I1999999J1D01*
G01*
X174012500Y-46925000D02*
G75*
G02*
X176012500Y-44925000I1999999J1D01*
G01*
%TO.C,S55*%
X250231250Y-69375000D02*
X245131250Y-69375000D01*
X254131250Y-73575000D02*
X249031250Y-73575000D01*
X252231250Y-67375000D02*
G75*
G02*
X250231250Y-69375000I-1999999J-1D01*
G01*
X256131250Y-71575000D02*
G75*
G02*
X254131250Y-73575000I-1999999J-1D01*
G01*
%TO.C,S21*%
X129250000Y-21675000D02*
X134350000Y-21675000D01*
X133150000Y-25875000D02*
X138250000Y-25875000D01*
X127250000Y-23675000D02*
G75*
G02*
X129250000Y-21675000I1999999J1D01*
G01*
X131150000Y-27875000D02*
G75*
G02*
X133150000Y-25875000I1999999J1D01*
G01*
%TO.C,S11*%
X195925000Y-2625000D02*
X201025000Y-2625000D01*
X199825000Y-6825000D02*
X204925000Y-6825000D01*
X193925000Y-4625000D02*
G75*
G02*
X195925000Y-2625000I1999999J1D01*
G01*
X197825000Y-8825000D02*
G75*
G02*
X199825000Y-6825000I1999999J1D01*
G01*
%TO.C,S52*%
X181637500Y-59775000D02*
X186737500Y-59775000D01*
X185537500Y-63975000D02*
X190637500Y-63975000D01*
X179637500Y-61775000D02*
G75*
G02*
X181637500Y-59775000I1999999J1D01*
G01*
X183537500Y-65975000D02*
G75*
G02*
X185537500Y-63975000I1999999J1D01*
G01*
%TO.C,S30*%
X38762500Y-40725000D02*
X43862500Y-40725000D01*
X42662500Y-44925000D02*
X47762500Y-44925000D01*
X36762500Y-42725000D02*
G75*
G02*
X38762500Y-40725000I1999999J1D01*
G01*
X40662500Y-46925000D02*
G75*
G02*
X42662500Y-44925000I1999999J1D01*
G01*
%TO.C,S38*%
X191162500Y-40725000D02*
X196262500Y-40725000D01*
X195062500Y-44925000D02*
X200162500Y-44925000D01*
X189162500Y-42725000D02*
G75*
G02*
X191162500Y-40725000I1999999J1D01*
G01*
X193062500Y-46925000D02*
G75*
G02*
X195062500Y-44925000I1999999J1D01*
G01*
%TO.C,S35*%
X134012500Y-40725000D02*
X139112500Y-40725000D01*
X137912500Y-44925000D02*
X143012500Y-44925000D01*
X132012500Y-42725000D02*
G75*
G02*
X134012500Y-40725000I1999999J1D01*
G01*
X135912500Y-46925000D02*
G75*
G02*
X137912500Y-44925000I1999999J1D01*
G01*
%TO.C,S39*%
X210212500Y-40725000D02*
X215312500Y-40725000D01*
X214112500Y-44925000D02*
X219212500Y-44925000D01*
X208212500Y-42725000D02*
G75*
G02*
X210212500Y-40725000I1999999J1D01*
G01*
X212112500Y-46925000D02*
G75*
G02*
X214112500Y-44925000I1999999J1D01*
G01*
%TO.C,S48*%
X105437500Y-59775000D02*
X110537500Y-59775000D01*
X109337500Y-63975000D02*
X114437500Y-63975000D01*
X103437500Y-61775000D02*
G75*
G02*
X105437500Y-59775000I1999999J1D01*
G01*
X107337500Y-65975000D02*
G75*
G02*
X109337500Y-63975000I1999999J1D01*
G01*
%TO.C,S18*%
X72100000Y-21675000D02*
X77200000Y-21675000D01*
X76000000Y-25875000D02*
X81100000Y-25875000D01*
X70100000Y-23675000D02*
G75*
G02*
X72100000Y-21675000I1999999J1D01*
G01*
X74000000Y-27875000D02*
G75*
G02*
X76000000Y-25875000I1999999J1D01*
G01*
%TO.C,S28-2*%
X257418750Y-51725000D02*
X257418750Y-46625000D01*
X261618750Y-47825000D02*
X261618750Y-42725000D01*
X259418750Y-53725000D02*
G75*
G02*
X257418750Y-51725000I-1J1999999D01*
G01*
X263618750Y-49825000D02*
G75*
G02*
X261618750Y-47825000I-1J1999999D01*
G01*
%TO.C,S45*%
X48287500Y-59775000D02*
X53387500Y-59775000D01*
X52187500Y-63975000D02*
X57287500Y-63975000D01*
X46287500Y-61775000D02*
G75*
G02*
X48287500Y-59775000I1999999J1D01*
G01*
X50187500Y-65975000D02*
G75*
G02*
X52187500Y-63975000I1999999J1D01*
G01*
%TO.C,S13*%
X234025000Y-2625000D02*
X239125000Y-2625000D01*
X237925000Y-6825000D02*
X243025000Y-6825000D01*
X232025000Y-4625000D02*
G75*
G02*
X234025000Y-2625000I1999999J1D01*
G01*
X235925000Y-8825000D02*
G75*
G02*
X237925000Y-6825000I1999999J1D01*
G01*
%TO.C,S26*%
X224500000Y-21675000D02*
X229600000Y-21675000D01*
X228400000Y-25875000D02*
X233500000Y-25875000D01*
X222500000Y-23675000D02*
G75*
G02*
X224500000Y-21675000I1999999J1D01*
G01*
X226400000Y-27875000D02*
G75*
G02*
X228400000Y-25875000I1999999J1D01*
G01*
%TO.C,S5*%
X81625000Y-2625000D02*
X86725000Y-2625000D01*
X85525000Y-6825000D02*
X90625000Y-6825000D01*
X79625000Y-4625000D02*
G75*
G02*
X81625000Y-2625000I1999999J1D01*
G01*
X83525000Y-8825000D02*
G75*
G02*
X85525000Y-6825000I1999999J1D01*
G01*
%TO.C,S17*%
X53050000Y-21675000D02*
X58150000Y-21675000D01*
X56950000Y-25875000D02*
X62050000Y-25875000D01*
X51050000Y-23675000D02*
G75*
G02*
X53050000Y-21675000I1999999J1D01*
G01*
X54950000Y-27875000D02*
G75*
G02*
X56950000Y-25875000I1999999J1D01*
G01*
%TO.C,S32*%
X76862500Y-40725000D02*
X81962500Y-40725000D01*
X80762500Y-44925000D02*
X85862500Y-44925000D01*
X74862500Y-42725000D02*
G75*
G02*
X76862500Y-40725000I1999999J1D01*
G01*
X78762500Y-46925000D02*
G75*
G02*
X80762500Y-44925000I1999999J1D01*
G01*
%TO.C,S55-2*%
X255456250Y-59775000D02*
X260556250Y-59775000D01*
X259356250Y-63975000D02*
X264456250Y-63975000D01*
X253456250Y-61775000D02*
G75*
G02*
X255456250Y-59775000I1999999J1D01*
G01*
X257356250Y-65975000D02*
G75*
G02*
X259356250Y-63975000I1999999J1D01*
G01*
%TO.C,S36*%
X153062500Y-40725000D02*
X158162500Y-40725000D01*
X156962500Y-44925000D02*
X162062500Y-44925000D01*
X151062500Y-42725000D02*
G75*
G02*
X153062500Y-40725000I1999999J1D01*
G01*
X154962500Y-46925000D02*
G75*
G02*
X156962500Y-44925000I1999999J1D01*
G01*
%TO.C,S49*%
X124487500Y-59775000D02*
X129587500Y-59775000D01*
X128387500Y-63975000D02*
X133487500Y-63975000D01*
X122487500Y-61775000D02*
G75*
G02*
X124487500Y-59775000I1999999J1D01*
G01*
X126387500Y-65975000D02*
G75*
G02*
X128387500Y-63975000I1999999J1D01*
G01*
%TO.C,S60*%
X126868750Y-78825000D02*
X131968750Y-78825000D01*
X130768750Y-83025000D02*
X135868750Y-83025000D01*
X124868750Y-80825000D02*
G75*
G02*
X126868750Y-78825000I1999999J1D01*
G01*
X128768750Y-85025000D02*
G75*
G02*
X130768750Y-83025000I1999999J1D01*
G01*
%TO.C,S53*%
X200687500Y-59775000D02*
X205787500Y-59775000D01*
X204587500Y-63975000D02*
X209687500Y-63975000D01*
X198687500Y-61775000D02*
G75*
G02*
X200687500Y-59775000I1999999J1D01*
G01*
X202587500Y-65975000D02*
G75*
G02*
X204587500Y-63975000I1999999J1D01*
G01*
%TO.C,S10*%
X176875000Y-2625000D02*
X181975000Y-2625000D01*
X180775000Y-6825000D02*
X185875000Y-6825000D01*
X174875000Y-4625000D02*
G75*
G02*
X176875000Y-2625000I1999999J1D01*
G01*
X178775000Y-8825000D02*
G75*
G02*
X180775000Y-6825000I1999999J1D01*
G01*
%TO.C,S56*%
X278925000Y-66475000D02*
X278925000Y-71575000D01*
X283125000Y-62575000D02*
X283125000Y-67675000D01*
X276925000Y-64475000D02*
G75*
G02*
X278925000Y-66475000I1J-1999999D01*
G01*
X281125000Y-60575000D02*
G75*
G02*
X283125000Y-62575000I1J-1999999D01*
G01*
%TO.C,S59*%
X55431250Y-78825000D02*
X60531250Y-78825000D01*
X59331250Y-83025000D02*
X64431250Y-83025000D01*
X53431250Y-80825000D02*
G75*
G02*
X55431250Y-78825000I1999999J1D01*
G01*
X57331250Y-85025000D02*
G75*
G02*
X59331250Y-83025000I1999999J1D01*
G01*
%TO.C,S42*%
X257375000Y-12225000D02*
X252275000Y-12225000D01*
X261275000Y-16425000D02*
X256175000Y-16425000D01*
X259375000Y-10225000D02*
G75*
G02*
X257375000Y-12225000I-1999999J-1D01*
G01*
X263275000Y-14425000D02*
G75*
G02*
X261275000Y-16425000I-1999999J-1D01*
G01*
%TO.C,S14-2*%
X276425000Y-12225000D02*
X271325000Y-12225000D01*
X280325000Y-16425000D02*
X275225000Y-16425000D01*
X278425000Y-10225000D02*
G75*
G02*
X276425000Y-12225000I-1999999J-1D01*
G01*
X282325000Y-14425000D02*
G75*
G02*
X280325000Y-16425000I-1999999J-1D01*
G01*
%TO.C,S54*%
X219737500Y-59775000D02*
X224837500Y-59775000D01*
X223637500Y-63975000D02*
X228737500Y-63975000D01*
X217737500Y-61775000D02*
G75*
G02*
X219737500Y-59775000I1999999J1D01*
G01*
X221637500Y-65975000D02*
G75*
G02*
X223637500Y-63975000I1999999J1D01*
G01*
%TO.C,S43*%
X7806250Y-59775000D02*
X12906250Y-59775000D01*
X11706250Y-63975000D02*
X16806250Y-63975000D01*
X5806250Y-61775000D02*
G75*
G02*
X7806250Y-59775000I1999999J1D01*
G01*
X9706250Y-65975000D02*
G75*
G02*
X11706250Y-63975000I1999999J1D01*
G01*
%TO.C,S51*%
X162587500Y-59775000D02*
X167687500Y-59775000D01*
X166487500Y-63975000D02*
X171587500Y-63975000D01*
X160587500Y-61775000D02*
G75*
G02*
X162587500Y-59775000I1999999J1D01*
G01*
X164487500Y-65975000D02*
G75*
G02*
X166487500Y-63975000I1999999J1D01*
G01*
%TO.C,S58-2*%
X38300000Y-88425000D02*
X33200000Y-88425000D01*
X42200000Y-92625000D02*
X37100000Y-92625000D01*
X40300000Y-86425000D02*
G75*
G02*
X38300000Y-88425000I-1999999J-1D01*
G01*
X44200000Y-90625000D02*
G75*
G02*
X42200000Y-92625000I-1999999J-1D01*
G01*
%TO.C,S41-2*%
X274162500Y-28375000D02*
X274162500Y-33475000D01*
X278362500Y-24475000D02*
X278362500Y-29575000D01*
X272162500Y-26375000D02*
G75*
G02*
X274162500Y-28375000I1J-1999999D01*
G01*
X276362500Y-22475000D02*
G75*
G02*
X278362500Y-24475000I1J-1999999D01*
G01*
%TO.C,S28*%
X266943750Y-42200000D02*
X266943750Y-37100000D01*
X271143750Y-38300000D02*
X271143750Y-33200000D01*
X268943750Y-44200000D02*
G75*
G02*
X266943750Y-42200000I-1J1999999D01*
G01*
X273143750Y-40300000D02*
G75*
G02*
X271143750Y-38300000I-1J1999999D01*
G01*
%TO.C,S29-2*%
X7806250Y-40725000D02*
X12906250Y-40725000D01*
X11706250Y-44925000D02*
X16806250Y-44925000D01*
X5806250Y-42725000D02*
G75*
G02*
X7806250Y-40725000I1999999J1D01*
G01*
X9706250Y-46925000D02*
G75*
G02*
X11706250Y-44925000I1999999J1D01*
G01*
%TO.C,S29*%
X16868750Y-50325000D02*
X11768750Y-50325000D01*
X20768750Y-54525000D02*
X15668750Y-54525000D01*
X18868750Y-48325000D02*
G75*
G02*
X16868750Y-50325000I-1999999J-1D01*
G01*
X22768750Y-52525000D02*
G75*
G02*
X20768750Y-54525000I-1999999J-1D01*
G01*
%TO.C,S6*%
X100675000Y-2625000D02*
X105775000Y-2625000D01*
X104575000Y-6825000D02*
X109675000Y-6825000D01*
X98675000Y-4625000D02*
G75*
G02*
X100675000Y-2625000I1999999J1D01*
G01*
X102575000Y-8825000D02*
G75*
G02*
X104575000Y-6825000I1999999J1D01*
G01*
%TO.C,S59-2*%
X62112500Y-88425000D02*
X57012500Y-88425000D01*
X66012500Y-92625000D02*
X60912500Y-92625000D01*
X64112500Y-86425000D02*
G75*
G02*
X62112500Y-88425000I-1999999J-1D01*
G01*
X68012500Y-90625000D02*
G75*
G02*
X66012500Y-92625000I-1999999J-1D01*
G01*
%TO.C,S43-2*%
X21631250Y-69375000D02*
X16531250Y-69375000D01*
X25531250Y-73575000D02*
X20431250Y-73575000D01*
X23631250Y-67375000D02*
G75*
G02*
X21631250Y-69375000I-1999999J-1D01*
G01*
X27531250Y-71575000D02*
G75*
G02*
X25531250Y-73575000I-1999999J-1D01*
G01*
%TO.C,S2*%
X28775000Y-12225000D02*
X23675000Y-12225000D01*
X32675000Y-16425000D02*
X27575000Y-16425000D01*
X30775000Y-10225000D02*
G75*
G02*
X28775000Y-12225000I-1999999J-1D01*
G01*
X34675000Y-14425000D02*
G75*
G02*
X32675000Y-16425000I-1999999J-1D01*
G01*
%TO.C,S64*%
X274043750Y-88425000D02*
X268943750Y-88425000D01*
X277943750Y-92625000D02*
X272843750Y-92625000D01*
X276043750Y-86425000D02*
G75*
G02*
X274043750Y-88425000I-1999999J-1D01*
G01*
X279943750Y-90625000D02*
G75*
G02*
X277943750Y-92625000I-1999999J-1D01*
G01*
%TO.C,S40*%
X229262500Y-40725000D02*
X234362500Y-40725000D01*
X233162500Y-44925000D02*
X238262500Y-44925000D01*
X227262500Y-42725000D02*
G75*
G02*
X229262500Y-40725000I1999999J1D01*
G01*
X231162500Y-46925000D02*
G75*
G02*
X233162500Y-44925000I1999999J1D01*
G01*
%TO.C,D1*%
X3445000Y-7945000D02*
X3445000Y-3935000D01*
X5445000Y-3935000D02*
X3445000Y-3935000D01*
X5445000Y-7945000D02*
X5445000Y-3935000D01*
%TO.C,D46*%
X65357500Y-68255000D02*
X65357500Y-72265000D01*
X65357500Y-72265000D02*
X67357500Y-72265000D01*
X67357500Y-68255000D02*
X67357500Y-72265000D01*
%TO.C,D32*%
X74882500Y-49205000D02*
X74882500Y-53215000D01*
X74882500Y-53215000D02*
X76882500Y-53215000D01*
X76882500Y-49205000D02*
X76882500Y-53215000D01*
%TO.C,D34*%
X112982500Y-49205000D02*
X112982500Y-53215000D01*
X112982500Y-53215000D02*
X114982500Y-53215000D01*
X114982500Y-49205000D02*
X114982500Y-53215000D01*
%TO.C,D41*%
X241412500Y-55805000D02*
X241412500Y-51795000D01*
X243412500Y-51795000D02*
X241412500Y-51795000D01*
X243412500Y-55805000D02*
X243412500Y-51795000D01*
%TO.C,D56*%
X270145000Y-65025000D02*
X270145000Y-69035000D01*
X270145000Y-69035000D02*
X272145000Y-69035000D01*
X272145000Y-65025000D02*
X272145000Y-69035000D01*
%TO.C,D50*%
X141557500Y-68255000D02*
X141557500Y-72265000D01*
X141557500Y-72265000D02*
X143557500Y-72265000D01*
X143557500Y-68255000D02*
X143557500Y-72265000D01*
%TO.C,D51*%
X160607500Y-68255000D02*
X160607500Y-72265000D01*
X160607500Y-72265000D02*
X162607500Y-72265000D01*
X162607500Y-68255000D02*
X162607500Y-72265000D01*
%TO.C,D5*%
X79645000Y-11105000D02*
X79645000Y-15115000D01*
X79645000Y-15115000D02*
X81645000Y-15115000D01*
X81645000Y-11105000D02*
X81645000Y-15115000D01*
%TO.C,R1*%
X99533641Y-78045000D02*
X99226359Y-78045000D01*
X99533641Y-78805000D02*
X99226359Y-78805000D01*
%TO.C,D38*%
X189182500Y-49205000D02*
X189182500Y-53215000D01*
X189182500Y-53215000D02*
X191182500Y-53215000D01*
X191182500Y-49205000D02*
X191182500Y-53215000D01*
%TO.C,D52*%
X179657500Y-68255000D02*
X179657500Y-72265000D01*
X179657500Y-72265000D02*
X181657500Y-72265000D01*
X181657500Y-68255000D02*
X181657500Y-72265000D01*
%TO.C,D60*%
X124888750Y-87305000D02*
X124888750Y-91315000D01*
X124888750Y-91315000D02*
X126888750Y-91315000D01*
X126888750Y-87305000D02*
X126888750Y-91315000D01*
%TO.C,D48*%
X103457500Y-68255000D02*
X103457500Y-72265000D01*
X103457500Y-72265000D02*
X105457500Y-72265000D01*
X105457500Y-68255000D02*
X105457500Y-72265000D01*
%TO.C,D20*%
X108220000Y-30155000D02*
X108220000Y-34165000D01*
X108220000Y-34165000D02*
X110220000Y-34165000D01*
X110220000Y-30155000D02*
X110220000Y-34165000D01*
%TO.C,C8*%
X100767164Y-87665000D02*
X100982836Y-87665000D01*
X100767164Y-88385000D02*
X100982836Y-88385000D01*
%TO.C,R4*%
X101028641Y-86645000D02*
X100721359Y-86645000D01*
X101028641Y-87405000D02*
X100721359Y-87405000D01*
%TO.C,D42*%
X254462500Y-26925000D02*
X254462500Y-30935000D01*
X254462500Y-30935000D02*
X256462500Y-30935000D01*
X256462500Y-26925000D02*
X256462500Y-30935000D01*
%TO.C,D55*%
X235640000Y-70555000D02*
X235640000Y-72555000D01*
X239650000Y-70555000D02*
X235640000Y-70555000D01*
X239650000Y-72555000D02*
X235640000Y-72555000D01*
%TO.C,D49*%
X122507500Y-68255000D02*
X122507500Y-72265000D01*
X122507500Y-72265000D02*
X124507500Y-72265000D01*
X124507500Y-68255000D02*
X124507500Y-72265000D01*
%TO.C,D64*%
X260462500Y-80645000D02*
X260462500Y-76635000D01*
X262462500Y-76635000D02*
X260462500Y-76635000D01*
X262462500Y-80645000D02*
X262462500Y-76635000D01*
%TO.C,D27*%
X241570000Y-30155000D02*
X241570000Y-34165000D01*
X241570000Y-34165000D02*
X243570000Y-34165000D01*
X243570000Y-30155000D02*
X243570000Y-34165000D01*
%TO.C,C10*%
X100767164Y-88665000D02*
X100982836Y-88665000D01*
X100767164Y-89385000D02*
X100982836Y-89385000D01*
%TO.C,D3*%
X41545000Y-11105000D02*
X41545000Y-15115000D01*
X41545000Y-15115000D02*
X43545000Y-15115000D01*
X43545000Y-11105000D02*
X43545000Y-15115000D01*
%TO.C,R6*%
X16661359Y-8295000D02*
X16968641Y-8295000D01*
X16661359Y-9055000D02*
X16968641Y-9055000D01*
%TO.C,D4*%
X60595000Y-11105000D02*
X60595000Y-15115000D01*
X60595000Y-15115000D02*
X62595000Y-15115000D01*
X62595000Y-11105000D02*
X62595000Y-15115000D01*
%TO.C,D33*%
X93932500Y-49205000D02*
X93932500Y-53215000D01*
X93932500Y-53215000D02*
X95932500Y-53215000D01*
X95932500Y-49205000D02*
X95932500Y-53215000D01*
%TO.C,C9*%
X101995000Y-89612836D02*
X101995000Y-89397164D01*
X102715000Y-89612836D02*
X102715000Y-89397164D01*
%TO.C,C7*%
X100767164Y-83665000D02*
X100982836Y-83665000D01*
X100767164Y-84385000D02*
X100982836Y-84385000D01*
%TO.C,D17*%
X51070000Y-30155000D02*
X51070000Y-34165000D01*
X51070000Y-34165000D02*
X53070000Y-34165000D01*
X53070000Y-30155000D02*
X53070000Y-34165000D01*
%TO.C,Y1*%
X114525000Y-86275000D02*
X118525000Y-86275000D01*
X118525000Y-86275000D02*
X118525000Y-82975000D01*
%TO.C,U2*%
X98265000Y-80305000D02*
X101265000Y-80305000D01*
X98265000Y-82575000D02*
X101265000Y-82575000D01*
X102095000Y-80390000D02*
X101815000Y-80390000D01*
X101815000Y-80110000D01*
X102095000Y-80390000D01*
G36*
X102095000Y-80390000D02*
G01*
X101815000Y-80390000D01*
X101815000Y-80110000D01*
X102095000Y-80390000D01*
G37*
%TO.C,C2*%
X116632836Y-82015000D02*
X116417164Y-82015000D01*
X116632836Y-82735000D02*
X116417164Y-82735000D01*
%TO.C,D28*%
X253102500Y-32455000D02*
X253102500Y-34455000D01*
X257112500Y-32455000D02*
X253102500Y-32455000D01*
X257112500Y-34455000D02*
X253102500Y-34455000D01*
%TO.C,D63*%
X236650000Y-80645000D02*
X236650000Y-76635000D01*
X238650000Y-76635000D02*
X236650000Y-76635000D01*
X238650000Y-80645000D02*
X238650000Y-76635000D01*
%TO.C,D31*%
X55832500Y-49205000D02*
X55832500Y-53215000D01*
X55832500Y-53215000D02*
X57832500Y-53215000D01*
X57832500Y-49205000D02*
X57832500Y-53215000D01*
%TO.C,U3*%
X103715000Y-81715000D02*
X103715000Y-82065000D01*
X103715000Y-88635000D02*
X103715000Y-87985000D01*
X103955000Y-81415000D02*
X104365000Y-81415000D01*
X104365000Y-88635000D02*
X103715000Y-88635000D01*
X110285000Y-81415000D02*
X110935000Y-81415000D01*
X110285000Y-88635000D02*
X110935000Y-88635000D01*
X110935000Y-81415000D02*
X110935000Y-82065000D01*
X110935000Y-88635000D02*
X110935000Y-87985000D01*
X103715000Y-81415000D02*
X103385000Y-81655000D01*
X103385000Y-81175000D01*
X103715000Y-81415000D01*
G36*
X103715000Y-81415000D02*
G01*
X103385000Y-81655000D01*
X103385000Y-81175000D01*
X103715000Y-81415000D01*
G37*
%TO.C,C4*%
X93140000Y-81062164D02*
X93140000Y-81277836D01*
X93860000Y-81062164D02*
X93860000Y-81277836D01*
%TO.C,D29*%
X25668750Y-49205000D02*
X25668750Y-53215000D01*
X25668750Y-53215000D02*
X27668750Y-53215000D01*
X27668750Y-49205000D02*
X27668750Y-53215000D01*
%TO.C,D40*%
X227282500Y-49205000D02*
X227282500Y-53215000D01*
X227282500Y-53215000D02*
X229282500Y-53215000D01*
X229282500Y-49205000D02*
X229282500Y-53215000D01*
%TO.C,D47*%
X84407500Y-68255000D02*
X84407500Y-72265000D01*
X84407500Y-72265000D02*
X86407500Y-72265000D01*
X86407500Y-68255000D02*
X86407500Y-72265000D01*
%TO.C,D9*%
X155845000Y-11105000D02*
X155845000Y-15115000D01*
X155845000Y-15115000D02*
X157845000Y-15115000D01*
X157845000Y-11105000D02*
X157845000Y-15115000D01*
%TO.C,R5*%
X116371359Y-86495000D02*
X116678641Y-86495000D01*
X116371359Y-87255000D02*
X116678641Y-87255000D01*
%TO.C,D45*%
X46307500Y-68255000D02*
X46307500Y-72265000D01*
X46307500Y-72265000D02*
X48307500Y-72265000D01*
X48307500Y-68255000D02*
X48307500Y-72265000D01*
%TO.C,D54*%
X217757500Y-68255000D02*
X217757500Y-72265000D01*
X217757500Y-72265000D02*
X219757500Y-72265000D01*
X219757500Y-68255000D02*
X219757500Y-72265000D01*
%TO.C,D7*%
X117745000Y-11105000D02*
X117745000Y-15115000D01*
X117745000Y-15115000D02*
X119745000Y-15115000D01*
X119745000Y-11105000D02*
X119745000Y-15115000D01*
%TO.C,D53*%
X198707500Y-68255000D02*
X198707500Y-72265000D01*
X198707500Y-72265000D02*
X200707500Y-72265000D01*
X200707500Y-68255000D02*
X200707500Y-72265000D01*
%TO.C,D24*%
X184420000Y-30155000D02*
X184420000Y-34165000D01*
X184420000Y-34165000D02*
X186420000Y-34165000D01*
X186420000Y-30155000D02*
X186420000Y-34165000D01*
%TO.C,C12*%
X107737164Y-89625000D02*
X107952836Y-89625000D01*
X107737164Y-90345000D02*
X107952836Y-90345000D01*
%TO.C,D39*%
X208232500Y-49205000D02*
X208232500Y-53215000D01*
X208232500Y-53215000D02*
X210232500Y-53215000D01*
X210232500Y-49205000D02*
X210232500Y-53215000D01*
%TO.C,D21*%
X127270000Y-30155000D02*
X127270000Y-34165000D01*
X127270000Y-34165000D02*
X129270000Y-34165000D01*
X129270000Y-30155000D02*
X129270000Y-34165000D01*
%TO.C,C3*%
X118915000Y-84517164D02*
X118915000Y-84732836D01*
X119635000Y-84517164D02*
X119635000Y-84732836D01*
%TO.C,D10*%
X174895000Y-11105000D02*
X174895000Y-15115000D01*
X174895000Y-15115000D02*
X176895000Y-15115000D01*
X176895000Y-11105000D02*
X176895000Y-15115000D01*
%TO.C,J2*%
X95165000Y-77315000D02*
X95165000Y-78117470D01*
X95165000Y-77315000D02*
X96370000Y-77315000D01*
X95165000Y-78732530D02*
X95165000Y-79535000D01*
X95165000Y-79535000D02*
X96370000Y-79535000D01*
X96370000Y-77315000D02*
X96370000Y-77861529D01*
X96370000Y-78988471D02*
X96370000Y-79535000D01*
X97890000Y-78425000D02*
X97890000Y-79535000D01*
X97890000Y-79535000D02*
X97130000Y-79535000D01*
%TO.C,D2*%
X32655000Y-7945000D02*
X32655000Y-3935000D01*
X34655000Y-3935000D02*
X32655000Y-3935000D01*
X34655000Y-7945000D02*
X34655000Y-3935000D01*
%TO.C,D25*%
X203470000Y-30155000D02*
X203470000Y-34165000D01*
X203470000Y-34165000D02*
X205470000Y-34165000D01*
X205470000Y-30155000D02*
X205470000Y-34165000D01*
%TO.C,D44*%
X41862500Y-68255000D02*
X41862500Y-72265000D01*
X41862500Y-72265000D02*
X43862500Y-72265000D01*
X43862500Y-68255000D02*
X43862500Y-72265000D01*
%TO.C,D14*%
X246175000Y-11105000D02*
X246175000Y-15115000D01*
X246175000Y-15115000D02*
X248175000Y-15115000D01*
X248175000Y-11105000D02*
X248175000Y-15115000D01*
%TO.C,D57*%
X23287500Y-80645000D02*
X23287500Y-76635000D01*
X25287500Y-76635000D02*
X23287500Y-76635000D01*
X25287500Y-80645000D02*
X25287500Y-76635000D01*
%TO.C,D16*%
X32020000Y-30155000D02*
X32020000Y-34165000D01*
X32020000Y-34165000D02*
X34020000Y-34165000D01*
X34020000Y-30155000D02*
X34020000Y-34165000D01*
%TO.C,C1*%
X86940000Y-81287836D02*
X86940000Y-81072164D01*
X87660000Y-81287836D02*
X87660000Y-81072164D01*
%TO.C,D13*%
X232045000Y-11105000D02*
X232045000Y-15115000D01*
X232045000Y-15115000D02*
X234045000Y-15115000D01*
X234045000Y-11105000D02*
X234045000Y-15115000D01*
%TO.C,D43*%
X37417500Y-68255000D02*
X37417500Y-72265000D01*
X37417500Y-72265000D02*
X39417500Y-72265000D01*
X39417500Y-68255000D02*
X39417500Y-72265000D01*
%TO.C,U4*%
X89600000Y-79140000D02*
X90400000Y-79140000D01*
X89600000Y-82260000D02*
X90400000Y-82260000D01*
X91200000Y-79140000D02*
X90400000Y-79140000D01*
X91200000Y-82260000D02*
X90400000Y-82260000D01*
X91700000Y-79190000D02*
X91460000Y-78860000D01*
X91940000Y-78860000D01*
X91700000Y-79190000D01*
G36*
X91700000Y-79190000D02*
G01*
X91460000Y-78860000D01*
X91940000Y-78860000D01*
X91700000Y-79190000D01*
G37*
%TO.C,R3*%
X101028641Y-85645000D02*
X100721359Y-85645000D01*
X101028641Y-86405000D02*
X100721359Y-86405000D01*
%TO.C,D15*%
X8207500Y-30155000D02*
X8207500Y-34165000D01*
X8207500Y-34165000D02*
X10207500Y-34165000D01*
X10207500Y-30155000D02*
X10207500Y-34165000D01*
%TO.C,D6*%
X98695000Y-11105000D02*
X98695000Y-15115000D01*
X98695000Y-15115000D02*
X100695000Y-15115000D01*
X100695000Y-11105000D02*
X100695000Y-15115000D01*
%TO.C,C11*%
X104137164Y-89625000D02*
X104352836Y-89625000D01*
X104137164Y-90345000D02*
X104352836Y-90345000D01*
%TO.C,C16*%
X100767164Y-84665000D02*
X100982836Y-84665000D01*
X100767164Y-85385000D02*
X100982836Y-85385000D01*
%TO.C,D59*%
X70912500Y-80645000D02*
X70912500Y-76635000D01*
X72912500Y-76635000D02*
X70912500Y-76635000D01*
X72912500Y-80645000D02*
X72912500Y-76635000D01*
%TO.C,D26*%
X222520000Y-30155000D02*
X222520000Y-34165000D01*
X222520000Y-34165000D02*
X224520000Y-34165000D01*
X224520000Y-30155000D02*
X224520000Y-34165000D01*
%TO.C,D18*%
X70120000Y-30155000D02*
X70120000Y-34165000D01*
X70120000Y-34165000D02*
X72120000Y-34165000D01*
X72120000Y-30155000D02*
X72120000Y-34165000D01*
%TO.C,D62*%
X212837500Y-80645000D02*
X212837500Y-76635000D01*
X214837500Y-76635000D02*
X212837500Y-76635000D01*
X214837500Y-80645000D02*
X214837500Y-76635000D01*
%TO.C,C13*%
X113065000Y-87122836D02*
X113065000Y-86907164D01*
X113785000Y-87122836D02*
X113785000Y-86907164D01*
%TO.C,D23*%
X165370000Y-30155000D02*
X165370000Y-34165000D01*
X165370000Y-34165000D02*
X167370000Y-34165000D01*
X167370000Y-30155000D02*
X167370000Y-34165000D01*
%TO.C,D36*%
X151082500Y-49205000D02*
X151082500Y-53215000D01*
X151082500Y-53215000D02*
X153082500Y-53215000D01*
X153082500Y-49205000D02*
X153082500Y-53215000D01*
%TO.C,D58*%
X47100000Y-80645000D02*
X47100000Y-76635000D01*
X49100000Y-76635000D02*
X47100000Y-76635000D01*
X49100000Y-80645000D02*
X49100000Y-76635000D01*
%TO.C,D37*%
X170132500Y-49205000D02*
X170132500Y-53215000D01*
X170132500Y-53215000D02*
X172132500Y-53215000D01*
X172132500Y-49205000D02*
X172132500Y-53215000D01*
%TO.C,D12*%
X212995000Y-11105000D02*
X212995000Y-15115000D01*
X212995000Y-15115000D02*
X214995000Y-15115000D01*
X214995000Y-11105000D02*
X214995000Y-15115000D01*
%TO.C,R7*%
X20988641Y-8295000D02*
X20681359Y-8295000D01*
X20988641Y-9055000D02*
X20681359Y-9055000D01*
%TO.C,D35*%
X132032500Y-49205000D02*
X132032500Y-53215000D01*
X132032500Y-53215000D02*
X134032500Y-53215000D01*
X134032500Y-49205000D02*
X134032500Y-53215000D01*
%TO.C,D30*%
X36782500Y-49205000D02*
X36782500Y-53215000D01*
X36782500Y-53215000D02*
X38782500Y-53215000D01*
X38782500Y-49205000D02*
X38782500Y-53215000D01*
%TO.C,C6*%
X112065000Y-87122836D02*
X112065000Y-86907164D01*
X112785000Y-87122836D02*
X112785000Y-86907164D01*
%TO.C,D22*%
X146320000Y-30155000D02*
X146320000Y-34165000D01*
X146320000Y-34165000D02*
X148320000Y-34165000D01*
X148320000Y-30155000D02*
X148320000Y-34165000D01*
%TO.C,D61*%
X196326250Y-87305000D02*
X196326250Y-91315000D01*
X196326250Y-91315000D02*
X198326250Y-91315000D01*
X198326250Y-87305000D02*
X198326250Y-91315000D01*
%TO.C,C14*%
X108375000Y-78767164D02*
X108375000Y-78982836D01*
X109095000Y-78767164D02*
X109095000Y-78982836D01*
%TO.C,D11*%
X193945000Y-11105000D02*
X193945000Y-15115000D01*
X193945000Y-15115000D02*
X195945000Y-15115000D01*
X195945000Y-11105000D02*
X195945000Y-15115000D01*
%TO.C,C15*%
X103044190Y-79678307D02*
X103196693Y-79830810D01*
X103553307Y-79169190D02*
X103705810Y-79321693D01*
%TO.C,D19*%
X89170000Y-30155000D02*
X89170000Y-34165000D01*
X89170000Y-34165000D02*
X91170000Y-34165000D01*
X91170000Y-30155000D02*
X91170000Y-34165000D01*
%TO.C,J1*%
X13905000Y-4300000D02*
X13905000Y-2600000D01*
X23245000Y-4300000D02*
X23245000Y-2600000D01*
%TO.C,D8*%
X136795000Y-11105000D02*
X136795000Y-15115000D01*
X136795000Y-15115000D02*
X138795000Y-15115000D01*
X138795000Y-11105000D02*
X138795000Y-15115000D01*
%TO.C,C5*%
X96232164Y-80330000D02*
X96447836Y-80330000D01*
X96232164Y-81050000D02*
X96447836Y-81050000D01*
%TD*%
%LPC*%
D10*
X170754887Y-83441177D02*
X170612030Y-83488796D01*
X170612030Y-83488796D02*
X170564411Y-83536415D01*
X170564411Y-83536415D02*
X170516792Y-83631653D01*
X170516792Y-83631653D02*
X170516792Y-83774510D01*
X170516792Y-83774510D02*
X170564411Y-83869748D01*
X170564411Y-83869748D02*
X170612030Y-83917368D01*
X170612030Y-83917368D02*
X170707268Y-83964987D01*
X170707268Y-83964987D02*
X171088220Y-83964987D01*
X171088220Y-83964987D02*
X171088220Y-82964987D01*
X171088220Y-82964987D02*
X170754887Y-82964987D01*
X170754887Y-82964987D02*
X170659649Y-83012606D01*
X170659649Y-83012606D02*
X170612030Y-83060225D01*
X170612030Y-83060225D02*
X170564411Y-83155463D01*
X170564411Y-83155463D02*
X170564411Y-83250701D01*
X170564411Y-83250701D02*
X170612030Y-83345939D01*
X170612030Y-83345939D02*
X170659649Y-83393558D01*
X170659649Y-83393558D02*
X170754887Y-83441177D01*
X170754887Y-83441177D02*
X171088220Y-83441177D01*
X170183458Y-83298320D02*
X169945363Y-83964987D01*
X169707268Y-83298320D02*
X169945363Y-83964987D01*
X169945363Y-83964987D02*
X170040601Y-84203082D01*
X170040601Y-84203082D02*
X170088220Y-84250701D01*
X170088220Y-84250701D02*
X170183458Y-84298320D01*
X168707267Y-82964987D02*
X168135839Y-82964987D01*
X168421553Y-83964987D02*
X168421553Y-82964987D01*
X167421553Y-83917368D02*
X167516791Y-83964987D01*
X167516791Y-83964987D02*
X167707267Y-83964987D01*
X167707267Y-83964987D02*
X167802505Y-83917368D01*
X167802505Y-83917368D02*
X167850124Y-83822129D01*
X167850124Y-83822129D02*
X167850124Y-83441177D01*
X167850124Y-83441177D02*
X167802505Y-83345939D01*
X167802505Y-83345939D02*
X167707267Y-83298320D01*
X167707267Y-83298320D02*
X167516791Y-83298320D01*
X167516791Y-83298320D02*
X167421553Y-83345939D01*
X167421553Y-83345939D02*
X167373934Y-83441177D01*
X167373934Y-83441177D02*
X167373934Y-83536415D01*
X167373934Y-83536415D02*
X167850124Y-83631653D01*
X166516791Y-83964987D02*
X166516791Y-83441177D01*
X166516791Y-83441177D02*
X166564410Y-83345939D01*
X166564410Y-83345939D02*
X166659648Y-83298320D01*
X166659648Y-83298320D02*
X166850124Y-83298320D01*
X166850124Y-83298320D02*
X166945362Y-83345939D01*
X166516791Y-83917368D02*
X166612029Y-83964987D01*
X166612029Y-83964987D02*
X166850124Y-83964987D01*
X166850124Y-83964987D02*
X166945362Y-83917368D01*
X166945362Y-83917368D02*
X166992981Y-83822129D01*
X166992981Y-83822129D02*
X166992981Y-83726891D01*
X166992981Y-83726891D02*
X166945362Y-83631653D01*
X166945362Y-83631653D02*
X166850124Y-83584034D01*
X166850124Y-83584034D02*
X166612029Y-83584034D01*
X166612029Y-83584034D02*
X166516791Y-83536415D01*
X166040600Y-83964987D02*
X166040600Y-83298320D01*
X166040600Y-83393558D02*
X165992981Y-83345939D01*
X165992981Y-83345939D02*
X165897743Y-83298320D01*
X165897743Y-83298320D02*
X165754886Y-83298320D01*
X165754886Y-83298320D02*
X165659648Y-83345939D01*
X165659648Y-83345939D02*
X165612029Y-83441177D01*
X165612029Y-83441177D02*
X165612029Y-83964987D01*
X165612029Y-83441177D02*
X165564410Y-83345939D01*
X165564410Y-83345939D02*
X165469172Y-83298320D01*
X165469172Y-83298320D02*
X165326315Y-83298320D01*
X165326315Y-83298320D02*
X165231076Y-83345939D01*
X165231076Y-83345939D02*
X165183457Y-83441177D01*
X165183457Y-83441177D02*
X165183457Y-83964987D01*
X163945362Y-83964987D02*
X163945362Y-82964987D01*
X163945362Y-82964987D02*
X163564410Y-82964987D01*
X163564410Y-82964987D02*
X163469172Y-83012606D01*
X163469172Y-83012606D02*
X163421553Y-83060225D01*
X163421553Y-83060225D02*
X163373934Y-83155463D01*
X163373934Y-83155463D02*
X163373934Y-83298320D01*
X163373934Y-83298320D02*
X163421553Y-83393558D01*
X163421553Y-83393558D02*
X163469172Y-83441177D01*
X163469172Y-83441177D02*
X163564410Y-83488796D01*
X163564410Y-83488796D02*
X163945362Y-83488796D01*
X162945362Y-83964987D02*
X162945362Y-82964987D01*
X162945362Y-83441177D02*
X162373934Y-83441177D01*
X162373934Y-83964987D02*
X162373934Y-82964987D01*
X161897743Y-83964987D02*
X161897743Y-82964987D01*
X161897743Y-82964987D02*
X161659648Y-82964987D01*
X161659648Y-82964987D02*
X161516791Y-83012606D01*
X161516791Y-83012606D02*
X161421553Y-83107844D01*
X161421553Y-83107844D02*
X161373934Y-83203082D01*
X161373934Y-83203082D02*
X161326315Y-83393558D01*
X161326315Y-83393558D02*
X161326315Y-83536415D01*
X161326315Y-83536415D02*
X161373934Y-83726891D01*
X161373934Y-83726891D02*
X161421553Y-83822129D01*
X161421553Y-83822129D02*
X161516791Y-83917368D01*
X161516791Y-83917368D02*
X161659648Y-83964987D01*
X161659648Y-83964987D02*
X161897743Y-83964987D01*
X160516791Y-83917368D02*
X160612029Y-83964987D01*
X160612029Y-83964987D02*
X160802505Y-83964987D01*
X160802505Y-83964987D02*
X160897743Y-83917368D01*
X160897743Y-83917368D02*
X160945362Y-83822129D01*
X160945362Y-83822129D02*
X160945362Y-83441177D01*
X160945362Y-83441177D02*
X160897743Y-83345939D01*
X160897743Y-83345939D02*
X160802505Y-83298320D01*
X160802505Y-83298320D02*
X160612029Y-83298320D01*
X160612029Y-83298320D02*
X160516791Y-83345939D01*
X160516791Y-83345939D02*
X160469172Y-83441177D01*
X160469172Y-83441177D02*
X160469172Y-83536415D01*
X160469172Y-83536415D02*
X160945362Y-83631653D01*
X160088219Y-83917368D02*
X159992981Y-83964987D01*
X159992981Y-83964987D02*
X159802505Y-83964987D01*
X159802505Y-83964987D02*
X159707267Y-83917368D01*
X159707267Y-83917368D02*
X159659648Y-83822129D01*
X159659648Y-83822129D02*
X159659648Y-83774510D01*
X159659648Y-83774510D02*
X159707267Y-83679272D01*
X159707267Y-83679272D02*
X159802505Y-83631653D01*
X159802505Y-83631653D02*
X159945362Y-83631653D01*
X159945362Y-83631653D02*
X160040600Y-83584034D01*
X160040600Y-83584034D02*
X160088219Y-83488796D01*
X160088219Y-83488796D02*
X160088219Y-83441177D01*
X160088219Y-83441177D02*
X160040600Y-83345939D01*
X160040600Y-83345939D02*
X159945362Y-83298320D01*
X159945362Y-83298320D02*
X159802505Y-83298320D01*
X159802505Y-83298320D02*
X159707267Y-83345939D01*
X159231076Y-83964987D02*
X159231076Y-83298320D01*
X159231076Y-82964987D02*
X159278695Y-83012606D01*
X159278695Y-83012606D02*
X159231076Y-83060225D01*
X159231076Y-83060225D02*
X159183457Y-83012606D01*
X159183457Y-83012606D02*
X159231076Y-82964987D01*
X159231076Y-82964987D02*
X159231076Y-83060225D01*
X158326315Y-83298320D02*
X158326315Y-84107844D01*
X158326315Y-84107844D02*
X158373934Y-84203082D01*
X158373934Y-84203082D02*
X158421553Y-84250701D01*
X158421553Y-84250701D02*
X158516791Y-84298320D01*
X158516791Y-84298320D02*
X158659648Y-84298320D01*
X158659648Y-84298320D02*
X158754886Y-84250701D01*
X158326315Y-83917368D02*
X158421553Y-83964987D01*
X158421553Y-83964987D02*
X158612029Y-83964987D01*
X158612029Y-83964987D02*
X158707267Y-83917368D01*
X158707267Y-83917368D02*
X158754886Y-83869748D01*
X158754886Y-83869748D02*
X158802505Y-83774510D01*
X158802505Y-83774510D02*
X158802505Y-83488796D01*
X158802505Y-83488796D02*
X158754886Y-83393558D01*
X158754886Y-83393558D02*
X158707267Y-83345939D01*
X158707267Y-83345939D02*
X158612029Y-83298320D01*
X158612029Y-83298320D02*
X158421553Y-83298320D01*
X158421553Y-83298320D02*
X158326315Y-83345939D01*
X157850124Y-83298320D02*
X157850124Y-83964987D01*
X157850124Y-83393558D02*
X157802505Y-83345939D01*
X157802505Y-83345939D02*
X157707267Y-83298320D01*
X157707267Y-83298320D02*
X157564410Y-83298320D01*
X157564410Y-83298320D02*
X157469172Y-83345939D01*
X157469172Y-83345939D02*
X157421553Y-83441177D01*
X157421553Y-83441177D02*
X157421553Y-83964987D01*
X171088220Y-85574931D02*
X171088220Y-84574931D01*
X171088220Y-84574931D02*
X170754887Y-85289216D01*
X170754887Y-85289216D02*
X170421554Y-84574931D01*
X170421554Y-84574931D02*
X170421554Y-85574931D01*
X170183459Y-85670169D02*
X169421554Y-85670169D01*
X169231077Y-85289216D02*
X168754887Y-85289216D01*
X169326315Y-85574931D02*
X168992982Y-84574931D01*
X168992982Y-84574931D02*
X168659649Y-85574931D01*
X168183458Y-85574931D02*
X168278696Y-85527312D01*
X168278696Y-85527312D02*
X168326315Y-85432073D01*
X168326315Y-85432073D02*
X168326315Y-84574931D01*
X167945362Y-84908264D02*
X167564410Y-84908264D01*
X167802505Y-84574931D02*
X167802505Y-85432073D01*
X167802505Y-85432073D02*
X167754886Y-85527312D01*
X167754886Y-85527312D02*
X167659648Y-85574931D01*
X167659648Y-85574931D02*
X167564410Y-85574931D01*
X167231076Y-85574931D02*
X167231076Y-84908264D01*
X167231076Y-85003502D02*
X167183457Y-84955883D01*
X167183457Y-84955883D02*
X167088219Y-84908264D01*
X167088219Y-84908264D02*
X166945362Y-84908264D01*
X166945362Y-84908264D02*
X166850124Y-84955883D01*
X166850124Y-84955883D02*
X166802505Y-85051121D01*
X166802505Y-85051121D02*
X166802505Y-85574931D01*
X166802505Y-85051121D02*
X166754886Y-84955883D01*
X166754886Y-84955883D02*
X166659648Y-84908264D01*
X166659648Y-84908264D02*
X166516791Y-84908264D01*
X166516791Y-84908264D02*
X166421552Y-84955883D01*
X166421552Y-84955883D02*
X166373933Y-85051121D01*
X166373933Y-85051121D02*
X166373933Y-85574931D01*
X165469172Y-85574931D02*
X165469172Y-85051121D01*
X165469172Y-85051121D02*
X165516791Y-84955883D01*
X165516791Y-84955883D02*
X165612029Y-84908264D01*
X165612029Y-84908264D02*
X165802505Y-84908264D01*
X165802505Y-84908264D02*
X165897743Y-84955883D01*
X165469172Y-85527312D02*
X165564410Y-85574931D01*
X165564410Y-85574931D02*
X165802505Y-85574931D01*
X165802505Y-85574931D02*
X165897743Y-85527312D01*
X165897743Y-85527312D02*
X165945362Y-85432073D01*
X165945362Y-85432073D02*
X165945362Y-85336835D01*
X165945362Y-85336835D02*
X165897743Y-85241597D01*
X165897743Y-85241597D02*
X165802505Y-85193978D01*
X165802505Y-85193978D02*
X165564410Y-85193978D01*
X165564410Y-85193978D02*
X165469172Y-85146359D01*
X164992981Y-84908264D02*
X164992981Y-85574931D01*
X164992981Y-85003502D02*
X164945362Y-84955883D01*
X164945362Y-84955883D02*
X164850124Y-84908264D01*
X164850124Y-84908264D02*
X164707267Y-84908264D01*
X164707267Y-84908264D02*
X164612029Y-84955883D01*
X164612029Y-84955883D02*
X164564410Y-85051121D01*
X164564410Y-85051121D02*
X164564410Y-85574931D01*
X164088219Y-84908264D02*
X164088219Y-85574931D01*
X164088219Y-85003502D02*
X164040600Y-84955883D01*
X164040600Y-84955883D02*
X163945362Y-84908264D01*
X163945362Y-84908264D02*
X163802505Y-84908264D01*
X163802505Y-84908264D02*
X163707267Y-84955883D01*
X163707267Y-84955883D02*
X163659648Y-85051121D01*
X163659648Y-85051121D02*
X163659648Y-85574931D01*
X171088220Y-86518208D02*
X171088220Y-87184875D01*
X171088220Y-86613446D02*
X171040601Y-86565827D01*
X171040601Y-86565827D02*
X170945363Y-86518208D01*
X170945363Y-86518208D02*
X170802506Y-86518208D01*
X170802506Y-86518208D02*
X170707268Y-86565827D01*
X170707268Y-86565827D02*
X170659649Y-86661065D01*
X170659649Y-86661065D02*
X170659649Y-87184875D01*
X170040601Y-87184875D02*
X170135839Y-87137256D01*
X170135839Y-87137256D02*
X170183458Y-87089636D01*
X170183458Y-87089636D02*
X170231077Y-86994398D01*
X170231077Y-86994398D02*
X170231077Y-86708684D01*
X170231077Y-86708684D02*
X170183458Y-86613446D01*
X170183458Y-86613446D02*
X170135839Y-86565827D01*
X170135839Y-86565827D02*
X170040601Y-86518208D01*
X170040601Y-86518208D02*
X169897744Y-86518208D01*
X169897744Y-86518208D02*
X169802506Y-86565827D01*
X169802506Y-86565827D02*
X169754887Y-86613446D01*
X169754887Y-86613446D02*
X169707268Y-86708684D01*
X169707268Y-86708684D02*
X169707268Y-86994398D01*
X169707268Y-86994398D02*
X169754887Y-87089636D01*
X169754887Y-87089636D02*
X169802506Y-87137256D01*
X169802506Y-87137256D02*
X169897744Y-87184875D01*
X169897744Y-87184875D02*
X170040601Y-87184875D01*
X169278696Y-86518208D02*
X169278696Y-87184875D01*
X169278696Y-86613446D02*
X169231077Y-86565827D01*
X169231077Y-86565827D02*
X169135839Y-86518208D01*
X169135839Y-86518208D02*
X168992982Y-86518208D01*
X168992982Y-86518208D02*
X168897744Y-86565827D01*
X168897744Y-86565827D02*
X168850125Y-86661065D01*
X168850125Y-86661065D02*
X168850125Y-87184875D01*
X167945363Y-87184875D02*
X167945363Y-86661065D01*
X167945363Y-86661065D02*
X167992982Y-86565827D01*
X167992982Y-86565827D02*
X168088220Y-86518208D01*
X168088220Y-86518208D02*
X168278696Y-86518208D01*
X168278696Y-86518208D02*
X168373934Y-86565827D01*
X167945363Y-87137256D02*
X168040601Y-87184875D01*
X168040601Y-87184875D02*
X168278696Y-87184875D01*
X168278696Y-87184875D02*
X168373934Y-87137256D01*
X168373934Y-87137256D02*
X168421553Y-87042017D01*
X168421553Y-87042017D02*
X168421553Y-86946779D01*
X168421553Y-86946779D02*
X168373934Y-86851541D01*
X168373934Y-86851541D02*
X168278696Y-86803922D01*
X168278696Y-86803922D02*
X168040601Y-86803922D01*
X168040601Y-86803922D02*
X167945363Y-86756303D01*
X167469172Y-87184875D02*
X167469172Y-86518208D01*
X167469172Y-86613446D02*
X167421553Y-86565827D01*
X167421553Y-86565827D02*
X167326315Y-86518208D01*
X167326315Y-86518208D02*
X167183458Y-86518208D01*
X167183458Y-86518208D02*
X167088220Y-86565827D01*
X167088220Y-86565827D02*
X167040601Y-86661065D01*
X167040601Y-86661065D02*
X167040601Y-87184875D01*
X167040601Y-86661065D02*
X166992982Y-86565827D01*
X166992982Y-86565827D02*
X166897744Y-86518208D01*
X166897744Y-86518208D02*
X166754887Y-86518208D01*
X166754887Y-86518208D02*
X166659648Y-86565827D01*
X166659648Y-86565827D02*
X166612029Y-86661065D01*
X166612029Y-86661065D02*
X166612029Y-87184875D01*
X165754887Y-87137256D02*
X165850125Y-87184875D01*
X165850125Y-87184875D02*
X166040601Y-87184875D01*
X166040601Y-87184875D02*
X166135839Y-87137256D01*
X166135839Y-87137256D02*
X166183458Y-87042017D01*
X166183458Y-87042017D02*
X166183458Y-86661065D01*
X166183458Y-86661065D02*
X166135839Y-86565827D01*
X166135839Y-86565827D02*
X166040601Y-86518208D01*
X166040601Y-86518208D02*
X165850125Y-86518208D01*
X165850125Y-86518208D02*
X165754887Y-86565827D01*
X165754887Y-86565827D02*
X165707268Y-86661065D01*
X165707268Y-86661065D02*
X165707268Y-86756303D01*
X165707268Y-86756303D02*
X166183458Y-86851541D01*
X164707268Y-87089636D02*
X164754887Y-87137256D01*
X164754887Y-87137256D02*
X164897744Y-87184875D01*
X164897744Y-87184875D02*
X164992982Y-87184875D01*
X164992982Y-87184875D02*
X165135839Y-87137256D01*
X165135839Y-87137256D02*
X165231077Y-87042017D01*
X165231077Y-87042017D02*
X165278696Y-86946779D01*
X165278696Y-86946779D02*
X165326315Y-86756303D01*
X165326315Y-86756303D02*
X165326315Y-86613446D01*
X165326315Y-86613446D02*
X165278696Y-86422970D01*
X165278696Y-86422970D02*
X165231077Y-86327732D01*
X165231077Y-86327732D02*
X165135839Y-86232494D01*
X165135839Y-86232494D02*
X164992982Y-86184875D01*
X164992982Y-86184875D02*
X164897744Y-86184875D01*
X164897744Y-86184875D02*
X164754887Y-86232494D01*
X164754887Y-86232494D02*
X164707268Y-86280113D01*
X164516792Y-87280113D02*
X163754887Y-87280113D01*
X170659649Y-88794819D02*
X170659649Y-88271009D01*
X170659649Y-88271009D02*
X170707268Y-88175771D01*
X170707268Y-88175771D02*
X170802506Y-88128152D01*
X170802506Y-88128152D02*
X170992982Y-88128152D01*
X170992982Y-88128152D02*
X171088220Y-88175771D01*
X170659649Y-88747200D02*
X170754887Y-88794819D01*
X170754887Y-88794819D02*
X170992982Y-88794819D01*
X170992982Y-88794819D02*
X171088220Y-88747200D01*
X171088220Y-88747200D02*
X171135839Y-88651961D01*
X171135839Y-88651961D02*
X171135839Y-88556723D01*
X171135839Y-88556723D02*
X171088220Y-88461485D01*
X171088220Y-88461485D02*
X170992982Y-88413866D01*
X170992982Y-88413866D02*
X170754887Y-88413866D01*
X170754887Y-88413866D02*
X170659649Y-88366247D01*
X170040601Y-88794819D02*
X170135839Y-88747200D01*
X170135839Y-88747200D02*
X170183458Y-88651961D01*
X170183458Y-88651961D02*
X170183458Y-87794819D01*
X169802505Y-88128152D02*
X169421553Y-88128152D01*
X169659648Y-87794819D02*
X169659648Y-88651961D01*
X169659648Y-88651961D02*
X169612029Y-88747200D01*
X169612029Y-88747200D02*
X169516791Y-88794819D01*
X169516791Y-88794819D02*
X169421553Y-88794819D01*
X169088219Y-88413866D02*
X168326315Y-88413866D01*
X167659648Y-87794819D02*
X167564410Y-87794819D01*
X167564410Y-87794819D02*
X167469172Y-87842438D01*
X167469172Y-87842438D02*
X167421553Y-87890057D01*
X167421553Y-87890057D02*
X167373934Y-87985295D01*
X167373934Y-87985295D02*
X167326315Y-88175771D01*
X167326315Y-88175771D02*
X167326315Y-88413866D01*
X167326315Y-88413866D02*
X167373934Y-88604342D01*
X167373934Y-88604342D02*
X167421553Y-88699580D01*
X167421553Y-88699580D02*
X167469172Y-88747200D01*
X167469172Y-88747200D02*
X167564410Y-88794819D01*
X167564410Y-88794819D02*
X167659648Y-88794819D01*
X167659648Y-88794819D02*
X167754886Y-88747200D01*
X167754886Y-88747200D02*
X167802505Y-88699580D01*
X167802505Y-88699580D02*
X167850124Y-88604342D01*
X167850124Y-88604342D02*
X167897743Y-88413866D01*
X167897743Y-88413866D02*
X167897743Y-88175771D01*
X167897743Y-88175771D02*
X167850124Y-87985295D01*
X167850124Y-87985295D02*
X167802505Y-87890057D01*
X167802505Y-87890057D02*
X167754886Y-87842438D01*
X167754886Y-87842438D02*
X167659648Y-87794819D01*
X166373934Y-88794819D02*
X166945362Y-88794819D01*
X166659648Y-88794819D02*
X166659648Y-87794819D01*
X166659648Y-87794819D02*
X166754886Y-87937676D01*
X166754886Y-87937676D02*
X166850124Y-88032914D01*
X166850124Y-88032914D02*
X166945362Y-88080533D01*
X165897743Y-88794819D02*
X165707267Y-88794819D01*
X165707267Y-88794819D02*
X165612029Y-88747200D01*
X165612029Y-88747200D02*
X165564410Y-88699580D01*
X165564410Y-88699580D02*
X165469172Y-88556723D01*
X165469172Y-88556723D02*
X165421553Y-88366247D01*
X165421553Y-88366247D02*
X165421553Y-87985295D01*
X165421553Y-87985295D02*
X165469172Y-87890057D01*
X165469172Y-87890057D02*
X165516791Y-87842438D01*
X165516791Y-87842438D02*
X165612029Y-87794819D01*
X165612029Y-87794819D02*
X165802505Y-87794819D01*
X165802505Y-87794819D02*
X165897743Y-87842438D01*
X165897743Y-87842438D02*
X165945362Y-87890057D01*
X165945362Y-87890057D02*
X165992981Y-87985295D01*
X165992981Y-87985295D02*
X165992981Y-88223390D01*
X165992981Y-88223390D02*
X165945362Y-88318628D01*
X165945362Y-88318628D02*
X165897743Y-88366247D01*
X165897743Y-88366247D02*
X165802505Y-88413866D01*
X165802505Y-88413866D02*
X165612029Y-88413866D01*
X165612029Y-88413866D02*
X165516791Y-88366247D01*
X165516791Y-88366247D02*
X165469172Y-88318628D01*
X165469172Y-88318628D02*
X165421553Y-88223390D01*
X164469172Y-88794819D02*
X165040600Y-88794819D01*
X164754886Y-88794819D02*
X164754886Y-87794819D01*
X164754886Y-87794819D02*
X164850124Y-87937676D01*
X164850124Y-87937676D02*
X164945362Y-88032914D01*
X164945362Y-88032914D02*
X165040600Y-88080533D01*
D12*
X170751441Y-80664638D02*
X170751441Y-78664638D01*
X170751441Y-78664638D02*
X169989536Y-78664638D01*
X169989536Y-78664638D02*
X169799060Y-78759876D01*
X169799060Y-78759876D02*
X169703822Y-78855114D01*
X169703822Y-78855114D02*
X169608584Y-79045590D01*
X169608584Y-79045590D02*
X169608584Y-79331304D01*
X169608584Y-79331304D02*
X169703822Y-79521780D01*
X169703822Y-79521780D02*
X169799060Y-79617019D01*
X169799060Y-79617019D02*
X169989536Y-79712257D01*
X169989536Y-79712257D02*
X170751441Y-79712257D01*
X168751441Y-80664638D02*
X168751441Y-78664638D01*
X168751441Y-79617019D02*
X167608584Y-79617019D01*
X167608584Y-80664638D02*
X167608584Y-78664638D01*
X165799060Y-78664638D02*
X166180013Y-78664638D01*
X166180013Y-78664638D02*
X166370489Y-78759876D01*
X166370489Y-78759876D02*
X166465727Y-78855114D01*
X166465727Y-78855114D02*
X166656203Y-79140828D01*
X166656203Y-79140828D02*
X166751441Y-79521780D01*
X166751441Y-79521780D02*
X166751441Y-80283685D01*
X166751441Y-80283685D02*
X166656203Y-80474161D01*
X166656203Y-80474161D02*
X166560965Y-80569400D01*
X166560965Y-80569400D02*
X166370489Y-80664638D01*
X166370489Y-80664638D02*
X165989536Y-80664638D01*
X165989536Y-80664638D02*
X165799060Y-80569400D01*
X165799060Y-80569400D02*
X165703822Y-80474161D01*
X165703822Y-80474161D02*
X165608584Y-80283685D01*
X165608584Y-80283685D02*
X165608584Y-79807495D01*
X165608584Y-79807495D02*
X165703822Y-79617019D01*
X165703822Y-79617019D02*
X165799060Y-79521780D01*
X165799060Y-79521780D02*
X165989536Y-79426542D01*
X165989536Y-79426542D02*
X166370489Y-79426542D01*
X166370489Y-79426542D02*
X166560965Y-79521780D01*
X166560965Y-79521780D02*
X166656203Y-79617019D01*
X166656203Y-79617019D02*
X166751441Y-79807495D01*
X164370489Y-78664638D02*
X164180012Y-78664638D01*
X164180012Y-78664638D02*
X163989536Y-78759876D01*
X163989536Y-78759876D02*
X163894298Y-78855114D01*
X163894298Y-78855114D02*
X163799060Y-79045590D01*
X163799060Y-79045590D02*
X163703822Y-79426542D01*
X163703822Y-79426542D02*
X163703822Y-79902733D01*
X163703822Y-79902733D02*
X163799060Y-80283685D01*
X163799060Y-80283685D02*
X163894298Y-80474161D01*
X163894298Y-80474161D02*
X163989536Y-80569400D01*
X163989536Y-80569400D02*
X164180012Y-80664638D01*
X164180012Y-80664638D02*
X164370489Y-80664638D01*
X164370489Y-80664638D02*
X164560965Y-80569400D01*
X164560965Y-80569400D02*
X164656203Y-80474161D01*
X164656203Y-80474161D02*
X164751441Y-80283685D01*
X164751441Y-80283685D02*
X164846679Y-79902733D01*
X164846679Y-79902733D02*
X164846679Y-79426542D01*
X164846679Y-79426542D02*
X164751441Y-79045590D01*
X164751441Y-79045590D02*
X164656203Y-78855114D01*
X164656203Y-78855114D02*
X164560965Y-78759876D01*
X164560965Y-78759876D02*
X164370489Y-78664638D01*
X161418108Y-78569400D02*
X163132393Y-81140828D01*
X160751441Y-80664638D02*
X160751441Y-78664638D01*
X160751441Y-78664638D02*
X160084774Y-80093209D01*
X160084774Y-80093209D02*
X159418108Y-78664638D01*
X159418108Y-78664638D02*
X159418108Y-80664638D01*
X157608584Y-79331304D02*
X157608584Y-80664638D01*
X158465727Y-79331304D02*
X158465727Y-80378923D01*
X158465727Y-80378923D02*
X158370489Y-80569400D01*
X158370489Y-80569400D02*
X158180013Y-80664638D01*
X158180013Y-80664638D02*
X157894298Y-80664638D01*
X157894298Y-80664638D02*
X157703822Y-80569400D01*
X157703822Y-80569400D02*
X157608584Y-80474161D01*
X156370489Y-80664638D02*
X156560965Y-80569400D01*
X156560965Y-80569400D02*
X156656203Y-80378923D01*
X156656203Y-80378923D02*
X156656203Y-78664638D01*
X155894298Y-79331304D02*
X155132394Y-79331304D01*
X155608584Y-78664638D02*
X155608584Y-80378923D01*
X155608584Y-80378923D02*
X155513346Y-80569400D01*
X155513346Y-80569400D02*
X155322870Y-80664638D01*
X155322870Y-80664638D02*
X155132394Y-80664638D01*
X154465727Y-80664638D02*
X154465727Y-79331304D01*
X154465727Y-78664638D02*
X154560965Y-78759876D01*
X154560965Y-78759876D02*
X154465727Y-78855114D01*
X154465727Y-78855114D02*
X154370489Y-78759876D01*
X154370489Y-78759876D02*
X154465727Y-78664638D01*
X154465727Y-78664638D02*
X154465727Y-78855114D01*
D13*
%TO.C,S20*%
X107215000Y-26035000D03*
D14*
X109220000Y-28575000D03*
D15*
X114300000Y-28575000D03*
D14*
X119380000Y-28575000D03*
D13*
X120142000Y-23495000D03*
D16*
X110490000Y-26035000D03*
X116840000Y-23495000D03*
%TD*%
D13*
%TO.C,S19*%
X88165000Y-26035000D03*
D14*
X90170000Y-28575000D03*
D15*
X95250000Y-28575000D03*
D14*
X100330000Y-28575000D03*
D13*
X101092000Y-23495000D03*
D16*
X91440000Y-26035000D03*
X97790000Y-23495000D03*
%TD*%
D13*
%TO.C,S47*%
X83402500Y-64135000D03*
D14*
X85407500Y-66675000D03*
D15*
X90487500Y-66675000D03*
D14*
X95567500Y-66675000D03*
D13*
X96329500Y-61595000D03*
D16*
X86677500Y-64135000D03*
X93027500Y-61595000D03*
%TD*%
D13*
%TO.C,S4*%
X59590000Y-6985000D03*
D14*
X61595000Y-9525000D03*
D15*
X66675000Y-9525000D03*
D14*
X71755000Y-9525000D03*
D13*
X72517000Y-4445000D03*
D16*
X62865000Y-6985000D03*
X69215000Y-4445000D03*
%TD*%
D13*
%TO.C,S7*%
X116740000Y-6985000D03*
D14*
X118745000Y-9525000D03*
D15*
X123825000Y-9525000D03*
D14*
X128905000Y-9525000D03*
D13*
X129667000Y-4445000D03*
D16*
X120015000Y-6985000D03*
X126365000Y-4445000D03*
%TD*%
D17*
%TO.C,S57-2*%
X21372500Y-88265000D03*
D14*
X19367500Y-85725000D03*
D15*
X14287500Y-85725000D03*
D14*
X9207500Y-85725000D03*
D17*
X8445500Y-90805000D03*
D16*
X18097500Y-88265000D03*
X11747500Y-90805000D03*
%TD*%
D13*
%TO.C,S12*%
X211990000Y-6985000D03*
D14*
X213995000Y-9525000D03*
D15*
X219075000Y-9525000D03*
D14*
X224155000Y-9525000D03*
D13*
X224917000Y-4445000D03*
D16*
X215265000Y-6985000D03*
X221615000Y-4445000D03*
%TD*%
D17*
%TO.C,S62*%
X233303750Y-88265000D03*
D14*
X231298750Y-85725000D03*
D15*
X226218750Y-85725000D03*
D14*
X221138750Y-85725000D03*
D17*
X220376750Y-90805000D03*
D16*
X230028750Y-88265000D03*
X223678750Y-90805000D03*
%TD*%
D13*
%TO.C,S3*%
X40540000Y-6985000D03*
D14*
X42545000Y-9525000D03*
D15*
X47625000Y-9525000D03*
D14*
X52705000Y-9525000D03*
D13*
X53467000Y-4445000D03*
D16*
X43815000Y-6985000D03*
X50165000Y-4445000D03*
%TD*%
D13*
%TO.C,S15*%
X7202500Y-26035000D03*
D14*
X9207500Y-28575000D03*
D15*
X14287500Y-28575000D03*
D14*
X19367500Y-28575000D03*
D13*
X20129500Y-23495000D03*
D16*
X10477500Y-26035000D03*
X16827500Y-23495000D03*
%TD*%
D13*
%TO.C,S62-2*%
X216752500Y-83185000D03*
D14*
X218757500Y-85725000D03*
D15*
X223837500Y-85725000D03*
D14*
X228917500Y-85725000D03*
D13*
X229679500Y-80645000D03*
D16*
X220027500Y-83185000D03*
X226377500Y-80645000D03*
%TD*%
D18*
%TO.C,REF\u002A\u002A*%
X252380750Y-40640000D03*
D19*
X252380750Y-55850000D03*
D18*
X276256750Y-40640000D03*
D19*
X276256750Y-55850000D03*
%TD*%
D13*
%TO.C,S25*%
X202465000Y-26035000D03*
D14*
X204470000Y-28575000D03*
D15*
X209550000Y-28575000D03*
D14*
X214630000Y-28575000D03*
D13*
X215392000Y-23495000D03*
D16*
X205740000Y-26035000D03*
X212090000Y-23495000D03*
%TD*%
D17*
%TO.C,S1*%
X16610000Y-12065000D03*
D14*
X14605000Y-9525000D03*
D15*
X9525000Y-9525000D03*
D14*
X4445000Y-9525000D03*
D17*
X3683000Y-14605000D03*
D16*
X13335000Y-12065000D03*
X6985000Y-14605000D03*
%TD*%
D13*
%TO.C,S9*%
X154840000Y-6985000D03*
D14*
X156845000Y-9525000D03*
D15*
X161925000Y-9525000D03*
D14*
X167005000Y-9525000D03*
D13*
X167767000Y-4445000D03*
D16*
X158115000Y-6985000D03*
X164465000Y-4445000D03*
%TD*%
D13*
%TO.C,S44*%
X26252500Y-64135000D03*
D14*
X28257500Y-66675000D03*
D15*
X33337500Y-66675000D03*
D14*
X38417500Y-66675000D03*
D13*
X39179500Y-61595000D03*
D16*
X29527500Y-64135000D03*
X35877500Y-61595000D03*
%TD*%
D13*
%TO.C,S23*%
X164365000Y-26035000D03*
D14*
X166370000Y-28575000D03*
D15*
X171450000Y-28575000D03*
D14*
X176530000Y-28575000D03*
D13*
X177292000Y-23495000D03*
D16*
X167640000Y-26035000D03*
X173990000Y-23495000D03*
%TD*%
D13*
%TO.C,S64-2*%
X264377500Y-83185000D03*
D14*
X266382500Y-85725000D03*
D15*
X271462500Y-85725000D03*
D14*
X276542500Y-85725000D03*
D13*
X277304500Y-80645000D03*
D16*
X267652500Y-83185000D03*
X274002500Y-80645000D03*
%TD*%
D13*
%TO.C,S57*%
X4821250Y-83185000D03*
D14*
X6826250Y-85725000D03*
D15*
X11906250Y-85725000D03*
D14*
X16986250Y-85725000D03*
D13*
X17748250Y-80645000D03*
D16*
X8096250Y-83185000D03*
X14446250Y-80645000D03*
%TD*%
D13*
%TO.C,S14*%
X259615000Y-6985000D03*
D14*
X261620000Y-9525000D03*
D15*
X266700000Y-9525000D03*
D14*
X271780000Y-9525000D03*
D13*
X272542000Y-4445000D03*
D16*
X262890000Y-6985000D03*
X269240000Y-4445000D03*
%TD*%
D13*
%TO.C,S61*%
X195321250Y-83185000D03*
D14*
X197326250Y-85725000D03*
D15*
X202406250Y-85725000D03*
D14*
X207486250Y-85725000D03*
D13*
X208248250Y-80645000D03*
D16*
X198596250Y-83185000D03*
X204946250Y-80645000D03*
%TD*%
D13*
%TO.C,S16*%
X31015000Y-26035000D03*
D14*
X33020000Y-28575000D03*
D15*
X38100000Y-28575000D03*
D14*
X43180000Y-28575000D03*
D13*
X43942000Y-23495000D03*
D16*
X34290000Y-26035000D03*
X40640000Y-23495000D03*
%TD*%
D13*
%TO.C,S24*%
X183415000Y-26035000D03*
D14*
X185420000Y-28575000D03*
D15*
X190500000Y-28575000D03*
D14*
X195580000Y-28575000D03*
D13*
X196342000Y-23495000D03*
D16*
X186690000Y-26035000D03*
X193040000Y-23495000D03*
%TD*%
D13*
%TO.C,S31*%
X54827500Y-45085000D03*
D14*
X56832500Y-47625000D03*
D15*
X61912500Y-47625000D03*
D14*
X66992500Y-47625000D03*
D13*
X67754500Y-42545000D03*
D16*
X58102500Y-45085000D03*
X64452500Y-42545000D03*
%TD*%
D13*
%TO.C,S33*%
X92927500Y-45085000D03*
D14*
X94932500Y-47625000D03*
D15*
X100012500Y-47625000D03*
D14*
X105092500Y-47625000D03*
D13*
X105854500Y-42545000D03*
D16*
X96202500Y-45085000D03*
X102552500Y-42545000D03*
%TD*%
D13*
%TO.C,S34*%
X111977500Y-45085000D03*
D14*
X113982500Y-47625000D03*
D15*
X119062500Y-47625000D03*
D14*
X124142500Y-47625000D03*
D13*
X124904500Y-42545000D03*
D16*
X115252500Y-45085000D03*
X121602500Y-42545000D03*
%TD*%
D13*
%TO.C,S46*%
X64352500Y-64135000D03*
D14*
X66357500Y-66675000D03*
D15*
X71437500Y-66675000D03*
D14*
X76517500Y-66675000D03*
D13*
X77279500Y-61595000D03*
D16*
X67627500Y-64135000D03*
X73977500Y-61595000D03*
%TD*%
D13*
%TO.C,S50*%
X140552500Y-64135000D03*
D14*
X142557500Y-66675000D03*
D15*
X147637500Y-66675000D03*
D14*
X152717500Y-66675000D03*
D13*
X153479500Y-61595000D03*
D16*
X143827500Y-64135000D03*
X150177500Y-61595000D03*
%TD*%
D20*
%TO.C,HOLE*%
X260425000Y-28225000D03*
%TD*%
D13*
%TO.C,S22*%
X145315000Y-26035000D03*
D14*
X147320000Y-28575000D03*
D15*
X152400000Y-28575000D03*
D14*
X157480000Y-28575000D03*
D13*
X158242000Y-23495000D03*
D16*
X148590000Y-26035000D03*
X154940000Y-23495000D03*
%TD*%
D21*
%TO.C,S41*%
X249872500Y-54710000D03*
D14*
X252412500Y-52705000D03*
D15*
X252412500Y-47625000D03*
D14*
X252412500Y-42545000D03*
D21*
X247332500Y-41783000D03*
D16*
X249872500Y-51435000D03*
X247332500Y-45085000D03*
%TD*%
D13*
%TO.C,S63-2*%
X240565000Y-83185000D03*
D14*
X242570000Y-85725000D03*
D15*
X247650000Y-85725000D03*
D14*
X252730000Y-85725000D03*
D13*
X253492000Y-80645000D03*
D16*
X243840000Y-83185000D03*
X250190000Y-80645000D03*
%TD*%
D13*
%TO.C,S27*%
X240565000Y-26035000D03*
D14*
X242570000Y-28575000D03*
D15*
X247650000Y-28575000D03*
D14*
X252730000Y-28575000D03*
D13*
X253492000Y-23495000D03*
D16*
X243840000Y-26035000D03*
X250190000Y-23495000D03*
%TD*%
D13*
%TO.C,S58*%
X28633750Y-83185000D03*
D14*
X30638750Y-85725000D03*
D15*
X35718750Y-85725000D03*
D14*
X40798750Y-85725000D03*
D13*
X41560750Y-80645000D03*
D16*
X31908750Y-83185000D03*
X38258750Y-80645000D03*
%TD*%
D17*
%TO.C,S60-2*%
X149960000Y-88265000D03*
D14*
X147955000Y-85725000D03*
D15*
X142875000Y-85725000D03*
D14*
X137795000Y-85725000D03*
D17*
X137033000Y-90805000D03*
D16*
X146685000Y-88265000D03*
X140335000Y-90805000D03*
%TD*%
D13*
%TO.C,S8*%
X135790000Y-6985000D03*
D14*
X137795000Y-9525000D03*
D15*
X142875000Y-9525000D03*
D14*
X147955000Y-9525000D03*
D13*
X148717000Y-4445000D03*
D16*
X139065000Y-6985000D03*
X145415000Y-4445000D03*
%TD*%
D17*
%TO.C,S63*%
X257116250Y-88265000D03*
D14*
X255111250Y-85725000D03*
D15*
X250031250Y-85725000D03*
D14*
X244951250Y-85725000D03*
D17*
X244189250Y-90805000D03*
D16*
X253841250Y-88265000D03*
X247491250Y-90805000D03*
%TD*%
D13*
%TO.C,S37*%
X169127500Y-45085000D03*
D14*
X171132500Y-47625000D03*
D15*
X176212500Y-47625000D03*
D14*
X181292500Y-47625000D03*
D13*
X182054500Y-42545000D03*
D16*
X172402500Y-45085000D03*
X178752500Y-42545000D03*
%TD*%
D17*
%TO.C,S55*%
X257116250Y-69215000D03*
D14*
X255111250Y-66675000D03*
D15*
X250031250Y-66675000D03*
D22*
X247491250Y-71755000D03*
D14*
X244951250Y-66675000D03*
D17*
X244189250Y-71755000D03*
D16*
X253841250Y-69215000D03*
%TD*%
D20*
%TO.C,HOLE*%
X128575000Y-47325000D03*
%TD*%
D18*
%TO.C,REF\u002A\u002A*%
X266858750Y-50038000D03*
D19*
X282068750Y-50038000D03*
D18*
X266858750Y-26162000D03*
D19*
X282068750Y-26162000D03*
%TD*%
D13*
%TO.C,S21*%
X126265000Y-26035000D03*
D14*
X128270000Y-28575000D03*
D15*
X133350000Y-28575000D03*
D14*
X138430000Y-28575000D03*
D13*
X139192000Y-23495000D03*
D16*
X129540000Y-26035000D03*
X135890000Y-23495000D03*
%TD*%
D13*
%TO.C,S11*%
X192940000Y-6985000D03*
D14*
X194945000Y-9525000D03*
D15*
X200025000Y-9525000D03*
D14*
X205105000Y-9525000D03*
D13*
X205867000Y-4445000D03*
D16*
X196215000Y-6985000D03*
X202565000Y-4445000D03*
%TD*%
D13*
%TO.C,S52*%
X178652500Y-64135000D03*
D14*
X180657500Y-66675000D03*
D15*
X185737500Y-66675000D03*
D14*
X190817500Y-66675000D03*
D13*
X191579500Y-61595000D03*
D16*
X181927500Y-64135000D03*
X188277500Y-61595000D03*
%TD*%
D13*
%TO.C,S30*%
X35777500Y-45085000D03*
D14*
X37782500Y-47625000D03*
D15*
X42862500Y-47625000D03*
D14*
X47942500Y-47625000D03*
D13*
X48704500Y-42545000D03*
D16*
X39052500Y-45085000D03*
X45402500Y-42545000D03*
%TD*%
D13*
%TO.C,S38*%
X188177500Y-45085000D03*
D14*
X190182500Y-47625000D03*
D15*
X195262500Y-47625000D03*
D14*
X200342500Y-47625000D03*
D13*
X201104500Y-42545000D03*
D16*
X191452500Y-45085000D03*
X197802500Y-42545000D03*
%TD*%
D13*
%TO.C,S35*%
X131027500Y-45085000D03*
D14*
X133032500Y-47625000D03*
D15*
X138112500Y-47625000D03*
D14*
X143192500Y-47625000D03*
D13*
X143954500Y-42545000D03*
D16*
X134302500Y-45085000D03*
X140652500Y-42545000D03*
%TD*%
D13*
%TO.C,S39*%
X207227500Y-45085000D03*
D14*
X209232500Y-47625000D03*
D15*
X214312500Y-47625000D03*
D14*
X219392500Y-47625000D03*
D13*
X220154500Y-42545000D03*
D16*
X210502500Y-45085000D03*
X216852500Y-42545000D03*
%TD*%
D13*
%TO.C,S48*%
X102452500Y-64135000D03*
D14*
X104457500Y-66675000D03*
D15*
X109537500Y-66675000D03*
D14*
X114617500Y-66675000D03*
D13*
X115379500Y-61595000D03*
D16*
X105727500Y-64135000D03*
X112077500Y-61595000D03*
%TD*%
D13*
%TO.C,S18*%
X69115000Y-26035000D03*
D14*
X71120000Y-28575000D03*
D15*
X76200000Y-28575000D03*
D14*
X81280000Y-28575000D03*
D13*
X82042000Y-23495000D03*
D16*
X72390000Y-26035000D03*
X78740000Y-23495000D03*
%TD*%
D21*
%TO.C,S28-2*%
X261778750Y-54710000D03*
D14*
X264318750Y-52705000D03*
D15*
X264318750Y-47625000D03*
D14*
X264318750Y-42545000D03*
D21*
X259238750Y-41783000D03*
D16*
X261778750Y-51435000D03*
X259238750Y-45085000D03*
%TD*%
D18*
%TO.C,REF\u002A\u002A*%
X200025000Y-92710000D03*
D19*
X200025000Y-77500000D03*
D18*
X85725000Y-92710000D03*
D19*
X85725000Y-77500000D03*
%TD*%
D13*
%TO.C,S45*%
X45302500Y-64135000D03*
D14*
X47307500Y-66675000D03*
D15*
X52387500Y-66675000D03*
D14*
X57467500Y-66675000D03*
D13*
X58229500Y-61595000D03*
D16*
X48577500Y-64135000D03*
X54927500Y-61595000D03*
%TD*%
D13*
%TO.C,S13*%
X231040000Y-6985000D03*
D14*
X233045000Y-9525000D03*
D15*
X238125000Y-9525000D03*
D14*
X243205000Y-9525000D03*
D13*
X243967000Y-4445000D03*
D16*
X234315000Y-6985000D03*
X240665000Y-4445000D03*
%TD*%
D23*
%TO.C,HOLE*%
X283915000Y-56825000D03*
%TD*%
D13*
%TO.C,S26*%
X221515000Y-26035000D03*
D14*
X223520000Y-28575000D03*
D15*
X228600000Y-28575000D03*
D14*
X233680000Y-28575000D03*
D13*
X234442000Y-23495000D03*
D16*
X224790000Y-26035000D03*
X231140000Y-23495000D03*
%TD*%
D13*
%TO.C,S5*%
X78640000Y-6985000D03*
D14*
X80645000Y-9525000D03*
D15*
X85725000Y-9525000D03*
D14*
X90805000Y-9525000D03*
D13*
X91567000Y-4445000D03*
D16*
X81915000Y-6985000D03*
X88265000Y-4445000D03*
%TD*%
D13*
%TO.C,S17*%
X50065000Y-26035000D03*
D14*
X52070000Y-28575000D03*
D15*
X57150000Y-28575000D03*
D14*
X62230000Y-28575000D03*
D13*
X62992000Y-23495000D03*
D16*
X53340000Y-26035000D03*
X59690000Y-23495000D03*
%TD*%
D13*
%TO.C,S32*%
X73877500Y-45085000D03*
D14*
X75882500Y-47625000D03*
D15*
X80962500Y-47625000D03*
D14*
X86042500Y-47625000D03*
D13*
X86804500Y-42545000D03*
D16*
X77152500Y-45085000D03*
X83502500Y-42545000D03*
%TD*%
D13*
%TO.C,S55-2*%
X252471250Y-64135000D03*
D14*
X254476250Y-66675000D03*
D15*
X259556250Y-66675000D03*
D14*
X264636250Y-66675000D03*
D13*
X265398250Y-61595000D03*
D16*
X255746250Y-64135000D03*
X262096250Y-61595000D03*
%TD*%
D13*
%TO.C,S36*%
X150077500Y-45085000D03*
D14*
X152082500Y-47625000D03*
D15*
X157162500Y-47625000D03*
D14*
X162242500Y-47625000D03*
D13*
X163004500Y-42545000D03*
D16*
X153352500Y-45085000D03*
X159702500Y-42545000D03*
%TD*%
D13*
%TO.C,S49*%
X121502500Y-64135000D03*
D14*
X123507500Y-66675000D03*
D15*
X128587500Y-66675000D03*
D14*
X133667500Y-66675000D03*
D13*
X134429500Y-61595000D03*
D16*
X124777500Y-64135000D03*
X131127500Y-61595000D03*
%TD*%
D13*
%TO.C,S60*%
X123883750Y-83185000D03*
D14*
X125888750Y-85725000D03*
D15*
X130968750Y-85725000D03*
D14*
X136048750Y-85725000D03*
D13*
X136810750Y-80645000D03*
D16*
X127158750Y-83185000D03*
X133508750Y-80645000D03*
%TD*%
D13*
%TO.C,S53*%
X197702500Y-64135000D03*
D14*
X199707500Y-66675000D03*
D15*
X204787500Y-66675000D03*
D14*
X209867500Y-66675000D03*
D13*
X210629500Y-61595000D03*
D16*
X200977500Y-64135000D03*
X207327500Y-61595000D03*
%TD*%
D24*
%TO.C,HOLE*%
X25575000Y-28225000D03*
%TD*%
D13*
%TO.C,S10*%
X173890000Y-6985000D03*
D14*
X175895000Y-9525000D03*
D15*
X180975000Y-9525000D03*
D14*
X186055000Y-9525000D03*
D13*
X186817000Y-4445000D03*
D16*
X177165000Y-6985000D03*
X183515000Y-4445000D03*
%TD*%
D25*
%TO.C,S56*%
X278765000Y-59590000D03*
D14*
X276225000Y-61595000D03*
D15*
X276225000Y-66675000D03*
D14*
X276225000Y-71755000D03*
D25*
X281305000Y-72517000D03*
D16*
X278765000Y-62865000D03*
X281305000Y-69215000D03*
%TD*%
D13*
%TO.C,S59*%
X52446250Y-83185000D03*
D14*
X54451250Y-85725000D03*
D15*
X59531250Y-85725000D03*
D14*
X64611250Y-85725000D03*
D13*
X65373250Y-80645000D03*
D16*
X55721250Y-83185000D03*
X62071250Y-80645000D03*
%TD*%
D18*
%TO.C,REF\u002A\u002A*%
X33369250Y-73660000D03*
D19*
X33369250Y-58450000D03*
D18*
X9493250Y-73660000D03*
D19*
X9493250Y-58450000D03*
%TD*%
D18*
%TO.C,REF\u002A\u002A*%
X180968750Y-92710000D03*
D19*
X180968750Y-77500000D03*
D18*
X80968750Y-92710000D03*
D19*
X80968750Y-77500000D03*
%TD*%
D17*
%TO.C,S42*%
X264260000Y-12065000D03*
D14*
X262255000Y-9525000D03*
D15*
X257175000Y-9525000D03*
D22*
X254635000Y-14605000D03*
D14*
X252095000Y-9525000D03*
D17*
X251333000Y-14605000D03*
D16*
X260985000Y-12065000D03*
%TD*%
D17*
%TO.C,S14-2*%
X283310000Y-12065000D03*
D14*
X281305000Y-9525000D03*
D15*
X276225000Y-9525000D03*
D14*
X271145000Y-9525000D03*
D17*
X270383000Y-14605000D03*
D16*
X280035000Y-12065000D03*
X273685000Y-14605000D03*
%TD*%
D18*
%TO.C,REF\u002A\u002A*%
X254762000Y-2540000D03*
D19*
X254762000Y-17750000D03*
D18*
X278638000Y-2540000D03*
D19*
X278638000Y-17750000D03*
%TD*%
D13*
%TO.C,S54*%
X216752500Y-64135000D03*
D14*
X218757500Y-66675000D03*
D15*
X223837500Y-66675000D03*
D14*
X228917500Y-66675000D03*
D13*
X229679500Y-61595000D03*
D16*
X220027500Y-64135000D03*
X226377500Y-61595000D03*
%TD*%
D13*
%TO.C,S43*%
X4821250Y-64135000D03*
D14*
X6826250Y-66675000D03*
D15*
X11906250Y-66675000D03*
D14*
X16986250Y-66675000D03*
D13*
X17748250Y-61595000D03*
D16*
X8096250Y-64135000D03*
X14446250Y-61595000D03*
%TD*%
D13*
%TO.C,S51*%
X159602500Y-64135000D03*
D14*
X161607500Y-66675000D03*
D15*
X166687500Y-66675000D03*
D14*
X171767500Y-66675000D03*
D13*
X172529500Y-61595000D03*
D16*
X162877500Y-64135000D03*
X169227500Y-61595000D03*
%TD*%
D17*
%TO.C,S58-2*%
X45185000Y-88265000D03*
D14*
X43180000Y-85725000D03*
D15*
X38100000Y-85725000D03*
D14*
X33020000Y-85725000D03*
D17*
X32258000Y-90805000D03*
D16*
X41910000Y-88265000D03*
X35560000Y-90805000D03*
%TD*%
D25*
%TO.C,S41-2*%
X274002500Y-21490000D03*
D14*
X271462500Y-23495000D03*
D15*
X271462500Y-28575000D03*
D14*
X271462500Y-33655000D03*
D25*
X276542500Y-34417000D03*
D16*
X274002500Y-24765000D03*
X276542500Y-31115000D03*
%TD*%
D21*
%TO.C,S28*%
X271303750Y-45185000D03*
D14*
X273843750Y-43180000D03*
D15*
X273843750Y-38100000D03*
D14*
X273843750Y-33020000D03*
D21*
X268763750Y-32258000D03*
D16*
X271303750Y-41910000D03*
X268763750Y-35560000D03*
%TD*%
D18*
%TO.C,REF\u002A\u002A*%
X247618250Y-59690000D03*
D19*
X247618250Y-74900000D03*
D18*
X271494250Y-59690000D03*
D19*
X271494250Y-74900000D03*
%TD*%
D13*
%TO.C,S29-2*%
X4821250Y-45085000D03*
D14*
X6826250Y-47625000D03*
D15*
X11906250Y-47625000D03*
D14*
X16986250Y-47625000D03*
D13*
X17748250Y-42545000D03*
D16*
X8096250Y-45085000D03*
X14446250Y-42545000D03*
%TD*%
D17*
%TO.C,S29*%
X23753750Y-50165000D03*
D14*
X21748750Y-47625000D03*
D15*
X16668750Y-47625000D03*
D14*
X11588750Y-47625000D03*
D17*
X10826750Y-52705000D03*
D16*
X20478750Y-50165000D03*
X14128750Y-52705000D03*
%TD*%
D13*
%TO.C,S6*%
X97690000Y-6985000D03*
D14*
X99695000Y-9525000D03*
D15*
X104775000Y-9525000D03*
D14*
X109855000Y-9525000D03*
D13*
X110617000Y-4445000D03*
D16*
X100965000Y-6985000D03*
X107315000Y-4445000D03*
%TD*%
D23*
%TO.C,HOLE*%
X1835000Y-56825000D03*
%TD*%
D17*
%TO.C,S59-2*%
X68997500Y-88265000D03*
D14*
X66992500Y-85725000D03*
D15*
X61912500Y-85725000D03*
D14*
X56832500Y-85725000D03*
D17*
X56070500Y-90805000D03*
D16*
X65722500Y-88265000D03*
X59372500Y-90805000D03*
%TD*%
D17*
%TO.C,S43-2*%
X28516250Y-69215000D03*
D14*
X26511250Y-66675000D03*
D15*
X21431250Y-66675000D03*
D14*
X16351250Y-66675000D03*
D17*
X15589250Y-71755000D03*
D16*
X25241250Y-69215000D03*
X18891250Y-71755000D03*
%TD*%
D17*
%TO.C,S2*%
X35660000Y-12065000D03*
D14*
X33655000Y-9525000D03*
D15*
X28575000Y-9525000D03*
D14*
X23495000Y-9525000D03*
D17*
X22733000Y-14605000D03*
D16*
X32385000Y-12065000D03*
X26035000Y-14605000D03*
%TD*%
D20*
%TO.C,HOLE*%
X190875000Y-85525000D03*
%TD*%
D17*
%TO.C,S64*%
X280928750Y-88265000D03*
D14*
X278923750Y-85725000D03*
D15*
X273843750Y-85725000D03*
D14*
X268763750Y-85725000D03*
D17*
X268001750Y-90805000D03*
D16*
X277653750Y-88265000D03*
X271303750Y-90805000D03*
%TD*%
D13*
%TO.C,S40*%
X226277500Y-45085000D03*
D14*
X228282500Y-47625000D03*
D15*
X233362500Y-47625000D03*
D14*
X238442500Y-47625000D03*
D13*
X239204500Y-42545000D03*
D16*
X229552500Y-45085000D03*
X235902500Y-42545000D03*
%TD*%
D26*
%TO.C,D1*%
X4445000Y-4645000D03*
X4445000Y-7945000D03*
%TD*%
D27*
%TO.C,D46*%
X66357500Y-71555000D03*
X66357500Y-68255000D03*
%TD*%
%TO.C,D32*%
X75882500Y-52505000D03*
X75882500Y-49205000D03*
%TD*%
%TO.C,D34*%
X113982500Y-52505000D03*
X113982500Y-49205000D03*
%TD*%
D26*
%TO.C,D41*%
X242412500Y-52505000D03*
X242412500Y-55805000D03*
%TD*%
D27*
%TO.C,D56*%
X271145000Y-68325000D03*
X271145000Y-65025000D03*
%TD*%
%TO.C,D50*%
X142557500Y-71555000D03*
X142557500Y-68255000D03*
%TD*%
%TO.C,D51*%
X161607500Y-71555000D03*
X161607500Y-68255000D03*
%TD*%
%TO.C,D5*%
X80645000Y-14405000D03*
X80645000Y-11105000D03*
%TD*%
D28*
%TO.C,R1*%
X98870000Y-78425000D03*
X99890000Y-78425000D03*
%TD*%
D27*
%TO.C,D38*%
X190182500Y-52505000D03*
X190182500Y-49205000D03*
%TD*%
%TO.C,D52*%
X180657500Y-71555000D03*
X180657500Y-68255000D03*
%TD*%
%TO.C,D60*%
X125888750Y-90605000D03*
X125888750Y-87305000D03*
%TD*%
%TO.C,D48*%
X104457500Y-71555000D03*
X104457500Y-68255000D03*
%TD*%
%TO.C,D20*%
X109220000Y-33455000D03*
X109220000Y-30155000D03*
%TD*%
D29*
%TO.C,C8*%
X101355000Y-88025000D03*
X100395000Y-88025000D03*
%TD*%
D28*
%TO.C,R4*%
X100365000Y-87025000D03*
X101385000Y-87025000D03*
%TD*%
D27*
%TO.C,D42*%
X255462500Y-30225000D03*
X255462500Y-26925000D03*
%TD*%
D30*
%TO.C,D55*%
X236350000Y-71555000D03*
X239650000Y-71555000D03*
%TD*%
D27*
%TO.C,D49*%
X123507500Y-71555000D03*
X123507500Y-68255000D03*
%TD*%
D26*
%TO.C,D64*%
X261462500Y-77345000D03*
X261462500Y-80645000D03*
%TD*%
D27*
%TO.C,D27*%
X242570000Y-33455000D03*
X242570000Y-30155000D03*
%TD*%
D29*
%TO.C,C10*%
X101355000Y-89025000D03*
X100395000Y-89025000D03*
%TD*%
D27*
%TO.C,D3*%
X42545000Y-14405000D03*
X42545000Y-11105000D03*
%TD*%
D31*
%TO.C,R6*%
X17325000Y-8675000D03*
X16305000Y-8675000D03*
%TD*%
D27*
%TO.C,D4*%
X61595000Y-14405000D03*
X61595000Y-11105000D03*
%TD*%
%TO.C,D33*%
X94932500Y-52505000D03*
X94932500Y-49205000D03*
%TD*%
D32*
%TO.C,C9*%
X102355000Y-89025000D03*
X102355000Y-89985000D03*
%TD*%
D29*
%TO.C,C7*%
X101355000Y-84025000D03*
X100395000Y-84025000D03*
%TD*%
D27*
%TO.C,D17*%
X52070000Y-33455000D03*
X52070000Y-30155000D03*
%TD*%
D33*
%TO.C,Y1*%
X117625000Y-85475000D03*
X115425000Y-85475000D03*
X115425000Y-83775000D03*
X117625000Y-83775000D03*
%TD*%
D34*
%TO.C,U2*%
X101190000Y-80690000D03*
X101190000Y-81190000D03*
X101190000Y-81690000D03*
X101190000Y-82190000D03*
X98340000Y-82190000D03*
X98340000Y-81690000D03*
X98340000Y-81190000D03*
X98340000Y-80690000D03*
D35*
X99765000Y-81440000D03*
%TD*%
D36*
%TO.C,C2*%
X116045000Y-82375000D03*
X117005000Y-82375000D03*
%TD*%
D30*
%TO.C,D28*%
X253812500Y-33455000D03*
X257112500Y-33455000D03*
%TD*%
D26*
%TO.C,D63*%
X237650000Y-77345000D03*
X237650000Y-80645000D03*
%TD*%
D27*
%TO.C,D31*%
X56832500Y-52505000D03*
X56832500Y-49205000D03*
%TD*%
D37*
%TO.C,U3*%
X104725000Y-81587500D03*
X105125000Y-81587500D03*
X105525000Y-81587500D03*
X105925000Y-81587500D03*
X106325000Y-81587500D03*
X106725000Y-81587500D03*
X107125000Y-81587500D03*
X107525000Y-81587500D03*
X107925000Y-81587500D03*
X108325000Y-81587500D03*
X108725000Y-81587500D03*
X109125000Y-81587500D03*
X109525000Y-81587500D03*
X109925000Y-81587500D03*
D38*
X110762500Y-82425000D03*
X110762500Y-82825000D03*
X110762500Y-83225000D03*
X110762500Y-83625000D03*
X110762500Y-84025000D03*
X110762500Y-84425000D03*
X110762500Y-84825000D03*
X110762500Y-85225000D03*
X110762500Y-85625000D03*
X110762500Y-86025000D03*
X110762500Y-86425000D03*
X110762500Y-86825000D03*
X110762500Y-87225000D03*
X110762500Y-87625000D03*
D37*
X109925000Y-88462500D03*
X109525000Y-88462500D03*
X109125000Y-88462500D03*
X108725000Y-88462500D03*
X108325000Y-88462500D03*
X107925000Y-88462500D03*
X107525000Y-88462500D03*
X107125000Y-88462500D03*
X106725000Y-88462500D03*
X106325000Y-88462500D03*
X105925000Y-88462500D03*
X105525000Y-88462500D03*
X105125000Y-88462500D03*
X104725000Y-88462500D03*
D38*
X103887500Y-87625000D03*
X103887500Y-87225000D03*
X103887500Y-86825000D03*
X103887500Y-86425000D03*
X103887500Y-86025000D03*
X103887500Y-85625000D03*
X103887500Y-85225000D03*
X103887500Y-84825000D03*
X103887500Y-84425000D03*
X103887500Y-84025000D03*
X103887500Y-83625000D03*
X103887500Y-83225000D03*
X103887500Y-82825000D03*
X103887500Y-82425000D03*
D39*
X107325000Y-85025000D03*
%TD*%
D40*
%TO.C,C4*%
X93500000Y-81650000D03*
X93500000Y-80690000D03*
%TD*%
D27*
%TO.C,D29*%
X26668750Y-52505000D03*
X26668750Y-49205000D03*
%TD*%
%TO.C,D40*%
X228282500Y-52505000D03*
X228282500Y-49205000D03*
%TD*%
%TO.C,D47*%
X85407500Y-71555000D03*
X85407500Y-68255000D03*
%TD*%
%TO.C,D9*%
X156845000Y-14405000D03*
X156845000Y-11105000D03*
%TD*%
D31*
%TO.C,R5*%
X117035000Y-86875000D03*
X116015000Y-86875000D03*
%TD*%
D27*
%TO.C,D45*%
X47307500Y-71555000D03*
X47307500Y-68255000D03*
%TD*%
%TO.C,D54*%
X218757500Y-71555000D03*
X218757500Y-68255000D03*
%TD*%
%TO.C,D7*%
X118745000Y-14405000D03*
X118745000Y-11105000D03*
%TD*%
%TO.C,D53*%
X199707500Y-71555000D03*
X199707500Y-68255000D03*
%TD*%
%TO.C,D24*%
X185420000Y-33455000D03*
X185420000Y-30155000D03*
%TD*%
D29*
%TO.C,C12*%
X108325000Y-89985000D03*
X107365000Y-89985000D03*
%TD*%
D27*
%TO.C,D39*%
X209232500Y-52505000D03*
X209232500Y-49205000D03*
%TD*%
%TO.C,D21*%
X128270000Y-33455000D03*
X128270000Y-30155000D03*
%TD*%
D40*
%TO.C,C3*%
X119275000Y-85105000D03*
X119275000Y-84145000D03*
%TD*%
D27*
%TO.C,D10*%
X175895000Y-14405000D03*
X175895000Y-11105000D03*
%TD*%
D41*
%TO.C,J2*%
X97130000Y-78425000D03*
D42*
X95860000Y-78425000D03*
%TD*%
D26*
%TO.C,D2*%
X33655000Y-4645000D03*
X33655000Y-7945000D03*
%TD*%
D27*
%TO.C,D25*%
X204470000Y-33455000D03*
X204470000Y-30155000D03*
%TD*%
%TO.C,D44*%
X42862500Y-71555000D03*
X42862500Y-68255000D03*
%TD*%
%TO.C,D14*%
X247175000Y-14405000D03*
X247175000Y-11105000D03*
%TD*%
D26*
%TO.C,D57*%
X24287500Y-77345000D03*
X24287500Y-80645000D03*
%TD*%
D27*
%TO.C,D16*%
X33020000Y-33455000D03*
X33020000Y-30155000D03*
%TD*%
D32*
%TO.C,C1*%
X87300000Y-80700000D03*
X87300000Y-81660000D03*
%TD*%
D27*
%TO.C,D13*%
X233045000Y-14405000D03*
X233045000Y-11105000D03*
%TD*%
%TO.C,D43*%
X38417500Y-71555000D03*
X38417500Y-68255000D03*
%TD*%
D43*
%TO.C,U4*%
X91537500Y-79750000D03*
X91537500Y-81650000D03*
X89262500Y-80700000D03*
%TD*%
D28*
%TO.C,R3*%
X100365000Y-86025000D03*
X101385000Y-86025000D03*
%TD*%
D27*
%TO.C,D15*%
X9207500Y-33455000D03*
X9207500Y-30155000D03*
%TD*%
%TO.C,D6*%
X99695000Y-14405000D03*
X99695000Y-11105000D03*
%TD*%
D29*
%TO.C,C11*%
X104725000Y-89985000D03*
X103765000Y-89985000D03*
%TD*%
%TO.C,C16*%
X101355000Y-85025000D03*
X100395000Y-85025000D03*
%TD*%
D26*
%TO.C,D59*%
X71912500Y-77345000D03*
X71912500Y-80645000D03*
%TD*%
D27*
%TO.C,D26*%
X223520000Y-33455000D03*
X223520000Y-30155000D03*
%TD*%
%TO.C,D18*%
X71120000Y-33455000D03*
X71120000Y-30155000D03*
%TD*%
D26*
%TO.C,D62*%
X213837500Y-77345000D03*
X213837500Y-80645000D03*
%TD*%
D32*
%TO.C,C13*%
X113425000Y-86535000D03*
X113425000Y-87495000D03*
%TD*%
D27*
%TO.C,D23*%
X166370000Y-33455000D03*
X166370000Y-30155000D03*
%TD*%
%TO.C,D36*%
X152082500Y-52505000D03*
X152082500Y-49205000D03*
%TD*%
D26*
%TO.C,D58*%
X48100000Y-77345000D03*
X48100000Y-80645000D03*
%TD*%
D27*
%TO.C,D37*%
X171132500Y-52505000D03*
X171132500Y-49205000D03*
%TD*%
%TO.C,D12*%
X213995000Y-14405000D03*
X213995000Y-11105000D03*
%TD*%
D28*
%TO.C,R7*%
X20325000Y-8675000D03*
X21345000Y-8675000D03*
%TD*%
D27*
%TO.C,D35*%
X133032500Y-52505000D03*
X133032500Y-49205000D03*
%TD*%
%TO.C,D30*%
X37782500Y-52505000D03*
X37782500Y-49205000D03*
%TD*%
D32*
%TO.C,C6*%
X112425000Y-86535000D03*
X112425000Y-87495000D03*
%TD*%
D27*
%TO.C,D22*%
X147320000Y-33455000D03*
X147320000Y-30155000D03*
%TD*%
%TO.C,D61*%
X197326250Y-90605000D03*
X197326250Y-87305000D03*
%TD*%
D40*
%TO.C,C14*%
X108735000Y-79355000D03*
X108735000Y-78395000D03*
%TD*%
D27*
%TO.C,D11*%
X194945000Y-14405000D03*
X194945000Y-11105000D03*
%TD*%
D44*
%TO.C,C15*%
X103714411Y-79839411D03*
X103035589Y-79160589D03*
%TD*%
D27*
%TO.C,D19*%
X90170000Y-33455000D03*
X90170000Y-30155000D03*
%TD*%
D45*
%TO.C,J1*%
X15685000Y-5105000D03*
X21465000Y-5105000D03*
D46*
X15375000Y-6180000D03*
X16175000Y-6180000D03*
D47*
X17325000Y-6180000D03*
X18325000Y-6180000D03*
X18825000Y-6180000D03*
X19825000Y-6180000D03*
D46*
X20975000Y-6180000D03*
X21775000Y-6180000D03*
X21775000Y-6180000D03*
X20975000Y-6180000D03*
D47*
X20325000Y-6180000D03*
X19325000Y-6180000D03*
X17825000Y-6180000D03*
X16825000Y-6180000D03*
D46*
X16175000Y-6180000D03*
X15375000Y-6180000D03*
D48*
X14255000Y-1425000D03*
D49*
X14255000Y-5605000D03*
D48*
X22895000Y-1425000D03*
D49*
X22895000Y-5605000D03*
%TD*%
D27*
%TO.C,D8*%
X137795000Y-14405000D03*
X137795000Y-11105000D03*
%TD*%
D29*
%TO.C,C5*%
X96820000Y-80690000D03*
X95860000Y-80690000D03*
%TD*%
%LPD*%
M02*
