%TF.GenerationSoftware,KiCad,Pcbnew,8.0.7*%
%TF.CreationDate,2024-12-21T00:00:25+08:00*%
%TF.ProjectId,PH60_Rev2,50483630-5f52-4657-9632-2e6b69636164,rev?*%
%TF.SameCoordinates,PX1b40518PY1b40518*%
%TF.FileFunction,NonPlated,1,2,NPTH,Mixed*%
%TF.FilePolarity,Positive*%
%FSLAX46Y46*%
G04 Gerber Fmt 4.6, Leading zero omitted, Abs format (unit mm)*
G04 Created by KiCad (PCBNEW 8.0.7) date 2024-12-21 00:00:25*
%MOMM*%
%LPD*%
G01*
G04 APERTURE LIST*
%TA.AperFunction,ComponentDrill*%
%ADD10C,0.650000*%
%TD*%
%TA.AperFunction,ComponentDrill*%
%ADD11C,1.750000*%
%TD*%
G04 aperture for slot hole*
%TA.AperFunction,ComponentDrill*%
%ADD12C,2.500000*%
%TD*%
%TA.AperFunction,ComponentDrill*%
%ADD13C,2.500000*%
%TD*%
%TA.AperFunction,ComponentDrill*%
%ADD14C,3.048000*%
%TD*%
%TA.AperFunction,ComponentDrill*%
%ADD15C,3.050000*%
%TD*%
%TA.AperFunction,ComponentDrill*%
%ADD16C,3.987800*%
%TD*%
%TA.AperFunction,ComponentDrill*%
%ADD17C,4.000000*%
%TD*%
G04 APERTURE END LIST*
D10*
%TO.C,J1*%
X15685000Y-5105000D03*
X21465000Y-5105000D03*
D11*
%TO.C,S1*%
X4445000Y-9525000D03*
%TO.C,S29-2*%
X6826250Y-47625000D03*
%TO.C,S43*%
X6826250Y-66675000D03*
%TO.C,S57*%
X6826250Y-85725000D03*
%TO.C,S15*%
X9207500Y-28575000D03*
%TO.C,S57-2*%
X9207500Y-85725000D03*
%TO.C,S29*%
X11588750Y-47625000D03*
%TO.C,S1*%
X14605000Y-9525000D03*
%TO.C,S43-2*%
X16351250Y-66675000D03*
%TO.C,S29-2*%
X16986250Y-47625000D03*
%TO.C,S43*%
X16986250Y-66675000D03*
%TO.C,S57*%
X16986250Y-85725000D03*
%TO.C,S15*%
X19367500Y-28575000D03*
%TO.C,S57-2*%
X19367500Y-85725000D03*
%TO.C,S29*%
X21748750Y-47625000D03*
%TO.C,S2*%
X23495000Y-9525000D03*
%TO.C,S43-2*%
X26511250Y-66675000D03*
%TO.C,S44*%
X28257500Y-66675000D03*
%TO.C,S58*%
X30638750Y-85725000D03*
%TO.C,S16*%
X33020000Y-28575000D03*
%TO.C,S58-2*%
X33020000Y-85725000D03*
%TO.C,S2*%
X33655000Y-9525000D03*
%TO.C,S30*%
X37782500Y-47625000D03*
%TO.C,S44*%
X38417500Y-66675000D03*
%TO.C,S58*%
X40798750Y-85725000D03*
%TO.C,S3*%
X42545000Y-9525000D03*
%TO.C,S16*%
X43180000Y-28575000D03*
%TO.C,S58-2*%
X43180000Y-85725000D03*
%TO.C,S45*%
X47307500Y-66675000D03*
%TO.C,S30*%
X47942500Y-47625000D03*
%TO.C,S17*%
X52070000Y-28575000D03*
%TO.C,S3*%
X52705000Y-9525000D03*
%TO.C,S59*%
X54451250Y-85725000D03*
%TO.C,S31*%
X56832500Y-47625000D03*
%TO.C,S59-2*%
X56832500Y-85725000D03*
%TO.C,S45*%
X57467500Y-66675000D03*
%TO.C,S4*%
X61595000Y-9525000D03*
%TO.C,S17*%
X62230000Y-28575000D03*
%TO.C,S59*%
X64611250Y-85725000D03*
%TO.C,S46*%
X66357500Y-66675000D03*
%TO.C,S31*%
X66992500Y-47625000D03*
%TO.C,S59-2*%
X66992500Y-85725000D03*
%TO.C,S18*%
X71120000Y-28575000D03*
%TO.C,S4*%
X71755000Y-9525000D03*
%TO.C,S32*%
X75882500Y-47625000D03*
%TO.C,S46*%
X76517500Y-66675000D03*
%TO.C,S5*%
X80645000Y-9525000D03*
%TO.C,S18*%
X81280000Y-28575000D03*
%TO.C,S47*%
X85407500Y-66675000D03*
%TO.C,S32*%
X86042500Y-47625000D03*
%TO.C,S19*%
X90170000Y-28575000D03*
%TO.C,S5*%
X90805000Y-9525000D03*
%TO.C,S33*%
X94932500Y-47625000D03*
%TO.C,S47*%
X95567500Y-66675000D03*
%TO.C,S6*%
X99695000Y-9525000D03*
%TO.C,S19*%
X100330000Y-28575000D03*
%TO.C,S48*%
X104457500Y-66675000D03*
%TO.C,S33*%
X105092500Y-47625000D03*
%TO.C,S20*%
X109220000Y-28575000D03*
%TO.C,S6*%
X109855000Y-9525000D03*
%TO.C,S34*%
X113982500Y-47625000D03*
%TO.C,S48*%
X114617500Y-66675000D03*
%TO.C,S7*%
X118745000Y-9525000D03*
%TO.C,S20*%
X119380000Y-28575000D03*
%TO.C,S49*%
X123507500Y-66675000D03*
%TO.C,S34*%
X124142500Y-47625000D03*
%TO.C,S60*%
X125888750Y-85725000D03*
%TO.C,S21*%
X128270000Y-28575000D03*
%TO.C,S7*%
X128905000Y-9525000D03*
%TO.C,S35*%
X133032500Y-47625000D03*
%TO.C,S49*%
X133667500Y-66675000D03*
%TO.C,S60*%
X136048750Y-85725000D03*
%TO.C,S8*%
X137795000Y-9525000D03*
%TO.C,S60-2*%
X137795000Y-85725000D03*
%TO.C,S21*%
X138430000Y-28575000D03*
%TO.C,S50*%
X142557500Y-66675000D03*
%TO.C,S35*%
X143192500Y-47625000D03*
%TO.C,S22*%
X147320000Y-28575000D03*
%TO.C,S8*%
X147955000Y-9525000D03*
%TO.C,S60-2*%
X147955000Y-85725000D03*
%TO.C,S36*%
X152082500Y-47625000D03*
%TO.C,S50*%
X152717500Y-66675000D03*
%TO.C,S9*%
X156845000Y-9525000D03*
%TO.C,S22*%
X157480000Y-28575000D03*
%TO.C,S51*%
X161607500Y-66675000D03*
%TO.C,S36*%
X162242500Y-47625000D03*
%TO.C,S23*%
X166370000Y-28575000D03*
%TO.C,S9*%
X167005000Y-9525000D03*
%TO.C,S37*%
X171132500Y-47625000D03*
%TO.C,S51*%
X171767500Y-66675000D03*
%TO.C,S10*%
X175895000Y-9525000D03*
%TO.C,S23*%
X176530000Y-28575000D03*
%TO.C,S52*%
X180657500Y-66675000D03*
%TO.C,S37*%
X181292500Y-47625000D03*
%TO.C,S24*%
X185420000Y-28575000D03*
%TO.C,S10*%
X186055000Y-9525000D03*
%TO.C,S38*%
X190182500Y-47625000D03*
%TO.C,S52*%
X190817500Y-66675000D03*
%TO.C,S11*%
X194945000Y-9525000D03*
%TO.C,S24*%
X195580000Y-28575000D03*
%TO.C,S61*%
X197326250Y-85725000D03*
%TO.C,S53*%
X199707500Y-66675000D03*
%TO.C,S38*%
X200342500Y-47625000D03*
%TO.C,S25*%
X204470000Y-28575000D03*
%TO.C,S11*%
X205105000Y-9525000D03*
%TO.C,S61*%
X207486250Y-85725000D03*
%TO.C,S39*%
X209232500Y-47625000D03*
%TO.C,S53*%
X209867500Y-66675000D03*
%TO.C,S12*%
X213995000Y-9525000D03*
%TO.C,S25*%
X214630000Y-28575000D03*
%TO.C,S54*%
X218757500Y-66675000D03*
%TO.C,S62-2*%
X218757500Y-85725000D03*
%TO.C,S39*%
X219392500Y-47625000D03*
%TO.C,S62*%
X221138750Y-85725000D03*
%TO.C,S26*%
X223520000Y-28575000D03*
%TO.C,S12*%
X224155000Y-9525000D03*
%TO.C,S40*%
X228282500Y-47625000D03*
%TO.C,S54*%
X228917500Y-66675000D03*
%TO.C,S62-2*%
X228917500Y-85725000D03*
%TO.C,S62*%
X231298750Y-85725000D03*
%TO.C,S13*%
X233045000Y-9525000D03*
%TO.C,S26*%
X233680000Y-28575000D03*
%TO.C,S40*%
X238442500Y-47625000D03*
%TO.C,S27*%
X242570000Y-28575000D03*
%TO.C,S63-2*%
X242570000Y-85725000D03*
%TO.C,S13*%
X243205000Y-9525000D03*
%TO.C,S55*%
X244951250Y-66675000D03*
%TO.C,S63*%
X244951250Y-85725000D03*
%TO.C,S42*%
X252095000Y-9525000D03*
%TO.C,S41*%
X252412500Y-42545000D03*
X252412500Y-52705000D03*
%TO.C,S27*%
X252730000Y-28575000D03*
%TO.C,S63-2*%
X252730000Y-85725000D03*
%TO.C,S55-2*%
X254476250Y-66675000D03*
%TO.C,S55*%
X255111250Y-66675000D03*
%TO.C,S63*%
X255111250Y-85725000D03*
%TO.C,S14*%
X261620000Y-9525000D03*
%TO.C,S42*%
X262255000Y-9525000D03*
%TO.C,S28-2*%
X264318750Y-42545000D03*
X264318750Y-52705000D03*
%TO.C,S55-2*%
X264636250Y-66675000D03*
%TO.C,S64-2*%
X266382500Y-85725000D03*
%TO.C,S64*%
X268763750Y-85725000D03*
%TO.C,S14-2*%
X271145000Y-9525000D03*
%TO.C,S41-2*%
X271462500Y-23495000D03*
X271462500Y-33655000D03*
%TO.C,S14*%
X271780000Y-9525000D03*
%TO.C,S28*%
X273843750Y-33020000D03*
X273843750Y-43180000D03*
%TO.C,S56*%
X276225000Y-61595000D03*
X276225000Y-71755000D03*
%TO.C,S64-2*%
X276542500Y-85725000D03*
%TO.C,S64*%
X278923750Y-85725000D03*
%TO.C,S14-2*%
X281305000Y-9525000D03*
D12*
%TO.C,HOLE*%
X4085000Y-56825000D02*
X-415000Y-56825000D01*
D13*
X25575000Y-28225000D03*
D12*
X129825000Y-47325000D02*
X127325000Y-47325000D01*
X192125000Y-85525000D02*
X189625000Y-85525000D01*
X261675000Y-28225000D02*
X259175000Y-28225000D01*
X286165000Y-56825000D02*
X281665000Y-56825000D01*
D14*
%TO.C,REF\u002A\u002A*%
X9493250Y-73660000D03*
X33369250Y-73660000D03*
X80968750Y-92710000D03*
X85725000Y-92710000D03*
X180968750Y-92710000D03*
X200025000Y-92710000D03*
X247618250Y-59690000D03*
X252380750Y-40640000D03*
X254762000Y-2540000D03*
X266858750Y-26162000D03*
X266858750Y-50038000D03*
X271494250Y-59690000D03*
X276256750Y-40640000D03*
X278638000Y-2540000D03*
D15*
%TO.C,S55*%
X247491250Y-71755000D03*
%TO.C,S42*%
X254635000Y-14605000D03*
D16*
%TO.C,REF\u002A\u002A*%
X9493250Y-58450000D03*
X33369250Y-58450000D03*
X80968750Y-77500000D03*
X85725000Y-77500000D03*
X180968750Y-77500000D03*
X200025000Y-77500000D03*
X247618250Y-74900000D03*
X252380750Y-55850000D03*
X254762000Y-17750000D03*
X271494250Y-74900000D03*
X276256750Y-55850000D03*
X278638000Y-17750000D03*
X282068750Y-26162000D03*
X282068750Y-50038000D03*
D17*
%TO.C,S1*%
X9525000Y-9525000D03*
%TO.C,S29-2*%
X11906250Y-47625000D03*
%TO.C,S43*%
X11906250Y-66675000D03*
%TO.C,S57*%
X11906250Y-85725000D03*
%TO.C,S15*%
X14287500Y-28575000D03*
%TO.C,S57-2*%
X14287500Y-85725000D03*
%TO.C,S29*%
X16668750Y-47625000D03*
%TO.C,S43-2*%
X21431250Y-66675000D03*
%TO.C,S2*%
X28575000Y-9525000D03*
%TO.C,S44*%
X33337500Y-66675000D03*
%TO.C,S58*%
X35718750Y-85725000D03*
%TO.C,S16*%
X38100000Y-28575000D03*
%TO.C,S58-2*%
X38100000Y-85725000D03*
%TO.C,S30*%
X42862500Y-47625000D03*
%TO.C,S3*%
X47625000Y-9525000D03*
%TO.C,S45*%
X52387500Y-66675000D03*
%TO.C,S17*%
X57150000Y-28575000D03*
%TO.C,S59*%
X59531250Y-85725000D03*
%TO.C,S31*%
X61912500Y-47625000D03*
%TO.C,S59-2*%
X61912500Y-85725000D03*
%TO.C,S4*%
X66675000Y-9525000D03*
%TO.C,S46*%
X71437500Y-66675000D03*
%TO.C,S18*%
X76200000Y-28575000D03*
%TO.C,S32*%
X80962500Y-47625000D03*
%TO.C,S5*%
X85725000Y-9525000D03*
%TO.C,S47*%
X90487500Y-66675000D03*
%TO.C,S19*%
X95250000Y-28575000D03*
%TO.C,S33*%
X100012500Y-47625000D03*
%TO.C,S6*%
X104775000Y-9525000D03*
%TO.C,S48*%
X109537500Y-66675000D03*
%TO.C,S20*%
X114300000Y-28575000D03*
%TO.C,S34*%
X119062500Y-47625000D03*
%TO.C,S7*%
X123825000Y-9525000D03*
%TO.C,S49*%
X128587500Y-66675000D03*
%TO.C,S60*%
X130968750Y-85725000D03*
%TO.C,S21*%
X133350000Y-28575000D03*
%TO.C,S35*%
X138112500Y-47625000D03*
%TO.C,S8*%
X142875000Y-9525000D03*
%TO.C,S60-2*%
X142875000Y-85725000D03*
%TO.C,S50*%
X147637500Y-66675000D03*
%TO.C,S22*%
X152400000Y-28575000D03*
%TO.C,S36*%
X157162500Y-47625000D03*
%TO.C,S9*%
X161925000Y-9525000D03*
%TO.C,S51*%
X166687500Y-66675000D03*
%TO.C,S23*%
X171450000Y-28575000D03*
%TO.C,S37*%
X176212500Y-47625000D03*
%TO.C,S10*%
X180975000Y-9525000D03*
%TO.C,S52*%
X185737500Y-66675000D03*
%TO.C,S24*%
X190500000Y-28575000D03*
%TO.C,S38*%
X195262500Y-47625000D03*
%TO.C,S11*%
X200025000Y-9525000D03*
%TO.C,S61*%
X202406250Y-85725000D03*
%TO.C,S53*%
X204787500Y-66675000D03*
%TO.C,S25*%
X209550000Y-28575000D03*
%TO.C,S39*%
X214312500Y-47625000D03*
%TO.C,S12*%
X219075000Y-9525000D03*
%TO.C,S54*%
X223837500Y-66675000D03*
%TO.C,S62-2*%
X223837500Y-85725000D03*
%TO.C,S62*%
X226218750Y-85725000D03*
%TO.C,S26*%
X228600000Y-28575000D03*
%TO.C,S40*%
X233362500Y-47625000D03*
%TO.C,S13*%
X238125000Y-9525000D03*
%TO.C,S27*%
X247650000Y-28575000D03*
%TO.C,S63-2*%
X247650000Y-85725000D03*
%TO.C,S55*%
X250031250Y-66675000D03*
%TO.C,S63*%
X250031250Y-85725000D03*
%TO.C,S41*%
X252412500Y-47625000D03*
%TO.C,S42*%
X257175000Y-9525000D03*
%TO.C,S55-2*%
X259556250Y-66675000D03*
%TO.C,S28-2*%
X264318750Y-47625000D03*
%TO.C,S14*%
X266700000Y-9525000D03*
%TO.C,S41-2*%
X271462500Y-28575000D03*
%TO.C,S64-2*%
X271462500Y-85725000D03*
%TO.C,S28*%
X273843750Y-38100000D03*
%TO.C,S64*%
X273843750Y-85725000D03*
%TO.C,S14-2*%
X276225000Y-9525000D03*
%TO.C,S56*%
X276225000Y-66675000D03*
M02*
