%TF.GenerationSoftware,KiCad,Pcbnew,8.0.3*%
%TF.CreationDate,2024-11-28T23:45:42+08:00*%
%TF.ProjectId,PH60_Rev2,50483630-5f52-4657-9632-2e6b69636164,rev?*%
%TF.SameCoordinates,Original*%
%TF.FileFunction,Legend,Bot*%
%TF.FilePolarity,Positive*%
%FSLAX46Y46*%
G04 Gerber Fmt 4.6, Leading zero omitted, Abs format (unit mm)*
G04 Created by KiCad (PCBNEW 8.0.3) date 2024-11-28 23:45:42*
%MOMM*%
%LPD*%
G01*
G04 APERTURE LIST*
%ADD10C,0.150000*%
%ADD11C,0.120000*%
G04 APERTURE END LIST*
D10*
X259312319Y-78015714D02*
X258312319Y-78015714D01*
X258312319Y-78015714D02*
X258312319Y-78253809D01*
X258312319Y-78253809D02*
X258359938Y-78396666D01*
X258359938Y-78396666D02*
X258455176Y-78491904D01*
X258455176Y-78491904D02*
X258550414Y-78539523D01*
X258550414Y-78539523D02*
X258740890Y-78587142D01*
X258740890Y-78587142D02*
X258883747Y-78587142D01*
X258883747Y-78587142D02*
X259074223Y-78539523D01*
X259074223Y-78539523D02*
X259169461Y-78491904D01*
X259169461Y-78491904D02*
X259264700Y-78396666D01*
X259264700Y-78396666D02*
X259312319Y-78253809D01*
X259312319Y-78253809D02*
X259312319Y-78015714D01*
X258645652Y-79444285D02*
X259312319Y-79444285D01*
X258264700Y-79206190D02*
X258978985Y-78968095D01*
X258978985Y-78968095D02*
X258978985Y-79587142D01*
X258312319Y-80158571D02*
X258312319Y-80253809D01*
X258312319Y-80253809D02*
X258359938Y-80349047D01*
X258359938Y-80349047D02*
X258407557Y-80396666D01*
X258407557Y-80396666D02*
X258502795Y-80444285D01*
X258502795Y-80444285D02*
X258693271Y-80491904D01*
X258693271Y-80491904D02*
X258931366Y-80491904D01*
X258931366Y-80491904D02*
X259121842Y-80444285D01*
X259121842Y-80444285D02*
X259217080Y-80396666D01*
X259217080Y-80396666D02*
X259264700Y-80349047D01*
X259264700Y-80349047D02*
X259312319Y-80253809D01*
X259312319Y-80253809D02*
X259312319Y-80158571D01*
X259312319Y-80158571D02*
X259264700Y-80063333D01*
X259264700Y-80063333D02*
X259217080Y-80015714D01*
X259217080Y-80015714D02*
X259121842Y-79968095D01*
X259121842Y-79968095D02*
X258931366Y-79920476D01*
X258931366Y-79920476D02*
X258693271Y-79920476D01*
X258693271Y-79920476D02*
X258502795Y-79968095D01*
X258502795Y-79968095D02*
X258407557Y-80015714D01*
X258407557Y-80015714D02*
X258359938Y-80063333D01*
X258359938Y-80063333D02*
X258312319Y-80158571D01*
X51397319Y-115625714D02*
X50397319Y-115625714D01*
X50397319Y-115625714D02*
X50397319Y-115863809D01*
X50397319Y-115863809D02*
X50444938Y-116006666D01*
X50444938Y-116006666D02*
X50540176Y-116101904D01*
X50540176Y-116101904D02*
X50635414Y-116149523D01*
X50635414Y-116149523D02*
X50825890Y-116197142D01*
X50825890Y-116197142D02*
X50968747Y-116197142D01*
X50968747Y-116197142D02*
X51159223Y-116149523D01*
X51159223Y-116149523D02*
X51254461Y-116101904D01*
X51254461Y-116101904D02*
X51349700Y-116006666D01*
X51349700Y-116006666D02*
X51397319Y-115863809D01*
X51397319Y-115863809D02*
X51397319Y-115625714D01*
X50397319Y-117101904D02*
X50397319Y-116625714D01*
X50397319Y-116625714D02*
X50873509Y-116578095D01*
X50873509Y-116578095D02*
X50825890Y-116625714D01*
X50825890Y-116625714D02*
X50778271Y-116720952D01*
X50778271Y-116720952D02*
X50778271Y-116959047D01*
X50778271Y-116959047D02*
X50825890Y-117054285D01*
X50825890Y-117054285D02*
X50873509Y-117101904D01*
X50873509Y-117101904D02*
X50968747Y-117149523D01*
X50968747Y-117149523D02*
X51206842Y-117149523D01*
X51206842Y-117149523D02*
X51302080Y-117101904D01*
X51302080Y-117101904D02*
X51349700Y-117054285D01*
X51349700Y-117054285D02*
X51397319Y-116959047D01*
X51397319Y-116959047D02*
X51397319Y-116720952D01*
X51397319Y-116720952D02*
X51349700Y-116625714D01*
X51349700Y-116625714D02*
X51302080Y-116578095D01*
X50397319Y-117482857D02*
X50397319Y-118149523D01*
X50397319Y-118149523D02*
X51397319Y-117720952D01*
X245024819Y-39915714D02*
X244024819Y-39915714D01*
X244024819Y-39915714D02*
X244024819Y-40153809D01*
X244024819Y-40153809D02*
X244072438Y-40296666D01*
X244072438Y-40296666D02*
X244167676Y-40391904D01*
X244167676Y-40391904D02*
X244262914Y-40439523D01*
X244262914Y-40439523D02*
X244453390Y-40487142D01*
X244453390Y-40487142D02*
X244596247Y-40487142D01*
X244596247Y-40487142D02*
X244786723Y-40439523D01*
X244786723Y-40439523D02*
X244881961Y-40391904D01*
X244881961Y-40391904D02*
X244977200Y-40296666D01*
X244977200Y-40296666D02*
X245024819Y-40153809D01*
X245024819Y-40153809D02*
X245024819Y-39915714D01*
X245024819Y-41439523D02*
X245024819Y-40868095D01*
X245024819Y-41153809D02*
X244024819Y-41153809D01*
X244024819Y-41153809D02*
X244167676Y-41058571D01*
X244167676Y-41058571D02*
X244262914Y-40963333D01*
X244262914Y-40963333D02*
X244310533Y-40868095D01*
X244120057Y-41820476D02*
X244072438Y-41868095D01*
X244072438Y-41868095D02*
X244024819Y-41963333D01*
X244024819Y-41963333D02*
X244024819Y-42201428D01*
X244024819Y-42201428D02*
X244072438Y-42296666D01*
X244072438Y-42296666D02*
X244120057Y-42344285D01*
X244120057Y-42344285D02*
X244215295Y-42391904D01*
X244215295Y-42391904D02*
X244310533Y-42391904D01*
X244310533Y-42391904D02*
X244453390Y-42344285D01*
X244453390Y-42344285D02*
X245024819Y-41772857D01*
X245024819Y-41772857D02*
X245024819Y-42391904D01*
X202162319Y-78015714D02*
X201162319Y-78015714D01*
X201162319Y-78015714D02*
X201162319Y-78253809D01*
X201162319Y-78253809D02*
X201209938Y-78396666D01*
X201209938Y-78396666D02*
X201305176Y-78491904D01*
X201305176Y-78491904D02*
X201400414Y-78539523D01*
X201400414Y-78539523D02*
X201590890Y-78587142D01*
X201590890Y-78587142D02*
X201733747Y-78587142D01*
X201733747Y-78587142D02*
X201924223Y-78539523D01*
X201924223Y-78539523D02*
X202019461Y-78491904D01*
X202019461Y-78491904D02*
X202114700Y-78396666D01*
X202114700Y-78396666D02*
X202162319Y-78253809D01*
X202162319Y-78253809D02*
X202162319Y-78015714D01*
X201162319Y-78920476D02*
X201162319Y-79539523D01*
X201162319Y-79539523D02*
X201543271Y-79206190D01*
X201543271Y-79206190D02*
X201543271Y-79349047D01*
X201543271Y-79349047D02*
X201590890Y-79444285D01*
X201590890Y-79444285D02*
X201638509Y-79491904D01*
X201638509Y-79491904D02*
X201733747Y-79539523D01*
X201733747Y-79539523D02*
X201971842Y-79539523D01*
X201971842Y-79539523D02*
X202067080Y-79491904D01*
X202067080Y-79491904D02*
X202114700Y-79444285D01*
X202114700Y-79444285D02*
X202162319Y-79349047D01*
X202162319Y-79349047D02*
X202162319Y-79063333D01*
X202162319Y-79063333D02*
X202114700Y-78968095D01*
X202114700Y-78968095D02*
X202067080Y-78920476D01*
X201162319Y-79872857D02*
X201162319Y-80539523D01*
X201162319Y-80539523D02*
X202162319Y-80110952D01*
X178349819Y-58965714D02*
X177349819Y-58965714D01*
X177349819Y-58965714D02*
X177349819Y-59203809D01*
X177349819Y-59203809D02*
X177397438Y-59346666D01*
X177397438Y-59346666D02*
X177492676Y-59441904D01*
X177492676Y-59441904D02*
X177587914Y-59489523D01*
X177587914Y-59489523D02*
X177778390Y-59537142D01*
X177778390Y-59537142D02*
X177921247Y-59537142D01*
X177921247Y-59537142D02*
X178111723Y-59489523D01*
X178111723Y-59489523D02*
X178206961Y-59441904D01*
X178206961Y-59441904D02*
X178302200Y-59346666D01*
X178302200Y-59346666D02*
X178349819Y-59203809D01*
X178349819Y-59203809D02*
X178349819Y-58965714D01*
X177445057Y-59918095D02*
X177397438Y-59965714D01*
X177397438Y-59965714D02*
X177349819Y-60060952D01*
X177349819Y-60060952D02*
X177349819Y-60299047D01*
X177349819Y-60299047D02*
X177397438Y-60394285D01*
X177397438Y-60394285D02*
X177445057Y-60441904D01*
X177445057Y-60441904D02*
X177540295Y-60489523D01*
X177540295Y-60489523D02*
X177635533Y-60489523D01*
X177635533Y-60489523D02*
X177778390Y-60441904D01*
X177778390Y-60441904D02*
X178349819Y-59870476D01*
X178349819Y-59870476D02*
X178349819Y-60489523D01*
X177445057Y-60870476D02*
X177397438Y-60918095D01*
X177397438Y-60918095D02*
X177349819Y-61013333D01*
X177349819Y-61013333D02*
X177349819Y-61251428D01*
X177349819Y-61251428D02*
X177397438Y-61346666D01*
X177397438Y-61346666D02*
X177445057Y-61394285D01*
X177445057Y-61394285D02*
X177540295Y-61441904D01*
X177540295Y-61441904D02*
X177635533Y-61441904D01*
X177635533Y-61441904D02*
X177778390Y-61394285D01*
X177778390Y-61394285D02*
X178349819Y-60822857D01*
X178349819Y-60822857D02*
X178349819Y-61441904D01*
X235499819Y-58965714D02*
X234499819Y-58965714D01*
X234499819Y-58965714D02*
X234499819Y-59203809D01*
X234499819Y-59203809D02*
X234547438Y-59346666D01*
X234547438Y-59346666D02*
X234642676Y-59441904D01*
X234642676Y-59441904D02*
X234737914Y-59489523D01*
X234737914Y-59489523D02*
X234928390Y-59537142D01*
X234928390Y-59537142D02*
X235071247Y-59537142D01*
X235071247Y-59537142D02*
X235261723Y-59489523D01*
X235261723Y-59489523D02*
X235356961Y-59441904D01*
X235356961Y-59441904D02*
X235452200Y-59346666D01*
X235452200Y-59346666D02*
X235499819Y-59203809D01*
X235499819Y-59203809D02*
X235499819Y-58965714D01*
X234595057Y-59918095D02*
X234547438Y-59965714D01*
X234547438Y-59965714D02*
X234499819Y-60060952D01*
X234499819Y-60060952D02*
X234499819Y-60299047D01*
X234499819Y-60299047D02*
X234547438Y-60394285D01*
X234547438Y-60394285D02*
X234595057Y-60441904D01*
X234595057Y-60441904D02*
X234690295Y-60489523D01*
X234690295Y-60489523D02*
X234785533Y-60489523D01*
X234785533Y-60489523D02*
X234928390Y-60441904D01*
X234928390Y-60441904D02*
X235499819Y-59870476D01*
X235499819Y-59870476D02*
X235499819Y-60489523D01*
X234499819Y-61394285D02*
X234499819Y-60918095D01*
X234499819Y-60918095D02*
X234976009Y-60870476D01*
X234976009Y-60870476D02*
X234928390Y-60918095D01*
X234928390Y-60918095D02*
X234880771Y-61013333D01*
X234880771Y-61013333D02*
X234880771Y-61251428D01*
X234880771Y-61251428D02*
X234928390Y-61346666D01*
X234928390Y-61346666D02*
X234976009Y-61394285D01*
X234976009Y-61394285D02*
X235071247Y-61441904D01*
X235071247Y-61441904D02*
X235309342Y-61441904D01*
X235309342Y-61441904D02*
X235404580Y-61394285D01*
X235404580Y-61394285D02*
X235452200Y-61346666D01*
X235452200Y-61346666D02*
X235499819Y-61251428D01*
X235499819Y-61251428D02*
X235499819Y-61013333D01*
X235499819Y-61013333D02*
X235452200Y-60918095D01*
X235452200Y-60918095D02*
X235404580Y-60870476D01*
X64049819Y-58965714D02*
X63049819Y-58965714D01*
X63049819Y-58965714D02*
X63049819Y-59203809D01*
X63049819Y-59203809D02*
X63097438Y-59346666D01*
X63097438Y-59346666D02*
X63192676Y-59441904D01*
X63192676Y-59441904D02*
X63287914Y-59489523D01*
X63287914Y-59489523D02*
X63478390Y-59537142D01*
X63478390Y-59537142D02*
X63621247Y-59537142D01*
X63621247Y-59537142D02*
X63811723Y-59489523D01*
X63811723Y-59489523D02*
X63906961Y-59441904D01*
X63906961Y-59441904D02*
X64002200Y-59346666D01*
X64002200Y-59346666D02*
X64049819Y-59203809D01*
X64049819Y-59203809D02*
X64049819Y-58965714D01*
X64049819Y-60489523D02*
X64049819Y-59918095D01*
X64049819Y-60203809D02*
X63049819Y-60203809D01*
X63049819Y-60203809D02*
X63192676Y-60108571D01*
X63192676Y-60108571D02*
X63287914Y-60013333D01*
X63287914Y-60013333D02*
X63335533Y-59918095D01*
X63049819Y-61346666D02*
X63049819Y-61156190D01*
X63049819Y-61156190D02*
X63097438Y-61060952D01*
X63097438Y-61060952D02*
X63145057Y-61013333D01*
X63145057Y-61013333D02*
X63287914Y-60918095D01*
X63287914Y-60918095D02*
X63478390Y-60870476D01*
X63478390Y-60870476D02*
X63859342Y-60870476D01*
X63859342Y-60870476D02*
X63954580Y-60918095D01*
X63954580Y-60918095D02*
X64002200Y-60965714D01*
X64002200Y-60965714D02*
X64049819Y-61060952D01*
X64049819Y-61060952D02*
X64049819Y-61251428D01*
X64049819Y-61251428D02*
X64002200Y-61346666D01*
X64002200Y-61346666D02*
X63954580Y-61394285D01*
X63954580Y-61394285D02*
X63859342Y-61441904D01*
X63859342Y-61441904D02*
X63621247Y-61441904D01*
X63621247Y-61441904D02*
X63526009Y-61394285D01*
X63526009Y-61394285D02*
X63478390Y-61346666D01*
X63478390Y-61346666D02*
X63430771Y-61251428D01*
X63430771Y-61251428D02*
X63430771Y-61060952D01*
X63430771Y-61060952D02*
X63478390Y-60965714D01*
X63478390Y-60965714D02*
X63526009Y-60918095D01*
X63526009Y-60918095D02*
X63621247Y-60870476D01*
X288412319Y-110545714D02*
X287412319Y-110545714D01*
X287412319Y-110545714D02*
X287412319Y-110783809D01*
X287412319Y-110783809D02*
X287459938Y-110926666D01*
X287459938Y-110926666D02*
X287555176Y-111021904D01*
X287555176Y-111021904D02*
X287650414Y-111069523D01*
X287650414Y-111069523D02*
X287840890Y-111117142D01*
X287840890Y-111117142D02*
X287983747Y-111117142D01*
X287983747Y-111117142D02*
X288174223Y-111069523D01*
X288174223Y-111069523D02*
X288269461Y-111021904D01*
X288269461Y-111021904D02*
X288364700Y-110926666D01*
X288364700Y-110926666D02*
X288412319Y-110783809D01*
X288412319Y-110783809D02*
X288412319Y-110545714D01*
X287412319Y-111974285D02*
X287412319Y-111783809D01*
X287412319Y-111783809D02*
X287459938Y-111688571D01*
X287459938Y-111688571D02*
X287507557Y-111640952D01*
X287507557Y-111640952D02*
X287650414Y-111545714D01*
X287650414Y-111545714D02*
X287840890Y-111498095D01*
X287840890Y-111498095D02*
X288221842Y-111498095D01*
X288221842Y-111498095D02*
X288317080Y-111545714D01*
X288317080Y-111545714D02*
X288364700Y-111593333D01*
X288364700Y-111593333D02*
X288412319Y-111688571D01*
X288412319Y-111688571D02*
X288412319Y-111879047D01*
X288412319Y-111879047D02*
X288364700Y-111974285D01*
X288364700Y-111974285D02*
X288317080Y-112021904D01*
X288317080Y-112021904D02*
X288221842Y-112069523D01*
X288221842Y-112069523D02*
X287983747Y-112069523D01*
X287983747Y-112069523D02*
X287888509Y-112021904D01*
X287888509Y-112021904D02*
X287840890Y-111974285D01*
X287840890Y-111974285D02*
X287793271Y-111879047D01*
X287793271Y-111879047D02*
X287793271Y-111688571D01*
X287793271Y-111688571D02*
X287840890Y-111593333D01*
X287840890Y-111593333D02*
X287888509Y-111545714D01*
X287888509Y-111545714D02*
X287983747Y-111498095D01*
X287745652Y-112926666D02*
X288412319Y-112926666D01*
X287364700Y-112688571D02*
X288078985Y-112450476D01*
X288078985Y-112450476D02*
X288078985Y-113069523D01*
X216449819Y-58965714D02*
X215449819Y-58965714D01*
X215449819Y-58965714D02*
X215449819Y-59203809D01*
X215449819Y-59203809D02*
X215497438Y-59346666D01*
X215497438Y-59346666D02*
X215592676Y-59441904D01*
X215592676Y-59441904D02*
X215687914Y-59489523D01*
X215687914Y-59489523D02*
X215878390Y-59537142D01*
X215878390Y-59537142D02*
X216021247Y-59537142D01*
X216021247Y-59537142D02*
X216211723Y-59489523D01*
X216211723Y-59489523D02*
X216306961Y-59441904D01*
X216306961Y-59441904D02*
X216402200Y-59346666D01*
X216402200Y-59346666D02*
X216449819Y-59203809D01*
X216449819Y-59203809D02*
X216449819Y-58965714D01*
X215545057Y-59918095D02*
X215497438Y-59965714D01*
X215497438Y-59965714D02*
X215449819Y-60060952D01*
X215449819Y-60060952D02*
X215449819Y-60299047D01*
X215449819Y-60299047D02*
X215497438Y-60394285D01*
X215497438Y-60394285D02*
X215545057Y-60441904D01*
X215545057Y-60441904D02*
X215640295Y-60489523D01*
X215640295Y-60489523D02*
X215735533Y-60489523D01*
X215735533Y-60489523D02*
X215878390Y-60441904D01*
X215878390Y-60441904D02*
X216449819Y-59870476D01*
X216449819Y-59870476D02*
X216449819Y-60489523D01*
X215783152Y-61346666D02*
X216449819Y-61346666D01*
X215402200Y-61108571D02*
X216116485Y-60870476D01*
X216116485Y-60870476D02*
X216116485Y-61489523D01*
X159299819Y-58965714D02*
X158299819Y-58965714D01*
X158299819Y-58965714D02*
X158299819Y-59203809D01*
X158299819Y-59203809D02*
X158347438Y-59346666D01*
X158347438Y-59346666D02*
X158442676Y-59441904D01*
X158442676Y-59441904D02*
X158537914Y-59489523D01*
X158537914Y-59489523D02*
X158728390Y-59537142D01*
X158728390Y-59537142D02*
X158871247Y-59537142D01*
X158871247Y-59537142D02*
X159061723Y-59489523D01*
X159061723Y-59489523D02*
X159156961Y-59441904D01*
X159156961Y-59441904D02*
X159252200Y-59346666D01*
X159252200Y-59346666D02*
X159299819Y-59203809D01*
X159299819Y-59203809D02*
X159299819Y-58965714D01*
X158395057Y-59918095D02*
X158347438Y-59965714D01*
X158347438Y-59965714D02*
X158299819Y-60060952D01*
X158299819Y-60060952D02*
X158299819Y-60299047D01*
X158299819Y-60299047D02*
X158347438Y-60394285D01*
X158347438Y-60394285D02*
X158395057Y-60441904D01*
X158395057Y-60441904D02*
X158490295Y-60489523D01*
X158490295Y-60489523D02*
X158585533Y-60489523D01*
X158585533Y-60489523D02*
X158728390Y-60441904D01*
X158728390Y-60441904D02*
X159299819Y-59870476D01*
X159299819Y-59870476D02*
X159299819Y-60489523D01*
X159299819Y-61441904D02*
X159299819Y-60870476D01*
X159299819Y-61156190D02*
X158299819Y-61156190D01*
X158299819Y-61156190D02*
X158442676Y-61060952D01*
X158442676Y-61060952D02*
X158537914Y-60965714D01*
X158537914Y-60965714D02*
X158585533Y-60870476D01*
X68206785Y-98384819D02*
X68206785Y-97384819D01*
X68206785Y-97384819D02*
X67968690Y-97384819D01*
X67968690Y-97384819D02*
X67825833Y-97432438D01*
X67825833Y-97432438D02*
X67730595Y-97527676D01*
X67730595Y-97527676D02*
X67682976Y-97622914D01*
X67682976Y-97622914D02*
X67635357Y-97813390D01*
X67635357Y-97813390D02*
X67635357Y-97956247D01*
X67635357Y-97956247D02*
X67682976Y-98146723D01*
X67682976Y-98146723D02*
X67730595Y-98241961D01*
X67730595Y-98241961D02*
X67825833Y-98337200D01*
X67825833Y-98337200D02*
X67968690Y-98384819D01*
X67968690Y-98384819D02*
X68206785Y-98384819D01*
X66778214Y-97718152D02*
X66778214Y-98384819D01*
X67016309Y-97337200D02*
X67254404Y-98051485D01*
X67254404Y-98051485D02*
X66635357Y-98051485D01*
X65825833Y-97718152D02*
X65825833Y-98384819D01*
X66063928Y-97337200D02*
X66302023Y-98051485D01*
X66302023Y-98051485D02*
X65682976Y-98051485D01*
X197399819Y-58965714D02*
X196399819Y-58965714D01*
X196399819Y-58965714D02*
X196399819Y-59203809D01*
X196399819Y-59203809D02*
X196447438Y-59346666D01*
X196447438Y-59346666D02*
X196542676Y-59441904D01*
X196542676Y-59441904D02*
X196637914Y-59489523D01*
X196637914Y-59489523D02*
X196828390Y-59537142D01*
X196828390Y-59537142D02*
X196971247Y-59537142D01*
X196971247Y-59537142D02*
X197161723Y-59489523D01*
X197161723Y-59489523D02*
X197256961Y-59441904D01*
X197256961Y-59441904D02*
X197352200Y-59346666D01*
X197352200Y-59346666D02*
X197399819Y-59203809D01*
X197399819Y-59203809D02*
X197399819Y-58965714D01*
X196495057Y-59918095D02*
X196447438Y-59965714D01*
X196447438Y-59965714D02*
X196399819Y-60060952D01*
X196399819Y-60060952D02*
X196399819Y-60299047D01*
X196399819Y-60299047D02*
X196447438Y-60394285D01*
X196447438Y-60394285D02*
X196495057Y-60441904D01*
X196495057Y-60441904D02*
X196590295Y-60489523D01*
X196590295Y-60489523D02*
X196685533Y-60489523D01*
X196685533Y-60489523D02*
X196828390Y-60441904D01*
X196828390Y-60441904D02*
X197399819Y-59870476D01*
X197399819Y-59870476D02*
X197399819Y-60489523D01*
X196399819Y-60822857D02*
X196399819Y-61441904D01*
X196399819Y-61441904D02*
X196780771Y-61108571D01*
X196780771Y-61108571D02*
X196780771Y-61251428D01*
X196780771Y-61251428D02*
X196828390Y-61346666D01*
X196828390Y-61346666D02*
X196876009Y-61394285D01*
X196876009Y-61394285D02*
X196971247Y-61441904D01*
X196971247Y-61441904D02*
X197209342Y-61441904D01*
X197209342Y-61441904D02*
X197304580Y-61394285D01*
X197304580Y-61394285D02*
X197352200Y-61346666D01*
X197352200Y-61346666D02*
X197399819Y-61251428D01*
X197399819Y-61251428D02*
X197399819Y-60965714D01*
X197399819Y-60965714D02*
X197352200Y-60870476D01*
X197352200Y-60870476D02*
X197304580Y-60822857D01*
X183112319Y-78015714D02*
X182112319Y-78015714D01*
X182112319Y-78015714D02*
X182112319Y-78253809D01*
X182112319Y-78253809D02*
X182159938Y-78396666D01*
X182159938Y-78396666D02*
X182255176Y-78491904D01*
X182255176Y-78491904D02*
X182350414Y-78539523D01*
X182350414Y-78539523D02*
X182540890Y-78587142D01*
X182540890Y-78587142D02*
X182683747Y-78587142D01*
X182683747Y-78587142D02*
X182874223Y-78539523D01*
X182874223Y-78539523D02*
X182969461Y-78491904D01*
X182969461Y-78491904D02*
X183064700Y-78396666D01*
X183064700Y-78396666D02*
X183112319Y-78253809D01*
X183112319Y-78253809D02*
X183112319Y-78015714D01*
X182112319Y-78920476D02*
X182112319Y-79539523D01*
X182112319Y-79539523D02*
X182493271Y-79206190D01*
X182493271Y-79206190D02*
X182493271Y-79349047D01*
X182493271Y-79349047D02*
X182540890Y-79444285D01*
X182540890Y-79444285D02*
X182588509Y-79491904D01*
X182588509Y-79491904D02*
X182683747Y-79539523D01*
X182683747Y-79539523D02*
X182921842Y-79539523D01*
X182921842Y-79539523D02*
X183017080Y-79491904D01*
X183017080Y-79491904D02*
X183064700Y-79444285D01*
X183064700Y-79444285D02*
X183112319Y-79349047D01*
X183112319Y-79349047D02*
X183112319Y-79063333D01*
X183112319Y-79063333D02*
X183064700Y-78968095D01*
X183064700Y-78968095D02*
X183017080Y-78920476D01*
X182112319Y-80396666D02*
X182112319Y-80206190D01*
X182112319Y-80206190D02*
X182159938Y-80110952D01*
X182159938Y-80110952D02*
X182207557Y-80063333D01*
X182207557Y-80063333D02*
X182350414Y-79968095D01*
X182350414Y-79968095D02*
X182540890Y-79920476D01*
X182540890Y-79920476D02*
X182921842Y-79920476D01*
X182921842Y-79920476D02*
X183017080Y-79968095D01*
X183017080Y-79968095D02*
X183064700Y-80015714D01*
X183064700Y-80015714D02*
X183112319Y-80110952D01*
X183112319Y-80110952D02*
X183112319Y-80301428D01*
X183112319Y-80301428D02*
X183064700Y-80396666D01*
X183064700Y-80396666D02*
X183017080Y-80444285D01*
X183017080Y-80444285D02*
X182921842Y-80491904D01*
X182921842Y-80491904D02*
X182683747Y-80491904D01*
X182683747Y-80491904D02*
X182588509Y-80444285D01*
X182588509Y-80444285D02*
X182540890Y-80396666D01*
X182540890Y-80396666D02*
X182493271Y-80301428D01*
X182493271Y-80301428D02*
X182493271Y-80110952D01*
X182493271Y-80110952D02*
X182540890Y-80015714D01*
X182540890Y-80015714D02*
X182588509Y-79968095D01*
X182588509Y-79968095D02*
X182683747Y-79920476D01*
X56854819Y-78015714D02*
X55854819Y-78015714D01*
X55854819Y-78015714D02*
X55854819Y-78253809D01*
X55854819Y-78253809D02*
X55902438Y-78396666D01*
X55902438Y-78396666D02*
X55997676Y-78491904D01*
X55997676Y-78491904D02*
X56092914Y-78539523D01*
X56092914Y-78539523D02*
X56283390Y-78587142D01*
X56283390Y-78587142D02*
X56426247Y-78587142D01*
X56426247Y-78587142D02*
X56616723Y-78539523D01*
X56616723Y-78539523D02*
X56711961Y-78491904D01*
X56711961Y-78491904D02*
X56807200Y-78396666D01*
X56807200Y-78396666D02*
X56854819Y-78253809D01*
X56854819Y-78253809D02*
X56854819Y-78015714D01*
X55950057Y-78968095D02*
X55902438Y-79015714D01*
X55902438Y-79015714D02*
X55854819Y-79110952D01*
X55854819Y-79110952D02*
X55854819Y-79349047D01*
X55854819Y-79349047D02*
X55902438Y-79444285D01*
X55902438Y-79444285D02*
X55950057Y-79491904D01*
X55950057Y-79491904D02*
X56045295Y-79539523D01*
X56045295Y-79539523D02*
X56140533Y-79539523D01*
X56140533Y-79539523D02*
X56283390Y-79491904D01*
X56283390Y-79491904D02*
X56854819Y-78920476D01*
X56854819Y-78920476D02*
X56854819Y-79539523D01*
X56854819Y-80015714D02*
X56854819Y-80206190D01*
X56854819Y-80206190D02*
X56807200Y-80301428D01*
X56807200Y-80301428D02*
X56759580Y-80349047D01*
X56759580Y-80349047D02*
X56616723Y-80444285D01*
X56616723Y-80444285D02*
X56426247Y-80491904D01*
X56426247Y-80491904D02*
X56045295Y-80491904D01*
X56045295Y-80491904D02*
X55950057Y-80444285D01*
X55950057Y-80444285D02*
X55902438Y-80396666D01*
X55902438Y-80396666D02*
X55854819Y-80301428D01*
X55854819Y-80301428D02*
X55854819Y-80110952D01*
X55854819Y-80110952D02*
X55902438Y-80015714D01*
X55902438Y-80015714D02*
X55950057Y-79968095D01*
X55950057Y-79968095D02*
X56045295Y-79920476D01*
X56045295Y-79920476D02*
X56283390Y-79920476D01*
X56283390Y-79920476D02*
X56378628Y-79968095D01*
X56378628Y-79968095D02*
X56426247Y-80015714D01*
X56426247Y-80015714D02*
X56473866Y-80110952D01*
X56473866Y-80110952D02*
X56473866Y-80301428D01*
X56473866Y-80301428D02*
X56426247Y-80396666D01*
X56426247Y-80396666D02*
X56378628Y-80444285D01*
X56378628Y-80444285D02*
X56283390Y-80491904D01*
X173587319Y-97065714D02*
X172587319Y-97065714D01*
X172587319Y-97065714D02*
X172587319Y-97303809D01*
X172587319Y-97303809D02*
X172634938Y-97446666D01*
X172634938Y-97446666D02*
X172730176Y-97541904D01*
X172730176Y-97541904D02*
X172825414Y-97589523D01*
X172825414Y-97589523D02*
X173015890Y-97637142D01*
X173015890Y-97637142D02*
X173158747Y-97637142D01*
X173158747Y-97637142D02*
X173349223Y-97589523D01*
X173349223Y-97589523D02*
X173444461Y-97541904D01*
X173444461Y-97541904D02*
X173539700Y-97446666D01*
X173539700Y-97446666D02*
X173587319Y-97303809D01*
X173587319Y-97303809D02*
X173587319Y-97065714D01*
X172587319Y-98541904D02*
X172587319Y-98065714D01*
X172587319Y-98065714D02*
X173063509Y-98018095D01*
X173063509Y-98018095D02*
X173015890Y-98065714D01*
X173015890Y-98065714D02*
X172968271Y-98160952D01*
X172968271Y-98160952D02*
X172968271Y-98399047D01*
X172968271Y-98399047D02*
X173015890Y-98494285D01*
X173015890Y-98494285D02*
X173063509Y-98541904D01*
X173063509Y-98541904D02*
X173158747Y-98589523D01*
X173158747Y-98589523D02*
X173396842Y-98589523D01*
X173396842Y-98589523D02*
X173492080Y-98541904D01*
X173492080Y-98541904D02*
X173539700Y-98494285D01*
X173539700Y-98494285D02*
X173587319Y-98399047D01*
X173587319Y-98399047D02*
X173587319Y-98160952D01*
X173587319Y-98160952D02*
X173539700Y-98065714D01*
X173539700Y-98065714D02*
X173492080Y-98018095D01*
X172587319Y-99208571D02*
X172587319Y-99303809D01*
X172587319Y-99303809D02*
X172634938Y-99399047D01*
X172634938Y-99399047D02*
X172682557Y-99446666D01*
X172682557Y-99446666D02*
X172777795Y-99494285D01*
X172777795Y-99494285D02*
X172968271Y-99541904D01*
X172968271Y-99541904D02*
X173206366Y-99541904D01*
X173206366Y-99541904D02*
X173396842Y-99494285D01*
X173396842Y-99494285D02*
X173492080Y-99446666D01*
X173492080Y-99446666D02*
X173539700Y-99399047D01*
X173539700Y-99399047D02*
X173587319Y-99303809D01*
X173587319Y-99303809D02*
X173587319Y-99208571D01*
X173587319Y-99208571D02*
X173539700Y-99113333D01*
X173539700Y-99113333D02*
X173492080Y-99065714D01*
X173492080Y-99065714D02*
X173396842Y-99018095D01*
X173396842Y-99018095D02*
X173206366Y-98970476D01*
X173206366Y-98970476D02*
X172968271Y-98970476D01*
X172968271Y-98970476D02*
X172777795Y-99018095D01*
X172777795Y-99018095D02*
X172682557Y-99065714D01*
X172682557Y-99065714D02*
X172634938Y-99113333D01*
X172634938Y-99113333D02*
X172587319Y-99208571D01*
X60684819Y-34331905D02*
X59684819Y-34331905D01*
X59684819Y-34331905D02*
X59684819Y-34570000D01*
X59684819Y-34570000D02*
X59732438Y-34712857D01*
X59732438Y-34712857D02*
X59827676Y-34808095D01*
X59827676Y-34808095D02*
X59922914Y-34855714D01*
X59922914Y-34855714D02*
X60113390Y-34903333D01*
X60113390Y-34903333D02*
X60256247Y-34903333D01*
X60256247Y-34903333D02*
X60446723Y-34855714D01*
X60446723Y-34855714D02*
X60541961Y-34808095D01*
X60541961Y-34808095D02*
X60637200Y-34712857D01*
X60637200Y-34712857D02*
X60684819Y-34570000D01*
X60684819Y-34570000D02*
X60684819Y-34331905D01*
X59780057Y-35284286D02*
X59732438Y-35331905D01*
X59732438Y-35331905D02*
X59684819Y-35427143D01*
X59684819Y-35427143D02*
X59684819Y-35665238D01*
X59684819Y-35665238D02*
X59732438Y-35760476D01*
X59732438Y-35760476D02*
X59780057Y-35808095D01*
X59780057Y-35808095D02*
X59875295Y-35855714D01*
X59875295Y-35855714D02*
X59970533Y-35855714D01*
X59970533Y-35855714D02*
X60113390Y-35808095D01*
X60113390Y-35808095D02*
X60684819Y-35236667D01*
X60684819Y-35236667D02*
X60684819Y-35855714D01*
X221212319Y-78015714D02*
X220212319Y-78015714D01*
X220212319Y-78015714D02*
X220212319Y-78253809D01*
X220212319Y-78253809D02*
X220259938Y-78396666D01*
X220259938Y-78396666D02*
X220355176Y-78491904D01*
X220355176Y-78491904D02*
X220450414Y-78539523D01*
X220450414Y-78539523D02*
X220640890Y-78587142D01*
X220640890Y-78587142D02*
X220783747Y-78587142D01*
X220783747Y-78587142D02*
X220974223Y-78539523D01*
X220974223Y-78539523D02*
X221069461Y-78491904D01*
X221069461Y-78491904D02*
X221164700Y-78396666D01*
X221164700Y-78396666D02*
X221212319Y-78253809D01*
X221212319Y-78253809D02*
X221212319Y-78015714D01*
X220212319Y-78920476D02*
X220212319Y-79539523D01*
X220212319Y-79539523D02*
X220593271Y-79206190D01*
X220593271Y-79206190D02*
X220593271Y-79349047D01*
X220593271Y-79349047D02*
X220640890Y-79444285D01*
X220640890Y-79444285D02*
X220688509Y-79491904D01*
X220688509Y-79491904D02*
X220783747Y-79539523D01*
X220783747Y-79539523D02*
X221021842Y-79539523D01*
X221021842Y-79539523D02*
X221117080Y-79491904D01*
X221117080Y-79491904D02*
X221164700Y-79444285D01*
X221164700Y-79444285D02*
X221212319Y-79349047D01*
X221212319Y-79349047D02*
X221212319Y-79063333D01*
X221212319Y-79063333D02*
X221164700Y-78968095D01*
X221164700Y-78968095D02*
X221117080Y-78920476D01*
X220640890Y-80110952D02*
X220593271Y-80015714D01*
X220593271Y-80015714D02*
X220545652Y-79968095D01*
X220545652Y-79968095D02*
X220450414Y-79920476D01*
X220450414Y-79920476D02*
X220402795Y-79920476D01*
X220402795Y-79920476D02*
X220307557Y-79968095D01*
X220307557Y-79968095D02*
X220259938Y-80015714D01*
X220259938Y-80015714D02*
X220212319Y-80110952D01*
X220212319Y-80110952D02*
X220212319Y-80301428D01*
X220212319Y-80301428D02*
X220259938Y-80396666D01*
X220259938Y-80396666D02*
X220307557Y-80444285D01*
X220307557Y-80444285D02*
X220402795Y-80491904D01*
X220402795Y-80491904D02*
X220450414Y-80491904D01*
X220450414Y-80491904D02*
X220545652Y-80444285D01*
X220545652Y-80444285D02*
X220593271Y-80396666D01*
X220593271Y-80396666D02*
X220640890Y-80301428D01*
X220640890Y-80301428D02*
X220640890Y-80110952D01*
X220640890Y-80110952D02*
X220688509Y-80015714D01*
X220688509Y-80015714D02*
X220736128Y-79968095D01*
X220736128Y-79968095D02*
X220831366Y-79920476D01*
X220831366Y-79920476D02*
X221021842Y-79920476D01*
X221021842Y-79920476D02*
X221117080Y-79968095D01*
X221117080Y-79968095D02*
X221164700Y-80015714D01*
X221164700Y-80015714D02*
X221212319Y-80110952D01*
X221212319Y-80110952D02*
X221212319Y-80301428D01*
X221212319Y-80301428D02*
X221164700Y-80396666D01*
X221164700Y-80396666D02*
X221117080Y-80444285D01*
X221117080Y-80444285D02*
X221021842Y-80491904D01*
X221021842Y-80491904D02*
X220831366Y-80491904D01*
X220831366Y-80491904D02*
X220736128Y-80444285D01*
X220736128Y-80444285D02*
X220688509Y-80396666D01*
X220688509Y-80396666D02*
X220640890Y-80301428D01*
X31474819Y-34331905D02*
X30474819Y-34331905D01*
X30474819Y-34331905D02*
X30474819Y-34570000D01*
X30474819Y-34570000D02*
X30522438Y-34712857D01*
X30522438Y-34712857D02*
X30617676Y-34808095D01*
X30617676Y-34808095D02*
X30712914Y-34855714D01*
X30712914Y-34855714D02*
X30903390Y-34903333D01*
X30903390Y-34903333D02*
X31046247Y-34903333D01*
X31046247Y-34903333D02*
X31236723Y-34855714D01*
X31236723Y-34855714D02*
X31331961Y-34808095D01*
X31331961Y-34808095D02*
X31427200Y-34712857D01*
X31427200Y-34712857D02*
X31474819Y-34570000D01*
X31474819Y-34570000D02*
X31474819Y-34331905D01*
X31474819Y-35855714D02*
X31474819Y-35284286D01*
X31474819Y-35570000D02*
X30474819Y-35570000D01*
X30474819Y-35570000D02*
X30617676Y-35474762D01*
X30617676Y-35474762D02*
X30712914Y-35379524D01*
X30712914Y-35379524D02*
X30760533Y-35284286D01*
X281034285Y-64284819D02*
X281034285Y-63284819D01*
X281034285Y-63284819D02*
X280796190Y-63284819D01*
X280796190Y-63284819D02*
X280653333Y-63332438D01*
X280653333Y-63332438D02*
X280558095Y-63427676D01*
X280558095Y-63427676D02*
X280510476Y-63522914D01*
X280510476Y-63522914D02*
X280462857Y-63713390D01*
X280462857Y-63713390D02*
X280462857Y-63856247D01*
X280462857Y-63856247D02*
X280510476Y-64046723D01*
X280510476Y-64046723D02*
X280558095Y-64141961D01*
X280558095Y-64141961D02*
X280653333Y-64237200D01*
X280653333Y-64237200D02*
X280796190Y-64284819D01*
X280796190Y-64284819D02*
X281034285Y-64284819D01*
X280081904Y-63380057D02*
X280034285Y-63332438D01*
X280034285Y-63332438D02*
X279939047Y-63284819D01*
X279939047Y-63284819D02*
X279700952Y-63284819D01*
X279700952Y-63284819D02*
X279605714Y-63332438D01*
X279605714Y-63332438D02*
X279558095Y-63380057D01*
X279558095Y-63380057D02*
X279510476Y-63475295D01*
X279510476Y-63475295D02*
X279510476Y-63570533D01*
X279510476Y-63570533D02*
X279558095Y-63713390D01*
X279558095Y-63713390D02*
X280129523Y-64284819D01*
X280129523Y-64284819D02*
X279510476Y-64284819D01*
X278939047Y-63713390D02*
X279034285Y-63665771D01*
X279034285Y-63665771D02*
X279081904Y-63618152D01*
X279081904Y-63618152D02*
X279129523Y-63522914D01*
X279129523Y-63522914D02*
X279129523Y-63475295D01*
X279129523Y-63475295D02*
X279081904Y-63380057D01*
X279081904Y-63380057D02*
X279034285Y-63332438D01*
X279034285Y-63332438D02*
X278939047Y-63284819D01*
X278939047Y-63284819D02*
X278748571Y-63284819D01*
X278748571Y-63284819D02*
X278653333Y-63332438D01*
X278653333Y-63332438D02*
X278605714Y-63380057D01*
X278605714Y-63380057D02*
X278558095Y-63475295D01*
X278558095Y-63475295D02*
X278558095Y-63522914D01*
X278558095Y-63522914D02*
X278605714Y-63618152D01*
X278605714Y-63618152D02*
X278653333Y-63665771D01*
X278653333Y-63665771D02*
X278748571Y-63713390D01*
X278748571Y-63713390D02*
X278939047Y-63713390D01*
X278939047Y-63713390D02*
X279034285Y-63761009D01*
X279034285Y-63761009D02*
X279081904Y-63808628D01*
X279081904Y-63808628D02*
X279129523Y-63903866D01*
X279129523Y-63903866D02*
X279129523Y-64094342D01*
X279129523Y-64094342D02*
X279081904Y-64189580D01*
X279081904Y-64189580D02*
X279034285Y-64237200D01*
X279034285Y-64237200D02*
X278939047Y-64284819D01*
X278939047Y-64284819D02*
X278748571Y-64284819D01*
X278748571Y-64284819D02*
X278653333Y-64237200D01*
X278653333Y-64237200D02*
X278605714Y-64189580D01*
X278605714Y-64189580D02*
X278558095Y-64094342D01*
X278558095Y-64094342D02*
X278558095Y-63903866D01*
X278558095Y-63903866D02*
X278605714Y-63808628D01*
X278605714Y-63808628D02*
X278653333Y-63761009D01*
X278653333Y-63761009D02*
X278748571Y-63713390D01*
X254549819Y-58965714D02*
X253549819Y-58965714D01*
X253549819Y-58965714D02*
X253549819Y-59203809D01*
X253549819Y-59203809D02*
X253597438Y-59346666D01*
X253597438Y-59346666D02*
X253692676Y-59441904D01*
X253692676Y-59441904D02*
X253787914Y-59489523D01*
X253787914Y-59489523D02*
X253978390Y-59537142D01*
X253978390Y-59537142D02*
X254121247Y-59537142D01*
X254121247Y-59537142D02*
X254311723Y-59489523D01*
X254311723Y-59489523D02*
X254406961Y-59441904D01*
X254406961Y-59441904D02*
X254502200Y-59346666D01*
X254502200Y-59346666D02*
X254549819Y-59203809D01*
X254549819Y-59203809D02*
X254549819Y-58965714D01*
X253645057Y-59918095D02*
X253597438Y-59965714D01*
X253597438Y-59965714D02*
X253549819Y-60060952D01*
X253549819Y-60060952D02*
X253549819Y-60299047D01*
X253549819Y-60299047D02*
X253597438Y-60394285D01*
X253597438Y-60394285D02*
X253645057Y-60441904D01*
X253645057Y-60441904D02*
X253740295Y-60489523D01*
X253740295Y-60489523D02*
X253835533Y-60489523D01*
X253835533Y-60489523D02*
X253978390Y-60441904D01*
X253978390Y-60441904D02*
X254549819Y-59870476D01*
X254549819Y-59870476D02*
X254549819Y-60489523D01*
X253549819Y-61346666D02*
X253549819Y-61156190D01*
X253549819Y-61156190D02*
X253597438Y-61060952D01*
X253597438Y-61060952D02*
X253645057Y-61013333D01*
X253645057Y-61013333D02*
X253787914Y-60918095D01*
X253787914Y-60918095D02*
X253978390Y-60870476D01*
X253978390Y-60870476D02*
X254359342Y-60870476D01*
X254359342Y-60870476D02*
X254454580Y-60918095D01*
X254454580Y-60918095D02*
X254502200Y-60965714D01*
X254502200Y-60965714D02*
X254549819Y-61060952D01*
X254549819Y-61060952D02*
X254549819Y-61251428D01*
X254549819Y-61251428D02*
X254502200Y-61346666D01*
X254502200Y-61346666D02*
X254454580Y-61394285D01*
X254454580Y-61394285D02*
X254359342Y-61441904D01*
X254359342Y-61441904D02*
X254121247Y-61441904D01*
X254121247Y-61441904D02*
X254026009Y-61394285D01*
X254026009Y-61394285D02*
X253978390Y-61346666D01*
X253978390Y-61346666D02*
X253930771Y-61251428D01*
X253930771Y-61251428D02*
X253930771Y-61060952D01*
X253930771Y-61060952D02*
X253978390Y-60965714D01*
X253978390Y-60965714D02*
X254026009Y-60918095D01*
X254026009Y-60918095D02*
X254121247Y-60870476D01*
X52668569Y-110545714D02*
X51668569Y-110545714D01*
X51668569Y-110545714D02*
X51668569Y-110783809D01*
X51668569Y-110783809D02*
X51716188Y-110926666D01*
X51716188Y-110926666D02*
X51811426Y-111021904D01*
X51811426Y-111021904D02*
X51906664Y-111069523D01*
X51906664Y-111069523D02*
X52097140Y-111117142D01*
X52097140Y-111117142D02*
X52239997Y-111117142D01*
X52239997Y-111117142D02*
X52430473Y-111069523D01*
X52430473Y-111069523D02*
X52525711Y-111021904D01*
X52525711Y-111021904D02*
X52620950Y-110926666D01*
X52620950Y-110926666D02*
X52668569Y-110783809D01*
X52668569Y-110783809D02*
X52668569Y-110545714D01*
X51668569Y-112021904D02*
X51668569Y-111545714D01*
X51668569Y-111545714D02*
X52144759Y-111498095D01*
X52144759Y-111498095D02*
X52097140Y-111545714D01*
X52097140Y-111545714D02*
X52049521Y-111640952D01*
X52049521Y-111640952D02*
X52049521Y-111879047D01*
X52049521Y-111879047D02*
X52097140Y-111974285D01*
X52097140Y-111974285D02*
X52144759Y-112021904D01*
X52144759Y-112021904D02*
X52239997Y-112069523D01*
X52239997Y-112069523D02*
X52478092Y-112069523D01*
X52478092Y-112069523D02*
X52573330Y-112021904D01*
X52573330Y-112021904D02*
X52620950Y-111974285D01*
X52620950Y-111974285D02*
X52668569Y-111879047D01*
X52668569Y-111879047D02*
X52668569Y-111640952D01*
X52668569Y-111640952D02*
X52620950Y-111545714D01*
X52620950Y-111545714D02*
X52573330Y-111498095D01*
X52097140Y-112640952D02*
X52049521Y-112545714D01*
X52049521Y-112545714D02*
X52001902Y-112498095D01*
X52001902Y-112498095D02*
X51906664Y-112450476D01*
X51906664Y-112450476D02*
X51859045Y-112450476D01*
X51859045Y-112450476D02*
X51763807Y-112498095D01*
X51763807Y-112498095D02*
X51716188Y-112545714D01*
X51716188Y-112545714D02*
X51668569Y-112640952D01*
X51668569Y-112640952D02*
X51668569Y-112831428D01*
X51668569Y-112831428D02*
X51716188Y-112926666D01*
X51716188Y-112926666D02*
X51763807Y-112974285D01*
X51763807Y-112974285D02*
X51859045Y-113021904D01*
X51859045Y-113021904D02*
X51906664Y-113021904D01*
X51906664Y-113021904D02*
X52001902Y-112974285D01*
X52001902Y-112974285D02*
X52049521Y-112926666D01*
X52049521Y-112926666D02*
X52097140Y-112831428D01*
X52097140Y-112831428D02*
X52097140Y-112640952D01*
X52097140Y-112640952D02*
X52144759Y-112545714D01*
X52144759Y-112545714D02*
X52192378Y-112498095D01*
X52192378Y-112498095D02*
X52287616Y-112450476D01*
X52287616Y-112450476D02*
X52478092Y-112450476D01*
X52478092Y-112450476D02*
X52573330Y-112498095D01*
X52573330Y-112498095D02*
X52620950Y-112545714D01*
X52620950Y-112545714D02*
X52668569Y-112640952D01*
X52668569Y-112640952D02*
X52668569Y-112831428D01*
X52668569Y-112831428D02*
X52620950Y-112926666D01*
X52620950Y-112926666D02*
X52573330Y-112974285D01*
X52573330Y-112974285D02*
X52478092Y-113021904D01*
X52478092Y-113021904D02*
X52287616Y-113021904D01*
X52287616Y-113021904D02*
X52192378Y-112974285D01*
X52192378Y-112974285D02*
X52144759Y-112926666D01*
X52144759Y-112926666D02*
X52097140Y-112831428D01*
X228356069Y-116115714D02*
X227356069Y-116115714D01*
X227356069Y-116115714D02*
X227356069Y-116353809D01*
X227356069Y-116353809D02*
X227403688Y-116496666D01*
X227403688Y-116496666D02*
X227498926Y-116591904D01*
X227498926Y-116591904D02*
X227594164Y-116639523D01*
X227594164Y-116639523D02*
X227784640Y-116687142D01*
X227784640Y-116687142D02*
X227927497Y-116687142D01*
X227927497Y-116687142D02*
X228117973Y-116639523D01*
X228117973Y-116639523D02*
X228213211Y-116591904D01*
X228213211Y-116591904D02*
X228308450Y-116496666D01*
X228308450Y-116496666D02*
X228356069Y-116353809D01*
X228356069Y-116353809D02*
X228356069Y-116115714D01*
X227356069Y-117544285D02*
X227356069Y-117353809D01*
X227356069Y-117353809D02*
X227403688Y-117258571D01*
X227403688Y-117258571D02*
X227451307Y-117210952D01*
X227451307Y-117210952D02*
X227594164Y-117115714D01*
X227594164Y-117115714D02*
X227784640Y-117068095D01*
X227784640Y-117068095D02*
X228165592Y-117068095D01*
X228165592Y-117068095D02*
X228260830Y-117115714D01*
X228260830Y-117115714D02*
X228308450Y-117163333D01*
X228308450Y-117163333D02*
X228356069Y-117258571D01*
X228356069Y-117258571D02*
X228356069Y-117449047D01*
X228356069Y-117449047D02*
X228308450Y-117544285D01*
X228308450Y-117544285D02*
X228260830Y-117591904D01*
X228260830Y-117591904D02*
X228165592Y-117639523D01*
X228165592Y-117639523D02*
X227927497Y-117639523D01*
X227927497Y-117639523D02*
X227832259Y-117591904D01*
X227832259Y-117591904D02*
X227784640Y-117544285D01*
X227784640Y-117544285D02*
X227737021Y-117449047D01*
X227737021Y-117449047D02*
X227737021Y-117258571D01*
X227737021Y-117258571D02*
X227784640Y-117163333D01*
X227784640Y-117163333D02*
X227832259Y-117115714D01*
X227832259Y-117115714D02*
X227927497Y-117068095D01*
X228356069Y-118591904D02*
X228356069Y-118020476D01*
X228356069Y-118306190D02*
X227356069Y-118306190D01*
X227356069Y-118306190D02*
X227498926Y-118210952D01*
X227498926Y-118210952D02*
X227594164Y-118115714D01*
X227594164Y-118115714D02*
X227641783Y-118020476D01*
X154537319Y-97065714D02*
X153537319Y-97065714D01*
X153537319Y-97065714D02*
X153537319Y-97303809D01*
X153537319Y-97303809D02*
X153584938Y-97446666D01*
X153584938Y-97446666D02*
X153680176Y-97541904D01*
X153680176Y-97541904D02*
X153775414Y-97589523D01*
X153775414Y-97589523D02*
X153965890Y-97637142D01*
X153965890Y-97637142D02*
X154108747Y-97637142D01*
X154108747Y-97637142D02*
X154299223Y-97589523D01*
X154299223Y-97589523D02*
X154394461Y-97541904D01*
X154394461Y-97541904D02*
X154489700Y-97446666D01*
X154489700Y-97446666D02*
X154537319Y-97303809D01*
X154537319Y-97303809D02*
X154537319Y-97065714D01*
X153870652Y-98494285D02*
X154537319Y-98494285D01*
X153489700Y-98256190D02*
X154203985Y-98018095D01*
X154203985Y-98018095D02*
X154203985Y-98637142D01*
X154537319Y-99065714D02*
X154537319Y-99256190D01*
X154537319Y-99256190D02*
X154489700Y-99351428D01*
X154489700Y-99351428D02*
X154442080Y-99399047D01*
X154442080Y-99399047D02*
X154299223Y-99494285D01*
X154299223Y-99494285D02*
X154108747Y-99541904D01*
X154108747Y-99541904D02*
X153727795Y-99541904D01*
X153727795Y-99541904D02*
X153632557Y-99494285D01*
X153632557Y-99494285D02*
X153584938Y-99446666D01*
X153584938Y-99446666D02*
X153537319Y-99351428D01*
X153537319Y-99351428D02*
X153537319Y-99160952D01*
X153537319Y-99160952D02*
X153584938Y-99065714D01*
X153584938Y-99065714D02*
X153632557Y-99018095D01*
X153632557Y-99018095D02*
X153727795Y-98970476D01*
X153727795Y-98970476D02*
X153965890Y-98970476D01*
X153965890Y-98970476D02*
X154061128Y-99018095D01*
X154061128Y-99018095D02*
X154108747Y-99065714D01*
X154108747Y-99065714D02*
X154156366Y-99160952D01*
X154156366Y-99160952D02*
X154156366Y-99351428D01*
X154156366Y-99351428D02*
X154108747Y-99446666D01*
X154108747Y-99446666D02*
X154061128Y-99494285D01*
X154061128Y-99494285D02*
X153965890Y-99541904D01*
X249787319Y-97065714D02*
X248787319Y-97065714D01*
X248787319Y-97065714D02*
X248787319Y-97303809D01*
X248787319Y-97303809D02*
X248834938Y-97446666D01*
X248834938Y-97446666D02*
X248930176Y-97541904D01*
X248930176Y-97541904D02*
X249025414Y-97589523D01*
X249025414Y-97589523D02*
X249215890Y-97637142D01*
X249215890Y-97637142D02*
X249358747Y-97637142D01*
X249358747Y-97637142D02*
X249549223Y-97589523D01*
X249549223Y-97589523D02*
X249644461Y-97541904D01*
X249644461Y-97541904D02*
X249739700Y-97446666D01*
X249739700Y-97446666D02*
X249787319Y-97303809D01*
X249787319Y-97303809D02*
X249787319Y-97065714D01*
X248787319Y-98541904D02*
X248787319Y-98065714D01*
X248787319Y-98065714D02*
X249263509Y-98018095D01*
X249263509Y-98018095D02*
X249215890Y-98065714D01*
X249215890Y-98065714D02*
X249168271Y-98160952D01*
X249168271Y-98160952D02*
X249168271Y-98399047D01*
X249168271Y-98399047D02*
X249215890Y-98494285D01*
X249215890Y-98494285D02*
X249263509Y-98541904D01*
X249263509Y-98541904D02*
X249358747Y-98589523D01*
X249358747Y-98589523D02*
X249596842Y-98589523D01*
X249596842Y-98589523D02*
X249692080Y-98541904D01*
X249692080Y-98541904D02*
X249739700Y-98494285D01*
X249739700Y-98494285D02*
X249787319Y-98399047D01*
X249787319Y-98399047D02*
X249787319Y-98160952D01*
X249787319Y-98160952D02*
X249739700Y-98065714D01*
X249739700Y-98065714D02*
X249692080Y-98018095D01*
X249120652Y-99446666D02*
X249787319Y-99446666D01*
X248739700Y-99208571D02*
X249453985Y-98970476D01*
X249453985Y-98970476D02*
X249453985Y-99589523D01*
X240787319Y-110545714D02*
X239787319Y-110545714D01*
X239787319Y-110545714D02*
X239787319Y-110783809D01*
X239787319Y-110783809D02*
X239834938Y-110926666D01*
X239834938Y-110926666D02*
X239930176Y-111021904D01*
X239930176Y-111021904D02*
X240025414Y-111069523D01*
X240025414Y-111069523D02*
X240215890Y-111117142D01*
X240215890Y-111117142D02*
X240358747Y-111117142D01*
X240358747Y-111117142D02*
X240549223Y-111069523D01*
X240549223Y-111069523D02*
X240644461Y-111021904D01*
X240644461Y-111021904D02*
X240739700Y-110926666D01*
X240739700Y-110926666D02*
X240787319Y-110783809D01*
X240787319Y-110783809D02*
X240787319Y-110545714D01*
X239787319Y-111974285D02*
X239787319Y-111783809D01*
X239787319Y-111783809D02*
X239834938Y-111688571D01*
X239834938Y-111688571D02*
X239882557Y-111640952D01*
X239882557Y-111640952D02*
X240025414Y-111545714D01*
X240025414Y-111545714D02*
X240215890Y-111498095D01*
X240215890Y-111498095D02*
X240596842Y-111498095D01*
X240596842Y-111498095D02*
X240692080Y-111545714D01*
X240692080Y-111545714D02*
X240739700Y-111593333D01*
X240739700Y-111593333D02*
X240787319Y-111688571D01*
X240787319Y-111688571D02*
X240787319Y-111879047D01*
X240787319Y-111879047D02*
X240739700Y-111974285D01*
X240739700Y-111974285D02*
X240692080Y-112021904D01*
X240692080Y-112021904D02*
X240596842Y-112069523D01*
X240596842Y-112069523D02*
X240358747Y-112069523D01*
X240358747Y-112069523D02*
X240263509Y-112021904D01*
X240263509Y-112021904D02*
X240215890Y-111974285D01*
X240215890Y-111974285D02*
X240168271Y-111879047D01*
X240168271Y-111879047D02*
X240168271Y-111688571D01*
X240168271Y-111688571D02*
X240215890Y-111593333D01*
X240215890Y-111593333D02*
X240263509Y-111545714D01*
X240263509Y-111545714D02*
X240358747Y-111498095D01*
X239882557Y-112450476D02*
X239834938Y-112498095D01*
X239834938Y-112498095D02*
X239787319Y-112593333D01*
X239787319Y-112593333D02*
X239787319Y-112831428D01*
X239787319Y-112831428D02*
X239834938Y-112926666D01*
X239834938Y-112926666D02*
X239882557Y-112974285D01*
X239882557Y-112974285D02*
X239977795Y-113021904D01*
X239977795Y-113021904D02*
X240073033Y-113021904D01*
X240073033Y-113021904D02*
X240215890Y-112974285D01*
X240215890Y-112974285D02*
X240787319Y-112402857D01*
X240787319Y-112402857D02*
X240787319Y-113021904D01*
X83099819Y-58965714D02*
X82099819Y-58965714D01*
X82099819Y-58965714D02*
X82099819Y-59203809D01*
X82099819Y-59203809D02*
X82147438Y-59346666D01*
X82147438Y-59346666D02*
X82242676Y-59441904D01*
X82242676Y-59441904D02*
X82337914Y-59489523D01*
X82337914Y-59489523D02*
X82528390Y-59537142D01*
X82528390Y-59537142D02*
X82671247Y-59537142D01*
X82671247Y-59537142D02*
X82861723Y-59489523D01*
X82861723Y-59489523D02*
X82956961Y-59441904D01*
X82956961Y-59441904D02*
X83052200Y-59346666D01*
X83052200Y-59346666D02*
X83099819Y-59203809D01*
X83099819Y-59203809D02*
X83099819Y-58965714D01*
X83099819Y-60489523D02*
X83099819Y-59918095D01*
X83099819Y-60203809D02*
X82099819Y-60203809D01*
X82099819Y-60203809D02*
X82242676Y-60108571D01*
X82242676Y-60108571D02*
X82337914Y-60013333D01*
X82337914Y-60013333D02*
X82385533Y-59918095D01*
X82099819Y-60822857D02*
X82099819Y-61489523D01*
X82099819Y-61489523D02*
X83099819Y-61060952D01*
X53015535Y-88624819D02*
X53015535Y-87624819D01*
X53015535Y-87624819D02*
X52777440Y-87624819D01*
X52777440Y-87624819D02*
X52634583Y-87672438D01*
X52634583Y-87672438D02*
X52539345Y-87767676D01*
X52539345Y-87767676D02*
X52491726Y-87862914D01*
X52491726Y-87862914D02*
X52444107Y-88053390D01*
X52444107Y-88053390D02*
X52444107Y-88196247D01*
X52444107Y-88196247D02*
X52491726Y-88386723D01*
X52491726Y-88386723D02*
X52539345Y-88481961D01*
X52539345Y-88481961D02*
X52634583Y-88577200D01*
X52634583Y-88577200D02*
X52777440Y-88624819D01*
X52777440Y-88624819D02*
X53015535Y-88624819D01*
X51586964Y-87958152D02*
X51586964Y-88624819D01*
X51825059Y-87577200D02*
X52063154Y-88291485D01*
X52063154Y-88291485D02*
X51444107Y-88291485D01*
X51158392Y-87624819D02*
X50539345Y-87624819D01*
X50539345Y-87624819D02*
X50872678Y-88005771D01*
X50872678Y-88005771D02*
X50729821Y-88005771D01*
X50729821Y-88005771D02*
X50634583Y-88053390D01*
X50634583Y-88053390D02*
X50586964Y-88101009D01*
X50586964Y-88101009D02*
X50539345Y-88196247D01*
X50539345Y-88196247D02*
X50539345Y-88434342D01*
X50539345Y-88434342D02*
X50586964Y-88529580D01*
X50586964Y-88529580D02*
X50634583Y-88577200D01*
X50634583Y-88577200D02*
X50729821Y-88624819D01*
X50729821Y-88624819D02*
X51015535Y-88624819D01*
X51015535Y-88624819D02*
X51110773Y-88577200D01*
X51110773Y-88577200D02*
X51158392Y-88529580D01*
X298254819Y-94035714D02*
X297254819Y-94035714D01*
X297254819Y-94035714D02*
X297254819Y-94273809D01*
X297254819Y-94273809D02*
X297302438Y-94416666D01*
X297302438Y-94416666D02*
X297397676Y-94511904D01*
X297397676Y-94511904D02*
X297492914Y-94559523D01*
X297492914Y-94559523D02*
X297683390Y-94607142D01*
X297683390Y-94607142D02*
X297826247Y-94607142D01*
X297826247Y-94607142D02*
X298016723Y-94559523D01*
X298016723Y-94559523D02*
X298111961Y-94511904D01*
X298111961Y-94511904D02*
X298207200Y-94416666D01*
X298207200Y-94416666D02*
X298254819Y-94273809D01*
X298254819Y-94273809D02*
X298254819Y-94035714D01*
X297254819Y-95511904D02*
X297254819Y-95035714D01*
X297254819Y-95035714D02*
X297731009Y-94988095D01*
X297731009Y-94988095D02*
X297683390Y-95035714D01*
X297683390Y-95035714D02*
X297635771Y-95130952D01*
X297635771Y-95130952D02*
X297635771Y-95369047D01*
X297635771Y-95369047D02*
X297683390Y-95464285D01*
X297683390Y-95464285D02*
X297731009Y-95511904D01*
X297731009Y-95511904D02*
X297826247Y-95559523D01*
X297826247Y-95559523D02*
X298064342Y-95559523D01*
X298064342Y-95559523D02*
X298159580Y-95511904D01*
X298159580Y-95511904D02*
X298207200Y-95464285D01*
X298207200Y-95464285D02*
X298254819Y-95369047D01*
X298254819Y-95369047D02*
X298254819Y-95130952D01*
X298254819Y-95130952D02*
X298207200Y-95035714D01*
X298207200Y-95035714D02*
X298159580Y-94988095D01*
X297254819Y-96416666D02*
X297254819Y-96226190D01*
X297254819Y-96226190D02*
X297302438Y-96130952D01*
X297302438Y-96130952D02*
X297350057Y-96083333D01*
X297350057Y-96083333D02*
X297492914Y-95988095D01*
X297492914Y-95988095D02*
X297683390Y-95940476D01*
X297683390Y-95940476D02*
X298064342Y-95940476D01*
X298064342Y-95940476D02*
X298159580Y-95988095D01*
X298159580Y-95988095D02*
X298207200Y-96035714D01*
X298207200Y-96035714D02*
X298254819Y-96130952D01*
X298254819Y-96130952D02*
X298254819Y-96321428D01*
X298254819Y-96321428D02*
X298207200Y-96416666D01*
X298207200Y-96416666D02*
X298159580Y-96464285D01*
X298159580Y-96464285D02*
X298064342Y-96511904D01*
X298064342Y-96511904D02*
X297826247Y-96511904D01*
X297826247Y-96511904D02*
X297731009Y-96464285D01*
X297731009Y-96464285D02*
X297683390Y-96416666D01*
X297683390Y-96416666D02*
X297635771Y-96321428D01*
X297635771Y-96321428D02*
X297635771Y-96130952D01*
X297635771Y-96130952D02*
X297683390Y-96035714D01*
X297683390Y-96035714D02*
X297731009Y-95988095D01*
X297731009Y-95988095D02*
X297826247Y-95940476D01*
X78337319Y-97065714D02*
X77337319Y-97065714D01*
X77337319Y-97065714D02*
X77337319Y-97303809D01*
X77337319Y-97303809D02*
X77384938Y-97446666D01*
X77384938Y-97446666D02*
X77480176Y-97541904D01*
X77480176Y-97541904D02*
X77575414Y-97589523D01*
X77575414Y-97589523D02*
X77765890Y-97637142D01*
X77765890Y-97637142D02*
X77908747Y-97637142D01*
X77908747Y-97637142D02*
X78099223Y-97589523D01*
X78099223Y-97589523D02*
X78194461Y-97541904D01*
X78194461Y-97541904D02*
X78289700Y-97446666D01*
X78289700Y-97446666D02*
X78337319Y-97303809D01*
X78337319Y-97303809D02*
X78337319Y-97065714D01*
X77670652Y-98494285D02*
X78337319Y-98494285D01*
X77289700Y-98256190D02*
X78003985Y-98018095D01*
X78003985Y-98018095D02*
X78003985Y-98637142D01*
X77337319Y-99494285D02*
X77337319Y-99018095D01*
X77337319Y-99018095D02*
X77813509Y-98970476D01*
X77813509Y-98970476D02*
X77765890Y-99018095D01*
X77765890Y-99018095D02*
X77718271Y-99113333D01*
X77718271Y-99113333D02*
X77718271Y-99351428D01*
X77718271Y-99351428D02*
X77765890Y-99446666D01*
X77765890Y-99446666D02*
X77813509Y-99494285D01*
X77813509Y-99494285D02*
X77908747Y-99541904D01*
X77908747Y-99541904D02*
X78146842Y-99541904D01*
X78146842Y-99541904D02*
X78242080Y-99494285D01*
X78242080Y-99494285D02*
X78289700Y-99446666D01*
X78289700Y-99446666D02*
X78337319Y-99351428D01*
X78337319Y-99351428D02*
X78337319Y-99113333D01*
X78337319Y-99113333D02*
X78289700Y-99018095D01*
X78289700Y-99018095D02*
X78242080Y-98970476D01*
X273902319Y-78015714D02*
X272902319Y-78015714D01*
X272902319Y-78015714D02*
X272902319Y-78253809D01*
X272902319Y-78253809D02*
X272949938Y-78396666D01*
X272949938Y-78396666D02*
X273045176Y-78491904D01*
X273045176Y-78491904D02*
X273140414Y-78539523D01*
X273140414Y-78539523D02*
X273330890Y-78587142D01*
X273330890Y-78587142D02*
X273473747Y-78587142D01*
X273473747Y-78587142D02*
X273664223Y-78539523D01*
X273664223Y-78539523D02*
X273759461Y-78491904D01*
X273759461Y-78491904D02*
X273854700Y-78396666D01*
X273854700Y-78396666D02*
X273902319Y-78253809D01*
X273902319Y-78253809D02*
X273902319Y-78015714D01*
X273235652Y-79444285D02*
X273902319Y-79444285D01*
X272854700Y-79206190D02*
X273568985Y-78968095D01*
X273568985Y-78968095D02*
X273568985Y-79587142D01*
X273902319Y-80491904D02*
X273902319Y-79920476D01*
X273902319Y-80206190D02*
X272902319Y-80206190D01*
X272902319Y-80206190D02*
X273045176Y-80110952D01*
X273045176Y-80110952D02*
X273140414Y-80015714D01*
X273140414Y-80015714D02*
X273188033Y-79920476D01*
X97387319Y-97065714D02*
X96387319Y-97065714D01*
X96387319Y-97065714D02*
X96387319Y-97303809D01*
X96387319Y-97303809D02*
X96434938Y-97446666D01*
X96434938Y-97446666D02*
X96530176Y-97541904D01*
X96530176Y-97541904D02*
X96625414Y-97589523D01*
X96625414Y-97589523D02*
X96815890Y-97637142D01*
X96815890Y-97637142D02*
X96958747Y-97637142D01*
X96958747Y-97637142D02*
X97149223Y-97589523D01*
X97149223Y-97589523D02*
X97244461Y-97541904D01*
X97244461Y-97541904D02*
X97339700Y-97446666D01*
X97339700Y-97446666D02*
X97387319Y-97303809D01*
X97387319Y-97303809D02*
X97387319Y-97065714D01*
X96720652Y-98494285D02*
X97387319Y-98494285D01*
X96339700Y-98256190D02*
X97053985Y-98018095D01*
X97053985Y-98018095D02*
X97053985Y-98637142D01*
X96387319Y-99446666D02*
X96387319Y-99256190D01*
X96387319Y-99256190D02*
X96434938Y-99160952D01*
X96434938Y-99160952D02*
X96482557Y-99113333D01*
X96482557Y-99113333D02*
X96625414Y-99018095D01*
X96625414Y-99018095D02*
X96815890Y-98970476D01*
X96815890Y-98970476D02*
X97196842Y-98970476D01*
X97196842Y-98970476D02*
X97292080Y-99018095D01*
X97292080Y-99018095D02*
X97339700Y-99065714D01*
X97339700Y-99065714D02*
X97387319Y-99160952D01*
X97387319Y-99160952D02*
X97387319Y-99351428D01*
X97387319Y-99351428D02*
X97339700Y-99446666D01*
X97339700Y-99446666D02*
X97292080Y-99494285D01*
X97292080Y-99494285D02*
X97196842Y-99541904D01*
X97196842Y-99541904D02*
X96958747Y-99541904D01*
X96958747Y-99541904D02*
X96863509Y-99494285D01*
X96863509Y-99494285D02*
X96815890Y-99446666D01*
X96815890Y-99446666D02*
X96768271Y-99351428D01*
X96768271Y-99351428D02*
X96768271Y-99160952D01*
X96768271Y-99160952D02*
X96815890Y-99065714D01*
X96815890Y-99065714D02*
X96863509Y-99018095D01*
X96863509Y-99018095D02*
X96958747Y-98970476D01*
X206924819Y-39915714D02*
X205924819Y-39915714D01*
X205924819Y-39915714D02*
X205924819Y-40153809D01*
X205924819Y-40153809D02*
X205972438Y-40296666D01*
X205972438Y-40296666D02*
X206067676Y-40391904D01*
X206067676Y-40391904D02*
X206162914Y-40439523D01*
X206162914Y-40439523D02*
X206353390Y-40487142D01*
X206353390Y-40487142D02*
X206496247Y-40487142D01*
X206496247Y-40487142D02*
X206686723Y-40439523D01*
X206686723Y-40439523D02*
X206781961Y-40391904D01*
X206781961Y-40391904D02*
X206877200Y-40296666D01*
X206877200Y-40296666D02*
X206924819Y-40153809D01*
X206924819Y-40153809D02*
X206924819Y-39915714D01*
X206924819Y-41439523D02*
X206924819Y-40868095D01*
X206924819Y-41153809D02*
X205924819Y-41153809D01*
X205924819Y-41153809D02*
X206067676Y-41058571D01*
X206067676Y-41058571D02*
X206162914Y-40963333D01*
X206162914Y-40963333D02*
X206210533Y-40868095D01*
X205924819Y-42058571D02*
X205924819Y-42153809D01*
X205924819Y-42153809D02*
X205972438Y-42249047D01*
X205972438Y-42249047D02*
X206020057Y-42296666D01*
X206020057Y-42296666D02*
X206115295Y-42344285D01*
X206115295Y-42344285D02*
X206305771Y-42391904D01*
X206305771Y-42391904D02*
X206543866Y-42391904D01*
X206543866Y-42391904D02*
X206734342Y-42344285D01*
X206734342Y-42344285D02*
X206829580Y-42296666D01*
X206829580Y-42296666D02*
X206877200Y-42249047D01*
X206877200Y-42249047D02*
X206924819Y-42153809D01*
X206924819Y-42153809D02*
X206924819Y-42058571D01*
X206924819Y-42058571D02*
X206877200Y-41963333D01*
X206877200Y-41963333D02*
X206829580Y-41915714D01*
X206829580Y-41915714D02*
X206734342Y-41868095D01*
X206734342Y-41868095D02*
X206543866Y-41820476D01*
X206543866Y-41820476D02*
X206305771Y-41820476D01*
X206305771Y-41820476D02*
X206115295Y-41868095D01*
X206115295Y-41868095D02*
X206020057Y-41915714D01*
X206020057Y-41915714D02*
X205972438Y-41963333D01*
X205972438Y-41963333D02*
X205924819Y-42058571D01*
X211687319Y-97065714D02*
X210687319Y-97065714D01*
X210687319Y-97065714D02*
X210687319Y-97303809D01*
X210687319Y-97303809D02*
X210734938Y-97446666D01*
X210734938Y-97446666D02*
X210830176Y-97541904D01*
X210830176Y-97541904D02*
X210925414Y-97589523D01*
X210925414Y-97589523D02*
X211115890Y-97637142D01*
X211115890Y-97637142D02*
X211258747Y-97637142D01*
X211258747Y-97637142D02*
X211449223Y-97589523D01*
X211449223Y-97589523D02*
X211544461Y-97541904D01*
X211544461Y-97541904D02*
X211639700Y-97446666D01*
X211639700Y-97446666D02*
X211687319Y-97303809D01*
X211687319Y-97303809D02*
X211687319Y-97065714D01*
X210687319Y-98541904D02*
X210687319Y-98065714D01*
X210687319Y-98065714D02*
X211163509Y-98018095D01*
X211163509Y-98018095D02*
X211115890Y-98065714D01*
X211115890Y-98065714D02*
X211068271Y-98160952D01*
X211068271Y-98160952D02*
X211068271Y-98399047D01*
X211068271Y-98399047D02*
X211115890Y-98494285D01*
X211115890Y-98494285D02*
X211163509Y-98541904D01*
X211163509Y-98541904D02*
X211258747Y-98589523D01*
X211258747Y-98589523D02*
X211496842Y-98589523D01*
X211496842Y-98589523D02*
X211592080Y-98541904D01*
X211592080Y-98541904D02*
X211639700Y-98494285D01*
X211639700Y-98494285D02*
X211687319Y-98399047D01*
X211687319Y-98399047D02*
X211687319Y-98160952D01*
X211687319Y-98160952D02*
X211639700Y-98065714D01*
X211639700Y-98065714D02*
X211592080Y-98018095D01*
X210782557Y-98970476D02*
X210734938Y-99018095D01*
X210734938Y-99018095D02*
X210687319Y-99113333D01*
X210687319Y-99113333D02*
X210687319Y-99351428D01*
X210687319Y-99351428D02*
X210734938Y-99446666D01*
X210734938Y-99446666D02*
X210782557Y-99494285D01*
X210782557Y-99494285D02*
X210877795Y-99541904D01*
X210877795Y-99541904D02*
X210973033Y-99541904D01*
X210973033Y-99541904D02*
X211115890Y-99494285D01*
X211115890Y-99494285D02*
X211687319Y-98922857D01*
X211687319Y-98922857D02*
X211687319Y-99541904D01*
X264074819Y-39915714D02*
X263074819Y-39915714D01*
X263074819Y-39915714D02*
X263074819Y-40153809D01*
X263074819Y-40153809D02*
X263122438Y-40296666D01*
X263122438Y-40296666D02*
X263217676Y-40391904D01*
X263217676Y-40391904D02*
X263312914Y-40439523D01*
X263312914Y-40439523D02*
X263503390Y-40487142D01*
X263503390Y-40487142D02*
X263646247Y-40487142D01*
X263646247Y-40487142D02*
X263836723Y-40439523D01*
X263836723Y-40439523D02*
X263931961Y-40391904D01*
X263931961Y-40391904D02*
X264027200Y-40296666D01*
X264027200Y-40296666D02*
X264074819Y-40153809D01*
X264074819Y-40153809D02*
X264074819Y-39915714D01*
X264074819Y-41439523D02*
X264074819Y-40868095D01*
X264074819Y-41153809D02*
X263074819Y-41153809D01*
X263074819Y-41153809D02*
X263217676Y-41058571D01*
X263217676Y-41058571D02*
X263312914Y-40963333D01*
X263312914Y-40963333D02*
X263360533Y-40868095D01*
X263074819Y-41772857D02*
X263074819Y-42391904D01*
X263074819Y-42391904D02*
X263455771Y-42058571D01*
X263455771Y-42058571D02*
X263455771Y-42201428D01*
X263455771Y-42201428D02*
X263503390Y-42296666D01*
X263503390Y-42296666D02*
X263551009Y-42344285D01*
X263551009Y-42344285D02*
X263646247Y-42391904D01*
X263646247Y-42391904D02*
X263884342Y-42391904D01*
X263884342Y-42391904D02*
X263979580Y-42344285D01*
X263979580Y-42344285D02*
X264027200Y-42296666D01*
X264027200Y-42296666D02*
X264074819Y-42201428D01*
X264074819Y-42201428D02*
X264074819Y-41915714D01*
X264074819Y-41915714D02*
X264027200Y-41820476D01*
X264027200Y-41820476D02*
X263979580Y-41772857D01*
X102149819Y-58965714D02*
X101149819Y-58965714D01*
X101149819Y-58965714D02*
X101149819Y-59203809D01*
X101149819Y-59203809D02*
X101197438Y-59346666D01*
X101197438Y-59346666D02*
X101292676Y-59441904D01*
X101292676Y-59441904D02*
X101387914Y-59489523D01*
X101387914Y-59489523D02*
X101578390Y-59537142D01*
X101578390Y-59537142D02*
X101721247Y-59537142D01*
X101721247Y-59537142D02*
X101911723Y-59489523D01*
X101911723Y-59489523D02*
X102006961Y-59441904D01*
X102006961Y-59441904D02*
X102102200Y-59346666D01*
X102102200Y-59346666D02*
X102149819Y-59203809D01*
X102149819Y-59203809D02*
X102149819Y-58965714D01*
X102149819Y-60489523D02*
X102149819Y-59918095D01*
X102149819Y-60203809D02*
X101149819Y-60203809D01*
X101149819Y-60203809D02*
X101292676Y-60108571D01*
X101292676Y-60108571D02*
X101387914Y-60013333D01*
X101387914Y-60013333D02*
X101435533Y-59918095D01*
X101578390Y-61060952D02*
X101530771Y-60965714D01*
X101530771Y-60965714D02*
X101483152Y-60918095D01*
X101483152Y-60918095D02*
X101387914Y-60870476D01*
X101387914Y-60870476D02*
X101340295Y-60870476D01*
X101340295Y-60870476D02*
X101245057Y-60918095D01*
X101245057Y-60918095D02*
X101197438Y-60965714D01*
X101197438Y-60965714D02*
X101149819Y-61060952D01*
X101149819Y-61060952D02*
X101149819Y-61251428D01*
X101149819Y-61251428D02*
X101197438Y-61346666D01*
X101197438Y-61346666D02*
X101245057Y-61394285D01*
X101245057Y-61394285D02*
X101340295Y-61441904D01*
X101340295Y-61441904D02*
X101387914Y-61441904D01*
X101387914Y-61441904D02*
X101483152Y-61394285D01*
X101483152Y-61394285D02*
X101530771Y-61346666D01*
X101530771Y-61346666D02*
X101578390Y-61251428D01*
X101578390Y-61251428D02*
X101578390Y-61060952D01*
X101578390Y-61060952D02*
X101626009Y-60965714D01*
X101626009Y-60965714D02*
X101673628Y-60918095D01*
X101673628Y-60918095D02*
X101768866Y-60870476D01*
X101768866Y-60870476D02*
X101959342Y-60870476D01*
X101959342Y-60870476D02*
X102054580Y-60918095D01*
X102054580Y-60918095D02*
X102102200Y-60965714D01*
X102102200Y-60965714D02*
X102149819Y-61060952D01*
X102149819Y-61060952D02*
X102149819Y-61251428D01*
X102149819Y-61251428D02*
X102102200Y-61346666D01*
X102102200Y-61346666D02*
X102054580Y-61394285D01*
X102054580Y-61394285D02*
X101959342Y-61441904D01*
X101959342Y-61441904D02*
X101768866Y-61441904D01*
X101768866Y-61441904D02*
X101673628Y-61394285D01*
X101673628Y-61394285D02*
X101626009Y-61346666D01*
X101626009Y-61346666D02*
X101578390Y-61251428D01*
X156918569Y-116115714D02*
X155918569Y-116115714D01*
X155918569Y-116115714D02*
X155918569Y-116353809D01*
X155918569Y-116353809D02*
X155966188Y-116496666D01*
X155966188Y-116496666D02*
X156061426Y-116591904D01*
X156061426Y-116591904D02*
X156156664Y-116639523D01*
X156156664Y-116639523D02*
X156347140Y-116687142D01*
X156347140Y-116687142D02*
X156489997Y-116687142D01*
X156489997Y-116687142D02*
X156680473Y-116639523D01*
X156680473Y-116639523D02*
X156775711Y-116591904D01*
X156775711Y-116591904D02*
X156870950Y-116496666D01*
X156870950Y-116496666D02*
X156918569Y-116353809D01*
X156918569Y-116353809D02*
X156918569Y-116115714D01*
X155918569Y-117544285D02*
X155918569Y-117353809D01*
X155918569Y-117353809D02*
X155966188Y-117258571D01*
X155966188Y-117258571D02*
X156013807Y-117210952D01*
X156013807Y-117210952D02*
X156156664Y-117115714D01*
X156156664Y-117115714D02*
X156347140Y-117068095D01*
X156347140Y-117068095D02*
X156728092Y-117068095D01*
X156728092Y-117068095D02*
X156823330Y-117115714D01*
X156823330Y-117115714D02*
X156870950Y-117163333D01*
X156870950Y-117163333D02*
X156918569Y-117258571D01*
X156918569Y-117258571D02*
X156918569Y-117449047D01*
X156918569Y-117449047D02*
X156870950Y-117544285D01*
X156870950Y-117544285D02*
X156823330Y-117591904D01*
X156823330Y-117591904D02*
X156728092Y-117639523D01*
X156728092Y-117639523D02*
X156489997Y-117639523D01*
X156489997Y-117639523D02*
X156394759Y-117591904D01*
X156394759Y-117591904D02*
X156347140Y-117544285D01*
X156347140Y-117544285D02*
X156299521Y-117449047D01*
X156299521Y-117449047D02*
X156299521Y-117258571D01*
X156299521Y-117258571D02*
X156347140Y-117163333D01*
X156347140Y-117163333D02*
X156394759Y-117115714D01*
X156394759Y-117115714D02*
X156489997Y-117068095D01*
X155918569Y-118258571D02*
X155918569Y-118353809D01*
X155918569Y-118353809D02*
X155966188Y-118449047D01*
X155966188Y-118449047D02*
X156013807Y-118496666D01*
X156013807Y-118496666D02*
X156109045Y-118544285D01*
X156109045Y-118544285D02*
X156299521Y-118591904D01*
X156299521Y-118591904D02*
X156537616Y-118591904D01*
X156537616Y-118591904D02*
X156728092Y-118544285D01*
X156728092Y-118544285D02*
X156823330Y-118496666D01*
X156823330Y-118496666D02*
X156870950Y-118449047D01*
X156870950Y-118449047D02*
X156918569Y-118353809D01*
X156918569Y-118353809D02*
X156918569Y-118258571D01*
X156918569Y-118258571D02*
X156870950Y-118163333D01*
X156870950Y-118163333D02*
X156823330Y-118115714D01*
X156823330Y-118115714D02*
X156728092Y-118068095D01*
X156728092Y-118068095D02*
X156537616Y-118020476D01*
X156537616Y-118020476D02*
X156299521Y-118020476D01*
X156299521Y-118020476D02*
X156109045Y-118068095D01*
X156109045Y-118068095D02*
X156013807Y-118115714D01*
X156013807Y-118115714D02*
X155966188Y-118163333D01*
X155966188Y-118163333D02*
X155918569Y-118258571D01*
X125962319Y-78015714D02*
X124962319Y-78015714D01*
X124962319Y-78015714D02*
X124962319Y-78253809D01*
X124962319Y-78253809D02*
X125009938Y-78396666D01*
X125009938Y-78396666D02*
X125105176Y-78491904D01*
X125105176Y-78491904D02*
X125200414Y-78539523D01*
X125200414Y-78539523D02*
X125390890Y-78587142D01*
X125390890Y-78587142D02*
X125533747Y-78587142D01*
X125533747Y-78587142D02*
X125724223Y-78539523D01*
X125724223Y-78539523D02*
X125819461Y-78491904D01*
X125819461Y-78491904D02*
X125914700Y-78396666D01*
X125914700Y-78396666D02*
X125962319Y-78253809D01*
X125962319Y-78253809D02*
X125962319Y-78015714D01*
X124962319Y-78920476D02*
X124962319Y-79539523D01*
X124962319Y-79539523D02*
X125343271Y-79206190D01*
X125343271Y-79206190D02*
X125343271Y-79349047D01*
X125343271Y-79349047D02*
X125390890Y-79444285D01*
X125390890Y-79444285D02*
X125438509Y-79491904D01*
X125438509Y-79491904D02*
X125533747Y-79539523D01*
X125533747Y-79539523D02*
X125771842Y-79539523D01*
X125771842Y-79539523D02*
X125867080Y-79491904D01*
X125867080Y-79491904D02*
X125914700Y-79444285D01*
X125914700Y-79444285D02*
X125962319Y-79349047D01*
X125962319Y-79349047D02*
X125962319Y-79063333D01*
X125962319Y-79063333D02*
X125914700Y-78968095D01*
X125914700Y-78968095D02*
X125867080Y-78920476D01*
X124962319Y-79872857D02*
X124962319Y-80491904D01*
X124962319Y-80491904D02*
X125343271Y-80158571D01*
X125343271Y-80158571D02*
X125343271Y-80301428D01*
X125343271Y-80301428D02*
X125390890Y-80396666D01*
X125390890Y-80396666D02*
X125438509Y-80444285D01*
X125438509Y-80444285D02*
X125533747Y-80491904D01*
X125533747Y-80491904D02*
X125771842Y-80491904D01*
X125771842Y-80491904D02*
X125867080Y-80444285D01*
X125867080Y-80444285D02*
X125914700Y-80396666D01*
X125914700Y-80396666D02*
X125962319Y-80301428D01*
X125962319Y-80301428D02*
X125962319Y-80015714D01*
X125962319Y-80015714D02*
X125914700Y-79920476D01*
X125914700Y-79920476D02*
X125867080Y-79872857D01*
X140249819Y-58965714D02*
X139249819Y-58965714D01*
X139249819Y-58965714D02*
X139249819Y-59203809D01*
X139249819Y-59203809D02*
X139297438Y-59346666D01*
X139297438Y-59346666D02*
X139392676Y-59441904D01*
X139392676Y-59441904D02*
X139487914Y-59489523D01*
X139487914Y-59489523D02*
X139678390Y-59537142D01*
X139678390Y-59537142D02*
X139821247Y-59537142D01*
X139821247Y-59537142D02*
X140011723Y-59489523D01*
X140011723Y-59489523D02*
X140106961Y-59441904D01*
X140106961Y-59441904D02*
X140202200Y-59346666D01*
X140202200Y-59346666D02*
X140249819Y-59203809D01*
X140249819Y-59203809D02*
X140249819Y-58965714D01*
X139345057Y-59918095D02*
X139297438Y-59965714D01*
X139297438Y-59965714D02*
X139249819Y-60060952D01*
X139249819Y-60060952D02*
X139249819Y-60299047D01*
X139249819Y-60299047D02*
X139297438Y-60394285D01*
X139297438Y-60394285D02*
X139345057Y-60441904D01*
X139345057Y-60441904D02*
X139440295Y-60489523D01*
X139440295Y-60489523D02*
X139535533Y-60489523D01*
X139535533Y-60489523D02*
X139678390Y-60441904D01*
X139678390Y-60441904D02*
X140249819Y-59870476D01*
X140249819Y-59870476D02*
X140249819Y-60489523D01*
X139249819Y-61108571D02*
X139249819Y-61203809D01*
X139249819Y-61203809D02*
X139297438Y-61299047D01*
X139297438Y-61299047D02*
X139345057Y-61346666D01*
X139345057Y-61346666D02*
X139440295Y-61394285D01*
X139440295Y-61394285D02*
X139630771Y-61441904D01*
X139630771Y-61441904D02*
X139868866Y-61441904D01*
X139868866Y-61441904D02*
X140059342Y-61394285D01*
X140059342Y-61394285D02*
X140154580Y-61346666D01*
X140154580Y-61346666D02*
X140202200Y-61299047D01*
X140202200Y-61299047D02*
X140249819Y-61203809D01*
X140249819Y-61203809D02*
X140249819Y-61108571D01*
X140249819Y-61108571D02*
X140202200Y-61013333D01*
X140202200Y-61013333D02*
X140154580Y-60965714D01*
X140154580Y-60965714D02*
X140059342Y-60918095D01*
X140059342Y-60918095D02*
X139868866Y-60870476D01*
X139868866Y-60870476D02*
X139630771Y-60870476D01*
X139630771Y-60870476D02*
X139440295Y-60918095D01*
X139440295Y-60918095D02*
X139345057Y-60965714D01*
X139345057Y-60965714D02*
X139297438Y-61013333D01*
X139297438Y-61013333D02*
X139249819Y-61108571D01*
X297694285Y-49634819D02*
X297694285Y-48634819D01*
X297694285Y-48634819D02*
X297456190Y-48634819D01*
X297456190Y-48634819D02*
X297313333Y-48682438D01*
X297313333Y-48682438D02*
X297218095Y-48777676D01*
X297218095Y-48777676D02*
X297170476Y-48872914D01*
X297170476Y-48872914D02*
X297122857Y-49063390D01*
X297122857Y-49063390D02*
X297122857Y-49206247D01*
X297122857Y-49206247D02*
X297170476Y-49396723D01*
X297170476Y-49396723D02*
X297218095Y-49491961D01*
X297218095Y-49491961D02*
X297313333Y-49587200D01*
X297313333Y-49587200D02*
X297456190Y-49634819D01*
X297456190Y-49634819D02*
X297694285Y-49634819D01*
X296265714Y-48968152D02*
X296265714Y-49634819D01*
X296503809Y-48587200D02*
X296741904Y-49301485D01*
X296741904Y-49301485D02*
X296122857Y-49301485D01*
X295789523Y-48730057D02*
X295741904Y-48682438D01*
X295741904Y-48682438D02*
X295646666Y-48634819D01*
X295646666Y-48634819D02*
X295408571Y-48634819D01*
X295408571Y-48634819D02*
X295313333Y-48682438D01*
X295313333Y-48682438D02*
X295265714Y-48730057D01*
X295265714Y-48730057D02*
X295218095Y-48825295D01*
X295218095Y-48825295D02*
X295218095Y-48920533D01*
X295218095Y-48920533D02*
X295265714Y-49063390D01*
X295265714Y-49063390D02*
X295837142Y-49634819D01*
X295837142Y-49634819D02*
X295218095Y-49634819D01*
X121199819Y-58965714D02*
X120199819Y-58965714D01*
X120199819Y-58965714D02*
X120199819Y-59203809D01*
X120199819Y-59203809D02*
X120247438Y-59346666D01*
X120247438Y-59346666D02*
X120342676Y-59441904D01*
X120342676Y-59441904D02*
X120437914Y-59489523D01*
X120437914Y-59489523D02*
X120628390Y-59537142D01*
X120628390Y-59537142D02*
X120771247Y-59537142D01*
X120771247Y-59537142D02*
X120961723Y-59489523D01*
X120961723Y-59489523D02*
X121056961Y-59441904D01*
X121056961Y-59441904D02*
X121152200Y-59346666D01*
X121152200Y-59346666D02*
X121199819Y-59203809D01*
X121199819Y-59203809D02*
X121199819Y-58965714D01*
X121199819Y-60489523D02*
X121199819Y-59918095D01*
X121199819Y-60203809D02*
X120199819Y-60203809D01*
X120199819Y-60203809D02*
X120342676Y-60108571D01*
X120342676Y-60108571D02*
X120437914Y-60013333D01*
X120437914Y-60013333D02*
X120485533Y-59918095D01*
X121199819Y-60965714D02*
X121199819Y-61156190D01*
X121199819Y-61156190D02*
X121152200Y-61251428D01*
X121152200Y-61251428D02*
X121104580Y-61299047D01*
X121104580Y-61299047D02*
X120961723Y-61394285D01*
X120961723Y-61394285D02*
X120771247Y-61441904D01*
X120771247Y-61441904D02*
X120390295Y-61441904D01*
X120390295Y-61441904D02*
X120295057Y-61394285D01*
X120295057Y-61394285D02*
X120247438Y-61346666D01*
X120247438Y-61346666D02*
X120199819Y-61251428D01*
X120199819Y-61251428D02*
X120199819Y-61060952D01*
X120199819Y-61060952D02*
X120247438Y-60965714D01*
X120247438Y-60965714D02*
X120295057Y-60918095D01*
X120295057Y-60918095D02*
X120390295Y-60870476D01*
X120390295Y-60870476D02*
X120628390Y-60870476D01*
X120628390Y-60870476D02*
X120723628Y-60918095D01*
X120723628Y-60918095D02*
X120771247Y-60965714D01*
X120771247Y-60965714D02*
X120818866Y-61060952D01*
X120818866Y-61060952D02*
X120818866Y-61251428D01*
X120818866Y-61251428D02*
X120771247Y-61346666D01*
X120771247Y-61346666D02*
X120723628Y-61394285D01*
X120723628Y-61394285D02*
X120628390Y-61441904D01*
X106912319Y-78015714D02*
X105912319Y-78015714D01*
X105912319Y-78015714D02*
X105912319Y-78253809D01*
X105912319Y-78253809D02*
X105959938Y-78396666D01*
X105959938Y-78396666D02*
X106055176Y-78491904D01*
X106055176Y-78491904D02*
X106150414Y-78539523D01*
X106150414Y-78539523D02*
X106340890Y-78587142D01*
X106340890Y-78587142D02*
X106483747Y-78587142D01*
X106483747Y-78587142D02*
X106674223Y-78539523D01*
X106674223Y-78539523D02*
X106769461Y-78491904D01*
X106769461Y-78491904D02*
X106864700Y-78396666D01*
X106864700Y-78396666D02*
X106912319Y-78253809D01*
X106912319Y-78253809D02*
X106912319Y-78015714D01*
X105912319Y-78920476D02*
X105912319Y-79539523D01*
X105912319Y-79539523D02*
X106293271Y-79206190D01*
X106293271Y-79206190D02*
X106293271Y-79349047D01*
X106293271Y-79349047D02*
X106340890Y-79444285D01*
X106340890Y-79444285D02*
X106388509Y-79491904D01*
X106388509Y-79491904D02*
X106483747Y-79539523D01*
X106483747Y-79539523D02*
X106721842Y-79539523D01*
X106721842Y-79539523D02*
X106817080Y-79491904D01*
X106817080Y-79491904D02*
X106864700Y-79444285D01*
X106864700Y-79444285D02*
X106912319Y-79349047D01*
X106912319Y-79349047D02*
X106912319Y-79063333D01*
X106912319Y-79063333D02*
X106864700Y-78968095D01*
X106864700Y-78968095D02*
X106817080Y-78920476D01*
X106007557Y-79920476D02*
X105959938Y-79968095D01*
X105959938Y-79968095D02*
X105912319Y-80063333D01*
X105912319Y-80063333D02*
X105912319Y-80301428D01*
X105912319Y-80301428D02*
X105959938Y-80396666D01*
X105959938Y-80396666D02*
X106007557Y-80444285D01*
X106007557Y-80444285D02*
X106102795Y-80491904D01*
X106102795Y-80491904D02*
X106198033Y-80491904D01*
X106198033Y-80491904D02*
X106340890Y-80444285D01*
X106340890Y-80444285D02*
X106912319Y-79872857D01*
X106912319Y-79872857D02*
X106912319Y-80491904D01*
X273599819Y-58965714D02*
X272599819Y-58965714D01*
X272599819Y-58965714D02*
X272599819Y-59203809D01*
X272599819Y-59203809D02*
X272647438Y-59346666D01*
X272647438Y-59346666D02*
X272742676Y-59441904D01*
X272742676Y-59441904D02*
X272837914Y-59489523D01*
X272837914Y-59489523D02*
X273028390Y-59537142D01*
X273028390Y-59537142D02*
X273171247Y-59537142D01*
X273171247Y-59537142D02*
X273361723Y-59489523D01*
X273361723Y-59489523D02*
X273456961Y-59441904D01*
X273456961Y-59441904D02*
X273552200Y-59346666D01*
X273552200Y-59346666D02*
X273599819Y-59203809D01*
X273599819Y-59203809D02*
X273599819Y-58965714D01*
X272695057Y-59918095D02*
X272647438Y-59965714D01*
X272647438Y-59965714D02*
X272599819Y-60060952D01*
X272599819Y-60060952D02*
X272599819Y-60299047D01*
X272599819Y-60299047D02*
X272647438Y-60394285D01*
X272647438Y-60394285D02*
X272695057Y-60441904D01*
X272695057Y-60441904D02*
X272790295Y-60489523D01*
X272790295Y-60489523D02*
X272885533Y-60489523D01*
X272885533Y-60489523D02*
X273028390Y-60441904D01*
X273028390Y-60441904D02*
X273599819Y-59870476D01*
X273599819Y-59870476D02*
X273599819Y-60489523D01*
X272599819Y-60822857D02*
X272599819Y-61489523D01*
X272599819Y-61489523D02*
X273599819Y-61060952D01*
X40237319Y-58965714D02*
X39237319Y-58965714D01*
X39237319Y-58965714D02*
X39237319Y-59203809D01*
X39237319Y-59203809D02*
X39284938Y-59346666D01*
X39284938Y-59346666D02*
X39380176Y-59441904D01*
X39380176Y-59441904D02*
X39475414Y-59489523D01*
X39475414Y-59489523D02*
X39665890Y-59537142D01*
X39665890Y-59537142D02*
X39808747Y-59537142D01*
X39808747Y-59537142D02*
X39999223Y-59489523D01*
X39999223Y-59489523D02*
X40094461Y-59441904D01*
X40094461Y-59441904D02*
X40189700Y-59346666D01*
X40189700Y-59346666D02*
X40237319Y-59203809D01*
X40237319Y-59203809D02*
X40237319Y-58965714D01*
X40237319Y-60489523D02*
X40237319Y-59918095D01*
X40237319Y-60203809D02*
X39237319Y-60203809D01*
X39237319Y-60203809D02*
X39380176Y-60108571D01*
X39380176Y-60108571D02*
X39475414Y-60013333D01*
X39475414Y-60013333D02*
X39523033Y-59918095D01*
X39237319Y-61394285D02*
X39237319Y-60918095D01*
X39237319Y-60918095D02*
X39713509Y-60870476D01*
X39713509Y-60870476D02*
X39665890Y-60918095D01*
X39665890Y-60918095D02*
X39618271Y-61013333D01*
X39618271Y-61013333D02*
X39618271Y-61251428D01*
X39618271Y-61251428D02*
X39665890Y-61346666D01*
X39665890Y-61346666D02*
X39713509Y-61394285D01*
X39713509Y-61394285D02*
X39808747Y-61441904D01*
X39808747Y-61441904D02*
X40046842Y-61441904D01*
X40046842Y-61441904D02*
X40142080Y-61394285D01*
X40142080Y-61394285D02*
X40189700Y-61346666D01*
X40189700Y-61346666D02*
X40237319Y-61251428D01*
X40237319Y-61251428D02*
X40237319Y-61013333D01*
X40237319Y-61013333D02*
X40189700Y-60918095D01*
X40189700Y-60918095D02*
X40142080Y-60870476D01*
X273290535Y-92624819D02*
X273290535Y-91624819D01*
X273290535Y-91624819D02*
X273052440Y-91624819D01*
X273052440Y-91624819D02*
X272909583Y-91672438D01*
X272909583Y-91672438D02*
X272814345Y-91767676D01*
X272814345Y-91767676D02*
X272766726Y-91862914D01*
X272766726Y-91862914D02*
X272719107Y-92053390D01*
X272719107Y-92053390D02*
X272719107Y-92196247D01*
X272719107Y-92196247D02*
X272766726Y-92386723D01*
X272766726Y-92386723D02*
X272814345Y-92481961D01*
X272814345Y-92481961D02*
X272909583Y-92577200D01*
X272909583Y-92577200D02*
X273052440Y-92624819D01*
X273052440Y-92624819D02*
X273290535Y-92624819D01*
X271814345Y-91624819D02*
X272290535Y-91624819D01*
X272290535Y-91624819D02*
X272338154Y-92101009D01*
X272338154Y-92101009D02*
X272290535Y-92053390D01*
X272290535Y-92053390D02*
X272195297Y-92005771D01*
X272195297Y-92005771D02*
X271957202Y-92005771D01*
X271957202Y-92005771D02*
X271861964Y-92053390D01*
X271861964Y-92053390D02*
X271814345Y-92101009D01*
X271814345Y-92101009D02*
X271766726Y-92196247D01*
X271766726Y-92196247D02*
X271766726Y-92434342D01*
X271766726Y-92434342D02*
X271814345Y-92529580D01*
X271814345Y-92529580D02*
X271861964Y-92577200D01*
X271861964Y-92577200D02*
X271957202Y-92624819D01*
X271957202Y-92624819D02*
X272195297Y-92624819D01*
X272195297Y-92624819D02*
X272290535Y-92577200D01*
X272290535Y-92577200D02*
X272338154Y-92529580D01*
X270861964Y-91624819D02*
X271338154Y-91624819D01*
X271338154Y-91624819D02*
X271385773Y-92101009D01*
X271385773Y-92101009D02*
X271338154Y-92053390D01*
X271338154Y-92053390D02*
X271242916Y-92005771D01*
X271242916Y-92005771D02*
X271004821Y-92005771D01*
X271004821Y-92005771D02*
X270909583Y-92053390D01*
X270909583Y-92053390D02*
X270861964Y-92101009D01*
X270861964Y-92101009D02*
X270814345Y-92196247D01*
X270814345Y-92196247D02*
X270814345Y-92434342D01*
X270814345Y-92434342D02*
X270861964Y-92529580D01*
X270861964Y-92529580D02*
X270909583Y-92577200D01*
X270909583Y-92577200D02*
X271004821Y-92624819D01*
X271004821Y-92624819D02*
X271242916Y-92624819D01*
X271242916Y-92624819D02*
X271338154Y-92577200D01*
X271338154Y-92577200D02*
X271385773Y-92529580D01*
X130724819Y-40391905D02*
X129724819Y-40391905D01*
X129724819Y-40391905D02*
X129724819Y-40630000D01*
X129724819Y-40630000D02*
X129772438Y-40772857D01*
X129772438Y-40772857D02*
X129867676Y-40868095D01*
X129867676Y-40868095D02*
X129962914Y-40915714D01*
X129962914Y-40915714D02*
X130153390Y-40963333D01*
X130153390Y-40963333D02*
X130296247Y-40963333D01*
X130296247Y-40963333D02*
X130486723Y-40915714D01*
X130486723Y-40915714D02*
X130581961Y-40868095D01*
X130581961Y-40868095D02*
X130677200Y-40772857D01*
X130677200Y-40772857D02*
X130724819Y-40630000D01*
X130724819Y-40630000D02*
X130724819Y-40391905D01*
X129724819Y-41820476D02*
X129724819Y-41630000D01*
X129724819Y-41630000D02*
X129772438Y-41534762D01*
X129772438Y-41534762D02*
X129820057Y-41487143D01*
X129820057Y-41487143D02*
X129962914Y-41391905D01*
X129962914Y-41391905D02*
X130153390Y-41344286D01*
X130153390Y-41344286D02*
X130534342Y-41344286D01*
X130534342Y-41344286D02*
X130629580Y-41391905D01*
X130629580Y-41391905D02*
X130677200Y-41439524D01*
X130677200Y-41439524D02*
X130724819Y-41534762D01*
X130724819Y-41534762D02*
X130724819Y-41725238D01*
X130724819Y-41725238D02*
X130677200Y-41820476D01*
X130677200Y-41820476D02*
X130629580Y-41868095D01*
X130629580Y-41868095D02*
X130534342Y-41915714D01*
X130534342Y-41915714D02*
X130296247Y-41915714D01*
X130296247Y-41915714D02*
X130201009Y-41868095D01*
X130201009Y-41868095D02*
X130153390Y-41820476D01*
X130153390Y-41820476D02*
X130105771Y-41725238D01*
X130105771Y-41725238D02*
X130105771Y-41534762D01*
X130105771Y-41534762D02*
X130153390Y-41439524D01*
X130153390Y-41439524D02*
X130201009Y-41391905D01*
X130201009Y-41391905D02*
X130296247Y-41344286D01*
X76481069Y-110545714D02*
X75481069Y-110545714D01*
X75481069Y-110545714D02*
X75481069Y-110783809D01*
X75481069Y-110783809D02*
X75528688Y-110926666D01*
X75528688Y-110926666D02*
X75623926Y-111021904D01*
X75623926Y-111021904D02*
X75719164Y-111069523D01*
X75719164Y-111069523D02*
X75909640Y-111117142D01*
X75909640Y-111117142D02*
X76052497Y-111117142D01*
X76052497Y-111117142D02*
X76242973Y-111069523D01*
X76242973Y-111069523D02*
X76338211Y-111021904D01*
X76338211Y-111021904D02*
X76433450Y-110926666D01*
X76433450Y-110926666D02*
X76481069Y-110783809D01*
X76481069Y-110783809D02*
X76481069Y-110545714D01*
X75481069Y-112021904D02*
X75481069Y-111545714D01*
X75481069Y-111545714D02*
X75957259Y-111498095D01*
X75957259Y-111498095D02*
X75909640Y-111545714D01*
X75909640Y-111545714D02*
X75862021Y-111640952D01*
X75862021Y-111640952D02*
X75862021Y-111879047D01*
X75862021Y-111879047D02*
X75909640Y-111974285D01*
X75909640Y-111974285D02*
X75957259Y-112021904D01*
X75957259Y-112021904D02*
X76052497Y-112069523D01*
X76052497Y-112069523D02*
X76290592Y-112069523D01*
X76290592Y-112069523D02*
X76385830Y-112021904D01*
X76385830Y-112021904D02*
X76433450Y-111974285D01*
X76433450Y-111974285D02*
X76481069Y-111879047D01*
X76481069Y-111879047D02*
X76481069Y-111640952D01*
X76481069Y-111640952D02*
X76433450Y-111545714D01*
X76433450Y-111545714D02*
X76385830Y-111498095D01*
X76481069Y-112545714D02*
X76481069Y-112736190D01*
X76481069Y-112736190D02*
X76433450Y-112831428D01*
X76433450Y-112831428D02*
X76385830Y-112879047D01*
X76385830Y-112879047D02*
X76242973Y-112974285D01*
X76242973Y-112974285D02*
X76052497Y-113021904D01*
X76052497Y-113021904D02*
X75671545Y-113021904D01*
X75671545Y-113021904D02*
X75576307Y-112974285D01*
X75576307Y-112974285D02*
X75528688Y-112926666D01*
X75528688Y-112926666D02*
X75481069Y-112831428D01*
X75481069Y-112831428D02*
X75481069Y-112640952D01*
X75481069Y-112640952D02*
X75528688Y-112545714D01*
X75528688Y-112545714D02*
X75576307Y-112498095D01*
X75576307Y-112498095D02*
X75671545Y-112450476D01*
X75671545Y-112450476D02*
X75909640Y-112450476D01*
X75909640Y-112450476D02*
X76004878Y-112498095D01*
X76004878Y-112498095D02*
X76052497Y-112545714D01*
X76052497Y-112545714D02*
X76100116Y-112640952D01*
X76100116Y-112640952D02*
X76100116Y-112831428D01*
X76100116Y-112831428D02*
X76052497Y-112926666D01*
X76052497Y-112926666D02*
X76004878Y-112974285D01*
X76004878Y-112974285D02*
X75909640Y-113021904D01*
X164062319Y-78015714D02*
X163062319Y-78015714D01*
X163062319Y-78015714D02*
X163062319Y-78253809D01*
X163062319Y-78253809D02*
X163109938Y-78396666D01*
X163109938Y-78396666D02*
X163205176Y-78491904D01*
X163205176Y-78491904D02*
X163300414Y-78539523D01*
X163300414Y-78539523D02*
X163490890Y-78587142D01*
X163490890Y-78587142D02*
X163633747Y-78587142D01*
X163633747Y-78587142D02*
X163824223Y-78539523D01*
X163824223Y-78539523D02*
X163919461Y-78491904D01*
X163919461Y-78491904D02*
X164014700Y-78396666D01*
X164014700Y-78396666D02*
X164062319Y-78253809D01*
X164062319Y-78253809D02*
X164062319Y-78015714D01*
X163062319Y-78920476D02*
X163062319Y-79539523D01*
X163062319Y-79539523D02*
X163443271Y-79206190D01*
X163443271Y-79206190D02*
X163443271Y-79349047D01*
X163443271Y-79349047D02*
X163490890Y-79444285D01*
X163490890Y-79444285D02*
X163538509Y-79491904D01*
X163538509Y-79491904D02*
X163633747Y-79539523D01*
X163633747Y-79539523D02*
X163871842Y-79539523D01*
X163871842Y-79539523D02*
X163967080Y-79491904D01*
X163967080Y-79491904D02*
X164014700Y-79444285D01*
X164014700Y-79444285D02*
X164062319Y-79349047D01*
X164062319Y-79349047D02*
X164062319Y-79063333D01*
X164062319Y-79063333D02*
X164014700Y-78968095D01*
X164014700Y-78968095D02*
X163967080Y-78920476D01*
X163062319Y-80444285D02*
X163062319Y-79968095D01*
X163062319Y-79968095D02*
X163538509Y-79920476D01*
X163538509Y-79920476D02*
X163490890Y-79968095D01*
X163490890Y-79968095D02*
X163443271Y-80063333D01*
X163443271Y-80063333D02*
X163443271Y-80301428D01*
X163443271Y-80301428D02*
X163490890Y-80396666D01*
X163490890Y-80396666D02*
X163538509Y-80444285D01*
X163538509Y-80444285D02*
X163633747Y-80491904D01*
X163633747Y-80491904D02*
X163871842Y-80491904D01*
X163871842Y-80491904D02*
X163967080Y-80444285D01*
X163967080Y-80444285D02*
X164014700Y-80396666D01*
X164014700Y-80396666D02*
X164062319Y-80301428D01*
X164062319Y-80301428D02*
X164062319Y-80063333D01*
X164062319Y-80063333D02*
X164014700Y-79968095D01*
X164014700Y-79968095D02*
X163967080Y-79920476D01*
X73574819Y-40391905D02*
X72574819Y-40391905D01*
X72574819Y-40391905D02*
X72574819Y-40630000D01*
X72574819Y-40630000D02*
X72622438Y-40772857D01*
X72622438Y-40772857D02*
X72717676Y-40868095D01*
X72717676Y-40868095D02*
X72812914Y-40915714D01*
X72812914Y-40915714D02*
X73003390Y-40963333D01*
X73003390Y-40963333D02*
X73146247Y-40963333D01*
X73146247Y-40963333D02*
X73336723Y-40915714D01*
X73336723Y-40915714D02*
X73431961Y-40868095D01*
X73431961Y-40868095D02*
X73527200Y-40772857D01*
X73527200Y-40772857D02*
X73574819Y-40630000D01*
X73574819Y-40630000D02*
X73574819Y-40391905D01*
X72574819Y-41296667D02*
X72574819Y-41915714D01*
X72574819Y-41915714D02*
X72955771Y-41582381D01*
X72955771Y-41582381D02*
X72955771Y-41725238D01*
X72955771Y-41725238D02*
X73003390Y-41820476D01*
X73003390Y-41820476D02*
X73051009Y-41868095D01*
X73051009Y-41868095D02*
X73146247Y-41915714D01*
X73146247Y-41915714D02*
X73384342Y-41915714D01*
X73384342Y-41915714D02*
X73479580Y-41868095D01*
X73479580Y-41868095D02*
X73527200Y-41820476D01*
X73527200Y-41820476D02*
X73574819Y-41725238D01*
X73574819Y-41725238D02*
X73574819Y-41439524D01*
X73574819Y-41439524D02*
X73527200Y-41344286D01*
X73527200Y-41344286D02*
X73479580Y-41296667D01*
X187874819Y-40391905D02*
X186874819Y-40391905D01*
X186874819Y-40391905D02*
X186874819Y-40630000D01*
X186874819Y-40630000D02*
X186922438Y-40772857D01*
X186922438Y-40772857D02*
X187017676Y-40868095D01*
X187017676Y-40868095D02*
X187112914Y-40915714D01*
X187112914Y-40915714D02*
X187303390Y-40963333D01*
X187303390Y-40963333D02*
X187446247Y-40963333D01*
X187446247Y-40963333D02*
X187636723Y-40915714D01*
X187636723Y-40915714D02*
X187731961Y-40868095D01*
X187731961Y-40868095D02*
X187827200Y-40772857D01*
X187827200Y-40772857D02*
X187874819Y-40630000D01*
X187874819Y-40630000D02*
X187874819Y-40391905D01*
X187874819Y-41439524D02*
X187874819Y-41630000D01*
X187874819Y-41630000D02*
X187827200Y-41725238D01*
X187827200Y-41725238D02*
X187779580Y-41772857D01*
X187779580Y-41772857D02*
X187636723Y-41868095D01*
X187636723Y-41868095D02*
X187446247Y-41915714D01*
X187446247Y-41915714D02*
X187065295Y-41915714D01*
X187065295Y-41915714D02*
X186970057Y-41868095D01*
X186970057Y-41868095D02*
X186922438Y-41820476D01*
X186922438Y-41820476D02*
X186874819Y-41725238D01*
X186874819Y-41725238D02*
X186874819Y-41534762D01*
X186874819Y-41534762D02*
X186922438Y-41439524D01*
X186922438Y-41439524D02*
X186970057Y-41391905D01*
X186970057Y-41391905D02*
X187065295Y-41344286D01*
X187065295Y-41344286D02*
X187303390Y-41344286D01*
X187303390Y-41344286D02*
X187398628Y-41391905D01*
X187398628Y-41391905D02*
X187446247Y-41439524D01*
X187446247Y-41439524D02*
X187493866Y-41534762D01*
X187493866Y-41534762D02*
X187493866Y-41725238D01*
X187493866Y-41725238D02*
X187446247Y-41820476D01*
X187446247Y-41820476D02*
X187398628Y-41868095D01*
X187398628Y-41868095D02*
X187303390Y-41915714D01*
X240262319Y-78015714D02*
X239262319Y-78015714D01*
X239262319Y-78015714D02*
X239262319Y-78253809D01*
X239262319Y-78253809D02*
X239309938Y-78396666D01*
X239309938Y-78396666D02*
X239405176Y-78491904D01*
X239405176Y-78491904D02*
X239500414Y-78539523D01*
X239500414Y-78539523D02*
X239690890Y-78587142D01*
X239690890Y-78587142D02*
X239833747Y-78587142D01*
X239833747Y-78587142D02*
X240024223Y-78539523D01*
X240024223Y-78539523D02*
X240119461Y-78491904D01*
X240119461Y-78491904D02*
X240214700Y-78396666D01*
X240214700Y-78396666D02*
X240262319Y-78253809D01*
X240262319Y-78253809D02*
X240262319Y-78015714D01*
X239262319Y-78920476D02*
X239262319Y-79539523D01*
X239262319Y-79539523D02*
X239643271Y-79206190D01*
X239643271Y-79206190D02*
X239643271Y-79349047D01*
X239643271Y-79349047D02*
X239690890Y-79444285D01*
X239690890Y-79444285D02*
X239738509Y-79491904D01*
X239738509Y-79491904D02*
X239833747Y-79539523D01*
X239833747Y-79539523D02*
X240071842Y-79539523D01*
X240071842Y-79539523D02*
X240167080Y-79491904D01*
X240167080Y-79491904D02*
X240214700Y-79444285D01*
X240214700Y-79444285D02*
X240262319Y-79349047D01*
X240262319Y-79349047D02*
X240262319Y-79063333D01*
X240262319Y-79063333D02*
X240214700Y-78968095D01*
X240214700Y-78968095D02*
X240167080Y-78920476D01*
X240262319Y-80015714D02*
X240262319Y-80206190D01*
X240262319Y-80206190D02*
X240214700Y-80301428D01*
X240214700Y-80301428D02*
X240167080Y-80349047D01*
X240167080Y-80349047D02*
X240024223Y-80444285D01*
X240024223Y-80444285D02*
X239833747Y-80491904D01*
X239833747Y-80491904D02*
X239452795Y-80491904D01*
X239452795Y-80491904D02*
X239357557Y-80444285D01*
X239357557Y-80444285D02*
X239309938Y-80396666D01*
X239309938Y-80396666D02*
X239262319Y-80301428D01*
X239262319Y-80301428D02*
X239262319Y-80110952D01*
X239262319Y-80110952D02*
X239309938Y-80015714D01*
X239309938Y-80015714D02*
X239357557Y-79968095D01*
X239357557Y-79968095D02*
X239452795Y-79920476D01*
X239452795Y-79920476D02*
X239690890Y-79920476D01*
X239690890Y-79920476D02*
X239786128Y-79968095D01*
X239786128Y-79968095D02*
X239833747Y-80015714D01*
X239833747Y-80015714D02*
X239881366Y-80110952D01*
X239881366Y-80110952D02*
X239881366Y-80301428D01*
X239881366Y-80301428D02*
X239833747Y-80396666D01*
X239833747Y-80396666D02*
X239786128Y-80444285D01*
X239786128Y-80444285D02*
X239690890Y-80491904D01*
X135487319Y-97065714D02*
X134487319Y-97065714D01*
X134487319Y-97065714D02*
X134487319Y-97303809D01*
X134487319Y-97303809D02*
X134534938Y-97446666D01*
X134534938Y-97446666D02*
X134630176Y-97541904D01*
X134630176Y-97541904D02*
X134725414Y-97589523D01*
X134725414Y-97589523D02*
X134915890Y-97637142D01*
X134915890Y-97637142D02*
X135058747Y-97637142D01*
X135058747Y-97637142D02*
X135249223Y-97589523D01*
X135249223Y-97589523D02*
X135344461Y-97541904D01*
X135344461Y-97541904D02*
X135439700Y-97446666D01*
X135439700Y-97446666D02*
X135487319Y-97303809D01*
X135487319Y-97303809D02*
X135487319Y-97065714D01*
X134820652Y-98494285D02*
X135487319Y-98494285D01*
X134439700Y-98256190D02*
X135153985Y-98018095D01*
X135153985Y-98018095D02*
X135153985Y-98637142D01*
X134915890Y-99160952D02*
X134868271Y-99065714D01*
X134868271Y-99065714D02*
X134820652Y-99018095D01*
X134820652Y-99018095D02*
X134725414Y-98970476D01*
X134725414Y-98970476D02*
X134677795Y-98970476D01*
X134677795Y-98970476D02*
X134582557Y-99018095D01*
X134582557Y-99018095D02*
X134534938Y-99065714D01*
X134534938Y-99065714D02*
X134487319Y-99160952D01*
X134487319Y-99160952D02*
X134487319Y-99351428D01*
X134487319Y-99351428D02*
X134534938Y-99446666D01*
X134534938Y-99446666D02*
X134582557Y-99494285D01*
X134582557Y-99494285D02*
X134677795Y-99541904D01*
X134677795Y-99541904D02*
X134725414Y-99541904D01*
X134725414Y-99541904D02*
X134820652Y-99494285D01*
X134820652Y-99494285D02*
X134868271Y-99446666D01*
X134868271Y-99446666D02*
X134915890Y-99351428D01*
X134915890Y-99351428D02*
X134915890Y-99160952D01*
X134915890Y-99160952D02*
X134963509Y-99065714D01*
X134963509Y-99065714D02*
X135011128Y-99018095D01*
X135011128Y-99018095D02*
X135106366Y-98970476D01*
X135106366Y-98970476D02*
X135296842Y-98970476D01*
X135296842Y-98970476D02*
X135392080Y-99018095D01*
X135392080Y-99018095D02*
X135439700Y-99065714D01*
X135439700Y-99065714D02*
X135487319Y-99160952D01*
X135487319Y-99160952D02*
X135487319Y-99351428D01*
X135487319Y-99351428D02*
X135439700Y-99446666D01*
X135439700Y-99446666D02*
X135392080Y-99494285D01*
X135392080Y-99494285D02*
X135296842Y-99541904D01*
X135296842Y-99541904D02*
X135106366Y-99541904D01*
X135106366Y-99541904D02*
X135011128Y-99494285D01*
X135011128Y-99494285D02*
X134963509Y-99446666D01*
X134963509Y-99446666D02*
X134915890Y-99351428D01*
X87862319Y-78015714D02*
X86862319Y-78015714D01*
X86862319Y-78015714D02*
X86862319Y-78253809D01*
X86862319Y-78253809D02*
X86909938Y-78396666D01*
X86909938Y-78396666D02*
X87005176Y-78491904D01*
X87005176Y-78491904D02*
X87100414Y-78539523D01*
X87100414Y-78539523D02*
X87290890Y-78587142D01*
X87290890Y-78587142D02*
X87433747Y-78587142D01*
X87433747Y-78587142D02*
X87624223Y-78539523D01*
X87624223Y-78539523D02*
X87719461Y-78491904D01*
X87719461Y-78491904D02*
X87814700Y-78396666D01*
X87814700Y-78396666D02*
X87862319Y-78253809D01*
X87862319Y-78253809D02*
X87862319Y-78015714D01*
X86862319Y-78920476D02*
X86862319Y-79539523D01*
X86862319Y-79539523D02*
X87243271Y-79206190D01*
X87243271Y-79206190D02*
X87243271Y-79349047D01*
X87243271Y-79349047D02*
X87290890Y-79444285D01*
X87290890Y-79444285D02*
X87338509Y-79491904D01*
X87338509Y-79491904D02*
X87433747Y-79539523D01*
X87433747Y-79539523D02*
X87671842Y-79539523D01*
X87671842Y-79539523D02*
X87767080Y-79491904D01*
X87767080Y-79491904D02*
X87814700Y-79444285D01*
X87814700Y-79444285D02*
X87862319Y-79349047D01*
X87862319Y-79349047D02*
X87862319Y-79063333D01*
X87862319Y-79063333D02*
X87814700Y-78968095D01*
X87814700Y-78968095D02*
X87767080Y-78920476D01*
X87862319Y-80491904D02*
X87862319Y-79920476D01*
X87862319Y-80206190D02*
X86862319Y-80206190D01*
X86862319Y-80206190D02*
X87005176Y-80110952D01*
X87005176Y-80110952D02*
X87100414Y-80015714D01*
X87100414Y-80015714D02*
X87148033Y-79920476D01*
X111674819Y-40391905D02*
X110674819Y-40391905D01*
X110674819Y-40391905D02*
X110674819Y-40630000D01*
X110674819Y-40630000D02*
X110722438Y-40772857D01*
X110722438Y-40772857D02*
X110817676Y-40868095D01*
X110817676Y-40868095D02*
X110912914Y-40915714D01*
X110912914Y-40915714D02*
X111103390Y-40963333D01*
X111103390Y-40963333D02*
X111246247Y-40963333D01*
X111246247Y-40963333D02*
X111436723Y-40915714D01*
X111436723Y-40915714D02*
X111531961Y-40868095D01*
X111531961Y-40868095D02*
X111627200Y-40772857D01*
X111627200Y-40772857D02*
X111674819Y-40630000D01*
X111674819Y-40630000D02*
X111674819Y-40391905D01*
X110674819Y-41868095D02*
X110674819Y-41391905D01*
X110674819Y-41391905D02*
X111151009Y-41344286D01*
X111151009Y-41344286D02*
X111103390Y-41391905D01*
X111103390Y-41391905D02*
X111055771Y-41487143D01*
X111055771Y-41487143D02*
X111055771Y-41725238D01*
X111055771Y-41725238D02*
X111103390Y-41820476D01*
X111103390Y-41820476D02*
X111151009Y-41868095D01*
X111151009Y-41868095D02*
X111246247Y-41915714D01*
X111246247Y-41915714D02*
X111484342Y-41915714D01*
X111484342Y-41915714D02*
X111579580Y-41868095D01*
X111579580Y-41868095D02*
X111627200Y-41820476D01*
X111627200Y-41820476D02*
X111674819Y-41725238D01*
X111674819Y-41725238D02*
X111674819Y-41487143D01*
X111674819Y-41487143D02*
X111627200Y-41391905D01*
X111627200Y-41391905D02*
X111579580Y-41344286D01*
X168824819Y-40391905D02*
X167824819Y-40391905D01*
X167824819Y-40391905D02*
X167824819Y-40630000D01*
X167824819Y-40630000D02*
X167872438Y-40772857D01*
X167872438Y-40772857D02*
X167967676Y-40868095D01*
X167967676Y-40868095D02*
X168062914Y-40915714D01*
X168062914Y-40915714D02*
X168253390Y-40963333D01*
X168253390Y-40963333D02*
X168396247Y-40963333D01*
X168396247Y-40963333D02*
X168586723Y-40915714D01*
X168586723Y-40915714D02*
X168681961Y-40868095D01*
X168681961Y-40868095D02*
X168777200Y-40772857D01*
X168777200Y-40772857D02*
X168824819Y-40630000D01*
X168824819Y-40630000D02*
X168824819Y-40391905D01*
X168253390Y-41534762D02*
X168205771Y-41439524D01*
X168205771Y-41439524D02*
X168158152Y-41391905D01*
X168158152Y-41391905D02*
X168062914Y-41344286D01*
X168062914Y-41344286D02*
X168015295Y-41344286D01*
X168015295Y-41344286D02*
X167920057Y-41391905D01*
X167920057Y-41391905D02*
X167872438Y-41439524D01*
X167872438Y-41439524D02*
X167824819Y-41534762D01*
X167824819Y-41534762D02*
X167824819Y-41725238D01*
X167824819Y-41725238D02*
X167872438Y-41820476D01*
X167872438Y-41820476D02*
X167920057Y-41868095D01*
X167920057Y-41868095D02*
X168015295Y-41915714D01*
X168015295Y-41915714D02*
X168062914Y-41915714D01*
X168062914Y-41915714D02*
X168158152Y-41868095D01*
X168158152Y-41868095D02*
X168205771Y-41820476D01*
X168205771Y-41820476D02*
X168253390Y-41725238D01*
X168253390Y-41725238D02*
X168253390Y-41534762D01*
X168253390Y-41534762D02*
X168301009Y-41439524D01*
X168301009Y-41439524D02*
X168348628Y-41391905D01*
X168348628Y-41391905D02*
X168443866Y-41344286D01*
X168443866Y-41344286D02*
X168634342Y-41344286D01*
X168634342Y-41344286D02*
X168729580Y-41391905D01*
X168729580Y-41391905D02*
X168777200Y-41439524D01*
X168777200Y-41439524D02*
X168824819Y-41534762D01*
X168824819Y-41534762D02*
X168824819Y-41725238D01*
X168824819Y-41725238D02*
X168777200Y-41820476D01*
X168777200Y-41820476D02*
X168729580Y-41868095D01*
X168729580Y-41868095D02*
X168634342Y-41915714D01*
X168634342Y-41915714D02*
X168443866Y-41915714D01*
X168443866Y-41915714D02*
X168348628Y-41868095D01*
X168348628Y-41868095D02*
X168301009Y-41820476D01*
X168301009Y-41820476D02*
X168253390Y-41725238D01*
X53266666Y-30445180D02*
X53266666Y-29730895D01*
X53266666Y-29730895D02*
X53219047Y-29588038D01*
X53219047Y-29588038D02*
X53123809Y-29492800D01*
X53123809Y-29492800D02*
X52980952Y-29445180D01*
X52980952Y-29445180D02*
X52885714Y-29445180D01*
X54266666Y-29445180D02*
X53695238Y-29445180D01*
X53980952Y-29445180D02*
X53980952Y-30445180D01*
X53980952Y-30445180D02*
X53885714Y-30302323D01*
X53885714Y-30302323D02*
X53790476Y-30207085D01*
X53790476Y-30207085D02*
X53695238Y-30159466D01*
X225974819Y-39915714D02*
X224974819Y-39915714D01*
X224974819Y-39915714D02*
X224974819Y-40153809D01*
X224974819Y-40153809D02*
X225022438Y-40296666D01*
X225022438Y-40296666D02*
X225117676Y-40391904D01*
X225117676Y-40391904D02*
X225212914Y-40439523D01*
X225212914Y-40439523D02*
X225403390Y-40487142D01*
X225403390Y-40487142D02*
X225546247Y-40487142D01*
X225546247Y-40487142D02*
X225736723Y-40439523D01*
X225736723Y-40439523D02*
X225831961Y-40391904D01*
X225831961Y-40391904D02*
X225927200Y-40296666D01*
X225927200Y-40296666D02*
X225974819Y-40153809D01*
X225974819Y-40153809D02*
X225974819Y-39915714D01*
X225974819Y-41439523D02*
X225974819Y-40868095D01*
X225974819Y-41153809D02*
X224974819Y-41153809D01*
X224974819Y-41153809D02*
X225117676Y-41058571D01*
X225117676Y-41058571D02*
X225212914Y-40963333D01*
X225212914Y-40963333D02*
X225260533Y-40868095D01*
X225974819Y-42391904D02*
X225974819Y-41820476D01*
X225974819Y-42106190D02*
X224974819Y-42106190D01*
X224974819Y-42106190D02*
X225117676Y-42010952D01*
X225117676Y-42010952D02*
X225212914Y-41915714D01*
X225212914Y-41915714D02*
X225260533Y-41820476D01*
X192637319Y-97065714D02*
X191637319Y-97065714D01*
X191637319Y-97065714D02*
X191637319Y-97303809D01*
X191637319Y-97303809D02*
X191684938Y-97446666D01*
X191684938Y-97446666D02*
X191780176Y-97541904D01*
X191780176Y-97541904D02*
X191875414Y-97589523D01*
X191875414Y-97589523D02*
X192065890Y-97637142D01*
X192065890Y-97637142D02*
X192208747Y-97637142D01*
X192208747Y-97637142D02*
X192399223Y-97589523D01*
X192399223Y-97589523D02*
X192494461Y-97541904D01*
X192494461Y-97541904D02*
X192589700Y-97446666D01*
X192589700Y-97446666D02*
X192637319Y-97303809D01*
X192637319Y-97303809D02*
X192637319Y-97065714D01*
X191637319Y-98541904D02*
X191637319Y-98065714D01*
X191637319Y-98065714D02*
X192113509Y-98018095D01*
X192113509Y-98018095D02*
X192065890Y-98065714D01*
X192065890Y-98065714D02*
X192018271Y-98160952D01*
X192018271Y-98160952D02*
X192018271Y-98399047D01*
X192018271Y-98399047D02*
X192065890Y-98494285D01*
X192065890Y-98494285D02*
X192113509Y-98541904D01*
X192113509Y-98541904D02*
X192208747Y-98589523D01*
X192208747Y-98589523D02*
X192446842Y-98589523D01*
X192446842Y-98589523D02*
X192542080Y-98541904D01*
X192542080Y-98541904D02*
X192589700Y-98494285D01*
X192589700Y-98494285D02*
X192637319Y-98399047D01*
X192637319Y-98399047D02*
X192637319Y-98160952D01*
X192637319Y-98160952D02*
X192589700Y-98065714D01*
X192589700Y-98065714D02*
X192542080Y-98018095D01*
X192637319Y-99541904D02*
X192637319Y-98970476D01*
X192637319Y-99256190D02*
X191637319Y-99256190D01*
X191637319Y-99256190D02*
X191780176Y-99160952D01*
X191780176Y-99160952D02*
X191875414Y-99065714D01*
X191875414Y-99065714D02*
X191923033Y-98970476D01*
X230737319Y-97065714D02*
X229737319Y-97065714D01*
X229737319Y-97065714D02*
X229737319Y-97303809D01*
X229737319Y-97303809D02*
X229784938Y-97446666D01*
X229784938Y-97446666D02*
X229880176Y-97541904D01*
X229880176Y-97541904D02*
X229975414Y-97589523D01*
X229975414Y-97589523D02*
X230165890Y-97637142D01*
X230165890Y-97637142D02*
X230308747Y-97637142D01*
X230308747Y-97637142D02*
X230499223Y-97589523D01*
X230499223Y-97589523D02*
X230594461Y-97541904D01*
X230594461Y-97541904D02*
X230689700Y-97446666D01*
X230689700Y-97446666D02*
X230737319Y-97303809D01*
X230737319Y-97303809D02*
X230737319Y-97065714D01*
X229737319Y-98541904D02*
X229737319Y-98065714D01*
X229737319Y-98065714D02*
X230213509Y-98018095D01*
X230213509Y-98018095D02*
X230165890Y-98065714D01*
X230165890Y-98065714D02*
X230118271Y-98160952D01*
X230118271Y-98160952D02*
X230118271Y-98399047D01*
X230118271Y-98399047D02*
X230165890Y-98494285D01*
X230165890Y-98494285D02*
X230213509Y-98541904D01*
X230213509Y-98541904D02*
X230308747Y-98589523D01*
X230308747Y-98589523D02*
X230546842Y-98589523D01*
X230546842Y-98589523D02*
X230642080Y-98541904D01*
X230642080Y-98541904D02*
X230689700Y-98494285D01*
X230689700Y-98494285D02*
X230737319Y-98399047D01*
X230737319Y-98399047D02*
X230737319Y-98160952D01*
X230737319Y-98160952D02*
X230689700Y-98065714D01*
X230689700Y-98065714D02*
X230642080Y-98018095D01*
X229737319Y-98922857D02*
X229737319Y-99541904D01*
X229737319Y-99541904D02*
X230118271Y-99208571D01*
X230118271Y-99208571D02*
X230118271Y-99351428D01*
X230118271Y-99351428D02*
X230165890Y-99446666D01*
X230165890Y-99446666D02*
X230213509Y-99494285D01*
X230213509Y-99494285D02*
X230308747Y-99541904D01*
X230308747Y-99541904D02*
X230546842Y-99541904D01*
X230546842Y-99541904D02*
X230642080Y-99494285D01*
X230642080Y-99494285D02*
X230689700Y-99446666D01*
X230689700Y-99446666D02*
X230737319Y-99351428D01*
X230737319Y-99351428D02*
X230737319Y-99065714D01*
X230737319Y-99065714D02*
X230689700Y-98970476D01*
X230689700Y-98970476D02*
X230642080Y-98922857D01*
X68812319Y-78015714D02*
X67812319Y-78015714D01*
X67812319Y-78015714D02*
X67812319Y-78253809D01*
X67812319Y-78253809D02*
X67859938Y-78396666D01*
X67859938Y-78396666D02*
X67955176Y-78491904D01*
X67955176Y-78491904D02*
X68050414Y-78539523D01*
X68050414Y-78539523D02*
X68240890Y-78587142D01*
X68240890Y-78587142D02*
X68383747Y-78587142D01*
X68383747Y-78587142D02*
X68574223Y-78539523D01*
X68574223Y-78539523D02*
X68669461Y-78491904D01*
X68669461Y-78491904D02*
X68764700Y-78396666D01*
X68764700Y-78396666D02*
X68812319Y-78253809D01*
X68812319Y-78253809D02*
X68812319Y-78015714D01*
X67812319Y-78920476D02*
X67812319Y-79539523D01*
X67812319Y-79539523D02*
X68193271Y-79206190D01*
X68193271Y-79206190D02*
X68193271Y-79349047D01*
X68193271Y-79349047D02*
X68240890Y-79444285D01*
X68240890Y-79444285D02*
X68288509Y-79491904D01*
X68288509Y-79491904D02*
X68383747Y-79539523D01*
X68383747Y-79539523D02*
X68621842Y-79539523D01*
X68621842Y-79539523D02*
X68717080Y-79491904D01*
X68717080Y-79491904D02*
X68764700Y-79444285D01*
X68764700Y-79444285D02*
X68812319Y-79349047D01*
X68812319Y-79349047D02*
X68812319Y-79063333D01*
X68812319Y-79063333D02*
X68764700Y-78968095D01*
X68764700Y-78968095D02*
X68717080Y-78920476D01*
X67812319Y-80158571D02*
X67812319Y-80253809D01*
X67812319Y-80253809D02*
X67859938Y-80349047D01*
X67859938Y-80349047D02*
X67907557Y-80396666D01*
X67907557Y-80396666D02*
X68002795Y-80444285D01*
X68002795Y-80444285D02*
X68193271Y-80491904D01*
X68193271Y-80491904D02*
X68431366Y-80491904D01*
X68431366Y-80491904D02*
X68621842Y-80444285D01*
X68621842Y-80444285D02*
X68717080Y-80396666D01*
X68717080Y-80396666D02*
X68764700Y-80349047D01*
X68764700Y-80349047D02*
X68812319Y-80253809D01*
X68812319Y-80253809D02*
X68812319Y-80158571D01*
X68812319Y-80158571D02*
X68764700Y-80063333D01*
X68764700Y-80063333D02*
X68717080Y-80015714D01*
X68717080Y-80015714D02*
X68621842Y-79968095D01*
X68621842Y-79968095D02*
X68431366Y-79920476D01*
X68431366Y-79920476D02*
X68193271Y-79920476D01*
X68193271Y-79920476D02*
X68002795Y-79968095D01*
X68002795Y-79968095D02*
X67907557Y-80015714D01*
X67907557Y-80015714D02*
X67859938Y-80063333D01*
X67859938Y-80063333D02*
X67812319Y-80158571D01*
X116437319Y-97065714D02*
X115437319Y-97065714D01*
X115437319Y-97065714D02*
X115437319Y-97303809D01*
X115437319Y-97303809D02*
X115484938Y-97446666D01*
X115484938Y-97446666D02*
X115580176Y-97541904D01*
X115580176Y-97541904D02*
X115675414Y-97589523D01*
X115675414Y-97589523D02*
X115865890Y-97637142D01*
X115865890Y-97637142D02*
X116008747Y-97637142D01*
X116008747Y-97637142D02*
X116199223Y-97589523D01*
X116199223Y-97589523D02*
X116294461Y-97541904D01*
X116294461Y-97541904D02*
X116389700Y-97446666D01*
X116389700Y-97446666D02*
X116437319Y-97303809D01*
X116437319Y-97303809D02*
X116437319Y-97065714D01*
X115770652Y-98494285D02*
X116437319Y-98494285D01*
X115389700Y-98256190D02*
X116103985Y-98018095D01*
X116103985Y-98018095D02*
X116103985Y-98637142D01*
X115437319Y-98922857D02*
X115437319Y-99589523D01*
X115437319Y-99589523D02*
X116437319Y-99160952D01*
X149774819Y-40391905D02*
X148774819Y-40391905D01*
X148774819Y-40391905D02*
X148774819Y-40630000D01*
X148774819Y-40630000D02*
X148822438Y-40772857D01*
X148822438Y-40772857D02*
X148917676Y-40868095D01*
X148917676Y-40868095D02*
X149012914Y-40915714D01*
X149012914Y-40915714D02*
X149203390Y-40963333D01*
X149203390Y-40963333D02*
X149346247Y-40963333D01*
X149346247Y-40963333D02*
X149536723Y-40915714D01*
X149536723Y-40915714D02*
X149631961Y-40868095D01*
X149631961Y-40868095D02*
X149727200Y-40772857D01*
X149727200Y-40772857D02*
X149774819Y-40630000D01*
X149774819Y-40630000D02*
X149774819Y-40391905D01*
X148774819Y-41296667D02*
X148774819Y-41963333D01*
X148774819Y-41963333D02*
X149774819Y-41534762D01*
X276644285Y-45634819D02*
X276644285Y-44634819D01*
X276644285Y-44634819D02*
X276406190Y-44634819D01*
X276406190Y-44634819D02*
X276263333Y-44682438D01*
X276263333Y-44682438D02*
X276168095Y-44777676D01*
X276168095Y-44777676D02*
X276120476Y-44872914D01*
X276120476Y-44872914D02*
X276072857Y-45063390D01*
X276072857Y-45063390D02*
X276072857Y-45206247D01*
X276072857Y-45206247D02*
X276120476Y-45396723D01*
X276120476Y-45396723D02*
X276168095Y-45491961D01*
X276168095Y-45491961D02*
X276263333Y-45587200D01*
X276263333Y-45587200D02*
X276406190Y-45634819D01*
X276406190Y-45634819D02*
X276644285Y-45634819D01*
X275120476Y-45634819D02*
X275691904Y-45634819D01*
X275406190Y-45634819D02*
X275406190Y-44634819D01*
X275406190Y-44634819D02*
X275501428Y-44777676D01*
X275501428Y-44777676D02*
X275596666Y-44872914D01*
X275596666Y-44872914D02*
X275691904Y-44920533D01*
X274263333Y-44968152D02*
X274263333Y-45634819D01*
X274501428Y-44587200D02*
X274739523Y-45301485D01*
X274739523Y-45301485D02*
X274120476Y-45301485D01*
X145012319Y-78015714D02*
X144012319Y-78015714D01*
X144012319Y-78015714D02*
X144012319Y-78253809D01*
X144012319Y-78253809D02*
X144059938Y-78396666D01*
X144059938Y-78396666D02*
X144155176Y-78491904D01*
X144155176Y-78491904D02*
X144250414Y-78539523D01*
X144250414Y-78539523D02*
X144440890Y-78587142D01*
X144440890Y-78587142D02*
X144583747Y-78587142D01*
X144583747Y-78587142D02*
X144774223Y-78539523D01*
X144774223Y-78539523D02*
X144869461Y-78491904D01*
X144869461Y-78491904D02*
X144964700Y-78396666D01*
X144964700Y-78396666D02*
X145012319Y-78253809D01*
X145012319Y-78253809D02*
X145012319Y-78015714D01*
X144012319Y-78920476D02*
X144012319Y-79539523D01*
X144012319Y-79539523D02*
X144393271Y-79206190D01*
X144393271Y-79206190D02*
X144393271Y-79349047D01*
X144393271Y-79349047D02*
X144440890Y-79444285D01*
X144440890Y-79444285D02*
X144488509Y-79491904D01*
X144488509Y-79491904D02*
X144583747Y-79539523D01*
X144583747Y-79539523D02*
X144821842Y-79539523D01*
X144821842Y-79539523D02*
X144917080Y-79491904D01*
X144917080Y-79491904D02*
X144964700Y-79444285D01*
X144964700Y-79444285D02*
X145012319Y-79349047D01*
X145012319Y-79349047D02*
X145012319Y-79063333D01*
X145012319Y-79063333D02*
X144964700Y-78968095D01*
X144964700Y-78968095D02*
X144917080Y-78920476D01*
X144345652Y-80396666D02*
X145012319Y-80396666D01*
X143964700Y-80158571D02*
X144678985Y-79920476D01*
X144678985Y-79920476D02*
X144678985Y-80539523D01*
X264599819Y-110545714D02*
X263599819Y-110545714D01*
X263599819Y-110545714D02*
X263599819Y-110783809D01*
X263599819Y-110783809D02*
X263647438Y-110926666D01*
X263647438Y-110926666D02*
X263742676Y-111021904D01*
X263742676Y-111021904D02*
X263837914Y-111069523D01*
X263837914Y-111069523D02*
X264028390Y-111117142D01*
X264028390Y-111117142D02*
X264171247Y-111117142D01*
X264171247Y-111117142D02*
X264361723Y-111069523D01*
X264361723Y-111069523D02*
X264456961Y-111021904D01*
X264456961Y-111021904D02*
X264552200Y-110926666D01*
X264552200Y-110926666D02*
X264599819Y-110783809D01*
X264599819Y-110783809D02*
X264599819Y-110545714D01*
X263599819Y-111974285D02*
X263599819Y-111783809D01*
X263599819Y-111783809D02*
X263647438Y-111688571D01*
X263647438Y-111688571D02*
X263695057Y-111640952D01*
X263695057Y-111640952D02*
X263837914Y-111545714D01*
X263837914Y-111545714D02*
X264028390Y-111498095D01*
X264028390Y-111498095D02*
X264409342Y-111498095D01*
X264409342Y-111498095D02*
X264504580Y-111545714D01*
X264504580Y-111545714D02*
X264552200Y-111593333D01*
X264552200Y-111593333D02*
X264599819Y-111688571D01*
X264599819Y-111688571D02*
X264599819Y-111879047D01*
X264599819Y-111879047D02*
X264552200Y-111974285D01*
X264552200Y-111974285D02*
X264504580Y-112021904D01*
X264504580Y-112021904D02*
X264409342Y-112069523D01*
X264409342Y-112069523D02*
X264171247Y-112069523D01*
X264171247Y-112069523D02*
X264076009Y-112021904D01*
X264076009Y-112021904D02*
X264028390Y-111974285D01*
X264028390Y-111974285D02*
X263980771Y-111879047D01*
X263980771Y-111879047D02*
X263980771Y-111688571D01*
X263980771Y-111688571D02*
X264028390Y-111593333D01*
X264028390Y-111593333D02*
X264076009Y-111545714D01*
X264076009Y-111545714D02*
X264171247Y-111498095D01*
X263599819Y-112402857D02*
X263599819Y-113021904D01*
X263599819Y-113021904D02*
X263980771Y-112688571D01*
X263980771Y-112688571D02*
X263980771Y-112831428D01*
X263980771Y-112831428D02*
X264028390Y-112926666D01*
X264028390Y-112926666D02*
X264076009Y-112974285D01*
X264076009Y-112974285D02*
X264171247Y-113021904D01*
X264171247Y-113021904D02*
X264409342Y-113021904D01*
X264409342Y-113021904D02*
X264504580Y-112974285D01*
X264504580Y-112974285D02*
X264552200Y-112926666D01*
X264552200Y-112926666D02*
X264599819Y-112831428D01*
X264599819Y-112831428D02*
X264599819Y-112545714D01*
X264599819Y-112545714D02*
X264552200Y-112450476D01*
X264552200Y-112450476D02*
X264504580Y-112402857D01*
X92624819Y-40391905D02*
X91624819Y-40391905D01*
X91624819Y-40391905D02*
X91624819Y-40630000D01*
X91624819Y-40630000D02*
X91672438Y-40772857D01*
X91672438Y-40772857D02*
X91767676Y-40868095D01*
X91767676Y-40868095D02*
X91862914Y-40915714D01*
X91862914Y-40915714D02*
X92053390Y-40963333D01*
X92053390Y-40963333D02*
X92196247Y-40963333D01*
X92196247Y-40963333D02*
X92386723Y-40915714D01*
X92386723Y-40915714D02*
X92481961Y-40868095D01*
X92481961Y-40868095D02*
X92577200Y-40772857D01*
X92577200Y-40772857D02*
X92624819Y-40630000D01*
X92624819Y-40630000D02*
X92624819Y-40391905D01*
X91958152Y-41820476D02*
X92624819Y-41820476D01*
X91577200Y-41582381D02*
X92291485Y-41344286D01*
X92291485Y-41344286D02*
X92291485Y-41963333D01*
D11*
%TO.C,S54*%
X248312500Y-88350000D02*
X253412500Y-88350000D01*
X252212500Y-92550000D02*
X257312500Y-92550000D01*
X246312500Y-90350000D02*
G75*
G02*
X248312500Y-88350000I1999999J1D01*
G01*
X250212500Y-94550000D02*
G75*
G02*
X252212500Y-92550000I1999999J1D01*
G01*
%TO.C,S61*%
X226881250Y-107400000D02*
X231981250Y-107400000D01*
X230781250Y-111600000D02*
X235881250Y-111600000D01*
X224881250Y-109400000D02*
G75*
G02*
X226881250Y-107400000I1999999J1D01*
G01*
X228781250Y-113600000D02*
G75*
G02*
X230781250Y-111600000I1999999J1D01*
G01*
%TO.C,S62*%
X245512500Y-118400000D02*
X245512500Y-113300000D01*
X249712500Y-114500000D02*
X249712500Y-109400000D01*
X247512500Y-120400000D02*
G75*
G02*
X245512500Y-118400000I-1J1999999D01*
G01*
X251712500Y-116500000D02*
G75*
G02*
X249712500Y-114500000I-1J1999999D01*
G01*
%TO.C,S52*%
X210212500Y-88350000D02*
X215312500Y-88350000D01*
X214112500Y-92550000D02*
X219212500Y-92550000D01*
X208212500Y-90350000D02*
G75*
G02*
X210212500Y-88350000I1999999J1D01*
G01*
X212112500Y-94550000D02*
G75*
G02*
X214112500Y-92550000I1999999J1D01*
G01*
%TO.C,S56*%
X307500000Y-95050000D02*
X307500000Y-100150000D01*
X311700000Y-91150000D02*
X311700000Y-96250000D01*
X305500000Y-93050000D02*
G75*
G02*
X307500000Y-95050000I1J-1999999D01*
G01*
X309700000Y-89150000D02*
G75*
G02*
X311700000Y-91150000I1J-1999999D01*
G01*
%TO.C,S57*%
X45562500Y-114100000D02*
X45562500Y-119200000D01*
X49762500Y-110200000D02*
X49762500Y-115300000D01*
X43562500Y-112100000D02*
G75*
G02*
X45562500Y-114100000I1J-1999999D01*
G01*
X47762500Y-108200000D02*
G75*
G02*
X49762500Y-110200000I1J-1999999D01*
G01*
%TO.C,S16*%
X62575000Y-50250000D02*
X67675000Y-50250000D01*
X66475000Y-54450000D02*
X71575000Y-54450000D01*
X60575000Y-52250000D02*
G75*
G02*
X62575000Y-50250000I1999999J1D01*
G01*
X64475000Y-56450000D02*
G75*
G02*
X66475000Y-54450000I1999999J1D01*
G01*
%TO.C,S10*%
X205450000Y-31200000D02*
X210550000Y-31200000D01*
X209350000Y-35400000D02*
X214450000Y-35400000D01*
X203450000Y-33200000D02*
G75*
G02*
X205450000Y-31200000I1999999J1D01*
G01*
X207350000Y-37400000D02*
G75*
G02*
X209350000Y-35400000I1999999J1D01*
G01*
%TO.C,S56*%
X290831250Y-95050000D02*
X290831250Y-100150000D01*
X295031250Y-91150000D02*
X295031250Y-96250000D01*
X288831250Y-93050000D02*
G75*
G02*
X290831250Y-95050000I1J-1999999D01*
G01*
X293031250Y-89150000D02*
G75*
G02*
X295031250Y-91150000I1J-1999999D01*
G01*
%TO.C,S14*%
X291175000Y-31200000D02*
X296275000Y-31200000D01*
X295075000Y-35400000D02*
X300175000Y-35400000D01*
X289175000Y-33200000D02*
G75*
G02*
X291175000Y-31200000I1999999J1D01*
G01*
X293075000Y-37400000D02*
G75*
G02*
X295075000Y-35400000I1999999J1D01*
G01*
%TO.C,S64*%
X305118750Y-114100000D02*
X305118750Y-119200000D01*
X309318750Y-110200000D02*
X309318750Y-115300000D01*
X303118750Y-112100000D02*
G75*
G02*
X305118750Y-114100000I1J-1999999D01*
G01*
X307318750Y-108200000D02*
G75*
G02*
X309318750Y-110200000I1J-1999999D01*
G01*
%TO.C,S24*%
X214975000Y-50250000D02*
X220075000Y-50250000D01*
X218875000Y-54450000D02*
X223975000Y-54450000D01*
X212975000Y-52250000D02*
G75*
G02*
X214975000Y-50250000I1999999J1D01*
G01*
X216875000Y-56450000D02*
G75*
G02*
X218875000Y-54450000I1999999J1D01*
G01*
%TO.C,S62*%
X257493750Y-114100000D02*
X257493750Y-119200000D01*
X261693750Y-110200000D02*
X261693750Y-115300000D01*
X255493750Y-112100000D02*
G75*
G02*
X257493750Y-114100000I1J-1999999D01*
G01*
X259693750Y-108200000D02*
G75*
G02*
X261693750Y-110200000I1J-1999999D01*
G01*
%TO.C,S47*%
X114962500Y-88350000D02*
X120062500Y-88350000D01*
X118862500Y-92550000D02*
X123962500Y-92550000D01*
X112962500Y-90350000D02*
G75*
G02*
X114962500Y-88350000I1999999J1D01*
G01*
X116862500Y-94550000D02*
G75*
G02*
X118862500Y-92550000I1999999J1D01*
G01*
%TO.C,S29*%
X33581250Y-80300000D02*
X33581250Y-75200000D01*
X37781250Y-76400000D02*
X37781250Y-71300000D01*
X35581250Y-82300000D02*
G75*
G02*
X33581250Y-80300000I-1J1999999D01*
G01*
X39781250Y-78400000D02*
G75*
G02*
X37781250Y-76400000I-1J1999999D01*
G01*
%TO.C,S30*%
X67337500Y-69300000D02*
X72437500Y-69300000D01*
X71237500Y-73500000D02*
X76337500Y-73500000D01*
X65337500Y-71300000D02*
G75*
G02*
X67337500Y-69300000I1999999J1D01*
G01*
X69237500Y-75500000D02*
G75*
G02*
X71237500Y-73500000I1999999J1D01*
G01*
%TO.C,S64*%
X293137500Y-118400000D02*
X293137500Y-113300000D01*
X297337500Y-114500000D02*
X297337500Y-109400000D01*
X295137500Y-120400000D02*
G75*
G02*
X293137500Y-118400000I-1J1999999D01*
G01*
X299337500Y-116500000D02*
G75*
G02*
X297337500Y-114500000I-1J1999999D01*
G01*
%TO.C,S33*%
X124487500Y-69300000D02*
X129587500Y-69300000D01*
X128387500Y-73500000D02*
X133487500Y-73500000D01*
X122487500Y-71300000D02*
G75*
G02*
X124487500Y-69300000I1999999J1D01*
G01*
X126387500Y-75500000D02*
G75*
G02*
X128387500Y-73500000I1999999J1D01*
G01*
%TO.C,S63*%
X269325000Y-118400000D02*
X269325000Y-113300000D01*
X273525000Y-114500000D02*
X273525000Y-109400000D01*
X271325000Y-120400000D02*
G75*
G02*
X269325000Y-118400000I-1J1999999D01*
G01*
X275525000Y-116500000D02*
G75*
G02*
X273525000Y-114500000I-1J1999999D01*
G01*
%TO.C,S7*%
X148300000Y-31200000D02*
X153400000Y-31200000D01*
X152200000Y-35400000D02*
X157300000Y-35400000D01*
X146300000Y-33200000D02*
G75*
G02*
X148300000Y-31200000I1999999J1D01*
G01*
X150200000Y-37400000D02*
G75*
G02*
X152200000Y-35400000I1999999J1D01*
G01*
%TO.C,S60*%
X171650000Y-117000000D02*
X166550000Y-117000000D01*
X175550000Y-121200000D02*
X170450000Y-121200000D01*
X173650000Y-115000000D02*
G75*
G02*
X171650000Y-117000000I-1999999J-1D01*
G01*
X177550000Y-119200000D02*
G75*
G02*
X175550000Y-121200000I-1999999J-1D01*
G01*
%TO.C,S23*%
X195925000Y-50250000D02*
X201025000Y-50250000D01*
X199825000Y-54450000D02*
X204925000Y-54450000D01*
X193925000Y-52250000D02*
G75*
G02*
X195925000Y-50250000I1999999J1D01*
G01*
X197825000Y-56450000D02*
G75*
G02*
X199825000Y-54450000I1999999J1D01*
G01*
%TO.C,S26*%
X253075000Y-50250000D02*
X258175000Y-50250000D01*
X256975000Y-54450000D02*
X262075000Y-54450000D01*
X251075000Y-52250000D02*
G75*
G02*
X253075000Y-50250000I1999999J1D01*
G01*
X254975000Y-56450000D02*
G75*
G02*
X256975000Y-54450000I1999999J1D01*
G01*
%TO.C,S48*%
X134012500Y-88350000D02*
X139112500Y-88350000D01*
X137912500Y-92550000D02*
X143012500Y-92550000D01*
X132012500Y-90350000D02*
G75*
G02*
X134012500Y-88350000I1999999J1D01*
G01*
X135912500Y-94550000D02*
G75*
G02*
X137912500Y-92550000I1999999J1D01*
G01*
%TO.C,S58*%
X69375000Y-114100000D02*
X69375000Y-119200000D01*
X73575000Y-110200000D02*
X73575000Y-115300000D01*
X67375000Y-112100000D02*
G75*
G02*
X69375000Y-114100000I1J-1999999D01*
G01*
X71575000Y-108200000D02*
G75*
G02*
X73575000Y-110200000I1J-1999999D01*
G01*
%TO.C,S50*%
X172112500Y-88350000D02*
X177212500Y-88350000D01*
X176012500Y-92550000D02*
X181112500Y-92550000D01*
X170112500Y-90350000D02*
G75*
G02*
X172112500Y-88350000I1999999J1D01*
G01*
X174012500Y-94550000D02*
G75*
G02*
X176012500Y-92550000I1999999J1D01*
G01*
%TO.C,S63*%
X281306250Y-114100000D02*
X281306250Y-119200000D01*
X285506250Y-110200000D02*
X285506250Y-115300000D01*
X279306250Y-112100000D02*
G75*
G02*
X281306250Y-114100000I1J-1999999D01*
G01*
X283506250Y-108200000D02*
G75*
G02*
X285506250Y-110200000I1J-1999999D01*
G01*
%TO.C,S29*%
X47943750Y-76000000D02*
X47943750Y-81100000D01*
X52143750Y-72100000D02*
X52143750Y-77200000D01*
X45943750Y-74000000D02*
G75*
G02*
X47943750Y-76000000I1J-1999999D01*
G01*
X50143750Y-70100000D02*
G75*
G02*
X52143750Y-72100000I1J-1999999D01*
G01*
%TO.C,S36*%
X181637500Y-69300000D02*
X186737500Y-69300000D01*
X185537500Y-73500000D02*
X190637500Y-73500000D01*
X179637500Y-71300000D02*
G75*
G02*
X181637500Y-69300000I1999999J1D01*
G01*
X183537500Y-75500000D02*
G75*
G02*
X185537500Y-73500000I1999999J1D01*
G01*
%TO.C,S55*%
X281306250Y-95050000D02*
X281306250Y-100150000D01*
X285506250Y-91150000D02*
X285506250Y-96250000D01*
X279306250Y-93050000D02*
G75*
G02*
X281306250Y-95050000I1J-1999999D01*
G01*
X283506250Y-89150000D02*
G75*
G02*
X285506250Y-91150000I1J-1999999D01*
G01*
%TO.C,S53*%
X229262500Y-88350000D02*
X234362500Y-88350000D01*
X233162500Y-92550000D02*
X238262500Y-92550000D01*
X227262500Y-90350000D02*
G75*
G02*
X229262500Y-88350000I1999999J1D01*
G01*
X231162500Y-94550000D02*
G75*
G02*
X233162500Y-92550000I1999999J1D01*
G01*
%TO.C,S41*%
X295518750Y-70775000D02*
X295518750Y-65675000D01*
X299718750Y-66875000D02*
X299718750Y-61775000D01*
X297518750Y-72775000D02*
G75*
G02*
X295518750Y-70775000I-1J1999999D01*
G01*
X301718750Y-68875000D02*
G75*
G02*
X299718750Y-66875000I-1J1999999D01*
G01*
%TO.C,S4*%
X91150000Y-31200000D02*
X96250000Y-31200000D01*
X95050000Y-35400000D02*
X100150000Y-35400000D01*
X89150000Y-33200000D02*
G75*
G02*
X91150000Y-31200000I1999999J1D01*
G01*
X93050000Y-37400000D02*
G75*
G02*
X95050000Y-35400000I1999999J1D01*
G01*
%TO.C,S11*%
X224500000Y-31200000D02*
X229600000Y-31200000D01*
X228400000Y-35400000D02*
X233500000Y-35400000D01*
X222500000Y-33200000D02*
G75*
G02*
X224500000Y-31200000I1999999J1D01*
G01*
X226400000Y-37400000D02*
G75*
G02*
X228400000Y-35400000I1999999J1D01*
G01*
%TO.C,S3*%
X72100000Y-31200000D02*
X77200000Y-31200000D01*
X76000000Y-35400000D02*
X81100000Y-35400000D01*
X70100000Y-33200000D02*
G75*
G02*
X72100000Y-31200000I1999999J1D01*
G01*
X74000000Y-37400000D02*
G75*
G02*
X76000000Y-35400000I1999999J1D01*
G01*
%TO.C,S37*%
X200687500Y-69300000D02*
X205787500Y-69300000D01*
X204587500Y-73500000D02*
X209687500Y-73500000D01*
X198687500Y-71300000D02*
G75*
G02*
X200687500Y-69300000I1999999J1D01*
G01*
X202587500Y-75500000D02*
G75*
G02*
X204587500Y-73500000I1999999J1D01*
G01*
%TO.C,S27*%
X272125000Y-50250000D02*
X277225000Y-50250000D01*
X276025000Y-54450000D02*
X281125000Y-54450000D01*
X270125000Y-52250000D02*
G75*
G02*
X272125000Y-50250000I1999999J1D01*
G01*
X274025000Y-56450000D02*
G75*
G02*
X276025000Y-54450000I1999999J1D01*
G01*
%TO.C,S13*%
X262600000Y-31200000D02*
X267700000Y-31200000D01*
X266500000Y-35400000D02*
X271600000Y-35400000D01*
X260600000Y-33200000D02*
G75*
G02*
X262600000Y-31200000I1999999J1D01*
G01*
X264500000Y-37400000D02*
G75*
G02*
X266500000Y-35400000I1999999J1D01*
G01*
%TO.C,S49*%
X153062500Y-88350000D02*
X158162500Y-88350000D01*
X156962500Y-92550000D02*
X162062500Y-92550000D01*
X151062500Y-90350000D02*
G75*
G02*
X153062500Y-88350000I1999999J1D01*
G01*
X154962500Y-94550000D02*
G75*
G02*
X156962500Y-92550000I1999999J1D01*
G01*
%TO.C,S38*%
X219737500Y-69300000D02*
X224837500Y-69300000D01*
X223637500Y-73500000D02*
X228737500Y-73500000D01*
X217737500Y-71300000D02*
G75*
G02*
X219737500Y-69300000I1999999J1D01*
G01*
X221637500Y-75500000D02*
G75*
G02*
X223637500Y-73500000I1999999J1D01*
G01*
%TO.C,S5*%
X110200000Y-31200000D02*
X115300000Y-31200000D01*
X114100000Y-35400000D02*
X119200000Y-35400000D01*
X108200000Y-33200000D02*
G75*
G02*
X110200000Y-31200000I1999999J1D01*
G01*
X112100000Y-37400000D02*
G75*
G02*
X114100000Y-35400000I1999999J1D01*
G01*
%TO.C,S1*%
X38300000Y-40800000D02*
X33200000Y-40800000D01*
X42200000Y-45000000D02*
X37100000Y-45000000D01*
X40300000Y-38800000D02*
G75*
G02*
X38300000Y-40800000I-1999999J-1D01*
G01*
X44200000Y-43000000D02*
G75*
G02*
X42200000Y-45000000I-1999999J-1D01*
G01*
%TO.C,S39*%
X238787500Y-69300000D02*
X243887500Y-69300000D01*
X242687500Y-73500000D02*
X247787500Y-73500000D01*
X236787500Y-71300000D02*
G75*
G02*
X238787500Y-69300000I1999999J1D01*
G01*
X240687500Y-75500000D02*
G75*
G02*
X242687500Y-73500000I1999999J1D01*
G01*
%TO.C,S8*%
X167350000Y-31200000D02*
X172450000Y-31200000D01*
X171250000Y-35400000D02*
X176350000Y-35400000D01*
X165350000Y-33200000D02*
G75*
G02*
X167350000Y-31200000I1999999J1D01*
G01*
X169250000Y-37400000D02*
G75*
G02*
X171250000Y-35400000I1999999J1D01*
G01*
%TO.C,S9*%
X186400000Y-31200000D02*
X191500000Y-31200000D01*
X190300000Y-35400000D02*
X195400000Y-35400000D01*
X184400000Y-33200000D02*
G75*
G02*
X186400000Y-31200000I1999999J1D01*
G01*
X188300000Y-37400000D02*
G75*
G02*
X190300000Y-35400000I1999999J1D01*
G01*
%TO.C,S59*%
X81206250Y-118400000D02*
X81206250Y-113300000D01*
X85406250Y-114500000D02*
X85406250Y-109400000D01*
X83206250Y-120400000D02*
G75*
G02*
X81206250Y-118400000I-1J1999999D01*
G01*
X87406250Y-116500000D02*
G75*
G02*
X85406250Y-114500000I-1J1999999D01*
G01*
%TO.C,S32*%
X105437500Y-69300000D02*
X110537500Y-69300000D01*
X109337500Y-73500000D02*
X114437500Y-73500000D01*
X103437500Y-71300000D02*
G75*
G02*
X105437500Y-69300000I1999999J1D01*
G01*
X107337500Y-75500000D02*
G75*
G02*
X109337500Y-73500000I1999999J1D01*
G01*
%TO.C,S17*%
X81625000Y-50250000D02*
X86725000Y-50250000D01*
X85525000Y-54450000D02*
X90625000Y-54450000D01*
X79625000Y-52250000D02*
G75*
G02*
X81625000Y-50250000I1999999J1D01*
G01*
X83525000Y-56450000D02*
G75*
G02*
X85525000Y-54450000I1999999J1D01*
G01*
%TO.C,S2*%
X57350000Y-40800000D02*
X52250000Y-40800000D01*
X61250000Y-45000000D02*
X56150000Y-45000000D01*
X59350000Y-38800000D02*
G75*
G02*
X57350000Y-40800000I-1999999J-1D01*
G01*
X63250000Y-43000000D02*
G75*
G02*
X61250000Y-45000000I-1999999J-1D01*
G01*
%TO.C,S58*%
X57393750Y-118400000D02*
X57393750Y-113300000D01*
X61593750Y-114500000D02*
X61593750Y-109400000D01*
X59393750Y-120400000D02*
G75*
G02*
X57393750Y-118400000I-1J1999999D01*
G01*
X63593750Y-116500000D02*
G75*
G02*
X61593750Y-114500000I-1J1999999D01*
G01*
%TO.C,S15*%
X38762500Y-50250000D02*
X43862500Y-50250000D01*
X42662500Y-54450000D02*
X47762500Y-54450000D01*
X36762500Y-52250000D02*
G75*
G02*
X38762500Y-50250000I1999999J1D01*
G01*
X40662500Y-56450000D02*
G75*
G02*
X42662500Y-54450000I1999999J1D01*
G01*
%TO.C,S14*%
X285950000Y-40800000D02*
X280850000Y-40800000D01*
X289850000Y-45000000D02*
X284750000Y-45000000D01*
X287950000Y-38800000D02*
G75*
G02*
X285950000Y-40800000I-1999999J-1D01*
G01*
X291850000Y-43000000D02*
G75*
G02*
X289850000Y-45000000I-1999999J-1D01*
G01*
%TO.C,S51*%
X191162500Y-88350000D02*
X196262500Y-88350000D01*
X195062500Y-92550000D02*
X200162500Y-92550000D01*
X189162500Y-90350000D02*
G75*
G02*
X191162500Y-88350000I1999999J1D01*
G01*
X193062500Y-94550000D02*
G75*
G02*
X195062500Y-92550000I1999999J1D01*
G01*
%TO.C,S43*%
X36381250Y-88350000D02*
X41481250Y-88350000D01*
X40281250Y-92550000D02*
X45381250Y-92550000D01*
X34381250Y-90350000D02*
G75*
G02*
X36381250Y-88350000I1999999J1D01*
G01*
X38281250Y-94550000D02*
G75*
G02*
X40281250Y-92550000I1999999J1D01*
G01*
%TO.C,S41*%
X285993750Y-80300000D02*
X285993750Y-75200000D01*
X290193750Y-76400000D02*
X290193750Y-71300000D01*
X287993750Y-82300000D02*
G75*
G02*
X285993750Y-80300000I-1J1999999D01*
G01*
X292193750Y-78400000D02*
G75*
G02*
X290193750Y-76400000I-1J1999999D01*
G01*
%TO.C,S34*%
X143537500Y-69300000D02*
X148637500Y-69300000D01*
X147437500Y-73500000D02*
X152537500Y-73500000D01*
X141537500Y-71300000D02*
G75*
G02*
X143537500Y-69300000I1999999J1D01*
G01*
X145437500Y-75500000D02*
G75*
G02*
X147437500Y-73500000I1999999J1D01*
G01*
%TO.C,S40*%
X257837500Y-69300000D02*
X262937500Y-69300000D01*
X261737500Y-73500000D02*
X266837500Y-73500000D01*
X255837500Y-71300000D02*
G75*
G02*
X257837500Y-69300000I1999999J1D01*
G01*
X259737500Y-75500000D02*
G75*
G02*
X261737500Y-73500000I1999999J1D01*
G01*
%TO.C,S12*%
X243550000Y-31200000D02*
X248650000Y-31200000D01*
X247450000Y-35400000D02*
X252550000Y-35400000D01*
X241550000Y-33200000D02*
G75*
G02*
X243550000Y-31200000I1999999J1D01*
G01*
X245450000Y-37400000D02*
G75*
G02*
X247450000Y-35400000I1999999J1D01*
G01*
%TO.C,S57*%
X33581250Y-118400000D02*
X33581250Y-113300000D01*
X37781250Y-114500000D02*
X37781250Y-109400000D01*
X35581250Y-120400000D02*
G75*
G02*
X33581250Y-118400000I-1J1999999D01*
G01*
X39781250Y-116500000D02*
G75*
G02*
X37781250Y-114500000I-1J1999999D01*
G01*
%TO.C,S28*%
X274087500Y-80300000D02*
X274087500Y-75200000D01*
X278287500Y-76400000D02*
X278287500Y-71300000D01*
X276087500Y-82300000D02*
G75*
G02*
X274087500Y-80300000I-1J1999999D01*
G01*
X280287500Y-78400000D02*
G75*
G02*
X278287500Y-76400000I-1J1999999D01*
G01*
%TO.C,S18*%
X100675000Y-50250000D02*
X105775000Y-50250000D01*
X104575000Y-54450000D02*
X109675000Y-54450000D01*
X98675000Y-52250000D02*
G75*
G02*
X100675000Y-50250000I1999999J1D01*
G01*
X102575000Y-56450000D02*
G75*
G02*
X104575000Y-54450000I1999999J1D01*
G01*
%TO.C,S35*%
X162587500Y-69300000D02*
X167687500Y-69300000D01*
X166487500Y-73500000D02*
X171587500Y-73500000D01*
X160587500Y-71300000D02*
G75*
G02*
X162587500Y-69300000I1999999J1D01*
G01*
X164487500Y-75500000D02*
G75*
G02*
X166487500Y-73500000I1999999J1D01*
G01*
%TO.C,S21*%
X157825000Y-50250000D02*
X162925000Y-50250000D01*
X161725000Y-54450000D02*
X166825000Y-54450000D01*
X155825000Y-52250000D02*
G75*
G02*
X157825000Y-50250000I1999999J1D01*
G01*
X159725000Y-56450000D02*
G75*
G02*
X161725000Y-54450000I1999999J1D01*
G01*
%TO.C,S59*%
X93187500Y-114100000D02*
X93187500Y-119200000D01*
X97387500Y-110200000D02*
X97387500Y-115300000D01*
X91187500Y-112100000D02*
G75*
G02*
X93187500Y-114100000I1J-1999999D01*
G01*
X95387500Y-108200000D02*
G75*
G02*
X97387500Y-110200000I1J-1999999D01*
G01*
%TO.C,S22*%
X176875000Y-50250000D02*
X181975000Y-50250000D01*
X180775000Y-54450000D02*
X185875000Y-54450000D01*
X174875000Y-52250000D02*
G75*
G02*
X176875000Y-50250000I1999999J1D01*
G01*
X178775000Y-56450000D02*
G75*
G02*
X180775000Y-54450000I1999999J1D01*
G01*
%TO.C,S60*%
X155443750Y-107400000D02*
X160543750Y-107400000D01*
X159343750Y-111600000D02*
X164443750Y-111600000D01*
X153443750Y-109400000D02*
G75*
G02*
X155443750Y-107400000I1999999J1D01*
G01*
X157343750Y-113600000D02*
G75*
G02*
X159343750Y-111600000I1999999J1D01*
G01*
%TO.C,S42*%
X305000000Y-40800000D02*
X299900000Y-40800000D01*
X308900000Y-45000000D02*
X303800000Y-45000000D01*
X307000000Y-38800000D02*
G75*
G02*
X305000000Y-40800000I-1999999J-1D01*
G01*
X310900000Y-43000000D02*
G75*
G02*
X308900000Y-45000000I-1999999J-1D01*
G01*
%TO.C,S28*%
X302737500Y-56950000D02*
X302737500Y-62050000D01*
X306937500Y-53050000D02*
X306937500Y-58150000D01*
X300737500Y-54950000D02*
G75*
G02*
X302737500Y-56950000I1J-1999999D01*
G01*
X304937500Y-51050000D02*
G75*
G02*
X306937500Y-53050000I1J-1999999D01*
G01*
%TO.C,S19*%
X119725000Y-50250000D02*
X124825000Y-50250000D01*
X123625000Y-54450000D02*
X128725000Y-54450000D01*
X117725000Y-52250000D02*
G75*
G02*
X119725000Y-50250000I1999999J1D01*
G01*
X121625000Y-56450000D02*
G75*
G02*
X123625000Y-54450000I1999999J1D01*
G01*
%TO.C,S44*%
X57812500Y-88350000D02*
X62912500Y-88350000D01*
X61712500Y-92550000D02*
X66812500Y-92550000D01*
X55812500Y-90350000D02*
G75*
G02*
X57812500Y-88350000I1999999J1D01*
G01*
X59712500Y-94550000D02*
G75*
G02*
X61712500Y-92550000I1999999J1D01*
G01*
%TO.C,S20*%
X138775000Y-50250000D02*
X143875000Y-50250000D01*
X142675000Y-54450000D02*
X147775000Y-54450000D01*
X136775000Y-52250000D02*
G75*
G02*
X138775000Y-50250000I1999999J1D01*
G01*
X140675000Y-56450000D02*
G75*
G02*
X142675000Y-54450000I1999999J1D01*
G01*
%TO.C,S43*%
X50206250Y-97950000D02*
X45106250Y-97950000D01*
X54106250Y-102150000D02*
X49006250Y-102150000D01*
X52206250Y-95950000D02*
G75*
G02*
X50206250Y-97950000I-1999999J-1D01*
G01*
X56106250Y-100150000D02*
G75*
G02*
X54106250Y-102150000I-1999999J-1D01*
G01*
%TO.C,S6*%
X129250000Y-31200000D02*
X134350000Y-31200000D01*
X133150000Y-35400000D02*
X138250000Y-35400000D01*
X127250000Y-33200000D02*
G75*
G02*
X129250000Y-31200000I1999999J1D01*
G01*
X131150000Y-37400000D02*
G75*
G02*
X133150000Y-35400000I1999999J1D01*
G01*
%TO.C,S46*%
X95912500Y-88350000D02*
X101012500Y-88350000D01*
X99812500Y-92550000D02*
X104912500Y-92550000D01*
X93912500Y-90350000D02*
G75*
G02*
X95912500Y-88350000I1999999J1D01*
G01*
X97812500Y-94550000D02*
G75*
G02*
X99812500Y-92550000I1999999J1D01*
G01*
%TO.C,S31*%
X86387500Y-69300000D02*
X91487500Y-69300000D01*
X90287500Y-73500000D02*
X95387500Y-73500000D01*
X84387500Y-71300000D02*
G75*
G02*
X86387500Y-69300000I1999999J1D01*
G01*
X88287500Y-75500000D02*
G75*
G02*
X90287500Y-73500000I1999999J1D01*
G01*
%TO.C,S45*%
X76862500Y-88350000D02*
X81962500Y-88350000D01*
X80762500Y-92550000D02*
X85862500Y-92550000D01*
X74862500Y-90350000D02*
G75*
G02*
X76862500Y-88350000I1999999J1D01*
G01*
X78762500Y-94550000D02*
G75*
G02*
X80762500Y-92550000I1999999J1D01*
G01*
%TO.C,S25*%
X234025000Y-50250000D02*
X239125000Y-50250000D01*
X237925000Y-54450000D02*
X243025000Y-54450000D01*
X232025000Y-52250000D02*
G75*
G02*
X234025000Y-50250000I1999999J1D01*
G01*
X235925000Y-56450000D02*
G75*
G02*
X237925000Y-54450000I1999999J1D01*
G01*
%TO.C,C1*%
X105190000Y-112375336D02*
X105190000Y-112159664D01*
X105910000Y-112375336D02*
X105910000Y-112159664D01*
%TO.C,D40*%
X255857500Y-77580000D02*
X255857500Y-81590000D01*
X255857500Y-81590000D02*
X257857500Y-81590000D01*
X257857500Y-77580000D02*
X257857500Y-81590000D01*
%TO.C,D57*%
X51942500Y-118490000D02*
X51942500Y-114480000D01*
X53942500Y-114480000D02*
X51942500Y-114480000D01*
X53942500Y-118490000D02*
X53942500Y-114480000D01*
%TO.C,R6*%
X45520000Y-38508641D02*
X45520000Y-38201359D01*
X46280000Y-38508641D02*
X46280000Y-38201359D01*
%TO.C,D12*%
X241570000Y-39480000D02*
X241570000Y-43490000D01*
X241570000Y-43490000D02*
X243570000Y-43490000D01*
X243570000Y-39480000D02*
X243570000Y-43490000D01*
%TO.C,D37*%
X198707500Y-77580000D02*
X198707500Y-81590000D01*
X198707500Y-81590000D02*
X200707500Y-81590000D01*
X200707500Y-77580000D02*
X200707500Y-81590000D01*
%TO.C,D22*%
X174895000Y-58530000D02*
X174895000Y-62540000D01*
X174895000Y-62540000D02*
X176895000Y-62540000D01*
X176895000Y-58530000D02*
X176895000Y-62540000D01*
%TO.C,D25*%
X232045000Y-58530000D02*
X232045000Y-62540000D01*
X232045000Y-62540000D02*
X234045000Y-62540000D01*
X234045000Y-58530000D02*
X234045000Y-62540000D01*
%TO.C,D16*%
X60595000Y-58530000D02*
X60595000Y-62540000D01*
X60595000Y-62540000D02*
X62595000Y-62540000D01*
X62595000Y-58530000D02*
X62595000Y-62540000D01*
%TO.C,D64*%
X288957500Y-113410000D02*
X288957500Y-109400000D01*
X290957500Y-109400000D02*
X288957500Y-109400000D01*
X290957500Y-113410000D02*
X290957500Y-109400000D01*
%TO.C,C6*%
X142538529Y-116392836D02*
X142538529Y-116177164D01*
X143258529Y-116392836D02*
X143258529Y-116177164D01*
%TO.C,R3*%
X131677170Y-115475000D02*
X131369888Y-115475000D01*
X131677170Y-116235000D02*
X131369888Y-116235000D01*
%TO.C,C13*%
X136256365Y-119195000D02*
X136040693Y-119195000D01*
X136256365Y-119915000D02*
X136040693Y-119915000D01*
%TO.C,D24*%
X212995000Y-58530000D02*
X212995000Y-62540000D01*
X212995000Y-62540000D02*
X214995000Y-62540000D01*
X214995000Y-58530000D02*
X214995000Y-62540000D01*
%TO.C,D21*%
X155845000Y-58530000D02*
X155845000Y-62540000D01*
X155845000Y-62540000D02*
X157845000Y-62540000D01*
X157845000Y-58530000D02*
X157845000Y-62540000D01*
%TO.C,D44*%
X65342500Y-98930000D02*
X69352500Y-98930000D01*
X65342500Y-100930000D02*
X69352500Y-100930000D01*
X69352500Y-100930000D02*
X69352500Y-98930000D01*
%TO.C,D23*%
X193945000Y-58530000D02*
X193945000Y-62540000D01*
X193945000Y-62540000D02*
X195945000Y-62540000D01*
X195945000Y-58530000D02*
X195945000Y-62540000D01*
%TO.C,D36*%
X179657500Y-77580000D02*
X179657500Y-81590000D01*
X179657500Y-81590000D02*
X181657500Y-81590000D01*
X181657500Y-77580000D02*
X181657500Y-81590000D01*
%TO.C,D29*%
X53400000Y-77580000D02*
X53400000Y-81590000D01*
X53400000Y-81590000D02*
X55400000Y-81590000D01*
X55400000Y-77580000D02*
X55400000Y-81590000D01*
%TO.C,R4*%
X131677170Y-116475000D02*
X131369888Y-116475000D01*
X131677170Y-117235000D02*
X131369888Y-117235000D01*
%TO.C,C8*%
X131415693Y-117495000D02*
X131631365Y-117495000D01*
X131415693Y-118215000D02*
X131631365Y-118215000D01*
%TO.C,C9*%
X145638865Y-117095000D02*
X145423193Y-117095000D01*
X145638865Y-117815000D02*
X145423193Y-117815000D01*
%TO.C,J2*%
X111980000Y-108970000D02*
X111980000Y-111630000D01*
X111980000Y-108970000D02*
X114580000Y-108970000D01*
X111980000Y-111630000D02*
X114580000Y-111630000D01*
X114580000Y-108970000D02*
X114580000Y-111630000D01*
X117180000Y-110300000D02*
X117180000Y-111630000D01*
X117180000Y-111630000D02*
X115850000Y-111630000D01*
%TO.C,R1*%
X130857388Y-107385000D02*
X131164670Y-107385000D01*
X130857388Y-108145000D02*
X131164670Y-108145000D01*
%TO.C,D50*%
X170132500Y-96630000D02*
X170132500Y-100640000D01*
X170132500Y-100640000D02*
X172132500Y-100640000D01*
X172132500Y-96630000D02*
X172132500Y-100640000D01*
%TO.C,D2*%
X61230000Y-36720000D02*
X61230000Y-32710000D01*
X63230000Y-32710000D02*
X61230000Y-32710000D01*
X63230000Y-36720000D02*
X63230000Y-32710000D01*
%TO.C,D38*%
X217757500Y-77580000D02*
X217757500Y-81590000D01*
X217757500Y-81590000D02*
X219757500Y-81590000D01*
X219757500Y-77580000D02*
X219757500Y-81590000D01*
%TO.C,D1*%
X32020000Y-36720000D02*
X32020000Y-32710000D01*
X34020000Y-32710000D02*
X32020000Y-32710000D01*
X34020000Y-36720000D02*
X34020000Y-32710000D01*
%TO.C,U2*%
X121823529Y-106945000D02*
X124548529Y-106945000D01*
X121823529Y-107205000D02*
X121823529Y-106945000D01*
X121823529Y-112135000D02*
X121823529Y-112395000D01*
X121823529Y-112395000D02*
X124548529Y-112395000D01*
X127273529Y-106945000D02*
X124548529Y-106945000D01*
X127273529Y-107205000D02*
X127273529Y-106945000D01*
X127273529Y-112135000D02*
X127273529Y-112395000D01*
X127273529Y-112395000D02*
X124548529Y-112395000D01*
X128056029Y-107205000D02*
X127816029Y-106875000D01*
X128296029Y-106875000D01*
X128056029Y-107205000D01*
G36*
X128056029Y-107205000D02*
G01*
X127816029Y-106875000D01*
X128296029Y-106875000D01*
X128056029Y-107205000D01*
G37*
%TO.C,D28*%
X277460000Y-60830000D02*
X277460000Y-62830000D01*
X281470000Y-60830000D02*
X277460000Y-60830000D01*
X281470000Y-62830000D02*
X277460000Y-62830000D01*
%TO.C,D26*%
X251095000Y-58530000D02*
X251095000Y-62540000D01*
X251095000Y-62540000D02*
X253095000Y-62540000D01*
X253095000Y-58530000D02*
X253095000Y-62540000D01*
%TO.C,D58*%
X53213750Y-113410000D02*
X53213750Y-109400000D01*
X55213750Y-109400000D02*
X53213750Y-109400000D01*
X55213750Y-113410000D02*
X55213750Y-109400000D01*
%TO.C,C7*%
X130903193Y-113695000D02*
X131118865Y-113695000D01*
X130903193Y-114415000D02*
X131118865Y-114415000D01*
%TO.C,D61*%
X224901250Y-115680000D02*
X224901250Y-119690000D01*
X224901250Y-119690000D02*
X226901250Y-119690000D01*
X226901250Y-115680000D02*
X226901250Y-119690000D01*
%TO.C,D49*%
X151082500Y-96630000D02*
X151082500Y-100640000D01*
X151082500Y-100640000D02*
X153082500Y-100640000D01*
X153082500Y-96630000D02*
X153082500Y-100640000D01*
%TO.C,D54*%
X246332500Y-96630000D02*
X246332500Y-100640000D01*
X246332500Y-100640000D02*
X248332500Y-100640000D01*
X248332500Y-96630000D02*
X248332500Y-100640000D01*
%TO.C,D62*%
X241332500Y-113410000D02*
X241332500Y-109400000D01*
X243332500Y-109400000D02*
X241332500Y-109400000D01*
X243332500Y-113410000D02*
X243332500Y-109400000D01*
%TO.C,C5*%
X138838529Y-108947164D02*
X138838529Y-109162836D01*
X139558529Y-108947164D02*
X139558529Y-109162836D01*
%TO.C,C2*%
X147506365Y-111845000D02*
X147290693Y-111845000D01*
X147506365Y-112565000D02*
X147290693Y-112565000D01*
%TO.C,U4*%
X107650000Y-110227500D02*
X108450000Y-110227500D01*
X107650000Y-113347500D02*
X108450000Y-113347500D01*
X109250000Y-110227500D02*
X108450000Y-110227500D01*
X109250000Y-113347500D02*
X108450000Y-113347500D01*
X109750000Y-110277500D02*
X109510000Y-109947500D01*
X109990000Y-109947500D01*
X109750000Y-110277500D01*
G36*
X109750000Y-110277500D02*
G01*
X109510000Y-109947500D01*
X109990000Y-109947500D01*
X109750000Y-110277500D01*
G37*
%TO.C,D17*%
X79645000Y-58530000D02*
X79645000Y-62540000D01*
X79645000Y-62540000D02*
X81645000Y-62540000D01*
X81645000Y-58530000D02*
X81645000Y-62540000D01*
%TO.C,D43*%
X50151250Y-89170000D02*
X54161250Y-89170000D01*
X50151250Y-91170000D02*
X54161250Y-91170000D01*
X54161250Y-91170000D02*
X54161250Y-89170000D01*
%TO.C,Y1*%
X145398529Y-116105000D02*
X149398529Y-116105000D01*
X149398529Y-116105000D02*
X149398529Y-112805000D01*
%TO.C,D56*%
X298800000Y-96900000D02*
X298800000Y-92890000D01*
X300800000Y-92890000D02*
X298800000Y-92890000D01*
X300800000Y-96900000D02*
X300800000Y-92890000D01*
%TO.C,D45*%
X74882500Y-96630000D02*
X74882500Y-100640000D01*
X74882500Y-100640000D02*
X76882500Y-100640000D01*
X76882500Y-96630000D02*
X76882500Y-100640000D01*
%TO.C,D41*%
X270447500Y-77580000D02*
X270447500Y-81590000D01*
X270447500Y-81590000D02*
X272447500Y-81590000D01*
X272447500Y-77580000D02*
X272447500Y-81590000D01*
%TO.C,D46*%
X93932500Y-96630000D02*
X93932500Y-100640000D01*
X93932500Y-100640000D02*
X95932500Y-100640000D01*
X95932500Y-96630000D02*
X95932500Y-100640000D01*
%TO.C,D10*%
X203470000Y-39480000D02*
X203470000Y-43490000D01*
X203470000Y-43490000D02*
X205470000Y-43490000D01*
X205470000Y-39480000D02*
X205470000Y-43490000D01*
%TO.C,D52*%
X208232500Y-96630000D02*
X208232500Y-100640000D01*
X208232500Y-100640000D02*
X210232500Y-100640000D01*
X210232500Y-96630000D02*
X210232500Y-100640000D01*
%TO.C,D13*%
X260620000Y-39480000D02*
X260620000Y-43490000D01*
X260620000Y-43490000D02*
X262620000Y-43490000D01*
X262620000Y-39480000D02*
X262620000Y-43490000D01*
%TO.C,D18*%
X98695000Y-58530000D02*
X98695000Y-62540000D01*
X98695000Y-62540000D02*
X100695000Y-62540000D01*
X100695000Y-58530000D02*
X100695000Y-62540000D01*
%TO.C,D60*%
X153463750Y-115680000D02*
X153463750Y-119690000D01*
X153463750Y-119690000D02*
X155463750Y-119690000D01*
X155463750Y-115680000D02*
X155463750Y-119690000D01*
%TO.C,D33*%
X122507500Y-77580000D02*
X122507500Y-81590000D01*
X122507500Y-81590000D02*
X124507500Y-81590000D01*
X124507500Y-77580000D02*
X124507500Y-81590000D01*
%TO.C,D20*%
X136795000Y-58530000D02*
X136795000Y-62540000D01*
X136795000Y-62540000D02*
X138795000Y-62540000D01*
X138795000Y-58530000D02*
X138795000Y-62540000D01*
%TO.C,C14*%
X118340693Y-107405000D02*
X118556365Y-107405000D01*
X118340693Y-108125000D02*
X118556365Y-108125000D01*
%TO.C,D42*%
X294120000Y-46180000D02*
X294120000Y-48180000D01*
X298130000Y-46180000D02*
X294120000Y-46180000D01*
X298130000Y-48180000D02*
X294120000Y-48180000D01*
%TO.C,D19*%
X117745000Y-58530000D02*
X117745000Y-62540000D01*
X117745000Y-62540000D02*
X119745000Y-62540000D01*
X119745000Y-58530000D02*
X119745000Y-62540000D01*
%TO.C,D32*%
X103457500Y-77580000D02*
X103457500Y-81590000D01*
X103457500Y-81590000D02*
X105457500Y-81590000D01*
X105457500Y-77580000D02*
X105457500Y-81590000D01*
%TO.C,D27*%
X270145000Y-58530000D02*
X270145000Y-62540000D01*
X270145000Y-62540000D02*
X272145000Y-62540000D01*
X272145000Y-58530000D02*
X272145000Y-62540000D01*
%TO.C,C11*%
X132788529Y-119442836D02*
X132788529Y-119227164D01*
X133508529Y-119442836D02*
X133508529Y-119227164D01*
%TO.C,D15*%
X36782500Y-58530000D02*
X36782500Y-62540000D01*
X36782500Y-62540000D02*
X38782500Y-62540000D01*
X38782500Y-58530000D02*
X38782500Y-62540000D01*
%TO.C,D55*%
X269716250Y-89170000D02*
X269716250Y-91170000D01*
X273726250Y-89170000D02*
X269716250Y-89170000D01*
X273726250Y-91170000D02*
X269716250Y-91170000D01*
%TO.C,D6*%
X127270000Y-39480000D02*
X127270000Y-43490000D01*
X127270000Y-43490000D02*
X129270000Y-43490000D01*
X129270000Y-39480000D02*
X129270000Y-43490000D01*
%TO.C,R7*%
X48520000Y-38508641D02*
X48520000Y-38201359D01*
X49280000Y-38508641D02*
X49280000Y-38201359D01*
%TO.C,D59*%
X77026250Y-113410000D02*
X77026250Y-109400000D01*
X79026250Y-109400000D02*
X77026250Y-109400000D01*
X79026250Y-113410000D02*
X79026250Y-109400000D01*
%TO.C,D35*%
X160607500Y-77580000D02*
X160607500Y-81590000D01*
X160607500Y-81590000D02*
X162607500Y-81590000D01*
X162607500Y-77580000D02*
X162607500Y-81590000D01*
%TO.C,D3*%
X70120000Y-39480000D02*
X70120000Y-43490000D01*
X70120000Y-43490000D02*
X72120000Y-43490000D01*
X72120000Y-39480000D02*
X72120000Y-43490000D01*
%TO.C,D9*%
X184420000Y-39480000D02*
X184420000Y-43490000D01*
X184420000Y-43490000D02*
X186420000Y-43490000D01*
X186420000Y-39480000D02*
X186420000Y-43490000D01*
%TO.C,C12*%
X133715000Y-109197164D02*
X133715000Y-109412836D01*
X134435000Y-109197164D02*
X134435000Y-109412836D01*
%TO.C,D39*%
X236807500Y-77580000D02*
X236807500Y-81590000D01*
X236807500Y-81590000D02*
X238807500Y-81590000D01*
X238807500Y-77580000D02*
X238807500Y-81590000D01*
%TO.C,C3*%
X149688529Y-114347164D02*
X149688529Y-114562836D01*
X150408529Y-114347164D02*
X150408529Y-114562836D01*
%TO.C,C4*%
X112950000Y-113392164D02*
X112950000Y-113607836D01*
X113670000Y-113392164D02*
X113670000Y-113607836D01*
%TO.C,C16*%
X138040693Y-119195000D02*
X138256365Y-119195000D01*
X138040693Y-119915000D02*
X138256365Y-119915000D01*
%TO.C,D48*%
X132032500Y-96630000D02*
X132032500Y-100640000D01*
X132032500Y-100640000D02*
X134032500Y-100640000D01*
X134032500Y-96630000D02*
X134032500Y-100640000D01*
%TO.C,D31*%
X84407500Y-77580000D02*
X84407500Y-81590000D01*
X84407500Y-81590000D02*
X86407500Y-81590000D01*
X86407500Y-77580000D02*
X86407500Y-81590000D01*
%TO.C,D5*%
X108220000Y-39480000D02*
X108220000Y-43490000D01*
X108220000Y-43490000D02*
X110220000Y-43490000D01*
X110220000Y-39480000D02*
X110220000Y-43490000D01*
%TO.C,D8*%
X165370000Y-39480000D02*
X165370000Y-43490000D01*
X165370000Y-43490000D02*
X167370000Y-43490000D01*
X167370000Y-39480000D02*
X167370000Y-43490000D01*
%TO.C,J1*%
X42480000Y-34375000D02*
X42480000Y-32675000D01*
X51820000Y-34375000D02*
X51820000Y-32675000D01*
%TO.C,C15*%
X127903193Y-114695000D02*
X128118865Y-114695000D01*
X127903193Y-115415000D02*
X128118865Y-115415000D01*
%TO.C,D11*%
X222520000Y-39480000D02*
X222520000Y-43490000D01*
X222520000Y-43490000D02*
X224520000Y-43490000D01*
X224520000Y-39480000D02*
X224520000Y-43490000D01*
%TO.C,D51*%
X189182500Y-96630000D02*
X189182500Y-100640000D01*
X189182500Y-100640000D02*
X191182500Y-100640000D01*
X191182500Y-96630000D02*
X191182500Y-100640000D01*
%TO.C,D53*%
X227282500Y-96630000D02*
X227282500Y-100640000D01*
X227282500Y-100640000D02*
X229282500Y-100640000D01*
X229282500Y-96630000D02*
X229282500Y-100640000D01*
%TO.C,D30*%
X65357500Y-77580000D02*
X65357500Y-81590000D01*
X65357500Y-81590000D02*
X67357500Y-81590000D01*
X67357500Y-77580000D02*
X67357500Y-81590000D01*
%TO.C,U3*%
X134351029Y-111545000D02*
X134351029Y-111895000D01*
X134351029Y-118465000D02*
X134351029Y-117815000D01*
X134591029Y-111245000D02*
X135001029Y-111245000D01*
X135001029Y-118465000D02*
X134351029Y-118465000D01*
X140921029Y-111245000D02*
X141571029Y-111245000D01*
X140921029Y-118465000D02*
X141571029Y-118465000D01*
X141571029Y-111245000D02*
X141571029Y-111895000D01*
X141571029Y-118465000D02*
X141571029Y-117815000D01*
X134351029Y-111245000D02*
X134021029Y-111485000D01*
X134021029Y-111005000D01*
X134351029Y-111245000D01*
G36*
X134351029Y-111245000D02*
G01*
X134021029Y-111485000D01*
X134021029Y-111005000D01*
X134351029Y-111245000D01*
G37*
%TO.C,D47*%
X112982500Y-96630000D02*
X112982500Y-100640000D01*
X112982500Y-100640000D02*
X114982500Y-100640000D01*
X114982500Y-96630000D02*
X114982500Y-100640000D01*
%TO.C,D7*%
X146320000Y-39480000D02*
X146320000Y-43490000D01*
X146320000Y-43490000D02*
X148320000Y-43490000D01*
X148320000Y-39480000D02*
X148320000Y-43490000D01*
%TO.C,R5*%
X147244888Y-116325000D02*
X147552170Y-116325000D01*
X147244888Y-117085000D02*
X147552170Y-117085000D01*
%TO.C,D14*%
X273070000Y-42180000D02*
X273070000Y-44180000D01*
X277080000Y-42180000D02*
X273070000Y-42180000D01*
X277080000Y-44180000D02*
X273070000Y-44180000D01*
%TO.C,D34*%
X141557500Y-77580000D02*
X141557500Y-81590000D01*
X141557500Y-81590000D02*
X143557500Y-81590000D01*
X143557500Y-77580000D02*
X143557500Y-81590000D01*
%TO.C,D63*%
X265145000Y-113410000D02*
X265145000Y-109400000D01*
X267145000Y-109400000D02*
X265145000Y-109400000D01*
X267145000Y-113410000D02*
X267145000Y-109400000D01*
%TO.C,D4*%
X89170000Y-39480000D02*
X89170000Y-43490000D01*
X89170000Y-43490000D02*
X91170000Y-43490000D01*
X91170000Y-39480000D02*
X91170000Y-43490000D01*
%TO.C,C10*%
X131415693Y-118495000D02*
X131631365Y-118495000D01*
X131415693Y-119215000D02*
X131631365Y-119215000D01*
%TD*%
M02*
