%TF.GenerationSoftware,KiCad,Pcbnew,8.0.6*%
%TF.CreationDate,2024-12-06T10:28:13+08:00*%
%TF.ProjectId,PH60_Rev2,50483630-5f52-4657-9632-2e6b69636164,rev?*%
%TF.SameCoordinates,Original*%
%TF.FileFunction,Component,L1,Top*%
%TF.FilePolarity,Positive*%
%FSLAX46Y46*%
G04 Gerber Fmt 4.6, Leading zero omitted, Abs format (unit mm)*
G04 Created by KiCad (PCBNEW 8.0.6) date 2024-12-06 10:28:13*
%MOMM*%
%LPD*%
G01*
G04 APERTURE LIST*
%TA.AperFunction,ComponentMain*%
%ADD10C,0.300000*%
%TD*%
%TA.AperFunction,ComponentOutline,Courtyard*%
%ADD11C,0.100000*%
%TD*%
%TA.AperFunction,ComponentPin*%
%ADD12P,0.360000X4X0.000000*%
%TD*%
%TA.AperFunction,ComponentPin*%
%ADD13C,0.100000*%
%TD*%
%TA.AperFunction,Profile*%
%ADD14C,0.050000*%
%TD*%
G04 APERTURE END LIST*
D10*
%TO.C,S20*%
%TO.CFtp,SW_Hotswap_Kailh_MX_Plated_1.00u*%
%TO.CVal,MX1A*%
%TO.CLbN,PCM_Switch_Keyboard_Hotswap_Kailh*%
%TO.CMnt,SMD*%
%TO.CRot,0*%
X142875000Y-57150000D03*
D11*
X150124999Y-49900001D02*
X150124999Y-64399999D01*
X135625001Y-64399999D01*
X135625001Y-49900001D01*
X150124999Y-49900001D01*
D12*
%TO.P,S20,1,1*%
X139065000Y-54610000D03*
D13*
%TO.P,S20,*%
X137795000Y-57150000D03*
X142875000Y-57150000D03*
X147955000Y-57150000D03*
%TO.P,S20,2,2*%
X145415000Y-52070000D03*
%TD*%
D10*
%TO.C,S19*%
%TO.CFtp,SW_Hotswap_Kailh_MX_Plated_1.00u*%
%TO.CVal,MX1A*%
%TO.CLbN,PCM_Switch_Keyboard_Hotswap_Kailh*%
%TO.CMnt,SMD*%
%TO.CRot,0*%
X123825000Y-57150000D03*
D11*
X131074999Y-49900001D02*
X131074999Y-64399999D01*
X116575001Y-64399999D01*
X116575001Y-49900001D01*
X131074999Y-49900001D01*
D12*
%TO.P,S19,1,1*%
X120015000Y-54610000D03*
D13*
%TO.P,S19,*%
X118745000Y-57150000D03*
X123825000Y-57150000D03*
X128905000Y-57150000D03*
%TO.P,S19,2,2*%
X126365000Y-52070000D03*
%TD*%
D10*
%TO.C,S47*%
%TO.CFtp,SW_Hotswap_Kailh_MX_Plated_1.00u*%
%TO.CVal,MX1A*%
%TO.CLbN,PCM_Switch_Keyboard_Hotswap_Kailh*%
%TO.CMnt,SMD*%
%TO.CRot,0*%
X119062500Y-95250000D03*
D11*
X126312499Y-88000001D02*
X126312499Y-102499999D01*
X111812501Y-102499999D01*
X111812501Y-88000001D01*
X126312499Y-88000001D01*
D12*
%TO.P,S47,1,1*%
X115252500Y-92710000D03*
D13*
%TO.P,S47,*%
X113982500Y-95250000D03*
X119062500Y-95250000D03*
X124142500Y-95250000D03*
%TO.P,S47,2,2*%
X121602500Y-90170000D03*
%TD*%
D10*
%TO.C,S4*%
%TO.CFtp,SW_Hotswap_Kailh_MX_Plated_1.00u*%
%TO.CVal,MX1A*%
%TO.CLbN,PCM_Switch_Keyboard_Hotswap_Kailh*%
%TO.CMnt,SMD*%
%TO.CRot,0*%
X95250000Y-38100000D03*
D11*
X102499999Y-30850001D02*
X102499999Y-45349999D01*
X88000001Y-45349999D01*
X88000001Y-30850001D01*
X102499999Y-30850001D01*
D12*
%TO.P,S4,1,1*%
X91440000Y-35560000D03*
D13*
%TO.P,S4,*%
X90170000Y-38100000D03*
X95250000Y-38100000D03*
X100330000Y-38100000D03*
%TO.P,S4,2,2*%
X97790000Y-33020000D03*
%TD*%
D10*
%TO.C,S7*%
%TO.CFtp,SW_Hotswap_Kailh_MX_Plated_1.00u*%
%TO.CVal,MX1A*%
%TO.CLbN,PCM_Switch_Keyboard_Hotswap_Kailh*%
%TO.CMnt,SMD*%
%TO.CRot,0*%
X152400000Y-38100000D03*
D11*
X159649999Y-30850001D02*
X159649999Y-45349999D01*
X145150001Y-45349999D01*
X145150001Y-30850001D01*
X159649999Y-30850001D01*
D12*
%TO.P,S7,1,1*%
X148590000Y-35560000D03*
D13*
%TO.P,S7,*%
X147320000Y-38100000D03*
X152400000Y-38100000D03*
X157480000Y-38100000D03*
%TO.P,S7,2,2*%
X154940000Y-33020000D03*
%TD*%
D10*
%TO.C,S57-2*%
%TO.CFtp,SW_Hotswap_Kailh_MX_Plated_1.50u_90deg*%
%TO.CVal,MX1A*%
%TO.CLbN,PCM_Switch_Keyboard_Hotswap_Kailh*%
%TO.CMnt,SMD*%
%TO.CRot,-90*%
X42862500Y-114300000D03*
D11*
X50112499Y-107050001D02*
X50112499Y-121549999D01*
X35612501Y-121549999D01*
X35612501Y-107050001D01*
X50112499Y-107050001D01*
D12*
%TO.P,S57-2,1,1*%
X45402500Y-110490000D03*
D13*
%TO.P,S57-2,*%
X42862500Y-109220000D03*
X42862500Y-114300000D03*
X42862500Y-119380000D03*
%TO.P,S57-2,2,2*%
X47942500Y-116840000D03*
%TD*%
D10*
%TO.C,S12*%
%TO.CFtp,SW_Hotswap_Kailh_MX_Plated_1.00u*%
%TO.CVal,MX1A*%
%TO.CLbN,PCM_Switch_Keyboard_Hotswap_Kailh*%
%TO.CMnt,SMD*%
%TO.CRot,0*%
X247650000Y-38100000D03*
D11*
X254899999Y-30850001D02*
X254899999Y-45349999D01*
X240400001Y-45349999D01*
X240400001Y-30850001D01*
X254899999Y-30850001D01*
D12*
%TO.P,S12,1,1*%
X243840000Y-35560000D03*
D13*
%TO.P,S12,*%
X242570000Y-38100000D03*
X247650000Y-38100000D03*
X252730000Y-38100000D03*
%TO.P,S12,2,2*%
X250190000Y-33020000D03*
%TD*%
D10*
%TO.C,S62*%
%TO.CFtp,SW_Hotswap_Kailh_MX_Plated_1.25u_90deg*%
%TO.CVal,MX1A*%
%TO.CLbN,PCM_Switch_Keyboard_Hotswap_Kailh*%
%TO.CMnt,SMD*%
%TO.CRot,-90*%
X254793750Y-114300000D03*
D11*
X262043749Y-107050001D02*
X262043749Y-121549999D01*
X247543751Y-121549999D01*
X247543751Y-107050001D01*
X262043749Y-107050001D01*
D12*
%TO.P,S62,1,1*%
X257333750Y-110490000D03*
D13*
%TO.P,S62,*%
X254793750Y-109220000D03*
X254793750Y-114300000D03*
X254793750Y-119380000D03*
%TO.P,S62,2,2*%
X259873750Y-116840000D03*
%TD*%
D10*
%TO.C,S3*%
%TO.CFtp,SW_Hotswap_Kailh_MX_Plated_1.00u*%
%TO.CVal,MX1A*%
%TO.CLbN,PCM_Switch_Keyboard_Hotswap_Kailh*%
%TO.CMnt,SMD*%
%TO.CRot,0*%
X76200000Y-38100000D03*
D11*
X83449999Y-30850001D02*
X83449999Y-45349999D01*
X68950001Y-45349999D01*
X68950001Y-30850001D01*
X83449999Y-30850001D01*
D12*
%TO.P,S3,1,1*%
X72390000Y-35560000D03*
D13*
%TO.P,S3,*%
X71120000Y-38100000D03*
X76200000Y-38100000D03*
X81280000Y-38100000D03*
%TO.P,S3,2,2*%
X78740000Y-33020000D03*
%TD*%
D10*
%TO.C,S15*%
%TO.CFtp,SW_Hotswap_Kailh_MX_Plated_1.50u*%
%TO.CVal,MX1A*%
%TO.CLbN,PCM_Switch_Keyboard_Hotswap_Kailh*%
%TO.CMnt,SMD*%
%TO.CRot,0*%
X42862500Y-57150000D03*
D11*
X50112499Y-49900001D02*
X50112499Y-64399999D01*
X35612501Y-64399999D01*
X35612501Y-49900001D01*
X50112499Y-49900001D01*
D12*
%TO.P,S15,1,1*%
X39052500Y-54610000D03*
D13*
%TO.P,S15,*%
X37782500Y-57150000D03*
X42862500Y-57150000D03*
X47942500Y-57150000D03*
%TO.P,S15,2,2*%
X45402500Y-52070000D03*
%TD*%
D10*
%TO.C,S62-2*%
%TO.CFtp,SW_Hotswap_Kailh_MX_Plated_1.50u_90deg*%
%TO.CVal,MX1A*%
%TO.CLbN,PCM_Switch_Keyboard_Hotswap_Kailh*%
%TO.CMnt,SMD*%
%TO.CRot,90*%
X252412500Y-114300000D03*
D11*
X259662499Y-107050001D02*
X259662499Y-121549999D01*
X245162501Y-121549999D01*
X245162501Y-107050001D01*
X259662499Y-107050001D01*
D12*
%TO.P,S62-2,1,1*%
X249872500Y-118110000D03*
D13*
%TO.P,S62-2,*%
X252412500Y-119380000D03*
X252412500Y-114300000D03*
X252412500Y-109220000D03*
%TO.P,S62-2,2,2*%
X247332500Y-111760000D03*
%TD*%
D10*
%TO.C,S25*%
%TO.CFtp,SW_Hotswap_Kailh_MX_Plated_1.00u*%
%TO.CVal,MX1A*%
%TO.CLbN,PCM_Switch_Keyboard_Hotswap_Kailh*%
%TO.CMnt,SMD*%
%TO.CRot,0*%
X238125000Y-57150000D03*
D11*
X245374999Y-49900001D02*
X245374999Y-64399999D01*
X230875001Y-64399999D01*
X230875001Y-49900001D01*
X245374999Y-49900001D01*
D12*
%TO.P,S25,1,1*%
X234315000Y-54610000D03*
D13*
%TO.P,S25,*%
X233045000Y-57150000D03*
X238125000Y-57150000D03*
X243205000Y-57150000D03*
%TO.P,S25,2,2*%
X240665000Y-52070000D03*
%TD*%
D10*
%TO.C,S1*%
%TO.CFtp,SW_Hotswap_Kailh_MX_Plated_1.00u*%
%TO.CVal,MX1A*%
%TO.CLbN,PCM_Switch_Keyboard_Hotswap_Kailh*%
%TO.CMnt,SMD*%
%TO.CRot,180*%
X38100000Y-38100000D03*
D11*
X45349999Y-30850001D02*
X45349999Y-45349999D01*
X30850001Y-45349999D01*
X30850001Y-30850001D01*
X45349999Y-30850001D01*
D12*
%TO.P,S1,1,1*%
X41910000Y-40640000D03*
D13*
%TO.P,S1,*%
X43180000Y-38100000D03*
X38100000Y-38100000D03*
X33020000Y-38100000D03*
%TO.P,S1,2,2*%
X35560000Y-43180000D03*
%TD*%
D10*
%TO.C,S9*%
%TO.CFtp,SW_Hotswap_Kailh_MX_Plated_1.00u*%
%TO.CVal,MX1A*%
%TO.CLbN,PCM_Switch_Keyboard_Hotswap_Kailh*%
%TO.CMnt,SMD*%
%TO.CRot,0*%
X190500000Y-38100000D03*
D11*
X197749999Y-30850001D02*
X197749999Y-45349999D01*
X183250001Y-45349999D01*
X183250001Y-30850001D01*
X197749999Y-30850001D01*
D12*
%TO.P,S9,1,1*%
X186690000Y-35560000D03*
D13*
%TO.P,S9,*%
X185420000Y-38100000D03*
X190500000Y-38100000D03*
X195580000Y-38100000D03*
%TO.P,S9,2,2*%
X193040000Y-33020000D03*
%TD*%
D10*
%TO.C,S44*%
%TO.CFtp,SW_Hotswap_Kailh_MX_Plated_1.00u*%
%TO.CVal,MX1A*%
%TO.CLbN,PCM_Switch_Keyboard_Hotswap_Kailh*%
%TO.CMnt,SMD*%
%TO.CRot,0*%
X61912500Y-95250000D03*
D11*
X69162499Y-88000001D02*
X69162499Y-102499999D01*
X54662501Y-102499999D01*
X54662501Y-88000001D01*
X69162499Y-88000001D01*
D12*
%TO.P,S44,1,1*%
X58102500Y-92710000D03*
D13*
%TO.P,S44,*%
X56832500Y-95250000D03*
X61912500Y-95250000D03*
X66992500Y-95250000D03*
%TO.P,S44,2,2*%
X64452500Y-90170000D03*
%TD*%
D10*
%TO.C,S23*%
%TO.CFtp,SW_Hotswap_Kailh_MX_Plated_1.00u*%
%TO.CVal,MX1A*%
%TO.CLbN,PCM_Switch_Keyboard_Hotswap_Kailh*%
%TO.CMnt,SMD*%
%TO.CRot,0*%
X200025000Y-57150000D03*
D11*
X207274999Y-49900001D02*
X207274999Y-64399999D01*
X192775001Y-64399999D01*
X192775001Y-49900001D01*
X207274999Y-49900001D01*
D12*
%TO.P,S23,1,1*%
X196215000Y-54610000D03*
D13*
%TO.P,S23,*%
X194945000Y-57150000D03*
X200025000Y-57150000D03*
X205105000Y-57150000D03*
%TO.P,S23,2,2*%
X202565000Y-52070000D03*
%TD*%
D10*
%TO.C,S64-2*%
%TO.CFtp,SW_Hotswap_Kailh_MX_Plated_1.50u_90deg*%
%TO.CVal,MX1A*%
%TO.CLbN,PCM_Switch_Keyboard_Hotswap_Kailh*%
%TO.CMnt,SMD*%
%TO.CRot,90*%
X300037500Y-114300000D03*
D11*
X307287499Y-107050001D02*
X307287499Y-121549999D01*
X292787501Y-121549999D01*
X292787501Y-107050001D01*
X307287499Y-107050001D01*
D12*
%TO.P,S64-2,1,1*%
X297497500Y-118110000D03*
D13*
%TO.P,S64-2,*%
X300037500Y-119380000D03*
X300037500Y-114300000D03*
X300037500Y-109220000D03*
%TO.P,S64-2,2,2*%
X294957500Y-111760000D03*
%TD*%
D10*
%TO.C,S57*%
%TO.CFtp,SW_Hotswap_Kailh_MX_Plated_1.25u_90deg*%
%TO.CVal,MX1A*%
%TO.CLbN,PCM_Switch_Keyboard_Hotswap_Kailh*%
%TO.CMnt,SMD*%
%TO.CRot,90*%
X40481250Y-114300000D03*
D11*
X47731249Y-107050001D02*
X47731249Y-121549999D01*
X33231251Y-121549999D01*
X33231251Y-107050001D01*
X47731249Y-107050001D01*
D12*
%TO.P,S57,1,1*%
X37941250Y-118110000D03*
D13*
%TO.P,S57,*%
X40481250Y-119380000D03*
X40481250Y-114300000D03*
X40481250Y-109220000D03*
%TO.P,S57,2,2*%
X35401250Y-111760000D03*
%TD*%
D10*
%TO.C,S14*%
%TO.CFtp,SW_Hotswap_Kailh_MX_Plated_2.00u*%
%TO.CVal,MX1A*%
%TO.CLbN,PCM_Switch_Keyboard_Hotswap_Kailh*%
%TO.CMnt,SMD*%
%TO.CRot,0*%
X295275000Y-38100000D03*
D11*
X302524999Y-30850001D02*
X302524999Y-45349999D01*
X288025001Y-45349999D01*
X288025001Y-30850001D01*
X302524999Y-30850001D01*
D12*
%TO.P,S14,1,1*%
X291465000Y-35560000D03*
D13*
%TO.P,S14,*%
X290195000Y-38100000D03*
X295275000Y-38100000D03*
X300355000Y-38100000D03*
%TO.P,S14,2,2*%
X297815000Y-33020000D03*
%TD*%
D10*
%TO.C,S61*%
%TO.CFtp,SW_Hotswap_Kailh_MX_Plated_1.25u*%
%TO.CVal,MX1A*%
%TO.CLbN,PCM_Switch_Keyboard_Hotswap_Kailh*%
%TO.CMnt,SMD*%
%TO.CRot,0*%
X230981250Y-114300000D03*
D11*
X238231249Y-107050001D02*
X238231249Y-121549999D01*
X223731251Y-121549999D01*
X223731251Y-107050001D01*
X238231249Y-107050001D01*
D12*
%TO.P,S61,1,1*%
X227171250Y-111760000D03*
D13*
%TO.P,S61,*%
X225901250Y-114300000D03*
X230981250Y-114300000D03*
X236061250Y-114300000D03*
%TO.P,S61,2,2*%
X233521250Y-109220000D03*
%TD*%
D10*
%TO.C,S16*%
%TO.CFtp,SW_Hotswap_Kailh_MX_Plated_1.00u*%
%TO.CVal,MX1A*%
%TO.CLbN,PCM_Switch_Keyboard_Hotswap_Kailh*%
%TO.CMnt,SMD*%
%TO.CRot,0*%
X66675000Y-57150000D03*
D11*
X73924999Y-49900001D02*
X73924999Y-64399999D01*
X59425001Y-64399999D01*
X59425001Y-49900001D01*
X73924999Y-49900001D01*
D12*
%TO.P,S16,1,1*%
X62865000Y-54610000D03*
D13*
%TO.P,S16,*%
X61595000Y-57150000D03*
X66675000Y-57150000D03*
X71755000Y-57150000D03*
%TO.P,S16,2,2*%
X69215000Y-52070000D03*
%TD*%
D10*
%TO.C,S24*%
%TO.CFtp,SW_Hotswap_Kailh_MX_Plated_1.00u*%
%TO.CVal,MX1A*%
%TO.CLbN,PCM_Switch_Keyboard_Hotswap_Kailh*%
%TO.CMnt,SMD*%
%TO.CRot,0*%
X219075000Y-57150000D03*
D11*
X226324999Y-49900001D02*
X226324999Y-64399999D01*
X211825001Y-64399999D01*
X211825001Y-49900001D01*
X226324999Y-49900001D01*
D12*
%TO.P,S24,1,1*%
X215265000Y-54610000D03*
D13*
%TO.P,S24,*%
X213995000Y-57150000D03*
X219075000Y-57150000D03*
X224155000Y-57150000D03*
%TO.P,S24,2,2*%
X221615000Y-52070000D03*
%TD*%
D10*
%TO.C,S31*%
%TO.CFtp,SW_Hotswap_Kailh_MX_Plated_1.00u*%
%TO.CVal,MX1A*%
%TO.CLbN,PCM_Switch_Keyboard_Hotswap_Kailh*%
%TO.CMnt,SMD*%
%TO.CRot,0*%
X90487500Y-76200000D03*
D11*
X97737499Y-68950001D02*
X97737499Y-83449999D01*
X83237501Y-83449999D01*
X83237501Y-68950001D01*
X97737499Y-68950001D01*
D12*
%TO.P,S31,1,1*%
X86677500Y-73660000D03*
D13*
%TO.P,S31,*%
X85407500Y-76200000D03*
X90487500Y-76200000D03*
X95567500Y-76200000D03*
%TO.P,S31,2,2*%
X93027500Y-71120000D03*
%TD*%
D10*
%TO.C,S33*%
%TO.CFtp,SW_Hotswap_Kailh_MX_Plated_1.00u*%
%TO.CVal,MX1A*%
%TO.CLbN,PCM_Switch_Keyboard_Hotswap_Kailh*%
%TO.CMnt,SMD*%
%TO.CRot,0*%
X128587500Y-76200000D03*
D11*
X135837499Y-68950001D02*
X135837499Y-83449999D01*
X121337501Y-83449999D01*
X121337501Y-68950001D01*
X135837499Y-68950001D01*
D12*
%TO.P,S33,1,1*%
X124777500Y-73660000D03*
D13*
%TO.P,S33,*%
X123507500Y-76200000D03*
X128587500Y-76200000D03*
X133667500Y-76200000D03*
%TO.P,S33,2,2*%
X131127500Y-71120000D03*
%TD*%
D10*
%TO.C,S34*%
%TO.CFtp,SW_Hotswap_Kailh_MX_Plated_1.00u*%
%TO.CVal,MX1A*%
%TO.CLbN,PCM_Switch_Keyboard_Hotswap_Kailh*%
%TO.CMnt,SMD*%
%TO.CRot,0*%
X147637500Y-76200000D03*
D11*
X154887499Y-68950001D02*
X154887499Y-83449999D01*
X140387501Y-83449999D01*
X140387501Y-68950001D01*
X154887499Y-68950001D01*
D12*
%TO.P,S34,1,1*%
X143827500Y-73660000D03*
D13*
%TO.P,S34,*%
X142557500Y-76200000D03*
X147637500Y-76200000D03*
X152717500Y-76200000D03*
%TO.P,S34,2,2*%
X150177500Y-71120000D03*
%TD*%
D10*
%TO.C,S46*%
%TO.CFtp,SW_Hotswap_Kailh_MX_Plated_1.00u*%
%TO.CVal,MX1A*%
%TO.CLbN,PCM_Switch_Keyboard_Hotswap_Kailh*%
%TO.CMnt,SMD*%
%TO.CRot,0*%
X100012500Y-95250000D03*
D11*
X107262499Y-88000001D02*
X107262499Y-102499999D01*
X92762501Y-102499999D01*
X92762501Y-88000001D01*
X107262499Y-88000001D01*
D12*
%TO.P,S46,1,1*%
X96202500Y-92710000D03*
D13*
%TO.P,S46,*%
X94932500Y-95250000D03*
X100012500Y-95250000D03*
X105092500Y-95250000D03*
%TO.P,S46,2,2*%
X102552500Y-90170000D03*
%TD*%
D10*
%TO.C,S50*%
%TO.CFtp,SW_Hotswap_Kailh_MX_Plated_1.00u*%
%TO.CVal,MX1A*%
%TO.CLbN,PCM_Switch_Keyboard_Hotswap_Kailh*%
%TO.CMnt,SMD*%
%TO.CRot,0*%
X176212500Y-95250000D03*
D11*
X183462499Y-88000001D02*
X183462499Y-102499999D01*
X168962501Y-102499999D01*
X168962501Y-88000001D01*
X183462499Y-88000001D01*
D12*
%TO.P,S50,1,1*%
X172402500Y-92710000D03*
D13*
%TO.P,S50,*%
X171132500Y-95250000D03*
X176212500Y-95250000D03*
X181292500Y-95250000D03*
%TO.P,S50,2,2*%
X178752500Y-90170000D03*
%TD*%
D10*
%TO.C,S22*%
%TO.CFtp,SW_Hotswap_Kailh_MX_Plated_1.00u*%
%TO.CVal,MX1A*%
%TO.CLbN,PCM_Switch_Keyboard_Hotswap_Kailh*%
%TO.CMnt,SMD*%
%TO.CRot,0*%
X180975000Y-57150000D03*
D11*
X188224999Y-49900001D02*
X188224999Y-64399999D01*
X173725001Y-64399999D01*
X173725001Y-49900001D01*
X188224999Y-49900001D01*
D12*
%TO.P,S22,1,1*%
X177165000Y-54610000D03*
D13*
%TO.P,S22,*%
X175895000Y-57150000D03*
X180975000Y-57150000D03*
X186055000Y-57150000D03*
%TO.P,S22,2,2*%
X183515000Y-52070000D03*
%TD*%
D10*
%TO.C,S41*%
%TO.CFtp,SW_Hotswap_Kailh_MX_Plated_1.00u*%
%TO.CVal,MX1A*%
%TO.CLbN,PCM_Switch_Keyboard_Hotswap_Kailh*%
%TO.CMnt,SMD*%
%TO.CRot,90*%
X280987500Y-76200000D03*
D11*
X288237499Y-68950001D02*
X288237499Y-83449999D01*
X273737501Y-83449999D01*
X273737501Y-68950001D01*
X288237499Y-68950001D01*
D12*
%TO.P,S41,1,1*%
X278447500Y-80010000D03*
D13*
%TO.P,S41,*%
X280987500Y-81280000D03*
X280987500Y-76200000D03*
X280987500Y-71120000D03*
%TO.P,S41,2,2*%
X275907500Y-73660000D03*
%TD*%
D10*
%TO.C,S63-2*%
%TO.CFtp,SW_Hotswap_Kailh_MX_Plated_1.00u*%
%TO.CVal,MX1A*%
%TO.CLbN,PCM_Switch_Keyboard_Hotswap_Kailh*%
%TO.CMnt,SMD*%
%TO.CRot,90*%
X276225000Y-114300000D03*
D11*
X283474999Y-107050001D02*
X283474999Y-121549999D01*
X268975001Y-121549999D01*
X268975001Y-107050001D01*
X283474999Y-107050001D01*
D12*
%TO.P,S63-2,1,1*%
X273685000Y-118110000D03*
D13*
%TO.P,S63-2,*%
X276225000Y-119380000D03*
X276225000Y-114300000D03*
X276225000Y-109220000D03*
%TO.P,S63-2,2,2*%
X271145000Y-111760000D03*
%TD*%
D10*
%TO.C,S27*%
%TO.CFtp,SW_Hotswap_Kailh_MX_Plated_1.00u*%
%TO.CVal,MX1A*%
%TO.CLbN,PCM_Switch_Keyboard_Hotswap_Kailh*%
%TO.CMnt,SMD*%
%TO.CRot,0*%
X276225000Y-57150000D03*
D11*
X283474999Y-49900001D02*
X283474999Y-64399999D01*
X268975001Y-64399999D01*
X268975001Y-49900001D01*
X283474999Y-49900001D01*
D12*
%TO.P,S27,1,1*%
X272415000Y-54610000D03*
D13*
%TO.P,S27,*%
X271145000Y-57150000D03*
X276225000Y-57150000D03*
X281305000Y-57150000D03*
%TO.P,S27,2,2*%
X278765000Y-52070000D03*
%TD*%
D10*
%TO.C,S58*%
%TO.CFtp,SW_Hotswap_Kailh_MX_Plated_1.25u_90deg*%
%TO.CVal,MX1A*%
%TO.CLbN,PCM_Switch_Keyboard_Hotswap_Kailh*%
%TO.CMnt,SMD*%
%TO.CRot,90*%
X64293750Y-114300000D03*
D11*
X71543749Y-107050001D02*
X71543749Y-121549999D01*
X57043751Y-121549999D01*
X57043751Y-107050001D01*
X71543749Y-107050001D01*
D12*
%TO.P,S58,1,1*%
X61753750Y-118110000D03*
D13*
%TO.P,S58,*%
X64293750Y-119380000D03*
X64293750Y-114300000D03*
X64293750Y-109220000D03*
%TO.P,S58,2,2*%
X59213750Y-111760000D03*
%TD*%
D10*
%TO.C,S60-2*%
%TO.CFtp,SW_Hotswap_Kailh_MX_Plated_7.00u*%
%TO.CVal,MX1A*%
%TO.CLbN,PCM_Switch_Keyboard_Hotswap_Kailh*%
%TO.CMnt,SMD*%
%TO.CRot,180*%
X171450000Y-114300000D03*
D11*
X178699999Y-107050001D02*
X178699999Y-121549999D01*
X164200001Y-121549999D01*
X164200001Y-107050001D01*
X178699999Y-107050001D01*
D12*
%TO.P,S60-2,1,1*%
X175260000Y-116840000D03*
D13*
%TO.P,S60-2,*%
X176530000Y-114300000D03*
X171450000Y-114300000D03*
X166370000Y-114300000D03*
%TO.P,S60-2,2,2*%
X168910000Y-119380000D03*
%TD*%
D10*
%TO.C,S8*%
%TO.CFtp,SW_Hotswap_Kailh_MX_Plated_1.00u*%
%TO.CVal,MX1A*%
%TO.CLbN,PCM_Switch_Keyboard_Hotswap_Kailh*%
%TO.CMnt,SMD*%
%TO.CRot,0*%
X171450000Y-38100000D03*
D11*
X178699999Y-30850001D02*
X178699999Y-45349999D01*
X164200001Y-45349999D01*
X164200001Y-30850001D01*
X178699999Y-30850001D01*
D12*
%TO.P,S8,1,1*%
X167640000Y-35560000D03*
D13*
%TO.P,S8,*%
X166370000Y-38100000D03*
X171450000Y-38100000D03*
X176530000Y-38100000D03*
%TO.P,S8,2,2*%
X173990000Y-33020000D03*
%TD*%
D10*
%TO.C,S63*%
%TO.CFtp,SW_Hotswap_Kailh_MX_Plated_1.25u_90deg*%
%TO.CVal,MX1A*%
%TO.CLbN,PCM_Switch_Keyboard_Hotswap_Kailh*%
%TO.CMnt,SMD*%
%TO.CRot,-90*%
X278606250Y-114300000D03*
D11*
X285856249Y-107050001D02*
X285856249Y-121549999D01*
X271356251Y-121549999D01*
X271356251Y-107050001D01*
X285856249Y-107050001D01*
D12*
%TO.P,S63,1,1*%
X281146250Y-110490000D03*
D13*
%TO.P,S63,*%
X278606250Y-109220000D03*
X278606250Y-114300000D03*
X278606250Y-119380000D03*
%TO.P,S63,2,2*%
X283686250Y-116840000D03*
%TD*%
D10*
%TO.C,S37*%
%TO.CFtp,SW_Hotswap_Kailh_MX_Plated_1.00u*%
%TO.CVal,MX1A*%
%TO.CLbN,PCM_Switch_Keyboard_Hotswap_Kailh*%
%TO.CMnt,SMD*%
%TO.CRot,0*%
X204787500Y-76200000D03*
D11*
X212037499Y-68950001D02*
X212037499Y-83449999D01*
X197537501Y-83449999D01*
X197537501Y-68950001D01*
X212037499Y-68950001D01*
D12*
%TO.P,S37,1,1*%
X200977500Y-73660000D03*
D13*
%TO.P,S37,*%
X199707500Y-76200000D03*
X204787500Y-76200000D03*
X209867500Y-76200000D03*
%TO.P,S37,2,2*%
X207327500Y-71120000D03*
%TD*%
D10*
%TO.C,S55*%
%TO.CFtp,SW_Hotswap_Kailh_MX_Plated_1.75u_90deg*%
%TO.CVal,MX1A*%
%TO.CLbN,PCM_Switch_Keyboard_Hotswap_Kailh*%
%TO.CMnt,SMD*%
%TO.CRot,-90*%
X278606250Y-95250000D03*
D11*
X285856249Y-88000001D02*
X285856249Y-102499999D01*
X271356251Y-102499999D01*
X271356251Y-88000001D01*
X285856249Y-88000001D01*
D12*
%TO.P,S55,1,1*%
X281146250Y-91440000D03*
D13*
%TO.P,S55,*%
X278606250Y-90170000D03*
X278606250Y-95250000D03*
X278606250Y-100330000D03*
%TO.P,S55,2,2*%
X283686250Y-97790000D03*
%TD*%
D10*
%TO.C,S21*%
%TO.CFtp,SW_Hotswap_Kailh_MX_Plated_1.00u*%
%TO.CVal,MX1A*%
%TO.CLbN,PCM_Switch_Keyboard_Hotswap_Kailh*%
%TO.CMnt,SMD*%
%TO.CRot,0*%
X161925000Y-57150000D03*
D11*
X169174999Y-49900001D02*
X169174999Y-64399999D01*
X154675001Y-64399999D01*
X154675001Y-49900001D01*
X169174999Y-49900001D01*
D12*
%TO.P,S21,1,1*%
X158115000Y-54610000D03*
D13*
%TO.P,S21,*%
X156845000Y-57150000D03*
X161925000Y-57150000D03*
X167005000Y-57150000D03*
%TO.P,S21,2,2*%
X164465000Y-52070000D03*
%TD*%
D10*
%TO.C,S11*%
%TO.CFtp,SW_Hotswap_Kailh_MX_Plated_1.00u*%
%TO.CVal,MX1A*%
%TO.CLbN,PCM_Switch_Keyboard_Hotswap_Kailh*%
%TO.CMnt,SMD*%
%TO.CRot,0*%
X228600000Y-38100000D03*
D11*
X235849999Y-30850001D02*
X235849999Y-45349999D01*
X221350001Y-45349999D01*
X221350001Y-30850001D01*
X235849999Y-30850001D01*
D12*
%TO.P,S11,1,1*%
X224790000Y-35560000D03*
D13*
%TO.P,S11,*%
X223520000Y-38100000D03*
X228600000Y-38100000D03*
X233680000Y-38100000D03*
%TO.P,S11,2,2*%
X231140000Y-33020000D03*
%TD*%
D10*
%TO.C,S52*%
%TO.CFtp,SW_Hotswap_Kailh_MX_Plated_1.00u*%
%TO.CVal,MX1A*%
%TO.CLbN,PCM_Switch_Keyboard_Hotswap_Kailh*%
%TO.CMnt,SMD*%
%TO.CRot,0*%
X214312500Y-95250000D03*
D11*
X221562499Y-88000001D02*
X221562499Y-102499999D01*
X207062501Y-102499999D01*
X207062501Y-88000001D01*
X221562499Y-88000001D01*
D12*
%TO.P,S52,1,1*%
X210502500Y-92710000D03*
D13*
%TO.P,S52,*%
X209232500Y-95250000D03*
X214312500Y-95250000D03*
X219392500Y-95250000D03*
%TO.P,S52,2,2*%
X216852500Y-90170000D03*
%TD*%
D10*
%TO.C,S30*%
%TO.CFtp,SW_Hotswap_Kailh_MX_Plated_1.00u*%
%TO.CVal,MX1A*%
%TO.CLbN,PCM_Switch_Keyboard_Hotswap_Kailh*%
%TO.CMnt,SMD*%
%TO.CRot,0*%
X71437500Y-76200000D03*
D11*
X78687499Y-68950001D02*
X78687499Y-83449999D01*
X64187501Y-83449999D01*
X64187501Y-68950001D01*
X78687499Y-68950001D01*
D12*
%TO.P,S30,1,1*%
X67627500Y-73660000D03*
D13*
%TO.P,S30,*%
X66357500Y-76200000D03*
X71437500Y-76200000D03*
X76517500Y-76200000D03*
%TO.P,S30,2,2*%
X73977500Y-71120000D03*
%TD*%
D10*
%TO.C,S38*%
%TO.CFtp,SW_Hotswap_Kailh_MX_Plated_1.00u*%
%TO.CVal,MX1A*%
%TO.CLbN,PCM_Switch_Keyboard_Hotswap_Kailh*%
%TO.CMnt,SMD*%
%TO.CRot,0*%
X223837500Y-76200000D03*
D11*
X231087499Y-68950001D02*
X231087499Y-83449999D01*
X216587501Y-83449999D01*
X216587501Y-68950001D01*
X231087499Y-68950001D01*
D12*
%TO.P,S38,1,1*%
X220027500Y-73660000D03*
D13*
%TO.P,S38,*%
X218757500Y-76200000D03*
X223837500Y-76200000D03*
X228917500Y-76200000D03*
%TO.P,S38,2,2*%
X226377500Y-71120000D03*
%TD*%
D10*
%TO.C,S35*%
%TO.CFtp,SW_Hotswap_Kailh_MX_Plated_1.00u*%
%TO.CVal,MX1A*%
%TO.CLbN,PCM_Switch_Keyboard_Hotswap_Kailh*%
%TO.CMnt,SMD*%
%TO.CRot,0*%
X166687500Y-76200000D03*
D11*
X173937499Y-68950001D02*
X173937499Y-83449999D01*
X159437501Y-83449999D01*
X159437501Y-68950001D01*
X173937499Y-68950001D01*
D12*
%TO.P,S35,1,1*%
X162877500Y-73660000D03*
D13*
%TO.P,S35,*%
X161607500Y-76200000D03*
X166687500Y-76200000D03*
X171767500Y-76200000D03*
%TO.P,S35,2,2*%
X169227500Y-71120000D03*
%TD*%
D10*
%TO.C,S39*%
%TO.CFtp,SW_Hotswap_Kailh_MX_Plated_1.00u*%
%TO.CVal,MX1A*%
%TO.CLbN,PCM_Switch_Keyboard_Hotswap_Kailh*%
%TO.CMnt,SMD*%
%TO.CRot,0*%
X242887500Y-76200000D03*
D11*
X250137499Y-68950001D02*
X250137499Y-83449999D01*
X235637501Y-83449999D01*
X235637501Y-68950001D01*
X250137499Y-68950001D01*
D12*
%TO.P,S39,1,1*%
X239077500Y-73660000D03*
D13*
%TO.P,S39,*%
X237807500Y-76200000D03*
X242887500Y-76200000D03*
X247967500Y-76200000D03*
%TO.P,S39,2,2*%
X245427500Y-71120000D03*
%TD*%
D10*
%TO.C,S48*%
%TO.CFtp,SW_Hotswap_Kailh_MX_Plated_1.00u*%
%TO.CVal,MX1A*%
%TO.CLbN,PCM_Switch_Keyboard_Hotswap_Kailh*%
%TO.CMnt,SMD*%
%TO.CRot,0*%
X138112500Y-95250000D03*
D11*
X145362499Y-88000001D02*
X145362499Y-102499999D01*
X130862501Y-102499999D01*
X130862501Y-88000001D01*
X145362499Y-88000001D01*
D12*
%TO.P,S48,1,1*%
X134302500Y-92710000D03*
D13*
%TO.P,S48,*%
X133032500Y-95250000D03*
X138112500Y-95250000D03*
X143192500Y-95250000D03*
%TO.P,S48,2,2*%
X140652500Y-90170000D03*
%TD*%
D10*
%TO.C,S18*%
%TO.CFtp,SW_Hotswap_Kailh_MX_Plated_1.00u*%
%TO.CVal,MX1A*%
%TO.CLbN,PCM_Switch_Keyboard_Hotswap_Kailh*%
%TO.CMnt,SMD*%
%TO.CRot,0*%
X104775000Y-57150000D03*
D11*
X112024999Y-49900001D02*
X112024999Y-64399999D01*
X97525001Y-64399999D01*
X97525001Y-49900001D01*
X112024999Y-49900001D01*
D12*
%TO.P,S18,1,1*%
X100965000Y-54610000D03*
D13*
%TO.P,S18,*%
X99695000Y-57150000D03*
X104775000Y-57150000D03*
X109855000Y-57150000D03*
%TO.P,S18,2,2*%
X107315000Y-52070000D03*
%TD*%
D10*
%TO.C,S28-2*%
%TO.CFtp,SW_Hotswap_Kailh_MX_Plated_2.25u_90deg*%
%TO.CVal,MX1A*%
%TO.CLbN,PCM_Switch_Keyboard_Hotswap_Kailh*%
%TO.CMnt,SMD*%
%TO.CRot,90*%
X292893750Y-76200000D03*
D11*
X300143749Y-68950001D02*
X300143749Y-83449999D01*
X285643751Y-83449999D01*
X285643751Y-68950001D01*
X300143749Y-68950001D01*
D12*
%TO.P,S28-2,1,1*%
X290353750Y-80010000D03*
D13*
%TO.P,S28-2,*%
X292893750Y-81280000D03*
X292893750Y-76200000D03*
X292893750Y-71120000D03*
%TO.P,S28-2,2,2*%
X287813750Y-73660000D03*
%TD*%
D10*
%TO.C,S45*%
%TO.CFtp,SW_Hotswap_Kailh_MX_Plated_1.00u*%
%TO.CVal,MX1A*%
%TO.CLbN,PCM_Switch_Keyboard_Hotswap_Kailh*%
%TO.CMnt,SMD*%
%TO.CRot,0*%
X80962500Y-95250000D03*
D11*
X88212499Y-88000001D02*
X88212499Y-102499999D01*
X73712501Y-102499999D01*
X73712501Y-88000001D01*
X88212499Y-88000001D01*
D12*
%TO.P,S45,1,1*%
X77152500Y-92710000D03*
D13*
%TO.P,S45,*%
X75882500Y-95250000D03*
X80962500Y-95250000D03*
X86042500Y-95250000D03*
%TO.P,S45,2,2*%
X83502500Y-90170000D03*
%TD*%
D10*
%TO.C,S13*%
%TO.CFtp,SW_Hotswap_Kailh_MX_Plated_1.00u*%
%TO.CVal,MX1A*%
%TO.CLbN,PCM_Switch_Keyboard_Hotswap_Kailh*%
%TO.CMnt,SMD*%
%TO.CRot,0*%
X266700000Y-38100000D03*
D11*
X273949999Y-30850001D02*
X273949999Y-45349999D01*
X259450001Y-45349999D01*
X259450001Y-30850001D01*
X273949999Y-30850001D01*
D12*
%TO.P,S13,1,1*%
X262890000Y-35560000D03*
D13*
%TO.P,S13,*%
X261620000Y-38100000D03*
X266700000Y-38100000D03*
X271780000Y-38100000D03*
%TO.P,S13,2,2*%
X269240000Y-33020000D03*
%TD*%
D10*
%TO.C,S26*%
%TO.CFtp,SW_Hotswap_Kailh_MX_Plated_1.00u*%
%TO.CVal,MX1A*%
%TO.CLbN,PCM_Switch_Keyboard_Hotswap_Kailh*%
%TO.CMnt,SMD*%
%TO.CRot,0*%
X257175000Y-57150000D03*
D11*
X264424999Y-49900001D02*
X264424999Y-64399999D01*
X249925001Y-64399999D01*
X249925001Y-49900001D01*
X264424999Y-49900001D01*
D12*
%TO.P,S26,1,1*%
X253365000Y-54610000D03*
D13*
%TO.P,S26,*%
X252095000Y-57150000D03*
X257175000Y-57150000D03*
X262255000Y-57150000D03*
%TO.P,S26,2,2*%
X259715000Y-52070000D03*
%TD*%
D10*
%TO.C,S5*%
%TO.CFtp,SW_Hotswap_Kailh_MX_Plated_1.00u*%
%TO.CVal,MX1A*%
%TO.CLbN,PCM_Switch_Keyboard_Hotswap_Kailh*%
%TO.CMnt,SMD*%
%TO.CRot,0*%
X114300000Y-38100000D03*
D11*
X121549999Y-30850001D02*
X121549999Y-45349999D01*
X107050001Y-45349999D01*
X107050001Y-30850001D01*
X121549999Y-30850001D01*
D12*
%TO.P,S5,1,1*%
X110490000Y-35560000D03*
D13*
%TO.P,S5,*%
X109220000Y-38100000D03*
X114300000Y-38100000D03*
X119380000Y-38100000D03*
%TO.P,S5,2,2*%
X116840000Y-33020000D03*
%TD*%
D10*
%TO.C,S17*%
%TO.CFtp,SW_Hotswap_Kailh_MX_Plated_1.00u*%
%TO.CVal,MX1A*%
%TO.CLbN,PCM_Switch_Keyboard_Hotswap_Kailh*%
%TO.CMnt,SMD*%
%TO.CRot,0*%
X85725000Y-57150000D03*
D11*
X92974999Y-49900001D02*
X92974999Y-64399999D01*
X78475001Y-64399999D01*
X78475001Y-49900001D01*
X92974999Y-49900001D01*
D12*
%TO.P,S17,1,1*%
X81915000Y-54610000D03*
D13*
%TO.P,S17,*%
X80645000Y-57150000D03*
X85725000Y-57150000D03*
X90805000Y-57150000D03*
%TO.P,S17,2,2*%
X88265000Y-52070000D03*
%TD*%
D10*
%TO.C,S32*%
%TO.CFtp,SW_Hotswap_Kailh_MX_Plated_1.00u*%
%TO.CVal,MX1A*%
%TO.CLbN,PCM_Switch_Keyboard_Hotswap_Kailh*%
%TO.CMnt,SMD*%
%TO.CRot,0*%
X109537500Y-76200000D03*
D11*
X116787499Y-68950001D02*
X116787499Y-83449999D01*
X102287501Y-83449999D01*
X102287501Y-68950001D01*
X116787499Y-68950001D01*
D12*
%TO.P,S32,1,1*%
X105727500Y-73660000D03*
D13*
%TO.P,S32,*%
X104457500Y-76200000D03*
X109537500Y-76200000D03*
X114617500Y-76200000D03*
%TO.P,S32,2,2*%
X112077500Y-71120000D03*
%TD*%
D10*
%TO.C,S55-2*%
%TO.CFtp,SW_Hotswap_Kailh_MX_Plated_2.75u_90deg*%
%TO.CVal,MX1A*%
%TO.CLbN,PCM_Switch_Keyboard_Hotswap_Kailh*%
%TO.CMnt,SMD*%
%TO.CRot,-90*%
X288131250Y-95250000D03*
D11*
X295381249Y-88000001D02*
X295381249Y-102499999D01*
X280881251Y-102499999D01*
X280881251Y-88000001D01*
X295381249Y-88000001D01*
D12*
%TO.P,S55-2,1,1*%
X290671250Y-91440000D03*
D13*
%TO.P,S55-2,*%
X288131250Y-90170000D03*
X288131250Y-95250000D03*
X288131250Y-100330000D03*
%TO.P,S55-2,2,2*%
X293211250Y-97790000D03*
%TD*%
D10*
%TO.C,S36*%
%TO.CFtp,SW_Hotswap_Kailh_MX_Plated_1.00u*%
%TO.CVal,MX1A*%
%TO.CLbN,PCM_Switch_Keyboard_Hotswap_Kailh*%
%TO.CMnt,SMD*%
%TO.CRot,0*%
X185737500Y-76200000D03*
D11*
X192987499Y-68950001D02*
X192987499Y-83449999D01*
X178487501Y-83449999D01*
X178487501Y-68950001D01*
X192987499Y-68950001D01*
D12*
%TO.P,S36,1,1*%
X181927500Y-73660000D03*
D13*
%TO.P,S36,*%
X180657500Y-76200000D03*
X185737500Y-76200000D03*
X190817500Y-76200000D03*
%TO.P,S36,2,2*%
X188277500Y-71120000D03*
%TD*%
D10*
%TO.C,S49*%
%TO.CFtp,SW_Hotswap_Kailh_MX_Plated_1.00u*%
%TO.CVal,MX1A*%
%TO.CLbN,PCM_Switch_Keyboard_Hotswap_Kailh*%
%TO.CMnt,SMD*%
%TO.CRot,0*%
X157162500Y-95250000D03*
D11*
X164412499Y-88000001D02*
X164412499Y-102499999D01*
X149912501Y-102499999D01*
X149912501Y-88000001D01*
X164412499Y-88000001D01*
D12*
%TO.P,S49,1,1*%
X153352500Y-92710000D03*
D13*
%TO.P,S49,*%
X152082500Y-95250000D03*
X157162500Y-95250000D03*
X162242500Y-95250000D03*
%TO.P,S49,2,2*%
X159702500Y-90170000D03*
%TD*%
D10*
%TO.C,S60*%
%TO.CFtp,SW_Hotswap_Kailh_MX_Plated_6.25u*%
%TO.CVal,MX1A*%
%TO.CLbN,PCM_Switch_Keyboard_Hotswap_Kailh*%
%TO.CMnt,SMD*%
%TO.CRot,0*%
X159543750Y-114300000D03*
D11*
X166793749Y-107050001D02*
X166793749Y-121549999D01*
X152293751Y-121549999D01*
X152293751Y-107050001D01*
X166793749Y-107050001D01*
D12*
%TO.P,S60,1,1*%
X155733750Y-111760000D03*
D13*
%TO.P,S60,*%
X154463750Y-114300000D03*
X159543750Y-114300000D03*
X164623750Y-114300000D03*
%TO.P,S60,2,2*%
X162083750Y-109220000D03*
%TD*%
D10*
%TO.C,S53*%
%TO.CFtp,SW_Hotswap_Kailh_MX_Plated_1.00u*%
%TO.CVal,MX1A*%
%TO.CLbN,PCM_Switch_Keyboard_Hotswap_Kailh*%
%TO.CMnt,SMD*%
%TO.CRot,0*%
X233362500Y-95250000D03*
D11*
X240612499Y-88000001D02*
X240612499Y-102499999D01*
X226112501Y-102499999D01*
X226112501Y-88000001D01*
X240612499Y-88000001D01*
D12*
%TO.P,S53,1,1*%
X229552500Y-92710000D03*
D13*
%TO.P,S53,*%
X228282500Y-95250000D03*
X233362500Y-95250000D03*
X238442500Y-95250000D03*
%TO.P,S53,2,2*%
X235902500Y-90170000D03*
%TD*%
D10*
%TO.C,S10*%
%TO.CFtp,SW_Hotswap_Kailh_MX_Plated_1.00u*%
%TO.CVal,MX1A*%
%TO.CLbN,PCM_Switch_Keyboard_Hotswap_Kailh*%
%TO.CMnt,SMD*%
%TO.CRot,0*%
X209550000Y-38100000D03*
D11*
X216799999Y-30850001D02*
X216799999Y-45349999D01*
X202300001Y-45349999D01*
X202300001Y-30850001D01*
X216799999Y-30850001D01*
D12*
%TO.P,S10,1,1*%
X205740000Y-35560000D03*
D13*
%TO.P,S10,*%
X204470000Y-38100000D03*
X209550000Y-38100000D03*
X214630000Y-38100000D03*
%TO.P,S10,2,2*%
X212090000Y-33020000D03*
%TD*%
D10*
%TO.C,S56*%
%TO.CFtp,SW_Hotswap_Kailh_MX_Plated_1.00u*%
%TO.CVal,MX1A*%
%TO.CLbN,PCM_Switch_Keyboard_Hotswap_Kailh*%
%TO.CMnt,SMD*%
%TO.CRot,-90*%
X304800000Y-95250000D03*
D11*
X312049999Y-88000001D02*
X312049999Y-102499999D01*
X297550001Y-102499999D01*
X297550001Y-88000001D01*
X312049999Y-88000001D01*
D12*
%TO.P,S56,1,1*%
X307340000Y-91440000D03*
D13*
%TO.P,S56,*%
X304800000Y-90170000D03*
X304800000Y-95250000D03*
X304800000Y-100330000D03*
%TO.P,S56,2,2*%
X309880000Y-97790000D03*
%TD*%
D10*
%TO.C,S59*%
%TO.CFtp,SW_Hotswap_Kailh_MX_Plated_1.25u_90deg*%
%TO.CVal,MX1A*%
%TO.CLbN,PCM_Switch_Keyboard_Hotswap_Kailh*%
%TO.CMnt,SMD*%
%TO.CRot,90*%
X88106250Y-114300000D03*
D11*
X95356249Y-107050001D02*
X95356249Y-121549999D01*
X80856251Y-121549999D01*
X80856251Y-107050001D01*
X95356249Y-107050001D01*
D12*
%TO.P,S59,1,1*%
X85566250Y-118110000D03*
D13*
%TO.P,S59,*%
X88106250Y-119380000D03*
X88106250Y-114300000D03*
X88106250Y-109220000D03*
%TO.P,S59,2,2*%
X83026250Y-111760000D03*
%TD*%
D10*
%TO.C,S42*%
%TO.CFtp,SW_Hotswap_Kailh_MX_Plated_1.00u*%
%TO.CVal,MX1A*%
%TO.CLbN,PCM_Switch_Keyboard_Hotswap_Kailh*%
%TO.CMnt,SMD*%
%TO.CRot,180*%
X304800000Y-38100000D03*
D11*
X312049999Y-30850001D02*
X312049999Y-45349999D01*
X297550001Y-45349999D01*
X297550001Y-30850001D01*
X312049999Y-30850001D01*
D12*
%TO.P,S42,1,1*%
X308610000Y-40640000D03*
D13*
%TO.P,S42,*%
X309880000Y-38100000D03*
X304800000Y-38100000D03*
X299720000Y-38100000D03*
%TO.P,S42,2,2*%
X302260000Y-43180000D03*
%TD*%
D10*
%TO.C,S14-2*%
%TO.CFtp,SW_Hotswap_Kailh_MX_Plated_1.00u*%
%TO.CVal,MX1A*%
%TO.CLbN,PCM_Switch_Keyboard_Hotswap_Kailh*%
%TO.CMnt,SMD*%
%TO.CRot,180*%
X285750000Y-38100000D03*
D11*
X292999999Y-30850001D02*
X292999999Y-45349999D01*
X278500001Y-45349999D01*
X278500001Y-30850001D01*
X292999999Y-30850001D01*
D12*
%TO.P,S14-2,1,1*%
X289560000Y-40640000D03*
D13*
%TO.P,S14-2,*%
X290830000Y-38100000D03*
X285750000Y-38100000D03*
X283210000Y-43180000D03*
X280670000Y-38100000D03*
%TD*%
D10*
%TO.C,S54*%
%TO.CFtp,SW_Hotswap_Kailh_MX_Plated_1.00u*%
%TO.CVal,MX1A*%
%TO.CLbN,PCM_Switch_Keyboard_Hotswap_Kailh*%
%TO.CMnt,SMD*%
%TO.CRot,0*%
X252412500Y-95250000D03*
D11*
X259662499Y-88000001D02*
X259662499Y-102499999D01*
X245162501Y-102499999D01*
X245162501Y-88000001D01*
X259662499Y-88000001D01*
D12*
%TO.P,S54,1,1*%
X248602500Y-92710000D03*
D13*
%TO.P,S54,*%
X247332500Y-95250000D03*
X252412500Y-95250000D03*
X257492500Y-95250000D03*
%TO.P,S54,2,2*%
X254952500Y-90170000D03*
%TD*%
D10*
%TO.C,S43*%
%TO.CFtp,SW_Hotswap_Kailh_MX_Plated_1.25u*%
%TO.CVal,MX1A*%
%TO.CLbN,PCM_Switch_Keyboard_Hotswap_Kailh*%
%TO.CMnt,SMD*%
%TO.CRot,0*%
X40481250Y-95250000D03*
D11*
X47731249Y-88000001D02*
X47731249Y-102499999D01*
X33231251Y-102499999D01*
X33231251Y-88000001D01*
X47731249Y-88000001D01*
D12*
%TO.P,S43,1,1*%
X36671250Y-92710000D03*
D13*
%TO.P,S43,*%
X35401250Y-95250000D03*
X40481250Y-95250000D03*
X45561250Y-95250000D03*
%TO.P,S43,2,2*%
X43021250Y-90170000D03*
%TD*%
D10*
%TO.C,S51*%
%TO.CFtp,SW_Hotswap_Kailh_MX_Plated_1.00u*%
%TO.CVal,MX1A*%
%TO.CLbN,PCM_Switch_Keyboard_Hotswap_Kailh*%
%TO.CMnt,SMD*%
%TO.CRot,0*%
X195262500Y-95250000D03*
D11*
X202512499Y-88000001D02*
X202512499Y-102499999D01*
X188012501Y-102499999D01*
X188012501Y-88000001D01*
X202512499Y-88000001D01*
D12*
%TO.P,S51,1,1*%
X191452500Y-92710000D03*
D13*
%TO.P,S51,*%
X190182500Y-95250000D03*
X195262500Y-95250000D03*
X200342500Y-95250000D03*
%TO.P,S51,2,2*%
X197802500Y-90170000D03*
%TD*%
D10*
%TO.C,S58-2*%
%TO.CFtp,SW_Hotswap_Kailh_MX_Plated_1.00u*%
%TO.CVal,MX1A*%
%TO.CLbN,PCM_Switch_Keyboard_Hotswap_Kailh*%
%TO.CMnt,SMD*%
%TO.CRot,-90*%
X66675000Y-114300000D03*
D11*
X73924999Y-107050001D02*
X73924999Y-121549999D01*
X59425001Y-121549999D01*
X59425001Y-107050001D01*
X73924999Y-107050001D01*
D12*
%TO.P,S58-2,1,1*%
X69215000Y-110490000D03*
D13*
%TO.P,S58-2,*%
X66675000Y-109220000D03*
X66675000Y-114300000D03*
X66675000Y-119380000D03*
%TO.P,S58-2,2,2*%
X71755000Y-116840000D03*
%TD*%
D10*
%TO.C,S41-2*%
%TO.CFtp,SW_Hotswap_Kailh_MX_Plated_1.50u_90deg*%
%TO.CVal,MX1A*%
%TO.CLbN,PCM_Switch_Keyboard_Hotswap_Kailh*%
%TO.CMnt,SMD*%
%TO.CRot,-90*%
X300037500Y-57150000D03*
D11*
X307287499Y-49900001D02*
X307287499Y-64399999D01*
X292787501Y-64399999D01*
X292787501Y-49900001D01*
X307287499Y-49900001D01*
D12*
%TO.P,S41-2,1,1*%
X302577500Y-53340000D03*
D13*
%TO.P,S41-2,*%
X300037500Y-52070000D03*
X300037500Y-57150000D03*
X300037500Y-62230000D03*
%TO.P,S41-2,2,2*%
X305117500Y-59690000D03*
%TD*%
D10*
%TO.C,S28*%
%TO.CFtp,SW_Hotswap_Kailh_MX_Plated_ISOEnter_90deg*%
%TO.CVal,MX1A*%
%TO.CLbN,PCM_Switch_Keyboard_Hotswap_Kailh*%
%TO.CMnt,SMD*%
%TO.CRot,90*%
X302418750Y-66675000D03*
D11*
X309668749Y-59425001D02*
X309668749Y-73924999D01*
X295168751Y-73924999D01*
X295168751Y-59425001D01*
X309668749Y-59425001D01*
D12*
%TO.P,S28,1,1*%
X299878750Y-70485000D03*
D13*
%TO.P,S28,*%
X302418750Y-71755000D03*
X302418750Y-66675000D03*
X302418750Y-61595000D03*
%TO.P,S28,2,2*%
X297338750Y-64135000D03*
%TD*%
D10*
%TO.C,S29-2*%
%TO.CFtp,SW_Hotswap_Kailh_MX_Plated_1.25u_90deg*%
%TO.CVal,MX1A*%
%TO.CLbN,PCM_Switch_Keyboard_Hotswap_Kailh*%
%TO.CMnt,SMD*%
%TO.CRot,90*%
X40481250Y-76200000D03*
D11*
X47731249Y-68950001D02*
X47731249Y-83449999D01*
X33231251Y-83449999D01*
X33231251Y-68950001D01*
X47731249Y-68950001D01*
D12*
%TO.P,S29-2,1,1*%
X37941250Y-80010000D03*
D13*
%TO.P,S29-2,*%
X40481250Y-81280000D03*
X40481250Y-76200000D03*
X40481250Y-71120000D03*
%TO.P,S29-2,2,2*%
X35401250Y-73660000D03*
%TD*%
D10*
%TO.C,S29*%
%TO.CFtp,SW_Hotswap_Kailh_MX_Plated_1.75u_90deg*%
%TO.CVal,MX1A*%
%TO.CLbN,PCM_Switch_Keyboard_Hotswap_Kailh*%
%TO.CMnt,SMD*%
%TO.CRot,-90*%
X45243750Y-76200000D03*
D11*
X52493749Y-68950001D02*
X52493749Y-83449999D01*
X37993751Y-83449999D01*
X37993751Y-68950001D01*
X52493749Y-68950001D01*
D12*
%TO.P,S29,1,1*%
X47783750Y-72390000D03*
D13*
%TO.P,S29,*%
X45243750Y-71120000D03*
X45243750Y-76200000D03*
X45243750Y-81280000D03*
%TO.P,S29,2,2*%
X50323750Y-78740000D03*
%TD*%
D10*
%TO.C,S6*%
%TO.CFtp,SW_Hotswap_Kailh_MX_Plated_1.00u*%
%TO.CVal,MX1A*%
%TO.CLbN,PCM_Switch_Keyboard_Hotswap_Kailh*%
%TO.CMnt,SMD*%
%TO.CRot,0*%
X133350000Y-38100000D03*
D11*
X140599999Y-30850001D02*
X140599999Y-45349999D01*
X126100001Y-45349999D01*
X126100001Y-30850001D01*
X140599999Y-30850001D01*
D12*
%TO.P,S6,1,1*%
X129540000Y-35560000D03*
D13*
%TO.P,S6,*%
X128270000Y-38100000D03*
X133350000Y-38100000D03*
X138430000Y-38100000D03*
%TO.P,S6,2,2*%
X135890000Y-33020000D03*
%TD*%
D10*
%TO.C,S59-2*%
%TO.CFtp,SW_Hotswap_Kailh_MX_Plated_1.50u_90deg*%
%TO.CVal,MX1A*%
%TO.CLbN,PCM_Switch_Keyboard_Hotswap_Kailh*%
%TO.CMnt,SMD*%
%TO.CRot,-90*%
X90487500Y-114300000D03*
D11*
X97737499Y-107050001D02*
X97737499Y-121549999D01*
X83237501Y-121549999D01*
X83237501Y-107050001D01*
X97737499Y-107050001D01*
D12*
%TO.P,S59-2,1,1*%
X93027500Y-110490000D03*
D13*
%TO.P,S59-2,*%
X90487500Y-109220000D03*
X90487500Y-114300000D03*
X90487500Y-119380000D03*
%TO.P,S59-2,2,2*%
X95567500Y-116840000D03*
%TD*%
D10*
%TO.C,S43-2*%
%TO.CFtp,SW_Hotswap_Kailh_MX_Plated_2.25u*%
%TO.CVal,MX1A*%
%TO.CLbN,PCM_Switch_Keyboard_Hotswap_Kailh*%
%TO.CMnt,SMD*%
%TO.CRot,180*%
X50006250Y-95250000D03*
D11*
X57256249Y-88000001D02*
X57256249Y-102499999D01*
X42756251Y-102499999D01*
X42756251Y-88000001D01*
X57256249Y-88000001D01*
D12*
%TO.P,S43-2,1,1*%
X53816250Y-97790000D03*
D13*
%TO.P,S43-2,*%
X55086250Y-95250000D03*
X50006250Y-95250000D03*
X44926250Y-95250000D03*
%TO.P,S43-2,2,2*%
X47466250Y-100330000D03*
%TD*%
D10*
%TO.C,S2*%
%TO.CFtp,SW_Hotswap_Kailh_MX_Plated_1.00u*%
%TO.CVal,MX1A*%
%TO.CLbN,PCM_Switch_Keyboard_Hotswap_Kailh*%
%TO.CMnt,SMD*%
%TO.CRot,180*%
X57150000Y-38100000D03*
D11*
X64399999Y-30850001D02*
X64399999Y-45349999D01*
X49900001Y-45349999D01*
X49900001Y-30850001D01*
X64399999Y-30850001D01*
D12*
%TO.P,S2,1,1*%
X60960000Y-40640000D03*
D13*
%TO.P,S2,*%
X62230000Y-38100000D03*
X57150000Y-38100000D03*
X52070000Y-38100000D03*
%TO.P,S2,2,2*%
X54610000Y-43180000D03*
%TD*%
D10*
%TO.C,S64*%
%TO.CFtp,SW_Hotswap_Kailh_MX_Plated_1.25u_90deg*%
%TO.CVal,MX1A*%
%TO.CLbN,PCM_Switch_Keyboard_Hotswap_Kailh*%
%TO.CMnt,SMD*%
%TO.CRot,-90*%
X302418750Y-114300000D03*
D11*
X309668749Y-107050001D02*
X309668749Y-121549999D01*
X295168751Y-121549999D01*
X295168751Y-107050001D01*
X309668749Y-107050001D01*
D12*
%TO.P,S64,1,1*%
X304958750Y-110490000D03*
D13*
%TO.P,S64,*%
X302418750Y-109220000D03*
X302418750Y-114300000D03*
X302418750Y-119380000D03*
%TO.P,S64,2,2*%
X307498750Y-116840000D03*
%TD*%
D10*
%TO.C,S40*%
%TO.CFtp,SW_Hotswap_Kailh_MX_Plated_1.00u*%
%TO.CVal,MX1A*%
%TO.CLbN,PCM_Switch_Keyboard_Hotswap_Kailh*%
%TO.CMnt,SMD*%
%TO.CRot,0*%
X261937500Y-76200000D03*
D11*
X269187499Y-68950001D02*
X269187499Y-83449999D01*
X254687501Y-83449999D01*
X254687501Y-68950001D01*
X269187499Y-68950001D01*
D12*
%TO.P,S40,1,1*%
X258127500Y-73660000D03*
D13*
%TO.P,S40,*%
X256857500Y-76200000D03*
X261937500Y-76200000D03*
X267017500Y-76200000D03*
%TO.P,S40,2,2*%
X264477500Y-71120000D03*
%TD*%
D14*
X311950000Y-123500000D02*
X30950000Y-123500000D01*
X28950000Y-30900000D02*
G75*
G02*
X30950000Y-28900000I2000000J0D01*
G01*
X30950000Y-123500000D02*
G75*
G02*
X28950000Y-121500000I0J2000000D01*
G01*
X311950000Y-28900000D02*
G75*
G02*
X313950000Y-30900000I0J-2000000D01*
G01*
X30950000Y-28900000D02*
X311950000Y-28900000D01*
X313950000Y-30900000D02*
X313950000Y-121500000D01*
X28950000Y-121500000D02*
X28950000Y-30900000D01*
X313950000Y-121500000D02*
G75*
G02*
X311950000Y-123500000I-2000000J0D01*
G01*
M02*
