%TF.GenerationSoftware,KiCad,Pcbnew,8.0.6*%
%TF.CreationDate,2024-12-08T15:52:03+08:00*%
%TF.ProjectId,PH60_Rev2,50483630-5f52-4657-9632-2e6b69636164,rev?*%
%TF.SameCoordinates,Original*%
%TF.FileFunction,Drillmap*%
%TF.FilePolarity,Positive*%
%FSLAX45Y45*%
G04 Gerber Fmt 4.5, Leading zero omitted, Abs format (unit mm)*
G04 Created by KiCad (PCBNEW 8.0.6) date 2024-12-08 15:52:03*
%MOMM*%
%LPD*%
G01*
G04 APERTURE LIST*
%ADD10C,0.050000*%
%ADD11C,0.200000*%
%ADD12C,0.100000*%
%ADD13C,0.175000*%
%ADD14C,0.250000*%
%ADD15C,0.304800*%
%ADD16C,0.305000*%
%ADD17C,0.398780*%
%ADD18C,0.400000*%
G04 APERTURE END LIST*
D10*
X31195000Y-12350000D02*
X3095000Y-12350000D01*
X2895000Y-3090000D02*
G75*
G02*
X3095000Y-2890000I200000J0D01*
G01*
X3095000Y-12350000D02*
G75*
G02*
X2895000Y-12150000I0J200000D01*
G01*
X31195000Y-2890000D02*
G75*
G02*
X31395000Y-3090000I0J-200000D01*
G01*
X3095000Y-2890000D02*
X31195000Y-2890000D01*
X31395000Y-3090000D02*
X31395000Y-12150000D01*
X2895000Y-12150000D02*
X2895000Y-3090000D01*
X31395000Y-12150000D02*
G75*
G02*
X31195000Y-12350000I-200000J0D01*
G01*
D11*
D12*
X4393500Y-3485500D02*
X4458500Y-3550500D01*
X4458500Y-3485500D02*
X4393500Y-3550500D01*
X4971500Y-3485500D02*
X5036500Y-3550500D01*
X5036500Y-3485500D02*
X4971500Y-3550500D01*
D13*
X3389500Y-3810000D02*
G75*
G02*
X3214500Y-3810000I-87500J0D01*
G01*
X3214500Y-3810000D02*
G75*
G02*
X3389500Y-3810000I87500J0D01*
G01*
X3627625Y-9525000D02*
G75*
G02*
X3452625Y-9525000I-87500J0D01*
G01*
X3452625Y-9525000D02*
G75*
G02*
X3627625Y-9525000I87500J0D01*
G01*
X3865750Y-5715000D02*
G75*
G02*
X3690750Y-5715000I-87500J0D01*
G01*
X3690750Y-5715000D02*
G75*
G02*
X3865750Y-5715000I87500J0D01*
G01*
X4135625Y-7112000D02*
G75*
G02*
X3960625Y-7112000I-87500J0D01*
G01*
X3960625Y-7112000D02*
G75*
G02*
X4135625Y-7112000I87500J0D01*
G01*
X4135625Y-8128000D02*
G75*
G02*
X3960625Y-8128000I-87500J0D01*
G01*
X3960625Y-8128000D02*
G75*
G02*
X4135625Y-8128000I87500J0D01*
G01*
X4135625Y-10922000D02*
G75*
G02*
X3960625Y-10922000I-87500J0D01*
G01*
X3960625Y-10922000D02*
G75*
G02*
X4135625Y-10922000I87500J0D01*
G01*
X4135625Y-11938000D02*
G75*
G02*
X3960625Y-11938000I-87500J0D01*
G01*
X3960625Y-11938000D02*
G75*
G02*
X4135625Y-11938000I87500J0D01*
G01*
X4373750Y-10922000D02*
G75*
G02*
X4198750Y-10922000I-87500J0D01*
G01*
X4198750Y-10922000D02*
G75*
G02*
X4373750Y-10922000I87500J0D01*
G01*
X4373750Y-11938000D02*
G75*
G02*
X4198750Y-11938000I-87500J0D01*
G01*
X4198750Y-11938000D02*
G75*
G02*
X4373750Y-11938000I87500J0D01*
G01*
X4405500Y-3810000D02*
G75*
G02*
X4230500Y-3810000I-87500J0D01*
G01*
X4230500Y-3810000D02*
G75*
G02*
X4405500Y-3810000I87500J0D01*
G01*
X4580125Y-9525000D02*
G75*
G02*
X4405125Y-9525000I-87500J0D01*
G01*
X4405125Y-9525000D02*
G75*
G02*
X4580125Y-9525000I87500J0D01*
G01*
X4611875Y-7112000D02*
G75*
G02*
X4436875Y-7112000I-87500J0D01*
G01*
X4436875Y-7112000D02*
G75*
G02*
X4611875Y-7112000I87500J0D01*
G01*
X4611875Y-8128000D02*
G75*
G02*
X4436875Y-8128000I-87500J0D01*
G01*
X4436875Y-8128000D02*
G75*
G02*
X4611875Y-8128000I87500J0D01*
G01*
X4643625Y-9525000D02*
G75*
G02*
X4468625Y-9525000I-87500J0D01*
G01*
X4468625Y-9525000D02*
G75*
G02*
X4643625Y-9525000I87500J0D01*
G01*
X4881750Y-5715000D02*
G75*
G02*
X4706750Y-5715000I-87500J0D01*
G01*
X4706750Y-5715000D02*
G75*
G02*
X4881750Y-5715000I87500J0D01*
G01*
X5294500Y-3810000D02*
G75*
G02*
X5119500Y-3810000I-87500J0D01*
G01*
X5119500Y-3810000D02*
G75*
G02*
X5294500Y-3810000I87500J0D01*
G01*
X5596125Y-9525000D02*
G75*
G02*
X5421125Y-9525000I-87500J0D01*
G01*
X5421125Y-9525000D02*
G75*
G02*
X5596125Y-9525000I87500J0D01*
G01*
X5770750Y-9525000D02*
G75*
G02*
X5595750Y-9525000I-87500J0D01*
G01*
X5595750Y-9525000D02*
G75*
G02*
X5770750Y-9525000I87500J0D01*
G01*
X6247000Y-5715000D02*
G75*
G02*
X6072000Y-5715000I-87500J0D01*
G01*
X6072000Y-5715000D02*
G75*
G02*
X6247000Y-5715000I87500J0D01*
G01*
X6310500Y-3810000D02*
G75*
G02*
X6135500Y-3810000I-87500J0D01*
G01*
X6135500Y-3810000D02*
G75*
G02*
X6310500Y-3810000I87500J0D01*
G01*
X6516875Y-10922000D02*
G75*
G02*
X6341875Y-10922000I-87500J0D01*
G01*
X6341875Y-10922000D02*
G75*
G02*
X6516875Y-10922000I87500J0D01*
G01*
X6516875Y-11938000D02*
G75*
G02*
X6341875Y-11938000I-87500J0D01*
G01*
X6341875Y-11938000D02*
G75*
G02*
X6516875Y-11938000I87500J0D01*
G01*
X6723250Y-7620000D02*
G75*
G02*
X6548250Y-7620000I-87500J0D01*
G01*
X6548250Y-7620000D02*
G75*
G02*
X6723250Y-7620000I87500J0D01*
G01*
X6755000Y-10922000D02*
G75*
G02*
X6580000Y-10922000I-87500J0D01*
G01*
X6580000Y-10922000D02*
G75*
G02*
X6755000Y-10922000I87500J0D01*
G01*
X6755000Y-11938000D02*
G75*
G02*
X6580000Y-11938000I-87500J0D01*
G01*
X6580000Y-11938000D02*
G75*
G02*
X6755000Y-11938000I87500J0D01*
G01*
X6786750Y-9525000D02*
G75*
G02*
X6611750Y-9525000I-87500J0D01*
G01*
X6611750Y-9525000D02*
G75*
G02*
X6786750Y-9525000I87500J0D01*
G01*
X7199500Y-3810000D02*
G75*
G02*
X7024500Y-3810000I-87500J0D01*
G01*
X7024500Y-3810000D02*
G75*
G02*
X7199500Y-3810000I87500J0D01*
G01*
X7263000Y-5715000D02*
G75*
G02*
X7088000Y-5715000I-87500J0D01*
G01*
X7088000Y-5715000D02*
G75*
G02*
X7263000Y-5715000I87500J0D01*
G01*
X7675750Y-9525000D02*
G75*
G02*
X7500750Y-9525000I-87500J0D01*
G01*
X7500750Y-9525000D02*
G75*
G02*
X7675750Y-9525000I87500J0D01*
G01*
X7739250Y-7620000D02*
G75*
G02*
X7564250Y-7620000I-87500J0D01*
G01*
X7564250Y-7620000D02*
G75*
G02*
X7739250Y-7620000I87500J0D01*
G01*
X8152000Y-5715000D02*
G75*
G02*
X7977000Y-5715000I-87500J0D01*
G01*
X7977000Y-5715000D02*
G75*
G02*
X8152000Y-5715000I87500J0D01*
G01*
X8215500Y-3810000D02*
G75*
G02*
X8040500Y-3810000I-87500J0D01*
G01*
X8040500Y-3810000D02*
G75*
G02*
X8215500Y-3810000I87500J0D01*
G01*
X8628250Y-7620000D02*
G75*
G02*
X8453250Y-7620000I-87500J0D01*
G01*
X8453250Y-7620000D02*
G75*
G02*
X8628250Y-7620000I87500J0D01*
G01*
X8691750Y-9525000D02*
G75*
G02*
X8516750Y-9525000I-87500J0D01*
G01*
X8516750Y-9525000D02*
G75*
G02*
X8691750Y-9525000I87500J0D01*
G01*
X8898125Y-10922000D02*
G75*
G02*
X8723125Y-10922000I-87500J0D01*
G01*
X8723125Y-10922000D02*
G75*
G02*
X8898125Y-10922000I87500J0D01*
G01*
X8898125Y-11938000D02*
G75*
G02*
X8723125Y-11938000I-87500J0D01*
G01*
X8723125Y-11938000D02*
G75*
G02*
X8898125Y-11938000I87500J0D01*
G01*
X9104500Y-3810000D02*
G75*
G02*
X8929500Y-3810000I-87500J0D01*
G01*
X8929500Y-3810000D02*
G75*
G02*
X9104500Y-3810000I87500J0D01*
G01*
X9136250Y-10922000D02*
G75*
G02*
X8961250Y-10922000I-87500J0D01*
G01*
X8961250Y-10922000D02*
G75*
G02*
X9136250Y-10922000I87500J0D01*
G01*
X9136250Y-11938000D02*
G75*
G02*
X8961250Y-11938000I-87500J0D01*
G01*
X8961250Y-11938000D02*
G75*
G02*
X9136250Y-11938000I87500J0D01*
G01*
X9168000Y-5715000D02*
G75*
G02*
X8993000Y-5715000I-87500J0D01*
G01*
X8993000Y-5715000D02*
G75*
G02*
X9168000Y-5715000I87500J0D01*
G01*
X9580750Y-9525000D02*
G75*
G02*
X9405750Y-9525000I-87500J0D01*
G01*
X9405750Y-9525000D02*
G75*
G02*
X9580750Y-9525000I87500J0D01*
G01*
X9644250Y-7620000D02*
G75*
G02*
X9469250Y-7620000I-87500J0D01*
G01*
X9469250Y-7620000D02*
G75*
G02*
X9644250Y-7620000I87500J0D01*
G01*
X10057000Y-5715000D02*
G75*
G02*
X9882000Y-5715000I-87500J0D01*
G01*
X9882000Y-5715000D02*
G75*
G02*
X10057000Y-5715000I87500J0D01*
G01*
X10120500Y-3810000D02*
G75*
G02*
X9945500Y-3810000I-87500J0D01*
G01*
X9945500Y-3810000D02*
G75*
G02*
X10120500Y-3810000I87500J0D01*
G01*
X10533250Y-7620000D02*
G75*
G02*
X10358250Y-7620000I-87500J0D01*
G01*
X10358250Y-7620000D02*
G75*
G02*
X10533250Y-7620000I87500J0D01*
G01*
X10596750Y-9525000D02*
G75*
G02*
X10421750Y-9525000I-87500J0D01*
G01*
X10421750Y-9525000D02*
G75*
G02*
X10596750Y-9525000I87500J0D01*
G01*
X11009500Y-3810000D02*
G75*
G02*
X10834500Y-3810000I-87500J0D01*
G01*
X10834500Y-3810000D02*
G75*
G02*
X11009500Y-3810000I87500J0D01*
G01*
X11073000Y-5715000D02*
G75*
G02*
X10898000Y-5715000I-87500J0D01*
G01*
X10898000Y-5715000D02*
G75*
G02*
X11073000Y-5715000I87500J0D01*
G01*
X11485750Y-9525000D02*
G75*
G02*
X11310750Y-9525000I-87500J0D01*
G01*
X11310750Y-9525000D02*
G75*
G02*
X11485750Y-9525000I87500J0D01*
G01*
X11549250Y-7620000D02*
G75*
G02*
X11374250Y-7620000I-87500J0D01*
G01*
X11374250Y-7620000D02*
G75*
G02*
X11549250Y-7620000I87500J0D01*
G01*
X11962000Y-5715000D02*
G75*
G02*
X11787000Y-5715000I-87500J0D01*
G01*
X11787000Y-5715000D02*
G75*
G02*
X11962000Y-5715000I87500J0D01*
G01*
X12025500Y-3810000D02*
G75*
G02*
X11850500Y-3810000I-87500J0D01*
G01*
X11850500Y-3810000D02*
G75*
G02*
X12025500Y-3810000I87500J0D01*
G01*
X12438250Y-7620000D02*
G75*
G02*
X12263250Y-7620000I-87500J0D01*
G01*
X12263250Y-7620000D02*
G75*
G02*
X12438250Y-7620000I87500J0D01*
G01*
X12501750Y-9525000D02*
G75*
G02*
X12326750Y-9525000I-87500J0D01*
G01*
X12326750Y-9525000D02*
G75*
G02*
X12501750Y-9525000I87500J0D01*
G01*
X12914500Y-3810000D02*
G75*
G02*
X12739500Y-3810000I-87500J0D01*
G01*
X12739500Y-3810000D02*
G75*
G02*
X12914500Y-3810000I87500J0D01*
G01*
X12978000Y-5715000D02*
G75*
G02*
X12803000Y-5715000I-87500J0D01*
G01*
X12803000Y-5715000D02*
G75*
G02*
X12978000Y-5715000I87500J0D01*
G01*
X13390750Y-9525000D02*
G75*
G02*
X13215750Y-9525000I-87500J0D01*
G01*
X13215750Y-9525000D02*
G75*
G02*
X13390750Y-9525000I87500J0D01*
G01*
X13454250Y-7620000D02*
G75*
G02*
X13279250Y-7620000I-87500J0D01*
G01*
X13279250Y-7620000D02*
G75*
G02*
X13454250Y-7620000I87500J0D01*
G01*
X13867000Y-5715000D02*
G75*
G02*
X13692000Y-5715000I-87500J0D01*
G01*
X13692000Y-5715000D02*
G75*
G02*
X13867000Y-5715000I87500J0D01*
G01*
X13930500Y-3810000D02*
G75*
G02*
X13755500Y-3810000I-87500J0D01*
G01*
X13755500Y-3810000D02*
G75*
G02*
X13930500Y-3810000I87500J0D01*
G01*
X14343250Y-7620000D02*
G75*
G02*
X14168250Y-7620000I-87500J0D01*
G01*
X14168250Y-7620000D02*
G75*
G02*
X14343250Y-7620000I87500J0D01*
G01*
X14406750Y-9525000D02*
G75*
G02*
X14231750Y-9525000I-87500J0D01*
G01*
X14231750Y-9525000D02*
G75*
G02*
X14406750Y-9525000I87500J0D01*
G01*
X14819500Y-3810000D02*
G75*
G02*
X14644500Y-3810000I-87500J0D01*
G01*
X14644500Y-3810000D02*
G75*
G02*
X14819500Y-3810000I87500J0D01*
G01*
X14883000Y-5715000D02*
G75*
G02*
X14708000Y-5715000I-87500J0D01*
G01*
X14708000Y-5715000D02*
G75*
G02*
X14883000Y-5715000I87500J0D01*
G01*
X15295750Y-9525000D02*
G75*
G02*
X15120750Y-9525000I-87500J0D01*
G01*
X15120750Y-9525000D02*
G75*
G02*
X15295750Y-9525000I87500J0D01*
G01*
X15359250Y-7620000D02*
G75*
G02*
X15184250Y-7620000I-87500J0D01*
G01*
X15184250Y-7620000D02*
G75*
G02*
X15359250Y-7620000I87500J0D01*
G01*
X15533875Y-11430000D02*
G75*
G02*
X15358875Y-11430000I-87500J0D01*
G01*
X15358875Y-11430000D02*
G75*
G02*
X15533875Y-11430000I87500J0D01*
G01*
X15772000Y-5715000D02*
G75*
G02*
X15597000Y-5715000I-87500J0D01*
G01*
X15597000Y-5715000D02*
G75*
G02*
X15772000Y-5715000I87500J0D01*
G01*
X15835500Y-3810000D02*
G75*
G02*
X15660500Y-3810000I-87500J0D01*
G01*
X15660500Y-3810000D02*
G75*
G02*
X15835500Y-3810000I87500J0D01*
G01*
X16248250Y-7620000D02*
G75*
G02*
X16073250Y-7620000I-87500J0D01*
G01*
X16073250Y-7620000D02*
G75*
G02*
X16248250Y-7620000I87500J0D01*
G01*
X16311750Y-9525000D02*
G75*
G02*
X16136750Y-9525000I-87500J0D01*
G01*
X16136750Y-9525000D02*
G75*
G02*
X16311750Y-9525000I87500J0D01*
G01*
X16549875Y-11430000D02*
G75*
G02*
X16374875Y-11430000I-87500J0D01*
G01*
X16374875Y-11430000D02*
G75*
G02*
X16549875Y-11430000I87500J0D01*
G01*
X16724500Y-3810000D02*
G75*
G02*
X16549500Y-3810000I-87500J0D01*
G01*
X16549500Y-3810000D02*
G75*
G02*
X16724500Y-3810000I87500J0D01*
G01*
X16724500Y-11430000D02*
G75*
G02*
X16549500Y-11430000I-87500J0D01*
G01*
X16549500Y-11430000D02*
G75*
G02*
X16724500Y-11430000I87500J0D01*
G01*
X16788000Y-5715000D02*
G75*
G02*
X16613000Y-5715000I-87500J0D01*
G01*
X16613000Y-5715000D02*
G75*
G02*
X16788000Y-5715000I87500J0D01*
G01*
X17200750Y-9525000D02*
G75*
G02*
X17025750Y-9525000I-87500J0D01*
G01*
X17025750Y-9525000D02*
G75*
G02*
X17200750Y-9525000I87500J0D01*
G01*
X17264250Y-7620000D02*
G75*
G02*
X17089250Y-7620000I-87500J0D01*
G01*
X17089250Y-7620000D02*
G75*
G02*
X17264250Y-7620000I87500J0D01*
G01*
X17677000Y-5715000D02*
G75*
G02*
X17502000Y-5715000I-87500J0D01*
G01*
X17502000Y-5715000D02*
G75*
G02*
X17677000Y-5715000I87500J0D01*
G01*
X17740500Y-3810000D02*
G75*
G02*
X17565500Y-3810000I-87500J0D01*
G01*
X17565500Y-3810000D02*
G75*
G02*
X17740500Y-3810000I87500J0D01*
G01*
X17740500Y-11430000D02*
G75*
G02*
X17565500Y-11430000I-87500J0D01*
G01*
X17565500Y-11430000D02*
G75*
G02*
X17740500Y-11430000I87500J0D01*
G01*
X18153250Y-7620000D02*
G75*
G02*
X17978250Y-7620000I-87500J0D01*
G01*
X17978250Y-7620000D02*
G75*
G02*
X18153250Y-7620000I87500J0D01*
G01*
X18216750Y-9525000D02*
G75*
G02*
X18041750Y-9525000I-87500J0D01*
G01*
X18041750Y-9525000D02*
G75*
G02*
X18216750Y-9525000I87500J0D01*
G01*
X18629500Y-3810000D02*
G75*
G02*
X18454500Y-3810000I-87500J0D01*
G01*
X18454500Y-3810000D02*
G75*
G02*
X18629500Y-3810000I87500J0D01*
G01*
X18693000Y-5715000D02*
G75*
G02*
X18518000Y-5715000I-87500J0D01*
G01*
X18518000Y-5715000D02*
G75*
G02*
X18693000Y-5715000I87500J0D01*
G01*
X19105750Y-9525000D02*
G75*
G02*
X18930750Y-9525000I-87500J0D01*
G01*
X18930750Y-9525000D02*
G75*
G02*
X19105750Y-9525000I87500J0D01*
G01*
X19169250Y-7620000D02*
G75*
G02*
X18994250Y-7620000I-87500J0D01*
G01*
X18994250Y-7620000D02*
G75*
G02*
X19169250Y-7620000I87500J0D01*
G01*
X19582000Y-5715000D02*
G75*
G02*
X19407000Y-5715000I-87500J0D01*
G01*
X19407000Y-5715000D02*
G75*
G02*
X19582000Y-5715000I87500J0D01*
G01*
X19645500Y-3810000D02*
G75*
G02*
X19470500Y-3810000I-87500J0D01*
G01*
X19470500Y-3810000D02*
G75*
G02*
X19645500Y-3810000I87500J0D01*
G01*
X20058250Y-7620000D02*
G75*
G02*
X19883250Y-7620000I-87500J0D01*
G01*
X19883250Y-7620000D02*
G75*
G02*
X20058250Y-7620000I87500J0D01*
G01*
X20121750Y-9525000D02*
G75*
G02*
X19946750Y-9525000I-87500J0D01*
G01*
X19946750Y-9525000D02*
G75*
G02*
X20121750Y-9525000I87500J0D01*
G01*
X20534500Y-3810000D02*
G75*
G02*
X20359500Y-3810000I-87500J0D01*
G01*
X20359500Y-3810000D02*
G75*
G02*
X20534500Y-3810000I87500J0D01*
G01*
X20598000Y-5715000D02*
G75*
G02*
X20423000Y-5715000I-87500J0D01*
G01*
X20423000Y-5715000D02*
G75*
G02*
X20598000Y-5715000I87500J0D01*
G01*
X21010750Y-9525000D02*
G75*
G02*
X20835750Y-9525000I-87500J0D01*
G01*
X20835750Y-9525000D02*
G75*
G02*
X21010750Y-9525000I87500J0D01*
G01*
X21074250Y-7620000D02*
G75*
G02*
X20899250Y-7620000I-87500J0D01*
G01*
X20899250Y-7620000D02*
G75*
G02*
X21074250Y-7620000I87500J0D01*
G01*
X21487000Y-5715000D02*
G75*
G02*
X21312000Y-5715000I-87500J0D01*
G01*
X21312000Y-5715000D02*
G75*
G02*
X21487000Y-5715000I87500J0D01*
G01*
X21550500Y-3810000D02*
G75*
G02*
X21375500Y-3810000I-87500J0D01*
G01*
X21375500Y-3810000D02*
G75*
G02*
X21550500Y-3810000I87500J0D01*
G01*
X21963250Y-7620000D02*
G75*
G02*
X21788250Y-7620000I-87500J0D01*
G01*
X21788250Y-7620000D02*
G75*
G02*
X21963250Y-7620000I87500J0D01*
G01*
X22026750Y-9525000D02*
G75*
G02*
X21851750Y-9525000I-87500J0D01*
G01*
X21851750Y-9525000D02*
G75*
G02*
X22026750Y-9525000I87500J0D01*
G01*
X22439500Y-3810000D02*
G75*
G02*
X22264500Y-3810000I-87500J0D01*
G01*
X22264500Y-3810000D02*
G75*
G02*
X22439500Y-3810000I87500J0D01*
G01*
X22503000Y-5715000D02*
G75*
G02*
X22328000Y-5715000I-87500J0D01*
G01*
X22328000Y-5715000D02*
G75*
G02*
X22503000Y-5715000I87500J0D01*
G01*
X22677625Y-11430000D02*
G75*
G02*
X22502625Y-11430000I-87500J0D01*
G01*
X22502625Y-11430000D02*
G75*
G02*
X22677625Y-11430000I87500J0D01*
G01*
X22915750Y-9525000D02*
G75*
G02*
X22740750Y-9525000I-87500J0D01*
G01*
X22740750Y-9525000D02*
G75*
G02*
X22915750Y-9525000I87500J0D01*
G01*
X22979250Y-7620000D02*
G75*
G02*
X22804250Y-7620000I-87500J0D01*
G01*
X22804250Y-7620000D02*
G75*
G02*
X22979250Y-7620000I87500J0D01*
G01*
X23392000Y-5715000D02*
G75*
G02*
X23217000Y-5715000I-87500J0D01*
G01*
X23217000Y-5715000D02*
G75*
G02*
X23392000Y-5715000I87500J0D01*
G01*
X23455500Y-3810000D02*
G75*
G02*
X23280500Y-3810000I-87500J0D01*
G01*
X23280500Y-3810000D02*
G75*
G02*
X23455500Y-3810000I87500J0D01*
G01*
X23693625Y-11430000D02*
G75*
G02*
X23518625Y-11430000I-87500J0D01*
G01*
X23518625Y-11430000D02*
G75*
G02*
X23693625Y-11430000I87500J0D01*
G01*
X23868250Y-7620000D02*
G75*
G02*
X23693250Y-7620000I-87500J0D01*
G01*
X23693250Y-7620000D02*
G75*
G02*
X23868250Y-7620000I87500J0D01*
G01*
X23931750Y-9525000D02*
G75*
G02*
X23756750Y-9525000I-87500J0D01*
G01*
X23756750Y-9525000D02*
G75*
G02*
X23931750Y-9525000I87500J0D01*
G01*
X24344500Y-3810000D02*
G75*
G02*
X24169500Y-3810000I-87500J0D01*
G01*
X24169500Y-3810000D02*
G75*
G02*
X24344500Y-3810000I87500J0D01*
G01*
X24408000Y-5715000D02*
G75*
G02*
X24233000Y-5715000I-87500J0D01*
G01*
X24233000Y-5715000D02*
G75*
G02*
X24408000Y-5715000I87500J0D01*
G01*
X24820750Y-9525000D02*
G75*
G02*
X24645750Y-9525000I-87500J0D01*
G01*
X24645750Y-9525000D02*
G75*
G02*
X24820750Y-9525000I87500J0D01*
G01*
X24884250Y-7620000D02*
G75*
G02*
X24709250Y-7620000I-87500J0D01*
G01*
X24709250Y-7620000D02*
G75*
G02*
X24884250Y-7620000I87500J0D01*
G01*
X25297000Y-5715000D02*
G75*
G02*
X25122000Y-5715000I-87500J0D01*
G01*
X25122000Y-5715000D02*
G75*
G02*
X25297000Y-5715000I87500J0D01*
G01*
X25328750Y-10922000D02*
G75*
G02*
X25153750Y-10922000I-87500J0D01*
G01*
X25153750Y-10922000D02*
G75*
G02*
X25328750Y-10922000I87500J0D01*
G01*
X25328750Y-11938000D02*
G75*
G02*
X25153750Y-11938000I-87500J0D01*
G01*
X25153750Y-11938000D02*
G75*
G02*
X25328750Y-11938000I87500J0D01*
G01*
X25360500Y-3810000D02*
G75*
G02*
X25185500Y-3810000I-87500J0D01*
G01*
X25185500Y-3810000D02*
G75*
G02*
X25360500Y-3810000I87500J0D01*
G01*
X25566875Y-10922000D02*
G75*
G02*
X25391875Y-10922000I-87500J0D01*
G01*
X25391875Y-10922000D02*
G75*
G02*
X25566875Y-10922000I87500J0D01*
G01*
X25566875Y-11938000D02*
G75*
G02*
X25391875Y-11938000I-87500J0D01*
G01*
X25391875Y-11938000D02*
G75*
G02*
X25566875Y-11938000I87500J0D01*
G01*
X25773250Y-7620000D02*
G75*
G02*
X25598250Y-7620000I-87500J0D01*
G01*
X25598250Y-7620000D02*
G75*
G02*
X25773250Y-7620000I87500J0D01*
G01*
X25836750Y-9525000D02*
G75*
G02*
X25661750Y-9525000I-87500J0D01*
G01*
X25661750Y-9525000D02*
G75*
G02*
X25836750Y-9525000I87500J0D01*
G01*
X26249500Y-3810000D02*
G75*
G02*
X26074500Y-3810000I-87500J0D01*
G01*
X26074500Y-3810000D02*
G75*
G02*
X26249500Y-3810000I87500J0D01*
G01*
X26313000Y-5715000D02*
G75*
G02*
X26138000Y-5715000I-87500J0D01*
G01*
X26138000Y-5715000D02*
G75*
G02*
X26313000Y-5715000I87500J0D01*
G01*
X26789250Y-7620000D02*
G75*
G02*
X26614250Y-7620000I-87500J0D01*
G01*
X26614250Y-7620000D02*
G75*
G02*
X26789250Y-7620000I87500J0D01*
G01*
X27202000Y-5715000D02*
G75*
G02*
X27027000Y-5715000I-87500J0D01*
G01*
X27027000Y-5715000D02*
G75*
G02*
X27202000Y-5715000I87500J0D01*
G01*
X27265500Y-3810000D02*
G75*
G02*
X27090500Y-3810000I-87500J0D01*
G01*
X27090500Y-3810000D02*
G75*
G02*
X27265500Y-3810000I87500J0D01*
G01*
X27710000Y-10922000D02*
G75*
G02*
X27535000Y-10922000I-87500J0D01*
G01*
X27535000Y-10922000D02*
G75*
G02*
X27710000Y-10922000I87500J0D01*
G01*
X27710000Y-11938000D02*
G75*
G02*
X27535000Y-11938000I-87500J0D01*
G01*
X27535000Y-11938000D02*
G75*
G02*
X27710000Y-11938000I87500J0D01*
G01*
X27948125Y-9017000D02*
G75*
G02*
X27773125Y-9017000I-87500J0D01*
G01*
X27773125Y-9017000D02*
G75*
G02*
X27948125Y-9017000I87500J0D01*
G01*
X27948125Y-10033000D02*
G75*
G02*
X27773125Y-10033000I-87500J0D01*
G01*
X27773125Y-10033000D02*
G75*
G02*
X27948125Y-10033000I87500J0D01*
G01*
X27948125Y-10922000D02*
G75*
G02*
X27773125Y-10922000I-87500J0D01*
G01*
X27773125Y-10922000D02*
G75*
G02*
X27948125Y-10922000I87500J0D01*
G01*
X27948125Y-11938000D02*
G75*
G02*
X27773125Y-11938000I-87500J0D01*
G01*
X27773125Y-11938000D02*
G75*
G02*
X27948125Y-11938000I87500J0D01*
G01*
X28154500Y-3810000D02*
G75*
G02*
X27979500Y-3810000I-87500J0D01*
G01*
X27979500Y-3810000D02*
G75*
G02*
X28154500Y-3810000I87500J0D01*
G01*
X28186250Y-7112000D02*
G75*
G02*
X28011250Y-7112000I-87500J0D01*
G01*
X28011250Y-7112000D02*
G75*
G02*
X28186250Y-7112000I87500J0D01*
G01*
X28186250Y-8128000D02*
G75*
G02*
X28011250Y-8128000I-87500J0D01*
G01*
X28011250Y-8128000D02*
G75*
G02*
X28186250Y-8128000I87500J0D01*
G01*
X28218000Y-5715000D02*
G75*
G02*
X28043000Y-5715000I-87500J0D01*
G01*
X28043000Y-5715000D02*
G75*
G02*
X28218000Y-5715000I87500J0D01*
G01*
X28900625Y-9017000D02*
G75*
G02*
X28725625Y-9017000I-87500J0D01*
G01*
X28725625Y-9017000D02*
G75*
G02*
X28900625Y-9017000I87500J0D01*
G01*
X28900625Y-10033000D02*
G75*
G02*
X28725625Y-10033000I-87500J0D01*
G01*
X28725625Y-10033000D02*
G75*
G02*
X28900625Y-10033000I87500J0D01*
G01*
X29107000Y-3810000D02*
G75*
G02*
X28932000Y-3810000I-87500J0D01*
G01*
X28932000Y-3810000D02*
G75*
G02*
X29107000Y-3810000I87500J0D01*
G01*
X29170500Y-3810000D02*
G75*
G02*
X28995500Y-3810000I-87500J0D01*
G01*
X28995500Y-3810000D02*
G75*
G02*
X29170500Y-3810000I87500J0D01*
G01*
X29376875Y-7112000D02*
G75*
G02*
X29201875Y-7112000I-87500J0D01*
G01*
X29201875Y-7112000D02*
G75*
G02*
X29376875Y-7112000I87500J0D01*
G01*
X29376875Y-8128000D02*
G75*
G02*
X29201875Y-8128000I-87500J0D01*
G01*
X29201875Y-8128000D02*
G75*
G02*
X29376875Y-8128000I87500J0D01*
G01*
X30059500Y-3810000D02*
G75*
G02*
X29884500Y-3810000I-87500J0D01*
G01*
X29884500Y-3810000D02*
G75*
G02*
X30059500Y-3810000I87500J0D01*
G01*
X30091250Y-5207000D02*
G75*
G02*
X29916250Y-5207000I-87500J0D01*
G01*
X29916250Y-5207000D02*
G75*
G02*
X30091250Y-5207000I87500J0D01*
G01*
X30091250Y-6223000D02*
G75*
G02*
X29916250Y-6223000I-87500J0D01*
G01*
X29916250Y-6223000D02*
G75*
G02*
X30091250Y-6223000I87500J0D01*
G01*
X30091250Y-10922000D02*
G75*
G02*
X29916250Y-10922000I-87500J0D01*
G01*
X29916250Y-10922000D02*
G75*
G02*
X30091250Y-10922000I87500J0D01*
G01*
X30091250Y-11938000D02*
G75*
G02*
X29916250Y-11938000I-87500J0D01*
G01*
X29916250Y-11938000D02*
G75*
G02*
X30091250Y-11938000I87500J0D01*
G01*
X30123000Y-3810000D02*
G75*
G02*
X29948000Y-3810000I-87500J0D01*
G01*
X29948000Y-3810000D02*
G75*
G02*
X30123000Y-3810000I87500J0D01*
G01*
X30329375Y-6159500D02*
G75*
G02*
X30154375Y-6159500I-87500J0D01*
G01*
X30154375Y-6159500D02*
G75*
G02*
X30329375Y-6159500I87500J0D01*
G01*
X30329375Y-7175500D02*
G75*
G02*
X30154375Y-7175500I-87500J0D01*
G01*
X30154375Y-7175500D02*
G75*
G02*
X30329375Y-7175500I87500J0D01*
G01*
X30329375Y-10922000D02*
G75*
G02*
X30154375Y-10922000I-87500J0D01*
G01*
X30154375Y-10922000D02*
G75*
G02*
X30329375Y-10922000I87500J0D01*
G01*
X30329375Y-11938000D02*
G75*
G02*
X30154375Y-11938000I-87500J0D01*
G01*
X30154375Y-11938000D02*
G75*
G02*
X30329375Y-11938000I87500J0D01*
G01*
X30567500Y-9017000D02*
G75*
G02*
X30392500Y-9017000I-87500J0D01*
G01*
X30392500Y-9017000D02*
G75*
G02*
X30567500Y-9017000I87500J0D01*
G01*
X30567500Y-10033000D02*
G75*
G02*
X30392500Y-10033000I-87500J0D01*
G01*
X30392500Y-10033000D02*
G75*
G02*
X30567500Y-10033000I87500J0D01*
G01*
X31075500Y-3810000D02*
G75*
G02*
X30900500Y-3810000I-87500J0D01*
G01*
X30900500Y-3810000D02*
G75*
G02*
X31075500Y-3810000I87500J0D01*
G01*
D14*
X3041000Y-8415000D02*
X3041000Y-8665000D01*
X2916000Y-8540000D02*
X3166000Y-8540000D01*
D12*
X2816000Y-8665000D02*
X3266000Y-8665000D01*
X3266000Y-8415000D02*
G75*
G02*
X3266000Y-8665000I0J-125000D01*
G01*
X3266000Y-8415000D02*
X2816000Y-8415000D01*
X2816000Y-8415000D02*
G75*
G03*
X2816000Y-8665000I0J-125000D01*
G01*
D14*
X5415000Y-5555000D02*
X5415000Y-5805000D01*
X5290000Y-5680000D02*
X5540000Y-5680000D01*
X15715000Y-7465000D02*
X15715000Y-7715000D01*
X15590000Y-7590000D02*
X15840000Y-7590000D01*
D12*
X15590000Y-7715000D02*
X15840000Y-7715000D01*
X15840000Y-7465000D02*
G75*
G02*
X15840000Y-7715000I0J-125000D01*
G01*
X15840000Y-7465000D02*
X15590000Y-7465000D01*
X15590000Y-7465000D02*
G75*
G03*
X15590000Y-7715000I0J-125000D01*
G01*
D14*
X21945000Y-11285000D02*
X21945000Y-11535000D01*
X21820000Y-11410000D02*
X22070000Y-11410000D01*
D12*
X21820000Y-11535000D02*
X22070000Y-11535000D01*
X22070000Y-11285000D02*
G75*
G02*
X22070000Y-11535000I0J-125000D01*
G01*
X22070000Y-11285000D02*
X21820000Y-11285000D01*
X21820000Y-11285000D02*
G75*
G03*
X21820000Y-11535000I0J-125000D01*
G01*
D14*
X28900000Y-5555000D02*
X28900000Y-5805000D01*
X28775000Y-5680000D02*
X29025000Y-5680000D01*
D12*
X28775000Y-5805000D02*
X29025000Y-5805000D01*
X29025000Y-5555000D02*
G75*
G02*
X29025000Y-5805000I0J-125000D01*
G01*
X29025000Y-5555000D02*
X28775000Y-5555000D01*
X28775000Y-5555000D02*
G75*
G03*
X28775000Y-5805000I0J-125000D01*
G01*
D14*
X31249000Y-8415000D02*
X31249000Y-8665000D01*
X31124000Y-8540000D02*
X31374000Y-8540000D01*
D12*
X31024000Y-8665000D02*
X31474000Y-8665000D01*
X31474000Y-8415000D02*
G75*
G02*
X31474000Y-8665000I0J-125000D01*
G01*
X31474000Y-8415000D02*
X31024000Y-8415000D01*
X31024000Y-8415000D02*
G75*
G03*
X31024000Y-8665000I0J-125000D01*
G01*
D15*
X3914589Y-10331264D02*
X3914589Y-10115736D01*
X3699061Y-10115736D01*
X3699061Y-10331264D01*
X3914589Y-10331264D01*
X6302189Y-10331264D02*
X6302189Y-10115736D01*
X6086661Y-10115736D01*
X6086661Y-10331264D01*
X6302189Y-10331264D01*
X11062139Y-12236264D02*
X11062139Y-12020736D01*
X10846611Y-12020736D01*
X10846611Y-12236264D01*
X11062139Y-12236264D01*
X11537764Y-12236264D02*
X11537764Y-12020736D01*
X11322236Y-12020736D01*
X11322236Y-12236264D01*
X11537764Y-12236264D01*
X21062139Y-12236264D02*
X21062139Y-12020736D01*
X20846611Y-12020736D01*
X20846611Y-12236264D01*
X21062139Y-12236264D01*
X22967764Y-12236264D02*
X22967764Y-12020736D01*
X22752236Y-12020736D01*
X22752236Y-12236264D01*
X22967764Y-12236264D01*
X27727089Y-8934264D02*
X27727089Y-8718736D01*
X27511561Y-8718736D01*
X27511561Y-8934264D01*
X27727089Y-8934264D01*
X28203339Y-7029264D02*
X28203339Y-6813736D01*
X27987811Y-6813736D01*
X27987811Y-7029264D01*
X28203339Y-7029264D01*
X28441464Y-3219264D02*
X28441464Y-3003736D01*
X28225936Y-3003736D01*
X28225936Y-3219264D01*
X28441464Y-3219264D01*
X29651139Y-5581464D02*
X29651139Y-5365936D01*
X29435611Y-5365936D01*
X29435611Y-5581464D01*
X29651139Y-5581464D01*
X29651139Y-7969064D02*
X29651139Y-7753536D01*
X29435611Y-7753536D01*
X29435611Y-7969064D01*
X29651139Y-7969064D01*
X30114689Y-8934264D02*
X30114689Y-8718736D01*
X29899161Y-8718736D01*
X29899161Y-8934264D01*
X30114689Y-8934264D01*
X30590939Y-7029264D02*
X30590939Y-6813736D01*
X30375411Y-6813736D01*
X30375411Y-7029264D01*
X30590939Y-7029264D01*
X30829064Y-3219264D02*
X30829064Y-3003736D01*
X30613536Y-3003736D01*
X30613536Y-3219264D01*
X30829064Y-3219264D01*
D16*
X28321000Y-4470500D02*
X28473500Y-4318000D01*
X28321000Y-4165500D01*
X28168500Y-4318000D01*
X28321000Y-4470500D01*
D17*
X3607435Y-8503110D02*
X4006215Y-8901890D01*
X4006215Y-8503110D02*
X3607435Y-8901890D01*
X4006215Y-8702500D02*
G75*
G02*
X3607435Y-8702500I-199390J0D01*
G01*
X3607435Y-8702500D02*
G75*
G02*
X4006215Y-8702500I199390J0D01*
G01*
X5995035Y-8503110D02*
X6393815Y-8901890D01*
X6393815Y-8503110D02*
X5995035Y-8901890D01*
X6393815Y-8702500D02*
G75*
G02*
X5995035Y-8702500I-199390J0D01*
G01*
X5995035Y-8702500D02*
G75*
G02*
X6393815Y-8702500I199390J0D01*
G01*
X10754985Y-10408110D02*
X11153765Y-10806890D01*
X11153765Y-10408110D02*
X10754985Y-10806890D01*
X11153765Y-10607500D02*
G75*
G02*
X10754985Y-10607500I-199390J0D01*
G01*
X10754985Y-10607500D02*
G75*
G02*
X11153765Y-10607500I199390J0D01*
G01*
X11230610Y-10408110D02*
X11629390Y-10806890D01*
X11629390Y-10408110D02*
X11230610Y-10806890D01*
X11629390Y-10607500D02*
G75*
G02*
X11230610Y-10607500I-199390J0D01*
G01*
X11230610Y-10607500D02*
G75*
G02*
X11629390Y-10607500I199390J0D01*
G01*
X20754985Y-10408110D02*
X21153765Y-10806890D01*
X21153765Y-10408110D02*
X20754985Y-10806890D01*
X21153765Y-10607500D02*
G75*
G02*
X20754985Y-10607500I-199390J0D01*
G01*
X20754985Y-10607500D02*
G75*
G02*
X21153765Y-10607500I199390J0D01*
G01*
X22660610Y-10408110D02*
X23059390Y-10806890D01*
X23059390Y-10408110D02*
X22660610Y-10806890D01*
X23059390Y-10607500D02*
G75*
G02*
X22660610Y-10607500I-199390J0D01*
G01*
X22660610Y-10607500D02*
G75*
G02*
X23059390Y-10607500I199390J0D01*
G01*
X27419935Y-10148110D02*
X27818715Y-10546890D01*
X27818715Y-10148110D02*
X27419935Y-10546890D01*
X27818715Y-10347500D02*
G75*
G02*
X27419935Y-10347500I-199390J0D01*
G01*
X27419935Y-10347500D02*
G75*
G02*
X27818715Y-10347500I199390J0D01*
G01*
X27896185Y-8243110D02*
X28294965Y-8641890D01*
X28294965Y-8243110D02*
X27896185Y-8641890D01*
X28294965Y-8442500D02*
G75*
G02*
X27896185Y-8442500I-199390J0D01*
G01*
X27896185Y-8442500D02*
G75*
G02*
X28294965Y-8442500I199390J0D01*
G01*
X28134310Y-4433110D02*
X28533090Y-4831890D01*
X28533090Y-4433110D02*
X28134310Y-4831890D01*
X28533090Y-4632500D02*
G75*
G02*
X28134310Y-4632500I-199390J0D01*
G01*
X28134310Y-4632500D02*
G75*
G02*
X28533090Y-4632500I199390J0D01*
G01*
X29807535Y-10148110D02*
X30206315Y-10546890D01*
X30206315Y-10148110D02*
X29807535Y-10546890D01*
X30206315Y-10347500D02*
G75*
G02*
X29807535Y-10347500I-199390J0D01*
G01*
X29807535Y-10347500D02*
G75*
G02*
X30206315Y-10347500I199390J0D01*
G01*
X30283785Y-8243110D02*
X30682565Y-8641890D01*
X30682565Y-8243110D02*
X30283785Y-8641890D01*
X30682565Y-8442500D02*
G75*
G02*
X30283785Y-8442500I-199390J0D01*
G01*
X30283785Y-8442500D02*
G75*
G02*
X30682565Y-8442500I199390J0D01*
G01*
X30521910Y-4433110D02*
X30920690Y-4831890D01*
X30920690Y-4433110D02*
X30521910Y-4831890D01*
X30920690Y-4632500D02*
G75*
G02*
X30521910Y-4632500I-199390J0D01*
G01*
X30521910Y-4632500D02*
G75*
G02*
X30920690Y-4632500I199390J0D01*
G01*
X30864985Y-5274310D02*
X31263765Y-5673090D01*
X31263765Y-5274310D02*
X30864985Y-5673090D01*
X31263765Y-5473700D02*
G75*
G02*
X30864985Y-5473700I-199390J0D01*
G01*
X30864985Y-5473700D02*
G75*
G02*
X31263765Y-5473700I199390J0D01*
G01*
X30864985Y-7661910D02*
X31263765Y-8060690D01*
X31263765Y-7661910D02*
X30864985Y-8060690D01*
X31263765Y-7861300D02*
G75*
G02*
X30864985Y-7861300I-199390J0D01*
G01*
X30864985Y-7861300D02*
G75*
G02*
X31263765Y-7861300I199390J0D01*
G01*
D18*
X3610000Y-3610000D02*
X4010000Y-4010000D01*
X4010000Y-3610000D02*
X3610000Y-4010000D01*
X3810000Y-3610000D02*
X3810000Y-4010000D01*
X3610000Y-3810000D02*
X4010000Y-3810000D01*
X3848125Y-7420000D02*
X4248125Y-7820000D01*
X4248125Y-7420000D02*
X3848125Y-7820000D01*
X4048125Y-7420000D02*
X4048125Y-7820000D01*
X3848125Y-7620000D02*
X4248125Y-7620000D01*
X3848125Y-9325000D02*
X4248125Y-9725000D01*
X4248125Y-9325000D02*
X3848125Y-9725000D01*
X4048125Y-9325000D02*
X4048125Y-9725000D01*
X3848125Y-9525000D02*
X4248125Y-9525000D01*
X3848125Y-11230000D02*
X4248125Y-11630000D01*
X4248125Y-11230000D02*
X3848125Y-11630000D01*
X4048125Y-11230000D02*
X4048125Y-11630000D01*
X3848125Y-11430000D02*
X4248125Y-11430000D01*
X4086250Y-5515000D02*
X4486250Y-5915000D01*
X4486250Y-5515000D02*
X4086250Y-5915000D01*
X4286250Y-5515000D02*
X4286250Y-5915000D01*
X4086250Y-5715000D02*
X4486250Y-5715000D01*
X4086250Y-11230000D02*
X4486250Y-11630000D01*
X4486250Y-11230000D02*
X4086250Y-11630000D01*
X4286250Y-11230000D02*
X4286250Y-11630000D01*
X4086250Y-11430000D02*
X4486250Y-11430000D01*
X4324375Y-7420000D02*
X4724375Y-7820000D01*
X4724375Y-7420000D02*
X4324375Y-7820000D01*
X4524375Y-7420000D02*
X4524375Y-7820000D01*
X4324375Y-7620000D02*
X4724375Y-7620000D01*
X4800625Y-9325000D02*
X5200625Y-9725000D01*
X5200625Y-9325000D02*
X4800625Y-9725000D01*
X5000625Y-9325000D02*
X5000625Y-9725000D01*
X4800625Y-9525000D02*
X5200625Y-9525000D01*
X5515000Y-3610000D02*
X5915000Y-4010000D01*
X5915000Y-3610000D02*
X5515000Y-4010000D01*
X5715000Y-3610000D02*
X5715000Y-4010000D01*
X5515000Y-3810000D02*
X5915000Y-3810000D01*
X5991250Y-9325000D02*
X6391250Y-9725000D01*
X6391250Y-9325000D02*
X5991250Y-9725000D01*
X6191250Y-9325000D02*
X6191250Y-9725000D01*
X5991250Y-9525000D02*
X6391250Y-9525000D01*
X6229375Y-11230000D02*
X6629375Y-11630000D01*
X6629375Y-11230000D02*
X6229375Y-11630000D01*
X6429375Y-11230000D02*
X6429375Y-11630000D01*
X6229375Y-11430000D02*
X6629375Y-11430000D01*
X6467500Y-5515000D02*
X6867500Y-5915000D01*
X6867500Y-5515000D02*
X6467500Y-5915000D01*
X6667500Y-5515000D02*
X6667500Y-5915000D01*
X6467500Y-5715000D02*
X6867500Y-5715000D01*
X6467500Y-11230000D02*
X6867500Y-11630000D01*
X6867500Y-11230000D02*
X6467500Y-11630000D01*
X6667500Y-11230000D02*
X6667500Y-11630000D01*
X6467500Y-11430000D02*
X6867500Y-11430000D01*
X6943750Y-7420000D02*
X7343750Y-7820000D01*
X7343750Y-7420000D02*
X6943750Y-7820000D01*
X7143750Y-7420000D02*
X7143750Y-7820000D01*
X6943750Y-7620000D02*
X7343750Y-7620000D01*
X7420000Y-3610000D02*
X7820000Y-4010000D01*
X7820000Y-3610000D02*
X7420000Y-4010000D01*
X7620000Y-3610000D02*
X7620000Y-4010000D01*
X7420000Y-3810000D02*
X7820000Y-3810000D01*
X7896250Y-9325000D02*
X8296250Y-9725000D01*
X8296250Y-9325000D02*
X7896250Y-9725000D01*
X8096250Y-9325000D02*
X8096250Y-9725000D01*
X7896250Y-9525000D02*
X8296250Y-9525000D01*
X8372500Y-5515000D02*
X8772500Y-5915000D01*
X8772500Y-5515000D02*
X8372500Y-5915000D01*
X8572500Y-5515000D02*
X8572500Y-5915000D01*
X8372500Y-5715000D02*
X8772500Y-5715000D01*
X8610625Y-11230000D02*
X9010625Y-11630000D01*
X9010625Y-11230000D02*
X8610625Y-11630000D01*
X8810625Y-11230000D02*
X8810625Y-11630000D01*
X8610625Y-11430000D02*
X9010625Y-11430000D01*
X8848750Y-7420000D02*
X9248750Y-7820000D01*
X9248750Y-7420000D02*
X8848750Y-7820000D01*
X9048750Y-7420000D02*
X9048750Y-7820000D01*
X8848750Y-7620000D02*
X9248750Y-7620000D01*
X8848750Y-11230000D02*
X9248750Y-11630000D01*
X9248750Y-11230000D02*
X8848750Y-11630000D01*
X9048750Y-11230000D02*
X9048750Y-11630000D01*
X8848750Y-11430000D02*
X9248750Y-11430000D01*
X9325000Y-3610000D02*
X9725000Y-4010000D01*
X9725000Y-3610000D02*
X9325000Y-4010000D01*
X9525000Y-3610000D02*
X9525000Y-4010000D01*
X9325000Y-3810000D02*
X9725000Y-3810000D01*
X9801250Y-9325000D02*
X10201250Y-9725000D01*
X10201250Y-9325000D02*
X9801250Y-9725000D01*
X10001250Y-9325000D02*
X10001250Y-9725000D01*
X9801250Y-9525000D02*
X10201250Y-9525000D01*
X10277500Y-5515000D02*
X10677500Y-5915000D01*
X10677500Y-5515000D02*
X10277500Y-5915000D01*
X10477500Y-5515000D02*
X10477500Y-5915000D01*
X10277500Y-5715000D02*
X10677500Y-5715000D01*
X10753750Y-7420000D02*
X11153750Y-7820000D01*
X11153750Y-7420000D02*
X10753750Y-7820000D01*
X10953750Y-7420000D02*
X10953750Y-7820000D01*
X10753750Y-7620000D02*
X11153750Y-7620000D01*
X11230000Y-3610000D02*
X11630000Y-4010000D01*
X11630000Y-3610000D02*
X11230000Y-4010000D01*
X11430000Y-3610000D02*
X11430000Y-4010000D01*
X11230000Y-3810000D02*
X11630000Y-3810000D01*
X11706250Y-9325000D02*
X12106250Y-9725000D01*
X12106250Y-9325000D02*
X11706250Y-9725000D01*
X11906250Y-9325000D02*
X11906250Y-9725000D01*
X11706250Y-9525000D02*
X12106250Y-9525000D01*
X12182500Y-5515000D02*
X12582500Y-5915000D01*
X12582500Y-5515000D02*
X12182500Y-5915000D01*
X12382500Y-5515000D02*
X12382500Y-5915000D01*
X12182500Y-5715000D02*
X12582500Y-5715000D01*
X12658750Y-7420000D02*
X13058750Y-7820000D01*
X13058750Y-7420000D02*
X12658750Y-7820000D01*
X12858750Y-7420000D02*
X12858750Y-7820000D01*
X12658750Y-7620000D02*
X13058750Y-7620000D01*
X13135000Y-3610000D02*
X13535000Y-4010000D01*
X13535000Y-3610000D02*
X13135000Y-4010000D01*
X13335000Y-3610000D02*
X13335000Y-4010000D01*
X13135000Y-3810000D02*
X13535000Y-3810000D01*
X13611250Y-9325000D02*
X14011250Y-9725000D01*
X14011250Y-9325000D02*
X13611250Y-9725000D01*
X13811250Y-9325000D02*
X13811250Y-9725000D01*
X13611250Y-9525000D02*
X14011250Y-9525000D01*
X14087500Y-5515000D02*
X14487500Y-5915000D01*
X14487500Y-5515000D02*
X14087500Y-5915000D01*
X14287500Y-5515000D02*
X14287500Y-5915000D01*
X14087500Y-5715000D02*
X14487500Y-5715000D01*
X14563750Y-7420000D02*
X14963750Y-7820000D01*
X14963750Y-7420000D02*
X14563750Y-7820000D01*
X14763750Y-7420000D02*
X14763750Y-7820000D01*
X14563750Y-7620000D02*
X14963750Y-7620000D01*
X15040000Y-3610000D02*
X15440000Y-4010000D01*
X15440000Y-3610000D02*
X15040000Y-4010000D01*
X15240000Y-3610000D02*
X15240000Y-4010000D01*
X15040000Y-3810000D02*
X15440000Y-3810000D01*
X15516250Y-9325000D02*
X15916250Y-9725000D01*
X15916250Y-9325000D02*
X15516250Y-9725000D01*
X15716250Y-9325000D02*
X15716250Y-9725000D01*
X15516250Y-9525000D02*
X15916250Y-9525000D01*
X15754375Y-11230000D02*
X16154375Y-11630000D01*
X16154375Y-11230000D02*
X15754375Y-11630000D01*
X15954375Y-11230000D02*
X15954375Y-11630000D01*
X15754375Y-11430000D02*
X16154375Y-11430000D01*
X15992500Y-5515000D02*
X16392500Y-5915000D01*
X16392500Y-5515000D02*
X15992500Y-5915000D01*
X16192500Y-5515000D02*
X16192500Y-5915000D01*
X15992500Y-5715000D02*
X16392500Y-5715000D01*
X16468750Y-7420000D02*
X16868750Y-7820000D01*
X16868750Y-7420000D02*
X16468750Y-7820000D01*
X16668750Y-7420000D02*
X16668750Y-7820000D01*
X16468750Y-7620000D02*
X16868750Y-7620000D01*
X16945000Y-3610000D02*
X17345000Y-4010000D01*
X17345000Y-3610000D02*
X16945000Y-4010000D01*
X17145000Y-3610000D02*
X17145000Y-4010000D01*
X16945000Y-3810000D02*
X17345000Y-3810000D01*
X16945000Y-11230000D02*
X17345000Y-11630000D01*
X17345000Y-11230000D02*
X16945000Y-11630000D01*
X17145000Y-11230000D02*
X17145000Y-11630000D01*
X16945000Y-11430000D02*
X17345000Y-11430000D01*
X17421250Y-9325000D02*
X17821250Y-9725000D01*
X17821250Y-9325000D02*
X17421250Y-9725000D01*
X17621250Y-9325000D02*
X17621250Y-9725000D01*
X17421250Y-9525000D02*
X17821250Y-9525000D01*
X17897500Y-5515000D02*
X18297500Y-5915000D01*
X18297500Y-5515000D02*
X17897500Y-5915000D01*
X18097500Y-5515000D02*
X18097500Y-5915000D01*
X17897500Y-5715000D02*
X18297500Y-5715000D01*
X18373750Y-7420000D02*
X18773750Y-7820000D01*
X18773750Y-7420000D02*
X18373750Y-7820000D01*
X18573750Y-7420000D02*
X18573750Y-7820000D01*
X18373750Y-7620000D02*
X18773750Y-7620000D01*
X18850000Y-3610000D02*
X19250000Y-4010000D01*
X19250000Y-3610000D02*
X18850000Y-4010000D01*
X19050000Y-3610000D02*
X19050000Y-4010000D01*
X18850000Y-3810000D02*
X19250000Y-3810000D01*
X19326250Y-9325000D02*
X19726250Y-9725000D01*
X19726250Y-9325000D02*
X19326250Y-9725000D01*
X19526250Y-9325000D02*
X19526250Y-9725000D01*
X19326250Y-9525000D02*
X19726250Y-9525000D01*
X19802500Y-5515000D02*
X20202500Y-5915000D01*
X20202500Y-5515000D02*
X19802500Y-5915000D01*
X20002500Y-5515000D02*
X20002500Y-5915000D01*
X19802500Y-5715000D02*
X20202500Y-5715000D01*
X20278750Y-7420000D02*
X20678750Y-7820000D01*
X20678750Y-7420000D02*
X20278750Y-7820000D01*
X20478750Y-7420000D02*
X20478750Y-7820000D01*
X20278750Y-7620000D02*
X20678750Y-7620000D01*
X20755000Y-3610000D02*
X21155000Y-4010000D01*
X21155000Y-3610000D02*
X20755000Y-4010000D01*
X20955000Y-3610000D02*
X20955000Y-4010000D01*
X20755000Y-3810000D02*
X21155000Y-3810000D01*
X21231250Y-9325000D02*
X21631250Y-9725000D01*
X21631250Y-9325000D02*
X21231250Y-9725000D01*
X21431250Y-9325000D02*
X21431250Y-9725000D01*
X21231250Y-9525000D02*
X21631250Y-9525000D01*
X21707500Y-5515000D02*
X22107500Y-5915000D01*
X22107500Y-5515000D02*
X21707500Y-5915000D01*
X21907500Y-5515000D02*
X21907500Y-5915000D01*
X21707500Y-5715000D02*
X22107500Y-5715000D01*
X22183750Y-7420000D02*
X22583750Y-7820000D01*
X22583750Y-7420000D02*
X22183750Y-7820000D01*
X22383750Y-7420000D02*
X22383750Y-7820000D01*
X22183750Y-7620000D02*
X22583750Y-7620000D01*
X22660000Y-3610000D02*
X23060000Y-4010000D01*
X23060000Y-3610000D02*
X22660000Y-4010000D01*
X22860000Y-3610000D02*
X22860000Y-4010000D01*
X22660000Y-3810000D02*
X23060000Y-3810000D01*
X22898125Y-11230000D02*
X23298125Y-11630000D01*
X23298125Y-11230000D02*
X22898125Y-11630000D01*
X23098125Y-11230000D02*
X23098125Y-11630000D01*
X22898125Y-11430000D02*
X23298125Y-11430000D01*
X23136250Y-9325000D02*
X23536250Y-9725000D01*
X23536250Y-9325000D02*
X23136250Y-9725000D01*
X23336250Y-9325000D02*
X23336250Y-9725000D01*
X23136250Y-9525000D02*
X23536250Y-9525000D01*
X23612500Y-5515000D02*
X24012500Y-5915000D01*
X24012500Y-5515000D02*
X23612500Y-5915000D01*
X23812500Y-5515000D02*
X23812500Y-5915000D01*
X23612500Y-5715000D02*
X24012500Y-5715000D01*
X24088750Y-7420000D02*
X24488750Y-7820000D01*
X24488750Y-7420000D02*
X24088750Y-7820000D01*
X24288750Y-7420000D02*
X24288750Y-7820000D01*
X24088750Y-7620000D02*
X24488750Y-7620000D01*
X24565000Y-3610000D02*
X24965000Y-4010000D01*
X24965000Y-3610000D02*
X24565000Y-4010000D01*
X24765000Y-3610000D02*
X24765000Y-4010000D01*
X24565000Y-3810000D02*
X24965000Y-3810000D01*
X25041250Y-9325000D02*
X25441250Y-9725000D01*
X25441250Y-9325000D02*
X25041250Y-9725000D01*
X25241250Y-9325000D02*
X25241250Y-9725000D01*
X25041250Y-9525000D02*
X25441250Y-9525000D01*
X25041250Y-11230000D02*
X25441250Y-11630000D01*
X25441250Y-11230000D02*
X25041250Y-11630000D01*
X25241250Y-11230000D02*
X25241250Y-11630000D01*
X25041250Y-11430000D02*
X25441250Y-11430000D01*
X25279375Y-11230000D02*
X25679375Y-11630000D01*
X25679375Y-11230000D02*
X25279375Y-11630000D01*
X25479375Y-11230000D02*
X25479375Y-11630000D01*
X25279375Y-11430000D02*
X25679375Y-11430000D01*
X25517500Y-5515000D02*
X25917500Y-5915000D01*
X25917500Y-5515000D02*
X25517500Y-5915000D01*
X25717500Y-5515000D02*
X25717500Y-5915000D01*
X25517500Y-5715000D02*
X25917500Y-5715000D01*
X25993750Y-7420000D02*
X26393750Y-7820000D01*
X26393750Y-7420000D02*
X25993750Y-7820000D01*
X26193750Y-7420000D02*
X26193750Y-7820000D01*
X25993750Y-7620000D02*
X26393750Y-7620000D01*
X26470000Y-3610000D02*
X26870000Y-4010000D01*
X26870000Y-3610000D02*
X26470000Y-4010000D01*
X26670000Y-3610000D02*
X26670000Y-4010000D01*
X26470000Y-3810000D02*
X26870000Y-3810000D01*
X27422500Y-5515000D02*
X27822500Y-5915000D01*
X27822500Y-5515000D02*
X27422500Y-5915000D01*
X27622500Y-5515000D02*
X27622500Y-5915000D01*
X27422500Y-5715000D02*
X27822500Y-5715000D01*
X27422500Y-11230000D02*
X27822500Y-11630000D01*
X27822500Y-11230000D02*
X27422500Y-11630000D01*
X27622500Y-11230000D02*
X27622500Y-11630000D01*
X27422500Y-11430000D02*
X27822500Y-11430000D01*
X27660625Y-9325000D02*
X28060625Y-9725000D01*
X28060625Y-9325000D02*
X27660625Y-9725000D01*
X27860625Y-9325000D02*
X27860625Y-9725000D01*
X27660625Y-9525000D02*
X28060625Y-9525000D01*
X27660625Y-11230000D02*
X28060625Y-11630000D01*
X28060625Y-11230000D02*
X27660625Y-11630000D01*
X27860625Y-11230000D02*
X27860625Y-11630000D01*
X27660625Y-11430000D02*
X28060625Y-11430000D01*
X27898750Y-7420000D02*
X28298750Y-7820000D01*
X28298750Y-7420000D02*
X27898750Y-7820000D01*
X28098750Y-7420000D02*
X28098750Y-7820000D01*
X27898750Y-7620000D02*
X28298750Y-7620000D01*
X28375000Y-3610000D02*
X28775000Y-4010000D01*
X28775000Y-3610000D02*
X28375000Y-4010000D01*
X28575000Y-3610000D02*
X28575000Y-4010000D01*
X28375000Y-3810000D02*
X28775000Y-3810000D01*
X28613125Y-9325000D02*
X29013125Y-9725000D01*
X29013125Y-9325000D02*
X28613125Y-9725000D01*
X28813125Y-9325000D02*
X28813125Y-9725000D01*
X28613125Y-9525000D02*
X29013125Y-9525000D01*
X29089375Y-7420000D02*
X29489375Y-7820000D01*
X29489375Y-7420000D02*
X29089375Y-7820000D01*
X29289375Y-7420000D02*
X29289375Y-7820000D01*
X29089375Y-7620000D02*
X29489375Y-7620000D01*
X29327500Y-3610000D02*
X29727500Y-4010000D01*
X29727500Y-3610000D02*
X29327500Y-4010000D01*
X29527500Y-3610000D02*
X29527500Y-4010000D01*
X29327500Y-3810000D02*
X29727500Y-3810000D01*
X29803750Y-5515000D02*
X30203750Y-5915000D01*
X30203750Y-5515000D02*
X29803750Y-5915000D01*
X30003750Y-5515000D02*
X30003750Y-5915000D01*
X29803750Y-5715000D02*
X30203750Y-5715000D01*
X29803750Y-11230000D02*
X30203750Y-11630000D01*
X30203750Y-11230000D02*
X29803750Y-11630000D01*
X30003750Y-11230000D02*
X30003750Y-11630000D01*
X29803750Y-11430000D02*
X30203750Y-11430000D01*
X30041875Y-6467500D02*
X30441875Y-6867500D01*
X30441875Y-6467500D02*
X30041875Y-6867500D01*
X30241875Y-6467500D02*
X30241875Y-6867500D01*
X30041875Y-6667500D02*
X30441875Y-6667500D01*
X30041875Y-11230000D02*
X30441875Y-11630000D01*
X30441875Y-11230000D02*
X30041875Y-11630000D01*
X30241875Y-11230000D02*
X30241875Y-11630000D01*
X30041875Y-11430000D02*
X30441875Y-11430000D01*
X30280000Y-3610000D02*
X30680000Y-4010000D01*
X30680000Y-3610000D02*
X30280000Y-4010000D01*
X30480000Y-3610000D02*
X30480000Y-4010000D01*
X30280000Y-3810000D02*
X30680000Y-3810000D01*
X30280000Y-9325000D02*
X30680000Y-9725000D01*
X30680000Y-9325000D02*
X30280000Y-9725000D01*
X30480000Y-9325000D02*
X30480000Y-9725000D01*
X30280000Y-9525000D02*
X30680000Y-9525000D01*
D11*
X3153277Y-12663984D02*
X3153277Y-12463984D01*
X3153277Y-12463984D02*
X3200896Y-12463984D01*
X3200896Y-12463984D02*
X3229467Y-12473508D01*
X3229467Y-12473508D02*
X3248515Y-12492555D01*
X3248515Y-12492555D02*
X3258039Y-12511603D01*
X3258039Y-12511603D02*
X3267562Y-12549698D01*
X3267562Y-12549698D02*
X3267562Y-12578269D01*
X3267562Y-12578269D02*
X3258039Y-12616365D01*
X3258039Y-12616365D02*
X3248515Y-12635412D01*
X3248515Y-12635412D02*
X3229467Y-12654460D01*
X3229467Y-12654460D02*
X3200896Y-12663984D01*
X3200896Y-12663984D02*
X3153277Y-12663984D01*
X3353277Y-12663984D02*
X3353277Y-12530650D01*
X3353277Y-12568746D02*
X3362801Y-12549698D01*
X3362801Y-12549698D02*
X3372324Y-12540174D01*
X3372324Y-12540174D02*
X3391372Y-12530650D01*
X3391372Y-12530650D02*
X3410420Y-12530650D01*
X3477086Y-12663984D02*
X3477086Y-12530650D01*
X3477086Y-12463984D02*
X3467562Y-12473508D01*
X3467562Y-12473508D02*
X3477086Y-12483031D01*
X3477086Y-12483031D02*
X3486610Y-12473508D01*
X3486610Y-12473508D02*
X3477086Y-12463984D01*
X3477086Y-12463984D02*
X3477086Y-12483031D01*
X3600896Y-12663984D02*
X3581848Y-12654460D01*
X3581848Y-12654460D02*
X3572324Y-12635412D01*
X3572324Y-12635412D02*
X3572324Y-12463984D01*
X3705658Y-12663984D02*
X3686610Y-12654460D01*
X3686610Y-12654460D02*
X3677086Y-12635412D01*
X3677086Y-12635412D02*
X3677086Y-12463984D01*
X3934229Y-12663984D02*
X3934229Y-12463984D01*
X3934229Y-12463984D02*
X4000896Y-12606841D01*
X4000896Y-12606841D02*
X4067562Y-12463984D01*
X4067562Y-12463984D02*
X4067562Y-12663984D01*
X4248515Y-12663984D02*
X4248515Y-12559222D01*
X4248515Y-12559222D02*
X4238991Y-12540174D01*
X4238991Y-12540174D02*
X4219944Y-12530650D01*
X4219944Y-12530650D02*
X4181848Y-12530650D01*
X4181848Y-12530650D02*
X4162801Y-12540174D01*
X4248515Y-12654460D02*
X4229467Y-12663984D01*
X4229467Y-12663984D02*
X4181848Y-12663984D01*
X4181848Y-12663984D02*
X4162801Y-12654460D01*
X4162801Y-12654460D02*
X4153277Y-12635412D01*
X4153277Y-12635412D02*
X4153277Y-12616365D01*
X4153277Y-12616365D02*
X4162801Y-12597317D01*
X4162801Y-12597317D02*
X4181848Y-12587793D01*
X4181848Y-12587793D02*
X4229467Y-12587793D01*
X4229467Y-12587793D02*
X4248515Y-12578269D01*
X4343753Y-12530650D02*
X4343753Y-12730650D01*
X4343753Y-12540174D02*
X4362801Y-12530650D01*
X4362801Y-12530650D02*
X4400896Y-12530650D01*
X4400896Y-12530650D02*
X4419944Y-12540174D01*
X4419944Y-12540174D02*
X4429467Y-12549698D01*
X4429467Y-12549698D02*
X4438991Y-12568746D01*
X4438991Y-12568746D02*
X4438991Y-12625888D01*
X4438991Y-12625888D02*
X4429467Y-12644936D01*
X4429467Y-12644936D02*
X4419944Y-12654460D01*
X4419944Y-12654460D02*
X4400896Y-12663984D01*
X4400896Y-12663984D02*
X4362801Y-12663984D01*
X4362801Y-12663984D02*
X4343753Y-12654460D01*
X4524705Y-12644936D02*
X4534229Y-12654460D01*
X4534229Y-12654460D02*
X4524705Y-12663984D01*
X4524705Y-12663984D02*
X4515182Y-12654460D01*
X4515182Y-12654460D02*
X4524705Y-12644936D01*
X4524705Y-12644936D02*
X4524705Y-12663984D01*
X4524705Y-12540174D02*
X4534229Y-12549698D01*
X4534229Y-12549698D02*
X4524705Y-12559222D01*
X4524705Y-12559222D02*
X4515182Y-12549698D01*
X4515182Y-12549698D02*
X4524705Y-12540174D01*
X4524705Y-12540174D02*
X4524705Y-12559222D01*
D12*
X2827500Y-12960000D02*
X2892500Y-13025000D01*
X2892500Y-12960000D02*
X2827500Y-13025000D01*
D11*
X3191372Y-12883984D02*
X3210420Y-12883984D01*
X3210420Y-12883984D02*
X3229467Y-12893508D01*
X3229467Y-12893508D02*
X3238991Y-12903031D01*
X3238991Y-12903031D02*
X3248515Y-12922079D01*
X3248515Y-12922079D02*
X3258039Y-12960174D01*
X3258039Y-12960174D02*
X3258039Y-13007793D01*
X3258039Y-13007793D02*
X3248515Y-13045888D01*
X3248515Y-13045888D02*
X3238991Y-13064936D01*
X3238991Y-13064936D02*
X3229467Y-13074460D01*
X3229467Y-13074460D02*
X3210420Y-13083984D01*
X3210420Y-13083984D02*
X3191372Y-13083984D01*
X3191372Y-13083984D02*
X3172324Y-13074460D01*
X3172324Y-13074460D02*
X3162801Y-13064936D01*
X3162801Y-13064936D02*
X3153277Y-13045888D01*
X3153277Y-13045888D02*
X3143753Y-13007793D01*
X3143753Y-13007793D02*
X3143753Y-12960174D01*
X3143753Y-12960174D02*
X3153277Y-12922079D01*
X3153277Y-12922079D02*
X3162801Y-12903031D01*
X3162801Y-12903031D02*
X3172324Y-12893508D01*
X3172324Y-12893508D02*
X3191372Y-12883984D01*
X3343753Y-13064936D02*
X3353277Y-13074460D01*
X3353277Y-13074460D02*
X3343753Y-13083984D01*
X3343753Y-13083984D02*
X3334229Y-13074460D01*
X3334229Y-13074460D02*
X3343753Y-13064936D01*
X3343753Y-13064936D02*
X3343753Y-13083984D01*
X3524705Y-12883984D02*
X3486610Y-12883984D01*
X3486610Y-12883984D02*
X3467562Y-12893508D01*
X3467562Y-12893508D02*
X3458039Y-12903031D01*
X3458039Y-12903031D02*
X3438991Y-12931603D01*
X3438991Y-12931603D02*
X3429467Y-12969698D01*
X3429467Y-12969698D02*
X3429467Y-13045888D01*
X3429467Y-13045888D02*
X3438991Y-13064936D01*
X3438991Y-13064936D02*
X3448515Y-13074460D01*
X3448515Y-13074460D02*
X3467562Y-13083984D01*
X3467562Y-13083984D02*
X3505658Y-13083984D01*
X3505658Y-13083984D02*
X3524705Y-13074460D01*
X3524705Y-13074460D02*
X3534229Y-13064936D01*
X3534229Y-13064936D02*
X3543753Y-13045888D01*
X3543753Y-13045888D02*
X3543753Y-12998269D01*
X3543753Y-12998269D02*
X3534229Y-12979222D01*
X3534229Y-12979222D02*
X3524705Y-12969698D01*
X3524705Y-12969698D02*
X3505658Y-12960174D01*
X3505658Y-12960174D02*
X3467562Y-12960174D01*
X3467562Y-12960174D02*
X3448515Y-12969698D01*
X3448515Y-12969698D02*
X3438991Y-12979222D01*
X3438991Y-12979222D02*
X3429467Y-12998269D01*
X3724705Y-12883984D02*
X3629467Y-12883984D01*
X3629467Y-12883984D02*
X3619943Y-12979222D01*
X3619943Y-12979222D02*
X3629467Y-12969698D01*
X3629467Y-12969698D02*
X3648515Y-12960174D01*
X3648515Y-12960174D02*
X3696134Y-12960174D01*
X3696134Y-12960174D02*
X3715182Y-12969698D01*
X3715182Y-12969698D02*
X3724705Y-12979222D01*
X3724705Y-12979222D02*
X3734229Y-12998269D01*
X3734229Y-12998269D02*
X3734229Y-13045888D01*
X3734229Y-13045888D02*
X3724705Y-13064936D01*
X3724705Y-13064936D02*
X3715182Y-13074460D01*
X3715182Y-13074460D02*
X3696134Y-13083984D01*
X3696134Y-13083984D02*
X3648515Y-13083984D01*
X3648515Y-13083984D02*
X3629467Y-13074460D01*
X3629467Y-13074460D02*
X3619943Y-13064936D01*
X3858039Y-12883984D02*
X3877086Y-12883984D01*
X3877086Y-12883984D02*
X3896134Y-12893508D01*
X3896134Y-12893508D02*
X3905658Y-12903031D01*
X3905658Y-12903031D02*
X3915182Y-12922079D01*
X3915182Y-12922079D02*
X3924705Y-12960174D01*
X3924705Y-12960174D02*
X3924705Y-13007793D01*
X3924705Y-13007793D02*
X3915182Y-13045888D01*
X3915182Y-13045888D02*
X3905658Y-13064936D01*
X3905658Y-13064936D02*
X3896134Y-13074460D01*
X3896134Y-13074460D02*
X3877086Y-13083984D01*
X3877086Y-13083984D02*
X3858039Y-13083984D01*
X3858039Y-13083984D02*
X3838991Y-13074460D01*
X3838991Y-13074460D02*
X3829467Y-13064936D01*
X3829467Y-13064936D02*
X3819943Y-13045888D01*
X3819943Y-13045888D02*
X3810420Y-13007793D01*
X3810420Y-13007793D02*
X3810420Y-12960174D01*
X3810420Y-12960174D02*
X3819943Y-12922079D01*
X3819943Y-12922079D02*
X3829467Y-12903031D01*
X3829467Y-12903031D02*
X3838991Y-12893508D01*
X3838991Y-12893508D02*
X3858039Y-12883984D01*
X4010420Y-13083984D02*
X4010420Y-12950650D01*
X4010420Y-12969698D02*
X4019943Y-12960174D01*
X4019943Y-12960174D02*
X4038991Y-12950650D01*
X4038991Y-12950650D02*
X4067563Y-12950650D01*
X4067563Y-12950650D02*
X4086610Y-12960174D01*
X4086610Y-12960174D02*
X4096134Y-12979222D01*
X4096134Y-12979222D02*
X4096134Y-13083984D01*
X4096134Y-12979222D02*
X4105658Y-12960174D01*
X4105658Y-12960174D02*
X4124705Y-12950650D01*
X4124705Y-12950650D02*
X4153277Y-12950650D01*
X4153277Y-12950650D02*
X4172324Y-12960174D01*
X4172324Y-12960174D02*
X4181848Y-12979222D01*
X4181848Y-12979222D02*
X4181848Y-13083984D01*
X4277086Y-13083984D02*
X4277086Y-12950650D01*
X4277086Y-12969698D02*
X4286610Y-12960174D01*
X4286610Y-12960174D02*
X4305658Y-12950650D01*
X4305658Y-12950650D02*
X4334229Y-12950650D01*
X4334229Y-12950650D02*
X4353277Y-12960174D01*
X4353277Y-12960174D02*
X4362801Y-12979222D01*
X4362801Y-12979222D02*
X4362801Y-13083984D01*
X4362801Y-12979222D02*
X4372325Y-12960174D01*
X4372325Y-12960174D02*
X4391372Y-12950650D01*
X4391372Y-12950650D02*
X4419944Y-12950650D01*
X4419944Y-12950650D02*
X4438991Y-12960174D01*
X4438991Y-12960174D02*
X4448515Y-12979222D01*
X4448515Y-12979222D02*
X4448515Y-13083984D01*
X4838991Y-12874460D02*
X4667563Y-13131603D01*
X5096134Y-12883984D02*
X5115182Y-12883984D01*
X5115182Y-12883984D02*
X5134229Y-12893508D01*
X5134229Y-12893508D02*
X5143753Y-12903031D01*
X5143753Y-12903031D02*
X5153277Y-12922079D01*
X5153277Y-12922079D02*
X5162801Y-12960174D01*
X5162801Y-12960174D02*
X5162801Y-13007793D01*
X5162801Y-13007793D02*
X5153277Y-13045888D01*
X5153277Y-13045888D02*
X5143753Y-13064936D01*
X5143753Y-13064936D02*
X5134229Y-13074460D01*
X5134229Y-13074460D02*
X5115182Y-13083984D01*
X5115182Y-13083984D02*
X5096134Y-13083984D01*
X5096134Y-13083984D02*
X5077087Y-13074460D01*
X5077087Y-13074460D02*
X5067563Y-13064936D01*
X5067563Y-13064936D02*
X5058039Y-13045888D01*
X5058039Y-13045888D02*
X5048515Y-13007793D01*
X5048515Y-13007793D02*
X5048515Y-12960174D01*
X5048515Y-12960174D02*
X5058039Y-12922079D01*
X5058039Y-12922079D02*
X5067563Y-12903031D01*
X5067563Y-12903031D02*
X5077087Y-12893508D01*
X5077087Y-12893508D02*
X5096134Y-12883984D01*
X5248515Y-13064936D02*
X5258039Y-13074460D01*
X5258039Y-13074460D02*
X5248515Y-13083984D01*
X5248515Y-13083984D02*
X5238991Y-13074460D01*
X5238991Y-13074460D02*
X5248515Y-13064936D01*
X5248515Y-13064936D02*
X5248515Y-13083984D01*
X5381848Y-12883984D02*
X5400896Y-12883984D01*
X5400896Y-12883984D02*
X5419944Y-12893508D01*
X5419944Y-12893508D02*
X5429468Y-12903031D01*
X5429468Y-12903031D02*
X5438991Y-12922079D01*
X5438991Y-12922079D02*
X5448515Y-12960174D01*
X5448515Y-12960174D02*
X5448515Y-13007793D01*
X5448515Y-13007793D02*
X5438991Y-13045888D01*
X5438991Y-13045888D02*
X5429468Y-13064936D01*
X5429468Y-13064936D02*
X5419944Y-13074460D01*
X5419944Y-13074460D02*
X5400896Y-13083984D01*
X5400896Y-13083984D02*
X5381848Y-13083984D01*
X5381848Y-13083984D02*
X5362801Y-13074460D01*
X5362801Y-13074460D02*
X5353277Y-13064936D01*
X5353277Y-13064936D02*
X5343753Y-13045888D01*
X5343753Y-13045888D02*
X5334229Y-13007793D01*
X5334229Y-13007793D02*
X5334229Y-12960174D01*
X5334229Y-12960174D02*
X5343753Y-12922079D01*
X5343753Y-12922079D02*
X5353277Y-12903031D01*
X5353277Y-12903031D02*
X5362801Y-12893508D01*
X5362801Y-12893508D02*
X5381848Y-12883984D01*
X5524706Y-12903031D02*
X5534229Y-12893508D01*
X5534229Y-12893508D02*
X5553277Y-12883984D01*
X5553277Y-12883984D02*
X5600896Y-12883984D01*
X5600896Y-12883984D02*
X5619944Y-12893508D01*
X5619944Y-12893508D02*
X5629467Y-12903031D01*
X5629467Y-12903031D02*
X5638991Y-12922079D01*
X5638991Y-12922079D02*
X5638991Y-12941127D01*
X5638991Y-12941127D02*
X5629467Y-12969698D01*
X5629467Y-12969698D02*
X5515182Y-13083984D01*
X5515182Y-13083984D02*
X5638991Y-13083984D01*
X5819944Y-12883984D02*
X5724706Y-12883984D01*
X5724706Y-12883984D02*
X5715182Y-12979222D01*
X5715182Y-12979222D02*
X5724706Y-12969698D01*
X5724706Y-12969698D02*
X5743753Y-12960174D01*
X5743753Y-12960174D02*
X5791372Y-12960174D01*
X5791372Y-12960174D02*
X5810420Y-12969698D01*
X5810420Y-12969698D02*
X5819944Y-12979222D01*
X5819944Y-12979222D02*
X5829467Y-12998269D01*
X5829467Y-12998269D02*
X5829467Y-13045888D01*
X5829467Y-13045888D02*
X5819944Y-13064936D01*
X5819944Y-13064936D02*
X5810420Y-13074460D01*
X5810420Y-13074460D02*
X5791372Y-13083984D01*
X5791372Y-13083984D02*
X5743753Y-13083984D01*
X5743753Y-13083984D02*
X5724706Y-13074460D01*
X5724706Y-13074460D02*
X5715182Y-13064936D01*
X6000896Y-12883984D02*
X5962801Y-12883984D01*
X5962801Y-12883984D02*
X5943753Y-12893508D01*
X5943753Y-12893508D02*
X5934229Y-12903031D01*
X5934229Y-12903031D02*
X5915182Y-12931603D01*
X5915182Y-12931603D02*
X5905658Y-12969698D01*
X5905658Y-12969698D02*
X5905658Y-13045888D01*
X5905658Y-13045888D02*
X5915182Y-13064936D01*
X5915182Y-13064936D02*
X5924706Y-13074460D01*
X5924706Y-13074460D02*
X5943753Y-13083984D01*
X5943753Y-13083984D02*
X5981848Y-13083984D01*
X5981848Y-13083984D02*
X6000896Y-13074460D01*
X6000896Y-13074460D02*
X6010420Y-13064936D01*
X6010420Y-13064936D02*
X6019944Y-13045888D01*
X6019944Y-13045888D02*
X6019944Y-12998269D01*
X6019944Y-12998269D02*
X6010420Y-12979222D01*
X6010420Y-12979222D02*
X6000896Y-12969698D01*
X6000896Y-12969698D02*
X5981848Y-12960174D01*
X5981848Y-12960174D02*
X5943753Y-12960174D01*
X5943753Y-12960174D02*
X5924706Y-12969698D01*
X5924706Y-12969698D02*
X5915182Y-12979222D01*
X5915182Y-12979222D02*
X5905658Y-12998269D01*
X6096134Y-12883984D02*
X6096134Y-12922079D01*
X6172325Y-12883984D02*
X6172325Y-12922079D01*
X6467563Y-13160174D02*
X6458039Y-13150650D01*
X6458039Y-13150650D02*
X6438991Y-13122079D01*
X6438991Y-13122079D02*
X6429468Y-13103031D01*
X6429468Y-13103031D02*
X6419944Y-13074460D01*
X6419944Y-13074460D02*
X6410420Y-13026841D01*
X6410420Y-13026841D02*
X6410420Y-12988746D01*
X6410420Y-12988746D02*
X6419944Y-12941127D01*
X6419944Y-12941127D02*
X6429468Y-12912555D01*
X6429468Y-12912555D02*
X6438991Y-12893508D01*
X6438991Y-12893508D02*
X6458039Y-12864936D01*
X6458039Y-12864936D02*
X6467563Y-12855412D01*
X6534229Y-12903031D02*
X6543753Y-12893508D01*
X6543753Y-12893508D02*
X6562801Y-12883984D01*
X6562801Y-12883984D02*
X6610420Y-12883984D01*
X6610420Y-12883984D02*
X6629468Y-12893508D01*
X6629468Y-12893508D02*
X6638991Y-12903031D01*
X6638991Y-12903031D02*
X6648515Y-12922079D01*
X6648515Y-12922079D02*
X6648515Y-12941127D01*
X6648515Y-12941127D02*
X6638991Y-12969698D01*
X6638991Y-12969698D02*
X6524706Y-13083984D01*
X6524706Y-13083984D02*
X6648515Y-13083984D01*
X6886610Y-13083984D02*
X6886610Y-12883984D01*
X6972325Y-13083984D02*
X6972325Y-12979222D01*
X6972325Y-12979222D02*
X6962801Y-12960174D01*
X6962801Y-12960174D02*
X6943753Y-12950650D01*
X6943753Y-12950650D02*
X6915182Y-12950650D01*
X6915182Y-12950650D02*
X6896134Y-12960174D01*
X6896134Y-12960174D02*
X6886610Y-12969698D01*
X7096134Y-13083984D02*
X7077087Y-13074460D01*
X7077087Y-13074460D02*
X7067563Y-13064936D01*
X7067563Y-13064936D02*
X7058039Y-13045888D01*
X7058039Y-13045888D02*
X7058039Y-12988746D01*
X7058039Y-12988746D02*
X7067563Y-12969698D01*
X7067563Y-12969698D02*
X7077087Y-12960174D01*
X7077087Y-12960174D02*
X7096134Y-12950650D01*
X7096134Y-12950650D02*
X7124706Y-12950650D01*
X7124706Y-12950650D02*
X7143753Y-12960174D01*
X7143753Y-12960174D02*
X7153277Y-12969698D01*
X7153277Y-12969698D02*
X7162801Y-12988746D01*
X7162801Y-12988746D02*
X7162801Y-13045888D01*
X7162801Y-13045888D02*
X7153277Y-13064936D01*
X7153277Y-13064936D02*
X7143753Y-13074460D01*
X7143753Y-13074460D02*
X7124706Y-13083984D01*
X7124706Y-13083984D02*
X7096134Y-13083984D01*
X7277087Y-13083984D02*
X7258039Y-13074460D01*
X7258039Y-13074460D02*
X7248515Y-13055412D01*
X7248515Y-13055412D02*
X7248515Y-12883984D01*
X7429468Y-13074460D02*
X7410420Y-13083984D01*
X7410420Y-13083984D02*
X7372325Y-13083984D01*
X7372325Y-13083984D02*
X7353277Y-13074460D01*
X7353277Y-13074460D02*
X7343753Y-13055412D01*
X7343753Y-13055412D02*
X7343753Y-12979222D01*
X7343753Y-12979222D02*
X7353277Y-12960174D01*
X7353277Y-12960174D02*
X7372325Y-12950650D01*
X7372325Y-12950650D02*
X7410420Y-12950650D01*
X7410420Y-12950650D02*
X7429468Y-12960174D01*
X7429468Y-12960174D02*
X7438991Y-12979222D01*
X7438991Y-12979222D02*
X7438991Y-12998269D01*
X7438991Y-12998269D02*
X7343753Y-13017317D01*
X7515182Y-13074460D02*
X7534230Y-13083984D01*
X7534230Y-13083984D02*
X7572325Y-13083984D01*
X7572325Y-13083984D02*
X7591372Y-13074460D01*
X7591372Y-13074460D02*
X7600896Y-13055412D01*
X7600896Y-13055412D02*
X7600896Y-13045888D01*
X7600896Y-13045888D02*
X7591372Y-13026841D01*
X7591372Y-13026841D02*
X7572325Y-13017317D01*
X7572325Y-13017317D02*
X7543753Y-13017317D01*
X7543753Y-13017317D02*
X7524706Y-13007793D01*
X7524706Y-13007793D02*
X7515182Y-12988746D01*
X7515182Y-12988746D02*
X7515182Y-12979222D01*
X7515182Y-12979222D02*
X7524706Y-12960174D01*
X7524706Y-12960174D02*
X7543753Y-12950650D01*
X7543753Y-12950650D02*
X7572325Y-12950650D01*
X7572325Y-12950650D02*
X7591372Y-12960174D01*
X7667563Y-13160174D02*
X7677087Y-13150650D01*
X7677087Y-13150650D02*
X7696134Y-13122079D01*
X7696134Y-13122079D02*
X7705658Y-13103031D01*
X7705658Y-13103031D02*
X7715182Y-13074460D01*
X7715182Y-13074460D02*
X7724706Y-13026841D01*
X7724706Y-13026841D02*
X7724706Y-12988746D01*
X7724706Y-12988746D02*
X7715182Y-12941127D01*
X7715182Y-12941127D02*
X7705658Y-12912555D01*
X7705658Y-12912555D02*
X7696134Y-12893508D01*
X7696134Y-12893508D02*
X7677087Y-12864936D01*
X7677087Y-12864936D02*
X7667563Y-12855412D01*
X8029468Y-13160174D02*
X8019944Y-13150650D01*
X8019944Y-13150650D02*
X8000896Y-13122079D01*
X8000896Y-13122079D02*
X7991372Y-13103031D01*
X7991372Y-13103031D02*
X7981849Y-13074460D01*
X7981849Y-13074460D02*
X7972325Y-13026841D01*
X7972325Y-13026841D02*
X7972325Y-12988746D01*
X7972325Y-12988746D02*
X7981849Y-12941127D01*
X7981849Y-12941127D02*
X7991372Y-12912555D01*
X7991372Y-12912555D02*
X8000896Y-12893508D01*
X8000896Y-12893508D02*
X8019944Y-12864936D01*
X8019944Y-12864936D02*
X8029468Y-12855412D01*
X8105658Y-12950650D02*
X8105658Y-13083984D01*
X8105658Y-12969698D02*
X8115182Y-12960174D01*
X8115182Y-12960174D02*
X8134230Y-12950650D01*
X8134230Y-12950650D02*
X8162801Y-12950650D01*
X8162801Y-12950650D02*
X8181849Y-12960174D01*
X8181849Y-12960174D02*
X8191372Y-12979222D01*
X8191372Y-12979222D02*
X8191372Y-13083984D01*
X8315182Y-13083984D02*
X8296134Y-13074460D01*
X8296134Y-13074460D02*
X8286611Y-13064936D01*
X8286611Y-13064936D02*
X8277087Y-13045888D01*
X8277087Y-13045888D02*
X8277087Y-12988746D01*
X8277087Y-12988746D02*
X8286611Y-12969698D01*
X8286611Y-12969698D02*
X8296134Y-12960174D01*
X8296134Y-12960174D02*
X8315182Y-12950650D01*
X8315182Y-12950650D02*
X8343753Y-12950650D01*
X8343753Y-12950650D02*
X8362801Y-12960174D01*
X8362801Y-12960174D02*
X8372325Y-12969698D01*
X8372325Y-12969698D02*
X8381849Y-12988746D01*
X8381849Y-12988746D02*
X8381849Y-13045888D01*
X8381849Y-13045888D02*
X8372325Y-13064936D01*
X8372325Y-13064936D02*
X8362801Y-13074460D01*
X8362801Y-13074460D02*
X8343753Y-13083984D01*
X8343753Y-13083984D02*
X8315182Y-13083984D01*
X8438992Y-12950650D02*
X8515182Y-12950650D01*
X8467563Y-12883984D02*
X8467563Y-13055412D01*
X8467563Y-13055412D02*
X8477087Y-13074460D01*
X8477087Y-13074460D02*
X8496134Y-13083984D01*
X8496134Y-13083984D02*
X8515182Y-13083984D01*
X8734230Y-12950650D02*
X8734230Y-13150650D01*
X8734230Y-12960174D02*
X8753277Y-12950650D01*
X8753277Y-12950650D02*
X8791373Y-12950650D01*
X8791373Y-12950650D02*
X8810420Y-12960174D01*
X8810420Y-12960174D02*
X8819944Y-12969698D01*
X8819944Y-12969698D02*
X8829468Y-12988746D01*
X8829468Y-12988746D02*
X8829468Y-13045888D01*
X8829468Y-13045888D02*
X8819944Y-13064936D01*
X8819944Y-13064936D02*
X8810420Y-13074460D01*
X8810420Y-13074460D02*
X8791373Y-13083984D01*
X8791373Y-13083984D02*
X8753277Y-13083984D01*
X8753277Y-13083984D02*
X8734230Y-13074460D01*
X8943754Y-13083984D02*
X8924706Y-13074460D01*
X8924706Y-13074460D02*
X8915182Y-13055412D01*
X8915182Y-13055412D02*
X8915182Y-12883984D01*
X9105658Y-13083984D02*
X9105658Y-12979222D01*
X9105658Y-12979222D02*
X9096135Y-12960174D01*
X9096135Y-12960174D02*
X9077087Y-12950650D01*
X9077087Y-12950650D02*
X9038992Y-12950650D01*
X9038992Y-12950650D02*
X9019944Y-12960174D01*
X9105658Y-13074460D02*
X9086611Y-13083984D01*
X9086611Y-13083984D02*
X9038992Y-13083984D01*
X9038992Y-13083984D02*
X9019944Y-13074460D01*
X9019944Y-13074460D02*
X9010420Y-13055412D01*
X9010420Y-13055412D02*
X9010420Y-13036365D01*
X9010420Y-13036365D02*
X9019944Y-13017317D01*
X9019944Y-13017317D02*
X9038992Y-13007793D01*
X9038992Y-13007793D02*
X9086611Y-13007793D01*
X9086611Y-13007793D02*
X9105658Y-12998269D01*
X9172325Y-12950650D02*
X9248515Y-12950650D01*
X9200896Y-12883984D02*
X9200896Y-13055412D01*
X9200896Y-13055412D02*
X9210420Y-13074460D01*
X9210420Y-13074460D02*
X9229468Y-13083984D01*
X9229468Y-13083984D02*
X9248515Y-13083984D01*
X9391373Y-13074460D02*
X9372325Y-13083984D01*
X9372325Y-13083984D02*
X9334230Y-13083984D01*
X9334230Y-13083984D02*
X9315182Y-13074460D01*
X9315182Y-13074460D02*
X9305658Y-13055412D01*
X9305658Y-13055412D02*
X9305658Y-12979222D01*
X9305658Y-12979222D02*
X9315182Y-12960174D01*
X9315182Y-12960174D02*
X9334230Y-12950650D01*
X9334230Y-12950650D02*
X9372325Y-12950650D01*
X9372325Y-12950650D02*
X9391373Y-12960174D01*
X9391373Y-12960174D02*
X9400896Y-12979222D01*
X9400896Y-12979222D02*
X9400896Y-12998269D01*
X9400896Y-12998269D02*
X9305658Y-13017317D01*
X9572325Y-13083984D02*
X9572325Y-12883984D01*
X9572325Y-13074460D02*
X9553277Y-13083984D01*
X9553277Y-13083984D02*
X9515182Y-13083984D01*
X9515182Y-13083984D02*
X9496135Y-13074460D01*
X9496135Y-13074460D02*
X9486611Y-13064936D01*
X9486611Y-13064936D02*
X9477087Y-13045888D01*
X9477087Y-13045888D02*
X9477087Y-12988746D01*
X9477087Y-12988746D02*
X9486611Y-12969698D01*
X9486611Y-12969698D02*
X9496135Y-12960174D01*
X9496135Y-12960174D02*
X9515182Y-12950650D01*
X9515182Y-12950650D02*
X9553277Y-12950650D01*
X9553277Y-12950650D02*
X9572325Y-12960174D01*
X9648516Y-13160174D02*
X9658039Y-13150650D01*
X9658039Y-13150650D02*
X9677087Y-13122079D01*
X9677087Y-13122079D02*
X9686611Y-13103031D01*
X9686611Y-13103031D02*
X9696135Y-13074460D01*
X9696135Y-13074460D02*
X9705658Y-13026841D01*
X9705658Y-13026841D02*
X9705658Y-12988746D01*
X9705658Y-12988746D02*
X9696135Y-12941127D01*
X9696135Y-12941127D02*
X9686611Y-12912555D01*
X9686611Y-12912555D02*
X9677087Y-12893508D01*
X9677087Y-12893508D02*
X9658039Y-12864936D01*
X9658039Y-12864936D02*
X9648516Y-12855412D01*
D13*
X2892500Y-13256500D02*
G75*
G02*
X2717500Y-13256500I-87500J0D01*
G01*
X2717500Y-13256500D02*
G75*
G02*
X2892500Y-13256500I87500J0D01*
G01*
D11*
X3258039Y-13347984D02*
X3143753Y-13347984D01*
X3200896Y-13347984D02*
X3200896Y-13147984D01*
X3200896Y-13147984D02*
X3181848Y-13176555D01*
X3181848Y-13176555D02*
X3162801Y-13195603D01*
X3162801Y-13195603D02*
X3143753Y-13205127D01*
X3343753Y-13328936D02*
X3353277Y-13338460D01*
X3353277Y-13338460D02*
X3343753Y-13347984D01*
X3343753Y-13347984D02*
X3334229Y-13338460D01*
X3334229Y-13338460D02*
X3343753Y-13328936D01*
X3343753Y-13328936D02*
X3343753Y-13347984D01*
X3419943Y-13147984D02*
X3553277Y-13147984D01*
X3553277Y-13147984D02*
X3467562Y-13347984D01*
X3724705Y-13147984D02*
X3629467Y-13147984D01*
X3629467Y-13147984D02*
X3619943Y-13243222D01*
X3619943Y-13243222D02*
X3629467Y-13233698D01*
X3629467Y-13233698D02*
X3648515Y-13224174D01*
X3648515Y-13224174D02*
X3696134Y-13224174D01*
X3696134Y-13224174D02*
X3715182Y-13233698D01*
X3715182Y-13233698D02*
X3724705Y-13243222D01*
X3724705Y-13243222D02*
X3734229Y-13262269D01*
X3734229Y-13262269D02*
X3734229Y-13309888D01*
X3734229Y-13309888D02*
X3724705Y-13328936D01*
X3724705Y-13328936D02*
X3715182Y-13338460D01*
X3715182Y-13338460D02*
X3696134Y-13347984D01*
X3696134Y-13347984D02*
X3648515Y-13347984D01*
X3648515Y-13347984D02*
X3629467Y-13338460D01*
X3629467Y-13338460D02*
X3619943Y-13328936D01*
X3858039Y-13147984D02*
X3877086Y-13147984D01*
X3877086Y-13147984D02*
X3896134Y-13157508D01*
X3896134Y-13157508D02*
X3905658Y-13167031D01*
X3905658Y-13167031D02*
X3915182Y-13186079D01*
X3915182Y-13186079D02*
X3924705Y-13224174D01*
X3924705Y-13224174D02*
X3924705Y-13271793D01*
X3924705Y-13271793D02*
X3915182Y-13309888D01*
X3915182Y-13309888D02*
X3905658Y-13328936D01*
X3905658Y-13328936D02*
X3896134Y-13338460D01*
X3896134Y-13338460D02*
X3877086Y-13347984D01*
X3877086Y-13347984D02*
X3858039Y-13347984D01*
X3858039Y-13347984D02*
X3838991Y-13338460D01*
X3838991Y-13338460D02*
X3829467Y-13328936D01*
X3829467Y-13328936D02*
X3819943Y-13309888D01*
X3819943Y-13309888D02*
X3810420Y-13271793D01*
X3810420Y-13271793D02*
X3810420Y-13224174D01*
X3810420Y-13224174D02*
X3819943Y-13186079D01*
X3819943Y-13186079D02*
X3829467Y-13167031D01*
X3829467Y-13167031D02*
X3838991Y-13157508D01*
X3838991Y-13157508D02*
X3858039Y-13147984D01*
X4010420Y-13347984D02*
X4010420Y-13214650D01*
X4010420Y-13233698D02*
X4019943Y-13224174D01*
X4019943Y-13224174D02*
X4038991Y-13214650D01*
X4038991Y-13214650D02*
X4067563Y-13214650D01*
X4067563Y-13214650D02*
X4086610Y-13224174D01*
X4086610Y-13224174D02*
X4096134Y-13243222D01*
X4096134Y-13243222D02*
X4096134Y-13347984D01*
X4096134Y-13243222D02*
X4105658Y-13224174D01*
X4105658Y-13224174D02*
X4124705Y-13214650D01*
X4124705Y-13214650D02*
X4153277Y-13214650D01*
X4153277Y-13214650D02*
X4172324Y-13224174D01*
X4172324Y-13224174D02*
X4181848Y-13243222D01*
X4181848Y-13243222D02*
X4181848Y-13347984D01*
X4277086Y-13347984D02*
X4277086Y-13214650D01*
X4277086Y-13233698D02*
X4286610Y-13224174D01*
X4286610Y-13224174D02*
X4305658Y-13214650D01*
X4305658Y-13214650D02*
X4334229Y-13214650D01*
X4334229Y-13214650D02*
X4353277Y-13224174D01*
X4353277Y-13224174D02*
X4362801Y-13243222D01*
X4362801Y-13243222D02*
X4362801Y-13347984D01*
X4362801Y-13243222D02*
X4372325Y-13224174D01*
X4372325Y-13224174D02*
X4391372Y-13214650D01*
X4391372Y-13214650D02*
X4419944Y-13214650D01*
X4419944Y-13214650D02*
X4438991Y-13224174D01*
X4438991Y-13224174D02*
X4448515Y-13243222D01*
X4448515Y-13243222D02*
X4448515Y-13347984D01*
X4838991Y-13138460D02*
X4667563Y-13395603D01*
X5096134Y-13147984D02*
X5115182Y-13147984D01*
X5115182Y-13147984D02*
X5134229Y-13157508D01*
X5134229Y-13157508D02*
X5143753Y-13167031D01*
X5143753Y-13167031D02*
X5153277Y-13186079D01*
X5153277Y-13186079D02*
X5162801Y-13224174D01*
X5162801Y-13224174D02*
X5162801Y-13271793D01*
X5162801Y-13271793D02*
X5153277Y-13309888D01*
X5153277Y-13309888D02*
X5143753Y-13328936D01*
X5143753Y-13328936D02*
X5134229Y-13338460D01*
X5134229Y-13338460D02*
X5115182Y-13347984D01*
X5115182Y-13347984D02*
X5096134Y-13347984D01*
X5096134Y-13347984D02*
X5077087Y-13338460D01*
X5077087Y-13338460D02*
X5067563Y-13328936D01*
X5067563Y-13328936D02*
X5058039Y-13309888D01*
X5058039Y-13309888D02*
X5048515Y-13271793D01*
X5048515Y-13271793D02*
X5048515Y-13224174D01*
X5048515Y-13224174D02*
X5058039Y-13186079D01*
X5058039Y-13186079D02*
X5067563Y-13167031D01*
X5067563Y-13167031D02*
X5077087Y-13157508D01*
X5077087Y-13157508D02*
X5096134Y-13147984D01*
X5248515Y-13328936D02*
X5258039Y-13338460D01*
X5258039Y-13338460D02*
X5248515Y-13347984D01*
X5248515Y-13347984D02*
X5238991Y-13338460D01*
X5238991Y-13338460D02*
X5248515Y-13328936D01*
X5248515Y-13328936D02*
X5248515Y-13347984D01*
X5381848Y-13147984D02*
X5400896Y-13147984D01*
X5400896Y-13147984D02*
X5419944Y-13157508D01*
X5419944Y-13157508D02*
X5429468Y-13167031D01*
X5429468Y-13167031D02*
X5438991Y-13186079D01*
X5438991Y-13186079D02*
X5448515Y-13224174D01*
X5448515Y-13224174D02*
X5448515Y-13271793D01*
X5448515Y-13271793D02*
X5438991Y-13309888D01*
X5438991Y-13309888D02*
X5429468Y-13328936D01*
X5429468Y-13328936D02*
X5419944Y-13338460D01*
X5419944Y-13338460D02*
X5400896Y-13347984D01*
X5400896Y-13347984D02*
X5381848Y-13347984D01*
X5381848Y-13347984D02*
X5362801Y-13338460D01*
X5362801Y-13338460D02*
X5353277Y-13328936D01*
X5353277Y-13328936D02*
X5343753Y-13309888D01*
X5343753Y-13309888D02*
X5334229Y-13271793D01*
X5334229Y-13271793D02*
X5334229Y-13224174D01*
X5334229Y-13224174D02*
X5343753Y-13186079D01*
X5343753Y-13186079D02*
X5353277Y-13167031D01*
X5353277Y-13167031D02*
X5362801Y-13157508D01*
X5362801Y-13157508D02*
X5381848Y-13147984D01*
X5619944Y-13147984D02*
X5581848Y-13147984D01*
X5581848Y-13147984D02*
X5562801Y-13157508D01*
X5562801Y-13157508D02*
X5553277Y-13167031D01*
X5553277Y-13167031D02*
X5534229Y-13195603D01*
X5534229Y-13195603D02*
X5524706Y-13233698D01*
X5524706Y-13233698D02*
X5524706Y-13309888D01*
X5524706Y-13309888D02*
X5534229Y-13328936D01*
X5534229Y-13328936D02*
X5543753Y-13338460D01*
X5543753Y-13338460D02*
X5562801Y-13347984D01*
X5562801Y-13347984D02*
X5600896Y-13347984D01*
X5600896Y-13347984D02*
X5619944Y-13338460D01*
X5619944Y-13338460D02*
X5629467Y-13328936D01*
X5629467Y-13328936D02*
X5638991Y-13309888D01*
X5638991Y-13309888D02*
X5638991Y-13262269D01*
X5638991Y-13262269D02*
X5629467Y-13243222D01*
X5629467Y-13243222D02*
X5619944Y-13233698D01*
X5619944Y-13233698D02*
X5600896Y-13224174D01*
X5600896Y-13224174D02*
X5562801Y-13224174D01*
X5562801Y-13224174D02*
X5543753Y-13233698D01*
X5543753Y-13233698D02*
X5534229Y-13243222D01*
X5534229Y-13243222D02*
X5524706Y-13262269D01*
X5753277Y-13233698D02*
X5734229Y-13224174D01*
X5734229Y-13224174D02*
X5724706Y-13214650D01*
X5724706Y-13214650D02*
X5715182Y-13195603D01*
X5715182Y-13195603D02*
X5715182Y-13186079D01*
X5715182Y-13186079D02*
X5724706Y-13167031D01*
X5724706Y-13167031D02*
X5734229Y-13157508D01*
X5734229Y-13157508D02*
X5753277Y-13147984D01*
X5753277Y-13147984D02*
X5791372Y-13147984D01*
X5791372Y-13147984D02*
X5810420Y-13157508D01*
X5810420Y-13157508D02*
X5819944Y-13167031D01*
X5819944Y-13167031D02*
X5829467Y-13186079D01*
X5829467Y-13186079D02*
X5829467Y-13195603D01*
X5829467Y-13195603D02*
X5819944Y-13214650D01*
X5819944Y-13214650D02*
X5810420Y-13224174D01*
X5810420Y-13224174D02*
X5791372Y-13233698D01*
X5791372Y-13233698D02*
X5753277Y-13233698D01*
X5753277Y-13233698D02*
X5734229Y-13243222D01*
X5734229Y-13243222D02*
X5724706Y-13252746D01*
X5724706Y-13252746D02*
X5715182Y-13271793D01*
X5715182Y-13271793D02*
X5715182Y-13309888D01*
X5715182Y-13309888D02*
X5724706Y-13328936D01*
X5724706Y-13328936D02*
X5734229Y-13338460D01*
X5734229Y-13338460D02*
X5753277Y-13347984D01*
X5753277Y-13347984D02*
X5791372Y-13347984D01*
X5791372Y-13347984D02*
X5810420Y-13338460D01*
X5810420Y-13338460D02*
X5819944Y-13328936D01*
X5819944Y-13328936D02*
X5829467Y-13309888D01*
X5829467Y-13309888D02*
X5829467Y-13271793D01*
X5829467Y-13271793D02*
X5819944Y-13252746D01*
X5819944Y-13252746D02*
X5810420Y-13243222D01*
X5810420Y-13243222D02*
X5791372Y-13233698D01*
X5924706Y-13347984D02*
X5962801Y-13347984D01*
X5962801Y-13347984D02*
X5981848Y-13338460D01*
X5981848Y-13338460D02*
X5991372Y-13328936D01*
X5991372Y-13328936D02*
X6010420Y-13300365D01*
X6010420Y-13300365D02*
X6019944Y-13262269D01*
X6019944Y-13262269D02*
X6019944Y-13186079D01*
X6019944Y-13186079D02*
X6010420Y-13167031D01*
X6010420Y-13167031D02*
X6000896Y-13157508D01*
X6000896Y-13157508D02*
X5981848Y-13147984D01*
X5981848Y-13147984D02*
X5943753Y-13147984D01*
X5943753Y-13147984D02*
X5924706Y-13157508D01*
X5924706Y-13157508D02*
X5915182Y-13167031D01*
X5915182Y-13167031D02*
X5905658Y-13186079D01*
X5905658Y-13186079D02*
X5905658Y-13233698D01*
X5905658Y-13233698D02*
X5915182Y-13252746D01*
X5915182Y-13252746D02*
X5924706Y-13262269D01*
X5924706Y-13262269D02*
X5943753Y-13271793D01*
X5943753Y-13271793D02*
X5981848Y-13271793D01*
X5981848Y-13271793D02*
X6000896Y-13262269D01*
X6000896Y-13262269D02*
X6010420Y-13252746D01*
X6010420Y-13252746D02*
X6019944Y-13233698D01*
X6096134Y-13147984D02*
X6096134Y-13186079D01*
X6172325Y-13147984D02*
X6172325Y-13186079D01*
X6467563Y-13424174D02*
X6458039Y-13414650D01*
X6458039Y-13414650D02*
X6438991Y-13386079D01*
X6438991Y-13386079D02*
X6429468Y-13367031D01*
X6429468Y-13367031D02*
X6419944Y-13338460D01*
X6419944Y-13338460D02*
X6410420Y-13290841D01*
X6410420Y-13290841D02*
X6410420Y-13252746D01*
X6410420Y-13252746D02*
X6419944Y-13205127D01*
X6419944Y-13205127D02*
X6429468Y-13176555D01*
X6429468Y-13176555D02*
X6438991Y-13157508D01*
X6438991Y-13157508D02*
X6458039Y-13128936D01*
X6458039Y-13128936D02*
X6467563Y-13119412D01*
X6648515Y-13347984D02*
X6534229Y-13347984D01*
X6591372Y-13347984D02*
X6591372Y-13147984D01*
X6591372Y-13147984D02*
X6572325Y-13176555D01*
X6572325Y-13176555D02*
X6553277Y-13195603D01*
X6553277Y-13195603D02*
X6534229Y-13205127D01*
X6829468Y-13147984D02*
X6734229Y-13147984D01*
X6734229Y-13147984D02*
X6724706Y-13243222D01*
X6724706Y-13243222D02*
X6734229Y-13233698D01*
X6734229Y-13233698D02*
X6753277Y-13224174D01*
X6753277Y-13224174D02*
X6800896Y-13224174D01*
X6800896Y-13224174D02*
X6819944Y-13233698D01*
X6819944Y-13233698D02*
X6829468Y-13243222D01*
X6829468Y-13243222D02*
X6838991Y-13262269D01*
X6838991Y-13262269D02*
X6838991Y-13309888D01*
X6838991Y-13309888D02*
X6829468Y-13328936D01*
X6829468Y-13328936D02*
X6819944Y-13338460D01*
X6819944Y-13338460D02*
X6800896Y-13347984D01*
X6800896Y-13347984D02*
X6753277Y-13347984D01*
X6753277Y-13347984D02*
X6734229Y-13338460D01*
X6734229Y-13338460D02*
X6724706Y-13328936D01*
X7010420Y-13214650D02*
X7010420Y-13347984D01*
X6962801Y-13138460D02*
X6915182Y-13281317D01*
X6915182Y-13281317D02*
X7038991Y-13281317D01*
X7267563Y-13347984D02*
X7267563Y-13147984D01*
X7353277Y-13347984D02*
X7353277Y-13243222D01*
X7353277Y-13243222D02*
X7343753Y-13224174D01*
X7343753Y-13224174D02*
X7324706Y-13214650D01*
X7324706Y-13214650D02*
X7296134Y-13214650D01*
X7296134Y-13214650D02*
X7277087Y-13224174D01*
X7277087Y-13224174D02*
X7267563Y-13233698D01*
X7477087Y-13347984D02*
X7458039Y-13338460D01*
X7458039Y-13338460D02*
X7448515Y-13328936D01*
X7448515Y-13328936D02*
X7438991Y-13309888D01*
X7438991Y-13309888D02*
X7438991Y-13252746D01*
X7438991Y-13252746D02*
X7448515Y-13233698D01*
X7448515Y-13233698D02*
X7458039Y-13224174D01*
X7458039Y-13224174D02*
X7477087Y-13214650D01*
X7477087Y-13214650D02*
X7505658Y-13214650D01*
X7505658Y-13214650D02*
X7524706Y-13224174D01*
X7524706Y-13224174D02*
X7534230Y-13233698D01*
X7534230Y-13233698D02*
X7543753Y-13252746D01*
X7543753Y-13252746D02*
X7543753Y-13309888D01*
X7543753Y-13309888D02*
X7534230Y-13328936D01*
X7534230Y-13328936D02*
X7524706Y-13338460D01*
X7524706Y-13338460D02*
X7505658Y-13347984D01*
X7505658Y-13347984D02*
X7477087Y-13347984D01*
X7658039Y-13347984D02*
X7638991Y-13338460D01*
X7638991Y-13338460D02*
X7629468Y-13319412D01*
X7629468Y-13319412D02*
X7629468Y-13147984D01*
X7810420Y-13338460D02*
X7791372Y-13347984D01*
X7791372Y-13347984D02*
X7753277Y-13347984D01*
X7753277Y-13347984D02*
X7734230Y-13338460D01*
X7734230Y-13338460D02*
X7724706Y-13319412D01*
X7724706Y-13319412D02*
X7724706Y-13243222D01*
X7724706Y-13243222D02*
X7734230Y-13224174D01*
X7734230Y-13224174D02*
X7753277Y-13214650D01*
X7753277Y-13214650D02*
X7791372Y-13214650D01*
X7791372Y-13214650D02*
X7810420Y-13224174D01*
X7810420Y-13224174D02*
X7819944Y-13243222D01*
X7819944Y-13243222D02*
X7819944Y-13262269D01*
X7819944Y-13262269D02*
X7724706Y-13281317D01*
X7896134Y-13338460D02*
X7915182Y-13347984D01*
X7915182Y-13347984D02*
X7953277Y-13347984D01*
X7953277Y-13347984D02*
X7972325Y-13338460D01*
X7972325Y-13338460D02*
X7981849Y-13319412D01*
X7981849Y-13319412D02*
X7981849Y-13309888D01*
X7981849Y-13309888D02*
X7972325Y-13290841D01*
X7972325Y-13290841D02*
X7953277Y-13281317D01*
X7953277Y-13281317D02*
X7924706Y-13281317D01*
X7924706Y-13281317D02*
X7905658Y-13271793D01*
X7905658Y-13271793D02*
X7896134Y-13252746D01*
X7896134Y-13252746D02*
X7896134Y-13243222D01*
X7896134Y-13243222D02*
X7905658Y-13224174D01*
X7905658Y-13224174D02*
X7924706Y-13214650D01*
X7924706Y-13214650D02*
X7953277Y-13214650D01*
X7953277Y-13214650D02*
X7972325Y-13224174D01*
X8048515Y-13424174D02*
X8058039Y-13414650D01*
X8058039Y-13414650D02*
X8077087Y-13386079D01*
X8077087Y-13386079D02*
X8086611Y-13367031D01*
X8086611Y-13367031D02*
X8096134Y-13338460D01*
X8096134Y-13338460D02*
X8105658Y-13290841D01*
X8105658Y-13290841D02*
X8105658Y-13252746D01*
X8105658Y-13252746D02*
X8096134Y-13205127D01*
X8096134Y-13205127D02*
X8086611Y-13176555D01*
X8086611Y-13176555D02*
X8077087Y-13157508D01*
X8077087Y-13157508D02*
X8058039Y-13128936D01*
X8058039Y-13128936D02*
X8048515Y-13119412D01*
X8410420Y-13424174D02*
X8400896Y-13414650D01*
X8400896Y-13414650D02*
X8381849Y-13386079D01*
X8381849Y-13386079D02*
X8372325Y-13367031D01*
X8372325Y-13367031D02*
X8362801Y-13338460D01*
X8362801Y-13338460D02*
X8353277Y-13290841D01*
X8353277Y-13290841D02*
X8353277Y-13252746D01*
X8353277Y-13252746D02*
X8362801Y-13205127D01*
X8362801Y-13205127D02*
X8372325Y-13176555D01*
X8372325Y-13176555D02*
X8381849Y-13157508D01*
X8381849Y-13157508D02*
X8400896Y-13128936D01*
X8400896Y-13128936D02*
X8410420Y-13119412D01*
X8486611Y-13214650D02*
X8486611Y-13347984D01*
X8486611Y-13233698D02*
X8496134Y-13224174D01*
X8496134Y-13224174D02*
X8515182Y-13214650D01*
X8515182Y-13214650D02*
X8543754Y-13214650D01*
X8543754Y-13214650D02*
X8562801Y-13224174D01*
X8562801Y-13224174D02*
X8572325Y-13243222D01*
X8572325Y-13243222D02*
X8572325Y-13347984D01*
X8696134Y-13347984D02*
X8677087Y-13338460D01*
X8677087Y-13338460D02*
X8667563Y-13328936D01*
X8667563Y-13328936D02*
X8658039Y-13309888D01*
X8658039Y-13309888D02*
X8658039Y-13252746D01*
X8658039Y-13252746D02*
X8667563Y-13233698D01*
X8667563Y-13233698D02*
X8677087Y-13224174D01*
X8677087Y-13224174D02*
X8696134Y-13214650D01*
X8696134Y-13214650D02*
X8724706Y-13214650D01*
X8724706Y-13214650D02*
X8743754Y-13224174D01*
X8743754Y-13224174D02*
X8753277Y-13233698D01*
X8753277Y-13233698D02*
X8762801Y-13252746D01*
X8762801Y-13252746D02*
X8762801Y-13309888D01*
X8762801Y-13309888D02*
X8753277Y-13328936D01*
X8753277Y-13328936D02*
X8743754Y-13338460D01*
X8743754Y-13338460D02*
X8724706Y-13347984D01*
X8724706Y-13347984D02*
X8696134Y-13347984D01*
X8819944Y-13214650D02*
X8896134Y-13214650D01*
X8848515Y-13147984D02*
X8848515Y-13319412D01*
X8848515Y-13319412D02*
X8858039Y-13338460D01*
X8858039Y-13338460D02*
X8877087Y-13347984D01*
X8877087Y-13347984D02*
X8896134Y-13347984D01*
X9115182Y-13214650D02*
X9115182Y-13414650D01*
X9115182Y-13224174D02*
X9134230Y-13214650D01*
X9134230Y-13214650D02*
X9172325Y-13214650D01*
X9172325Y-13214650D02*
X9191373Y-13224174D01*
X9191373Y-13224174D02*
X9200896Y-13233698D01*
X9200896Y-13233698D02*
X9210420Y-13252746D01*
X9210420Y-13252746D02*
X9210420Y-13309888D01*
X9210420Y-13309888D02*
X9200896Y-13328936D01*
X9200896Y-13328936D02*
X9191373Y-13338460D01*
X9191373Y-13338460D02*
X9172325Y-13347984D01*
X9172325Y-13347984D02*
X9134230Y-13347984D01*
X9134230Y-13347984D02*
X9115182Y-13338460D01*
X9324706Y-13347984D02*
X9305658Y-13338460D01*
X9305658Y-13338460D02*
X9296135Y-13319412D01*
X9296135Y-13319412D02*
X9296135Y-13147984D01*
X9486611Y-13347984D02*
X9486611Y-13243222D01*
X9486611Y-13243222D02*
X9477087Y-13224174D01*
X9477087Y-13224174D02*
X9458039Y-13214650D01*
X9458039Y-13214650D02*
X9419944Y-13214650D01*
X9419944Y-13214650D02*
X9400896Y-13224174D01*
X9486611Y-13338460D02*
X9467563Y-13347984D01*
X9467563Y-13347984D02*
X9419944Y-13347984D01*
X9419944Y-13347984D02*
X9400896Y-13338460D01*
X9400896Y-13338460D02*
X9391373Y-13319412D01*
X9391373Y-13319412D02*
X9391373Y-13300365D01*
X9391373Y-13300365D02*
X9400896Y-13281317D01*
X9400896Y-13281317D02*
X9419944Y-13271793D01*
X9419944Y-13271793D02*
X9467563Y-13271793D01*
X9467563Y-13271793D02*
X9486611Y-13262269D01*
X9553277Y-13214650D02*
X9629468Y-13214650D01*
X9581849Y-13147984D02*
X9581849Y-13319412D01*
X9581849Y-13319412D02*
X9591373Y-13338460D01*
X9591373Y-13338460D02*
X9610420Y-13347984D01*
X9610420Y-13347984D02*
X9629468Y-13347984D01*
X9772325Y-13338460D02*
X9753277Y-13347984D01*
X9753277Y-13347984D02*
X9715182Y-13347984D01*
X9715182Y-13347984D02*
X9696135Y-13338460D01*
X9696135Y-13338460D02*
X9686611Y-13319412D01*
X9686611Y-13319412D02*
X9686611Y-13243222D01*
X9686611Y-13243222D02*
X9696135Y-13224174D01*
X9696135Y-13224174D02*
X9715182Y-13214650D01*
X9715182Y-13214650D02*
X9753277Y-13214650D01*
X9753277Y-13214650D02*
X9772325Y-13224174D01*
X9772325Y-13224174D02*
X9781849Y-13243222D01*
X9781849Y-13243222D02*
X9781849Y-13262269D01*
X9781849Y-13262269D02*
X9686611Y-13281317D01*
X9953277Y-13347984D02*
X9953277Y-13147984D01*
X9953277Y-13338460D02*
X9934230Y-13347984D01*
X9934230Y-13347984D02*
X9896135Y-13347984D01*
X9896135Y-13347984D02*
X9877087Y-13338460D01*
X9877087Y-13338460D02*
X9867563Y-13328936D01*
X9867563Y-13328936D02*
X9858039Y-13309888D01*
X9858039Y-13309888D02*
X9858039Y-13252746D01*
X9858039Y-13252746D02*
X9867563Y-13233698D01*
X9867563Y-13233698D02*
X9877087Y-13224174D01*
X9877087Y-13224174D02*
X9896135Y-13214650D01*
X9896135Y-13214650D02*
X9934230Y-13214650D01*
X9934230Y-13214650D02*
X9953277Y-13224174D01*
X10029468Y-13424174D02*
X10038992Y-13414650D01*
X10038992Y-13414650D02*
X10058039Y-13386079D01*
X10058039Y-13386079D02*
X10067563Y-13367031D01*
X10067563Y-13367031D02*
X10077087Y-13338460D01*
X10077087Y-13338460D02*
X10086611Y-13290841D01*
X10086611Y-13290841D02*
X10086611Y-13252746D01*
X10086611Y-13252746D02*
X10077087Y-13205127D01*
X10077087Y-13205127D02*
X10067563Y-13176555D01*
X10067563Y-13176555D02*
X10058039Y-13157508D01*
X10058039Y-13157508D02*
X10038992Y-13128936D01*
X10038992Y-13128936D02*
X10029468Y-13119412D01*
X2792500Y-13451500D02*
X2792500Y-13651500D01*
X2692500Y-13551500D02*
X2892500Y-13551500D01*
X3143753Y-13462031D02*
X3153277Y-13452508D01*
X3153277Y-13452508D02*
X3172324Y-13442984D01*
X3172324Y-13442984D02*
X3219943Y-13442984D01*
X3219943Y-13442984D02*
X3238991Y-13452508D01*
X3238991Y-13452508D02*
X3248515Y-13462031D01*
X3248515Y-13462031D02*
X3258039Y-13481079D01*
X3258039Y-13481079D02*
X3258039Y-13500127D01*
X3258039Y-13500127D02*
X3248515Y-13528698D01*
X3248515Y-13528698D02*
X3134229Y-13642984D01*
X3134229Y-13642984D02*
X3258039Y-13642984D01*
X3343753Y-13623936D02*
X3353277Y-13633460D01*
X3353277Y-13633460D02*
X3343753Y-13642984D01*
X3343753Y-13642984D02*
X3334229Y-13633460D01*
X3334229Y-13633460D02*
X3343753Y-13623936D01*
X3343753Y-13623936D02*
X3343753Y-13642984D01*
X3534229Y-13442984D02*
X3438991Y-13442984D01*
X3438991Y-13442984D02*
X3429467Y-13538222D01*
X3429467Y-13538222D02*
X3438991Y-13528698D01*
X3438991Y-13528698D02*
X3458039Y-13519174D01*
X3458039Y-13519174D02*
X3505658Y-13519174D01*
X3505658Y-13519174D02*
X3524705Y-13528698D01*
X3524705Y-13528698D02*
X3534229Y-13538222D01*
X3534229Y-13538222D02*
X3543753Y-13557269D01*
X3543753Y-13557269D02*
X3543753Y-13604888D01*
X3543753Y-13604888D02*
X3534229Y-13623936D01*
X3534229Y-13623936D02*
X3524705Y-13633460D01*
X3524705Y-13633460D02*
X3505658Y-13642984D01*
X3505658Y-13642984D02*
X3458039Y-13642984D01*
X3458039Y-13642984D02*
X3438991Y-13633460D01*
X3438991Y-13633460D02*
X3429467Y-13623936D01*
X3667562Y-13442984D02*
X3686610Y-13442984D01*
X3686610Y-13442984D02*
X3705658Y-13452508D01*
X3705658Y-13452508D02*
X3715182Y-13462031D01*
X3715182Y-13462031D02*
X3724705Y-13481079D01*
X3724705Y-13481079D02*
X3734229Y-13519174D01*
X3734229Y-13519174D02*
X3734229Y-13566793D01*
X3734229Y-13566793D02*
X3724705Y-13604888D01*
X3724705Y-13604888D02*
X3715182Y-13623936D01*
X3715182Y-13623936D02*
X3705658Y-13633460D01*
X3705658Y-13633460D02*
X3686610Y-13642984D01*
X3686610Y-13642984D02*
X3667562Y-13642984D01*
X3667562Y-13642984D02*
X3648515Y-13633460D01*
X3648515Y-13633460D02*
X3638991Y-13623936D01*
X3638991Y-13623936D02*
X3629467Y-13604888D01*
X3629467Y-13604888D02*
X3619943Y-13566793D01*
X3619943Y-13566793D02*
X3619943Y-13519174D01*
X3619943Y-13519174D02*
X3629467Y-13481079D01*
X3629467Y-13481079D02*
X3638991Y-13462031D01*
X3638991Y-13462031D02*
X3648515Y-13452508D01*
X3648515Y-13452508D02*
X3667562Y-13442984D01*
X3858039Y-13442984D02*
X3877086Y-13442984D01*
X3877086Y-13442984D02*
X3896134Y-13452508D01*
X3896134Y-13452508D02*
X3905658Y-13462031D01*
X3905658Y-13462031D02*
X3915182Y-13481079D01*
X3915182Y-13481079D02*
X3924705Y-13519174D01*
X3924705Y-13519174D02*
X3924705Y-13566793D01*
X3924705Y-13566793D02*
X3915182Y-13604888D01*
X3915182Y-13604888D02*
X3905658Y-13623936D01*
X3905658Y-13623936D02*
X3896134Y-13633460D01*
X3896134Y-13633460D02*
X3877086Y-13642984D01*
X3877086Y-13642984D02*
X3858039Y-13642984D01*
X3858039Y-13642984D02*
X3838991Y-13633460D01*
X3838991Y-13633460D02*
X3829467Y-13623936D01*
X3829467Y-13623936D02*
X3819943Y-13604888D01*
X3819943Y-13604888D02*
X3810420Y-13566793D01*
X3810420Y-13566793D02*
X3810420Y-13519174D01*
X3810420Y-13519174D02*
X3819943Y-13481079D01*
X3819943Y-13481079D02*
X3829467Y-13462031D01*
X3829467Y-13462031D02*
X3838991Y-13452508D01*
X3838991Y-13452508D02*
X3858039Y-13442984D01*
X4010420Y-13642984D02*
X4010420Y-13509650D01*
X4010420Y-13528698D02*
X4019943Y-13519174D01*
X4019943Y-13519174D02*
X4038991Y-13509650D01*
X4038991Y-13509650D02*
X4067563Y-13509650D01*
X4067563Y-13509650D02*
X4086610Y-13519174D01*
X4086610Y-13519174D02*
X4096134Y-13538222D01*
X4096134Y-13538222D02*
X4096134Y-13642984D01*
X4096134Y-13538222D02*
X4105658Y-13519174D01*
X4105658Y-13519174D02*
X4124705Y-13509650D01*
X4124705Y-13509650D02*
X4153277Y-13509650D01*
X4153277Y-13509650D02*
X4172324Y-13519174D01*
X4172324Y-13519174D02*
X4181848Y-13538222D01*
X4181848Y-13538222D02*
X4181848Y-13642984D01*
X4277086Y-13642984D02*
X4277086Y-13509650D01*
X4277086Y-13528698D02*
X4286610Y-13519174D01*
X4286610Y-13519174D02*
X4305658Y-13509650D01*
X4305658Y-13509650D02*
X4334229Y-13509650D01*
X4334229Y-13509650D02*
X4353277Y-13519174D01*
X4353277Y-13519174D02*
X4362801Y-13538222D01*
X4362801Y-13538222D02*
X4362801Y-13642984D01*
X4362801Y-13538222D02*
X4372325Y-13519174D01*
X4372325Y-13519174D02*
X4391372Y-13509650D01*
X4391372Y-13509650D02*
X4419944Y-13509650D01*
X4419944Y-13509650D02*
X4438991Y-13519174D01*
X4438991Y-13519174D02*
X4448515Y-13538222D01*
X4448515Y-13538222D02*
X4448515Y-13642984D01*
X4838991Y-13433460D02*
X4667563Y-13690603D01*
X5096134Y-13442984D02*
X5115182Y-13442984D01*
X5115182Y-13442984D02*
X5134229Y-13452508D01*
X5134229Y-13452508D02*
X5143753Y-13462031D01*
X5143753Y-13462031D02*
X5153277Y-13481079D01*
X5153277Y-13481079D02*
X5162801Y-13519174D01*
X5162801Y-13519174D02*
X5162801Y-13566793D01*
X5162801Y-13566793D02*
X5153277Y-13604888D01*
X5153277Y-13604888D02*
X5143753Y-13623936D01*
X5143753Y-13623936D02*
X5134229Y-13633460D01*
X5134229Y-13633460D02*
X5115182Y-13642984D01*
X5115182Y-13642984D02*
X5096134Y-13642984D01*
X5096134Y-13642984D02*
X5077087Y-13633460D01*
X5077087Y-13633460D02*
X5067563Y-13623936D01*
X5067563Y-13623936D02*
X5058039Y-13604888D01*
X5058039Y-13604888D02*
X5048515Y-13566793D01*
X5048515Y-13566793D02*
X5048515Y-13519174D01*
X5048515Y-13519174D02*
X5058039Y-13481079D01*
X5058039Y-13481079D02*
X5067563Y-13462031D01*
X5067563Y-13462031D02*
X5077087Y-13452508D01*
X5077087Y-13452508D02*
X5096134Y-13442984D01*
X5248515Y-13623936D02*
X5258039Y-13633460D01*
X5258039Y-13633460D02*
X5248515Y-13642984D01*
X5248515Y-13642984D02*
X5238991Y-13633460D01*
X5238991Y-13633460D02*
X5248515Y-13623936D01*
X5248515Y-13623936D02*
X5248515Y-13642984D01*
X5381848Y-13442984D02*
X5400896Y-13442984D01*
X5400896Y-13442984D02*
X5419944Y-13452508D01*
X5419944Y-13452508D02*
X5429468Y-13462031D01*
X5429468Y-13462031D02*
X5438991Y-13481079D01*
X5438991Y-13481079D02*
X5448515Y-13519174D01*
X5448515Y-13519174D02*
X5448515Y-13566793D01*
X5448515Y-13566793D02*
X5438991Y-13604888D01*
X5438991Y-13604888D02*
X5429468Y-13623936D01*
X5429468Y-13623936D02*
X5419944Y-13633460D01*
X5419944Y-13633460D02*
X5400896Y-13642984D01*
X5400896Y-13642984D02*
X5381848Y-13642984D01*
X5381848Y-13642984D02*
X5362801Y-13633460D01*
X5362801Y-13633460D02*
X5353277Y-13623936D01*
X5353277Y-13623936D02*
X5343753Y-13604888D01*
X5343753Y-13604888D02*
X5334229Y-13566793D01*
X5334229Y-13566793D02*
X5334229Y-13519174D01*
X5334229Y-13519174D02*
X5343753Y-13481079D01*
X5343753Y-13481079D02*
X5353277Y-13462031D01*
X5353277Y-13462031D02*
X5362801Y-13452508D01*
X5362801Y-13452508D02*
X5381848Y-13442984D01*
X5543753Y-13642984D02*
X5581848Y-13642984D01*
X5581848Y-13642984D02*
X5600896Y-13633460D01*
X5600896Y-13633460D02*
X5610420Y-13623936D01*
X5610420Y-13623936D02*
X5629467Y-13595365D01*
X5629467Y-13595365D02*
X5638991Y-13557269D01*
X5638991Y-13557269D02*
X5638991Y-13481079D01*
X5638991Y-13481079D02*
X5629467Y-13462031D01*
X5629467Y-13462031D02*
X5619944Y-13452508D01*
X5619944Y-13452508D02*
X5600896Y-13442984D01*
X5600896Y-13442984D02*
X5562801Y-13442984D01*
X5562801Y-13442984D02*
X5543753Y-13452508D01*
X5543753Y-13452508D02*
X5534229Y-13462031D01*
X5534229Y-13462031D02*
X5524706Y-13481079D01*
X5524706Y-13481079D02*
X5524706Y-13528698D01*
X5524706Y-13528698D02*
X5534229Y-13547746D01*
X5534229Y-13547746D02*
X5543753Y-13557269D01*
X5543753Y-13557269D02*
X5562801Y-13566793D01*
X5562801Y-13566793D02*
X5600896Y-13566793D01*
X5600896Y-13566793D02*
X5619944Y-13557269D01*
X5619944Y-13557269D02*
X5629467Y-13547746D01*
X5629467Y-13547746D02*
X5638991Y-13528698D01*
X5753277Y-13528698D02*
X5734229Y-13519174D01*
X5734229Y-13519174D02*
X5724706Y-13509650D01*
X5724706Y-13509650D02*
X5715182Y-13490603D01*
X5715182Y-13490603D02*
X5715182Y-13481079D01*
X5715182Y-13481079D02*
X5724706Y-13462031D01*
X5724706Y-13462031D02*
X5734229Y-13452508D01*
X5734229Y-13452508D02*
X5753277Y-13442984D01*
X5753277Y-13442984D02*
X5791372Y-13442984D01*
X5791372Y-13442984D02*
X5810420Y-13452508D01*
X5810420Y-13452508D02*
X5819944Y-13462031D01*
X5819944Y-13462031D02*
X5829467Y-13481079D01*
X5829467Y-13481079D02*
X5829467Y-13490603D01*
X5829467Y-13490603D02*
X5819944Y-13509650D01*
X5819944Y-13509650D02*
X5810420Y-13519174D01*
X5810420Y-13519174D02*
X5791372Y-13528698D01*
X5791372Y-13528698D02*
X5753277Y-13528698D01*
X5753277Y-13528698D02*
X5734229Y-13538222D01*
X5734229Y-13538222D02*
X5724706Y-13547746D01*
X5724706Y-13547746D02*
X5715182Y-13566793D01*
X5715182Y-13566793D02*
X5715182Y-13604888D01*
X5715182Y-13604888D02*
X5724706Y-13623936D01*
X5724706Y-13623936D02*
X5734229Y-13633460D01*
X5734229Y-13633460D02*
X5753277Y-13642984D01*
X5753277Y-13642984D02*
X5791372Y-13642984D01*
X5791372Y-13642984D02*
X5810420Y-13633460D01*
X5810420Y-13633460D02*
X5819944Y-13623936D01*
X5819944Y-13623936D02*
X5829467Y-13604888D01*
X5829467Y-13604888D02*
X5829467Y-13566793D01*
X5829467Y-13566793D02*
X5819944Y-13547746D01*
X5819944Y-13547746D02*
X5810420Y-13538222D01*
X5810420Y-13538222D02*
X5791372Y-13528698D01*
X6000896Y-13509650D02*
X6000896Y-13642984D01*
X5953277Y-13433460D02*
X5905658Y-13576317D01*
X5905658Y-13576317D02*
X6029467Y-13576317D01*
X6096134Y-13442984D02*
X6096134Y-13481079D01*
X6172325Y-13442984D02*
X6172325Y-13481079D01*
X6467563Y-13719174D02*
X6458039Y-13709650D01*
X6458039Y-13709650D02*
X6438991Y-13681079D01*
X6438991Y-13681079D02*
X6429468Y-13662031D01*
X6429468Y-13662031D02*
X6419944Y-13633460D01*
X6419944Y-13633460D02*
X6410420Y-13585841D01*
X6410420Y-13585841D02*
X6410420Y-13547746D01*
X6410420Y-13547746D02*
X6419944Y-13500127D01*
X6419944Y-13500127D02*
X6429468Y-13471555D01*
X6429468Y-13471555D02*
X6438991Y-13452508D01*
X6438991Y-13452508D02*
X6458039Y-13423936D01*
X6458039Y-13423936D02*
X6467563Y-13414412D01*
X6648515Y-13642984D02*
X6534229Y-13642984D01*
X6591372Y-13642984D02*
X6591372Y-13442984D01*
X6591372Y-13442984D02*
X6572325Y-13471555D01*
X6572325Y-13471555D02*
X6553277Y-13490603D01*
X6553277Y-13490603D02*
X6534229Y-13500127D01*
X6886610Y-13642984D02*
X6886610Y-13442984D01*
X6972325Y-13642984D02*
X6972325Y-13538222D01*
X6972325Y-13538222D02*
X6962801Y-13519174D01*
X6962801Y-13519174D02*
X6943753Y-13509650D01*
X6943753Y-13509650D02*
X6915182Y-13509650D01*
X6915182Y-13509650D02*
X6896134Y-13519174D01*
X6896134Y-13519174D02*
X6886610Y-13528698D01*
X7096134Y-13642984D02*
X7077087Y-13633460D01*
X7077087Y-13633460D02*
X7067563Y-13623936D01*
X7067563Y-13623936D02*
X7058039Y-13604888D01*
X7058039Y-13604888D02*
X7058039Y-13547746D01*
X7058039Y-13547746D02*
X7067563Y-13528698D01*
X7067563Y-13528698D02*
X7077087Y-13519174D01*
X7077087Y-13519174D02*
X7096134Y-13509650D01*
X7096134Y-13509650D02*
X7124706Y-13509650D01*
X7124706Y-13509650D02*
X7143753Y-13519174D01*
X7143753Y-13519174D02*
X7153277Y-13528698D01*
X7153277Y-13528698D02*
X7162801Y-13547746D01*
X7162801Y-13547746D02*
X7162801Y-13604888D01*
X7162801Y-13604888D02*
X7153277Y-13623936D01*
X7153277Y-13623936D02*
X7143753Y-13633460D01*
X7143753Y-13633460D02*
X7124706Y-13642984D01*
X7124706Y-13642984D02*
X7096134Y-13642984D01*
X7277087Y-13642984D02*
X7258039Y-13633460D01*
X7258039Y-13633460D02*
X7248515Y-13614412D01*
X7248515Y-13614412D02*
X7248515Y-13442984D01*
X7429468Y-13633460D02*
X7410420Y-13642984D01*
X7410420Y-13642984D02*
X7372325Y-13642984D01*
X7372325Y-13642984D02*
X7353277Y-13633460D01*
X7353277Y-13633460D02*
X7343753Y-13614412D01*
X7343753Y-13614412D02*
X7343753Y-13538222D01*
X7343753Y-13538222D02*
X7353277Y-13519174D01*
X7353277Y-13519174D02*
X7372325Y-13509650D01*
X7372325Y-13509650D02*
X7410420Y-13509650D01*
X7410420Y-13509650D02*
X7429468Y-13519174D01*
X7429468Y-13519174D02*
X7438991Y-13538222D01*
X7438991Y-13538222D02*
X7438991Y-13557269D01*
X7438991Y-13557269D02*
X7343753Y-13576317D01*
X7515182Y-13633460D02*
X7534230Y-13642984D01*
X7534230Y-13642984D02*
X7572325Y-13642984D01*
X7572325Y-13642984D02*
X7591372Y-13633460D01*
X7591372Y-13633460D02*
X7600896Y-13614412D01*
X7600896Y-13614412D02*
X7600896Y-13604888D01*
X7600896Y-13604888D02*
X7591372Y-13585841D01*
X7591372Y-13585841D02*
X7572325Y-13576317D01*
X7572325Y-13576317D02*
X7543753Y-13576317D01*
X7543753Y-13576317D02*
X7524706Y-13566793D01*
X7524706Y-13566793D02*
X7515182Y-13547746D01*
X7515182Y-13547746D02*
X7515182Y-13538222D01*
X7515182Y-13538222D02*
X7524706Y-13519174D01*
X7524706Y-13519174D02*
X7543753Y-13509650D01*
X7543753Y-13509650D02*
X7572325Y-13509650D01*
X7572325Y-13509650D02*
X7591372Y-13519174D01*
X7838992Y-13566793D02*
X7991373Y-13566793D01*
X7915182Y-13642984D02*
X7915182Y-13490603D01*
X8334230Y-13442984D02*
X8238992Y-13442984D01*
X8238992Y-13442984D02*
X8229468Y-13538222D01*
X8229468Y-13538222D02*
X8238992Y-13528698D01*
X8238992Y-13528698D02*
X8258039Y-13519174D01*
X8258039Y-13519174D02*
X8305658Y-13519174D01*
X8305658Y-13519174D02*
X8324706Y-13528698D01*
X8324706Y-13528698D02*
X8334230Y-13538222D01*
X8334230Y-13538222D02*
X8343753Y-13557269D01*
X8343753Y-13557269D02*
X8343753Y-13604888D01*
X8343753Y-13604888D02*
X8334230Y-13623936D01*
X8334230Y-13623936D02*
X8324706Y-13633460D01*
X8324706Y-13633460D02*
X8305658Y-13642984D01*
X8305658Y-13642984D02*
X8258039Y-13642984D01*
X8258039Y-13642984D02*
X8238992Y-13633460D01*
X8238992Y-13633460D02*
X8229468Y-13623936D01*
X8572325Y-13633460D02*
X8591373Y-13642984D01*
X8591373Y-13642984D02*
X8629468Y-13642984D01*
X8629468Y-13642984D02*
X8648516Y-13633460D01*
X8648516Y-13633460D02*
X8658039Y-13614412D01*
X8658039Y-13614412D02*
X8658039Y-13604888D01*
X8658039Y-13604888D02*
X8648516Y-13585841D01*
X8648516Y-13585841D02*
X8629468Y-13576317D01*
X8629468Y-13576317D02*
X8600896Y-13576317D01*
X8600896Y-13576317D02*
X8581849Y-13566793D01*
X8581849Y-13566793D02*
X8572325Y-13547746D01*
X8572325Y-13547746D02*
X8572325Y-13538222D01*
X8572325Y-13538222D02*
X8581849Y-13519174D01*
X8581849Y-13519174D02*
X8600896Y-13509650D01*
X8600896Y-13509650D02*
X8629468Y-13509650D01*
X8629468Y-13509650D02*
X8648516Y-13519174D01*
X8772325Y-13642984D02*
X8753277Y-13633460D01*
X8753277Y-13633460D02*
X8743754Y-13614412D01*
X8743754Y-13614412D02*
X8743754Y-13442984D01*
X8877087Y-13642984D02*
X8858039Y-13633460D01*
X8858039Y-13633460D02*
X8848516Y-13623936D01*
X8848516Y-13623936D02*
X8838992Y-13604888D01*
X8838992Y-13604888D02*
X8838992Y-13547746D01*
X8838992Y-13547746D02*
X8848516Y-13528698D01*
X8848516Y-13528698D02*
X8858039Y-13519174D01*
X8858039Y-13519174D02*
X8877087Y-13509650D01*
X8877087Y-13509650D02*
X8905658Y-13509650D01*
X8905658Y-13509650D02*
X8924706Y-13519174D01*
X8924706Y-13519174D02*
X8934230Y-13528698D01*
X8934230Y-13528698D02*
X8943754Y-13547746D01*
X8943754Y-13547746D02*
X8943754Y-13604888D01*
X8943754Y-13604888D02*
X8934230Y-13623936D01*
X8934230Y-13623936D02*
X8924706Y-13633460D01*
X8924706Y-13633460D02*
X8905658Y-13642984D01*
X8905658Y-13642984D02*
X8877087Y-13642984D01*
X9000897Y-13509650D02*
X9077087Y-13509650D01*
X9029468Y-13442984D02*
X9029468Y-13614412D01*
X9029468Y-13614412D02*
X9038992Y-13633460D01*
X9038992Y-13633460D02*
X9058039Y-13642984D01*
X9058039Y-13642984D02*
X9077087Y-13642984D01*
X9134230Y-13633460D02*
X9153277Y-13642984D01*
X9153277Y-13642984D02*
X9191373Y-13642984D01*
X9191373Y-13642984D02*
X9210420Y-13633460D01*
X9210420Y-13633460D02*
X9219944Y-13614412D01*
X9219944Y-13614412D02*
X9219944Y-13604888D01*
X9219944Y-13604888D02*
X9210420Y-13585841D01*
X9210420Y-13585841D02*
X9191373Y-13576317D01*
X9191373Y-13576317D02*
X9162801Y-13576317D01*
X9162801Y-13576317D02*
X9143754Y-13566793D01*
X9143754Y-13566793D02*
X9134230Y-13547746D01*
X9134230Y-13547746D02*
X9134230Y-13538222D01*
X9134230Y-13538222D02*
X9143754Y-13519174D01*
X9143754Y-13519174D02*
X9162801Y-13509650D01*
X9162801Y-13509650D02*
X9191373Y-13509650D01*
X9191373Y-13509650D02*
X9210420Y-13519174D01*
X9286611Y-13719174D02*
X9296135Y-13709650D01*
X9296135Y-13709650D02*
X9315182Y-13681079D01*
X9315182Y-13681079D02*
X9324706Y-13662031D01*
X9324706Y-13662031D02*
X9334230Y-13633460D01*
X9334230Y-13633460D02*
X9343754Y-13585841D01*
X9343754Y-13585841D02*
X9343754Y-13547746D01*
X9343754Y-13547746D02*
X9334230Y-13500127D01*
X9334230Y-13500127D02*
X9324706Y-13471555D01*
X9324706Y-13471555D02*
X9315182Y-13452508D01*
X9315182Y-13452508D02*
X9296135Y-13423936D01*
X9296135Y-13423936D02*
X9286611Y-13414412D01*
X9648516Y-13719174D02*
X9638992Y-13709650D01*
X9638992Y-13709650D02*
X9619944Y-13681079D01*
X9619944Y-13681079D02*
X9610420Y-13662031D01*
X9610420Y-13662031D02*
X9600897Y-13633460D01*
X9600897Y-13633460D02*
X9591373Y-13585841D01*
X9591373Y-13585841D02*
X9591373Y-13547746D01*
X9591373Y-13547746D02*
X9600897Y-13500127D01*
X9600897Y-13500127D02*
X9610420Y-13471555D01*
X9610420Y-13471555D02*
X9619944Y-13452508D01*
X9619944Y-13452508D02*
X9638992Y-13423936D01*
X9638992Y-13423936D02*
X9648516Y-13414412D01*
X9724706Y-13509650D02*
X9724706Y-13642984D01*
X9724706Y-13528698D02*
X9734230Y-13519174D01*
X9734230Y-13519174D02*
X9753277Y-13509650D01*
X9753277Y-13509650D02*
X9781849Y-13509650D01*
X9781849Y-13509650D02*
X9800897Y-13519174D01*
X9800897Y-13519174D02*
X9810420Y-13538222D01*
X9810420Y-13538222D02*
X9810420Y-13642984D01*
X9934230Y-13642984D02*
X9915182Y-13633460D01*
X9915182Y-13633460D02*
X9905658Y-13623936D01*
X9905658Y-13623936D02*
X9896135Y-13604888D01*
X9896135Y-13604888D02*
X9896135Y-13547746D01*
X9896135Y-13547746D02*
X9905658Y-13528698D01*
X9905658Y-13528698D02*
X9915182Y-13519174D01*
X9915182Y-13519174D02*
X9934230Y-13509650D01*
X9934230Y-13509650D02*
X9962801Y-13509650D01*
X9962801Y-13509650D02*
X9981849Y-13519174D01*
X9981849Y-13519174D02*
X9991373Y-13528698D01*
X9991373Y-13528698D02*
X10000897Y-13547746D01*
X10000897Y-13547746D02*
X10000897Y-13604888D01*
X10000897Y-13604888D02*
X9991373Y-13623936D01*
X9991373Y-13623936D02*
X9981849Y-13633460D01*
X9981849Y-13633460D02*
X9962801Y-13642984D01*
X9962801Y-13642984D02*
X9934230Y-13642984D01*
X10058039Y-13509650D02*
X10134230Y-13509650D01*
X10086611Y-13442984D02*
X10086611Y-13614412D01*
X10086611Y-13614412D02*
X10096135Y-13633460D01*
X10096135Y-13633460D02*
X10115182Y-13642984D01*
X10115182Y-13642984D02*
X10134230Y-13642984D01*
X10353278Y-13509650D02*
X10353278Y-13709650D01*
X10353278Y-13519174D02*
X10372325Y-13509650D01*
X10372325Y-13509650D02*
X10410420Y-13509650D01*
X10410420Y-13509650D02*
X10429468Y-13519174D01*
X10429468Y-13519174D02*
X10438992Y-13528698D01*
X10438992Y-13528698D02*
X10448516Y-13547746D01*
X10448516Y-13547746D02*
X10448516Y-13604888D01*
X10448516Y-13604888D02*
X10438992Y-13623936D01*
X10438992Y-13623936D02*
X10429468Y-13633460D01*
X10429468Y-13633460D02*
X10410420Y-13642984D01*
X10410420Y-13642984D02*
X10372325Y-13642984D01*
X10372325Y-13642984D02*
X10353278Y-13633460D01*
X10562801Y-13642984D02*
X10543754Y-13633460D01*
X10543754Y-13633460D02*
X10534230Y-13614412D01*
X10534230Y-13614412D02*
X10534230Y-13442984D01*
X10724706Y-13642984D02*
X10724706Y-13538222D01*
X10724706Y-13538222D02*
X10715182Y-13519174D01*
X10715182Y-13519174D02*
X10696135Y-13509650D01*
X10696135Y-13509650D02*
X10658039Y-13509650D01*
X10658039Y-13509650D02*
X10638992Y-13519174D01*
X10724706Y-13633460D02*
X10705659Y-13642984D01*
X10705659Y-13642984D02*
X10658039Y-13642984D01*
X10658039Y-13642984D02*
X10638992Y-13633460D01*
X10638992Y-13633460D02*
X10629468Y-13614412D01*
X10629468Y-13614412D02*
X10629468Y-13595365D01*
X10629468Y-13595365D02*
X10638992Y-13576317D01*
X10638992Y-13576317D02*
X10658039Y-13566793D01*
X10658039Y-13566793D02*
X10705659Y-13566793D01*
X10705659Y-13566793D02*
X10724706Y-13557269D01*
X10791373Y-13509650D02*
X10867563Y-13509650D01*
X10819944Y-13442984D02*
X10819944Y-13614412D01*
X10819944Y-13614412D02*
X10829468Y-13633460D01*
X10829468Y-13633460D02*
X10848516Y-13642984D01*
X10848516Y-13642984D02*
X10867563Y-13642984D01*
X11010420Y-13633460D02*
X10991373Y-13642984D01*
X10991373Y-13642984D02*
X10953278Y-13642984D01*
X10953278Y-13642984D02*
X10934230Y-13633460D01*
X10934230Y-13633460D02*
X10924706Y-13614412D01*
X10924706Y-13614412D02*
X10924706Y-13538222D01*
X10924706Y-13538222D02*
X10934230Y-13519174D01*
X10934230Y-13519174D02*
X10953278Y-13509650D01*
X10953278Y-13509650D02*
X10991373Y-13509650D01*
X10991373Y-13509650D02*
X11010420Y-13519174D01*
X11010420Y-13519174D02*
X11019944Y-13538222D01*
X11019944Y-13538222D02*
X11019944Y-13557269D01*
X11019944Y-13557269D02*
X10924706Y-13576317D01*
X11191373Y-13642984D02*
X11191373Y-13442984D01*
X11191373Y-13633460D02*
X11172325Y-13642984D01*
X11172325Y-13642984D02*
X11134230Y-13642984D01*
X11134230Y-13642984D02*
X11115182Y-13633460D01*
X11115182Y-13633460D02*
X11105659Y-13623936D01*
X11105659Y-13623936D02*
X11096135Y-13604888D01*
X11096135Y-13604888D02*
X11096135Y-13547746D01*
X11096135Y-13547746D02*
X11105659Y-13528698D01*
X11105659Y-13528698D02*
X11115182Y-13519174D01*
X11115182Y-13519174D02*
X11134230Y-13509650D01*
X11134230Y-13509650D02*
X11172325Y-13509650D01*
X11172325Y-13509650D02*
X11191373Y-13519174D01*
X11267563Y-13719174D02*
X11277087Y-13709650D01*
X11277087Y-13709650D02*
X11296135Y-13681079D01*
X11296135Y-13681079D02*
X11305658Y-13662031D01*
X11305658Y-13662031D02*
X11315182Y-13633460D01*
X11315182Y-13633460D02*
X11324706Y-13585841D01*
X11324706Y-13585841D02*
X11324706Y-13547746D01*
X11324706Y-13547746D02*
X11315182Y-13500127D01*
X11315182Y-13500127D02*
X11305658Y-13471555D01*
X11305658Y-13471555D02*
X11296135Y-13452508D01*
X11296135Y-13452508D02*
X11277087Y-13423936D01*
X11277087Y-13423936D02*
X11267563Y-13414412D01*
X2863211Y-13942211D02*
X2863211Y-13800789D01*
X2721789Y-13800789D01*
X2721789Y-13942211D01*
X2863211Y-13942211D01*
X3134229Y-13762984D02*
X3258039Y-13762984D01*
X3258039Y-13762984D02*
X3191372Y-13839174D01*
X3191372Y-13839174D02*
X3219943Y-13839174D01*
X3219943Y-13839174D02*
X3238991Y-13848698D01*
X3238991Y-13848698D02*
X3248515Y-13858222D01*
X3248515Y-13858222D02*
X3258039Y-13877269D01*
X3258039Y-13877269D02*
X3258039Y-13924888D01*
X3258039Y-13924888D02*
X3248515Y-13943936D01*
X3248515Y-13943936D02*
X3238991Y-13953460D01*
X3238991Y-13953460D02*
X3219943Y-13962984D01*
X3219943Y-13962984D02*
X3162801Y-13962984D01*
X3162801Y-13962984D02*
X3143753Y-13953460D01*
X3143753Y-13953460D02*
X3134229Y-13943936D01*
X3343753Y-13943936D02*
X3353277Y-13953460D01*
X3353277Y-13953460D02*
X3343753Y-13962984D01*
X3343753Y-13962984D02*
X3334229Y-13953460D01*
X3334229Y-13953460D02*
X3343753Y-13943936D01*
X3343753Y-13943936D02*
X3343753Y-13962984D01*
X3477086Y-13762984D02*
X3496134Y-13762984D01*
X3496134Y-13762984D02*
X3515182Y-13772508D01*
X3515182Y-13772508D02*
X3524705Y-13782031D01*
X3524705Y-13782031D02*
X3534229Y-13801079D01*
X3534229Y-13801079D02*
X3543753Y-13839174D01*
X3543753Y-13839174D02*
X3543753Y-13886793D01*
X3543753Y-13886793D02*
X3534229Y-13924888D01*
X3534229Y-13924888D02*
X3524705Y-13943936D01*
X3524705Y-13943936D02*
X3515182Y-13953460D01*
X3515182Y-13953460D02*
X3496134Y-13962984D01*
X3496134Y-13962984D02*
X3477086Y-13962984D01*
X3477086Y-13962984D02*
X3458039Y-13953460D01*
X3458039Y-13953460D02*
X3448515Y-13943936D01*
X3448515Y-13943936D02*
X3438991Y-13924888D01*
X3438991Y-13924888D02*
X3429467Y-13886793D01*
X3429467Y-13886793D02*
X3429467Y-13839174D01*
X3429467Y-13839174D02*
X3438991Y-13801079D01*
X3438991Y-13801079D02*
X3448515Y-13782031D01*
X3448515Y-13782031D02*
X3458039Y-13772508D01*
X3458039Y-13772508D02*
X3477086Y-13762984D01*
X3715182Y-13829650D02*
X3715182Y-13962984D01*
X3667562Y-13753460D02*
X3619943Y-13896317D01*
X3619943Y-13896317D02*
X3743753Y-13896317D01*
X3848515Y-13848698D02*
X3829467Y-13839174D01*
X3829467Y-13839174D02*
X3819943Y-13829650D01*
X3819943Y-13829650D02*
X3810420Y-13810603D01*
X3810420Y-13810603D02*
X3810420Y-13801079D01*
X3810420Y-13801079D02*
X3819943Y-13782031D01*
X3819943Y-13782031D02*
X3829467Y-13772508D01*
X3829467Y-13772508D02*
X3848515Y-13762984D01*
X3848515Y-13762984D02*
X3886610Y-13762984D01*
X3886610Y-13762984D02*
X3905658Y-13772508D01*
X3905658Y-13772508D02*
X3915182Y-13782031D01*
X3915182Y-13782031D02*
X3924705Y-13801079D01*
X3924705Y-13801079D02*
X3924705Y-13810603D01*
X3924705Y-13810603D02*
X3915182Y-13829650D01*
X3915182Y-13829650D02*
X3905658Y-13839174D01*
X3905658Y-13839174D02*
X3886610Y-13848698D01*
X3886610Y-13848698D02*
X3848515Y-13848698D01*
X3848515Y-13848698D02*
X3829467Y-13858222D01*
X3829467Y-13858222D02*
X3819943Y-13867746D01*
X3819943Y-13867746D02*
X3810420Y-13886793D01*
X3810420Y-13886793D02*
X3810420Y-13924888D01*
X3810420Y-13924888D02*
X3819943Y-13943936D01*
X3819943Y-13943936D02*
X3829467Y-13953460D01*
X3829467Y-13953460D02*
X3848515Y-13962984D01*
X3848515Y-13962984D02*
X3886610Y-13962984D01*
X3886610Y-13962984D02*
X3905658Y-13953460D01*
X3905658Y-13953460D02*
X3915182Y-13943936D01*
X3915182Y-13943936D02*
X3924705Y-13924888D01*
X3924705Y-13924888D02*
X3924705Y-13886793D01*
X3924705Y-13886793D02*
X3915182Y-13867746D01*
X3915182Y-13867746D02*
X3905658Y-13858222D01*
X3905658Y-13858222D02*
X3886610Y-13848698D01*
X4010420Y-13962984D02*
X4010420Y-13829650D01*
X4010420Y-13848698D02*
X4019943Y-13839174D01*
X4019943Y-13839174D02*
X4038991Y-13829650D01*
X4038991Y-13829650D02*
X4067563Y-13829650D01*
X4067563Y-13829650D02*
X4086610Y-13839174D01*
X4086610Y-13839174D02*
X4096134Y-13858222D01*
X4096134Y-13858222D02*
X4096134Y-13962984D01*
X4096134Y-13858222D02*
X4105658Y-13839174D01*
X4105658Y-13839174D02*
X4124705Y-13829650D01*
X4124705Y-13829650D02*
X4153277Y-13829650D01*
X4153277Y-13829650D02*
X4172324Y-13839174D01*
X4172324Y-13839174D02*
X4181848Y-13858222D01*
X4181848Y-13858222D02*
X4181848Y-13962984D01*
X4277086Y-13962984D02*
X4277086Y-13829650D01*
X4277086Y-13848698D02*
X4286610Y-13839174D01*
X4286610Y-13839174D02*
X4305658Y-13829650D01*
X4305658Y-13829650D02*
X4334229Y-13829650D01*
X4334229Y-13829650D02*
X4353277Y-13839174D01*
X4353277Y-13839174D02*
X4362801Y-13858222D01*
X4362801Y-13858222D02*
X4362801Y-13962984D01*
X4362801Y-13858222D02*
X4372325Y-13839174D01*
X4372325Y-13839174D02*
X4391372Y-13829650D01*
X4391372Y-13829650D02*
X4419944Y-13829650D01*
X4419944Y-13829650D02*
X4438991Y-13839174D01*
X4438991Y-13839174D02*
X4448515Y-13858222D01*
X4448515Y-13858222D02*
X4448515Y-13962984D01*
X4838991Y-13753460D02*
X4667563Y-14010603D01*
X5096134Y-13762984D02*
X5115182Y-13762984D01*
X5115182Y-13762984D02*
X5134229Y-13772508D01*
X5134229Y-13772508D02*
X5143753Y-13782031D01*
X5143753Y-13782031D02*
X5153277Y-13801079D01*
X5153277Y-13801079D02*
X5162801Y-13839174D01*
X5162801Y-13839174D02*
X5162801Y-13886793D01*
X5162801Y-13886793D02*
X5153277Y-13924888D01*
X5153277Y-13924888D02*
X5143753Y-13943936D01*
X5143753Y-13943936D02*
X5134229Y-13953460D01*
X5134229Y-13953460D02*
X5115182Y-13962984D01*
X5115182Y-13962984D02*
X5096134Y-13962984D01*
X5096134Y-13962984D02*
X5077087Y-13953460D01*
X5077087Y-13953460D02*
X5067563Y-13943936D01*
X5067563Y-13943936D02*
X5058039Y-13924888D01*
X5058039Y-13924888D02*
X5048515Y-13886793D01*
X5048515Y-13886793D02*
X5048515Y-13839174D01*
X5048515Y-13839174D02*
X5058039Y-13801079D01*
X5058039Y-13801079D02*
X5067563Y-13782031D01*
X5067563Y-13782031D02*
X5077087Y-13772508D01*
X5077087Y-13772508D02*
X5096134Y-13762984D01*
X5248515Y-13943936D02*
X5258039Y-13953460D01*
X5258039Y-13953460D02*
X5248515Y-13962984D01*
X5248515Y-13962984D02*
X5238991Y-13953460D01*
X5238991Y-13953460D02*
X5248515Y-13943936D01*
X5248515Y-13943936D02*
X5248515Y-13962984D01*
X5448515Y-13962984D02*
X5334229Y-13962984D01*
X5391372Y-13962984D02*
X5391372Y-13762984D01*
X5391372Y-13762984D02*
X5372325Y-13791555D01*
X5372325Y-13791555D02*
X5353277Y-13810603D01*
X5353277Y-13810603D02*
X5334229Y-13820127D01*
X5524706Y-13782031D02*
X5534229Y-13772508D01*
X5534229Y-13772508D02*
X5553277Y-13762984D01*
X5553277Y-13762984D02*
X5600896Y-13762984D01*
X5600896Y-13762984D02*
X5619944Y-13772508D01*
X5619944Y-13772508D02*
X5629467Y-13782031D01*
X5629467Y-13782031D02*
X5638991Y-13801079D01*
X5638991Y-13801079D02*
X5638991Y-13820127D01*
X5638991Y-13820127D02*
X5629467Y-13848698D01*
X5629467Y-13848698D02*
X5515182Y-13962984D01*
X5515182Y-13962984D02*
X5638991Y-13962984D01*
X5762801Y-13762984D02*
X5781848Y-13762984D01*
X5781848Y-13762984D02*
X5800896Y-13772508D01*
X5800896Y-13772508D02*
X5810420Y-13782031D01*
X5810420Y-13782031D02*
X5819944Y-13801079D01*
X5819944Y-13801079D02*
X5829467Y-13839174D01*
X5829467Y-13839174D02*
X5829467Y-13886793D01*
X5829467Y-13886793D02*
X5819944Y-13924888D01*
X5819944Y-13924888D02*
X5810420Y-13943936D01*
X5810420Y-13943936D02*
X5800896Y-13953460D01*
X5800896Y-13953460D02*
X5781848Y-13962984D01*
X5781848Y-13962984D02*
X5762801Y-13962984D01*
X5762801Y-13962984D02*
X5743753Y-13953460D01*
X5743753Y-13953460D02*
X5734229Y-13943936D01*
X5734229Y-13943936D02*
X5724706Y-13924888D01*
X5724706Y-13924888D02*
X5715182Y-13886793D01*
X5715182Y-13886793D02*
X5715182Y-13839174D01*
X5715182Y-13839174D02*
X5724706Y-13801079D01*
X5724706Y-13801079D02*
X5734229Y-13782031D01*
X5734229Y-13782031D02*
X5743753Y-13772508D01*
X5743753Y-13772508D02*
X5762801Y-13762984D01*
X5953277Y-13762984D02*
X5972325Y-13762984D01*
X5972325Y-13762984D02*
X5991372Y-13772508D01*
X5991372Y-13772508D02*
X6000896Y-13782031D01*
X6000896Y-13782031D02*
X6010420Y-13801079D01*
X6010420Y-13801079D02*
X6019944Y-13839174D01*
X6019944Y-13839174D02*
X6019944Y-13886793D01*
X6019944Y-13886793D02*
X6010420Y-13924888D01*
X6010420Y-13924888D02*
X6000896Y-13943936D01*
X6000896Y-13943936D02*
X5991372Y-13953460D01*
X5991372Y-13953460D02*
X5972325Y-13962984D01*
X5972325Y-13962984D02*
X5953277Y-13962984D01*
X5953277Y-13962984D02*
X5934229Y-13953460D01*
X5934229Y-13953460D02*
X5924706Y-13943936D01*
X5924706Y-13943936D02*
X5915182Y-13924888D01*
X5915182Y-13924888D02*
X5905658Y-13886793D01*
X5905658Y-13886793D02*
X5905658Y-13839174D01*
X5905658Y-13839174D02*
X5915182Y-13801079D01*
X5915182Y-13801079D02*
X5924706Y-13782031D01*
X5924706Y-13782031D02*
X5934229Y-13772508D01*
X5934229Y-13772508D02*
X5953277Y-13762984D01*
X6096134Y-13762984D02*
X6096134Y-13801079D01*
X6172325Y-13762984D02*
X6172325Y-13801079D01*
X6467563Y-14039174D02*
X6458039Y-14029650D01*
X6458039Y-14029650D02*
X6438991Y-14001079D01*
X6438991Y-14001079D02*
X6429468Y-13982031D01*
X6429468Y-13982031D02*
X6419944Y-13953460D01*
X6419944Y-13953460D02*
X6410420Y-13905841D01*
X6410420Y-13905841D02*
X6410420Y-13867746D01*
X6410420Y-13867746D02*
X6419944Y-13820127D01*
X6419944Y-13820127D02*
X6429468Y-13791555D01*
X6429468Y-13791555D02*
X6438991Y-13772508D01*
X6438991Y-13772508D02*
X6458039Y-13743936D01*
X6458039Y-13743936D02*
X6467563Y-13734412D01*
X6648515Y-13962984D02*
X6534229Y-13962984D01*
X6591372Y-13962984D02*
X6591372Y-13762984D01*
X6591372Y-13762984D02*
X6572325Y-13791555D01*
X6572325Y-13791555D02*
X6553277Y-13810603D01*
X6553277Y-13810603D02*
X6534229Y-13820127D01*
X6819944Y-13829650D02*
X6819944Y-13962984D01*
X6772325Y-13753460D02*
X6724706Y-13896317D01*
X6724706Y-13896317D02*
X6848515Y-13896317D01*
X7077087Y-13962984D02*
X7077087Y-13762984D01*
X7162801Y-13962984D02*
X7162801Y-13858222D01*
X7162801Y-13858222D02*
X7153277Y-13839174D01*
X7153277Y-13839174D02*
X7134230Y-13829650D01*
X7134230Y-13829650D02*
X7105658Y-13829650D01*
X7105658Y-13829650D02*
X7086610Y-13839174D01*
X7086610Y-13839174D02*
X7077087Y-13848698D01*
X7286610Y-13962984D02*
X7267563Y-13953460D01*
X7267563Y-13953460D02*
X7258039Y-13943936D01*
X7258039Y-13943936D02*
X7248515Y-13924888D01*
X7248515Y-13924888D02*
X7248515Y-13867746D01*
X7248515Y-13867746D02*
X7258039Y-13848698D01*
X7258039Y-13848698D02*
X7267563Y-13839174D01*
X7267563Y-13839174D02*
X7286610Y-13829650D01*
X7286610Y-13829650D02*
X7315182Y-13829650D01*
X7315182Y-13829650D02*
X7334230Y-13839174D01*
X7334230Y-13839174D02*
X7343753Y-13848698D01*
X7343753Y-13848698D02*
X7353277Y-13867746D01*
X7353277Y-13867746D02*
X7353277Y-13924888D01*
X7353277Y-13924888D02*
X7343753Y-13943936D01*
X7343753Y-13943936D02*
X7334230Y-13953460D01*
X7334230Y-13953460D02*
X7315182Y-13962984D01*
X7315182Y-13962984D02*
X7286610Y-13962984D01*
X7467563Y-13962984D02*
X7448515Y-13953460D01*
X7448515Y-13953460D02*
X7438991Y-13934412D01*
X7438991Y-13934412D02*
X7438991Y-13762984D01*
X7619944Y-13953460D02*
X7600896Y-13962984D01*
X7600896Y-13962984D02*
X7562801Y-13962984D01*
X7562801Y-13962984D02*
X7543753Y-13953460D01*
X7543753Y-13953460D02*
X7534230Y-13934412D01*
X7534230Y-13934412D02*
X7534230Y-13858222D01*
X7534230Y-13858222D02*
X7543753Y-13839174D01*
X7543753Y-13839174D02*
X7562801Y-13829650D01*
X7562801Y-13829650D02*
X7600896Y-13829650D01*
X7600896Y-13829650D02*
X7619944Y-13839174D01*
X7619944Y-13839174D02*
X7629468Y-13858222D01*
X7629468Y-13858222D02*
X7629468Y-13877269D01*
X7629468Y-13877269D02*
X7534230Y-13896317D01*
X7705658Y-13953460D02*
X7724706Y-13962984D01*
X7724706Y-13962984D02*
X7762801Y-13962984D01*
X7762801Y-13962984D02*
X7781849Y-13953460D01*
X7781849Y-13953460D02*
X7791372Y-13934412D01*
X7791372Y-13934412D02*
X7791372Y-13924888D01*
X7791372Y-13924888D02*
X7781849Y-13905841D01*
X7781849Y-13905841D02*
X7762801Y-13896317D01*
X7762801Y-13896317D02*
X7734230Y-13896317D01*
X7734230Y-13896317D02*
X7715182Y-13886793D01*
X7715182Y-13886793D02*
X7705658Y-13867746D01*
X7705658Y-13867746D02*
X7705658Y-13858222D01*
X7705658Y-13858222D02*
X7715182Y-13839174D01*
X7715182Y-13839174D02*
X7734230Y-13829650D01*
X7734230Y-13829650D02*
X7762801Y-13829650D01*
X7762801Y-13829650D02*
X7781849Y-13839174D01*
X7858039Y-14039174D02*
X7867563Y-14029650D01*
X7867563Y-14029650D02*
X7886611Y-14001079D01*
X7886611Y-14001079D02*
X7896134Y-13982031D01*
X7896134Y-13982031D02*
X7905658Y-13953460D01*
X7905658Y-13953460D02*
X7915182Y-13905841D01*
X7915182Y-13905841D02*
X7915182Y-13867746D01*
X7915182Y-13867746D02*
X7905658Y-13820127D01*
X7905658Y-13820127D02*
X7896134Y-13791555D01*
X7896134Y-13791555D02*
X7886611Y-13772508D01*
X7886611Y-13772508D02*
X7867563Y-13743936D01*
X7867563Y-13743936D02*
X7858039Y-13734412D01*
X8219944Y-14039174D02*
X8210420Y-14029650D01*
X8210420Y-14029650D02*
X8191372Y-14001079D01*
X8191372Y-14001079D02*
X8181849Y-13982031D01*
X8181849Y-13982031D02*
X8172325Y-13953460D01*
X8172325Y-13953460D02*
X8162801Y-13905841D01*
X8162801Y-13905841D02*
X8162801Y-13867746D01*
X8162801Y-13867746D02*
X8172325Y-13820127D01*
X8172325Y-13820127D02*
X8181849Y-13791555D01*
X8181849Y-13791555D02*
X8191372Y-13772508D01*
X8191372Y-13772508D02*
X8210420Y-13743936D01*
X8210420Y-13743936D02*
X8219944Y-13734412D01*
X8296134Y-13829650D02*
X8296134Y-13962984D01*
X8296134Y-13848698D02*
X8305658Y-13839174D01*
X8305658Y-13839174D02*
X8324706Y-13829650D01*
X8324706Y-13829650D02*
X8353277Y-13829650D01*
X8353277Y-13829650D02*
X8372325Y-13839174D01*
X8372325Y-13839174D02*
X8381849Y-13858222D01*
X8381849Y-13858222D02*
X8381849Y-13962984D01*
X8505658Y-13962984D02*
X8486611Y-13953460D01*
X8486611Y-13953460D02*
X8477087Y-13943936D01*
X8477087Y-13943936D02*
X8467563Y-13924888D01*
X8467563Y-13924888D02*
X8467563Y-13867746D01*
X8467563Y-13867746D02*
X8477087Y-13848698D01*
X8477087Y-13848698D02*
X8486611Y-13839174D01*
X8486611Y-13839174D02*
X8505658Y-13829650D01*
X8505658Y-13829650D02*
X8534230Y-13829650D01*
X8534230Y-13829650D02*
X8553277Y-13839174D01*
X8553277Y-13839174D02*
X8562801Y-13848698D01*
X8562801Y-13848698D02*
X8572325Y-13867746D01*
X8572325Y-13867746D02*
X8572325Y-13924888D01*
X8572325Y-13924888D02*
X8562801Y-13943936D01*
X8562801Y-13943936D02*
X8553277Y-13953460D01*
X8553277Y-13953460D02*
X8534230Y-13962984D01*
X8534230Y-13962984D02*
X8505658Y-13962984D01*
X8629468Y-13829650D02*
X8705658Y-13829650D01*
X8658039Y-13762984D02*
X8658039Y-13934412D01*
X8658039Y-13934412D02*
X8667563Y-13953460D01*
X8667563Y-13953460D02*
X8686611Y-13962984D01*
X8686611Y-13962984D02*
X8705658Y-13962984D01*
X8924706Y-13829650D02*
X8924706Y-14029650D01*
X8924706Y-13839174D02*
X8943754Y-13829650D01*
X8943754Y-13829650D02*
X8981849Y-13829650D01*
X8981849Y-13829650D02*
X9000896Y-13839174D01*
X9000896Y-13839174D02*
X9010420Y-13848698D01*
X9010420Y-13848698D02*
X9019944Y-13867746D01*
X9019944Y-13867746D02*
X9019944Y-13924888D01*
X9019944Y-13924888D02*
X9010420Y-13943936D01*
X9010420Y-13943936D02*
X9000896Y-13953460D01*
X9000896Y-13953460D02*
X8981849Y-13962984D01*
X8981849Y-13962984D02*
X8943754Y-13962984D01*
X8943754Y-13962984D02*
X8924706Y-13953460D01*
X9134230Y-13962984D02*
X9115182Y-13953460D01*
X9115182Y-13953460D02*
X9105658Y-13934412D01*
X9105658Y-13934412D02*
X9105658Y-13762984D01*
X9296135Y-13962984D02*
X9296135Y-13858222D01*
X9296135Y-13858222D02*
X9286611Y-13839174D01*
X9286611Y-13839174D02*
X9267563Y-13829650D01*
X9267563Y-13829650D02*
X9229468Y-13829650D01*
X9229468Y-13829650D02*
X9210420Y-13839174D01*
X9296135Y-13953460D02*
X9277087Y-13962984D01*
X9277087Y-13962984D02*
X9229468Y-13962984D01*
X9229468Y-13962984D02*
X9210420Y-13953460D01*
X9210420Y-13953460D02*
X9200896Y-13934412D01*
X9200896Y-13934412D02*
X9200896Y-13915365D01*
X9200896Y-13915365D02*
X9210420Y-13896317D01*
X9210420Y-13896317D02*
X9229468Y-13886793D01*
X9229468Y-13886793D02*
X9277087Y-13886793D01*
X9277087Y-13886793D02*
X9296135Y-13877269D01*
X9362801Y-13829650D02*
X9438992Y-13829650D01*
X9391373Y-13762984D02*
X9391373Y-13934412D01*
X9391373Y-13934412D02*
X9400896Y-13953460D01*
X9400896Y-13953460D02*
X9419944Y-13962984D01*
X9419944Y-13962984D02*
X9438992Y-13962984D01*
X9581849Y-13953460D02*
X9562801Y-13962984D01*
X9562801Y-13962984D02*
X9524706Y-13962984D01*
X9524706Y-13962984D02*
X9505658Y-13953460D01*
X9505658Y-13953460D02*
X9496135Y-13934412D01*
X9496135Y-13934412D02*
X9496135Y-13858222D01*
X9496135Y-13858222D02*
X9505658Y-13839174D01*
X9505658Y-13839174D02*
X9524706Y-13829650D01*
X9524706Y-13829650D02*
X9562801Y-13829650D01*
X9562801Y-13829650D02*
X9581849Y-13839174D01*
X9581849Y-13839174D02*
X9591373Y-13858222D01*
X9591373Y-13858222D02*
X9591373Y-13877269D01*
X9591373Y-13877269D02*
X9496135Y-13896317D01*
X9762801Y-13962984D02*
X9762801Y-13762984D01*
X9762801Y-13953460D02*
X9743754Y-13962984D01*
X9743754Y-13962984D02*
X9705658Y-13962984D01*
X9705658Y-13962984D02*
X9686611Y-13953460D01*
X9686611Y-13953460D02*
X9677087Y-13943936D01*
X9677087Y-13943936D02*
X9667563Y-13924888D01*
X9667563Y-13924888D02*
X9667563Y-13867746D01*
X9667563Y-13867746D02*
X9677087Y-13848698D01*
X9677087Y-13848698D02*
X9686611Y-13839174D01*
X9686611Y-13839174D02*
X9705658Y-13829650D01*
X9705658Y-13829650D02*
X9743754Y-13829650D01*
X9743754Y-13829650D02*
X9762801Y-13839174D01*
X9838992Y-14039174D02*
X9848516Y-14029650D01*
X9848516Y-14029650D02*
X9867563Y-14001079D01*
X9867563Y-14001079D02*
X9877087Y-13982031D01*
X9877087Y-13982031D02*
X9886611Y-13953460D01*
X9886611Y-13953460D02*
X9896135Y-13905841D01*
X9896135Y-13905841D02*
X9896135Y-13867746D01*
X9896135Y-13867746D02*
X9886611Y-13820127D01*
X9886611Y-13820127D02*
X9877087Y-13791555D01*
X9877087Y-13791555D02*
X9867563Y-13772508D01*
X9867563Y-13772508D02*
X9848516Y-13743936D01*
X9848516Y-13743936D02*
X9838992Y-13734412D01*
X2792500Y-14291500D02*
X2892500Y-14191500D01*
X2792500Y-14091500D01*
X2692500Y-14191500D01*
X2792500Y-14291500D01*
X3134229Y-14082984D02*
X3258039Y-14082984D01*
X3258039Y-14082984D02*
X3191372Y-14159174D01*
X3191372Y-14159174D02*
X3219943Y-14159174D01*
X3219943Y-14159174D02*
X3238991Y-14168698D01*
X3238991Y-14168698D02*
X3248515Y-14178222D01*
X3248515Y-14178222D02*
X3258039Y-14197269D01*
X3258039Y-14197269D02*
X3258039Y-14244888D01*
X3258039Y-14244888D02*
X3248515Y-14263936D01*
X3248515Y-14263936D02*
X3238991Y-14273460D01*
X3238991Y-14273460D02*
X3219943Y-14282984D01*
X3219943Y-14282984D02*
X3162801Y-14282984D01*
X3162801Y-14282984D02*
X3143753Y-14273460D01*
X3143753Y-14273460D02*
X3134229Y-14263936D01*
X3343753Y-14263936D02*
X3353277Y-14273460D01*
X3353277Y-14273460D02*
X3343753Y-14282984D01*
X3343753Y-14282984D02*
X3334229Y-14273460D01*
X3334229Y-14273460D02*
X3343753Y-14263936D01*
X3343753Y-14263936D02*
X3343753Y-14282984D01*
X3477086Y-14082984D02*
X3496134Y-14082984D01*
X3496134Y-14082984D02*
X3515182Y-14092508D01*
X3515182Y-14092508D02*
X3524705Y-14102031D01*
X3524705Y-14102031D02*
X3534229Y-14121079D01*
X3534229Y-14121079D02*
X3543753Y-14159174D01*
X3543753Y-14159174D02*
X3543753Y-14206793D01*
X3543753Y-14206793D02*
X3534229Y-14244888D01*
X3534229Y-14244888D02*
X3524705Y-14263936D01*
X3524705Y-14263936D02*
X3515182Y-14273460D01*
X3515182Y-14273460D02*
X3496134Y-14282984D01*
X3496134Y-14282984D02*
X3477086Y-14282984D01*
X3477086Y-14282984D02*
X3458039Y-14273460D01*
X3458039Y-14273460D02*
X3448515Y-14263936D01*
X3448515Y-14263936D02*
X3438991Y-14244888D01*
X3438991Y-14244888D02*
X3429467Y-14206793D01*
X3429467Y-14206793D02*
X3429467Y-14159174D01*
X3429467Y-14159174D02*
X3438991Y-14121079D01*
X3438991Y-14121079D02*
X3448515Y-14102031D01*
X3448515Y-14102031D02*
X3458039Y-14092508D01*
X3458039Y-14092508D02*
X3477086Y-14082984D01*
X3724705Y-14082984D02*
X3629467Y-14082984D01*
X3629467Y-14082984D02*
X3619943Y-14178222D01*
X3619943Y-14178222D02*
X3629467Y-14168698D01*
X3629467Y-14168698D02*
X3648515Y-14159174D01*
X3648515Y-14159174D02*
X3696134Y-14159174D01*
X3696134Y-14159174D02*
X3715182Y-14168698D01*
X3715182Y-14168698D02*
X3724705Y-14178222D01*
X3724705Y-14178222D02*
X3734229Y-14197269D01*
X3734229Y-14197269D02*
X3734229Y-14244888D01*
X3734229Y-14244888D02*
X3724705Y-14263936D01*
X3724705Y-14263936D02*
X3715182Y-14273460D01*
X3715182Y-14273460D02*
X3696134Y-14282984D01*
X3696134Y-14282984D02*
X3648515Y-14282984D01*
X3648515Y-14282984D02*
X3629467Y-14273460D01*
X3629467Y-14273460D02*
X3619943Y-14263936D01*
X3858039Y-14082984D02*
X3877086Y-14082984D01*
X3877086Y-14082984D02*
X3896134Y-14092508D01*
X3896134Y-14092508D02*
X3905658Y-14102031D01*
X3905658Y-14102031D02*
X3915182Y-14121079D01*
X3915182Y-14121079D02*
X3924705Y-14159174D01*
X3924705Y-14159174D02*
X3924705Y-14206793D01*
X3924705Y-14206793D02*
X3915182Y-14244888D01*
X3915182Y-14244888D02*
X3905658Y-14263936D01*
X3905658Y-14263936D02*
X3896134Y-14273460D01*
X3896134Y-14273460D02*
X3877086Y-14282984D01*
X3877086Y-14282984D02*
X3858039Y-14282984D01*
X3858039Y-14282984D02*
X3838991Y-14273460D01*
X3838991Y-14273460D02*
X3829467Y-14263936D01*
X3829467Y-14263936D02*
X3819943Y-14244888D01*
X3819943Y-14244888D02*
X3810420Y-14206793D01*
X3810420Y-14206793D02*
X3810420Y-14159174D01*
X3810420Y-14159174D02*
X3819943Y-14121079D01*
X3819943Y-14121079D02*
X3829467Y-14102031D01*
X3829467Y-14102031D02*
X3838991Y-14092508D01*
X3838991Y-14092508D02*
X3858039Y-14082984D01*
X4010420Y-14282984D02*
X4010420Y-14149650D01*
X4010420Y-14168698D02*
X4019943Y-14159174D01*
X4019943Y-14159174D02*
X4038991Y-14149650D01*
X4038991Y-14149650D02*
X4067563Y-14149650D01*
X4067563Y-14149650D02*
X4086610Y-14159174D01*
X4086610Y-14159174D02*
X4096134Y-14178222D01*
X4096134Y-14178222D02*
X4096134Y-14282984D01*
X4096134Y-14178222D02*
X4105658Y-14159174D01*
X4105658Y-14159174D02*
X4124705Y-14149650D01*
X4124705Y-14149650D02*
X4153277Y-14149650D01*
X4153277Y-14149650D02*
X4172324Y-14159174D01*
X4172324Y-14159174D02*
X4181848Y-14178222D01*
X4181848Y-14178222D02*
X4181848Y-14282984D01*
X4277086Y-14282984D02*
X4277086Y-14149650D01*
X4277086Y-14168698D02*
X4286610Y-14159174D01*
X4286610Y-14159174D02*
X4305658Y-14149650D01*
X4305658Y-14149650D02*
X4334229Y-14149650D01*
X4334229Y-14149650D02*
X4353277Y-14159174D01*
X4353277Y-14159174D02*
X4362801Y-14178222D01*
X4362801Y-14178222D02*
X4362801Y-14282984D01*
X4362801Y-14178222D02*
X4372325Y-14159174D01*
X4372325Y-14159174D02*
X4391372Y-14149650D01*
X4391372Y-14149650D02*
X4419944Y-14149650D01*
X4419944Y-14149650D02*
X4438991Y-14159174D01*
X4438991Y-14159174D02*
X4448515Y-14178222D01*
X4448515Y-14178222D02*
X4448515Y-14282984D01*
X4838991Y-14073460D02*
X4667563Y-14330603D01*
X5096134Y-14082984D02*
X5115182Y-14082984D01*
X5115182Y-14082984D02*
X5134229Y-14092508D01*
X5134229Y-14092508D02*
X5143753Y-14102031D01*
X5143753Y-14102031D02*
X5153277Y-14121079D01*
X5153277Y-14121079D02*
X5162801Y-14159174D01*
X5162801Y-14159174D02*
X5162801Y-14206793D01*
X5162801Y-14206793D02*
X5153277Y-14244888D01*
X5153277Y-14244888D02*
X5143753Y-14263936D01*
X5143753Y-14263936D02*
X5134229Y-14273460D01*
X5134229Y-14273460D02*
X5115182Y-14282984D01*
X5115182Y-14282984D02*
X5096134Y-14282984D01*
X5096134Y-14282984D02*
X5077087Y-14273460D01*
X5077087Y-14273460D02*
X5067563Y-14263936D01*
X5067563Y-14263936D02*
X5058039Y-14244888D01*
X5058039Y-14244888D02*
X5048515Y-14206793D01*
X5048515Y-14206793D02*
X5048515Y-14159174D01*
X5048515Y-14159174D02*
X5058039Y-14121079D01*
X5058039Y-14121079D02*
X5067563Y-14102031D01*
X5067563Y-14102031D02*
X5077087Y-14092508D01*
X5077087Y-14092508D02*
X5096134Y-14082984D01*
X5248515Y-14263936D02*
X5258039Y-14273460D01*
X5258039Y-14273460D02*
X5248515Y-14282984D01*
X5248515Y-14282984D02*
X5238991Y-14273460D01*
X5238991Y-14273460D02*
X5248515Y-14263936D01*
X5248515Y-14263936D02*
X5248515Y-14282984D01*
X5448515Y-14282984D02*
X5334229Y-14282984D01*
X5391372Y-14282984D02*
X5391372Y-14082984D01*
X5391372Y-14082984D02*
X5372325Y-14111555D01*
X5372325Y-14111555D02*
X5353277Y-14130603D01*
X5353277Y-14130603D02*
X5334229Y-14140127D01*
X5524706Y-14102031D02*
X5534229Y-14092508D01*
X5534229Y-14092508D02*
X5553277Y-14082984D01*
X5553277Y-14082984D02*
X5600896Y-14082984D01*
X5600896Y-14082984D02*
X5619944Y-14092508D01*
X5619944Y-14092508D02*
X5629467Y-14102031D01*
X5629467Y-14102031D02*
X5638991Y-14121079D01*
X5638991Y-14121079D02*
X5638991Y-14140127D01*
X5638991Y-14140127D02*
X5629467Y-14168698D01*
X5629467Y-14168698D02*
X5515182Y-14282984D01*
X5515182Y-14282984D02*
X5638991Y-14282984D01*
X5762801Y-14082984D02*
X5781848Y-14082984D01*
X5781848Y-14082984D02*
X5800896Y-14092508D01*
X5800896Y-14092508D02*
X5810420Y-14102031D01*
X5810420Y-14102031D02*
X5819944Y-14121079D01*
X5819944Y-14121079D02*
X5829467Y-14159174D01*
X5829467Y-14159174D02*
X5829467Y-14206793D01*
X5829467Y-14206793D02*
X5819944Y-14244888D01*
X5819944Y-14244888D02*
X5810420Y-14263936D01*
X5810420Y-14263936D02*
X5800896Y-14273460D01*
X5800896Y-14273460D02*
X5781848Y-14282984D01*
X5781848Y-14282984D02*
X5762801Y-14282984D01*
X5762801Y-14282984D02*
X5743753Y-14273460D01*
X5743753Y-14273460D02*
X5734229Y-14263936D01*
X5734229Y-14263936D02*
X5724706Y-14244888D01*
X5724706Y-14244888D02*
X5715182Y-14206793D01*
X5715182Y-14206793D02*
X5715182Y-14159174D01*
X5715182Y-14159174D02*
X5724706Y-14121079D01*
X5724706Y-14121079D02*
X5734229Y-14102031D01*
X5734229Y-14102031D02*
X5743753Y-14092508D01*
X5743753Y-14092508D02*
X5762801Y-14082984D01*
X6019944Y-14282984D02*
X5905658Y-14282984D01*
X5962801Y-14282984D02*
X5962801Y-14082984D01*
X5962801Y-14082984D02*
X5943753Y-14111555D01*
X5943753Y-14111555D02*
X5924706Y-14130603D01*
X5924706Y-14130603D02*
X5905658Y-14140127D01*
X6096134Y-14082984D02*
X6096134Y-14121079D01*
X6172325Y-14082984D02*
X6172325Y-14121079D01*
X6467563Y-14359174D02*
X6458039Y-14349650D01*
X6458039Y-14349650D02*
X6438991Y-14321079D01*
X6438991Y-14321079D02*
X6429468Y-14302031D01*
X6429468Y-14302031D02*
X6419944Y-14273460D01*
X6419944Y-14273460D02*
X6410420Y-14225841D01*
X6410420Y-14225841D02*
X6410420Y-14187746D01*
X6410420Y-14187746D02*
X6419944Y-14140127D01*
X6419944Y-14140127D02*
X6429468Y-14111555D01*
X6429468Y-14111555D02*
X6438991Y-14092508D01*
X6438991Y-14092508D02*
X6458039Y-14063936D01*
X6458039Y-14063936D02*
X6467563Y-14054412D01*
X6648515Y-14282984D02*
X6534229Y-14282984D01*
X6591372Y-14282984D02*
X6591372Y-14082984D01*
X6591372Y-14082984D02*
X6572325Y-14111555D01*
X6572325Y-14111555D02*
X6553277Y-14130603D01*
X6553277Y-14130603D02*
X6534229Y-14140127D01*
X6886610Y-14282984D02*
X6886610Y-14082984D01*
X6972325Y-14282984D02*
X6972325Y-14178222D01*
X6972325Y-14178222D02*
X6962801Y-14159174D01*
X6962801Y-14159174D02*
X6943753Y-14149650D01*
X6943753Y-14149650D02*
X6915182Y-14149650D01*
X6915182Y-14149650D02*
X6896134Y-14159174D01*
X6896134Y-14159174D02*
X6886610Y-14168698D01*
X7096134Y-14282984D02*
X7077087Y-14273460D01*
X7077087Y-14273460D02*
X7067563Y-14263936D01*
X7067563Y-14263936D02*
X7058039Y-14244888D01*
X7058039Y-14244888D02*
X7058039Y-14187746D01*
X7058039Y-14187746D02*
X7067563Y-14168698D01*
X7067563Y-14168698D02*
X7077087Y-14159174D01*
X7077087Y-14159174D02*
X7096134Y-14149650D01*
X7096134Y-14149650D02*
X7124706Y-14149650D01*
X7124706Y-14149650D02*
X7143753Y-14159174D01*
X7143753Y-14159174D02*
X7153277Y-14168698D01*
X7153277Y-14168698D02*
X7162801Y-14187746D01*
X7162801Y-14187746D02*
X7162801Y-14244888D01*
X7162801Y-14244888D02*
X7153277Y-14263936D01*
X7153277Y-14263936D02*
X7143753Y-14273460D01*
X7143753Y-14273460D02*
X7124706Y-14282984D01*
X7124706Y-14282984D02*
X7096134Y-14282984D01*
X7277087Y-14282984D02*
X7258039Y-14273460D01*
X7258039Y-14273460D02*
X7248515Y-14254412D01*
X7248515Y-14254412D02*
X7248515Y-14082984D01*
X7429468Y-14273460D02*
X7410420Y-14282984D01*
X7410420Y-14282984D02*
X7372325Y-14282984D01*
X7372325Y-14282984D02*
X7353277Y-14273460D01*
X7353277Y-14273460D02*
X7343753Y-14254412D01*
X7343753Y-14254412D02*
X7343753Y-14178222D01*
X7343753Y-14178222D02*
X7353277Y-14159174D01*
X7353277Y-14159174D02*
X7372325Y-14149650D01*
X7372325Y-14149650D02*
X7410420Y-14149650D01*
X7410420Y-14149650D02*
X7429468Y-14159174D01*
X7429468Y-14159174D02*
X7438991Y-14178222D01*
X7438991Y-14178222D02*
X7438991Y-14197269D01*
X7438991Y-14197269D02*
X7343753Y-14216317D01*
X7505658Y-14359174D02*
X7515182Y-14349650D01*
X7515182Y-14349650D02*
X7534230Y-14321079D01*
X7534230Y-14321079D02*
X7543753Y-14302031D01*
X7543753Y-14302031D02*
X7553277Y-14273460D01*
X7553277Y-14273460D02*
X7562801Y-14225841D01*
X7562801Y-14225841D02*
X7562801Y-14187746D01*
X7562801Y-14187746D02*
X7553277Y-14140127D01*
X7553277Y-14140127D02*
X7543753Y-14111555D01*
X7543753Y-14111555D02*
X7534230Y-14092508D01*
X7534230Y-14092508D02*
X7515182Y-14063936D01*
X7515182Y-14063936D02*
X7505658Y-14054412D01*
X7867563Y-14359174D02*
X7858039Y-14349650D01*
X7858039Y-14349650D02*
X7838991Y-14321079D01*
X7838991Y-14321079D02*
X7829468Y-14302031D01*
X7829468Y-14302031D02*
X7819944Y-14273460D01*
X7819944Y-14273460D02*
X7810420Y-14225841D01*
X7810420Y-14225841D02*
X7810420Y-14187746D01*
X7810420Y-14187746D02*
X7819944Y-14140127D01*
X7819944Y-14140127D02*
X7829468Y-14111555D01*
X7829468Y-14111555D02*
X7838991Y-14092508D01*
X7838991Y-14092508D02*
X7858039Y-14063936D01*
X7858039Y-14063936D02*
X7867563Y-14054412D01*
X7943753Y-14149650D02*
X7943753Y-14282984D01*
X7943753Y-14168698D02*
X7953277Y-14159174D01*
X7953277Y-14159174D02*
X7972325Y-14149650D01*
X7972325Y-14149650D02*
X8000896Y-14149650D01*
X8000896Y-14149650D02*
X8019944Y-14159174D01*
X8019944Y-14159174D02*
X8029468Y-14178222D01*
X8029468Y-14178222D02*
X8029468Y-14282984D01*
X8153277Y-14282984D02*
X8134230Y-14273460D01*
X8134230Y-14273460D02*
X8124706Y-14263936D01*
X8124706Y-14263936D02*
X8115182Y-14244888D01*
X8115182Y-14244888D02*
X8115182Y-14187746D01*
X8115182Y-14187746D02*
X8124706Y-14168698D01*
X8124706Y-14168698D02*
X8134230Y-14159174D01*
X8134230Y-14159174D02*
X8153277Y-14149650D01*
X8153277Y-14149650D02*
X8181849Y-14149650D01*
X8181849Y-14149650D02*
X8200896Y-14159174D01*
X8200896Y-14159174D02*
X8210420Y-14168698D01*
X8210420Y-14168698D02*
X8219944Y-14187746D01*
X8219944Y-14187746D02*
X8219944Y-14244888D01*
X8219944Y-14244888D02*
X8210420Y-14263936D01*
X8210420Y-14263936D02*
X8200896Y-14273460D01*
X8200896Y-14273460D02*
X8181849Y-14282984D01*
X8181849Y-14282984D02*
X8153277Y-14282984D01*
X8277087Y-14149650D02*
X8353277Y-14149650D01*
X8305658Y-14082984D02*
X8305658Y-14254412D01*
X8305658Y-14254412D02*
X8315182Y-14273460D01*
X8315182Y-14273460D02*
X8334230Y-14282984D01*
X8334230Y-14282984D02*
X8353277Y-14282984D01*
X8572325Y-14149650D02*
X8572325Y-14349650D01*
X8572325Y-14159174D02*
X8591373Y-14149650D01*
X8591373Y-14149650D02*
X8629468Y-14149650D01*
X8629468Y-14149650D02*
X8648515Y-14159174D01*
X8648515Y-14159174D02*
X8658039Y-14168698D01*
X8658039Y-14168698D02*
X8667563Y-14187746D01*
X8667563Y-14187746D02*
X8667563Y-14244888D01*
X8667563Y-14244888D02*
X8658039Y-14263936D01*
X8658039Y-14263936D02*
X8648515Y-14273460D01*
X8648515Y-14273460D02*
X8629468Y-14282984D01*
X8629468Y-14282984D02*
X8591373Y-14282984D01*
X8591373Y-14282984D02*
X8572325Y-14273460D01*
X8781849Y-14282984D02*
X8762801Y-14273460D01*
X8762801Y-14273460D02*
X8753277Y-14254412D01*
X8753277Y-14254412D02*
X8753277Y-14082984D01*
X8943754Y-14282984D02*
X8943754Y-14178222D01*
X8943754Y-14178222D02*
X8934230Y-14159174D01*
X8934230Y-14159174D02*
X8915182Y-14149650D01*
X8915182Y-14149650D02*
X8877087Y-14149650D01*
X8877087Y-14149650D02*
X8858039Y-14159174D01*
X8943754Y-14273460D02*
X8924706Y-14282984D01*
X8924706Y-14282984D02*
X8877087Y-14282984D01*
X8877087Y-14282984D02*
X8858039Y-14273460D01*
X8858039Y-14273460D02*
X8848515Y-14254412D01*
X8848515Y-14254412D02*
X8848515Y-14235365D01*
X8848515Y-14235365D02*
X8858039Y-14216317D01*
X8858039Y-14216317D02*
X8877087Y-14206793D01*
X8877087Y-14206793D02*
X8924706Y-14206793D01*
X8924706Y-14206793D02*
X8943754Y-14197269D01*
X9010420Y-14149650D02*
X9086611Y-14149650D01*
X9038992Y-14082984D02*
X9038992Y-14254412D01*
X9038992Y-14254412D02*
X9048515Y-14273460D01*
X9048515Y-14273460D02*
X9067563Y-14282984D01*
X9067563Y-14282984D02*
X9086611Y-14282984D01*
X9229468Y-14273460D02*
X9210420Y-14282984D01*
X9210420Y-14282984D02*
X9172325Y-14282984D01*
X9172325Y-14282984D02*
X9153277Y-14273460D01*
X9153277Y-14273460D02*
X9143754Y-14254412D01*
X9143754Y-14254412D02*
X9143754Y-14178222D01*
X9143754Y-14178222D02*
X9153277Y-14159174D01*
X9153277Y-14159174D02*
X9172325Y-14149650D01*
X9172325Y-14149650D02*
X9210420Y-14149650D01*
X9210420Y-14149650D02*
X9229468Y-14159174D01*
X9229468Y-14159174D02*
X9238992Y-14178222D01*
X9238992Y-14178222D02*
X9238992Y-14197269D01*
X9238992Y-14197269D02*
X9143754Y-14216317D01*
X9410420Y-14282984D02*
X9410420Y-14082984D01*
X9410420Y-14273460D02*
X9391373Y-14282984D01*
X9391373Y-14282984D02*
X9353277Y-14282984D01*
X9353277Y-14282984D02*
X9334230Y-14273460D01*
X9334230Y-14273460D02*
X9324706Y-14263936D01*
X9324706Y-14263936D02*
X9315182Y-14244888D01*
X9315182Y-14244888D02*
X9315182Y-14187746D01*
X9315182Y-14187746D02*
X9324706Y-14168698D01*
X9324706Y-14168698D02*
X9334230Y-14159174D01*
X9334230Y-14159174D02*
X9353277Y-14149650D01*
X9353277Y-14149650D02*
X9391373Y-14149650D01*
X9391373Y-14149650D02*
X9410420Y-14159174D01*
X9486611Y-14359174D02*
X9496135Y-14349650D01*
X9496135Y-14349650D02*
X9515182Y-14321079D01*
X9515182Y-14321079D02*
X9524706Y-14302031D01*
X9524706Y-14302031D02*
X9534230Y-14273460D01*
X9534230Y-14273460D02*
X9543754Y-14225841D01*
X9543754Y-14225841D02*
X9543754Y-14187746D01*
X9543754Y-14187746D02*
X9534230Y-14140127D01*
X9534230Y-14140127D02*
X9524706Y-14111555D01*
X9524706Y-14111555D02*
X9515182Y-14092508D01*
X9515182Y-14092508D02*
X9496135Y-14063936D01*
X9496135Y-14063936D02*
X9486611Y-14054412D01*
X2692500Y-14411500D02*
X2892500Y-14611500D01*
X2892500Y-14411500D02*
X2692500Y-14611500D01*
X2892500Y-14511500D02*
G75*
G02*
X2692500Y-14511500I-100000J0D01*
G01*
X2692500Y-14511500D02*
G75*
G02*
X2892500Y-14511500I100000J0D01*
G01*
X3134229Y-14402984D02*
X3258039Y-14402984D01*
X3258039Y-14402984D02*
X3191372Y-14479174D01*
X3191372Y-14479174D02*
X3219943Y-14479174D01*
X3219943Y-14479174D02*
X3238991Y-14488698D01*
X3238991Y-14488698D02*
X3248515Y-14498222D01*
X3248515Y-14498222D02*
X3258039Y-14517269D01*
X3258039Y-14517269D02*
X3258039Y-14564888D01*
X3258039Y-14564888D02*
X3248515Y-14583936D01*
X3248515Y-14583936D02*
X3238991Y-14593460D01*
X3238991Y-14593460D02*
X3219943Y-14602984D01*
X3219943Y-14602984D02*
X3162801Y-14602984D01*
X3162801Y-14602984D02*
X3143753Y-14593460D01*
X3143753Y-14593460D02*
X3134229Y-14583936D01*
X3343753Y-14583936D02*
X3353277Y-14593460D01*
X3353277Y-14593460D02*
X3343753Y-14602984D01*
X3343753Y-14602984D02*
X3334229Y-14593460D01*
X3334229Y-14593460D02*
X3343753Y-14583936D01*
X3343753Y-14583936D02*
X3343753Y-14602984D01*
X3448515Y-14602984D02*
X3486610Y-14602984D01*
X3486610Y-14602984D02*
X3505658Y-14593460D01*
X3505658Y-14593460D02*
X3515182Y-14583936D01*
X3515182Y-14583936D02*
X3534229Y-14555365D01*
X3534229Y-14555365D02*
X3543753Y-14517269D01*
X3543753Y-14517269D02*
X3543753Y-14441079D01*
X3543753Y-14441079D02*
X3534229Y-14422031D01*
X3534229Y-14422031D02*
X3524705Y-14412508D01*
X3524705Y-14412508D02*
X3505658Y-14402984D01*
X3505658Y-14402984D02*
X3467562Y-14402984D01*
X3467562Y-14402984D02*
X3448515Y-14412508D01*
X3448515Y-14412508D02*
X3438991Y-14422031D01*
X3438991Y-14422031D02*
X3429467Y-14441079D01*
X3429467Y-14441079D02*
X3429467Y-14488698D01*
X3429467Y-14488698D02*
X3438991Y-14507746D01*
X3438991Y-14507746D02*
X3448515Y-14517269D01*
X3448515Y-14517269D02*
X3467562Y-14526793D01*
X3467562Y-14526793D02*
X3505658Y-14526793D01*
X3505658Y-14526793D02*
X3524705Y-14517269D01*
X3524705Y-14517269D02*
X3534229Y-14507746D01*
X3534229Y-14507746D02*
X3543753Y-14488698D01*
X3658039Y-14488698D02*
X3638991Y-14479174D01*
X3638991Y-14479174D02*
X3629467Y-14469650D01*
X3629467Y-14469650D02*
X3619943Y-14450603D01*
X3619943Y-14450603D02*
X3619943Y-14441079D01*
X3619943Y-14441079D02*
X3629467Y-14422031D01*
X3629467Y-14422031D02*
X3638991Y-14412508D01*
X3638991Y-14412508D02*
X3658039Y-14402984D01*
X3658039Y-14402984D02*
X3696134Y-14402984D01*
X3696134Y-14402984D02*
X3715182Y-14412508D01*
X3715182Y-14412508D02*
X3724705Y-14422031D01*
X3724705Y-14422031D02*
X3734229Y-14441079D01*
X3734229Y-14441079D02*
X3734229Y-14450603D01*
X3734229Y-14450603D02*
X3724705Y-14469650D01*
X3724705Y-14469650D02*
X3715182Y-14479174D01*
X3715182Y-14479174D02*
X3696134Y-14488698D01*
X3696134Y-14488698D02*
X3658039Y-14488698D01*
X3658039Y-14488698D02*
X3638991Y-14498222D01*
X3638991Y-14498222D02*
X3629467Y-14507746D01*
X3629467Y-14507746D02*
X3619943Y-14526793D01*
X3619943Y-14526793D02*
X3619943Y-14564888D01*
X3619943Y-14564888D02*
X3629467Y-14583936D01*
X3629467Y-14583936D02*
X3638991Y-14593460D01*
X3638991Y-14593460D02*
X3658039Y-14602984D01*
X3658039Y-14602984D02*
X3696134Y-14602984D01*
X3696134Y-14602984D02*
X3715182Y-14593460D01*
X3715182Y-14593460D02*
X3724705Y-14583936D01*
X3724705Y-14583936D02*
X3734229Y-14564888D01*
X3734229Y-14564888D02*
X3734229Y-14526793D01*
X3734229Y-14526793D02*
X3724705Y-14507746D01*
X3724705Y-14507746D02*
X3715182Y-14498222D01*
X3715182Y-14498222D02*
X3696134Y-14488698D01*
X3848515Y-14488698D02*
X3829467Y-14479174D01*
X3829467Y-14479174D02*
X3819943Y-14469650D01*
X3819943Y-14469650D02*
X3810420Y-14450603D01*
X3810420Y-14450603D02*
X3810420Y-14441079D01*
X3810420Y-14441079D02*
X3819943Y-14422031D01*
X3819943Y-14422031D02*
X3829467Y-14412508D01*
X3829467Y-14412508D02*
X3848515Y-14402984D01*
X3848515Y-14402984D02*
X3886610Y-14402984D01*
X3886610Y-14402984D02*
X3905658Y-14412508D01*
X3905658Y-14412508D02*
X3915182Y-14422031D01*
X3915182Y-14422031D02*
X3924705Y-14441079D01*
X3924705Y-14441079D02*
X3924705Y-14450603D01*
X3924705Y-14450603D02*
X3915182Y-14469650D01*
X3915182Y-14469650D02*
X3905658Y-14479174D01*
X3905658Y-14479174D02*
X3886610Y-14488698D01*
X3886610Y-14488698D02*
X3848515Y-14488698D01*
X3848515Y-14488698D02*
X3829467Y-14498222D01*
X3829467Y-14498222D02*
X3819943Y-14507746D01*
X3819943Y-14507746D02*
X3810420Y-14526793D01*
X3810420Y-14526793D02*
X3810420Y-14564888D01*
X3810420Y-14564888D02*
X3819943Y-14583936D01*
X3819943Y-14583936D02*
X3829467Y-14593460D01*
X3829467Y-14593460D02*
X3848515Y-14602984D01*
X3848515Y-14602984D02*
X3886610Y-14602984D01*
X3886610Y-14602984D02*
X3905658Y-14593460D01*
X3905658Y-14593460D02*
X3915182Y-14583936D01*
X3915182Y-14583936D02*
X3924705Y-14564888D01*
X3924705Y-14564888D02*
X3924705Y-14526793D01*
X3924705Y-14526793D02*
X3915182Y-14507746D01*
X3915182Y-14507746D02*
X3905658Y-14498222D01*
X3905658Y-14498222D02*
X3886610Y-14488698D01*
X4010420Y-14602984D02*
X4010420Y-14469650D01*
X4010420Y-14488698D02*
X4019943Y-14479174D01*
X4019943Y-14479174D02*
X4038991Y-14469650D01*
X4038991Y-14469650D02*
X4067563Y-14469650D01*
X4067563Y-14469650D02*
X4086610Y-14479174D01*
X4086610Y-14479174D02*
X4096134Y-14498222D01*
X4096134Y-14498222D02*
X4096134Y-14602984D01*
X4096134Y-14498222D02*
X4105658Y-14479174D01*
X4105658Y-14479174D02*
X4124705Y-14469650D01*
X4124705Y-14469650D02*
X4153277Y-14469650D01*
X4153277Y-14469650D02*
X4172324Y-14479174D01*
X4172324Y-14479174D02*
X4181848Y-14498222D01*
X4181848Y-14498222D02*
X4181848Y-14602984D01*
X4277086Y-14602984D02*
X4277086Y-14469650D01*
X4277086Y-14488698D02*
X4286610Y-14479174D01*
X4286610Y-14479174D02*
X4305658Y-14469650D01*
X4305658Y-14469650D02*
X4334229Y-14469650D01*
X4334229Y-14469650D02*
X4353277Y-14479174D01*
X4353277Y-14479174D02*
X4362801Y-14498222D01*
X4362801Y-14498222D02*
X4362801Y-14602984D01*
X4362801Y-14498222D02*
X4372325Y-14479174D01*
X4372325Y-14479174D02*
X4391372Y-14469650D01*
X4391372Y-14469650D02*
X4419944Y-14469650D01*
X4419944Y-14469650D02*
X4438991Y-14479174D01*
X4438991Y-14479174D02*
X4448515Y-14498222D01*
X4448515Y-14498222D02*
X4448515Y-14602984D01*
X4838991Y-14393460D02*
X4667563Y-14650603D01*
X5096134Y-14402984D02*
X5115182Y-14402984D01*
X5115182Y-14402984D02*
X5134229Y-14412508D01*
X5134229Y-14412508D02*
X5143753Y-14422031D01*
X5143753Y-14422031D02*
X5153277Y-14441079D01*
X5153277Y-14441079D02*
X5162801Y-14479174D01*
X5162801Y-14479174D02*
X5162801Y-14526793D01*
X5162801Y-14526793D02*
X5153277Y-14564888D01*
X5153277Y-14564888D02*
X5143753Y-14583936D01*
X5143753Y-14583936D02*
X5134229Y-14593460D01*
X5134229Y-14593460D02*
X5115182Y-14602984D01*
X5115182Y-14602984D02*
X5096134Y-14602984D01*
X5096134Y-14602984D02*
X5077087Y-14593460D01*
X5077087Y-14593460D02*
X5067563Y-14583936D01*
X5067563Y-14583936D02*
X5058039Y-14564888D01*
X5058039Y-14564888D02*
X5048515Y-14526793D01*
X5048515Y-14526793D02*
X5048515Y-14479174D01*
X5048515Y-14479174D02*
X5058039Y-14441079D01*
X5058039Y-14441079D02*
X5067563Y-14422031D01*
X5067563Y-14422031D02*
X5077087Y-14412508D01*
X5077087Y-14412508D02*
X5096134Y-14402984D01*
X5248515Y-14583936D02*
X5258039Y-14593460D01*
X5258039Y-14593460D02*
X5248515Y-14602984D01*
X5248515Y-14602984D02*
X5238991Y-14593460D01*
X5238991Y-14593460D02*
X5248515Y-14583936D01*
X5248515Y-14583936D02*
X5248515Y-14602984D01*
X5448515Y-14602984D02*
X5334229Y-14602984D01*
X5391372Y-14602984D02*
X5391372Y-14402984D01*
X5391372Y-14402984D02*
X5372325Y-14431555D01*
X5372325Y-14431555D02*
X5353277Y-14450603D01*
X5353277Y-14450603D02*
X5334229Y-14460127D01*
X5629467Y-14402984D02*
X5534229Y-14402984D01*
X5534229Y-14402984D02*
X5524706Y-14498222D01*
X5524706Y-14498222D02*
X5534229Y-14488698D01*
X5534229Y-14488698D02*
X5553277Y-14479174D01*
X5553277Y-14479174D02*
X5600896Y-14479174D01*
X5600896Y-14479174D02*
X5619944Y-14488698D01*
X5619944Y-14488698D02*
X5629467Y-14498222D01*
X5629467Y-14498222D02*
X5638991Y-14517269D01*
X5638991Y-14517269D02*
X5638991Y-14564888D01*
X5638991Y-14564888D02*
X5629467Y-14583936D01*
X5629467Y-14583936D02*
X5619944Y-14593460D01*
X5619944Y-14593460D02*
X5600896Y-14602984D01*
X5600896Y-14602984D02*
X5553277Y-14602984D01*
X5553277Y-14602984D02*
X5534229Y-14593460D01*
X5534229Y-14593460D02*
X5524706Y-14583936D01*
X5705658Y-14402984D02*
X5838991Y-14402984D01*
X5838991Y-14402984D02*
X5753277Y-14602984D01*
X5953277Y-14402984D02*
X5972325Y-14402984D01*
X5972325Y-14402984D02*
X5991372Y-14412508D01*
X5991372Y-14412508D02*
X6000896Y-14422031D01*
X6000896Y-14422031D02*
X6010420Y-14441079D01*
X6010420Y-14441079D02*
X6019944Y-14479174D01*
X6019944Y-14479174D02*
X6019944Y-14526793D01*
X6019944Y-14526793D02*
X6010420Y-14564888D01*
X6010420Y-14564888D02*
X6000896Y-14583936D01*
X6000896Y-14583936D02*
X5991372Y-14593460D01*
X5991372Y-14593460D02*
X5972325Y-14602984D01*
X5972325Y-14602984D02*
X5953277Y-14602984D01*
X5953277Y-14602984D02*
X5934229Y-14593460D01*
X5934229Y-14593460D02*
X5924706Y-14583936D01*
X5924706Y-14583936D02*
X5915182Y-14564888D01*
X5915182Y-14564888D02*
X5905658Y-14526793D01*
X5905658Y-14526793D02*
X5905658Y-14479174D01*
X5905658Y-14479174D02*
X5915182Y-14441079D01*
X5915182Y-14441079D02*
X5924706Y-14422031D01*
X5924706Y-14422031D02*
X5934229Y-14412508D01*
X5934229Y-14412508D02*
X5953277Y-14402984D01*
X6096134Y-14402984D02*
X6096134Y-14441079D01*
X6172325Y-14402984D02*
X6172325Y-14441079D01*
X6467563Y-14679174D02*
X6458039Y-14669650D01*
X6458039Y-14669650D02*
X6438991Y-14641079D01*
X6438991Y-14641079D02*
X6429468Y-14622031D01*
X6429468Y-14622031D02*
X6419944Y-14593460D01*
X6419944Y-14593460D02*
X6410420Y-14545841D01*
X6410420Y-14545841D02*
X6410420Y-14507746D01*
X6410420Y-14507746D02*
X6419944Y-14460127D01*
X6419944Y-14460127D02*
X6429468Y-14431555D01*
X6429468Y-14431555D02*
X6438991Y-14412508D01*
X6438991Y-14412508D02*
X6458039Y-14383936D01*
X6458039Y-14383936D02*
X6467563Y-14374412D01*
X6648515Y-14602984D02*
X6534229Y-14602984D01*
X6591372Y-14602984D02*
X6591372Y-14402984D01*
X6591372Y-14402984D02*
X6572325Y-14431555D01*
X6572325Y-14431555D02*
X6553277Y-14450603D01*
X6553277Y-14450603D02*
X6534229Y-14460127D01*
X6819944Y-14469650D02*
X6819944Y-14602984D01*
X6772325Y-14393460D02*
X6724706Y-14536317D01*
X6724706Y-14536317D02*
X6848515Y-14536317D01*
X7077087Y-14602984D02*
X7077087Y-14402984D01*
X7162801Y-14602984D02*
X7162801Y-14498222D01*
X7162801Y-14498222D02*
X7153277Y-14479174D01*
X7153277Y-14479174D02*
X7134230Y-14469650D01*
X7134230Y-14469650D02*
X7105658Y-14469650D01*
X7105658Y-14469650D02*
X7086610Y-14479174D01*
X7086610Y-14479174D02*
X7077087Y-14488698D01*
X7286610Y-14602984D02*
X7267563Y-14593460D01*
X7267563Y-14593460D02*
X7258039Y-14583936D01*
X7258039Y-14583936D02*
X7248515Y-14564888D01*
X7248515Y-14564888D02*
X7248515Y-14507746D01*
X7248515Y-14507746D02*
X7258039Y-14488698D01*
X7258039Y-14488698D02*
X7267563Y-14479174D01*
X7267563Y-14479174D02*
X7286610Y-14469650D01*
X7286610Y-14469650D02*
X7315182Y-14469650D01*
X7315182Y-14469650D02*
X7334230Y-14479174D01*
X7334230Y-14479174D02*
X7343753Y-14488698D01*
X7343753Y-14488698D02*
X7353277Y-14507746D01*
X7353277Y-14507746D02*
X7353277Y-14564888D01*
X7353277Y-14564888D02*
X7343753Y-14583936D01*
X7343753Y-14583936D02*
X7334230Y-14593460D01*
X7334230Y-14593460D02*
X7315182Y-14602984D01*
X7315182Y-14602984D02*
X7286610Y-14602984D01*
X7467563Y-14602984D02*
X7448515Y-14593460D01*
X7448515Y-14593460D02*
X7438991Y-14574412D01*
X7438991Y-14574412D02*
X7438991Y-14402984D01*
X7619944Y-14593460D02*
X7600896Y-14602984D01*
X7600896Y-14602984D02*
X7562801Y-14602984D01*
X7562801Y-14602984D02*
X7543753Y-14593460D01*
X7543753Y-14593460D02*
X7534230Y-14574412D01*
X7534230Y-14574412D02*
X7534230Y-14498222D01*
X7534230Y-14498222D02*
X7543753Y-14479174D01*
X7543753Y-14479174D02*
X7562801Y-14469650D01*
X7562801Y-14469650D02*
X7600896Y-14469650D01*
X7600896Y-14469650D02*
X7619944Y-14479174D01*
X7619944Y-14479174D02*
X7629468Y-14498222D01*
X7629468Y-14498222D02*
X7629468Y-14517269D01*
X7629468Y-14517269D02*
X7534230Y-14536317D01*
X7705658Y-14593460D02*
X7724706Y-14602984D01*
X7724706Y-14602984D02*
X7762801Y-14602984D01*
X7762801Y-14602984D02*
X7781849Y-14593460D01*
X7781849Y-14593460D02*
X7791372Y-14574412D01*
X7791372Y-14574412D02*
X7791372Y-14564888D01*
X7791372Y-14564888D02*
X7781849Y-14545841D01*
X7781849Y-14545841D02*
X7762801Y-14536317D01*
X7762801Y-14536317D02*
X7734230Y-14536317D01*
X7734230Y-14536317D02*
X7715182Y-14526793D01*
X7715182Y-14526793D02*
X7705658Y-14507746D01*
X7705658Y-14507746D02*
X7705658Y-14498222D01*
X7705658Y-14498222D02*
X7715182Y-14479174D01*
X7715182Y-14479174D02*
X7734230Y-14469650D01*
X7734230Y-14469650D02*
X7762801Y-14469650D01*
X7762801Y-14469650D02*
X7781849Y-14479174D01*
X7858039Y-14679174D02*
X7867563Y-14669650D01*
X7867563Y-14669650D02*
X7886611Y-14641079D01*
X7886611Y-14641079D02*
X7896134Y-14622031D01*
X7896134Y-14622031D02*
X7905658Y-14593460D01*
X7905658Y-14593460D02*
X7915182Y-14545841D01*
X7915182Y-14545841D02*
X7915182Y-14507746D01*
X7915182Y-14507746D02*
X7905658Y-14460127D01*
X7905658Y-14460127D02*
X7896134Y-14431555D01*
X7896134Y-14431555D02*
X7886611Y-14412508D01*
X7886611Y-14412508D02*
X7867563Y-14383936D01*
X7867563Y-14383936D02*
X7858039Y-14374412D01*
X8219944Y-14679174D02*
X8210420Y-14669650D01*
X8210420Y-14669650D02*
X8191372Y-14641079D01*
X8191372Y-14641079D02*
X8181849Y-14622031D01*
X8181849Y-14622031D02*
X8172325Y-14593460D01*
X8172325Y-14593460D02*
X8162801Y-14545841D01*
X8162801Y-14545841D02*
X8162801Y-14507746D01*
X8162801Y-14507746D02*
X8172325Y-14460127D01*
X8172325Y-14460127D02*
X8181849Y-14431555D01*
X8181849Y-14431555D02*
X8191372Y-14412508D01*
X8191372Y-14412508D02*
X8210420Y-14383936D01*
X8210420Y-14383936D02*
X8219944Y-14374412D01*
X8296134Y-14469650D02*
X8296134Y-14602984D01*
X8296134Y-14488698D02*
X8305658Y-14479174D01*
X8305658Y-14479174D02*
X8324706Y-14469650D01*
X8324706Y-14469650D02*
X8353277Y-14469650D01*
X8353277Y-14469650D02*
X8372325Y-14479174D01*
X8372325Y-14479174D02*
X8381849Y-14498222D01*
X8381849Y-14498222D02*
X8381849Y-14602984D01*
X8505658Y-14602984D02*
X8486611Y-14593460D01*
X8486611Y-14593460D02*
X8477087Y-14583936D01*
X8477087Y-14583936D02*
X8467563Y-14564888D01*
X8467563Y-14564888D02*
X8467563Y-14507746D01*
X8467563Y-14507746D02*
X8477087Y-14488698D01*
X8477087Y-14488698D02*
X8486611Y-14479174D01*
X8486611Y-14479174D02*
X8505658Y-14469650D01*
X8505658Y-14469650D02*
X8534230Y-14469650D01*
X8534230Y-14469650D02*
X8553277Y-14479174D01*
X8553277Y-14479174D02*
X8562801Y-14488698D01*
X8562801Y-14488698D02*
X8572325Y-14507746D01*
X8572325Y-14507746D02*
X8572325Y-14564888D01*
X8572325Y-14564888D02*
X8562801Y-14583936D01*
X8562801Y-14583936D02*
X8553277Y-14593460D01*
X8553277Y-14593460D02*
X8534230Y-14602984D01*
X8534230Y-14602984D02*
X8505658Y-14602984D01*
X8629468Y-14469650D02*
X8705658Y-14469650D01*
X8658039Y-14402984D02*
X8658039Y-14574412D01*
X8658039Y-14574412D02*
X8667563Y-14593460D01*
X8667563Y-14593460D02*
X8686611Y-14602984D01*
X8686611Y-14602984D02*
X8705658Y-14602984D01*
X8924706Y-14469650D02*
X8924706Y-14669650D01*
X8924706Y-14479174D02*
X8943754Y-14469650D01*
X8943754Y-14469650D02*
X8981849Y-14469650D01*
X8981849Y-14469650D02*
X9000896Y-14479174D01*
X9000896Y-14479174D02*
X9010420Y-14488698D01*
X9010420Y-14488698D02*
X9019944Y-14507746D01*
X9019944Y-14507746D02*
X9019944Y-14564888D01*
X9019944Y-14564888D02*
X9010420Y-14583936D01*
X9010420Y-14583936D02*
X9000896Y-14593460D01*
X9000896Y-14593460D02*
X8981849Y-14602984D01*
X8981849Y-14602984D02*
X8943754Y-14602984D01*
X8943754Y-14602984D02*
X8924706Y-14593460D01*
X9134230Y-14602984D02*
X9115182Y-14593460D01*
X9115182Y-14593460D02*
X9105658Y-14574412D01*
X9105658Y-14574412D02*
X9105658Y-14402984D01*
X9296135Y-14602984D02*
X9296135Y-14498222D01*
X9296135Y-14498222D02*
X9286611Y-14479174D01*
X9286611Y-14479174D02*
X9267563Y-14469650D01*
X9267563Y-14469650D02*
X9229468Y-14469650D01*
X9229468Y-14469650D02*
X9210420Y-14479174D01*
X9296135Y-14593460D02*
X9277087Y-14602984D01*
X9277087Y-14602984D02*
X9229468Y-14602984D01*
X9229468Y-14602984D02*
X9210420Y-14593460D01*
X9210420Y-14593460D02*
X9200896Y-14574412D01*
X9200896Y-14574412D02*
X9200896Y-14555365D01*
X9200896Y-14555365D02*
X9210420Y-14536317D01*
X9210420Y-14536317D02*
X9229468Y-14526793D01*
X9229468Y-14526793D02*
X9277087Y-14526793D01*
X9277087Y-14526793D02*
X9296135Y-14517269D01*
X9362801Y-14469650D02*
X9438992Y-14469650D01*
X9391373Y-14402984D02*
X9391373Y-14574412D01*
X9391373Y-14574412D02*
X9400896Y-14593460D01*
X9400896Y-14593460D02*
X9419944Y-14602984D01*
X9419944Y-14602984D02*
X9438992Y-14602984D01*
X9581849Y-14593460D02*
X9562801Y-14602984D01*
X9562801Y-14602984D02*
X9524706Y-14602984D01*
X9524706Y-14602984D02*
X9505658Y-14593460D01*
X9505658Y-14593460D02*
X9496135Y-14574412D01*
X9496135Y-14574412D02*
X9496135Y-14498222D01*
X9496135Y-14498222D02*
X9505658Y-14479174D01*
X9505658Y-14479174D02*
X9524706Y-14469650D01*
X9524706Y-14469650D02*
X9562801Y-14469650D01*
X9562801Y-14469650D02*
X9581849Y-14479174D01*
X9581849Y-14479174D02*
X9591373Y-14498222D01*
X9591373Y-14498222D02*
X9591373Y-14517269D01*
X9591373Y-14517269D02*
X9496135Y-14536317D01*
X9762801Y-14602984D02*
X9762801Y-14402984D01*
X9762801Y-14593460D02*
X9743754Y-14602984D01*
X9743754Y-14602984D02*
X9705658Y-14602984D01*
X9705658Y-14602984D02*
X9686611Y-14593460D01*
X9686611Y-14593460D02*
X9677087Y-14583936D01*
X9677087Y-14583936D02*
X9667563Y-14564888D01*
X9667563Y-14564888D02*
X9667563Y-14507746D01*
X9667563Y-14507746D02*
X9677087Y-14488698D01*
X9677087Y-14488698D02*
X9686611Y-14479174D01*
X9686611Y-14479174D02*
X9705658Y-14469650D01*
X9705658Y-14469650D02*
X9743754Y-14469650D01*
X9743754Y-14469650D02*
X9762801Y-14479174D01*
X9838992Y-14679174D02*
X9848516Y-14669650D01*
X9848516Y-14669650D02*
X9867563Y-14641079D01*
X9867563Y-14641079D02*
X9877087Y-14622031D01*
X9877087Y-14622031D02*
X9886611Y-14593460D01*
X9886611Y-14593460D02*
X9896135Y-14545841D01*
X9896135Y-14545841D02*
X9896135Y-14507746D01*
X9896135Y-14507746D02*
X9886611Y-14460127D01*
X9886611Y-14460127D02*
X9877087Y-14431555D01*
X9877087Y-14431555D02*
X9867563Y-14412508D01*
X9867563Y-14412508D02*
X9848516Y-14383936D01*
X9848516Y-14383936D02*
X9838992Y-14374412D01*
X2692500Y-14731500D02*
X2892500Y-14931500D01*
X2892500Y-14731500D02*
X2692500Y-14931500D01*
X2792500Y-14731500D02*
X2792500Y-14931500D01*
X2692500Y-14831500D02*
X2892500Y-14831500D01*
X3238991Y-14789650D02*
X3238991Y-14922984D01*
X3191372Y-14713460D02*
X3143753Y-14856317D01*
X3143753Y-14856317D02*
X3267562Y-14856317D01*
X3343753Y-14903936D02*
X3353277Y-14913460D01*
X3353277Y-14913460D02*
X3343753Y-14922984D01*
X3343753Y-14922984D02*
X3334229Y-14913460D01*
X3334229Y-14913460D02*
X3343753Y-14903936D01*
X3343753Y-14903936D02*
X3343753Y-14922984D01*
X3477086Y-14722984D02*
X3496134Y-14722984D01*
X3496134Y-14722984D02*
X3515182Y-14732508D01*
X3515182Y-14732508D02*
X3524705Y-14742031D01*
X3524705Y-14742031D02*
X3534229Y-14761079D01*
X3534229Y-14761079D02*
X3543753Y-14799174D01*
X3543753Y-14799174D02*
X3543753Y-14846793D01*
X3543753Y-14846793D02*
X3534229Y-14884888D01*
X3534229Y-14884888D02*
X3524705Y-14903936D01*
X3524705Y-14903936D02*
X3515182Y-14913460D01*
X3515182Y-14913460D02*
X3496134Y-14922984D01*
X3496134Y-14922984D02*
X3477086Y-14922984D01*
X3477086Y-14922984D02*
X3458039Y-14913460D01*
X3458039Y-14913460D02*
X3448515Y-14903936D01*
X3448515Y-14903936D02*
X3438991Y-14884888D01*
X3438991Y-14884888D02*
X3429467Y-14846793D01*
X3429467Y-14846793D02*
X3429467Y-14799174D01*
X3429467Y-14799174D02*
X3438991Y-14761079D01*
X3438991Y-14761079D02*
X3448515Y-14742031D01*
X3448515Y-14742031D02*
X3458039Y-14732508D01*
X3458039Y-14732508D02*
X3477086Y-14722984D01*
X3667562Y-14722984D02*
X3686610Y-14722984D01*
X3686610Y-14722984D02*
X3705658Y-14732508D01*
X3705658Y-14732508D02*
X3715182Y-14742031D01*
X3715182Y-14742031D02*
X3724705Y-14761079D01*
X3724705Y-14761079D02*
X3734229Y-14799174D01*
X3734229Y-14799174D02*
X3734229Y-14846793D01*
X3734229Y-14846793D02*
X3724705Y-14884888D01*
X3724705Y-14884888D02*
X3715182Y-14903936D01*
X3715182Y-14903936D02*
X3705658Y-14913460D01*
X3705658Y-14913460D02*
X3686610Y-14922984D01*
X3686610Y-14922984D02*
X3667562Y-14922984D01*
X3667562Y-14922984D02*
X3648515Y-14913460D01*
X3648515Y-14913460D02*
X3638991Y-14903936D01*
X3638991Y-14903936D02*
X3629467Y-14884888D01*
X3629467Y-14884888D02*
X3619943Y-14846793D01*
X3619943Y-14846793D02*
X3619943Y-14799174D01*
X3619943Y-14799174D02*
X3629467Y-14761079D01*
X3629467Y-14761079D02*
X3638991Y-14742031D01*
X3638991Y-14742031D02*
X3648515Y-14732508D01*
X3648515Y-14732508D02*
X3667562Y-14722984D01*
X3858039Y-14722984D02*
X3877086Y-14722984D01*
X3877086Y-14722984D02*
X3896134Y-14732508D01*
X3896134Y-14732508D02*
X3905658Y-14742031D01*
X3905658Y-14742031D02*
X3915182Y-14761079D01*
X3915182Y-14761079D02*
X3924705Y-14799174D01*
X3924705Y-14799174D02*
X3924705Y-14846793D01*
X3924705Y-14846793D02*
X3915182Y-14884888D01*
X3915182Y-14884888D02*
X3905658Y-14903936D01*
X3905658Y-14903936D02*
X3896134Y-14913460D01*
X3896134Y-14913460D02*
X3877086Y-14922984D01*
X3877086Y-14922984D02*
X3858039Y-14922984D01*
X3858039Y-14922984D02*
X3838991Y-14913460D01*
X3838991Y-14913460D02*
X3829467Y-14903936D01*
X3829467Y-14903936D02*
X3819943Y-14884888D01*
X3819943Y-14884888D02*
X3810420Y-14846793D01*
X3810420Y-14846793D02*
X3810420Y-14799174D01*
X3810420Y-14799174D02*
X3819943Y-14761079D01*
X3819943Y-14761079D02*
X3829467Y-14742031D01*
X3829467Y-14742031D02*
X3838991Y-14732508D01*
X3838991Y-14732508D02*
X3858039Y-14722984D01*
X4010420Y-14922984D02*
X4010420Y-14789650D01*
X4010420Y-14808698D02*
X4019943Y-14799174D01*
X4019943Y-14799174D02*
X4038991Y-14789650D01*
X4038991Y-14789650D02*
X4067563Y-14789650D01*
X4067563Y-14789650D02*
X4086610Y-14799174D01*
X4086610Y-14799174D02*
X4096134Y-14818222D01*
X4096134Y-14818222D02*
X4096134Y-14922984D01*
X4096134Y-14818222D02*
X4105658Y-14799174D01*
X4105658Y-14799174D02*
X4124705Y-14789650D01*
X4124705Y-14789650D02*
X4153277Y-14789650D01*
X4153277Y-14789650D02*
X4172324Y-14799174D01*
X4172324Y-14799174D02*
X4181848Y-14818222D01*
X4181848Y-14818222D02*
X4181848Y-14922984D01*
X4277086Y-14922984D02*
X4277086Y-14789650D01*
X4277086Y-14808698D02*
X4286610Y-14799174D01*
X4286610Y-14799174D02*
X4305658Y-14789650D01*
X4305658Y-14789650D02*
X4334229Y-14789650D01*
X4334229Y-14789650D02*
X4353277Y-14799174D01*
X4353277Y-14799174D02*
X4362801Y-14818222D01*
X4362801Y-14818222D02*
X4362801Y-14922984D01*
X4362801Y-14818222D02*
X4372325Y-14799174D01*
X4372325Y-14799174D02*
X4391372Y-14789650D01*
X4391372Y-14789650D02*
X4419944Y-14789650D01*
X4419944Y-14789650D02*
X4438991Y-14799174D01*
X4438991Y-14799174D02*
X4448515Y-14818222D01*
X4448515Y-14818222D02*
X4448515Y-14922984D01*
X4838991Y-14713460D02*
X4667563Y-14970603D01*
X5096134Y-14722984D02*
X5115182Y-14722984D01*
X5115182Y-14722984D02*
X5134229Y-14732508D01*
X5134229Y-14732508D02*
X5143753Y-14742031D01*
X5143753Y-14742031D02*
X5153277Y-14761079D01*
X5153277Y-14761079D02*
X5162801Y-14799174D01*
X5162801Y-14799174D02*
X5162801Y-14846793D01*
X5162801Y-14846793D02*
X5153277Y-14884888D01*
X5153277Y-14884888D02*
X5143753Y-14903936D01*
X5143753Y-14903936D02*
X5134229Y-14913460D01*
X5134229Y-14913460D02*
X5115182Y-14922984D01*
X5115182Y-14922984D02*
X5096134Y-14922984D01*
X5096134Y-14922984D02*
X5077087Y-14913460D01*
X5077087Y-14913460D02*
X5067563Y-14903936D01*
X5067563Y-14903936D02*
X5058039Y-14884888D01*
X5058039Y-14884888D02*
X5048515Y-14846793D01*
X5048515Y-14846793D02*
X5048515Y-14799174D01*
X5048515Y-14799174D02*
X5058039Y-14761079D01*
X5058039Y-14761079D02*
X5067563Y-14742031D01*
X5067563Y-14742031D02*
X5077087Y-14732508D01*
X5077087Y-14732508D02*
X5096134Y-14722984D01*
X5248515Y-14903936D02*
X5258039Y-14913460D01*
X5258039Y-14913460D02*
X5248515Y-14922984D01*
X5248515Y-14922984D02*
X5238991Y-14913460D01*
X5238991Y-14913460D02*
X5248515Y-14903936D01*
X5248515Y-14903936D02*
X5248515Y-14922984D01*
X5448515Y-14922984D02*
X5334229Y-14922984D01*
X5391372Y-14922984D02*
X5391372Y-14722984D01*
X5391372Y-14722984D02*
X5372325Y-14751555D01*
X5372325Y-14751555D02*
X5353277Y-14770603D01*
X5353277Y-14770603D02*
X5334229Y-14780127D01*
X5629467Y-14722984D02*
X5534229Y-14722984D01*
X5534229Y-14722984D02*
X5524706Y-14818222D01*
X5524706Y-14818222D02*
X5534229Y-14808698D01*
X5534229Y-14808698D02*
X5553277Y-14799174D01*
X5553277Y-14799174D02*
X5600896Y-14799174D01*
X5600896Y-14799174D02*
X5619944Y-14808698D01*
X5619944Y-14808698D02*
X5629467Y-14818222D01*
X5629467Y-14818222D02*
X5638991Y-14837269D01*
X5638991Y-14837269D02*
X5638991Y-14884888D01*
X5638991Y-14884888D02*
X5629467Y-14903936D01*
X5629467Y-14903936D02*
X5619944Y-14913460D01*
X5619944Y-14913460D02*
X5600896Y-14922984D01*
X5600896Y-14922984D02*
X5553277Y-14922984D01*
X5553277Y-14922984D02*
X5534229Y-14913460D01*
X5534229Y-14913460D02*
X5524706Y-14903936D01*
X5705658Y-14722984D02*
X5838991Y-14722984D01*
X5838991Y-14722984D02*
X5753277Y-14922984D01*
X6010420Y-14722984D02*
X5915182Y-14722984D01*
X5915182Y-14722984D02*
X5905658Y-14818222D01*
X5905658Y-14818222D02*
X5915182Y-14808698D01*
X5915182Y-14808698D02*
X5934229Y-14799174D01*
X5934229Y-14799174D02*
X5981848Y-14799174D01*
X5981848Y-14799174D02*
X6000896Y-14808698D01*
X6000896Y-14808698D02*
X6010420Y-14818222D01*
X6010420Y-14818222D02*
X6019944Y-14837269D01*
X6019944Y-14837269D02*
X6019944Y-14884888D01*
X6019944Y-14884888D02*
X6010420Y-14903936D01*
X6010420Y-14903936D02*
X6000896Y-14913460D01*
X6000896Y-14913460D02*
X5981848Y-14922984D01*
X5981848Y-14922984D02*
X5934229Y-14922984D01*
X5934229Y-14922984D02*
X5915182Y-14913460D01*
X5915182Y-14913460D02*
X5905658Y-14903936D01*
X6096134Y-14722984D02*
X6096134Y-14761079D01*
X6172325Y-14722984D02*
X6172325Y-14761079D01*
X6467563Y-14999174D02*
X6458039Y-14989650D01*
X6458039Y-14989650D02*
X6438991Y-14961079D01*
X6438991Y-14961079D02*
X6429468Y-14942031D01*
X6429468Y-14942031D02*
X6419944Y-14913460D01*
X6419944Y-14913460D02*
X6410420Y-14865841D01*
X6410420Y-14865841D02*
X6410420Y-14827746D01*
X6410420Y-14827746D02*
X6419944Y-14780127D01*
X6419944Y-14780127D02*
X6429468Y-14751555D01*
X6429468Y-14751555D02*
X6438991Y-14732508D01*
X6438991Y-14732508D02*
X6458039Y-14703936D01*
X6458039Y-14703936D02*
X6467563Y-14694412D01*
X6524706Y-14722984D02*
X6658039Y-14722984D01*
X6658039Y-14722984D02*
X6572325Y-14922984D01*
X6715182Y-14722984D02*
X6848515Y-14722984D01*
X6848515Y-14722984D02*
X6762801Y-14922984D01*
X7077087Y-14922984D02*
X7077087Y-14722984D01*
X7162801Y-14922984D02*
X7162801Y-14818222D01*
X7162801Y-14818222D02*
X7153277Y-14799174D01*
X7153277Y-14799174D02*
X7134230Y-14789650D01*
X7134230Y-14789650D02*
X7105658Y-14789650D01*
X7105658Y-14789650D02*
X7086610Y-14799174D01*
X7086610Y-14799174D02*
X7077087Y-14808698D01*
X7286610Y-14922984D02*
X7267563Y-14913460D01*
X7267563Y-14913460D02*
X7258039Y-14903936D01*
X7258039Y-14903936D02*
X7248515Y-14884888D01*
X7248515Y-14884888D02*
X7248515Y-14827746D01*
X7248515Y-14827746D02*
X7258039Y-14808698D01*
X7258039Y-14808698D02*
X7267563Y-14799174D01*
X7267563Y-14799174D02*
X7286610Y-14789650D01*
X7286610Y-14789650D02*
X7315182Y-14789650D01*
X7315182Y-14789650D02*
X7334230Y-14799174D01*
X7334230Y-14799174D02*
X7343753Y-14808698D01*
X7343753Y-14808698D02*
X7353277Y-14827746D01*
X7353277Y-14827746D02*
X7353277Y-14884888D01*
X7353277Y-14884888D02*
X7343753Y-14903936D01*
X7343753Y-14903936D02*
X7334230Y-14913460D01*
X7334230Y-14913460D02*
X7315182Y-14922984D01*
X7315182Y-14922984D02*
X7286610Y-14922984D01*
X7467563Y-14922984D02*
X7448515Y-14913460D01*
X7448515Y-14913460D02*
X7438991Y-14894412D01*
X7438991Y-14894412D02*
X7438991Y-14722984D01*
X7619944Y-14913460D02*
X7600896Y-14922984D01*
X7600896Y-14922984D02*
X7562801Y-14922984D01*
X7562801Y-14922984D02*
X7543753Y-14913460D01*
X7543753Y-14913460D02*
X7534230Y-14894412D01*
X7534230Y-14894412D02*
X7534230Y-14818222D01*
X7534230Y-14818222D02*
X7543753Y-14799174D01*
X7543753Y-14799174D02*
X7562801Y-14789650D01*
X7562801Y-14789650D02*
X7600896Y-14789650D01*
X7600896Y-14789650D02*
X7619944Y-14799174D01*
X7619944Y-14799174D02*
X7629468Y-14818222D01*
X7629468Y-14818222D02*
X7629468Y-14837269D01*
X7629468Y-14837269D02*
X7534230Y-14856317D01*
X7705658Y-14913460D02*
X7724706Y-14922984D01*
X7724706Y-14922984D02*
X7762801Y-14922984D01*
X7762801Y-14922984D02*
X7781849Y-14913460D01*
X7781849Y-14913460D02*
X7791372Y-14894412D01*
X7791372Y-14894412D02*
X7791372Y-14884888D01*
X7791372Y-14884888D02*
X7781849Y-14865841D01*
X7781849Y-14865841D02*
X7762801Y-14856317D01*
X7762801Y-14856317D02*
X7734230Y-14856317D01*
X7734230Y-14856317D02*
X7715182Y-14846793D01*
X7715182Y-14846793D02*
X7705658Y-14827746D01*
X7705658Y-14827746D02*
X7705658Y-14818222D01*
X7705658Y-14818222D02*
X7715182Y-14799174D01*
X7715182Y-14799174D02*
X7734230Y-14789650D01*
X7734230Y-14789650D02*
X7762801Y-14789650D01*
X7762801Y-14789650D02*
X7781849Y-14799174D01*
X7858039Y-14999174D02*
X7867563Y-14989650D01*
X7867563Y-14989650D02*
X7886611Y-14961079D01*
X7886611Y-14961079D02*
X7896134Y-14942031D01*
X7896134Y-14942031D02*
X7905658Y-14913460D01*
X7905658Y-14913460D02*
X7915182Y-14865841D01*
X7915182Y-14865841D02*
X7915182Y-14827746D01*
X7915182Y-14827746D02*
X7905658Y-14780127D01*
X7905658Y-14780127D02*
X7896134Y-14751555D01*
X7896134Y-14751555D02*
X7886611Y-14732508D01*
X7886611Y-14732508D02*
X7867563Y-14703936D01*
X7867563Y-14703936D02*
X7858039Y-14694412D01*
X8219944Y-14999174D02*
X8210420Y-14989650D01*
X8210420Y-14989650D02*
X8191372Y-14961079D01*
X8191372Y-14961079D02*
X8181849Y-14942031D01*
X8181849Y-14942031D02*
X8172325Y-14913460D01*
X8172325Y-14913460D02*
X8162801Y-14865841D01*
X8162801Y-14865841D02*
X8162801Y-14827746D01*
X8162801Y-14827746D02*
X8172325Y-14780127D01*
X8172325Y-14780127D02*
X8181849Y-14751555D01*
X8181849Y-14751555D02*
X8191372Y-14732508D01*
X8191372Y-14732508D02*
X8210420Y-14703936D01*
X8210420Y-14703936D02*
X8219944Y-14694412D01*
X8296134Y-14789650D02*
X8296134Y-14922984D01*
X8296134Y-14808698D02*
X8305658Y-14799174D01*
X8305658Y-14799174D02*
X8324706Y-14789650D01*
X8324706Y-14789650D02*
X8353277Y-14789650D01*
X8353277Y-14789650D02*
X8372325Y-14799174D01*
X8372325Y-14799174D02*
X8381849Y-14818222D01*
X8381849Y-14818222D02*
X8381849Y-14922984D01*
X8505658Y-14922984D02*
X8486611Y-14913460D01*
X8486611Y-14913460D02*
X8477087Y-14903936D01*
X8477087Y-14903936D02*
X8467563Y-14884888D01*
X8467563Y-14884888D02*
X8467563Y-14827746D01*
X8467563Y-14827746D02*
X8477087Y-14808698D01*
X8477087Y-14808698D02*
X8486611Y-14799174D01*
X8486611Y-14799174D02*
X8505658Y-14789650D01*
X8505658Y-14789650D02*
X8534230Y-14789650D01*
X8534230Y-14789650D02*
X8553277Y-14799174D01*
X8553277Y-14799174D02*
X8562801Y-14808698D01*
X8562801Y-14808698D02*
X8572325Y-14827746D01*
X8572325Y-14827746D02*
X8572325Y-14884888D01*
X8572325Y-14884888D02*
X8562801Y-14903936D01*
X8562801Y-14903936D02*
X8553277Y-14913460D01*
X8553277Y-14913460D02*
X8534230Y-14922984D01*
X8534230Y-14922984D02*
X8505658Y-14922984D01*
X8629468Y-14789650D02*
X8705658Y-14789650D01*
X8658039Y-14722984D02*
X8658039Y-14894412D01*
X8658039Y-14894412D02*
X8667563Y-14913460D01*
X8667563Y-14913460D02*
X8686611Y-14922984D01*
X8686611Y-14922984D02*
X8705658Y-14922984D01*
X8924706Y-14789650D02*
X8924706Y-14989650D01*
X8924706Y-14799174D02*
X8943754Y-14789650D01*
X8943754Y-14789650D02*
X8981849Y-14789650D01*
X8981849Y-14789650D02*
X9000896Y-14799174D01*
X9000896Y-14799174D02*
X9010420Y-14808698D01*
X9010420Y-14808698D02*
X9019944Y-14827746D01*
X9019944Y-14827746D02*
X9019944Y-14884888D01*
X9019944Y-14884888D02*
X9010420Y-14903936D01*
X9010420Y-14903936D02*
X9000896Y-14913460D01*
X9000896Y-14913460D02*
X8981849Y-14922984D01*
X8981849Y-14922984D02*
X8943754Y-14922984D01*
X8943754Y-14922984D02*
X8924706Y-14913460D01*
X9134230Y-14922984D02*
X9115182Y-14913460D01*
X9115182Y-14913460D02*
X9105658Y-14894412D01*
X9105658Y-14894412D02*
X9105658Y-14722984D01*
X9296135Y-14922984D02*
X9296135Y-14818222D01*
X9296135Y-14818222D02*
X9286611Y-14799174D01*
X9286611Y-14799174D02*
X9267563Y-14789650D01*
X9267563Y-14789650D02*
X9229468Y-14789650D01*
X9229468Y-14789650D02*
X9210420Y-14799174D01*
X9296135Y-14913460D02*
X9277087Y-14922984D01*
X9277087Y-14922984D02*
X9229468Y-14922984D01*
X9229468Y-14922984D02*
X9210420Y-14913460D01*
X9210420Y-14913460D02*
X9200896Y-14894412D01*
X9200896Y-14894412D02*
X9200896Y-14875365D01*
X9200896Y-14875365D02*
X9210420Y-14856317D01*
X9210420Y-14856317D02*
X9229468Y-14846793D01*
X9229468Y-14846793D02*
X9277087Y-14846793D01*
X9277087Y-14846793D02*
X9296135Y-14837269D01*
X9362801Y-14789650D02*
X9438992Y-14789650D01*
X9391373Y-14722984D02*
X9391373Y-14894412D01*
X9391373Y-14894412D02*
X9400896Y-14913460D01*
X9400896Y-14913460D02*
X9419944Y-14922984D01*
X9419944Y-14922984D02*
X9438992Y-14922984D01*
X9581849Y-14913460D02*
X9562801Y-14922984D01*
X9562801Y-14922984D02*
X9524706Y-14922984D01*
X9524706Y-14922984D02*
X9505658Y-14913460D01*
X9505658Y-14913460D02*
X9496135Y-14894412D01*
X9496135Y-14894412D02*
X9496135Y-14818222D01*
X9496135Y-14818222D02*
X9505658Y-14799174D01*
X9505658Y-14799174D02*
X9524706Y-14789650D01*
X9524706Y-14789650D02*
X9562801Y-14789650D01*
X9562801Y-14789650D02*
X9581849Y-14799174D01*
X9581849Y-14799174D02*
X9591373Y-14818222D01*
X9591373Y-14818222D02*
X9591373Y-14837269D01*
X9591373Y-14837269D02*
X9496135Y-14856317D01*
X9762801Y-14922984D02*
X9762801Y-14722984D01*
X9762801Y-14913460D02*
X9743754Y-14922984D01*
X9743754Y-14922984D02*
X9705658Y-14922984D01*
X9705658Y-14922984D02*
X9686611Y-14913460D01*
X9686611Y-14913460D02*
X9677087Y-14903936D01*
X9677087Y-14903936D02*
X9667563Y-14884888D01*
X9667563Y-14884888D02*
X9667563Y-14827746D01*
X9667563Y-14827746D02*
X9677087Y-14808698D01*
X9677087Y-14808698D02*
X9686611Y-14799174D01*
X9686611Y-14799174D02*
X9705658Y-14789650D01*
X9705658Y-14789650D02*
X9743754Y-14789650D01*
X9743754Y-14789650D02*
X9762801Y-14799174D01*
X9838992Y-14999174D02*
X9848516Y-14989650D01*
X9848516Y-14989650D02*
X9867563Y-14961079D01*
X9867563Y-14961079D02*
X9877087Y-14942031D01*
X9877087Y-14942031D02*
X9886611Y-14913460D01*
X9886611Y-14913460D02*
X9896135Y-14865841D01*
X9896135Y-14865841D02*
X9896135Y-14827746D01*
X9896135Y-14827746D02*
X9886611Y-14780127D01*
X9886611Y-14780127D02*
X9877087Y-14751555D01*
X9877087Y-14751555D02*
X9867563Y-14732508D01*
X9867563Y-14732508D02*
X9848516Y-14703936D01*
X9848516Y-14703936D02*
X9838992Y-14694412D01*
M02*
