%TF.GenerationSoftware,KiCad,Pcbnew,8.0.7*%
%TF.CreationDate,2024-12-17T23:30:12+08:00*%
%TF.ProjectId,PH60_Rev2,50483630-5f52-4657-9632-2e6b69636164,rev?*%
%TF.SameCoordinates,PX1b40518PY1b40518*%
%TF.FileFunction,Drillmap*%
%TF.FilePolarity,Positive*%
%FSLAX45Y45*%
G04 Gerber Fmt 4.5, Leading zero omitted, Abs format (unit mm)*
G04 Created by KiCad (PCBNEW 8.0.7) date 2024-12-17 23:30:12*
%MOMM*%
%LPD*%
G01*
G04 APERTURE LIST*
%ADD10C,0.050000*%
%ADD11C,0.200000*%
%ADD12C,0.100000*%
%ADD13C,0.175000*%
%ADD14C,0.250000*%
%ADD15C,0.304800*%
%ADD16C,0.305000*%
%ADD17C,0.398780*%
%ADD18C,0.400000*%
G04 APERTURE END LIST*
D10*
X28337500Y-9492500D02*
X237500Y-9492500D01*
X37500Y-232500D02*
G75*
G02*
X237500Y-32500I200000J0D01*
G01*
X237500Y-9492500D02*
G75*
G02*
X37500Y-9292500I0J200000D01*
G01*
X28337500Y-32500D02*
G75*
G02*
X28537500Y-232500I0J-200000D01*
G01*
X237500Y-32500D02*
X28337500Y-32500D01*
X28537500Y-232500D02*
X28537500Y-9292500D01*
X37500Y-9292500D02*
X37500Y-232500D01*
X28537500Y-9292500D02*
G75*
G02*
X28337500Y-9492500I-200000J0D01*
G01*
D11*
D12*
X1536000Y-478000D02*
X1601000Y-543000D01*
X1601000Y-478000D02*
X1536000Y-543000D01*
X2114000Y-478000D02*
X2179000Y-543000D01*
X2179000Y-478000D02*
X2114000Y-543000D01*
D13*
X532000Y-952500D02*
G75*
G02*
X357000Y-952500I-87500J0D01*
G01*
X357000Y-952500D02*
G75*
G02*
X532000Y-952500I87500J0D01*
G01*
X770125Y-4762500D02*
G75*
G02*
X595125Y-4762500I-87500J0D01*
G01*
X595125Y-4762500D02*
G75*
G02*
X770125Y-4762500I87500J0D01*
G01*
X770125Y-6667500D02*
G75*
G02*
X595125Y-6667500I-87500J0D01*
G01*
X595125Y-6667500D02*
G75*
G02*
X770125Y-6667500I87500J0D01*
G01*
X770125Y-8572500D02*
G75*
G02*
X595125Y-8572500I-87500J0D01*
G01*
X595125Y-8572500D02*
G75*
G02*
X770125Y-8572500I87500J0D01*
G01*
X1008250Y-2857500D02*
G75*
G02*
X833250Y-2857500I-87500J0D01*
G01*
X833250Y-2857500D02*
G75*
G02*
X1008250Y-2857500I87500J0D01*
G01*
X1008250Y-8572500D02*
G75*
G02*
X833250Y-8572500I-87500J0D01*
G01*
X833250Y-8572500D02*
G75*
G02*
X1008250Y-8572500I87500J0D01*
G01*
X1246375Y-4762500D02*
G75*
G02*
X1071375Y-4762500I-87500J0D01*
G01*
X1071375Y-4762500D02*
G75*
G02*
X1246375Y-4762500I87500J0D01*
G01*
X1548000Y-952500D02*
G75*
G02*
X1373000Y-952500I-87500J0D01*
G01*
X1373000Y-952500D02*
G75*
G02*
X1548000Y-952500I87500J0D01*
G01*
X1722625Y-6667500D02*
G75*
G02*
X1547625Y-6667500I-87500J0D01*
G01*
X1547625Y-6667500D02*
G75*
G02*
X1722625Y-6667500I87500J0D01*
G01*
X1786125Y-4762500D02*
G75*
G02*
X1611125Y-4762500I-87500J0D01*
G01*
X1611125Y-4762500D02*
G75*
G02*
X1786125Y-4762500I87500J0D01*
G01*
X1786125Y-6667500D02*
G75*
G02*
X1611125Y-6667500I-87500J0D01*
G01*
X1611125Y-6667500D02*
G75*
G02*
X1786125Y-6667500I87500J0D01*
G01*
X1786125Y-8572500D02*
G75*
G02*
X1611125Y-8572500I-87500J0D01*
G01*
X1611125Y-8572500D02*
G75*
G02*
X1786125Y-8572500I87500J0D01*
G01*
X2024250Y-2857500D02*
G75*
G02*
X1849250Y-2857500I-87500J0D01*
G01*
X1849250Y-2857500D02*
G75*
G02*
X2024250Y-2857500I87500J0D01*
G01*
X2024250Y-8572500D02*
G75*
G02*
X1849250Y-8572500I-87500J0D01*
G01*
X1849250Y-8572500D02*
G75*
G02*
X2024250Y-8572500I87500J0D01*
G01*
X2262375Y-4762500D02*
G75*
G02*
X2087375Y-4762500I-87500J0D01*
G01*
X2087375Y-4762500D02*
G75*
G02*
X2262375Y-4762500I87500J0D01*
G01*
X2437000Y-952500D02*
G75*
G02*
X2262000Y-952500I-87500J0D01*
G01*
X2262000Y-952500D02*
G75*
G02*
X2437000Y-952500I87500J0D01*
G01*
X2738625Y-6667500D02*
G75*
G02*
X2563625Y-6667500I-87500J0D01*
G01*
X2563625Y-6667500D02*
G75*
G02*
X2738625Y-6667500I87500J0D01*
G01*
X2913250Y-6667500D02*
G75*
G02*
X2738250Y-6667500I-87500J0D01*
G01*
X2738250Y-6667500D02*
G75*
G02*
X2913250Y-6667500I87500J0D01*
G01*
X3151375Y-8572500D02*
G75*
G02*
X2976375Y-8572500I-87500J0D01*
G01*
X2976375Y-8572500D02*
G75*
G02*
X3151375Y-8572500I87500J0D01*
G01*
X3389500Y-2857500D02*
G75*
G02*
X3214500Y-2857500I-87500J0D01*
G01*
X3214500Y-2857500D02*
G75*
G02*
X3389500Y-2857500I87500J0D01*
G01*
X3389500Y-8572500D02*
G75*
G02*
X3214500Y-8572500I-87500J0D01*
G01*
X3214500Y-8572500D02*
G75*
G02*
X3389500Y-8572500I87500J0D01*
G01*
X3453000Y-952500D02*
G75*
G02*
X3278000Y-952500I-87500J0D01*
G01*
X3278000Y-952500D02*
G75*
G02*
X3453000Y-952500I87500J0D01*
G01*
X3865750Y-4762500D02*
G75*
G02*
X3690750Y-4762500I-87500J0D01*
G01*
X3690750Y-4762500D02*
G75*
G02*
X3865750Y-4762500I87500J0D01*
G01*
X3929250Y-6667500D02*
G75*
G02*
X3754250Y-6667500I-87500J0D01*
G01*
X3754250Y-6667500D02*
G75*
G02*
X3929250Y-6667500I87500J0D01*
G01*
X4167375Y-8572500D02*
G75*
G02*
X3992375Y-8572500I-87500J0D01*
G01*
X3992375Y-8572500D02*
G75*
G02*
X4167375Y-8572500I87500J0D01*
G01*
X4342000Y-952500D02*
G75*
G02*
X4167000Y-952500I-87500J0D01*
G01*
X4167000Y-952500D02*
G75*
G02*
X4342000Y-952500I87500J0D01*
G01*
X4405500Y-2857500D02*
G75*
G02*
X4230500Y-2857500I-87500J0D01*
G01*
X4230500Y-2857500D02*
G75*
G02*
X4405500Y-2857500I87500J0D01*
G01*
X4405500Y-8572500D02*
G75*
G02*
X4230500Y-8572500I-87500J0D01*
G01*
X4230500Y-8572500D02*
G75*
G02*
X4405500Y-8572500I87500J0D01*
G01*
X4818250Y-6667500D02*
G75*
G02*
X4643250Y-6667500I-87500J0D01*
G01*
X4643250Y-6667500D02*
G75*
G02*
X4818250Y-6667500I87500J0D01*
G01*
X4881750Y-4762500D02*
G75*
G02*
X4706750Y-4762500I-87500J0D01*
G01*
X4706750Y-4762500D02*
G75*
G02*
X4881750Y-4762500I87500J0D01*
G01*
X5294500Y-2857500D02*
G75*
G02*
X5119500Y-2857500I-87500J0D01*
G01*
X5119500Y-2857500D02*
G75*
G02*
X5294500Y-2857500I87500J0D01*
G01*
X5358000Y-952500D02*
G75*
G02*
X5183000Y-952500I-87500J0D01*
G01*
X5183000Y-952500D02*
G75*
G02*
X5358000Y-952500I87500J0D01*
G01*
X5532625Y-8572500D02*
G75*
G02*
X5357625Y-8572500I-87500J0D01*
G01*
X5357625Y-8572500D02*
G75*
G02*
X5532625Y-8572500I87500J0D01*
G01*
X5770750Y-4762500D02*
G75*
G02*
X5595750Y-4762500I-87500J0D01*
G01*
X5595750Y-4762500D02*
G75*
G02*
X5770750Y-4762500I87500J0D01*
G01*
X5770750Y-8572500D02*
G75*
G02*
X5595750Y-8572500I-87500J0D01*
G01*
X5595750Y-8572500D02*
G75*
G02*
X5770750Y-8572500I87500J0D01*
G01*
X5834250Y-6667500D02*
G75*
G02*
X5659250Y-6667500I-87500J0D01*
G01*
X5659250Y-6667500D02*
G75*
G02*
X5834250Y-6667500I87500J0D01*
G01*
X6247000Y-952500D02*
G75*
G02*
X6072000Y-952500I-87500J0D01*
G01*
X6072000Y-952500D02*
G75*
G02*
X6247000Y-952500I87500J0D01*
G01*
X6310500Y-2857500D02*
G75*
G02*
X6135500Y-2857500I-87500J0D01*
G01*
X6135500Y-2857500D02*
G75*
G02*
X6310500Y-2857500I87500J0D01*
G01*
X6548625Y-8572500D02*
G75*
G02*
X6373625Y-8572500I-87500J0D01*
G01*
X6373625Y-8572500D02*
G75*
G02*
X6548625Y-8572500I87500J0D01*
G01*
X6723250Y-6667500D02*
G75*
G02*
X6548250Y-6667500I-87500J0D01*
G01*
X6548250Y-6667500D02*
G75*
G02*
X6723250Y-6667500I87500J0D01*
G01*
X6786750Y-4762500D02*
G75*
G02*
X6611750Y-4762500I-87500J0D01*
G01*
X6611750Y-4762500D02*
G75*
G02*
X6786750Y-4762500I87500J0D01*
G01*
X6786750Y-8572500D02*
G75*
G02*
X6611750Y-8572500I-87500J0D01*
G01*
X6611750Y-8572500D02*
G75*
G02*
X6786750Y-8572500I87500J0D01*
G01*
X7199500Y-2857500D02*
G75*
G02*
X7024500Y-2857500I-87500J0D01*
G01*
X7024500Y-2857500D02*
G75*
G02*
X7199500Y-2857500I87500J0D01*
G01*
X7263000Y-952500D02*
G75*
G02*
X7088000Y-952500I-87500J0D01*
G01*
X7088000Y-952500D02*
G75*
G02*
X7263000Y-952500I87500J0D01*
G01*
X7675750Y-4762500D02*
G75*
G02*
X7500750Y-4762500I-87500J0D01*
G01*
X7500750Y-4762500D02*
G75*
G02*
X7675750Y-4762500I87500J0D01*
G01*
X7739250Y-6667500D02*
G75*
G02*
X7564250Y-6667500I-87500J0D01*
G01*
X7564250Y-6667500D02*
G75*
G02*
X7739250Y-6667500I87500J0D01*
G01*
X8152000Y-952500D02*
G75*
G02*
X7977000Y-952500I-87500J0D01*
G01*
X7977000Y-952500D02*
G75*
G02*
X8152000Y-952500I87500J0D01*
G01*
X8215500Y-2857500D02*
G75*
G02*
X8040500Y-2857500I-87500J0D01*
G01*
X8040500Y-2857500D02*
G75*
G02*
X8215500Y-2857500I87500J0D01*
G01*
X8628250Y-6667500D02*
G75*
G02*
X8453250Y-6667500I-87500J0D01*
G01*
X8453250Y-6667500D02*
G75*
G02*
X8628250Y-6667500I87500J0D01*
G01*
X8691750Y-4762500D02*
G75*
G02*
X8516750Y-4762500I-87500J0D01*
G01*
X8516750Y-4762500D02*
G75*
G02*
X8691750Y-4762500I87500J0D01*
G01*
X9104500Y-2857500D02*
G75*
G02*
X8929500Y-2857500I-87500J0D01*
G01*
X8929500Y-2857500D02*
G75*
G02*
X9104500Y-2857500I87500J0D01*
G01*
X9168000Y-952500D02*
G75*
G02*
X8993000Y-952500I-87500J0D01*
G01*
X8993000Y-952500D02*
G75*
G02*
X9168000Y-952500I87500J0D01*
G01*
X9580750Y-4762500D02*
G75*
G02*
X9405750Y-4762500I-87500J0D01*
G01*
X9405750Y-4762500D02*
G75*
G02*
X9580750Y-4762500I87500J0D01*
G01*
X9644250Y-6667500D02*
G75*
G02*
X9469250Y-6667500I-87500J0D01*
G01*
X9469250Y-6667500D02*
G75*
G02*
X9644250Y-6667500I87500J0D01*
G01*
X10057000Y-952500D02*
G75*
G02*
X9882000Y-952500I-87500J0D01*
G01*
X9882000Y-952500D02*
G75*
G02*
X10057000Y-952500I87500J0D01*
G01*
X10120500Y-2857500D02*
G75*
G02*
X9945500Y-2857500I-87500J0D01*
G01*
X9945500Y-2857500D02*
G75*
G02*
X10120500Y-2857500I87500J0D01*
G01*
X10533250Y-6667500D02*
G75*
G02*
X10358250Y-6667500I-87500J0D01*
G01*
X10358250Y-6667500D02*
G75*
G02*
X10533250Y-6667500I87500J0D01*
G01*
X10596750Y-4762500D02*
G75*
G02*
X10421750Y-4762500I-87500J0D01*
G01*
X10421750Y-4762500D02*
G75*
G02*
X10596750Y-4762500I87500J0D01*
G01*
X11009500Y-2857500D02*
G75*
G02*
X10834500Y-2857500I-87500J0D01*
G01*
X10834500Y-2857500D02*
G75*
G02*
X11009500Y-2857500I87500J0D01*
G01*
X11073000Y-952500D02*
G75*
G02*
X10898000Y-952500I-87500J0D01*
G01*
X10898000Y-952500D02*
G75*
G02*
X11073000Y-952500I87500J0D01*
G01*
X11485750Y-4762500D02*
G75*
G02*
X11310750Y-4762500I-87500J0D01*
G01*
X11310750Y-4762500D02*
G75*
G02*
X11485750Y-4762500I87500J0D01*
G01*
X11549250Y-6667500D02*
G75*
G02*
X11374250Y-6667500I-87500J0D01*
G01*
X11374250Y-6667500D02*
G75*
G02*
X11549250Y-6667500I87500J0D01*
G01*
X11962000Y-952500D02*
G75*
G02*
X11787000Y-952500I-87500J0D01*
G01*
X11787000Y-952500D02*
G75*
G02*
X11962000Y-952500I87500J0D01*
G01*
X12025500Y-2857500D02*
G75*
G02*
X11850500Y-2857500I-87500J0D01*
G01*
X11850500Y-2857500D02*
G75*
G02*
X12025500Y-2857500I87500J0D01*
G01*
X12438250Y-6667500D02*
G75*
G02*
X12263250Y-6667500I-87500J0D01*
G01*
X12263250Y-6667500D02*
G75*
G02*
X12438250Y-6667500I87500J0D01*
G01*
X12501750Y-4762500D02*
G75*
G02*
X12326750Y-4762500I-87500J0D01*
G01*
X12326750Y-4762500D02*
G75*
G02*
X12501750Y-4762500I87500J0D01*
G01*
X12676375Y-8572500D02*
G75*
G02*
X12501375Y-8572500I-87500J0D01*
G01*
X12501375Y-8572500D02*
G75*
G02*
X12676375Y-8572500I87500J0D01*
G01*
X12914500Y-2857500D02*
G75*
G02*
X12739500Y-2857500I-87500J0D01*
G01*
X12739500Y-2857500D02*
G75*
G02*
X12914500Y-2857500I87500J0D01*
G01*
X12978000Y-952500D02*
G75*
G02*
X12803000Y-952500I-87500J0D01*
G01*
X12803000Y-952500D02*
G75*
G02*
X12978000Y-952500I87500J0D01*
G01*
X13390750Y-4762500D02*
G75*
G02*
X13215750Y-4762500I-87500J0D01*
G01*
X13215750Y-4762500D02*
G75*
G02*
X13390750Y-4762500I87500J0D01*
G01*
X13454250Y-6667500D02*
G75*
G02*
X13279250Y-6667500I-87500J0D01*
G01*
X13279250Y-6667500D02*
G75*
G02*
X13454250Y-6667500I87500J0D01*
G01*
X13692375Y-8572500D02*
G75*
G02*
X13517375Y-8572500I-87500J0D01*
G01*
X13517375Y-8572500D02*
G75*
G02*
X13692375Y-8572500I87500J0D01*
G01*
X13867000Y-952500D02*
G75*
G02*
X13692000Y-952500I-87500J0D01*
G01*
X13692000Y-952500D02*
G75*
G02*
X13867000Y-952500I87500J0D01*
G01*
X13867000Y-8572500D02*
G75*
G02*
X13692000Y-8572500I-87500J0D01*
G01*
X13692000Y-8572500D02*
G75*
G02*
X13867000Y-8572500I87500J0D01*
G01*
X13930500Y-2857500D02*
G75*
G02*
X13755500Y-2857500I-87500J0D01*
G01*
X13755500Y-2857500D02*
G75*
G02*
X13930500Y-2857500I87500J0D01*
G01*
X14343250Y-6667500D02*
G75*
G02*
X14168250Y-6667500I-87500J0D01*
G01*
X14168250Y-6667500D02*
G75*
G02*
X14343250Y-6667500I87500J0D01*
G01*
X14406750Y-4762500D02*
G75*
G02*
X14231750Y-4762500I-87500J0D01*
G01*
X14231750Y-4762500D02*
G75*
G02*
X14406750Y-4762500I87500J0D01*
G01*
X14819500Y-2857500D02*
G75*
G02*
X14644500Y-2857500I-87500J0D01*
G01*
X14644500Y-2857500D02*
G75*
G02*
X14819500Y-2857500I87500J0D01*
G01*
X14883000Y-952500D02*
G75*
G02*
X14708000Y-952500I-87500J0D01*
G01*
X14708000Y-952500D02*
G75*
G02*
X14883000Y-952500I87500J0D01*
G01*
X14883000Y-8572500D02*
G75*
G02*
X14708000Y-8572500I-87500J0D01*
G01*
X14708000Y-8572500D02*
G75*
G02*
X14883000Y-8572500I87500J0D01*
G01*
X15295750Y-4762500D02*
G75*
G02*
X15120750Y-4762500I-87500J0D01*
G01*
X15120750Y-4762500D02*
G75*
G02*
X15295750Y-4762500I87500J0D01*
G01*
X15359250Y-6667500D02*
G75*
G02*
X15184250Y-6667500I-87500J0D01*
G01*
X15184250Y-6667500D02*
G75*
G02*
X15359250Y-6667500I87500J0D01*
G01*
X15772000Y-952500D02*
G75*
G02*
X15597000Y-952500I-87500J0D01*
G01*
X15597000Y-952500D02*
G75*
G02*
X15772000Y-952500I87500J0D01*
G01*
X15835500Y-2857500D02*
G75*
G02*
X15660500Y-2857500I-87500J0D01*
G01*
X15660500Y-2857500D02*
G75*
G02*
X15835500Y-2857500I87500J0D01*
G01*
X16248250Y-6667500D02*
G75*
G02*
X16073250Y-6667500I-87500J0D01*
G01*
X16073250Y-6667500D02*
G75*
G02*
X16248250Y-6667500I87500J0D01*
G01*
X16311750Y-4762500D02*
G75*
G02*
X16136750Y-4762500I-87500J0D01*
G01*
X16136750Y-4762500D02*
G75*
G02*
X16311750Y-4762500I87500J0D01*
G01*
X16724500Y-2857500D02*
G75*
G02*
X16549500Y-2857500I-87500J0D01*
G01*
X16549500Y-2857500D02*
G75*
G02*
X16724500Y-2857500I87500J0D01*
G01*
X16788000Y-952500D02*
G75*
G02*
X16613000Y-952500I-87500J0D01*
G01*
X16613000Y-952500D02*
G75*
G02*
X16788000Y-952500I87500J0D01*
G01*
X17200750Y-4762500D02*
G75*
G02*
X17025750Y-4762500I-87500J0D01*
G01*
X17025750Y-4762500D02*
G75*
G02*
X17200750Y-4762500I87500J0D01*
G01*
X17264250Y-6667500D02*
G75*
G02*
X17089250Y-6667500I-87500J0D01*
G01*
X17089250Y-6667500D02*
G75*
G02*
X17264250Y-6667500I87500J0D01*
G01*
X17677000Y-952500D02*
G75*
G02*
X17502000Y-952500I-87500J0D01*
G01*
X17502000Y-952500D02*
G75*
G02*
X17677000Y-952500I87500J0D01*
G01*
X17740500Y-2857500D02*
G75*
G02*
X17565500Y-2857500I-87500J0D01*
G01*
X17565500Y-2857500D02*
G75*
G02*
X17740500Y-2857500I87500J0D01*
G01*
X18153250Y-6667500D02*
G75*
G02*
X17978250Y-6667500I-87500J0D01*
G01*
X17978250Y-6667500D02*
G75*
G02*
X18153250Y-6667500I87500J0D01*
G01*
X18216750Y-4762500D02*
G75*
G02*
X18041750Y-4762500I-87500J0D01*
G01*
X18041750Y-4762500D02*
G75*
G02*
X18216750Y-4762500I87500J0D01*
G01*
X18629500Y-2857500D02*
G75*
G02*
X18454500Y-2857500I-87500J0D01*
G01*
X18454500Y-2857500D02*
G75*
G02*
X18629500Y-2857500I87500J0D01*
G01*
X18693000Y-952500D02*
G75*
G02*
X18518000Y-952500I-87500J0D01*
G01*
X18518000Y-952500D02*
G75*
G02*
X18693000Y-952500I87500J0D01*
G01*
X19105750Y-4762500D02*
G75*
G02*
X18930750Y-4762500I-87500J0D01*
G01*
X18930750Y-4762500D02*
G75*
G02*
X19105750Y-4762500I87500J0D01*
G01*
X19169250Y-6667500D02*
G75*
G02*
X18994250Y-6667500I-87500J0D01*
G01*
X18994250Y-6667500D02*
G75*
G02*
X19169250Y-6667500I87500J0D01*
G01*
X19582000Y-952500D02*
G75*
G02*
X19407000Y-952500I-87500J0D01*
G01*
X19407000Y-952500D02*
G75*
G02*
X19582000Y-952500I87500J0D01*
G01*
X19645500Y-2857500D02*
G75*
G02*
X19470500Y-2857500I-87500J0D01*
G01*
X19470500Y-2857500D02*
G75*
G02*
X19645500Y-2857500I87500J0D01*
G01*
X19820125Y-8572500D02*
G75*
G02*
X19645125Y-8572500I-87500J0D01*
G01*
X19645125Y-8572500D02*
G75*
G02*
X19820125Y-8572500I87500J0D01*
G01*
X20058250Y-6667500D02*
G75*
G02*
X19883250Y-6667500I-87500J0D01*
G01*
X19883250Y-6667500D02*
G75*
G02*
X20058250Y-6667500I87500J0D01*
G01*
X20121750Y-4762500D02*
G75*
G02*
X19946750Y-4762500I-87500J0D01*
G01*
X19946750Y-4762500D02*
G75*
G02*
X20121750Y-4762500I87500J0D01*
G01*
X20534500Y-2857500D02*
G75*
G02*
X20359500Y-2857500I-87500J0D01*
G01*
X20359500Y-2857500D02*
G75*
G02*
X20534500Y-2857500I87500J0D01*
G01*
X20598000Y-952500D02*
G75*
G02*
X20423000Y-952500I-87500J0D01*
G01*
X20423000Y-952500D02*
G75*
G02*
X20598000Y-952500I87500J0D01*
G01*
X20836125Y-8572500D02*
G75*
G02*
X20661125Y-8572500I-87500J0D01*
G01*
X20661125Y-8572500D02*
G75*
G02*
X20836125Y-8572500I87500J0D01*
G01*
X21010750Y-4762500D02*
G75*
G02*
X20835750Y-4762500I-87500J0D01*
G01*
X20835750Y-4762500D02*
G75*
G02*
X21010750Y-4762500I87500J0D01*
G01*
X21074250Y-6667500D02*
G75*
G02*
X20899250Y-6667500I-87500J0D01*
G01*
X20899250Y-6667500D02*
G75*
G02*
X21074250Y-6667500I87500J0D01*
G01*
X21487000Y-952500D02*
G75*
G02*
X21312000Y-952500I-87500J0D01*
G01*
X21312000Y-952500D02*
G75*
G02*
X21487000Y-952500I87500J0D01*
G01*
X21550500Y-2857500D02*
G75*
G02*
X21375500Y-2857500I-87500J0D01*
G01*
X21375500Y-2857500D02*
G75*
G02*
X21550500Y-2857500I87500J0D01*
G01*
X21963250Y-6667500D02*
G75*
G02*
X21788250Y-6667500I-87500J0D01*
G01*
X21788250Y-6667500D02*
G75*
G02*
X21963250Y-6667500I87500J0D01*
G01*
X21963250Y-8572500D02*
G75*
G02*
X21788250Y-8572500I-87500J0D01*
G01*
X21788250Y-8572500D02*
G75*
G02*
X21963250Y-8572500I87500J0D01*
G01*
X22026750Y-4762500D02*
G75*
G02*
X21851750Y-4762500I-87500J0D01*
G01*
X21851750Y-4762500D02*
G75*
G02*
X22026750Y-4762500I87500J0D01*
G01*
X22201375Y-8572500D02*
G75*
G02*
X22026375Y-8572500I-87500J0D01*
G01*
X22026375Y-8572500D02*
G75*
G02*
X22201375Y-8572500I87500J0D01*
G01*
X22439500Y-2857500D02*
G75*
G02*
X22264500Y-2857500I-87500J0D01*
G01*
X22264500Y-2857500D02*
G75*
G02*
X22439500Y-2857500I87500J0D01*
G01*
X22503000Y-952500D02*
G75*
G02*
X22328000Y-952500I-87500J0D01*
G01*
X22328000Y-952500D02*
G75*
G02*
X22503000Y-952500I87500J0D01*
G01*
X22915750Y-4762500D02*
G75*
G02*
X22740750Y-4762500I-87500J0D01*
G01*
X22740750Y-4762500D02*
G75*
G02*
X22915750Y-4762500I87500J0D01*
G01*
X22979250Y-6667500D02*
G75*
G02*
X22804250Y-6667500I-87500J0D01*
G01*
X22804250Y-6667500D02*
G75*
G02*
X22979250Y-6667500I87500J0D01*
G01*
X22979250Y-8572500D02*
G75*
G02*
X22804250Y-8572500I-87500J0D01*
G01*
X22804250Y-8572500D02*
G75*
G02*
X22979250Y-8572500I87500J0D01*
G01*
X23217375Y-8572500D02*
G75*
G02*
X23042375Y-8572500I-87500J0D01*
G01*
X23042375Y-8572500D02*
G75*
G02*
X23217375Y-8572500I87500J0D01*
G01*
X23392000Y-952500D02*
G75*
G02*
X23217000Y-952500I-87500J0D01*
G01*
X23217000Y-952500D02*
G75*
G02*
X23392000Y-952500I87500J0D01*
G01*
X23455500Y-2857500D02*
G75*
G02*
X23280500Y-2857500I-87500J0D01*
G01*
X23280500Y-2857500D02*
G75*
G02*
X23455500Y-2857500I87500J0D01*
G01*
X23931750Y-4762500D02*
G75*
G02*
X23756750Y-4762500I-87500J0D01*
G01*
X23756750Y-4762500D02*
G75*
G02*
X23931750Y-4762500I87500J0D01*
G01*
X24344500Y-2857500D02*
G75*
G02*
X24169500Y-2857500I-87500J0D01*
G01*
X24169500Y-2857500D02*
G75*
G02*
X24344500Y-2857500I87500J0D01*
G01*
X24344500Y-8572500D02*
G75*
G02*
X24169500Y-8572500I-87500J0D01*
G01*
X24169500Y-8572500D02*
G75*
G02*
X24344500Y-8572500I87500J0D01*
G01*
X24408000Y-952500D02*
G75*
G02*
X24233000Y-952500I-87500J0D01*
G01*
X24233000Y-952500D02*
G75*
G02*
X24408000Y-952500I87500J0D01*
G01*
X24582625Y-6667500D02*
G75*
G02*
X24407625Y-6667500I-87500J0D01*
G01*
X24407625Y-6667500D02*
G75*
G02*
X24582625Y-6667500I87500J0D01*
G01*
X24582625Y-8572500D02*
G75*
G02*
X24407625Y-8572500I-87500J0D01*
G01*
X24407625Y-8572500D02*
G75*
G02*
X24582625Y-8572500I87500J0D01*
G01*
X25297000Y-952500D02*
G75*
G02*
X25122000Y-952500I-87500J0D01*
G01*
X25122000Y-952500D02*
G75*
G02*
X25297000Y-952500I87500J0D01*
G01*
X25328750Y-4254500D02*
G75*
G02*
X25153750Y-4254500I-87500J0D01*
G01*
X25153750Y-4254500D02*
G75*
G02*
X25328750Y-4254500I87500J0D01*
G01*
X25328750Y-5270500D02*
G75*
G02*
X25153750Y-5270500I-87500J0D01*
G01*
X25153750Y-5270500D02*
G75*
G02*
X25328750Y-5270500I87500J0D01*
G01*
X25360500Y-2857500D02*
G75*
G02*
X25185500Y-2857500I-87500J0D01*
G01*
X25185500Y-2857500D02*
G75*
G02*
X25360500Y-2857500I87500J0D01*
G01*
X25360500Y-8572500D02*
G75*
G02*
X25185500Y-8572500I-87500J0D01*
G01*
X25185500Y-8572500D02*
G75*
G02*
X25360500Y-8572500I87500J0D01*
G01*
X25535125Y-6667500D02*
G75*
G02*
X25360125Y-6667500I-87500J0D01*
G01*
X25360125Y-6667500D02*
G75*
G02*
X25535125Y-6667500I87500J0D01*
G01*
X25598625Y-6667500D02*
G75*
G02*
X25423625Y-6667500I-87500J0D01*
G01*
X25423625Y-6667500D02*
G75*
G02*
X25598625Y-6667500I87500J0D01*
G01*
X25598625Y-8572500D02*
G75*
G02*
X25423625Y-8572500I-87500J0D01*
G01*
X25423625Y-8572500D02*
G75*
G02*
X25598625Y-8572500I87500J0D01*
G01*
X26249500Y-952500D02*
G75*
G02*
X26074500Y-952500I-87500J0D01*
G01*
X26074500Y-952500D02*
G75*
G02*
X26249500Y-952500I87500J0D01*
G01*
X26313000Y-952500D02*
G75*
G02*
X26138000Y-952500I-87500J0D01*
G01*
X26138000Y-952500D02*
G75*
G02*
X26313000Y-952500I87500J0D01*
G01*
X26519375Y-4254500D02*
G75*
G02*
X26344375Y-4254500I-87500J0D01*
G01*
X26344375Y-4254500D02*
G75*
G02*
X26519375Y-4254500I87500J0D01*
G01*
X26519375Y-5270500D02*
G75*
G02*
X26344375Y-5270500I-87500J0D01*
G01*
X26344375Y-5270500D02*
G75*
G02*
X26519375Y-5270500I87500J0D01*
G01*
X26551125Y-6667500D02*
G75*
G02*
X26376125Y-6667500I-87500J0D01*
G01*
X26376125Y-6667500D02*
G75*
G02*
X26551125Y-6667500I87500J0D01*
G01*
X26725750Y-8572500D02*
G75*
G02*
X26550750Y-8572500I-87500J0D01*
G01*
X26550750Y-8572500D02*
G75*
G02*
X26725750Y-8572500I87500J0D01*
G01*
X26963875Y-8572500D02*
G75*
G02*
X26788875Y-8572500I-87500J0D01*
G01*
X26788875Y-8572500D02*
G75*
G02*
X26963875Y-8572500I87500J0D01*
G01*
X27202000Y-952500D02*
G75*
G02*
X27027000Y-952500I-87500J0D01*
G01*
X27027000Y-952500D02*
G75*
G02*
X27202000Y-952500I87500J0D01*
G01*
X27233750Y-2349500D02*
G75*
G02*
X27058750Y-2349500I-87500J0D01*
G01*
X27058750Y-2349500D02*
G75*
G02*
X27233750Y-2349500I87500J0D01*
G01*
X27233750Y-3365500D02*
G75*
G02*
X27058750Y-3365500I-87500J0D01*
G01*
X27058750Y-3365500D02*
G75*
G02*
X27233750Y-3365500I87500J0D01*
G01*
X27265500Y-952500D02*
G75*
G02*
X27090500Y-952500I-87500J0D01*
G01*
X27090500Y-952500D02*
G75*
G02*
X27265500Y-952500I87500J0D01*
G01*
X27471875Y-3302000D02*
G75*
G02*
X27296875Y-3302000I-87500J0D01*
G01*
X27296875Y-3302000D02*
G75*
G02*
X27471875Y-3302000I87500J0D01*
G01*
X27471875Y-4318000D02*
G75*
G02*
X27296875Y-4318000I-87500J0D01*
G01*
X27296875Y-4318000D02*
G75*
G02*
X27471875Y-4318000I87500J0D01*
G01*
X27710000Y-6159500D02*
G75*
G02*
X27535000Y-6159500I-87500J0D01*
G01*
X27535000Y-6159500D02*
G75*
G02*
X27710000Y-6159500I87500J0D01*
G01*
X27710000Y-7175500D02*
G75*
G02*
X27535000Y-7175500I-87500J0D01*
G01*
X27535000Y-7175500D02*
G75*
G02*
X27710000Y-7175500I87500J0D01*
G01*
X27741750Y-8572500D02*
G75*
G02*
X27566750Y-8572500I-87500J0D01*
G01*
X27566750Y-8572500D02*
G75*
G02*
X27741750Y-8572500I87500J0D01*
G01*
X27979875Y-8572500D02*
G75*
G02*
X27804875Y-8572500I-87500J0D01*
G01*
X27804875Y-8572500D02*
G75*
G02*
X27979875Y-8572500I87500J0D01*
G01*
X28218000Y-952500D02*
G75*
G02*
X28043000Y-952500I-87500J0D01*
G01*
X28043000Y-952500D02*
G75*
G02*
X28218000Y-952500I87500J0D01*
G01*
D14*
X183500Y-5557500D02*
X183500Y-5807500D01*
X58500Y-5682500D02*
X308500Y-5682500D01*
D12*
X-41500Y-5807500D02*
X408500Y-5807500D01*
X408500Y-5557500D02*
G75*
G02*
X408500Y-5807500I0J-125000D01*
G01*
X408500Y-5557500D02*
X-41500Y-5557500D01*
X-41500Y-5557500D02*
G75*
G03*
X-41500Y-5807500I0J-125000D01*
G01*
D14*
X2557500Y-2697500D02*
X2557500Y-2947500D01*
X2432500Y-2822500D02*
X2682500Y-2822500D01*
X12857500Y-4607500D02*
X12857500Y-4857500D01*
X12732500Y-4732500D02*
X12982500Y-4732500D01*
D12*
X12732500Y-4857500D02*
X12982500Y-4857500D01*
X12982500Y-4607500D02*
G75*
G02*
X12982500Y-4857500I0J-125000D01*
G01*
X12982500Y-4607500D02*
X12732500Y-4607500D01*
X12732500Y-4607500D02*
G75*
G03*
X12732500Y-4857500I0J-125000D01*
G01*
D14*
X19087500Y-8427500D02*
X19087500Y-8677500D01*
X18962500Y-8552500D02*
X19212500Y-8552500D01*
D12*
X18962500Y-8677500D02*
X19212500Y-8677500D01*
X19212500Y-8427500D02*
G75*
G02*
X19212500Y-8677500I0J-125000D01*
G01*
X19212500Y-8427500D02*
X18962500Y-8427500D01*
X18962500Y-8427500D02*
G75*
G03*
X18962500Y-8677500I0J-125000D01*
G01*
D14*
X26042500Y-2697500D02*
X26042500Y-2947500D01*
X25917500Y-2822500D02*
X26167500Y-2822500D01*
D12*
X25917500Y-2947500D02*
X26167500Y-2947500D01*
X26167500Y-2697500D02*
G75*
G02*
X26167500Y-2947500I0J-125000D01*
G01*
X26167500Y-2697500D02*
X25917500Y-2697500D01*
X25917500Y-2697500D02*
G75*
G03*
X25917500Y-2947500I0J-125000D01*
G01*
D14*
X28391500Y-5557500D02*
X28391500Y-5807500D01*
X28266500Y-5682500D02*
X28516500Y-5682500D01*
D12*
X28166500Y-5807500D02*
X28616500Y-5807500D01*
X28616500Y-5557500D02*
G75*
G02*
X28616500Y-5807500I0J-125000D01*
G01*
X28616500Y-5557500D02*
X28166500Y-5557500D01*
X28166500Y-5557500D02*
G75*
G03*
X28166500Y-5807500I0J-125000D01*
G01*
D15*
X1057089Y-7473764D02*
X1057089Y-7258236D01*
X841561Y-7258236D01*
X841561Y-7473764D01*
X1057089Y-7473764D01*
X3444689Y-7473764D02*
X3444689Y-7258236D01*
X3229161Y-7258236D01*
X3229161Y-7473764D01*
X3444689Y-7473764D01*
X8204639Y-9378764D02*
X8204639Y-9163236D01*
X7989111Y-9163236D01*
X7989111Y-9378764D01*
X8204639Y-9378764D01*
X8680264Y-9378764D02*
X8680264Y-9163236D01*
X8464736Y-9163236D01*
X8464736Y-9378764D01*
X8680264Y-9378764D01*
X18204639Y-9378764D02*
X18204639Y-9163236D01*
X17989111Y-9163236D01*
X17989111Y-9378764D01*
X18204639Y-9378764D01*
X20110264Y-9378764D02*
X20110264Y-9163236D01*
X19894736Y-9163236D01*
X19894736Y-9378764D01*
X20110264Y-9378764D01*
X24869589Y-6076764D02*
X24869589Y-5861236D01*
X24654061Y-5861236D01*
X24654061Y-6076764D01*
X24869589Y-6076764D01*
X25345839Y-4171764D02*
X25345839Y-3956236D01*
X25130311Y-3956236D01*
X25130311Y-4171764D01*
X25345839Y-4171764D01*
X25583964Y-361764D02*
X25583964Y-146236D01*
X25368436Y-146236D01*
X25368436Y-361764D01*
X25583964Y-361764D01*
X26793639Y-2723964D02*
X26793639Y-2508436D01*
X26578111Y-2508436D01*
X26578111Y-2723964D01*
X26793639Y-2723964D01*
X26793639Y-5111564D02*
X26793639Y-4896036D01*
X26578111Y-4896036D01*
X26578111Y-5111564D01*
X26793639Y-5111564D01*
X27257189Y-6076764D02*
X27257189Y-5861236D01*
X27041661Y-5861236D01*
X27041661Y-6076764D01*
X27257189Y-6076764D01*
X27733439Y-4171764D02*
X27733439Y-3956236D01*
X27517911Y-3956236D01*
X27517911Y-4171764D01*
X27733439Y-4171764D01*
X27971564Y-361764D02*
X27971564Y-146236D01*
X27756036Y-146236D01*
X27756036Y-361764D01*
X27971564Y-361764D01*
D16*
X24749125Y-7328000D02*
X24901625Y-7175500D01*
X24749125Y-7023000D01*
X24596625Y-7175500D01*
X24749125Y-7328000D01*
X25463500Y-1613000D02*
X25616000Y-1460500D01*
X25463500Y-1308000D01*
X25311000Y-1460500D01*
X25463500Y-1613000D01*
D17*
X749935Y-5645610D02*
X1148715Y-6044390D01*
X1148715Y-5645610D02*
X749935Y-6044390D01*
X1148715Y-5845000D02*
G75*
G02*
X749935Y-5845000I-199390J0D01*
G01*
X749935Y-5845000D02*
G75*
G02*
X1148715Y-5845000I199390J0D01*
G01*
X3137535Y-5645610D02*
X3536315Y-6044390D01*
X3536315Y-5645610D02*
X3137535Y-6044390D01*
X3536315Y-5845000D02*
G75*
G02*
X3137535Y-5845000I-199390J0D01*
G01*
X3137535Y-5845000D02*
G75*
G02*
X3536315Y-5845000I199390J0D01*
G01*
X7897485Y-7550610D02*
X8296265Y-7949390D01*
X8296265Y-7550610D02*
X7897485Y-7949390D01*
X8296265Y-7750000D02*
G75*
G02*
X7897485Y-7750000I-199390J0D01*
G01*
X7897485Y-7750000D02*
G75*
G02*
X8296265Y-7750000I199390J0D01*
G01*
X8373110Y-7550610D02*
X8771890Y-7949390D01*
X8771890Y-7550610D02*
X8373110Y-7949390D01*
X8771890Y-7750000D02*
G75*
G02*
X8373110Y-7750000I-199390J0D01*
G01*
X8373110Y-7750000D02*
G75*
G02*
X8771890Y-7750000I199390J0D01*
G01*
X17897485Y-7550610D02*
X18296265Y-7949390D01*
X18296265Y-7550610D02*
X17897485Y-7949390D01*
X18296265Y-7750000D02*
G75*
G02*
X17897485Y-7750000I-199390J0D01*
G01*
X17897485Y-7750000D02*
G75*
G02*
X18296265Y-7750000I199390J0D01*
G01*
X19803110Y-7550610D02*
X20201890Y-7949390D01*
X20201890Y-7550610D02*
X19803110Y-7949390D01*
X20201890Y-7750000D02*
G75*
G02*
X19803110Y-7750000I-199390J0D01*
G01*
X19803110Y-7750000D02*
G75*
G02*
X20201890Y-7750000I199390J0D01*
G01*
X24562435Y-7290610D02*
X24961215Y-7689390D01*
X24961215Y-7290610D02*
X24562435Y-7689390D01*
X24961215Y-7490000D02*
G75*
G02*
X24562435Y-7490000I-199390J0D01*
G01*
X24562435Y-7490000D02*
G75*
G02*
X24961215Y-7490000I199390J0D01*
G01*
X25038685Y-5385610D02*
X25437465Y-5784390D01*
X25437465Y-5385610D02*
X25038685Y-5784390D01*
X25437465Y-5585000D02*
G75*
G02*
X25038685Y-5585000I-199390J0D01*
G01*
X25038685Y-5585000D02*
G75*
G02*
X25437465Y-5585000I199390J0D01*
G01*
X25276810Y-1575610D02*
X25675590Y-1974390D01*
X25675590Y-1575610D02*
X25276810Y-1974390D01*
X25675590Y-1775000D02*
G75*
G02*
X25276810Y-1775000I-199390J0D01*
G01*
X25276810Y-1775000D02*
G75*
G02*
X25675590Y-1775000I199390J0D01*
G01*
X26950035Y-7290610D02*
X27348815Y-7689390D01*
X27348815Y-7290610D02*
X26950035Y-7689390D01*
X27348815Y-7490000D02*
G75*
G02*
X26950035Y-7490000I-199390J0D01*
G01*
X26950035Y-7490000D02*
G75*
G02*
X27348815Y-7490000I199390J0D01*
G01*
X27426285Y-5385610D02*
X27825065Y-5784390D01*
X27825065Y-5385610D02*
X27426285Y-5784390D01*
X27825065Y-5585000D02*
G75*
G02*
X27426285Y-5585000I-199390J0D01*
G01*
X27426285Y-5585000D02*
G75*
G02*
X27825065Y-5585000I199390J0D01*
G01*
X27664410Y-1575610D02*
X28063190Y-1974390D01*
X28063190Y-1575610D02*
X27664410Y-1974390D01*
X28063190Y-1775000D02*
G75*
G02*
X27664410Y-1775000I-199390J0D01*
G01*
X27664410Y-1775000D02*
G75*
G02*
X28063190Y-1775000I199390J0D01*
G01*
X28007485Y-2416810D02*
X28406265Y-2815590D01*
X28406265Y-2416810D02*
X28007485Y-2815590D01*
X28406265Y-2616200D02*
G75*
G02*
X28007485Y-2616200I-199390J0D01*
G01*
X28007485Y-2616200D02*
G75*
G02*
X28406265Y-2616200I199390J0D01*
G01*
X28007485Y-4804410D02*
X28406265Y-5203190D01*
X28406265Y-4804410D02*
X28007485Y-5203190D01*
X28406265Y-5003800D02*
G75*
G02*
X28007485Y-5003800I-199390J0D01*
G01*
X28007485Y-5003800D02*
G75*
G02*
X28406265Y-5003800I199390J0D01*
G01*
D18*
X752500Y-752500D02*
X1152500Y-1152500D01*
X1152500Y-752500D02*
X752500Y-1152500D01*
X952500Y-752500D02*
X952500Y-1152500D01*
X752500Y-952500D02*
X1152500Y-952500D01*
X990625Y-4562500D02*
X1390625Y-4962500D01*
X1390625Y-4562500D02*
X990625Y-4962500D01*
X1190625Y-4562500D02*
X1190625Y-4962500D01*
X990625Y-4762500D02*
X1390625Y-4762500D01*
X990625Y-6467500D02*
X1390625Y-6867500D01*
X1390625Y-6467500D02*
X990625Y-6867500D01*
X1190625Y-6467500D02*
X1190625Y-6867500D01*
X990625Y-6667500D02*
X1390625Y-6667500D01*
X990625Y-8372500D02*
X1390625Y-8772500D01*
X1390625Y-8372500D02*
X990625Y-8772500D01*
X1190625Y-8372500D02*
X1190625Y-8772500D01*
X990625Y-8572500D02*
X1390625Y-8572500D01*
X1228750Y-2657500D02*
X1628750Y-3057500D01*
X1628750Y-2657500D02*
X1228750Y-3057500D01*
X1428750Y-2657500D02*
X1428750Y-3057500D01*
X1228750Y-2857500D02*
X1628750Y-2857500D01*
X1228750Y-8372500D02*
X1628750Y-8772500D01*
X1628750Y-8372500D02*
X1228750Y-8772500D01*
X1428750Y-8372500D02*
X1428750Y-8772500D01*
X1228750Y-8572500D02*
X1628750Y-8572500D01*
X1466875Y-4562500D02*
X1866875Y-4962500D01*
X1866875Y-4562500D02*
X1466875Y-4962500D01*
X1666875Y-4562500D02*
X1666875Y-4962500D01*
X1466875Y-4762500D02*
X1866875Y-4762500D01*
X1943125Y-6467500D02*
X2343125Y-6867500D01*
X2343125Y-6467500D02*
X1943125Y-6867500D01*
X2143125Y-6467500D02*
X2143125Y-6867500D01*
X1943125Y-6667500D02*
X2343125Y-6667500D01*
X2657500Y-752500D02*
X3057500Y-1152500D01*
X3057500Y-752500D02*
X2657500Y-1152500D01*
X2857500Y-752500D02*
X2857500Y-1152500D01*
X2657500Y-952500D02*
X3057500Y-952500D01*
X3133750Y-6467500D02*
X3533750Y-6867500D01*
X3533750Y-6467500D02*
X3133750Y-6867500D01*
X3333750Y-6467500D02*
X3333750Y-6867500D01*
X3133750Y-6667500D02*
X3533750Y-6667500D01*
X3371875Y-8372500D02*
X3771875Y-8772500D01*
X3771875Y-8372500D02*
X3371875Y-8772500D01*
X3571875Y-8372500D02*
X3571875Y-8772500D01*
X3371875Y-8572500D02*
X3771875Y-8572500D01*
X3610000Y-2657500D02*
X4010000Y-3057500D01*
X4010000Y-2657500D02*
X3610000Y-3057500D01*
X3810000Y-2657500D02*
X3810000Y-3057500D01*
X3610000Y-2857500D02*
X4010000Y-2857500D01*
X3610000Y-8372500D02*
X4010000Y-8772500D01*
X4010000Y-8372500D02*
X3610000Y-8772500D01*
X3810000Y-8372500D02*
X3810000Y-8772500D01*
X3610000Y-8572500D02*
X4010000Y-8572500D01*
X4086250Y-4562500D02*
X4486250Y-4962500D01*
X4486250Y-4562500D02*
X4086250Y-4962500D01*
X4286250Y-4562500D02*
X4286250Y-4962500D01*
X4086250Y-4762500D02*
X4486250Y-4762500D01*
X4562500Y-752500D02*
X4962500Y-1152500D01*
X4962500Y-752500D02*
X4562500Y-1152500D01*
X4762500Y-752500D02*
X4762500Y-1152500D01*
X4562500Y-952500D02*
X4962500Y-952500D01*
X5038750Y-6467500D02*
X5438750Y-6867500D01*
X5438750Y-6467500D02*
X5038750Y-6867500D01*
X5238750Y-6467500D02*
X5238750Y-6867500D01*
X5038750Y-6667500D02*
X5438750Y-6667500D01*
X5515000Y-2657500D02*
X5915000Y-3057500D01*
X5915000Y-2657500D02*
X5515000Y-3057500D01*
X5715000Y-2657500D02*
X5715000Y-3057500D01*
X5515000Y-2857500D02*
X5915000Y-2857500D01*
X5753125Y-8372500D02*
X6153125Y-8772500D01*
X6153125Y-8372500D02*
X5753125Y-8772500D01*
X5953125Y-8372500D02*
X5953125Y-8772500D01*
X5753125Y-8572500D02*
X6153125Y-8572500D01*
X5991250Y-4562500D02*
X6391250Y-4962500D01*
X6391250Y-4562500D02*
X5991250Y-4962500D01*
X6191250Y-4562500D02*
X6191250Y-4962500D01*
X5991250Y-4762500D02*
X6391250Y-4762500D01*
X5991250Y-8372500D02*
X6391250Y-8772500D01*
X6391250Y-8372500D02*
X5991250Y-8772500D01*
X6191250Y-8372500D02*
X6191250Y-8772500D01*
X5991250Y-8572500D02*
X6391250Y-8572500D01*
X6467500Y-752500D02*
X6867500Y-1152500D01*
X6867500Y-752500D02*
X6467500Y-1152500D01*
X6667500Y-752500D02*
X6667500Y-1152500D01*
X6467500Y-952500D02*
X6867500Y-952500D01*
X6943750Y-6467500D02*
X7343750Y-6867500D01*
X7343750Y-6467500D02*
X6943750Y-6867500D01*
X7143750Y-6467500D02*
X7143750Y-6867500D01*
X6943750Y-6667500D02*
X7343750Y-6667500D01*
X7420000Y-2657500D02*
X7820000Y-3057500D01*
X7820000Y-2657500D02*
X7420000Y-3057500D01*
X7620000Y-2657500D02*
X7620000Y-3057500D01*
X7420000Y-2857500D02*
X7820000Y-2857500D01*
X7896250Y-4562500D02*
X8296250Y-4962500D01*
X8296250Y-4562500D02*
X7896250Y-4962500D01*
X8096250Y-4562500D02*
X8096250Y-4962500D01*
X7896250Y-4762500D02*
X8296250Y-4762500D01*
X8372500Y-752500D02*
X8772500Y-1152500D01*
X8772500Y-752500D02*
X8372500Y-1152500D01*
X8572500Y-752500D02*
X8572500Y-1152500D01*
X8372500Y-952500D02*
X8772500Y-952500D01*
X8848750Y-6467500D02*
X9248750Y-6867500D01*
X9248750Y-6467500D02*
X8848750Y-6867500D01*
X9048750Y-6467500D02*
X9048750Y-6867500D01*
X8848750Y-6667500D02*
X9248750Y-6667500D01*
X9325000Y-2657500D02*
X9725000Y-3057500D01*
X9725000Y-2657500D02*
X9325000Y-3057500D01*
X9525000Y-2657500D02*
X9525000Y-3057500D01*
X9325000Y-2857500D02*
X9725000Y-2857500D01*
X9801250Y-4562500D02*
X10201250Y-4962500D01*
X10201250Y-4562500D02*
X9801250Y-4962500D01*
X10001250Y-4562500D02*
X10001250Y-4962500D01*
X9801250Y-4762500D02*
X10201250Y-4762500D01*
X10277500Y-752500D02*
X10677500Y-1152500D01*
X10677500Y-752500D02*
X10277500Y-1152500D01*
X10477500Y-752500D02*
X10477500Y-1152500D01*
X10277500Y-952500D02*
X10677500Y-952500D01*
X10753750Y-6467500D02*
X11153750Y-6867500D01*
X11153750Y-6467500D02*
X10753750Y-6867500D01*
X10953750Y-6467500D02*
X10953750Y-6867500D01*
X10753750Y-6667500D02*
X11153750Y-6667500D01*
X11230000Y-2657500D02*
X11630000Y-3057500D01*
X11630000Y-2657500D02*
X11230000Y-3057500D01*
X11430000Y-2657500D02*
X11430000Y-3057500D01*
X11230000Y-2857500D02*
X11630000Y-2857500D01*
X11706250Y-4562500D02*
X12106250Y-4962500D01*
X12106250Y-4562500D02*
X11706250Y-4962500D01*
X11906250Y-4562500D02*
X11906250Y-4962500D01*
X11706250Y-4762500D02*
X12106250Y-4762500D01*
X12182500Y-752500D02*
X12582500Y-1152500D01*
X12582500Y-752500D02*
X12182500Y-1152500D01*
X12382500Y-752500D02*
X12382500Y-1152500D01*
X12182500Y-952500D02*
X12582500Y-952500D01*
X12658750Y-6467500D02*
X13058750Y-6867500D01*
X13058750Y-6467500D02*
X12658750Y-6867500D01*
X12858750Y-6467500D02*
X12858750Y-6867500D01*
X12658750Y-6667500D02*
X13058750Y-6667500D01*
X12896875Y-8372500D02*
X13296875Y-8772500D01*
X13296875Y-8372500D02*
X12896875Y-8772500D01*
X13096875Y-8372500D02*
X13096875Y-8772500D01*
X12896875Y-8572500D02*
X13296875Y-8572500D01*
X13135000Y-2657500D02*
X13535000Y-3057500D01*
X13535000Y-2657500D02*
X13135000Y-3057500D01*
X13335000Y-2657500D02*
X13335000Y-3057500D01*
X13135000Y-2857500D02*
X13535000Y-2857500D01*
X13611250Y-4562500D02*
X14011250Y-4962500D01*
X14011250Y-4562500D02*
X13611250Y-4962500D01*
X13811250Y-4562500D02*
X13811250Y-4962500D01*
X13611250Y-4762500D02*
X14011250Y-4762500D01*
X14087500Y-752500D02*
X14487500Y-1152500D01*
X14487500Y-752500D02*
X14087500Y-1152500D01*
X14287500Y-752500D02*
X14287500Y-1152500D01*
X14087500Y-952500D02*
X14487500Y-952500D01*
X14087500Y-8372500D02*
X14487500Y-8772500D01*
X14487500Y-8372500D02*
X14087500Y-8772500D01*
X14287500Y-8372500D02*
X14287500Y-8772500D01*
X14087500Y-8572500D02*
X14487500Y-8572500D01*
X14563750Y-6467500D02*
X14963750Y-6867500D01*
X14963750Y-6467500D02*
X14563750Y-6867500D01*
X14763750Y-6467500D02*
X14763750Y-6867500D01*
X14563750Y-6667500D02*
X14963750Y-6667500D01*
X15040000Y-2657500D02*
X15440000Y-3057500D01*
X15440000Y-2657500D02*
X15040000Y-3057500D01*
X15240000Y-2657500D02*
X15240000Y-3057500D01*
X15040000Y-2857500D02*
X15440000Y-2857500D01*
X15516250Y-4562500D02*
X15916250Y-4962500D01*
X15916250Y-4562500D02*
X15516250Y-4962500D01*
X15716250Y-4562500D02*
X15716250Y-4962500D01*
X15516250Y-4762500D02*
X15916250Y-4762500D01*
X15992500Y-752500D02*
X16392500Y-1152500D01*
X16392500Y-752500D02*
X15992500Y-1152500D01*
X16192500Y-752500D02*
X16192500Y-1152500D01*
X15992500Y-952500D02*
X16392500Y-952500D01*
X16468750Y-6467500D02*
X16868750Y-6867500D01*
X16868750Y-6467500D02*
X16468750Y-6867500D01*
X16668750Y-6467500D02*
X16668750Y-6867500D01*
X16468750Y-6667500D02*
X16868750Y-6667500D01*
X16945000Y-2657500D02*
X17345000Y-3057500D01*
X17345000Y-2657500D02*
X16945000Y-3057500D01*
X17145000Y-2657500D02*
X17145000Y-3057500D01*
X16945000Y-2857500D02*
X17345000Y-2857500D01*
X17421250Y-4562500D02*
X17821250Y-4962500D01*
X17821250Y-4562500D02*
X17421250Y-4962500D01*
X17621250Y-4562500D02*
X17621250Y-4962500D01*
X17421250Y-4762500D02*
X17821250Y-4762500D01*
X17897500Y-752500D02*
X18297500Y-1152500D01*
X18297500Y-752500D02*
X17897500Y-1152500D01*
X18097500Y-752500D02*
X18097500Y-1152500D01*
X17897500Y-952500D02*
X18297500Y-952500D01*
X18373750Y-6467500D02*
X18773750Y-6867500D01*
X18773750Y-6467500D02*
X18373750Y-6867500D01*
X18573750Y-6467500D02*
X18573750Y-6867500D01*
X18373750Y-6667500D02*
X18773750Y-6667500D01*
X18850000Y-2657500D02*
X19250000Y-3057500D01*
X19250000Y-2657500D02*
X18850000Y-3057500D01*
X19050000Y-2657500D02*
X19050000Y-3057500D01*
X18850000Y-2857500D02*
X19250000Y-2857500D01*
X19326250Y-4562500D02*
X19726250Y-4962500D01*
X19726250Y-4562500D02*
X19326250Y-4962500D01*
X19526250Y-4562500D02*
X19526250Y-4962500D01*
X19326250Y-4762500D02*
X19726250Y-4762500D01*
X19802500Y-752500D02*
X20202500Y-1152500D01*
X20202500Y-752500D02*
X19802500Y-1152500D01*
X20002500Y-752500D02*
X20002500Y-1152500D01*
X19802500Y-952500D02*
X20202500Y-952500D01*
X20040625Y-8372500D02*
X20440625Y-8772500D01*
X20440625Y-8372500D02*
X20040625Y-8772500D01*
X20240625Y-8372500D02*
X20240625Y-8772500D01*
X20040625Y-8572500D02*
X20440625Y-8572500D01*
X20278750Y-6467500D02*
X20678750Y-6867500D01*
X20678750Y-6467500D02*
X20278750Y-6867500D01*
X20478750Y-6467500D02*
X20478750Y-6867500D01*
X20278750Y-6667500D02*
X20678750Y-6667500D01*
X20755000Y-2657500D02*
X21155000Y-3057500D01*
X21155000Y-2657500D02*
X20755000Y-3057500D01*
X20955000Y-2657500D02*
X20955000Y-3057500D01*
X20755000Y-2857500D02*
X21155000Y-2857500D01*
X21231250Y-4562500D02*
X21631250Y-4962500D01*
X21631250Y-4562500D02*
X21231250Y-4962500D01*
X21431250Y-4562500D02*
X21431250Y-4962500D01*
X21231250Y-4762500D02*
X21631250Y-4762500D01*
X21707500Y-752500D02*
X22107500Y-1152500D01*
X22107500Y-752500D02*
X21707500Y-1152500D01*
X21907500Y-752500D02*
X21907500Y-1152500D01*
X21707500Y-952500D02*
X22107500Y-952500D01*
X22183750Y-6467500D02*
X22583750Y-6867500D01*
X22583750Y-6467500D02*
X22183750Y-6867500D01*
X22383750Y-6467500D02*
X22383750Y-6867500D01*
X22183750Y-6667500D02*
X22583750Y-6667500D01*
X22183750Y-8372500D02*
X22583750Y-8772500D01*
X22583750Y-8372500D02*
X22183750Y-8772500D01*
X22383750Y-8372500D02*
X22383750Y-8772500D01*
X22183750Y-8572500D02*
X22583750Y-8572500D01*
X22421875Y-8372500D02*
X22821875Y-8772500D01*
X22821875Y-8372500D02*
X22421875Y-8772500D01*
X22621875Y-8372500D02*
X22621875Y-8772500D01*
X22421875Y-8572500D02*
X22821875Y-8572500D01*
X22660000Y-2657500D02*
X23060000Y-3057500D01*
X23060000Y-2657500D02*
X22660000Y-3057500D01*
X22860000Y-2657500D02*
X22860000Y-3057500D01*
X22660000Y-2857500D02*
X23060000Y-2857500D01*
X23136250Y-4562500D02*
X23536250Y-4962500D01*
X23536250Y-4562500D02*
X23136250Y-4962500D01*
X23336250Y-4562500D02*
X23336250Y-4962500D01*
X23136250Y-4762500D02*
X23536250Y-4762500D01*
X23612500Y-752500D02*
X24012500Y-1152500D01*
X24012500Y-752500D02*
X23612500Y-1152500D01*
X23812500Y-752500D02*
X23812500Y-1152500D01*
X23612500Y-952500D02*
X24012500Y-952500D01*
X24565000Y-2657500D02*
X24965000Y-3057500D01*
X24965000Y-2657500D02*
X24565000Y-3057500D01*
X24765000Y-2657500D02*
X24765000Y-3057500D01*
X24565000Y-2857500D02*
X24965000Y-2857500D01*
X24565000Y-8372500D02*
X24965000Y-8772500D01*
X24965000Y-8372500D02*
X24565000Y-8772500D01*
X24765000Y-8372500D02*
X24765000Y-8772500D01*
X24565000Y-8572500D02*
X24965000Y-8572500D01*
X24803125Y-6467500D02*
X25203125Y-6867500D01*
X25203125Y-6467500D02*
X24803125Y-6867500D01*
X25003125Y-6467500D02*
X25003125Y-6867500D01*
X24803125Y-6667500D02*
X25203125Y-6667500D01*
X24803125Y-8372500D02*
X25203125Y-8772500D01*
X25203125Y-8372500D02*
X24803125Y-8772500D01*
X25003125Y-8372500D02*
X25003125Y-8772500D01*
X24803125Y-8572500D02*
X25203125Y-8572500D01*
X25041250Y-4562500D02*
X25441250Y-4962500D01*
X25441250Y-4562500D02*
X25041250Y-4962500D01*
X25241250Y-4562500D02*
X25241250Y-4962500D01*
X25041250Y-4762500D02*
X25441250Y-4762500D01*
X25517500Y-752500D02*
X25917500Y-1152500D01*
X25917500Y-752500D02*
X25517500Y-1152500D01*
X25717500Y-752500D02*
X25717500Y-1152500D01*
X25517500Y-952500D02*
X25917500Y-952500D01*
X25755625Y-6467500D02*
X26155625Y-6867500D01*
X26155625Y-6467500D02*
X25755625Y-6867500D01*
X25955625Y-6467500D02*
X25955625Y-6867500D01*
X25755625Y-6667500D02*
X26155625Y-6667500D01*
X26231875Y-4562500D02*
X26631875Y-4962500D01*
X26631875Y-4562500D02*
X26231875Y-4962500D01*
X26431875Y-4562500D02*
X26431875Y-4962500D01*
X26231875Y-4762500D02*
X26631875Y-4762500D01*
X26470000Y-752500D02*
X26870000Y-1152500D01*
X26870000Y-752500D02*
X26470000Y-1152500D01*
X26670000Y-752500D02*
X26670000Y-1152500D01*
X26470000Y-952500D02*
X26870000Y-952500D01*
X26946250Y-2657500D02*
X27346250Y-3057500D01*
X27346250Y-2657500D02*
X26946250Y-3057500D01*
X27146250Y-2657500D02*
X27146250Y-3057500D01*
X26946250Y-2857500D02*
X27346250Y-2857500D01*
X26946250Y-8372500D02*
X27346250Y-8772500D01*
X27346250Y-8372500D02*
X26946250Y-8772500D01*
X27146250Y-8372500D02*
X27146250Y-8772500D01*
X26946250Y-8572500D02*
X27346250Y-8572500D01*
X27184375Y-3610000D02*
X27584375Y-4010000D01*
X27584375Y-3610000D02*
X27184375Y-4010000D01*
X27384375Y-3610000D02*
X27384375Y-4010000D01*
X27184375Y-3810000D02*
X27584375Y-3810000D01*
X27184375Y-8372500D02*
X27584375Y-8772500D01*
X27584375Y-8372500D02*
X27184375Y-8772500D01*
X27384375Y-8372500D02*
X27384375Y-8772500D01*
X27184375Y-8572500D02*
X27584375Y-8572500D01*
X27422500Y-752500D02*
X27822500Y-1152500D01*
X27822500Y-752500D02*
X27422500Y-1152500D01*
X27622500Y-752500D02*
X27622500Y-1152500D01*
X27422500Y-952500D02*
X27822500Y-952500D01*
X27422500Y-6467500D02*
X27822500Y-6867500D01*
X27822500Y-6467500D02*
X27422500Y-6867500D01*
X27622500Y-6467500D02*
X27622500Y-6867500D01*
X27422500Y-6667500D02*
X27822500Y-6667500D01*
D11*
X295777Y-9806484D02*
X295777Y-9606484D01*
X295777Y-9606484D02*
X343396Y-9606484D01*
X343396Y-9606484D02*
X371967Y-9616008D01*
X371967Y-9616008D02*
X391015Y-9635055D01*
X391015Y-9635055D02*
X400539Y-9654103D01*
X400539Y-9654103D02*
X410062Y-9692198D01*
X410062Y-9692198D02*
X410062Y-9720770D01*
X410062Y-9720770D02*
X400539Y-9758865D01*
X400539Y-9758865D02*
X391015Y-9777912D01*
X391015Y-9777912D02*
X371967Y-9796960D01*
X371967Y-9796960D02*
X343396Y-9806484D01*
X343396Y-9806484D02*
X295777Y-9806484D01*
X495777Y-9806484D02*
X495777Y-9673150D01*
X495777Y-9711246D02*
X505301Y-9692198D01*
X505301Y-9692198D02*
X514824Y-9682674D01*
X514824Y-9682674D02*
X533872Y-9673150D01*
X533872Y-9673150D02*
X552920Y-9673150D01*
X619586Y-9806484D02*
X619586Y-9673150D01*
X619586Y-9606484D02*
X610063Y-9616008D01*
X610063Y-9616008D02*
X619586Y-9625531D01*
X619586Y-9625531D02*
X629110Y-9616008D01*
X629110Y-9616008D02*
X619586Y-9606484D01*
X619586Y-9606484D02*
X619586Y-9625531D01*
X743396Y-9806484D02*
X724348Y-9796960D01*
X724348Y-9796960D02*
X714824Y-9777912D01*
X714824Y-9777912D02*
X714824Y-9606484D01*
X848158Y-9806484D02*
X829110Y-9796960D01*
X829110Y-9796960D02*
X819586Y-9777912D01*
X819586Y-9777912D02*
X819586Y-9606484D01*
X1076729Y-9806484D02*
X1076729Y-9606484D01*
X1076729Y-9606484D02*
X1143396Y-9749341D01*
X1143396Y-9749341D02*
X1210063Y-9606484D01*
X1210063Y-9606484D02*
X1210063Y-9806484D01*
X1391015Y-9806484D02*
X1391015Y-9701722D01*
X1391015Y-9701722D02*
X1381491Y-9682674D01*
X1381491Y-9682674D02*
X1362444Y-9673150D01*
X1362444Y-9673150D02*
X1324348Y-9673150D01*
X1324348Y-9673150D02*
X1305301Y-9682674D01*
X1391015Y-9796960D02*
X1371967Y-9806484D01*
X1371967Y-9806484D02*
X1324348Y-9806484D01*
X1324348Y-9806484D02*
X1305301Y-9796960D01*
X1305301Y-9796960D02*
X1295777Y-9777912D01*
X1295777Y-9777912D02*
X1295777Y-9758865D01*
X1295777Y-9758865D02*
X1305301Y-9739817D01*
X1305301Y-9739817D02*
X1324348Y-9730293D01*
X1324348Y-9730293D02*
X1371967Y-9730293D01*
X1371967Y-9730293D02*
X1391015Y-9720770D01*
X1486253Y-9673150D02*
X1486253Y-9873150D01*
X1486253Y-9682674D02*
X1505301Y-9673150D01*
X1505301Y-9673150D02*
X1543396Y-9673150D01*
X1543396Y-9673150D02*
X1562443Y-9682674D01*
X1562443Y-9682674D02*
X1571967Y-9692198D01*
X1571967Y-9692198D02*
X1581491Y-9711246D01*
X1581491Y-9711246D02*
X1581491Y-9768389D01*
X1581491Y-9768389D02*
X1571967Y-9787436D01*
X1571967Y-9787436D02*
X1562443Y-9796960D01*
X1562443Y-9796960D02*
X1543396Y-9806484D01*
X1543396Y-9806484D02*
X1505301Y-9806484D01*
X1505301Y-9806484D02*
X1486253Y-9796960D01*
X1667205Y-9787436D02*
X1676729Y-9796960D01*
X1676729Y-9796960D02*
X1667205Y-9806484D01*
X1667205Y-9806484D02*
X1657682Y-9796960D01*
X1657682Y-9796960D02*
X1667205Y-9787436D01*
X1667205Y-9787436D02*
X1667205Y-9806484D01*
X1667205Y-9682674D02*
X1676729Y-9692198D01*
X1676729Y-9692198D02*
X1667205Y-9701722D01*
X1667205Y-9701722D02*
X1657682Y-9692198D01*
X1657682Y-9692198D02*
X1667205Y-9682674D01*
X1667205Y-9682674D02*
X1667205Y-9701722D01*
D12*
X-30000Y-10102500D02*
X35000Y-10167500D01*
X35000Y-10102500D02*
X-30000Y-10167500D01*
D11*
X333872Y-10026484D02*
X352920Y-10026484D01*
X352920Y-10026484D02*
X371967Y-10036008D01*
X371967Y-10036008D02*
X381491Y-10045531D01*
X381491Y-10045531D02*
X391015Y-10064579D01*
X391015Y-10064579D02*
X400539Y-10102674D01*
X400539Y-10102674D02*
X400539Y-10150293D01*
X400539Y-10150293D02*
X391015Y-10188389D01*
X391015Y-10188389D02*
X381491Y-10207436D01*
X381491Y-10207436D02*
X371967Y-10216960D01*
X371967Y-10216960D02*
X352920Y-10226484D01*
X352920Y-10226484D02*
X333872Y-10226484D01*
X333872Y-10226484D02*
X314824Y-10216960D01*
X314824Y-10216960D02*
X305301Y-10207436D01*
X305301Y-10207436D02*
X295777Y-10188389D01*
X295777Y-10188389D02*
X286253Y-10150293D01*
X286253Y-10150293D02*
X286253Y-10102674D01*
X286253Y-10102674D02*
X295777Y-10064579D01*
X295777Y-10064579D02*
X305301Y-10045531D01*
X305301Y-10045531D02*
X314824Y-10036008D01*
X314824Y-10036008D02*
X333872Y-10026484D01*
X486253Y-10207436D02*
X495777Y-10216960D01*
X495777Y-10216960D02*
X486253Y-10226484D01*
X486253Y-10226484D02*
X476729Y-10216960D01*
X476729Y-10216960D02*
X486253Y-10207436D01*
X486253Y-10207436D02*
X486253Y-10226484D01*
X667205Y-10026484D02*
X629110Y-10026484D01*
X629110Y-10026484D02*
X610063Y-10036008D01*
X610063Y-10036008D02*
X600539Y-10045531D01*
X600539Y-10045531D02*
X581491Y-10074103D01*
X581491Y-10074103D02*
X571967Y-10112198D01*
X571967Y-10112198D02*
X571967Y-10188389D01*
X571967Y-10188389D02*
X581491Y-10207436D01*
X581491Y-10207436D02*
X591015Y-10216960D01*
X591015Y-10216960D02*
X610063Y-10226484D01*
X610063Y-10226484D02*
X648158Y-10226484D01*
X648158Y-10226484D02*
X667205Y-10216960D01*
X667205Y-10216960D02*
X676729Y-10207436D01*
X676729Y-10207436D02*
X686253Y-10188389D01*
X686253Y-10188389D02*
X686253Y-10140770D01*
X686253Y-10140770D02*
X676729Y-10121722D01*
X676729Y-10121722D02*
X667205Y-10112198D01*
X667205Y-10112198D02*
X648158Y-10102674D01*
X648158Y-10102674D02*
X610063Y-10102674D01*
X610063Y-10102674D02*
X591015Y-10112198D01*
X591015Y-10112198D02*
X581491Y-10121722D01*
X581491Y-10121722D02*
X571967Y-10140770D01*
X867205Y-10026484D02*
X771967Y-10026484D01*
X771967Y-10026484D02*
X762443Y-10121722D01*
X762443Y-10121722D02*
X771967Y-10112198D01*
X771967Y-10112198D02*
X791015Y-10102674D01*
X791015Y-10102674D02*
X838634Y-10102674D01*
X838634Y-10102674D02*
X857682Y-10112198D01*
X857682Y-10112198D02*
X867205Y-10121722D01*
X867205Y-10121722D02*
X876729Y-10140770D01*
X876729Y-10140770D02*
X876729Y-10188389D01*
X876729Y-10188389D02*
X867205Y-10207436D01*
X867205Y-10207436D02*
X857682Y-10216960D01*
X857682Y-10216960D02*
X838634Y-10226484D01*
X838634Y-10226484D02*
X791015Y-10226484D01*
X791015Y-10226484D02*
X771967Y-10216960D01*
X771967Y-10216960D02*
X762443Y-10207436D01*
X1000539Y-10026484D02*
X1019586Y-10026484D01*
X1019586Y-10026484D02*
X1038634Y-10036008D01*
X1038634Y-10036008D02*
X1048158Y-10045531D01*
X1048158Y-10045531D02*
X1057682Y-10064579D01*
X1057682Y-10064579D02*
X1067205Y-10102674D01*
X1067205Y-10102674D02*
X1067205Y-10150293D01*
X1067205Y-10150293D02*
X1057682Y-10188389D01*
X1057682Y-10188389D02*
X1048158Y-10207436D01*
X1048158Y-10207436D02*
X1038634Y-10216960D01*
X1038634Y-10216960D02*
X1019586Y-10226484D01*
X1019586Y-10226484D02*
X1000539Y-10226484D01*
X1000539Y-10226484D02*
X981491Y-10216960D01*
X981491Y-10216960D02*
X971967Y-10207436D01*
X971967Y-10207436D02*
X962443Y-10188389D01*
X962443Y-10188389D02*
X952920Y-10150293D01*
X952920Y-10150293D02*
X952920Y-10102674D01*
X952920Y-10102674D02*
X962443Y-10064579D01*
X962443Y-10064579D02*
X971967Y-10045531D01*
X971967Y-10045531D02*
X981491Y-10036008D01*
X981491Y-10036008D02*
X1000539Y-10026484D01*
X1152920Y-10226484D02*
X1152920Y-10093150D01*
X1152920Y-10112198D02*
X1162444Y-10102674D01*
X1162444Y-10102674D02*
X1181491Y-10093150D01*
X1181491Y-10093150D02*
X1210063Y-10093150D01*
X1210063Y-10093150D02*
X1229110Y-10102674D01*
X1229110Y-10102674D02*
X1238634Y-10121722D01*
X1238634Y-10121722D02*
X1238634Y-10226484D01*
X1238634Y-10121722D02*
X1248158Y-10102674D01*
X1248158Y-10102674D02*
X1267205Y-10093150D01*
X1267205Y-10093150D02*
X1295777Y-10093150D01*
X1295777Y-10093150D02*
X1314825Y-10102674D01*
X1314825Y-10102674D02*
X1324348Y-10121722D01*
X1324348Y-10121722D02*
X1324348Y-10226484D01*
X1419586Y-10226484D02*
X1419586Y-10093150D01*
X1419586Y-10112198D02*
X1429110Y-10102674D01*
X1429110Y-10102674D02*
X1448158Y-10093150D01*
X1448158Y-10093150D02*
X1476729Y-10093150D01*
X1476729Y-10093150D02*
X1495777Y-10102674D01*
X1495777Y-10102674D02*
X1505301Y-10121722D01*
X1505301Y-10121722D02*
X1505301Y-10226484D01*
X1505301Y-10121722D02*
X1514824Y-10102674D01*
X1514824Y-10102674D02*
X1533872Y-10093150D01*
X1533872Y-10093150D02*
X1562443Y-10093150D01*
X1562443Y-10093150D02*
X1581491Y-10102674D01*
X1581491Y-10102674D02*
X1591015Y-10121722D01*
X1591015Y-10121722D02*
X1591015Y-10226484D01*
X1981491Y-10016960D02*
X1810063Y-10274103D01*
X2238634Y-10026484D02*
X2257682Y-10026484D01*
X2257682Y-10026484D02*
X2276729Y-10036008D01*
X2276729Y-10036008D02*
X2286253Y-10045531D01*
X2286253Y-10045531D02*
X2295777Y-10064579D01*
X2295777Y-10064579D02*
X2305301Y-10102674D01*
X2305301Y-10102674D02*
X2305301Y-10150293D01*
X2305301Y-10150293D02*
X2295777Y-10188389D01*
X2295777Y-10188389D02*
X2286253Y-10207436D01*
X2286253Y-10207436D02*
X2276729Y-10216960D01*
X2276729Y-10216960D02*
X2257682Y-10226484D01*
X2257682Y-10226484D02*
X2238634Y-10226484D01*
X2238634Y-10226484D02*
X2219587Y-10216960D01*
X2219587Y-10216960D02*
X2210063Y-10207436D01*
X2210063Y-10207436D02*
X2200539Y-10188389D01*
X2200539Y-10188389D02*
X2191015Y-10150293D01*
X2191015Y-10150293D02*
X2191015Y-10102674D01*
X2191015Y-10102674D02*
X2200539Y-10064579D01*
X2200539Y-10064579D02*
X2210063Y-10045531D01*
X2210063Y-10045531D02*
X2219587Y-10036008D01*
X2219587Y-10036008D02*
X2238634Y-10026484D01*
X2391015Y-10207436D02*
X2400539Y-10216960D01*
X2400539Y-10216960D02*
X2391015Y-10226484D01*
X2391015Y-10226484D02*
X2381491Y-10216960D01*
X2381491Y-10216960D02*
X2391015Y-10207436D01*
X2391015Y-10207436D02*
X2391015Y-10226484D01*
X2524348Y-10026484D02*
X2543396Y-10026484D01*
X2543396Y-10026484D02*
X2562444Y-10036008D01*
X2562444Y-10036008D02*
X2571968Y-10045531D01*
X2571968Y-10045531D02*
X2581491Y-10064579D01*
X2581491Y-10064579D02*
X2591015Y-10102674D01*
X2591015Y-10102674D02*
X2591015Y-10150293D01*
X2591015Y-10150293D02*
X2581491Y-10188389D01*
X2581491Y-10188389D02*
X2571968Y-10207436D01*
X2571968Y-10207436D02*
X2562444Y-10216960D01*
X2562444Y-10216960D02*
X2543396Y-10226484D01*
X2543396Y-10226484D02*
X2524348Y-10226484D01*
X2524348Y-10226484D02*
X2505301Y-10216960D01*
X2505301Y-10216960D02*
X2495777Y-10207436D01*
X2495777Y-10207436D02*
X2486253Y-10188389D01*
X2486253Y-10188389D02*
X2476729Y-10150293D01*
X2476729Y-10150293D02*
X2476729Y-10102674D01*
X2476729Y-10102674D02*
X2486253Y-10064579D01*
X2486253Y-10064579D02*
X2495777Y-10045531D01*
X2495777Y-10045531D02*
X2505301Y-10036008D01*
X2505301Y-10036008D02*
X2524348Y-10026484D01*
X2667206Y-10045531D02*
X2676729Y-10036008D01*
X2676729Y-10036008D02*
X2695777Y-10026484D01*
X2695777Y-10026484D02*
X2743396Y-10026484D01*
X2743396Y-10026484D02*
X2762444Y-10036008D01*
X2762444Y-10036008D02*
X2771968Y-10045531D01*
X2771968Y-10045531D02*
X2781491Y-10064579D01*
X2781491Y-10064579D02*
X2781491Y-10083627D01*
X2781491Y-10083627D02*
X2771968Y-10112198D01*
X2771968Y-10112198D02*
X2657682Y-10226484D01*
X2657682Y-10226484D02*
X2781491Y-10226484D01*
X2962444Y-10026484D02*
X2867206Y-10026484D01*
X2867206Y-10026484D02*
X2857682Y-10121722D01*
X2857682Y-10121722D02*
X2867206Y-10112198D01*
X2867206Y-10112198D02*
X2886253Y-10102674D01*
X2886253Y-10102674D02*
X2933872Y-10102674D01*
X2933872Y-10102674D02*
X2952920Y-10112198D01*
X2952920Y-10112198D02*
X2962444Y-10121722D01*
X2962444Y-10121722D02*
X2971967Y-10140770D01*
X2971967Y-10140770D02*
X2971967Y-10188389D01*
X2971967Y-10188389D02*
X2962444Y-10207436D01*
X2962444Y-10207436D02*
X2952920Y-10216960D01*
X2952920Y-10216960D02*
X2933872Y-10226484D01*
X2933872Y-10226484D02*
X2886253Y-10226484D01*
X2886253Y-10226484D02*
X2867206Y-10216960D01*
X2867206Y-10216960D02*
X2857682Y-10207436D01*
X3143396Y-10026484D02*
X3105301Y-10026484D01*
X3105301Y-10026484D02*
X3086253Y-10036008D01*
X3086253Y-10036008D02*
X3076729Y-10045531D01*
X3076729Y-10045531D02*
X3057682Y-10074103D01*
X3057682Y-10074103D02*
X3048158Y-10112198D01*
X3048158Y-10112198D02*
X3048158Y-10188389D01*
X3048158Y-10188389D02*
X3057682Y-10207436D01*
X3057682Y-10207436D02*
X3067206Y-10216960D01*
X3067206Y-10216960D02*
X3086253Y-10226484D01*
X3086253Y-10226484D02*
X3124348Y-10226484D01*
X3124348Y-10226484D02*
X3143396Y-10216960D01*
X3143396Y-10216960D02*
X3152920Y-10207436D01*
X3152920Y-10207436D02*
X3162444Y-10188389D01*
X3162444Y-10188389D02*
X3162444Y-10140770D01*
X3162444Y-10140770D02*
X3152920Y-10121722D01*
X3152920Y-10121722D02*
X3143396Y-10112198D01*
X3143396Y-10112198D02*
X3124348Y-10102674D01*
X3124348Y-10102674D02*
X3086253Y-10102674D01*
X3086253Y-10102674D02*
X3067206Y-10112198D01*
X3067206Y-10112198D02*
X3057682Y-10121722D01*
X3057682Y-10121722D02*
X3048158Y-10140770D01*
X3238634Y-10026484D02*
X3238634Y-10064579D01*
X3314825Y-10026484D02*
X3314825Y-10064579D01*
X3610063Y-10302674D02*
X3600539Y-10293150D01*
X3600539Y-10293150D02*
X3581491Y-10264579D01*
X3581491Y-10264579D02*
X3571968Y-10245531D01*
X3571968Y-10245531D02*
X3562444Y-10216960D01*
X3562444Y-10216960D02*
X3552920Y-10169341D01*
X3552920Y-10169341D02*
X3552920Y-10131246D01*
X3552920Y-10131246D02*
X3562444Y-10083627D01*
X3562444Y-10083627D02*
X3571968Y-10055055D01*
X3571968Y-10055055D02*
X3581491Y-10036008D01*
X3581491Y-10036008D02*
X3600539Y-10007436D01*
X3600539Y-10007436D02*
X3610063Y-9997912D01*
X3676729Y-10045531D02*
X3686253Y-10036008D01*
X3686253Y-10036008D02*
X3705301Y-10026484D01*
X3705301Y-10026484D02*
X3752920Y-10026484D01*
X3752920Y-10026484D02*
X3771968Y-10036008D01*
X3771968Y-10036008D02*
X3781491Y-10045531D01*
X3781491Y-10045531D02*
X3791015Y-10064579D01*
X3791015Y-10064579D02*
X3791015Y-10083627D01*
X3791015Y-10083627D02*
X3781491Y-10112198D01*
X3781491Y-10112198D02*
X3667206Y-10226484D01*
X3667206Y-10226484D02*
X3791015Y-10226484D01*
X4029110Y-10226484D02*
X4029110Y-10026484D01*
X4114825Y-10226484D02*
X4114825Y-10121722D01*
X4114825Y-10121722D02*
X4105301Y-10102674D01*
X4105301Y-10102674D02*
X4086253Y-10093150D01*
X4086253Y-10093150D02*
X4057682Y-10093150D01*
X4057682Y-10093150D02*
X4038634Y-10102674D01*
X4038634Y-10102674D02*
X4029110Y-10112198D01*
X4238634Y-10226484D02*
X4219587Y-10216960D01*
X4219587Y-10216960D02*
X4210063Y-10207436D01*
X4210063Y-10207436D02*
X4200539Y-10188389D01*
X4200539Y-10188389D02*
X4200539Y-10131246D01*
X4200539Y-10131246D02*
X4210063Y-10112198D01*
X4210063Y-10112198D02*
X4219587Y-10102674D01*
X4219587Y-10102674D02*
X4238634Y-10093150D01*
X4238634Y-10093150D02*
X4267206Y-10093150D01*
X4267206Y-10093150D02*
X4286253Y-10102674D01*
X4286253Y-10102674D02*
X4295777Y-10112198D01*
X4295777Y-10112198D02*
X4305301Y-10131246D01*
X4305301Y-10131246D02*
X4305301Y-10188389D01*
X4305301Y-10188389D02*
X4295777Y-10207436D01*
X4295777Y-10207436D02*
X4286253Y-10216960D01*
X4286253Y-10216960D02*
X4267206Y-10226484D01*
X4267206Y-10226484D02*
X4238634Y-10226484D01*
X4419587Y-10226484D02*
X4400539Y-10216960D01*
X4400539Y-10216960D02*
X4391015Y-10197912D01*
X4391015Y-10197912D02*
X4391015Y-10026484D01*
X4571968Y-10216960D02*
X4552920Y-10226484D01*
X4552920Y-10226484D02*
X4514825Y-10226484D01*
X4514825Y-10226484D02*
X4495777Y-10216960D01*
X4495777Y-10216960D02*
X4486253Y-10197912D01*
X4486253Y-10197912D02*
X4486253Y-10121722D01*
X4486253Y-10121722D02*
X4495777Y-10102674D01*
X4495777Y-10102674D02*
X4514825Y-10093150D01*
X4514825Y-10093150D02*
X4552920Y-10093150D01*
X4552920Y-10093150D02*
X4571968Y-10102674D01*
X4571968Y-10102674D02*
X4581492Y-10121722D01*
X4581492Y-10121722D02*
X4581492Y-10140770D01*
X4581492Y-10140770D02*
X4486253Y-10159817D01*
X4657682Y-10216960D02*
X4676730Y-10226484D01*
X4676730Y-10226484D02*
X4714825Y-10226484D01*
X4714825Y-10226484D02*
X4733873Y-10216960D01*
X4733873Y-10216960D02*
X4743396Y-10197912D01*
X4743396Y-10197912D02*
X4743396Y-10188389D01*
X4743396Y-10188389D02*
X4733873Y-10169341D01*
X4733873Y-10169341D02*
X4714825Y-10159817D01*
X4714825Y-10159817D02*
X4686253Y-10159817D01*
X4686253Y-10159817D02*
X4667206Y-10150293D01*
X4667206Y-10150293D02*
X4657682Y-10131246D01*
X4657682Y-10131246D02*
X4657682Y-10121722D01*
X4657682Y-10121722D02*
X4667206Y-10102674D01*
X4667206Y-10102674D02*
X4686253Y-10093150D01*
X4686253Y-10093150D02*
X4714825Y-10093150D01*
X4714825Y-10093150D02*
X4733873Y-10102674D01*
X4810063Y-10302674D02*
X4819587Y-10293150D01*
X4819587Y-10293150D02*
X4838634Y-10264579D01*
X4838634Y-10264579D02*
X4848158Y-10245531D01*
X4848158Y-10245531D02*
X4857682Y-10216960D01*
X4857682Y-10216960D02*
X4867206Y-10169341D01*
X4867206Y-10169341D02*
X4867206Y-10131246D01*
X4867206Y-10131246D02*
X4857682Y-10083627D01*
X4857682Y-10083627D02*
X4848158Y-10055055D01*
X4848158Y-10055055D02*
X4838634Y-10036008D01*
X4838634Y-10036008D02*
X4819587Y-10007436D01*
X4819587Y-10007436D02*
X4810063Y-9997912D01*
X5171968Y-10302674D02*
X5162444Y-10293150D01*
X5162444Y-10293150D02*
X5143396Y-10264579D01*
X5143396Y-10264579D02*
X5133873Y-10245531D01*
X5133873Y-10245531D02*
X5124349Y-10216960D01*
X5124349Y-10216960D02*
X5114825Y-10169341D01*
X5114825Y-10169341D02*
X5114825Y-10131246D01*
X5114825Y-10131246D02*
X5124349Y-10083627D01*
X5124349Y-10083627D02*
X5133873Y-10055055D01*
X5133873Y-10055055D02*
X5143396Y-10036008D01*
X5143396Y-10036008D02*
X5162444Y-10007436D01*
X5162444Y-10007436D02*
X5171968Y-9997912D01*
X5248158Y-10093150D02*
X5248158Y-10226484D01*
X5248158Y-10112198D02*
X5257682Y-10102674D01*
X5257682Y-10102674D02*
X5276730Y-10093150D01*
X5276730Y-10093150D02*
X5305301Y-10093150D01*
X5305301Y-10093150D02*
X5324349Y-10102674D01*
X5324349Y-10102674D02*
X5333873Y-10121722D01*
X5333873Y-10121722D02*
X5333873Y-10226484D01*
X5457682Y-10226484D02*
X5438634Y-10216960D01*
X5438634Y-10216960D02*
X5429111Y-10207436D01*
X5429111Y-10207436D02*
X5419587Y-10188389D01*
X5419587Y-10188389D02*
X5419587Y-10131246D01*
X5419587Y-10131246D02*
X5429111Y-10112198D01*
X5429111Y-10112198D02*
X5438634Y-10102674D01*
X5438634Y-10102674D02*
X5457682Y-10093150D01*
X5457682Y-10093150D02*
X5486254Y-10093150D01*
X5486254Y-10093150D02*
X5505301Y-10102674D01*
X5505301Y-10102674D02*
X5514825Y-10112198D01*
X5514825Y-10112198D02*
X5524349Y-10131246D01*
X5524349Y-10131246D02*
X5524349Y-10188389D01*
X5524349Y-10188389D02*
X5514825Y-10207436D01*
X5514825Y-10207436D02*
X5505301Y-10216960D01*
X5505301Y-10216960D02*
X5486254Y-10226484D01*
X5486254Y-10226484D02*
X5457682Y-10226484D01*
X5581492Y-10093150D02*
X5657682Y-10093150D01*
X5610063Y-10026484D02*
X5610063Y-10197912D01*
X5610063Y-10197912D02*
X5619587Y-10216960D01*
X5619587Y-10216960D02*
X5638634Y-10226484D01*
X5638634Y-10226484D02*
X5657682Y-10226484D01*
X5876730Y-10093150D02*
X5876730Y-10293150D01*
X5876730Y-10102674D02*
X5895777Y-10093150D01*
X5895777Y-10093150D02*
X5933873Y-10093150D01*
X5933873Y-10093150D02*
X5952920Y-10102674D01*
X5952920Y-10102674D02*
X5962444Y-10112198D01*
X5962444Y-10112198D02*
X5971968Y-10131246D01*
X5971968Y-10131246D02*
X5971968Y-10188389D01*
X5971968Y-10188389D02*
X5962444Y-10207436D01*
X5962444Y-10207436D02*
X5952920Y-10216960D01*
X5952920Y-10216960D02*
X5933873Y-10226484D01*
X5933873Y-10226484D02*
X5895777Y-10226484D01*
X5895777Y-10226484D02*
X5876730Y-10216960D01*
X6086253Y-10226484D02*
X6067206Y-10216960D01*
X6067206Y-10216960D02*
X6057682Y-10197912D01*
X6057682Y-10197912D02*
X6057682Y-10026484D01*
X6248158Y-10226484D02*
X6248158Y-10121722D01*
X6248158Y-10121722D02*
X6238634Y-10102674D01*
X6238634Y-10102674D02*
X6219587Y-10093150D01*
X6219587Y-10093150D02*
X6181492Y-10093150D01*
X6181492Y-10093150D02*
X6162444Y-10102674D01*
X6248158Y-10216960D02*
X6229111Y-10226484D01*
X6229111Y-10226484D02*
X6181492Y-10226484D01*
X6181492Y-10226484D02*
X6162444Y-10216960D01*
X6162444Y-10216960D02*
X6152920Y-10197912D01*
X6152920Y-10197912D02*
X6152920Y-10178865D01*
X6152920Y-10178865D02*
X6162444Y-10159817D01*
X6162444Y-10159817D02*
X6181492Y-10150293D01*
X6181492Y-10150293D02*
X6229111Y-10150293D01*
X6229111Y-10150293D02*
X6248158Y-10140770D01*
X6314825Y-10093150D02*
X6391015Y-10093150D01*
X6343396Y-10026484D02*
X6343396Y-10197912D01*
X6343396Y-10197912D02*
X6352920Y-10216960D01*
X6352920Y-10216960D02*
X6371968Y-10226484D01*
X6371968Y-10226484D02*
X6391015Y-10226484D01*
X6533873Y-10216960D02*
X6514825Y-10226484D01*
X6514825Y-10226484D02*
X6476730Y-10226484D01*
X6476730Y-10226484D02*
X6457682Y-10216960D01*
X6457682Y-10216960D02*
X6448158Y-10197912D01*
X6448158Y-10197912D02*
X6448158Y-10121722D01*
X6448158Y-10121722D02*
X6457682Y-10102674D01*
X6457682Y-10102674D02*
X6476730Y-10093150D01*
X6476730Y-10093150D02*
X6514825Y-10093150D01*
X6514825Y-10093150D02*
X6533873Y-10102674D01*
X6533873Y-10102674D02*
X6543396Y-10121722D01*
X6543396Y-10121722D02*
X6543396Y-10140770D01*
X6543396Y-10140770D02*
X6448158Y-10159817D01*
X6714825Y-10226484D02*
X6714825Y-10026484D01*
X6714825Y-10216960D02*
X6695777Y-10226484D01*
X6695777Y-10226484D02*
X6657682Y-10226484D01*
X6657682Y-10226484D02*
X6638634Y-10216960D01*
X6638634Y-10216960D02*
X6629111Y-10207436D01*
X6629111Y-10207436D02*
X6619587Y-10188389D01*
X6619587Y-10188389D02*
X6619587Y-10131246D01*
X6619587Y-10131246D02*
X6629111Y-10112198D01*
X6629111Y-10112198D02*
X6638634Y-10102674D01*
X6638634Y-10102674D02*
X6657682Y-10093150D01*
X6657682Y-10093150D02*
X6695777Y-10093150D01*
X6695777Y-10093150D02*
X6714825Y-10102674D01*
X6791015Y-10302674D02*
X6800539Y-10293150D01*
X6800539Y-10293150D02*
X6819587Y-10264579D01*
X6819587Y-10264579D02*
X6829111Y-10245531D01*
X6829111Y-10245531D02*
X6838634Y-10216960D01*
X6838634Y-10216960D02*
X6848158Y-10169341D01*
X6848158Y-10169341D02*
X6848158Y-10131246D01*
X6848158Y-10131246D02*
X6838634Y-10083627D01*
X6838634Y-10083627D02*
X6829111Y-10055055D01*
X6829111Y-10055055D02*
X6819587Y-10036008D01*
X6819587Y-10036008D02*
X6800539Y-10007436D01*
X6800539Y-10007436D02*
X6791015Y-9997912D01*
D13*
X35000Y-10399000D02*
G75*
G02*
X-140000Y-10399000I-87500J0D01*
G01*
X-140000Y-10399000D02*
G75*
G02*
X35000Y-10399000I87500J0D01*
G01*
D11*
X400539Y-10490484D02*
X286253Y-10490484D01*
X343396Y-10490484D02*
X343396Y-10290484D01*
X343396Y-10290484D02*
X324348Y-10319055D01*
X324348Y-10319055D02*
X305301Y-10338103D01*
X305301Y-10338103D02*
X286253Y-10347627D01*
X486253Y-10471436D02*
X495777Y-10480960D01*
X495777Y-10480960D02*
X486253Y-10490484D01*
X486253Y-10490484D02*
X476729Y-10480960D01*
X476729Y-10480960D02*
X486253Y-10471436D01*
X486253Y-10471436D02*
X486253Y-10490484D01*
X562444Y-10290484D02*
X695777Y-10290484D01*
X695777Y-10290484D02*
X610063Y-10490484D01*
X867205Y-10290484D02*
X771967Y-10290484D01*
X771967Y-10290484D02*
X762443Y-10385722D01*
X762443Y-10385722D02*
X771967Y-10376198D01*
X771967Y-10376198D02*
X791015Y-10366674D01*
X791015Y-10366674D02*
X838634Y-10366674D01*
X838634Y-10366674D02*
X857682Y-10376198D01*
X857682Y-10376198D02*
X867205Y-10385722D01*
X867205Y-10385722D02*
X876729Y-10404770D01*
X876729Y-10404770D02*
X876729Y-10452389D01*
X876729Y-10452389D02*
X867205Y-10471436D01*
X867205Y-10471436D02*
X857682Y-10480960D01*
X857682Y-10480960D02*
X838634Y-10490484D01*
X838634Y-10490484D02*
X791015Y-10490484D01*
X791015Y-10490484D02*
X771967Y-10480960D01*
X771967Y-10480960D02*
X762443Y-10471436D01*
X1000539Y-10290484D02*
X1019586Y-10290484D01*
X1019586Y-10290484D02*
X1038634Y-10300008D01*
X1038634Y-10300008D02*
X1048158Y-10309531D01*
X1048158Y-10309531D02*
X1057682Y-10328579D01*
X1057682Y-10328579D02*
X1067205Y-10366674D01*
X1067205Y-10366674D02*
X1067205Y-10414293D01*
X1067205Y-10414293D02*
X1057682Y-10452389D01*
X1057682Y-10452389D02*
X1048158Y-10471436D01*
X1048158Y-10471436D02*
X1038634Y-10480960D01*
X1038634Y-10480960D02*
X1019586Y-10490484D01*
X1019586Y-10490484D02*
X1000539Y-10490484D01*
X1000539Y-10490484D02*
X981491Y-10480960D01*
X981491Y-10480960D02*
X971967Y-10471436D01*
X971967Y-10471436D02*
X962443Y-10452389D01*
X962443Y-10452389D02*
X952920Y-10414293D01*
X952920Y-10414293D02*
X952920Y-10366674D01*
X952920Y-10366674D02*
X962443Y-10328579D01*
X962443Y-10328579D02*
X971967Y-10309531D01*
X971967Y-10309531D02*
X981491Y-10300008D01*
X981491Y-10300008D02*
X1000539Y-10290484D01*
X1152920Y-10490484D02*
X1152920Y-10357150D01*
X1152920Y-10376198D02*
X1162444Y-10366674D01*
X1162444Y-10366674D02*
X1181491Y-10357150D01*
X1181491Y-10357150D02*
X1210063Y-10357150D01*
X1210063Y-10357150D02*
X1229110Y-10366674D01*
X1229110Y-10366674D02*
X1238634Y-10385722D01*
X1238634Y-10385722D02*
X1238634Y-10490484D01*
X1238634Y-10385722D02*
X1248158Y-10366674D01*
X1248158Y-10366674D02*
X1267205Y-10357150D01*
X1267205Y-10357150D02*
X1295777Y-10357150D01*
X1295777Y-10357150D02*
X1314825Y-10366674D01*
X1314825Y-10366674D02*
X1324348Y-10385722D01*
X1324348Y-10385722D02*
X1324348Y-10490484D01*
X1419586Y-10490484D02*
X1419586Y-10357150D01*
X1419586Y-10376198D02*
X1429110Y-10366674D01*
X1429110Y-10366674D02*
X1448158Y-10357150D01*
X1448158Y-10357150D02*
X1476729Y-10357150D01*
X1476729Y-10357150D02*
X1495777Y-10366674D01*
X1495777Y-10366674D02*
X1505301Y-10385722D01*
X1505301Y-10385722D02*
X1505301Y-10490484D01*
X1505301Y-10385722D02*
X1514824Y-10366674D01*
X1514824Y-10366674D02*
X1533872Y-10357150D01*
X1533872Y-10357150D02*
X1562443Y-10357150D01*
X1562443Y-10357150D02*
X1581491Y-10366674D01*
X1581491Y-10366674D02*
X1591015Y-10385722D01*
X1591015Y-10385722D02*
X1591015Y-10490484D01*
X1981491Y-10280960D02*
X1810063Y-10538103D01*
X2238634Y-10290484D02*
X2257682Y-10290484D01*
X2257682Y-10290484D02*
X2276729Y-10300008D01*
X2276729Y-10300008D02*
X2286253Y-10309531D01*
X2286253Y-10309531D02*
X2295777Y-10328579D01*
X2295777Y-10328579D02*
X2305301Y-10366674D01*
X2305301Y-10366674D02*
X2305301Y-10414293D01*
X2305301Y-10414293D02*
X2295777Y-10452389D01*
X2295777Y-10452389D02*
X2286253Y-10471436D01*
X2286253Y-10471436D02*
X2276729Y-10480960D01*
X2276729Y-10480960D02*
X2257682Y-10490484D01*
X2257682Y-10490484D02*
X2238634Y-10490484D01*
X2238634Y-10490484D02*
X2219587Y-10480960D01*
X2219587Y-10480960D02*
X2210063Y-10471436D01*
X2210063Y-10471436D02*
X2200539Y-10452389D01*
X2200539Y-10452389D02*
X2191015Y-10414293D01*
X2191015Y-10414293D02*
X2191015Y-10366674D01*
X2191015Y-10366674D02*
X2200539Y-10328579D01*
X2200539Y-10328579D02*
X2210063Y-10309531D01*
X2210063Y-10309531D02*
X2219587Y-10300008D01*
X2219587Y-10300008D02*
X2238634Y-10290484D01*
X2391015Y-10471436D02*
X2400539Y-10480960D01*
X2400539Y-10480960D02*
X2391015Y-10490484D01*
X2391015Y-10490484D02*
X2381491Y-10480960D01*
X2381491Y-10480960D02*
X2391015Y-10471436D01*
X2391015Y-10471436D02*
X2391015Y-10490484D01*
X2524348Y-10290484D02*
X2543396Y-10290484D01*
X2543396Y-10290484D02*
X2562444Y-10300008D01*
X2562444Y-10300008D02*
X2571968Y-10309531D01*
X2571968Y-10309531D02*
X2581491Y-10328579D01*
X2581491Y-10328579D02*
X2591015Y-10366674D01*
X2591015Y-10366674D02*
X2591015Y-10414293D01*
X2591015Y-10414293D02*
X2581491Y-10452389D01*
X2581491Y-10452389D02*
X2571968Y-10471436D01*
X2571968Y-10471436D02*
X2562444Y-10480960D01*
X2562444Y-10480960D02*
X2543396Y-10490484D01*
X2543396Y-10490484D02*
X2524348Y-10490484D01*
X2524348Y-10490484D02*
X2505301Y-10480960D01*
X2505301Y-10480960D02*
X2495777Y-10471436D01*
X2495777Y-10471436D02*
X2486253Y-10452389D01*
X2486253Y-10452389D02*
X2476729Y-10414293D01*
X2476729Y-10414293D02*
X2476729Y-10366674D01*
X2476729Y-10366674D02*
X2486253Y-10328579D01*
X2486253Y-10328579D02*
X2495777Y-10309531D01*
X2495777Y-10309531D02*
X2505301Y-10300008D01*
X2505301Y-10300008D02*
X2524348Y-10290484D01*
X2762444Y-10290484D02*
X2724348Y-10290484D01*
X2724348Y-10290484D02*
X2705301Y-10300008D01*
X2705301Y-10300008D02*
X2695777Y-10309531D01*
X2695777Y-10309531D02*
X2676729Y-10338103D01*
X2676729Y-10338103D02*
X2667206Y-10376198D01*
X2667206Y-10376198D02*
X2667206Y-10452389D01*
X2667206Y-10452389D02*
X2676729Y-10471436D01*
X2676729Y-10471436D02*
X2686253Y-10480960D01*
X2686253Y-10480960D02*
X2705301Y-10490484D01*
X2705301Y-10490484D02*
X2743396Y-10490484D01*
X2743396Y-10490484D02*
X2762444Y-10480960D01*
X2762444Y-10480960D02*
X2771968Y-10471436D01*
X2771968Y-10471436D02*
X2781491Y-10452389D01*
X2781491Y-10452389D02*
X2781491Y-10404770D01*
X2781491Y-10404770D02*
X2771968Y-10385722D01*
X2771968Y-10385722D02*
X2762444Y-10376198D01*
X2762444Y-10376198D02*
X2743396Y-10366674D01*
X2743396Y-10366674D02*
X2705301Y-10366674D01*
X2705301Y-10366674D02*
X2686253Y-10376198D01*
X2686253Y-10376198D02*
X2676729Y-10385722D01*
X2676729Y-10385722D02*
X2667206Y-10404770D01*
X2895777Y-10376198D02*
X2876729Y-10366674D01*
X2876729Y-10366674D02*
X2867206Y-10357150D01*
X2867206Y-10357150D02*
X2857682Y-10338103D01*
X2857682Y-10338103D02*
X2857682Y-10328579D01*
X2857682Y-10328579D02*
X2867206Y-10309531D01*
X2867206Y-10309531D02*
X2876729Y-10300008D01*
X2876729Y-10300008D02*
X2895777Y-10290484D01*
X2895777Y-10290484D02*
X2933872Y-10290484D01*
X2933872Y-10290484D02*
X2952920Y-10300008D01*
X2952920Y-10300008D02*
X2962444Y-10309531D01*
X2962444Y-10309531D02*
X2971967Y-10328579D01*
X2971967Y-10328579D02*
X2971967Y-10338103D01*
X2971967Y-10338103D02*
X2962444Y-10357150D01*
X2962444Y-10357150D02*
X2952920Y-10366674D01*
X2952920Y-10366674D02*
X2933872Y-10376198D01*
X2933872Y-10376198D02*
X2895777Y-10376198D01*
X2895777Y-10376198D02*
X2876729Y-10385722D01*
X2876729Y-10385722D02*
X2867206Y-10395246D01*
X2867206Y-10395246D02*
X2857682Y-10414293D01*
X2857682Y-10414293D02*
X2857682Y-10452389D01*
X2857682Y-10452389D02*
X2867206Y-10471436D01*
X2867206Y-10471436D02*
X2876729Y-10480960D01*
X2876729Y-10480960D02*
X2895777Y-10490484D01*
X2895777Y-10490484D02*
X2933872Y-10490484D01*
X2933872Y-10490484D02*
X2952920Y-10480960D01*
X2952920Y-10480960D02*
X2962444Y-10471436D01*
X2962444Y-10471436D02*
X2971967Y-10452389D01*
X2971967Y-10452389D02*
X2971967Y-10414293D01*
X2971967Y-10414293D02*
X2962444Y-10395246D01*
X2962444Y-10395246D02*
X2952920Y-10385722D01*
X2952920Y-10385722D02*
X2933872Y-10376198D01*
X3067206Y-10490484D02*
X3105301Y-10490484D01*
X3105301Y-10490484D02*
X3124348Y-10480960D01*
X3124348Y-10480960D02*
X3133872Y-10471436D01*
X3133872Y-10471436D02*
X3152920Y-10442865D01*
X3152920Y-10442865D02*
X3162444Y-10404770D01*
X3162444Y-10404770D02*
X3162444Y-10328579D01*
X3162444Y-10328579D02*
X3152920Y-10309531D01*
X3152920Y-10309531D02*
X3143396Y-10300008D01*
X3143396Y-10300008D02*
X3124348Y-10290484D01*
X3124348Y-10290484D02*
X3086253Y-10290484D01*
X3086253Y-10290484D02*
X3067206Y-10300008D01*
X3067206Y-10300008D02*
X3057682Y-10309531D01*
X3057682Y-10309531D02*
X3048158Y-10328579D01*
X3048158Y-10328579D02*
X3048158Y-10376198D01*
X3048158Y-10376198D02*
X3057682Y-10395246D01*
X3057682Y-10395246D02*
X3067206Y-10404770D01*
X3067206Y-10404770D02*
X3086253Y-10414293D01*
X3086253Y-10414293D02*
X3124348Y-10414293D01*
X3124348Y-10414293D02*
X3143396Y-10404770D01*
X3143396Y-10404770D02*
X3152920Y-10395246D01*
X3152920Y-10395246D02*
X3162444Y-10376198D01*
X3238634Y-10290484D02*
X3238634Y-10328579D01*
X3314825Y-10290484D02*
X3314825Y-10328579D01*
X3610063Y-10566674D02*
X3600539Y-10557150D01*
X3600539Y-10557150D02*
X3581491Y-10528579D01*
X3581491Y-10528579D02*
X3571968Y-10509531D01*
X3571968Y-10509531D02*
X3562444Y-10480960D01*
X3562444Y-10480960D02*
X3552920Y-10433341D01*
X3552920Y-10433341D02*
X3552920Y-10395246D01*
X3552920Y-10395246D02*
X3562444Y-10347627D01*
X3562444Y-10347627D02*
X3571968Y-10319055D01*
X3571968Y-10319055D02*
X3581491Y-10300008D01*
X3581491Y-10300008D02*
X3600539Y-10271436D01*
X3600539Y-10271436D02*
X3610063Y-10261912D01*
X3791015Y-10490484D02*
X3676729Y-10490484D01*
X3733872Y-10490484D02*
X3733872Y-10290484D01*
X3733872Y-10290484D02*
X3714825Y-10319055D01*
X3714825Y-10319055D02*
X3695777Y-10338103D01*
X3695777Y-10338103D02*
X3676729Y-10347627D01*
X3971968Y-10290484D02*
X3876729Y-10290484D01*
X3876729Y-10290484D02*
X3867206Y-10385722D01*
X3867206Y-10385722D02*
X3876729Y-10376198D01*
X3876729Y-10376198D02*
X3895777Y-10366674D01*
X3895777Y-10366674D02*
X3943396Y-10366674D01*
X3943396Y-10366674D02*
X3962444Y-10376198D01*
X3962444Y-10376198D02*
X3971968Y-10385722D01*
X3971968Y-10385722D02*
X3981491Y-10404770D01*
X3981491Y-10404770D02*
X3981491Y-10452389D01*
X3981491Y-10452389D02*
X3971968Y-10471436D01*
X3971968Y-10471436D02*
X3962444Y-10480960D01*
X3962444Y-10480960D02*
X3943396Y-10490484D01*
X3943396Y-10490484D02*
X3895777Y-10490484D01*
X3895777Y-10490484D02*
X3876729Y-10480960D01*
X3876729Y-10480960D02*
X3867206Y-10471436D01*
X4152920Y-10357150D02*
X4152920Y-10490484D01*
X4105301Y-10280960D02*
X4057682Y-10423817D01*
X4057682Y-10423817D02*
X4181491Y-10423817D01*
X4410063Y-10490484D02*
X4410063Y-10290484D01*
X4495777Y-10490484D02*
X4495777Y-10385722D01*
X4495777Y-10385722D02*
X4486253Y-10366674D01*
X4486253Y-10366674D02*
X4467206Y-10357150D01*
X4467206Y-10357150D02*
X4438634Y-10357150D01*
X4438634Y-10357150D02*
X4419587Y-10366674D01*
X4419587Y-10366674D02*
X4410063Y-10376198D01*
X4619587Y-10490484D02*
X4600539Y-10480960D01*
X4600539Y-10480960D02*
X4591015Y-10471436D01*
X4591015Y-10471436D02*
X4581492Y-10452389D01*
X4581492Y-10452389D02*
X4581492Y-10395246D01*
X4581492Y-10395246D02*
X4591015Y-10376198D01*
X4591015Y-10376198D02*
X4600539Y-10366674D01*
X4600539Y-10366674D02*
X4619587Y-10357150D01*
X4619587Y-10357150D02*
X4648158Y-10357150D01*
X4648158Y-10357150D02*
X4667206Y-10366674D01*
X4667206Y-10366674D02*
X4676730Y-10376198D01*
X4676730Y-10376198D02*
X4686253Y-10395246D01*
X4686253Y-10395246D02*
X4686253Y-10452389D01*
X4686253Y-10452389D02*
X4676730Y-10471436D01*
X4676730Y-10471436D02*
X4667206Y-10480960D01*
X4667206Y-10480960D02*
X4648158Y-10490484D01*
X4648158Y-10490484D02*
X4619587Y-10490484D01*
X4800539Y-10490484D02*
X4781492Y-10480960D01*
X4781492Y-10480960D02*
X4771968Y-10461912D01*
X4771968Y-10461912D02*
X4771968Y-10290484D01*
X4952920Y-10480960D02*
X4933873Y-10490484D01*
X4933873Y-10490484D02*
X4895777Y-10490484D01*
X4895777Y-10490484D02*
X4876730Y-10480960D01*
X4876730Y-10480960D02*
X4867206Y-10461912D01*
X4867206Y-10461912D02*
X4867206Y-10385722D01*
X4867206Y-10385722D02*
X4876730Y-10366674D01*
X4876730Y-10366674D02*
X4895777Y-10357150D01*
X4895777Y-10357150D02*
X4933873Y-10357150D01*
X4933873Y-10357150D02*
X4952920Y-10366674D01*
X4952920Y-10366674D02*
X4962444Y-10385722D01*
X4962444Y-10385722D02*
X4962444Y-10404770D01*
X4962444Y-10404770D02*
X4867206Y-10423817D01*
X5038634Y-10480960D02*
X5057682Y-10490484D01*
X5057682Y-10490484D02*
X5095777Y-10490484D01*
X5095777Y-10490484D02*
X5114825Y-10480960D01*
X5114825Y-10480960D02*
X5124349Y-10461912D01*
X5124349Y-10461912D02*
X5124349Y-10452389D01*
X5124349Y-10452389D02*
X5114825Y-10433341D01*
X5114825Y-10433341D02*
X5095777Y-10423817D01*
X5095777Y-10423817D02*
X5067206Y-10423817D01*
X5067206Y-10423817D02*
X5048158Y-10414293D01*
X5048158Y-10414293D02*
X5038634Y-10395246D01*
X5038634Y-10395246D02*
X5038634Y-10385722D01*
X5038634Y-10385722D02*
X5048158Y-10366674D01*
X5048158Y-10366674D02*
X5067206Y-10357150D01*
X5067206Y-10357150D02*
X5095777Y-10357150D01*
X5095777Y-10357150D02*
X5114825Y-10366674D01*
X5191015Y-10566674D02*
X5200539Y-10557150D01*
X5200539Y-10557150D02*
X5219587Y-10528579D01*
X5219587Y-10528579D02*
X5229111Y-10509531D01*
X5229111Y-10509531D02*
X5238634Y-10480960D01*
X5238634Y-10480960D02*
X5248158Y-10433341D01*
X5248158Y-10433341D02*
X5248158Y-10395246D01*
X5248158Y-10395246D02*
X5238634Y-10347627D01*
X5238634Y-10347627D02*
X5229111Y-10319055D01*
X5229111Y-10319055D02*
X5219587Y-10300008D01*
X5219587Y-10300008D02*
X5200539Y-10271436D01*
X5200539Y-10271436D02*
X5191015Y-10261912D01*
X5552920Y-10566674D02*
X5543396Y-10557150D01*
X5543396Y-10557150D02*
X5524349Y-10528579D01*
X5524349Y-10528579D02*
X5514825Y-10509531D01*
X5514825Y-10509531D02*
X5505301Y-10480960D01*
X5505301Y-10480960D02*
X5495777Y-10433341D01*
X5495777Y-10433341D02*
X5495777Y-10395246D01*
X5495777Y-10395246D02*
X5505301Y-10347627D01*
X5505301Y-10347627D02*
X5514825Y-10319055D01*
X5514825Y-10319055D02*
X5524349Y-10300008D01*
X5524349Y-10300008D02*
X5543396Y-10271436D01*
X5543396Y-10271436D02*
X5552920Y-10261912D01*
X5629111Y-10357150D02*
X5629111Y-10490484D01*
X5629111Y-10376198D02*
X5638634Y-10366674D01*
X5638634Y-10366674D02*
X5657682Y-10357150D01*
X5657682Y-10357150D02*
X5686253Y-10357150D01*
X5686253Y-10357150D02*
X5705301Y-10366674D01*
X5705301Y-10366674D02*
X5714825Y-10385722D01*
X5714825Y-10385722D02*
X5714825Y-10490484D01*
X5838634Y-10490484D02*
X5819587Y-10480960D01*
X5819587Y-10480960D02*
X5810063Y-10471436D01*
X5810063Y-10471436D02*
X5800539Y-10452389D01*
X5800539Y-10452389D02*
X5800539Y-10395246D01*
X5800539Y-10395246D02*
X5810063Y-10376198D01*
X5810063Y-10376198D02*
X5819587Y-10366674D01*
X5819587Y-10366674D02*
X5838634Y-10357150D01*
X5838634Y-10357150D02*
X5867206Y-10357150D01*
X5867206Y-10357150D02*
X5886253Y-10366674D01*
X5886253Y-10366674D02*
X5895777Y-10376198D01*
X5895777Y-10376198D02*
X5905301Y-10395246D01*
X5905301Y-10395246D02*
X5905301Y-10452389D01*
X5905301Y-10452389D02*
X5895777Y-10471436D01*
X5895777Y-10471436D02*
X5886253Y-10480960D01*
X5886253Y-10480960D02*
X5867206Y-10490484D01*
X5867206Y-10490484D02*
X5838634Y-10490484D01*
X5962444Y-10357150D02*
X6038634Y-10357150D01*
X5991015Y-10290484D02*
X5991015Y-10461912D01*
X5991015Y-10461912D02*
X6000539Y-10480960D01*
X6000539Y-10480960D02*
X6019587Y-10490484D01*
X6019587Y-10490484D02*
X6038634Y-10490484D01*
X6257682Y-10357150D02*
X6257682Y-10557150D01*
X6257682Y-10366674D02*
X6276730Y-10357150D01*
X6276730Y-10357150D02*
X6314825Y-10357150D01*
X6314825Y-10357150D02*
X6333873Y-10366674D01*
X6333873Y-10366674D02*
X6343396Y-10376198D01*
X6343396Y-10376198D02*
X6352920Y-10395246D01*
X6352920Y-10395246D02*
X6352920Y-10452389D01*
X6352920Y-10452389D02*
X6343396Y-10471436D01*
X6343396Y-10471436D02*
X6333873Y-10480960D01*
X6333873Y-10480960D02*
X6314825Y-10490484D01*
X6314825Y-10490484D02*
X6276730Y-10490484D01*
X6276730Y-10490484D02*
X6257682Y-10480960D01*
X6467206Y-10490484D02*
X6448158Y-10480960D01*
X6448158Y-10480960D02*
X6438634Y-10461912D01*
X6438634Y-10461912D02*
X6438634Y-10290484D01*
X6629111Y-10490484D02*
X6629111Y-10385722D01*
X6629111Y-10385722D02*
X6619587Y-10366674D01*
X6619587Y-10366674D02*
X6600539Y-10357150D01*
X6600539Y-10357150D02*
X6562444Y-10357150D01*
X6562444Y-10357150D02*
X6543396Y-10366674D01*
X6629111Y-10480960D02*
X6610063Y-10490484D01*
X6610063Y-10490484D02*
X6562444Y-10490484D01*
X6562444Y-10490484D02*
X6543396Y-10480960D01*
X6543396Y-10480960D02*
X6533873Y-10461912D01*
X6533873Y-10461912D02*
X6533873Y-10442865D01*
X6533873Y-10442865D02*
X6543396Y-10423817D01*
X6543396Y-10423817D02*
X6562444Y-10414293D01*
X6562444Y-10414293D02*
X6610063Y-10414293D01*
X6610063Y-10414293D02*
X6629111Y-10404770D01*
X6695777Y-10357150D02*
X6771968Y-10357150D01*
X6724349Y-10290484D02*
X6724349Y-10461912D01*
X6724349Y-10461912D02*
X6733873Y-10480960D01*
X6733873Y-10480960D02*
X6752920Y-10490484D01*
X6752920Y-10490484D02*
X6771968Y-10490484D01*
X6914825Y-10480960D02*
X6895777Y-10490484D01*
X6895777Y-10490484D02*
X6857682Y-10490484D01*
X6857682Y-10490484D02*
X6838634Y-10480960D01*
X6838634Y-10480960D02*
X6829111Y-10461912D01*
X6829111Y-10461912D02*
X6829111Y-10385722D01*
X6829111Y-10385722D02*
X6838634Y-10366674D01*
X6838634Y-10366674D02*
X6857682Y-10357150D01*
X6857682Y-10357150D02*
X6895777Y-10357150D01*
X6895777Y-10357150D02*
X6914825Y-10366674D01*
X6914825Y-10366674D02*
X6924349Y-10385722D01*
X6924349Y-10385722D02*
X6924349Y-10404770D01*
X6924349Y-10404770D02*
X6829111Y-10423817D01*
X7095777Y-10490484D02*
X7095777Y-10290484D01*
X7095777Y-10480960D02*
X7076730Y-10490484D01*
X7076730Y-10490484D02*
X7038634Y-10490484D01*
X7038634Y-10490484D02*
X7019587Y-10480960D01*
X7019587Y-10480960D02*
X7010063Y-10471436D01*
X7010063Y-10471436D02*
X7000539Y-10452389D01*
X7000539Y-10452389D02*
X7000539Y-10395246D01*
X7000539Y-10395246D02*
X7010063Y-10376198D01*
X7010063Y-10376198D02*
X7019587Y-10366674D01*
X7019587Y-10366674D02*
X7038634Y-10357150D01*
X7038634Y-10357150D02*
X7076730Y-10357150D01*
X7076730Y-10357150D02*
X7095777Y-10366674D01*
X7171968Y-10566674D02*
X7181492Y-10557150D01*
X7181492Y-10557150D02*
X7200539Y-10528579D01*
X7200539Y-10528579D02*
X7210063Y-10509531D01*
X7210063Y-10509531D02*
X7219587Y-10480960D01*
X7219587Y-10480960D02*
X7229111Y-10433341D01*
X7229111Y-10433341D02*
X7229111Y-10395246D01*
X7229111Y-10395246D02*
X7219587Y-10347627D01*
X7219587Y-10347627D02*
X7210063Y-10319055D01*
X7210063Y-10319055D02*
X7200539Y-10300008D01*
X7200539Y-10300008D02*
X7181492Y-10271436D01*
X7181492Y-10271436D02*
X7171968Y-10261912D01*
X-65000Y-10594000D02*
X-65000Y-10794000D01*
X-165000Y-10694000D02*
X35000Y-10694000D01*
X286253Y-10604531D02*
X295777Y-10595008D01*
X295777Y-10595008D02*
X314824Y-10585484D01*
X314824Y-10585484D02*
X362443Y-10585484D01*
X362443Y-10585484D02*
X381491Y-10595008D01*
X381491Y-10595008D02*
X391015Y-10604531D01*
X391015Y-10604531D02*
X400539Y-10623579D01*
X400539Y-10623579D02*
X400539Y-10642627D01*
X400539Y-10642627D02*
X391015Y-10671198D01*
X391015Y-10671198D02*
X276729Y-10785484D01*
X276729Y-10785484D02*
X400539Y-10785484D01*
X486253Y-10766436D02*
X495777Y-10775960D01*
X495777Y-10775960D02*
X486253Y-10785484D01*
X486253Y-10785484D02*
X476729Y-10775960D01*
X476729Y-10775960D02*
X486253Y-10766436D01*
X486253Y-10766436D02*
X486253Y-10785484D01*
X676729Y-10585484D02*
X581491Y-10585484D01*
X581491Y-10585484D02*
X571967Y-10680722D01*
X571967Y-10680722D02*
X581491Y-10671198D01*
X581491Y-10671198D02*
X600539Y-10661674D01*
X600539Y-10661674D02*
X648158Y-10661674D01*
X648158Y-10661674D02*
X667205Y-10671198D01*
X667205Y-10671198D02*
X676729Y-10680722D01*
X676729Y-10680722D02*
X686253Y-10699770D01*
X686253Y-10699770D02*
X686253Y-10747389D01*
X686253Y-10747389D02*
X676729Y-10766436D01*
X676729Y-10766436D02*
X667205Y-10775960D01*
X667205Y-10775960D02*
X648158Y-10785484D01*
X648158Y-10785484D02*
X600539Y-10785484D01*
X600539Y-10785484D02*
X581491Y-10775960D01*
X581491Y-10775960D02*
X571967Y-10766436D01*
X810062Y-10585484D02*
X829110Y-10585484D01*
X829110Y-10585484D02*
X848158Y-10595008D01*
X848158Y-10595008D02*
X857682Y-10604531D01*
X857682Y-10604531D02*
X867205Y-10623579D01*
X867205Y-10623579D02*
X876729Y-10661674D01*
X876729Y-10661674D02*
X876729Y-10709293D01*
X876729Y-10709293D02*
X867205Y-10747389D01*
X867205Y-10747389D02*
X857682Y-10766436D01*
X857682Y-10766436D02*
X848158Y-10775960D01*
X848158Y-10775960D02*
X829110Y-10785484D01*
X829110Y-10785484D02*
X810062Y-10785484D01*
X810062Y-10785484D02*
X791015Y-10775960D01*
X791015Y-10775960D02*
X781491Y-10766436D01*
X781491Y-10766436D02*
X771967Y-10747389D01*
X771967Y-10747389D02*
X762443Y-10709293D01*
X762443Y-10709293D02*
X762443Y-10661674D01*
X762443Y-10661674D02*
X771967Y-10623579D01*
X771967Y-10623579D02*
X781491Y-10604531D01*
X781491Y-10604531D02*
X791015Y-10595008D01*
X791015Y-10595008D02*
X810062Y-10585484D01*
X1000539Y-10585484D02*
X1019586Y-10585484D01*
X1019586Y-10585484D02*
X1038634Y-10595008D01*
X1038634Y-10595008D02*
X1048158Y-10604531D01*
X1048158Y-10604531D02*
X1057682Y-10623579D01*
X1057682Y-10623579D02*
X1067205Y-10661674D01*
X1067205Y-10661674D02*
X1067205Y-10709293D01*
X1067205Y-10709293D02*
X1057682Y-10747389D01*
X1057682Y-10747389D02*
X1048158Y-10766436D01*
X1048158Y-10766436D02*
X1038634Y-10775960D01*
X1038634Y-10775960D02*
X1019586Y-10785484D01*
X1019586Y-10785484D02*
X1000539Y-10785484D01*
X1000539Y-10785484D02*
X981491Y-10775960D01*
X981491Y-10775960D02*
X971967Y-10766436D01*
X971967Y-10766436D02*
X962443Y-10747389D01*
X962443Y-10747389D02*
X952920Y-10709293D01*
X952920Y-10709293D02*
X952920Y-10661674D01*
X952920Y-10661674D02*
X962443Y-10623579D01*
X962443Y-10623579D02*
X971967Y-10604531D01*
X971967Y-10604531D02*
X981491Y-10595008D01*
X981491Y-10595008D02*
X1000539Y-10585484D01*
X1152920Y-10785484D02*
X1152920Y-10652150D01*
X1152920Y-10671198D02*
X1162444Y-10661674D01*
X1162444Y-10661674D02*
X1181491Y-10652150D01*
X1181491Y-10652150D02*
X1210063Y-10652150D01*
X1210063Y-10652150D02*
X1229110Y-10661674D01*
X1229110Y-10661674D02*
X1238634Y-10680722D01*
X1238634Y-10680722D02*
X1238634Y-10785484D01*
X1238634Y-10680722D02*
X1248158Y-10661674D01*
X1248158Y-10661674D02*
X1267205Y-10652150D01*
X1267205Y-10652150D02*
X1295777Y-10652150D01*
X1295777Y-10652150D02*
X1314825Y-10661674D01*
X1314825Y-10661674D02*
X1324348Y-10680722D01*
X1324348Y-10680722D02*
X1324348Y-10785484D01*
X1419586Y-10785484D02*
X1419586Y-10652150D01*
X1419586Y-10671198D02*
X1429110Y-10661674D01*
X1429110Y-10661674D02*
X1448158Y-10652150D01*
X1448158Y-10652150D02*
X1476729Y-10652150D01*
X1476729Y-10652150D02*
X1495777Y-10661674D01*
X1495777Y-10661674D02*
X1505301Y-10680722D01*
X1505301Y-10680722D02*
X1505301Y-10785484D01*
X1505301Y-10680722D02*
X1514824Y-10661674D01*
X1514824Y-10661674D02*
X1533872Y-10652150D01*
X1533872Y-10652150D02*
X1562443Y-10652150D01*
X1562443Y-10652150D02*
X1581491Y-10661674D01*
X1581491Y-10661674D02*
X1591015Y-10680722D01*
X1591015Y-10680722D02*
X1591015Y-10785484D01*
X1981491Y-10575960D02*
X1810063Y-10833103D01*
X2238634Y-10585484D02*
X2257682Y-10585484D01*
X2257682Y-10585484D02*
X2276729Y-10595008D01*
X2276729Y-10595008D02*
X2286253Y-10604531D01*
X2286253Y-10604531D02*
X2295777Y-10623579D01*
X2295777Y-10623579D02*
X2305301Y-10661674D01*
X2305301Y-10661674D02*
X2305301Y-10709293D01*
X2305301Y-10709293D02*
X2295777Y-10747389D01*
X2295777Y-10747389D02*
X2286253Y-10766436D01*
X2286253Y-10766436D02*
X2276729Y-10775960D01*
X2276729Y-10775960D02*
X2257682Y-10785484D01*
X2257682Y-10785484D02*
X2238634Y-10785484D01*
X2238634Y-10785484D02*
X2219587Y-10775960D01*
X2219587Y-10775960D02*
X2210063Y-10766436D01*
X2210063Y-10766436D02*
X2200539Y-10747389D01*
X2200539Y-10747389D02*
X2191015Y-10709293D01*
X2191015Y-10709293D02*
X2191015Y-10661674D01*
X2191015Y-10661674D02*
X2200539Y-10623579D01*
X2200539Y-10623579D02*
X2210063Y-10604531D01*
X2210063Y-10604531D02*
X2219587Y-10595008D01*
X2219587Y-10595008D02*
X2238634Y-10585484D01*
X2391015Y-10766436D02*
X2400539Y-10775960D01*
X2400539Y-10775960D02*
X2391015Y-10785484D01*
X2391015Y-10785484D02*
X2381491Y-10775960D01*
X2381491Y-10775960D02*
X2391015Y-10766436D01*
X2391015Y-10766436D02*
X2391015Y-10785484D01*
X2524348Y-10585484D02*
X2543396Y-10585484D01*
X2543396Y-10585484D02*
X2562444Y-10595008D01*
X2562444Y-10595008D02*
X2571968Y-10604531D01*
X2571968Y-10604531D02*
X2581491Y-10623579D01*
X2581491Y-10623579D02*
X2591015Y-10661674D01*
X2591015Y-10661674D02*
X2591015Y-10709293D01*
X2591015Y-10709293D02*
X2581491Y-10747389D01*
X2581491Y-10747389D02*
X2571968Y-10766436D01*
X2571968Y-10766436D02*
X2562444Y-10775960D01*
X2562444Y-10775960D02*
X2543396Y-10785484D01*
X2543396Y-10785484D02*
X2524348Y-10785484D01*
X2524348Y-10785484D02*
X2505301Y-10775960D01*
X2505301Y-10775960D02*
X2495777Y-10766436D01*
X2495777Y-10766436D02*
X2486253Y-10747389D01*
X2486253Y-10747389D02*
X2476729Y-10709293D01*
X2476729Y-10709293D02*
X2476729Y-10661674D01*
X2476729Y-10661674D02*
X2486253Y-10623579D01*
X2486253Y-10623579D02*
X2495777Y-10604531D01*
X2495777Y-10604531D02*
X2505301Y-10595008D01*
X2505301Y-10595008D02*
X2524348Y-10585484D01*
X2686253Y-10785484D02*
X2724348Y-10785484D01*
X2724348Y-10785484D02*
X2743396Y-10775960D01*
X2743396Y-10775960D02*
X2752920Y-10766436D01*
X2752920Y-10766436D02*
X2771968Y-10737865D01*
X2771968Y-10737865D02*
X2781491Y-10699770D01*
X2781491Y-10699770D02*
X2781491Y-10623579D01*
X2781491Y-10623579D02*
X2771968Y-10604531D01*
X2771968Y-10604531D02*
X2762444Y-10595008D01*
X2762444Y-10595008D02*
X2743396Y-10585484D01*
X2743396Y-10585484D02*
X2705301Y-10585484D01*
X2705301Y-10585484D02*
X2686253Y-10595008D01*
X2686253Y-10595008D02*
X2676729Y-10604531D01*
X2676729Y-10604531D02*
X2667206Y-10623579D01*
X2667206Y-10623579D02*
X2667206Y-10671198D01*
X2667206Y-10671198D02*
X2676729Y-10690246D01*
X2676729Y-10690246D02*
X2686253Y-10699770D01*
X2686253Y-10699770D02*
X2705301Y-10709293D01*
X2705301Y-10709293D02*
X2743396Y-10709293D01*
X2743396Y-10709293D02*
X2762444Y-10699770D01*
X2762444Y-10699770D02*
X2771968Y-10690246D01*
X2771968Y-10690246D02*
X2781491Y-10671198D01*
X2895777Y-10671198D02*
X2876729Y-10661674D01*
X2876729Y-10661674D02*
X2867206Y-10652150D01*
X2867206Y-10652150D02*
X2857682Y-10633103D01*
X2857682Y-10633103D02*
X2857682Y-10623579D01*
X2857682Y-10623579D02*
X2867206Y-10604531D01*
X2867206Y-10604531D02*
X2876729Y-10595008D01*
X2876729Y-10595008D02*
X2895777Y-10585484D01*
X2895777Y-10585484D02*
X2933872Y-10585484D01*
X2933872Y-10585484D02*
X2952920Y-10595008D01*
X2952920Y-10595008D02*
X2962444Y-10604531D01*
X2962444Y-10604531D02*
X2971967Y-10623579D01*
X2971967Y-10623579D02*
X2971967Y-10633103D01*
X2971967Y-10633103D02*
X2962444Y-10652150D01*
X2962444Y-10652150D02*
X2952920Y-10661674D01*
X2952920Y-10661674D02*
X2933872Y-10671198D01*
X2933872Y-10671198D02*
X2895777Y-10671198D01*
X2895777Y-10671198D02*
X2876729Y-10680722D01*
X2876729Y-10680722D02*
X2867206Y-10690246D01*
X2867206Y-10690246D02*
X2857682Y-10709293D01*
X2857682Y-10709293D02*
X2857682Y-10747389D01*
X2857682Y-10747389D02*
X2867206Y-10766436D01*
X2867206Y-10766436D02*
X2876729Y-10775960D01*
X2876729Y-10775960D02*
X2895777Y-10785484D01*
X2895777Y-10785484D02*
X2933872Y-10785484D01*
X2933872Y-10785484D02*
X2952920Y-10775960D01*
X2952920Y-10775960D02*
X2962444Y-10766436D01*
X2962444Y-10766436D02*
X2971967Y-10747389D01*
X2971967Y-10747389D02*
X2971967Y-10709293D01*
X2971967Y-10709293D02*
X2962444Y-10690246D01*
X2962444Y-10690246D02*
X2952920Y-10680722D01*
X2952920Y-10680722D02*
X2933872Y-10671198D01*
X3143396Y-10652150D02*
X3143396Y-10785484D01*
X3095777Y-10575960D02*
X3048158Y-10718817D01*
X3048158Y-10718817D02*
X3171967Y-10718817D01*
X3238634Y-10585484D02*
X3238634Y-10623579D01*
X3314825Y-10585484D02*
X3314825Y-10623579D01*
X3610063Y-10861674D02*
X3600539Y-10852150D01*
X3600539Y-10852150D02*
X3581491Y-10823579D01*
X3581491Y-10823579D02*
X3571968Y-10804531D01*
X3571968Y-10804531D02*
X3562444Y-10775960D01*
X3562444Y-10775960D02*
X3552920Y-10728341D01*
X3552920Y-10728341D02*
X3552920Y-10690246D01*
X3552920Y-10690246D02*
X3562444Y-10642627D01*
X3562444Y-10642627D02*
X3571968Y-10614055D01*
X3571968Y-10614055D02*
X3581491Y-10595008D01*
X3581491Y-10595008D02*
X3600539Y-10566436D01*
X3600539Y-10566436D02*
X3610063Y-10556912D01*
X3791015Y-10785484D02*
X3676729Y-10785484D01*
X3733872Y-10785484D02*
X3733872Y-10585484D01*
X3733872Y-10585484D02*
X3714825Y-10614055D01*
X3714825Y-10614055D02*
X3695777Y-10633103D01*
X3695777Y-10633103D02*
X3676729Y-10642627D01*
X4029110Y-10785484D02*
X4029110Y-10585484D01*
X4114825Y-10785484D02*
X4114825Y-10680722D01*
X4114825Y-10680722D02*
X4105301Y-10661674D01*
X4105301Y-10661674D02*
X4086253Y-10652150D01*
X4086253Y-10652150D02*
X4057682Y-10652150D01*
X4057682Y-10652150D02*
X4038634Y-10661674D01*
X4038634Y-10661674D02*
X4029110Y-10671198D01*
X4238634Y-10785484D02*
X4219587Y-10775960D01*
X4219587Y-10775960D02*
X4210063Y-10766436D01*
X4210063Y-10766436D02*
X4200539Y-10747389D01*
X4200539Y-10747389D02*
X4200539Y-10690246D01*
X4200539Y-10690246D02*
X4210063Y-10671198D01*
X4210063Y-10671198D02*
X4219587Y-10661674D01*
X4219587Y-10661674D02*
X4238634Y-10652150D01*
X4238634Y-10652150D02*
X4267206Y-10652150D01*
X4267206Y-10652150D02*
X4286253Y-10661674D01*
X4286253Y-10661674D02*
X4295777Y-10671198D01*
X4295777Y-10671198D02*
X4305301Y-10690246D01*
X4305301Y-10690246D02*
X4305301Y-10747389D01*
X4305301Y-10747389D02*
X4295777Y-10766436D01*
X4295777Y-10766436D02*
X4286253Y-10775960D01*
X4286253Y-10775960D02*
X4267206Y-10785484D01*
X4267206Y-10785484D02*
X4238634Y-10785484D01*
X4419587Y-10785484D02*
X4400539Y-10775960D01*
X4400539Y-10775960D02*
X4391015Y-10756912D01*
X4391015Y-10756912D02*
X4391015Y-10585484D01*
X4571968Y-10775960D02*
X4552920Y-10785484D01*
X4552920Y-10785484D02*
X4514825Y-10785484D01*
X4514825Y-10785484D02*
X4495777Y-10775960D01*
X4495777Y-10775960D02*
X4486253Y-10756912D01*
X4486253Y-10756912D02*
X4486253Y-10680722D01*
X4486253Y-10680722D02*
X4495777Y-10661674D01*
X4495777Y-10661674D02*
X4514825Y-10652150D01*
X4514825Y-10652150D02*
X4552920Y-10652150D01*
X4552920Y-10652150D02*
X4571968Y-10661674D01*
X4571968Y-10661674D02*
X4581492Y-10680722D01*
X4581492Y-10680722D02*
X4581492Y-10699770D01*
X4581492Y-10699770D02*
X4486253Y-10718817D01*
X4657682Y-10775960D02*
X4676730Y-10785484D01*
X4676730Y-10785484D02*
X4714825Y-10785484D01*
X4714825Y-10785484D02*
X4733873Y-10775960D01*
X4733873Y-10775960D02*
X4743396Y-10756912D01*
X4743396Y-10756912D02*
X4743396Y-10747389D01*
X4743396Y-10747389D02*
X4733873Y-10728341D01*
X4733873Y-10728341D02*
X4714825Y-10718817D01*
X4714825Y-10718817D02*
X4686253Y-10718817D01*
X4686253Y-10718817D02*
X4667206Y-10709293D01*
X4667206Y-10709293D02*
X4657682Y-10690246D01*
X4657682Y-10690246D02*
X4657682Y-10680722D01*
X4657682Y-10680722D02*
X4667206Y-10661674D01*
X4667206Y-10661674D02*
X4686253Y-10652150D01*
X4686253Y-10652150D02*
X4714825Y-10652150D01*
X4714825Y-10652150D02*
X4733873Y-10661674D01*
X4981492Y-10709293D02*
X5133873Y-10709293D01*
X5057682Y-10785484D02*
X5057682Y-10633103D01*
X5476730Y-10585484D02*
X5381492Y-10585484D01*
X5381492Y-10585484D02*
X5371968Y-10680722D01*
X5371968Y-10680722D02*
X5381492Y-10671198D01*
X5381492Y-10671198D02*
X5400539Y-10661674D01*
X5400539Y-10661674D02*
X5448158Y-10661674D01*
X5448158Y-10661674D02*
X5467206Y-10671198D01*
X5467206Y-10671198D02*
X5476730Y-10680722D01*
X5476730Y-10680722D02*
X5486254Y-10699770D01*
X5486254Y-10699770D02*
X5486254Y-10747389D01*
X5486254Y-10747389D02*
X5476730Y-10766436D01*
X5476730Y-10766436D02*
X5467206Y-10775960D01*
X5467206Y-10775960D02*
X5448158Y-10785484D01*
X5448158Y-10785484D02*
X5400539Y-10785484D01*
X5400539Y-10785484D02*
X5381492Y-10775960D01*
X5381492Y-10775960D02*
X5371968Y-10766436D01*
X5714825Y-10775960D02*
X5733873Y-10785484D01*
X5733873Y-10785484D02*
X5771968Y-10785484D01*
X5771968Y-10785484D02*
X5791015Y-10775960D01*
X5791015Y-10775960D02*
X5800539Y-10756912D01*
X5800539Y-10756912D02*
X5800539Y-10747389D01*
X5800539Y-10747389D02*
X5791015Y-10728341D01*
X5791015Y-10728341D02*
X5771968Y-10718817D01*
X5771968Y-10718817D02*
X5743396Y-10718817D01*
X5743396Y-10718817D02*
X5724349Y-10709293D01*
X5724349Y-10709293D02*
X5714825Y-10690246D01*
X5714825Y-10690246D02*
X5714825Y-10680722D01*
X5714825Y-10680722D02*
X5724349Y-10661674D01*
X5724349Y-10661674D02*
X5743396Y-10652150D01*
X5743396Y-10652150D02*
X5771968Y-10652150D01*
X5771968Y-10652150D02*
X5791015Y-10661674D01*
X5914825Y-10785484D02*
X5895777Y-10775960D01*
X5895777Y-10775960D02*
X5886254Y-10756912D01*
X5886254Y-10756912D02*
X5886254Y-10585484D01*
X6019587Y-10785484D02*
X6000539Y-10775960D01*
X6000539Y-10775960D02*
X5991015Y-10766436D01*
X5991015Y-10766436D02*
X5981492Y-10747389D01*
X5981492Y-10747389D02*
X5981492Y-10690246D01*
X5981492Y-10690246D02*
X5991015Y-10671198D01*
X5991015Y-10671198D02*
X6000539Y-10661674D01*
X6000539Y-10661674D02*
X6019587Y-10652150D01*
X6019587Y-10652150D02*
X6048158Y-10652150D01*
X6048158Y-10652150D02*
X6067206Y-10661674D01*
X6067206Y-10661674D02*
X6076730Y-10671198D01*
X6076730Y-10671198D02*
X6086254Y-10690246D01*
X6086254Y-10690246D02*
X6086254Y-10747389D01*
X6086254Y-10747389D02*
X6076730Y-10766436D01*
X6076730Y-10766436D02*
X6067206Y-10775960D01*
X6067206Y-10775960D02*
X6048158Y-10785484D01*
X6048158Y-10785484D02*
X6019587Y-10785484D01*
X6143396Y-10652150D02*
X6219587Y-10652150D01*
X6171968Y-10585484D02*
X6171968Y-10756912D01*
X6171968Y-10756912D02*
X6181492Y-10775960D01*
X6181492Y-10775960D02*
X6200539Y-10785484D01*
X6200539Y-10785484D02*
X6219587Y-10785484D01*
X6276730Y-10775960D02*
X6295777Y-10785484D01*
X6295777Y-10785484D02*
X6333873Y-10785484D01*
X6333873Y-10785484D02*
X6352920Y-10775960D01*
X6352920Y-10775960D02*
X6362444Y-10756912D01*
X6362444Y-10756912D02*
X6362444Y-10747389D01*
X6362444Y-10747389D02*
X6352920Y-10728341D01*
X6352920Y-10728341D02*
X6333873Y-10718817D01*
X6333873Y-10718817D02*
X6305301Y-10718817D01*
X6305301Y-10718817D02*
X6286254Y-10709293D01*
X6286254Y-10709293D02*
X6276730Y-10690246D01*
X6276730Y-10690246D02*
X6276730Y-10680722D01*
X6276730Y-10680722D02*
X6286254Y-10661674D01*
X6286254Y-10661674D02*
X6305301Y-10652150D01*
X6305301Y-10652150D02*
X6333873Y-10652150D01*
X6333873Y-10652150D02*
X6352920Y-10661674D01*
X6429111Y-10861674D02*
X6438635Y-10852150D01*
X6438635Y-10852150D02*
X6457682Y-10823579D01*
X6457682Y-10823579D02*
X6467206Y-10804531D01*
X6467206Y-10804531D02*
X6476730Y-10775960D01*
X6476730Y-10775960D02*
X6486254Y-10728341D01*
X6486254Y-10728341D02*
X6486254Y-10690246D01*
X6486254Y-10690246D02*
X6476730Y-10642627D01*
X6476730Y-10642627D02*
X6467206Y-10614055D01*
X6467206Y-10614055D02*
X6457682Y-10595008D01*
X6457682Y-10595008D02*
X6438635Y-10566436D01*
X6438635Y-10566436D02*
X6429111Y-10556912D01*
X6791016Y-10861674D02*
X6781492Y-10852150D01*
X6781492Y-10852150D02*
X6762444Y-10823579D01*
X6762444Y-10823579D02*
X6752920Y-10804531D01*
X6752920Y-10804531D02*
X6743396Y-10775960D01*
X6743396Y-10775960D02*
X6733873Y-10728341D01*
X6733873Y-10728341D02*
X6733873Y-10690246D01*
X6733873Y-10690246D02*
X6743396Y-10642627D01*
X6743396Y-10642627D02*
X6752920Y-10614055D01*
X6752920Y-10614055D02*
X6762444Y-10595008D01*
X6762444Y-10595008D02*
X6781492Y-10566436D01*
X6781492Y-10566436D02*
X6791016Y-10556912D01*
X6867206Y-10652150D02*
X6867206Y-10785484D01*
X6867206Y-10671198D02*
X6876730Y-10661674D01*
X6876730Y-10661674D02*
X6895777Y-10652150D01*
X6895777Y-10652150D02*
X6924349Y-10652150D01*
X6924349Y-10652150D02*
X6943396Y-10661674D01*
X6943396Y-10661674D02*
X6952920Y-10680722D01*
X6952920Y-10680722D02*
X6952920Y-10785484D01*
X7076730Y-10785484D02*
X7057682Y-10775960D01*
X7057682Y-10775960D02*
X7048158Y-10766436D01*
X7048158Y-10766436D02*
X7038635Y-10747389D01*
X7038635Y-10747389D02*
X7038635Y-10690246D01*
X7038635Y-10690246D02*
X7048158Y-10671198D01*
X7048158Y-10671198D02*
X7057682Y-10661674D01*
X7057682Y-10661674D02*
X7076730Y-10652150D01*
X7076730Y-10652150D02*
X7105301Y-10652150D01*
X7105301Y-10652150D02*
X7124349Y-10661674D01*
X7124349Y-10661674D02*
X7133873Y-10671198D01*
X7133873Y-10671198D02*
X7143396Y-10690246D01*
X7143396Y-10690246D02*
X7143396Y-10747389D01*
X7143396Y-10747389D02*
X7133873Y-10766436D01*
X7133873Y-10766436D02*
X7124349Y-10775960D01*
X7124349Y-10775960D02*
X7105301Y-10785484D01*
X7105301Y-10785484D02*
X7076730Y-10785484D01*
X7200539Y-10652150D02*
X7276730Y-10652150D01*
X7229111Y-10585484D02*
X7229111Y-10756912D01*
X7229111Y-10756912D02*
X7238635Y-10775960D01*
X7238635Y-10775960D02*
X7257682Y-10785484D01*
X7257682Y-10785484D02*
X7276730Y-10785484D01*
X7495777Y-10652150D02*
X7495777Y-10852150D01*
X7495777Y-10661674D02*
X7514825Y-10652150D01*
X7514825Y-10652150D02*
X7552920Y-10652150D01*
X7552920Y-10652150D02*
X7571968Y-10661674D01*
X7571968Y-10661674D02*
X7581492Y-10671198D01*
X7581492Y-10671198D02*
X7591016Y-10690246D01*
X7591016Y-10690246D02*
X7591016Y-10747389D01*
X7591016Y-10747389D02*
X7581492Y-10766436D01*
X7581492Y-10766436D02*
X7571968Y-10775960D01*
X7571968Y-10775960D02*
X7552920Y-10785484D01*
X7552920Y-10785484D02*
X7514825Y-10785484D01*
X7514825Y-10785484D02*
X7495777Y-10775960D01*
X7705301Y-10785484D02*
X7686254Y-10775960D01*
X7686254Y-10775960D02*
X7676730Y-10756912D01*
X7676730Y-10756912D02*
X7676730Y-10585484D01*
X7867206Y-10785484D02*
X7867206Y-10680722D01*
X7867206Y-10680722D02*
X7857682Y-10661674D01*
X7857682Y-10661674D02*
X7838635Y-10652150D01*
X7838635Y-10652150D02*
X7800539Y-10652150D01*
X7800539Y-10652150D02*
X7781492Y-10661674D01*
X7867206Y-10775960D02*
X7848158Y-10785484D01*
X7848158Y-10785484D02*
X7800539Y-10785484D01*
X7800539Y-10785484D02*
X7781492Y-10775960D01*
X7781492Y-10775960D02*
X7771968Y-10756912D01*
X7771968Y-10756912D02*
X7771968Y-10737865D01*
X7771968Y-10737865D02*
X7781492Y-10718817D01*
X7781492Y-10718817D02*
X7800539Y-10709293D01*
X7800539Y-10709293D02*
X7848158Y-10709293D01*
X7848158Y-10709293D02*
X7867206Y-10699770D01*
X7933873Y-10652150D02*
X8010063Y-10652150D01*
X7962444Y-10585484D02*
X7962444Y-10756912D01*
X7962444Y-10756912D02*
X7971968Y-10775960D01*
X7971968Y-10775960D02*
X7991016Y-10785484D01*
X7991016Y-10785484D02*
X8010063Y-10785484D01*
X8152920Y-10775960D02*
X8133873Y-10785484D01*
X8133873Y-10785484D02*
X8095777Y-10785484D01*
X8095777Y-10785484D02*
X8076730Y-10775960D01*
X8076730Y-10775960D02*
X8067206Y-10756912D01*
X8067206Y-10756912D02*
X8067206Y-10680722D01*
X8067206Y-10680722D02*
X8076730Y-10661674D01*
X8076730Y-10661674D02*
X8095777Y-10652150D01*
X8095777Y-10652150D02*
X8133873Y-10652150D01*
X8133873Y-10652150D02*
X8152920Y-10661674D01*
X8152920Y-10661674D02*
X8162444Y-10680722D01*
X8162444Y-10680722D02*
X8162444Y-10699770D01*
X8162444Y-10699770D02*
X8067206Y-10718817D01*
X8333873Y-10785484D02*
X8333873Y-10585484D01*
X8333873Y-10775960D02*
X8314825Y-10785484D01*
X8314825Y-10785484D02*
X8276730Y-10785484D01*
X8276730Y-10785484D02*
X8257682Y-10775960D01*
X8257682Y-10775960D02*
X8248158Y-10766436D01*
X8248158Y-10766436D02*
X8238635Y-10747389D01*
X8238635Y-10747389D02*
X8238635Y-10690246D01*
X8238635Y-10690246D02*
X8248158Y-10671198D01*
X8248158Y-10671198D02*
X8257682Y-10661674D01*
X8257682Y-10661674D02*
X8276730Y-10652150D01*
X8276730Y-10652150D02*
X8314825Y-10652150D01*
X8314825Y-10652150D02*
X8333873Y-10661674D01*
X8410063Y-10861674D02*
X8419587Y-10852150D01*
X8419587Y-10852150D02*
X8438635Y-10823579D01*
X8438635Y-10823579D02*
X8448159Y-10804531D01*
X8448159Y-10804531D02*
X8457682Y-10775960D01*
X8457682Y-10775960D02*
X8467206Y-10728341D01*
X8467206Y-10728341D02*
X8467206Y-10690246D01*
X8467206Y-10690246D02*
X8457682Y-10642627D01*
X8457682Y-10642627D02*
X8448159Y-10614055D01*
X8448159Y-10614055D02*
X8438635Y-10595008D01*
X8438635Y-10595008D02*
X8419587Y-10566436D01*
X8419587Y-10566436D02*
X8410063Y-10556912D01*
X5711Y-11084711D02*
X5711Y-10943289D01*
X-135711Y-10943289D01*
X-135711Y-11084711D01*
X5711Y-11084711D01*
X276729Y-10905484D02*
X400539Y-10905484D01*
X400539Y-10905484D02*
X333872Y-10981674D01*
X333872Y-10981674D02*
X362443Y-10981674D01*
X362443Y-10981674D02*
X381491Y-10991198D01*
X381491Y-10991198D02*
X391015Y-11000722D01*
X391015Y-11000722D02*
X400539Y-11019770D01*
X400539Y-11019770D02*
X400539Y-11067389D01*
X400539Y-11067389D02*
X391015Y-11086436D01*
X391015Y-11086436D02*
X381491Y-11095960D01*
X381491Y-11095960D02*
X362443Y-11105484D01*
X362443Y-11105484D02*
X305301Y-11105484D01*
X305301Y-11105484D02*
X286253Y-11095960D01*
X286253Y-11095960D02*
X276729Y-11086436D01*
X486253Y-11086436D02*
X495777Y-11095960D01*
X495777Y-11095960D02*
X486253Y-11105484D01*
X486253Y-11105484D02*
X476729Y-11095960D01*
X476729Y-11095960D02*
X486253Y-11086436D01*
X486253Y-11086436D02*
X486253Y-11105484D01*
X619586Y-10905484D02*
X638634Y-10905484D01*
X638634Y-10905484D02*
X657682Y-10915008D01*
X657682Y-10915008D02*
X667205Y-10924531D01*
X667205Y-10924531D02*
X676729Y-10943579D01*
X676729Y-10943579D02*
X686253Y-10981674D01*
X686253Y-10981674D02*
X686253Y-11029293D01*
X686253Y-11029293D02*
X676729Y-11067389D01*
X676729Y-11067389D02*
X667205Y-11086436D01*
X667205Y-11086436D02*
X657682Y-11095960D01*
X657682Y-11095960D02*
X638634Y-11105484D01*
X638634Y-11105484D02*
X619586Y-11105484D01*
X619586Y-11105484D02*
X600539Y-11095960D01*
X600539Y-11095960D02*
X591015Y-11086436D01*
X591015Y-11086436D02*
X581491Y-11067389D01*
X581491Y-11067389D02*
X571967Y-11029293D01*
X571967Y-11029293D02*
X571967Y-10981674D01*
X571967Y-10981674D02*
X581491Y-10943579D01*
X581491Y-10943579D02*
X591015Y-10924531D01*
X591015Y-10924531D02*
X600539Y-10915008D01*
X600539Y-10915008D02*
X619586Y-10905484D01*
X857682Y-10972150D02*
X857682Y-11105484D01*
X810062Y-10895960D02*
X762443Y-11038817D01*
X762443Y-11038817D02*
X886253Y-11038817D01*
X991015Y-10991198D02*
X971967Y-10981674D01*
X971967Y-10981674D02*
X962443Y-10972150D01*
X962443Y-10972150D02*
X952920Y-10953103D01*
X952920Y-10953103D02*
X952920Y-10943579D01*
X952920Y-10943579D02*
X962443Y-10924531D01*
X962443Y-10924531D02*
X971967Y-10915008D01*
X971967Y-10915008D02*
X991015Y-10905484D01*
X991015Y-10905484D02*
X1029110Y-10905484D01*
X1029110Y-10905484D02*
X1048158Y-10915008D01*
X1048158Y-10915008D02*
X1057682Y-10924531D01*
X1057682Y-10924531D02*
X1067205Y-10943579D01*
X1067205Y-10943579D02*
X1067205Y-10953103D01*
X1067205Y-10953103D02*
X1057682Y-10972150D01*
X1057682Y-10972150D02*
X1048158Y-10981674D01*
X1048158Y-10981674D02*
X1029110Y-10991198D01*
X1029110Y-10991198D02*
X991015Y-10991198D01*
X991015Y-10991198D02*
X971967Y-11000722D01*
X971967Y-11000722D02*
X962443Y-11010246D01*
X962443Y-11010246D02*
X952920Y-11029293D01*
X952920Y-11029293D02*
X952920Y-11067389D01*
X952920Y-11067389D02*
X962443Y-11086436D01*
X962443Y-11086436D02*
X971967Y-11095960D01*
X971967Y-11095960D02*
X991015Y-11105484D01*
X991015Y-11105484D02*
X1029110Y-11105484D01*
X1029110Y-11105484D02*
X1048158Y-11095960D01*
X1048158Y-11095960D02*
X1057682Y-11086436D01*
X1057682Y-11086436D02*
X1067205Y-11067389D01*
X1067205Y-11067389D02*
X1067205Y-11029293D01*
X1067205Y-11029293D02*
X1057682Y-11010246D01*
X1057682Y-11010246D02*
X1048158Y-11000722D01*
X1048158Y-11000722D02*
X1029110Y-10991198D01*
X1152920Y-11105484D02*
X1152920Y-10972150D01*
X1152920Y-10991198D02*
X1162444Y-10981674D01*
X1162444Y-10981674D02*
X1181491Y-10972150D01*
X1181491Y-10972150D02*
X1210063Y-10972150D01*
X1210063Y-10972150D02*
X1229110Y-10981674D01*
X1229110Y-10981674D02*
X1238634Y-11000722D01*
X1238634Y-11000722D02*
X1238634Y-11105484D01*
X1238634Y-11000722D02*
X1248158Y-10981674D01*
X1248158Y-10981674D02*
X1267205Y-10972150D01*
X1267205Y-10972150D02*
X1295777Y-10972150D01*
X1295777Y-10972150D02*
X1314825Y-10981674D01*
X1314825Y-10981674D02*
X1324348Y-11000722D01*
X1324348Y-11000722D02*
X1324348Y-11105484D01*
X1419586Y-11105484D02*
X1419586Y-10972150D01*
X1419586Y-10991198D02*
X1429110Y-10981674D01*
X1429110Y-10981674D02*
X1448158Y-10972150D01*
X1448158Y-10972150D02*
X1476729Y-10972150D01*
X1476729Y-10972150D02*
X1495777Y-10981674D01*
X1495777Y-10981674D02*
X1505301Y-11000722D01*
X1505301Y-11000722D02*
X1505301Y-11105484D01*
X1505301Y-11000722D02*
X1514824Y-10981674D01*
X1514824Y-10981674D02*
X1533872Y-10972150D01*
X1533872Y-10972150D02*
X1562443Y-10972150D01*
X1562443Y-10972150D02*
X1581491Y-10981674D01*
X1581491Y-10981674D02*
X1591015Y-11000722D01*
X1591015Y-11000722D02*
X1591015Y-11105484D01*
X1981491Y-10895960D02*
X1810063Y-11153103D01*
X2238634Y-10905484D02*
X2257682Y-10905484D01*
X2257682Y-10905484D02*
X2276729Y-10915008D01*
X2276729Y-10915008D02*
X2286253Y-10924531D01*
X2286253Y-10924531D02*
X2295777Y-10943579D01*
X2295777Y-10943579D02*
X2305301Y-10981674D01*
X2305301Y-10981674D02*
X2305301Y-11029293D01*
X2305301Y-11029293D02*
X2295777Y-11067389D01*
X2295777Y-11067389D02*
X2286253Y-11086436D01*
X2286253Y-11086436D02*
X2276729Y-11095960D01*
X2276729Y-11095960D02*
X2257682Y-11105484D01*
X2257682Y-11105484D02*
X2238634Y-11105484D01*
X2238634Y-11105484D02*
X2219587Y-11095960D01*
X2219587Y-11095960D02*
X2210063Y-11086436D01*
X2210063Y-11086436D02*
X2200539Y-11067389D01*
X2200539Y-11067389D02*
X2191015Y-11029293D01*
X2191015Y-11029293D02*
X2191015Y-10981674D01*
X2191015Y-10981674D02*
X2200539Y-10943579D01*
X2200539Y-10943579D02*
X2210063Y-10924531D01*
X2210063Y-10924531D02*
X2219587Y-10915008D01*
X2219587Y-10915008D02*
X2238634Y-10905484D01*
X2391015Y-11086436D02*
X2400539Y-11095960D01*
X2400539Y-11095960D02*
X2391015Y-11105484D01*
X2391015Y-11105484D02*
X2381491Y-11095960D01*
X2381491Y-11095960D02*
X2391015Y-11086436D01*
X2391015Y-11086436D02*
X2391015Y-11105484D01*
X2591015Y-11105484D02*
X2476729Y-11105484D01*
X2533872Y-11105484D02*
X2533872Y-10905484D01*
X2533872Y-10905484D02*
X2514825Y-10934055D01*
X2514825Y-10934055D02*
X2495777Y-10953103D01*
X2495777Y-10953103D02*
X2476729Y-10962627D01*
X2667206Y-10924531D02*
X2676729Y-10915008D01*
X2676729Y-10915008D02*
X2695777Y-10905484D01*
X2695777Y-10905484D02*
X2743396Y-10905484D01*
X2743396Y-10905484D02*
X2762444Y-10915008D01*
X2762444Y-10915008D02*
X2771968Y-10924531D01*
X2771968Y-10924531D02*
X2781491Y-10943579D01*
X2781491Y-10943579D02*
X2781491Y-10962627D01*
X2781491Y-10962627D02*
X2771968Y-10991198D01*
X2771968Y-10991198D02*
X2657682Y-11105484D01*
X2657682Y-11105484D02*
X2781491Y-11105484D01*
X2905301Y-10905484D02*
X2924348Y-10905484D01*
X2924348Y-10905484D02*
X2943396Y-10915008D01*
X2943396Y-10915008D02*
X2952920Y-10924531D01*
X2952920Y-10924531D02*
X2962444Y-10943579D01*
X2962444Y-10943579D02*
X2971967Y-10981674D01*
X2971967Y-10981674D02*
X2971967Y-11029293D01*
X2971967Y-11029293D02*
X2962444Y-11067389D01*
X2962444Y-11067389D02*
X2952920Y-11086436D01*
X2952920Y-11086436D02*
X2943396Y-11095960D01*
X2943396Y-11095960D02*
X2924348Y-11105484D01*
X2924348Y-11105484D02*
X2905301Y-11105484D01*
X2905301Y-11105484D02*
X2886253Y-11095960D01*
X2886253Y-11095960D02*
X2876729Y-11086436D01*
X2876729Y-11086436D02*
X2867206Y-11067389D01*
X2867206Y-11067389D02*
X2857682Y-11029293D01*
X2857682Y-11029293D02*
X2857682Y-10981674D01*
X2857682Y-10981674D02*
X2867206Y-10943579D01*
X2867206Y-10943579D02*
X2876729Y-10924531D01*
X2876729Y-10924531D02*
X2886253Y-10915008D01*
X2886253Y-10915008D02*
X2905301Y-10905484D01*
X3095777Y-10905484D02*
X3114825Y-10905484D01*
X3114825Y-10905484D02*
X3133872Y-10915008D01*
X3133872Y-10915008D02*
X3143396Y-10924531D01*
X3143396Y-10924531D02*
X3152920Y-10943579D01*
X3152920Y-10943579D02*
X3162444Y-10981674D01*
X3162444Y-10981674D02*
X3162444Y-11029293D01*
X3162444Y-11029293D02*
X3152920Y-11067389D01*
X3152920Y-11067389D02*
X3143396Y-11086436D01*
X3143396Y-11086436D02*
X3133872Y-11095960D01*
X3133872Y-11095960D02*
X3114825Y-11105484D01*
X3114825Y-11105484D02*
X3095777Y-11105484D01*
X3095777Y-11105484D02*
X3076729Y-11095960D01*
X3076729Y-11095960D02*
X3067206Y-11086436D01*
X3067206Y-11086436D02*
X3057682Y-11067389D01*
X3057682Y-11067389D02*
X3048158Y-11029293D01*
X3048158Y-11029293D02*
X3048158Y-10981674D01*
X3048158Y-10981674D02*
X3057682Y-10943579D01*
X3057682Y-10943579D02*
X3067206Y-10924531D01*
X3067206Y-10924531D02*
X3076729Y-10915008D01*
X3076729Y-10915008D02*
X3095777Y-10905484D01*
X3238634Y-10905484D02*
X3238634Y-10943579D01*
X3314825Y-10905484D02*
X3314825Y-10943579D01*
X3610063Y-11181674D02*
X3600539Y-11172150D01*
X3600539Y-11172150D02*
X3581491Y-11143579D01*
X3581491Y-11143579D02*
X3571968Y-11124531D01*
X3571968Y-11124531D02*
X3562444Y-11095960D01*
X3562444Y-11095960D02*
X3552920Y-11048341D01*
X3552920Y-11048341D02*
X3552920Y-11010246D01*
X3552920Y-11010246D02*
X3562444Y-10962627D01*
X3562444Y-10962627D02*
X3571968Y-10934055D01*
X3571968Y-10934055D02*
X3581491Y-10915008D01*
X3581491Y-10915008D02*
X3600539Y-10886436D01*
X3600539Y-10886436D02*
X3610063Y-10876912D01*
X3791015Y-11105484D02*
X3676729Y-11105484D01*
X3733872Y-11105484D02*
X3733872Y-10905484D01*
X3733872Y-10905484D02*
X3714825Y-10934055D01*
X3714825Y-10934055D02*
X3695777Y-10953103D01*
X3695777Y-10953103D02*
X3676729Y-10962627D01*
X3962444Y-10972150D02*
X3962444Y-11105484D01*
X3914825Y-10895960D02*
X3867206Y-11038817D01*
X3867206Y-11038817D02*
X3991015Y-11038817D01*
X4219587Y-11105484D02*
X4219587Y-10905484D01*
X4305301Y-11105484D02*
X4305301Y-11000722D01*
X4305301Y-11000722D02*
X4295777Y-10981674D01*
X4295777Y-10981674D02*
X4276730Y-10972150D01*
X4276730Y-10972150D02*
X4248158Y-10972150D01*
X4248158Y-10972150D02*
X4229111Y-10981674D01*
X4229111Y-10981674D02*
X4219587Y-10991198D01*
X4429111Y-11105484D02*
X4410063Y-11095960D01*
X4410063Y-11095960D02*
X4400539Y-11086436D01*
X4400539Y-11086436D02*
X4391015Y-11067389D01*
X4391015Y-11067389D02*
X4391015Y-11010246D01*
X4391015Y-11010246D02*
X4400539Y-10991198D01*
X4400539Y-10991198D02*
X4410063Y-10981674D01*
X4410063Y-10981674D02*
X4429111Y-10972150D01*
X4429111Y-10972150D02*
X4457682Y-10972150D01*
X4457682Y-10972150D02*
X4476730Y-10981674D01*
X4476730Y-10981674D02*
X4486253Y-10991198D01*
X4486253Y-10991198D02*
X4495777Y-11010246D01*
X4495777Y-11010246D02*
X4495777Y-11067389D01*
X4495777Y-11067389D02*
X4486253Y-11086436D01*
X4486253Y-11086436D02*
X4476730Y-11095960D01*
X4476730Y-11095960D02*
X4457682Y-11105484D01*
X4457682Y-11105484D02*
X4429111Y-11105484D01*
X4610063Y-11105484D02*
X4591015Y-11095960D01*
X4591015Y-11095960D02*
X4581492Y-11076912D01*
X4581492Y-11076912D02*
X4581492Y-10905484D01*
X4762444Y-11095960D02*
X4743396Y-11105484D01*
X4743396Y-11105484D02*
X4705301Y-11105484D01*
X4705301Y-11105484D02*
X4686253Y-11095960D01*
X4686253Y-11095960D02*
X4676730Y-11076912D01*
X4676730Y-11076912D02*
X4676730Y-11000722D01*
X4676730Y-11000722D02*
X4686253Y-10981674D01*
X4686253Y-10981674D02*
X4705301Y-10972150D01*
X4705301Y-10972150D02*
X4743396Y-10972150D01*
X4743396Y-10972150D02*
X4762444Y-10981674D01*
X4762444Y-10981674D02*
X4771968Y-11000722D01*
X4771968Y-11000722D02*
X4771968Y-11019770D01*
X4771968Y-11019770D02*
X4676730Y-11038817D01*
X4848158Y-11095960D02*
X4867206Y-11105484D01*
X4867206Y-11105484D02*
X4905301Y-11105484D01*
X4905301Y-11105484D02*
X4924349Y-11095960D01*
X4924349Y-11095960D02*
X4933873Y-11076912D01*
X4933873Y-11076912D02*
X4933873Y-11067389D01*
X4933873Y-11067389D02*
X4924349Y-11048341D01*
X4924349Y-11048341D02*
X4905301Y-11038817D01*
X4905301Y-11038817D02*
X4876730Y-11038817D01*
X4876730Y-11038817D02*
X4857682Y-11029293D01*
X4857682Y-11029293D02*
X4848158Y-11010246D01*
X4848158Y-11010246D02*
X4848158Y-11000722D01*
X4848158Y-11000722D02*
X4857682Y-10981674D01*
X4857682Y-10981674D02*
X4876730Y-10972150D01*
X4876730Y-10972150D02*
X4905301Y-10972150D01*
X4905301Y-10972150D02*
X4924349Y-10981674D01*
X5000539Y-11181674D02*
X5010063Y-11172150D01*
X5010063Y-11172150D02*
X5029111Y-11143579D01*
X5029111Y-11143579D02*
X5038634Y-11124531D01*
X5038634Y-11124531D02*
X5048158Y-11095960D01*
X5048158Y-11095960D02*
X5057682Y-11048341D01*
X5057682Y-11048341D02*
X5057682Y-11010246D01*
X5057682Y-11010246D02*
X5048158Y-10962627D01*
X5048158Y-10962627D02*
X5038634Y-10934055D01*
X5038634Y-10934055D02*
X5029111Y-10915008D01*
X5029111Y-10915008D02*
X5010063Y-10886436D01*
X5010063Y-10886436D02*
X5000539Y-10876912D01*
X5362444Y-11181674D02*
X5352920Y-11172150D01*
X5352920Y-11172150D02*
X5333873Y-11143579D01*
X5333873Y-11143579D02*
X5324349Y-11124531D01*
X5324349Y-11124531D02*
X5314825Y-11095960D01*
X5314825Y-11095960D02*
X5305301Y-11048341D01*
X5305301Y-11048341D02*
X5305301Y-11010246D01*
X5305301Y-11010246D02*
X5314825Y-10962627D01*
X5314825Y-10962627D02*
X5324349Y-10934055D01*
X5324349Y-10934055D02*
X5333873Y-10915008D01*
X5333873Y-10915008D02*
X5352920Y-10886436D01*
X5352920Y-10886436D02*
X5362444Y-10876912D01*
X5438634Y-10972150D02*
X5438634Y-11105484D01*
X5438634Y-10991198D02*
X5448158Y-10981674D01*
X5448158Y-10981674D02*
X5467206Y-10972150D01*
X5467206Y-10972150D02*
X5495777Y-10972150D01*
X5495777Y-10972150D02*
X5514825Y-10981674D01*
X5514825Y-10981674D02*
X5524349Y-11000722D01*
X5524349Y-11000722D02*
X5524349Y-11105484D01*
X5648158Y-11105484D02*
X5629111Y-11095960D01*
X5629111Y-11095960D02*
X5619587Y-11086436D01*
X5619587Y-11086436D02*
X5610063Y-11067389D01*
X5610063Y-11067389D02*
X5610063Y-11010246D01*
X5610063Y-11010246D02*
X5619587Y-10991198D01*
X5619587Y-10991198D02*
X5629111Y-10981674D01*
X5629111Y-10981674D02*
X5648158Y-10972150D01*
X5648158Y-10972150D02*
X5676730Y-10972150D01*
X5676730Y-10972150D02*
X5695777Y-10981674D01*
X5695777Y-10981674D02*
X5705301Y-10991198D01*
X5705301Y-10991198D02*
X5714825Y-11010246D01*
X5714825Y-11010246D02*
X5714825Y-11067389D01*
X5714825Y-11067389D02*
X5705301Y-11086436D01*
X5705301Y-11086436D02*
X5695777Y-11095960D01*
X5695777Y-11095960D02*
X5676730Y-11105484D01*
X5676730Y-11105484D02*
X5648158Y-11105484D01*
X5771968Y-10972150D02*
X5848158Y-10972150D01*
X5800539Y-10905484D02*
X5800539Y-11076912D01*
X5800539Y-11076912D02*
X5810063Y-11095960D01*
X5810063Y-11095960D02*
X5829111Y-11105484D01*
X5829111Y-11105484D02*
X5848158Y-11105484D01*
X6067206Y-10972150D02*
X6067206Y-11172150D01*
X6067206Y-10981674D02*
X6086253Y-10972150D01*
X6086253Y-10972150D02*
X6124349Y-10972150D01*
X6124349Y-10972150D02*
X6143396Y-10981674D01*
X6143396Y-10981674D02*
X6152920Y-10991198D01*
X6152920Y-10991198D02*
X6162444Y-11010246D01*
X6162444Y-11010246D02*
X6162444Y-11067389D01*
X6162444Y-11067389D02*
X6152920Y-11086436D01*
X6152920Y-11086436D02*
X6143396Y-11095960D01*
X6143396Y-11095960D02*
X6124349Y-11105484D01*
X6124349Y-11105484D02*
X6086253Y-11105484D01*
X6086253Y-11105484D02*
X6067206Y-11095960D01*
X6276730Y-11105484D02*
X6257682Y-11095960D01*
X6257682Y-11095960D02*
X6248158Y-11076912D01*
X6248158Y-11076912D02*
X6248158Y-10905484D01*
X6438634Y-11105484D02*
X6438634Y-11000722D01*
X6438634Y-11000722D02*
X6429111Y-10981674D01*
X6429111Y-10981674D02*
X6410063Y-10972150D01*
X6410063Y-10972150D02*
X6371968Y-10972150D01*
X6371968Y-10972150D02*
X6352920Y-10981674D01*
X6438634Y-11095960D02*
X6419587Y-11105484D01*
X6419587Y-11105484D02*
X6371968Y-11105484D01*
X6371968Y-11105484D02*
X6352920Y-11095960D01*
X6352920Y-11095960D02*
X6343396Y-11076912D01*
X6343396Y-11076912D02*
X6343396Y-11057865D01*
X6343396Y-11057865D02*
X6352920Y-11038817D01*
X6352920Y-11038817D02*
X6371968Y-11029293D01*
X6371968Y-11029293D02*
X6419587Y-11029293D01*
X6419587Y-11029293D02*
X6438634Y-11019770D01*
X6505301Y-10972150D02*
X6581492Y-10972150D01*
X6533873Y-10905484D02*
X6533873Y-11076912D01*
X6533873Y-11076912D02*
X6543396Y-11095960D01*
X6543396Y-11095960D02*
X6562444Y-11105484D01*
X6562444Y-11105484D02*
X6581492Y-11105484D01*
X6724349Y-11095960D02*
X6705301Y-11105484D01*
X6705301Y-11105484D02*
X6667206Y-11105484D01*
X6667206Y-11105484D02*
X6648158Y-11095960D01*
X6648158Y-11095960D02*
X6638634Y-11076912D01*
X6638634Y-11076912D02*
X6638634Y-11000722D01*
X6638634Y-11000722D02*
X6648158Y-10981674D01*
X6648158Y-10981674D02*
X6667206Y-10972150D01*
X6667206Y-10972150D02*
X6705301Y-10972150D01*
X6705301Y-10972150D02*
X6724349Y-10981674D01*
X6724349Y-10981674D02*
X6733873Y-11000722D01*
X6733873Y-11000722D02*
X6733873Y-11019770D01*
X6733873Y-11019770D02*
X6638634Y-11038817D01*
X6905301Y-11105484D02*
X6905301Y-10905484D01*
X6905301Y-11095960D02*
X6886254Y-11105484D01*
X6886254Y-11105484D02*
X6848158Y-11105484D01*
X6848158Y-11105484D02*
X6829111Y-11095960D01*
X6829111Y-11095960D02*
X6819587Y-11086436D01*
X6819587Y-11086436D02*
X6810063Y-11067389D01*
X6810063Y-11067389D02*
X6810063Y-11010246D01*
X6810063Y-11010246D02*
X6819587Y-10991198D01*
X6819587Y-10991198D02*
X6829111Y-10981674D01*
X6829111Y-10981674D02*
X6848158Y-10972150D01*
X6848158Y-10972150D02*
X6886254Y-10972150D01*
X6886254Y-10972150D02*
X6905301Y-10981674D01*
X6981492Y-11181674D02*
X6991015Y-11172150D01*
X6991015Y-11172150D02*
X7010063Y-11143579D01*
X7010063Y-11143579D02*
X7019587Y-11124531D01*
X7019587Y-11124531D02*
X7029111Y-11095960D01*
X7029111Y-11095960D02*
X7038634Y-11048341D01*
X7038634Y-11048341D02*
X7038634Y-11010246D01*
X7038634Y-11010246D02*
X7029111Y-10962627D01*
X7029111Y-10962627D02*
X7019587Y-10934055D01*
X7019587Y-10934055D02*
X7010063Y-10915008D01*
X7010063Y-10915008D02*
X6991015Y-10886436D01*
X6991015Y-10886436D02*
X6981492Y-10876912D01*
X-65000Y-11434000D02*
X35000Y-11334000D01*
X-65000Y-11234000D01*
X-165000Y-11334000D01*
X-65000Y-11434000D01*
X276729Y-11225484D02*
X400539Y-11225484D01*
X400539Y-11225484D02*
X333872Y-11301674D01*
X333872Y-11301674D02*
X362443Y-11301674D01*
X362443Y-11301674D02*
X381491Y-11311198D01*
X381491Y-11311198D02*
X391015Y-11320722D01*
X391015Y-11320722D02*
X400539Y-11339769D01*
X400539Y-11339769D02*
X400539Y-11387388D01*
X400539Y-11387388D02*
X391015Y-11406436D01*
X391015Y-11406436D02*
X381491Y-11415960D01*
X381491Y-11415960D02*
X362443Y-11425484D01*
X362443Y-11425484D02*
X305301Y-11425484D01*
X305301Y-11425484D02*
X286253Y-11415960D01*
X286253Y-11415960D02*
X276729Y-11406436D01*
X486253Y-11406436D02*
X495777Y-11415960D01*
X495777Y-11415960D02*
X486253Y-11425484D01*
X486253Y-11425484D02*
X476729Y-11415960D01*
X476729Y-11415960D02*
X486253Y-11406436D01*
X486253Y-11406436D02*
X486253Y-11425484D01*
X619586Y-11225484D02*
X638634Y-11225484D01*
X638634Y-11225484D02*
X657682Y-11235008D01*
X657682Y-11235008D02*
X667205Y-11244531D01*
X667205Y-11244531D02*
X676729Y-11263579D01*
X676729Y-11263579D02*
X686253Y-11301674D01*
X686253Y-11301674D02*
X686253Y-11349293D01*
X686253Y-11349293D02*
X676729Y-11387388D01*
X676729Y-11387388D02*
X667205Y-11406436D01*
X667205Y-11406436D02*
X657682Y-11415960D01*
X657682Y-11415960D02*
X638634Y-11425484D01*
X638634Y-11425484D02*
X619586Y-11425484D01*
X619586Y-11425484D02*
X600539Y-11415960D01*
X600539Y-11415960D02*
X591015Y-11406436D01*
X591015Y-11406436D02*
X581491Y-11387388D01*
X581491Y-11387388D02*
X571967Y-11349293D01*
X571967Y-11349293D02*
X571967Y-11301674D01*
X571967Y-11301674D02*
X581491Y-11263579D01*
X581491Y-11263579D02*
X591015Y-11244531D01*
X591015Y-11244531D02*
X600539Y-11235008D01*
X600539Y-11235008D02*
X619586Y-11225484D01*
X867205Y-11225484D02*
X771967Y-11225484D01*
X771967Y-11225484D02*
X762443Y-11320722D01*
X762443Y-11320722D02*
X771967Y-11311198D01*
X771967Y-11311198D02*
X791015Y-11301674D01*
X791015Y-11301674D02*
X838634Y-11301674D01*
X838634Y-11301674D02*
X857682Y-11311198D01*
X857682Y-11311198D02*
X867205Y-11320722D01*
X867205Y-11320722D02*
X876729Y-11339769D01*
X876729Y-11339769D02*
X876729Y-11387388D01*
X876729Y-11387388D02*
X867205Y-11406436D01*
X867205Y-11406436D02*
X857682Y-11415960D01*
X857682Y-11415960D02*
X838634Y-11425484D01*
X838634Y-11425484D02*
X791015Y-11425484D01*
X791015Y-11425484D02*
X771967Y-11415960D01*
X771967Y-11415960D02*
X762443Y-11406436D01*
X1000539Y-11225484D02*
X1019586Y-11225484D01*
X1019586Y-11225484D02*
X1038634Y-11235008D01*
X1038634Y-11235008D02*
X1048158Y-11244531D01*
X1048158Y-11244531D02*
X1057682Y-11263579D01*
X1057682Y-11263579D02*
X1067205Y-11301674D01*
X1067205Y-11301674D02*
X1067205Y-11349293D01*
X1067205Y-11349293D02*
X1057682Y-11387388D01*
X1057682Y-11387388D02*
X1048158Y-11406436D01*
X1048158Y-11406436D02*
X1038634Y-11415960D01*
X1038634Y-11415960D02*
X1019586Y-11425484D01*
X1019586Y-11425484D02*
X1000539Y-11425484D01*
X1000539Y-11425484D02*
X981491Y-11415960D01*
X981491Y-11415960D02*
X971967Y-11406436D01*
X971967Y-11406436D02*
X962443Y-11387388D01*
X962443Y-11387388D02*
X952920Y-11349293D01*
X952920Y-11349293D02*
X952920Y-11301674D01*
X952920Y-11301674D02*
X962443Y-11263579D01*
X962443Y-11263579D02*
X971967Y-11244531D01*
X971967Y-11244531D02*
X981491Y-11235008D01*
X981491Y-11235008D02*
X1000539Y-11225484D01*
X1152920Y-11425484D02*
X1152920Y-11292150D01*
X1152920Y-11311198D02*
X1162444Y-11301674D01*
X1162444Y-11301674D02*
X1181491Y-11292150D01*
X1181491Y-11292150D02*
X1210063Y-11292150D01*
X1210063Y-11292150D02*
X1229110Y-11301674D01*
X1229110Y-11301674D02*
X1238634Y-11320722D01*
X1238634Y-11320722D02*
X1238634Y-11425484D01*
X1238634Y-11320722D02*
X1248158Y-11301674D01*
X1248158Y-11301674D02*
X1267205Y-11292150D01*
X1267205Y-11292150D02*
X1295777Y-11292150D01*
X1295777Y-11292150D02*
X1314825Y-11301674D01*
X1314825Y-11301674D02*
X1324348Y-11320722D01*
X1324348Y-11320722D02*
X1324348Y-11425484D01*
X1419586Y-11425484D02*
X1419586Y-11292150D01*
X1419586Y-11311198D02*
X1429110Y-11301674D01*
X1429110Y-11301674D02*
X1448158Y-11292150D01*
X1448158Y-11292150D02*
X1476729Y-11292150D01*
X1476729Y-11292150D02*
X1495777Y-11301674D01*
X1495777Y-11301674D02*
X1505301Y-11320722D01*
X1505301Y-11320722D02*
X1505301Y-11425484D01*
X1505301Y-11320722D02*
X1514824Y-11301674D01*
X1514824Y-11301674D02*
X1533872Y-11292150D01*
X1533872Y-11292150D02*
X1562443Y-11292150D01*
X1562443Y-11292150D02*
X1581491Y-11301674D01*
X1581491Y-11301674D02*
X1591015Y-11320722D01*
X1591015Y-11320722D02*
X1591015Y-11425484D01*
X1981491Y-11215960D02*
X1810063Y-11473103D01*
X2238634Y-11225484D02*
X2257682Y-11225484D01*
X2257682Y-11225484D02*
X2276729Y-11235008D01*
X2276729Y-11235008D02*
X2286253Y-11244531D01*
X2286253Y-11244531D02*
X2295777Y-11263579D01*
X2295777Y-11263579D02*
X2305301Y-11301674D01*
X2305301Y-11301674D02*
X2305301Y-11349293D01*
X2305301Y-11349293D02*
X2295777Y-11387388D01*
X2295777Y-11387388D02*
X2286253Y-11406436D01*
X2286253Y-11406436D02*
X2276729Y-11415960D01*
X2276729Y-11415960D02*
X2257682Y-11425484D01*
X2257682Y-11425484D02*
X2238634Y-11425484D01*
X2238634Y-11425484D02*
X2219587Y-11415960D01*
X2219587Y-11415960D02*
X2210063Y-11406436D01*
X2210063Y-11406436D02*
X2200539Y-11387388D01*
X2200539Y-11387388D02*
X2191015Y-11349293D01*
X2191015Y-11349293D02*
X2191015Y-11301674D01*
X2191015Y-11301674D02*
X2200539Y-11263579D01*
X2200539Y-11263579D02*
X2210063Y-11244531D01*
X2210063Y-11244531D02*
X2219587Y-11235008D01*
X2219587Y-11235008D02*
X2238634Y-11225484D01*
X2391015Y-11406436D02*
X2400539Y-11415960D01*
X2400539Y-11415960D02*
X2391015Y-11425484D01*
X2391015Y-11425484D02*
X2381491Y-11415960D01*
X2381491Y-11415960D02*
X2391015Y-11406436D01*
X2391015Y-11406436D02*
X2391015Y-11425484D01*
X2591015Y-11425484D02*
X2476729Y-11425484D01*
X2533872Y-11425484D02*
X2533872Y-11225484D01*
X2533872Y-11225484D02*
X2514825Y-11254055D01*
X2514825Y-11254055D02*
X2495777Y-11273103D01*
X2495777Y-11273103D02*
X2476729Y-11282627D01*
X2667206Y-11244531D02*
X2676729Y-11235008D01*
X2676729Y-11235008D02*
X2695777Y-11225484D01*
X2695777Y-11225484D02*
X2743396Y-11225484D01*
X2743396Y-11225484D02*
X2762444Y-11235008D01*
X2762444Y-11235008D02*
X2771968Y-11244531D01*
X2771968Y-11244531D02*
X2781491Y-11263579D01*
X2781491Y-11263579D02*
X2781491Y-11282627D01*
X2781491Y-11282627D02*
X2771968Y-11311198D01*
X2771968Y-11311198D02*
X2657682Y-11425484D01*
X2657682Y-11425484D02*
X2781491Y-11425484D01*
X2905301Y-11225484D02*
X2924348Y-11225484D01*
X2924348Y-11225484D02*
X2943396Y-11235008D01*
X2943396Y-11235008D02*
X2952920Y-11244531D01*
X2952920Y-11244531D02*
X2962444Y-11263579D01*
X2962444Y-11263579D02*
X2971967Y-11301674D01*
X2971967Y-11301674D02*
X2971967Y-11349293D01*
X2971967Y-11349293D02*
X2962444Y-11387388D01*
X2962444Y-11387388D02*
X2952920Y-11406436D01*
X2952920Y-11406436D02*
X2943396Y-11415960D01*
X2943396Y-11415960D02*
X2924348Y-11425484D01*
X2924348Y-11425484D02*
X2905301Y-11425484D01*
X2905301Y-11425484D02*
X2886253Y-11415960D01*
X2886253Y-11415960D02*
X2876729Y-11406436D01*
X2876729Y-11406436D02*
X2867206Y-11387388D01*
X2867206Y-11387388D02*
X2857682Y-11349293D01*
X2857682Y-11349293D02*
X2857682Y-11301674D01*
X2857682Y-11301674D02*
X2867206Y-11263579D01*
X2867206Y-11263579D02*
X2876729Y-11244531D01*
X2876729Y-11244531D02*
X2886253Y-11235008D01*
X2886253Y-11235008D02*
X2905301Y-11225484D01*
X3162444Y-11425484D02*
X3048158Y-11425484D01*
X3105301Y-11425484D02*
X3105301Y-11225484D01*
X3105301Y-11225484D02*
X3086253Y-11254055D01*
X3086253Y-11254055D02*
X3067206Y-11273103D01*
X3067206Y-11273103D02*
X3048158Y-11282627D01*
X3238634Y-11225484D02*
X3238634Y-11263579D01*
X3314825Y-11225484D02*
X3314825Y-11263579D01*
X3610063Y-11501674D02*
X3600539Y-11492150D01*
X3600539Y-11492150D02*
X3581491Y-11463579D01*
X3581491Y-11463579D02*
X3571968Y-11444531D01*
X3571968Y-11444531D02*
X3562444Y-11415960D01*
X3562444Y-11415960D02*
X3552920Y-11368341D01*
X3552920Y-11368341D02*
X3552920Y-11330246D01*
X3552920Y-11330246D02*
X3562444Y-11282627D01*
X3562444Y-11282627D02*
X3571968Y-11254055D01*
X3571968Y-11254055D02*
X3581491Y-11235008D01*
X3581491Y-11235008D02*
X3600539Y-11206436D01*
X3600539Y-11206436D02*
X3610063Y-11196912D01*
X3676729Y-11244531D02*
X3686253Y-11235008D01*
X3686253Y-11235008D02*
X3705301Y-11225484D01*
X3705301Y-11225484D02*
X3752920Y-11225484D01*
X3752920Y-11225484D02*
X3771968Y-11235008D01*
X3771968Y-11235008D02*
X3781491Y-11244531D01*
X3781491Y-11244531D02*
X3791015Y-11263579D01*
X3791015Y-11263579D02*
X3791015Y-11282627D01*
X3791015Y-11282627D02*
X3781491Y-11311198D01*
X3781491Y-11311198D02*
X3667206Y-11425484D01*
X3667206Y-11425484D02*
X3791015Y-11425484D01*
X4029110Y-11425484D02*
X4029110Y-11225484D01*
X4114825Y-11425484D02*
X4114825Y-11320722D01*
X4114825Y-11320722D02*
X4105301Y-11301674D01*
X4105301Y-11301674D02*
X4086253Y-11292150D01*
X4086253Y-11292150D02*
X4057682Y-11292150D01*
X4057682Y-11292150D02*
X4038634Y-11301674D01*
X4038634Y-11301674D02*
X4029110Y-11311198D01*
X4238634Y-11425484D02*
X4219587Y-11415960D01*
X4219587Y-11415960D02*
X4210063Y-11406436D01*
X4210063Y-11406436D02*
X4200539Y-11387388D01*
X4200539Y-11387388D02*
X4200539Y-11330246D01*
X4200539Y-11330246D02*
X4210063Y-11311198D01*
X4210063Y-11311198D02*
X4219587Y-11301674D01*
X4219587Y-11301674D02*
X4238634Y-11292150D01*
X4238634Y-11292150D02*
X4267206Y-11292150D01*
X4267206Y-11292150D02*
X4286253Y-11301674D01*
X4286253Y-11301674D02*
X4295777Y-11311198D01*
X4295777Y-11311198D02*
X4305301Y-11330246D01*
X4305301Y-11330246D02*
X4305301Y-11387388D01*
X4305301Y-11387388D02*
X4295777Y-11406436D01*
X4295777Y-11406436D02*
X4286253Y-11415960D01*
X4286253Y-11415960D02*
X4267206Y-11425484D01*
X4267206Y-11425484D02*
X4238634Y-11425484D01*
X4419587Y-11425484D02*
X4400539Y-11415960D01*
X4400539Y-11415960D02*
X4391015Y-11396912D01*
X4391015Y-11396912D02*
X4391015Y-11225484D01*
X4571968Y-11415960D02*
X4552920Y-11425484D01*
X4552920Y-11425484D02*
X4514825Y-11425484D01*
X4514825Y-11425484D02*
X4495777Y-11415960D01*
X4495777Y-11415960D02*
X4486253Y-11396912D01*
X4486253Y-11396912D02*
X4486253Y-11320722D01*
X4486253Y-11320722D02*
X4495777Y-11301674D01*
X4495777Y-11301674D02*
X4514825Y-11292150D01*
X4514825Y-11292150D02*
X4552920Y-11292150D01*
X4552920Y-11292150D02*
X4571968Y-11301674D01*
X4571968Y-11301674D02*
X4581492Y-11320722D01*
X4581492Y-11320722D02*
X4581492Y-11339769D01*
X4581492Y-11339769D02*
X4486253Y-11358817D01*
X4657682Y-11415960D02*
X4676730Y-11425484D01*
X4676730Y-11425484D02*
X4714825Y-11425484D01*
X4714825Y-11425484D02*
X4733873Y-11415960D01*
X4733873Y-11415960D02*
X4743396Y-11396912D01*
X4743396Y-11396912D02*
X4743396Y-11387388D01*
X4743396Y-11387388D02*
X4733873Y-11368341D01*
X4733873Y-11368341D02*
X4714825Y-11358817D01*
X4714825Y-11358817D02*
X4686253Y-11358817D01*
X4686253Y-11358817D02*
X4667206Y-11349293D01*
X4667206Y-11349293D02*
X4657682Y-11330246D01*
X4657682Y-11330246D02*
X4657682Y-11320722D01*
X4657682Y-11320722D02*
X4667206Y-11301674D01*
X4667206Y-11301674D02*
X4686253Y-11292150D01*
X4686253Y-11292150D02*
X4714825Y-11292150D01*
X4714825Y-11292150D02*
X4733873Y-11301674D01*
X4810063Y-11501674D02*
X4819587Y-11492150D01*
X4819587Y-11492150D02*
X4838634Y-11463579D01*
X4838634Y-11463579D02*
X4848158Y-11444531D01*
X4848158Y-11444531D02*
X4857682Y-11415960D01*
X4857682Y-11415960D02*
X4867206Y-11368341D01*
X4867206Y-11368341D02*
X4867206Y-11330246D01*
X4867206Y-11330246D02*
X4857682Y-11282627D01*
X4857682Y-11282627D02*
X4848158Y-11254055D01*
X4848158Y-11254055D02*
X4838634Y-11235008D01*
X4838634Y-11235008D02*
X4819587Y-11206436D01*
X4819587Y-11206436D02*
X4810063Y-11196912D01*
X5171968Y-11501674D02*
X5162444Y-11492150D01*
X5162444Y-11492150D02*
X5143396Y-11463579D01*
X5143396Y-11463579D02*
X5133873Y-11444531D01*
X5133873Y-11444531D02*
X5124349Y-11415960D01*
X5124349Y-11415960D02*
X5114825Y-11368341D01*
X5114825Y-11368341D02*
X5114825Y-11330246D01*
X5114825Y-11330246D02*
X5124349Y-11282627D01*
X5124349Y-11282627D02*
X5133873Y-11254055D01*
X5133873Y-11254055D02*
X5143396Y-11235008D01*
X5143396Y-11235008D02*
X5162444Y-11206436D01*
X5162444Y-11206436D02*
X5171968Y-11196912D01*
X5248158Y-11292150D02*
X5248158Y-11425484D01*
X5248158Y-11311198D02*
X5257682Y-11301674D01*
X5257682Y-11301674D02*
X5276730Y-11292150D01*
X5276730Y-11292150D02*
X5305301Y-11292150D01*
X5305301Y-11292150D02*
X5324349Y-11301674D01*
X5324349Y-11301674D02*
X5333873Y-11320722D01*
X5333873Y-11320722D02*
X5333873Y-11425484D01*
X5457682Y-11425484D02*
X5438634Y-11415960D01*
X5438634Y-11415960D02*
X5429111Y-11406436D01*
X5429111Y-11406436D02*
X5419587Y-11387388D01*
X5419587Y-11387388D02*
X5419587Y-11330246D01*
X5419587Y-11330246D02*
X5429111Y-11311198D01*
X5429111Y-11311198D02*
X5438634Y-11301674D01*
X5438634Y-11301674D02*
X5457682Y-11292150D01*
X5457682Y-11292150D02*
X5486254Y-11292150D01*
X5486254Y-11292150D02*
X5505301Y-11301674D01*
X5505301Y-11301674D02*
X5514825Y-11311198D01*
X5514825Y-11311198D02*
X5524349Y-11330246D01*
X5524349Y-11330246D02*
X5524349Y-11387388D01*
X5524349Y-11387388D02*
X5514825Y-11406436D01*
X5514825Y-11406436D02*
X5505301Y-11415960D01*
X5505301Y-11415960D02*
X5486254Y-11425484D01*
X5486254Y-11425484D02*
X5457682Y-11425484D01*
X5581492Y-11292150D02*
X5657682Y-11292150D01*
X5610063Y-11225484D02*
X5610063Y-11396912D01*
X5610063Y-11396912D02*
X5619587Y-11415960D01*
X5619587Y-11415960D02*
X5638634Y-11425484D01*
X5638634Y-11425484D02*
X5657682Y-11425484D01*
X5876730Y-11292150D02*
X5876730Y-11492150D01*
X5876730Y-11301674D02*
X5895777Y-11292150D01*
X5895777Y-11292150D02*
X5933873Y-11292150D01*
X5933873Y-11292150D02*
X5952920Y-11301674D01*
X5952920Y-11301674D02*
X5962444Y-11311198D01*
X5962444Y-11311198D02*
X5971968Y-11330246D01*
X5971968Y-11330246D02*
X5971968Y-11387388D01*
X5971968Y-11387388D02*
X5962444Y-11406436D01*
X5962444Y-11406436D02*
X5952920Y-11415960D01*
X5952920Y-11415960D02*
X5933873Y-11425484D01*
X5933873Y-11425484D02*
X5895777Y-11425484D01*
X5895777Y-11425484D02*
X5876730Y-11415960D01*
X6086253Y-11425484D02*
X6067206Y-11415960D01*
X6067206Y-11415960D02*
X6057682Y-11396912D01*
X6057682Y-11396912D02*
X6057682Y-11225484D01*
X6248158Y-11425484D02*
X6248158Y-11320722D01*
X6248158Y-11320722D02*
X6238634Y-11301674D01*
X6238634Y-11301674D02*
X6219587Y-11292150D01*
X6219587Y-11292150D02*
X6181492Y-11292150D01*
X6181492Y-11292150D02*
X6162444Y-11301674D01*
X6248158Y-11415960D02*
X6229111Y-11425484D01*
X6229111Y-11425484D02*
X6181492Y-11425484D01*
X6181492Y-11425484D02*
X6162444Y-11415960D01*
X6162444Y-11415960D02*
X6152920Y-11396912D01*
X6152920Y-11396912D02*
X6152920Y-11377865D01*
X6152920Y-11377865D02*
X6162444Y-11358817D01*
X6162444Y-11358817D02*
X6181492Y-11349293D01*
X6181492Y-11349293D02*
X6229111Y-11349293D01*
X6229111Y-11349293D02*
X6248158Y-11339769D01*
X6314825Y-11292150D02*
X6391015Y-11292150D01*
X6343396Y-11225484D02*
X6343396Y-11396912D01*
X6343396Y-11396912D02*
X6352920Y-11415960D01*
X6352920Y-11415960D02*
X6371968Y-11425484D01*
X6371968Y-11425484D02*
X6391015Y-11425484D01*
X6533873Y-11415960D02*
X6514825Y-11425484D01*
X6514825Y-11425484D02*
X6476730Y-11425484D01*
X6476730Y-11425484D02*
X6457682Y-11415960D01*
X6457682Y-11415960D02*
X6448158Y-11396912D01*
X6448158Y-11396912D02*
X6448158Y-11320722D01*
X6448158Y-11320722D02*
X6457682Y-11301674D01*
X6457682Y-11301674D02*
X6476730Y-11292150D01*
X6476730Y-11292150D02*
X6514825Y-11292150D01*
X6514825Y-11292150D02*
X6533873Y-11301674D01*
X6533873Y-11301674D02*
X6543396Y-11320722D01*
X6543396Y-11320722D02*
X6543396Y-11339769D01*
X6543396Y-11339769D02*
X6448158Y-11358817D01*
X6714825Y-11425484D02*
X6714825Y-11225484D01*
X6714825Y-11415960D02*
X6695777Y-11425484D01*
X6695777Y-11425484D02*
X6657682Y-11425484D01*
X6657682Y-11425484D02*
X6638634Y-11415960D01*
X6638634Y-11415960D02*
X6629111Y-11406436D01*
X6629111Y-11406436D02*
X6619587Y-11387388D01*
X6619587Y-11387388D02*
X6619587Y-11330246D01*
X6619587Y-11330246D02*
X6629111Y-11311198D01*
X6629111Y-11311198D02*
X6638634Y-11301674D01*
X6638634Y-11301674D02*
X6657682Y-11292150D01*
X6657682Y-11292150D02*
X6695777Y-11292150D01*
X6695777Y-11292150D02*
X6714825Y-11301674D01*
X6791015Y-11501674D02*
X6800539Y-11492150D01*
X6800539Y-11492150D02*
X6819587Y-11463579D01*
X6819587Y-11463579D02*
X6829111Y-11444531D01*
X6829111Y-11444531D02*
X6838634Y-11415960D01*
X6838634Y-11415960D02*
X6848158Y-11368341D01*
X6848158Y-11368341D02*
X6848158Y-11330246D01*
X6848158Y-11330246D02*
X6838634Y-11282627D01*
X6838634Y-11282627D02*
X6829111Y-11254055D01*
X6829111Y-11254055D02*
X6819587Y-11235008D01*
X6819587Y-11235008D02*
X6800539Y-11206436D01*
X6800539Y-11206436D02*
X6791015Y-11196912D01*
X-165000Y-11554000D02*
X35000Y-11754000D01*
X35000Y-11554000D02*
X-165000Y-11754000D01*
X35000Y-11654000D02*
G75*
G02*
X-165000Y-11654000I-100000J0D01*
G01*
X-165000Y-11654000D02*
G75*
G02*
X35000Y-11654000I100000J0D01*
G01*
X276729Y-11545484D02*
X400539Y-11545484D01*
X400539Y-11545484D02*
X333872Y-11621674D01*
X333872Y-11621674D02*
X362443Y-11621674D01*
X362443Y-11621674D02*
X381491Y-11631198D01*
X381491Y-11631198D02*
X391015Y-11640722D01*
X391015Y-11640722D02*
X400539Y-11659769D01*
X400539Y-11659769D02*
X400539Y-11707388D01*
X400539Y-11707388D02*
X391015Y-11726436D01*
X391015Y-11726436D02*
X381491Y-11735960D01*
X381491Y-11735960D02*
X362443Y-11745484D01*
X362443Y-11745484D02*
X305301Y-11745484D01*
X305301Y-11745484D02*
X286253Y-11735960D01*
X286253Y-11735960D02*
X276729Y-11726436D01*
X486253Y-11726436D02*
X495777Y-11735960D01*
X495777Y-11735960D02*
X486253Y-11745484D01*
X486253Y-11745484D02*
X476729Y-11735960D01*
X476729Y-11735960D02*
X486253Y-11726436D01*
X486253Y-11726436D02*
X486253Y-11745484D01*
X591015Y-11745484D02*
X629110Y-11745484D01*
X629110Y-11745484D02*
X648158Y-11735960D01*
X648158Y-11735960D02*
X657682Y-11726436D01*
X657682Y-11726436D02*
X676729Y-11697865D01*
X676729Y-11697865D02*
X686253Y-11659769D01*
X686253Y-11659769D02*
X686253Y-11583579D01*
X686253Y-11583579D02*
X676729Y-11564531D01*
X676729Y-11564531D02*
X667205Y-11555008D01*
X667205Y-11555008D02*
X648158Y-11545484D01*
X648158Y-11545484D02*
X610063Y-11545484D01*
X610063Y-11545484D02*
X591015Y-11555008D01*
X591015Y-11555008D02*
X581491Y-11564531D01*
X581491Y-11564531D02*
X571967Y-11583579D01*
X571967Y-11583579D02*
X571967Y-11631198D01*
X571967Y-11631198D02*
X581491Y-11650246D01*
X581491Y-11650246D02*
X591015Y-11659769D01*
X591015Y-11659769D02*
X610063Y-11669293D01*
X610063Y-11669293D02*
X648158Y-11669293D01*
X648158Y-11669293D02*
X667205Y-11659769D01*
X667205Y-11659769D02*
X676729Y-11650246D01*
X676729Y-11650246D02*
X686253Y-11631198D01*
X800539Y-11631198D02*
X781491Y-11621674D01*
X781491Y-11621674D02*
X771967Y-11612150D01*
X771967Y-11612150D02*
X762443Y-11593103D01*
X762443Y-11593103D02*
X762443Y-11583579D01*
X762443Y-11583579D02*
X771967Y-11564531D01*
X771967Y-11564531D02*
X781491Y-11555008D01*
X781491Y-11555008D02*
X800539Y-11545484D01*
X800539Y-11545484D02*
X838634Y-11545484D01*
X838634Y-11545484D02*
X857682Y-11555008D01*
X857682Y-11555008D02*
X867205Y-11564531D01*
X867205Y-11564531D02*
X876729Y-11583579D01*
X876729Y-11583579D02*
X876729Y-11593103D01*
X876729Y-11593103D02*
X867205Y-11612150D01*
X867205Y-11612150D02*
X857682Y-11621674D01*
X857682Y-11621674D02*
X838634Y-11631198D01*
X838634Y-11631198D02*
X800539Y-11631198D01*
X800539Y-11631198D02*
X781491Y-11640722D01*
X781491Y-11640722D02*
X771967Y-11650246D01*
X771967Y-11650246D02*
X762443Y-11669293D01*
X762443Y-11669293D02*
X762443Y-11707388D01*
X762443Y-11707388D02*
X771967Y-11726436D01*
X771967Y-11726436D02*
X781491Y-11735960D01*
X781491Y-11735960D02*
X800539Y-11745484D01*
X800539Y-11745484D02*
X838634Y-11745484D01*
X838634Y-11745484D02*
X857682Y-11735960D01*
X857682Y-11735960D02*
X867205Y-11726436D01*
X867205Y-11726436D02*
X876729Y-11707388D01*
X876729Y-11707388D02*
X876729Y-11669293D01*
X876729Y-11669293D02*
X867205Y-11650246D01*
X867205Y-11650246D02*
X857682Y-11640722D01*
X857682Y-11640722D02*
X838634Y-11631198D01*
X991015Y-11631198D02*
X971967Y-11621674D01*
X971967Y-11621674D02*
X962443Y-11612150D01*
X962443Y-11612150D02*
X952920Y-11593103D01*
X952920Y-11593103D02*
X952920Y-11583579D01*
X952920Y-11583579D02*
X962443Y-11564531D01*
X962443Y-11564531D02*
X971967Y-11555008D01*
X971967Y-11555008D02*
X991015Y-11545484D01*
X991015Y-11545484D02*
X1029110Y-11545484D01*
X1029110Y-11545484D02*
X1048158Y-11555008D01*
X1048158Y-11555008D02*
X1057682Y-11564531D01*
X1057682Y-11564531D02*
X1067205Y-11583579D01*
X1067205Y-11583579D02*
X1067205Y-11593103D01*
X1067205Y-11593103D02*
X1057682Y-11612150D01*
X1057682Y-11612150D02*
X1048158Y-11621674D01*
X1048158Y-11621674D02*
X1029110Y-11631198D01*
X1029110Y-11631198D02*
X991015Y-11631198D01*
X991015Y-11631198D02*
X971967Y-11640722D01*
X971967Y-11640722D02*
X962443Y-11650246D01*
X962443Y-11650246D02*
X952920Y-11669293D01*
X952920Y-11669293D02*
X952920Y-11707388D01*
X952920Y-11707388D02*
X962443Y-11726436D01*
X962443Y-11726436D02*
X971967Y-11735960D01*
X971967Y-11735960D02*
X991015Y-11745484D01*
X991015Y-11745484D02*
X1029110Y-11745484D01*
X1029110Y-11745484D02*
X1048158Y-11735960D01*
X1048158Y-11735960D02*
X1057682Y-11726436D01*
X1057682Y-11726436D02*
X1067205Y-11707388D01*
X1067205Y-11707388D02*
X1067205Y-11669293D01*
X1067205Y-11669293D02*
X1057682Y-11650246D01*
X1057682Y-11650246D02*
X1048158Y-11640722D01*
X1048158Y-11640722D02*
X1029110Y-11631198D01*
X1152920Y-11745484D02*
X1152920Y-11612150D01*
X1152920Y-11631198D02*
X1162444Y-11621674D01*
X1162444Y-11621674D02*
X1181491Y-11612150D01*
X1181491Y-11612150D02*
X1210063Y-11612150D01*
X1210063Y-11612150D02*
X1229110Y-11621674D01*
X1229110Y-11621674D02*
X1238634Y-11640722D01*
X1238634Y-11640722D02*
X1238634Y-11745484D01*
X1238634Y-11640722D02*
X1248158Y-11621674D01*
X1248158Y-11621674D02*
X1267205Y-11612150D01*
X1267205Y-11612150D02*
X1295777Y-11612150D01*
X1295777Y-11612150D02*
X1314825Y-11621674D01*
X1314825Y-11621674D02*
X1324348Y-11640722D01*
X1324348Y-11640722D02*
X1324348Y-11745484D01*
X1419586Y-11745484D02*
X1419586Y-11612150D01*
X1419586Y-11631198D02*
X1429110Y-11621674D01*
X1429110Y-11621674D02*
X1448158Y-11612150D01*
X1448158Y-11612150D02*
X1476729Y-11612150D01*
X1476729Y-11612150D02*
X1495777Y-11621674D01*
X1495777Y-11621674D02*
X1505301Y-11640722D01*
X1505301Y-11640722D02*
X1505301Y-11745484D01*
X1505301Y-11640722D02*
X1514824Y-11621674D01*
X1514824Y-11621674D02*
X1533872Y-11612150D01*
X1533872Y-11612150D02*
X1562443Y-11612150D01*
X1562443Y-11612150D02*
X1581491Y-11621674D01*
X1581491Y-11621674D02*
X1591015Y-11640722D01*
X1591015Y-11640722D02*
X1591015Y-11745484D01*
X1981491Y-11535960D02*
X1810063Y-11793103D01*
X2238634Y-11545484D02*
X2257682Y-11545484D01*
X2257682Y-11545484D02*
X2276729Y-11555008D01*
X2276729Y-11555008D02*
X2286253Y-11564531D01*
X2286253Y-11564531D02*
X2295777Y-11583579D01*
X2295777Y-11583579D02*
X2305301Y-11621674D01*
X2305301Y-11621674D02*
X2305301Y-11669293D01*
X2305301Y-11669293D02*
X2295777Y-11707388D01*
X2295777Y-11707388D02*
X2286253Y-11726436D01*
X2286253Y-11726436D02*
X2276729Y-11735960D01*
X2276729Y-11735960D02*
X2257682Y-11745484D01*
X2257682Y-11745484D02*
X2238634Y-11745484D01*
X2238634Y-11745484D02*
X2219587Y-11735960D01*
X2219587Y-11735960D02*
X2210063Y-11726436D01*
X2210063Y-11726436D02*
X2200539Y-11707388D01*
X2200539Y-11707388D02*
X2191015Y-11669293D01*
X2191015Y-11669293D02*
X2191015Y-11621674D01*
X2191015Y-11621674D02*
X2200539Y-11583579D01*
X2200539Y-11583579D02*
X2210063Y-11564531D01*
X2210063Y-11564531D02*
X2219587Y-11555008D01*
X2219587Y-11555008D02*
X2238634Y-11545484D01*
X2391015Y-11726436D02*
X2400539Y-11735960D01*
X2400539Y-11735960D02*
X2391015Y-11745484D01*
X2391015Y-11745484D02*
X2381491Y-11735960D01*
X2381491Y-11735960D02*
X2391015Y-11726436D01*
X2391015Y-11726436D02*
X2391015Y-11745484D01*
X2591015Y-11745484D02*
X2476729Y-11745484D01*
X2533872Y-11745484D02*
X2533872Y-11545484D01*
X2533872Y-11545484D02*
X2514825Y-11574055D01*
X2514825Y-11574055D02*
X2495777Y-11593103D01*
X2495777Y-11593103D02*
X2476729Y-11602627D01*
X2771968Y-11545484D02*
X2676729Y-11545484D01*
X2676729Y-11545484D02*
X2667206Y-11640722D01*
X2667206Y-11640722D02*
X2676729Y-11631198D01*
X2676729Y-11631198D02*
X2695777Y-11621674D01*
X2695777Y-11621674D02*
X2743396Y-11621674D01*
X2743396Y-11621674D02*
X2762444Y-11631198D01*
X2762444Y-11631198D02*
X2771968Y-11640722D01*
X2771968Y-11640722D02*
X2781491Y-11659769D01*
X2781491Y-11659769D02*
X2781491Y-11707388D01*
X2781491Y-11707388D02*
X2771968Y-11726436D01*
X2771968Y-11726436D02*
X2762444Y-11735960D01*
X2762444Y-11735960D02*
X2743396Y-11745484D01*
X2743396Y-11745484D02*
X2695777Y-11745484D01*
X2695777Y-11745484D02*
X2676729Y-11735960D01*
X2676729Y-11735960D02*
X2667206Y-11726436D01*
X2848158Y-11545484D02*
X2981491Y-11545484D01*
X2981491Y-11545484D02*
X2895777Y-11745484D01*
X3095777Y-11545484D02*
X3114825Y-11545484D01*
X3114825Y-11545484D02*
X3133872Y-11555008D01*
X3133872Y-11555008D02*
X3143396Y-11564531D01*
X3143396Y-11564531D02*
X3152920Y-11583579D01*
X3152920Y-11583579D02*
X3162444Y-11621674D01*
X3162444Y-11621674D02*
X3162444Y-11669293D01*
X3162444Y-11669293D02*
X3152920Y-11707388D01*
X3152920Y-11707388D02*
X3143396Y-11726436D01*
X3143396Y-11726436D02*
X3133872Y-11735960D01*
X3133872Y-11735960D02*
X3114825Y-11745484D01*
X3114825Y-11745484D02*
X3095777Y-11745484D01*
X3095777Y-11745484D02*
X3076729Y-11735960D01*
X3076729Y-11735960D02*
X3067206Y-11726436D01*
X3067206Y-11726436D02*
X3057682Y-11707388D01*
X3057682Y-11707388D02*
X3048158Y-11669293D01*
X3048158Y-11669293D02*
X3048158Y-11621674D01*
X3048158Y-11621674D02*
X3057682Y-11583579D01*
X3057682Y-11583579D02*
X3067206Y-11564531D01*
X3067206Y-11564531D02*
X3076729Y-11555008D01*
X3076729Y-11555008D02*
X3095777Y-11545484D01*
X3238634Y-11545484D02*
X3238634Y-11583579D01*
X3314825Y-11545484D02*
X3314825Y-11583579D01*
X3610063Y-11821674D02*
X3600539Y-11812150D01*
X3600539Y-11812150D02*
X3581491Y-11783579D01*
X3581491Y-11783579D02*
X3571968Y-11764531D01*
X3571968Y-11764531D02*
X3562444Y-11735960D01*
X3562444Y-11735960D02*
X3552920Y-11688341D01*
X3552920Y-11688341D02*
X3552920Y-11650246D01*
X3552920Y-11650246D02*
X3562444Y-11602627D01*
X3562444Y-11602627D02*
X3571968Y-11574055D01*
X3571968Y-11574055D02*
X3581491Y-11555008D01*
X3581491Y-11555008D02*
X3600539Y-11526436D01*
X3600539Y-11526436D02*
X3610063Y-11516912D01*
X3791015Y-11745484D02*
X3676729Y-11745484D01*
X3733872Y-11745484D02*
X3733872Y-11545484D01*
X3733872Y-11545484D02*
X3714825Y-11574055D01*
X3714825Y-11574055D02*
X3695777Y-11593103D01*
X3695777Y-11593103D02*
X3676729Y-11602627D01*
X3962444Y-11612150D02*
X3962444Y-11745484D01*
X3914825Y-11535960D02*
X3867206Y-11678817D01*
X3867206Y-11678817D02*
X3991015Y-11678817D01*
X4219587Y-11745484D02*
X4219587Y-11545484D01*
X4305301Y-11745484D02*
X4305301Y-11640722D01*
X4305301Y-11640722D02*
X4295777Y-11621674D01*
X4295777Y-11621674D02*
X4276730Y-11612150D01*
X4276730Y-11612150D02*
X4248158Y-11612150D01*
X4248158Y-11612150D02*
X4229111Y-11621674D01*
X4229111Y-11621674D02*
X4219587Y-11631198D01*
X4429111Y-11745484D02*
X4410063Y-11735960D01*
X4410063Y-11735960D02*
X4400539Y-11726436D01*
X4400539Y-11726436D02*
X4391015Y-11707388D01*
X4391015Y-11707388D02*
X4391015Y-11650246D01*
X4391015Y-11650246D02*
X4400539Y-11631198D01*
X4400539Y-11631198D02*
X4410063Y-11621674D01*
X4410063Y-11621674D02*
X4429111Y-11612150D01*
X4429111Y-11612150D02*
X4457682Y-11612150D01*
X4457682Y-11612150D02*
X4476730Y-11621674D01*
X4476730Y-11621674D02*
X4486253Y-11631198D01*
X4486253Y-11631198D02*
X4495777Y-11650246D01*
X4495777Y-11650246D02*
X4495777Y-11707388D01*
X4495777Y-11707388D02*
X4486253Y-11726436D01*
X4486253Y-11726436D02*
X4476730Y-11735960D01*
X4476730Y-11735960D02*
X4457682Y-11745484D01*
X4457682Y-11745484D02*
X4429111Y-11745484D01*
X4610063Y-11745484D02*
X4591015Y-11735960D01*
X4591015Y-11735960D02*
X4581492Y-11716912D01*
X4581492Y-11716912D02*
X4581492Y-11545484D01*
X4762444Y-11735960D02*
X4743396Y-11745484D01*
X4743396Y-11745484D02*
X4705301Y-11745484D01*
X4705301Y-11745484D02*
X4686253Y-11735960D01*
X4686253Y-11735960D02*
X4676730Y-11716912D01*
X4676730Y-11716912D02*
X4676730Y-11640722D01*
X4676730Y-11640722D02*
X4686253Y-11621674D01*
X4686253Y-11621674D02*
X4705301Y-11612150D01*
X4705301Y-11612150D02*
X4743396Y-11612150D01*
X4743396Y-11612150D02*
X4762444Y-11621674D01*
X4762444Y-11621674D02*
X4771968Y-11640722D01*
X4771968Y-11640722D02*
X4771968Y-11659769D01*
X4771968Y-11659769D02*
X4676730Y-11678817D01*
X4848158Y-11735960D02*
X4867206Y-11745484D01*
X4867206Y-11745484D02*
X4905301Y-11745484D01*
X4905301Y-11745484D02*
X4924349Y-11735960D01*
X4924349Y-11735960D02*
X4933873Y-11716912D01*
X4933873Y-11716912D02*
X4933873Y-11707388D01*
X4933873Y-11707388D02*
X4924349Y-11688341D01*
X4924349Y-11688341D02*
X4905301Y-11678817D01*
X4905301Y-11678817D02*
X4876730Y-11678817D01*
X4876730Y-11678817D02*
X4857682Y-11669293D01*
X4857682Y-11669293D02*
X4848158Y-11650246D01*
X4848158Y-11650246D02*
X4848158Y-11640722D01*
X4848158Y-11640722D02*
X4857682Y-11621674D01*
X4857682Y-11621674D02*
X4876730Y-11612150D01*
X4876730Y-11612150D02*
X4905301Y-11612150D01*
X4905301Y-11612150D02*
X4924349Y-11621674D01*
X5000539Y-11821674D02*
X5010063Y-11812150D01*
X5010063Y-11812150D02*
X5029111Y-11783579D01*
X5029111Y-11783579D02*
X5038634Y-11764531D01*
X5038634Y-11764531D02*
X5048158Y-11735960D01*
X5048158Y-11735960D02*
X5057682Y-11688341D01*
X5057682Y-11688341D02*
X5057682Y-11650246D01*
X5057682Y-11650246D02*
X5048158Y-11602627D01*
X5048158Y-11602627D02*
X5038634Y-11574055D01*
X5038634Y-11574055D02*
X5029111Y-11555008D01*
X5029111Y-11555008D02*
X5010063Y-11526436D01*
X5010063Y-11526436D02*
X5000539Y-11516912D01*
X5362444Y-11821674D02*
X5352920Y-11812150D01*
X5352920Y-11812150D02*
X5333873Y-11783579D01*
X5333873Y-11783579D02*
X5324349Y-11764531D01*
X5324349Y-11764531D02*
X5314825Y-11735960D01*
X5314825Y-11735960D02*
X5305301Y-11688341D01*
X5305301Y-11688341D02*
X5305301Y-11650246D01*
X5305301Y-11650246D02*
X5314825Y-11602627D01*
X5314825Y-11602627D02*
X5324349Y-11574055D01*
X5324349Y-11574055D02*
X5333873Y-11555008D01*
X5333873Y-11555008D02*
X5352920Y-11526436D01*
X5352920Y-11526436D02*
X5362444Y-11516912D01*
X5438634Y-11612150D02*
X5438634Y-11745484D01*
X5438634Y-11631198D02*
X5448158Y-11621674D01*
X5448158Y-11621674D02*
X5467206Y-11612150D01*
X5467206Y-11612150D02*
X5495777Y-11612150D01*
X5495777Y-11612150D02*
X5514825Y-11621674D01*
X5514825Y-11621674D02*
X5524349Y-11640722D01*
X5524349Y-11640722D02*
X5524349Y-11745484D01*
X5648158Y-11745484D02*
X5629111Y-11735960D01*
X5629111Y-11735960D02*
X5619587Y-11726436D01*
X5619587Y-11726436D02*
X5610063Y-11707388D01*
X5610063Y-11707388D02*
X5610063Y-11650246D01*
X5610063Y-11650246D02*
X5619587Y-11631198D01*
X5619587Y-11631198D02*
X5629111Y-11621674D01*
X5629111Y-11621674D02*
X5648158Y-11612150D01*
X5648158Y-11612150D02*
X5676730Y-11612150D01*
X5676730Y-11612150D02*
X5695777Y-11621674D01*
X5695777Y-11621674D02*
X5705301Y-11631198D01*
X5705301Y-11631198D02*
X5714825Y-11650246D01*
X5714825Y-11650246D02*
X5714825Y-11707388D01*
X5714825Y-11707388D02*
X5705301Y-11726436D01*
X5705301Y-11726436D02*
X5695777Y-11735960D01*
X5695777Y-11735960D02*
X5676730Y-11745484D01*
X5676730Y-11745484D02*
X5648158Y-11745484D01*
X5771968Y-11612150D02*
X5848158Y-11612150D01*
X5800539Y-11545484D02*
X5800539Y-11716912D01*
X5800539Y-11716912D02*
X5810063Y-11735960D01*
X5810063Y-11735960D02*
X5829111Y-11745484D01*
X5829111Y-11745484D02*
X5848158Y-11745484D01*
X6067206Y-11612150D02*
X6067206Y-11812150D01*
X6067206Y-11621674D02*
X6086253Y-11612150D01*
X6086253Y-11612150D02*
X6124349Y-11612150D01*
X6124349Y-11612150D02*
X6143396Y-11621674D01*
X6143396Y-11621674D02*
X6152920Y-11631198D01*
X6152920Y-11631198D02*
X6162444Y-11650246D01*
X6162444Y-11650246D02*
X6162444Y-11707388D01*
X6162444Y-11707388D02*
X6152920Y-11726436D01*
X6152920Y-11726436D02*
X6143396Y-11735960D01*
X6143396Y-11735960D02*
X6124349Y-11745484D01*
X6124349Y-11745484D02*
X6086253Y-11745484D01*
X6086253Y-11745484D02*
X6067206Y-11735960D01*
X6276730Y-11745484D02*
X6257682Y-11735960D01*
X6257682Y-11735960D02*
X6248158Y-11716912D01*
X6248158Y-11716912D02*
X6248158Y-11545484D01*
X6438634Y-11745484D02*
X6438634Y-11640722D01*
X6438634Y-11640722D02*
X6429111Y-11621674D01*
X6429111Y-11621674D02*
X6410063Y-11612150D01*
X6410063Y-11612150D02*
X6371968Y-11612150D01*
X6371968Y-11612150D02*
X6352920Y-11621674D01*
X6438634Y-11735960D02*
X6419587Y-11745484D01*
X6419587Y-11745484D02*
X6371968Y-11745484D01*
X6371968Y-11745484D02*
X6352920Y-11735960D01*
X6352920Y-11735960D02*
X6343396Y-11716912D01*
X6343396Y-11716912D02*
X6343396Y-11697865D01*
X6343396Y-11697865D02*
X6352920Y-11678817D01*
X6352920Y-11678817D02*
X6371968Y-11669293D01*
X6371968Y-11669293D02*
X6419587Y-11669293D01*
X6419587Y-11669293D02*
X6438634Y-11659769D01*
X6505301Y-11612150D02*
X6581492Y-11612150D01*
X6533873Y-11545484D02*
X6533873Y-11716912D01*
X6533873Y-11716912D02*
X6543396Y-11735960D01*
X6543396Y-11735960D02*
X6562444Y-11745484D01*
X6562444Y-11745484D02*
X6581492Y-11745484D01*
X6724349Y-11735960D02*
X6705301Y-11745484D01*
X6705301Y-11745484D02*
X6667206Y-11745484D01*
X6667206Y-11745484D02*
X6648158Y-11735960D01*
X6648158Y-11735960D02*
X6638634Y-11716912D01*
X6638634Y-11716912D02*
X6638634Y-11640722D01*
X6638634Y-11640722D02*
X6648158Y-11621674D01*
X6648158Y-11621674D02*
X6667206Y-11612150D01*
X6667206Y-11612150D02*
X6705301Y-11612150D01*
X6705301Y-11612150D02*
X6724349Y-11621674D01*
X6724349Y-11621674D02*
X6733873Y-11640722D01*
X6733873Y-11640722D02*
X6733873Y-11659769D01*
X6733873Y-11659769D02*
X6638634Y-11678817D01*
X6905301Y-11745484D02*
X6905301Y-11545484D01*
X6905301Y-11735960D02*
X6886254Y-11745484D01*
X6886254Y-11745484D02*
X6848158Y-11745484D01*
X6848158Y-11745484D02*
X6829111Y-11735960D01*
X6829111Y-11735960D02*
X6819587Y-11726436D01*
X6819587Y-11726436D02*
X6810063Y-11707388D01*
X6810063Y-11707388D02*
X6810063Y-11650246D01*
X6810063Y-11650246D02*
X6819587Y-11631198D01*
X6819587Y-11631198D02*
X6829111Y-11621674D01*
X6829111Y-11621674D02*
X6848158Y-11612150D01*
X6848158Y-11612150D02*
X6886254Y-11612150D01*
X6886254Y-11612150D02*
X6905301Y-11621674D01*
X6981492Y-11821674D02*
X6991015Y-11812150D01*
X6991015Y-11812150D02*
X7010063Y-11783579D01*
X7010063Y-11783579D02*
X7019587Y-11764531D01*
X7019587Y-11764531D02*
X7029111Y-11735960D01*
X7029111Y-11735960D02*
X7038634Y-11688341D01*
X7038634Y-11688341D02*
X7038634Y-11650246D01*
X7038634Y-11650246D02*
X7029111Y-11602627D01*
X7029111Y-11602627D02*
X7019587Y-11574055D01*
X7019587Y-11574055D02*
X7010063Y-11555008D01*
X7010063Y-11555008D02*
X6991015Y-11526436D01*
X6991015Y-11526436D02*
X6981492Y-11516912D01*
X-165000Y-11874000D02*
X35000Y-12074000D01*
X35000Y-11874000D02*
X-165000Y-12074000D01*
X-65000Y-11874000D02*
X-65000Y-12074000D01*
X-165000Y-11974000D02*
X35000Y-11974000D01*
X381491Y-11932150D02*
X381491Y-12065484D01*
X333872Y-11855960D02*
X286253Y-11998817D01*
X286253Y-11998817D02*
X410062Y-11998817D01*
X486253Y-12046436D02*
X495777Y-12055960D01*
X495777Y-12055960D02*
X486253Y-12065484D01*
X486253Y-12065484D02*
X476729Y-12055960D01*
X476729Y-12055960D02*
X486253Y-12046436D01*
X486253Y-12046436D02*
X486253Y-12065484D01*
X619586Y-11865484D02*
X638634Y-11865484D01*
X638634Y-11865484D02*
X657682Y-11875008D01*
X657682Y-11875008D02*
X667205Y-11884531D01*
X667205Y-11884531D02*
X676729Y-11903579D01*
X676729Y-11903579D02*
X686253Y-11941674D01*
X686253Y-11941674D02*
X686253Y-11989293D01*
X686253Y-11989293D02*
X676729Y-12027388D01*
X676729Y-12027388D02*
X667205Y-12046436D01*
X667205Y-12046436D02*
X657682Y-12055960D01*
X657682Y-12055960D02*
X638634Y-12065484D01*
X638634Y-12065484D02*
X619586Y-12065484D01*
X619586Y-12065484D02*
X600539Y-12055960D01*
X600539Y-12055960D02*
X591015Y-12046436D01*
X591015Y-12046436D02*
X581491Y-12027388D01*
X581491Y-12027388D02*
X571967Y-11989293D01*
X571967Y-11989293D02*
X571967Y-11941674D01*
X571967Y-11941674D02*
X581491Y-11903579D01*
X581491Y-11903579D02*
X591015Y-11884531D01*
X591015Y-11884531D02*
X600539Y-11875008D01*
X600539Y-11875008D02*
X619586Y-11865484D01*
X810062Y-11865484D02*
X829110Y-11865484D01*
X829110Y-11865484D02*
X848158Y-11875008D01*
X848158Y-11875008D02*
X857682Y-11884531D01*
X857682Y-11884531D02*
X867205Y-11903579D01*
X867205Y-11903579D02*
X876729Y-11941674D01*
X876729Y-11941674D02*
X876729Y-11989293D01*
X876729Y-11989293D02*
X867205Y-12027388D01*
X867205Y-12027388D02*
X857682Y-12046436D01*
X857682Y-12046436D02*
X848158Y-12055960D01*
X848158Y-12055960D02*
X829110Y-12065484D01*
X829110Y-12065484D02*
X810062Y-12065484D01*
X810062Y-12065484D02*
X791015Y-12055960D01*
X791015Y-12055960D02*
X781491Y-12046436D01*
X781491Y-12046436D02*
X771967Y-12027388D01*
X771967Y-12027388D02*
X762443Y-11989293D01*
X762443Y-11989293D02*
X762443Y-11941674D01*
X762443Y-11941674D02*
X771967Y-11903579D01*
X771967Y-11903579D02*
X781491Y-11884531D01*
X781491Y-11884531D02*
X791015Y-11875008D01*
X791015Y-11875008D02*
X810062Y-11865484D01*
X1000539Y-11865484D02*
X1019586Y-11865484D01*
X1019586Y-11865484D02*
X1038634Y-11875008D01*
X1038634Y-11875008D02*
X1048158Y-11884531D01*
X1048158Y-11884531D02*
X1057682Y-11903579D01*
X1057682Y-11903579D02*
X1067205Y-11941674D01*
X1067205Y-11941674D02*
X1067205Y-11989293D01*
X1067205Y-11989293D02*
X1057682Y-12027388D01*
X1057682Y-12027388D02*
X1048158Y-12046436D01*
X1048158Y-12046436D02*
X1038634Y-12055960D01*
X1038634Y-12055960D02*
X1019586Y-12065484D01*
X1019586Y-12065484D02*
X1000539Y-12065484D01*
X1000539Y-12065484D02*
X981491Y-12055960D01*
X981491Y-12055960D02*
X971967Y-12046436D01*
X971967Y-12046436D02*
X962443Y-12027388D01*
X962443Y-12027388D02*
X952920Y-11989293D01*
X952920Y-11989293D02*
X952920Y-11941674D01*
X952920Y-11941674D02*
X962443Y-11903579D01*
X962443Y-11903579D02*
X971967Y-11884531D01*
X971967Y-11884531D02*
X981491Y-11875008D01*
X981491Y-11875008D02*
X1000539Y-11865484D01*
X1152920Y-12065484D02*
X1152920Y-11932150D01*
X1152920Y-11951198D02*
X1162444Y-11941674D01*
X1162444Y-11941674D02*
X1181491Y-11932150D01*
X1181491Y-11932150D02*
X1210063Y-11932150D01*
X1210063Y-11932150D02*
X1229110Y-11941674D01*
X1229110Y-11941674D02*
X1238634Y-11960722D01*
X1238634Y-11960722D02*
X1238634Y-12065484D01*
X1238634Y-11960722D02*
X1248158Y-11941674D01*
X1248158Y-11941674D02*
X1267205Y-11932150D01*
X1267205Y-11932150D02*
X1295777Y-11932150D01*
X1295777Y-11932150D02*
X1314825Y-11941674D01*
X1314825Y-11941674D02*
X1324348Y-11960722D01*
X1324348Y-11960722D02*
X1324348Y-12065484D01*
X1419586Y-12065484D02*
X1419586Y-11932150D01*
X1419586Y-11951198D02*
X1429110Y-11941674D01*
X1429110Y-11941674D02*
X1448158Y-11932150D01*
X1448158Y-11932150D02*
X1476729Y-11932150D01*
X1476729Y-11932150D02*
X1495777Y-11941674D01*
X1495777Y-11941674D02*
X1505301Y-11960722D01*
X1505301Y-11960722D02*
X1505301Y-12065484D01*
X1505301Y-11960722D02*
X1514824Y-11941674D01*
X1514824Y-11941674D02*
X1533872Y-11932150D01*
X1533872Y-11932150D02*
X1562443Y-11932150D01*
X1562443Y-11932150D02*
X1581491Y-11941674D01*
X1581491Y-11941674D02*
X1591015Y-11960722D01*
X1591015Y-11960722D02*
X1591015Y-12065484D01*
X1981491Y-11855960D02*
X1810063Y-12113103D01*
X2238634Y-11865484D02*
X2257682Y-11865484D01*
X2257682Y-11865484D02*
X2276729Y-11875008D01*
X2276729Y-11875008D02*
X2286253Y-11884531D01*
X2286253Y-11884531D02*
X2295777Y-11903579D01*
X2295777Y-11903579D02*
X2305301Y-11941674D01*
X2305301Y-11941674D02*
X2305301Y-11989293D01*
X2305301Y-11989293D02*
X2295777Y-12027388D01*
X2295777Y-12027388D02*
X2286253Y-12046436D01*
X2286253Y-12046436D02*
X2276729Y-12055960D01*
X2276729Y-12055960D02*
X2257682Y-12065484D01*
X2257682Y-12065484D02*
X2238634Y-12065484D01*
X2238634Y-12065484D02*
X2219587Y-12055960D01*
X2219587Y-12055960D02*
X2210063Y-12046436D01*
X2210063Y-12046436D02*
X2200539Y-12027388D01*
X2200539Y-12027388D02*
X2191015Y-11989293D01*
X2191015Y-11989293D02*
X2191015Y-11941674D01*
X2191015Y-11941674D02*
X2200539Y-11903579D01*
X2200539Y-11903579D02*
X2210063Y-11884531D01*
X2210063Y-11884531D02*
X2219587Y-11875008D01*
X2219587Y-11875008D02*
X2238634Y-11865484D01*
X2391015Y-12046436D02*
X2400539Y-12055960D01*
X2400539Y-12055960D02*
X2391015Y-12065484D01*
X2391015Y-12065484D02*
X2381491Y-12055960D01*
X2381491Y-12055960D02*
X2391015Y-12046436D01*
X2391015Y-12046436D02*
X2391015Y-12065484D01*
X2591015Y-12065484D02*
X2476729Y-12065484D01*
X2533872Y-12065484D02*
X2533872Y-11865484D01*
X2533872Y-11865484D02*
X2514825Y-11894055D01*
X2514825Y-11894055D02*
X2495777Y-11913103D01*
X2495777Y-11913103D02*
X2476729Y-11922627D01*
X2771968Y-11865484D02*
X2676729Y-11865484D01*
X2676729Y-11865484D02*
X2667206Y-11960722D01*
X2667206Y-11960722D02*
X2676729Y-11951198D01*
X2676729Y-11951198D02*
X2695777Y-11941674D01*
X2695777Y-11941674D02*
X2743396Y-11941674D01*
X2743396Y-11941674D02*
X2762444Y-11951198D01*
X2762444Y-11951198D02*
X2771968Y-11960722D01*
X2771968Y-11960722D02*
X2781491Y-11979769D01*
X2781491Y-11979769D02*
X2781491Y-12027388D01*
X2781491Y-12027388D02*
X2771968Y-12046436D01*
X2771968Y-12046436D02*
X2762444Y-12055960D01*
X2762444Y-12055960D02*
X2743396Y-12065484D01*
X2743396Y-12065484D02*
X2695777Y-12065484D01*
X2695777Y-12065484D02*
X2676729Y-12055960D01*
X2676729Y-12055960D02*
X2667206Y-12046436D01*
X2848158Y-11865484D02*
X2981491Y-11865484D01*
X2981491Y-11865484D02*
X2895777Y-12065484D01*
X3152920Y-11865484D02*
X3057682Y-11865484D01*
X3057682Y-11865484D02*
X3048158Y-11960722D01*
X3048158Y-11960722D02*
X3057682Y-11951198D01*
X3057682Y-11951198D02*
X3076729Y-11941674D01*
X3076729Y-11941674D02*
X3124348Y-11941674D01*
X3124348Y-11941674D02*
X3143396Y-11951198D01*
X3143396Y-11951198D02*
X3152920Y-11960722D01*
X3152920Y-11960722D02*
X3162444Y-11979769D01*
X3162444Y-11979769D02*
X3162444Y-12027388D01*
X3162444Y-12027388D02*
X3152920Y-12046436D01*
X3152920Y-12046436D02*
X3143396Y-12055960D01*
X3143396Y-12055960D02*
X3124348Y-12065484D01*
X3124348Y-12065484D02*
X3076729Y-12065484D01*
X3076729Y-12065484D02*
X3057682Y-12055960D01*
X3057682Y-12055960D02*
X3048158Y-12046436D01*
X3238634Y-11865484D02*
X3238634Y-11903579D01*
X3314825Y-11865484D02*
X3314825Y-11903579D01*
X3610063Y-12141674D02*
X3600539Y-12132150D01*
X3600539Y-12132150D02*
X3581491Y-12103579D01*
X3581491Y-12103579D02*
X3571968Y-12084531D01*
X3571968Y-12084531D02*
X3562444Y-12055960D01*
X3562444Y-12055960D02*
X3552920Y-12008341D01*
X3552920Y-12008341D02*
X3552920Y-11970246D01*
X3552920Y-11970246D02*
X3562444Y-11922627D01*
X3562444Y-11922627D02*
X3571968Y-11894055D01*
X3571968Y-11894055D02*
X3581491Y-11875008D01*
X3581491Y-11875008D02*
X3600539Y-11846436D01*
X3600539Y-11846436D02*
X3610063Y-11836912D01*
X3667206Y-11865484D02*
X3800539Y-11865484D01*
X3800539Y-11865484D02*
X3714825Y-12065484D01*
X3857682Y-11865484D02*
X3991015Y-11865484D01*
X3991015Y-11865484D02*
X3905301Y-12065484D01*
X4219587Y-12065484D02*
X4219587Y-11865484D01*
X4305301Y-12065484D02*
X4305301Y-11960722D01*
X4305301Y-11960722D02*
X4295777Y-11941674D01*
X4295777Y-11941674D02*
X4276730Y-11932150D01*
X4276730Y-11932150D02*
X4248158Y-11932150D01*
X4248158Y-11932150D02*
X4229111Y-11941674D01*
X4229111Y-11941674D02*
X4219587Y-11951198D01*
X4429111Y-12065484D02*
X4410063Y-12055960D01*
X4410063Y-12055960D02*
X4400539Y-12046436D01*
X4400539Y-12046436D02*
X4391015Y-12027388D01*
X4391015Y-12027388D02*
X4391015Y-11970246D01*
X4391015Y-11970246D02*
X4400539Y-11951198D01*
X4400539Y-11951198D02*
X4410063Y-11941674D01*
X4410063Y-11941674D02*
X4429111Y-11932150D01*
X4429111Y-11932150D02*
X4457682Y-11932150D01*
X4457682Y-11932150D02*
X4476730Y-11941674D01*
X4476730Y-11941674D02*
X4486253Y-11951198D01*
X4486253Y-11951198D02*
X4495777Y-11970246D01*
X4495777Y-11970246D02*
X4495777Y-12027388D01*
X4495777Y-12027388D02*
X4486253Y-12046436D01*
X4486253Y-12046436D02*
X4476730Y-12055960D01*
X4476730Y-12055960D02*
X4457682Y-12065484D01*
X4457682Y-12065484D02*
X4429111Y-12065484D01*
X4610063Y-12065484D02*
X4591015Y-12055960D01*
X4591015Y-12055960D02*
X4581492Y-12036912D01*
X4581492Y-12036912D02*
X4581492Y-11865484D01*
X4762444Y-12055960D02*
X4743396Y-12065484D01*
X4743396Y-12065484D02*
X4705301Y-12065484D01*
X4705301Y-12065484D02*
X4686253Y-12055960D01*
X4686253Y-12055960D02*
X4676730Y-12036912D01*
X4676730Y-12036912D02*
X4676730Y-11960722D01*
X4676730Y-11960722D02*
X4686253Y-11941674D01*
X4686253Y-11941674D02*
X4705301Y-11932150D01*
X4705301Y-11932150D02*
X4743396Y-11932150D01*
X4743396Y-11932150D02*
X4762444Y-11941674D01*
X4762444Y-11941674D02*
X4771968Y-11960722D01*
X4771968Y-11960722D02*
X4771968Y-11979769D01*
X4771968Y-11979769D02*
X4676730Y-11998817D01*
X4848158Y-12055960D02*
X4867206Y-12065484D01*
X4867206Y-12065484D02*
X4905301Y-12065484D01*
X4905301Y-12065484D02*
X4924349Y-12055960D01*
X4924349Y-12055960D02*
X4933873Y-12036912D01*
X4933873Y-12036912D02*
X4933873Y-12027388D01*
X4933873Y-12027388D02*
X4924349Y-12008341D01*
X4924349Y-12008341D02*
X4905301Y-11998817D01*
X4905301Y-11998817D02*
X4876730Y-11998817D01*
X4876730Y-11998817D02*
X4857682Y-11989293D01*
X4857682Y-11989293D02*
X4848158Y-11970246D01*
X4848158Y-11970246D02*
X4848158Y-11960722D01*
X4848158Y-11960722D02*
X4857682Y-11941674D01*
X4857682Y-11941674D02*
X4876730Y-11932150D01*
X4876730Y-11932150D02*
X4905301Y-11932150D01*
X4905301Y-11932150D02*
X4924349Y-11941674D01*
X5000539Y-12141674D02*
X5010063Y-12132150D01*
X5010063Y-12132150D02*
X5029111Y-12103579D01*
X5029111Y-12103579D02*
X5038634Y-12084531D01*
X5038634Y-12084531D02*
X5048158Y-12055960D01*
X5048158Y-12055960D02*
X5057682Y-12008341D01*
X5057682Y-12008341D02*
X5057682Y-11970246D01*
X5057682Y-11970246D02*
X5048158Y-11922627D01*
X5048158Y-11922627D02*
X5038634Y-11894055D01*
X5038634Y-11894055D02*
X5029111Y-11875008D01*
X5029111Y-11875008D02*
X5010063Y-11846436D01*
X5010063Y-11846436D02*
X5000539Y-11836912D01*
X5362444Y-12141674D02*
X5352920Y-12132150D01*
X5352920Y-12132150D02*
X5333873Y-12103579D01*
X5333873Y-12103579D02*
X5324349Y-12084531D01*
X5324349Y-12084531D02*
X5314825Y-12055960D01*
X5314825Y-12055960D02*
X5305301Y-12008341D01*
X5305301Y-12008341D02*
X5305301Y-11970246D01*
X5305301Y-11970246D02*
X5314825Y-11922627D01*
X5314825Y-11922627D02*
X5324349Y-11894055D01*
X5324349Y-11894055D02*
X5333873Y-11875008D01*
X5333873Y-11875008D02*
X5352920Y-11846436D01*
X5352920Y-11846436D02*
X5362444Y-11836912D01*
X5438634Y-11932150D02*
X5438634Y-12065484D01*
X5438634Y-11951198D02*
X5448158Y-11941674D01*
X5448158Y-11941674D02*
X5467206Y-11932150D01*
X5467206Y-11932150D02*
X5495777Y-11932150D01*
X5495777Y-11932150D02*
X5514825Y-11941674D01*
X5514825Y-11941674D02*
X5524349Y-11960722D01*
X5524349Y-11960722D02*
X5524349Y-12065484D01*
X5648158Y-12065484D02*
X5629111Y-12055960D01*
X5629111Y-12055960D02*
X5619587Y-12046436D01*
X5619587Y-12046436D02*
X5610063Y-12027388D01*
X5610063Y-12027388D02*
X5610063Y-11970246D01*
X5610063Y-11970246D02*
X5619587Y-11951198D01*
X5619587Y-11951198D02*
X5629111Y-11941674D01*
X5629111Y-11941674D02*
X5648158Y-11932150D01*
X5648158Y-11932150D02*
X5676730Y-11932150D01*
X5676730Y-11932150D02*
X5695777Y-11941674D01*
X5695777Y-11941674D02*
X5705301Y-11951198D01*
X5705301Y-11951198D02*
X5714825Y-11970246D01*
X5714825Y-11970246D02*
X5714825Y-12027388D01*
X5714825Y-12027388D02*
X5705301Y-12046436D01*
X5705301Y-12046436D02*
X5695777Y-12055960D01*
X5695777Y-12055960D02*
X5676730Y-12065484D01*
X5676730Y-12065484D02*
X5648158Y-12065484D01*
X5771968Y-11932150D02*
X5848158Y-11932150D01*
X5800539Y-11865484D02*
X5800539Y-12036912D01*
X5800539Y-12036912D02*
X5810063Y-12055960D01*
X5810063Y-12055960D02*
X5829111Y-12065484D01*
X5829111Y-12065484D02*
X5848158Y-12065484D01*
X6067206Y-11932150D02*
X6067206Y-12132150D01*
X6067206Y-11941674D02*
X6086253Y-11932150D01*
X6086253Y-11932150D02*
X6124349Y-11932150D01*
X6124349Y-11932150D02*
X6143396Y-11941674D01*
X6143396Y-11941674D02*
X6152920Y-11951198D01*
X6152920Y-11951198D02*
X6162444Y-11970246D01*
X6162444Y-11970246D02*
X6162444Y-12027388D01*
X6162444Y-12027388D02*
X6152920Y-12046436D01*
X6152920Y-12046436D02*
X6143396Y-12055960D01*
X6143396Y-12055960D02*
X6124349Y-12065484D01*
X6124349Y-12065484D02*
X6086253Y-12065484D01*
X6086253Y-12065484D02*
X6067206Y-12055960D01*
X6276730Y-12065484D02*
X6257682Y-12055960D01*
X6257682Y-12055960D02*
X6248158Y-12036912D01*
X6248158Y-12036912D02*
X6248158Y-11865484D01*
X6438634Y-12065484D02*
X6438634Y-11960722D01*
X6438634Y-11960722D02*
X6429111Y-11941674D01*
X6429111Y-11941674D02*
X6410063Y-11932150D01*
X6410063Y-11932150D02*
X6371968Y-11932150D01*
X6371968Y-11932150D02*
X6352920Y-11941674D01*
X6438634Y-12055960D02*
X6419587Y-12065484D01*
X6419587Y-12065484D02*
X6371968Y-12065484D01*
X6371968Y-12065484D02*
X6352920Y-12055960D01*
X6352920Y-12055960D02*
X6343396Y-12036912D01*
X6343396Y-12036912D02*
X6343396Y-12017865D01*
X6343396Y-12017865D02*
X6352920Y-11998817D01*
X6352920Y-11998817D02*
X6371968Y-11989293D01*
X6371968Y-11989293D02*
X6419587Y-11989293D01*
X6419587Y-11989293D02*
X6438634Y-11979769D01*
X6505301Y-11932150D02*
X6581492Y-11932150D01*
X6533873Y-11865484D02*
X6533873Y-12036912D01*
X6533873Y-12036912D02*
X6543396Y-12055960D01*
X6543396Y-12055960D02*
X6562444Y-12065484D01*
X6562444Y-12065484D02*
X6581492Y-12065484D01*
X6724349Y-12055960D02*
X6705301Y-12065484D01*
X6705301Y-12065484D02*
X6667206Y-12065484D01*
X6667206Y-12065484D02*
X6648158Y-12055960D01*
X6648158Y-12055960D02*
X6638634Y-12036912D01*
X6638634Y-12036912D02*
X6638634Y-11960722D01*
X6638634Y-11960722D02*
X6648158Y-11941674D01*
X6648158Y-11941674D02*
X6667206Y-11932150D01*
X6667206Y-11932150D02*
X6705301Y-11932150D01*
X6705301Y-11932150D02*
X6724349Y-11941674D01*
X6724349Y-11941674D02*
X6733873Y-11960722D01*
X6733873Y-11960722D02*
X6733873Y-11979769D01*
X6733873Y-11979769D02*
X6638634Y-11998817D01*
X6905301Y-12065484D02*
X6905301Y-11865484D01*
X6905301Y-12055960D02*
X6886254Y-12065484D01*
X6886254Y-12065484D02*
X6848158Y-12065484D01*
X6848158Y-12065484D02*
X6829111Y-12055960D01*
X6829111Y-12055960D02*
X6819587Y-12046436D01*
X6819587Y-12046436D02*
X6810063Y-12027388D01*
X6810063Y-12027388D02*
X6810063Y-11970246D01*
X6810063Y-11970246D02*
X6819587Y-11951198D01*
X6819587Y-11951198D02*
X6829111Y-11941674D01*
X6829111Y-11941674D02*
X6848158Y-11932150D01*
X6848158Y-11932150D02*
X6886254Y-11932150D01*
X6886254Y-11932150D02*
X6905301Y-11941674D01*
X6981492Y-12141674D02*
X6991015Y-12132150D01*
X6991015Y-12132150D02*
X7010063Y-12103579D01*
X7010063Y-12103579D02*
X7019587Y-12084531D01*
X7019587Y-12084531D02*
X7029111Y-12055960D01*
X7029111Y-12055960D02*
X7038634Y-12008341D01*
X7038634Y-12008341D02*
X7038634Y-11970246D01*
X7038634Y-11970246D02*
X7029111Y-11922627D01*
X7029111Y-11922627D02*
X7019587Y-11894055D01*
X7019587Y-11894055D02*
X7010063Y-11875008D01*
X7010063Y-11875008D02*
X6991015Y-11846436D01*
X6991015Y-11846436D02*
X6981492Y-11836912D01*
M02*
