%TF.GenerationSoftware,KiCad,Pcbnew,8.0.6*%
%TF.CreationDate,2024-12-05T21:58:00+08:00*%
%TF.ProjectId,PH60_Rev2,50483630-5f52-4657-9632-2e6b69636164,rev?*%
%TF.SameCoordinates,Original*%
%TF.FileFunction,Component,L2,Bot*%
%TF.FilePolarity,Positive*%
%FSLAX46Y46*%
G04 Gerber Fmt 4.6, Leading zero omitted, Abs format (unit mm)*
G04 Created by KiCad (PCBNEW 8.0.6) date 2024-12-05 21:58:00*
%MOMM*%
%LPD*%
G01*
G04 APERTURE LIST*
%TA.AperFunction,ComponentMain*%
%ADD10C,0.300000*%
%TD*%
%TA.AperFunction,ComponentOutline,Courtyard*%
%ADD11C,0.100000*%
%TD*%
%TA.AperFunction,ComponentPin*%
%ADD12P,0.360000X4X0.000000*%
%TD*%
%TA.AperFunction,ComponentPin*%
%ADD13C,0.100000*%
%TD*%
%TA.AperFunction,Profile*%
%ADD14C,0.050000*%
%TD*%
G04 APERTURE END LIST*
D10*
%TO.C,D1*%
%TO.CFtp,D_SOD-123*%
%TO.CVal,DIODE*%
%TO.CLbN,Diode_SMD*%
%TO.CMnt,SMD*%
%TO.CRot,90*%
X33020000Y-34870000D03*
D11*
X34169999Y-32520001D02*
X34169999Y-37219999D01*
X31870001Y-37219999D01*
X31870001Y-32520001D01*
X34169999Y-32520001D01*
D12*
%TO.P,D1,1,K*%
X33020000Y-33220000D03*
D13*
%TO.P,D1,2,A*%
X33020000Y-36520000D03*
%TD*%
D10*
%TO.C,D46*%
%TO.CFtp,D_SOD-123*%
%TO.CVal,DIODE*%
%TO.CLbN,Diode_SMD*%
%TO.CMnt,SMD*%
%TO.CRot,-90*%
X94932500Y-98480000D03*
D11*
X96082499Y-96130001D02*
X96082499Y-100829999D01*
X93782501Y-100829999D01*
X93782501Y-96130001D01*
X96082499Y-96130001D01*
D12*
%TO.P,D46,1,K*%
X94932500Y-100130000D03*
D13*
%TO.P,D46,2,A*%
X94932500Y-96830000D03*
%TD*%
D10*
%TO.C,D32*%
%TO.CFtp,D_SOD-123*%
%TO.CVal,DIODE*%
%TO.CLbN,Diode_SMD*%
%TO.CMnt,SMD*%
%TO.CRot,-90*%
X104457500Y-79430000D03*
D11*
X105607499Y-77080001D02*
X105607499Y-81779999D01*
X103307501Y-81779999D01*
X103307501Y-77080001D01*
X105607499Y-77080001D01*
D12*
%TO.P,D32,1,K*%
X104457500Y-81080000D03*
D13*
%TO.P,D32,2,A*%
X104457500Y-77780000D03*
%TD*%
D10*
%TO.C,D34*%
%TO.CFtp,D_SOD-123*%
%TO.CVal,DIODE*%
%TO.CLbN,Diode_SMD*%
%TO.CMnt,SMD*%
%TO.CRot,-90*%
X142557500Y-79430000D03*
D11*
X143707499Y-77080001D02*
X143707499Y-81779999D01*
X141407501Y-81779999D01*
X141407501Y-77080001D01*
X143707499Y-77080001D01*
D12*
%TO.P,D34,1,K*%
X142557500Y-81080000D03*
D13*
%TO.P,D34,2,A*%
X142557500Y-77780000D03*
%TD*%
D10*
%TO.C,D41*%
%TO.CFtp,D_SOD-123*%
%TO.CVal,DIODE*%
%TO.CLbN,Diode_SMD*%
%TO.CMnt,SMD*%
%TO.CRot,90*%
X270987500Y-82730000D03*
D11*
X272137499Y-80380001D02*
X272137499Y-85079999D01*
X269837501Y-85079999D01*
X269837501Y-80380001D01*
X272137499Y-80380001D01*
D12*
%TO.P,D41,1,K*%
X270987500Y-81080000D03*
D13*
%TO.P,D41,2,A*%
X270987500Y-84380000D03*
%TD*%
D10*
%TO.C,D56*%
%TO.CFtp,D_SOD-123*%
%TO.CVal,DIODE*%
%TO.CLbN,Diode_SMD*%
%TO.CMnt,SMD*%
%TO.CRot,-90*%
X299720000Y-95250000D03*
D11*
X300869999Y-92900001D02*
X300869999Y-97599999D01*
X298570001Y-97599999D01*
X298570001Y-92900001D01*
X300869999Y-92900001D01*
D12*
%TO.P,D56,1,K*%
X299720000Y-96900000D03*
D13*
%TO.P,D56,2,A*%
X299720000Y-93600000D03*
%TD*%
D10*
%TO.C,D50*%
%TO.CFtp,D_SOD-123*%
%TO.CVal,DIODE*%
%TO.CLbN,Diode_SMD*%
%TO.CMnt,SMD*%
%TO.CRot,-90*%
X171132500Y-98480000D03*
D11*
X172282499Y-96130001D02*
X172282499Y-100829999D01*
X169982501Y-100829999D01*
X169982501Y-96130001D01*
X172282499Y-96130001D01*
D12*
%TO.P,D50,1,K*%
X171132500Y-100130000D03*
D13*
%TO.P,D50,2,A*%
X171132500Y-96830000D03*
%TD*%
D10*
%TO.C,D51*%
%TO.CFtp,D_SOD-123*%
%TO.CVal,DIODE*%
%TO.CLbN,Diode_SMD*%
%TO.CMnt,SMD*%
%TO.CRot,-90*%
X190182500Y-98480000D03*
D11*
X191332499Y-96130001D02*
X191332499Y-100829999D01*
X189032501Y-100829999D01*
X189032501Y-96130001D01*
X191332499Y-96130001D01*
D12*
%TO.P,D51,1,K*%
X190182500Y-100130000D03*
D13*
%TO.P,D51,2,A*%
X190182500Y-96830000D03*
%TD*%
D10*
%TO.C,D5*%
%TO.CFtp,D_SOD-123*%
%TO.CVal,DIODE*%
%TO.CLbN,Diode_SMD*%
%TO.CMnt,SMD*%
%TO.CRot,-90*%
X109220000Y-41330000D03*
D11*
X110369999Y-38980001D02*
X110369999Y-43679999D01*
X108070001Y-43679999D01*
X108070001Y-38980001D01*
X110369999Y-38980001D01*
D12*
%TO.P,D5,1,K*%
X109220000Y-42980000D03*
D13*
%TO.P,D5,2,A*%
X109220000Y-39680000D03*
%TD*%
D10*
%TO.C,R1*%
%TO.CFtp,R_0402_1005Metric*%
%TO.CVal,1k*%
%TO.CLbN,Resistor_SMD*%
%TO.CMnt,SMD*%
%TO.CRot,90*%
X129900000Y-110020000D03*
D11*
X130369999Y-109090001D02*
X130369999Y-110949999D01*
X129430001Y-110949999D01*
X129430001Y-109090001D01*
X130369999Y-109090001D01*
D12*
%TO.P,R1,1*%
X129900000Y-109510000D03*
D13*
%TO.P,R1,2*%
X129900000Y-110530000D03*
%TD*%
D10*
%TO.C,D38*%
%TO.CFtp,D_SOD-123*%
%TO.CVal,DIODE*%
%TO.CLbN,Diode_SMD*%
%TO.CMnt,SMD*%
%TO.CRot,-90*%
X218757500Y-79430000D03*
D11*
X219907499Y-77080001D02*
X219907499Y-81779999D01*
X217607501Y-81779999D01*
X217607501Y-77080001D01*
X219907499Y-77080001D01*
D12*
%TO.P,D38,1,K*%
X218757500Y-81080000D03*
D13*
%TO.P,D38,2,A*%
X218757500Y-77780000D03*
%TD*%
D10*
%TO.C,D52*%
%TO.CFtp,D_SOD-123*%
%TO.CVal,DIODE*%
%TO.CLbN,Diode_SMD*%
%TO.CMnt,SMD*%
%TO.CRot,-90*%
X209232500Y-98480000D03*
D11*
X210382499Y-96130001D02*
X210382499Y-100829999D01*
X208082501Y-100829999D01*
X208082501Y-96130001D01*
X210382499Y-96130001D01*
D12*
%TO.P,D52,1,K*%
X209232500Y-100130000D03*
D13*
%TO.P,D52,2,A*%
X209232500Y-96830000D03*
%TD*%
D10*
%TO.C,D60*%
%TO.CFtp,D_SOD-123*%
%TO.CVal,DIODE*%
%TO.CLbN,Diode_SMD*%
%TO.CMnt,SMD*%
%TO.CRot,-90*%
X154463750Y-117530000D03*
D11*
X155613749Y-115180001D02*
X155613749Y-119879999D01*
X153313751Y-119879999D01*
X153313751Y-115180001D01*
X155613749Y-115180001D01*
D12*
%TO.P,D60,1,K*%
X154463750Y-119180000D03*
D13*
%TO.P,D60,2,A*%
X154463750Y-115880000D03*
%TD*%
D10*
%TO.C,D48*%
%TO.CFtp,D_SOD-123*%
%TO.CVal,DIODE*%
%TO.CLbN,Diode_SMD*%
%TO.CMnt,SMD*%
%TO.CRot,-90*%
X133032500Y-98480000D03*
D11*
X134182499Y-96130001D02*
X134182499Y-100829999D01*
X131882501Y-100829999D01*
X131882501Y-96130001D01*
X134182499Y-96130001D01*
D12*
%TO.P,D48,1,K*%
X133032500Y-100130000D03*
D13*
%TO.P,D48,2,A*%
X133032500Y-96830000D03*
%TD*%
D10*
%TO.C,D20*%
%TO.CFtp,D_SOD-123*%
%TO.CVal,DIODE*%
%TO.CLbN,Diode_SMD*%
%TO.CMnt,SMD*%
%TO.CRot,-90*%
X137795000Y-60380000D03*
D11*
X138944999Y-58030001D02*
X138944999Y-62729999D01*
X136645001Y-62729999D01*
X136645001Y-58030001D01*
X138944999Y-58030001D01*
D12*
%TO.P,D20,1,K*%
X137795000Y-62030000D03*
D13*
%TO.P,D20,2,A*%
X137795000Y-58730000D03*
%TD*%
D10*
%TO.C,C8*%
%TO.CFtp,C_0402_1005Metric*%
%TO.CVal,1u*%
%TO.CLbN,Capacitor_SMD*%
%TO.CMnt,SMD*%
%TO.CRot,0*%
X129650000Y-118550000D03*
D11*
X130559999Y-118090001D02*
X130559999Y-119009999D01*
X128740001Y-119009999D01*
X128740001Y-118090001D01*
X130559999Y-118090001D01*
D12*
%TO.P,C8,1*%
X130130000Y-118550000D03*
D13*
%TO.P,C8,2*%
X129170000Y-118550000D03*
%TD*%
D10*
%TO.C,R4*%
%TO.CFtp,R_0402_1005Metric*%
%TO.CVal,27.4*%
%TO.CLbN,Resistor_SMD*%
%TO.CMnt,SMD*%
%TO.CRot,180*%
X129650000Y-117550000D03*
D11*
X130579999Y-117080001D02*
X130579999Y-118019999D01*
X128720001Y-118019999D01*
X128720001Y-117080001D01*
X130579999Y-117080001D01*
D12*
%TO.P,R4,1*%
X129140000Y-117550000D03*
D13*
%TO.P,R4,2*%
X130160000Y-117550000D03*
%TD*%
D10*
%TO.C,D42*%
%TO.CFtp,D_SOD-123*%
%TO.CVal,DIODE*%
%TO.CLbN,Diode_SMD*%
%TO.CMnt,SMD*%
%TO.CRot,-90*%
X284037500Y-57150000D03*
D11*
X285187499Y-54800001D02*
X285187499Y-59499999D01*
X282887501Y-59499999D01*
X282887501Y-54800001D01*
X285187499Y-54800001D01*
D12*
%TO.P,D42,1,K*%
X284037500Y-58800000D03*
D13*
%TO.P,D42,2,A*%
X284037500Y-55500000D03*
%TD*%
D10*
%TO.C,D55*%
%TO.CFtp,D_SOD-123*%
%TO.CVal,DIODE*%
%TO.CLbN,Diode_SMD*%
%TO.CMnt,SMD*%
%TO.CRot,-90*%
X266575000Y-98480000D03*
D11*
X267724999Y-96130001D02*
X267724999Y-100829999D01*
X265425001Y-100829999D01*
X265425001Y-96130001D01*
X267724999Y-96130001D01*
D12*
%TO.P,D55,1,K*%
X266575000Y-100130000D03*
D13*
%TO.P,D55,2,A*%
X266575000Y-96830000D03*
%TD*%
D10*
%TO.C,D49*%
%TO.CFtp,D_SOD-123*%
%TO.CVal,DIODE*%
%TO.CLbN,Diode_SMD*%
%TO.CMnt,SMD*%
%TO.CRot,-90*%
X152082500Y-98480000D03*
D11*
X153232499Y-96130001D02*
X153232499Y-100829999D01*
X150932501Y-100829999D01*
X150932501Y-96130001D01*
X153232499Y-96130001D01*
D12*
%TO.P,D49,1,K*%
X152082500Y-100130000D03*
D13*
%TO.P,D49,2,A*%
X152082500Y-96830000D03*
%TD*%
D10*
%TO.C,D64*%
%TO.CFtp,D_SOD-123*%
%TO.CVal,DIODE*%
%TO.CLbN,Diode_SMD*%
%TO.CMnt,SMD*%
%TO.CRot,90*%
X290037500Y-107290000D03*
D11*
X291187499Y-104940001D02*
X291187499Y-109639999D01*
X288887501Y-109639999D01*
X288887501Y-104940001D01*
X291187499Y-104940001D01*
D12*
%TO.P,D64,1,K*%
X290037500Y-105640000D03*
D13*
%TO.P,D64,2,A*%
X290037500Y-108940000D03*
%TD*%
D10*
%TO.C,D27*%
%TO.CFtp,D_SOD-123*%
%TO.CVal,DIODE*%
%TO.CLbN,Diode_SMD*%
%TO.CMnt,SMD*%
%TO.CRot,-90*%
X271145000Y-60380000D03*
D11*
X272294999Y-58030001D02*
X272294999Y-62729999D01*
X269995001Y-62729999D01*
X269995001Y-58030001D01*
X272294999Y-58030001D01*
D12*
%TO.P,D27,1,K*%
X271145000Y-62030000D03*
D13*
%TO.P,D27,2,A*%
X271145000Y-58730000D03*
%TD*%
D10*
%TO.C,C10*%
%TO.CFtp,C_0402_1005Metric*%
%TO.CVal,1u*%
%TO.CLbN,Capacitor_SMD*%
%TO.CMnt,SMD*%
%TO.CRot,0*%
X129650000Y-119550000D03*
D11*
X130559999Y-119090001D02*
X130559999Y-120009999D01*
X128740001Y-120009999D01*
X128740001Y-119090001D01*
X130559999Y-119090001D01*
D12*
%TO.P,C10,1*%
X130130000Y-119550000D03*
D13*
%TO.P,C10,2*%
X129170000Y-119550000D03*
%TD*%
D10*
%TO.C,D3*%
%TO.CFtp,D_SOD-123*%
%TO.CVal,DIODE*%
%TO.CLbN,Diode_SMD*%
%TO.CMnt,SMD*%
%TO.CRot,-90*%
X71120000Y-41330000D03*
D11*
X72269999Y-38980001D02*
X72269999Y-43679999D01*
X69970001Y-43679999D01*
X69970001Y-38980001D01*
X72269999Y-38980001D01*
D12*
%TO.P,D3,1,K*%
X71120000Y-42980000D03*
D13*
%TO.P,D3,2,A*%
X71120000Y-39680000D03*
%TD*%
D10*
%TO.C,R6*%
%TO.CFtp,R_0402_1005Metric*%
%TO.CVal,5K1*%
%TO.CLbN,Resistor_SMD*%
%TO.CMnt,SMD*%
%TO.CRot,0*%
X45390000Y-38250000D03*
D11*
X46319999Y-37780001D02*
X46319999Y-38719999D01*
X44460001Y-38719999D01*
X44460001Y-37780001D01*
X46319999Y-37780001D01*
D12*
%TO.P,R6,1*%
X45900000Y-38250000D03*
D13*
%TO.P,R6,2*%
X44880000Y-38250000D03*
%TD*%
D10*
%TO.C,D4*%
%TO.CFtp,D_SOD-123*%
%TO.CVal,DIODE*%
%TO.CLbN,Diode_SMD*%
%TO.CMnt,SMD*%
%TO.CRot,-90*%
X90170000Y-41330000D03*
D11*
X91319999Y-38980001D02*
X91319999Y-43679999D01*
X89020001Y-43679999D01*
X89020001Y-38980001D01*
X91319999Y-38980001D01*
D12*
%TO.P,D4,1,K*%
X90170000Y-42980000D03*
D13*
%TO.P,D4,2,A*%
X90170000Y-39680000D03*
%TD*%
D10*
%TO.C,D33*%
%TO.CFtp,D_SOD-123*%
%TO.CVal,DIODE*%
%TO.CLbN,Diode_SMD*%
%TO.CMnt,SMD*%
%TO.CRot,-90*%
X123507500Y-79430000D03*
D11*
X124657499Y-77080001D02*
X124657499Y-81779999D01*
X122357501Y-81779999D01*
X122357501Y-77080001D01*
X124657499Y-77080001D01*
D12*
%TO.P,D33,1,K*%
X123507500Y-81080000D03*
D13*
%TO.P,D33,2,A*%
X123507500Y-77780000D03*
%TD*%
D10*
%TO.C,C9*%
%TO.CFtp,C_0402_1005Metric*%
%TO.CVal,100n*%
%TO.CLbN,Capacitor_SMD*%
%TO.CMnt,SMD*%
%TO.CRot,90*%
X131130000Y-120030000D03*
D11*
X131589999Y-119120001D02*
X131589999Y-120939999D01*
X130670001Y-120939999D01*
X130670001Y-119120001D01*
X131589999Y-119120001D01*
D12*
%TO.P,C9,1*%
X131130000Y-119550000D03*
D13*
%TO.P,C9,2*%
X131130000Y-120510000D03*
%TD*%
D10*
%TO.C,C7*%
%TO.CFtp,C_0402_1005Metric*%
%TO.CVal,100n*%
%TO.CLbN,Capacitor_SMD*%
%TO.CMnt,SMD*%
%TO.CRot,-90*%
X126125000Y-113565758D03*
D11*
X126584999Y-112655759D02*
X126584999Y-114475757D01*
X125665001Y-114475757D01*
X125665001Y-112655759D01*
X126584999Y-112655759D01*
D12*
%TO.P,C7,1*%
X126125000Y-114045758D03*
D13*
%TO.P,C7,2*%
X126125000Y-113085758D03*
%TD*%
D10*
%TO.C,D17*%
%TO.CFtp,D_SOD-123*%
%TO.CVal,DIODE*%
%TO.CLbN,Diode_SMD*%
%TO.CMnt,SMD*%
%TO.CRot,-90*%
X80645000Y-60380000D03*
D11*
X81794999Y-58030001D02*
X81794999Y-62729999D01*
X79495001Y-62729999D01*
X79495001Y-58030001D01*
X81794999Y-58030001D01*
D12*
%TO.P,D17,1,K*%
X80645000Y-62030000D03*
D13*
%TO.P,D17,2,A*%
X80645000Y-58730000D03*
%TD*%
D10*
%TO.C,Y1*%
%TO.CFtp,Crystal_SMD_3225-4Pin_3.2x2.5mm*%
%TO.CVal,Crystal_GND24*%
%TO.CLbN,Crystal*%
%TO.CMnt,SMD*%
%TO.CRot,0*%
X145100000Y-115150000D03*
D11*
X147199999Y-113450001D02*
X147199999Y-116849999D01*
X143000001Y-116849999D01*
X143000001Y-113450001D01*
X147199999Y-113450001D01*
D12*
%TO.P,Y1,1,1*%
X146200000Y-116000000D03*
D13*
%TO.P,Y1,2,2*%
X144000000Y-116000000D03*
%TO.P,Y1,3,3*%
X144000000Y-114300000D03*
%TO.P,Y1,4,4*%
X146200000Y-114300000D03*
%TD*%
D10*
%TO.C,U2*%
%TO.CFtp,Winbond_USON-8-1EP_3x2mm_P0.5mm_EP0.2x1.6mm*%
%TO.CVal,W25Q128JVS*%
%TO.CLbN,Package_SON*%
%TO.CMnt,SMD*%
%TO.CRot,0*%
X129325000Y-112975000D03*
D11*
X131454999Y-111725001D02*
X131454999Y-114224999D01*
X127195001Y-114224999D01*
X127195001Y-111725001D01*
X131454999Y-111725001D01*
D12*
%TO.P,U2,1,~{CS}*%
X130750000Y-112225000D03*
D13*
%TO.P,U2,2,DO(IO1)*%
X130750000Y-112725000D03*
%TO.P,U2,3,IO2*%
X130750000Y-113225000D03*
%TO.P,U2,4,GND*%
X130750000Y-113725000D03*
%TO.P,U2,5,DI(IO0)*%
X127900000Y-113725000D03*
%TO.P,U2,6,CLK*%
X127900000Y-113225000D03*
%TO.P,U2,7,IO3*%
X127900000Y-112725000D03*
%TO.P,U2,8,VCC*%
X127900000Y-112225000D03*
%TO.P,U2,9*%
X129325000Y-112975000D03*
%TD*%
D10*
%TO.C,C2*%
%TO.CFtp,C_0402_1005Metric*%
%TO.CVal,20p*%
%TO.CLbN,Capacitor_SMD*%
%TO.CMnt,SMD*%
%TO.CRot,180*%
X145100000Y-112900000D03*
D11*
X146009999Y-112440001D02*
X146009999Y-113359999D01*
X144190001Y-113359999D01*
X144190001Y-112440001D01*
X146009999Y-112440001D01*
D12*
%TO.P,C2,1*%
X144620000Y-112900000D03*
D13*
%TO.P,C2,2*%
X145580000Y-112900000D03*
%TD*%
D10*
%TO.C,D28*%
%TO.CFtp,D_SOD-123*%
%TO.CVal,DIODE*%
%TO.CLbN,Diode_SMD*%
%TO.CMnt,SMD*%
%TO.CRot,180*%
X284037500Y-62030000D03*
D11*
X286387499Y-60880001D02*
X286387499Y-63179999D01*
X281687501Y-63179999D01*
X281687501Y-60880001D01*
X286387499Y-60880001D01*
D12*
%TO.P,D28,1,K*%
X282387500Y-62030000D03*
D13*
%TO.P,D28,2,A*%
X285687500Y-62030000D03*
%TD*%
D10*
%TO.C,D63*%
%TO.CFtp,D_SOD-123*%
%TO.CVal,DIODE*%
%TO.CLbN,Diode_SMD*%
%TO.CMnt,SMD*%
%TO.CRot,90*%
X266225000Y-107290000D03*
D11*
X267374999Y-104940001D02*
X267374999Y-109639999D01*
X265075001Y-109639999D01*
X265075001Y-104940001D01*
X267374999Y-104940001D01*
D12*
%TO.P,D63,1,K*%
X266225000Y-105640000D03*
D13*
%TO.P,D63,2,A*%
X266225000Y-108940000D03*
%TD*%
D10*
%TO.C,D31*%
%TO.CFtp,D_SOD-123*%
%TO.CVal,DIODE*%
%TO.CLbN,Diode_SMD*%
%TO.CMnt,SMD*%
%TO.CRot,-90*%
X85407500Y-79430000D03*
D11*
X86557499Y-77080001D02*
X86557499Y-81779999D01*
X84257501Y-81779999D01*
X84257501Y-77080001D01*
X86557499Y-77080001D01*
D12*
%TO.P,D31,1,K*%
X85407500Y-81080000D03*
D13*
%TO.P,D31,2,A*%
X85407500Y-77780000D03*
%TD*%
D10*
%TO.C,U3*%
%TO.CFtp,QFN-56-1EP_7x7mm_P0.4mm_EP3.2x3.2mm_ThermalVias*%
%TO.CVal,RP2040*%
%TO.CLbN,Package_DFN_QFN*%
%TO.CMnt,SMD*%
%TO.CRot,90*%
X135900000Y-115550000D03*
D11*
X140029999Y-111420001D02*
X140029999Y-119679999D01*
X131770001Y-119679999D01*
X131770001Y-111420001D01*
X140029999Y-111420001D01*
D12*
%TO.P,U3,1,IOVDD*%
X133300000Y-112112500D03*
D13*
%TO.P,U3,2,GPIO0*%
X133700000Y-112112500D03*
%TO.P,U3,3,GPIO1*%
X134100000Y-112112500D03*
%TO.P,U3,4,GPIO2*%
X134500000Y-112112500D03*
%TO.P,U3,5,GPIO3*%
X134900000Y-112112500D03*
%TO.P,U3,6,GPIO4*%
X135300000Y-112112500D03*
%TO.P,U3,7,GPIO5*%
X135700000Y-112112500D03*
%TO.P,U3,8,GPIO6*%
X136100000Y-112112500D03*
%TO.P,U3,9,GPIO7*%
X136500000Y-112112500D03*
%TO.P,U3,10,IOVDD*%
X136900000Y-112112500D03*
%TO.P,U3,11,GPIO8*%
X137300000Y-112112500D03*
%TO.P,U3,12,GPIO9*%
X137700000Y-112112500D03*
%TO.P,U3,13,GPIO10*%
X138100000Y-112112500D03*
%TO.P,U3,14,GPIO11*%
X138500000Y-112112500D03*
%TO.P,U3,15,GPIO12*%
X139337500Y-112950000D03*
%TO.P,U3,16,GPIO13*%
X139337500Y-113350000D03*
%TO.P,U3,17,GPIO14*%
X139337500Y-113750000D03*
%TO.P,U3,18,GPIO15*%
X139337500Y-114150000D03*
%TO.P,U3,19,TESTEN*%
X139337500Y-114550000D03*
%TO.P,U3,20,XIN*%
X139337500Y-114950000D03*
%TO.P,U3,21,XOUT*%
X139337500Y-115350000D03*
%TO.P,U3,22,IOVDD*%
X139337500Y-115750000D03*
%TO.P,U3,23,DVDD*%
X139337500Y-116150000D03*
%TO.P,U3,24,SWCLK*%
X139337500Y-116550000D03*
%TO.P,U3,25,SWD*%
X139337500Y-116950000D03*
%TO.P,U3,26,RUN*%
X139337500Y-117350000D03*
%TO.P,U3,27,GPIO16*%
X139337500Y-117750000D03*
%TO.P,U3,28,GPIO17*%
X139337500Y-118150000D03*
%TO.P,U3,29,GPIO18*%
X138500000Y-118987500D03*
%TO.P,U3,30,GPIO19*%
X138100000Y-118987500D03*
%TO.P,U3,31,GPIO20*%
X137700000Y-118987500D03*
%TO.P,U3,32,GPIO21*%
X137300000Y-118987500D03*
%TO.P,U3,33,IOVDD*%
X136900000Y-118987500D03*
%TO.P,U3,34,GPIO22*%
X136500000Y-118987500D03*
%TO.P,U3,35,GPIO23*%
X136100000Y-118987500D03*
%TO.P,U3,36,GPIO24*%
X135700000Y-118987500D03*
%TO.P,U3,37,GPIO25*%
X135300000Y-118987500D03*
%TO.P,U3,38,GPIO26_ADC0*%
X134900000Y-118987500D03*
%TO.P,U3,39,GPIO27_ADC1*%
X134500000Y-118987500D03*
%TO.P,U3,40,GPIO28_ADC2*%
X134100000Y-118987500D03*
%TO.P,U3,41,GPIO29_ADC3*%
X133700000Y-118987500D03*
%TO.P,U3,42,IOVDD*%
X133300000Y-118987500D03*
%TO.P,U3,43,ADC_AVDD*%
X132462500Y-118150000D03*
%TO.P,U3,44,VREG_IN*%
X132462500Y-117750000D03*
%TO.P,U3,45,VREG_VOUT*%
X132462500Y-117350000D03*
%TO.P,U3,46,USB_DM*%
X132462500Y-116950000D03*
%TO.P,U3,47,USB_DP*%
X132462500Y-116550000D03*
%TO.P,U3,48,USB_VDD*%
X132462500Y-116150000D03*
%TO.P,U3,49,IOVDD*%
X132462500Y-115750000D03*
%TO.P,U3,50,DVDD*%
X132462500Y-115350000D03*
%TO.P,U3,51,QSPI_SD3*%
X132462500Y-114950000D03*
%TO.P,U3,52,QSPI_SCLK*%
X132462500Y-114550000D03*
%TO.P,U3,53,QSPI_SD0*%
X132462500Y-114150000D03*
%TO.P,U3,54,QSPI_SD2*%
X132462500Y-113750000D03*
%TO.P,U3,55,QSPI_SD1*%
X132462500Y-113350000D03*
%TO.P,U3,56,QSPI_SS*%
X132462500Y-112950000D03*
%TO.P,U3,57,GND*%
X137250000Y-114200000D03*
X134550000Y-114200000D03*
X135900000Y-115550000D03*
X137250000Y-116900000D03*
X134550000Y-116900000D03*
%TD*%
D10*
%TO.C,C4*%
%TO.CFtp,C_0402_1005Metric*%
%TO.CVal,10u*%
%TO.CLbN,Capacitor_SMD*%
%TO.CMnt,SMD*%
%TO.CRot,-90*%
X127900000Y-110020000D03*
D11*
X128359999Y-109110001D02*
X128359999Y-110929999D01*
X127440001Y-110929999D01*
X127440001Y-109110001D01*
X128359999Y-109110001D01*
D12*
%TO.P,C4,1*%
X127900000Y-110500000D03*
D13*
%TO.P,C4,2*%
X127900000Y-109540000D03*
%TD*%
D10*
%TO.C,D29*%
%TO.CFtp,D_SOD-123*%
%TO.CVal,DIODE*%
%TO.CLbN,Diode_SMD*%
%TO.CMnt,SMD*%
%TO.CRot,-90*%
X55243750Y-79430000D03*
D11*
X56393749Y-77080001D02*
X56393749Y-81779999D01*
X54093751Y-81779999D01*
X54093751Y-77080001D01*
X56393749Y-77080001D01*
D12*
%TO.P,D29,1,K*%
X55243750Y-81080000D03*
D13*
%TO.P,D29,2,A*%
X55243750Y-77780000D03*
%TD*%
D10*
%TO.C,D40*%
%TO.CFtp,D_SOD-123*%
%TO.CVal,DIODE*%
%TO.CLbN,Diode_SMD*%
%TO.CMnt,SMD*%
%TO.CRot,-90*%
X256857500Y-79430000D03*
D11*
X258007499Y-77080001D02*
X258007499Y-81779999D01*
X255707501Y-81779999D01*
X255707501Y-77080001D01*
X258007499Y-77080001D01*
D12*
%TO.P,D40,1,K*%
X256857500Y-81080000D03*
D13*
%TO.P,D40,2,A*%
X256857500Y-77780000D03*
%TD*%
D10*
%TO.C,D47*%
%TO.CFtp,D_SOD-123*%
%TO.CVal,DIODE*%
%TO.CLbN,Diode_SMD*%
%TO.CMnt,SMD*%
%TO.CRot,-90*%
X113982500Y-98480000D03*
D11*
X115132499Y-96130001D02*
X115132499Y-100829999D01*
X112832501Y-100829999D01*
X112832501Y-96130001D01*
X115132499Y-96130001D01*
D12*
%TO.P,D47,1,K*%
X113982500Y-100130000D03*
D13*
%TO.P,D47,2,A*%
X113982500Y-96830000D03*
%TD*%
D10*
%TO.C,D9*%
%TO.CFtp,D_SOD-123*%
%TO.CVal,DIODE*%
%TO.CLbN,Diode_SMD*%
%TO.CMnt,SMD*%
%TO.CRot,-90*%
X185420000Y-41330000D03*
D11*
X186569999Y-38980001D02*
X186569999Y-43679999D01*
X184270001Y-43679999D01*
X184270001Y-38980001D01*
X186569999Y-38980001D01*
D12*
%TO.P,D9,1,K*%
X185420000Y-42980000D03*
D13*
%TO.P,D9,2,A*%
X185420000Y-39680000D03*
%TD*%
D10*
%TO.C,R5*%
%TO.CFtp,R_0402_1005Metric*%
%TO.CVal,1k*%
%TO.CLbN,Resistor_SMD*%
%TO.CMnt,SMD*%
%TO.CRot,0*%
X145100000Y-117400000D03*
D11*
X146029999Y-116930001D02*
X146029999Y-117869999D01*
X144170001Y-117869999D01*
X144170001Y-116930001D01*
X146029999Y-116930001D01*
D12*
%TO.P,R5,1*%
X145610000Y-117400000D03*
D13*
%TO.P,R5,2*%
X144590000Y-117400000D03*
%TD*%
D10*
%TO.C,D45*%
%TO.CFtp,D_SOD-123*%
%TO.CVal,DIODE*%
%TO.CLbN,Diode_SMD*%
%TO.CMnt,SMD*%
%TO.CRot,-90*%
X75882500Y-98480000D03*
D11*
X77032499Y-96130001D02*
X77032499Y-100829999D01*
X74732501Y-100829999D01*
X74732501Y-96130001D01*
X77032499Y-96130001D01*
D12*
%TO.P,D45,1,K*%
X75882500Y-100130000D03*
D13*
%TO.P,D45,2,A*%
X75882500Y-96830000D03*
%TD*%
D10*
%TO.C,D54*%
%TO.CFtp,D_SOD-123*%
%TO.CVal,DIODE*%
%TO.CLbN,Diode_SMD*%
%TO.CMnt,SMD*%
%TO.CRot,-90*%
X247332500Y-98480000D03*
D11*
X248482499Y-96130001D02*
X248482499Y-100829999D01*
X246182501Y-100829999D01*
X246182501Y-96130001D01*
X248482499Y-96130001D01*
D12*
%TO.P,D54,1,K*%
X247332500Y-100130000D03*
D13*
%TO.P,D54,2,A*%
X247332500Y-96830000D03*
%TD*%
D10*
%TO.C,D7*%
%TO.CFtp,D_SOD-123*%
%TO.CVal,DIODE*%
%TO.CLbN,Diode_SMD*%
%TO.CMnt,SMD*%
%TO.CRot,-90*%
X147320000Y-41330000D03*
D11*
X148469999Y-38980001D02*
X148469999Y-43679999D01*
X146170001Y-43679999D01*
X146170001Y-38980001D01*
X148469999Y-38980001D01*
D12*
%TO.P,D7,1,K*%
X147320000Y-42980000D03*
D13*
%TO.P,D7,2,A*%
X147320000Y-39680000D03*
%TD*%
D10*
%TO.C,D53*%
%TO.CFtp,D_SOD-123*%
%TO.CVal,DIODE*%
%TO.CLbN,Diode_SMD*%
%TO.CMnt,SMD*%
%TO.CRot,-90*%
X228282500Y-98480000D03*
D11*
X229432499Y-96130001D02*
X229432499Y-100829999D01*
X227132501Y-100829999D01*
X227132501Y-96130001D01*
X229432499Y-96130001D01*
D12*
%TO.P,D53,1,K*%
X228282500Y-100130000D03*
D13*
%TO.P,D53,2,A*%
X228282500Y-96830000D03*
%TD*%
D10*
%TO.C,D24*%
%TO.CFtp,D_SOD-123*%
%TO.CVal,DIODE*%
%TO.CLbN,Diode_SMD*%
%TO.CMnt,SMD*%
%TO.CRot,-90*%
X213995000Y-60380000D03*
D11*
X215144999Y-58030001D02*
X215144999Y-62729999D01*
X212845001Y-62729999D01*
X212845001Y-58030001D01*
X215144999Y-58030001D01*
D12*
%TO.P,D24,1,K*%
X213995000Y-62030000D03*
D13*
%TO.P,D24,2,A*%
X213995000Y-58730000D03*
%TD*%
D10*
%TO.C,C12*%
%TO.CFtp,C_0402_1005Metric*%
%TO.CVal,100n*%
%TO.CLbN,Capacitor_SMD*%
%TO.CMnt,SMD*%
%TO.CRot,0*%
X136420000Y-120250000D03*
D11*
X137329999Y-119790001D02*
X137329999Y-120709999D01*
X135510001Y-120709999D01*
X135510001Y-119790001D01*
X137329999Y-119790001D01*
D12*
%TO.P,C12,1*%
X136900000Y-120250000D03*
D13*
%TO.P,C12,2*%
X135940000Y-120250000D03*
%TD*%
D10*
%TO.C,D39*%
%TO.CFtp,D_SOD-123*%
%TO.CVal,DIODE*%
%TO.CLbN,Diode_SMD*%
%TO.CMnt,SMD*%
%TO.CRot,-90*%
X237807500Y-79430000D03*
D11*
X238957499Y-77080001D02*
X238957499Y-81779999D01*
X236657501Y-81779999D01*
X236657501Y-77080001D01*
X238957499Y-77080001D01*
D12*
%TO.P,D39,1,K*%
X237807500Y-81080000D03*
D13*
%TO.P,D39,2,A*%
X237807500Y-77780000D03*
%TD*%
D10*
%TO.C,D21*%
%TO.CFtp,D_SOD-123*%
%TO.CVal,DIODE*%
%TO.CLbN,Diode_SMD*%
%TO.CMnt,SMD*%
%TO.CRot,-90*%
X156845000Y-60380000D03*
D11*
X157994999Y-58030001D02*
X157994999Y-62729999D01*
X155695001Y-62729999D01*
X155695001Y-58030001D01*
X157994999Y-58030001D01*
D12*
%TO.P,D21,1,K*%
X156845000Y-62030000D03*
D13*
%TO.P,D21,2,A*%
X156845000Y-58730000D03*
%TD*%
D10*
%TO.C,C3*%
%TO.CFtp,C_0402_1005Metric*%
%TO.CVal,20p*%
%TO.CLbN,Capacitor_SMD*%
%TO.CMnt,SMD*%
%TO.CRot,-90*%
X147850000Y-115150000D03*
D11*
X148309999Y-114240001D02*
X148309999Y-116059999D01*
X147390001Y-116059999D01*
X147390001Y-114240001D01*
X148309999Y-114240001D01*
D12*
%TO.P,C3,1*%
X147850000Y-115630000D03*
D13*
%TO.P,C3,2*%
X147850000Y-114670000D03*
%TD*%
D10*
%TO.C,D10*%
%TO.CFtp,D_SOD-123*%
%TO.CVal,DIODE*%
%TO.CLbN,Diode_SMD*%
%TO.CMnt,SMD*%
%TO.CRot,-90*%
X204470000Y-41330000D03*
D11*
X205619999Y-38980001D02*
X205619999Y-43679999D01*
X203320001Y-43679999D01*
X203320001Y-38980001D01*
X205619999Y-38980001D01*
D12*
%TO.P,D10,1,K*%
X204470000Y-42980000D03*
D13*
%TO.P,D10,2,A*%
X204470000Y-39680000D03*
%TD*%
D10*
%TO.C,J2*%
%TO.CFtp,PinHeader_1x02_P1.27mm_Vertical*%
%TO.CVal,Conn_01x02*%
%TO.CLbN,Connector_PinHeader_1.27mm*%
%TO.CMnt,TH*%
%TO.CRot,-90*%
X124225000Y-106150000D03*
D11*
X125374999Y-104600001D02*
X125374999Y-107699999D01*
X121775001Y-107699999D01*
X121775001Y-104600001D01*
X125374999Y-104600001D01*
D12*
%TO.P,J2,1,Pin_1*%
X124225000Y-106150000D03*
D13*
%TO.P,J2,2,Pin_2*%
X122955000Y-106150000D03*
%TD*%
D10*
%TO.C,D2*%
%TO.CFtp,D_SOD-123*%
%TO.CVal,DIODE*%
%TO.CLbN,Diode_SMD*%
%TO.CMnt,SMD*%
%TO.CRot,90*%
X62230000Y-34870000D03*
D11*
X63379999Y-32520001D02*
X63379999Y-37219999D01*
X61080001Y-37219999D01*
X61080001Y-32520001D01*
X63379999Y-32520001D01*
D12*
%TO.P,D2,1,K*%
X62230000Y-33220000D03*
D13*
%TO.P,D2,2,A*%
X62230000Y-36520000D03*
%TD*%
D10*
%TO.C,D25*%
%TO.CFtp,D_SOD-123*%
%TO.CVal,DIODE*%
%TO.CLbN,Diode_SMD*%
%TO.CMnt,SMD*%
%TO.CRot,-90*%
X233045000Y-60380000D03*
D11*
X234194999Y-58030001D02*
X234194999Y-62729999D01*
X231895001Y-62729999D01*
X231895001Y-58030001D01*
X234194999Y-58030001D01*
D12*
%TO.P,D25,1,K*%
X233045000Y-62030000D03*
D13*
%TO.P,D25,2,A*%
X233045000Y-58730000D03*
%TD*%
D10*
%TO.C,D44*%
%TO.CFtp,D_SOD-123*%
%TO.CVal,DIODE*%
%TO.CLbN,Diode_SMD*%
%TO.CMnt,SMD*%
%TO.CRot,-90*%
X71437500Y-98480000D03*
D11*
X72587499Y-96130001D02*
X72587499Y-100829999D01*
X70287501Y-100829999D01*
X70287501Y-96130001D01*
X72587499Y-96130001D01*
D12*
%TO.P,D44,1,K*%
X71437500Y-100130000D03*
D13*
%TO.P,D44,2,A*%
X71437500Y-96830000D03*
%TD*%
D10*
%TO.C,D14*%
%TO.CFtp,D_SOD-123*%
%TO.CVal,DIODE*%
%TO.CLbN,Diode_SMD*%
%TO.CMnt,SMD*%
%TO.CRot,90*%
X275750000Y-44630000D03*
D11*
X276899999Y-42280001D02*
X276899999Y-46979999D01*
X274600001Y-46979999D01*
X274600001Y-42280001D01*
X276899999Y-42280001D01*
D12*
%TO.P,D14,1,K*%
X275750000Y-42980000D03*
D13*
%TO.P,D14,2,A*%
X275750000Y-46280000D03*
%TD*%
D10*
%TO.C,D57*%
%TO.CFtp,D_SOD-123*%
%TO.CVal,DIODE*%
%TO.CLbN,Diode_SMD*%
%TO.CMnt,SMD*%
%TO.CRot,90*%
X52862500Y-107290000D03*
D11*
X54012499Y-104940001D02*
X54012499Y-109639999D01*
X51712501Y-109639999D01*
X51712501Y-104940001D01*
X54012499Y-104940001D01*
D12*
%TO.P,D57,1,K*%
X52862500Y-105640000D03*
D13*
%TO.P,D57,2,A*%
X52862500Y-108940000D03*
%TD*%
D10*
%TO.C,D16*%
%TO.CFtp,D_SOD-123*%
%TO.CVal,DIODE*%
%TO.CLbN,Diode_SMD*%
%TO.CMnt,SMD*%
%TO.CRot,-90*%
X61595000Y-60380000D03*
D11*
X62744999Y-58030001D02*
X62744999Y-62729999D01*
X60445001Y-62729999D01*
X60445001Y-58030001D01*
X62744999Y-58030001D01*
D12*
%TO.P,D16,1,K*%
X61595000Y-62030000D03*
D13*
%TO.P,D16,2,A*%
X61595000Y-58730000D03*
%TD*%
D10*
%TO.C,C1*%
%TO.CFtp,C_0402_1005Metric*%
%TO.CVal,10u*%
%TO.CLbN,Capacitor_SMD*%
%TO.CMnt,SMD*%
%TO.CRot,90*%
X122700000Y-110030000D03*
D11*
X123159999Y-109120001D02*
X123159999Y-110939999D01*
X122240001Y-110939999D01*
X122240001Y-109120001D01*
X123159999Y-109120001D01*
D12*
%TO.P,C1,1*%
X122700000Y-109550000D03*
D13*
%TO.P,C1,2*%
X122700000Y-110510000D03*
%TD*%
D10*
%TO.C,D13*%
%TO.CFtp,D_SOD-123*%
%TO.CVal,DIODE*%
%TO.CLbN,Diode_SMD*%
%TO.CMnt,SMD*%
%TO.CRot,-90*%
X261620000Y-41330000D03*
D11*
X262769999Y-38980001D02*
X262769999Y-43679999D01*
X260470001Y-43679999D01*
X260470001Y-38980001D01*
X262769999Y-38980001D01*
D12*
%TO.P,D13,1,K*%
X261620000Y-42980000D03*
D13*
%TO.P,D13,2,A*%
X261620000Y-39680000D03*
%TD*%
D10*
%TO.C,D43*%
%TO.CFtp,D_SOD-123*%
%TO.CVal,DIODE*%
%TO.CLbN,Diode_SMD*%
%TO.CMnt,SMD*%
%TO.CRot,-90*%
X66992500Y-98480000D03*
D11*
X68142499Y-96130001D02*
X68142499Y-100829999D01*
X65842501Y-100829999D01*
X65842501Y-96130001D01*
X68142499Y-96130001D01*
D12*
%TO.P,D43,1,K*%
X66992500Y-100130000D03*
D13*
%TO.P,D43,2,A*%
X66992500Y-96830000D03*
%TD*%
D10*
%TO.C,U4*%
%TO.CFtp,SOT-23-3*%
%TO.CVal,XC6206PxxxMR*%
%TO.CLbN,Package_TO_SOT_SMD*%
%TO.CMnt,SMD*%
%TO.CRot,0*%
X125300000Y-109550000D03*
D11*
X127349999Y-107850001D02*
X127349999Y-111249999D01*
X123250001Y-111249999D01*
X123250001Y-107850001D01*
X127349999Y-107850001D01*
D12*
%TO.P,U4,1,GND*%
X126437500Y-108600000D03*
D13*
%TO.P,U4,2,VO*%
X126437500Y-110500000D03*
%TO.P,U4,3,VI*%
X124162500Y-109550000D03*
%TD*%
D10*
%TO.C,R3*%
%TO.CFtp,R_0402_1005Metric*%
%TO.CVal,27.4*%
%TO.CLbN,Resistor_SMD*%
%TO.CMnt,SMD*%
%TO.CRot,180*%
X129650000Y-116550000D03*
D11*
X130579999Y-116080001D02*
X130579999Y-117019999D01*
X128720001Y-117019999D01*
X128720001Y-116080001D01*
X130579999Y-116080001D01*
D12*
%TO.P,R3,1*%
X129140000Y-116550000D03*
D13*
%TO.P,R3,2*%
X130160000Y-116550000D03*
%TD*%
D10*
%TO.C,D15*%
%TO.CFtp,D_SOD-123*%
%TO.CVal,DIODE*%
%TO.CLbN,Diode_SMD*%
%TO.CMnt,SMD*%
%TO.CRot,-90*%
X37782500Y-60380000D03*
D11*
X38932499Y-58030001D02*
X38932499Y-62729999D01*
X36632501Y-62729999D01*
X36632501Y-58030001D01*
X38932499Y-58030001D01*
D12*
%TO.P,D15,1,K*%
X37782500Y-62030000D03*
D13*
%TO.P,D15,2,A*%
X37782500Y-58730000D03*
%TD*%
D10*
%TO.C,D6*%
%TO.CFtp,D_SOD-123*%
%TO.CVal,DIODE*%
%TO.CLbN,Diode_SMD*%
%TO.CMnt,SMD*%
%TO.CRot,-90*%
X128270000Y-41330000D03*
D11*
X129419999Y-38980001D02*
X129419999Y-43679999D01*
X127120001Y-43679999D01*
X127120001Y-38980001D01*
X129419999Y-38980001D01*
D12*
%TO.P,D6,1,K*%
X128270000Y-42980000D03*
D13*
%TO.P,D6,2,A*%
X128270000Y-39680000D03*
%TD*%
D10*
%TO.C,C11*%
%TO.CFtp,C_0402_1005Metric*%
%TO.CVal,100n*%
%TO.CLbN,Capacitor_SMD*%
%TO.CMnt,SMD*%
%TO.CRot,0*%
X132820000Y-120250000D03*
D11*
X133729999Y-119790001D02*
X133729999Y-120709999D01*
X131910001Y-120709999D01*
X131910001Y-119790001D01*
X133729999Y-119790001D01*
D12*
%TO.P,C11,1*%
X133300000Y-120250000D03*
D13*
%TO.P,C11,2*%
X132340000Y-120250000D03*
%TD*%
D10*
%TO.C,C16*%
%TO.CFtp,C_0402_1005Metric*%
%TO.CVal,100n*%
%TO.CLbN,Capacitor_SMD*%
%TO.CMnt,SMD*%
%TO.CRot,0*%
X126200000Y-115540000D03*
D11*
X127109999Y-115080001D02*
X127109999Y-115999999D01*
X125290001Y-115999999D01*
X125290001Y-115080001D01*
X127109999Y-115080001D01*
D12*
%TO.P,C16,1*%
X126680000Y-115540000D03*
D13*
%TO.P,C16,2*%
X125720000Y-115540000D03*
%TD*%
D10*
%TO.C,D59*%
%TO.CFtp,D_SOD-123*%
%TO.CVal,DIODE*%
%TO.CLbN,Diode_SMD*%
%TO.CMnt,SMD*%
%TO.CRot,90*%
X100487500Y-107290000D03*
D11*
X101637499Y-104940001D02*
X101637499Y-109639999D01*
X99337501Y-109639999D01*
X99337501Y-104940001D01*
X101637499Y-104940001D01*
D12*
%TO.P,D59,1,K*%
X100487500Y-105640000D03*
D13*
%TO.P,D59,2,A*%
X100487500Y-108940000D03*
%TD*%
D10*
%TO.C,D26*%
%TO.CFtp,D_SOD-123*%
%TO.CVal,DIODE*%
%TO.CLbN,Diode_SMD*%
%TO.CMnt,SMD*%
%TO.CRot,-90*%
X252095000Y-60380000D03*
D11*
X253244999Y-58030001D02*
X253244999Y-62729999D01*
X250945001Y-62729999D01*
X250945001Y-58030001D01*
X253244999Y-58030001D01*
D12*
%TO.P,D26,1,K*%
X252095000Y-62030000D03*
D13*
%TO.P,D26,2,A*%
X252095000Y-58730000D03*
%TD*%
D10*
%TO.C,D18*%
%TO.CFtp,D_SOD-123*%
%TO.CVal,DIODE*%
%TO.CLbN,Diode_SMD*%
%TO.CMnt,SMD*%
%TO.CRot,-90*%
X99695000Y-60380000D03*
D11*
X100844999Y-58030001D02*
X100844999Y-62729999D01*
X98545001Y-62729999D01*
X98545001Y-58030001D01*
X100844999Y-58030001D01*
D12*
%TO.P,D18,1,K*%
X99695000Y-62030000D03*
D13*
%TO.P,D18,2,A*%
X99695000Y-58730000D03*
%TD*%
D10*
%TO.C,D62*%
%TO.CFtp,D_SOD-123*%
%TO.CVal,DIODE*%
%TO.CLbN,Diode_SMD*%
%TO.CMnt,SMD*%
%TO.CRot,90*%
X242412500Y-107290000D03*
D11*
X243562499Y-104940001D02*
X243562499Y-109639999D01*
X241262501Y-109639999D01*
X241262501Y-104940001D01*
X243562499Y-104940001D01*
D12*
%TO.P,D62,1,K*%
X242412500Y-105640000D03*
D13*
%TO.P,D62,2,A*%
X242412500Y-108940000D03*
%TD*%
D10*
%TO.C,C13*%
%TO.CFtp,C_0402_1005Metric*%
%TO.CVal,100n*%
%TO.CLbN,Capacitor_SMD*%
%TO.CMnt,SMD*%
%TO.CRot,90*%
X141600000Y-116810000D03*
D11*
X142059999Y-115900001D02*
X142059999Y-117719999D01*
X141140001Y-117719999D01*
X141140001Y-115900001D01*
X142059999Y-115900001D01*
D12*
%TO.P,C13,1*%
X141600000Y-116330000D03*
D13*
%TO.P,C13,2*%
X141600000Y-117290000D03*
%TD*%
D10*
%TO.C,D23*%
%TO.CFtp,D_SOD-123*%
%TO.CVal,DIODE*%
%TO.CLbN,Diode_SMD*%
%TO.CMnt,SMD*%
%TO.CRot,-90*%
X194945000Y-60380000D03*
D11*
X196094999Y-58030001D02*
X196094999Y-62729999D01*
X193795001Y-62729999D01*
X193795001Y-58030001D01*
X196094999Y-58030001D01*
D12*
%TO.P,D23,1,K*%
X194945000Y-62030000D03*
D13*
%TO.P,D23,2,A*%
X194945000Y-58730000D03*
%TD*%
D10*
%TO.C,D36*%
%TO.CFtp,D_SOD-123*%
%TO.CVal,DIODE*%
%TO.CLbN,Diode_SMD*%
%TO.CMnt,SMD*%
%TO.CRot,-90*%
X180657500Y-79430000D03*
D11*
X181807499Y-77080001D02*
X181807499Y-81779999D01*
X179507501Y-81779999D01*
X179507501Y-77080001D01*
X181807499Y-77080001D01*
D12*
%TO.P,D36,1,K*%
X180657500Y-81080000D03*
D13*
%TO.P,D36,2,A*%
X180657500Y-77780000D03*
%TD*%
D10*
%TO.C,D58*%
%TO.CFtp,D_SOD-123*%
%TO.CVal,DIODE*%
%TO.CLbN,Diode_SMD*%
%TO.CMnt,SMD*%
%TO.CRot,90*%
X76675000Y-107290000D03*
D11*
X77824999Y-104940001D02*
X77824999Y-109639999D01*
X75525001Y-109639999D01*
X75525001Y-104940001D01*
X77824999Y-104940001D01*
D12*
%TO.P,D58,1,K*%
X76675000Y-105640000D03*
D13*
%TO.P,D58,2,A*%
X76675000Y-108940000D03*
%TD*%
D10*
%TO.C,D37*%
%TO.CFtp,D_SOD-123*%
%TO.CVal,DIODE*%
%TO.CLbN,Diode_SMD*%
%TO.CMnt,SMD*%
%TO.CRot,-90*%
X199707500Y-79430000D03*
D11*
X200857499Y-77080001D02*
X200857499Y-81779999D01*
X198557501Y-81779999D01*
X198557501Y-77080001D01*
X200857499Y-77080001D01*
D12*
%TO.P,D37,1,K*%
X199707500Y-81080000D03*
D13*
%TO.P,D37,2,A*%
X199707500Y-77780000D03*
%TD*%
D10*
%TO.C,D12*%
%TO.CFtp,D_SOD-123*%
%TO.CVal,DIODE*%
%TO.CLbN,Diode_SMD*%
%TO.CMnt,SMD*%
%TO.CRot,-90*%
X242570000Y-41330000D03*
D11*
X243719999Y-38980001D02*
X243719999Y-43679999D01*
X241420001Y-43679999D01*
X241420001Y-38980001D01*
X243719999Y-38980001D01*
D12*
%TO.P,D12,1,K*%
X242570000Y-42980000D03*
D13*
%TO.P,D12,2,A*%
X242570000Y-39680000D03*
%TD*%
D10*
%TO.C,R7*%
%TO.CFtp,R_0402_1005Metric*%
%TO.CVal,5K1*%
%TO.CLbN,Resistor_SMD*%
%TO.CMnt,SMD*%
%TO.CRot,180*%
X49410000Y-38250000D03*
D11*
X50339999Y-37780001D02*
X50339999Y-38719999D01*
X48480001Y-38719999D01*
X48480001Y-37780001D01*
X50339999Y-37780001D01*
D12*
%TO.P,R7,1*%
X48900000Y-38250000D03*
D13*
%TO.P,R7,2*%
X49920000Y-38250000D03*
%TD*%
D10*
%TO.C,D35*%
%TO.CFtp,D_SOD-123*%
%TO.CVal,DIODE*%
%TO.CLbN,Diode_SMD*%
%TO.CMnt,SMD*%
%TO.CRot,-90*%
X161607500Y-79430000D03*
D11*
X162757499Y-77080001D02*
X162757499Y-81779999D01*
X160457501Y-81779999D01*
X160457501Y-77080001D01*
X162757499Y-77080001D01*
D12*
%TO.P,D35,1,K*%
X161607500Y-81080000D03*
D13*
%TO.P,D35,2,A*%
X161607500Y-77780000D03*
%TD*%
D10*
%TO.C,D30*%
%TO.CFtp,D_SOD-123*%
%TO.CVal,DIODE*%
%TO.CLbN,Diode_SMD*%
%TO.CMnt,SMD*%
%TO.CRot,-90*%
X66357500Y-79430000D03*
D11*
X67507499Y-77080001D02*
X67507499Y-81779999D01*
X65207501Y-81779999D01*
X65207501Y-77080001D01*
X67507499Y-77080001D01*
D12*
%TO.P,D30,1,K*%
X66357500Y-81080000D03*
D13*
%TO.P,D30,2,A*%
X66357500Y-77780000D03*
%TD*%
D10*
%TO.C,C6*%
%TO.CFtp,C_0402_1005Metric*%
%TO.CVal,100n*%
%TO.CLbN,Capacitor_SMD*%
%TO.CMnt,SMD*%
%TO.CRot,90*%
X140600000Y-116810000D03*
D11*
X141059999Y-115900001D02*
X141059999Y-117719999D01*
X140140001Y-117719999D01*
X140140001Y-115900001D01*
X141059999Y-115900001D01*
D12*
%TO.P,C6,1*%
X140600000Y-116330000D03*
D13*
%TO.P,C6,2*%
X140600000Y-117290000D03*
%TD*%
D10*
%TO.C,D22*%
%TO.CFtp,D_SOD-123*%
%TO.CVal,DIODE*%
%TO.CLbN,Diode_SMD*%
%TO.CMnt,SMD*%
%TO.CRot,-90*%
X175895000Y-60380000D03*
D11*
X177044999Y-58030001D02*
X177044999Y-62729999D01*
X174745001Y-62729999D01*
X174745001Y-58030001D01*
X177044999Y-58030001D01*
D12*
%TO.P,D22,1,K*%
X175895000Y-62030000D03*
D13*
%TO.P,D22,2,A*%
X175895000Y-58730000D03*
%TD*%
D10*
%TO.C,D61*%
%TO.CFtp,D_SOD-123*%
%TO.CVal,DIODE*%
%TO.CLbN,Diode_SMD*%
%TO.CMnt,SMD*%
%TO.CRot,-90*%
X225901250Y-117530000D03*
D11*
X227051249Y-115180001D02*
X227051249Y-119879999D01*
X224751251Y-119879999D01*
X224751251Y-115180001D01*
X227051249Y-115180001D01*
D12*
%TO.P,D61,1,K*%
X225901250Y-119180000D03*
D13*
%TO.P,D61,2,A*%
X225901250Y-115880000D03*
%TD*%
D10*
%TO.C,C14*%
%TO.CFtp,C_0402_1005Metric*%
%TO.CVal,100n*%
%TO.CLbN,Capacitor_SMD*%
%TO.CMnt,SMD*%
%TO.CRot,-90*%
X136900000Y-109400000D03*
D11*
X137359999Y-108490001D02*
X137359999Y-110309999D01*
X136440001Y-110309999D01*
X136440001Y-108490001D01*
X137359999Y-108490001D01*
D12*
%TO.P,C14,1*%
X136900000Y-109880000D03*
D13*
%TO.P,C14,2*%
X136900000Y-108920000D03*
%TD*%
D10*
%TO.C,D11*%
%TO.CFtp,D_SOD-123*%
%TO.CVal,DIODE*%
%TO.CLbN,Diode_SMD*%
%TO.CMnt,SMD*%
%TO.CRot,-90*%
X223520000Y-41330000D03*
D11*
X224669999Y-38980001D02*
X224669999Y-43679999D01*
X222370001Y-43679999D01*
X222370001Y-38980001D01*
X224669999Y-38980001D01*
D12*
%TO.P,D11,1,K*%
X223520000Y-42980000D03*
D13*
%TO.P,D11,2,A*%
X223520000Y-39680000D03*
%TD*%
D10*
%TO.C,C15*%
%TO.CFtp,C_0402_1005Metric*%
%TO.CVal,100n*%
%TO.CLbN,Capacitor_SMD*%
%TO.CMnt,SMD*%
%TO.CRot,0*%
X131475000Y-110850000D03*
D11*
X132384999Y-110390001D02*
X132384999Y-111309999D01*
X130565001Y-111309999D01*
X130565001Y-110390001D01*
X132384999Y-110390001D01*
D12*
%TO.P,C15,1*%
X131955000Y-110850000D03*
D13*
%TO.P,C15,2*%
X130995000Y-110850000D03*
%TD*%
D10*
%TO.C,D19*%
%TO.CFtp,D_SOD-123*%
%TO.CVal,DIODE*%
%TO.CLbN,Diode_SMD*%
%TO.CMnt,SMD*%
%TO.CRot,-90*%
X118745000Y-60380000D03*
D11*
X119894999Y-58030001D02*
X119894999Y-62729999D01*
X117595001Y-62729999D01*
X117595001Y-58030001D01*
X119894999Y-58030001D01*
D12*
%TO.P,D19,1,K*%
X118745000Y-62030000D03*
D13*
%TO.P,D19,2,A*%
X118745000Y-58730000D03*
%TD*%
D10*
%TO.C,J1*%
%TO.CFtp,USB_C_Receptacle_GCT_USB4105-xx-A_16P_TopMnt_Horizontal*%
%TO.CVal,USB_C_Receptacle_USB2.0_16P*%
%TO.CLbN,Connector_USB*%
%TO.CMnt,SMD*%
%TO.CRot,180*%
X47150000Y-32575000D03*
D11*
X52469999Y-28395001D02*
X52469999Y-37334999D01*
X41830001Y-37334999D01*
X41830001Y-28395001D01*
X52469999Y-28395001D01*
D12*
%TO.P,J1,A1,GND*%
X43950000Y-36255000D03*
D13*
%TO.P,J1,*%
X44260000Y-35180000D03*
X50040000Y-35180000D03*
%TO.P,J1,A4,VBUS*%
X44750000Y-36255000D03*
%TO.P,J1,A5,CC1*%
X45900000Y-36255000D03*
%TO.P,J1,A6,D+*%
X46900000Y-36255000D03*
%TO.P,J1,A7,D-*%
X47400000Y-36255000D03*
%TO.P,J1,A8,SBU1*%
X48400000Y-36255000D03*
%TO.P,J1,A9,VBUS*%
X49550000Y-36255000D03*
%TO.P,J1,A12,GND*%
X50350000Y-36255000D03*
%TO.P,J1,B1,GND*%
X50350000Y-36255000D03*
%TO.P,J1,B4,VBUS*%
X49550000Y-36255000D03*
%TO.P,J1,B5,CC2*%
X48900000Y-36255000D03*
%TO.P,J1,B6,D+*%
X47900000Y-36255000D03*
%TO.P,J1,B7,D-*%
X46400000Y-36255000D03*
%TO.P,J1,B8,SBU2*%
X45400000Y-36255000D03*
%TO.P,J1,B9,VBUS*%
X44750000Y-36255000D03*
%TO.P,J1,B12,GND*%
X43950000Y-36255000D03*
%TO.P,J1,S1,SHIELD*%
X42830000Y-31500000D03*
X42830000Y-35680000D03*
X51470000Y-31500000D03*
X51470000Y-35680000D03*
%TD*%
D10*
%TO.C,D8*%
%TO.CFtp,D_SOD-123*%
%TO.CVal,DIODE*%
%TO.CLbN,Diode_SMD*%
%TO.CMnt,SMD*%
%TO.CRot,-90*%
X166370000Y-41330000D03*
D11*
X167519999Y-38980001D02*
X167519999Y-43679999D01*
X165220001Y-43679999D01*
X165220001Y-38980001D01*
X167519999Y-38980001D01*
D12*
%TO.P,D8,1,K*%
X166370000Y-42980000D03*
D13*
%TO.P,D8,2,A*%
X166370000Y-39680000D03*
%TD*%
D10*
%TO.C,C5*%
%TO.CFtp,C_0402_1005Metric*%
%TO.CVal,100n*%
%TO.CLbN,Capacitor_SMD*%
%TO.CMnt,SMD*%
%TO.CRot,0*%
X124675000Y-114045758D03*
D11*
X125584999Y-113585759D02*
X125584999Y-114505757D01*
X123765001Y-114505757D01*
X123765001Y-113585759D01*
X125584999Y-113585759D01*
D12*
%TO.P,C5,1*%
X125155000Y-114045758D03*
D13*
%TO.P,C5,2*%
X124195000Y-114045758D03*
%TD*%
D14*
X311950000Y-123500000D02*
X30950000Y-123500000D01*
X28950000Y-30900000D02*
G75*
G02*
X30950000Y-28900000I2000000J0D01*
G01*
X30950000Y-123500000D02*
G75*
G02*
X28950000Y-121500000I0J2000000D01*
G01*
X311950000Y-28900000D02*
G75*
G02*
X313950000Y-30900000I0J-2000000D01*
G01*
X30950000Y-28900000D02*
X311950000Y-28900000D01*
X313950000Y-30900000D02*
X313950000Y-121500000D01*
X28950000Y-121500000D02*
X28950000Y-30900000D01*
X313950000Y-121500000D02*
G75*
G02*
X311950000Y-123500000I-2000000J0D01*
G01*
M02*
