%TF.GenerationSoftware,KiCad,Pcbnew,8.0.3*%
%TF.CreationDate,2024-11-28T23:45:42+08:00*%
%TF.ProjectId,PH60_Rev2,50483630-5f52-4657-9632-2e6b69636164,rev?*%
%TF.SameCoordinates,Original*%
%TF.FileFunction,Paste,Bot*%
%TF.FilePolarity,Positive*%
%FSLAX46Y46*%
G04 Gerber Fmt 4.6, Leading zero omitted, Abs format (unit mm)*
G04 Created by KiCad (PCBNEW 8.0.3) date 2024-11-28 23:45:42*
%MOMM*%
%LPD*%
G01*
G04 APERTURE LIST*
G04 Aperture macros list*
%AMRoundRect*
0 Rectangle with rounded corners*
0 $1 Rounding radius*
0 $2 $3 $4 $5 $6 $7 $8 $9 X,Y pos of 4 corners*
0 Add a 4 corners polygon primitive as box body*
4,1,4,$2,$3,$4,$5,$6,$7,$8,$9,$2,$3,0*
0 Add four circle primitives for the rounded corners*
1,1,$1+$1,$2,$3*
1,1,$1+$1,$4,$5*
1,1,$1+$1,$6,$7*
1,1,$1+$1,$8,$9*
0 Add four rect primitives between the rounded corners*
20,1,$1+$1,$2,$3,$4,$5,0*
20,1,$1+$1,$4,$5,$6,$7,0*
20,1,$1+$1,$6,$7,$8,$9,0*
20,1,$1+$1,$8,$9,$2,$3,0*%
%AMFreePoly0*
4,1,19,0.563745,0.600348,0.608674,0.548497,0.619677,0.497915,0.619677,-0.497915,0.600348,-0.563745,0.548497,-0.608674,0.497915,-0.619677,-0.497915,-0.619677,-0.563745,-0.600348,-0.608674,-0.548497,-0.619677,-0.497915,-0.619677,0.397045,-0.600348,0.462875,-0.584014,0.483144,-0.483144,0.584014,-0.422927,0.616894,-0.397045,0.619677,0.497915,0.619677,0.563745,0.600348,0.563745,0.600348,
$1*%
%AMFreePoly1*
4,1,19,0.563745,0.600348,0.608674,0.548497,0.619677,0.497915,0.619677,-0.497915,0.600348,-0.563745,0.548497,-0.608674,0.497915,-0.619677,-0.397045,-0.619677,-0.462875,-0.600348,-0.483144,-0.584014,-0.584014,-0.483144,-0.616894,-0.422927,-0.619677,-0.397045,-0.619677,0.497915,-0.600348,0.563745,-0.548497,0.608674,-0.497915,0.619677,0.497915,0.619677,0.563745,0.600348,0.563745,0.600348,
$1*%
%AMFreePoly2*
4,1,19,0.462875,0.600348,0.483144,0.584014,0.584014,0.483144,0.616894,0.422927,0.619677,0.397045,0.619677,-0.497915,0.600348,-0.563745,0.548497,-0.608674,0.497915,-0.619677,-0.497915,-0.619677,-0.563745,-0.600348,-0.608674,-0.548497,-0.619677,-0.497915,-0.619677,0.497915,-0.600348,0.563745,-0.548497,0.608674,-0.497915,0.619677,0.397045,0.619677,0.462875,0.600348,0.462875,0.600348,
$1*%
%AMFreePoly3*
4,1,19,0.563745,0.600348,0.608674,0.548497,0.619677,0.497915,0.619677,-0.397045,0.600348,-0.462875,0.584014,-0.483144,0.483144,-0.584014,0.422927,-0.616894,0.397045,-0.619677,-0.497915,-0.619677,-0.563745,-0.600348,-0.608674,-0.548497,-0.619677,-0.497915,-0.619677,0.497915,-0.600348,0.563745,-0.548497,0.608674,-0.497915,0.619677,0.497915,0.619677,0.563745,0.600348,0.563745,0.600348,
$1*%
G04 Aperture macros list end*
%ADD10RoundRect,0.250000X-1.025000X-1.000000X1.025000X-1.000000X1.025000X1.000000X-1.025000X1.000000X0*%
%ADD11RoundRect,0.250000X1.000000X-1.025000X1.000000X1.025000X-1.000000X1.025000X-1.000000X-1.025000X0*%
%ADD12RoundRect,0.250000X-1.000000X1.025000X-1.000000X-1.025000X1.000000X-1.025000X1.000000X1.025000X0*%
%ADD13RoundRect,0.250000X1.025000X1.000000X-1.025000X1.000000X-1.025000X-1.000000X1.025000X-1.000000X0*%
%ADD14RoundRect,0.140000X-0.170000X0.140000X-0.170000X-0.140000X0.170000X-0.140000X0.170000X0.140000X0*%
%ADD15RoundRect,0.225000X0.375000X-0.225000X0.375000X0.225000X-0.375000X0.225000X-0.375000X-0.225000X0*%
%ADD16RoundRect,0.225000X-0.375000X0.225000X-0.375000X-0.225000X0.375000X-0.225000X0.375000X0.225000X0*%
%ADD17RoundRect,0.135000X-0.185000X0.135000X-0.185000X-0.135000X0.185000X-0.135000X0.185000X0.135000X0*%
%ADD18RoundRect,0.135000X-0.135000X-0.185000X0.135000X-0.185000X0.135000X0.185000X-0.135000X0.185000X0*%
%ADD19RoundRect,0.140000X-0.140000X-0.170000X0.140000X-0.170000X0.140000X0.170000X-0.140000X0.170000X0*%
%ADD20RoundRect,0.225000X0.225000X0.375000X-0.225000X0.375000X-0.225000X-0.375000X0.225000X-0.375000X0*%
%ADD21RoundRect,0.140000X0.140000X0.170000X-0.140000X0.170000X-0.140000X-0.170000X0.140000X-0.170000X0*%
%ADD22RoundRect,0.135000X0.135000X0.185000X-0.135000X0.185000X-0.135000X-0.185000X0.135000X-0.185000X0*%
%ADD23RoundRect,0.150000X0.650000X0.150000X-0.650000X0.150000X-0.650000X-0.150000X0.650000X-0.150000X0*%
%ADD24RoundRect,0.225000X-0.225000X-0.375000X0.225000X-0.375000X0.225000X0.375000X-0.225000X0.375000X0*%
%ADD25RoundRect,0.140000X0.170000X-0.140000X0.170000X0.140000X-0.170000X0.140000X-0.170000X-0.140000X0*%
%ADD26RoundRect,0.150000X0.512500X0.150000X-0.512500X0.150000X-0.512500X-0.150000X0.512500X-0.150000X0*%
%ADD27R,1.400000X1.200000*%
%ADD28RoundRect,0.150000X-0.150000X-0.425000X0.150000X-0.425000X0.150000X0.425000X-0.150000X0.425000X0*%
%ADD29RoundRect,0.075000X-0.075000X-0.500000X0.075000X-0.500000X0.075000X0.500000X-0.075000X0.500000X0*%
%ADD30O,1.000000X1.800000*%
%ADD31O,1.000000X2.100000*%
%ADD32FreePoly0,270.000000*%
%ADD33FreePoly1,270.000000*%
%ADD34FreePoly2,270.000000*%
%ADD35FreePoly3,270.000000*%
%ADD36RoundRect,0.050000X-0.050000X0.387500X-0.050000X-0.387500X0.050000X-0.387500X0.050000X0.387500X0*%
%ADD37RoundRect,0.050000X-0.387500X0.050000X-0.387500X-0.050000X0.387500X-0.050000X0.387500X0.050000X0*%
G04 APERTURE END LIST*
D10*
%TO.C,S54*%
X245327500Y-92710000D03*
X258254500Y-90170000D03*
%TD*%
%TO.C,S61*%
X223896250Y-111760000D03*
X236823250Y-109220000D03*
%TD*%
D11*
%TO.C,S62*%
X249872500Y-121385000D03*
X247332500Y-108458000D03*
%TD*%
D10*
%TO.C,S52*%
X207227500Y-92710000D03*
X220154500Y-90170000D03*
%TD*%
D12*
%TO.C,S56*%
X307340000Y-88165000D03*
X309880000Y-101092000D03*
%TD*%
%TO.C,S57*%
X45402500Y-107215000D03*
X47942500Y-120142000D03*
%TD*%
D10*
%TO.C,S16*%
X59590000Y-54610000D03*
X72517000Y-52070000D03*
%TD*%
%TO.C,S10*%
X202465000Y-35560000D03*
X215392000Y-33020000D03*
%TD*%
D12*
%TO.C,S56*%
X290671250Y-88165000D03*
X293211250Y-101092000D03*
%TD*%
D10*
%TO.C,S14*%
X288190000Y-35560000D03*
X301117000Y-33020000D03*
%TD*%
D12*
%TO.C,S64*%
X304958750Y-107215000D03*
X307498750Y-120142000D03*
%TD*%
D10*
%TO.C,S24*%
X211990000Y-54610000D03*
X224917000Y-52070000D03*
%TD*%
D12*
%TO.C,S62*%
X257333750Y-107215000D03*
X259873750Y-120142000D03*
%TD*%
D10*
%TO.C,S47*%
X111977500Y-92710000D03*
X124904500Y-90170000D03*
%TD*%
D11*
%TO.C,S29*%
X37941250Y-83285000D03*
X35401250Y-70358000D03*
%TD*%
D10*
%TO.C,S30*%
X64352500Y-73660000D03*
X77279500Y-71120000D03*
%TD*%
D11*
%TO.C,S64*%
X297497500Y-121385000D03*
X294957500Y-108458000D03*
%TD*%
D10*
%TO.C,S33*%
X121502500Y-73660000D03*
X134429500Y-71120000D03*
%TD*%
D11*
%TO.C,S63*%
X273685000Y-121385000D03*
X271145000Y-108458000D03*
%TD*%
D10*
%TO.C,S7*%
X145315000Y-35560000D03*
X158242000Y-33020000D03*
%TD*%
D13*
%TO.C,S60*%
X178535000Y-116840000D03*
X165608000Y-119380000D03*
%TD*%
D10*
%TO.C,S23*%
X192940000Y-54610000D03*
X205867000Y-52070000D03*
%TD*%
%TO.C,S26*%
X250090000Y-54610000D03*
X263017000Y-52070000D03*
%TD*%
%TO.C,S48*%
X131027500Y-92710000D03*
X143954500Y-90170000D03*
%TD*%
D12*
%TO.C,S58*%
X69215000Y-107215000D03*
X71755000Y-120142000D03*
%TD*%
D10*
%TO.C,S50*%
X169127500Y-92710000D03*
X182054500Y-90170000D03*
%TD*%
D12*
%TO.C,S63*%
X281146250Y-107215000D03*
X283686250Y-120142000D03*
%TD*%
%TO.C,S29*%
X47783750Y-69115000D03*
X50323750Y-82042000D03*
%TD*%
D10*
%TO.C,S36*%
X178652500Y-73660000D03*
X191579500Y-71120000D03*
%TD*%
D12*
%TO.C,S55*%
X281146250Y-88165000D03*
X283686250Y-101092000D03*
%TD*%
D10*
%TO.C,S53*%
X226277500Y-92710000D03*
X239204500Y-90170000D03*
%TD*%
D11*
%TO.C,S41*%
X299878750Y-73760000D03*
X297338750Y-60833000D03*
%TD*%
D10*
%TO.C,S4*%
X88165000Y-35560000D03*
X101092000Y-33020000D03*
%TD*%
%TO.C,S11*%
X221515000Y-35560000D03*
X234442000Y-33020000D03*
%TD*%
%TO.C,S3*%
X69115000Y-35560000D03*
X82042000Y-33020000D03*
%TD*%
%TO.C,S37*%
X197702500Y-73660000D03*
X210629500Y-71120000D03*
%TD*%
%TO.C,S27*%
X269140000Y-54610000D03*
X282067000Y-52070000D03*
%TD*%
%TO.C,S13*%
X259615000Y-35560000D03*
X272542000Y-33020000D03*
%TD*%
%TO.C,S49*%
X150077500Y-92710000D03*
X163004500Y-90170000D03*
%TD*%
%TO.C,S38*%
X216752500Y-73660000D03*
X229679500Y-71120000D03*
%TD*%
%TO.C,S5*%
X107215000Y-35560000D03*
X120142000Y-33020000D03*
%TD*%
D13*
%TO.C,S1*%
X45185000Y-40640000D03*
X32258000Y-43180000D03*
%TD*%
D10*
%TO.C,S39*%
X235802500Y-73660000D03*
X248729500Y-71120000D03*
%TD*%
%TO.C,S8*%
X164365000Y-35560000D03*
X177292000Y-33020000D03*
%TD*%
%TO.C,S9*%
X183415000Y-35560000D03*
X196342000Y-33020000D03*
%TD*%
D11*
%TO.C,S59*%
X85566250Y-121385000D03*
X83026250Y-108458000D03*
%TD*%
D10*
%TO.C,S32*%
X102452500Y-73660000D03*
X115379500Y-71120000D03*
%TD*%
%TO.C,S17*%
X78640000Y-54610000D03*
X91567000Y-52070000D03*
%TD*%
D13*
%TO.C,S2*%
X64235000Y-40640000D03*
X51308000Y-43180000D03*
%TD*%
D11*
%TO.C,S58*%
X61753750Y-121385000D03*
X59213750Y-108458000D03*
%TD*%
D10*
%TO.C,S15*%
X35777500Y-54610000D03*
X48704500Y-52070000D03*
%TD*%
D13*
%TO.C,S14*%
X292835000Y-40640000D03*
X279908000Y-43180000D03*
%TD*%
D10*
%TO.C,S51*%
X188177500Y-92710000D03*
X201104500Y-90170000D03*
%TD*%
%TO.C,S43*%
X33396250Y-92710000D03*
X46323250Y-90170000D03*
%TD*%
D11*
%TO.C,S41*%
X290353750Y-83285000D03*
X287813750Y-70358000D03*
%TD*%
D10*
%TO.C,S34*%
X140552500Y-73660000D03*
X153479500Y-71120000D03*
%TD*%
%TO.C,S40*%
X254852500Y-73660000D03*
X267779500Y-71120000D03*
%TD*%
%TO.C,S12*%
X240565000Y-35560000D03*
X253492000Y-33020000D03*
%TD*%
D11*
%TO.C,S57*%
X37941250Y-121385000D03*
X35401250Y-108458000D03*
%TD*%
%TO.C,S28*%
X278447500Y-83285000D03*
X275907500Y-70358000D03*
%TD*%
D10*
%TO.C,S18*%
X97690000Y-54610000D03*
X110617000Y-52070000D03*
%TD*%
%TO.C,S35*%
X159602500Y-73660000D03*
X172529500Y-71120000D03*
%TD*%
%TO.C,S21*%
X154840000Y-54610000D03*
X167767000Y-52070000D03*
%TD*%
D12*
%TO.C,S59*%
X93027500Y-107215000D03*
X95567500Y-120142000D03*
%TD*%
D10*
%TO.C,S22*%
X173890000Y-54610000D03*
X186817000Y-52070000D03*
%TD*%
%TO.C,S60*%
X152458750Y-111760000D03*
X165385750Y-109220000D03*
%TD*%
D13*
%TO.C,S42*%
X311885000Y-40640000D03*
X298958000Y-43180000D03*
%TD*%
D12*
%TO.C,S28*%
X302577500Y-50065000D03*
X305117500Y-62992000D03*
%TD*%
D10*
%TO.C,S19*%
X116740000Y-54610000D03*
X129667000Y-52070000D03*
%TD*%
%TO.C,S44*%
X54827500Y-92710000D03*
X67754500Y-90170000D03*
%TD*%
%TO.C,S20*%
X135790000Y-54610000D03*
X148717000Y-52070000D03*
%TD*%
D13*
%TO.C,S43*%
X57091250Y-97790000D03*
X44164250Y-100330000D03*
%TD*%
D10*
%TO.C,S6*%
X126265000Y-35560000D03*
X139192000Y-33020000D03*
%TD*%
%TO.C,S46*%
X92927500Y-92710000D03*
X105854500Y-90170000D03*
%TD*%
%TO.C,S31*%
X83402500Y-73660000D03*
X96329500Y-71120000D03*
%TD*%
%TO.C,S45*%
X73877500Y-92710000D03*
X86804500Y-90170000D03*
%TD*%
%TO.C,S25*%
X231040000Y-54610000D03*
X243967000Y-52070000D03*
%TD*%
D14*
%TO.C,C1*%
X105550000Y-111787500D03*
X105550000Y-112747500D03*
%TD*%
D15*
%TO.C,D40*%
X256857500Y-80880000D03*
X256857500Y-77580000D03*
%TD*%
D16*
%TO.C,D57*%
X52942500Y-115190000D03*
X52942500Y-118490000D03*
%TD*%
D17*
%TO.C,R6*%
X45900000Y-37845000D03*
X45900000Y-38865000D03*
%TD*%
D15*
%TO.C,D12*%
X242570000Y-42780000D03*
X242570000Y-39480000D03*
%TD*%
%TO.C,D37*%
X199707500Y-80880000D03*
X199707500Y-77580000D03*
%TD*%
%TO.C,D22*%
X175895000Y-61830000D03*
X175895000Y-58530000D03*
%TD*%
%TO.C,D25*%
X233045000Y-61830000D03*
X233045000Y-58530000D03*
%TD*%
%TO.C,D16*%
X61595000Y-61830000D03*
X61595000Y-58530000D03*
%TD*%
D16*
%TO.C,D64*%
X289957500Y-110110000D03*
X289957500Y-113410000D03*
%TD*%
D14*
%TO.C,C6*%
X142898529Y-115805000D03*
X142898529Y-116765000D03*
%TD*%
D18*
%TO.C,R3*%
X131013529Y-115855000D03*
X132033529Y-115855000D03*
%TD*%
D19*
%TO.C,C13*%
X135668529Y-119555000D03*
X136628529Y-119555000D03*
%TD*%
D15*
%TO.C,D24*%
X213995000Y-61830000D03*
X213995000Y-58530000D03*
%TD*%
%TO.C,D21*%
X156845000Y-61830000D03*
X156845000Y-58530000D03*
%TD*%
D20*
%TO.C,D44*%
X68642500Y-99930000D03*
X65342500Y-99930000D03*
%TD*%
D15*
%TO.C,D23*%
X194945000Y-61830000D03*
X194945000Y-58530000D03*
%TD*%
%TO.C,D36*%
X180657500Y-80880000D03*
X180657500Y-77580000D03*
%TD*%
%TO.C,D29*%
X54400000Y-80880000D03*
X54400000Y-77580000D03*
%TD*%
D18*
%TO.C,R4*%
X131013529Y-116855000D03*
X132033529Y-116855000D03*
%TD*%
D21*
%TO.C,C8*%
X132003529Y-117855000D03*
X131043529Y-117855000D03*
%TD*%
D19*
%TO.C,C9*%
X145051029Y-117455000D03*
X146011029Y-117455000D03*
%TD*%
D22*
%TO.C,R1*%
X131521029Y-107765000D03*
X130501029Y-107765000D03*
%TD*%
D15*
%TO.C,D50*%
X171132500Y-99930000D03*
X171132500Y-96630000D03*
%TD*%
D16*
%TO.C,D2*%
X62230000Y-33420000D03*
X62230000Y-36720000D03*
%TD*%
D15*
%TO.C,D38*%
X218757500Y-80880000D03*
X218757500Y-77580000D03*
%TD*%
D16*
%TO.C,D1*%
X33020000Y-33420000D03*
X33020000Y-36720000D03*
%TD*%
D23*
%TO.C,U2*%
X128148529Y-107765000D03*
X128148529Y-109035000D03*
X128148529Y-110305000D03*
X128148529Y-111575000D03*
X120948529Y-111575000D03*
X120948529Y-110305000D03*
X120948529Y-109035000D03*
X120948529Y-107765000D03*
%TD*%
D24*
%TO.C,D28*%
X278170000Y-61830000D03*
X281470000Y-61830000D03*
%TD*%
D15*
%TO.C,D26*%
X252095000Y-61830000D03*
X252095000Y-58530000D03*
%TD*%
D16*
%TO.C,D58*%
X54213750Y-110110000D03*
X54213750Y-113410000D03*
%TD*%
D21*
%TO.C,C7*%
X131491029Y-114055000D03*
X130531029Y-114055000D03*
%TD*%
D15*
%TO.C,D61*%
X225901250Y-118980000D03*
X225901250Y-115680000D03*
%TD*%
%TO.C,D49*%
X152082500Y-99930000D03*
X152082500Y-96630000D03*
%TD*%
%TO.C,D54*%
X247332500Y-99930000D03*
X247332500Y-96630000D03*
%TD*%
D16*
%TO.C,D62*%
X242332500Y-110110000D03*
X242332500Y-113410000D03*
%TD*%
D25*
%TO.C,C5*%
X139198529Y-109535000D03*
X139198529Y-108575000D03*
%TD*%
D19*
%TO.C,C2*%
X146918529Y-112205000D03*
X147878529Y-112205000D03*
%TD*%
D26*
%TO.C,U4*%
X109587500Y-110837500D03*
X109587500Y-112737500D03*
X107312500Y-111787500D03*
%TD*%
D15*
%TO.C,D17*%
X80645000Y-61830000D03*
X80645000Y-58530000D03*
%TD*%
D20*
%TO.C,D43*%
X53451250Y-90170000D03*
X50151250Y-90170000D03*
%TD*%
D27*
%TO.C,Y1*%
X148498529Y-115305000D03*
X146298529Y-115305000D03*
X146298529Y-113605000D03*
X148498529Y-113605000D03*
%TD*%
D16*
%TO.C,D56*%
X299800000Y-93600000D03*
X299800000Y-96900000D03*
%TD*%
D15*
%TO.C,D45*%
X75882500Y-99930000D03*
X75882500Y-96630000D03*
%TD*%
%TO.C,D41*%
X271447500Y-80880000D03*
X271447500Y-77580000D03*
%TD*%
%TO.C,D46*%
X94932500Y-99930000D03*
X94932500Y-96630000D03*
%TD*%
%TO.C,D10*%
X204470000Y-42780000D03*
X204470000Y-39480000D03*
%TD*%
%TO.C,D52*%
X209232500Y-99930000D03*
X209232500Y-96630000D03*
%TD*%
%TO.C,D13*%
X261620000Y-42780000D03*
X261620000Y-39480000D03*
%TD*%
%TO.C,D18*%
X99695000Y-61830000D03*
X99695000Y-58530000D03*
%TD*%
%TO.C,D60*%
X154463750Y-118980000D03*
X154463750Y-115680000D03*
%TD*%
%TO.C,D33*%
X123507500Y-80880000D03*
X123507500Y-77580000D03*
%TD*%
%TO.C,D20*%
X137795000Y-61830000D03*
X137795000Y-58530000D03*
%TD*%
D21*
%TO.C,C14*%
X118928529Y-107765000D03*
X117968529Y-107765000D03*
%TD*%
D24*
%TO.C,D42*%
X294830000Y-47180000D03*
X298130000Y-47180000D03*
%TD*%
D15*
%TO.C,D19*%
X118745000Y-61830000D03*
X118745000Y-58530000D03*
%TD*%
%TO.C,D32*%
X104457500Y-80880000D03*
X104457500Y-77580000D03*
%TD*%
%TO.C,D27*%
X271145000Y-61830000D03*
X271145000Y-58530000D03*
%TD*%
D14*
%TO.C,C11*%
X133148529Y-118855000D03*
X133148529Y-119815000D03*
%TD*%
D15*
%TO.C,D15*%
X37782500Y-61830000D03*
X37782500Y-58530000D03*
%TD*%
D24*
%TO.C,D55*%
X270426250Y-90170000D03*
X273726250Y-90170000D03*
%TD*%
D15*
%TO.C,D6*%
X128270000Y-42780000D03*
X128270000Y-39480000D03*
%TD*%
D17*
%TO.C,R7*%
X48900000Y-37845000D03*
X48900000Y-38865000D03*
%TD*%
D16*
%TO.C,D59*%
X78026250Y-110110000D03*
X78026250Y-113410000D03*
%TD*%
D15*
%TO.C,D35*%
X161607500Y-80880000D03*
X161607500Y-77580000D03*
%TD*%
%TO.C,D3*%
X71120000Y-42780000D03*
X71120000Y-39480000D03*
%TD*%
%TO.C,D9*%
X185420000Y-42780000D03*
X185420000Y-39480000D03*
%TD*%
D25*
%TO.C,C12*%
X134075000Y-109785000D03*
X134075000Y-108825000D03*
%TD*%
D15*
%TO.C,D39*%
X237807500Y-80880000D03*
X237807500Y-77580000D03*
%TD*%
D25*
%TO.C,C3*%
X150048529Y-114935000D03*
X150048529Y-113975000D03*
%TD*%
%TO.C,C4*%
X113310000Y-113980000D03*
X113310000Y-113020000D03*
%TD*%
D21*
%TO.C,C16*%
X138628529Y-119555000D03*
X137668529Y-119555000D03*
%TD*%
D15*
%TO.C,D48*%
X133032500Y-99930000D03*
X133032500Y-96630000D03*
%TD*%
%TO.C,D31*%
X85407500Y-80880000D03*
X85407500Y-77580000D03*
%TD*%
%TO.C,D5*%
X109220000Y-42780000D03*
X109220000Y-39480000D03*
%TD*%
%TO.C,D8*%
X166370000Y-42780000D03*
X166370000Y-39480000D03*
%TD*%
D28*
%TO.C,J1*%
X43950000Y-36255000D03*
X44750000Y-36255000D03*
D29*
X45900000Y-36255000D03*
X46900000Y-36255000D03*
X47400000Y-36255000D03*
X48400000Y-36255000D03*
D28*
X49550000Y-36255000D03*
X50350000Y-36255000D03*
X50350000Y-36255000D03*
X49550000Y-36255000D03*
D29*
X48900000Y-36255000D03*
X47900000Y-36255000D03*
X46400000Y-36255000D03*
X45400000Y-36255000D03*
D28*
X44750000Y-36255000D03*
X43950000Y-36255000D03*
D30*
X42830000Y-31500000D03*
D31*
X42830000Y-35680000D03*
D30*
X51470000Y-31500000D03*
D31*
X51470000Y-35680000D03*
%TD*%
D21*
%TO.C,C15*%
X128491029Y-115055000D03*
X127531029Y-115055000D03*
%TD*%
D15*
%TO.C,D11*%
X223520000Y-42780000D03*
X223520000Y-39480000D03*
%TD*%
%TO.C,D51*%
X190182500Y-99930000D03*
X190182500Y-96630000D03*
%TD*%
%TO.C,D53*%
X228282500Y-99930000D03*
X228282500Y-96630000D03*
%TD*%
%TO.C,D30*%
X66357500Y-80880000D03*
X66357500Y-77580000D03*
%TD*%
D32*
%TO.C,U3*%
X138636029Y-114180000D03*
D33*
X137286029Y-114180000D03*
D34*
X138636029Y-115530000D03*
D35*
X137286029Y-115530000D03*
D36*
X135361029Y-111417500D03*
X135761029Y-111417500D03*
X136161029Y-111417500D03*
X136561029Y-111417500D03*
X136961029Y-111417500D03*
X137361029Y-111417500D03*
X137761029Y-111417500D03*
X138161029Y-111417500D03*
X138561029Y-111417500D03*
X138961029Y-111417500D03*
X139361029Y-111417500D03*
X139761029Y-111417500D03*
X140161029Y-111417500D03*
X140561029Y-111417500D03*
D37*
X141398529Y-112255000D03*
X141398529Y-112655000D03*
X141398529Y-113055000D03*
X141398529Y-113455000D03*
X141398529Y-113855000D03*
X141398529Y-114255000D03*
X141398529Y-114655000D03*
X141398529Y-115055000D03*
X141398529Y-115455000D03*
X141398529Y-115855000D03*
X141398529Y-116255000D03*
X141398529Y-116655000D03*
X141398529Y-117055000D03*
X141398529Y-117455000D03*
D36*
X140561029Y-118292500D03*
X140161029Y-118292500D03*
X139761029Y-118292500D03*
X139361029Y-118292500D03*
X138961029Y-118292500D03*
X138561029Y-118292500D03*
X138161029Y-118292500D03*
X137761029Y-118292500D03*
X137361029Y-118292500D03*
X136961029Y-118292500D03*
X136561029Y-118292500D03*
X136161029Y-118292500D03*
X135761029Y-118292500D03*
X135361029Y-118292500D03*
D37*
X134523529Y-117455000D03*
X134523529Y-117055000D03*
X134523529Y-116655000D03*
X134523529Y-116255000D03*
X134523529Y-115855000D03*
X134523529Y-115455000D03*
X134523529Y-115055000D03*
X134523529Y-114655000D03*
X134523529Y-114255000D03*
X134523529Y-113855000D03*
X134523529Y-113455000D03*
X134523529Y-113055000D03*
X134523529Y-112655000D03*
X134523529Y-112255000D03*
%TD*%
D15*
%TO.C,D47*%
X113982500Y-99930000D03*
X113982500Y-96630000D03*
%TD*%
%TO.C,D7*%
X147320000Y-42780000D03*
X147320000Y-39480000D03*
%TD*%
D22*
%TO.C,R5*%
X147908529Y-116705000D03*
X146888529Y-116705000D03*
%TD*%
D24*
%TO.C,D14*%
X273780000Y-43180000D03*
X277080000Y-43180000D03*
%TD*%
D15*
%TO.C,D34*%
X142557500Y-80880000D03*
X142557500Y-77580000D03*
%TD*%
D16*
%TO.C,D63*%
X266145000Y-110110000D03*
X266145000Y-113410000D03*
%TD*%
D15*
%TO.C,D4*%
X90170000Y-42780000D03*
X90170000Y-39480000D03*
%TD*%
D21*
%TO.C,C10*%
X132003529Y-118855000D03*
X131043529Y-118855000D03*
%TD*%
M02*
