%TF.GenerationSoftware,KiCad,Pcbnew,8.0.6*%
%TF.CreationDate,2024-12-06T10:28:02+08:00*%
%TF.ProjectId,PH60_Rev2,50483630-5f52-4657-9632-2e6b69636164,rev?*%
%TF.SameCoordinates,Original*%
%TF.FileFunction,Legend,Bot*%
%TF.FilePolarity,Positive*%
%FSLAX46Y46*%
G04 Gerber Fmt 4.6, Leading zero omitted, Abs format (unit mm)*
G04 Created by KiCad (PCBNEW 8.0.6) date 2024-12-06 10:28:02*
%MOMM*%
%LPD*%
G01*
G04 APERTURE LIST*
%ADD10C,0.150000*%
%ADD11C,0.120000*%
G04 APERTURE END LIST*
D10*
X31474819Y-34131905D02*
X30474819Y-34131905D01*
X30474819Y-34131905D02*
X30474819Y-34370000D01*
X30474819Y-34370000D02*
X30522438Y-34512857D01*
X30522438Y-34512857D02*
X30617676Y-34608095D01*
X30617676Y-34608095D02*
X30712914Y-34655714D01*
X30712914Y-34655714D02*
X30903390Y-34703333D01*
X30903390Y-34703333D02*
X31046247Y-34703333D01*
X31046247Y-34703333D02*
X31236723Y-34655714D01*
X31236723Y-34655714D02*
X31331961Y-34608095D01*
X31331961Y-34608095D02*
X31427200Y-34512857D01*
X31427200Y-34512857D02*
X31474819Y-34370000D01*
X31474819Y-34370000D02*
X31474819Y-34131905D01*
X31474819Y-35655714D02*
X31474819Y-35084286D01*
X31474819Y-35370000D02*
X30474819Y-35370000D01*
X30474819Y-35370000D02*
X30617676Y-35274762D01*
X30617676Y-35274762D02*
X30712914Y-35179524D01*
X30712914Y-35179524D02*
X30760533Y-35084286D01*
X97387319Y-97265714D02*
X96387319Y-97265714D01*
X96387319Y-97265714D02*
X96387319Y-97503809D01*
X96387319Y-97503809D02*
X96434938Y-97646666D01*
X96434938Y-97646666D02*
X96530176Y-97741904D01*
X96530176Y-97741904D02*
X96625414Y-97789523D01*
X96625414Y-97789523D02*
X96815890Y-97837142D01*
X96815890Y-97837142D02*
X96958747Y-97837142D01*
X96958747Y-97837142D02*
X97149223Y-97789523D01*
X97149223Y-97789523D02*
X97244461Y-97741904D01*
X97244461Y-97741904D02*
X97339700Y-97646666D01*
X97339700Y-97646666D02*
X97387319Y-97503809D01*
X97387319Y-97503809D02*
X97387319Y-97265714D01*
X96720652Y-98694285D02*
X97387319Y-98694285D01*
X96339700Y-98456190D02*
X97053985Y-98218095D01*
X97053985Y-98218095D02*
X97053985Y-98837142D01*
X96387319Y-99646666D02*
X96387319Y-99456190D01*
X96387319Y-99456190D02*
X96434938Y-99360952D01*
X96434938Y-99360952D02*
X96482557Y-99313333D01*
X96482557Y-99313333D02*
X96625414Y-99218095D01*
X96625414Y-99218095D02*
X96815890Y-99170476D01*
X96815890Y-99170476D02*
X97196842Y-99170476D01*
X97196842Y-99170476D02*
X97292080Y-99218095D01*
X97292080Y-99218095D02*
X97339700Y-99265714D01*
X97339700Y-99265714D02*
X97387319Y-99360952D01*
X97387319Y-99360952D02*
X97387319Y-99551428D01*
X97387319Y-99551428D02*
X97339700Y-99646666D01*
X97339700Y-99646666D02*
X97292080Y-99694285D01*
X97292080Y-99694285D02*
X97196842Y-99741904D01*
X97196842Y-99741904D02*
X96958747Y-99741904D01*
X96958747Y-99741904D02*
X96863509Y-99694285D01*
X96863509Y-99694285D02*
X96815890Y-99646666D01*
X96815890Y-99646666D02*
X96768271Y-99551428D01*
X96768271Y-99551428D02*
X96768271Y-99360952D01*
X96768271Y-99360952D02*
X96815890Y-99265714D01*
X96815890Y-99265714D02*
X96863509Y-99218095D01*
X96863509Y-99218095D02*
X96958747Y-99170476D01*
X106912319Y-78215714D02*
X105912319Y-78215714D01*
X105912319Y-78215714D02*
X105912319Y-78453809D01*
X105912319Y-78453809D02*
X105959938Y-78596666D01*
X105959938Y-78596666D02*
X106055176Y-78691904D01*
X106055176Y-78691904D02*
X106150414Y-78739523D01*
X106150414Y-78739523D02*
X106340890Y-78787142D01*
X106340890Y-78787142D02*
X106483747Y-78787142D01*
X106483747Y-78787142D02*
X106674223Y-78739523D01*
X106674223Y-78739523D02*
X106769461Y-78691904D01*
X106769461Y-78691904D02*
X106864700Y-78596666D01*
X106864700Y-78596666D02*
X106912319Y-78453809D01*
X106912319Y-78453809D02*
X106912319Y-78215714D01*
X105912319Y-79120476D02*
X105912319Y-79739523D01*
X105912319Y-79739523D02*
X106293271Y-79406190D01*
X106293271Y-79406190D02*
X106293271Y-79549047D01*
X106293271Y-79549047D02*
X106340890Y-79644285D01*
X106340890Y-79644285D02*
X106388509Y-79691904D01*
X106388509Y-79691904D02*
X106483747Y-79739523D01*
X106483747Y-79739523D02*
X106721842Y-79739523D01*
X106721842Y-79739523D02*
X106817080Y-79691904D01*
X106817080Y-79691904D02*
X106864700Y-79644285D01*
X106864700Y-79644285D02*
X106912319Y-79549047D01*
X106912319Y-79549047D02*
X106912319Y-79263333D01*
X106912319Y-79263333D02*
X106864700Y-79168095D01*
X106864700Y-79168095D02*
X106817080Y-79120476D01*
X106007557Y-80120476D02*
X105959938Y-80168095D01*
X105959938Y-80168095D02*
X105912319Y-80263333D01*
X105912319Y-80263333D02*
X105912319Y-80501428D01*
X105912319Y-80501428D02*
X105959938Y-80596666D01*
X105959938Y-80596666D02*
X106007557Y-80644285D01*
X106007557Y-80644285D02*
X106102795Y-80691904D01*
X106102795Y-80691904D02*
X106198033Y-80691904D01*
X106198033Y-80691904D02*
X106340890Y-80644285D01*
X106340890Y-80644285D02*
X106912319Y-80072857D01*
X106912319Y-80072857D02*
X106912319Y-80691904D01*
X145012319Y-78215714D02*
X144012319Y-78215714D01*
X144012319Y-78215714D02*
X144012319Y-78453809D01*
X144012319Y-78453809D02*
X144059938Y-78596666D01*
X144059938Y-78596666D02*
X144155176Y-78691904D01*
X144155176Y-78691904D02*
X144250414Y-78739523D01*
X144250414Y-78739523D02*
X144440890Y-78787142D01*
X144440890Y-78787142D02*
X144583747Y-78787142D01*
X144583747Y-78787142D02*
X144774223Y-78739523D01*
X144774223Y-78739523D02*
X144869461Y-78691904D01*
X144869461Y-78691904D02*
X144964700Y-78596666D01*
X144964700Y-78596666D02*
X145012319Y-78453809D01*
X145012319Y-78453809D02*
X145012319Y-78215714D01*
X144012319Y-79120476D02*
X144012319Y-79739523D01*
X144012319Y-79739523D02*
X144393271Y-79406190D01*
X144393271Y-79406190D02*
X144393271Y-79549047D01*
X144393271Y-79549047D02*
X144440890Y-79644285D01*
X144440890Y-79644285D02*
X144488509Y-79691904D01*
X144488509Y-79691904D02*
X144583747Y-79739523D01*
X144583747Y-79739523D02*
X144821842Y-79739523D01*
X144821842Y-79739523D02*
X144917080Y-79691904D01*
X144917080Y-79691904D02*
X144964700Y-79644285D01*
X144964700Y-79644285D02*
X145012319Y-79549047D01*
X145012319Y-79549047D02*
X145012319Y-79263333D01*
X145012319Y-79263333D02*
X144964700Y-79168095D01*
X144964700Y-79168095D02*
X144917080Y-79120476D01*
X144345652Y-80596666D02*
X145012319Y-80596666D01*
X143964700Y-80358571D02*
X144678985Y-80120476D01*
X144678985Y-80120476D02*
X144678985Y-80739523D01*
X269442319Y-81515714D02*
X268442319Y-81515714D01*
X268442319Y-81515714D02*
X268442319Y-81753809D01*
X268442319Y-81753809D02*
X268489938Y-81896666D01*
X268489938Y-81896666D02*
X268585176Y-81991904D01*
X268585176Y-81991904D02*
X268680414Y-82039523D01*
X268680414Y-82039523D02*
X268870890Y-82087142D01*
X268870890Y-82087142D02*
X269013747Y-82087142D01*
X269013747Y-82087142D02*
X269204223Y-82039523D01*
X269204223Y-82039523D02*
X269299461Y-81991904D01*
X269299461Y-81991904D02*
X269394700Y-81896666D01*
X269394700Y-81896666D02*
X269442319Y-81753809D01*
X269442319Y-81753809D02*
X269442319Y-81515714D01*
X268775652Y-82944285D02*
X269442319Y-82944285D01*
X268394700Y-82706190D02*
X269108985Y-82468095D01*
X269108985Y-82468095D02*
X269108985Y-83087142D01*
X269442319Y-83991904D02*
X269442319Y-83420476D01*
X269442319Y-83706190D02*
X268442319Y-83706190D01*
X268442319Y-83706190D02*
X268585176Y-83610952D01*
X268585176Y-83610952D02*
X268680414Y-83515714D01*
X268680414Y-83515714D02*
X268728033Y-83420476D01*
X302174819Y-94035714D02*
X301174819Y-94035714D01*
X301174819Y-94035714D02*
X301174819Y-94273809D01*
X301174819Y-94273809D02*
X301222438Y-94416666D01*
X301222438Y-94416666D02*
X301317676Y-94511904D01*
X301317676Y-94511904D02*
X301412914Y-94559523D01*
X301412914Y-94559523D02*
X301603390Y-94607142D01*
X301603390Y-94607142D02*
X301746247Y-94607142D01*
X301746247Y-94607142D02*
X301936723Y-94559523D01*
X301936723Y-94559523D02*
X302031961Y-94511904D01*
X302031961Y-94511904D02*
X302127200Y-94416666D01*
X302127200Y-94416666D02*
X302174819Y-94273809D01*
X302174819Y-94273809D02*
X302174819Y-94035714D01*
X301174819Y-95511904D02*
X301174819Y-95035714D01*
X301174819Y-95035714D02*
X301651009Y-94988095D01*
X301651009Y-94988095D02*
X301603390Y-95035714D01*
X301603390Y-95035714D02*
X301555771Y-95130952D01*
X301555771Y-95130952D02*
X301555771Y-95369047D01*
X301555771Y-95369047D02*
X301603390Y-95464285D01*
X301603390Y-95464285D02*
X301651009Y-95511904D01*
X301651009Y-95511904D02*
X301746247Y-95559523D01*
X301746247Y-95559523D02*
X301984342Y-95559523D01*
X301984342Y-95559523D02*
X302079580Y-95511904D01*
X302079580Y-95511904D02*
X302127200Y-95464285D01*
X302127200Y-95464285D02*
X302174819Y-95369047D01*
X302174819Y-95369047D02*
X302174819Y-95130952D01*
X302174819Y-95130952D02*
X302127200Y-95035714D01*
X302127200Y-95035714D02*
X302079580Y-94988095D01*
X301174819Y-96416666D02*
X301174819Y-96226190D01*
X301174819Y-96226190D02*
X301222438Y-96130952D01*
X301222438Y-96130952D02*
X301270057Y-96083333D01*
X301270057Y-96083333D02*
X301412914Y-95988095D01*
X301412914Y-95988095D02*
X301603390Y-95940476D01*
X301603390Y-95940476D02*
X301984342Y-95940476D01*
X301984342Y-95940476D02*
X302079580Y-95988095D01*
X302079580Y-95988095D02*
X302127200Y-96035714D01*
X302127200Y-96035714D02*
X302174819Y-96130952D01*
X302174819Y-96130952D02*
X302174819Y-96321428D01*
X302174819Y-96321428D02*
X302127200Y-96416666D01*
X302127200Y-96416666D02*
X302079580Y-96464285D01*
X302079580Y-96464285D02*
X301984342Y-96511904D01*
X301984342Y-96511904D02*
X301746247Y-96511904D01*
X301746247Y-96511904D02*
X301651009Y-96464285D01*
X301651009Y-96464285D02*
X301603390Y-96416666D01*
X301603390Y-96416666D02*
X301555771Y-96321428D01*
X301555771Y-96321428D02*
X301555771Y-96130952D01*
X301555771Y-96130952D02*
X301603390Y-96035714D01*
X301603390Y-96035714D02*
X301651009Y-95988095D01*
X301651009Y-95988095D02*
X301746247Y-95940476D01*
X173587319Y-97265714D02*
X172587319Y-97265714D01*
X172587319Y-97265714D02*
X172587319Y-97503809D01*
X172587319Y-97503809D02*
X172634938Y-97646666D01*
X172634938Y-97646666D02*
X172730176Y-97741904D01*
X172730176Y-97741904D02*
X172825414Y-97789523D01*
X172825414Y-97789523D02*
X173015890Y-97837142D01*
X173015890Y-97837142D02*
X173158747Y-97837142D01*
X173158747Y-97837142D02*
X173349223Y-97789523D01*
X173349223Y-97789523D02*
X173444461Y-97741904D01*
X173444461Y-97741904D02*
X173539700Y-97646666D01*
X173539700Y-97646666D02*
X173587319Y-97503809D01*
X173587319Y-97503809D02*
X173587319Y-97265714D01*
X172587319Y-98741904D02*
X172587319Y-98265714D01*
X172587319Y-98265714D02*
X173063509Y-98218095D01*
X173063509Y-98218095D02*
X173015890Y-98265714D01*
X173015890Y-98265714D02*
X172968271Y-98360952D01*
X172968271Y-98360952D02*
X172968271Y-98599047D01*
X172968271Y-98599047D02*
X173015890Y-98694285D01*
X173015890Y-98694285D02*
X173063509Y-98741904D01*
X173063509Y-98741904D02*
X173158747Y-98789523D01*
X173158747Y-98789523D02*
X173396842Y-98789523D01*
X173396842Y-98789523D02*
X173492080Y-98741904D01*
X173492080Y-98741904D02*
X173539700Y-98694285D01*
X173539700Y-98694285D02*
X173587319Y-98599047D01*
X173587319Y-98599047D02*
X173587319Y-98360952D01*
X173587319Y-98360952D02*
X173539700Y-98265714D01*
X173539700Y-98265714D02*
X173492080Y-98218095D01*
X172587319Y-99408571D02*
X172587319Y-99503809D01*
X172587319Y-99503809D02*
X172634938Y-99599047D01*
X172634938Y-99599047D02*
X172682557Y-99646666D01*
X172682557Y-99646666D02*
X172777795Y-99694285D01*
X172777795Y-99694285D02*
X172968271Y-99741904D01*
X172968271Y-99741904D02*
X173206366Y-99741904D01*
X173206366Y-99741904D02*
X173396842Y-99694285D01*
X173396842Y-99694285D02*
X173492080Y-99646666D01*
X173492080Y-99646666D02*
X173539700Y-99599047D01*
X173539700Y-99599047D02*
X173587319Y-99503809D01*
X173587319Y-99503809D02*
X173587319Y-99408571D01*
X173587319Y-99408571D02*
X173539700Y-99313333D01*
X173539700Y-99313333D02*
X173492080Y-99265714D01*
X173492080Y-99265714D02*
X173396842Y-99218095D01*
X173396842Y-99218095D02*
X173206366Y-99170476D01*
X173206366Y-99170476D02*
X172968271Y-99170476D01*
X172968271Y-99170476D02*
X172777795Y-99218095D01*
X172777795Y-99218095D02*
X172682557Y-99265714D01*
X172682557Y-99265714D02*
X172634938Y-99313333D01*
X172634938Y-99313333D02*
X172587319Y-99408571D01*
X192637319Y-97265714D02*
X191637319Y-97265714D01*
X191637319Y-97265714D02*
X191637319Y-97503809D01*
X191637319Y-97503809D02*
X191684938Y-97646666D01*
X191684938Y-97646666D02*
X191780176Y-97741904D01*
X191780176Y-97741904D02*
X191875414Y-97789523D01*
X191875414Y-97789523D02*
X192065890Y-97837142D01*
X192065890Y-97837142D02*
X192208747Y-97837142D01*
X192208747Y-97837142D02*
X192399223Y-97789523D01*
X192399223Y-97789523D02*
X192494461Y-97741904D01*
X192494461Y-97741904D02*
X192589700Y-97646666D01*
X192589700Y-97646666D02*
X192637319Y-97503809D01*
X192637319Y-97503809D02*
X192637319Y-97265714D01*
X191637319Y-98741904D02*
X191637319Y-98265714D01*
X191637319Y-98265714D02*
X192113509Y-98218095D01*
X192113509Y-98218095D02*
X192065890Y-98265714D01*
X192065890Y-98265714D02*
X192018271Y-98360952D01*
X192018271Y-98360952D02*
X192018271Y-98599047D01*
X192018271Y-98599047D02*
X192065890Y-98694285D01*
X192065890Y-98694285D02*
X192113509Y-98741904D01*
X192113509Y-98741904D02*
X192208747Y-98789523D01*
X192208747Y-98789523D02*
X192446842Y-98789523D01*
X192446842Y-98789523D02*
X192542080Y-98741904D01*
X192542080Y-98741904D02*
X192589700Y-98694285D01*
X192589700Y-98694285D02*
X192637319Y-98599047D01*
X192637319Y-98599047D02*
X192637319Y-98360952D01*
X192637319Y-98360952D02*
X192589700Y-98265714D01*
X192589700Y-98265714D02*
X192542080Y-98218095D01*
X192637319Y-99741904D02*
X192637319Y-99170476D01*
X192637319Y-99456190D02*
X191637319Y-99456190D01*
X191637319Y-99456190D02*
X191780176Y-99360952D01*
X191780176Y-99360952D02*
X191875414Y-99265714D01*
X191875414Y-99265714D02*
X191923033Y-99170476D01*
X111674819Y-40591905D02*
X110674819Y-40591905D01*
X110674819Y-40591905D02*
X110674819Y-40830000D01*
X110674819Y-40830000D02*
X110722438Y-40972857D01*
X110722438Y-40972857D02*
X110817676Y-41068095D01*
X110817676Y-41068095D02*
X110912914Y-41115714D01*
X110912914Y-41115714D02*
X111103390Y-41163333D01*
X111103390Y-41163333D02*
X111246247Y-41163333D01*
X111246247Y-41163333D02*
X111436723Y-41115714D01*
X111436723Y-41115714D02*
X111531961Y-41068095D01*
X111531961Y-41068095D02*
X111627200Y-40972857D01*
X111627200Y-40972857D02*
X111674819Y-40830000D01*
X111674819Y-40830000D02*
X111674819Y-40591905D01*
X110674819Y-42068095D02*
X110674819Y-41591905D01*
X110674819Y-41591905D02*
X111151009Y-41544286D01*
X111151009Y-41544286D02*
X111103390Y-41591905D01*
X111103390Y-41591905D02*
X111055771Y-41687143D01*
X111055771Y-41687143D02*
X111055771Y-41925238D01*
X111055771Y-41925238D02*
X111103390Y-42020476D01*
X111103390Y-42020476D02*
X111151009Y-42068095D01*
X111151009Y-42068095D02*
X111246247Y-42115714D01*
X111246247Y-42115714D02*
X111484342Y-42115714D01*
X111484342Y-42115714D02*
X111579580Y-42068095D01*
X111579580Y-42068095D02*
X111627200Y-42020476D01*
X111627200Y-42020476D02*
X111674819Y-41925238D01*
X111674819Y-41925238D02*
X111674819Y-41687143D01*
X111674819Y-41687143D02*
X111627200Y-41591905D01*
X111627200Y-41591905D02*
X111579580Y-41544286D01*
X221212319Y-78215714D02*
X220212319Y-78215714D01*
X220212319Y-78215714D02*
X220212319Y-78453809D01*
X220212319Y-78453809D02*
X220259938Y-78596666D01*
X220259938Y-78596666D02*
X220355176Y-78691904D01*
X220355176Y-78691904D02*
X220450414Y-78739523D01*
X220450414Y-78739523D02*
X220640890Y-78787142D01*
X220640890Y-78787142D02*
X220783747Y-78787142D01*
X220783747Y-78787142D02*
X220974223Y-78739523D01*
X220974223Y-78739523D02*
X221069461Y-78691904D01*
X221069461Y-78691904D02*
X221164700Y-78596666D01*
X221164700Y-78596666D02*
X221212319Y-78453809D01*
X221212319Y-78453809D02*
X221212319Y-78215714D01*
X220212319Y-79120476D02*
X220212319Y-79739523D01*
X220212319Y-79739523D02*
X220593271Y-79406190D01*
X220593271Y-79406190D02*
X220593271Y-79549047D01*
X220593271Y-79549047D02*
X220640890Y-79644285D01*
X220640890Y-79644285D02*
X220688509Y-79691904D01*
X220688509Y-79691904D02*
X220783747Y-79739523D01*
X220783747Y-79739523D02*
X221021842Y-79739523D01*
X221021842Y-79739523D02*
X221117080Y-79691904D01*
X221117080Y-79691904D02*
X221164700Y-79644285D01*
X221164700Y-79644285D02*
X221212319Y-79549047D01*
X221212319Y-79549047D02*
X221212319Y-79263333D01*
X221212319Y-79263333D02*
X221164700Y-79168095D01*
X221164700Y-79168095D02*
X221117080Y-79120476D01*
X220640890Y-80310952D02*
X220593271Y-80215714D01*
X220593271Y-80215714D02*
X220545652Y-80168095D01*
X220545652Y-80168095D02*
X220450414Y-80120476D01*
X220450414Y-80120476D02*
X220402795Y-80120476D01*
X220402795Y-80120476D02*
X220307557Y-80168095D01*
X220307557Y-80168095D02*
X220259938Y-80215714D01*
X220259938Y-80215714D02*
X220212319Y-80310952D01*
X220212319Y-80310952D02*
X220212319Y-80501428D01*
X220212319Y-80501428D02*
X220259938Y-80596666D01*
X220259938Y-80596666D02*
X220307557Y-80644285D01*
X220307557Y-80644285D02*
X220402795Y-80691904D01*
X220402795Y-80691904D02*
X220450414Y-80691904D01*
X220450414Y-80691904D02*
X220545652Y-80644285D01*
X220545652Y-80644285D02*
X220593271Y-80596666D01*
X220593271Y-80596666D02*
X220640890Y-80501428D01*
X220640890Y-80501428D02*
X220640890Y-80310952D01*
X220640890Y-80310952D02*
X220688509Y-80215714D01*
X220688509Y-80215714D02*
X220736128Y-80168095D01*
X220736128Y-80168095D02*
X220831366Y-80120476D01*
X220831366Y-80120476D02*
X221021842Y-80120476D01*
X221021842Y-80120476D02*
X221117080Y-80168095D01*
X221117080Y-80168095D02*
X221164700Y-80215714D01*
X221164700Y-80215714D02*
X221212319Y-80310952D01*
X221212319Y-80310952D02*
X221212319Y-80501428D01*
X221212319Y-80501428D02*
X221164700Y-80596666D01*
X221164700Y-80596666D02*
X221117080Y-80644285D01*
X221117080Y-80644285D02*
X221021842Y-80691904D01*
X221021842Y-80691904D02*
X220831366Y-80691904D01*
X220831366Y-80691904D02*
X220736128Y-80644285D01*
X220736128Y-80644285D02*
X220688509Y-80596666D01*
X220688509Y-80596666D02*
X220640890Y-80501428D01*
X211687319Y-97265714D02*
X210687319Y-97265714D01*
X210687319Y-97265714D02*
X210687319Y-97503809D01*
X210687319Y-97503809D02*
X210734938Y-97646666D01*
X210734938Y-97646666D02*
X210830176Y-97741904D01*
X210830176Y-97741904D02*
X210925414Y-97789523D01*
X210925414Y-97789523D02*
X211115890Y-97837142D01*
X211115890Y-97837142D02*
X211258747Y-97837142D01*
X211258747Y-97837142D02*
X211449223Y-97789523D01*
X211449223Y-97789523D02*
X211544461Y-97741904D01*
X211544461Y-97741904D02*
X211639700Y-97646666D01*
X211639700Y-97646666D02*
X211687319Y-97503809D01*
X211687319Y-97503809D02*
X211687319Y-97265714D01*
X210687319Y-98741904D02*
X210687319Y-98265714D01*
X210687319Y-98265714D02*
X211163509Y-98218095D01*
X211163509Y-98218095D02*
X211115890Y-98265714D01*
X211115890Y-98265714D02*
X211068271Y-98360952D01*
X211068271Y-98360952D02*
X211068271Y-98599047D01*
X211068271Y-98599047D02*
X211115890Y-98694285D01*
X211115890Y-98694285D02*
X211163509Y-98741904D01*
X211163509Y-98741904D02*
X211258747Y-98789523D01*
X211258747Y-98789523D02*
X211496842Y-98789523D01*
X211496842Y-98789523D02*
X211592080Y-98741904D01*
X211592080Y-98741904D02*
X211639700Y-98694285D01*
X211639700Y-98694285D02*
X211687319Y-98599047D01*
X211687319Y-98599047D02*
X211687319Y-98360952D01*
X211687319Y-98360952D02*
X211639700Y-98265714D01*
X211639700Y-98265714D02*
X211592080Y-98218095D01*
X210782557Y-99170476D02*
X210734938Y-99218095D01*
X210734938Y-99218095D02*
X210687319Y-99313333D01*
X210687319Y-99313333D02*
X210687319Y-99551428D01*
X210687319Y-99551428D02*
X210734938Y-99646666D01*
X210734938Y-99646666D02*
X210782557Y-99694285D01*
X210782557Y-99694285D02*
X210877795Y-99741904D01*
X210877795Y-99741904D02*
X210973033Y-99741904D01*
X210973033Y-99741904D02*
X211115890Y-99694285D01*
X211115890Y-99694285D02*
X211687319Y-99122857D01*
X211687319Y-99122857D02*
X211687319Y-99741904D01*
X156918569Y-116315714D02*
X155918569Y-116315714D01*
X155918569Y-116315714D02*
X155918569Y-116553809D01*
X155918569Y-116553809D02*
X155966188Y-116696666D01*
X155966188Y-116696666D02*
X156061426Y-116791904D01*
X156061426Y-116791904D02*
X156156664Y-116839523D01*
X156156664Y-116839523D02*
X156347140Y-116887142D01*
X156347140Y-116887142D02*
X156489997Y-116887142D01*
X156489997Y-116887142D02*
X156680473Y-116839523D01*
X156680473Y-116839523D02*
X156775711Y-116791904D01*
X156775711Y-116791904D02*
X156870950Y-116696666D01*
X156870950Y-116696666D02*
X156918569Y-116553809D01*
X156918569Y-116553809D02*
X156918569Y-116315714D01*
X155918569Y-117744285D02*
X155918569Y-117553809D01*
X155918569Y-117553809D02*
X155966188Y-117458571D01*
X155966188Y-117458571D02*
X156013807Y-117410952D01*
X156013807Y-117410952D02*
X156156664Y-117315714D01*
X156156664Y-117315714D02*
X156347140Y-117268095D01*
X156347140Y-117268095D02*
X156728092Y-117268095D01*
X156728092Y-117268095D02*
X156823330Y-117315714D01*
X156823330Y-117315714D02*
X156870950Y-117363333D01*
X156870950Y-117363333D02*
X156918569Y-117458571D01*
X156918569Y-117458571D02*
X156918569Y-117649047D01*
X156918569Y-117649047D02*
X156870950Y-117744285D01*
X156870950Y-117744285D02*
X156823330Y-117791904D01*
X156823330Y-117791904D02*
X156728092Y-117839523D01*
X156728092Y-117839523D02*
X156489997Y-117839523D01*
X156489997Y-117839523D02*
X156394759Y-117791904D01*
X156394759Y-117791904D02*
X156347140Y-117744285D01*
X156347140Y-117744285D02*
X156299521Y-117649047D01*
X156299521Y-117649047D02*
X156299521Y-117458571D01*
X156299521Y-117458571D02*
X156347140Y-117363333D01*
X156347140Y-117363333D02*
X156394759Y-117315714D01*
X156394759Y-117315714D02*
X156489997Y-117268095D01*
X155918569Y-118458571D02*
X155918569Y-118553809D01*
X155918569Y-118553809D02*
X155966188Y-118649047D01*
X155966188Y-118649047D02*
X156013807Y-118696666D01*
X156013807Y-118696666D02*
X156109045Y-118744285D01*
X156109045Y-118744285D02*
X156299521Y-118791904D01*
X156299521Y-118791904D02*
X156537616Y-118791904D01*
X156537616Y-118791904D02*
X156728092Y-118744285D01*
X156728092Y-118744285D02*
X156823330Y-118696666D01*
X156823330Y-118696666D02*
X156870950Y-118649047D01*
X156870950Y-118649047D02*
X156918569Y-118553809D01*
X156918569Y-118553809D02*
X156918569Y-118458571D01*
X156918569Y-118458571D02*
X156870950Y-118363333D01*
X156870950Y-118363333D02*
X156823330Y-118315714D01*
X156823330Y-118315714D02*
X156728092Y-118268095D01*
X156728092Y-118268095D02*
X156537616Y-118220476D01*
X156537616Y-118220476D02*
X156299521Y-118220476D01*
X156299521Y-118220476D02*
X156109045Y-118268095D01*
X156109045Y-118268095D02*
X156013807Y-118315714D01*
X156013807Y-118315714D02*
X155966188Y-118363333D01*
X155966188Y-118363333D02*
X155918569Y-118458571D01*
X135487319Y-97265714D02*
X134487319Y-97265714D01*
X134487319Y-97265714D02*
X134487319Y-97503809D01*
X134487319Y-97503809D02*
X134534938Y-97646666D01*
X134534938Y-97646666D02*
X134630176Y-97741904D01*
X134630176Y-97741904D02*
X134725414Y-97789523D01*
X134725414Y-97789523D02*
X134915890Y-97837142D01*
X134915890Y-97837142D02*
X135058747Y-97837142D01*
X135058747Y-97837142D02*
X135249223Y-97789523D01*
X135249223Y-97789523D02*
X135344461Y-97741904D01*
X135344461Y-97741904D02*
X135439700Y-97646666D01*
X135439700Y-97646666D02*
X135487319Y-97503809D01*
X135487319Y-97503809D02*
X135487319Y-97265714D01*
X134820652Y-98694285D02*
X135487319Y-98694285D01*
X134439700Y-98456190D02*
X135153985Y-98218095D01*
X135153985Y-98218095D02*
X135153985Y-98837142D01*
X134915890Y-99360952D02*
X134868271Y-99265714D01*
X134868271Y-99265714D02*
X134820652Y-99218095D01*
X134820652Y-99218095D02*
X134725414Y-99170476D01*
X134725414Y-99170476D02*
X134677795Y-99170476D01*
X134677795Y-99170476D02*
X134582557Y-99218095D01*
X134582557Y-99218095D02*
X134534938Y-99265714D01*
X134534938Y-99265714D02*
X134487319Y-99360952D01*
X134487319Y-99360952D02*
X134487319Y-99551428D01*
X134487319Y-99551428D02*
X134534938Y-99646666D01*
X134534938Y-99646666D02*
X134582557Y-99694285D01*
X134582557Y-99694285D02*
X134677795Y-99741904D01*
X134677795Y-99741904D02*
X134725414Y-99741904D01*
X134725414Y-99741904D02*
X134820652Y-99694285D01*
X134820652Y-99694285D02*
X134868271Y-99646666D01*
X134868271Y-99646666D02*
X134915890Y-99551428D01*
X134915890Y-99551428D02*
X134915890Y-99360952D01*
X134915890Y-99360952D02*
X134963509Y-99265714D01*
X134963509Y-99265714D02*
X135011128Y-99218095D01*
X135011128Y-99218095D02*
X135106366Y-99170476D01*
X135106366Y-99170476D02*
X135296842Y-99170476D01*
X135296842Y-99170476D02*
X135392080Y-99218095D01*
X135392080Y-99218095D02*
X135439700Y-99265714D01*
X135439700Y-99265714D02*
X135487319Y-99360952D01*
X135487319Y-99360952D02*
X135487319Y-99551428D01*
X135487319Y-99551428D02*
X135439700Y-99646666D01*
X135439700Y-99646666D02*
X135392080Y-99694285D01*
X135392080Y-99694285D02*
X135296842Y-99741904D01*
X135296842Y-99741904D02*
X135106366Y-99741904D01*
X135106366Y-99741904D02*
X135011128Y-99694285D01*
X135011128Y-99694285D02*
X134963509Y-99646666D01*
X134963509Y-99646666D02*
X134915890Y-99551428D01*
X140249819Y-59165714D02*
X139249819Y-59165714D01*
X139249819Y-59165714D02*
X139249819Y-59403809D01*
X139249819Y-59403809D02*
X139297438Y-59546666D01*
X139297438Y-59546666D02*
X139392676Y-59641904D01*
X139392676Y-59641904D02*
X139487914Y-59689523D01*
X139487914Y-59689523D02*
X139678390Y-59737142D01*
X139678390Y-59737142D02*
X139821247Y-59737142D01*
X139821247Y-59737142D02*
X140011723Y-59689523D01*
X140011723Y-59689523D02*
X140106961Y-59641904D01*
X140106961Y-59641904D02*
X140202200Y-59546666D01*
X140202200Y-59546666D02*
X140249819Y-59403809D01*
X140249819Y-59403809D02*
X140249819Y-59165714D01*
X139345057Y-60118095D02*
X139297438Y-60165714D01*
X139297438Y-60165714D02*
X139249819Y-60260952D01*
X139249819Y-60260952D02*
X139249819Y-60499047D01*
X139249819Y-60499047D02*
X139297438Y-60594285D01*
X139297438Y-60594285D02*
X139345057Y-60641904D01*
X139345057Y-60641904D02*
X139440295Y-60689523D01*
X139440295Y-60689523D02*
X139535533Y-60689523D01*
X139535533Y-60689523D02*
X139678390Y-60641904D01*
X139678390Y-60641904D02*
X140249819Y-60070476D01*
X140249819Y-60070476D02*
X140249819Y-60689523D01*
X139249819Y-61308571D02*
X139249819Y-61403809D01*
X139249819Y-61403809D02*
X139297438Y-61499047D01*
X139297438Y-61499047D02*
X139345057Y-61546666D01*
X139345057Y-61546666D02*
X139440295Y-61594285D01*
X139440295Y-61594285D02*
X139630771Y-61641904D01*
X139630771Y-61641904D02*
X139868866Y-61641904D01*
X139868866Y-61641904D02*
X140059342Y-61594285D01*
X140059342Y-61594285D02*
X140154580Y-61546666D01*
X140154580Y-61546666D02*
X140202200Y-61499047D01*
X140202200Y-61499047D02*
X140249819Y-61403809D01*
X140249819Y-61403809D02*
X140249819Y-61308571D01*
X140249819Y-61308571D02*
X140202200Y-61213333D01*
X140202200Y-61213333D02*
X140154580Y-61165714D01*
X140154580Y-61165714D02*
X140059342Y-61118095D01*
X140059342Y-61118095D02*
X139868866Y-61070476D01*
X139868866Y-61070476D02*
X139630771Y-61070476D01*
X139630771Y-61070476D02*
X139440295Y-61118095D01*
X139440295Y-61118095D02*
X139345057Y-61165714D01*
X139345057Y-61165714D02*
X139297438Y-61213333D01*
X139297438Y-61213333D02*
X139249819Y-61308571D01*
X286492319Y-55935714D02*
X285492319Y-55935714D01*
X285492319Y-55935714D02*
X285492319Y-56173809D01*
X285492319Y-56173809D02*
X285539938Y-56316666D01*
X285539938Y-56316666D02*
X285635176Y-56411904D01*
X285635176Y-56411904D02*
X285730414Y-56459523D01*
X285730414Y-56459523D02*
X285920890Y-56507142D01*
X285920890Y-56507142D02*
X286063747Y-56507142D01*
X286063747Y-56507142D02*
X286254223Y-56459523D01*
X286254223Y-56459523D02*
X286349461Y-56411904D01*
X286349461Y-56411904D02*
X286444700Y-56316666D01*
X286444700Y-56316666D02*
X286492319Y-56173809D01*
X286492319Y-56173809D02*
X286492319Y-55935714D01*
X285825652Y-57364285D02*
X286492319Y-57364285D01*
X285444700Y-57126190D02*
X286158985Y-56888095D01*
X286158985Y-56888095D02*
X286158985Y-57507142D01*
X285587557Y-57840476D02*
X285539938Y-57888095D01*
X285539938Y-57888095D02*
X285492319Y-57983333D01*
X285492319Y-57983333D02*
X285492319Y-58221428D01*
X285492319Y-58221428D02*
X285539938Y-58316666D01*
X285539938Y-58316666D02*
X285587557Y-58364285D01*
X285587557Y-58364285D02*
X285682795Y-58411904D01*
X285682795Y-58411904D02*
X285778033Y-58411904D01*
X285778033Y-58411904D02*
X285920890Y-58364285D01*
X285920890Y-58364285D02*
X286492319Y-57792857D01*
X286492319Y-57792857D02*
X286492319Y-58411904D01*
X269029819Y-97265714D02*
X268029819Y-97265714D01*
X268029819Y-97265714D02*
X268029819Y-97503809D01*
X268029819Y-97503809D02*
X268077438Y-97646666D01*
X268077438Y-97646666D02*
X268172676Y-97741904D01*
X268172676Y-97741904D02*
X268267914Y-97789523D01*
X268267914Y-97789523D02*
X268458390Y-97837142D01*
X268458390Y-97837142D02*
X268601247Y-97837142D01*
X268601247Y-97837142D02*
X268791723Y-97789523D01*
X268791723Y-97789523D02*
X268886961Y-97741904D01*
X268886961Y-97741904D02*
X268982200Y-97646666D01*
X268982200Y-97646666D02*
X269029819Y-97503809D01*
X269029819Y-97503809D02*
X269029819Y-97265714D01*
X268029819Y-98741904D02*
X268029819Y-98265714D01*
X268029819Y-98265714D02*
X268506009Y-98218095D01*
X268506009Y-98218095D02*
X268458390Y-98265714D01*
X268458390Y-98265714D02*
X268410771Y-98360952D01*
X268410771Y-98360952D02*
X268410771Y-98599047D01*
X268410771Y-98599047D02*
X268458390Y-98694285D01*
X268458390Y-98694285D02*
X268506009Y-98741904D01*
X268506009Y-98741904D02*
X268601247Y-98789523D01*
X268601247Y-98789523D02*
X268839342Y-98789523D01*
X268839342Y-98789523D02*
X268934580Y-98741904D01*
X268934580Y-98741904D02*
X268982200Y-98694285D01*
X268982200Y-98694285D02*
X269029819Y-98599047D01*
X269029819Y-98599047D02*
X269029819Y-98360952D01*
X269029819Y-98360952D02*
X268982200Y-98265714D01*
X268982200Y-98265714D02*
X268934580Y-98218095D01*
X268029819Y-99694285D02*
X268029819Y-99218095D01*
X268029819Y-99218095D02*
X268506009Y-99170476D01*
X268506009Y-99170476D02*
X268458390Y-99218095D01*
X268458390Y-99218095D02*
X268410771Y-99313333D01*
X268410771Y-99313333D02*
X268410771Y-99551428D01*
X268410771Y-99551428D02*
X268458390Y-99646666D01*
X268458390Y-99646666D02*
X268506009Y-99694285D01*
X268506009Y-99694285D02*
X268601247Y-99741904D01*
X268601247Y-99741904D02*
X268839342Y-99741904D01*
X268839342Y-99741904D02*
X268934580Y-99694285D01*
X268934580Y-99694285D02*
X268982200Y-99646666D01*
X268982200Y-99646666D02*
X269029819Y-99551428D01*
X269029819Y-99551428D02*
X269029819Y-99313333D01*
X269029819Y-99313333D02*
X268982200Y-99218095D01*
X268982200Y-99218095D02*
X268934580Y-99170476D01*
X154537319Y-97265714D02*
X153537319Y-97265714D01*
X153537319Y-97265714D02*
X153537319Y-97503809D01*
X153537319Y-97503809D02*
X153584938Y-97646666D01*
X153584938Y-97646666D02*
X153680176Y-97741904D01*
X153680176Y-97741904D02*
X153775414Y-97789523D01*
X153775414Y-97789523D02*
X153965890Y-97837142D01*
X153965890Y-97837142D02*
X154108747Y-97837142D01*
X154108747Y-97837142D02*
X154299223Y-97789523D01*
X154299223Y-97789523D02*
X154394461Y-97741904D01*
X154394461Y-97741904D02*
X154489700Y-97646666D01*
X154489700Y-97646666D02*
X154537319Y-97503809D01*
X154537319Y-97503809D02*
X154537319Y-97265714D01*
X153870652Y-98694285D02*
X154537319Y-98694285D01*
X153489700Y-98456190D02*
X154203985Y-98218095D01*
X154203985Y-98218095D02*
X154203985Y-98837142D01*
X154537319Y-99265714D02*
X154537319Y-99456190D01*
X154537319Y-99456190D02*
X154489700Y-99551428D01*
X154489700Y-99551428D02*
X154442080Y-99599047D01*
X154442080Y-99599047D02*
X154299223Y-99694285D01*
X154299223Y-99694285D02*
X154108747Y-99741904D01*
X154108747Y-99741904D02*
X153727795Y-99741904D01*
X153727795Y-99741904D02*
X153632557Y-99694285D01*
X153632557Y-99694285D02*
X153584938Y-99646666D01*
X153584938Y-99646666D02*
X153537319Y-99551428D01*
X153537319Y-99551428D02*
X153537319Y-99360952D01*
X153537319Y-99360952D02*
X153584938Y-99265714D01*
X153584938Y-99265714D02*
X153632557Y-99218095D01*
X153632557Y-99218095D02*
X153727795Y-99170476D01*
X153727795Y-99170476D02*
X153965890Y-99170476D01*
X153965890Y-99170476D02*
X154061128Y-99218095D01*
X154061128Y-99218095D02*
X154108747Y-99265714D01*
X154108747Y-99265714D02*
X154156366Y-99360952D01*
X154156366Y-99360952D02*
X154156366Y-99551428D01*
X154156366Y-99551428D02*
X154108747Y-99646666D01*
X154108747Y-99646666D02*
X154061128Y-99694285D01*
X154061128Y-99694285D02*
X153965890Y-99741904D01*
X288492319Y-106075714D02*
X287492319Y-106075714D01*
X287492319Y-106075714D02*
X287492319Y-106313809D01*
X287492319Y-106313809D02*
X287539938Y-106456666D01*
X287539938Y-106456666D02*
X287635176Y-106551904D01*
X287635176Y-106551904D02*
X287730414Y-106599523D01*
X287730414Y-106599523D02*
X287920890Y-106647142D01*
X287920890Y-106647142D02*
X288063747Y-106647142D01*
X288063747Y-106647142D02*
X288254223Y-106599523D01*
X288254223Y-106599523D02*
X288349461Y-106551904D01*
X288349461Y-106551904D02*
X288444700Y-106456666D01*
X288444700Y-106456666D02*
X288492319Y-106313809D01*
X288492319Y-106313809D02*
X288492319Y-106075714D01*
X287492319Y-107504285D02*
X287492319Y-107313809D01*
X287492319Y-107313809D02*
X287539938Y-107218571D01*
X287539938Y-107218571D02*
X287587557Y-107170952D01*
X287587557Y-107170952D02*
X287730414Y-107075714D01*
X287730414Y-107075714D02*
X287920890Y-107028095D01*
X287920890Y-107028095D02*
X288301842Y-107028095D01*
X288301842Y-107028095D02*
X288397080Y-107075714D01*
X288397080Y-107075714D02*
X288444700Y-107123333D01*
X288444700Y-107123333D02*
X288492319Y-107218571D01*
X288492319Y-107218571D02*
X288492319Y-107409047D01*
X288492319Y-107409047D02*
X288444700Y-107504285D01*
X288444700Y-107504285D02*
X288397080Y-107551904D01*
X288397080Y-107551904D02*
X288301842Y-107599523D01*
X288301842Y-107599523D02*
X288063747Y-107599523D01*
X288063747Y-107599523D02*
X287968509Y-107551904D01*
X287968509Y-107551904D02*
X287920890Y-107504285D01*
X287920890Y-107504285D02*
X287873271Y-107409047D01*
X287873271Y-107409047D02*
X287873271Y-107218571D01*
X287873271Y-107218571D02*
X287920890Y-107123333D01*
X287920890Y-107123333D02*
X287968509Y-107075714D01*
X287968509Y-107075714D02*
X288063747Y-107028095D01*
X287825652Y-108456666D02*
X288492319Y-108456666D01*
X287444700Y-108218571D02*
X288158985Y-107980476D01*
X288158985Y-107980476D02*
X288158985Y-108599523D01*
X273599819Y-59165714D02*
X272599819Y-59165714D01*
X272599819Y-59165714D02*
X272599819Y-59403809D01*
X272599819Y-59403809D02*
X272647438Y-59546666D01*
X272647438Y-59546666D02*
X272742676Y-59641904D01*
X272742676Y-59641904D02*
X272837914Y-59689523D01*
X272837914Y-59689523D02*
X273028390Y-59737142D01*
X273028390Y-59737142D02*
X273171247Y-59737142D01*
X273171247Y-59737142D02*
X273361723Y-59689523D01*
X273361723Y-59689523D02*
X273456961Y-59641904D01*
X273456961Y-59641904D02*
X273552200Y-59546666D01*
X273552200Y-59546666D02*
X273599819Y-59403809D01*
X273599819Y-59403809D02*
X273599819Y-59165714D01*
X272695057Y-60118095D02*
X272647438Y-60165714D01*
X272647438Y-60165714D02*
X272599819Y-60260952D01*
X272599819Y-60260952D02*
X272599819Y-60499047D01*
X272599819Y-60499047D02*
X272647438Y-60594285D01*
X272647438Y-60594285D02*
X272695057Y-60641904D01*
X272695057Y-60641904D02*
X272790295Y-60689523D01*
X272790295Y-60689523D02*
X272885533Y-60689523D01*
X272885533Y-60689523D02*
X273028390Y-60641904D01*
X273028390Y-60641904D02*
X273599819Y-60070476D01*
X273599819Y-60070476D02*
X273599819Y-60689523D01*
X272599819Y-61022857D02*
X272599819Y-61689523D01*
X272599819Y-61689523D02*
X273599819Y-61260952D01*
X73574819Y-40591905D02*
X72574819Y-40591905D01*
X72574819Y-40591905D02*
X72574819Y-40830000D01*
X72574819Y-40830000D02*
X72622438Y-40972857D01*
X72622438Y-40972857D02*
X72717676Y-41068095D01*
X72717676Y-41068095D02*
X72812914Y-41115714D01*
X72812914Y-41115714D02*
X73003390Y-41163333D01*
X73003390Y-41163333D02*
X73146247Y-41163333D01*
X73146247Y-41163333D02*
X73336723Y-41115714D01*
X73336723Y-41115714D02*
X73431961Y-41068095D01*
X73431961Y-41068095D02*
X73527200Y-40972857D01*
X73527200Y-40972857D02*
X73574819Y-40830000D01*
X73574819Y-40830000D02*
X73574819Y-40591905D01*
X72574819Y-41496667D02*
X72574819Y-42115714D01*
X72574819Y-42115714D02*
X72955771Y-41782381D01*
X72955771Y-41782381D02*
X72955771Y-41925238D01*
X72955771Y-41925238D02*
X73003390Y-42020476D01*
X73003390Y-42020476D02*
X73051009Y-42068095D01*
X73051009Y-42068095D02*
X73146247Y-42115714D01*
X73146247Y-42115714D02*
X73384342Y-42115714D01*
X73384342Y-42115714D02*
X73479580Y-42068095D01*
X73479580Y-42068095D02*
X73527200Y-42020476D01*
X73527200Y-42020476D02*
X73574819Y-41925238D01*
X73574819Y-41925238D02*
X73574819Y-41639524D01*
X73574819Y-41639524D02*
X73527200Y-41544286D01*
X73527200Y-41544286D02*
X73479580Y-41496667D01*
X45556666Y-37534819D02*
X45889999Y-37058628D01*
X46128094Y-37534819D02*
X46128094Y-36534819D01*
X46128094Y-36534819D02*
X45747142Y-36534819D01*
X45747142Y-36534819D02*
X45651904Y-36582438D01*
X45651904Y-36582438D02*
X45604285Y-36630057D01*
X45604285Y-36630057D02*
X45556666Y-36725295D01*
X45556666Y-36725295D02*
X45556666Y-36868152D01*
X45556666Y-36868152D02*
X45604285Y-36963390D01*
X45604285Y-36963390D02*
X45651904Y-37011009D01*
X45651904Y-37011009D02*
X45747142Y-37058628D01*
X45747142Y-37058628D02*
X46128094Y-37058628D01*
X44699523Y-36534819D02*
X44889999Y-36534819D01*
X44889999Y-36534819D02*
X44985237Y-36582438D01*
X44985237Y-36582438D02*
X45032856Y-36630057D01*
X45032856Y-36630057D02*
X45128094Y-36772914D01*
X45128094Y-36772914D02*
X45175713Y-36963390D01*
X45175713Y-36963390D02*
X45175713Y-37344342D01*
X45175713Y-37344342D02*
X45128094Y-37439580D01*
X45128094Y-37439580D02*
X45080475Y-37487200D01*
X45080475Y-37487200D02*
X44985237Y-37534819D01*
X44985237Y-37534819D02*
X44794761Y-37534819D01*
X44794761Y-37534819D02*
X44699523Y-37487200D01*
X44699523Y-37487200D02*
X44651904Y-37439580D01*
X44651904Y-37439580D02*
X44604285Y-37344342D01*
X44604285Y-37344342D02*
X44604285Y-37106247D01*
X44604285Y-37106247D02*
X44651904Y-37011009D01*
X44651904Y-37011009D02*
X44699523Y-36963390D01*
X44699523Y-36963390D02*
X44794761Y-36915771D01*
X44794761Y-36915771D02*
X44985237Y-36915771D01*
X44985237Y-36915771D02*
X45080475Y-36963390D01*
X45080475Y-36963390D02*
X45128094Y-37011009D01*
X45128094Y-37011009D02*
X45175713Y-37106247D01*
X92624819Y-40591905D02*
X91624819Y-40591905D01*
X91624819Y-40591905D02*
X91624819Y-40830000D01*
X91624819Y-40830000D02*
X91672438Y-40972857D01*
X91672438Y-40972857D02*
X91767676Y-41068095D01*
X91767676Y-41068095D02*
X91862914Y-41115714D01*
X91862914Y-41115714D02*
X92053390Y-41163333D01*
X92053390Y-41163333D02*
X92196247Y-41163333D01*
X92196247Y-41163333D02*
X92386723Y-41115714D01*
X92386723Y-41115714D02*
X92481961Y-41068095D01*
X92481961Y-41068095D02*
X92577200Y-40972857D01*
X92577200Y-40972857D02*
X92624819Y-40830000D01*
X92624819Y-40830000D02*
X92624819Y-40591905D01*
X91958152Y-42020476D02*
X92624819Y-42020476D01*
X91577200Y-41782381D02*
X92291485Y-41544286D01*
X92291485Y-41544286D02*
X92291485Y-42163333D01*
X125962319Y-78215714D02*
X124962319Y-78215714D01*
X124962319Y-78215714D02*
X124962319Y-78453809D01*
X124962319Y-78453809D02*
X125009938Y-78596666D01*
X125009938Y-78596666D02*
X125105176Y-78691904D01*
X125105176Y-78691904D02*
X125200414Y-78739523D01*
X125200414Y-78739523D02*
X125390890Y-78787142D01*
X125390890Y-78787142D02*
X125533747Y-78787142D01*
X125533747Y-78787142D02*
X125724223Y-78739523D01*
X125724223Y-78739523D02*
X125819461Y-78691904D01*
X125819461Y-78691904D02*
X125914700Y-78596666D01*
X125914700Y-78596666D02*
X125962319Y-78453809D01*
X125962319Y-78453809D02*
X125962319Y-78215714D01*
X124962319Y-79120476D02*
X124962319Y-79739523D01*
X124962319Y-79739523D02*
X125343271Y-79406190D01*
X125343271Y-79406190D02*
X125343271Y-79549047D01*
X125343271Y-79549047D02*
X125390890Y-79644285D01*
X125390890Y-79644285D02*
X125438509Y-79691904D01*
X125438509Y-79691904D02*
X125533747Y-79739523D01*
X125533747Y-79739523D02*
X125771842Y-79739523D01*
X125771842Y-79739523D02*
X125867080Y-79691904D01*
X125867080Y-79691904D02*
X125914700Y-79644285D01*
X125914700Y-79644285D02*
X125962319Y-79549047D01*
X125962319Y-79549047D02*
X125962319Y-79263333D01*
X125962319Y-79263333D02*
X125914700Y-79168095D01*
X125914700Y-79168095D02*
X125867080Y-79120476D01*
X124962319Y-80072857D02*
X124962319Y-80691904D01*
X124962319Y-80691904D02*
X125343271Y-80358571D01*
X125343271Y-80358571D02*
X125343271Y-80501428D01*
X125343271Y-80501428D02*
X125390890Y-80596666D01*
X125390890Y-80596666D02*
X125438509Y-80644285D01*
X125438509Y-80644285D02*
X125533747Y-80691904D01*
X125533747Y-80691904D02*
X125771842Y-80691904D01*
X125771842Y-80691904D02*
X125867080Y-80644285D01*
X125867080Y-80644285D02*
X125914700Y-80596666D01*
X125914700Y-80596666D02*
X125962319Y-80501428D01*
X125962319Y-80501428D02*
X125962319Y-80215714D01*
X125962319Y-80215714D02*
X125914700Y-80120476D01*
X125914700Y-80120476D02*
X125867080Y-80072857D01*
X83099819Y-59165714D02*
X82099819Y-59165714D01*
X82099819Y-59165714D02*
X82099819Y-59403809D01*
X82099819Y-59403809D02*
X82147438Y-59546666D01*
X82147438Y-59546666D02*
X82242676Y-59641904D01*
X82242676Y-59641904D02*
X82337914Y-59689523D01*
X82337914Y-59689523D02*
X82528390Y-59737142D01*
X82528390Y-59737142D02*
X82671247Y-59737142D01*
X82671247Y-59737142D02*
X82861723Y-59689523D01*
X82861723Y-59689523D02*
X82956961Y-59641904D01*
X82956961Y-59641904D02*
X83052200Y-59546666D01*
X83052200Y-59546666D02*
X83099819Y-59403809D01*
X83099819Y-59403809D02*
X83099819Y-59165714D01*
X83099819Y-60689523D02*
X83099819Y-60118095D01*
X83099819Y-60403809D02*
X82099819Y-60403809D01*
X82099819Y-60403809D02*
X82242676Y-60308571D01*
X82242676Y-60308571D02*
X82337914Y-60213333D01*
X82337914Y-60213333D02*
X82385533Y-60118095D01*
X82099819Y-61022857D02*
X82099819Y-61689523D01*
X82099819Y-61689523D02*
X83099819Y-61260952D01*
X285251785Y-64484819D02*
X285251785Y-63484819D01*
X285251785Y-63484819D02*
X285013690Y-63484819D01*
X285013690Y-63484819D02*
X284870833Y-63532438D01*
X284870833Y-63532438D02*
X284775595Y-63627676D01*
X284775595Y-63627676D02*
X284727976Y-63722914D01*
X284727976Y-63722914D02*
X284680357Y-63913390D01*
X284680357Y-63913390D02*
X284680357Y-64056247D01*
X284680357Y-64056247D02*
X284727976Y-64246723D01*
X284727976Y-64246723D02*
X284775595Y-64341961D01*
X284775595Y-64341961D02*
X284870833Y-64437200D01*
X284870833Y-64437200D02*
X285013690Y-64484819D01*
X285013690Y-64484819D02*
X285251785Y-64484819D01*
X284299404Y-63580057D02*
X284251785Y-63532438D01*
X284251785Y-63532438D02*
X284156547Y-63484819D01*
X284156547Y-63484819D02*
X283918452Y-63484819D01*
X283918452Y-63484819D02*
X283823214Y-63532438D01*
X283823214Y-63532438D02*
X283775595Y-63580057D01*
X283775595Y-63580057D02*
X283727976Y-63675295D01*
X283727976Y-63675295D02*
X283727976Y-63770533D01*
X283727976Y-63770533D02*
X283775595Y-63913390D01*
X283775595Y-63913390D02*
X284347023Y-64484819D01*
X284347023Y-64484819D02*
X283727976Y-64484819D01*
X283156547Y-63913390D02*
X283251785Y-63865771D01*
X283251785Y-63865771D02*
X283299404Y-63818152D01*
X283299404Y-63818152D02*
X283347023Y-63722914D01*
X283347023Y-63722914D02*
X283347023Y-63675295D01*
X283347023Y-63675295D02*
X283299404Y-63580057D01*
X283299404Y-63580057D02*
X283251785Y-63532438D01*
X283251785Y-63532438D02*
X283156547Y-63484819D01*
X283156547Y-63484819D02*
X282966071Y-63484819D01*
X282966071Y-63484819D02*
X282870833Y-63532438D01*
X282870833Y-63532438D02*
X282823214Y-63580057D01*
X282823214Y-63580057D02*
X282775595Y-63675295D01*
X282775595Y-63675295D02*
X282775595Y-63722914D01*
X282775595Y-63722914D02*
X282823214Y-63818152D01*
X282823214Y-63818152D02*
X282870833Y-63865771D01*
X282870833Y-63865771D02*
X282966071Y-63913390D01*
X282966071Y-63913390D02*
X283156547Y-63913390D01*
X283156547Y-63913390D02*
X283251785Y-63961009D01*
X283251785Y-63961009D02*
X283299404Y-64008628D01*
X283299404Y-64008628D02*
X283347023Y-64103866D01*
X283347023Y-64103866D02*
X283347023Y-64294342D01*
X283347023Y-64294342D02*
X283299404Y-64389580D01*
X283299404Y-64389580D02*
X283251785Y-64437200D01*
X283251785Y-64437200D02*
X283156547Y-64484819D01*
X283156547Y-64484819D02*
X282966071Y-64484819D01*
X282966071Y-64484819D02*
X282870833Y-64437200D01*
X282870833Y-64437200D02*
X282823214Y-64389580D01*
X282823214Y-64389580D02*
X282775595Y-64294342D01*
X282775595Y-64294342D02*
X282775595Y-64103866D01*
X282775595Y-64103866D02*
X282823214Y-64008628D01*
X282823214Y-64008628D02*
X282870833Y-63961009D01*
X282870833Y-63961009D02*
X282966071Y-63913390D01*
X264679819Y-106075714D02*
X263679819Y-106075714D01*
X263679819Y-106075714D02*
X263679819Y-106313809D01*
X263679819Y-106313809D02*
X263727438Y-106456666D01*
X263727438Y-106456666D02*
X263822676Y-106551904D01*
X263822676Y-106551904D02*
X263917914Y-106599523D01*
X263917914Y-106599523D02*
X264108390Y-106647142D01*
X264108390Y-106647142D02*
X264251247Y-106647142D01*
X264251247Y-106647142D02*
X264441723Y-106599523D01*
X264441723Y-106599523D02*
X264536961Y-106551904D01*
X264536961Y-106551904D02*
X264632200Y-106456666D01*
X264632200Y-106456666D02*
X264679819Y-106313809D01*
X264679819Y-106313809D02*
X264679819Y-106075714D01*
X263679819Y-107504285D02*
X263679819Y-107313809D01*
X263679819Y-107313809D02*
X263727438Y-107218571D01*
X263727438Y-107218571D02*
X263775057Y-107170952D01*
X263775057Y-107170952D02*
X263917914Y-107075714D01*
X263917914Y-107075714D02*
X264108390Y-107028095D01*
X264108390Y-107028095D02*
X264489342Y-107028095D01*
X264489342Y-107028095D02*
X264584580Y-107075714D01*
X264584580Y-107075714D02*
X264632200Y-107123333D01*
X264632200Y-107123333D02*
X264679819Y-107218571D01*
X264679819Y-107218571D02*
X264679819Y-107409047D01*
X264679819Y-107409047D02*
X264632200Y-107504285D01*
X264632200Y-107504285D02*
X264584580Y-107551904D01*
X264584580Y-107551904D02*
X264489342Y-107599523D01*
X264489342Y-107599523D02*
X264251247Y-107599523D01*
X264251247Y-107599523D02*
X264156009Y-107551904D01*
X264156009Y-107551904D02*
X264108390Y-107504285D01*
X264108390Y-107504285D02*
X264060771Y-107409047D01*
X264060771Y-107409047D02*
X264060771Y-107218571D01*
X264060771Y-107218571D02*
X264108390Y-107123333D01*
X264108390Y-107123333D02*
X264156009Y-107075714D01*
X264156009Y-107075714D02*
X264251247Y-107028095D01*
X263679819Y-107932857D02*
X263679819Y-108551904D01*
X263679819Y-108551904D02*
X264060771Y-108218571D01*
X264060771Y-108218571D02*
X264060771Y-108361428D01*
X264060771Y-108361428D02*
X264108390Y-108456666D01*
X264108390Y-108456666D02*
X264156009Y-108504285D01*
X264156009Y-108504285D02*
X264251247Y-108551904D01*
X264251247Y-108551904D02*
X264489342Y-108551904D01*
X264489342Y-108551904D02*
X264584580Y-108504285D01*
X264584580Y-108504285D02*
X264632200Y-108456666D01*
X264632200Y-108456666D02*
X264679819Y-108361428D01*
X264679819Y-108361428D02*
X264679819Y-108075714D01*
X264679819Y-108075714D02*
X264632200Y-107980476D01*
X264632200Y-107980476D02*
X264584580Y-107932857D01*
X87862319Y-78215714D02*
X86862319Y-78215714D01*
X86862319Y-78215714D02*
X86862319Y-78453809D01*
X86862319Y-78453809D02*
X86909938Y-78596666D01*
X86909938Y-78596666D02*
X87005176Y-78691904D01*
X87005176Y-78691904D02*
X87100414Y-78739523D01*
X87100414Y-78739523D02*
X87290890Y-78787142D01*
X87290890Y-78787142D02*
X87433747Y-78787142D01*
X87433747Y-78787142D02*
X87624223Y-78739523D01*
X87624223Y-78739523D02*
X87719461Y-78691904D01*
X87719461Y-78691904D02*
X87814700Y-78596666D01*
X87814700Y-78596666D02*
X87862319Y-78453809D01*
X87862319Y-78453809D02*
X87862319Y-78215714D01*
X86862319Y-79120476D02*
X86862319Y-79739523D01*
X86862319Y-79739523D02*
X87243271Y-79406190D01*
X87243271Y-79406190D02*
X87243271Y-79549047D01*
X87243271Y-79549047D02*
X87290890Y-79644285D01*
X87290890Y-79644285D02*
X87338509Y-79691904D01*
X87338509Y-79691904D02*
X87433747Y-79739523D01*
X87433747Y-79739523D02*
X87671842Y-79739523D01*
X87671842Y-79739523D02*
X87767080Y-79691904D01*
X87767080Y-79691904D02*
X87814700Y-79644285D01*
X87814700Y-79644285D02*
X87862319Y-79549047D01*
X87862319Y-79549047D02*
X87862319Y-79263333D01*
X87862319Y-79263333D02*
X87814700Y-79168095D01*
X87814700Y-79168095D02*
X87767080Y-79120476D01*
X87862319Y-80691904D02*
X87862319Y-80120476D01*
X87862319Y-80406190D02*
X86862319Y-80406190D01*
X86862319Y-80406190D02*
X87005176Y-80310952D01*
X87005176Y-80310952D02*
X87100414Y-80215714D01*
X87100414Y-80215714D02*
X87148033Y-80120476D01*
X57698569Y-78215714D02*
X56698569Y-78215714D01*
X56698569Y-78215714D02*
X56698569Y-78453809D01*
X56698569Y-78453809D02*
X56746188Y-78596666D01*
X56746188Y-78596666D02*
X56841426Y-78691904D01*
X56841426Y-78691904D02*
X56936664Y-78739523D01*
X56936664Y-78739523D02*
X57127140Y-78787142D01*
X57127140Y-78787142D02*
X57269997Y-78787142D01*
X57269997Y-78787142D02*
X57460473Y-78739523D01*
X57460473Y-78739523D02*
X57555711Y-78691904D01*
X57555711Y-78691904D02*
X57650950Y-78596666D01*
X57650950Y-78596666D02*
X57698569Y-78453809D01*
X57698569Y-78453809D02*
X57698569Y-78215714D01*
X56793807Y-79168095D02*
X56746188Y-79215714D01*
X56746188Y-79215714D02*
X56698569Y-79310952D01*
X56698569Y-79310952D02*
X56698569Y-79549047D01*
X56698569Y-79549047D02*
X56746188Y-79644285D01*
X56746188Y-79644285D02*
X56793807Y-79691904D01*
X56793807Y-79691904D02*
X56889045Y-79739523D01*
X56889045Y-79739523D02*
X56984283Y-79739523D01*
X56984283Y-79739523D02*
X57127140Y-79691904D01*
X57127140Y-79691904D02*
X57698569Y-79120476D01*
X57698569Y-79120476D02*
X57698569Y-79739523D01*
X57698569Y-80215714D02*
X57698569Y-80406190D01*
X57698569Y-80406190D02*
X57650950Y-80501428D01*
X57650950Y-80501428D02*
X57603330Y-80549047D01*
X57603330Y-80549047D02*
X57460473Y-80644285D01*
X57460473Y-80644285D02*
X57269997Y-80691904D01*
X57269997Y-80691904D02*
X56889045Y-80691904D01*
X56889045Y-80691904D02*
X56793807Y-80644285D01*
X56793807Y-80644285D02*
X56746188Y-80596666D01*
X56746188Y-80596666D02*
X56698569Y-80501428D01*
X56698569Y-80501428D02*
X56698569Y-80310952D01*
X56698569Y-80310952D02*
X56746188Y-80215714D01*
X56746188Y-80215714D02*
X56793807Y-80168095D01*
X56793807Y-80168095D02*
X56889045Y-80120476D01*
X56889045Y-80120476D02*
X57127140Y-80120476D01*
X57127140Y-80120476D02*
X57222378Y-80168095D01*
X57222378Y-80168095D02*
X57269997Y-80215714D01*
X57269997Y-80215714D02*
X57317616Y-80310952D01*
X57317616Y-80310952D02*
X57317616Y-80501428D01*
X57317616Y-80501428D02*
X57269997Y-80596666D01*
X57269997Y-80596666D02*
X57222378Y-80644285D01*
X57222378Y-80644285D02*
X57127140Y-80691904D01*
X259312319Y-78215714D02*
X258312319Y-78215714D01*
X258312319Y-78215714D02*
X258312319Y-78453809D01*
X258312319Y-78453809D02*
X258359938Y-78596666D01*
X258359938Y-78596666D02*
X258455176Y-78691904D01*
X258455176Y-78691904D02*
X258550414Y-78739523D01*
X258550414Y-78739523D02*
X258740890Y-78787142D01*
X258740890Y-78787142D02*
X258883747Y-78787142D01*
X258883747Y-78787142D02*
X259074223Y-78739523D01*
X259074223Y-78739523D02*
X259169461Y-78691904D01*
X259169461Y-78691904D02*
X259264700Y-78596666D01*
X259264700Y-78596666D02*
X259312319Y-78453809D01*
X259312319Y-78453809D02*
X259312319Y-78215714D01*
X258645652Y-79644285D02*
X259312319Y-79644285D01*
X258264700Y-79406190D02*
X258978985Y-79168095D01*
X258978985Y-79168095D02*
X258978985Y-79787142D01*
X258312319Y-80358571D02*
X258312319Y-80453809D01*
X258312319Y-80453809D02*
X258359938Y-80549047D01*
X258359938Y-80549047D02*
X258407557Y-80596666D01*
X258407557Y-80596666D02*
X258502795Y-80644285D01*
X258502795Y-80644285D02*
X258693271Y-80691904D01*
X258693271Y-80691904D02*
X258931366Y-80691904D01*
X258931366Y-80691904D02*
X259121842Y-80644285D01*
X259121842Y-80644285D02*
X259217080Y-80596666D01*
X259217080Y-80596666D02*
X259264700Y-80549047D01*
X259264700Y-80549047D02*
X259312319Y-80453809D01*
X259312319Y-80453809D02*
X259312319Y-80358571D01*
X259312319Y-80358571D02*
X259264700Y-80263333D01*
X259264700Y-80263333D02*
X259217080Y-80215714D01*
X259217080Y-80215714D02*
X259121842Y-80168095D01*
X259121842Y-80168095D02*
X258931366Y-80120476D01*
X258931366Y-80120476D02*
X258693271Y-80120476D01*
X258693271Y-80120476D02*
X258502795Y-80168095D01*
X258502795Y-80168095D02*
X258407557Y-80215714D01*
X258407557Y-80215714D02*
X258359938Y-80263333D01*
X258359938Y-80263333D02*
X258312319Y-80358571D01*
X116437319Y-97265714D02*
X115437319Y-97265714D01*
X115437319Y-97265714D02*
X115437319Y-97503809D01*
X115437319Y-97503809D02*
X115484938Y-97646666D01*
X115484938Y-97646666D02*
X115580176Y-97741904D01*
X115580176Y-97741904D02*
X115675414Y-97789523D01*
X115675414Y-97789523D02*
X115865890Y-97837142D01*
X115865890Y-97837142D02*
X116008747Y-97837142D01*
X116008747Y-97837142D02*
X116199223Y-97789523D01*
X116199223Y-97789523D02*
X116294461Y-97741904D01*
X116294461Y-97741904D02*
X116389700Y-97646666D01*
X116389700Y-97646666D02*
X116437319Y-97503809D01*
X116437319Y-97503809D02*
X116437319Y-97265714D01*
X115770652Y-98694285D02*
X116437319Y-98694285D01*
X115389700Y-98456190D02*
X116103985Y-98218095D01*
X116103985Y-98218095D02*
X116103985Y-98837142D01*
X115437319Y-99122857D02*
X115437319Y-99789523D01*
X115437319Y-99789523D02*
X116437319Y-99360952D01*
X187874819Y-40591905D02*
X186874819Y-40591905D01*
X186874819Y-40591905D02*
X186874819Y-40830000D01*
X186874819Y-40830000D02*
X186922438Y-40972857D01*
X186922438Y-40972857D02*
X187017676Y-41068095D01*
X187017676Y-41068095D02*
X187112914Y-41115714D01*
X187112914Y-41115714D02*
X187303390Y-41163333D01*
X187303390Y-41163333D02*
X187446247Y-41163333D01*
X187446247Y-41163333D02*
X187636723Y-41115714D01*
X187636723Y-41115714D02*
X187731961Y-41068095D01*
X187731961Y-41068095D02*
X187827200Y-40972857D01*
X187827200Y-40972857D02*
X187874819Y-40830000D01*
X187874819Y-40830000D02*
X187874819Y-40591905D01*
X187874819Y-41639524D02*
X187874819Y-41830000D01*
X187874819Y-41830000D02*
X187827200Y-41925238D01*
X187827200Y-41925238D02*
X187779580Y-41972857D01*
X187779580Y-41972857D02*
X187636723Y-42068095D01*
X187636723Y-42068095D02*
X187446247Y-42115714D01*
X187446247Y-42115714D02*
X187065295Y-42115714D01*
X187065295Y-42115714D02*
X186970057Y-42068095D01*
X186970057Y-42068095D02*
X186922438Y-42020476D01*
X186922438Y-42020476D02*
X186874819Y-41925238D01*
X186874819Y-41925238D02*
X186874819Y-41734762D01*
X186874819Y-41734762D02*
X186922438Y-41639524D01*
X186922438Y-41639524D02*
X186970057Y-41591905D01*
X186970057Y-41591905D02*
X187065295Y-41544286D01*
X187065295Y-41544286D02*
X187303390Y-41544286D01*
X187303390Y-41544286D02*
X187398628Y-41591905D01*
X187398628Y-41591905D02*
X187446247Y-41639524D01*
X187446247Y-41639524D02*
X187493866Y-41734762D01*
X187493866Y-41734762D02*
X187493866Y-41925238D01*
X187493866Y-41925238D02*
X187446247Y-42020476D01*
X187446247Y-42020476D02*
X187398628Y-42068095D01*
X187398628Y-42068095D02*
X187303390Y-42115714D01*
X78337319Y-97265714D02*
X77337319Y-97265714D01*
X77337319Y-97265714D02*
X77337319Y-97503809D01*
X77337319Y-97503809D02*
X77384938Y-97646666D01*
X77384938Y-97646666D02*
X77480176Y-97741904D01*
X77480176Y-97741904D02*
X77575414Y-97789523D01*
X77575414Y-97789523D02*
X77765890Y-97837142D01*
X77765890Y-97837142D02*
X77908747Y-97837142D01*
X77908747Y-97837142D02*
X78099223Y-97789523D01*
X78099223Y-97789523D02*
X78194461Y-97741904D01*
X78194461Y-97741904D02*
X78289700Y-97646666D01*
X78289700Y-97646666D02*
X78337319Y-97503809D01*
X78337319Y-97503809D02*
X78337319Y-97265714D01*
X77670652Y-98694285D02*
X78337319Y-98694285D01*
X77289700Y-98456190D02*
X78003985Y-98218095D01*
X78003985Y-98218095D02*
X78003985Y-98837142D01*
X77337319Y-99694285D02*
X77337319Y-99218095D01*
X77337319Y-99218095D02*
X77813509Y-99170476D01*
X77813509Y-99170476D02*
X77765890Y-99218095D01*
X77765890Y-99218095D02*
X77718271Y-99313333D01*
X77718271Y-99313333D02*
X77718271Y-99551428D01*
X77718271Y-99551428D02*
X77765890Y-99646666D01*
X77765890Y-99646666D02*
X77813509Y-99694285D01*
X77813509Y-99694285D02*
X77908747Y-99741904D01*
X77908747Y-99741904D02*
X78146842Y-99741904D01*
X78146842Y-99741904D02*
X78242080Y-99694285D01*
X78242080Y-99694285D02*
X78289700Y-99646666D01*
X78289700Y-99646666D02*
X78337319Y-99551428D01*
X78337319Y-99551428D02*
X78337319Y-99313333D01*
X78337319Y-99313333D02*
X78289700Y-99218095D01*
X78289700Y-99218095D02*
X78242080Y-99170476D01*
X249787319Y-97265714D02*
X248787319Y-97265714D01*
X248787319Y-97265714D02*
X248787319Y-97503809D01*
X248787319Y-97503809D02*
X248834938Y-97646666D01*
X248834938Y-97646666D02*
X248930176Y-97741904D01*
X248930176Y-97741904D02*
X249025414Y-97789523D01*
X249025414Y-97789523D02*
X249215890Y-97837142D01*
X249215890Y-97837142D02*
X249358747Y-97837142D01*
X249358747Y-97837142D02*
X249549223Y-97789523D01*
X249549223Y-97789523D02*
X249644461Y-97741904D01*
X249644461Y-97741904D02*
X249739700Y-97646666D01*
X249739700Y-97646666D02*
X249787319Y-97503809D01*
X249787319Y-97503809D02*
X249787319Y-97265714D01*
X248787319Y-98741904D02*
X248787319Y-98265714D01*
X248787319Y-98265714D02*
X249263509Y-98218095D01*
X249263509Y-98218095D02*
X249215890Y-98265714D01*
X249215890Y-98265714D02*
X249168271Y-98360952D01*
X249168271Y-98360952D02*
X249168271Y-98599047D01*
X249168271Y-98599047D02*
X249215890Y-98694285D01*
X249215890Y-98694285D02*
X249263509Y-98741904D01*
X249263509Y-98741904D02*
X249358747Y-98789523D01*
X249358747Y-98789523D02*
X249596842Y-98789523D01*
X249596842Y-98789523D02*
X249692080Y-98741904D01*
X249692080Y-98741904D02*
X249739700Y-98694285D01*
X249739700Y-98694285D02*
X249787319Y-98599047D01*
X249787319Y-98599047D02*
X249787319Y-98360952D01*
X249787319Y-98360952D02*
X249739700Y-98265714D01*
X249739700Y-98265714D02*
X249692080Y-98218095D01*
X249120652Y-99646666D02*
X249787319Y-99646666D01*
X248739700Y-99408571D02*
X249453985Y-99170476D01*
X249453985Y-99170476D02*
X249453985Y-99789523D01*
X149774819Y-40591905D02*
X148774819Y-40591905D01*
X148774819Y-40591905D02*
X148774819Y-40830000D01*
X148774819Y-40830000D02*
X148822438Y-40972857D01*
X148822438Y-40972857D02*
X148917676Y-41068095D01*
X148917676Y-41068095D02*
X149012914Y-41115714D01*
X149012914Y-41115714D02*
X149203390Y-41163333D01*
X149203390Y-41163333D02*
X149346247Y-41163333D01*
X149346247Y-41163333D02*
X149536723Y-41115714D01*
X149536723Y-41115714D02*
X149631961Y-41068095D01*
X149631961Y-41068095D02*
X149727200Y-40972857D01*
X149727200Y-40972857D02*
X149774819Y-40830000D01*
X149774819Y-40830000D02*
X149774819Y-40591905D01*
X148774819Y-41496667D02*
X148774819Y-42163333D01*
X148774819Y-42163333D02*
X149774819Y-41734762D01*
X230737319Y-97265714D02*
X229737319Y-97265714D01*
X229737319Y-97265714D02*
X229737319Y-97503809D01*
X229737319Y-97503809D02*
X229784938Y-97646666D01*
X229784938Y-97646666D02*
X229880176Y-97741904D01*
X229880176Y-97741904D02*
X229975414Y-97789523D01*
X229975414Y-97789523D02*
X230165890Y-97837142D01*
X230165890Y-97837142D02*
X230308747Y-97837142D01*
X230308747Y-97837142D02*
X230499223Y-97789523D01*
X230499223Y-97789523D02*
X230594461Y-97741904D01*
X230594461Y-97741904D02*
X230689700Y-97646666D01*
X230689700Y-97646666D02*
X230737319Y-97503809D01*
X230737319Y-97503809D02*
X230737319Y-97265714D01*
X229737319Y-98741904D02*
X229737319Y-98265714D01*
X229737319Y-98265714D02*
X230213509Y-98218095D01*
X230213509Y-98218095D02*
X230165890Y-98265714D01*
X230165890Y-98265714D02*
X230118271Y-98360952D01*
X230118271Y-98360952D02*
X230118271Y-98599047D01*
X230118271Y-98599047D02*
X230165890Y-98694285D01*
X230165890Y-98694285D02*
X230213509Y-98741904D01*
X230213509Y-98741904D02*
X230308747Y-98789523D01*
X230308747Y-98789523D02*
X230546842Y-98789523D01*
X230546842Y-98789523D02*
X230642080Y-98741904D01*
X230642080Y-98741904D02*
X230689700Y-98694285D01*
X230689700Y-98694285D02*
X230737319Y-98599047D01*
X230737319Y-98599047D02*
X230737319Y-98360952D01*
X230737319Y-98360952D02*
X230689700Y-98265714D01*
X230689700Y-98265714D02*
X230642080Y-98218095D01*
X229737319Y-99122857D02*
X229737319Y-99741904D01*
X229737319Y-99741904D02*
X230118271Y-99408571D01*
X230118271Y-99408571D02*
X230118271Y-99551428D01*
X230118271Y-99551428D02*
X230165890Y-99646666D01*
X230165890Y-99646666D02*
X230213509Y-99694285D01*
X230213509Y-99694285D02*
X230308747Y-99741904D01*
X230308747Y-99741904D02*
X230546842Y-99741904D01*
X230546842Y-99741904D02*
X230642080Y-99694285D01*
X230642080Y-99694285D02*
X230689700Y-99646666D01*
X230689700Y-99646666D02*
X230737319Y-99551428D01*
X230737319Y-99551428D02*
X230737319Y-99265714D01*
X230737319Y-99265714D02*
X230689700Y-99170476D01*
X230689700Y-99170476D02*
X230642080Y-99122857D01*
X216449819Y-59165714D02*
X215449819Y-59165714D01*
X215449819Y-59165714D02*
X215449819Y-59403809D01*
X215449819Y-59403809D02*
X215497438Y-59546666D01*
X215497438Y-59546666D02*
X215592676Y-59641904D01*
X215592676Y-59641904D02*
X215687914Y-59689523D01*
X215687914Y-59689523D02*
X215878390Y-59737142D01*
X215878390Y-59737142D02*
X216021247Y-59737142D01*
X216021247Y-59737142D02*
X216211723Y-59689523D01*
X216211723Y-59689523D02*
X216306961Y-59641904D01*
X216306961Y-59641904D02*
X216402200Y-59546666D01*
X216402200Y-59546666D02*
X216449819Y-59403809D01*
X216449819Y-59403809D02*
X216449819Y-59165714D01*
X215545057Y-60118095D02*
X215497438Y-60165714D01*
X215497438Y-60165714D02*
X215449819Y-60260952D01*
X215449819Y-60260952D02*
X215449819Y-60499047D01*
X215449819Y-60499047D02*
X215497438Y-60594285D01*
X215497438Y-60594285D02*
X215545057Y-60641904D01*
X215545057Y-60641904D02*
X215640295Y-60689523D01*
X215640295Y-60689523D02*
X215735533Y-60689523D01*
X215735533Y-60689523D02*
X215878390Y-60641904D01*
X215878390Y-60641904D02*
X216449819Y-60070476D01*
X216449819Y-60070476D02*
X216449819Y-60689523D01*
X215783152Y-61546666D02*
X216449819Y-61546666D01*
X215402200Y-61308571D02*
X216116485Y-61070476D01*
X216116485Y-61070476D02*
X216116485Y-61689523D01*
X240262319Y-78215714D02*
X239262319Y-78215714D01*
X239262319Y-78215714D02*
X239262319Y-78453809D01*
X239262319Y-78453809D02*
X239309938Y-78596666D01*
X239309938Y-78596666D02*
X239405176Y-78691904D01*
X239405176Y-78691904D02*
X239500414Y-78739523D01*
X239500414Y-78739523D02*
X239690890Y-78787142D01*
X239690890Y-78787142D02*
X239833747Y-78787142D01*
X239833747Y-78787142D02*
X240024223Y-78739523D01*
X240024223Y-78739523D02*
X240119461Y-78691904D01*
X240119461Y-78691904D02*
X240214700Y-78596666D01*
X240214700Y-78596666D02*
X240262319Y-78453809D01*
X240262319Y-78453809D02*
X240262319Y-78215714D01*
X239262319Y-79120476D02*
X239262319Y-79739523D01*
X239262319Y-79739523D02*
X239643271Y-79406190D01*
X239643271Y-79406190D02*
X239643271Y-79549047D01*
X239643271Y-79549047D02*
X239690890Y-79644285D01*
X239690890Y-79644285D02*
X239738509Y-79691904D01*
X239738509Y-79691904D02*
X239833747Y-79739523D01*
X239833747Y-79739523D02*
X240071842Y-79739523D01*
X240071842Y-79739523D02*
X240167080Y-79691904D01*
X240167080Y-79691904D02*
X240214700Y-79644285D01*
X240214700Y-79644285D02*
X240262319Y-79549047D01*
X240262319Y-79549047D02*
X240262319Y-79263333D01*
X240262319Y-79263333D02*
X240214700Y-79168095D01*
X240214700Y-79168095D02*
X240167080Y-79120476D01*
X240262319Y-80215714D02*
X240262319Y-80406190D01*
X240262319Y-80406190D02*
X240214700Y-80501428D01*
X240214700Y-80501428D02*
X240167080Y-80549047D01*
X240167080Y-80549047D02*
X240024223Y-80644285D01*
X240024223Y-80644285D02*
X239833747Y-80691904D01*
X239833747Y-80691904D02*
X239452795Y-80691904D01*
X239452795Y-80691904D02*
X239357557Y-80644285D01*
X239357557Y-80644285D02*
X239309938Y-80596666D01*
X239309938Y-80596666D02*
X239262319Y-80501428D01*
X239262319Y-80501428D02*
X239262319Y-80310952D01*
X239262319Y-80310952D02*
X239309938Y-80215714D01*
X239309938Y-80215714D02*
X239357557Y-80168095D01*
X239357557Y-80168095D02*
X239452795Y-80120476D01*
X239452795Y-80120476D02*
X239690890Y-80120476D01*
X239690890Y-80120476D02*
X239786128Y-80168095D01*
X239786128Y-80168095D02*
X239833747Y-80215714D01*
X239833747Y-80215714D02*
X239881366Y-80310952D01*
X239881366Y-80310952D02*
X239881366Y-80501428D01*
X239881366Y-80501428D02*
X239833747Y-80596666D01*
X239833747Y-80596666D02*
X239786128Y-80644285D01*
X239786128Y-80644285D02*
X239690890Y-80691904D01*
X159299819Y-59165714D02*
X158299819Y-59165714D01*
X158299819Y-59165714D02*
X158299819Y-59403809D01*
X158299819Y-59403809D02*
X158347438Y-59546666D01*
X158347438Y-59546666D02*
X158442676Y-59641904D01*
X158442676Y-59641904D02*
X158537914Y-59689523D01*
X158537914Y-59689523D02*
X158728390Y-59737142D01*
X158728390Y-59737142D02*
X158871247Y-59737142D01*
X158871247Y-59737142D02*
X159061723Y-59689523D01*
X159061723Y-59689523D02*
X159156961Y-59641904D01*
X159156961Y-59641904D02*
X159252200Y-59546666D01*
X159252200Y-59546666D02*
X159299819Y-59403809D01*
X159299819Y-59403809D02*
X159299819Y-59165714D01*
X158395057Y-60118095D02*
X158347438Y-60165714D01*
X158347438Y-60165714D02*
X158299819Y-60260952D01*
X158299819Y-60260952D02*
X158299819Y-60499047D01*
X158299819Y-60499047D02*
X158347438Y-60594285D01*
X158347438Y-60594285D02*
X158395057Y-60641904D01*
X158395057Y-60641904D02*
X158490295Y-60689523D01*
X158490295Y-60689523D02*
X158585533Y-60689523D01*
X158585533Y-60689523D02*
X158728390Y-60641904D01*
X158728390Y-60641904D02*
X159299819Y-60070476D01*
X159299819Y-60070476D02*
X159299819Y-60689523D01*
X159299819Y-61641904D02*
X159299819Y-61070476D01*
X159299819Y-61356190D02*
X158299819Y-61356190D01*
X158299819Y-61356190D02*
X158442676Y-61260952D01*
X158442676Y-61260952D02*
X158537914Y-61165714D01*
X158537914Y-61165714D02*
X158585533Y-61070476D01*
X206924819Y-40115714D02*
X205924819Y-40115714D01*
X205924819Y-40115714D02*
X205924819Y-40353809D01*
X205924819Y-40353809D02*
X205972438Y-40496666D01*
X205972438Y-40496666D02*
X206067676Y-40591904D01*
X206067676Y-40591904D02*
X206162914Y-40639523D01*
X206162914Y-40639523D02*
X206353390Y-40687142D01*
X206353390Y-40687142D02*
X206496247Y-40687142D01*
X206496247Y-40687142D02*
X206686723Y-40639523D01*
X206686723Y-40639523D02*
X206781961Y-40591904D01*
X206781961Y-40591904D02*
X206877200Y-40496666D01*
X206877200Y-40496666D02*
X206924819Y-40353809D01*
X206924819Y-40353809D02*
X206924819Y-40115714D01*
X206924819Y-41639523D02*
X206924819Y-41068095D01*
X206924819Y-41353809D02*
X205924819Y-41353809D01*
X205924819Y-41353809D02*
X206067676Y-41258571D01*
X206067676Y-41258571D02*
X206162914Y-41163333D01*
X206162914Y-41163333D02*
X206210533Y-41068095D01*
X205924819Y-42258571D02*
X205924819Y-42353809D01*
X205924819Y-42353809D02*
X205972438Y-42449047D01*
X205972438Y-42449047D02*
X206020057Y-42496666D01*
X206020057Y-42496666D02*
X206115295Y-42544285D01*
X206115295Y-42544285D02*
X206305771Y-42591904D01*
X206305771Y-42591904D02*
X206543866Y-42591904D01*
X206543866Y-42591904D02*
X206734342Y-42544285D01*
X206734342Y-42544285D02*
X206829580Y-42496666D01*
X206829580Y-42496666D02*
X206877200Y-42449047D01*
X206877200Y-42449047D02*
X206924819Y-42353809D01*
X206924819Y-42353809D02*
X206924819Y-42258571D01*
X206924819Y-42258571D02*
X206877200Y-42163333D01*
X206877200Y-42163333D02*
X206829580Y-42115714D01*
X206829580Y-42115714D02*
X206734342Y-42068095D01*
X206734342Y-42068095D02*
X206543866Y-42020476D01*
X206543866Y-42020476D02*
X206305771Y-42020476D01*
X206305771Y-42020476D02*
X206115295Y-42068095D01*
X206115295Y-42068095D02*
X206020057Y-42115714D01*
X206020057Y-42115714D02*
X205972438Y-42163333D01*
X205972438Y-42163333D02*
X205924819Y-42258571D01*
X60684819Y-34131905D02*
X59684819Y-34131905D01*
X59684819Y-34131905D02*
X59684819Y-34370000D01*
X59684819Y-34370000D02*
X59732438Y-34512857D01*
X59732438Y-34512857D02*
X59827676Y-34608095D01*
X59827676Y-34608095D02*
X59922914Y-34655714D01*
X59922914Y-34655714D02*
X60113390Y-34703333D01*
X60113390Y-34703333D02*
X60256247Y-34703333D01*
X60256247Y-34703333D02*
X60446723Y-34655714D01*
X60446723Y-34655714D02*
X60541961Y-34608095D01*
X60541961Y-34608095D02*
X60637200Y-34512857D01*
X60637200Y-34512857D02*
X60684819Y-34370000D01*
X60684819Y-34370000D02*
X60684819Y-34131905D01*
X59780057Y-35084286D02*
X59732438Y-35131905D01*
X59732438Y-35131905D02*
X59684819Y-35227143D01*
X59684819Y-35227143D02*
X59684819Y-35465238D01*
X59684819Y-35465238D02*
X59732438Y-35560476D01*
X59732438Y-35560476D02*
X59780057Y-35608095D01*
X59780057Y-35608095D02*
X59875295Y-35655714D01*
X59875295Y-35655714D02*
X59970533Y-35655714D01*
X59970533Y-35655714D02*
X60113390Y-35608095D01*
X60113390Y-35608095D02*
X60684819Y-35036667D01*
X60684819Y-35036667D02*
X60684819Y-35655714D01*
X235499819Y-59165714D02*
X234499819Y-59165714D01*
X234499819Y-59165714D02*
X234499819Y-59403809D01*
X234499819Y-59403809D02*
X234547438Y-59546666D01*
X234547438Y-59546666D02*
X234642676Y-59641904D01*
X234642676Y-59641904D02*
X234737914Y-59689523D01*
X234737914Y-59689523D02*
X234928390Y-59737142D01*
X234928390Y-59737142D02*
X235071247Y-59737142D01*
X235071247Y-59737142D02*
X235261723Y-59689523D01*
X235261723Y-59689523D02*
X235356961Y-59641904D01*
X235356961Y-59641904D02*
X235452200Y-59546666D01*
X235452200Y-59546666D02*
X235499819Y-59403809D01*
X235499819Y-59403809D02*
X235499819Y-59165714D01*
X234595057Y-60118095D02*
X234547438Y-60165714D01*
X234547438Y-60165714D02*
X234499819Y-60260952D01*
X234499819Y-60260952D02*
X234499819Y-60499047D01*
X234499819Y-60499047D02*
X234547438Y-60594285D01*
X234547438Y-60594285D02*
X234595057Y-60641904D01*
X234595057Y-60641904D02*
X234690295Y-60689523D01*
X234690295Y-60689523D02*
X234785533Y-60689523D01*
X234785533Y-60689523D02*
X234928390Y-60641904D01*
X234928390Y-60641904D02*
X235499819Y-60070476D01*
X235499819Y-60070476D02*
X235499819Y-60689523D01*
X234499819Y-61594285D02*
X234499819Y-61118095D01*
X234499819Y-61118095D02*
X234976009Y-61070476D01*
X234976009Y-61070476D02*
X234928390Y-61118095D01*
X234928390Y-61118095D02*
X234880771Y-61213333D01*
X234880771Y-61213333D02*
X234880771Y-61451428D01*
X234880771Y-61451428D02*
X234928390Y-61546666D01*
X234928390Y-61546666D02*
X234976009Y-61594285D01*
X234976009Y-61594285D02*
X235071247Y-61641904D01*
X235071247Y-61641904D02*
X235309342Y-61641904D01*
X235309342Y-61641904D02*
X235404580Y-61594285D01*
X235404580Y-61594285D02*
X235452200Y-61546666D01*
X235452200Y-61546666D02*
X235499819Y-61451428D01*
X235499819Y-61451428D02*
X235499819Y-61213333D01*
X235499819Y-61213333D02*
X235452200Y-61118095D01*
X235452200Y-61118095D02*
X235404580Y-61070476D01*
X73892319Y-97265714D02*
X72892319Y-97265714D01*
X72892319Y-97265714D02*
X72892319Y-97503809D01*
X72892319Y-97503809D02*
X72939938Y-97646666D01*
X72939938Y-97646666D02*
X73035176Y-97741904D01*
X73035176Y-97741904D02*
X73130414Y-97789523D01*
X73130414Y-97789523D02*
X73320890Y-97837142D01*
X73320890Y-97837142D02*
X73463747Y-97837142D01*
X73463747Y-97837142D02*
X73654223Y-97789523D01*
X73654223Y-97789523D02*
X73749461Y-97741904D01*
X73749461Y-97741904D02*
X73844700Y-97646666D01*
X73844700Y-97646666D02*
X73892319Y-97503809D01*
X73892319Y-97503809D02*
X73892319Y-97265714D01*
X73225652Y-98694285D02*
X73892319Y-98694285D01*
X72844700Y-98456190D02*
X73558985Y-98218095D01*
X73558985Y-98218095D02*
X73558985Y-98837142D01*
X73225652Y-99646666D02*
X73892319Y-99646666D01*
X72844700Y-99408571D02*
X73558985Y-99170476D01*
X73558985Y-99170476D02*
X73558985Y-99789523D01*
X274204819Y-43415714D02*
X273204819Y-43415714D01*
X273204819Y-43415714D02*
X273204819Y-43653809D01*
X273204819Y-43653809D02*
X273252438Y-43796666D01*
X273252438Y-43796666D02*
X273347676Y-43891904D01*
X273347676Y-43891904D02*
X273442914Y-43939523D01*
X273442914Y-43939523D02*
X273633390Y-43987142D01*
X273633390Y-43987142D02*
X273776247Y-43987142D01*
X273776247Y-43987142D02*
X273966723Y-43939523D01*
X273966723Y-43939523D02*
X274061961Y-43891904D01*
X274061961Y-43891904D02*
X274157200Y-43796666D01*
X274157200Y-43796666D02*
X274204819Y-43653809D01*
X274204819Y-43653809D02*
X274204819Y-43415714D01*
X274204819Y-44939523D02*
X274204819Y-44368095D01*
X274204819Y-44653809D02*
X273204819Y-44653809D01*
X273204819Y-44653809D02*
X273347676Y-44558571D01*
X273347676Y-44558571D02*
X273442914Y-44463333D01*
X273442914Y-44463333D02*
X273490533Y-44368095D01*
X273538152Y-45796666D02*
X274204819Y-45796666D01*
X273157200Y-45558571D02*
X273871485Y-45320476D01*
X273871485Y-45320476D02*
X273871485Y-45939523D01*
X51317319Y-106075714D02*
X50317319Y-106075714D01*
X50317319Y-106075714D02*
X50317319Y-106313809D01*
X50317319Y-106313809D02*
X50364938Y-106456666D01*
X50364938Y-106456666D02*
X50460176Y-106551904D01*
X50460176Y-106551904D02*
X50555414Y-106599523D01*
X50555414Y-106599523D02*
X50745890Y-106647142D01*
X50745890Y-106647142D02*
X50888747Y-106647142D01*
X50888747Y-106647142D02*
X51079223Y-106599523D01*
X51079223Y-106599523D02*
X51174461Y-106551904D01*
X51174461Y-106551904D02*
X51269700Y-106456666D01*
X51269700Y-106456666D02*
X51317319Y-106313809D01*
X51317319Y-106313809D02*
X51317319Y-106075714D01*
X50317319Y-107551904D02*
X50317319Y-107075714D01*
X50317319Y-107075714D02*
X50793509Y-107028095D01*
X50793509Y-107028095D02*
X50745890Y-107075714D01*
X50745890Y-107075714D02*
X50698271Y-107170952D01*
X50698271Y-107170952D02*
X50698271Y-107409047D01*
X50698271Y-107409047D02*
X50745890Y-107504285D01*
X50745890Y-107504285D02*
X50793509Y-107551904D01*
X50793509Y-107551904D02*
X50888747Y-107599523D01*
X50888747Y-107599523D02*
X51126842Y-107599523D01*
X51126842Y-107599523D02*
X51222080Y-107551904D01*
X51222080Y-107551904D02*
X51269700Y-107504285D01*
X51269700Y-107504285D02*
X51317319Y-107409047D01*
X51317319Y-107409047D02*
X51317319Y-107170952D01*
X51317319Y-107170952D02*
X51269700Y-107075714D01*
X51269700Y-107075714D02*
X51222080Y-107028095D01*
X50317319Y-107932857D02*
X50317319Y-108599523D01*
X50317319Y-108599523D02*
X51317319Y-108170952D01*
X64049819Y-59165714D02*
X63049819Y-59165714D01*
X63049819Y-59165714D02*
X63049819Y-59403809D01*
X63049819Y-59403809D02*
X63097438Y-59546666D01*
X63097438Y-59546666D02*
X63192676Y-59641904D01*
X63192676Y-59641904D02*
X63287914Y-59689523D01*
X63287914Y-59689523D02*
X63478390Y-59737142D01*
X63478390Y-59737142D02*
X63621247Y-59737142D01*
X63621247Y-59737142D02*
X63811723Y-59689523D01*
X63811723Y-59689523D02*
X63906961Y-59641904D01*
X63906961Y-59641904D02*
X64002200Y-59546666D01*
X64002200Y-59546666D02*
X64049819Y-59403809D01*
X64049819Y-59403809D02*
X64049819Y-59165714D01*
X64049819Y-60689523D02*
X64049819Y-60118095D01*
X64049819Y-60403809D02*
X63049819Y-60403809D01*
X63049819Y-60403809D02*
X63192676Y-60308571D01*
X63192676Y-60308571D02*
X63287914Y-60213333D01*
X63287914Y-60213333D02*
X63335533Y-60118095D01*
X63049819Y-61546666D02*
X63049819Y-61356190D01*
X63049819Y-61356190D02*
X63097438Y-61260952D01*
X63097438Y-61260952D02*
X63145057Y-61213333D01*
X63145057Y-61213333D02*
X63287914Y-61118095D01*
X63287914Y-61118095D02*
X63478390Y-61070476D01*
X63478390Y-61070476D02*
X63859342Y-61070476D01*
X63859342Y-61070476D02*
X63954580Y-61118095D01*
X63954580Y-61118095D02*
X64002200Y-61165714D01*
X64002200Y-61165714D02*
X64049819Y-61260952D01*
X64049819Y-61260952D02*
X64049819Y-61451428D01*
X64049819Y-61451428D02*
X64002200Y-61546666D01*
X64002200Y-61546666D02*
X63954580Y-61594285D01*
X63954580Y-61594285D02*
X63859342Y-61641904D01*
X63859342Y-61641904D02*
X63621247Y-61641904D01*
X63621247Y-61641904D02*
X63526009Y-61594285D01*
X63526009Y-61594285D02*
X63478390Y-61546666D01*
X63478390Y-61546666D02*
X63430771Y-61451428D01*
X63430771Y-61451428D02*
X63430771Y-61260952D01*
X63430771Y-61260952D02*
X63478390Y-61165714D01*
X63478390Y-61165714D02*
X63526009Y-61118095D01*
X63526009Y-61118095D02*
X63621247Y-61070476D01*
X264074819Y-40115714D02*
X263074819Y-40115714D01*
X263074819Y-40115714D02*
X263074819Y-40353809D01*
X263074819Y-40353809D02*
X263122438Y-40496666D01*
X263122438Y-40496666D02*
X263217676Y-40591904D01*
X263217676Y-40591904D02*
X263312914Y-40639523D01*
X263312914Y-40639523D02*
X263503390Y-40687142D01*
X263503390Y-40687142D02*
X263646247Y-40687142D01*
X263646247Y-40687142D02*
X263836723Y-40639523D01*
X263836723Y-40639523D02*
X263931961Y-40591904D01*
X263931961Y-40591904D02*
X264027200Y-40496666D01*
X264027200Y-40496666D02*
X264074819Y-40353809D01*
X264074819Y-40353809D02*
X264074819Y-40115714D01*
X264074819Y-41639523D02*
X264074819Y-41068095D01*
X264074819Y-41353809D02*
X263074819Y-41353809D01*
X263074819Y-41353809D02*
X263217676Y-41258571D01*
X263217676Y-41258571D02*
X263312914Y-41163333D01*
X263312914Y-41163333D02*
X263360533Y-41068095D01*
X263074819Y-41972857D02*
X263074819Y-42591904D01*
X263074819Y-42591904D02*
X263455771Y-42258571D01*
X263455771Y-42258571D02*
X263455771Y-42401428D01*
X263455771Y-42401428D02*
X263503390Y-42496666D01*
X263503390Y-42496666D02*
X263551009Y-42544285D01*
X263551009Y-42544285D02*
X263646247Y-42591904D01*
X263646247Y-42591904D02*
X263884342Y-42591904D01*
X263884342Y-42591904D02*
X263979580Y-42544285D01*
X263979580Y-42544285D02*
X264027200Y-42496666D01*
X264027200Y-42496666D02*
X264074819Y-42401428D01*
X264074819Y-42401428D02*
X264074819Y-42115714D01*
X264074819Y-42115714D02*
X264027200Y-42020476D01*
X264027200Y-42020476D02*
X263979580Y-41972857D01*
X69447319Y-97265714D02*
X68447319Y-97265714D01*
X68447319Y-97265714D02*
X68447319Y-97503809D01*
X68447319Y-97503809D02*
X68494938Y-97646666D01*
X68494938Y-97646666D02*
X68590176Y-97741904D01*
X68590176Y-97741904D02*
X68685414Y-97789523D01*
X68685414Y-97789523D02*
X68875890Y-97837142D01*
X68875890Y-97837142D02*
X69018747Y-97837142D01*
X69018747Y-97837142D02*
X69209223Y-97789523D01*
X69209223Y-97789523D02*
X69304461Y-97741904D01*
X69304461Y-97741904D02*
X69399700Y-97646666D01*
X69399700Y-97646666D02*
X69447319Y-97503809D01*
X69447319Y-97503809D02*
X69447319Y-97265714D01*
X68780652Y-98694285D02*
X69447319Y-98694285D01*
X68399700Y-98456190D02*
X69113985Y-98218095D01*
X69113985Y-98218095D02*
X69113985Y-98837142D01*
X68447319Y-99122857D02*
X68447319Y-99741904D01*
X68447319Y-99741904D02*
X68828271Y-99408571D01*
X68828271Y-99408571D02*
X68828271Y-99551428D01*
X68828271Y-99551428D02*
X68875890Y-99646666D01*
X68875890Y-99646666D02*
X68923509Y-99694285D01*
X68923509Y-99694285D02*
X69018747Y-99741904D01*
X69018747Y-99741904D02*
X69256842Y-99741904D01*
X69256842Y-99741904D02*
X69352080Y-99694285D01*
X69352080Y-99694285D02*
X69399700Y-99646666D01*
X69399700Y-99646666D02*
X69447319Y-99551428D01*
X69447319Y-99551428D02*
X69447319Y-99265714D01*
X69447319Y-99265714D02*
X69399700Y-99170476D01*
X69399700Y-99170476D02*
X69352080Y-99122857D01*
X40237319Y-59165714D02*
X39237319Y-59165714D01*
X39237319Y-59165714D02*
X39237319Y-59403809D01*
X39237319Y-59403809D02*
X39284938Y-59546666D01*
X39284938Y-59546666D02*
X39380176Y-59641904D01*
X39380176Y-59641904D02*
X39475414Y-59689523D01*
X39475414Y-59689523D02*
X39665890Y-59737142D01*
X39665890Y-59737142D02*
X39808747Y-59737142D01*
X39808747Y-59737142D02*
X39999223Y-59689523D01*
X39999223Y-59689523D02*
X40094461Y-59641904D01*
X40094461Y-59641904D02*
X40189700Y-59546666D01*
X40189700Y-59546666D02*
X40237319Y-59403809D01*
X40237319Y-59403809D02*
X40237319Y-59165714D01*
X40237319Y-60689523D02*
X40237319Y-60118095D01*
X40237319Y-60403809D02*
X39237319Y-60403809D01*
X39237319Y-60403809D02*
X39380176Y-60308571D01*
X39380176Y-60308571D02*
X39475414Y-60213333D01*
X39475414Y-60213333D02*
X39523033Y-60118095D01*
X39237319Y-61594285D02*
X39237319Y-61118095D01*
X39237319Y-61118095D02*
X39713509Y-61070476D01*
X39713509Y-61070476D02*
X39665890Y-61118095D01*
X39665890Y-61118095D02*
X39618271Y-61213333D01*
X39618271Y-61213333D02*
X39618271Y-61451428D01*
X39618271Y-61451428D02*
X39665890Y-61546666D01*
X39665890Y-61546666D02*
X39713509Y-61594285D01*
X39713509Y-61594285D02*
X39808747Y-61641904D01*
X39808747Y-61641904D02*
X40046842Y-61641904D01*
X40046842Y-61641904D02*
X40142080Y-61594285D01*
X40142080Y-61594285D02*
X40189700Y-61546666D01*
X40189700Y-61546666D02*
X40237319Y-61451428D01*
X40237319Y-61451428D02*
X40237319Y-61213333D01*
X40237319Y-61213333D02*
X40189700Y-61118095D01*
X40189700Y-61118095D02*
X40142080Y-61070476D01*
X130724819Y-40591905D02*
X129724819Y-40591905D01*
X129724819Y-40591905D02*
X129724819Y-40830000D01*
X129724819Y-40830000D02*
X129772438Y-40972857D01*
X129772438Y-40972857D02*
X129867676Y-41068095D01*
X129867676Y-41068095D02*
X129962914Y-41115714D01*
X129962914Y-41115714D02*
X130153390Y-41163333D01*
X130153390Y-41163333D02*
X130296247Y-41163333D01*
X130296247Y-41163333D02*
X130486723Y-41115714D01*
X130486723Y-41115714D02*
X130581961Y-41068095D01*
X130581961Y-41068095D02*
X130677200Y-40972857D01*
X130677200Y-40972857D02*
X130724819Y-40830000D01*
X130724819Y-40830000D02*
X130724819Y-40591905D01*
X129724819Y-42020476D02*
X129724819Y-41830000D01*
X129724819Y-41830000D02*
X129772438Y-41734762D01*
X129772438Y-41734762D02*
X129820057Y-41687143D01*
X129820057Y-41687143D02*
X129962914Y-41591905D01*
X129962914Y-41591905D02*
X130153390Y-41544286D01*
X130153390Y-41544286D02*
X130534342Y-41544286D01*
X130534342Y-41544286D02*
X130629580Y-41591905D01*
X130629580Y-41591905D02*
X130677200Y-41639524D01*
X130677200Y-41639524D02*
X130724819Y-41734762D01*
X130724819Y-41734762D02*
X130724819Y-41925238D01*
X130724819Y-41925238D02*
X130677200Y-42020476D01*
X130677200Y-42020476D02*
X130629580Y-42068095D01*
X130629580Y-42068095D02*
X130534342Y-42115714D01*
X130534342Y-42115714D02*
X130296247Y-42115714D01*
X130296247Y-42115714D02*
X130201009Y-42068095D01*
X130201009Y-42068095D02*
X130153390Y-42020476D01*
X130153390Y-42020476D02*
X130105771Y-41925238D01*
X130105771Y-41925238D02*
X130105771Y-41734762D01*
X130105771Y-41734762D02*
X130153390Y-41639524D01*
X130153390Y-41639524D02*
X130201009Y-41591905D01*
X130201009Y-41591905D02*
X130296247Y-41544286D01*
X98942319Y-106075714D02*
X97942319Y-106075714D01*
X97942319Y-106075714D02*
X97942319Y-106313809D01*
X97942319Y-106313809D02*
X97989938Y-106456666D01*
X97989938Y-106456666D02*
X98085176Y-106551904D01*
X98085176Y-106551904D02*
X98180414Y-106599523D01*
X98180414Y-106599523D02*
X98370890Y-106647142D01*
X98370890Y-106647142D02*
X98513747Y-106647142D01*
X98513747Y-106647142D02*
X98704223Y-106599523D01*
X98704223Y-106599523D02*
X98799461Y-106551904D01*
X98799461Y-106551904D02*
X98894700Y-106456666D01*
X98894700Y-106456666D02*
X98942319Y-106313809D01*
X98942319Y-106313809D02*
X98942319Y-106075714D01*
X97942319Y-107551904D02*
X97942319Y-107075714D01*
X97942319Y-107075714D02*
X98418509Y-107028095D01*
X98418509Y-107028095D02*
X98370890Y-107075714D01*
X98370890Y-107075714D02*
X98323271Y-107170952D01*
X98323271Y-107170952D02*
X98323271Y-107409047D01*
X98323271Y-107409047D02*
X98370890Y-107504285D01*
X98370890Y-107504285D02*
X98418509Y-107551904D01*
X98418509Y-107551904D02*
X98513747Y-107599523D01*
X98513747Y-107599523D02*
X98751842Y-107599523D01*
X98751842Y-107599523D02*
X98847080Y-107551904D01*
X98847080Y-107551904D02*
X98894700Y-107504285D01*
X98894700Y-107504285D02*
X98942319Y-107409047D01*
X98942319Y-107409047D02*
X98942319Y-107170952D01*
X98942319Y-107170952D02*
X98894700Y-107075714D01*
X98894700Y-107075714D02*
X98847080Y-107028095D01*
X98942319Y-108075714D02*
X98942319Y-108266190D01*
X98942319Y-108266190D02*
X98894700Y-108361428D01*
X98894700Y-108361428D02*
X98847080Y-108409047D01*
X98847080Y-108409047D02*
X98704223Y-108504285D01*
X98704223Y-108504285D02*
X98513747Y-108551904D01*
X98513747Y-108551904D02*
X98132795Y-108551904D01*
X98132795Y-108551904D02*
X98037557Y-108504285D01*
X98037557Y-108504285D02*
X97989938Y-108456666D01*
X97989938Y-108456666D02*
X97942319Y-108361428D01*
X97942319Y-108361428D02*
X97942319Y-108170952D01*
X97942319Y-108170952D02*
X97989938Y-108075714D01*
X97989938Y-108075714D02*
X98037557Y-108028095D01*
X98037557Y-108028095D02*
X98132795Y-107980476D01*
X98132795Y-107980476D02*
X98370890Y-107980476D01*
X98370890Y-107980476D02*
X98466128Y-108028095D01*
X98466128Y-108028095D02*
X98513747Y-108075714D01*
X98513747Y-108075714D02*
X98561366Y-108170952D01*
X98561366Y-108170952D02*
X98561366Y-108361428D01*
X98561366Y-108361428D02*
X98513747Y-108456666D01*
X98513747Y-108456666D02*
X98466128Y-108504285D01*
X98466128Y-108504285D02*
X98370890Y-108551904D01*
X254549819Y-59165714D02*
X253549819Y-59165714D01*
X253549819Y-59165714D02*
X253549819Y-59403809D01*
X253549819Y-59403809D02*
X253597438Y-59546666D01*
X253597438Y-59546666D02*
X253692676Y-59641904D01*
X253692676Y-59641904D02*
X253787914Y-59689523D01*
X253787914Y-59689523D02*
X253978390Y-59737142D01*
X253978390Y-59737142D02*
X254121247Y-59737142D01*
X254121247Y-59737142D02*
X254311723Y-59689523D01*
X254311723Y-59689523D02*
X254406961Y-59641904D01*
X254406961Y-59641904D02*
X254502200Y-59546666D01*
X254502200Y-59546666D02*
X254549819Y-59403809D01*
X254549819Y-59403809D02*
X254549819Y-59165714D01*
X253645057Y-60118095D02*
X253597438Y-60165714D01*
X253597438Y-60165714D02*
X253549819Y-60260952D01*
X253549819Y-60260952D02*
X253549819Y-60499047D01*
X253549819Y-60499047D02*
X253597438Y-60594285D01*
X253597438Y-60594285D02*
X253645057Y-60641904D01*
X253645057Y-60641904D02*
X253740295Y-60689523D01*
X253740295Y-60689523D02*
X253835533Y-60689523D01*
X253835533Y-60689523D02*
X253978390Y-60641904D01*
X253978390Y-60641904D02*
X254549819Y-60070476D01*
X254549819Y-60070476D02*
X254549819Y-60689523D01*
X253549819Y-61546666D02*
X253549819Y-61356190D01*
X253549819Y-61356190D02*
X253597438Y-61260952D01*
X253597438Y-61260952D02*
X253645057Y-61213333D01*
X253645057Y-61213333D02*
X253787914Y-61118095D01*
X253787914Y-61118095D02*
X253978390Y-61070476D01*
X253978390Y-61070476D02*
X254359342Y-61070476D01*
X254359342Y-61070476D02*
X254454580Y-61118095D01*
X254454580Y-61118095D02*
X254502200Y-61165714D01*
X254502200Y-61165714D02*
X254549819Y-61260952D01*
X254549819Y-61260952D02*
X254549819Y-61451428D01*
X254549819Y-61451428D02*
X254502200Y-61546666D01*
X254502200Y-61546666D02*
X254454580Y-61594285D01*
X254454580Y-61594285D02*
X254359342Y-61641904D01*
X254359342Y-61641904D02*
X254121247Y-61641904D01*
X254121247Y-61641904D02*
X254026009Y-61594285D01*
X254026009Y-61594285D02*
X253978390Y-61546666D01*
X253978390Y-61546666D02*
X253930771Y-61451428D01*
X253930771Y-61451428D02*
X253930771Y-61260952D01*
X253930771Y-61260952D02*
X253978390Y-61165714D01*
X253978390Y-61165714D02*
X254026009Y-61118095D01*
X254026009Y-61118095D02*
X254121247Y-61070476D01*
X102149819Y-59165714D02*
X101149819Y-59165714D01*
X101149819Y-59165714D02*
X101149819Y-59403809D01*
X101149819Y-59403809D02*
X101197438Y-59546666D01*
X101197438Y-59546666D02*
X101292676Y-59641904D01*
X101292676Y-59641904D02*
X101387914Y-59689523D01*
X101387914Y-59689523D02*
X101578390Y-59737142D01*
X101578390Y-59737142D02*
X101721247Y-59737142D01*
X101721247Y-59737142D02*
X101911723Y-59689523D01*
X101911723Y-59689523D02*
X102006961Y-59641904D01*
X102006961Y-59641904D02*
X102102200Y-59546666D01*
X102102200Y-59546666D02*
X102149819Y-59403809D01*
X102149819Y-59403809D02*
X102149819Y-59165714D01*
X102149819Y-60689523D02*
X102149819Y-60118095D01*
X102149819Y-60403809D02*
X101149819Y-60403809D01*
X101149819Y-60403809D02*
X101292676Y-60308571D01*
X101292676Y-60308571D02*
X101387914Y-60213333D01*
X101387914Y-60213333D02*
X101435533Y-60118095D01*
X101578390Y-61260952D02*
X101530771Y-61165714D01*
X101530771Y-61165714D02*
X101483152Y-61118095D01*
X101483152Y-61118095D02*
X101387914Y-61070476D01*
X101387914Y-61070476D02*
X101340295Y-61070476D01*
X101340295Y-61070476D02*
X101245057Y-61118095D01*
X101245057Y-61118095D02*
X101197438Y-61165714D01*
X101197438Y-61165714D02*
X101149819Y-61260952D01*
X101149819Y-61260952D02*
X101149819Y-61451428D01*
X101149819Y-61451428D02*
X101197438Y-61546666D01*
X101197438Y-61546666D02*
X101245057Y-61594285D01*
X101245057Y-61594285D02*
X101340295Y-61641904D01*
X101340295Y-61641904D02*
X101387914Y-61641904D01*
X101387914Y-61641904D02*
X101483152Y-61594285D01*
X101483152Y-61594285D02*
X101530771Y-61546666D01*
X101530771Y-61546666D02*
X101578390Y-61451428D01*
X101578390Y-61451428D02*
X101578390Y-61260952D01*
X101578390Y-61260952D02*
X101626009Y-61165714D01*
X101626009Y-61165714D02*
X101673628Y-61118095D01*
X101673628Y-61118095D02*
X101768866Y-61070476D01*
X101768866Y-61070476D02*
X101959342Y-61070476D01*
X101959342Y-61070476D02*
X102054580Y-61118095D01*
X102054580Y-61118095D02*
X102102200Y-61165714D01*
X102102200Y-61165714D02*
X102149819Y-61260952D01*
X102149819Y-61260952D02*
X102149819Y-61451428D01*
X102149819Y-61451428D02*
X102102200Y-61546666D01*
X102102200Y-61546666D02*
X102054580Y-61594285D01*
X102054580Y-61594285D02*
X101959342Y-61641904D01*
X101959342Y-61641904D02*
X101768866Y-61641904D01*
X101768866Y-61641904D02*
X101673628Y-61594285D01*
X101673628Y-61594285D02*
X101626009Y-61546666D01*
X101626009Y-61546666D02*
X101578390Y-61451428D01*
X240867319Y-106075714D02*
X239867319Y-106075714D01*
X239867319Y-106075714D02*
X239867319Y-106313809D01*
X239867319Y-106313809D02*
X239914938Y-106456666D01*
X239914938Y-106456666D02*
X240010176Y-106551904D01*
X240010176Y-106551904D02*
X240105414Y-106599523D01*
X240105414Y-106599523D02*
X240295890Y-106647142D01*
X240295890Y-106647142D02*
X240438747Y-106647142D01*
X240438747Y-106647142D02*
X240629223Y-106599523D01*
X240629223Y-106599523D02*
X240724461Y-106551904D01*
X240724461Y-106551904D02*
X240819700Y-106456666D01*
X240819700Y-106456666D02*
X240867319Y-106313809D01*
X240867319Y-106313809D02*
X240867319Y-106075714D01*
X239867319Y-107504285D02*
X239867319Y-107313809D01*
X239867319Y-107313809D02*
X239914938Y-107218571D01*
X239914938Y-107218571D02*
X239962557Y-107170952D01*
X239962557Y-107170952D02*
X240105414Y-107075714D01*
X240105414Y-107075714D02*
X240295890Y-107028095D01*
X240295890Y-107028095D02*
X240676842Y-107028095D01*
X240676842Y-107028095D02*
X240772080Y-107075714D01*
X240772080Y-107075714D02*
X240819700Y-107123333D01*
X240819700Y-107123333D02*
X240867319Y-107218571D01*
X240867319Y-107218571D02*
X240867319Y-107409047D01*
X240867319Y-107409047D02*
X240819700Y-107504285D01*
X240819700Y-107504285D02*
X240772080Y-107551904D01*
X240772080Y-107551904D02*
X240676842Y-107599523D01*
X240676842Y-107599523D02*
X240438747Y-107599523D01*
X240438747Y-107599523D02*
X240343509Y-107551904D01*
X240343509Y-107551904D02*
X240295890Y-107504285D01*
X240295890Y-107504285D02*
X240248271Y-107409047D01*
X240248271Y-107409047D02*
X240248271Y-107218571D01*
X240248271Y-107218571D02*
X240295890Y-107123333D01*
X240295890Y-107123333D02*
X240343509Y-107075714D01*
X240343509Y-107075714D02*
X240438747Y-107028095D01*
X239962557Y-107980476D02*
X239914938Y-108028095D01*
X239914938Y-108028095D02*
X239867319Y-108123333D01*
X239867319Y-108123333D02*
X239867319Y-108361428D01*
X239867319Y-108361428D02*
X239914938Y-108456666D01*
X239914938Y-108456666D02*
X239962557Y-108504285D01*
X239962557Y-108504285D02*
X240057795Y-108551904D01*
X240057795Y-108551904D02*
X240153033Y-108551904D01*
X240153033Y-108551904D02*
X240295890Y-108504285D01*
X240295890Y-108504285D02*
X240867319Y-107932857D01*
X240867319Y-107932857D02*
X240867319Y-108551904D01*
X197399819Y-59165714D02*
X196399819Y-59165714D01*
X196399819Y-59165714D02*
X196399819Y-59403809D01*
X196399819Y-59403809D02*
X196447438Y-59546666D01*
X196447438Y-59546666D02*
X196542676Y-59641904D01*
X196542676Y-59641904D02*
X196637914Y-59689523D01*
X196637914Y-59689523D02*
X196828390Y-59737142D01*
X196828390Y-59737142D02*
X196971247Y-59737142D01*
X196971247Y-59737142D02*
X197161723Y-59689523D01*
X197161723Y-59689523D02*
X197256961Y-59641904D01*
X197256961Y-59641904D02*
X197352200Y-59546666D01*
X197352200Y-59546666D02*
X197399819Y-59403809D01*
X197399819Y-59403809D02*
X197399819Y-59165714D01*
X196495057Y-60118095D02*
X196447438Y-60165714D01*
X196447438Y-60165714D02*
X196399819Y-60260952D01*
X196399819Y-60260952D02*
X196399819Y-60499047D01*
X196399819Y-60499047D02*
X196447438Y-60594285D01*
X196447438Y-60594285D02*
X196495057Y-60641904D01*
X196495057Y-60641904D02*
X196590295Y-60689523D01*
X196590295Y-60689523D02*
X196685533Y-60689523D01*
X196685533Y-60689523D02*
X196828390Y-60641904D01*
X196828390Y-60641904D02*
X197399819Y-60070476D01*
X197399819Y-60070476D02*
X197399819Y-60689523D01*
X196399819Y-61022857D02*
X196399819Y-61641904D01*
X196399819Y-61641904D02*
X196780771Y-61308571D01*
X196780771Y-61308571D02*
X196780771Y-61451428D01*
X196780771Y-61451428D02*
X196828390Y-61546666D01*
X196828390Y-61546666D02*
X196876009Y-61594285D01*
X196876009Y-61594285D02*
X196971247Y-61641904D01*
X196971247Y-61641904D02*
X197209342Y-61641904D01*
X197209342Y-61641904D02*
X197304580Y-61594285D01*
X197304580Y-61594285D02*
X197352200Y-61546666D01*
X197352200Y-61546666D02*
X197399819Y-61451428D01*
X197399819Y-61451428D02*
X197399819Y-61165714D01*
X197399819Y-61165714D02*
X197352200Y-61070476D01*
X197352200Y-61070476D02*
X197304580Y-61022857D01*
X183112319Y-78215714D02*
X182112319Y-78215714D01*
X182112319Y-78215714D02*
X182112319Y-78453809D01*
X182112319Y-78453809D02*
X182159938Y-78596666D01*
X182159938Y-78596666D02*
X182255176Y-78691904D01*
X182255176Y-78691904D02*
X182350414Y-78739523D01*
X182350414Y-78739523D02*
X182540890Y-78787142D01*
X182540890Y-78787142D02*
X182683747Y-78787142D01*
X182683747Y-78787142D02*
X182874223Y-78739523D01*
X182874223Y-78739523D02*
X182969461Y-78691904D01*
X182969461Y-78691904D02*
X183064700Y-78596666D01*
X183064700Y-78596666D02*
X183112319Y-78453809D01*
X183112319Y-78453809D02*
X183112319Y-78215714D01*
X182112319Y-79120476D02*
X182112319Y-79739523D01*
X182112319Y-79739523D02*
X182493271Y-79406190D01*
X182493271Y-79406190D02*
X182493271Y-79549047D01*
X182493271Y-79549047D02*
X182540890Y-79644285D01*
X182540890Y-79644285D02*
X182588509Y-79691904D01*
X182588509Y-79691904D02*
X182683747Y-79739523D01*
X182683747Y-79739523D02*
X182921842Y-79739523D01*
X182921842Y-79739523D02*
X183017080Y-79691904D01*
X183017080Y-79691904D02*
X183064700Y-79644285D01*
X183064700Y-79644285D02*
X183112319Y-79549047D01*
X183112319Y-79549047D02*
X183112319Y-79263333D01*
X183112319Y-79263333D02*
X183064700Y-79168095D01*
X183064700Y-79168095D02*
X183017080Y-79120476D01*
X182112319Y-80596666D02*
X182112319Y-80406190D01*
X182112319Y-80406190D02*
X182159938Y-80310952D01*
X182159938Y-80310952D02*
X182207557Y-80263333D01*
X182207557Y-80263333D02*
X182350414Y-80168095D01*
X182350414Y-80168095D02*
X182540890Y-80120476D01*
X182540890Y-80120476D02*
X182921842Y-80120476D01*
X182921842Y-80120476D02*
X183017080Y-80168095D01*
X183017080Y-80168095D02*
X183064700Y-80215714D01*
X183064700Y-80215714D02*
X183112319Y-80310952D01*
X183112319Y-80310952D02*
X183112319Y-80501428D01*
X183112319Y-80501428D02*
X183064700Y-80596666D01*
X183064700Y-80596666D02*
X183017080Y-80644285D01*
X183017080Y-80644285D02*
X182921842Y-80691904D01*
X182921842Y-80691904D02*
X182683747Y-80691904D01*
X182683747Y-80691904D02*
X182588509Y-80644285D01*
X182588509Y-80644285D02*
X182540890Y-80596666D01*
X182540890Y-80596666D02*
X182493271Y-80501428D01*
X182493271Y-80501428D02*
X182493271Y-80310952D01*
X182493271Y-80310952D02*
X182540890Y-80215714D01*
X182540890Y-80215714D02*
X182588509Y-80168095D01*
X182588509Y-80168095D02*
X182683747Y-80120476D01*
X75129819Y-106075714D02*
X74129819Y-106075714D01*
X74129819Y-106075714D02*
X74129819Y-106313809D01*
X74129819Y-106313809D02*
X74177438Y-106456666D01*
X74177438Y-106456666D02*
X74272676Y-106551904D01*
X74272676Y-106551904D02*
X74367914Y-106599523D01*
X74367914Y-106599523D02*
X74558390Y-106647142D01*
X74558390Y-106647142D02*
X74701247Y-106647142D01*
X74701247Y-106647142D02*
X74891723Y-106599523D01*
X74891723Y-106599523D02*
X74986961Y-106551904D01*
X74986961Y-106551904D02*
X75082200Y-106456666D01*
X75082200Y-106456666D02*
X75129819Y-106313809D01*
X75129819Y-106313809D02*
X75129819Y-106075714D01*
X74129819Y-107551904D02*
X74129819Y-107075714D01*
X74129819Y-107075714D02*
X74606009Y-107028095D01*
X74606009Y-107028095D02*
X74558390Y-107075714D01*
X74558390Y-107075714D02*
X74510771Y-107170952D01*
X74510771Y-107170952D02*
X74510771Y-107409047D01*
X74510771Y-107409047D02*
X74558390Y-107504285D01*
X74558390Y-107504285D02*
X74606009Y-107551904D01*
X74606009Y-107551904D02*
X74701247Y-107599523D01*
X74701247Y-107599523D02*
X74939342Y-107599523D01*
X74939342Y-107599523D02*
X75034580Y-107551904D01*
X75034580Y-107551904D02*
X75082200Y-107504285D01*
X75082200Y-107504285D02*
X75129819Y-107409047D01*
X75129819Y-107409047D02*
X75129819Y-107170952D01*
X75129819Y-107170952D02*
X75082200Y-107075714D01*
X75082200Y-107075714D02*
X75034580Y-107028095D01*
X74558390Y-108170952D02*
X74510771Y-108075714D01*
X74510771Y-108075714D02*
X74463152Y-108028095D01*
X74463152Y-108028095D02*
X74367914Y-107980476D01*
X74367914Y-107980476D02*
X74320295Y-107980476D01*
X74320295Y-107980476D02*
X74225057Y-108028095D01*
X74225057Y-108028095D02*
X74177438Y-108075714D01*
X74177438Y-108075714D02*
X74129819Y-108170952D01*
X74129819Y-108170952D02*
X74129819Y-108361428D01*
X74129819Y-108361428D02*
X74177438Y-108456666D01*
X74177438Y-108456666D02*
X74225057Y-108504285D01*
X74225057Y-108504285D02*
X74320295Y-108551904D01*
X74320295Y-108551904D02*
X74367914Y-108551904D01*
X74367914Y-108551904D02*
X74463152Y-108504285D01*
X74463152Y-108504285D02*
X74510771Y-108456666D01*
X74510771Y-108456666D02*
X74558390Y-108361428D01*
X74558390Y-108361428D02*
X74558390Y-108170952D01*
X74558390Y-108170952D02*
X74606009Y-108075714D01*
X74606009Y-108075714D02*
X74653628Y-108028095D01*
X74653628Y-108028095D02*
X74748866Y-107980476D01*
X74748866Y-107980476D02*
X74939342Y-107980476D01*
X74939342Y-107980476D02*
X75034580Y-108028095D01*
X75034580Y-108028095D02*
X75082200Y-108075714D01*
X75082200Y-108075714D02*
X75129819Y-108170952D01*
X75129819Y-108170952D02*
X75129819Y-108361428D01*
X75129819Y-108361428D02*
X75082200Y-108456666D01*
X75082200Y-108456666D02*
X75034580Y-108504285D01*
X75034580Y-108504285D02*
X74939342Y-108551904D01*
X74939342Y-108551904D02*
X74748866Y-108551904D01*
X74748866Y-108551904D02*
X74653628Y-108504285D01*
X74653628Y-108504285D02*
X74606009Y-108456666D01*
X74606009Y-108456666D02*
X74558390Y-108361428D01*
X202162319Y-78215714D02*
X201162319Y-78215714D01*
X201162319Y-78215714D02*
X201162319Y-78453809D01*
X201162319Y-78453809D02*
X201209938Y-78596666D01*
X201209938Y-78596666D02*
X201305176Y-78691904D01*
X201305176Y-78691904D02*
X201400414Y-78739523D01*
X201400414Y-78739523D02*
X201590890Y-78787142D01*
X201590890Y-78787142D02*
X201733747Y-78787142D01*
X201733747Y-78787142D02*
X201924223Y-78739523D01*
X201924223Y-78739523D02*
X202019461Y-78691904D01*
X202019461Y-78691904D02*
X202114700Y-78596666D01*
X202114700Y-78596666D02*
X202162319Y-78453809D01*
X202162319Y-78453809D02*
X202162319Y-78215714D01*
X201162319Y-79120476D02*
X201162319Y-79739523D01*
X201162319Y-79739523D02*
X201543271Y-79406190D01*
X201543271Y-79406190D02*
X201543271Y-79549047D01*
X201543271Y-79549047D02*
X201590890Y-79644285D01*
X201590890Y-79644285D02*
X201638509Y-79691904D01*
X201638509Y-79691904D02*
X201733747Y-79739523D01*
X201733747Y-79739523D02*
X201971842Y-79739523D01*
X201971842Y-79739523D02*
X202067080Y-79691904D01*
X202067080Y-79691904D02*
X202114700Y-79644285D01*
X202114700Y-79644285D02*
X202162319Y-79549047D01*
X202162319Y-79549047D02*
X202162319Y-79263333D01*
X202162319Y-79263333D02*
X202114700Y-79168095D01*
X202114700Y-79168095D02*
X202067080Y-79120476D01*
X201162319Y-80072857D02*
X201162319Y-80739523D01*
X201162319Y-80739523D02*
X202162319Y-80310952D01*
X245024819Y-40115714D02*
X244024819Y-40115714D01*
X244024819Y-40115714D02*
X244024819Y-40353809D01*
X244024819Y-40353809D02*
X244072438Y-40496666D01*
X244072438Y-40496666D02*
X244167676Y-40591904D01*
X244167676Y-40591904D02*
X244262914Y-40639523D01*
X244262914Y-40639523D02*
X244453390Y-40687142D01*
X244453390Y-40687142D02*
X244596247Y-40687142D01*
X244596247Y-40687142D02*
X244786723Y-40639523D01*
X244786723Y-40639523D02*
X244881961Y-40591904D01*
X244881961Y-40591904D02*
X244977200Y-40496666D01*
X244977200Y-40496666D02*
X245024819Y-40353809D01*
X245024819Y-40353809D02*
X245024819Y-40115714D01*
X245024819Y-41639523D02*
X245024819Y-41068095D01*
X245024819Y-41353809D02*
X244024819Y-41353809D01*
X244024819Y-41353809D02*
X244167676Y-41258571D01*
X244167676Y-41258571D02*
X244262914Y-41163333D01*
X244262914Y-41163333D02*
X244310533Y-41068095D01*
X244120057Y-42020476D02*
X244072438Y-42068095D01*
X244072438Y-42068095D02*
X244024819Y-42163333D01*
X244024819Y-42163333D02*
X244024819Y-42401428D01*
X244024819Y-42401428D02*
X244072438Y-42496666D01*
X244072438Y-42496666D02*
X244120057Y-42544285D01*
X244120057Y-42544285D02*
X244215295Y-42591904D01*
X244215295Y-42591904D02*
X244310533Y-42591904D01*
X244310533Y-42591904D02*
X244453390Y-42544285D01*
X244453390Y-42544285D02*
X245024819Y-41972857D01*
X245024819Y-41972857D02*
X245024819Y-42591904D01*
X49576666Y-39874819D02*
X49909999Y-39398628D01*
X50148094Y-39874819D02*
X50148094Y-38874819D01*
X50148094Y-38874819D02*
X49767142Y-38874819D01*
X49767142Y-38874819D02*
X49671904Y-38922438D01*
X49671904Y-38922438D02*
X49624285Y-38970057D01*
X49624285Y-38970057D02*
X49576666Y-39065295D01*
X49576666Y-39065295D02*
X49576666Y-39208152D01*
X49576666Y-39208152D02*
X49624285Y-39303390D01*
X49624285Y-39303390D02*
X49671904Y-39351009D01*
X49671904Y-39351009D02*
X49767142Y-39398628D01*
X49767142Y-39398628D02*
X50148094Y-39398628D01*
X49243332Y-38874819D02*
X48576666Y-38874819D01*
X48576666Y-38874819D02*
X49005237Y-39874819D01*
X164062319Y-78215714D02*
X163062319Y-78215714D01*
X163062319Y-78215714D02*
X163062319Y-78453809D01*
X163062319Y-78453809D02*
X163109938Y-78596666D01*
X163109938Y-78596666D02*
X163205176Y-78691904D01*
X163205176Y-78691904D02*
X163300414Y-78739523D01*
X163300414Y-78739523D02*
X163490890Y-78787142D01*
X163490890Y-78787142D02*
X163633747Y-78787142D01*
X163633747Y-78787142D02*
X163824223Y-78739523D01*
X163824223Y-78739523D02*
X163919461Y-78691904D01*
X163919461Y-78691904D02*
X164014700Y-78596666D01*
X164014700Y-78596666D02*
X164062319Y-78453809D01*
X164062319Y-78453809D02*
X164062319Y-78215714D01*
X163062319Y-79120476D02*
X163062319Y-79739523D01*
X163062319Y-79739523D02*
X163443271Y-79406190D01*
X163443271Y-79406190D02*
X163443271Y-79549047D01*
X163443271Y-79549047D02*
X163490890Y-79644285D01*
X163490890Y-79644285D02*
X163538509Y-79691904D01*
X163538509Y-79691904D02*
X163633747Y-79739523D01*
X163633747Y-79739523D02*
X163871842Y-79739523D01*
X163871842Y-79739523D02*
X163967080Y-79691904D01*
X163967080Y-79691904D02*
X164014700Y-79644285D01*
X164014700Y-79644285D02*
X164062319Y-79549047D01*
X164062319Y-79549047D02*
X164062319Y-79263333D01*
X164062319Y-79263333D02*
X164014700Y-79168095D01*
X164014700Y-79168095D02*
X163967080Y-79120476D01*
X163062319Y-80644285D02*
X163062319Y-80168095D01*
X163062319Y-80168095D02*
X163538509Y-80120476D01*
X163538509Y-80120476D02*
X163490890Y-80168095D01*
X163490890Y-80168095D02*
X163443271Y-80263333D01*
X163443271Y-80263333D02*
X163443271Y-80501428D01*
X163443271Y-80501428D02*
X163490890Y-80596666D01*
X163490890Y-80596666D02*
X163538509Y-80644285D01*
X163538509Y-80644285D02*
X163633747Y-80691904D01*
X163633747Y-80691904D02*
X163871842Y-80691904D01*
X163871842Y-80691904D02*
X163967080Y-80644285D01*
X163967080Y-80644285D02*
X164014700Y-80596666D01*
X164014700Y-80596666D02*
X164062319Y-80501428D01*
X164062319Y-80501428D02*
X164062319Y-80263333D01*
X164062319Y-80263333D02*
X164014700Y-80168095D01*
X164014700Y-80168095D02*
X163967080Y-80120476D01*
X68812319Y-78215714D02*
X67812319Y-78215714D01*
X67812319Y-78215714D02*
X67812319Y-78453809D01*
X67812319Y-78453809D02*
X67859938Y-78596666D01*
X67859938Y-78596666D02*
X67955176Y-78691904D01*
X67955176Y-78691904D02*
X68050414Y-78739523D01*
X68050414Y-78739523D02*
X68240890Y-78787142D01*
X68240890Y-78787142D02*
X68383747Y-78787142D01*
X68383747Y-78787142D02*
X68574223Y-78739523D01*
X68574223Y-78739523D02*
X68669461Y-78691904D01*
X68669461Y-78691904D02*
X68764700Y-78596666D01*
X68764700Y-78596666D02*
X68812319Y-78453809D01*
X68812319Y-78453809D02*
X68812319Y-78215714D01*
X67812319Y-79120476D02*
X67812319Y-79739523D01*
X67812319Y-79739523D02*
X68193271Y-79406190D01*
X68193271Y-79406190D02*
X68193271Y-79549047D01*
X68193271Y-79549047D02*
X68240890Y-79644285D01*
X68240890Y-79644285D02*
X68288509Y-79691904D01*
X68288509Y-79691904D02*
X68383747Y-79739523D01*
X68383747Y-79739523D02*
X68621842Y-79739523D01*
X68621842Y-79739523D02*
X68717080Y-79691904D01*
X68717080Y-79691904D02*
X68764700Y-79644285D01*
X68764700Y-79644285D02*
X68812319Y-79549047D01*
X68812319Y-79549047D02*
X68812319Y-79263333D01*
X68812319Y-79263333D02*
X68764700Y-79168095D01*
X68764700Y-79168095D02*
X68717080Y-79120476D01*
X67812319Y-80358571D02*
X67812319Y-80453809D01*
X67812319Y-80453809D02*
X67859938Y-80549047D01*
X67859938Y-80549047D02*
X67907557Y-80596666D01*
X67907557Y-80596666D02*
X68002795Y-80644285D01*
X68002795Y-80644285D02*
X68193271Y-80691904D01*
X68193271Y-80691904D02*
X68431366Y-80691904D01*
X68431366Y-80691904D02*
X68621842Y-80644285D01*
X68621842Y-80644285D02*
X68717080Y-80596666D01*
X68717080Y-80596666D02*
X68764700Y-80549047D01*
X68764700Y-80549047D02*
X68812319Y-80453809D01*
X68812319Y-80453809D02*
X68812319Y-80358571D01*
X68812319Y-80358571D02*
X68764700Y-80263333D01*
X68764700Y-80263333D02*
X68717080Y-80215714D01*
X68717080Y-80215714D02*
X68621842Y-80168095D01*
X68621842Y-80168095D02*
X68431366Y-80120476D01*
X68431366Y-80120476D02*
X68193271Y-80120476D01*
X68193271Y-80120476D02*
X68002795Y-80168095D01*
X68002795Y-80168095D02*
X67907557Y-80215714D01*
X67907557Y-80215714D02*
X67859938Y-80263333D01*
X67859938Y-80263333D02*
X67812319Y-80358571D01*
X178349819Y-59165714D02*
X177349819Y-59165714D01*
X177349819Y-59165714D02*
X177349819Y-59403809D01*
X177349819Y-59403809D02*
X177397438Y-59546666D01*
X177397438Y-59546666D02*
X177492676Y-59641904D01*
X177492676Y-59641904D02*
X177587914Y-59689523D01*
X177587914Y-59689523D02*
X177778390Y-59737142D01*
X177778390Y-59737142D02*
X177921247Y-59737142D01*
X177921247Y-59737142D02*
X178111723Y-59689523D01*
X178111723Y-59689523D02*
X178206961Y-59641904D01*
X178206961Y-59641904D02*
X178302200Y-59546666D01*
X178302200Y-59546666D02*
X178349819Y-59403809D01*
X178349819Y-59403809D02*
X178349819Y-59165714D01*
X177445057Y-60118095D02*
X177397438Y-60165714D01*
X177397438Y-60165714D02*
X177349819Y-60260952D01*
X177349819Y-60260952D02*
X177349819Y-60499047D01*
X177349819Y-60499047D02*
X177397438Y-60594285D01*
X177397438Y-60594285D02*
X177445057Y-60641904D01*
X177445057Y-60641904D02*
X177540295Y-60689523D01*
X177540295Y-60689523D02*
X177635533Y-60689523D01*
X177635533Y-60689523D02*
X177778390Y-60641904D01*
X177778390Y-60641904D02*
X178349819Y-60070476D01*
X178349819Y-60070476D02*
X178349819Y-60689523D01*
X177445057Y-61070476D02*
X177397438Y-61118095D01*
X177397438Y-61118095D02*
X177349819Y-61213333D01*
X177349819Y-61213333D02*
X177349819Y-61451428D01*
X177349819Y-61451428D02*
X177397438Y-61546666D01*
X177397438Y-61546666D02*
X177445057Y-61594285D01*
X177445057Y-61594285D02*
X177540295Y-61641904D01*
X177540295Y-61641904D02*
X177635533Y-61641904D01*
X177635533Y-61641904D02*
X177778390Y-61594285D01*
X177778390Y-61594285D02*
X178349819Y-61022857D01*
X178349819Y-61022857D02*
X178349819Y-61641904D01*
X228356069Y-116315714D02*
X227356069Y-116315714D01*
X227356069Y-116315714D02*
X227356069Y-116553809D01*
X227356069Y-116553809D02*
X227403688Y-116696666D01*
X227403688Y-116696666D02*
X227498926Y-116791904D01*
X227498926Y-116791904D02*
X227594164Y-116839523D01*
X227594164Y-116839523D02*
X227784640Y-116887142D01*
X227784640Y-116887142D02*
X227927497Y-116887142D01*
X227927497Y-116887142D02*
X228117973Y-116839523D01*
X228117973Y-116839523D02*
X228213211Y-116791904D01*
X228213211Y-116791904D02*
X228308450Y-116696666D01*
X228308450Y-116696666D02*
X228356069Y-116553809D01*
X228356069Y-116553809D02*
X228356069Y-116315714D01*
X227356069Y-117744285D02*
X227356069Y-117553809D01*
X227356069Y-117553809D02*
X227403688Y-117458571D01*
X227403688Y-117458571D02*
X227451307Y-117410952D01*
X227451307Y-117410952D02*
X227594164Y-117315714D01*
X227594164Y-117315714D02*
X227784640Y-117268095D01*
X227784640Y-117268095D02*
X228165592Y-117268095D01*
X228165592Y-117268095D02*
X228260830Y-117315714D01*
X228260830Y-117315714D02*
X228308450Y-117363333D01*
X228308450Y-117363333D02*
X228356069Y-117458571D01*
X228356069Y-117458571D02*
X228356069Y-117649047D01*
X228356069Y-117649047D02*
X228308450Y-117744285D01*
X228308450Y-117744285D02*
X228260830Y-117791904D01*
X228260830Y-117791904D02*
X228165592Y-117839523D01*
X228165592Y-117839523D02*
X227927497Y-117839523D01*
X227927497Y-117839523D02*
X227832259Y-117791904D01*
X227832259Y-117791904D02*
X227784640Y-117744285D01*
X227784640Y-117744285D02*
X227737021Y-117649047D01*
X227737021Y-117649047D02*
X227737021Y-117458571D01*
X227737021Y-117458571D02*
X227784640Y-117363333D01*
X227784640Y-117363333D02*
X227832259Y-117315714D01*
X227832259Y-117315714D02*
X227927497Y-117268095D01*
X228356069Y-118791904D02*
X228356069Y-118220476D01*
X228356069Y-118506190D02*
X227356069Y-118506190D01*
X227356069Y-118506190D02*
X227498926Y-118410952D01*
X227498926Y-118410952D02*
X227594164Y-118315714D01*
X227594164Y-118315714D02*
X227641783Y-118220476D01*
X225974819Y-40115714D02*
X224974819Y-40115714D01*
X224974819Y-40115714D02*
X224974819Y-40353809D01*
X224974819Y-40353809D02*
X225022438Y-40496666D01*
X225022438Y-40496666D02*
X225117676Y-40591904D01*
X225117676Y-40591904D02*
X225212914Y-40639523D01*
X225212914Y-40639523D02*
X225403390Y-40687142D01*
X225403390Y-40687142D02*
X225546247Y-40687142D01*
X225546247Y-40687142D02*
X225736723Y-40639523D01*
X225736723Y-40639523D02*
X225831961Y-40591904D01*
X225831961Y-40591904D02*
X225927200Y-40496666D01*
X225927200Y-40496666D02*
X225974819Y-40353809D01*
X225974819Y-40353809D02*
X225974819Y-40115714D01*
X225974819Y-41639523D02*
X225974819Y-41068095D01*
X225974819Y-41353809D02*
X224974819Y-41353809D01*
X224974819Y-41353809D02*
X225117676Y-41258571D01*
X225117676Y-41258571D02*
X225212914Y-41163333D01*
X225212914Y-41163333D02*
X225260533Y-41068095D01*
X225974819Y-42591904D02*
X225974819Y-42020476D01*
X225974819Y-42306190D02*
X224974819Y-42306190D01*
X224974819Y-42306190D02*
X225117676Y-42210952D01*
X225117676Y-42210952D02*
X225212914Y-42115714D01*
X225212914Y-42115714D02*
X225260533Y-42020476D01*
X121199819Y-59165714D02*
X120199819Y-59165714D01*
X120199819Y-59165714D02*
X120199819Y-59403809D01*
X120199819Y-59403809D02*
X120247438Y-59546666D01*
X120247438Y-59546666D02*
X120342676Y-59641904D01*
X120342676Y-59641904D02*
X120437914Y-59689523D01*
X120437914Y-59689523D02*
X120628390Y-59737142D01*
X120628390Y-59737142D02*
X120771247Y-59737142D01*
X120771247Y-59737142D02*
X120961723Y-59689523D01*
X120961723Y-59689523D02*
X121056961Y-59641904D01*
X121056961Y-59641904D02*
X121152200Y-59546666D01*
X121152200Y-59546666D02*
X121199819Y-59403809D01*
X121199819Y-59403809D02*
X121199819Y-59165714D01*
X121199819Y-60689523D02*
X121199819Y-60118095D01*
X121199819Y-60403809D02*
X120199819Y-60403809D01*
X120199819Y-60403809D02*
X120342676Y-60308571D01*
X120342676Y-60308571D02*
X120437914Y-60213333D01*
X120437914Y-60213333D02*
X120485533Y-60118095D01*
X121199819Y-61165714D02*
X121199819Y-61356190D01*
X121199819Y-61356190D02*
X121152200Y-61451428D01*
X121152200Y-61451428D02*
X121104580Y-61499047D01*
X121104580Y-61499047D02*
X120961723Y-61594285D01*
X120961723Y-61594285D02*
X120771247Y-61641904D01*
X120771247Y-61641904D02*
X120390295Y-61641904D01*
X120390295Y-61641904D02*
X120295057Y-61594285D01*
X120295057Y-61594285D02*
X120247438Y-61546666D01*
X120247438Y-61546666D02*
X120199819Y-61451428D01*
X120199819Y-61451428D02*
X120199819Y-61260952D01*
X120199819Y-61260952D02*
X120247438Y-61165714D01*
X120247438Y-61165714D02*
X120295057Y-61118095D01*
X120295057Y-61118095D02*
X120390295Y-61070476D01*
X120390295Y-61070476D02*
X120628390Y-61070476D01*
X120628390Y-61070476D02*
X120723628Y-61118095D01*
X120723628Y-61118095D02*
X120771247Y-61165714D01*
X120771247Y-61165714D02*
X120818866Y-61260952D01*
X120818866Y-61260952D02*
X120818866Y-61451428D01*
X120818866Y-61451428D02*
X120771247Y-61546666D01*
X120771247Y-61546666D02*
X120723628Y-61594285D01*
X120723628Y-61594285D02*
X120628390Y-61641904D01*
X46816666Y-38620180D02*
X46816666Y-37905895D01*
X46816666Y-37905895D02*
X46769047Y-37763038D01*
X46769047Y-37763038D02*
X46673809Y-37667800D01*
X46673809Y-37667800D02*
X46530952Y-37620180D01*
X46530952Y-37620180D02*
X46435714Y-37620180D01*
X47816666Y-37620180D02*
X47245238Y-37620180D01*
X47530952Y-37620180D02*
X47530952Y-38620180D01*
X47530952Y-38620180D02*
X47435714Y-38477323D01*
X47435714Y-38477323D02*
X47340476Y-38382085D01*
X47340476Y-38382085D02*
X47245238Y-38334466D01*
X168824819Y-40591905D02*
X167824819Y-40591905D01*
X167824819Y-40591905D02*
X167824819Y-40830000D01*
X167824819Y-40830000D02*
X167872438Y-40972857D01*
X167872438Y-40972857D02*
X167967676Y-41068095D01*
X167967676Y-41068095D02*
X168062914Y-41115714D01*
X168062914Y-41115714D02*
X168253390Y-41163333D01*
X168253390Y-41163333D02*
X168396247Y-41163333D01*
X168396247Y-41163333D02*
X168586723Y-41115714D01*
X168586723Y-41115714D02*
X168681961Y-41068095D01*
X168681961Y-41068095D02*
X168777200Y-40972857D01*
X168777200Y-40972857D02*
X168824819Y-40830000D01*
X168824819Y-40830000D02*
X168824819Y-40591905D01*
X168253390Y-41734762D02*
X168205771Y-41639524D01*
X168205771Y-41639524D02*
X168158152Y-41591905D01*
X168158152Y-41591905D02*
X168062914Y-41544286D01*
X168062914Y-41544286D02*
X168015295Y-41544286D01*
X168015295Y-41544286D02*
X167920057Y-41591905D01*
X167920057Y-41591905D02*
X167872438Y-41639524D01*
X167872438Y-41639524D02*
X167824819Y-41734762D01*
X167824819Y-41734762D02*
X167824819Y-41925238D01*
X167824819Y-41925238D02*
X167872438Y-42020476D01*
X167872438Y-42020476D02*
X167920057Y-42068095D01*
X167920057Y-42068095D02*
X168015295Y-42115714D01*
X168015295Y-42115714D02*
X168062914Y-42115714D01*
X168062914Y-42115714D02*
X168158152Y-42068095D01*
X168158152Y-42068095D02*
X168205771Y-42020476D01*
X168205771Y-42020476D02*
X168253390Y-41925238D01*
X168253390Y-41925238D02*
X168253390Y-41734762D01*
X168253390Y-41734762D02*
X168301009Y-41639524D01*
X168301009Y-41639524D02*
X168348628Y-41591905D01*
X168348628Y-41591905D02*
X168443866Y-41544286D01*
X168443866Y-41544286D02*
X168634342Y-41544286D01*
X168634342Y-41544286D02*
X168729580Y-41591905D01*
X168729580Y-41591905D02*
X168777200Y-41639524D01*
X168777200Y-41639524D02*
X168824819Y-41734762D01*
X168824819Y-41734762D02*
X168824819Y-41925238D01*
X168824819Y-41925238D02*
X168777200Y-42020476D01*
X168777200Y-42020476D02*
X168729580Y-42068095D01*
X168729580Y-42068095D02*
X168634342Y-42115714D01*
X168634342Y-42115714D02*
X168443866Y-42115714D01*
X168443866Y-42115714D02*
X168348628Y-42068095D01*
X168348628Y-42068095D02*
X168301009Y-42020476D01*
X168301009Y-42020476D02*
X168253390Y-41925238D01*
D11*
%TO.C,S20*%
X138775000Y-50250000D02*
X143875000Y-50250000D01*
X142675000Y-54450000D02*
X147775000Y-54450000D01*
X136775000Y-52250000D02*
G75*
G02*
X138775000Y-50250000I1999999J1D01*
G01*
X140675000Y-56450000D02*
G75*
G02*
X142675000Y-54450000I1999999J1D01*
G01*
%TO.C,S19*%
X119725000Y-50250000D02*
X124825000Y-50250000D01*
X123625000Y-54450000D02*
X128725000Y-54450000D01*
X117725000Y-52250000D02*
G75*
G02*
X119725000Y-50250000I1999999J1D01*
G01*
X121625000Y-56450000D02*
G75*
G02*
X123625000Y-54450000I1999999J1D01*
G01*
%TO.C,S47*%
X114962500Y-88350000D02*
X120062500Y-88350000D01*
X118862500Y-92550000D02*
X123962500Y-92550000D01*
X112962500Y-90350000D02*
G75*
G02*
X114962500Y-88350000I1999999J1D01*
G01*
X116862500Y-94550000D02*
G75*
G02*
X118862500Y-92550000I1999999J1D01*
G01*
%TO.C,S4*%
X91150000Y-31200000D02*
X96250000Y-31200000D01*
X95050000Y-35400000D02*
X100150000Y-35400000D01*
X89150000Y-33200000D02*
G75*
G02*
X91150000Y-31200000I1999999J1D01*
G01*
X93050000Y-37400000D02*
G75*
G02*
X95050000Y-35400000I1999999J1D01*
G01*
%TO.C,S7*%
X148300000Y-31200000D02*
X153400000Y-31200000D01*
X152200000Y-35400000D02*
X157300000Y-35400000D01*
X146300000Y-33200000D02*
G75*
G02*
X148300000Y-31200000I1999999J1D01*
G01*
X150200000Y-37400000D02*
G75*
G02*
X152200000Y-35400000I1999999J1D01*
G01*
%TO.C,S57-2*%
X45562500Y-114100000D02*
X45562500Y-119200000D01*
X49762500Y-110200000D02*
X49762500Y-115300000D01*
X43562500Y-112100000D02*
G75*
G02*
X45562500Y-114100000I1J-1999999D01*
G01*
X47762500Y-108200000D02*
G75*
G02*
X49762500Y-110200000I1J-1999999D01*
G01*
%TO.C,S12*%
X243550000Y-31200000D02*
X248650000Y-31200000D01*
X247450000Y-35400000D02*
X252550000Y-35400000D01*
X241550000Y-33200000D02*
G75*
G02*
X243550000Y-31200000I1999999J1D01*
G01*
X245450000Y-37400000D02*
G75*
G02*
X247450000Y-35400000I1999999J1D01*
G01*
%TO.C,S62*%
X257493750Y-114100000D02*
X257493750Y-119200000D01*
X261693750Y-110200000D02*
X261693750Y-115300000D01*
X255493750Y-112100000D02*
G75*
G02*
X257493750Y-114100000I1J-1999999D01*
G01*
X259693750Y-108200000D02*
G75*
G02*
X261693750Y-110200000I1J-1999999D01*
G01*
%TO.C,S3*%
X72100000Y-31200000D02*
X77200000Y-31200000D01*
X76000000Y-35400000D02*
X81100000Y-35400000D01*
X70100000Y-33200000D02*
G75*
G02*
X72100000Y-31200000I1999999J1D01*
G01*
X74000000Y-37400000D02*
G75*
G02*
X76000000Y-35400000I1999999J1D01*
G01*
%TO.C,S15*%
X38762500Y-50250000D02*
X43862500Y-50250000D01*
X42662500Y-54450000D02*
X47762500Y-54450000D01*
X36762500Y-52250000D02*
G75*
G02*
X38762500Y-50250000I1999999J1D01*
G01*
X40662500Y-56450000D02*
G75*
G02*
X42662500Y-54450000I1999999J1D01*
G01*
%TO.C,S62-2*%
X245512500Y-118400000D02*
X245512500Y-113300000D01*
X249712500Y-114500000D02*
X249712500Y-109400000D01*
X247512500Y-120400000D02*
G75*
G02*
X245512500Y-118400000I-1J1999999D01*
G01*
X251712500Y-116500000D02*
G75*
G02*
X249712500Y-114500000I-1J1999999D01*
G01*
%TO.C,S25*%
X234025000Y-50250000D02*
X239125000Y-50250000D01*
X237925000Y-54450000D02*
X243025000Y-54450000D01*
X232025000Y-52250000D02*
G75*
G02*
X234025000Y-50250000I1999999J1D01*
G01*
X235925000Y-56450000D02*
G75*
G02*
X237925000Y-54450000I1999999J1D01*
G01*
%TO.C,S1*%
X38300000Y-40800000D02*
X33200000Y-40800000D01*
X42200000Y-45000000D02*
X37100000Y-45000000D01*
X40300000Y-38800000D02*
G75*
G02*
X38300000Y-40800000I-1999999J-1D01*
G01*
X44200000Y-43000000D02*
G75*
G02*
X42200000Y-45000000I-1999999J-1D01*
G01*
%TO.C,S9*%
X186400000Y-31200000D02*
X191500000Y-31200000D01*
X190300000Y-35400000D02*
X195400000Y-35400000D01*
X184400000Y-33200000D02*
G75*
G02*
X186400000Y-31200000I1999999J1D01*
G01*
X188300000Y-37400000D02*
G75*
G02*
X190300000Y-35400000I1999999J1D01*
G01*
%TO.C,S44*%
X57812500Y-88350000D02*
X62912500Y-88350000D01*
X61712500Y-92550000D02*
X66812500Y-92550000D01*
X55812500Y-90350000D02*
G75*
G02*
X57812500Y-88350000I1999999J1D01*
G01*
X59712500Y-94550000D02*
G75*
G02*
X61712500Y-92550000I1999999J1D01*
G01*
%TO.C,S23*%
X195925000Y-50250000D02*
X201025000Y-50250000D01*
X199825000Y-54450000D02*
X204925000Y-54450000D01*
X193925000Y-52250000D02*
G75*
G02*
X195925000Y-50250000I1999999J1D01*
G01*
X197825000Y-56450000D02*
G75*
G02*
X199825000Y-54450000I1999999J1D01*
G01*
%TO.C,S64-2*%
X293137500Y-118400000D02*
X293137500Y-113300000D01*
X297337500Y-114500000D02*
X297337500Y-109400000D01*
X295137500Y-120400000D02*
G75*
G02*
X293137500Y-118400000I-1J1999999D01*
G01*
X299337500Y-116500000D02*
G75*
G02*
X297337500Y-114500000I-1J1999999D01*
G01*
%TO.C,S57*%
X33581250Y-118400000D02*
X33581250Y-113300000D01*
X37781250Y-114500000D02*
X37781250Y-109400000D01*
X35581250Y-120400000D02*
G75*
G02*
X33581250Y-118400000I-1J1999999D01*
G01*
X39781250Y-116500000D02*
G75*
G02*
X37781250Y-114500000I-1J1999999D01*
G01*
%TO.C,S14*%
X291175000Y-31200000D02*
X296275000Y-31200000D01*
X295075000Y-35400000D02*
X300175000Y-35400000D01*
X289175000Y-33200000D02*
G75*
G02*
X291175000Y-31200000I1999999J1D01*
G01*
X293075000Y-37400000D02*
G75*
G02*
X295075000Y-35400000I1999999J1D01*
G01*
%TO.C,S61*%
X226881250Y-107400000D02*
X231981250Y-107400000D01*
X230781250Y-111600000D02*
X235881250Y-111600000D01*
X224881250Y-109400000D02*
G75*
G02*
X226881250Y-107400000I1999999J1D01*
G01*
X228781250Y-113600000D02*
G75*
G02*
X230781250Y-111600000I1999999J1D01*
G01*
%TO.C,S16*%
X62575000Y-50250000D02*
X67675000Y-50250000D01*
X66475000Y-54450000D02*
X71575000Y-54450000D01*
X60575000Y-52250000D02*
G75*
G02*
X62575000Y-50250000I1999999J1D01*
G01*
X64475000Y-56450000D02*
G75*
G02*
X66475000Y-54450000I1999999J1D01*
G01*
%TO.C,S24*%
X214975000Y-50250000D02*
X220075000Y-50250000D01*
X218875000Y-54450000D02*
X223975000Y-54450000D01*
X212975000Y-52250000D02*
G75*
G02*
X214975000Y-50250000I1999999J1D01*
G01*
X216875000Y-56450000D02*
G75*
G02*
X218875000Y-54450000I1999999J1D01*
G01*
%TO.C,S31*%
X86387500Y-69300000D02*
X91487500Y-69300000D01*
X90287500Y-73500000D02*
X95387500Y-73500000D01*
X84387500Y-71300000D02*
G75*
G02*
X86387500Y-69300000I1999999J1D01*
G01*
X88287500Y-75500000D02*
G75*
G02*
X90287500Y-73500000I1999999J1D01*
G01*
%TO.C,S33*%
X124487500Y-69300000D02*
X129587500Y-69300000D01*
X128387500Y-73500000D02*
X133487500Y-73500000D01*
X122487500Y-71300000D02*
G75*
G02*
X124487500Y-69300000I1999999J1D01*
G01*
X126387500Y-75500000D02*
G75*
G02*
X128387500Y-73500000I1999999J1D01*
G01*
%TO.C,S34*%
X143537500Y-69300000D02*
X148637500Y-69300000D01*
X147437500Y-73500000D02*
X152537500Y-73500000D01*
X141537500Y-71300000D02*
G75*
G02*
X143537500Y-69300000I1999999J1D01*
G01*
X145437500Y-75500000D02*
G75*
G02*
X147437500Y-73500000I1999999J1D01*
G01*
%TO.C,S46*%
X95912500Y-88350000D02*
X101012500Y-88350000D01*
X99812500Y-92550000D02*
X104912500Y-92550000D01*
X93912500Y-90350000D02*
G75*
G02*
X95912500Y-88350000I1999999J1D01*
G01*
X97812500Y-94550000D02*
G75*
G02*
X99812500Y-92550000I1999999J1D01*
G01*
%TO.C,S50*%
X172112500Y-88350000D02*
X177212500Y-88350000D01*
X176012500Y-92550000D02*
X181112500Y-92550000D01*
X170112500Y-90350000D02*
G75*
G02*
X172112500Y-88350000I1999999J1D01*
G01*
X174012500Y-94550000D02*
G75*
G02*
X176012500Y-92550000I1999999J1D01*
G01*
%TO.C,S22*%
X176875000Y-50250000D02*
X181975000Y-50250000D01*
X180775000Y-54450000D02*
X185875000Y-54450000D01*
X174875000Y-52250000D02*
G75*
G02*
X176875000Y-50250000I1999999J1D01*
G01*
X178775000Y-56450000D02*
G75*
G02*
X180775000Y-54450000I1999999J1D01*
G01*
%TO.C,S41*%
X274087500Y-80300000D02*
X274087500Y-75200000D01*
X278287500Y-76400000D02*
X278287500Y-71300000D01*
X276087500Y-82300000D02*
G75*
G02*
X274087500Y-80300000I-1J1999999D01*
G01*
X280287500Y-78400000D02*
G75*
G02*
X278287500Y-76400000I-1J1999999D01*
G01*
%TO.C,S63-2*%
X269325000Y-118400000D02*
X269325000Y-113300000D01*
X273525000Y-114500000D02*
X273525000Y-109400000D01*
X271325000Y-120400000D02*
G75*
G02*
X269325000Y-118400000I-1J1999999D01*
G01*
X275525000Y-116500000D02*
G75*
G02*
X273525000Y-114500000I-1J1999999D01*
G01*
%TO.C,S27*%
X272125000Y-50250000D02*
X277225000Y-50250000D01*
X276025000Y-54450000D02*
X281125000Y-54450000D01*
X270125000Y-52250000D02*
G75*
G02*
X272125000Y-50250000I1999999J1D01*
G01*
X274025000Y-56450000D02*
G75*
G02*
X276025000Y-54450000I1999999J1D01*
G01*
%TO.C,S58*%
X57393750Y-118400000D02*
X57393750Y-113300000D01*
X61593750Y-114500000D02*
X61593750Y-109400000D01*
X59393750Y-120400000D02*
G75*
G02*
X57393750Y-118400000I-1J1999999D01*
G01*
X63593750Y-116500000D02*
G75*
G02*
X61593750Y-114500000I-1J1999999D01*
G01*
%TO.C,S60-2*%
X171650000Y-117000000D02*
X166550000Y-117000000D01*
X175550000Y-121200000D02*
X170450000Y-121200000D01*
X173650000Y-115000000D02*
G75*
G02*
X171650000Y-117000000I-1999999J-1D01*
G01*
X177550000Y-119200000D02*
G75*
G02*
X175550000Y-121200000I-1999999J-1D01*
G01*
%TO.C,S8*%
X167350000Y-31200000D02*
X172450000Y-31200000D01*
X171250000Y-35400000D02*
X176350000Y-35400000D01*
X165350000Y-33200000D02*
G75*
G02*
X167350000Y-31200000I1999999J1D01*
G01*
X169250000Y-37400000D02*
G75*
G02*
X171250000Y-35400000I1999999J1D01*
G01*
%TO.C,S63*%
X281306250Y-114100000D02*
X281306250Y-119200000D01*
X285506250Y-110200000D02*
X285506250Y-115300000D01*
X279306250Y-112100000D02*
G75*
G02*
X281306250Y-114100000I1J-1999999D01*
G01*
X283506250Y-108200000D02*
G75*
G02*
X285506250Y-110200000I1J-1999999D01*
G01*
%TO.C,S37*%
X200687500Y-69300000D02*
X205787500Y-69300000D01*
X204587500Y-73500000D02*
X209687500Y-73500000D01*
X198687500Y-71300000D02*
G75*
G02*
X200687500Y-69300000I1999999J1D01*
G01*
X202587500Y-75500000D02*
G75*
G02*
X204587500Y-73500000I1999999J1D01*
G01*
%TO.C,S55*%
X281306250Y-95050000D02*
X281306250Y-100150000D01*
X285506250Y-91150000D02*
X285506250Y-96250000D01*
X279306250Y-93050000D02*
G75*
G02*
X281306250Y-95050000I1J-1999999D01*
G01*
X283506250Y-89150000D02*
G75*
G02*
X285506250Y-91150000I1J-1999999D01*
G01*
%TO.C,S21*%
X157825000Y-50250000D02*
X162925000Y-50250000D01*
X161725000Y-54450000D02*
X166825000Y-54450000D01*
X155825000Y-52250000D02*
G75*
G02*
X157825000Y-50250000I1999999J1D01*
G01*
X159725000Y-56450000D02*
G75*
G02*
X161725000Y-54450000I1999999J1D01*
G01*
%TO.C,S11*%
X224500000Y-31200000D02*
X229600000Y-31200000D01*
X228400000Y-35400000D02*
X233500000Y-35400000D01*
X222500000Y-33200000D02*
G75*
G02*
X224500000Y-31200000I1999999J1D01*
G01*
X226400000Y-37400000D02*
G75*
G02*
X228400000Y-35400000I1999999J1D01*
G01*
%TO.C,S52*%
X210212500Y-88350000D02*
X215312500Y-88350000D01*
X214112500Y-92550000D02*
X219212500Y-92550000D01*
X208212500Y-90350000D02*
G75*
G02*
X210212500Y-88350000I1999999J1D01*
G01*
X212112500Y-94550000D02*
G75*
G02*
X214112500Y-92550000I1999999J1D01*
G01*
%TO.C,S30*%
X67337500Y-69300000D02*
X72437500Y-69300000D01*
X71237500Y-73500000D02*
X76337500Y-73500000D01*
X65337500Y-71300000D02*
G75*
G02*
X67337500Y-69300000I1999999J1D01*
G01*
X69237500Y-75500000D02*
G75*
G02*
X71237500Y-73500000I1999999J1D01*
G01*
%TO.C,S38*%
X219737500Y-69300000D02*
X224837500Y-69300000D01*
X223637500Y-73500000D02*
X228737500Y-73500000D01*
X217737500Y-71300000D02*
G75*
G02*
X219737500Y-69300000I1999999J1D01*
G01*
X221637500Y-75500000D02*
G75*
G02*
X223637500Y-73500000I1999999J1D01*
G01*
%TO.C,S35*%
X162587500Y-69300000D02*
X167687500Y-69300000D01*
X166487500Y-73500000D02*
X171587500Y-73500000D01*
X160587500Y-71300000D02*
G75*
G02*
X162587500Y-69300000I1999999J1D01*
G01*
X164487500Y-75500000D02*
G75*
G02*
X166487500Y-73500000I1999999J1D01*
G01*
%TO.C,S39*%
X238787500Y-69300000D02*
X243887500Y-69300000D01*
X242687500Y-73500000D02*
X247787500Y-73500000D01*
X236787500Y-71300000D02*
G75*
G02*
X238787500Y-69300000I1999999J1D01*
G01*
X240687500Y-75500000D02*
G75*
G02*
X242687500Y-73500000I1999999J1D01*
G01*
%TO.C,S48*%
X134012500Y-88350000D02*
X139112500Y-88350000D01*
X137912500Y-92550000D02*
X143012500Y-92550000D01*
X132012500Y-90350000D02*
G75*
G02*
X134012500Y-88350000I1999999J1D01*
G01*
X135912500Y-94550000D02*
G75*
G02*
X137912500Y-92550000I1999999J1D01*
G01*
%TO.C,S18*%
X100675000Y-50250000D02*
X105775000Y-50250000D01*
X104575000Y-54450000D02*
X109675000Y-54450000D01*
X98675000Y-52250000D02*
G75*
G02*
X100675000Y-50250000I1999999J1D01*
G01*
X102575000Y-56450000D02*
G75*
G02*
X104575000Y-54450000I1999999J1D01*
G01*
%TO.C,S28-2*%
X285993750Y-80300000D02*
X285993750Y-75200000D01*
X290193750Y-76400000D02*
X290193750Y-71300000D01*
X287993750Y-82300000D02*
G75*
G02*
X285993750Y-80300000I-1J1999999D01*
G01*
X292193750Y-78400000D02*
G75*
G02*
X290193750Y-76400000I-1J1999999D01*
G01*
%TO.C,S45*%
X76862500Y-88350000D02*
X81962500Y-88350000D01*
X80762500Y-92550000D02*
X85862500Y-92550000D01*
X74862500Y-90350000D02*
G75*
G02*
X76862500Y-88350000I1999999J1D01*
G01*
X78762500Y-94550000D02*
G75*
G02*
X80762500Y-92550000I1999999J1D01*
G01*
%TO.C,S13*%
X262600000Y-31200000D02*
X267700000Y-31200000D01*
X266500000Y-35400000D02*
X271600000Y-35400000D01*
X260600000Y-33200000D02*
G75*
G02*
X262600000Y-31200000I1999999J1D01*
G01*
X264500000Y-37400000D02*
G75*
G02*
X266500000Y-35400000I1999999J1D01*
G01*
%TO.C,S26*%
X253075000Y-50250000D02*
X258175000Y-50250000D01*
X256975000Y-54450000D02*
X262075000Y-54450000D01*
X251075000Y-52250000D02*
G75*
G02*
X253075000Y-50250000I1999999J1D01*
G01*
X254975000Y-56450000D02*
G75*
G02*
X256975000Y-54450000I1999999J1D01*
G01*
%TO.C,S5*%
X110200000Y-31200000D02*
X115300000Y-31200000D01*
X114100000Y-35400000D02*
X119200000Y-35400000D01*
X108200000Y-33200000D02*
G75*
G02*
X110200000Y-31200000I1999999J1D01*
G01*
X112100000Y-37400000D02*
G75*
G02*
X114100000Y-35400000I1999999J1D01*
G01*
%TO.C,S17*%
X81625000Y-50250000D02*
X86725000Y-50250000D01*
X85525000Y-54450000D02*
X90625000Y-54450000D01*
X79625000Y-52250000D02*
G75*
G02*
X81625000Y-50250000I1999999J1D01*
G01*
X83525000Y-56450000D02*
G75*
G02*
X85525000Y-54450000I1999999J1D01*
G01*
%TO.C,S32*%
X105437500Y-69300000D02*
X110537500Y-69300000D01*
X109337500Y-73500000D02*
X114437500Y-73500000D01*
X103437500Y-71300000D02*
G75*
G02*
X105437500Y-69300000I1999999J1D01*
G01*
X107337500Y-75500000D02*
G75*
G02*
X109337500Y-73500000I1999999J1D01*
G01*
%TO.C,S55-2*%
X290831250Y-95050000D02*
X290831250Y-100150000D01*
X295031250Y-91150000D02*
X295031250Y-96250000D01*
X288831250Y-93050000D02*
G75*
G02*
X290831250Y-95050000I1J-1999999D01*
G01*
X293031250Y-89150000D02*
G75*
G02*
X295031250Y-91150000I1J-1999999D01*
G01*
%TO.C,S36*%
X181637500Y-69300000D02*
X186737500Y-69300000D01*
X185537500Y-73500000D02*
X190637500Y-73500000D01*
X179637500Y-71300000D02*
G75*
G02*
X181637500Y-69300000I1999999J1D01*
G01*
X183537500Y-75500000D02*
G75*
G02*
X185537500Y-73500000I1999999J1D01*
G01*
%TO.C,S49*%
X153062500Y-88350000D02*
X158162500Y-88350000D01*
X156962500Y-92550000D02*
X162062500Y-92550000D01*
X151062500Y-90350000D02*
G75*
G02*
X153062500Y-88350000I1999999J1D01*
G01*
X154962500Y-94550000D02*
G75*
G02*
X156962500Y-92550000I1999999J1D01*
G01*
%TO.C,S60*%
X155443750Y-107400000D02*
X160543750Y-107400000D01*
X159343750Y-111600000D02*
X164443750Y-111600000D01*
X153443750Y-109400000D02*
G75*
G02*
X155443750Y-107400000I1999999J1D01*
G01*
X157343750Y-113600000D02*
G75*
G02*
X159343750Y-111600000I1999999J1D01*
G01*
%TO.C,S53*%
X229262500Y-88350000D02*
X234362500Y-88350000D01*
X233162500Y-92550000D02*
X238262500Y-92550000D01*
X227262500Y-90350000D02*
G75*
G02*
X229262500Y-88350000I1999999J1D01*
G01*
X231162500Y-94550000D02*
G75*
G02*
X233162500Y-92550000I1999999J1D01*
G01*
%TO.C,S10*%
X205450000Y-31200000D02*
X210550000Y-31200000D01*
X209350000Y-35400000D02*
X214450000Y-35400000D01*
X203450000Y-33200000D02*
G75*
G02*
X205450000Y-31200000I1999999J1D01*
G01*
X207350000Y-37400000D02*
G75*
G02*
X209350000Y-35400000I1999999J1D01*
G01*
%TO.C,S56*%
X307500000Y-95050000D02*
X307500000Y-100150000D01*
X311700000Y-91150000D02*
X311700000Y-96250000D01*
X305500000Y-93050000D02*
G75*
G02*
X307500000Y-95050000I1J-1999999D01*
G01*
X309700000Y-89150000D02*
G75*
G02*
X311700000Y-91150000I1J-1999999D01*
G01*
%TO.C,S59*%
X81206250Y-118400000D02*
X81206250Y-113300000D01*
X85406250Y-114500000D02*
X85406250Y-109400000D01*
X83206250Y-120400000D02*
G75*
G02*
X81206250Y-118400000I-1J1999999D01*
G01*
X87406250Y-116500000D02*
G75*
G02*
X85406250Y-114500000I-1J1999999D01*
G01*
%TO.C,S42*%
X305000000Y-40800000D02*
X299900000Y-40800000D01*
X308900000Y-45000000D02*
X303800000Y-45000000D01*
X307000000Y-38800000D02*
G75*
G02*
X305000000Y-40800000I-1999999J-1D01*
G01*
X310900000Y-43000000D02*
G75*
G02*
X308900000Y-45000000I-1999999J-1D01*
G01*
%TO.C,S14-2*%
X285950000Y-40800000D02*
X280850000Y-40800000D01*
X289850000Y-45000000D02*
X284750000Y-45000000D01*
X287950000Y-38800000D02*
G75*
G02*
X285950000Y-40800000I-1999999J-1D01*
G01*
X291850000Y-43000000D02*
G75*
G02*
X289850000Y-45000000I-1999999J-1D01*
G01*
%TO.C,S54*%
X248312500Y-88350000D02*
X253412500Y-88350000D01*
X252212500Y-92550000D02*
X257312500Y-92550000D01*
X246312500Y-90350000D02*
G75*
G02*
X248312500Y-88350000I1999999J1D01*
G01*
X250212500Y-94550000D02*
G75*
G02*
X252212500Y-92550000I1999999J1D01*
G01*
%TO.C,S43*%
X36381250Y-88350000D02*
X41481250Y-88350000D01*
X40281250Y-92550000D02*
X45381250Y-92550000D01*
X34381250Y-90350000D02*
G75*
G02*
X36381250Y-88350000I1999999J1D01*
G01*
X38281250Y-94550000D02*
G75*
G02*
X40281250Y-92550000I1999999J1D01*
G01*
%TO.C,S51*%
X191162500Y-88350000D02*
X196262500Y-88350000D01*
X195062500Y-92550000D02*
X200162500Y-92550000D01*
X189162500Y-90350000D02*
G75*
G02*
X191162500Y-88350000I1999999J1D01*
G01*
X193062500Y-94550000D02*
G75*
G02*
X195062500Y-92550000I1999999J1D01*
G01*
%TO.C,S58-2*%
X69375000Y-114100000D02*
X69375000Y-119200000D01*
X73575000Y-110200000D02*
X73575000Y-115300000D01*
X67375000Y-112100000D02*
G75*
G02*
X69375000Y-114100000I1J-1999999D01*
G01*
X71575000Y-108200000D02*
G75*
G02*
X73575000Y-110200000I1J-1999999D01*
G01*
%TO.C,S41-2*%
X302737500Y-56950000D02*
X302737500Y-62050000D01*
X306937500Y-53050000D02*
X306937500Y-58150000D01*
X300737500Y-54950000D02*
G75*
G02*
X302737500Y-56950000I1J-1999999D01*
G01*
X304937500Y-51050000D02*
G75*
G02*
X306937500Y-53050000I1J-1999999D01*
G01*
%TO.C,S28*%
X295518750Y-70775000D02*
X295518750Y-65675000D01*
X299718750Y-66875000D02*
X299718750Y-61775000D01*
X297518750Y-72775000D02*
G75*
G02*
X295518750Y-70775000I-1J1999999D01*
G01*
X301718750Y-68875000D02*
G75*
G02*
X299718750Y-66875000I-1J1999999D01*
G01*
%TO.C,S29-2*%
X33581250Y-80300000D02*
X33581250Y-75200000D01*
X37781250Y-76400000D02*
X37781250Y-71300000D01*
X35581250Y-82300000D02*
G75*
G02*
X33581250Y-80300000I-1J1999999D01*
G01*
X39781250Y-78400000D02*
G75*
G02*
X37781250Y-76400000I-1J1999999D01*
G01*
%TO.C,S29*%
X47943750Y-76000000D02*
X47943750Y-81100000D01*
X52143750Y-72100000D02*
X52143750Y-77200000D01*
X45943750Y-74000000D02*
G75*
G02*
X47943750Y-76000000I1J-1999999D01*
G01*
X50143750Y-70100000D02*
G75*
G02*
X52143750Y-72100000I1J-1999999D01*
G01*
%TO.C,S6*%
X129250000Y-31200000D02*
X134350000Y-31200000D01*
X133150000Y-35400000D02*
X138250000Y-35400000D01*
X127250000Y-33200000D02*
G75*
G02*
X129250000Y-31200000I1999999J1D01*
G01*
X131150000Y-37400000D02*
G75*
G02*
X133150000Y-35400000I1999999J1D01*
G01*
%TO.C,S59-2*%
X93187500Y-114100000D02*
X93187500Y-119200000D01*
X97387500Y-110200000D02*
X97387500Y-115300000D01*
X91187500Y-112100000D02*
G75*
G02*
X93187500Y-114100000I1J-1999999D01*
G01*
X95387500Y-108200000D02*
G75*
G02*
X97387500Y-110200000I1J-1999999D01*
G01*
%TO.C,S43-2*%
X50206250Y-97950000D02*
X45106250Y-97950000D01*
X54106250Y-102150000D02*
X49006250Y-102150000D01*
X52206250Y-95950000D02*
G75*
G02*
X50206250Y-97950000I-1999999J-1D01*
G01*
X56106250Y-100150000D02*
G75*
G02*
X54106250Y-102150000I-1999999J-1D01*
G01*
%TO.C,S2*%
X57350000Y-40800000D02*
X52250000Y-40800000D01*
X61250000Y-45000000D02*
X56150000Y-45000000D01*
X59350000Y-38800000D02*
G75*
G02*
X57350000Y-40800000I-1999999J-1D01*
G01*
X63250000Y-43000000D02*
G75*
G02*
X61250000Y-45000000I-1999999J-1D01*
G01*
%TO.C,S64*%
X305118750Y-114100000D02*
X305118750Y-119200000D01*
X309318750Y-110200000D02*
X309318750Y-115300000D01*
X303118750Y-112100000D02*
G75*
G02*
X305118750Y-114100000I1J-1999999D01*
G01*
X307318750Y-108200000D02*
G75*
G02*
X309318750Y-110200000I1J-1999999D01*
G01*
%TO.C,S40*%
X257837500Y-69300000D02*
X262937500Y-69300000D01*
X261737500Y-73500000D02*
X266837500Y-73500000D01*
X255837500Y-71300000D02*
G75*
G02*
X257837500Y-69300000I1999999J1D01*
G01*
X259737500Y-75500000D02*
G75*
G02*
X261737500Y-73500000I1999999J1D01*
G01*
%TO.C,D1*%
X32020000Y-36520000D02*
X32020000Y-32510000D01*
X34020000Y-32510000D02*
X32020000Y-32510000D01*
X34020000Y-36520000D02*
X34020000Y-32510000D01*
%TO.C,D46*%
X93932500Y-96830000D02*
X93932500Y-100840000D01*
X93932500Y-100840000D02*
X95932500Y-100840000D01*
X95932500Y-96830000D02*
X95932500Y-100840000D01*
%TO.C,D32*%
X103457500Y-77780000D02*
X103457500Y-81790000D01*
X103457500Y-81790000D02*
X105457500Y-81790000D01*
X105457500Y-77780000D02*
X105457500Y-81790000D01*
%TO.C,D34*%
X141557500Y-77780000D02*
X141557500Y-81790000D01*
X141557500Y-81790000D02*
X143557500Y-81790000D01*
X143557500Y-77780000D02*
X143557500Y-81790000D01*
%TO.C,D41*%
X269987500Y-84380000D02*
X269987500Y-80370000D01*
X271987500Y-80370000D02*
X269987500Y-80370000D01*
X271987500Y-84380000D02*
X271987500Y-80370000D01*
%TO.C,D56*%
X298720000Y-93600000D02*
X298720000Y-97610000D01*
X298720000Y-97610000D02*
X300720000Y-97610000D01*
X300720000Y-93600000D02*
X300720000Y-97610000D01*
%TO.C,D50*%
X170132500Y-96830000D02*
X170132500Y-100840000D01*
X170132500Y-100840000D02*
X172132500Y-100840000D01*
X172132500Y-96830000D02*
X172132500Y-100840000D01*
%TO.C,D51*%
X189182500Y-96830000D02*
X189182500Y-100840000D01*
X189182500Y-100840000D02*
X191182500Y-100840000D01*
X191182500Y-96830000D02*
X191182500Y-100840000D01*
%TO.C,D5*%
X108220000Y-39680000D02*
X108220000Y-43690000D01*
X108220000Y-43690000D02*
X110220000Y-43690000D01*
X110220000Y-39680000D02*
X110220000Y-43690000D01*
%TO.C,R1*%
X129520000Y-110173641D02*
X129520000Y-109866359D01*
X130280000Y-110173641D02*
X130280000Y-109866359D01*
%TO.C,D38*%
X217757500Y-77780000D02*
X217757500Y-81790000D01*
X217757500Y-81790000D02*
X219757500Y-81790000D01*
X219757500Y-77780000D02*
X219757500Y-81790000D01*
%TO.C,D52*%
X208232500Y-96830000D02*
X208232500Y-100840000D01*
X208232500Y-100840000D02*
X210232500Y-100840000D01*
X210232500Y-96830000D02*
X210232500Y-100840000D01*
%TO.C,D60*%
X153463750Y-115880000D02*
X153463750Y-119890000D01*
X153463750Y-119890000D02*
X155463750Y-119890000D01*
X155463750Y-115880000D02*
X155463750Y-119890000D01*
%TO.C,D48*%
X132032500Y-96830000D02*
X132032500Y-100840000D01*
X132032500Y-100840000D02*
X134032500Y-100840000D01*
X134032500Y-96830000D02*
X134032500Y-100840000D01*
%TO.C,D20*%
X136795000Y-58730000D02*
X136795000Y-62740000D01*
X136795000Y-62740000D02*
X138795000Y-62740000D01*
X138795000Y-58730000D02*
X138795000Y-62740000D01*
%TO.C,C8*%
X129542164Y-118190000D02*
X129757836Y-118190000D01*
X129542164Y-118910000D02*
X129757836Y-118910000D01*
%TO.C,R4*%
X129803641Y-117170000D02*
X129496359Y-117170000D01*
X129803641Y-117930000D02*
X129496359Y-117930000D01*
%TO.C,D42*%
X283037500Y-55500000D02*
X283037500Y-59510000D01*
X283037500Y-59510000D02*
X285037500Y-59510000D01*
X285037500Y-55500000D02*
X285037500Y-59510000D01*
%TO.C,D55*%
X265575000Y-96830000D02*
X265575000Y-100840000D01*
X265575000Y-100840000D02*
X267575000Y-100840000D01*
X267575000Y-96830000D02*
X267575000Y-100840000D01*
%TO.C,D49*%
X151082500Y-96830000D02*
X151082500Y-100840000D01*
X151082500Y-100840000D02*
X153082500Y-100840000D01*
X153082500Y-96830000D02*
X153082500Y-100840000D01*
%TO.C,D64*%
X289037500Y-108940000D02*
X289037500Y-104930000D01*
X291037500Y-104930000D02*
X289037500Y-104930000D01*
X291037500Y-108940000D02*
X291037500Y-104930000D01*
%TO.C,D27*%
X270145000Y-58730000D02*
X270145000Y-62740000D01*
X270145000Y-62740000D02*
X272145000Y-62740000D01*
X272145000Y-58730000D02*
X272145000Y-62740000D01*
%TO.C,C10*%
X129542164Y-119190000D02*
X129757836Y-119190000D01*
X129542164Y-119910000D02*
X129757836Y-119910000D01*
%TO.C,D3*%
X70120000Y-39680000D02*
X70120000Y-43690000D01*
X70120000Y-43690000D02*
X72120000Y-43690000D01*
X72120000Y-39680000D02*
X72120000Y-43690000D01*
%TO.C,R6*%
X45236359Y-37870000D02*
X45543641Y-37870000D01*
X45236359Y-38630000D02*
X45543641Y-38630000D01*
%TO.C,D4*%
X89170000Y-39680000D02*
X89170000Y-43690000D01*
X89170000Y-43690000D02*
X91170000Y-43690000D01*
X91170000Y-39680000D02*
X91170000Y-43690000D01*
%TO.C,D33*%
X122507500Y-77780000D02*
X122507500Y-81790000D01*
X122507500Y-81790000D02*
X124507500Y-81790000D01*
X124507500Y-77780000D02*
X124507500Y-81790000D01*
%TO.C,C9*%
X130770000Y-120137836D02*
X130770000Y-119922164D01*
X131490000Y-120137836D02*
X131490000Y-119922164D01*
%TO.C,C7*%
X125765000Y-113457922D02*
X125765000Y-113673594D01*
X126485000Y-113457922D02*
X126485000Y-113673594D01*
%TO.C,D17*%
X79645000Y-58730000D02*
X79645000Y-62740000D01*
X79645000Y-62740000D02*
X81645000Y-62740000D01*
X81645000Y-58730000D02*
X81645000Y-62740000D01*
%TO.C,Y1*%
X143100000Y-116800000D02*
X147100000Y-116800000D01*
X147100000Y-116800000D02*
X147100000Y-113500000D01*
%TO.C,U2*%
X127825000Y-111840000D02*
X130825000Y-111840000D01*
X127825000Y-114110000D02*
X130825000Y-114110000D01*
X131655000Y-111925000D02*
X131375000Y-111925000D01*
X131375000Y-111645000D01*
X131655000Y-111925000D01*
G36*
X131655000Y-111925000D02*
G01*
X131375000Y-111925000D01*
X131375000Y-111645000D01*
X131655000Y-111925000D01*
G37*
%TO.C,C2*%
X145207836Y-112540000D02*
X144992164Y-112540000D01*
X145207836Y-113260000D02*
X144992164Y-113260000D01*
%TO.C,D28*%
X281677500Y-61030000D02*
X281677500Y-63030000D01*
X285687500Y-61030000D02*
X281677500Y-61030000D01*
X285687500Y-63030000D02*
X281677500Y-63030000D01*
%TO.C,D63*%
X265225000Y-108940000D02*
X265225000Y-104930000D01*
X267225000Y-104930000D02*
X265225000Y-104930000D01*
X267225000Y-108940000D02*
X267225000Y-104930000D01*
%TO.C,D31*%
X84407500Y-77780000D02*
X84407500Y-81790000D01*
X84407500Y-81790000D02*
X86407500Y-81790000D01*
X86407500Y-77780000D02*
X86407500Y-81790000D01*
%TO.C,U3*%
X132290000Y-112240000D02*
X132290000Y-112590000D01*
X132290000Y-119160000D02*
X132290000Y-118510000D01*
X132530000Y-111940000D02*
X132940000Y-111940000D01*
X132940000Y-119160000D02*
X132290000Y-119160000D01*
X138860000Y-111940000D02*
X139510000Y-111940000D01*
X138860000Y-119160000D02*
X139510000Y-119160000D01*
X139510000Y-111940000D02*
X139510000Y-112590000D01*
X139510000Y-119160000D02*
X139510000Y-118510000D01*
X132290000Y-111940000D02*
X131960000Y-112180000D01*
X131960000Y-111700000D01*
X132290000Y-111940000D01*
G36*
X132290000Y-111940000D02*
G01*
X131960000Y-112180000D01*
X131960000Y-111700000D01*
X132290000Y-111940000D01*
G37*
%TO.C,C4*%
X127540000Y-109912164D02*
X127540000Y-110127836D01*
X128260000Y-109912164D02*
X128260000Y-110127836D01*
%TO.C,D29*%
X54243750Y-77780000D02*
X54243750Y-81790000D01*
X54243750Y-81790000D02*
X56243750Y-81790000D01*
X56243750Y-77780000D02*
X56243750Y-81790000D01*
%TO.C,D40*%
X255857500Y-77780000D02*
X255857500Y-81790000D01*
X255857500Y-81790000D02*
X257857500Y-81790000D01*
X257857500Y-77780000D02*
X257857500Y-81790000D01*
%TO.C,D47*%
X112982500Y-96830000D02*
X112982500Y-100840000D01*
X112982500Y-100840000D02*
X114982500Y-100840000D01*
X114982500Y-96830000D02*
X114982500Y-100840000D01*
%TO.C,D9*%
X184420000Y-39680000D02*
X184420000Y-43690000D01*
X184420000Y-43690000D02*
X186420000Y-43690000D01*
X186420000Y-39680000D02*
X186420000Y-43690000D01*
%TO.C,R5*%
X144946359Y-117020000D02*
X145253641Y-117020000D01*
X144946359Y-117780000D02*
X145253641Y-117780000D01*
%TO.C,D45*%
X74882500Y-96830000D02*
X74882500Y-100840000D01*
X74882500Y-100840000D02*
X76882500Y-100840000D01*
X76882500Y-96830000D02*
X76882500Y-100840000D01*
%TO.C,D54*%
X246332500Y-96830000D02*
X246332500Y-100840000D01*
X246332500Y-100840000D02*
X248332500Y-100840000D01*
X248332500Y-96830000D02*
X248332500Y-100840000D01*
%TO.C,D7*%
X146320000Y-39680000D02*
X146320000Y-43690000D01*
X146320000Y-43690000D02*
X148320000Y-43690000D01*
X148320000Y-39680000D02*
X148320000Y-43690000D01*
%TO.C,D53*%
X227282500Y-96830000D02*
X227282500Y-100840000D01*
X227282500Y-100840000D02*
X229282500Y-100840000D01*
X229282500Y-96830000D02*
X229282500Y-100840000D01*
%TO.C,D24*%
X212995000Y-58730000D02*
X212995000Y-62740000D01*
X212995000Y-62740000D02*
X214995000Y-62740000D01*
X214995000Y-58730000D02*
X214995000Y-62740000D01*
%TO.C,C12*%
X136312164Y-119890000D02*
X136527836Y-119890000D01*
X136312164Y-120610000D02*
X136527836Y-120610000D01*
%TO.C,D39*%
X236807500Y-77780000D02*
X236807500Y-81790000D01*
X236807500Y-81790000D02*
X238807500Y-81790000D01*
X238807500Y-77780000D02*
X238807500Y-81790000D01*
%TO.C,D21*%
X155845000Y-58730000D02*
X155845000Y-62740000D01*
X155845000Y-62740000D02*
X157845000Y-62740000D01*
X157845000Y-58730000D02*
X157845000Y-62740000D01*
%TO.C,C3*%
X147490000Y-115042164D02*
X147490000Y-115257836D01*
X148210000Y-115042164D02*
X148210000Y-115257836D01*
%TO.C,D10*%
X203470000Y-39680000D02*
X203470000Y-43690000D01*
X203470000Y-43690000D02*
X205470000Y-43690000D01*
X205470000Y-39680000D02*
X205470000Y-43690000D01*
%TO.C,J2*%
X122260000Y-105040000D02*
X122260000Y-105842470D01*
X122260000Y-105040000D02*
X123465000Y-105040000D01*
X122260000Y-106457530D02*
X122260000Y-107260000D01*
X122260000Y-107260000D02*
X123465000Y-107260000D01*
X123465000Y-105040000D02*
X123465000Y-105586529D01*
X123465000Y-106713471D02*
X123465000Y-107260000D01*
X124985000Y-106150000D02*
X124985000Y-107260000D01*
X124985000Y-107260000D02*
X124225000Y-107260000D01*
%TO.C,D2*%
X61230000Y-36520000D02*
X61230000Y-32510000D01*
X63230000Y-32510000D02*
X61230000Y-32510000D01*
X63230000Y-36520000D02*
X63230000Y-32510000D01*
%TO.C,D25*%
X232045000Y-58730000D02*
X232045000Y-62740000D01*
X232045000Y-62740000D02*
X234045000Y-62740000D01*
X234045000Y-58730000D02*
X234045000Y-62740000D01*
%TO.C,D44*%
X70437500Y-96830000D02*
X70437500Y-100840000D01*
X70437500Y-100840000D02*
X72437500Y-100840000D01*
X72437500Y-96830000D02*
X72437500Y-100840000D01*
%TO.C,D14*%
X274750000Y-46280000D02*
X274750000Y-42270000D01*
X276750000Y-42270000D02*
X274750000Y-42270000D01*
X276750000Y-46280000D02*
X276750000Y-42270000D01*
%TO.C,D57*%
X51862500Y-108940000D02*
X51862500Y-104930000D01*
X53862500Y-104930000D02*
X51862500Y-104930000D01*
X53862500Y-108940000D02*
X53862500Y-104930000D01*
%TO.C,D16*%
X60595000Y-58730000D02*
X60595000Y-62740000D01*
X60595000Y-62740000D02*
X62595000Y-62740000D01*
X62595000Y-58730000D02*
X62595000Y-62740000D01*
%TO.C,C1*%
X122340000Y-110137836D02*
X122340000Y-109922164D01*
X123060000Y-110137836D02*
X123060000Y-109922164D01*
%TO.C,D13*%
X260620000Y-39680000D02*
X260620000Y-43690000D01*
X260620000Y-43690000D02*
X262620000Y-43690000D01*
X262620000Y-39680000D02*
X262620000Y-43690000D01*
%TO.C,D43*%
X65992500Y-96830000D02*
X65992500Y-100840000D01*
X65992500Y-100840000D02*
X67992500Y-100840000D01*
X67992500Y-96830000D02*
X67992500Y-100840000D01*
%TO.C,U4*%
X124500000Y-107990000D02*
X125300000Y-107990000D01*
X124500000Y-111110000D02*
X125300000Y-111110000D01*
X126100000Y-107990000D02*
X125300000Y-107990000D01*
X126100000Y-111110000D02*
X125300000Y-111110000D01*
X126600000Y-108040000D02*
X126360000Y-107710000D01*
X126840000Y-107710000D01*
X126600000Y-108040000D01*
G36*
X126600000Y-108040000D02*
G01*
X126360000Y-107710000D01*
X126840000Y-107710000D01*
X126600000Y-108040000D01*
G37*
%TO.C,R3*%
X129803641Y-116170000D02*
X129496359Y-116170000D01*
X129803641Y-116930000D02*
X129496359Y-116930000D01*
%TO.C,D15*%
X36782500Y-58730000D02*
X36782500Y-62740000D01*
X36782500Y-62740000D02*
X38782500Y-62740000D01*
X38782500Y-58730000D02*
X38782500Y-62740000D01*
%TO.C,D6*%
X127270000Y-39680000D02*
X127270000Y-43690000D01*
X127270000Y-43690000D02*
X129270000Y-43690000D01*
X129270000Y-39680000D02*
X129270000Y-43690000D01*
%TO.C,C11*%
X132712164Y-119890000D02*
X132927836Y-119890000D01*
X132712164Y-120610000D02*
X132927836Y-120610000D01*
%TO.C,C16*%
X126092164Y-115180000D02*
X126307836Y-115180000D01*
X126092164Y-115900000D02*
X126307836Y-115900000D01*
%TO.C,D59*%
X99487500Y-108940000D02*
X99487500Y-104930000D01*
X101487500Y-104930000D02*
X99487500Y-104930000D01*
X101487500Y-108940000D02*
X101487500Y-104930000D01*
%TO.C,D26*%
X251095000Y-58730000D02*
X251095000Y-62740000D01*
X251095000Y-62740000D02*
X253095000Y-62740000D01*
X253095000Y-58730000D02*
X253095000Y-62740000D01*
%TO.C,D18*%
X98695000Y-58730000D02*
X98695000Y-62740000D01*
X98695000Y-62740000D02*
X100695000Y-62740000D01*
X100695000Y-58730000D02*
X100695000Y-62740000D01*
%TO.C,D62*%
X241412500Y-108940000D02*
X241412500Y-104930000D01*
X243412500Y-104930000D02*
X241412500Y-104930000D01*
X243412500Y-108940000D02*
X243412500Y-104930000D01*
%TO.C,C13*%
X141240000Y-116917836D02*
X141240000Y-116702164D01*
X141960000Y-116917836D02*
X141960000Y-116702164D01*
%TO.C,D23*%
X193945000Y-58730000D02*
X193945000Y-62740000D01*
X193945000Y-62740000D02*
X195945000Y-62740000D01*
X195945000Y-58730000D02*
X195945000Y-62740000D01*
%TO.C,D36*%
X179657500Y-77780000D02*
X179657500Y-81790000D01*
X179657500Y-81790000D02*
X181657500Y-81790000D01*
X181657500Y-77780000D02*
X181657500Y-81790000D01*
%TO.C,D58*%
X75675000Y-108940000D02*
X75675000Y-104930000D01*
X77675000Y-104930000D02*
X75675000Y-104930000D01*
X77675000Y-108940000D02*
X77675000Y-104930000D01*
%TO.C,D37*%
X198707500Y-77780000D02*
X198707500Y-81790000D01*
X198707500Y-81790000D02*
X200707500Y-81790000D01*
X200707500Y-77780000D02*
X200707500Y-81790000D01*
%TO.C,D12*%
X241570000Y-39680000D02*
X241570000Y-43690000D01*
X241570000Y-43690000D02*
X243570000Y-43690000D01*
X243570000Y-39680000D02*
X243570000Y-43690000D01*
%TO.C,R7*%
X49563641Y-37870000D02*
X49256359Y-37870000D01*
X49563641Y-38630000D02*
X49256359Y-38630000D01*
%TO.C,D35*%
X160607500Y-77780000D02*
X160607500Y-81790000D01*
X160607500Y-81790000D02*
X162607500Y-81790000D01*
X162607500Y-77780000D02*
X162607500Y-81790000D01*
%TO.C,D30*%
X65357500Y-77780000D02*
X65357500Y-81790000D01*
X65357500Y-81790000D02*
X67357500Y-81790000D01*
X67357500Y-77780000D02*
X67357500Y-81790000D01*
%TO.C,C6*%
X140240000Y-116917836D02*
X140240000Y-116702164D01*
X140960000Y-116917836D02*
X140960000Y-116702164D01*
%TO.C,D22*%
X174895000Y-58730000D02*
X174895000Y-62740000D01*
X174895000Y-62740000D02*
X176895000Y-62740000D01*
X176895000Y-58730000D02*
X176895000Y-62740000D01*
%TO.C,D61*%
X224901250Y-115880000D02*
X224901250Y-119890000D01*
X224901250Y-119890000D02*
X226901250Y-119890000D01*
X226901250Y-115880000D02*
X226901250Y-119890000D01*
%TO.C,C14*%
X136540000Y-109292164D02*
X136540000Y-109507836D01*
X137260000Y-109292164D02*
X137260000Y-109507836D01*
%TO.C,D11*%
X222520000Y-39680000D02*
X222520000Y-43690000D01*
X222520000Y-43690000D02*
X224520000Y-43690000D01*
X224520000Y-39680000D02*
X224520000Y-43690000D01*
%TO.C,C15*%
X131367164Y-110490000D02*
X131582836Y-110490000D01*
X131367164Y-111210000D02*
X131582836Y-111210000D01*
%TO.C,D19*%
X117745000Y-58730000D02*
X117745000Y-62740000D01*
X117745000Y-62740000D02*
X119745000Y-62740000D01*
X119745000Y-58730000D02*
X119745000Y-62740000D01*
%TO.C,J1*%
X42480000Y-34375000D02*
X42480000Y-32675000D01*
X51820000Y-34375000D02*
X51820000Y-32675000D01*
%TO.C,D8*%
X165370000Y-39680000D02*
X165370000Y-43690000D01*
X165370000Y-43690000D02*
X167370000Y-43690000D01*
X167370000Y-39680000D02*
X167370000Y-43690000D01*
%TO.C,C5*%
X124567164Y-113685758D02*
X124782836Y-113685758D01*
X124567164Y-114405758D02*
X124782836Y-114405758D01*
%TD*%
M02*
