%TF.GenerationSoftware,KiCad,Pcbnew,8.0.3*%
%TF.CreationDate,2024-11-03T23:45:20+08:00*%
%TF.ProjectId,PH60_Rev2,50483630-5f52-4657-9632-2e6b69636164,rev?*%
%TF.SameCoordinates,Original*%
%TF.FileFunction,Legend,Top*%
%TF.FilePolarity,Positive*%
%FSLAX46Y46*%
G04 Gerber Fmt 4.6, Leading zero omitted, Abs format (unit mm)*
G04 Created by KiCad (PCBNEW 8.0.3) date 2024-11-03 23:45:20*
%MOMM*%
%LPD*%
G01*
G04 APERTURE LIST*
%ADD10C,0.150000*%
%ADD11C,0.120000*%
G04 APERTURE END LIST*
D10*
X298799405Y-65557200D02*
X298942262Y-65604819D01*
X298942262Y-65604819D02*
X299180357Y-65604819D01*
X299180357Y-65604819D02*
X299275595Y-65557200D01*
X299275595Y-65557200D02*
X299323214Y-65509580D01*
X299323214Y-65509580D02*
X299370833Y-65414342D01*
X299370833Y-65414342D02*
X299370833Y-65319104D01*
X299370833Y-65319104D02*
X299323214Y-65223866D01*
X299323214Y-65223866D02*
X299275595Y-65176247D01*
X299275595Y-65176247D02*
X299180357Y-65128628D01*
X299180357Y-65128628D02*
X298989881Y-65081009D01*
X298989881Y-65081009D02*
X298894643Y-65033390D01*
X298894643Y-65033390D02*
X298847024Y-64985771D01*
X298847024Y-64985771D02*
X298799405Y-64890533D01*
X298799405Y-64890533D02*
X298799405Y-64795295D01*
X298799405Y-64795295D02*
X298847024Y-64700057D01*
X298847024Y-64700057D02*
X298894643Y-64652438D01*
X298894643Y-64652438D02*
X298989881Y-64604819D01*
X298989881Y-64604819D02*
X299227976Y-64604819D01*
X299227976Y-64604819D02*
X299370833Y-64652438D01*
X299751786Y-64700057D02*
X299799405Y-64652438D01*
X299799405Y-64652438D02*
X299894643Y-64604819D01*
X299894643Y-64604819D02*
X300132738Y-64604819D01*
X300132738Y-64604819D02*
X300227976Y-64652438D01*
X300227976Y-64652438D02*
X300275595Y-64700057D01*
X300275595Y-64700057D02*
X300323214Y-64795295D01*
X300323214Y-64795295D02*
X300323214Y-64890533D01*
X300323214Y-64890533D02*
X300275595Y-65033390D01*
X300275595Y-65033390D02*
X299704167Y-65604819D01*
X299704167Y-65604819D02*
X300323214Y-65604819D01*
X300894643Y-65033390D02*
X300799405Y-64985771D01*
X300799405Y-64985771D02*
X300751786Y-64938152D01*
X300751786Y-64938152D02*
X300704167Y-64842914D01*
X300704167Y-64842914D02*
X300704167Y-64795295D01*
X300704167Y-64795295D02*
X300751786Y-64700057D01*
X300751786Y-64700057D02*
X300799405Y-64652438D01*
X300799405Y-64652438D02*
X300894643Y-64604819D01*
X300894643Y-64604819D02*
X301085119Y-64604819D01*
X301085119Y-64604819D02*
X301180357Y-64652438D01*
X301180357Y-64652438D02*
X301227976Y-64700057D01*
X301227976Y-64700057D02*
X301275595Y-64795295D01*
X301275595Y-64795295D02*
X301275595Y-64842914D01*
X301275595Y-64842914D02*
X301227976Y-64938152D01*
X301227976Y-64938152D02*
X301180357Y-64985771D01*
X301180357Y-64985771D02*
X301085119Y-65033390D01*
X301085119Y-65033390D02*
X300894643Y-65033390D01*
X300894643Y-65033390D02*
X300799405Y-65081009D01*
X300799405Y-65081009D02*
X300751786Y-65128628D01*
X300751786Y-65128628D02*
X300704167Y-65223866D01*
X300704167Y-65223866D02*
X300704167Y-65414342D01*
X300704167Y-65414342D02*
X300751786Y-65509580D01*
X300751786Y-65509580D02*
X300799405Y-65557200D01*
X300799405Y-65557200D02*
X300894643Y-65604819D01*
X300894643Y-65604819D02*
X301085119Y-65604819D01*
X301085119Y-65604819D02*
X301180357Y-65557200D01*
X301180357Y-65557200D02*
X301227976Y-65509580D01*
X301227976Y-65509580D02*
X301275595Y-65414342D01*
X301275595Y-65414342D02*
X301275595Y-65223866D01*
X301275595Y-65223866D02*
X301227976Y-65128628D01*
X301227976Y-65128628D02*
X301180357Y-65081009D01*
X301180357Y-65081009D02*
X301085119Y-65033390D01*
X291655655Y-84607200D02*
X291798512Y-84654819D01*
X291798512Y-84654819D02*
X292036607Y-84654819D01*
X292036607Y-84654819D02*
X292131845Y-84607200D01*
X292131845Y-84607200D02*
X292179464Y-84559580D01*
X292179464Y-84559580D02*
X292227083Y-84464342D01*
X292227083Y-84464342D02*
X292227083Y-84369104D01*
X292227083Y-84369104D02*
X292179464Y-84273866D01*
X292179464Y-84273866D02*
X292131845Y-84226247D01*
X292131845Y-84226247D02*
X292036607Y-84178628D01*
X292036607Y-84178628D02*
X291846131Y-84131009D01*
X291846131Y-84131009D02*
X291750893Y-84083390D01*
X291750893Y-84083390D02*
X291703274Y-84035771D01*
X291703274Y-84035771D02*
X291655655Y-83940533D01*
X291655655Y-83940533D02*
X291655655Y-83845295D01*
X291655655Y-83845295D02*
X291703274Y-83750057D01*
X291703274Y-83750057D02*
X291750893Y-83702438D01*
X291750893Y-83702438D02*
X291846131Y-83654819D01*
X291846131Y-83654819D02*
X292084226Y-83654819D01*
X292084226Y-83654819D02*
X292227083Y-83702438D01*
X293084226Y-83988152D02*
X293084226Y-84654819D01*
X292846131Y-83607200D02*
X292608036Y-84321485D01*
X292608036Y-84321485D02*
X293227083Y-84321485D01*
X294131845Y-84654819D02*
X293560417Y-84654819D01*
X293846131Y-84654819D02*
X293846131Y-83654819D01*
X293846131Y-83654819D02*
X293750893Y-83797676D01*
X293750893Y-83797676D02*
X293655655Y-83892914D01*
X293655655Y-83892914D02*
X293560417Y-83940533D01*
D11*
%TO.C,S30*%
X64337500Y-69100000D02*
X64337500Y-83300000D01*
X64337500Y-83300000D02*
X78537500Y-83300000D01*
X78537500Y-69100000D02*
X64337500Y-69100000D01*
X78537500Y-83300000D02*
X78537500Y-69100000D01*
%TO.C,S27*%
X269125000Y-50050000D02*
X269125000Y-64250000D01*
X269125000Y-64250000D02*
X283325000Y-64250000D01*
X283325000Y-50050000D02*
X269125000Y-50050000D01*
X283325000Y-64250000D02*
X283325000Y-50050000D01*
%TO.C,S42*%
X33381250Y-88150000D02*
X33381250Y-102350000D01*
X33381250Y-102350000D02*
X47581250Y-102350000D01*
X47581250Y-88150000D02*
X33381250Y-88150000D01*
X47581250Y-102350000D02*
X47581250Y-88150000D01*
%TO.C,S32*%
X102437500Y-69100000D02*
X102437500Y-83300000D01*
X102437500Y-83300000D02*
X116637500Y-83300000D01*
X116637500Y-69100000D02*
X102437500Y-69100000D01*
X116637500Y-83300000D02*
X116637500Y-69100000D01*
%TO.C,S38*%
X216737500Y-69100000D02*
X216737500Y-83300000D01*
X216737500Y-83300000D02*
X230937500Y-83300000D01*
X230937500Y-69100000D02*
X216737500Y-69100000D01*
X230937500Y-83300000D02*
X230937500Y-69100000D01*
%TO.C,S35*%
X159587500Y-69100000D02*
X159587500Y-83300000D01*
X159587500Y-83300000D02*
X173787500Y-83300000D01*
X173787500Y-69100000D02*
X159587500Y-69100000D01*
X173787500Y-83300000D02*
X173787500Y-69100000D01*
%TO.C,S4*%
X88150000Y-31000000D02*
X88150000Y-45200000D01*
X88150000Y-45200000D02*
X102350000Y-45200000D01*
X102350000Y-31000000D02*
X88150000Y-31000000D01*
X102350000Y-45200000D02*
X102350000Y-31000000D01*
%TO.C,S2*%
X50050000Y-31000000D02*
X50050000Y-45200000D01*
X50050000Y-45200000D02*
X64250000Y-45200000D01*
X64250000Y-31000000D02*
X50050000Y-31000000D01*
X64250000Y-45200000D02*
X64250000Y-31000000D01*
%TO.C,S22*%
X173875000Y-50050000D02*
X173875000Y-64250000D01*
X173875000Y-64250000D02*
X188075000Y-64250000D01*
X188075000Y-50050000D02*
X173875000Y-50050000D01*
X188075000Y-64250000D02*
X188075000Y-50050000D01*
%TO.C,S28*%
X292937500Y-50050000D02*
X292937500Y-64250000D01*
X292937500Y-64250000D02*
X307137500Y-64250000D01*
X307137500Y-50050000D02*
X292937500Y-50050000D01*
X307137500Y-64250000D02*
X307137500Y-50050000D01*
%TO.C,S46*%
X111962500Y-88150000D02*
X111962500Y-102350000D01*
X111962500Y-102350000D02*
X126162500Y-102350000D01*
X126162500Y-88150000D02*
X111962500Y-88150000D01*
X126162500Y-102350000D02*
X126162500Y-88150000D01*
%TO.C,S1*%
X31000000Y-31000000D02*
X31000000Y-45200000D01*
X31000000Y-45200000D02*
X45200000Y-45200000D01*
X45200000Y-31000000D02*
X31000000Y-31000000D01*
X45200000Y-45200000D02*
X45200000Y-31000000D01*
%TO.C,S54*%
X281031250Y-88150000D02*
X281031250Y-102350000D01*
X281031250Y-102350000D02*
X295231250Y-102350000D01*
X295231250Y-88150000D02*
X281031250Y-88150000D01*
X295231250Y-102350000D02*
X295231250Y-88150000D01*
%TO.C,S10*%
X202450000Y-31000000D02*
X202450000Y-45200000D01*
X202450000Y-45200000D02*
X216650000Y-45200000D01*
X216650000Y-31000000D02*
X202450000Y-31000000D01*
X216650000Y-45200000D02*
X216650000Y-31000000D01*
%TO.C,S34*%
X140537500Y-69100000D02*
X140537500Y-83300000D01*
X140537500Y-83300000D02*
X154737500Y-83300000D01*
X154737500Y-69100000D02*
X140537500Y-69100000D01*
X154737500Y-83300000D02*
X154737500Y-69100000D01*
%TO.C,S15*%
X35762500Y-50050000D02*
X35762500Y-64250000D01*
X35762500Y-64250000D02*
X49962500Y-64250000D01*
X49962500Y-50050000D02*
X35762500Y-50050000D01*
X49962500Y-64250000D02*
X49962500Y-50050000D01*
%TO.C,S56*%
X57193750Y-107200000D02*
X57193750Y-121400000D01*
X57193750Y-121400000D02*
X71393750Y-121400000D01*
X71393750Y-107200000D02*
X57193750Y-107200000D01*
X71393750Y-121400000D02*
X71393750Y-107200000D01*
%TO.C,S20*%
X135775000Y-50050000D02*
X135775000Y-64250000D01*
X135775000Y-64250000D02*
X149975000Y-64250000D01*
X149975000Y-50050000D02*
X135775000Y-50050000D01*
X149975000Y-64250000D02*
X149975000Y-50050000D01*
%TO.C,S17*%
X78625000Y-50050000D02*
X78625000Y-64250000D01*
X78625000Y-64250000D02*
X92825000Y-64250000D01*
X92825000Y-50050000D02*
X78625000Y-50050000D01*
X92825000Y-64250000D02*
X92825000Y-50050000D01*
%TO.C,S31*%
X83387500Y-69100000D02*
X83387500Y-83300000D01*
X83387500Y-83300000D02*
X97587500Y-83300000D01*
X97587500Y-69100000D02*
X83387500Y-69100000D01*
X97587500Y-83300000D02*
X97587500Y-69100000D01*
%TO.C,S48*%
X150062500Y-88150000D02*
X150062500Y-102350000D01*
X150062500Y-102350000D02*
X164262500Y-102350000D01*
X164262500Y-88150000D02*
X150062500Y-88150000D01*
X164262500Y-102350000D02*
X164262500Y-88150000D01*
%TO.C,S51*%
X207212500Y-88150000D02*
X207212500Y-102350000D01*
X207212500Y-102350000D02*
X221412500Y-102350000D01*
X221412500Y-88150000D02*
X207212500Y-88150000D01*
X221412500Y-102350000D02*
X221412500Y-88150000D01*
%TO.C,S23*%
X192925000Y-50050000D02*
X192925000Y-64250000D01*
X192925000Y-64250000D02*
X207125000Y-64250000D01*
X207125000Y-50050000D02*
X192925000Y-50050000D01*
X207125000Y-64250000D02*
X207125000Y-50050000D01*
%TO.C,S50*%
X188162500Y-88150000D02*
X188162500Y-102350000D01*
X188162500Y-102350000D02*
X202362500Y-102350000D01*
X202362500Y-88150000D02*
X188162500Y-88150000D01*
X202362500Y-102350000D02*
X202362500Y-88150000D01*
%TO.C,S18*%
X97675000Y-50050000D02*
X97675000Y-64250000D01*
X97675000Y-64250000D02*
X111875000Y-64250000D01*
X111875000Y-50050000D02*
X97675000Y-50050000D01*
X111875000Y-64250000D02*
X111875000Y-50050000D01*
%TO.C,S33*%
X121487500Y-69100000D02*
X121487500Y-83300000D01*
X121487500Y-83300000D02*
X135687500Y-83300000D01*
X135687500Y-69100000D02*
X121487500Y-69100000D01*
X135687500Y-83300000D02*
X135687500Y-69100000D01*
%TO.C,S61*%
X271506250Y-107200000D02*
X271506250Y-121400000D01*
X271506250Y-121400000D02*
X285706250Y-121400000D01*
X285706250Y-107200000D02*
X271506250Y-107200000D01*
X285706250Y-121400000D02*
X285706250Y-107200000D01*
%TO.C,S16*%
X59575000Y-50050000D02*
X59575000Y-64250000D01*
X59575000Y-64250000D02*
X73775000Y-64250000D01*
X73775000Y-50050000D02*
X59575000Y-50050000D01*
X73775000Y-64250000D02*
X73775000Y-50050000D01*
%TO.C,S60*%
X247693750Y-107200000D02*
X247693750Y-121400000D01*
X247693750Y-121400000D02*
X261893750Y-121400000D01*
X261893750Y-107200000D02*
X247693750Y-107200000D01*
X261893750Y-121400000D02*
X261893750Y-107200000D01*
%TO.C,S58*%
X152443750Y-107200000D02*
X152443750Y-121400000D01*
X152443750Y-121400000D02*
X166643750Y-121400000D01*
X166643750Y-107200000D02*
X152443750Y-107200000D01*
X166643750Y-121400000D02*
X166643750Y-107200000D01*
%TO.C,S24*%
X211975000Y-50050000D02*
X211975000Y-64250000D01*
X211975000Y-64250000D02*
X226175000Y-64250000D01*
X226175000Y-50050000D02*
X211975000Y-50050000D01*
X226175000Y-64250000D02*
X226175000Y-50050000D01*
%TO.C,S29*%
X38143750Y-69100000D02*
X38143750Y-83300000D01*
X38143750Y-83300000D02*
X52343750Y-83300000D01*
X52343750Y-69100000D02*
X38143750Y-69100000D01*
X52343750Y-83300000D02*
X52343750Y-69100000D01*
%TO.C,S37*%
X197687500Y-69100000D02*
X197687500Y-83300000D01*
X197687500Y-83300000D02*
X211887500Y-83300000D01*
X211887500Y-69100000D02*
X197687500Y-69100000D01*
X211887500Y-83300000D02*
X211887500Y-69100000D01*
%TO.C,S43*%
X54812500Y-88150000D02*
X54812500Y-102350000D01*
X54812500Y-102350000D02*
X69012500Y-102350000D01*
X69012500Y-88150000D02*
X54812500Y-88150000D01*
X69012500Y-102350000D02*
X69012500Y-88150000D01*
%TO.C,S3*%
X69100000Y-31000000D02*
X69100000Y-45200000D01*
X69100000Y-45200000D02*
X83300000Y-45200000D01*
X83300000Y-31000000D02*
X69100000Y-31000000D01*
X83300000Y-45200000D02*
X83300000Y-31000000D01*
%TO.C,S36*%
X178637500Y-69100000D02*
X178637500Y-83300000D01*
X178637500Y-83300000D02*
X192837500Y-83300000D01*
X192837500Y-69100000D02*
X178637500Y-69100000D01*
X192837500Y-83300000D02*
X192837500Y-69100000D01*
%TO.C,S6*%
X126250000Y-31000000D02*
X126250000Y-45200000D01*
X126250000Y-45200000D02*
X140450000Y-45200000D01*
X140450000Y-31000000D02*
X126250000Y-31000000D01*
X140450000Y-45200000D02*
X140450000Y-31000000D01*
%TO.C,S55*%
X33381250Y-107200000D02*
X33381250Y-121400000D01*
X33381250Y-121400000D02*
X47581250Y-121400000D01*
X47581250Y-107200000D02*
X33381250Y-107200000D01*
X47581250Y-121400000D02*
X47581250Y-107200000D01*
%TO.C,S25*%
X231025000Y-50050000D02*
X231025000Y-64250000D01*
X231025000Y-64250000D02*
X245225000Y-64250000D01*
X245225000Y-50050000D02*
X231025000Y-50050000D01*
X245225000Y-64250000D02*
X245225000Y-50050000D01*
%TO.C,S9*%
X183400000Y-31000000D02*
X183400000Y-45200000D01*
X183400000Y-45200000D02*
X197600000Y-45200000D01*
X197600000Y-31000000D02*
X183400000Y-31000000D01*
X197600000Y-45200000D02*
X197600000Y-31000000D01*
%TO.C,S26*%
X250075000Y-50050000D02*
X250075000Y-64250000D01*
X250075000Y-64250000D02*
X264275000Y-64250000D01*
X264275000Y-50050000D02*
X250075000Y-50050000D01*
X264275000Y-64250000D02*
X264275000Y-50050000D01*
%TO.C,S11*%
X221500000Y-31000000D02*
X221500000Y-45200000D01*
X221500000Y-45200000D02*
X235700000Y-45200000D01*
X235700000Y-31000000D02*
X221500000Y-31000000D01*
X235700000Y-45200000D02*
X235700000Y-31000000D01*
%TO.C,S59*%
X223881250Y-107200000D02*
X223881250Y-121400000D01*
X223881250Y-121400000D02*
X238081250Y-121400000D01*
X238081250Y-107200000D02*
X223881250Y-107200000D01*
X238081250Y-121400000D02*
X238081250Y-107200000D01*
%TO.C,S53*%
X245312500Y-88150000D02*
X245312500Y-102350000D01*
X245312500Y-102350000D02*
X259512500Y-102350000D01*
X259512500Y-88150000D02*
X245312500Y-88150000D01*
X259512500Y-102350000D02*
X259512500Y-88150000D01*
%TO.C,S12*%
X240550000Y-31000000D02*
X240550000Y-45200000D01*
X240550000Y-45200000D02*
X254750000Y-45200000D01*
X254750000Y-31000000D02*
X240550000Y-31000000D01*
X254750000Y-45200000D02*
X254750000Y-31000000D01*
%TO.C,S57*%
X81006250Y-107200000D02*
X81006250Y-121400000D01*
X81006250Y-121400000D02*
X95206250Y-121400000D01*
X95206250Y-107200000D02*
X81006250Y-107200000D01*
X95206250Y-121400000D02*
X95206250Y-107200000D01*
%TO.C,S8*%
X164350000Y-31000000D02*
X164350000Y-45200000D01*
X164350000Y-45200000D02*
X178550000Y-45200000D01*
X178550000Y-31000000D02*
X164350000Y-31000000D01*
X178550000Y-45200000D02*
X178550000Y-31000000D01*
%TO.C,S13*%
X259600000Y-31000000D02*
X259600000Y-45200000D01*
X259600000Y-45200000D02*
X273800000Y-45200000D01*
X273800000Y-31000000D02*
X259600000Y-31000000D01*
X273800000Y-45200000D02*
X273800000Y-31000000D01*
%TO.C,S14*%
X288175000Y-31000000D02*
X288175000Y-45200000D01*
X288175000Y-45200000D02*
X302375000Y-45200000D01*
X302375000Y-31000000D02*
X288175000Y-31000000D01*
X302375000Y-45200000D02*
X302375000Y-31000000D01*
%TO.C,S21*%
X154825000Y-50050000D02*
X154825000Y-64250000D01*
X154825000Y-64250000D02*
X169025000Y-64250000D01*
X169025000Y-50050000D02*
X154825000Y-50050000D01*
X169025000Y-64250000D02*
X169025000Y-50050000D01*
%TO.C,S19*%
X116725000Y-50050000D02*
X116725000Y-64250000D01*
X116725000Y-64250000D02*
X130925000Y-64250000D01*
X130925000Y-50050000D02*
X116725000Y-50050000D01*
X130925000Y-64250000D02*
X130925000Y-50050000D01*
%TO.C,S5*%
X107200000Y-31000000D02*
X107200000Y-45200000D01*
X107200000Y-45200000D02*
X121400000Y-45200000D01*
X121400000Y-31000000D02*
X107200000Y-31000000D01*
X121400000Y-45200000D02*
X121400000Y-31000000D01*
%TO.C,S45*%
X92912500Y-88150000D02*
X92912500Y-102350000D01*
X92912500Y-102350000D02*
X107112500Y-102350000D01*
X107112500Y-88150000D02*
X92912500Y-88150000D01*
X107112500Y-102350000D02*
X107112500Y-88150000D01*
%TO.C,S62*%
X295318750Y-107200000D02*
X295318750Y-121400000D01*
X295318750Y-121400000D02*
X309518750Y-121400000D01*
X309518750Y-107200000D02*
X295318750Y-107200000D01*
X309518750Y-121400000D02*
X309518750Y-107200000D01*
%TO.C,S52*%
X226262500Y-88150000D02*
X226262500Y-102350000D01*
X226262500Y-102350000D02*
X240462500Y-102350000D01*
X240462500Y-88150000D02*
X226262500Y-88150000D01*
X240462500Y-102350000D02*
X240462500Y-88150000D01*
%TO.C,S7*%
X145300000Y-31000000D02*
X145300000Y-45200000D01*
X145300000Y-45200000D02*
X159500000Y-45200000D01*
X159500000Y-31000000D02*
X145300000Y-31000000D01*
X159500000Y-45200000D02*
X159500000Y-31000000D01*
%TO.C,S41*%
X285793750Y-69100000D02*
X285793750Y-83300000D01*
X285793750Y-83300000D02*
X299993750Y-83300000D01*
X299993750Y-69100000D02*
X285793750Y-69100000D01*
X299993750Y-83300000D02*
X299993750Y-69100000D01*
%TO.C,S49*%
X169112500Y-88150000D02*
X169112500Y-102350000D01*
X169112500Y-102350000D02*
X183312500Y-102350000D01*
X183312500Y-88150000D02*
X169112500Y-88150000D01*
X183312500Y-102350000D02*
X183312500Y-88150000D01*
%TO.C,S44*%
X73862500Y-88150000D02*
X73862500Y-102350000D01*
X73862500Y-102350000D02*
X88062500Y-102350000D01*
X88062500Y-88150000D02*
X73862500Y-88150000D01*
X88062500Y-102350000D02*
X88062500Y-88150000D01*
%TO.C,S39*%
X235787500Y-69100000D02*
X235787500Y-83300000D01*
X235787500Y-83300000D02*
X249987500Y-83300000D01*
X249987500Y-69100000D02*
X235787500Y-69100000D01*
X249987500Y-83300000D02*
X249987500Y-69100000D01*
%TO.C,S40*%
X254837500Y-69100000D02*
X254837500Y-83300000D01*
X254837500Y-83300000D02*
X269037500Y-83300000D01*
X269037500Y-69100000D02*
X254837500Y-69100000D01*
X269037500Y-83300000D02*
X269037500Y-69100000D01*
%TO.C,S47*%
X131012500Y-88150000D02*
X131012500Y-102350000D01*
X131012500Y-102350000D02*
X145212500Y-102350000D01*
X145212500Y-88150000D02*
X131012500Y-88150000D01*
X145212500Y-102350000D02*
X145212500Y-88150000D01*
%TD*%
M02*
