%TF.GenerationSoftware,KiCad,Pcbnew,8.0.3*%
%TF.CreationDate,2024-11-28T23:21:44+08:00*%
%TF.ProjectId,PH60_Rev2,50483630-5f52-4657-9632-2e6b69636164,rev?*%
%TF.SameCoordinates,Original*%
%TF.FileFunction,Plated,1,2,PTH,Mixed*%
%TF.FilePolarity,Positive*%
%FSLAX46Y46*%
G04 Gerber Fmt 4.6, Leading zero omitted, Abs format (unit mm)*
G04 Created by KiCad (PCBNEW 8.0.3) date 2024-11-28 23:21:44*
%MOMM*%
%LPD*%
G01*
G04 APERTURE LIST*
%TA.AperFunction,ViaDrill*%
%ADD10C,0.200000*%
%TD*%
%TA.AperFunction,ComponentDrill*%
%ADD11C,0.200000*%
%TD*%
%TA.AperFunction,ViaDrill*%
%ADD12C,0.300000*%
%TD*%
G04 aperture for slot hole*
%TA.AperFunction,ComponentDrill*%
%ADD13C,0.600000*%
%TD*%
%TA.AperFunction,ComponentDrill*%
%ADD14C,1.000000*%
%TD*%
%TA.AperFunction,ComponentDrill*%
%ADD15C,3.050000*%
%TD*%
G04 APERTURE END LIST*
D10*
X118325000Y-117685000D03*
D11*
%TO.C,U3*%
X127550000Y-112050000D03*
X127550000Y-114750000D03*
X130250000Y-112050000D03*
X130250000Y-114750000D03*
%TD*%
D12*
X32245000Y-67035000D03*
X33845000Y-33435000D03*
X37555000Y-66415000D03*
X38125000Y-52350000D03*
X40345000Y-66095000D03*
X41375000Y-35985000D03*
X42885000Y-104745000D03*
X44515000Y-62935000D03*
X45485000Y-46375000D03*
X45775000Y-104625000D03*
X45935000Y-65865000D03*
X46965000Y-46375000D03*
X47275000Y-51125000D03*
X48665000Y-85525000D03*
X49819479Y-46930521D03*
X50420521Y-46329479D03*
X51490000Y-51115000D03*
X51490000Y-53185000D03*
X51875000Y-104695000D03*
X52335000Y-113265000D03*
X52340000Y-51115000D03*
X52340000Y-53185000D03*
X52345000Y-111075000D03*
X52475000Y-106505000D03*
X52525000Y-85655000D03*
X52535000Y-109765000D03*
X52835000Y-50355000D03*
X52915000Y-65215000D03*
X52985000Y-99945000D03*
X52995000Y-66305000D03*
X53245000Y-53950000D03*
X53725000Y-90475000D03*
X53885000Y-36355000D03*
X53945000Y-92055000D03*
X54235000Y-47625000D03*
X54735000Y-104695000D03*
X54855000Y-86695000D03*
X54900000Y-53950000D03*
X54920000Y-50355000D03*
X54935000Y-106545000D03*
X54985000Y-109755000D03*
X55065000Y-111115000D03*
X55185000Y-113245000D03*
X55425000Y-52550000D03*
X55535000Y-90475000D03*
X55665000Y-85655000D03*
X55865000Y-92035000D03*
X56655000Y-47575000D03*
X57615000Y-86765000D03*
X57655000Y-83515000D03*
X58060000Y-64550000D03*
X58555000Y-85785000D03*
X58615000Y-52525000D03*
X58745000Y-66205000D03*
X59745000Y-65265000D03*
X61755000Y-82795000D03*
X62650000Y-52500000D03*
X62765000Y-66895000D03*
X62955000Y-67968750D03*
X63181250Y-73168750D03*
X63275000Y-71500000D03*
X65050000Y-71525000D03*
X65131250Y-73168750D03*
X65175000Y-67968750D03*
X65695000Y-66205000D03*
X68815000Y-84875000D03*
X70005000Y-104615000D03*
X71195000Y-107915000D03*
X71665000Y-92035000D03*
X71815000Y-85035000D03*
X72135000Y-90375000D03*
X72335000Y-95835000D03*
X72445000Y-105055000D03*
X72665000Y-47445000D03*
X72831250Y-48793750D03*
X72925000Y-54000000D03*
X73000000Y-51825000D03*
X73035000Y-107265000D03*
X73385000Y-87775000D03*
X74074479Y-105235521D03*
X74325000Y-51825000D03*
X74385000Y-111125000D03*
X74406250Y-48793750D03*
X74500000Y-54000000D03*
X74555000Y-47395000D03*
X74675521Y-104634479D03*
X74715000Y-107325000D03*
X75085000Y-85795000D03*
X75475000Y-90500000D03*
X75555000Y-92135000D03*
X75925000Y-103155000D03*
X75945000Y-112085000D03*
X76085000Y-86735000D03*
X76245000Y-107535000D03*
X77575000Y-103825000D03*
X78655000Y-86785000D03*
X79094479Y-104494479D03*
X79535000Y-85775000D03*
X79655000Y-112075000D03*
X79695521Y-105095521D03*
X80185000Y-108255000D03*
X80855000Y-111145000D03*
X81915000Y-66205000D03*
X82215000Y-73165000D03*
X82400000Y-71525000D03*
X82420000Y-67965000D03*
X83995000Y-67965000D03*
X84285000Y-71525000D03*
X84385000Y-73240000D03*
X84575000Y-66225000D03*
X88145000Y-84265000D03*
X89055000Y-87215000D03*
X89885000Y-90395000D03*
X89915000Y-92055000D03*
X91605000Y-90475000D03*
X91755000Y-92065000D03*
X91785000Y-47405000D03*
X91931250Y-48818750D03*
X92025000Y-54025000D03*
X92075000Y-51850000D03*
X92225000Y-87185000D03*
X93400000Y-51850000D03*
X93456250Y-48818750D03*
X93575000Y-54050000D03*
X93625000Y-47345000D03*
X97825000Y-85785000D03*
X99535000Y-113035000D03*
X100005000Y-66175000D03*
X100155000Y-86495000D03*
X101465625Y-71565625D03*
X101520000Y-67990000D03*
X101572813Y-73240000D03*
X103040625Y-71565625D03*
X103045000Y-67990000D03*
X103105000Y-66895000D03*
X103122813Y-73215000D03*
X103745000Y-66215000D03*
X103785000Y-104765000D03*
X107165000Y-87295000D03*
X108675000Y-111975000D03*
X110575000Y-85775000D03*
X110785000Y-90625000D03*
X110925000Y-92155000D03*
X110956250Y-48868750D03*
X110995000Y-47365000D03*
X111050000Y-54075000D03*
X111100000Y-51825000D03*
X111105000Y-87445000D03*
X112145000Y-119825000D03*
X112425000Y-51825000D03*
X112481250Y-48868750D03*
X112575000Y-54075000D03*
X112575000Y-90615000D03*
X112615000Y-88525000D03*
X112645000Y-47375000D03*
X112735000Y-92145000D03*
X113105000Y-104235000D03*
X113700000Y-106420000D03*
X113965000Y-85535000D03*
X114265000Y-119825000D03*
X114925000Y-84225000D03*
X115025000Y-113560000D03*
X115025000Y-114410000D03*
X116315000Y-111625000D03*
X117115000Y-84105000D03*
X118155000Y-109985000D03*
X118165000Y-67245000D03*
X118895000Y-66575000D03*
X119195000Y-82665000D03*
X119685000Y-71805000D03*
X119705608Y-113600000D03*
X119725000Y-68015000D03*
X119825000Y-73190000D03*
X119905000Y-103465000D03*
X122070000Y-68040000D03*
X122147813Y-73215000D03*
X122265000Y-71825000D03*
X122515000Y-66645000D03*
X123965000Y-107105000D03*
X124745000Y-92145000D03*
X125455000Y-90555000D03*
X125567500Y-107750000D03*
X125725000Y-103205000D03*
X126095000Y-86485000D03*
X126395000Y-104035000D03*
X126395000Y-106485000D03*
X126975000Y-87355000D03*
X127135000Y-119825000D03*
X128315000Y-121685000D03*
X129275000Y-85865000D03*
X129930000Y-86560000D03*
X129975000Y-47365000D03*
X130031250Y-48893750D03*
X130125000Y-54100000D03*
X130150000Y-51825000D03*
X130445000Y-119355000D03*
X130955000Y-120915000D03*
X130975000Y-104295000D03*
X131075000Y-103125000D03*
X131275000Y-87545000D03*
X131475000Y-51825000D03*
X131505000Y-105865000D03*
X131581250Y-48918750D03*
X131675000Y-54125000D03*
X131735000Y-47315000D03*
X131845000Y-90500000D03*
X131875000Y-92325000D03*
X136425000Y-114115000D03*
X136795000Y-84365000D03*
X137705000Y-85475000D03*
X137965000Y-74305000D03*
X138465000Y-110355000D03*
X139235000Y-66635000D03*
X139548750Y-71485000D03*
X139620000Y-68065000D03*
X139697813Y-73240000D03*
X140295000Y-110365000D03*
X140395000Y-85455000D03*
X141098750Y-71465000D03*
X141170000Y-68090000D03*
X141222813Y-73240000D03*
X141695000Y-66665000D03*
X142895000Y-107725000D03*
X142965000Y-115565000D03*
X143785000Y-109615000D03*
X144625000Y-106425000D03*
X145245000Y-113305000D03*
X145425000Y-105675000D03*
X146205000Y-104825000D03*
X146335000Y-103975000D03*
X146925000Y-90515000D03*
X146995000Y-87445000D03*
X147105000Y-92225000D03*
X147655000Y-109605000D03*
X148325000Y-112495000D03*
X148965000Y-47405000D03*
X149056250Y-48893750D03*
X149085000Y-90455000D03*
X149135000Y-92285000D03*
X149150000Y-54100000D03*
X149200000Y-51825000D03*
X149275000Y-87475000D03*
X149535000Y-104945000D03*
X149605000Y-103915000D03*
X150225000Y-109605000D03*
X150525000Y-51825000D03*
X150606250Y-48868750D03*
X150700000Y-54075000D03*
X150855000Y-47355000D03*
X154705000Y-85465000D03*
X158255000Y-66665000D03*
X158645000Y-68065000D03*
X158708750Y-71515000D03*
X158722813Y-73290000D03*
X158765000Y-85505000D03*
X160195000Y-68040000D03*
X160247813Y-73290000D03*
X160258750Y-71495000D03*
X160505000Y-66565000D03*
X162995000Y-112445000D03*
X164055000Y-111215000D03*
X166105000Y-90455000D03*
X166195000Y-92335000D03*
X166375000Y-87245000D03*
X166965000Y-103595000D03*
X167805000Y-47335000D03*
X167835000Y-48868750D03*
X168085000Y-90485000D03*
X168250000Y-51825000D03*
X168250000Y-54100000D03*
X168355000Y-92365000D03*
X169075000Y-87315000D03*
X169575000Y-51825000D03*
X169650000Y-54150000D03*
X170025000Y-48943750D03*
X170175000Y-47275000D03*
X175915000Y-85505000D03*
X177325000Y-73315000D03*
X177365000Y-66545000D03*
X177585000Y-71435000D03*
X177745000Y-68065000D03*
X179145000Y-68115000D03*
X179375000Y-85545000D03*
X179415000Y-71445000D03*
X179455000Y-66555000D03*
X179675000Y-73390000D03*
X184755000Y-92355000D03*
X184925000Y-90535000D03*
X185375000Y-103985000D03*
X186225000Y-87395000D03*
X186475000Y-90575000D03*
X186665000Y-92325000D03*
X186945000Y-51535000D03*
X186975000Y-47345000D03*
X187206250Y-48918750D03*
X187300000Y-54125000D03*
X187455000Y-104025000D03*
X188781250Y-48943750D03*
X188825000Y-87425000D03*
X188875000Y-54150000D03*
X189055000Y-47385000D03*
X189065000Y-51565000D03*
X193555000Y-85545000D03*
X196275000Y-66515000D03*
X196325000Y-85635000D03*
X196345000Y-73390000D03*
X196445000Y-71575000D03*
X196655000Y-68115000D03*
X198365000Y-66585000D03*
X198415625Y-68115000D03*
X198695000Y-71575000D03*
X198855000Y-73340000D03*
X204935000Y-103135000D03*
X205705000Y-90985000D03*
X205875000Y-47385000D03*
X205905000Y-92395000D03*
X206156250Y-48918750D03*
X206250000Y-54125000D03*
X206350000Y-51825000D03*
X207225000Y-91005000D03*
X207535000Y-92415000D03*
X207675000Y-51825000D03*
X207881250Y-48893750D03*
X207975000Y-54100000D03*
X208135000Y-47385000D03*
X208485000Y-87405000D03*
X210915000Y-87405000D03*
X213945000Y-85495000D03*
X214715000Y-117485000D03*
X215275000Y-66545000D03*
X215515000Y-73340000D03*
X215645000Y-68115000D03*
X215710625Y-71620625D03*
X217045000Y-110225000D03*
X217045000Y-111295000D03*
X217125000Y-85555000D03*
X217215000Y-106055000D03*
X217445000Y-71620625D03*
X217465000Y-104965000D03*
X217735000Y-73390000D03*
X217765000Y-68165000D03*
X218035000Y-66555000D03*
X220675000Y-110265000D03*
X220695000Y-111325000D03*
X220735000Y-106245000D03*
X221435000Y-105375000D03*
X223235000Y-90585000D03*
X223425000Y-87375000D03*
X223505000Y-92435000D03*
X224855000Y-47305000D03*
X225115000Y-92375000D03*
X225195000Y-90575000D03*
X225256250Y-48918750D03*
X225350000Y-54125000D03*
X225400000Y-51825000D03*
X226235000Y-87285000D03*
X226725000Y-51825000D03*
X226906250Y-48918750D03*
X227000000Y-54125000D03*
X227105000Y-47295000D03*
X229155000Y-85515000D03*
X232535000Y-85575000D03*
X233835000Y-66525000D03*
X234265000Y-68165000D03*
X234305000Y-73390000D03*
X234435000Y-71505000D03*
X236615000Y-71485000D03*
X236935000Y-68190000D03*
X237115000Y-66505000D03*
X237245000Y-73415000D03*
X241365000Y-109475000D03*
X241405000Y-111285000D03*
X241615000Y-106145000D03*
X241635000Y-105055000D03*
X242085000Y-90505000D03*
X242255000Y-87335000D03*
X242375000Y-92385000D03*
X243955000Y-90575000D03*
X244085000Y-92435000D03*
X244095000Y-47445000D03*
X244231250Y-48968750D03*
X244325000Y-54175000D03*
X244450000Y-51825000D03*
X244815000Y-87335000D03*
X244845000Y-109525000D03*
X244875000Y-105995000D03*
X244875000Y-111365000D03*
X245155000Y-104935000D03*
X245775000Y-51825000D03*
X246056250Y-48943750D03*
X246150000Y-54150000D03*
X246165000Y-120855000D03*
X246285000Y-47445000D03*
X251885000Y-85505000D03*
X252955000Y-66475000D03*
X253095000Y-68190000D03*
X253305000Y-71605000D03*
X253445000Y-73415000D03*
X256015000Y-85585000D03*
X256025000Y-73465000D03*
X256055000Y-71625000D03*
X256365000Y-68240000D03*
X256465000Y-66555000D03*
X262865000Y-47445000D03*
X263231250Y-48968750D03*
X263325000Y-54175000D03*
X263500000Y-51825000D03*
X264825000Y-51825000D03*
X265206250Y-48943750D03*
X265300000Y-54150000D03*
X265415000Y-47445000D03*
X265865000Y-113005000D03*
X266335000Y-104995000D03*
X266435000Y-106115000D03*
X266455000Y-109495000D03*
X266605000Y-111355000D03*
X266615000Y-92435000D03*
X266675000Y-90365000D03*
X268575000Y-111395000D03*
X268635000Y-109555000D03*
X268765000Y-106175000D03*
X268825000Y-92465000D03*
X268855000Y-104995000D03*
X269325000Y-90495000D03*
X269525000Y-85585000D03*
X269645000Y-87305000D03*
X269655000Y-66415000D03*
X269925000Y-68265000D03*
X270055000Y-72165000D03*
X270125000Y-73415000D03*
X270545000Y-103325000D03*
X271745000Y-68295000D03*
X271875000Y-66405000D03*
X271875000Y-73425000D03*
X271935000Y-72205000D03*
X272375000Y-87305000D03*
X272465000Y-85525000D03*
X279645000Y-87095000D03*
X281775000Y-87925000D03*
X282405000Y-90425000D03*
X282625000Y-92415000D03*
X282955000Y-66105000D03*
X283305000Y-66905000D03*
X283365000Y-72155000D03*
X283365000Y-73425000D03*
X284125000Y-90485000D03*
X284655000Y-86395000D03*
X284735000Y-87965000D03*
X285085000Y-92355000D03*
X285435000Y-73375000D03*
X285535000Y-72155000D03*
X285955000Y-104245000D03*
X286015000Y-67395000D03*
X286575000Y-106175000D03*
X286795000Y-109375000D03*
X287025000Y-66235000D03*
X287435000Y-111445000D03*
X288785000Y-104195000D03*
X289245000Y-106135000D03*
X289835000Y-109425000D03*
X290325000Y-111445000D03*
X291515000Y-47585000D03*
X291806250Y-49043750D03*
X291850000Y-52400000D03*
X291900000Y-54250000D03*
X292505000Y-89015000D03*
X293631250Y-49118750D03*
X293725000Y-54325000D03*
X293750000Y-52400000D03*
X293915000Y-47555000D03*
X296995000Y-70015000D03*
X300165000Y-32945000D03*
X304250000Y-50950000D03*
D13*
%TO.C,J1*%
X43305000Y-31575000D02*
X43305000Y-30775000D01*
X43305000Y-35905000D02*
X43305000Y-34805000D01*
X51945000Y-31575000D02*
X51945000Y-30775000D01*
X51945000Y-35905000D02*
X51945000Y-34805000D01*
D14*
%TO.C,J2*%
X118400000Y-106325000D03*
X120940000Y-106325000D03*
D15*
%TO.C,S1*%
X35560000Y-43180000D03*
%TO.C,S42*%
X37941250Y-100330000D03*
%TO.C,S55*%
X37941250Y-119380000D03*
%TO.C,S15*%
X40322500Y-62230000D03*
%TO.C,S1*%
X41910000Y-40640000D03*
%TO.C,S29*%
X42703750Y-81280000D03*
%TO.C,S42*%
X44291250Y-97790000D03*
%TO.C,S55*%
X44291250Y-116840000D03*
%TO.C,S15*%
X46672500Y-59690000D03*
%TO.C,S29*%
X49053750Y-78740000D03*
%TO.C,S2*%
X54610000Y-43180000D03*
%TO.C,S43*%
X59372500Y-100330000D03*
%TO.C,S2*%
X60960000Y-40640000D03*
%TO.C,S56*%
X61753750Y-119380000D03*
%TO.C,S16*%
X64135000Y-62230000D03*
%TO.C,S43*%
X65722500Y-97790000D03*
%TO.C,S56*%
X68103750Y-116840000D03*
%TO.C,S30*%
X68897500Y-81280000D03*
%TO.C,S16*%
X70485000Y-59690000D03*
%TO.C,S3*%
X73660000Y-43180000D03*
%TO.C,S30*%
X75247500Y-78740000D03*
%TO.C,S44*%
X78422500Y-100330000D03*
%TO.C,S3*%
X80010000Y-40640000D03*
%TO.C,S17*%
X83185000Y-62230000D03*
%TO.C,S44*%
X84772500Y-97790000D03*
%TO.C,S57*%
X85566250Y-119380000D03*
%TO.C,S31*%
X87947500Y-81280000D03*
%TO.C,S17*%
X89535000Y-59690000D03*
%TO.C,S57*%
X91916250Y-116840000D03*
%TO.C,S4*%
X92710000Y-43180000D03*
%TO.C,S31*%
X94297500Y-78740000D03*
%TO.C,S45*%
X97472500Y-100330000D03*
%TO.C,S4*%
X99060000Y-40640000D03*
%TO.C,S18*%
X102235000Y-62230000D03*
%TO.C,S45*%
X103822500Y-97790000D03*
%TO.C,S32*%
X106997500Y-81280000D03*
%TO.C,S18*%
X108585000Y-59690000D03*
%TO.C,S5*%
X111760000Y-43180000D03*
%TO.C,S32*%
X113347500Y-78740000D03*
%TO.C,S46*%
X116522500Y-100330000D03*
%TO.C,S5*%
X118110000Y-40640000D03*
%TO.C,S19*%
X121285000Y-62230000D03*
%TO.C,S46*%
X122872500Y-97790000D03*
%TO.C,S33*%
X126047500Y-81280000D03*
%TO.C,S19*%
X127635000Y-59690000D03*
%TO.C,S6*%
X130810000Y-43180000D03*
%TO.C,S33*%
X132397500Y-78740000D03*
%TO.C,S47*%
X135572500Y-100330000D03*
%TO.C,S6*%
X137160000Y-40640000D03*
%TO.C,S20*%
X140335000Y-62230000D03*
%TO.C,S47*%
X141922500Y-97790000D03*
%TO.C,S34*%
X145097500Y-81280000D03*
%TO.C,S20*%
X146685000Y-59690000D03*
%TO.C,S7*%
X149860000Y-43180000D03*
%TO.C,S34*%
X151447500Y-78740000D03*
%TO.C,S48*%
X154622500Y-100330000D03*
%TO.C,S7*%
X156210000Y-40640000D03*
%TO.C,S58*%
X157003750Y-119380000D03*
%TO.C,S21*%
X159385000Y-62230000D03*
%TO.C,S48*%
X160972500Y-97790000D03*
%TO.C,S58*%
X163353750Y-116840000D03*
%TO.C,S35*%
X164147500Y-81280000D03*
%TO.C,S21*%
X165735000Y-59690000D03*
%TO.C,S8*%
X168910000Y-43180000D03*
%TO.C,S35*%
X170497500Y-78740000D03*
%TO.C,S49*%
X173672500Y-100330000D03*
%TO.C,S8*%
X175260000Y-40640000D03*
%TO.C,S22*%
X178435000Y-62230000D03*
%TO.C,S49*%
X180022500Y-97790000D03*
%TO.C,S36*%
X183197500Y-81280000D03*
%TO.C,S22*%
X184785000Y-59690000D03*
%TO.C,S9*%
X187960000Y-43180000D03*
%TO.C,S36*%
X189547500Y-78740000D03*
%TO.C,S50*%
X192722500Y-100330000D03*
%TO.C,S9*%
X194310000Y-40640000D03*
%TO.C,S23*%
X197485000Y-62230000D03*
%TO.C,S50*%
X199072500Y-97790000D03*
%TO.C,S37*%
X202247500Y-81280000D03*
%TO.C,S23*%
X203835000Y-59690000D03*
%TO.C,S10*%
X207010000Y-43180000D03*
%TO.C,S37*%
X208597500Y-78740000D03*
%TO.C,S51*%
X211772500Y-100330000D03*
%TO.C,S10*%
X213360000Y-40640000D03*
%TO.C,S24*%
X216535000Y-62230000D03*
%TO.C,S51*%
X218122500Y-97790000D03*
%TO.C,S38*%
X221297500Y-81280000D03*
%TO.C,S24*%
X222885000Y-59690000D03*
%TO.C,S11*%
X226060000Y-43180000D03*
%TO.C,S38*%
X227647500Y-78740000D03*
%TO.C,S59*%
X228441250Y-119380000D03*
%TO.C,S52*%
X230822500Y-100330000D03*
%TO.C,S11*%
X232410000Y-40640000D03*
%TO.C,S59*%
X234791250Y-116840000D03*
%TO.C,S25*%
X235585000Y-62230000D03*
%TO.C,S52*%
X237172500Y-97790000D03*
%TO.C,S39*%
X240347500Y-81280000D03*
%TO.C,S25*%
X241935000Y-59690000D03*
%TO.C,S12*%
X245110000Y-43180000D03*
%TO.C,S39*%
X246697500Y-78740000D03*
%TO.C,S53*%
X249872500Y-100330000D03*
%TO.C,S12*%
X251460000Y-40640000D03*
%TO.C,S60*%
X252253750Y-119380000D03*
%TO.C,S26*%
X254635000Y-62230000D03*
%TO.C,S53*%
X256222500Y-97790000D03*
%TO.C,S60*%
X258603750Y-116840000D03*
%TO.C,S40*%
X259397500Y-81280000D03*
%TO.C,S26*%
X260985000Y-59690000D03*
%TO.C,S13*%
X264160000Y-43180000D03*
%TO.C,S40*%
X265747500Y-78740000D03*
%TO.C,S13*%
X270510000Y-40640000D03*
%TO.C,S27*%
X273685000Y-62230000D03*
%TO.C,S61*%
X276066250Y-119380000D03*
%TO.C,S27*%
X280035000Y-59690000D03*
%TO.C,S61*%
X282416250Y-116840000D03*
%TO.C,S54*%
X285591250Y-100330000D03*
%TO.C,S41*%
X290353750Y-81280000D03*
%TO.C,S54*%
X291941250Y-97790000D03*
%TO.C,S14*%
X292735000Y-43180000D03*
%TO.C,S41*%
X296703750Y-78740000D03*
%TO.C,S28*%
X297497500Y-62230000D03*
%TO.C,S14*%
X299085000Y-40640000D03*
%TO.C,S62*%
X299878750Y-119380000D03*
%TO.C,S28*%
X303847500Y-59690000D03*
%TO.C,S62*%
X306228750Y-116840000D03*
M02*
