M48
; DRILL file {KiCad 8.0.3} date 2024-08-17T23:38:57+0800
; FORMAT={-:-/ absolute / inch / decimal}
; #@! TF.CreationDate,2024-08-17T23:38:57+08:00
; #@! TF.GenerationSoftware,Kicad,Pcbnew,8.0.3
; #@! TF.FileFunction,Plated,1,4,PTH
FMAT,2
INCH
; #@! TA.AperFunction,Plated,PTH,ViaDrill
T1C0.0118
; #@! TA.AperFunction,Plated,PTH,ComponentDrill
T2C0.0197
%
G90
G05
T1
X0.6053Y-0.252
X0.6988Y-2.502
X0.6988Y-3.252
X0.7933Y-1.002
X0.8868Y-1.752
X1.3553Y-0.252
X1.5433Y-2.502
X1.6368Y-3.252
X1.7303Y-1.002
X1.9183Y-1.752
X2.1053Y-0.252
X2.2933Y-2.502
X2.4803Y-1.002
X2.5738Y-3.252
X2.6683Y-1.752
X2.8553Y-0.252
X3.0433Y-2.502
X3.2303Y-1.002
X3.4183Y-1.752
X3.6053Y-0.252
X3.7933Y-2.502
X3.9803Y-1.002
X3.9882Y-3.5217
X4.065Y-3.2618
X4.1043Y-3.5591
X4.1683Y-1.752
X4.2087Y-3.5
X4.2087Y-3.5315
X4.2087Y-3.6122
X4.3553Y-0.252
X4.374Y-3.5591
X4.3878Y-3.1909
X4.4193Y-3.1909
X4.432Y-3.2708
X4.4508Y-3.1909
X4.4508Y-3.628
X4.4567Y-2.9724
X4.4567Y-3.0984
X4.4823Y-3.1909
X4.4941Y-3.1358
X4.5138Y-3.1909
X4.5433Y-2.502
X4.5453Y-3.1909
X4.5531Y-3.4469
X4.5768Y-3.1909
X4.5925Y-3.628
X4.6004Y-3.2514
X4.6083Y-3.1909
X4.6398Y-3.1909
X4.6713Y-3.1909
X4.7028Y-3.1909
X4.7303Y-1.002
X4.7343Y-3.5039
X4.7343Y-3.5354
X4.7343Y-3.5669
X4.7343Y-3.1909
X4.7415Y-3.4733
X4.7579Y-3.2185
X4.7579Y-3.2519
X4.7579Y-3.2953
X4.7579Y-3.3268
X4.7813Y-3.3891
X4.7818Y-3.4229
X4.7822Y-3.3577
X4.8071Y-3.1693
X4.9183Y-1.752
X4.9222Y-3.1978
X5.0413Y-3.5217
X5.0768Y-0.5866
X5.1053Y-0.252
X5.2795Y-2.875
X5.2933Y-2.502
X5.3868Y-3.252
X5.4134Y-2.874
X5.4508Y-1.3366
X5.4803Y-1.002
X5.5807Y-3.4213
X5.5807Y-3.5374
X5.6181Y-3.5374
X5.6378Y-2.0866
X5.6555Y-3.5374
X5.6683Y-1.752
X5.6929Y-3.5374
X5.8553Y-0.252
X6.0138Y-3.1181
X6.0138Y-3.2047
X6.0433Y-2.502
X6.2303Y-1.002
X6.4183Y-1.752
X6.4311Y-3.3012
X6.4705Y-3.3012
X6.5098Y-3.3012
X6.6063Y-0.252
X6.7933Y-2.502
X6.9803Y-1.002
X7.1683Y-1.752
X7.3563Y-0.252
X7.5433Y-2.502
X7.7303Y-1.002
X7.9183Y-1.752
X8.1053Y-0.252
X8.1988Y-3.252
X8.2933Y-2.502
X8.4803Y-1.002
X8.6683Y-1.752
X8.8553Y-0.252
X9.0433Y-2.502
X9.1368Y-3.252
X9.2303Y-1.002
X9.4183Y-1.752
X9.6053Y-0.252
X9.9803Y-1.002
X10.0748Y-3.252
X10.1683Y-1.752
X10.4488Y-2.502
X10.7303Y-0.252
X11.0118Y-1.377
X11.0118Y-3.252
T2
X4.1654Y-3.0512
X4.1654Y-3.0906
M30
