M48
; DRILL file {KiCad 8.0.3} date 2024-08-17T23:38:57+0800
; FORMAT={-:-/ absolute / inch / decimal}
; #@! TF.CreationDate,2024-08-17T23:38:57+08:00
; #@! TF.GenerationSoftware,Kicad,Pcbnew,8.0.3
; #@! TF.FileFunction,NonPlated,1,4,NPTH
FMAT,2
INCH
; #@! TA.AperFunction,NonPlated,NPTH,ComponentDrill
T1C0.0689
; #@! TA.AperFunction,NonPlated,NPTH,ComponentDrill
T2C0.1201
; #@! TA.AperFunction,NonPlated,NPTH,ComponentDrill
T3C0.1575
%
G90
G05
T1
X0.175Y-0.375
X0.2687Y-2.625
X0.2687Y-3.375
X0.3625Y-1.125
X0.4562Y-1.875
X0.575Y-0.375
X0.6687Y-2.625
X0.6687Y-3.375
X0.7625Y-1.125
X0.8562Y-1.875
X0.925Y-0.375
X1.1125Y-2.625
X1.2063Y-3.375
X1.3Y-1.125
X1.325Y-0.375
X1.4875Y-1.875
X1.5125Y-2.625
X1.6062Y-3.375
X1.675Y-0.375
X1.7Y-1.125
X1.8625Y-2.625
X1.8875Y-1.875
X2.05Y-1.125
X2.075Y-0.375
X2.1437Y-3.375
X2.2375Y-1.875
X2.2625Y-2.625
X2.425Y-0.375
X2.45Y-1.125
X2.5437Y-3.375
X2.6125Y-2.625
X2.6375Y-1.875
X2.8Y-1.125
X2.825Y-0.375
X2.9875Y-1.875
X3.0125Y-2.625
X3.175Y-0.375
X3.2Y-1.125
X3.3625Y-2.625
X3.3875Y-1.875
X3.55Y-1.125
X3.575Y-0.375
X3.7375Y-1.875
X3.7625Y-2.625
X3.925Y-0.375
X3.95Y-1.125
X4.1125Y-2.625
X4.1375Y-1.875
X4.3Y-1.125
X4.325Y-0.375
X4.4875Y-1.875
X4.5125Y-2.625
X4.675Y-0.375
X4.7Y-1.125
X4.8625Y-2.625
X4.8875Y-1.875
X4.9562Y-3.375
X5.05Y-1.125
X5.075Y-0.375
X5.2375Y-1.875
X5.2625Y-2.625
X5.3563Y-3.375
X5.425Y-0.375
X5.45Y-1.125
X5.6125Y-2.625
X5.6375Y-1.875
X5.8Y-1.125
X5.825Y-0.375
X5.9875Y-1.875
X6.0125Y-2.625
X6.175Y-0.375
X6.2Y-1.125
X6.3625Y-2.625
X6.3875Y-1.875
X6.55Y-1.125
X6.575Y-0.375
X6.7375Y-1.875
X6.7625Y-2.625
X6.925Y-0.375
X6.95Y-1.125
X7.1125Y-2.625
X7.1375Y-1.875
X7.3Y-1.125
X7.325Y-0.375
X7.4875Y-1.875
X7.5125Y-2.625
X7.675Y-0.375
X7.7Y-1.125
X7.7687Y-3.375
X7.8625Y-2.625
X7.8875Y-1.875
X8.05Y-1.125
X8.075Y-0.375
X8.1687Y-3.375
X8.2375Y-1.875
X8.2625Y-2.625
X8.425Y-0.375
X8.45Y-1.125
X8.6125Y-2.625
X8.6375Y-1.875
X8.7062Y-3.375
X8.8Y-1.125
X8.825Y-0.375
X8.9875Y-1.875
X9.0125Y-2.625
X9.1062Y-3.375
X9.175Y-0.375
X9.2Y-1.125
X9.3875Y-1.875
X9.55Y-1.125
X9.575Y-0.375
X9.6437Y-3.375
X9.7375Y-1.875
X9.95Y-1.125
X10.0187Y-2.625
X10.0437Y-3.375
X10.1375Y-1.875
X10.3Y-0.375
X10.4187Y-2.625
X10.5812Y-1.5
X10.5812Y-3.375
X10.7Y-0.375
X10.9812Y-1.5
X10.9812Y-3.375
T2
X0.225Y-0.275
X0.3187Y-2.525
X0.3187Y-3.275
X0.4125Y-1.025
X0.475Y-0.175
X0.5062Y-1.775
X0.5687Y-2.425
X0.5687Y-3.175
X0.6625Y-0.925
X0.7562Y-1.675
X0.975Y-0.275
X1.1625Y-2.525
X1.225Y-0.175
X1.2562Y-3.275
X1.35Y-1.025
X1.4125Y-2.425
X1.5062Y-3.175
X1.5375Y-1.775
X1.6Y-0.925
X1.725Y-0.275
X1.7875Y-1.675
X1.9125Y-2.525
X1.975Y-0.175
X2.1Y-1.025
X2.1625Y-2.425
X2.1938Y-3.275
X2.2875Y-1.775
X2.35Y-0.925
X2.4438Y-3.175
X2.475Y-0.275
X2.5375Y-1.675
X2.6625Y-2.525
X2.725Y-0.175
X2.85Y-1.025
X2.9125Y-2.425
X3.0375Y-1.775
X3.1Y-0.925
X3.225Y-0.275
X3.2875Y-1.675
X3.4125Y-2.525
X3.475Y-0.175
X3.6Y-1.025
X3.6625Y-2.425
X3.7875Y-1.775
X3.85Y-0.925
X3.975Y-0.275
X4.0375Y-1.675
X4.1625Y-2.525
X4.225Y-0.175
X4.35Y-1.025
X4.4125Y-2.425
X4.5375Y-1.775
X4.6Y-0.925
X4.725Y-0.275
X4.7875Y-1.675
X4.9125Y-2.525
X4.975Y-0.175
X5.0062Y-3.275
X5.1Y-1.025
X5.1625Y-2.425
X5.2562Y-3.175
X5.2875Y-1.775
X5.35Y-0.925
X5.475Y-0.275
X5.5375Y-1.675
X5.6625Y-2.525
X5.725Y-0.175
X5.85Y-1.025
X5.9125Y-2.425
X6.0375Y-1.775
X6.1Y-0.925
X6.225Y-0.275
X6.2875Y-1.675
X6.4125Y-2.525
X6.475Y-0.175
X6.6Y-1.025
X6.6625Y-2.425
X6.7875Y-1.775
X6.85Y-0.925
X6.975Y-0.275
X7.0375Y-1.675
X7.1625Y-2.525
X7.225Y-0.175
X7.35Y-1.025
X7.4125Y-2.425
X7.5375Y-1.775
X7.6Y-0.925
X7.725Y-0.275
X7.7875Y-1.675
X7.8187Y-3.275
X7.9125Y-2.525
X7.975Y-0.175
X8.0687Y-3.175
X8.1Y-1.025
X8.1625Y-2.425
X8.2875Y-1.775
X8.35Y-0.925
X8.475Y-0.275
X8.5375Y-1.675
X8.6625Y-2.525
X8.725Y-0.175
X8.7562Y-3.275
X8.85Y-1.025
X8.9125Y-2.425
X9.0062Y-3.175
X9.0375Y-1.775
X9.1Y-0.925
X9.225Y-0.275
X9.2875Y-1.675
X9.475Y-0.175
X9.6Y-1.025
X9.6937Y-3.275
X9.7875Y-1.775
X9.85Y-0.925
X9.9437Y-3.175
X10.0375Y-1.675
X10.0687Y-2.525
X10.3187Y-2.425
X10.35Y-0.275
X10.6Y-0.175
X10.6312Y-1.4
X10.6312Y-3.275
X10.8812Y-1.3
X10.8812Y-3.175
T3
X0.375Y-0.375
X0.4688Y-2.625
X0.4688Y-3.375
X0.5625Y-1.125
X0.6562Y-1.875
X1.125Y-0.375
X1.3125Y-2.625
X1.4062Y-3.375
X1.5Y-1.125
X1.6875Y-1.875
X1.875Y-0.375
X2.0625Y-2.625
X2.25Y-1.125
X2.3438Y-3.375
X2.4375Y-1.875
X2.625Y-0.375
X2.8125Y-2.625
X3.0Y-1.125
X3.1875Y-1.875
X3.375Y-0.375
X3.5625Y-2.625
X3.75Y-1.125
X3.9375Y-1.875
X4.125Y-0.375
X4.3125Y-2.625
X4.5Y-1.125
X4.6875Y-1.875
X4.875Y-0.375
X5.0625Y-2.625
X5.1562Y-3.375
X5.25Y-1.125
X5.4375Y-1.875
X5.625Y-0.375
X5.8125Y-2.625
X6.0Y-1.125
X6.1875Y-1.875
X6.375Y-0.375
X6.5625Y-2.625
X6.75Y-1.125
X6.9375Y-1.875
X7.125Y-0.375
X7.3125Y-2.625
X7.5Y-1.125
X7.6875Y-1.875
X7.875Y-0.375
X7.9688Y-3.375
X8.0625Y-2.625
X8.25Y-1.125
X8.4375Y-1.875
X8.625Y-0.375
X8.8125Y-2.625
X8.9062Y-3.375
X9.0Y-1.125
X9.1875Y-1.875
X9.375Y-0.375
X9.75Y-1.125
X9.8438Y-3.375
X9.9375Y-1.875
X10.2188Y-2.625
X10.5Y-0.375
X10.7812Y-1.5
X10.7812Y-3.375
M30
