%TF.GenerationSoftware,KiCad,Pcbnew,8.0.3*%
%TF.CreationDate,2024-08-17T23:38:57+08:00*%
%TF.ProjectId,PH60_Rev3,50483630-5f52-4657-9633-2e6b69636164,rev?*%
%TF.SameCoordinates,Original*%
%TF.FileFunction,Soldermask,Bot*%
%TF.FilePolarity,Negative*%
%FSLAX46Y46*%
G04 Gerber Fmt 4.6, Leading zero omitted, Abs format (unit mm)*
G04 Created by KiCad (PCBNEW 8.0.3) date 2024-08-17 23:38:57*
%MOMM*%
%LPD*%
G01*
G04 APERTURE LIST*
G04 Aperture macros list*
%AMRoundRect*
0 Rectangle with rounded corners*
0 $1 Rounding radius*
0 $2 $3 $4 $5 $6 $7 $8 $9 X,Y pos of 4 corners*
0 Add a 4 corners polygon primitive as box body*
4,1,4,$2,$3,$4,$5,$6,$7,$8,$9,$2,$3,0*
0 Add four circle primitives for the rounded corners*
1,1,$1+$1,$2,$3*
1,1,$1+$1,$4,$5*
1,1,$1+$1,$6,$7*
1,1,$1+$1,$8,$9*
0 Add four rect primitives between the rounded corners*
20,1,$1+$1,$2,$3,$4,$5,0*
20,1,$1+$1,$4,$5,$6,$7,0*
20,1,$1+$1,$6,$7,$8,$9,0*
20,1,$1+$1,$8,$9,$2,$3,0*%
G04 Aperture macros list end*
%ADD10C,1.750000*%
%ADD11C,3.050000*%
%ADD12C,4.000000*%
%ADD13RoundRect,0.250000X-1.025000X-1.000000X1.025000X-1.000000X1.025000X1.000000X-1.025000X1.000000X0*%
%ADD14RoundRect,0.225000X0.375000X-0.225000X0.375000X0.225000X-0.375000X0.225000X-0.375000X-0.225000X0*%
%ADD15RoundRect,0.140000X0.170000X-0.140000X0.170000X0.140000X-0.170000X0.140000X-0.170000X-0.140000X0*%
%ADD16RoundRect,0.135000X-0.135000X-0.185000X0.135000X-0.185000X0.135000X0.185000X-0.135000X0.185000X0*%
%ADD17RoundRect,0.050000X-0.050000X0.387500X-0.050000X-0.387500X0.050000X-0.387500X0.050000X0.387500X0*%
%ADD18RoundRect,0.050000X-0.387500X0.050000X-0.387500X-0.050000X0.387500X-0.050000X0.387500X0.050000X0*%
%ADD19R,3.200000X3.200000*%
%ADD20R,0.850000X0.850000*%
%ADD21O,0.850000X0.850000*%
%ADD22RoundRect,0.140000X0.140000X0.170000X-0.140000X0.170000X-0.140000X-0.170000X0.140000X-0.170000X0*%
%ADD23RoundRect,0.375000X0.625000X0.375000X-0.625000X0.375000X-0.625000X-0.375000X0.625000X-0.375000X0*%
%ADD24RoundRect,0.500000X0.500000X1.400000X-0.500000X1.400000X-0.500000X-1.400000X0.500000X-1.400000X0*%
%ADD25RoundRect,0.140000X-0.170000X0.140000X-0.170000X-0.140000X0.170000X-0.140000X0.170000X0.140000X0*%
%ADD26RoundRect,0.135000X0.135000X0.185000X-0.135000X0.185000X-0.135000X-0.185000X0.135000X-0.185000X0*%
%ADD27RoundRect,0.150000X0.650000X0.150000X-0.650000X0.150000X-0.650000X-0.150000X0.650000X-0.150000X0*%
%ADD28RoundRect,0.140000X-0.140000X-0.170000X0.140000X-0.170000X0.140000X0.170000X-0.140000X0.170000X0*%
%ADD29R,1.400000X1.200000*%
%ADD30R,0.400000X1.000000*%
%ADD31R,2.000000X1.300000*%
G04 APERTURE END LIST*
D10*
%TO.C,S36*%
X152082500Y-47625000D03*
D11*
X153352500Y-45085000D03*
D12*
X157162500Y-47625000D03*
D11*
X159702500Y-42545000D03*
D10*
X162242500Y-47625000D03*
D13*
X150077500Y-45085000D03*
X163004500Y-42545000D03*
%TD*%
D10*
%TO.C,S19*%
X90170000Y-28575000D03*
D11*
X91440000Y-26035000D03*
D12*
X95250000Y-28575000D03*
D11*
X97790000Y-23495000D03*
D10*
X100330000Y-28575000D03*
D13*
X88165000Y-26035000D03*
X101092000Y-23495000D03*
%TD*%
D10*
%TO.C,S35*%
X133032500Y-47625000D03*
D11*
X134302500Y-45085000D03*
D12*
X138112500Y-47625000D03*
D11*
X140652500Y-42545000D03*
D10*
X143192500Y-47625000D03*
D13*
X131027500Y-45085000D03*
X143954500Y-42545000D03*
%TD*%
D10*
%TO.C,S28*%
X268763750Y-38100000D03*
D11*
X270033750Y-35560000D03*
D12*
X273843750Y-38100000D03*
D11*
X276383750Y-33020000D03*
D10*
X278923750Y-38100000D03*
D13*
X266758750Y-35560000D03*
X279685750Y-33020000D03*
%TD*%
D10*
%TO.C,S13*%
X233045000Y-9525000D03*
D11*
X234315000Y-6985000D03*
D12*
X238125000Y-9525000D03*
D11*
X240665000Y-4445000D03*
D10*
X243205000Y-9525000D03*
D13*
X231040000Y-6985000D03*
X243967000Y-4445000D03*
%TD*%
D10*
%TO.C,S2*%
X23495000Y-9525000D03*
D11*
X24765000Y-6985000D03*
D12*
X28575000Y-9525000D03*
D11*
X31115000Y-4445000D03*
D10*
X33655000Y-9525000D03*
D13*
X21490000Y-6985000D03*
X34417000Y-4445000D03*
%TD*%
D10*
%TO.C,S49*%
X142557500Y-66675000D03*
D11*
X143827500Y-64135000D03*
D12*
X147637500Y-66675000D03*
D11*
X150177500Y-61595000D03*
D10*
X152717500Y-66675000D03*
D13*
X140552500Y-64135000D03*
X153479500Y-61595000D03*
%TD*%
D10*
%TO.C,S54*%
X254476250Y-66675000D03*
D11*
X255746250Y-64135000D03*
D12*
X259556250Y-66675000D03*
D11*
X262096250Y-61595000D03*
D10*
X264636250Y-66675000D03*
D13*
X252471250Y-64135000D03*
X265398250Y-61595000D03*
%TD*%
D10*
%TO.C,S29*%
X11588750Y-47625000D03*
D11*
X12858750Y-45085000D03*
D12*
X16668750Y-47625000D03*
D11*
X19208750Y-42545000D03*
D10*
X21748750Y-47625000D03*
D13*
X9583750Y-45085000D03*
X22510750Y-42545000D03*
%TD*%
D10*
%TO.C,S25*%
X204470000Y-28575000D03*
D11*
X205740000Y-26035000D03*
D12*
X209550000Y-28575000D03*
D11*
X212090000Y-23495000D03*
D10*
X214630000Y-28575000D03*
D13*
X202465000Y-26035000D03*
X215392000Y-23495000D03*
%TD*%
D10*
%TO.C,S55*%
X6826250Y-85725000D03*
D11*
X8096250Y-83185000D03*
D12*
X11906250Y-85725000D03*
D11*
X14446250Y-80645000D03*
D10*
X16986250Y-85725000D03*
D13*
X4821250Y-83185000D03*
X17748250Y-80645000D03*
%TD*%
D10*
%TO.C,S26*%
X223520000Y-28575000D03*
D11*
X224790000Y-26035000D03*
D12*
X228600000Y-28575000D03*
D11*
X231140000Y-23495000D03*
D10*
X233680000Y-28575000D03*
D13*
X221515000Y-26035000D03*
X234442000Y-23495000D03*
%TD*%
D10*
%TO.C,S62*%
X268763750Y-85725000D03*
D11*
X270033750Y-83185000D03*
D12*
X273843750Y-85725000D03*
D11*
X276383750Y-80645000D03*
D10*
X278923750Y-85725000D03*
D13*
X266758750Y-83185000D03*
X279685750Y-80645000D03*
%TD*%
D10*
%TO.C,S31*%
X56832500Y-47625000D03*
D11*
X58102500Y-45085000D03*
D12*
X61912500Y-47625000D03*
D11*
X64452500Y-42545000D03*
D10*
X66992500Y-47625000D03*
D13*
X54827500Y-45085000D03*
X67754500Y-42545000D03*
%TD*%
D10*
%TO.C,S44*%
X47307500Y-66675000D03*
D11*
X48577500Y-64135000D03*
D12*
X52387500Y-66675000D03*
D11*
X54927500Y-61595000D03*
D10*
X57467500Y-66675000D03*
D13*
X45302500Y-64135000D03*
X58229500Y-61595000D03*
%TD*%
D10*
%TO.C,S59*%
X197326250Y-85725000D03*
D11*
X198596250Y-83185000D03*
D12*
X202406250Y-85725000D03*
D11*
X204946250Y-80645000D03*
D10*
X207486250Y-85725000D03*
D13*
X195321250Y-83185000D03*
X208248250Y-80645000D03*
%TD*%
D10*
%TO.C,S45*%
X66357500Y-66675000D03*
D11*
X67627500Y-64135000D03*
D12*
X71437500Y-66675000D03*
D11*
X73977500Y-61595000D03*
D10*
X76517500Y-66675000D03*
D13*
X64352500Y-64135000D03*
X77279500Y-61595000D03*
%TD*%
D10*
%TO.C,S34*%
X113982500Y-47625000D03*
D11*
X115252500Y-45085000D03*
D12*
X119062500Y-47625000D03*
D11*
X121602500Y-42545000D03*
D10*
X124142500Y-47625000D03*
D13*
X111977500Y-45085000D03*
X124904500Y-42545000D03*
%TD*%
D10*
%TO.C,S37*%
X171132500Y-47625000D03*
D11*
X172402500Y-45085000D03*
D12*
X176212500Y-47625000D03*
D11*
X178752500Y-42545000D03*
D10*
X181292500Y-47625000D03*
D13*
X169127500Y-45085000D03*
X182054500Y-42545000D03*
%TD*%
D10*
%TO.C,S46*%
X85407500Y-66675000D03*
D11*
X86677500Y-64135000D03*
D12*
X90487500Y-66675000D03*
D11*
X93027500Y-61595000D03*
D10*
X95567500Y-66675000D03*
D13*
X83402500Y-64135000D03*
X96329500Y-61595000D03*
%TD*%
D10*
%TO.C,S20*%
X109220000Y-28575000D03*
D11*
X110490000Y-26035000D03*
D12*
X114300000Y-28575000D03*
D11*
X116840000Y-23495000D03*
D10*
X119380000Y-28575000D03*
D13*
X107215000Y-26035000D03*
X120142000Y-23495000D03*
%TD*%
D10*
%TO.C,S9*%
X156845000Y-9525000D03*
D11*
X158115000Y-6985000D03*
D12*
X161925000Y-9525000D03*
D11*
X164465000Y-4445000D03*
D10*
X167005000Y-9525000D03*
D13*
X154840000Y-6985000D03*
X167767000Y-4445000D03*
%TD*%
D10*
%TO.C,S33*%
X94932500Y-47625000D03*
D11*
X96202500Y-45085000D03*
D12*
X100012500Y-47625000D03*
D11*
X102552500Y-42545000D03*
D10*
X105092500Y-47625000D03*
D13*
X92927500Y-45085000D03*
X105854500Y-42545000D03*
%TD*%
D10*
%TO.C,S39*%
X209232500Y-47625000D03*
D11*
X210502500Y-45085000D03*
D12*
X214312500Y-47625000D03*
D11*
X216852500Y-42545000D03*
D10*
X219392500Y-47625000D03*
D13*
X207227500Y-45085000D03*
X220154500Y-42545000D03*
%TD*%
D10*
%TO.C,S38*%
X190182500Y-47625000D03*
D11*
X191452500Y-45085000D03*
D12*
X195262500Y-47625000D03*
D11*
X197802500Y-42545000D03*
D10*
X200342500Y-47625000D03*
D13*
X188177500Y-45085000D03*
X201104500Y-42545000D03*
%TD*%
D10*
%TO.C,S5*%
X80645000Y-9525000D03*
D11*
X81915000Y-6985000D03*
D12*
X85725000Y-9525000D03*
D11*
X88265000Y-4445000D03*
D10*
X90805000Y-9525000D03*
D13*
X78640000Y-6985000D03*
X91567000Y-4445000D03*
%TD*%
D10*
%TO.C,S8*%
X137795000Y-9525000D03*
D11*
X139065000Y-6985000D03*
D12*
X142875000Y-9525000D03*
D11*
X145415000Y-4445000D03*
D10*
X147955000Y-9525000D03*
D13*
X135790000Y-6985000D03*
X148717000Y-4445000D03*
%TD*%
D10*
%TO.C,S40*%
X228282500Y-47625000D03*
D11*
X229552500Y-45085000D03*
D12*
X233362500Y-47625000D03*
D11*
X235902500Y-42545000D03*
D10*
X238442500Y-47625000D03*
D13*
X226277500Y-45085000D03*
X239204500Y-42545000D03*
%TD*%
D10*
%TO.C,S30*%
X37782500Y-47625000D03*
D11*
X39052500Y-45085000D03*
D12*
X42862500Y-47625000D03*
D11*
X45402500Y-42545000D03*
D10*
X47942500Y-47625000D03*
D13*
X35777500Y-45085000D03*
X48704500Y-42545000D03*
%TD*%
D10*
%TO.C,S21*%
X128270000Y-28575000D03*
D11*
X129540000Y-26035000D03*
D12*
X133350000Y-28575000D03*
D11*
X135890000Y-23495000D03*
D10*
X138430000Y-28575000D03*
D13*
X126265000Y-26035000D03*
X139192000Y-23495000D03*
%TD*%
D10*
%TO.C,S12*%
X213995000Y-9525000D03*
D11*
X215265000Y-6985000D03*
D12*
X219075000Y-9525000D03*
D11*
X221615000Y-4445000D03*
D10*
X224155000Y-9525000D03*
D13*
X211990000Y-6985000D03*
X224917000Y-4445000D03*
%TD*%
D10*
%TO.C,S15*%
X9207500Y-28575000D03*
D11*
X10477500Y-26035000D03*
D12*
X14287500Y-28575000D03*
D11*
X16827500Y-23495000D03*
D10*
X19367500Y-28575000D03*
D13*
X7202500Y-26035000D03*
X20129500Y-23495000D03*
%TD*%
D10*
%TO.C,S11*%
X194945000Y-9525000D03*
D11*
X196215000Y-6985000D03*
D12*
X200025000Y-9525000D03*
D11*
X202565000Y-4445000D03*
D10*
X205105000Y-9525000D03*
D13*
X192940000Y-6985000D03*
X205867000Y-4445000D03*
%TD*%
D10*
%TO.C,S18*%
X71120000Y-28575000D03*
D11*
X72390000Y-26035000D03*
D12*
X76200000Y-28575000D03*
D11*
X78740000Y-23495000D03*
D10*
X81280000Y-28575000D03*
D13*
X69115000Y-26035000D03*
X82042000Y-23495000D03*
%TD*%
D10*
%TO.C,S60*%
X221138750Y-85725000D03*
D11*
X222408750Y-83185000D03*
D12*
X226218750Y-85725000D03*
D11*
X228758750Y-80645000D03*
D10*
X231298750Y-85725000D03*
D13*
X219133750Y-83185000D03*
X232060750Y-80645000D03*
%TD*%
D10*
%TO.C,S56*%
X30638750Y-85725000D03*
D11*
X31908750Y-83185000D03*
D12*
X35718750Y-85725000D03*
D11*
X38258750Y-80645000D03*
D10*
X40798750Y-85725000D03*
D13*
X28633750Y-83185000D03*
X41560750Y-80645000D03*
%TD*%
D10*
%TO.C,S50*%
X161607500Y-66675000D03*
D11*
X162877500Y-64135000D03*
D12*
X166687500Y-66675000D03*
D11*
X169227500Y-61595000D03*
D10*
X171767500Y-66675000D03*
D13*
X159602500Y-64135000D03*
X172529500Y-61595000D03*
%TD*%
D10*
%TO.C,S43*%
X28257500Y-66675000D03*
D11*
X29527500Y-64135000D03*
D12*
X33337500Y-66675000D03*
D11*
X35877500Y-61595000D03*
D10*
X38417500Y-66675000D03*
D13*
X26252500Y-64135000D03*
X39179500Y-61595000D03*
%TD*%
D10*
%TO.C,S51*%
X180657500Y-66675000D03*
D11*
X181927500Y-64135000D03*
D12*
X185737500Y-66675000D03*
D11*
X188277500Y-61595000D03*
D10*
X190817500Y-66675000D03*
D13*
X178652500Y-64135000D03*
X191579500Y-61595000D03*
%TD*%
D10*
%TO.C,S52*%
X199707500Y-66675000D03*
D11*
X200977500Y-64135000D03*
D12*
X204787500Y-66675000D03*
D11*
X207327500Y-61595000D03*
D10*
X209867500Y-66675000D03*
D13*
X197702500Y-64135000D03*
X210629500Y-61595000D03*
%TD*%
D10*
%TO.C,S48*%
X123507500Y-66675000D03*
D11*
X124777500Y-64135000D03*
D12*
X128587500Y-66675000D03*
D11*
X131127500Y-61595000D03*
D10*
X133667500Y-66675000D03*
D13*
X121502500Y-64135000D03*
X134429500Y-61595000D03*
%TD*%
D10*
%TO.C,S42*%
X6826250Y-66675000D03*
D11*
X8096250Y-64135000D03*
D12*
X11906250Y-66675000D03*
D11*
X14446250Y-61595000D03*
D10*
X16986250Y-66675000D03*
D13*
X4821250Y-64135000D03*
X17748250Y-61595000D03*
%TD*%
D10*
%TO.C,S22*%
X147320000Y-28575000D03*
D11*
X148590000Y-26035000D03*
D12*
X152400000Y-28575000D03*
D11*
X154940000Y-23495000D03*
D10*
X157480000Y-28575000D03*
D13*
X145315000Y-26035000D03*
X158242000Y-23495000D03*
%TD*%
D10*
%TO.C,S61*%
X244951250Y-85725000D03*
D11*
X246221250Y-83185000D03*
D12*
X250031250Y-85725000D03*
D11*
X252571250Y-80645000D03*
D10*
X255111250Y-85725000D03*
D13*
X242946250Y-83185000D03*
X255873250Y-80645000D03*
%TD*%
D10*
%TO.C,S14*%
X261620000Y-9525000D03*
D11*
X262890000Y-6985000D03*
D12*
X266700000Y-9525000D03*
D11*
X269240000Y-4445000D03*
D10*
X271780000Y-9525000D03*
D13*
X259615000Y-6985000D03*
X272542000Y-4445000D03*
%TD*%
D10*
%TO.C,S4*%
X61595000Y-9525000D03*
D11*
X62865000Y-6985000D03*
D12*
X66675000Y-9525000D03*
D11*
X69215000Y-4445000D03*
D10*
X71755000Y-9525000D03*
D13*
X59590000Y-6985000D03*
X72517000Y-4445000D03*
%TD*%
D10*
%TO.C,S10*%
X175895000Y-9525000D03*
D11*
X177165000Y-6985000D03*
D12*
X180975000Y-9525000D03*
D11*
X183515000Y-4445000D03*
D10*
X186055000Y-9525000D03*
D13*
X173890000Y-6985000D03*
X186817000Y-4445000D03*
%TD*%
D10*
%TO.C,S41*%
X247332500Y-47625000D03*
D11*
X248602500Y-45085000D03*
D12*
X252412500Y-47625000D03*
D11*
X254952500Y-42545000D03*
D10*
X257492500Y-47625000D03*
D13*
X245327500Y-45085000D03*
X258254500Y-42545000D03*
%TD*%
D10*
%TO.C,S47*%
X104457500Y-66675000D03*
D11*
X105727500Y-64135000D03*
D12*
X109537500Y-66675000D03*
D11*
X112077500Y-61595000D03*
D10*
X114617500Y-66675000D03*
D13*
X102452500Y-64135000D03*
X115379500Y-61595000D03*
%TD*%
D10*
%TO.C,S3*%
X42545000Y-9525000D03*
D11*
X43815000Y-6985000D03*
D12*
X47625000Y-9525000D03*
D11*
X50165000Y-4445000D03*
D10*
X52705000Y-9525000D03*
D13*
X40540000Y-6985000D03*
X53467000Y-4445000D03*
%TD*%
D10*
%TO.C,S16*%
X33020000Y-28575000D03*
D11*
X34290000Y-26035000D03*
D12*
X38100000Y-28575000D03*
D11*
X40640000Y-23495000D03*
D10*
X43180000Y-28575000D03*
D13*
X31015000Y-26035000D03*
X43942000Y-23495000D03*
%TD*%
D10*
%TO.C,S7*%
X118745000Y-9525000D03*
D11*
X120015000Y-6985000D03*
D12*
X123825000Y-9525000D03*
D11*
X126365000Y-4445000D03*
D10*
X128905000Y-9525000D03*
D13*
X116740000Y-6985000D03*
X129667000Y-4445000D03*
%TD*%
D10*
%TO.C,S23*%
X166370000Y-28575000D03*
D11*
X167640000Y-26035000D03*
D12*
X171450000Y-28575000D03*
D11*
X173990000Y-23495000D03*
D10*
X176530000Y-28575000D03*
D13*
X164365000Y-26035000D03*
X177292000Y-23495000D03*
%TD*%
D10*
%TO.C,S53*%
X218757500Y-66675000D03*
D11*
X220027500Y-64135000D03*
D12*
X223837500Y-66675000D03*
D11*
X226377500Y-61595000D03*
D10*
X228917500Y-66675000D03*
D13*
X216752500Y-64135000D03*
X229679500Y-61595000D03*
%TD*%
D10*
%TO.C,S27*%
X242570000Y-28575000D03*
D11*
X243840000Y-26035000D03*
D12*
X247650000Y-28575000D03*
D11*
X250190000Y-23495000D03*
D10*
X252730000Y-28575000D03*
D13*
X240565000Y-26035000D03*
X253492000Y-23495000D03*
%TD*%
D10*
%TO.C,S6*%
X99695000Y-9525000D03*
D11*
X100965000Y-6985000D03*
D12*
X104775000Y-9525000D03*
D11*
X107315000Y-4445000D03*
D10*
X109855000Y-9525000D03*
D13*
X97690000Y-6985000D03*
X110617000Y-4445000D03*
%TD*%
D10*
%TO.C,S24*%
X185420000Y-28575000D03*
D11*
X186690000Y-26035000D03*
D12*
X190500000Y-28575000D03*
D11*
X193040000Y-23495000D03*
D10*
X195580000Y-28575000D03*
D13*
X183415000Y-26035000D03*
X196342000Y-23495000D03*
%TD*%
D10*
%TO.C,S58*%
X125888750Y-85725000D03*
D11*
X127158750Y-83185000D03*
D12*
X130968750Y-85725000D03*
D11*
X133508750Y-80645000D03*
D10*
X136048750Y-85725000D03*
D13*
X123883750Y-83185000D03*
X136810750Y-80645000D03*
%TD*%
D10*
%TO.C,S57*%
X54451250Y-85725000D03*
D11*
X55721250Y-83185000D03*
D12*
X59531250Y-85725000D03*
D11*
X62071250Y-80645000D03*
D10*
X64611250Y-85725000D03*
D13*
X52446250Y-83185000D03*
X65373250Y-80645000D03*
%TD*%
D10*
%TO.C,S1*%
X4445000Y-9525000D03*
D11*
X5715000Y-6985000D03*
D12*
X9525000Y-9525000D03*
D11*
X12065000Y-4445000D03*
D10*
X14605000Y-9525000D03*
D13*
X2440000Y-6985000D03*
X15367000Y-4445000D03*
%TD*%
D10*
%TO.C,S32*%
X75882500Y-47625000D03*
D11*
X77152500Y-45085000D03*
D12*
X80962500Y-47625000D03*
D11*
X83502500Y-42545000D03*
D10*
X86042500Y-47625000D03*
D13*
X73877500Y-45085000D03*
X86804500Y-42545000D03*
%TD*%
D10*
%TO.C,S17*%
X52070000Y-28575000D03*
D11*
X53340000Y-26035000D03*
D12*
X57150000Y-28575000D03*
D11*
X59690000Y-23495000D03*
D10*
X62230000Y-28575000D03*
D13*
X50065000Y-26035000D03*
X62992000Y-23495000D03*
%TD*%
D14*
%TO.C,D42*%
X16986250Y-71975000D03*
X16986250Y-68675000D03*
%TD*%
D15*
%TO.C,C7*%
X141750000Y-88850000D03*
X141750000Y-87890000D03*
%TD*%
D14*
%TO.C,D38*%
X200342500Y-52925000D03*
X200342500Y-49625000D03*
%TD*%
%TO.C,D18*%
X81280000Y-33875000D03*
X81280000Y-30575000D03*
%TD*%
D16*
%TO.C,R3*%
X107880000Y-88900000D03*
X108900000Y-88900000D03*
%TD*%
D14*
%TO.C,D55*%
X16986250Y-91025000D03*
X16986250Y-87725000D03*
%TD*%
%TO.C,D23*%
X176530000Y-33875000D03*
X176530000Y-30575000D03*
%TD*%
%TO.C,D53*%
X228917500Y-71975000D03*
X228917500Y-68675000D03*
%TD*%
D15*
%TO.C,C3*%
X127000000Y-90430000D03*
X127000000Y-89470000D03*
%TD*%
D17*
%TO.C,U3*%
X113050000Y-84100000D03*
X113450000Y-84100000D03*
X113850000Y-84100000D03*
X114250000Y-84100000D03*
X114650000Y-84100000D03*
X115050000Y-84100000D03*
X115450000Y-84100000D03*
X115850000Y-84100000D03*
X116250000Y-84100000D03*
X116650000Y-84100000D03*
X117050000Y-84100000D03*
X117450000Y-84100000D03*
X117850000Y-84100000D03*
X118250000Y-84100000D03*
D18*
X119087500Y-84937500D03*
X119087500Y-85337500D03*
X119087500Y-85737500D03*
X119087500Y-86137500D03*
X119087500Y-86537500D03*
X119087500Y-86937500D03*
X119087500Y-87337500D03*
X119087500Y-87737500D03*
X119087500Y-88137500D03*
X119087500Y-88537500D03*
X119087500Y-88937500D03*
X119087500Y-89337500D03*
X119087500Y-89737500D03*
X119087500Y-90137500D03*
D17*
X118250000Y-90975000D03*
X117850000Y-90975000D03*
X117450000Y-90975000D03*
X117050000Y-90975000D03*
X116650000Y-90975000D03*
X116250000Y-90975000D03*
X115850000Y-90975000D03*
X115450000Y-90975000D03*
X115050000Y-90975000D03*
X114650000Y-90975000D03*
X114250000Y-90975000D03*
X113850000Y-90975000D03*
X113450000Y-90975000D03*
X113050000Y-90975000D03*
D18*
X112212500Y-90137500D03*
X112212500Y-89737500D03*
X112212500Y-89337500D03*
X112212500Y-88937500D03*
X112212500Y-88537500D03*
X112212500Y-88137500D03*
X112212500Y-87737500D03*
X112212500Y-87337500D03*
X112212500Y-86937500D03*
X112212500Y-86537500D03*
X112212500Y-86137500D03*
X112212500Y-85737500D03*
X112212500Y-85337500D03*
X112212500Y-84937500D03*
D19*
X115650000Y-87537500D03*
%TD*%
D14*
%TO.C,D50*%
X171767500Y-71975000D03*
X171767500Y-68675000D03*
%TD*%
D20*
%TO.C,J2*%
X105800000Y-78500000D03*
D21*
X105800000Y-77500000D03*
%TD*%
D14*
%TO.C,D57*%
X64611250Y-91025000D03*
X64611250Y-87725000D03*
%TD*%
D22*
%TO.C,C13*%
X103250000Y-88530000D03*
X102290000Y-88530000D03*
%TD*%
D14*
%TO.C,D15*%
X19367500Y-33875000D03*
X19367500Y-30575000D03*
%TD*%
D22*
%TO.C,C10*%
X108850000Y-91750000D03*
X107890000Y-91750000D03*
%TD*%
D14*
%TO.C,D8*%
X147955000Y-14825000D03*
X147955000Y-11525000D03*
%TD*%
D23*
%TO.C,U1*%
X151000000Y-79100000D03*
X151000000Y-81400000D03*
X151000000Y-83700000D03*
D24*
X144700000Y-81400000D03*
%TD*%
D15*
%TO.C,C11*%
X144600000Y-88850000D03*
X144600000Y-87890000D03*
%TD*%
D14*
%TO.C,D19*%
X100330000Y-33875000D03*
X100330000Y-30575000D03*
%TD*%
%TO.C,D21*%
X138430000Y-33875000D03*
X138430000Y-30575000D03*
%TD*%
%TO.C,D40*%
X238442500Y-52925000D03*
X238442500Y-49625000D03*
%TD*%
%TO.C,D36*%
X162242500Y-52925000D03*
X162242500Y-49625000D03*
%TD*%
D25*
%TO.C,C2*%
X121800000Y-89450000D03*
X121800000Y-90410000D03*
%TD*%
D14*
%TO.C,D52*%
X209867500Y-71975000D03*
X209867500Y-68675000D03*
%TD*%
%TO.C,D16*%
X43180000Y-33875000D03*
X43180000Y-30575000D03*
%TD*%
%TO.C,D28*%
X278923750Y-43400000D03*
X278923750Y-40100000D03*
%TD*%
%TO.C,D58*%
X136048750Y-91025000D03*
X136048750Y-87725000D03*
%TD*%
%TO.C,D59*%
X207486250Y-91025000D03*
X207486250Y-87725000D03*
%TD*%
%TO.C,D48*%
X133667500Y-71975000D03*
X133667500Y-68675000D03*
%TD*%
D22*
%TO.C,C14*%
X103250000Y-89450000D03*
X102290000Y-89450000D03*
%TD*%
D26*
%TO.C,R5*%
X124900000Y-92150000D03*
X123880000Y-92150000D03*
%TD*%
D14*
%TO.C,D49*%
X152717500Y-71975000D03*
X152717500Y-68675000D03*
%TD*%
%TO.C,D35*%
X143192500Y-52925000D03*
X143192500Y-49625000D03*
%TD*%
D15*
%TO.C,C15*%
X114120000Y-77460000D03*
X114120000Y-76500000D03*
%TD*%
D14*
%TO.C,D43*%
X38417500Y-71975000D03*
X38417500Y-68675000D03*
%TD*%
%TO.C,D45*%
X76517500Y-71975000D03*
X76517500Y-68675000D03*
%TD*%
%TO.C,D10*%
X186055000Y-14825000D03*
X186055000Y-11525000D03*
%TD*%
%TO.C,D37*%
X181292500Y-52925000D03*
X181292500Y-49625000D03*
%TD*%
%TO.C,D56*%
X40798750Y-91025000D03*
X40798750Y-87725000D03*
%TD*%
%TO.C,D44*%
X57467500Y-71975000D03*
X57467500Y-68675000D03*
%TD*%
%TO.C,D6*%
X109855000Y-14825000D03*
X109855000Y-11525000D03*
%TD*%
%TO.C,D30*%
X47942500Y-52925000D03*
X47942500Y-49625000D03*
%TD*%
D15*
%TO.C,C4*%
X142700000Y-88850000D03*
X142700000Y-87890000D03*
%TD*%
D22*
%TO.C,C6*%
X103240000Y-87600000D03*
X102280000Y-87600000D03*
%TD*%
D14*
%TO.C,D12*%
X224155000Y-14825000D03*
X224155000Y-11525000D03*
%TD*%
%TO.C,D32*%
X86042500Y-52925000D03*
X86042500Y-49625000D03*
%TD*%
D15*
%TO.C,C16*%
X113200000Y-77460000D03*
X113200000Y-76500000D03*
%TD*%
D14*
%TO.C,D25*%
X214630000Y-33875000D03*
X214630000Y-30575000D03*
%TD*%
%TO.C,D20*%
X119380000Y-33875000D03*
X119380000Y-30575000D03*
%TD*%
D27*
%TO.C,U2*%
X101700000Y-79045000D03*
X101700000Y-80315000D03*
X101700000Y-81585000D03*
X101700000Y-82855000D03*
X94500000Y-82855000D03*
X94500000Y-81585000D03*
X94500000Y-80315000D03*
X94500000Y-79045000D03*
%TD*%
D14*
%TO.C,D39*%
X219392500Y-52925000D03*
X219392500Y-49625000D03*
%TD*%
%TO.C,D3*%
X52705000Y-14825000D03*
X52705000Y-11525000D03*
%TD*%
%TO.C,D22*%
X157480000Y-33875000D03*
X157480000Y-30575000D03*
%TD*%
%TO.C,D60*%
X231298750Y-91025000D03*
X231298750Y-87725000D03*
%TD*%
D22*
%TO.C,C8*%
X108850000Y-90800000D03*
X107890000Y-90800000D03*
%TD*%
D14*
%TO.C,D61*%
X255111250Y-91025000D03*
X255111250Y-87725000D03*
%TD*%
%TO.C,D1*%
X14605000Y-14825000D03*
X14605000Y-11525000D03*
%TD*%
%TO.C,D62*%
X278923750Y-91025000D03*
X278923750Y-87725000D03*
%TD*%
%TO.C,D26*%
X233680000Y-33875000D03*
X233680000Y-30575000D03*
%TD*%
%TO.C,D17*%
X62230000Y-33875000D03*
X62230000Y-30575000D03*
%TD*%
%TO.C,D4*%
X71755000Y-14825000D03*
X71755000Y-11525000D03*
%TD*%
D15*
%TO.C,C12*%
X143650000Y-88830000D03*
X143650000Y-87870000D03*
%TD*%
D26*
%TO.C,R1*%
X104210000Y-79050000D03*
X103190000Y-79050000D03*
%TD*%
D28*
%TO.C,C5*%
X97620000Y-84300000D03*
X98580000Y-84300000D03*
%TD*%
D29*
%TO.C,Y1*%
X125500000Y-90800000D03*
X123300000Y-90800000D03*
X123300000Y-89100000D03*
X125500000Y-89100000D03*
%TD*%
D14*
%TO.C,D51*%
X190817500Y-71975000D03*
X190817500Y-68675000D03*
%TD*%
D15*
%TO.C,C1*%
X153550000Y-81880000D03*
X153550000Y-80920000D03*
%TD*%
D14*
%TO.C,D47*%
X114617500Y-71975000D03*
X114617500Y-68675000D03*
%TD*%
%TO.C,D5*%
X90805000Y-14825000D03*
X90805000Y-11525000D03*
%TD*%
D16*
%TO.C,R2*%
X97600000Y-77600000D03*
X98620000Y-77600000D03*
%TD*%
D14*
%TO.C,D46*%
X95567500Y-71975000D03*
X95567500Y-68675000D03*
%TD*%
%TO.C,D29*%
X21748750Y-52925000D03*
X21748750Y-49625000D03*
%TD*%
D30*
%TO.C,J3*%
X162350000Y-82650000D03*
X163350000Y-82650000D03*
X164350000Y-82650000D03*
X165350000Y-82650000D03*
D31*
X159550000Y-79950000D03*
X168150000Y-79950000D03*
%TD*%
D14*
%TO.C,D2*%
X33655000Y-14825000D03*
X33655000Y-11525000D03*
%TD*%
%TO.C,D34*%
X124142500Y-52925000D03*
X124142500Y-49625000D03*
%TD*%
%TO.C,D14*%
X271780000Y-14825000D03*
X271780000Y-11525000D03*
%TD*%
%TO.C,D41*%
X257492500Y-52925000D03*
X257492500Y-49625000D03*
%TD*%
%TO.C,D7*%
X128905000Y-14825000D03*
X128905000Y-11525000D03*
%TD*%
%TO.C,D13*%
X243205000Y-14825000D03*
X243205000Y-11525000D03*
%TD*%
%TO.C,D9*%
X167005000Y-14825000D03*
X167005000Y-11525000D03*
%TD*%
%TO.C,D31*%
X66992500Y-52925000D03*
X66992500Y-49625000D03*
%TD*%
%TO.C,D33*%
X105092500Y-52925000D03*
X105092500Y-49625000D03*
%TD*%
D16*
%TO.C,R4*%
X107880000Y-89850000D03*
X108900000Y-89850000D03*
%TD*%
D14*
%TO.C,D11*%
X205105000Y-14825000D03*
X205105000Y-11525000D03*
%TD*%
D22*
%TO.C,C9*%
X103230000Y-90400000D03*
X102270000Y-90400000D03*
%TD*%
D14*
%TO.C,D24*%
X195580000Y-33875000D03*
X195580000Y-30575000D03*
%TD*%
%TO.C,D54*%
X264636250Y-71975000D03*
X264636250Y-68675000D03*
%TD*%
%TO.C,D27*%
X252730000Y-33875000D03*
X252730000Y-30575000D03*
%TD*%
M02*
