%TF.GenerationSoftware,KiCad,Pcbnew,8.0.3*%
%TF.CreationDate,2024-12-09T14:43:39+08:00*%
%TF.ProjectId,PH60_Rev3,50483630-5f52-4657-9633-2e6b69636164,rev?*%
%TF.SameCoordinates,Original*%
%TF.FileFunction,Plated,1,2,PTH,Mixed*%
%TF.FilePolarity,Positive*%
%FSLAX46Y46*%
G04 Gerber Fmt 4.6, Leading zero omitted, Abs format (unit mm)*
G04 Created by KiCad (PCBNEW 8.0.3) date 2024-12-09 14:43:39*
%MOMM*%
%LPD*%
G01*
G04 APERTURE LIST*
%TA.AperFunction,ComponentDrill*%
%ADD10C,0.200000*%
%TD*%
%TA.AperFunction,ViaDrill*%
%ADD11C,0.300000*%
%TD*%
G04 aperture for slot hole*
%TA.AperFunction,ComponentDrill*%
%ADD12C,0.600000*%
%TD*%
%TA.AperFunction,ComponentDrill*%
%ADD13C,1.000000*%
%TD*%
%TA.AperFunction,ComponentDrill*%
%ADD14C,3.050000*%
%TD*%
G04 APERTURE END LIST*
D10*
%TO.C,U3*%
X132725812Y-113540406D03*
X134635000Y-111631218D03*
X134635000Y-115449594D03*
X136544188Y-113540406D03*
%TD*%
D11*
X29875000Y-85595000D03*
X29885000Y-30965000D03*
X29915000Y-47705000D03*
X29985000Y-66695000D03*
X30005000Y-121505000D03*
X30065000Y-104815000D03*
X31505000Y-120165000D03*
X33265000Y-33765000D03*
X33565000Y-32270000D03*
X34065000Y-56195000D03*
X34915000Y-75365000D03*
X35005000Y-112135000D03*
X35415000Y-108425000D03*
X37905000Y-51285000D03*
X38105000Y-94935000D03*
X40583750Y-70405000D03*
X41565000Y-30085000D03*
X41845000Y-36385000D03*
X44895000Y-38745000D03*
X44945000Y-90995000D03*
X45025000Y-89445000D03*
X45635000Y-109945000D03*
X45695000Y-38305000D03*
X46635000Y-42645000D03*
X46955000Y-47485000D03*
X47235000Y-46735000D03*
X47935000Y-53295000D03*
X48025000Y-85295000D03*
X48675000Y-48535000D03*
X48975000Y-45975000D03*
X49995000Y-46845000D03*
X50275000Y-38315000D03*
X50665000Y-72155000D03*
X50695000Y-33595000D03*
X50705000Y-45965000D03*
X51105000Y-40535000D03*
X51525000Y-110735000D03*
X51675000Y-54625000D03*
X53585000Y-36745000D03*
X53655000Y-29995000D03*
X55155000Y-73615000D03*
X56875000Y-60765000D03*
X57205000Y-53535000D03*
X57415000Y-105855000D03*
X57725000Y-92670000D03*
X58485000Y-90935000D03*
X59275000Y-108465000D03*
X61035000Y-79125000D03*
X61695000Y-35535000D03*
X61920000Y-51325000D03*
X61925000Y-72755000D03*
X62335000Y-95745000D03*
X66445000Y-86595000D03*
X66635000Y-34605000D03*
X66777500Y-70405000D03*
X69055000Y-86795000D03*
X71665000Y-32270000D03*
X74155000Y-86455000D03*
X75315000Y-47330000D03*
X75315000Y-48180000D03*
X75975000Y-89485000D03*
X76105000Y-110725000D03*
X76165000Y-53605000D03*
X80970000Y-51325000D03*
X80985000Y-72585000D03*
X83385000Y-108485000D03*
X85605000Y-30275000D03*
X85735000Y-34635000D03*
X85827500Y-70405000D03*
X86575000Y-48695000D03*
X87495000Y-46915000D03*
X89165000Y-91525000D03*
X90085000Y-104325000D03*
X90185000Y-89085000D03*
X90285000Y-105785000D03*
X90595000Y-55445000D03*
X90635000Y-52675000D03*
X90715000Y-32270000D03*
X90875000Y-86445000D03*
X92325000Y-90055000D03*
X92335000Y-104325000D03*
X92495000Y-52095000D03*
X92625000Y-82515000D03*
X92975000Y-105775000D03*
X93345000Y-104945000D03*
X93595000Y-55435000D03*
X94285000Y-110785000D03*
X95135000Y-53565000D03*
X95335000Y-89455000D03*
X95675000Y-113585000D03*
X96045000Y-60785000D03*
X96055000Y-74615000D03*
X97375000Y-47515000D03*
X97515000Y-76625000D03*
X98005000Y-60255000D03*
X98425000Y-74585000D03*
X98755000Y-80835000D03*
X99064479Y-113685521D03*
X99665521Y-113084479D03*
X100020000Y-51325000D03*
X100605000Y-72705000D03*
X100655000Y-77025000D03*
X100665000Y-81585000D03*
X101915000Y-105555000D03*
X103145000Y-118435000D03*
X103675000Y-110085000D03*
X103855000Y-116615000D03*
X104835000Y-34725000D03*
X104877500Y-70405000D03*
X105085000Y-113755000D03*
X108605000Y-111425000D03*
X108625000Y-91815000D03*
X109515000Y-96395000D03*
X109765000Y-32270000D03*
X111295000Y-109275000D03*
X112695000Y-104815000D03*
X113905000Y-89405000D03*
X114135000Y-115475000D03*
X114295000Y-53655000D03*
X114425000Y-102805000D03*
X116755000Y-107225000D03*
X118505000Y-111335000D03*
X119015000Y-72765000D03*
X119070000Y-51325000D03*
X120085000Y-99485000D03*
X120165000Y-115955000D03*
X120195000Y-101785000D03*
X120335000Y-109565000D03*
X120505000Y-113065000D03*
X121525000Y-115985000D03*
X121725000Y-110475000D03*
X122495000Y-116645000D03*
X122565000Y-102375000D03*
X122685000Y-115935000D03*
X123275000Y-106805000D03*
X123515000Y-121645000D03*
X123555000Y-118315000D03*
X123835000Y-34635000D03*
X123927500Y-70405000D03*
X123985000Y-30065000D03*
X123995000Y-109385000D03*
X125355000Y-121595000D03*
X125485000Y-117185000D03*
X125685000Y-115895000D03*
X126715000Y-115905000D03*
X127065000Y-112175000D03*
X127775000Y-115825000D03*
X128155000Y-91735000D03*
X128515000Y-120225000D03*
X128615000Y-96435000D03*
X128815000Y-32270000D03*
X128845000Y-86145000D03*
X129205000Y-120875000D03*
X130065000Y-121545000D03*
X131715000Y-107705000D03*
X133005000Y-121005000D03*
X133250000Y-105940000D03*
X133345000Y-53695000D03*
X133355000Y-97875000D03*
X133422500Y-89455000D03*
X134125000Y-47845000D03*
X134445000Y-106305000D03*
X135775000Y-72235000D03*
X136035000Y-120545000D03*
X136765000Y-106355000D03*
X137665000Y-106365000D03*
X137798472Y-118095000D03*
X138120000Y-51325000D03*
X138625000Y-106425000D03*
X138655000Y-101945000D03*
X139585000Y-116535000D03*
X140005000Y-120505000D03*
X140305000Y-103705000D03*
X141155000Y-93975000D03*
X141795000Y-107675000D03*
X141825000Y-112945000D03*
X141880000Y-114050000D03*
X142085000Y-115945000D03*
X142275000Y-119335000D03*
X142405000Y-110415000D03*
X142675000Y-106785000D03*
X142915000Y-34755000D03*
X142950000Y-112730000D03*
X142977500Y-70405000D03*
X143575000Y-106145000D03*
X143855000Y-107285000D03*
X144915000Y-88165000D03*
X144955000Y-108285000D03*
X145665000Y-87275000D03*
X145695000Y-108965000D03*
X146565000Y-109615000D03*
X146935000Y-94695000D03*
X147565000Y-109905000D03*
X147865000Y-32270000D03*
X148365000Y-86945000D03*
X148815000Y-108845000D03*
X148985000Y-120675000D03*
X149385000Y-103825000D03*
X150105000Y-112195000D03*
X150165000Y-104625000D03*
X150455000Y-106405000D03*
X150535000Y-91805000D03*
X152395000Y-53595000D03*
X152472500Y-89455000D03*
X152655000Y-93545000D03*
X153205000Y-108495000D03*
X153565000Y-105525000D03*
X154865000Y-72185000D03*
X157055000Y-67935000D03*
X157170000Y-51325000D03*
X161905000Y-34825000D03*
X161995000Y-30105000D03*
X162027500Y-70405000D03*
X166635000Y-91745000D03*
X166655000Y-94695000D03*
X166915000Y-32270000D03*
X168495000Y-103655000D03*
X168855000Y-114705000D03*
X168905000Y-110055000D03*
X170895000Y-120815000D03*
X171522500Y-89455000D03*
X171555000Y-53635000D03*
X171865000Y-47575000D03*
X173095000Y-103605000D03*
X176145000Y-72585000D03*
X176220000Y-51325000D03*
X177545000Y-103835000D03*
X178375000Y-100655000D03*
X181015000Y-34685000D03*
X181077500Y-70405000D03*
X185585000Y-96695000D03*
X185635000Y-91685000D03*
X185965000Y-32270000D03*
X190525000Y-53615000D03*
X190572500Y-89455000D03*
X192765000Y-103925000D03*
X195185000Y-72515000D03*
X195270000Y-51325000D03*
X197992500Y-68385000D03*
X198285000Y-101115000D03*
X199845000Y-30105000D03*
X200015000Y-34685000D03*
X200127500Y-70405000D03*
X202745000Y-120445000D03*
X204735000Y-91615000D03*
X204985000Y-114815000D03*
X204995000Y-47545000D03*
X205015000Y-32270000D03*
X205075000Y-110305000D03*
X206445000Y-105495000D03*
X206585000Y-122705000D03*
X209595000Y-53515000D03*
X209622500Y-89455000D03*
X212375000Y-122695000D03*
X213165000Y-87382500D03*
X214335000Y-51325000D03*
X214345000Y-72515000D03*
X214434999Y-119935000D03*
X215395000Y-106485000D03*
X217145000Y-115845000D03*
X219095000Y-34685000D03*
X219177500Y-70405000D03*
X219985000Y-119965000D03*
X221435000Y-109095000D03*
X221435000Y-112695000D03*
X221855000Y-91305000D03*
X221859265Y-120470735D03*
X222695000Y-106385000D03*
X224065000Y-32270000D03*
X225875000Y-108505000D03*
X228475000Y-86845000D03*
X228595000Y-53515000D03*
X228672500Y-89455000D03*
X229885000Y-47805000D03*
X232545000Y-72685000D03*
X233590000Y-51320000D03*
X234295000Y-67975000D03*
X235785000Y-109445000D03*
X237935000Y-30275000D03*
X238085000Y-34685000D03*
X238255000Y-70405000D03*
X242695000Y-110725000D03*
X242885000Y-114825000D03*
X243075000Y-91635000D03*
X243115000Y-32270000D03*
X244345000Y-120625000D03*
X245475000Y-89565000D03*
X247722500Y-89455000D03*
X247725000Y-53555000D03*
X249035000Y-108475000D03*
X252395000Y-72575000D03*
X252640000Y-51320000D03*
X257155000Y-34635000D03*
X257485000Y-70415000D03*
X261655000Y-47695000D03*
X261995000Y-91755000D03*
X262165000Y-32270000D03*
X266275000Y-88095000D03*
X266535000Y-110625000D03*
X266705000Y-53565000D03*
X266725000Y-114565000D03*
X267695000Y-96775000D03*
X268285000Y-120745000D03*
X271415000Y-72695000D03*
X271690000Y-51320000D03*
X271705000Y-108515000D03*
X275275000Y-77345000D03*
X275625000Y-70985000D03*
X276115000Y-30275000D03*
X276205000Y-34635000D03*
X280265000Y-104305000D03*
X281355000Y-39265000D03*
X283175000Y-89475000D03*
X285715000Y-53585000D03*
X288225000Y-70395000D03*
X290415000Y-114775000D03*
X290465000Y-110675000D03*
X290739293Y-32270707D03*
X292665000Y-89485000D03*
X294435000Y-104955000D03*
X295503207Y-51319293D03*
X295895000Y-108445000D03*
X296620000Y-85270000D03*
X297170000Y-105670000D03*
X297245000Y-70405000D03*
X298235000Y-47675000D03*
X300025000Y-96085000D03*
X300425000Y-32435000D03*
X303945000Y-48595000D03*
X304815000Y-51315000D03*
X304885000Y-76465000D03*
X306235000Y-66815000D03*
X307055000Y-38295000D03*
X307585000Y-108705000D03*
X308515000Y-120295000D03*
X309165000Y-51955000D03*
X312165000Y-30675000D03*
X312655000Y-122245000D03*
X312805000Y-49445000D03*
D12*
%TO.C,J1*%
X43305000Y-31475000D02*
X43305000Y-30875000D01*
X43305000Y-35905000D02*
X43305000Y-34805000D01*
X51945000Y-31475000D02*
X51945000Y-30875000D01*
X51945000Y-35905000D02*
X51945000Y-34805000D01*
D13*
%TO.C,J2*%
X108620000Y-113625000D03*
X111160000Y-113625000D03*
D14*
%TO.C,S1*%
X35560000Y-43180000D03*
%TO.C,S54*%
X37941250Y-119380000D03*
%TO.C,S15*%
X40322500Y-62230000D03*
%TO.C,S1*%
X41910000Y-40640000D03*
%TO.C,S29*%
X42703750Y-81280000D03*
%TO.C,S54*%
X44291250Y-116840000D03*
%TO.C,S15*%
X46672500Y-59690000D03*
%TO.C,S42*%
X47466250Y-100330000D03*
%TO.C,S29*%
X49053750Y-78740000D03*
%TO.C,S42*%
X53816250Y-97790000D03*
%TO.C,S2*%
X54610000Y-43180000D03*
X60960000Y-40640000D03*
%TO.C,S55*%
X61753750Y-119380000D03*
%TO.C,S16*%
X64135000Y-62230000D03*
%TO.C,S55*%
X68103750Y-116840000D03*
%TO.C,S30*%
X68897500Y-81280000D03*
%TO.C,S16*%
X70485000Y-59690000D03*
%TO.C,S3*%
X73660000Y-43180000D03*
%TO.C,S30*%
X75247500Y-78740000D03*
%TO.C,S43*%
X78422500Y-100330000D03*
%TO.C,S3*%
X80010000Y-40640000D03*
%TO.C,S17*%
X83185000Y-62230000D03*
%TO.C,S43*%
X84772500Y-97790000D03*
%TO.C,S56*%
X85566250Y-119380000D03*
%TO.C,S31*%
X87947500Y-81280000D03*
%TO.C,S17*%
X89535000Y-59690000D03*
%TO.C,S56*%
X91916250Y-116840000D03*
%TO.C,S4*%
X92710000Y-43180000D03*
%TO.C,S31*%
X94297500Y-78740000D03*
%TO.C,S44*%
X97472500Y-100330000D03*
%TO.C,S4*%
X99060000Y-40640000D03*
%TO.C,S18*%
X102235000Y-62230000D03*
%TO.C,S44*%
X103822500Y-97790000D03*
%TO.C,S32*%
X106997500Y-81280000D03*
%TO.C,S18*%
X108585000Y-59690000D03*
%TO.C,S5*%
X111760000Y-43180000D03*
%TO.C,S32*%
X113347500Y-78740000D03*
%TO.C,S45*%
X116522500Y-100330000D03*
%TO.C,S5*%
X118110000Y-40640000D03*
%TO.C,S19*%
X121285000Y-62230000D03*
%TO.C,S45*%
X122872500Y-97790000D03*
%TO.C,S33*%
X126047500Y-81280000D03*
%TO.C,S19*%
X127635000Y-59690000D03*
%TO.C,S6*%
X130810000Y-43180000D03*
%TO.C,S33*%
X132397500Y-78740000D03*
%TO.C,S46*%
X135572500Y-100330000D03*
%TO.C,S6*%
X137160000Y-40640000D03*
%TO.C,S20*%
X140335000Y-62230000D03*
%TO.C,S46*%
X141922500Y-97790000D03*
%TO.C,S34*%
X145097500Y-81280000D03*
%TO.C,S20*%
X146685000Y-59690000D03*
%TO.C,S7*%
X149860000Y-43180000D03*
%TO.C,S34*%
X151447500Y-78740000D03*
%TO.C,S47*%
X154622500Y-100330000D03*
%TO.C,S7*%
X156210000Y-40640000D03*
%TO.C,S57*%
X157003750Y-119380000D03*
%TO.C,S21*%
X159385000Y-62230000D03*
%TO.C,S47*%
X160972500Y-97790000D03*
%TO.C,S57*%
X163353750Y-116840000D03*
%TO.C,S35*%
X164147500Y-81280000D03*
%TO.C,S21*%
X165735000Y-59690000D03*
%TO.C,S8*%
X168910000Y-43180000D03*
%TO.C,S35*%
X170497500Y-78740000D03*
%TO.C,S48*%
X173672500Y-100330000D03*
%TO.C,S8*%
X175260000Y-40640000D03*
%TO.C,S22*%
X178435000Y-62230000D03*
%TO.C,S48*%
X180022500Y-97790000D03*
%TO.C,S36*%
X183197500Y-81280000D03*
%TO.C,S22*%
X184785000Y-59690000D03*
%TO.C,S9*%
X187960000Y-43180000D03*
%TO.C,S36*%
X189547500Y-78740000D03*
%TO.C,S49*%
X192722500Y-100330000D03*
%TO.C,S9*%
X194310000Y-40640000D03*
%TO.C,S23*%
X197485000Y-62230000D03*
%TO.C,S49*%
X199072500Y-97790000D03*
%TO.C,S37*%
X202247500Y-81280000D03*
%TO.C,S23*%
X203835000Y-59690000D03*
%TO.C,S10*%
X207010000Y-43180000D03*
%TO.C,S37*%
X208597500Y-78740000D03*
%TO.C,S50*%
X211772500Y-100330000D03*
%TO.C,S10*%
X213360000Y-40640000D03*
%TO.C,S24*%
X216535000Y-62230000D03*
%TO.C,S50*%
X218122500Y-97790000D03*
%TO.C,S38*%
X221297500Y-81280000D03*
%TO.C,S24*%
X222885000Y-59690000D03*
%TO.C,S11*%
X226060000Y-43180000D03*
%TO.C,S38*%
X227647500Y-78740000D03*
%TO.C,S58*%
X228441250Y-119380000D03*
%TO.C,S51*%
X230822500Y-100330000D03*
%TO.C,S11*%
X232410000Y-40640000D03*
%TO.C,S58*%
X234791250Y-116840000D03*
%TO.C,S25*%
X235585000Y-62230000D03*
%TO.C,S51*%
X237172500Y-97790000D03*
%TO.C,S39*%
X240347500Y-81280000D03*
%TO.C,S25*%
X241935000Y-59690000D03*
%TO.C,S12*%
X245110000Y-43180000D03*
%TO.C,S39*%
X246697500Y-78740000D03*
%TO.C,S52*%
X249872500Y-100330000D03*
%TO.C,S12*%
X251460000Y-40640000D03*
%TO.C,S59*%
X252253750Y-119380000D03*
%TO.C,S26*%
X254635000Y-62230000D03*
%TO.C,S52*%
X256222500Y-97790000D03*
%TO.C,S59*%
X258603750Y-116840000D03*
%TO.C,S40*%
X259397500Y-81280000D03*
%TO.C,S26*%
X260985000Y-59690000D03*
%TO.C,S13*%
X264160000Y-43180000D03*
%TO.C,S40*%
X265747500Y-78740000D03*
%TO.C,S13*%
X270510000Y-40640000D03*
%TO.C,S27*%
X273685000Y-62230000D03*
%TO.C,S60*%
X276066250Y-119380000D03*
%TO.C,S27*%
X280035000Y-59690000D03*
%TO.C,S60*%
X282416250Y-116840000D03*
%TO.C,S53*%
X285591250Y-100330000D03*
%TO.C,S41*%
X290353750Y-81280000D03*
%TO.C,S53*%
X291941250Y-97790000D03*
%TO.C,S14*%
X292735000Y-43180000D03*
%TO.C,S41*%
X296703750Y-78740000D03*
%TO.C,S28*%
X297497500Y-62230000D03*
%TO.C,S14*%
X299085000Y-40640000D03*
%TO.C,S61*%
X299878750Y-119380000D03*
%TO.C,S28*%
X303847500Y-59690000D03*
%TO.C,S61*%
X306228750Y-116840000D03*
M02*
