G04 #@! TF.GenerationSoftware,KiCad,Pcbnew,10.0.1*
G04 #@! TF.CreationDate,2026-04-19T19:03:24+08:00*
G04 #@! TF.ProjectId,PH60_Rev3,50483630-5f52-4657-9633-2e6b69636164,rev?*
G04 #@! TF.SameCoordinates,PX1b40518PY1b40518*
G04 #@! TF.FileFunction,Soldermask,Top*
G04 #@! TF.FilePolarity,Negative*
%FSLAX46Y46*%
G04 Gerber Fmt 4.6, Leading zero omitted, Abs format (unit mm)*
G04 Created by KiCad (PCBNEW 10.0.1) date 2026-04-19 19:03:24*
%MOMM*%
%LPD*%
G01*
G04 APERTURE LIST*
%ADD10C,0.000000*%
%ADD11C,1.750000*%
%ADD12C,4.000000*%
%ADD13C,3.600000*%
%ADD14C,3.048000*%
%ADD15C,3.987800*%
%ADD16C,7.000240*%
%ADD17O,9.999980X5.001260*%
%ADD18C,7.001300*%
%ADD19R,1.350000X1.350000*%
%ADD20C,1.350000*%
%ADD21C,0.650000*%
%ADD22O,1.000000X1.600000*%
%ADD23O,1.000000X2.100000*%
G04 APERTURE END LIST*
D10*
G36*
X147169800Y-95067270D02*
G01*
X146605488Y-95067270D01*
X146605488Y-93205075D01*
X147169800Y-93205075D01*
X147169800Y-95067270D01*
G37*
G36*
X161467829Y-95028471D02*
G01*
X160903528Y-95028471D01*
X160903528Y-93148641D01*
X161467829Y-93148641D01*
X161467829Y-95028471D01*
G37*
G36*
X163252438Y-94598200D02*
G01*
X163054937Y-94598200D01*
X163054937Y-94390112D01*
X163252438Y-94390112D01*
X163252438Y-94598200D01*
G37*
G36*
X223424809Y-95028471D02*
G01*
X222832286Y-95028471D01*
X222832286Y-93148641D01*
X223424809Y-93148641D01*
X223424809Y-95028471D01*
G37*
G36*
X228161418Y-95028471D02*
G01*
X227597126Y-95028471D01*
X227597126Y-93148641D01*
X228161418Y-93148641D01*
X228161418Y-95028471D01*
G37*
G36*
X229854334Y-94598200D02*
G01*
X229656812Y-94598200D01*
X229656812Y-94390112D01*
X229854334Y-94390112D01*
X229854334Y-94598200D01*
G37*
G36*
X237684041Y-95028471D02*
G01*
X237119749Y-95028471D01*
X237119749Y-93148641D01*
X237684041Y-93148641D01*
X237684041Y-95028471D01*
G37*
G36*
X239345206Y-94598200D02*
G01*
X239147705Y-94598200D01*
X239147705Y-94390112D01*
X239345206Y-94390112D01*
X239345206Y-94598200D01*
G37*
G36*
X242445342Y-95028471D02*
G01*
X241881050Y-95028471D01*
X241881050Y-93148641D01*
X242445342Y-93148641D01*
X242445342Y-95028471D01*
G37*
G36*
X247217220Y-95028471D02*
G01*
X246652928Y-95028471D01*
X246652928Y-93148641D01*
X247217220Y-93148641D01*
X247217220Y-95028471D01*
G37*
G36*
X248924252Y-94598200D02*
G01*
X248726751Y-94598200D01*
X248726751Y-94390112D01*
X248924252Y-94390112D01*
X248924252Y-94598200D01*
G37*
G36*
X251978542Y-95028471D02*
G01*
X251414250Y-95028471D01*
X251414250Y-93148641D01*
X251978542Y-93148641D01*
X251978542Y-95028471D01*
G37*
G36*
X253615014Y-94598200D02*
G01*
X253417513Y-94598200D01*
X253417513Y-94390112D01*
X253615014Y-94390112D01*
X253615014Y-94598200D01*
G37*
G36*
X256739843Y-95028471D02*
G01*
X256175551Y-95028471D01*
X256175551Y-93148641D01*
X256739843Y-93148641D01*
X256739843Y-95028471D01*
G37*
G36*
X258383393Y-94598200D02*
G01*
X258185892Y-94598200D01*
X258185892Y-94390112D01*
X258383393Y-94390112D01*
X258383393Y-94598200D01*
G37*
G36*
X261501164Y-95028471D02*
G01*
X260936852Y-95028471D01*
X260936852Y-93148641D01*
X261501164Y-93148641D01*
X261501164Y-95028471D01*
G37*
G36*
X280556987Y-95028471D02*
G01*
X279971521Y-95028471D01*
X279971521Y-91945970D01*
X280556987Y-91945970D01*
X280556987Y-95028471D01*
G37*
G36*
X145043083Y-93712943D02*
G01*
X144577522Y-94598200D01*
X144418819Y-94598200D01*
X144394127Y-94559401D01*
X144863207Y-93674155D01*
X144863207Y-93547183D01*
X144235414Y-93547183D01*
X144235414Y-93381412D01*
X145043083Y-93381412D01*
X145043083Y-93712943D01*
G37*
G36*
X230901822Y-93712943D02*
G01*
X230436280Y-94598200D01*
X230277568Y-94598200D01*
X230252875Y-94559401D01*
X230721955Y-93674155D01*
X230721955Y-93547183D01*
X230094183Y-93547183D01*
X230094183Y-93381412D01*
X230901822Y-93381412D01*
X230901822Y-93712943D01*
G37*
G36*
X249975279Y-93712943D02*
G01*
X249509738Y-94598200D01*
X249347486Y-94598200D01*
X249326332Y-94559401D01*
X249795412Y-93674155D01*
X249795412Y-93547183D01*
X249167619Y-93547183D01*
X249167619Y-93381412D01*
X249975279Y-93381412D01*
X249975279Y-93712943D01*
G37*
G36*
X248201247Y-94435958D02*
G01*
X248465769Y-94435958D01*
X248465769Y-94598200D01*
X247728648Y-94598200D01*
X247728648Y-94435958D01*
X248021361Y-94435958D01*
X248021361Y-93547183D01*
X247785071Y-93547183D01*
X247785071Y-93451961D01*
X247876784Y-93381412D01*
X248201247Y-93381412D01*
X248201247Y-94435958D01*
G37*
G36*
X252888491Y-94435958D02*
G01*
X253152992Y-94435958D01*
X253152992Y-94598200D01*
X252415892Y-94598200D01*
X252415892Y-94435958D01*
X252708624Y-94435958D01*
X252708624Y-93547183D01*
X252472315Y-93547183D01*
X252472315Y-93451961D01*
X252564007Y-93381412D01*
X252888491Y-93381412D01*
X252888491Y-94435958D01*
G37*
G36*
X257660389Y-94435958D02*
G01*
X257924890Y-94435958D01*
X257924890Y-94598200D01*
X257187770Y-94598200D01*
X257187770Y-94435958D01*
X257480502Y-94435958D01*
X257480502Y-93547183D01*
X257244213Y-93547183D01*
X257244213Y-93451961D01*
X257335906Y-93381412D01*
X257660389Y-93381412D01*
X257660389Y-94435958D01*
G37*
G36*
X262340575Y-94435958D02*
G01*
X262605096Y-94435958D01*
X262605096Y-94598200D01*
X261867975Y-94598200D01*
X261867975Y-94435958D01*
X262160708Y-94435958D01*
X262160708Y-93547183D01*
X261924398Y-93547183D01*
X261924398Y-93451961D01*
X262016091Y-93381412D01*
X262340575Y-93381412D01*
X262340575Y-94435958D01*
G37*
G36*
X225720825Y-94598189D02*
G01*
X225219995Y-94598189D01*
X225203390Y-94597921D01*
X225187303Y-94597116D01*
X225171734Y-94595775D01*
X225156684Y-94593898D01*
X225142152Y-94591487D01*
X225128141Y-94588542D01*
X225114649Y-94585063D01*
X225101679Y-94581052D01*
X225089231Y-94576508D01*
X225077305Y-94571433D01*
X225065902Y-94565828D01*
X225055022Y-94559692D01*
X225044667Y-94553026D01*
X225034837Y-94545832D01*
X225025533Y-94538109D01*
X225016755Y-94529859D01*
X225008504Y-94521081D01*
X225000780Y-94511778D01*
X224993585Y-94501948D01*
X224986919Y-94491594D01*
X224980782Y-94480715D01*
X224975176Y-94469312D01*
X224970100Y-94457387D01*
X224965556Y-94444938D01*
X224961544Y-94431968D01*
X224958065Y-94418477D01*
X224955119Y-94404465D01*
X224952707Y-94389934D01*
X224950831Y-94374883D01*
X224949489Y-94359313D01*
X224948684Y-94343225D01*
X224948415Y-94326620D01*
X224948415Y-93677674D01*
X224955514Y-93681193D01*
X225124783Y-93681193D01*
X225124783Y-94347784D01*
X225125157Y-94359976D01*
X225125626Y-94365791D01*
X225126284Y-94371418D01*
X225127134Y-94376857D01*
X225128176Y-94382106D01*
X225129412Y-94387166D01*
X225130843Y-94392035D01*
X225132471Y-94396713D01*
X225134296Y-94401199D01*
X225136320Y-94405493D01*
X225138544Y-94409594D01*
X225140969Y-94413501D01*
X225143598Y-94417213D01*
X225146430Y-94420731D01*
X225149468Y-94424053D01*
X225152713Y-94427178D01*
X225156166Y-94430107D01*
X225159828Y-94432838D01*
X225163700Y-94435370D01*
X225167785Y-94437704D01*
X225172082Y-94439838D01*
X225176595Y-94441773D01*
X225181323Y-94443506D01*
X225186268Y-94445037D01*
X225191432Y-94446367D01*
X225196815Y-94447494D01*
X225202419Y-94448417D01*
X225208246Y-94449137D01*
X225214296Y-94449651D01*
X225220571Y-94449960D01*
X225227073Y-94450064D01*
X225551536Y-94450064D01*
X225551536Y-93677674D01*
X225720825Y-93677674D01*
X225720825Y-94598189D01*
G37*
G36*
X232926258Y-94598200D02*
G01*
X232428987Y-94598200D01*
X232432526Y-94601718D01*
X232415922Y-94601450D01*
X232399835Y-94600645D01*
X232384266Y-94599304D01*
X232369215Y-94597427D01*
X232354684Y-94595016D01*
X232340672Y-94592071D01*
X232327181Y-94588592D01*
X232314211Y-94584581D01*
X232301762Y-94580037D01*
X232289836Y-94574962D01*
X232278433Y-94569357D01*
X232267554Y-94563221D01*
X232257199Y-94556555D01*
X232247369Y-94549361D01*
X232238065Y-94541638D01*
X232229287Y-94533388D01*
X232221035Y-94524610D01*
X232213312Y-94515307D01*
X232206117Y-94505477D01*
X232199450Y-94495123D01*
X232193314Y-94484244D01*
X232187707Y-94472841D01*
X232182632Y-94460916D01*
X232178087Y-94448467D01*
X232174075Y-94435497D01*
X232170596Y-94422006D01*
X232167650Y-94407994D01*
X232165239Y-94393463D01*
X232163362Y-94378412D01*
X232162021Y-94362842D01*
X232161215Y-94346754D01*
X232160947Y-94330149D01*
X232160947Y-93681203D01*
X232330236Y-93681203D01*
X232330236Y-94347794D01*
X232330610Y-94359986D01*
X232331079Y-94365801D01*
X232331738Y-94371428D01*
X232332587Y-94376867D01*
X232333630Y-94382117D01*
X232334865Y-94387176D01*
X232336296Y-94392045D01*
X232337924Y-94396723D01*
X232339748Y-94401210D01*
X232341772Y-94405503D01*
X232343996Y-94409604D01*
X232346421Y-94413511D01*
X232349049Y-94417223D01*
X232351881Y-94420741D01*
X232354919Y-94424063D01*
X232358163Y-94427188D01*
X232361615Y-94430117D01*
X232365277Y-94432848D01*
X232369148Y-94435381D01*
X232373232Y-94437714D01*
X232377529Y-94439849D01*
X232382040Y-94441783D01*
X232386767Y-94443516D01*
X232391712Y-94445048D01*
X232396874Y-94446377D01*
X232402256Y-94447504D01*
X232407859Y-94448427D01*
X232413684Y-94449147D01*
X232419733Y-94449661D01*
X232426006Y-94449971D01*
X232432506Y-94450074D01*
X232756969Y-94450074D01*
X232756969Y-93677684D01*
X232926258Y-93677684D01*
X232926258Y-94598200D01*
G37*
G36*
X244730802Y-94598189D02*
G01*
X244229971Y-94598189D01*
X244213367Y-94597921D01*
X244197280Y-94597116D01*
X244181711Y-94595775D01*
X244166660Y-94593898D01*
X244152128Y-94591487D01*
X244138117Y-94588542D01*
X244124625Y-94585063D01*
X244111655Y-94581052D01*
X244099207Y-94576508D01*
X244087281Y-94571433D01*
X244075878Y-94565828D01*
X244064998Y-94559692D01*
X244054643Y-94553026D01*
X244044814Y-94545832D01*
X244035509Y-94538109D01*
X244026731Y-94529859D01*
X244018480Y-94521081D01*
X244010757Y-94511778D01*
X244003561Y-94501948D01*
X243996895Y-94491594D01*
X243990758Y-94480715D01*
X243985152Y-94469312D01*
X243980076Y-94457387D01*
X243975532Y-94444938D01*
X243971520Y-94431968D01*
X243968041Y-94418477D01*
X243965095Y-94404465D01*
X243962684Y-94389934D01*
X243960807Y-94374883D01*
X243959465Y-94359313D01*
X243958660Y-94343225D01*
X243958391Y-94326620D01*
X243958391Y-93677674D01*
X243965490Y-93681193D01*
X244134759Y-93681193D01*
X244134759Y-94347784D01*
X244135133Y-94359976D01*
X244135602Y-94365791D01*
X244136260Y-94371418D01*
X244137110Y-94376857D01*
X244138153Y-94382106D01*
X244139389Y-94387166D01*
X244140820Y-94392035D01*
X244142447Y-94396713D01*
X244144272Y-94401199D01*
X244146296Y-94405493D01*
X244148520Y-94409594D01*
X244150945Y-94413501D01*
X244153574Y-94417213D01*
X244156406Y-94420731D01*
X244159444Y-94424053D01*
X244162689Y-94427178D01*
X244166142Y-94430107D01*
X244169804Y-94432838D01*
X244173676Y-94435370D01*
X244177761Y-94437704D01*
X244182059Y-94439838D01*
X244186571Y-94441773D01*
X244191299Y-94443506D01*
X244196244Y-94445037D01*
X244201408Y-94446367D01*
X244206791Y-94447494D01*
X244212395Y-94448417D01*
X244218222Y-94449137D01*
X244224272Y-94449651D01*
X244230548Y-94449960D01*
X244237049Y-94450064D01*
X244561512Y-94450064D01*
X244561512Y-93677674D01*
X244730802Y-93677674D01*
X244730802Y-94598189D01*
G37*
G36*
X255667683Y-94598189D02*
G01*
X255170391Y-94598189D01*
X255153787Y-94597921D01*
X255137700Y-94597116D01*
X255122131Y-94595775D01*
X255107080Y-94593898D01*
X255092549Y-94591487D01*
X255078537Y-94588542D01*
X255065046Y-94585063D01*
X255052075Y-94581052D01*
X255039627Y-94576508D01*
X255027701Y-94571433D01*
X255016298Y-94565828D01*
X255005419Y-94559692D01*
X254995064Y-94553026D01*
X254985234Y-94545832D01*
X254975929Y-94538109D01*
X254967151Y-94529859D01*
X254958900Y-94521081D01*
X254951177Y-94511778D01*
X254943982Y-94501948D01*
X254937315Y-94491594D01*
X254931178Y-94480715D01*
X254925572Y-94469312D01*
X254920496Y-94457387D01*
X254915952Y-94444938D01*
X254911940Y-94431968D01*
X254908461Y-94418477D01*
X254905515Y-94404465D01*
X254903104Y-94389934D01*
X254901227Y-94374883D01*
X254899885Y-94359313D01*
X254899080Y-94343225D01*
X254898812Y-94326620D01*
X254898812Y-93677674D01*
X254902371Y-93681193D01*
X255071661Y-93681193D01*
X255071661Y-94347784D01*
X255072034Y-94359976D01*
X255072503Y-94365791D01*
X255073162Y-94371418D01*
X255074012Y-94376857D01*
X255075054Y-94382106D01*
X255076290Y-94387166D01*
X255077721Y-94392035D01*
X255079348Y-94396713D01*
X255081173Y-94401199D01*
X255083196Y-94405493D01*
X255085420Y-94409594D01*
X255087845Y-94413501D01*
X255090473Y-94417213D01*
X255093306Y-94420731D01*
X255096343Y-94424053D01*
X255099587Y-94427178D01*
X255103039Y-94430107D01*
X255106701Y-94432838D01*
X255110573Y-94435370D01*
X255114656Y-94437704D01*
X255118953Y-94439838D01*
X255123465Y-94441773D01*
X255128192Y-94443506D01*
X255133136Y-94445037D01*
X255138298Y-94446367D01*
X255143680Y-94447494D01*
X255149283Y-94448417D01*
X255155108Y-94449137D01*
X255161157Y-94449651D01*
X255167430Y-94449960D01*
X255173930Y-94450064D01*
X255498393Y-94450064D01*
X255498393Y-93677674D01*
X255667683Y-93677674D01*
X255667683Y-94598189D01*
G37*
G36*
X263631410Y-94598189D02*
G01*
X263134138Y-94598189D01*
X263117532Y-94597921D01*
X263101444Y-94597116D01*
X263085873Y-94595775D01*
X263070822Y-94593898D01*
X263056289Y-94591487D01*
X263042277Y-94588542D01*
X263028785Y-94585063D01*
X263015814Y-94581052D01*
X263003366Y-94576508D01*
X262991439Y-94571433D01*
X262980036Y-94565828D01*
X262969157Y-94559692D01*
X262958802Y-94553026D01*
X262948973Y-94545832D01*
X262939669Y-94538109D01*
X262930891Y-94529859D01*
X262922641Y-94521081D01*
X262914918Y-94511778D01*
X262907723Y-94501948D01*
X262901057Y-94491594D01*
X262894921Y-94480715D01*
X262889315Y-94469312D01*
X262884240Y-94457387D01*
X262879697Y-94444938D01*
X262875685Y-94431968D01*
X262872207Y-94418477D01*
X262869261Y-94404465D01*
X262866850Y-94389934D01*
X262864974Y-94374883D01*
X262863633Y-94359313D01*
X262862828Y-94343225D01*
X262862559Y-94326620D01*
X262862559Y-93677674D01*
X262866098Y-93681193D01*
X263035388Y-93681193D01*
X263035388Y-94347784D01*
X263035761Y-94359976D01*
X263036230Y-94365791D01*
X263036889Y-94371418D01*
X263037739Y-94376857D01*
X263038781Y-94382106D01*
X263040017Y-94387166D01*
X263041448Y-94392035D01*
X263043075Y-94396713D01*
X263044900Y-94401199D01*
X263046923Y-94405493D01*
X263049147Y-94409594D01*
X263051573Y-94413501D01*
X263054201Y-94417213D01*
X263057033Y-94420731D01*
X263060070Y-94424053D01*
X263063314Y-94427178D01*
X263066767Y-94430107D01*
X263070428Y-94432838D01*
X263074300Y-94435370D01*
X263078384Y-94437704D01*
X263082680Y-94439838D01*
X263087192Y-94441773D01*
X263091919Y-94443506D01*
X263096863Y-94445037D01*
X263102025Y-94446367D01*
X263107407Y-94447494D01*
X263113010Y-94448417D01*
X263118835Y-94449137D01*
X263124884Y-94449651D01*
X263131158Y-94449960D01*
X263137657Y-94450064D01*
X263462120Y-94450064D01*
X263462120Y-93677674D01*
X263631410Y-93677674D01*
X263631410Y-94598189D01*
G37*
G36*
X282620232Y-94598189D02*
G01*
X282119422Y-94598189D01*
X282102816Y-94597921D01*
X282086727Y-94597116D01*
X282071157Y-94595775D01*
X282056105Y-94593898D01*
X282041573Y-94591487D01*
X282027560Y-94588542D01*
X282014068Y-94585063D01*
X282001098Y-94581052D01*
X281988649Y-94576508D01*
X281976723Y-94571433D01*
X281965320Y-94565828D01*
X281954441Y-94559692D01*
X281944086Y-94553026D01*
X281934256Y-94545832D01*
X281924952Y-94538109D01*
X281916175Y-94529859D01*
X281907924Y-94521081D01*
X281900201Y-94511778D01*
X281893006Y-94501948D01*
X281886341Y-94491594D01*
X281880205Y-94480715D01*
X281874599Y-94469312D01*
X281869524Y-94457387D01*
X281864980Y-94444938D01*
X281860969Y-94431968D01*
X281857490Y-94418477D01*
X281854545Y-94404465D01*
X281852134Y-94389934D01*
X281850257Y-94374883D01*
X281848916Y-94359313D01*
X281848111Y-94343225D01*
X281847842Y-94326620D01*
X281847842Y-93677674D01*
X281854921Y-93681193D01*
X282024210Y-93681193D01*
X282024210Y-94347784D01*
X282024584Y-94359976D01*
X282025053Y-94365791D01*
X282025711Y-94371418D01*
X282026561Y-94376857D01*
X282027604Y-94382106D01*
X282028839Y-94387166D01*
X282030270Y-94392035D01*
X282031898Y-94396713D01*
X282033722Y-94401199D01*
X282035746Y-94405493D01*
X282037970Y-94409594D01*
X282040395Y-94413501D01*
X282043023Y-94417213D01*
X282045855Y-94420731D01*
X282048893Y-94424053D01*
X282052137Y-94427178D01*
X282055589Y-94430107D01*
X282059251Y-94432838D01*
X282063122Y-94435370D01*
X282067206Y-94437704D01*
X282071503Y-94439838D01*
X282076014Y-94441773D01*
X282080741Y-94443506D01*
X282085686Y-94445037D01*
X282090848Y-94446367D01*
X282096230Y-94447494D01*
X282101833Y-94448417D01*
X282107658Y-94449137D01*
X282113707Y-94449651D01*
X282119980Y-94449960D01*
X282126480Y-94450064D01*
X282450943Y-94450064D01*
X282450943Y-93677674D01*
X282620232Y-93677674D01*
X282620232Y-94598189D01*
G37*
G36*
X146048234Y-94598189D02*
G01*
X145550942Y-94598189D01*
X145534338Y-94597921D01*
X145518251Y-94597116D01*
X145502682Y-94595775D01*
X145487631Y-94593898D01*
X145473100Y-94591487D01*
X145459089Y-94588542D01*
X145445598Y-94585063D01*
X145432628Y-94581052D01*
X145420180Y-94576508D01*
X145408254Y-94571433D01*
X145396852Y-94565828D01*
X145385973Y-94559692D01*
X145375618Y-94553026D01*
X145365789Y-94545832D01*
X145356485Y-94538109D01*
X145347707Y-94529859D01*
X145339457Y-94521081D01*
X145331734Y-94511778D01*
X145324539Y-94501948D01*
X145317873Y-94491594D01*
X145311737Y-94480715D01*
X145306131Y-94469312D01*
X145301055Y-94457387D01*
X145296512Y-94444938D01*
X145292500Y-94431968D01*
X145289021Y-94418477D01*
X145286076Y-94404465D01*
X145283664Y-94389934D01*
X145281788Y-94374883D01*
X145280446Y-94359313D01*
X145279641Y-94343225D01*
X145279373Y-94326620D01*
X145279373Y-93677674D01*
X145280254Y-93678553D01*
X145281131Y-93679433D01*
X145282881Y-93681193D01*
X145452181Y-93681193D01*
X145452181Y-94347784D01*
X145452555Y-94359976D01*
X145453024Y-94365791D01*
X145453683Y-94371418D01*
X145454533Y-94376857D01*
X145455575Y-94382106D01*
X145456811Y-94387166D01*
X145458243Y-94392035D01*
X145459870Y-94396713D01*
X145461695Y-94401199D01*
X145463719Y-94405493D01*
X145465944Y-94409594D01*
X145468370Y-94413501D01*
X145470998Y-94417213D01*
X145473831Y-94420731D01*
X145476869Y-94424053D01*
X145480113Y-94427178D01*
X145483566Y-94430107D01*
X145487228Y-94432838D01*
X145491100Y-94435370D01*
X145495184Y-94437704D01*
X145499482Y-94439838D01*
X145503993Y-94441773D01*
X145508721Y-94443506D01*
X145513665Y-94445037D01*
X145518828Y-94446367D01*
X145524210Y-94447494D01*
X145529813Y-94448417D01*
X145535639Y-94449137D01*
X145541687Y-94449651D01*
X145547961Y-94449960D01*
X145554461Y-94450064D01*
X145878944Y-94450064D01*
X145878944Y-93677674D01*
X146048234Y-93677674D01*
X146048234Y-94598189D01*
G37*
G36*
X166324362Y-94598189D02*
G01*
X165827071Y-94598189D01*
X165810467Y-94597921D01*
X165794380Y-94597116D01*
X165778811Y-94595775D01*
X165763760Y-94593898D01*
X165749229Y-94591487D01*
X165735218Y-94588542D01*
X165721727Y-94585063D01*
X165708757Y-94581052D01*
X165696309Y-94576508D01*
X165684383Y-94571433D01*
X165672980Y-94565828D01*
X165662102Y-94559692D01*
X165651747Y-94553026D01*
X165641918Y-94545832D01*
X165632614Y-94538109D01*
X165623836Y-94529859D01*
X165615586Y-94521081D01*
X165607863Y-94511778D01*
X165600668Y-94501948D01*
X165594002Y-94491594D01*
X165587866Y-94480715D01*
X165582260Y-94469312D01*
X165577184Y-94457387D01*
X165572640Y-94444938D01*
X165568629Y-94431968D01*
X165565150Y-94418477D01*
X165562205Y-94404465D01*
X165559793Y-94389934D01*
X165557917Y-94374883D01*
X165556575Y-94359313D01*
X165555770Y-94343225D01*
X165555502Y-94326620D01*
X165555502Y-93677674D01*
X165556383Y-93678553D01*
X165557260Y-93679433D01*
X165559010Y-93681193D01*
X165728310Y-93681193D01*
X165728310Y-94347784D01*
X165728684Y-94359976D01*
X165729153Y-94365791D01*
X165729811Y-94371418D01*
X165730662Y-94376857D01*
X165731704Y-94382106D01*
X165732940Y-94387166D01*
X165734371Y-94392035D01*
X165735999Y-94396713D01*
X165737824Y-94401199D01*
X165739848Y-94405493D01*
X165742073Y-94409594D01*
X165744498Y-94413501D01*
X165747127Y-94417213D01*
X165749960Y-94420731D01*
X165752998Y-94424053D01*
X165756242Y-94427178D01*
X165759695Y-94430107D01*
X165763357Y-94432838D01*
X165767229Y-94435370D01*
X165771313Y-94437704D01*
X165775610Y-94439838D01*
X165780122Y-94441773D01*
X165784850Y-94443506D01*
X165789794Y-94445037D01*
X165794957Y-94446367D01*
X165800339Y-94447494D01*
X165805942Y-94448417D01*
X165811767Y-94449137D01*
X165817816Y-94449651D01*
X165824090Y-94449960D01*
X165830589Y-94450064D01*
X166155073Y-94450064D01*
X166155073Y-93677674D01*
X166324362Y-93677674D01*
X166324362Y-94598189D01*
G37*
G36*
X241362605Y-93543654D02*
G01*
X240787716Y-93543654D01*
X240787716Y-93864598D01*
X241136892Y-93864598D01*
X241170822Y-93865674D01*
X241186952Y-93867019D01*
X241202526Y-93868904D01*
X241217545Y-93871328D01*
X241232009Y-93874293D01*
X241245919Y-93877799D01*
X241259276Y-93881847D01*
X241272081Y-93886438D01*
X241284333Y-93891571D01*
X241296034Y-93897249D01*
X241307184Y-93903471D01*
X241317784Y-93910238D01*
X241327835Y-93917550D01*
X241337336Y-93925409D01*
X241346290Y-93933815D01*
X241354696Y-93942768D01*
X241362555Y-93952270D01*
X241369867Y-93962321D01*
X241376634Y-93972921D01*
X241382856Y-93984072D01*
X241388534Y-93995773D01*
X241393668Y-94008026D01*
X241398259Y-94020831D01*
X241402307Y-94034189D01*
X241405813Y-94048100D01*
X241408779Y-94062565D01*
X241411203Y-94077585D01*
X241413088Y-94093160D01*
X241414434Y-94109292D01*
X241415509Y-94143225D01*
X241415509Y-94319573D01*
X241414434Y-94353506D01*
X241413089Y-94369637D01*
X241411204Y-94385213D01*
X241408780Y-94400233D01*
X241405815Y-94414698D01*
X241402309Y-94428609D01*
X241398262Y-94441967D01*
X241393671Y-94454772D01*
X241388538Y-94467025D01*
X241382861Y-94478726D01*
X241376640Y-94489876D01*
X241369873Y-94500477D01*
X241362561Y-94510527D01*
X241354703Y-94520029D01*
X241346297Y-94528983D01*
X241337344Y-94537389D01*
X241327843Y-94545248D01*
X241317793Y-94552560D01*
X241307193Y-94559327D01*
X241296043Y-94565549D01*
X241284342Y-94571226D01*
X241272090Y-94576360D01*
X241259285Y-94580950D01*
X241245928Y-94584998D01*
X241232017Y-94588505D01*
X241217552Y-94591470D01*
X241202532Y-94593894D01*
X241186957Y-94595779D01*
X241170826Y-94597124D01*
X241136892Y-94598200D01*
X240681928Y-94598200D01*
X240590215Y-94527661D01*
X240590215Y-94435958D01*
X241133353Y-94435958D01*
X241133353Y-94432429D01*
X241145507Y-94432056D01*
X241151276Y-94431589D01*
X241156839Y-94430934D01*
X241162199Y-94430091D01*
X241167355Y-94429058D01*
X241172309Y-94427835D01*
X241177060Y-94426422D01*
X241181610Y-94424818D01*
X241185959Y-94423022D01*
X241190108Y-94421033D01*
X241194057Y-94418852D01*
X241197807Y-94416476D01*
X241201359Y-94413907D01*
X241204714Y-94411142D01*
X241207871Y-94408181D01*
X241210832Y-94405024D01*
X241213598Y-94401670D01*
X241216168Y-94398119D01*
X241218544Y-94394369D01*
X241220726Y-94390420D01*
X241222715Y-94386272D01*
X241224511Y-94381923D01*
X241226116Y-94377374D01*
X241227529Y-94372623D01*
X241228752Y-94367669D01*
X241229785Y-94362513D01*
X241230629Y-94357154D01*
X241231284Y-94351590D01*
X241231751Y-94345822D01*
X241232124Y-94333668D01*
X241232124Y-94125590D01*
X241231751Y-94113437D01*
X241231284Y-94107668D01*
X241230629Y-94102105D01*
X241229785Y-94096745D01*
X241228752Y-94091589D01*
X241227529Y-94086636D01*
X241226116Y-94081885D01*
X241224511Y-94077335D01*
X241222715Y-94072987D01*
X241220726Y-94068838D01*
X241218544Y-94064890D01*
X241216168Y-94061140D01*
X241213598Y-94057588D01*
X241210832Y-94054234D01*
X241207871Y-94051077D01*
X241204714Y-94048117D01*
X241201359Y-94045352D01*
X241197807Y-94042782D01*
X241194057Y-94040407D01*
X241190108Y-94038225D01*
X241185959Y-94036237D01*
X241181610Y-94034441D01*
X241177060Y-94032836D01*
X241172309Y-94031423D01*
X241167355Y-94030201D01*
X241162199Y-94029168D01*
X241156839Y-94028324D01*
X241151276Y-94027669D01*
X241145507Y-94027202D01*
X241133353Y-94026830D01*
X240607850Y-94026830D01*
X240607850Y-93381412D01*
X241362605Y-93381412D01*
X241362605Y-93543654D01*
G37*
G36*
X260400793Y-93543654D02*
G01*
X259825904Y-93543654D01*
X259825904Y-93864598D01*
X260175060Y-93864598D01*
X260208993Y-93865674D01*
X260225124Y-93867019D01*
X260240699Y-93868904D01*
X260255719Y-93871328D01*
X260270184Y-93874293D01*
X260284095Y-93877799D01*
X260297452Y-93881847D01*
X260310257Y-93886438D01*
X260322509Y-93891571D01*
X260334210Y-93897249D01*
X260345360Y-93903471D01*
X260355960Y-93910238D01*
X260366010Y-93917550D01*
X260375512Y-93925409D01*
X260384465Y-93933815D01*
X260392870Y-93942768D01*
X260400729Y-93952270D01*
X260408041Y-93962321D01*
X260414807Y-93972921D01*
X260421029Y-93984072D01*
X260426705Y-93995773D01*
X260431839Y-94008026D01*
X260436429Y-94020831D01*
X260440477Y-94034189D01*
X260443983Y-94048100D01*
X260446947Y-94062565D01*
X260449372Y-94077585D01*
X260451256Y-94093160D01*
X260452601Y-94109292D01*
X260453677Y-94143225D01*
X260453677Y-94319573D01*
X260452601Y-94353506D01*
X260451256Y-94369637D01*
X260449372Y-94385213D01*
X260446949Y-94400233D01*
X260443984Y-94414698D01*
X260440479Y-94428609D01*
X260436432Y-94441967D01*
X260431842Y-94454772D01*
X260426710Y-94467025D01*
X260421033Y-94478726D01*
X260414812Y-94489876D01*
X260408047Y-94500477D01*
X260400735Y-94510527D01*
X260392877Y-94520029D01*
X260384472Y-94528983D01*
X260375520Y-94537389D01*
X260366019Y-94545248D01*
X260355969Y-94552560D01*
X260345369Y-94559327D01*
X260334219Y-94565549D01*
X260322518Y-94571226D01*
X260310266Y-94576360D01*
X260297461Y-94580950D01*
X260284103Y-94584998D01*
X260270192Y-94588505D01*
X260255726Y-94591470D01*
X260240705Y-94593894D01*
X260225129Y-94595779D01*
X260208996Y-94597124D01*
X260175060Y-94598200D01*
X259720095Y-94598200D01*
X259628403Y-94527661D01*
X259628403Y-94435958D01*
X260171521Y-94435958D01*
X260171521Y-94432429D01*
X260183674Y-94432056D01*
X260189443Y-94431589D01*
X260195007Y-94430934D01*
X260200366Y-94430091D01*
X260205523Y-94429058D01*
X260210476Y-94427835D01*
X260215228Y-94426422D01*
X260219778Y-94424818D01*
X260224127Y-94423022D01*
X260228275Y-94421033D01*
X260232225Y-94418852D01*
X260235975Y-94416476D01*
X260239527Y-94413907D01*
X260242881Y-94411142D01*
X260246039Y-94408181D01*
X260249000Y-94405024D01*
X260251765Y-94401670D01*
X260254335Y-94398119D01*
X260256711Y-94394369D01*
X260258893Y-94390420D01*
X260260882Y-94386272D01*
X260262679Y-94381923D01*
X260264283Y-94377374D01*
X260265697Y-94372623D01*
X260266920Y-94367669D01*
X260267953Y-94362513D01*
X260268796Y-94357154D01*
X260269451Y-94351590D01*
X260269918Y-94345822D01*
X260270291Y-94333668D01*
X260270291Y-94125590D01*
X260269918Y-94113437D01*
X260269451Y-94107668D01*
X260268796Y-94102105D01*
X260267953Y-94096745D01*
X260266920Y-94091589D01*
X260265697Y-94086636D01*
X260264283Y-94081885D01*
X260262679Y-94077335D01*
X260260882Y-94072987D01*
X260258893Y-94068838D01*
X260256711Y-94064890D01*
X260254335Y-94061140D01*
X260251765Y-94057588D01*
X260249000Y-94054234D01*
X260246039Y-94051077D01*
X260242881Y-94048117D01*
X260239527Y-94045352D01*
X260235975Y-94042782D01*
X260232225Y-94040407D01*
X260228275Y-94038225D01*
X260224127Y-94036237D01*
X260219778Y-94034441D01*
X260215228Y-94032836D01*
X260210476Y-94031423D01*
X260205523Y-94030201D01*
X260200366Y-94029168D01*
X260195007Y-94028324D01*
X260189443Y-94027669D01*
X260183674Y-94027202D01*
X260171521Y-94026830D01*
X259646017Y-94026830D01*
X259646017Y-93381412D01*
X260400793Y-93381412D01*
X260400793Y-93543654D01*
G37*
G36*
X165269837Y-93543654D02*
G01*
X164694948Y-93543654D01*
X164694948Y-93864598D01*
X165044114Y-93864598D01*
X165078047Y-93865674D01*
X165094179Y-93867019D01*
X165109754Y-93868904D01*
X165124774Y-93871328D01*
X165139239Y-93874293D01*
X165153150Y-93877799D01*
X165166508Y-93881847D01*
X165179313Y-93886438D01*
X165191566Y-93891571D01*
X165203267Y-93897249D01*
X165214418Y-93903471D01*
X165225018Y-93910238D01*
X165235069Y-93917550D01*
X165244571Y-93925409D01*
X165253524Y-93933815D01*
X165261930Y-93942768D01*
X165269789Y-93952270D01*
X165277102Y-93962321D01*
X165283868Y-93972921D01*
X165290090Y-93984072D01*
X165295768Y-93995773D01*
X165300901Y-94008026D01*
X165305492Y-94020831D01*
X165309540Y-94034189D01*
X165313046Y-94048100D01*
X165316011Y-94062565D01*
X165318436Y-94077585D01*
X165320320Y-94093160D01*
X165321666Y-94109292D01*
X165322741Y-94143225D01*
X165322741Y-94319573D01*
X165322462Y-94336818D01*
X165321627Y-94353506D01*
X165320236Y-94369637D01*
X165318291Y-94385213D01*
X165315793Y-94400233D01*
X165312744Y-94414698D01*
X165309144Y-94428609D01*
X165304996Y-94441967D01*
X165300299Y-94454772D01*
X165295057Y-94467025D01*
X165289269Y-94478726D01*
X165282938Y-94489876D01*
X165276064Y-94500477D01*
X165268649Y-94510527D01*
X165260694Y-94520029D01*
X165252201Y-94528983D01*
X165243170Y-94537389D01*
X165233603Y-94545248D01*
X165223502Y-94552560D01*
X165212867Y-94559327D01*
X165201700Y-94565549D01*
X165190002Y-94571226D01*
X165177775Y-94576360D01*
X165165019Y-94580950D01*
X165151737Y-94584998D01*
X165137929Y-94588505D01*
X165123596Y-94591470D01*
X165108741Y-94593894D01*
X165093364Y-94595779D01*
X165077466Y-94597124D01*
X165044114Y-94598200D01*
X164589140Y-94598200D01*
X164497437Y-94527661D01*
X164497437Y-94435958D01*
X165040585Y-94435958D01*
X165040585Y-94432429D01*
X165052737Y-94432056D01*
X165058505Y-94431589D01*
X165064068Y-94430934D01*
X165069426Y-94430091D01*
X165074582Y-94429058D01*
X165079534Y-94427835D01*
X165084285Y-94426422D01*
X165088834Y-94424818D01*
X165093182Y-94423022D01*
X165097330Y-94421033D01*
X165101278Y-94418852D01*
X165105028Y-94416476D01*
X165108579Y-94413907D01*
X165111932Y-94411142D01*
X165115089Y-94408181D01*
X165118049Y-94405024D01*
X165120814Y-94401670D01*
X165123384Y-94398119D01*
X165125759Y-94394369D01*
X165127941Y-94390420D01*
X165129929Y-94386272D01*
X165131725Y-94381923D01*
X165133329Y-94377374D01*
X165134742Y-94372623D01*
X165135965Y-94367669D01*
X165136997Y-94362513D01*
X165137841Y-94357154D01*
X165138496Y-94351590D01*
X165138963Y-94345822D01*
X165139336Y-94333668D01*
X165139336Y-94125590D01*
X165138963Y-94113437D01*
X165138496Y-94107668D01*
X165137841Y-94102105D01*
X165136997Y-94096745D01*
X165135965Y-94091589D01*
X165134742Y-94086636D01*
X165133329Y-94081885D01*
X165131725Y-94077335D01*
X165129929Y-94072987D01*
X165127941Y-94068838D01*
X165125759Y-94064890D01*
X165123384Y-94061140D01*
X165120814Y-94057588D01*
X165118049Y-94054234D01*
X165115089Y-94051077D01*
X165111932Y-94048117D01*
X165108579Y-94045352D01*
X165105028Y-94042782D01*
X165101278Y-94040407D01*
X165097330Y-94038225D01*
X165093182Y-94036237D01*
X165088834Y-94034441D01*
X165084285Y-94032836D01*
X165079534Y-94031423D01*
X165074582Y-94030201D01*
X165069426Y-94029168D01*
X165064068Y-94028324D01*
X165058505Y-94027669D01*
X165052737Y-94027202D01*
X165040585Y-94026830D01*
X164515082Y-94026830D01*
X164515082Y-93381412D01*
X165269837Y-93381412D01*
X165269837Y-93543654D01*
G37*
G36*
X231868194Y-93543654D02*
G01*
X231293305Y-93543654D01*
X231293305Y-93864598D01*
X231642461Y-93864598D01*
X231676394Y-93865674D01*
X231692525Y-93867019D01*
X231708100Y-93868904D01*
X231723120Y-93871328D01*
X231737585Y-93874293D01*
X231751496Y-93877799D01*
X231764853Y-93881847D01*
X231777658Y-93886438D01*
X231789910Y-93891571D01*
X231801611Y-93897249D01*
X231812761Y-93903471D01*
X231823361Y-93910238D01*
X231833411Y-93917550D01*
X231842913Y-93925409D01*
X231851866Y-93933815D01*
X231860271Y-93942768D01*
X231868130Y-93952270D01*
X231875442Y-93962321D01*
X231882208Y-93972921D01*
X231888430Y-93984072D01*
X231894107Y-93995773D01*
X231899240Y-94008026D01*
X231903830Y-94020831D01*
X231907878Y-94034189D01*
X231911384Y-94048100D01*
X231914348Y-94062565D01*
X231916773Y-94077585D01*
X231918657Y-94093160D01*
X231920002Y-94109292D01*
X231921078Y-94143225D01*
X231921078Y-94319573D01*
X231920799Y-94336818D01*
X231919964Y-94353506D01*
X231918573Y-94369637D01*
X231916628Y-94385213D01*
X231914131Y-94400233D01*
X231911082Y-94414698D01*
X231907483Y-94428609D01*
X231903335Y-94441967D01*
X231898640Y-94454772D01*
X231893398Y-94467025D01*
X231887611Y-94478726D01*
X231881280Y-94489876D01*
X231874407Y-94500477D01*
X231866993Y-94510527D01*
X231859039Y-94520029D01*
X231850546Y-94528983D01*
X231841516Y-94537389D01*
X231831950Y-94545248D01*
X231821849Y-94552560D01*
X231811215Y-94559327D01*
X231800048Y-94565549D01*
X231788351Y-94571226D01*
X231776124Y-94576360D01*
X231763369Y-94580950D01*
X231750086Y-94584998D01*
X231736278Y-94588505D01*
X231721946Y-94591470D01*
X231707090Y-94593894D01*
X231691712Y-94595779D01*
X231675814Y-94597124D01*
X231642461Y-94598200D01*
X231642461Y-94594671D01*
X231187496Y-94594671D01*
X231095804Y-94524132D01*
X231095804Y-94432429D01*
X231638942Y-94432429D01*
X231651092Y-94432056D01*
X231656859Y-94431589D01*
X231662421Y-94430934D01*
X231667780Y-94430091D01*
X231672935Y-94429058D01*
X231677887Y-94427835D01*
X231682637Y-94426422D01*
X231687186Y-94424818D01*
X231691534Y-94423022D01*
X231695682Y-94421033D01*
X231699631Y-94418852D01*
X231703380Y-94416476D01*
X231706931Y-94413907D01*
X231710285Y-94411142D01*
X231713442Y-94408181D01*
X231716403Y-94405024D01*
X231719168Y-94401670D01*
X231721738Y-94398119D01*
X231724113Y-94394369D01*
X231726295Y-94390420D01*
X231728284Y-94386272D01*
X231730080Y-94381923D01*
X231731685Y-94377374D01*
X231733098Y-94372623D01*
X231734321Y-94367669D01*
X231735354Y-94362513D01*
X231736197Y-94357154D01*
X231736852Y-94351590D01*
X231737320Y-94345822D01*
X231737692Y-94333668D01*
X231737692Y-94125590D01*
X231737320Y-94113437D01*
X231736852Y-94107668D01*
X231736197Y-94102105D01*
X231735354Y-94096745D01*
X231734321Y-94091589D01*
X231733098Y-94086636D01*
X231731685Y-94081885D01*
X231730080Y-94077335D01*
X231728284Y-94072987D01*
X231726295Y-94068838D01*
X231724113Y-94064890D01*
X231721738Y-94061140D01*
X231719168Y-94057588D01*
X231716403Y-94054234D01*
X231713442Y-94051077D01*
X231710285Y-94048117D01*
X231706931Y-94045352D01*
X231703380Y-94042782D01*
X231699631Y-94040407D01*
X231695682Y-94038225D01*
X231691534Y-94036237D01*
X231687186Y-94034441D01*
X231682637Y-94032836D01*
X231677887Y-94031423D01*
X231672935Y-94030201D01*
X231667780Y-94029168D01*
X231662421Y-94028324D01*
X231656859Y-94027669D01*
X231651092Y-94027202D01*
X231638942Y-94026830D01*
X231113439Y-94026830D01*
X231113439Y-93381412D01*
X231868194Y-93381412D01*
X231868194Y-93543654D01*
G37*
G36*
X250941651Y-93543654D02*
G01*
X250366762Y-93543654D01*
X250366762Y-93864598D01*
X250715918Y-93864598D01*
X250749851Y-93865674D01*
X250765982Y-93867019D01*
X250781557Y-93868904D01*
X250796577Y-93871328D01*
X250811042Y-93874293D01*
X250824953Y-93877799D01*
X250838310Y-93881847D01*
X250851115Y-93886438D01*
X250863368Y-93891571D01*
X250875068Y-93897249D01*
X250886218Y-93903471D01*
X250896818Y-93910238D01*
X250906869Y-93917550D01*
X250916370Y-93925409D01*
X250925323Y-93933815D01*
X250933728Y-93942768D01*
X250941587Y-93952270D01*
X250948899Y-93962321D01*
X250955665Y-93972921D01*
X250961887Y-93984072D01*
X250967564Y-93995773D01*
X250972697Y-94008026D01*
X250977287Y-94020831D01*
X250981335Y-94034189D01*
X250984841Y-94048100D01*
X250987806Y-94062565D01*
X250990230Y-94077585D01*
X250992114Y-94093160D01*
X250993459Y-94109292D01*
X250994535Y-94143225D01*
X250994535Y-94319573D01*
X250994256Y-94336818D01*
X250993421Y-94353506D01*
X250992030Y-94369637D01*
X250990085Y-94385213D01*
X250987588Y-94400233D01*
X250984539Y-94414698D01*
X250980940Y-94428609D01*
X250976792Y-94441967D01*
X250972097Y-94454772D01*
X250966855Y-94467025D01*
X250961068Y-94478726D01*
X250954738Y-94489876D01*
X250947864Y-94500477D01*
X250940450Y-94510527D01*
X250932496Y-94520029D01*
X250924003Y-94528983D01*
X250914973Y-94537389D01*
X250905407Y-94545248D01*
X250895306Y-94552560D01*
X250884672Y-94559327D01*
X250873506Y-94565549D01*
X250861808Y-94571226D01*
X250849581Y-94576360D01*
X250836826Y-94580950D01*
X250823544Y-94584998D01*
X250809736Y-94588505D01*
X250795403Y-94591470D01*
X250780547Y-94593894D01*
X250765169Y-94595779D01*
X250749271Y-94597124D01*
X250715918Y-94598200D01*
X250260954Y-94598200D01*
X250169261Y-94527661D01*
X250169261Y-94435958D01*
X250712399Y-94435958D01*
X250712399Y-94432429D01*
X250724549Y-94432056D01*
X250730316Y-94431589D01*
X250735879Y-94430934D01*
X250741237Y-94430091D01*
X250746392Y-94429058D01*
X250751344Y-94427835D01*
X250756094Y-94426422D01*
X250760643Y-94424818D01*
X250764991Y-94423022D01*
X250769139Y-94421033D01*
X250773088Y-94418852D01*
X250776837Y-94416476D01*
X250780389Y-94413907D01*
X250783742Y-94411142D01*
X250786899Y-94408181D01*
X250789860Y-94405024D01*
X250792625Y-94401670D01*
X250795195Y-94398119D01*
X250797570Y-94394369D01*
X250799752Y-94390420D01*
X250801741Y-94386272D01*
X250803537Y-94381923D01*
X250805142Y-94377374D01*
X250806555Y-94372623D01*
X250807778Y-94367669D01*
X250808811Y-94362513D01*
X250809654Y-94357154D01*
X250810310Y-94351590D01*
X250810777Y-94345822D01*
X250811150Y-94333668D01*
X250811150Y-94125590D01*
X250810777Y-94113437D01*
X250810310Y-94107668D01*
X250809654Y-94102105D01*
X250808811Y-94096745D01*
X250807778Y-94091589D01*
X250806555Y-94086636D01*
X250805142Y-94081885D01*
X250803537Y-94077335D01*
X250801741Y-94072987D01*
X250799752Y-94068838D01*
X250797570Y-94064890D01*
X250795195Y-94061140D01*
X250792625Y-94057588D01*
X250789860Y-94054234D01*
X250786899Y-94051077D01*
X250783742Y-94048117D01*
X250780389Y-94045352D01*
X250776837Y-94042782D01*
X250773088Y-94040407D01*
X250769139Y-94038225D01*
X250764991Y-94036237D01*
X250760643Y-94034441D01*
X250756094Y-94032836D01*
X250751344Y-94031423D01*
X250746392Y-94030201D01*
X250741237Y-94029168D01*
X250735879Y-94028324D01*
X250730316Y-94027669D01*
X250724549Y-94027202D01*
X250712399Y-94026830D01*
X250186896Y-94026830D01*
X250186896Y-93381412D01*
X250941651Y-93381412D01*
X250941651Y-93543654D01*
G37*
G36*
X254609638Y-93543654D02*
G01*
X254034749Y-93543654D01*
X254034749Y-93864598D01*
X254383905Y-93864598D01*
X254417835Y-93865674D01*
X254433965Y-93867019D01*
X254449539Y-93868904D01*
X254464558Y-93871328D01*
X254479022Y-93874293D01*
X254492932Y-93877799D01*
X254506289Y-93881847D01*
X254519094Y-93886438D01*
X254531346Y-93891571D01*
X254543047Y-93897249D01*
X254554197Y-93903471D01*
X254564797Y-93910238D01*
X254574848Y-93917550D01*
X254584349Y-93925409D01*
X254593303Y-93933815D01*
X254601709Y-93942768D01*
X254609568Y-93952270D01*
X254616880Y-93962321D01*
X254623647Y-93972921D01*
X254629869Y-93984072D01*
X254635547Y-93995773D01*
X254640681Y-94008026D01*
X254645272Y-94020831D01*
X254649320Y-94034189D01*
X254652826Y-94048100D01*
X254655792Y-94062565D01*
X254658216Y-94077585D01*
X254660101Y-94093160D01*
X254661447Y-94109292D01*
X254662522Y-94143225D01*
X254662522Y-94319573D01*
X254662243Y-94336818D01*
X254661408Y-94353506D01*
X254660017Y-94369637D01*
X254658073Y-94385213D01*
X254655575Y-94400233D01*
X254652527Y-94414698D01*
X254648928Y-94428609D01*
X254644780Y-94441967D01*
X254640084Y-94454772D01*
X254634842Y-94467025D01*
X254629056Y-94478726D01*
X254622725Y-94489876D01*
X254615852Y-94500477D01*
X254608438Y-94510527D01*
X254600484Y-94520029D01*
X254591991Y-94528983D01*
X254582961Y-94537389D01*
X254573395Y-94545248D01*
X254563294Y-94552560D01*
X254552660Y-94559327D01*
X254541493Y-94565549D01*
X254529796Y-94571226D01*
X254517569Y-94576360D01*
X254504813Y-94580950D01*
X254491531Y-94584998D01*
X254477723Y-94588505D01*
X254463390Y-94591470D01*
X254448535Y-94593894D01*
X254433157Y-94595779D01*
X254417259Y-94597124D01*
X254383905Y-94598200D01*
X253928941Y-94598200D01*
X253837248Y-94527661D01*
X253837248Y-94435958D01*
X254380366Y-94435958D01*
X254380366Y-94432429D01*
X254391940Y-94432056D01*
X254397476Y-94431589D01*
X254402842Y-94430934D01*
X254408038Y-94430091D01*
X254413062Y-94429058D01*
X254417912Y-94427835D01*
X254422589Y-94426422D01*
X254427089Y-94424818D01*
X254431413Y-94423022D01*
X254435558Y-94421033D01*
X254439524Y-94418852D01*
X254443309Y-94416476D01*
X254446911Y-94413907D01*
X254450330Y-94411142D01*
X254453565Y-94408181D01*
X254456613Y-94405024D01*
X254459474Y-94401670D01*
X254462146Y-94398119D01*
X254464629Y-94394369D01*
X254466920Y-94390420D01*
X254469019Y-94386272D01*
X254470924Y-94381923D01*
X254472634Y-94377374D01*
X254474148Y-94372623D01*
X254475464Y-94367669D01*
X254476581Y-94362513D01*
X254477498Y-94357154D01*
X254478213Y-94351590D01*
X254478725Y-94345822D01*
X254479034Y-94339848D01*
X254479137Y-94333668D01*
X254479137Y-94125590D01*
X254478764Y-94113437D01*
X254478297Y-94107668D01*
X254477642Y-94102105D01*
X254476798Y-94096745D01*
X254475765Y-94091589D01*
X254474542Y-94086636D01*
X254473129Y-94081885D01*
X254471524Y-94077335D01*
X254469728Y-94072987D01*
X254467739Y-94068838D01*
X254465557Y-94064890D01*
X254463181Y-94061140D01*
X254460611Y-94057588D01*
X254457845Y-94054234D01*
X254454884Y-94051077D01*
X254451727Y-94048117D01*
X254448372Y-94045352D01*
X254444820Y-94042782D01*
X254441070Y-94040407D01*
X254437121Y-94038225D01*
X254432972Y-94036237D01*
X254428623Y-94034441D01*
X254424073Y-94032836D01*
X254419322Y-94031423D01*
X254414368Y-94030201D01*
X254409212Y-94029168D01*
X254403852Y-94028324D01*
X254398289Y-94027669D01*
X254392520Y-94027202D01*
X254380366Y-94026830D01*
X253854863Y-94026830D01*
X253854863Y-93381412D01*
X254609638Y-93381412D01*
X254609638Y-93543654D01*
G37*
G36*
X164038544Y-93385230D02*
G01*
X164055232Y-93386065D01*
X164071363Y-93387456D01*
X164086939Y-93389401D01*
X164101959Y-93391899D01*
X164116424Y-93394949D01*
X164130335Y-93398548D01*
X164143693Y-93402697D01*
X164156498Y-93407393D01*
X164168751Y-93412635D01*
X164180452Y-93418423D01*
X164191602Y-93424754D01*
X164202203Y-93431628D01*
X164212253Y-93439043D01*
X164221755Y-93446998D01*
X164230709Y-93455491D01*
X164239115Y-93464522D01*
X164246974Y-93474089D01*
X164254286Y-93484190D01*
X164261053Y-93494825D01*
X164267275Y-93505992D01*
X164272952Y-93517690D01*
X164278086Y-93529917D01*
X164282676Y-93542673D01*
X164286724Y-93555955D01*
X164290231Y-93569763D01*
X164293196Y-93584096D01*
X164295620Y-93598951D01*
X164297505Y-93614329D01*
X164298850Y-93630226D01*
X164299926Y-93663578D01*
X164299926Y-93776434D01*
X164299180Y-93804128D01*
X164298246Y-93817419D01*
X164296936Y-93830340D01*
X164295249Y-93842891D01*
X164293184Y-93855073D01*
X164290739Y-93866887D01*
X164287913Y-93878334D01*
X164284704Y-93889414D01*
X164281112Y-93900127D01*
X164277135Y-93910475D01*
X164272772Y-93920458D01*
X164268022Y-93930077D01*
X164262883Y-93939332D01*
X164257353Y-93948225D01*
X164251433Y-93956755D01*
X164245119Y-93964923D01*
X164238412Y-93972730D01*
X164231310Y-93980177D01*
X164223811Y-93987264D01*
X164215914Y-93993992D01*
X164207618Y-94000362D01*
X164198922Y-94006373D01*
X164189824Y-94012028D01*
X164180323Y-94017326D01*
X164170418Y-94022268D01*
X164160107Y-94026855D01*
X164149389Y-94031088D01*
X164138264Y-94034966D01*
X164126728Y-94038492D01*
X164114782Y-94041664D01*
X164102425Y-94044485D01*
X163753269Y-94115024D01*
X163743679Y-94117258D01*
X163734745Y-94119992D01*
X163730523Y-94121549D01*
X163726462Y-94123233D01*
X163722563Y-94125045D01*
X163718825Y-94126986D01*
X163715247Y-94129055D01*
X163711829Y-94131254D01*
X163708569Y-94133584D01*
X163705468Y-94136045D01*
X163702524Y-94138637D01*
X163699737Y-94141362D01*
X163697106Y-94144220D01*
X163694631Y-94147212D01*
X163692311Y-94150338D01*
X163690145Y-94153598D01*
X163688133Y-94156995D01*
X163686275Y-94160528D01*
X163684568Y-94164197D01*
X163683013Y-94168004D01*
X163681610Y-94171950D01*
X163680357Y-94176034D01*
X163679253Y-94180258D01*
X163678299Y-94184622D01*
X163676836Y-94193773D01*
X163675962Y-94203492D01*
X163675672Y-94213784D01*
X163675672Y-94435978D01*
X164303465Y-94435978D01*
X164303465Y-94598210D01*
X163495795Y-94598210D01*
X163495795Y-94220832D01*
X163496541Y-94193138D01*
X163497475Y-94179848D01*
X163498785Y-94166927D01*
X163500472Y-94154376D01*
X163502537Y-94142194D01*
X163504982Y-94130380D01*
X163507808Y-94118933D01*
X163511017Y-94107853D01*
X163514609Y-94097140D01*
X163518586Y-94086792D01*
X163522949Y-94076808D01*
X163527700Y-94067190D01*
X163532839Y-94057934D01*
X163538369Y-94049042D01*
X163544290Y-94040512D01*
X163550603Y-94032344D01*
X163557311Y-94024537D01*
X163564413Y-94017090D01*
X163571913Y-94010003D01*
X163579810Y-94003275D01*
X163588106Y-93996905D01*
X163596803Y-93990893D01*
X163605901Y-93985239D01*
X163615403Y-93979941D01*
X163625309Y-93974998D01*
X163635620Y-93970411D01*
X163646338Y-93966179D01*
X163657465Y-93962300D01*
X163669001Y-93958775D01*
X163680948Y-93955603D01*
X163693306Y-93952782D01*
X164045991Y-93882243D01*
X164038933Y-93882253D01*
X164048523Y-93880021D01*
X164057456Y-93877288D01*
X164061679Y-93875731D01*
X164065739Y-93874047D01*
X164069637Y-93872236D01*
X164073375Y-93870296D01*
X164076953Y-93868226D01*
X164080371Y-93866027D01*
X164083630Y-93863698D01*
X164086731Y-93861237D01*
X164089675Y-93858645D01*
X164092461Y-93855920D01*
X164095091Y-93853062D01*
X164097566Y-93850070D01*
X164099885Y-93846944D01*
X164102051Y-93843684D01*
X164104062Y-93840287D01*
X164105921Y-93836754D01*
X164107627Y-93833085D01*
X164109181Y-93829278D01*
X164110584Y-93825333D01*
X164111837Y-93821249D01*
X164112940Y-93817025D01*
X164113894Y-93812661D01*
X164115356Y-93803512D01*
X164116230Y-93793794D01*
X164116520Y-93783503D01*
X164116520Y-93645943D01*
X164116147Y-93633792D01*
X164115680Y-93628024D01*
X164115025Y-93622461D01*
X164114182Y-93617102D01*
X164113149Y-93611947D01*
X164111927Y-93606994D01*
X164110514Y-93602244D01*
X164108909Y-93597695D01*
X164107113Y-93593347D01*
X164105125Y-93589199D01*
X164102943Y-93585250D01*
X164100568Y-93581501D01*
X164097999Y-93577950D01*
X164095234Y-93574596D01*
X164092274Y-93571439D01*
X164089117Y-93568479D01*
X164085763Y-93565714D01*
X164082212Y-93563145D01*
X164078463Y-93560770D01*
X164074514Y-93558588D01*
X164070366Y-93556600D01*
X164066018Y-93554804D01*
X164061469Y-93553199D01*
X164056719Y-93551786D01*
X164051766Y-93550564D01*
X164046611Y-93549531D01*
X164041252Y-93548688D01*
X164035689Y-93548033D01*
X164029922Y-93547566D01*
X164017770Y-93547193D01*
X163527526Y-93547193D01*
X163527526Y-93455490D01*
X163619228Y-93384951D01*
X164021299Y-93384951D01*
X164038544Y-93385230D01*
G37*
G36*
X229152071Y-93385230D02*
G01*
X229168758Y-93386065D01*
X229184887Y-93387456D01*
X229200461Y-93389401D01*
X229215480Y-93391899D01*
X229229944Y-93394949D01*
X229243855Y-93398548D01*
X229257212Y-93402697D01*
X229270016Y-93407393D01*
X229282268Y-93412635D01*
X229293969Y-93418423D01*
X229305119Y-93424754D01*
X229315719Y-93431628D01*
X229325770Y-93439043D01*
X229335272Y-93446998D01*
X229344225Y-93455491D01*
X229352631Y-93464522D01*
X229360490Y-93474089D01*
X229367803Y-93484190D01*
X229374570Y-93494825D01*
X229380792Y-93505992D01*
X229386469Y-93517690D01*
X229391603Y-93529917D01*
X229396194Y-93542673D01*
X229400242Y-93555955D01*
X229403749Y-93569763D01*
X229406714Y-93584096D01*
X229409139Y-93598951D01*
X229411024Y-93614329D01*
X229412369Y-93630226D01*
X229413445Y-93663578D01*
X229413445Y-93776434D01*
X229412699Y-93804128D01*
X229411765Y-93817419D01*
X229410455Y-93830340D01*
X229408768Y-93842891D01*
X229406703Y-93855073D01*
X229404258Y-93866887D01*
X229401432Y-93878334D01*
X229398223Y-93889414D01*
X229394631Y-93900127D01*
X229390654Y-93910475D01*
X229386291Y-93920458D01*
X229381541Y-93930077D01*
X229376402Y-93939332D01*
X229370872Y-93948225D01*
X229364952Y-93956755D01*
X229358638Y-93964923D01*
X229351931Y-93972730D01*
X229344829Y-93980177D01*
X229337330Y-93987264D01*
X229329433Y-93993992D01*
X229321137Y-94000362D01*
X229312441Y-94006373D01*
X229303343Y-94012028D01*
X229293842Y-94017326D01*
X229283937Y-94022268D01*
X229273626Y-94026855D01*
X229262908Y-94031088D01*
X229251783Y-94034966D01*
X229240247Y-94038492D01*
X229228301Y-94041664D01*
X229215944Y-94044485D01*
X228866788Y-94115024D01*
X228857198Y-94117258D01*
X228848264Y-94119992D01*
X228844042Y-94121549D01*
X228839981Y-94123233D01*
X228836082Y-94125045D01*
X228832344Y-94126986D01*
X228828766Y-94129055D01*
X228825348Y-94131254D01*
X228822088Y-94133584D01*
X228818987Y-94136045D01*
X228816043Y-94138637D01*
X228813256Y-94141362D01*
X228810625Y-94144220D01*
X228808150Y-94147212D01*
X228805830Y-94150338D01*
X228803664Y-94153598D01*
X228801652Y-94156995D01*
X228799793Y-94160528D01*
X228798087Y-94164197D01*
X228796532Y-94168004D01*
X228795129Y-94171950D01*
X228793876Y-94176034D01*
X228792772Y-94180258D01*
X228791818Y-94184622D01*
X228790355Y-94193773D01*
X228789481Y-94203492D01*
X228789191Y-94213784D01*
X228789191Y-94435978D01*
X229417004Y-94435978D01*
X229417004Y-94598210D01*
X228609345Y-94598210D01*
X228609345Y-94220832D01*
X228610090Y-94193138D01*
X228611024Y-94179848D01*
X228612334Y-94166927D01*
X228614021Y-94154376D01*
X228616087Y-94142194D01*
X228618532Y-94130380D01*
X228621358Y-94118933D01*
X228624566Y-94107853D01*
X228628158Y-94097140D01*
X228632135Y-94086792D01*
X228636498Y-94076808D01*
X228641248Y-94067190D01*
X228646388Y-94057934D01*
X228651917Y-94049042D01*
X228657838Y-94040512D01*
X228664151Y-94032344D01*
X228670858Y-94024537D01*
X228677961Y-94017090D01*
X228685460Y-94010003D01*
X228693356Y-94003275D01*
X228701652Y-93996905D01*
X228710349Y-93990893D01*
X228719447Y-93985239D01*
X228728947Y-93979941D01*
X228738853Y-93974998D01*
X228749163Y-93970411D01*
X228759881Y-93966179D01*
X228771007Y-93962300D01*
X228782542Y-93958775D01*
X228794488Y-93955603D01*
X228806846Y-93952782D01*
X229159541Y-93882243D01*
X229152483Y-93882253D01*
X229162069Y-93880021D01*
X229171000Y-93877288D01*
X229175221Y-93875731D01*
X229179280Y-93874047D01*
X229183178Y-93872236D01*
X229186915Y-93870296D01*
X229190492Y-93868226D01*
X229193909Y-93866027D01*
X229197168Y-93863698D01*
X229200269Y-93861237D01*
X229203212Y-93858645D01*
X229205998Y-93855920D01*
X229208628Y-93853062D01*
X229211103Y-93850070D01*
X229213422Y-93846944D01*
X229215587Y-93843684D01*
X229217599Y-93840287D01*
X229219458Y-93836754D01*
X229221164Y-93833085D01*
X229222718Y-93829278D01*
X229224122Y-93825333D01*
X229225375Y-93821249D01*
X229226478Y-93817025D01*
X229227432Y-93812661D01*
X229228895Y-93803512D01*
X229229769Y-93793794D01*
X229230059Y-93783503D01*
X229230059Y-93645943D01*
X229229687Y-93633792D01*
X229229219Y-93628024D01*
X229228564Y-93622461D01*
X229227721Y-93617102D01*
X229226688Y-93611947D01*
X229225465Y-93606994D01*
X229224051Y-93602244D01*
X229222447Y-93597695D01*
X229220650Y-93593347D01*
X229218661Y-93589199D01*
X229216479Y-93585250D01*
X229214103Y-93581501D01*
X229211533Y-93577950D01*
X229208768Y-93574596D01*
X229205807Y-93571439D01*
X229202649Y-93568479D01*
X229199295Y-93565714D01*
X229195743Y-93563145D01*
X229191993Y-93560770D01*
X229188043Y-93558588D01*
X229183895Y-93556600D01*
X229179546Y-93554804D01*
X229174996Y-93553199D01*
X229170244Y-93551786D01*
X229165291Y-93550564D01*
X229160134Y-93549531D01*
X229154775Y-93548688D01*
X229149211Y-93548033D01*
X229143442Y-93547566D01*
X229131289Y-93547193D01*
X228641055Y-93547193D01*
X228641055Y-93455490D01*
X228732747Y-93384951D01*
X229134828Y-93384951D01*
X229152071Y-93385230D01*
G37*
G36*
X238646505Y-93385220D02*
G01*
X238663193Y-93386055D01*
X238679324Y-93387446D01*
X238694899Y-93389391D01*
X238709919Y-93391889D01*
X238724384Y-93394938D01*
X238738295Y-93398538D01*
X238751652Y-93402687D01*
X238764457Y-93407383D01*
X238776709Y-93412625D01*
X238788410Y-93418413D01*
X238799560Y-93424744D01*
X238810160Y-93431618D01*
X238820210Y-93439033D01*
X238829711Y-93446988D01*
X238838664Y-93455481D01*
X238847070Y-93464512D01*
X238854928Y-93474079D01*
X238862240Y-93484180D01*
X238869007Y-93494815D01*
X238875228Y-93505982D01*
X238880905Y-93517680D01*
X238886038Y-93529907D01*
X238890629Y-93542663D01*
X238894676Y-93555945D01*
X238898182Y-93569753D01*
X238901147Y-93584086D01*
X238903571Y-93598941D01*
X238905456Y-93614319D01*
X238906801Y-93630216D01*
X238907876Y-93663568D01*
X238907876Y-93776424D01*
X238907131Y-93804118D01*
X238906197Y-93817409D01*
X238904887Y-93830329D01*
X238903200Y-93842880D01*
X238901134Y-93855063D01*
X238898689Y-93866877D01*
X238895863Y-93878324D01*
X238892655Y-93889403D01*
X238889063Y-93900117D01*
X238885086Y-93910465D01*
X238880723Y-93920448D01*
X238875972Y-93930067D01*
X238870833Y-93939322D01*
X238865304Y-93948215D01*
X238859383Y-93956744D01*
X238853070Y-93964913D01*
X238846363Y-93972720D01*
X238839260Y-93980167D01*
X238831761Y-93987254D01*
X238823864Y-93993982D01*
X238815569Y-94000351D01*
X238806872Y-94006363D01*
X238797774Y-94012018D01*
X238788273Y-94017316D01*
X238778368Y-94022258D01*
X238768058Y-94026845D01*
X238757340Y-94031078D01*
X238746214Y-94034956D01*
X238734679Y-94038481D01*
X238722733Y-94041654D01*
X238710375Y-94044475D01*
X238357680Y-94115014D01*
X238357680Y-94115024D01*
X238348094Y-94117258D01*
X238339163Y-94119992D01*
X238334942Y-94121549D01*
X238330883Y-94123233D01*
X238326985Y-94125045D01*
X238323248Y-94126986D01*
X238319671Y-94129055D01*
X238316254Y-94131254D01*
X238312995Y-94133584D01*
X238309894Y-94136045D01*
X238306951Y-94138637D01*
X238304165Y-94141362D01*
X238301535Y-94144220D01*
X238299060Y-94147212D01*
X238296741Y-94150338D01*
X238294575Y-94153598D01*
X238292564Y-94156995D01*
X238290705Y-94160528D01*
X238288999Y-94164197D01*
X238287444Y-94168004D01*
X238286041Y-94171950D01*
X238284788Y-94176034D01*
X238283685Y-94180258D01*
X238282731Y-94184622D01*
X238281268Y-94193773D01*
X238280394Y-94203492D01*
X238280104Y-94213784D01*
X238280104Y-94435978D01*
X238907897Y-94435978D01*
X238907897Y-94598210D01*
X238100258Y-94598210D01*
X238100258Y-94220832D01*
X238101003Y-94193138D01*
X238101937Y-94179848D01*
X238103247Y-94166927D01*
X238104934Y-94154376D01*
X238106999Y-94142194D01*
X238109444Y-94130380D01*
X238112270Y-94118933D01*
X238115479Y-94107853D01*
X238119071Y-94097140D01*
X238123048Y-94086792D01*
X238127411Y-94076808D01*
X238132161Y-94067190D01*
X238137301Y-94057934D01*
X238142830Y-94049042D01*
X238148751Y-94040512D01*
X238155064Y-94032344D01*
X238161771Y-94024537D01*
X238168874Y-94017090D01*
X238176372Y-94010003D01*
X238184269Y-94003275D01*
X238192565Y-93996905D01*
X238201261Y-93990893D01*
X238210359Y-93985239D01*
X238219860Y-93979941D01*
X238229765Y-93974998D01*
X238240076Y-93970411D01*
X238250794Y-93966179D01*
X238261920Y-93962300D01*
X238273455Y-93958775D01*
X238285401Y-93955603D01*
X238297759Y-93952782D01*
X238646914Y-93882243D01*
X238656504Y-93880009D01*
X238665437Y-93877274D01*
X238669659Y-93875718D01*
X238673719Y-93874034D01*
X238677617Y-93872222D01*
X238681355Y-93870281D01*
X238684932Y-93868212D01*
X238688350Y-93866013D01*
X238691609Y-93863683D01*
X238694709Y-93861222D01*
X238697652Y-93858630D01*
X238700438Y-93855905D01*
X238703068Y-93853048D01*
X238705542Y-93850056D01*
X238707861Y-93846931D01*
X238710026Y-93843670D01*
X238712037Y-93840274D01*
X238713895Y-93836742D01*
X238715600Y-93833072D01*
X238717154Y-93829266D01*
X238718557Y-93825321D01*
X238719809Y-93821237D01*
X238720912Y-93817014D01*
X238721865Y-93812650D01*
X238723328Y-93803501D01*
X238724201Y-93793783D01*
X238724491Y-93783492D01*
X238724491Y-93645933D01*
X238724118Y-93633781D01*
X238723651Y-93628014D01*
X238722996Y-93622451D01*
X238722152Y-93617092D01*
X238721119Y-93611937D01*
X238719896Y-93606984D01*
X238718483Y-93602234D01*
X238716879Y-93597685D01*
X238715082Y-93593337D01*
X238713094Y-93589189D01*
X238710912Y-93585240D01*
X238708536Y-93581491D01*
X238705966Y-93577940D01*
X238703201Y-93574586D01*
X238700241Y-93571429D01*
X238697084Y-93568469D01*
X238693730Y-93565704D01*
X238690179Y-93563135D01*
X238686429Y-93560759D01*
X238682481Y-93558578D01*
X238678333Y-93556589D01*
X238673985Y-93554793D01*
X238669436Y-93553189D01*
X238664686Y-93551776D01*
X238659733Y-93550554D01*
X238654578Y-93549521D01*
X238649220Y-93548677D01*
X238643658Y-93548023D01*
X238637891Y-93547556D01*
X238625741Y-93547183D01*
X238135486Y-93547183D01*
X238135486Y-93455480D01*
X238227199Y-93384941D01*
X238629259Y-93384941D01*
X238646505Y-93385220D01*
G37*
G36*
X240131320Y-93385220D02*
G01*
X240148007Y-93386055D01*
X240164137Y-93387446D01*
X240179711Y-93389391D01*
X240194729Y-93391889D01*
X240209194Y-93394938D01*
X240223104Y-93398538D01*
X240236461Y-93402687D01*
X240249265Y-93407383D01*
X240261517Y-93412625D01*
X240273218Y-93418413D01*
X240284368Y-93424744D01*
X240294969Y-93431618D01*
X240305019Y-93439033D01*
X240314521Y-93446988D01*
X240323474Y-93455481D01*
X240331880Y-93464512D01*
X240339739Y-93474079D01*
X240347052Y-93484180D01*
X240353819Y-93494815D01*
X240360041Y-93505982D01*
X240365719Y-93517680D01*
X240370852Y-93529907D01*
X240375443Y-93542663D01*
X240379491Y-93555945D01*
X240382998Y-93569753D01*
X240385963Y-93584086D01*
X240388388Y-93598941D01*
X240390273Y-93614319D01*
X240391618Y-93630216D01*
X240392694Y-93663568D01*
X240392694Y-93776424D01*
X240391948Y-93804118D01*
X240391014Y-93817409D01*
X240389704Y-93830329D01*
X240388017Y-93842880D01*
X240385952Y-93855063D01*
X240383507Y-93866877D01*
X240380681Y-93878324D01*
X240377472Y-93889403D01*
X240373880Y-93900117D01*
X240369903Y-93910465D01*
X240365540Y-93920448D01*
X240360790Y-93930067D01*
X240355651Y-93939322D01*
X240350121Y-93948215D01*
X240344201Y-93956744D01*
X240337887Y-93964913D01*
X240331180Y-93972720D01*
X240324078Y-93980167D01*
X240316579Y-93987254D01*
X240308682Y-93993982D01*
X240300386Y-94000351D01*
X240291690Y-94006363D01*
X240282592Y-94012018D01*
X240273091Y-94017316D01*
X240263186Y-94022258D01*
X240252875Y-94026845D01*
X240242157Y-94031078D01*
X240231032Y-94034956D01*
X240219496Y-94038481D01*
X240207551Y-94041654D01*
X240195193Y-94044475D01*
X239842498Y-94115014D01*
X239842498Y-94115024D01*
X239832911Y-94117258D01*
X239823981Y-94119992D01*
X239819760Y-94121549D01*
X239815701Y-94123233D01*
X239811803Y-94125045D01*
X239808066Y-94126986D01*
X239804489Y-94129055D01*
X239801071Y-94131254D01*
X239797813Y-94133584D01*
X239794712Y-94136045D01*
X239791769Y-94138637D01*
X239788982Y-94141362D01*
X239786352Y-94144220D01*
X239783878Y-94147212D01*
X239781558Y-94150338D01*
X239779393Y-94153598D01*
X239777381Y-94156995D01*
X239775523Y-94160528D01*
X239773816Y-94164197D01*
X239772262Y-94168004D01*
X239770859Y-94171950D01*
X239769606Y-94176034D01*
X239768502Y-94180258D01*
X239767548Y-94184622D01*
X239766085Y-94193773D01*
X239765211Y-94203492D01*
X239764921Y-94213784D01*
X239764921Y-94435978D01*
X240392714Y-94435978D01*
X240392714Y-94598210D01*
X239585055Y-94598210D01*
X239585055Y-94220832D01*
X239585800Y-94193138D01*
X239586734Y-94179848D01*
X239588044Y-94166927D01*
X239589731Y-94154376D01*
X239591797Y-94142194D01*
X239594242Y-94130380D01*
X239597068Y-94118933D01*
X239600277Y-94107853D01*
X239603869Y-94097140D01*
X239607846Y-94086792D01*
X239612209Y-94076808D01*
X239616960Y-94067190D01*
X239622099Y-94057934D01*
X239627629Y-94049042D01*
X239633550Y-94040512D01*
X239639864Y-94032344D01*
X239646572Y-94024537D01*
X239653675Y-94017090D01*
X239661175Y-94010003D01*
X239669072Y-94003275D01*
X239677369Y-93996905D01*
X239686066Y-93990893D01*
X239695165Y-93985239D01*
X239704667Y-93979941D01*
X239714574Y-93974998D01*
X239724886Y-93970411D01*
X239735605Y-93966179D01*
X239746732Y-93962300D01*
X239758269Y-93958775D01*
X239770216Y-93955603D01*
X239782576Y-93952782D01*
X240131732Y-93882243D01*
X240141318Y-93880009D01*
X240150249Y-93877274D01*
X240154470Y-93875718D01*
X240158529Y-93874034D01*
X240162427Y-93872222D01*
X240166164Y-93870281D01*
X240169741Y-93868212D01*
X240173158Y-93866013D01*
X240176417Y-93863683D01*
X240179518Y-93861222D01*
X240182461Y-93858630D01*
X240185247Y-93855905D01*
X240187877Y-93853048D01*
X240190352Y-93850056D01*
X240192671Y-93846931D01*
X240194837Y-93843670D01*
X240196848Y-93840274D01*
X240198707Y-93836742D01*
X240200413Y-93833072D01*
X240201968Y-93829266D01*
X240203371Y-93825321D01*
X240204624Y-93821237D01*
X240205727Y-93817014D01*
X240206681Y-93812650D01*
X240208144Y-93803501D01*
X240209018Y-93793783D01*
X240209309Y-93783492D01*
X240209309Y-93645933D01*
X240208936Y-93633781D01*
X240208469Y-93628014D01*
X240207813Y-93622451D01*
X240206970Y-93617092D01*
X240205937Y-93611937D01*
X240204714Y-93606984D01*
X240203300Y-93602234D01*
X240201696Y-93597685D01*
X240199899Y-93593337D01*
X240197910Y-93589189D01*
X240195728Y-93585240D01*
X240193352Y-93581491D01*
X240190782Y-93577940D01*
X240188017Y-93574586D01*
X240185056Y-93571429D01*
X240181898Y-93568469D01*
X240178544Y-93565704D01*
X240174992Y-93563135D01*
X240171242Y-93560759D01*
X240167292Y-93558578D01*
X240163144Y-93556589D01*
X240158795Y-93554793D01*
X240154245Y-93553189D01*
X240149493Y-93551776D01*
X240144540Y-93550554D01*
X240139384Y-93549521D01*
X240134024Y-93548677D01*
X240128460Y-93548023D01*
X240122692Y-93547556D01*
X240110538Y-93547183D01*
X239620304Y-93547183D01*
X239620304Y-93455480D01*
X239711996Y-93384941D01*
X240114077Y-93384941D01*
X240131320Y-93385220D01*
G37*
G36*
X243467748Y-93385230D02*
G01*
X243484436Y-93386065D01*
X243500567Y-93387456D01*
X243516142Y-93389401D01*
X243531162Y-93391899D01*
X243545627Y-93394949D01*
X243559538Y-93398548D01*
X243572895Y-93402697D01*
X243585700Y-93407393D01*
X243597952Y-93412635D01*
X243609653Y-93418423D01*
X243620803Y-93424754D01*
X243631403Y-93431628D01*
X243641453Y-93439043D01*
X243650954Y-93446998D01*
X243659908Y-93455491D01*
X243668313Y-93464522D01*
X243676171Y-93474089D01*
X243683483Y-93484190D01*
X243690250Y-93494825D01*
X243696471Y-93505992D01*
X243702148Y-93517690D01*
X243707282Y-93529917D01*
X243711872Y-93542673D01*
X243715919Y-93555955D01*
X243719425Y-93569763D01*
X243722390Y-93584096D01*
X243724814Y-93598951D01*
X243726699Y-93614329D01*
X243728044Y-93630226D01*
X243729119Y-93663578D01*
X243729119Y-93776434D01*
X243728374Y-93804128D01*
X243727440Y-93817419D01*
X243726130Y-93830340D01*
X243724443Y-93842891D01*
X243722378Y-93855073D01*
X243719932Y-93866887D01*
X243717106Y-93878334D01*
X243713898Y-93889414D01*
X243710306Y-93900127D01*
X243706329Y-93910475D01*
X243701966Y-93920458D01*
X243697216Y-93930077D01*
X243692076Y-93939332D01*
X243686547Y-93948225D01*
X243680626Y-93956755D01*
X243674313Y-93964923D01*
X243667606Y-93972730D01*
X243660503Y-93980177D01*
X243653004Y-93987264D01*
X243645108Y-93993992D01*
X243636812Y-94000362D01*
X243628115Y-94006373D01*
X243619018Y-94012028D01*
X243609517Y-94017326D01*
X243599611Y-94022268D01*
X243589301Y-94026855D01*
X243578583Y-94031088D01*
X243567457Y-94034966D01*
X243555922Y-94038492D01*
X243543976Y-94041664D01*
X243531618Y-94044485D01*
X243178923Y-94115024D01*
X243169337Y-94117258D01*
X243160406Y-94119992D01*
X243156185Y-94121549D01*
X243152126Y-94123233D01*
X243148229Y-94125045D01*
X243144491Y-94126986D01*
X243140915Y-94129055D01*
X243137497Y-94131254D01*
X243134238Y-94133584D01*
X243131138Y-94136045D01*
X243128194Y-94138637D01*
X243125408Y-94141362D01*
X243122778Y-94144220D01*
X243120303Y-94147212D01*
X243117984Y-94150338D01*
X243115819Y-94153598D01*
X243113807Y-94156995D01*
X243111948Y-94160528D01*
X243110242Y-94164197D01*
X243108688Y-94168004D01*
X243107284Y-94171950D01*
X243106031Y-94176034D01*
X243104928Y-94180258D01*
X243103974Y-94184622D01*
X243102511Y-94193773D01*
X243101637Y-94203492D01*
X243101347Y-94213784D01*
X243101347Y-94435978D01*
X243729140Y-94435978D01*
X243729140Y-94598210D01*
X242921501Y-94598210D01*
X242921501Y-94220832D01*
X242922246Y-94193138D01*
X242923180Y-94179848D01*
X242924490Y-94166927D01*
X242926177Y-94154376D01*
X242928242Y-94142194D01*
X242930688Y-94130380D01*
X242933514Y-94118933D01*
X242936722Y-94107853D01*
X242940314Y-94097140D01*
X242944291Y-94086792D01*
X242948654Y-94076808D01*
X242953404Y-94067190D01*
X242958544Y-94057934D01*
X242964073Y-94049042D01*
X242969994Y-94040512D01*
X242976307Y-94032344D01*
X242983014Y-94024537D01*
X242990117Y-94017090D01*
X242997616Y-94010003D01*
X243005512Y-94003275D01*
X243013808Y-93996905D01*
X243022505Y-93990893D01*
X243031602Y-93985239D01*
X243041103Y-93979941D01*
X243051009Y-93974998D01*
X243061319Y-93970411D01*
X243072037Y-93966179D01*
X243083163Y-93962300D01*
X243094698Y-93958775D01*
X243106644Y-93955603D01*
X243119002Y-93952782D01*
X243468158Y-93882243D01*
X243468158Y-93882253D01*
X243477744Y-93880021D01*
X243486674Y-93877288D01*
X243490895Y-93875731D01*
X243494955Y-93874047D01*
X243498852Y-93872236D01*
X243502589Y-93870296D01*
X243506166Y-93868226D01*
X243509584Y-93866027D01*
X243512843Y-93863698D01*
X243515943Y-93861237D01*
X243518886Y-93858645D01*
X243521673Y-93855920D01*
X243524303Y-93853062D01*
X243526777Y-93850070D01*
X243529097Y-93846944D01*
X243531262Y-93843684D01*
X243533274Y-93840287D01*
X243535132Y-93836754D01*
X243536839Y-93833085D01*
X243538393Y-93829278D01*
X243539797Y-93825333D01*
X243541050Y-93821249D01*
X243542153Y-93817025D01*
X243543107Y-93812661D01*
X243544570Y-93803512D01*
X243545444Y-93793794D01*
X243545734Y-93783503D01*
X243545734Y-93645943D01*
X243545361Y-93633792D01*
X243544894Y-93628024D01*
X243544239Y-93622461D01*
X243543395Y-93617102D01*
X243542362Y-93611947D01*
X243541140Y-93606994D01*
X243539726Y-93602244D01*
X243538122Y-93597695D01*
X243536325Y-93593347D01*
X243534337Y-93589199D01*
X243532155Y-93585250D01*
X243529779Y-93581501D01*
X243527209Y-93577950D01*
X243524444Y-93574596D01*
X243521484Y-93571439D01*
X243518327Y-93568479D01*
X243514973Y-93565714D01*
X243511422Y-93563145D01*
X243507672Y-93560770D01*
X243503724Y-93558588D01*
X243499576Y-93556600D01*
X243495228Y-93554804D01*
X243490679Y-93553199D01*
X243485929Y-93551786D01*
X243480976Y-93550564D01*
X243475821Y-93549531D01*
X243470463Y-93548688D01*
X243464901Y-93548033D01*
X243459134Y-93547566D01*
X243446984Y-93547193D01*
X242956729Y-93547193D01*
X242956729Y-93455490D01*
X243048442Y-93384951D01*
X243450502Y-93384951D01*
X243467748Y-93385230D01*
G37*
G36*
X259173006Y-93385230D02*
G01*
X259189693Y-93386065D01*
X259205823Y-93387456D01*
X259221397Y-93389401D01*
X259236415Y-93391899D01*
X259250880Y-93394949D01*
X259264790Y-93398548D01*
X259278147Y-93402697D01*
X259290951Y-93407393D01*
X259303204Y-93412635D01*
X259314904Y-93418423D01*
X259326055Y-93424754D01*
X259336655Y-93431628D01*
X259346705Y-93439043D01*
X259356207Y-93446998D01*
X259365160Y-93455491D01*
X259373566Y-93464522D01*
X259381425Y-93474089D01*
X259388738Y-93484190D01*
X259395505Y-93494825D01*
X259401727Y-93505992D01*
X259407405Y-93517690D01*
X259412539Y-93529917D01*
X259417129Y-93542673D01*
X259421178Y-93555955D01*
X259424684Y-93569763D01*
X259427649Y-93584096D01*
X259430074Y-93598951D01*
X259431959Y-93614329D01*
X259433304Y-93630226D01*
X259434380Y-93663578D01*
X259434380Y-93776434D01*
X259433634Y-93804128D01*
X259432700Y-93817419D01*
X259431390Y-93830340D01*
X259429703Y-93842891D01*
X259427638Y-93855073D01*
X259425193Y-93866887D01*
X259422367Y-93878334D01*
X259419158Y-93889414D01*
X259415567Y-93900127D01*
X259411590Y-93910475D01*
X259407227Y-93920458D01*
X259402476Y-93930077D01*
X259397337Y-93939332D01*
X259391807Y-93948225D01*
X259385887Y-93956755D01*
X259379574Y-93964923D01*
X259372866Y-93972730D01*
X259365764Y-93980177D01*
X259358265Y-93987264D01*
X259350368Y-93993992D01*
X259342072Y-94000362D01*
X259333376Y-94006373D01*
X259324278Y-94012028D01*
X259314777Y-94017326D01*
X259304872Y-94022268D01*
X259294561Y-94026855D01*
X259283844Y-94031088D01*
X259272718Y-94034966D01*
X259261183Y-94038492D01*
X259249237Y-94041664D01*
X259236879Y-94044485D01*
X258884184Y-94115024D01*
X258874598Y-94117258D01*
X258865667Y-94119992D01*
X258861446Y-94121549D01*
X258857387Y-94123233D01*
X258853489Y-94125045D01*
X258849752Y-94126986D01*
X258846175Y-94129055D01*
X258842757Y-94131254D01*
X258839499Y-94133584D01*
X258836398Y-94136045D01*
X258833455Y-94138637D01*
X258830669Y-94141362D01*
X258828039Y-94144220D01*
X258825564Y-94147212D01*
X258823244Y-94150338D01*
X258821079Y-94153598D01*
X258819067Y-94156995D01*
X258817209Y-94160528D01*
X258815503Y-94164197D01*
X258813948Y-94168004D01*
X258812545Y-94171950D01*
X258811292Y-94176034D01*
X258810189Y-94180258D01*
X258809235Y-94184622D01*
X258807771Y-94193773D01*
X258806897Y-94203492D01*
X258806607Y-94213784D01*
X258806607Y-94435978D01*
X259434400Y-94435978D01*
X259434400Y-94598210D01*
X258626741Y-94598210D01*
X258626741Y-94220832D01*
X258627486Y-94193138D01*
X258628420Y-94179848D01*
X258629730Y-94166927D01*
X258631417Y-94154376D01*
X258633483Y-94142194D01*
X258635928Y-94130380D01*
X258638754Y-94118933D01*
X258641963Y-94107853D01*
X258645555Y-94097140D01*
X258649532Y-94086792D01*
X258653895Y-94076808D01*
X258658646Y-94067190D01*
X258663786Y-94057934D01*
X258669315Y-94049042D01*
X258675236Y-94040512D01*
X258681550Y-94032344D01*
X258688258Y-94024537D01*
X258695361Y-94017090D01*
X258702861Y-94010003D01*
X258710758Y-94003275D01*
X258719055Y-93996905D01*
X258727752Y-93990893D01*
X258736851Y-93985239D01*
X258746353Y-93979941D01*
X258756260Y-93974998D01*
X258766572Y-93970411D01*
X258777291Y-93966179D01*
X258788418Y-93962300D01*
X258799955Y-93958775D01*
X258811902Y-93955603D01*
X258824262Y-93952782D01*
X259176937Y-93882243D01*
X259173418Y-93882253D01*
X259183004Y-93880021D01*
X259191935Y-93877288D01*
X259196156Y-93875731D01*
X259200215Y-93874047D01*
X259204113Y-93872236D01*
X259207850Y-93870296D01*
X259211427Y-93868226D01*
X259214844Y-93866027D01*
X259218103Y-93863698D01*
X259221204Y-93861237D01*
X259224147Y-93858645D01*
X259226933Y-93855920D01*
X259229563Y-93853062D01*
X259232038Y-93850070D01*
X259234357Y-93846944D01*
X259236523Y-93843684D01*
X259238534Y-93840287D01*
X259240393Y-93836754D01*
X259242099Y-93833085D01*
X259243654Y-93829278D01*
X259245057Y-93825333D01*
X259246310Y-93821249D01*
X259247413Y-93817025D01*
X259248367Y-93812661D01*
X259249830Y-93803512D01*
X259250704Y-93793794D01*
X259250995Y-93783503D01*
X259250995Y-93645943D01*
X259250622Y-93633792D01*
X259250155Y-93628024D01*
X259249500Y-93622461D01*
X259248656Y-93617102D01*
X259247623Y-93611947D01*
X259246400Y-93606994D01*
X259244986Y-93602244D01*
X259243382Y-93597695D01*
X259241585Y-93593347D01*
X259239596Y-93589199D01*
X259237414Y-93585250D01*
X259235038Y-93581501D01*
X259232468Y-93577950D01*
X259229703Y-93574596D01*
X259226742Y-93571439D01*
X259223584Y-93568479D01*
X259220230Y-93565714D01*
X259216678Y-93563145D01*
X259212928Y-93560770D01*
X259208979Y-93558588D01*
X259204830Y-93556600D01*
X259200481Y-93554804D01*
X259195931Y-93553199D01*
X259191180Y-93551786D01*
X259186226Y-93550564D01*
X259181070Y-93549531D01*
X259175710Y-93548688D01*
X259170146Y-93548033D01*
X259164378Y-93547566D01*
X259152224Y-93547193D01*
X258661990Y-93547193D01*
X258661990Y-93455490D01*
X258753683Y-93384951D01*
X259155763Y-93384951D01*
X259173006Y-93385230D01*
G37*
G36*
X224450754Y-93388739D02*
G01*
X224467442Y-93389574D01*
X224483573Y-93390965D01*
X224499149Y-93392910D01*
X224514168Y-93395408D01*
X224528633Y-93398457D01*
X224542544Y-93402057D01*
X224555902Y-93406205D01*
X224568706Y-93410901D01*
X224580959Y-93416144D01*
X224592660Y-93421932D01*
X224603810Y-93428263D01*
X224614409Y-93435137D01*
X224624460Y-93442552D01*
X224633961Y-93450507D01*
X224642914Y-93459000D01*
X224651320Y-93468031D01*
X224659178Y-93477598D01*
X224666490Y-93487699D01*
X224673256Y-93498334D01*
X224679478Y-93509501D01*
X224685155Y-93521199D01*
X224690288Y-93533426D01*
X224694878Y-93546181D01*
X224698926Y-93559464D01*
X224702432Y-93573272D01*
X224705397Y-93587605D01*
X224707821Y-93602460D01*
X224709705Y-93617837D01*
X224711051Y-93633735D01*
X224712126Y-93667087D01*
X224712126Y-93790530D01*
X224711961Y-93799043D01*
X224711465Y-93807386D01*
X224710639Y-93815553D01*
X224709482Y-93823539D01*
X224707995Y-93831340D01*
X224706177Y-93838950D01*
X224704029Y-93846363D01*
X224701549Y-93853575D01*
X224698739Y-93860580D01*
X224695598Y-93867373D01*
X224692126Y-93873949D01*
X224688322Y-93880302D01*
X224684188Y-93886428D01*
X224679723Y-93892321D01*
X224674926Y-93897975D01*
X224669798Y-93903386D01*
X224609857Y-93963349D01*
X224669798Y-94023311D01*
X224674926Y-94028725D01*
X224679723Y-94034383D01*
X224684188Y-94040278D01*
X224688322Y-94046405D01*
X224692126Y-94052760D01*
X224695598Y-94059336D01*
X224698739Y-94066130D01*
X224701549Y-94073135D01*
X224704029Y-94080347D01*
X224706177Y-94087760D01*
X224707995Y-94095369D01*
X224709482Y-94103169D01*
X224710639Y-94111155D01*
X224711465Y-94119322D01*
X224711961Y-94127665D01*
X224712126Y-94136177D01*
X224712126Y-94319573D01*
X224711051Y-94353506D01*
X224709706Y-94369637D01*
X224707822Y-94385213D01*
X224705398Y-94400233D01*
X224702434Y-94414698D01*
X224698928Y-94428609D01*
X224694881Y-94441967D01*
X224690292Y-94454772D01*
X224685159Y-94467025D01*
X224679483Y-94478726D01*
X224673262Y-94489876D01*
X224666496Y-94500477D01*
X224659185Y-94510527D01*
X224651327Y-94520029D01*
X224642922Y-94528983D01*
X224633969Y-94537389D01*
X224624468Y-94545248D01*
X224614418Y-94552560D01*
X224603819Y-94559327D01*
X224592669Y-94565549D01*
X224580968Y-94571226D01*
X224568715Y-94576360D01*
X224555910Y-94580950D01*
X224542552Y-94584998D01*
X224528641Y-94588505D01*
X224514175Y-94591470D01*
X224499154Y-94593894D01*
X224483578Y-94595779D01*
X224467446Y-94597124D01*
X224433509Y-94598200D01*
X224013814Y-94598200D01*
X223922101Y-94527661D01*
X223922101Y-94435958D01*
X224429990Y-94435958D01*
X224442140Y-94435585D01*
X224447907Y-94435118D01*
X224453470Y-94434463D01*
X224458828Y-94433620D01*
X224463983Y-94432587D01*
X224468935Y-94431364D01*
X224473686Y-94429951D01*
X224478234Y-94428347D01*
X224482582Y-94426551D01*
X224486730Y-94424563D01*
X224490679Y-94422381D01*
X224494428Y-94420006D01*
X224497980Y-94417436D01*
X224501334Y-94414672D01*
X224504490Y-94411711D01*
X224507451Y-94408555D01*
X224510216Y-94405201D01*
X224512786Y-94401650D01*
X224515161Y-94397900D01*
X224517343Y-94393952D01*
X224519332Y-94389804D01*
X224521128Y-94385456D01*
X224522733Y-94380907D01*
X224524146Y-94376157D01*
X224525369Y-94371204D01*
X224526402Y-94366049D01*
X224527246Y-94360690D01*
X224527901Y-94355127D01*
X224528368Y-94349359D01*
X224528741Y-94337207D01*
X224528741Y-94146744D01*
X224528368Y-94134592D01*
X224527901Y-94128824D01*
X224527246Y-94123262D01*
X224526402Y-94117903D01*
X224525369Y-94112747D01*
X224524146Y-94107795D01*
X224522733Y-94103044D01*
X224521128Y-94098495D01*
X224519332Y-94094147D01*
X224517343Y-94089999D01*
X224515161Y-94086051D01*
X224512786Y-94082301D01*
X224510216Y-94078750D01*
X224507451Y-94075397D01*
X224504490Y-94072240D01*
X224501334Y-94069280D01*
X224497980Y-94066515D01*
X224494428Y-94063945D01*
X224490679Y-94061570D01*
X224486730Y-94059388D01*
X224482582Y-94057400D01*
X224478234Y-94055604D01*
X224473686Y-94054000D01*
X224468935Y-94052587D01*
X224463983Y-94051364D01*
X224458828Y-94050332D01*
X224453470Y-94049488D01*
X224447907Y-94048833D01*
X224442140Y-94048366D01*
X224429990Y-94047993D01*
X224052603Y-94047993D01*
X224052603Y-93885762D01*
X224429990Y-93885762D01*
X224442140Y-93885389D01*
X224447907Y-93884922D01*
X224453470Y-93884267D01*
X224458828Y-93883424D01*
X224463983Y-93882391D01*
X224468935Y-93881168D01*
X224473686Y-93879755D01*
X224478234Y-93878151D01*
X224482582Y-93876355D01*
X224486730Y-93874367D01*
X224490679Y-93872185D01*
X224494428Y-93869810D01*
X224497980Y-93867240D01*
X224501334Y-93864476D01*
X224504490Y-93861515D01*
X224507451Y-93858359D01*
X224510216Y-93855005D01*
X224512786Y-93851454D01*
X224515161Y-93847704D01*
X224517343Y-93843756D01*
X224519332Y-93839608D01*
X224521128Y-93835260D01*
X224522733Y-93830711D01*
X224524146Y-93825960D01*
X224525369Y-93821008D01*
X224526402Y-93815852D01*
X224527246Y-93810494D01*
X224527901Y-93804931D01*
X224528368Y-93799163D01*
X224528741Y-93787011D01*
X224528741Y-93649452D01*
X224528368Y-93637300D01*
X224527901Y-93631533D01*
X224527246Y-93625970D01*
X224526402Y-93620611D01*
X224525369Y-93615456D01*
X224524146Y-93610503D01*
X224522733Y-93605752D01*
X224521128Y-93601203D01*
X224519332Y-93596855D01*
X224517343Y-93592707D01*
X224515161Y-93588759D01*
X224512786Y-93585010D01*
X224510216Y-93581458D01*
X224507451Y-93578105D01*
X224504490Y-93574948D01*
X224501334Y-93571988D01*
X224497980Y-93569223D01*
X224494428Y-93566653D01*
X224490679Y-93564278D01*
X224486730Y-93562097D01*
X224482582Y-93560108D01*
X224478234Y-93558312D01*
X224473686Y-93556708D01*
X224468935Y-93555295D01*
X224463983Y-93554072D01*
X224458828Y-93553040D01*
X224453470Y-93552196D01*
X224447907Y-93551541D01*
X224442140Y-93551074D01*
X224429990Y-93550702D01*
X223939736Y-93550702D01*
X223939736Y-93458999D01*
X224031449Y-93388460D01*
X224433509Y-93388460D01*
X224450754Y-93388739D01*
G37*
G36*
X281350141Y-93381691D02*
G01*
X281366829Y-93382526D01*
X281382960Y-93383917D01*
X281398535Y-93385863D01*
X281413555Y-93388361D01*
X281428020Y-93391410D01*
X281441931Y-93395010D01*
X281455288Y-93399159D01*
X281468093Y-93403856D01*
X281480345Y-93409099D01*
X281492046Y-93414887D01*
X281503196Y-93421218D01*
X281513796Y-93428093D01*
X281523846Y-93435508D01*
X281533348Y-93443463D01*
X281542301Y-93451957D01*
X281550706Y-93460989D01*
X281558564Y-93470556D01*
X281565877Y-93480658D01*
X281572643Y-93491293D01*
X281578864Y-93502460D01*
X281584541Y-93514159D01*
X281589675Y-93526386D01*
X281594265Y-93539142D01*
X281598312Y-93552425D01*
X281601818Y-93566233D01*
X281604783Y-93580566D01*
X281607207Y-93595422D01*
X281609092Y-93610799D01*
X281610437Y-93626697D01*
X281611512Y-93660049D01*
X281611512Y-94319573D01*
X281610437Y-94353506D01*
X281609092Y-94369637D01*
X281607208Y-94385213D01*
X281604784Y-94400233D01*
X281601820Y-94414698D01*
X281598315Y-94428609D01*
X281594268Y-94441967D01*
X281589678Y-94454772D01*
X281584545Y-94467025D01*
X281578869Y-94478726D01*
X281572648Y-94489876D01*
X281565883Y-94500477D01*
X281558571Y-94510527D01*
X281550713Y-94520029D01*
X281542308Y-94528983D01*
X281533356Y-94537389D01*
X281523855Y-94545248D01*
X281513805Y-94552560D01*
X281503205Y-94559327D01*
X281492055Y-94565549D01*
X281480354Y-94571226D01*
X281468102Y-94576360D01*
X281455297Y-94580950D01*
X281441939Y-94584998D01*
X281428027Y-94588505D01*
X281413562Y-94591470D01*
X281398541Y-94593894D01*
X281382965Y-94595779D01*
X281366832Y-94597124D01*
X281332896Y-94598200D01*
X281082490Y-94598200D01*
X281065245Y-94597921D01*
X281048557Y-94597085D01*
X281032426Y-94595694D01*
X281016851Y-94593749D01*
X281001831Y-94591252D01*
X280987366Y-94588202D01*
X280973455Y-94584603D01*
X280960098Y-94580454D01*
X280947293Y-94575758D01*
X280935041Y-94570515D01*
X280923340Y-94564728D01*
X280912190Y-94558396D01*
X280901590Y-94551523D01*
X280891540Y-94544108D01*
X280882038Y-94536153D01*
X280873085Y-94527659D01*
X280864680Y-94518629D01*
X280856821Y-94509062D01*
X280849509Y-94498960D01*
X280842743Y-94488326D01*
X280836521Y-94477159D01*
X280830844Y-94465461D01*
X280825711Y-94453234D01*
X280821121Y-94440478D01*
X280817073Y-94427195D01*
X280813567Y-94413387D01*
X280810603Y-94399055D01*
X280808178Y-94384199D01*
X280806294Y-94368822D01*
X280804949Y-94352924D01*
X280804442Y-94337207D01*
X280983740Y-94337207D01*
X280984113Y-94349359D01*
X280984580Y-94355127D01*
X280985235Y-94360690D01*
X280986079Y-94366049D01*
X280987112Y-94371204D01*
X280988334Y-94376157D01*
X280989748Y-94380907D01*
X280991353Y-94385456D01*
X280993149Y-94389804D01*
X280995138Y-94393952D01*
X280997320Y-94397900D01*
X280999696Y-94401650D01*
X281002266Y-94405201D01*
X281005032Y-94408555D01*
X281007993Y-94411711D01*
X281011150Y-94414672D01*
X281014504Y-94417436D01*
X281018056Y-94420006D01*
X281021807Y-94422381D01*
X281025756Y-94424563D01*
X281029905Y-94426551D01*
X281034254Y-94428347D01*
X281038803Y-94429951D01*
X281043555Y-94431364D01*
X281048508Y-94432587D01*
X281053665Y-94433620D01*
X281059024Y-94434463D01*
X281064588Y-94435118D01*
X281070357Y-94435585D01*
X281082511Y-94435958D01*
X281329397Y-94435958D01*
X281340971Y-94435585D01*
X281346507Y-94435118D01*
X281351873Y-94434463D01*
X281357069Y-94433620D01*
X281362093Y-94432587D01*
X281366943Y-94431364D01*
X281371620Y-94429951D01*
X281376120Y-94428347D01*
X281380444Y-94426551D01*
X281384589Y-94424563D01*
X281388555Y-94422381D01*
X281392339Y-94420006D01*
X281395942Y-94417436D01*
X281399361Y-94414672D01*
X281402596Y-94411711D01*
X281405644Y-94408555D01*
X281408505Y-94405201D01*
X281411177Y-94401650D01*
X281413660Y-94397900D01*
X281415951Y-94393952D01*
X281418050Y-94389804D01*
X281419955Y-94385456D01*
X281421665Y-94380907D01*
X281423179Y-94376157D01*
X281424495Y-94371204D01*
X281425612Y-94366049D01*
X281426528Y-94360690D01*
X281427244Y-94355127D01*
X281427756Y-94349359D01*
X281428065Y-94343386D01*
X281428168Y-94337207D01*
X281428168Y-93642404D01*
X281427795Y-93630252D01*
X281427328Y-93624485D01*
X281426673Y-93618922D01*
X281425829Y-93613563D01*
X281424796Y-93608408D01*
X281423573Y-93603455D01*
X281422160Y-93598705D01*
X281420555Y-93594156D01*
X281418759Y-93589808D01*
X281416770Y-93585660D01*
X281414588Y-93581711D01*
X281412212Y-93577962D01*
X281409641Y-93574411D01*
X281406876Y-93571057D01*
X281403915Y-93567900D01*
X281400758Y-93564940D01*
X281397403Y-93562175D01*
X281393851Y-93559606D01*
X281390101Y-93557230D01*
X281386152Y-93555049D01*
X281382003Y-93553060D01*
X281377654Y-93551264D01*
X281373104Y-93549660D01*
X281368353Y-93548247D01*
X281363399Y-93547025D01*
X281358243Y-93545992D01*
X281352883Y-93545148D01*
X281347319Y-93544494D01*
X281341551Y-93544027D01*
X281329397Y-93543654D01*
X281082511Y-93543654D01*
X281070357Y-93544027D01*
X281064588Y-93544494D01*
X281059024Y-93545148D01*
X281053665Y-93545992D01*
X281048508Y-93547025D01*
X281043555Y-93548247D01*
X281038803Y-93549660D01*
X281034254Y-93551264D01*
X281029905Y-93553060D01*
X281025756Y-93555049D01*
X281021807Y-93557230D01*
X281018056Y-93559606D01*
X281014504Y-93562175D01*
X281011150Y-93564940D01*
X281007993Y-93567900D01*
X281005032Y-93571057D01*
X281002266Y-93574411D01*
X280999696Y-93577962D01*
X280997320Y-93581711D01*
X280995138Y-93585660D01*
X280993149Y-93589808D01*
X280991353Y-93594156D01*
X280989748Y-93598705D01*
X280988334Y-93603455D01*
X280987112Y-93608408D01*
X280986079Y-93613563D01*
X280985235Y-93618922D01*
X280984580Y-93624485D01*
X280984113Y-93630252D01*
X280983740Y-93642404D01*
X280983740Y-94337207D01*
X280804442Y-94337207D01*
X280803873Y-94319573D01*
X280803873Y-93660049D01*
X280804152Y-93642803D01*
X280804172Y-93642404D01*
X280804987Y-93626114D01*
X280806378Y-93609982D01*
X280808323Y-93594406D01*
X280810820Y-93579385D01*
X280813869Y-93564919D01*
X280817468Y-93551007D01*
X280821616Y-93537649D01*
X280826311Y-93524844D01*
X280831553Y-93512590D01*
X280837340Y-93500889D01*
X280843671Y-93489738D01*
X280850544Y-93479137D01*
X280857958Y-93469086D01*
X280865912Y-93459584D01*
X280874405Y-93450630D01*
X280883435Y-93442224D01*
X280893001Y-93434365D01*
X280903102Y-93427052D01*
X280913736Y-93420285D01*
X280924902Y-93414063D01*
X280936600Y-93408386D01*
X280948827Y-93403252D01*
X280961582Y-93398661D01*
X280974865Y-93394613D01*
X280988673Y-93391107D01*
X281003005Y-93388142D01*
X281017861Y-93385717D01*
X281033239Y-93383833D01*
X281049137Y-93382488D01*
X281082490Y-93381412D01*
X281332896Y-93381412D01*
X281350141Y-93381691D01*
G37*
G36*
X162744569Y-93455480D02*
G01*
X162744569Y-93547183D01*
X162335451Y-93547183D01*
X162335451Y-93550702D01*
X162326337Y-93550846D01*
X162317512Y-93551280D01*
X162308977Y-93552004D01*
X162300731Y-93553016D01*
X162292774Y-93554319D01*
X162285107Y-93555910D01*
X162277729Y-93557791D01*
X162270640Y-93559961D01*
X162263841Y-93562420D01*
X162257331Y-93565169D01*
X162251110Y-93568207D01*
X162245179Y-93571535D01*
X162239537Y-93575152D01*
X162234185Y-93579058D01*
X162229122Y-93583253D01*
X162224348Y-93587738D01*
X162219863Y-93592512D01*
X162215668Y-93597576D01*
X162211762Y-93602928D01*
X162208146Y-93608570D01*
X162204819Y-93614501D01*
X162201781Y-93620722D01*
X162199032Y-93627232D01*
X162196573Y-93634031D01*
X162194403Y-93641119D01*
X162192523Y-93648497D01*
X162190931Y-93656164D01*
X162189630Y-93664120D01*
X162188617Y-93672366D01*
X162187894Y-93680900D01*
X162187460Y-93689724D01*
X162187315Y-93698838D01*
X162187315Y-93871646D01*
X162536471Y-93871646D01*
X162570404Y-93872721D01*
X162586536Y-93874067D01*
X162602111Y-93875951D01*
X162617131Y-93878376D01*
X162631596Y-93881341D01*
X162645507Y-93884847D01*
X162658865Y-93888895D01*
X162671670Y-93893486D01*
X162683923Y-93898619D01*
X162695624Y-93904297D01*
X162706775Y-93910519D01*
X162717375Y-93917285D01*
X162727426Y-93924598D01*
X162736927Y-93932457D01*
X162745881Y-93940863D01*
X162754287Y-93949816D01*
X162762146Y-93959318D01*
X162769458Y-93969369D01*
X162776225Y-93979969D01*
X162782447Y-93991120D01*
X162788125Y-94002821D01*
X162793258Y-94015074D01*
X162797849Y-94027879D01*
X162801897Y-94041236D01*
X162805403Y-94055148D01*
X162808368Y-94069613D01*
X162810792Y-94084633D01*
X162812677Y-94100208D01*
X162814022Y-94116340D01*
X162815098Y-94150273D01*
X162815098Y-94326620D01*
X162814819Y-94343866D01*
X162813984Y-94360554D01*
X162812593Y-94376685D01*
X162810648Y-94392260D01*
X162808150Y-94407280D01*
X162805101Y-94421746D01*
X162801501Y-94435657D01*
X162797352Y-94449015D01*
X162792656Y-94461820D01*
X162787414Y-94474072D01*
X162781626Y-94485774D01*
X162775295Y-94496924D01*
X162768421Y-94507524D01*
X162761006Y-94517575D01*
X162753051Y-94527077D01*
X162744558Y-94536031D01*
X162735527Y-94544436D01*
X162725960Y-94552295D01*
X162715859Y-94559608D01*
X162705224Y-94566375D01*
X162694057Y-94572597D01*
X162682359Y-94578274D01*
X162670132Y-94583408D01*
X162657376Y-94587998D01*
X162644094Y-94592046D01*
X162630286Y-94595552D01*
X162615953Y-94598517D01*
X162601098Y-94600942D01*
X162585720Y-94602827D01*
X162569823Y-94604172D01*
X162536471Y-94605247D01*
X162286066Y-94605247D01*
X162268820Y-94604969D01*
X162252132Y-94604133D01*
X162236001Y-94602742D01*
X162220426Y-94600797D01*
X162205406Y-94598299D01*
X162190940Y-94595250D01*
X162177029Y-94591650D01*
X162163671Y-94587502D01*
X162150866Y-94582806D01*
X162138614Y-94577563D01*
X162126912Y-94571776D01*
X162115762Y-94565444D01*
X162105162Y-94558570D01*
X162095111Y-94551155D01*
X162085609Y-94543201D01*
X162076655Y-94534707D01*
X162068250Y-94525676D01*
X162060391Y-94516110D01*
X162053078Y-94506008D01*
X162046311Y-94495373D01*
X162040089Y-94484206D01*
X162034412Y-94472509D01*
X162029278Y-94460281D01*
X162024688Y-94447526D01*
X162020640Y-94434243D01*
X162017134Y-94420435D01*
X162014168Y-94406103D01*
X162011744Y-94391247D01*
X162009859Y-94375870D01*
X162008514Y-94359972D01*
X162007666Y-94333678D01*
X162007439Y-94326620D01*
X162007439Y-94023311D01*
X162187315Y-94023311D01*
X162187315Y-94333678D01*
X162187688Y-94345832D01*
X162188155Y-94351600D01*
X162188810Y-94357164D01*
X162189653Y-94362524D01*
X162190686Y-94367680D01*
X162191908Y-94372633D01*
X162193322Y-94377384D01*
X162194926Y-94381933D01*
X162196722Y-94386282D01*
X162198710Y-94390430D01*
X162200892Y-94394379D01*
X162203267Y-94398129D01*
X162205837Y-94401680D01*
X162208601Y-94405034D01*
X162211562Y-94408191D01*
X162214718Y-94411152D01*
X162218072Y-94413917D01*
X162221623Y-94416486D01*
X162225373Y-94418862D01*
X162229321Y-94421044D01*
X162233469Y-94423032D01*
X162237817Y-94424828D01*
X162242366Y-94426432D01*
X162247116Y-94427846D01*
X162252069Y-94429068D01*
X162257224Y-94430101D01*
X162262583Y-94430944D01*
X162268146Y-94431599D01*
X162273914Y-94432066D01*
X162286066Y-94432439D01*
X162532952Y-94432439D01*
X162545104Y-94432066D01*
X162550872Y-94431599D01*
X162556434Y-94430944D01*
X162561793Y-94430101D01*
X162566949Y-94429068D01*
X162571901Y-94427846D01*
X162576652Y-94426432D01*
X162581201Y-94424828D01*
X162585549Y-94423032D01*
X162589697Y-94421044D01*
X162593645Y-94418862D01*
X162597395Y-94416486D01*
X162600946Y-94413917D01*
X162604299Y-94411152D01*
X162607456Y-94408191D01*
X162610416Y-94405034D01*
X162613181Y-94401680D01*
X162615751Y-94398129D01*
X162618126Y-94394379D01*
X162620308Y-94390430D01*
X162622296Y-94386282D01*
X162624092Y-94381933D01*
X162625696Y-94377384D01*
X162627109Y-94372633D01*
X162628332Y-94367680D01*
X162629364Y-94362524D01*
X162630208Y-94357164D01*
X162630863Y-94351600D01*
X162631330Y-94345832D01*
X162631703Y-94333678D01*
X162631703Y-94125601D01*
X162631330Y-94113448D01*
X162630863Y-94107681D01*
X162630208Y-94102118D01*
X162629364Y-94096759D01*
X162628332Y-94091603D01*
X162627109Y-94086650D01*
X162625696Y-94081899D01*
X162624092Y-94077350D01*
X162622296Y-94073001D01*
X162620308Y-94068853D01*
X162618126Y-94064904D01*
X162615751Y-94061154D01*
X162613181Y-94057603D01*
X162610416Y-94054249D01*
X162607456Y-94051091D01*
X162604299Y-94048131D01*
X162600946Y-94045365D01*
X162597395Y-94042795D01*
X162593645Y-94040420D01*
X162589697Y-94038238D01*
X162585549Y-94036249D01*
X162581201Y-94034452D01*
X162576652Y-94032848D01*
X162571901Y-94031434D01*
X162566949Y-94030212D01*
X162561793Y-94029179D01*
X162556434Y-94028335D01*
X162550872Y-94027680D01*
X162545104Y-94027213D01*
X162532952Y-94026840D01*
X162532952Y-94023311D01*
X162187315Y-94023311D01*
X162007439Y-94023311D01*
X162007439Y-93719991D01*
X162007769Y-93699170D01*
X162008760Y-93679030D01*
X162010412Y-93659570D01*
X162012722Y-93640787D01*
X162015692Y-93622682D01*
X162019319Y-93605252D01*
X162023604Y-93588496D01*
X162028546Y-93572413D01*
X162034144Y-93557001D01*
X162040397Y-93542261D01*
X162047305Y-93528189D01*
X162054867Y-93514785D01*
X162063083Y-93502047D01*
X162071952Y-93489975D01*
X162081473Y-93478566D01*
X162091646Y-93467820D01*
X162102470Y-93457735D01*
X162113944Y-93448311D01*
X162126067Y-93439545D01*
X162138840Y-93431436D01*
X162152261Y-93423984D01*
X162166330Y-93417186D01*
X162181045Y-93411042D01*
X162196408Y-93405550D01*
X162212416Y-93400709D01*
X162229069Y-93396518D01*
X162246366Y-93392975D01*
X162264308Y-93390080D01*
X162282892Y-93387829D01*
X162302120Y-93386224D01*
X162342499Y-93384941D01*
X162652866Y-93384941D01*
X162744569Y-93455480D01*
G37*
D11*
G04 #@! TO.C,S20*
X109220000Y-28575000D03*
D12*
X114300000Y-28575000D03*
D11*
X119380000Y-28575000D03*
D13*
X110490000Y-26035000D03*
X116840000Y-23495000D03*
G04 #@! TD*
D11*
G04 #@! TO.C,S19*
X90170000Y-28575000D03*
D12*
X95250000Y-28575000D03*
D11*
X100330000Y-28575000D03*
D13*
X91440000Y-26035000D03*
X97790000Y-23495000D03*
G04 #@! TD*
D11*
G04 #@! TO.C,S43*
X6826250Y-66675000D03*
D12*
X11906250Y-66675000D03*
D11*
X16986250Y-66675000D03*
D13*
X8096250Y-64135000D03*
X14446250Y-61595000D03*
G04 #@! TD*
D11*
G04 #@! TO.C,S47*
X85407500Y-66675000D03*
D12*
X90487500Y-66675000D03*
D11*
X95567500Y-66675000D03*
D13*
X86677500Y-64135000D03*
X93027500Y-61595000D03*
G04 #@! TD*
D14*
G04 #@! TO.C,S41-x2*
X252380750Y-40640000D03*
D15*
X252380750Y-55850000D03*
D14*
X276256750Y-40640000D03*
D15*
X276256750Y-55850000D03*
G04 #@! TD*
D11*
G04 #@! TO.C,S4*
X61595000Y-9525000D03*
D12*
X66675000Y-9525000D03*
D11*
X71755000Y-9525000D03*
D13*
X62865000Y-6985000D03*
X69215000Y-4445000D03*
G04 #@! TD*
D11*
G04 #@! TO.C,S7*
X118745000Y-9525000D03*
D12*
X123825000Y-9525000D03*
D11*
X128905000Y-9525000D03*
D13*
X120015000Y-6985000D03*
X126365000Y-4445000D03*
G04 #@! TD*
D11*
G04 #@! TO.C,S57-1*
X19367500Y-85725000D03*
D12*
X14287500Y-85725000D03*
D11*
X9207500Y-85725000D03*
D13*
X18097500Y-88265000D03*
X11747500Y-90805000D03*
G04 #@! TD*
D11*
G04 #@! TO.C,S12*
X213995000Y-9525000D03*
D12*
X219075000Y-9525000D03*
D11*
X224155000Y-9525000D03*
D13*
X215265000Y-6985000D03*
X221615000Y-4445000D03*
G04 #@! TD*
D11*
G04 #@! TO.C,S3*
X42545000Y-9525000D03*
D12*
X47625000Y-9525000D03*
D11*
X52705000Y-9525000D03*
D13*
X43815000Y-6985000D03*
X50165000Y-4445000D03*
G04 #@! TD*
D11*
G04 #@! TO.C,S62*
X231298750Y-85725000D03*
D12*
X226218750Y-85725000D03*
D11*
X221138750Y-85725000D03*
D13*
X230028750Y-88265000D03*
X223678750Y-90805000D03*
G04 #@! TD*
D11*
G04 #@! TO.C,S15*
X9207500Y-28575000D03*
D12*
X14287500Y-28575000D03*
D11*
X19367500Y-28575000D03*
D13*
X10477500Y-26035000D03*
X16827500Y-23495000D03*
G04 #@! TD*
D11*
G04 #@! TO.C,S25*
X204470000Y-28575000D03*
D12*
X209550000Y-28575000D03*
D11*
X214630000Y-28575000D03*
D13*
X205740000Y-26035000D03*
X212090000Y-23495000D03*
G04 #@! TD*
D11*
G04 #@! TO.C,S1*
X9525000Y-14605000D03*
D12*
X9525000Y-9525000D03*
D11*
X9525000Y-4445000D03*
D13*
X6985000Y-13335000D03*
X4445000Y-6985000D03*
G04 #@! TD*
D11*
G04 #@! TO.C,S63-1*
X242570000Y-85725000D03*
D12*
X247650000Y-85725000D03*
D11*
X252730000Y-85725000D03*
D13*
X243840000Y-83185000D03*
X250190000Y-80645000D03*
G04 #@! TD*
D11*
G04 #@! TO.C,S9*
X156845000Y-9525000D03*
D12*
X161925000Y-9525000D03*
D11*
X167005000Y-9525000D03*
D13*
X158115000Y-6985000D03*
X164465000Y-4445000D03*
G04 #@! TD*
D11*
G04 #@! TO.C,S44*
X28257500Y-66675000D03*
D12*
X33337500Y-66675000D03*
D11*
X38417500Y-66675000D03*
D13*
X29527500Y-64135000D03*
X35877500Y-61595000D03*
G04 #@! TD*
D11*
G04 #@! TO.C,S23*
X166370000Y-28575000D03*
D12*
X171450000Y-28575000D03*
D11*
X176530000Y-28575000D03*
D13*
X167640000Y-26035000D03*
X173990000Y-23495000D03*
G04 #@! TD*
D11*
G04 #@! TO.C,S64-1*
X266382500Y-85725000D03*
D12*
X271462500Y-85725000D03*
D11*
X276542500Y-85725000D03*
D13*
X267652500Y-83185000D03*
X274002500Y-80645000D03*
G04 #@! TD*
D11*
G04 #@! TO.C,S65*
X30638750Y-85725000D03*
D12*
X35718750Y-85725000D03*
D11*
X40798750Y-85725000D03*
D13*
X31908750Y-83185000D03*
X38258750Y-80645000D03*
G04 #@! TD*
D11*
G04 #@! TO.C,S60-1-b1*
X164306250Y-90805000D03*
D12*
X164306250Y-85725000D03*
D11*
X164306250Y-80645000D03*
D13*
X161766250Y-89535000D03*
X159226250Y-83185000D03*
G04 #@! TD*
D11*
G04 #@! TO.C,S59*
X6826250Y-85725000D03*
D12*
X11906250Y-85725000D03*
D11*
X16986250Y-85725000D03*
D13*
X8096250Y-83185000D03*
X14446250Y-80645000D03*
G04 #@! TD*
D11*
G04 #@! TO.C,S14*
X261620000Y-9525000D03*
D12*
X266700000Y-9525000D03*
D11*
X271780000Y-9525000D03*
D13*
X262890000Y-6985000D03*
X269240000Y-4445000D03*
G04 #@! TD*
D11*
G04 #@! TO.C,S16*
X33020000Y-28575000D03*
D12*
X38100000Y-28575000D03*
D11*
X43180000Y-28575000D03*
D13*
X34290000Y-26035000D03*
X40640000Y-23495000D03*
G04 #@! TD*
D11*
G04 #@! TO.C,S24*
X185420000Y-28575000D03*
D12*
X190500000Y-28575000D03*
D11*
X195580000Y-28575000D03*
D13*
X186690000Y-26035000D03*
X193040000Y-23495000D03*
G04 #@! TD*
D11*
G04 #@! TO.C,S32*
X56832500Y-47625000D03*
D12*
X61912500Y-47625000D03*
D11*
X66992500Y-47625000D03*
D13*
X58102500Y-45085000D03*
X64452500Y-42545000D03*
G04 #@! TD*
D11*
G04 #@! TO.C,S34*
X94932500Y-47625000D03*
D12*
X100012500Y-47625000D03*
D11*
X105092500Y-47625000D03*
D13*
X96202500Y-45085000D03*
X102552500Y-42545000D03*
G04 #@! TD*
D11*
G04 #@! TO.C,S35*
X113982500Y-47625000D03*
D12*
X119062500Y-47625000D03*
D11*
X124142500Y-47625000D03*
D13*
X115252500Y-45085000D03*
X121602500Y-42545000D03*
G04 #@! TD*
D11*
G04 #@! TO.C,S64*
X278923750Y-85725000D03*
D12*
X273843750Y-85725000D03*
D11*
X268763750Y-85725000D03*
D13*
X277653750Y-88265000D03*
X271303750Y-90805000D03*
G04 #@! TD*
D14*
G04 #@! TO.C,S60-x1*
X180968750Y-92710000D03*
D15*
X180968750Y-77500000D03*
D14*
X80968750Y-92710000D03*
D15*
X80968750Y-77500000D03*
G04 #@! TD*
D11*
G04 #@! TO.C,S46*
X66357500Y-66675000D03*
D12*
X71437500Y-66675000D03*
D11*
X76517500Y-66675000D03*
D13*
X67627500Y-64135000D03*
X73977500Y-61595000D03*
G04 #@! TD*
D11*
G04 #@! TO.C,S50*
X142557500Y-66675000D03*
D12*
X147637500Y-66675000D03*
D11*
X152717500Y-66675000D03*
D13*
X143827500Y-64135000D03*
X150177500Y-61595000D03*
G04 #@! TD*
D16*
G04 #@! TO.C,HOLE*
X260425000Y-28225000D03*
G04 #@! TD*
D11*
G04 #@! TO.C,S22*
X147320000Y-28575000D03*
D12*
X152400000Y-28575000D03*
D11*
X157480000Y-28575000D03*
D13*
X148590000Y-26035000D03*
X154940000Y-23495000D03*
G04 #@! TD*
D11*
G04 #@! TO.C,S29*
X252412500Y-52705000D03*
D12*
X252412500Y-47625000D03*
D11*
X252412500Y-42545000D03*
D13*
X249872500Y-51435000D03*
X247332500Y-45085000D03*
G04 #@! TD*
D11*
G04 #@! TO.C,S62-1*
X218757500Y-85725000D03*
D12*
X223837500Y-85725000D03*
D11*
X228917500Y-85725000D03*
D13*
X220027500Y-83185000D03*
X226377500Y-80645000D03*
G04 #@! TD*
D14*
G04 #@! TO.C,S60-x5*
X104806750Y-92710000D03*
D15*
X104806750Y-77500000D03*
D14*
X80930750Y-92710000D03*
D15*
X80930750Y-77500000D03*
G04 #@! TD*
D14*
G04 #@! TO.C,S29-x1*
X33369250Y-73660000D03*
D15*
X33369250Y-58450000D03*
D14*
X9493250Y-73660000D03*
D15*
X9493250Y-58450000D03*
G04 #@! TD*
D11*
G04 #@! TO.C,S27*
X242570000Y-28575000D03*
D12*
X247650000Y-28575000D03*
D11*
X252730000Y-28575000D03*
D13*
X243840000Y-26035000D03*
X250190000Y-23495000D03*
G04 #@! TD*
D11*
G04 #@! TO.C,S60-1*
X137795000Y-85725000D03*
D12*
X142875000Y-85725000D03*
D11*
X147955000Y-85725000D03*
D13*
X139065000Y-83185000D03*
X145415000Y-80645000D03*
G04 #@! TD*
D11*
G04 #@! TO.C,S8*
X137795000Y-9525000D03*
D12*
X142875000Y-9525000D03*
D11*
X147955000Y-9525000D03*
D13*
X139065000Y-6985000D03*
X145415000Y-4445000D03*
G04 #@! TD*
D11*
G04 #@! TO.C,S38*
X171132500Y-47625000D03*
D12*
X176212500Y-47625000D03*
D11*
X181292500Y-47625000D03*
D13*
X172402500Y-45085000D03*
X178752500Y-42545000D03*
G04 #@! TD*
D11*
G04 #@! TO.C,S55*
X255111250Y-66675000D03*
D12*
X250031250Y-66675000D03*
D11*
X244951250Y-66675000D03*
D13*
X253841250Y-69215000D03*
X247491250Y-71755000D03*
G04 #@! TD*
D16*
G04 #@! TO.C,HOLE*
X128575000Y-47325000D03*
G04 #@! TD*
D11*
G04 #@! TO.C,S21*
X128270000Y-28575000D03*
D12*
X133350000Y-28575000D03*
D11*
X138430000Y-28575000D03*
D13*
X129540000Y-26035000D03*
X135890000Y-23495000D03*
G04 #@! TD*
D11*
G04 #@! TO.C,S11*
X194945000Y-9525000D03*
D12*
X200025000Y-9525000D03*
D11*
X205105000Y-9525000D03*
D13*
X196215000Y-6985000D03*
X202565000Y-4445000D03*
G04 #@! TD*
D11*
G04 #@! TO.C,S60-2*
X136048750Y-85725000D03*
D12*
X130968750Y-85725000D03*
D11*
X125888750Y-85725000D03*
D13*
X134778750Y-88265000D03*
X128428750Y-90805000D03*
G04 #@! TD*
D11*
G04 #@! TO.C,S52*
X180657500Y-66675000D03*
D12*
X185737500Y-66675000D03*
D11*
X190817500Y-66675000D03*
D13*
X181927500Y-64135000D03*
X188277500Y-61595000D03*
G04 #@! TD*
D11*
G04 #@! TO.C,S63*
X255111250Y-85725000D03*
D12*
X250031250Y-85725000D03*
D11*
X244951250Y-85725000D03*
D13*
X253841250Y-88265000D03*
X247491250Y-90805000D03*
G04 #@! TD*
D11*
G04 #@! TO.C,S31*
X37782500Y-47625000D03*
D12*
X42862500Y-47625000D03*
D11*
X47942500Y-47625000D03*
D13*
X39052500Y-45085000D03*
X45402500Y-42545000D03*
G04 #@! TD*
D11*
G04 #@! TO.C,S39*
X190182500Y-47625000D03*
D12*
X195262500Y-47625000D03*
D11*
X200342500Y-47625000D03*
D13*
X191452500Y-45085000D03*
X197802500Y-42545000D03*
G04 #@! TD*
D11*
G04 #@! TO.C,S36*
X133032500Y-47625000D03*
D12*
X138112500Y-47625000D03*
D11*
X143192500Y-47625000D03*
D13*
X134302500Y-45085000D03*
X140652500Y-42545000D03*
G04 #@! TD*
D11*
G04 #@! TO.C,S40*
X209232500Y-47625000D03*
D12*
X214312500Y-47625000D03*
D11*
X219392500Y-47625000D03*
D13*
X210502500Y-45085000D03*
X216852500Y-42545000D03*
G04 #@! TD*
D11*
G04 #@! TO.C,S48*
X104457500Y-66675000D03*
D12*
X109537500Y-66675000D03*
D11*
X114617500Y-66675000D03*
D13*
X105727500Y-64135000D03*
X112077500Y-61595000D03*
G04 #@! TD*
D11*
G04 #@! TO.C,S18*
X71120000Y-28575000D03*
D12*
X76200000Y-28575000D03*
D11*
X81280000Y-28575000D03*
D13*
X72390000Y-26035000D03*
X78740000Y-23495000D03*
G04 #@! TD*
D11*
G04 #@! TO.C,S42*
X264318750Y-52705000D03*
D12*
X264318750Y-47625000D03*
D11*
X264318750Y-42545000D03*
D13*
X261778750Y-51435000D03*
X259238750Y-45085000D03*
G04 #@! TD*
D11*
G04 #@! TO.C,S45*
X47307500Y-66675000D03*
D12*
X52387500Y-66675000D03*
D11*
X57467500Y-66675000D03*
D13*
X48577500Y-64135000D03*
X54927500Y-61595000D03*
G04 #@! TD*
D11*
G04 #@! TO.C,S13*
X233045000Y-9525000D03*
D12*
X238125000Y-9525000D03*
D11*
X243205000Y-9525000D03*
D13*
X234315000Y-6985000D03*
X240665000Y-4445000D03*
G04 #@! TD*
D17*
G04 #@! TO.C,HOLE*
X283915000Y-56825000D03*
G04 #@! TD*
D14*
G04 #@! TO.C,S60-x6*
X176244250Y-92710000D03*
D15*
X176244250Y-77500000D03*
D14*
X152368250Y-92710000D03*
D15*
X152368250Y-77500000D03*
G04 #@! TD*
D14*
G04 #@! TO.C,S60-x3*
X200025000Y-92710000D03*
D15*
X200025000Y-77500000D03*
D14*
X85725000Y-92710000D03*
D15*
X85725000Y-77500000D03*
G04 #@! TD*
D11*
G04 #@! TO.C,S26*
X223520000Y-28575000D03*
D12*
X228600000Y-28575000D03*
D11*
X233680000Y-28575000D03*
D13*
X224790000Y-26035000D03*
X231140000Y-23495000D03*
G04 #@! TD*
D11*
G04 #@! TO.C,S5*
X80645000Y-9525000D03*
D12*
X85725000Y-9525000D03*
D11*
X90805000Y-9525000D03*
D13*
X81915000Y-6985000D03*
X88265000Y-4445000D03*
G04 #@! TD*
D11*
G04 #@! TO.C,S17*
X52070000Y-28575000D03*
D12*
X57150000Y-28575000D03*
D11*
X62230000Y-28575000D03*
D13*
X53340000Y-26035000D03*
X59690000Y-23495000D03*
G04 #@! TD*
D11*
G04 #@! TO.C,S33*
X75882500Y-47625000D03*
D12*
X80962500Y-47625000D03*
D11*
X86042500Y-47625000D03*
D13*
X77152500Y-45085000D03*
X83502500Y-42545000D03*
G04 #@! TD*
D11*
G04 #@! TO.C,S55-1*
X254476250Y-66675000D03*
D12*
X259556250Y-66675000D03*
D11*
X264636250Y-66675000D03*
D13*
X255746250Y-64135000D03*
X262096250Y-61595000D03*
G04 #@! TD*
D11*
G04 #@! TO.C,S37*
X152082500Y-47625000D03*
D12*
X157162500Y-47625000D03*
D11*
X162242500Y-47625000D03*
D13*
X153352500Y-45085000D03*
X159702500Y-42545000D03*
G04 #@! TD*
D11*
G04 #@! TO.C,S49*
X123507500Y-66675000D03*
D12*
X128587500Y-66675000D03*
D11*
X133667500Y-66675000D03*
D13*
X124777500Y-64135000D03*
X131127500Y-61595000D03*
G04 #@! TD*
D11*
G04 #@! TO.C,S57*
X121126250Y-85725000D03*
D12*
X126206250Y-85725000D03*
D11*
X131286250Y-85725000D03*
D13*
X122396250Y-83185000D03*
X128746250Y-80645000D03*
G04 #@! TD*
D14*
G04 #@! TO.C,S55-x1*
X247618250Y-59690000D03*
D15*
X247618250Y-74900000D03*
D14*
X271494250Y-59690000D03*
D15*
X271494250Y-74900000D03*
G04 #@! TD*
D11*
G04 #@! TO.C,S53*
X199707500Y-66675000D03*
D12*
X204787500Y-66675000D03*
D11*
X209867500Y-66675000D03*
D13*
X200977500Y-64135000D03*
X207327500Y-61595000D03*
G04 #@! TD*
D18*
G04 #@! TO.C,HOLE*
X25575000Y-28225000D03*
G04 #@! TD*
D14*
G04 #@! TO.C,S41-x1*
X266858750Y-50038000D03*
D15*
X282068750Y-50038000D03*
D14*
X266858750Y-26162000D03*
D15*
X282068750Y-26162000D03*
G04 #@! TD*
D11*
G04 #@! TO.C,S10*
X175895000Y-9525000D03*
D12*
X180975000Y-9525000D03*
D11*
X186055000Y-9525000D03*
D13*
X177165000Y-6985000D03*
X183515000Y-4445000D03*
G04 #@! TD*
D11*
G04 #@! TO.C,S56*
X281305000Y-66675000D03*
D12*
X276225000Y-66675000D03*
D11*
X271145000Y-66675000D03*
D13*
X280035000Y-69215000D03*
X273685000Y-71755000D03*
G04 #@! TD*
D11*
G04 #@! TO.C,S28*
X271462500Y-23495000D03*
D12*
X271462500Y-28575000D03*
D11*
X271462500Y-33655000D03*
D13*
X274002500Y-24765000D03*
X276542500Y-31115000D03*
G04 #@! TD*
D11*
G04 #@! TO.C,S61*
X197326250Y-85725000D03*
D12*
X202406250Y-85725000D03*
D11*
X207486250Y-85725000D03*
D13*
X198596250Y-83185000D03*
X204946250Y-80645000D03*
G04 #@! TD*
D14*
G04 #@! TO.C,S14-x1*
X254762000Y-2540000D03*
D15*
X254762000Y-17750000D03*
D14*
X278638000Y-2540000D03*
D15*
X278638000Y-17750000D03*
G04 #@! TD*
D11*
G04 #@! TO.C,S14-2*
X262255000Y-9525000D03*
D12*
X257175000Y-9525000D03*
D11*
X252095000Y-9525000D03*
D13*
X260985000Y-12065000D03*
X254635000Y-14605000D03*
G04 #@! TD*
D11*
G04 #@! TO.C,S14-1*
X281305000Y-9525000D03*
D12*
X276225000Y-9525000D03*
D11*
X271145000Y-9525000D03*
D13*
X280035000Y-12065000D03*
X273685000Y-14605000D03*
G04 #@! TD*
D11*
G04 #@! TO.C,S54*
X218757500Y-66675000D03*
D12*
X223837500Y-66675000D03*
D11*
X228917500Y-66675000D03*
D13*
X220027500Y-64135000D03*
X226377500Y-61595000D03*
G04 #@! TD*
D11*
G04 #@! TO.C,S51*
X161607500Y-66675000D03*
D12*
X166687500Y-66675000D03*
D11*
X171767500Y-66675000D03*
D13*
X162877500Y-64135000D03*
X169227500Y-61595000D03*
G04 #@! TD*
D11*
G04 #@! TO.C,S58-1*
X43180000Y-85725000D03*
D12*
X38100000Y-85725000D03*
D11*
X33020000Y-85725000D03*
D13*
X41910000Y-88265000D03*
X35560000Y-90805000D03*
G04 #@! TD*
D11*
G04 #@! TO.C,S60-1-a2*
X99695000Y-85725000D03*
D12*
X104775000Y-85725000D03*
D11*
X109855000Y-85725000D03*
D13*
X100965000Y-83185000D03*
X107315000Y-80645000D03*
G04 #@! TD*
D11*
G04 #@! TO.C,S41-1*
X273843750Y-43180000D03*
D12*
X273843750Y-38100000D03*
D11*
X273843750Y-33020000D03*
D13*
X271303750Y-41910000D03*
X268763750Y-35560000D03*
G04 #@! TD*
D11*
G04 #@! TO.C,S29-1*
X6826250Y-47625000D03*
D12*
X11906250Y-47625000D03*
D11*
X16986250Y-47625000D03*
D13*
X8096250Y-45085000D03*
X14446250Y-42545000D03*
G04 #@! TD*
D11*
G04 #@! TO.C,S30*
X21748750Y-47625000D03*
D12*
X16668750Y-47625000D03*
D11*
X11588750Y-47625000D03*
D13*
X20478750Y-50165000D03*
X14128750Y-52705000D03*
G04 #@! TD*
D11*
G04 #@! TO.C,S6*
X99695000Y-9525000D03*
D12*
X104775000Y-9525000D03*
D11*
X109855000Y-9525000D03*
D13*
X100965000Y-6985000D03*
X107315000Y-4445000D03*
G04 #@! TD*
D17*
G04 #@! TO.C,HOLE*
X1835000Y-56825000D03*
G04 #@! TD*
D11*
G04 #@! TO.C,S60*
X54451250Y-85725000D03*
D12*
X59531250Y-85725000D03*
D11*
X64611250Y-85725000D03*
D13*
X55721250Y-83185000D03*
X62071250Y-80645000D03*
G04 #@! TD*
D11*
G04 #@! TO.C,S59-1*
X66992500Y-85725000D03*
D12*
X61912500Y-85725000D03*
D11*
X56832500Y-85725000D03*
D13*
X65722500Y-88265000D03*
X59372500Y-90805000D03*
G04 #@! TD*
D11*
G04 #@! TO.C,S43-1*
X26511250Y-66675000D03*
D12*
X21431250Y-66675000D03*
D11*
X16351250Y-66675000D03*
D13*
X25241250Y-69215000D03*
X18891250Y-71755000D03*
G04 #@! TD*
D14*
G04 #@! TO.C,S60-x2*
X116713000Y-92710000D03*
D15*
X116713000Y-77500000D03*
D14*
X92837000Y-92710000D03*
D15*
X92837000Y-77500000D03*
G04 #@! TD*
D11*
G04 #@! TO.C,S60-1-b2*
X175895000Y-85725000D03*
D12*
X180975000Y-85725000D03*
D11*
X186055000Y-85725000D03*
D13*
X177165000Y-83185000D03*
X183515000Y-80645000D03*
G04 #@! TD*
D11*
G04 #@! TO.C,S2*
X28575000Y-4445000D03*
D12*
X28575000Y-9525000D03*
D11*
X28575000Y-14605000D03*
D13*
X31115000Y-5715000D03*
X33655000Y-12065000D03*
G04 #@! TD*
D11*
G04 #@! TO.C,S60-1-a1*
X92868750Y-90805000D03*
D12*
X92868750Y-85725000D03*
D11*
X92868750Y-80645000D03*
D13*
X90328750Y-89535000D03*
X87788750Y-83185000D03*
G04 #@! TD*
D16*
G04 #@! TO.C,HOLE*
X190875000Y-85525000D03*
G04 #@! TD*
D11*
G04 #@! TO.C,S41*
X228282500Y-47625000D03*
D12*
X233362500Y-47625000D03*
D11*
X238442500Y-47625000D03*
D13*
X229552500Y-45085000D03*
X235902500Y-42545000D03*
G04 #@! TD*
D14*
G04 #@! TO.C,S60-x4*
X192913000Y-92710000D03*
D15*
X192913000Y-77500000D03*
D14*
X169037000Y-92710000D03*
D15*
X169037000Y-77500000D03*
G04 #@! TD*
D19*
G04 #@! TO.C,J1*
X111719000Y-75953000D03*
D20*
X109719000Y-75953000D03*
G04 #@! TD*
D19*
G04 #@! TO.C,J2*
X115567000Y-85347000D03*
D20*
X113567000Y-85347000D03*
G04 #@! TD*
D21*
G04 #@! TO.C,J3*
X15685000Y-5105000D03*
X21465000Y-5105000D03*
D22*
X14255000Y-1425000D03*
D23*
X14255000Y-5605000D03*
D22*
X22895000Y-1425000D03*
D23*
X22895000Y-5605000D03*
G04 #@! TD*
M02*
