M48
; DRILL file KiCad 10.0.1 date 2026-04-19T19:03:24
; FORMAT={-:-/ absolute / metric / decimal}
; #@! TF.CreationDate,2026-04-19T19:03:24+08:00
; #@! TF.GenerationSoftware,Kicad,Pcbnew,10.0.1
; #@! TF.FileFunction,Plated,1,2,PTH
FMAT,2
METRIC
; #@! TA.AperFunction,Plated,PTH,ViaDrill
T1C0.300
; #@! TA.AperFunction,Plated,PTH,ComponentDrill
T2C0.600
; #@! TA.AperFunction,Plated,PTH,ComponentDrill
T3C0.800
; #@! TA.AperFunction,Plated,PTH,ComponentDrill
T4C2.499
; #@! TA.AperFunction,Plated,PTH,ComponentDrill
T5C2.499
; #@! TA.AperFunction,Plated,PTH,ComponentDrill
T6C3.050
%
G90
G05
T1
X4.534Y-43.336
X5.33Y-43.267
X5.803Y-19.663
X5.803Y-21.02
X5.803Y-22.377
X5.803Y-24.413
X5.805Y-20.341
X5.805Y-21.699
X5.805Y-23.056
X5.805Y-23.734
X6.216Y-43.157
X6.928Y-42.967
X7.276Y-42.365
X7.355Y-41.617
X7.445Y-40.931
X7.513Y-40.266
X7.584Y-27.73
X7.605Y-28.289
X7.605Y-29.647
X7.607Y-28.968
X7.607Y-30.325
X7.623Y-31.093
X7.623Y-32.45
X7.623Y-33.807
X7.623Y-35.165
X7.623Y-37.2
X7.625Y-31.772
X7.625Y-33.129
X7.625Y-34.486
X7.625Y-35.843
X7.625Y-36.522
X8.194Y-40.24
X8.223Y-31.785
X8.223Y-33.142
X8.223Y-34.499
X8.223Y-35.857
X8.225Y-32.464
X8.225Y-33.821
X8.225Y-35.178
X8.225Y-36.535
X8.225Y-37.214
X8.242Y-29.703
X8.242Y-31.06
X8.244Y-30.382
X8.843Y-40.203
X8.9Y-37.2
X9.465Y-40.104
X9.53Y-12.44
X9.6Y-37.2
X9.6Y-37.8
X9.6Y-38.4
X9.983Y-18.586
X10.017Y-38.803
X10.024Y-40.083
X10.695Y-38.801
X10.703Y-40.081
X11.04Y-14.1
X11.374Y-38.803
X11.382Y-40.083
X12.053Y-38.801
X12.06Y-40.081
X12.821Y-38.785
X12.828Y-40.065
X13.499Y-38.783
X13.507Y-40.063
X14.178Y-38.785
X14.185Y-40.065
X14.856Y-38.783
X14.864Y-40.063
X15.15Y-11.75
X15.535Y-38.785
X15.542Y-40.065
X15.715Y-9.304
X16.07Y-13.36
X16.214Y-38.783
X16.221Y-40.063
X16.84Y-27.72
X16.892Y-38.785
X16.9Y-40.065
X17.06Y-14.59
X17.566Y-4.519
X17.571Y-38.783
X17.578Y-40.063
X18.249Y-38.783
X18.257Y-40.063
X18.279Y-36.189
X18.621Y-38.205
X18.73Y-27.01
X18.928Y-38.785
X18.935Y-40.065
X19.15Y-14.65
X19.5Y-4.572
X19.52Y-32.32
X19.578Y-8.161
X19.888Y-43.002
X19.91Y-27.01
X20.006Y-11.788
X20.33Y-10.179
X20.52Y-19.49
X20.66Y-31.32
X20.853Y-46.38
X20.867Y-36.121
X20.88Y-16.4
X20.88Y-21.534
X20.88Y-29.48
X21.031Y-43.612
X21.5Y-44.55
X22.05Y-9.85
X22.097Y-38.272
X22.25Y-43.6
X22.284Y-17.453
X22.975Y-43.736
X23.011Y-42.928
X23.72Y-19.72
X23.72Y-25.54
X23.74Y-17.35
X24.2Y-76.0
X24.275Y-43.2
X24.282Y-44.272
X24.5Y-37.75
X24.525Y-33.575
X24.54Y-36.57
X24.994Y-5.75
X24.994Y-11.8
X25.116Y-41.538
X25.25Y-39.274
X25.262Y-13.152
X25.575Y-34.0
X25.89Y-8.62
X26.01Y-14.783
X26.024Y-33.546
X26.38Y-11.41
X26.45Y-53.8
X26.476Y-32.901
X26.492Y-44.805
X26.59Y-17.48
X26.94Y-16.61
X27.038Y-42.775
X27.05Y-44.2
X27.495Y-44.837
X27.55Y-25.5
X27.6Y-19.7
X27.95Y-44.25
X28.25Y-36.45
X28.25Y-41.397
X28.283Y-38.954
X28.34Y-5.94
X29.0Y-42.751
X29.135Y-47.243
X29.27Y-41.97
X29.413Y-19.634
X29.413Y-21.92
X29.439Y-30.404
X29.679Y-45.01
X29.875Y-57.094
X30.029Y-47.57
X30.029Y-48.32
X30.285Y-36.8
X30.59Y-19.66
X30.61Y-49.03
X30.636Y-43.96
X30.641Y-44.945
X30.7Y-71.4
X30.75Y-17.45
X30.888Y-42.692
X31.039Y-53.67
X31.144Y-21.773
X31.2Y-9.13
X31.24Y-12.69
X31.525Y-33.15
X31.617Y-23.791
X31.791Y-47.155
X32.525Y-32.0
X32.599Y-48.798
X33.1Y-53.75
X33.125Y-33.125
X33.34Y-50.25
X33.4Y-19.62
X33.405Y-53.105
X33.422Y-31.977
X33.63Y-42.774
X33.75Y-7.75
X34.078Y-52.777
X34.62Y-19.99
X35.7Y-17.4
X36.17Y-50.25
X36.39Y-47.3
X36.692Y-37.247
X36.738Y-38.078
X36.8Y-19.66
X37.561Y-41.403
X37.614Y-38.942
X37.635Y-38.199
X37.8Y-54.25
X38.289Y-41.307
X38.4Y-71.1
X38.401Y-40.532
X38.442Y-39.719
X38.493Y-38.806
X38.75Y-42.7
X38.82Y-41.838
X38.993Y-34.725
X39.5Y-50.06
X39.919Y-41.755
X40.27Y-47.69
X41.25Y-11.455
X41.326Y-55.499
X41.693Y-69.0
X41.732Y-40.081
X42.175Y-65.825
X42.3Y-19.66
X42.32Y-42.91
X42.74Y-17.39
X42.83Y-34.546
X42.9Y-71.1
X43.911Y-50.138
X44.257Y-19.35
X44.501Y-11.506
X44.63Y-13.614
X44.825Y-73.425
X45.23Y-20.64
X45.526Y-33.49
X45.53Y-17.6
X47.148Y-33.935
X47.3Y-71.0
X47.6Y-24.01
X47.668Y-14.918
X47.67Y-20.07
X48.1Y-76.0
X48.239Y-15.621
X48.947Y-31.504
X49.86Y-32.105
X49.862Y-39.757
X50.67Y-34.55
X54.727Y-15.664
X57.7Y-54.2
X58.242Y-55.499
X59.889Y-14.385
X60.373Y-15.446
X62.731Y-89.202
X64.44Y-32.84
X66.4Y-71.1
X69.47Y-34.43
X71.9Y-76.0
X76.7Y-54.4
X78.725Y-14.795
X81.788Y-55.499
X82.362Y-14.769
X84.0Y-52.775
X85.4Y-71.1
X88.73Y-34.51
X96.05Y-54.4
X96.605Y-74.2
X101.371Y-55.397
X103.1Y-53.25
X104.4Y-71.0
X107.68Y-34.48
X108.558Y-62.258
X108.601Y-61.282
X114.85Y-54.4
X122.125Y-53.8
X123.5Y-71.1
X124.0Y-50.75
X125.842Y-74.2
X126.73Y-34.53
X134.05Y-54.4
X140.9Y-51.45
X142.5Y-71.1
X145.88Y-34.53
X153.3Y-54.5
X161.6Y-71.1
X163.6Y-74.2
X164.6Y-34.52
X172.25Y-54.4
X180.7Y-71.1
X183.76Y-34.56
X191.375Y-54.475
X196.77Y-36.52
X199.7Y-71.1
X210.5Y-54.4
X211.019Y-34.55
X213.8Y-76.0
X215.44Y-80.62
X217.74Y-37.21
X218.8Y-71.1
X221.83Y-34.53
X229.15Y-54.4
X236.86Y-37.9
X237.7Y-71.1
X239.3Y-69.2
X240.0Y-54.4
X240.888Y-76.388
X241.1Y-34.56
X241.583Y-80.66
X247.2Y-54.6
X257.685Y-23.69
X258.1Y-37.36
X259.8Y-77.4
X260.1Y-54.3
X260.506Y-48.51
X262.1Y-72.7
X263.79Y-80.68
X263.926Y-9.466
X266.2Y-69.2
X273.685Y-54.174
T3
X109.719Y-75.953
X111.719Y-75.953
X113.567Y-85.347
X115.567Y-85.347
T5
X25.575Y-28.225
T6
X4.445Y-6.985
X6.985Y-13.335
X8.096Y-45.085
X8.096Y-64.135
X8.096Y-83.185
X10.477Y-26.035
X11.747Y-90.805
X14.129Y-52.705
X14.446Y-42.545
X14.446Y-61.595
X14.446Y-80.645
X16.828Y-23.495
X18.098Y-88.265
X18.891Y-71.755
X20.479Y-50.165
X25.241Y-69.215
X29.527Y-64.135
X31.115Y-5.715
X31.909Y-83.185
X33.655Y-12.065
X34.29Y-26.035
X35.56Y-90.805
X35.877Y-61.595
X38.259Y-80.645
X39.052Y-45.085
X40.64Y-23.495
X41.91Y-88.265
X43.815Y-6.985
X45.402Y-42.545
X48.578Y-64.135
X50.165Y-4.445
X53.34Y-26.035
X54.927Y-61.595
X55.721Y-83.185
X58.102Y-45.085
X59.372Y-90.805
X59.69Y-23.495
X62.071Y-80.645
X62.865Y-6.985
X64.453Y-42.545
X65.722Y-88.265
X67.627Y-64.135
X69.215Y-4.445
X72.39Y-26.035
X73.977Y-61.595
X77.153Y-45.085
X78.74Y-23.495
X81.915Y-6.985
X83.502Y-42.545
X86.677Y-64.135
X87.789Y-83.185
X88.265Y-4.445
X90.329Y-89.535
X91.44Y-26.035
X93.027Y-61.595
X96.203Y-45.085
X97.79Y-23.495
X100.965Y-6.985
X100.965Y-83.185
X102.552Y-42.545
X105.727Y-64.135
X107.315Y-4.445
X107.315Y-80.645
X110.49Y-26.035
X112.078Y-61.595
X115.252Y-45.085
X116.84Y-23.495
X120.015Y-6.985
X121.602Y-42.545
X122.396Y-83.185
X124.777Y-64.135
X126.365Y-4.445
X128.429Y-90.805
X128.746Y-80.645
X129.54Y-26.035
X131.127Y-61.595
X134.302Y-45.085
X134.779Y-88.265
X135.89Y-23.495
X139.065Y-6.985
X139.065Y-83.185
X140.653Y-42.545
X143.827Y-64.135
X145.415Y-4.445
X145.415Y-80.645
X148.59Y-26.035
X150.177Y-61.595
X153.352Y-45.085
X154.94Y-23.495
X158.115Y-6.985
X159.226Y-83.185
X159.702Y-42.545
X161.766Y-89.535
X162.877Y-64.135
X164.465Y-4.445
X167.64Y-26.035
X169.227Y-61.595
X172.403Y-45.085
X173.99Y-23.495
X177.165Y-6.985
X177.165Y-83.185
X178.752Y-42.545
X181.927Y-64.135
X183.515Y-4.445
X183.515Y-80.645
X186.69Y-26.035
X188.278Y-61.595
X191.452Y-45.085
X193.04Y-23.495
X196.215Y-6.985
X197.802Y-42.545
X198.596Y-83.185
X200.977Y-64.135
X202.565Y-4.445
X204.946Y-80.645
X205.74Y-26.035
X207.327Y-61.595
X210.502Y-45.085
X212.09Y-23.495
X215.265Y-6.985
X216.852Y-42.545
X220.028Y-64.135
X220.028Y-83.185
X221.615Y-4.445
X223.679Y-90.805
X224.79Y-26.035
X226.377Y-61.595
X226.377Y-80.645
X229.552Y-45.085
X230.029Y-88.265
X231.14Y-23.495
X234.315Y-6.985
X235.903Y-42.545
X240.665Y-4.445
X243.84Y-26.035
X243.84Y-83.185
X247.332Y-45.085
X247.491Y-71.755
X247.491Y-90.805
X249.873Y-51.435
X250.19Y-23.495
X250.19Y-80.645
X253.841Y-69.215
X253.841Y-88.265
X254.635Y-14.605
X255.746Y-64.135
X259.239Y-45.085
X260.985Y-12.065
X261.779Y-51.435
X262.096Y-61.595
X262.89Y-6.985
X267.652Y-83.185
X268.764Y-35.56
X269.24Y-4.445
X271.304Y-41.91
X271.304Y-90.805
X273.685Y-14.605
X273.685Y-71.755
X274.002Y-24.765
X274.002Y-80.645
X276.542Y-31.115
X277.654Y-88.265
X280.035Y-12.065
X280.035Y-69.215
T2
G00X14.255Y-1.125
M15
G01X14.255Y-1.725
M16
G05
G00X14.255Y-5.055
M15
G01X14.255Y-6.155
M16
G05
G00X22.895Y-1.125
M15
G01X22.895Y-1.725
M16
G05
G00X22.895Y-5.055
M15
G01X22.895Y-6.155
M16
G05
T4
G00X127.324Y-47.325
M15
G01X129.826Y-47.325
M16
G05
G00X189.624Y-85.525
M15
G01X192.126Y-85.525
M16
G05
G00X259.174Y-28.225
M15
G01X261.676Y-28.225
M16
G05
M30
