G04 #@! TF.GenerationSoftware,KiCad,Pcbnew,10.0.1*
G04 #@! TF.CreationDate,2026-04-19T19:03:24+08:00*
G04 #@! TF.ProjectId,PH60_Rev3,50483630-5f52-4657-9633-2e6b69636164,rev?*
G04 #@! TF.SameCoordinates,PX1b40518PY1b40518*
G04 #@! TF.FileFunction,Paste,Bot*
G04 #@! TF.FilePolarity,Positive*
%FSLAX46Y46*%
G04 Gerber Fmt 4.6, Leading zero omitted, Abs format (unit mm)*
G04 Created by KiCad (PCBNEW 10.0.1) date 2026-04-19 19:03:24*
%MOMM*%
%LPD*%
G01*
G04 APERTURE LIST*
G04 Aperture macros list*
%AMRoundRect*
0 Rectangle with rounded corners*
0 $1 Rounding radius*
0 $2 $3 $4 $5 $6 $7 $8 $9 X,Y pos of 4 corners*
0 Add a 4 corners polygon primitive as box body*
4,1,4,$2,$3,$4,$5,$6,$7,$8,$9,$2,$3,0*
0 Add four circle primitives for the rounded corners*
1,1,$1+$1,$2,$3*
1,1,$1+$1,$4,$5*
1,1,$1+$1,$6,$7*
1,1,$1+$1,$8,$9*
0 Add four rect primitives between the rounded corners*
20,1,$1+$1,$2,$3,$4,$5,0*
20,1,$1+$1,$4,$5,$6,$7,0*
20,1,$1+$1,$6,$7,$8,$9,0*
20,1,$1+$1,$8,$9,$2,$3,0*%
G04 Aperture macros list end*
%ADD10RoundRect,0.250000X-1.025000X-1.000000X1.025000X-1.000000X1.025000X1.000000X-1.025000X1.000000X0*%
%ADD11RoundRect,0.250000X1.025000X1.000000X-1.025000X1.000000X-1.025000X-1.000000X1.025000X-1.000000X0*%
%ADD12RoundRect,0.250000X1.000000X-1.025000X1.000000X1.025000X-1.000000X1.025000X-1.000000X-1.025000X0*%
%ADD13RoundRect,0.250000X-1.000000X1.025000X-1.000000X-1.025000X1.000000X-1.025000X1.000000X1.025000X0*%
%ADD14RoundRect,0.225000X0.375000X-0.225000X0.375000X0.225000X-0.375000X0.225000X-0.375000X-0.225000X0*%
%ADD15RoundRect,0.175000X0.175000X0.325000X-0.175000X0.325000X-0.175000X-0.325000X0.175000X-0.325000X0*%
%ADD16RoundRect,0.150000X0.200000X0.150000X-0.200000X0.150000X-0.200000X-0.150000X0.200000X-0.150000X0*%
%ADD17RoundRect,0.140000X-0.170000X0.140000X-0.170000X-0.140000X0.170000X-0.140000X0.170000X0.140000X0*%
%ADD18RoundRect,0.140000X0.140000X0.170000X-0.140000X0.170000X-0.140000X-0.170000X0.140000X-0.170000X0*%
%ADD19RoundRect,0.225000X-0.375000X0.225000X-0.375000X-0.225000X0.375000X-0.225000X0.375000X0.225000X0*%
%ADD20RoundRect,0.140000X0.170000X-0.140000X0.170000X0.140000X-0.170000X0.140000X-0.170000X-0.140000X0*%
%ADD21RoundRect,0.140000X-0.140000X-0.170000X0.140000X-0.170000X0.140000X0.170000X-0.140000X0.170000X0*%
%ADD22RoundRect,0.200000X0.200000X-0.250000X0.200000X0.250000X-0.200000X0.250000X-0.200000X-0.250000X0*%
%ADD23RoundRect,0.218750X0.256250X-0.218750X0.256250X0.218750X-0.256250X0.218750X-0.256250X-0.218750X0*%
%ADD24RoundRect,0.050000X-0.285000X-0.100000X0.285000X-0.100000X0.285000X0.100000X-0.285000X0.100000X0*%
%ADD25RoundRect,0.135000X-0.185000X0.135000X-0.185000X-0.135000X0.185000X-0.135000X0.185000X0.135000X0*%
%ADD26RoundRect,0.147500X-0.147500X-0.172500X0.147500X-0.172500X0.147500X0.172500X-0.147500X0.172500X0*%
%ADD27RoundRect,0.225000X-0.225000X-0.375000X0.225000X-0.375000X0.225000X0.375000X-0.225000X0.375000X0*%
%ADD28RoundRect,0.225000X0.225000X0.375000X-0.225000X0.375000X-0.225000X-0.375000X0.225000X-0.375000X0*%
%ADD29RoundRect,0.250000X-0.650000X0.250000X-0.650000X-0.250000X0.650000X-0.250000X0.650000X0.250000X0*%
%ADD30RoundRect,0.147500X-0.172500X0.147500X-0.172500X-0.147500X0.172500X-0.147500X0.172500X0.147500X0*%
%ADD31RoundRect,0.200000X0.200000X0.600000X-0.200000X0.600000X-0.200000X-0.600000X0.200000X-0.600000X0*%
%ADD32RoundRect,0.250001X0.799999X1.249999X-0.799999X1.249999X-0.799999X-1.249999X0.799999X-1.249999X0*%
%ADD33RoundRect,0.135000X0.185000X-0.135000X0.185000X0.135000X-0.185000X0.135000X-0.185000X-0.135000X0*%
%ADD34RoundRect,0.135000X-0.135000X-0.185000X0.135000X-0.185000X0.135000X0.185000X-0.135000X0.185000X0*%
%ADD35RoundRect,0.150000X0.512500X0.150000X-0.512500X0.150000X-0.512500X-0.150000X0.512500X-0.150000X0*%
%ADD36RoundRect,0.218750X-0.218750X-0.256250X0.218750X-0.256250X0.218750X0.256250X-0.218750X0.256250X0*%
%ADD37R,1.700000X1.700000*%
%ADD38C,0.250000*%
%ADD39RoundRect,0.225000X0.225000X0.250000X-0.225000X0.250000X-0.225000X-0.250000X0.225000X-0.250000X0*%
%ADD40RoundRect,0.150000X-0.150000X-0.670000X0.150000X-0.670000X0.150000X0.670000X-0.150000X0.670000X0*%
%ADD41RoundRect,0.075000X-0.075000X-0.745000X0.075000X-0.745000X0.075000X0.745000X-0.075000X0.745000X0*%
G04 APERTURE END LIST*
D10*
G04 #@! TO.C,S20*
X107215000Y-26035000D03*
X120142000Y-23495000D03*
G04 #@! TD*
G04 #@! TO.C,S19*
X88165000Y-26035000D03*
X101092000Y-23495000D03*
G04 #@! TD*
G04 #@! TO.C,S43*
X4821250Y-64135000D03*
X17748250Y-61595000D03*
G04 #@! TD*
G04 #@! TO.C,S47*
X83402500Y-64135000D03*
X96329500Y-61595000D03*
G04 #@! TD*
G04 #@! TO.C,S4*
X59590000Y-6985000D03*
X72517000Y-4445000D03*
G04 #@! TD*
G04 #@! TO.C,S7*
X116740000Y-6985000D03*
X129667000Y-4445000D03*
G04 #@! TD*
D11*
G04 #@! TO.C,S57-1*
X21372500Y-88265000D03*
X8445500Y-90805000D03*
G04 #@! TD*
D10*
G04 #@! TO.C,S12*
X211990000Y-6985000D03*
X224917000Y-4445000D03*
G04 #@! TD*
G04 #@! TO.C,S3*
X40540000Y-6985000D03*
X53467000Y-4445000D03*
G04 #@! TD*
D11*
G04 #@! TO.C,S62*
X233303750Y-88265000D03*
X220376750Y-90805000D03*
G04 #@! TD*
D10*
G04 #@! TO.C,S15*
X7202500Y-26035000D03*
X20129500Y-23495000D03*
G04 #@! TD*
G04 #@! TO.C,S25*
X202465000Y-26035000D03*
X215392000Y-23495000D03*
G04 #@! TD*
D12*
G04 #@! TO.C,S1*
X6985000Y-16610000D03*
X4445000Y-3683000D03*
G04 #@! TD*
D10*
G04 #@! TO.C,S63-1*
X240565000Y-83185000D03*
X253492000Y-80645000D03*
G04 #@! TD*
G04 #@! TO.C,S9*
X154840000Y-6985000D03*
X167767000Y-4445000D03*
G04 #@! TD*
G04 #@! TO.C,S44*
X26252500Y-64135000D03*
X39179500Y-61595000D03*
G04 #@! TD*
G04 #@! TO.C,S23*
X164365000Y-26035000D03*
X177292000Y-23495000D03*
G04 #@! TD*
G04 #@! TO.C,S64-1*
X264377500Y-83185000D03*
X277304500Y-80645000D03*
G04 #@! TD*
G04 #@! TO.C,S65*
X28633750Y-83185000D03*
X41560750Y-80645000D03*
G04 #@! TD*
D12*
G04 #@! TO.C,S60-1-b1*
X161766250Y-92810000D03*
X159226250Y-79883000D03*
G04 #@! TD*
D10*
G04 #@! TO.C,S59*
X4821250Y-83185000D03*
X17748250Y-80645000D03*
G04 #@! TD*
G04 #@! TO.C,S14*
X259615000Y-6985000D03*
X272542000Y-4445000D03*
G04 #@! TD*
G04 #@! TO.C,S16*
X31015000Y-26035000D03*
X43942000Y-23495000D03*
G04 #@! TD*
G04 #@! TO.C,S24*
X183415000Y-26035000D03*
X196342000Y-23495000D03*
G04 #@! TD*
G04 #@! TO.C,S32*
X54827500Y-45085000D03*
X67754500Y-42545000D03*
G04 #@! TD*
G04 #@! TO.C,S34*
X92927500Y-45085000D03*
X105854500Y-42545000D03*
G04 #@! TD*
G04 #@! TO.C,S35*
X111977500Y-45085000D03*
X124904500Y-42545000D03*
G04 #@! TD*
D11*
G04 #@! TO.C,S64*
X280928750Y-88265000D03*
X268001750Y-90805000D03*
G04 #@! TD*
D10*
G04 #@! TO.C,S46*
X64352500Y-64135000D03*
X77279500Y-61595000D03*
G04 #@! TD*
G04 #@! TO.C,S50*
X140552500Y-64135000D03*
X153479500Y-61595000D03*
G04 #@! TD*
G04 #@! TO.C,S22*
X145315000Y-26035000D03*
X158242000Y-23495000D03*
G04 #@! TD*
D12*
G04 #@! TO.C,S29*
X249872500Y-54710000D03*
X247332500Y-41783000D03*
G04 #@! TD*
D10*
G04 #@! TO.C,S62-1*
X216752500Y-83185000D03*
X229679500Y-80645000D03*
G04 #@! TD*
G04 #@! TO.C,S27*
X240565000Y-26035000D03*
X253492000Y-23495000D03*
G04 #@! TD*
G04 #@! TO.C,S60-1*
X135790000Y-83185000D03*
X148717000Y-80645000D03*
G04 #@! TD*
G04 #@! TO.C,S8*
X135790000Y-6985000D03*
X148717000Y-4445000D03*
G04 #@! TD*
G04 #@! TO.C,S38*
X169127500Y-45085000D03*
X182054500Y-42545000D03*
G04 #@! TD*
D11*
G04 #@! TO.C,S55*
X257116250Y-69215000D03*
X244189250Y-71755000D03*
G04 #@! TD*
D10*
G04 #@! TO.C,S21*
X126265000Y-26035000D03*
X139192000Y-23495000D03*
G04 #@! TD*
G04 #@! TO.C,S11*
X192940000Y-6985000D03*
X205867000Y-4445000D03*
G04 #@! TD*
D11*
G04 #@! TO.C,S60-2*
X138053750Y-88265000D03*
X125126750Y-90805000D03*
G04 #@! TD*
D10*
G04 #@! TO.C,S52*
X178652500Y-64135000D03*
X191579500Y-61595000D03*
G04 #@! TD*
D11*
G04 #@! TO.C,S63*
X257116250Y-88265000D03*
X244189250Y-90805000D03*
G04 #@! TD*
D10*
G04 #@! TO.C,S31*
X35777500Y-45085000D03*
X48704500Y-42545000D03*
G04 #@! TD*
G04 #@! TO.C,S39*
X188177500Y-45085000D03*
X201104500Y-42545000D03*
G04 #@! TD*
G04 #@! TO.C,S36*
X131027500Y-45085000D03*
X143954500Y-42545000D03*
G04 #@! TD*
G04 #@! TO.C,S40*
X207227500Y-45085000D03*
X220154500Y-42545000D03*
G04 #@! TD*
G04 #@! TO.C,S48*
X102452500Y-64135000D03*
X115379500Y-61595000D03*
G04 #@! TD*
G04 #@! TO.C,S18*
X69115000Y-26035000D03*
X82042000Y-23495000D03*
G04 #@! TD*
D12*
G04 #@! TO.C,S42*
X261778750Y-54710000D03*
X259238750Y-41783000D03*
G04 #@! TD*
D10*
G04 #@! TO.C,S45*
X45302500Y-64135000D03*
X58229500Y-61595000D03*
G04 #@! TD*
G04 #@! TO.C,S13*
X231040000Y-6985000D03*
X243967000Y-4445000D03*
G04 #@! TD*
G04 #@! TO.C,S26*
X221515000Y-26035000D03*
X234442000Y-23495000D03*
G04 #@! TD*
G04 #@! TO.C,S5*
X78640000Y-6985000D03*
X91567000Y-4445000D03*
G04 #@! TD*
G04 #@! TO.C,S17*
X50065000Y-26035000D03*
X62992000Y-23495000D03*
G04 #@! TD*
G04 #@! TO.C,S33*
X73877500Y-45085000D03*
X86804500Y-42545000D03*
G04 #@! TD*
G04 #@! TO.C,S55-1*
X252471250Y-64135000D03*
X265398250Y-61595000D03*
G04 #@! TD*
G04 #@! TO.C,S37*
X150077500Y-45085000D03*
X163004500Y-42545000D03*
G04 #@! TD*
G04 #@! TO.C,S49*
X121502500Y-64135000D03*
X134429500Y-61595000D03*
G04 #@! TD*
G04 #@! TO.C,S57*
X119121250Y-83185000D03*
X132048250Y-80645000D03*
G04 #@! TD*
G04 #@! TO.C,S53*
X197702500Y-64135000D03*
X210629500Y-61595000D03*
G04 #@! TD*
G04 #@! TO.C,S10*
X173890000Y-6985000D03*
X186817000Y-4445000D03*
G04 #@! TD*
D11*
G04 #@! TO.C,S56*
X283310000Y-69215000D03*
X270383000Y-71755000D03*
G04 #@! TD*
D13*
G04 #@! TO.C,S28*
X274002500Y-21490000D03*
X276542500Y-34417000D03*
G04 #@! TD*
D10*
G04 #@! TO.C,S61*
X195321250Y-83185000D03*
X208248250Y-80645000D03*
G04 #@! TD*
D11*
G04 #@! TO.C,S14-2*
X264260000Y-12065000D03*
X251333000Y-14605000D03*
G04 #@! TD*
G04 #@! TO.C,S14-1*
X283310000Y-12065000D03*
X270383000Y-14605000D03*
G04 #@! TD*
D10*
G04 #@! TO.C,S54*
X216752500Y-64135000D03*
X229679500Y-61595000D03*
G04 #@! TD*
G04 #@! TO.C,S51*
X159602500Y-64135000D03*
X172529500Y-61595000D03*
G04 #@! TD*
D11*
G04 #@! TO.C,S58-1*
X45185000Y-88265000D03*
X32258000Y-90805000D03*
G04 #@! TD*
D10*
G04 #@! TO.C,S60-1-a2*
X97690000Y-83185000D03*
X110617000Y-80645000D03*
G04 #@! TD*
D12*
G04 #@! TO.C,S41-1*
X271303750Y-45185000D03*
X268763750Y-32258000D03*
G04 #@! TD*
D10*
G04 #@! TO.C,S29-1*
X4821250Y-45085000D03*
X17748250Y-42545000D03*
G04 #@! TD*
D11*
G04 #@! TO.C,S30*
X23753750Y-50165000D03*
X10826750Y-52705000D03*
G04 #@! TD*
D10*
G04 #@! TO.C,S6*
X97690000Y-6985000D03*
X110617000Y-4445000D03*
G04 #@! TD*
G04 #@! TO.C,S60*
X52446250Y-83185000D03*
X65373250Y-80645000D03*
G04 #@! TD*
D11*
G04 #@! TO.C,S59-1*
X68997500Y-88265000D03*
X56070500Y-90805000D03*
G04 #@! TD*
G04 #@! TO.C,S43-1*
X28516250Y-69215000D03*
X15589250Y-71755000D03*
G04 #@! TD*
D10*
G04 #@! TO.C,S60-1-b2*
X173890000Y-83185000D03*
X186817000Y-80645000D03*
G04 #@! TD*
D13*
G04 #@! TO.C,S2*
X31115000Y-2440000D03*
X33655000Y-15367000D03*
G04 #@! TD*
D12*
G04 #@! TO.C,S60-1-a1*
X90328750Y-92810000D03*
X87788750Y-79883000D03*
G04 #@! TD*
D10*
G04 #@! TO.C,S41*
X226277500Y-45085000D03*
X239204500Y-42545000D03*
G04 #@! TD*
D14*
G04 #@! TO.C,D2*
X37349000Y-15423500D03*
X37349000Y-12123500D03*
G04 #@! TD*
D15*
G04 #@! TO.C,D1*
X19098000Y-11752000D03*
D16*
X19098000Y-13452000D03*
X17098000Y-13452000D03*
X17098000Y-11552000D03*
G04 #@! TD*
D17*
G04 #@! TO.C,C22*
X23100000Y-45520000D03*
X23100000Y-46480000D03*
G04 #@! TD*
D14*
G04 #@! TO.C,D47*
X66357500Y-72555000D03*
X66357500Y-69255000D03*
G04 #@! TD*
G04 #@! TO.C,D33*
X75882500Y-53505000D03*
X75882500Y-50205000D03*
G04 #@! TD*
G04 #@! TO.C,D35*
X113982500Y-53505000D03*
X113982500Y-50205000D03*
G04 #@! TD*
D18*
G04 #@! TO.C,C3*
X32780000Y-42950000D03*
X31820000Y-42950000D03*
G04 #@! TD*
D19*
G04 #@! TO.C,D42*
X242412500Y-52505000D03*
X242412500Y-55805000D03*
G04 #@! TD*
D18*
G04 #@! TO.C,C23*
X60707000Y-18083000D03*
X59747000Y-18083000D03*
G04 #@! TD*
D14*
G04 #@! TO.C,D57*
X264400000Y-72550000D03*
X264400000Y-69250000D03*
G04 #@! TD*
G04 #@! TO.C,D51*
X142557500Y-72555000D03*
X142557500Y-69255000D03*
G04 #@! TD*
D20*
G04 #@! TO.C,C5*
X29634000Y-46676000D03*
X29634000Y-45716000D03*
G04 #@! TD*
D14*
G04 #@! TO.C,D52*
X161607500Y-72555000D03*
X161607500Y-69255000D03*
G04 #@! TD*
D20*
G04 #@! TO.C,C15*
X23600000Y-33830000D03*
X23600000Y-32870000D03*
G04 #@! TD*
D14*
G04 #@! TO.C,D6*
X80645000Y-15425000D03*
X80645000Y-12125000D03*
G04 #@! TD*
D20*
G04 #@! TO.C,C6*
X30641000Y-46685000D03*
X30641000Y-45725000D03*
G04 #@! TD*
D14*
G04 #@! TO.C,D39*
X190182500Y-53505000D03*
X190182500Y-50205000D03*
G04 #@! TD*
G04 #@! TO.C,D53*
X180657500Y-72555000D03*
X180657500Y-69255000D03*
G04 #@! TD*
D18*
G04 #@! TO.C,C12*
X20702000Y-39436000D03*
X19742000Y-39436000D03*
G04 #@! TD*
D19*
G04 #@! TO.C,D62*
X127798000Y-74028500D03*
X127798000Y-77328500D03*
G04 #@! TD*
D20*
G04 #@! TO.C,C19*
X30718000Y-35351000D03*
X30718000Y-34391000D03*
G04 #@! TD*
D14*
G04 #@! TO.C,D49*
X104457500Y-72555000D03*
X104457500Y-69255000D03*
G04 #@! TD*
G04 #@! TO.C,D21*
X109220000Y-34475000D03*
X109220000Y-31175000D03*
G04 #@! TD*
D21*
G04 #@! TO.C,C2*
X20729000Y-41656000D03*
X21689000Y-41656000D03*
G04 #@! TD*
D14*
G04 #@! TO.C,D43*
X242390000Y-50017500D03*
X242390000Y-46717500D03*
G04 #@! TD*
G04 #@! TO.C,D56*
X237600000Y-72550000D03*
X237600000Y-69250000D03*
G04 #@! TD*
G04 #@! TO.C,D50*
X123507500Y-72555000D03*
X123507500Y-69255000D03*
G04 #@! TD*
D19*
G04 #@! TO.C,D67*
X261462500Y-77345000D03*
X261462500Y-80645000D03*
G04 #@! TD*
D14*
G04 #@! TO.C,D28*
X242430000Y-34475000D03*
X242430000Y-31175000D03*
G04 #@! TD*
D22*
G04 #@! TO.C,X2*
X21120000Y-34140000D03*
X21120000Y-32740000D03*
X22220000Y-32740000D03*
X22220000Y-34140000D03*
G04 #@! TD*
D23*
G04 #@! TO.C,L2*
X29405000Y-35088500D03*
X29405000Y-33513500D03*
G04 #@! TD*
D24*
G04 #@! TO.C,U4*
X21900000Y-14652500D03*
X21900000Y-14152500D03*
X21900000Y-13652500D03*
X21900000Y-13152500D03*
X23380000Y-13152500D03*
X23380000Y-13652500D03*
X23380000Y-14152500D03*
X23380000Y-14652500D03*
G04 #@! TD*
D14*
G04 #@! TO.C,D4*
X42545000Y-15425000D03*
X42545000Y-12125000D03*
G04 #@! TD*
D25*
G04 #@! TO.C,R7*
X16460000Y-8180000D03*
X16460000Y-9200000D03*
G04 #@! TD*
D14*
G04 #@! TO.C,D5*
X61595000Y-15425000D03*
X61595000Y-12125000D03*
G04 #@! TD*
G04 #@! TO.C,D34*
X94932500Y-53505000D03*
X94932500Y-50205000D03*
G04 #@! TD*
G04 #@! TO.C,D18*
X52070000Y-34475000D03*
X52070000Y-31175000D03*
G04 #@! TD*
D26*
G04 #@! TO.C,L3*
X19744000Y-40416000D03*
X20714000Y-40416000D03*
G04 #@! TD*
D17*
G04 #@! TO.C,C1*
X31672000Y-34393000D03*
X31672000Y-35353000D03*
G04 #@! TD*
D27*
G04 #@! TO.C,D29*
X259880000Y-23640000D03*
X263180000Y-23640000D03*
G04 #@! TD*
D19*
G04 #@! TO.C,D66*
X237650000Y-77345000D03*
X237650000Y-80645000D03*
G04 #@! TD*
D14*
G04 #@! TO.C,D32*
X56832500Y-53505000D03*
X56832500Y-50205000D03*
G04 #@! TD*
D28*
G04 #@! TO.C,D30*
X27600000Y-53800000D03*
X24300000Y-53800000D03*
G04 #@! TD*
D14*
G04 #@! TO.C,D41*
X228282500Y-53505000D03*
X228282500Y-50205000D03*
G04 #@! TD*
D20*
G04 #@! TO.C,C11*
X53388000Y-12779000D03*
X53388000Y-11819000D03*
G04 #@! TD*
D29*
G04 #@! TO.C,X1*
X33523000Y-37346000D03*
X33523000Y-34846000D03*
G04 #@! TD*
D21*
G04 #@! TO.C,C18*
X31820000Y-41950000D03*
X32780000Y-41950000D03*
G04 #@! TD*
D14*
G04 #@! TO.C,D48*
X85407500Y-72555000D03*
X85407500Y-69255000D03*
G04 #@! TD*
G04 #@! TO.C,D10*
X156845000Y-15425000D03*
X156845000Y-12125000D03*
G04 #@! TD*
G04 #@! TO.C,D46*
X47307500Y-72555000D03*
X47307500Y-69255000D03*
G04 #@! TD*
G04 #@! TO.C,D55*
X218757500Y-72555000D03*
X218757500Y-69255000D03*
G04 #@! TD*
D18*
G04 #@! TO.C,C14*
X22140000Y-35340000D03*
X21180000Y-35340000D03*
G04 #@! TD*
D14*
G04 #@! TO.C,D8*
X118745000Y-15425000D03*
X118745000Y-12125000D03*
G04 #@! TD*
G04 #@! TO.C,D54*
X199707500Y-72555000D03*
X199707500Y-69255000D03*
G04 #@! TD*
D18*
G04 #@! TO.C,C16*
X19316000Y-37014000D03*
X18356000Y-37014000D03*
G04 #@! TD*
D14*
G04 #@! TO.C,D25*
X185420000Y-34475000D03*
X185420000Y-31175000D03*
G04 #@! TD*
D19*
G04 #@! TO.C,D61*
X98484000Y-74356000D03*
X98484000Y-77656000D03*
G04 #@! TD*
D30*
G04 #@! TO.C,L6*
X28016000Y-34392000D03*
X28016000Y-35362000D03*
G04 #@! TD*
D21*
G04 #@! TO.C,R4*
X7768000Y-39432000D03*
X8728000Y-39432000D03*
G04 #@! TD*
D14*
G04 #@! TO.C,D40*
X209232500Y-53505000D03*
X209232500Y-50205000D03*
G04 #@! TD*
G04 #@! TO.C,D22*
X128270000Y-34475000D03*
X128270000Y-31175000D03*
G04 #@! TD*
D25*
G04 #@! TO.C,R2*
X23979000Y-10869000D03*
X23979000Y-11889000D03*
G04 #@! TD*
D17*
G04 #@! TO.C,C20*
X26700000Y-45670000D03*
X26700000Y-46630000D03*
G04 #@! TD*
G04 #@! TO.C,R6*
X27730793Y-45675000D03*
X27730793Y-46635000D03*
G04 #@! TD*
D14*
G04 #@! TO.C,D11*
X175895000Y-15425000D03*
X175895000Y-12125000D03*
G04 #@! TD*
G04 #@! TO.C,D3*
X39890000Y-15420000D03*
X39890000Y-12120000D03*
G04 #@! TD*
G04 #@! TO.C,D26*
X212946000Y-34537000D03*
X212946000Y-31237000D03*
G04 #@! TD*
D17*
G04 #@! TO.C,R5*
X28650793Y-45675000D03*
X28650793Y-46635000D03*
G04 #@! TD*
G04 #@! TO.C,C13*
X21668000Y-39466000D03*
X21668000Y-40426000D03*
G04 #@! TD*
D14*
G04 #@! TO.C,D45*
X42862500Y-72555000D03*
X42862500Y-69255000D03*
G04 #@! TD*
D19*
G04 #@! TO.C,D15*
X249490000Y-3522500D03*
X249490000Y-6822500D03*
G04 #@! TD*
D31*
G04 #@! TO.C,BT1*
X201833000Y-29821000D03*
X200583000Y-29821000D03*
D32*
X204383000Y-32721000D03*
X198033000Y-32721000D03*
G04 #@! TD*
D19*
G04 #@! TO.C,D58*
X24287500Y-77345000D03*
X24287500Y-80645000D03*
G04 #@! TD*
D14*
G04 #@! TO.C,D17*
X40835000Y-34471000D03*
X40835000Y-31171000D03*
G04 #@! TD*
D17*
G04 #@! TO.C,C8*
X35307000Y-34554000D03*
X35307000Y-35514000D03*
G04 #@! TD*
D14*
G04 #@! TO.C,D14*
X233045000Y-15425000D03*
X233045000Y-12125000D03*
G04 #@! TD*
G04 #@! TO.C,D44*
X38417500Y-72555000D03*
X38417500Y-69255000D03*
G04 #@! TD*
G04 #@! TO.C,D16*
X10986000Y-34627000D03*
X10986000Y-31327000D03*
G04 #@! TD*
G04 #@! TO.C,D7*
X99695000Y-15425000D03*
X99695000Y-12125000D03*
G04 #@! TD*
D19*
G04 #@! TO.C,D60*
X71912500Y-77345000D03*
X71912500Y-80645000D03*
G04 #@! TD*
D14*
G04 #@! TO.C,D27*
X223520000Y-34475000D03*
X223520000Y-31175000D03*
G04 #@! TD*
D27*
G04 #@! TO.C,D14-1*
X247000000Y-17800000D03*
X250300000Y-17800000D03*
G04 #@! TD*
D33*
G04 #@! TO.C,R3*
X54800000Y-9620000D03*
X54800000Y-8600000D03*
G04 #@! TD*
D14*
G04 #@! TO.C,D19*
X71120000Y-34475000D03*
X71120000Y-31175000D03*
G04 #@! TD*
D17*
G04 #@! TO.C,C7*
X31840000Y-45400000D03*
X31840000Y-46360000D03*
G04 #@! TD*
D19*
G04 #@! TO.C,D65*
X213837500Y-77345000D03*
X213837500Y-80645000D03*
G04 #@! TD*
D14*
G04 #@! TO.C,D24*
X166370000Y-34475000D03*
X166370000Y-31175000D03*
G04 #@! TD*
D34*
G04 #@! TO.C,R1*
X21760000Y-10910000D03*
X22780000Y-10910000D03*
G04 #@! TD*
D35*
G04 #@! TO.C,U1*
X57131500Y-10865000D03*
X57131500Y-11815000D03*
X57131500Y-12765000D03*
X54856500Y-12765000D03*
X54856500Y-11815000D03*
X54856500Y-10865000D03*
G04 #@! TD*
D14*
G04 #@! TO.C,D37*
X152082500Y-53505000D03*
X152082500Y-50205000D03*
G04 #@! TD*
D36*
G04 #@! TO.C,L1*
X32022500Y-44130000D03*
X33597500Y-44130000D03*
G04 #@! TD*
D19*
G04 #@! TO.C,D59*
X48100000Y-77345000D03*
X48100000Y-80645000D03*
G04 #@! TD*
D14*
G04 #@! TO.C,D38*
X171132500Y-53505000D03*
X171132500Y-50205000D03*
G04 #@! TD*
G04 #@! TO.C,D13*
X213995000Y-15425000D03*
X213995000Y-12125000D03*
G04 #@! TD*
D37*
G04 #@! TO.C,U2*
X27852500Y-41552500D03*
X27852500Y-39347500D03*
X25647500Y-41552500D03*
X25647500Y-39347500D03*
D38*
X28000000Y-37200000D03*
X27500000Y-37200000D03*
X27000000Y-37200000D03*
X26500000Y-37200000D03*
X26000000Y-37200000D03*
X25500000Y-37200000D03*
X25000000Y-37200000D03*
X24500000Y-37200000D03*
X24000000Y-37200000D03*
X23500000Y-42700000D03*
X29500000Y-42950000D03*
X28750000Y-43200000D03*
X27750000Y-43200000D03*
X27250000Y-43200000D03*
X26750000Y-43200000D03*
X26250000Y-43200000D03*
X25750000Y-43200000D03*
X25250000Y-43200000D03*
X24750000Y-43200000D03*
X23500000Y-43200000D03*
X29500000Y-43700000D03*
X29000000Y-43700000D03*
X28500000Y-43700000D03*
X28000000Y-43700000D03*
X27500000Y-43700000D03*
X27000000Y-43700000D03*
X26500000Y-43700000D03*
X26000000Y-43700000D03*
X25500000Y-43700000D03*
X25000000Y-43700000D03*
X24500000Y-43700000D03*
X24000000Y-43700000D03*
X30000000Y-37700000D03*
X29250000Y-37700000D03*
X28750000Y-37700000D03*
X28250000Y-37700000D03*
X27750000Y-37700000D03*
X27250000Y-37700000D03*
X26750000Y-37700000D03*
X26250000Y-37700000D03*
X25750000Y-37700000D03*
X25250000Y-37700000D03*
X23500000Y-37700000D03*
X30000000Y-38200000D03*
X29500000Y-38450000D03*
X24000000Y-38450000D03*
X23500000Y-38700000D03*
X29500000Y-38950000D03*
X24000000Y-38950000D03*
X30000000Y-39200000D03*
X29500000Y-39450000D03*
X24000000Y-39450000D03*
X30000000Y-39700000D03*
X23500000Y-39700000D03*
X29500000Y-39950000D03*
X30000000Y-40200000D03*
X23500000Y-40200000D03*
X29500000Y-40450000D03*
X30000000Y-40700000D03*
X23500000Y-40700000D03*
X29500000Y-40950000D03*
X24000000Y-40950000D03*
X30000000Y-41200000D03*
X23500000Y-41200000D03*
X29500000Y-41450000D03*
X24000000Y-41450000D03*
X30000000Y-41700000D03*
X23500000Y-41700000D03*
X24000000Y-41950000D03*
X30000000Y-42200000D03*
X23500000Y-42200000D03*
X29500000Y-42450000D03*
X24000000Y-42450000D03*
G04 #@! TD*
D25*
G04 #@! TO.C,R8*
X20330000Y-8410000D03*
X20330000Y-9430000D03*
G04 #@! TD*
D18*
G04 #@! TO.C,C24*
X8726000Y-38441000D03*
X7766000Y-38441000D03*
G04 #@! TD*
D14*
G04 #@! TO.C,D36*
X133032500Y-53505000D03*
X133032500Y-50205000D03*
G04 #@! TD*
G04 #@! TO.C,D31*
X37782500Y-53505000D03*
X37782500Y-50205000D03*
G04 #@! TD*
D39*
G04 #@! TO.C,C17*
X21295000Y-38230000D03*
X19745000Y-38230000D03*
G04 #@! TD*
D14*
G04 #@! TO.C,D23*
X147320000Y-34475000D03*
X147320000Y-31175000D03*
G04 #@! TD*
D19*
G04 #@! TO.C,D64*
X211397000Y-77324500D03*
X211397000Y-80624500D03*
G04 #@! TD*
D17*
G04 #@! TO.C,C10*
X35350000Y-36595000D03*
X35350000Y-37555000D03*
G04 #@! TD*
D14*
G04 #@! TO.C,D12*
X194945000Y-15425000D03*
X194945000Y-12125000D03*
G04 #@! TD*
D21*
G04 #@! TO.C,C4*
X20646000Y-36904000D03*
X21606000Y-36904000D03*
G04 #@! TD*
D14*
G04 #@! TO.C,D20*
X90170000Y-34475000D03*
X90170000Y-31175000D03*
G04 #@! TD*
D19*
G04 #@! TO.C,D63*
X163643000Y-75427000D03*
X163643000Y-78727000D03*
G04 #@! TD*
D17*
G04 #@! TO.C,C9*
X20700000Y-14460000D03*
X20700000Y-15420000D03*
G04 #@! TD*
D40*
G04 #@! TO.C,J3*
X15375000Y-6430000D03*
X16175000Y-6430000D03*
D41*
X17325000Y-6430000D03*
X18325000Y-6430000D03*
X18825000Y-6430000D03*
X19825000Y-6430000D03*
D40*
X20975000Y-6430000D03*
X21775000Y-6430000D03*
X21775000Y-6430000D03*
X20975000Y-6430000D03*
D41*
X20325000Y-6430000D03*
X19325000Y-6430000D03*
X17825000Y-6430000D03*
X16825000Y-6430000D03*
D40*
X16175000Y-6430000D03*
X15375000Y-6430000D03*
G04 #@! TD*
D14*
G04 #@! TO.C,D9*
X137795000Y-15425000D03*
X137795000Y-12125000D03*
G04 #@! TD*
D20*
G04 #@! TO.C,C21*
X24540000Y-35320000D03*
X24540000Y-34360000D03*
G04 #@! TD*
M02*
