M48
; DRILL file KiCad 10.0.1 date 2026-04-19T19:03:24
; FORMAT={-:-/ absolute / metric / decimal}
; #@! TF.CreationDate,2026-04-19T19:03:24+08:00
; #@! TF.GenerationSoftware,Kicad,Pcbnew,10.0.1
; #@! TF.FileFunction,NonPlated,1,2,NPTH
FMAT,2
METRIC
; #@! TA.AperFunction,NonPlated,NPTH,ComponentDrill
T1C0.650
; #@! TA.AperFunction,NonPlated,NPTH,ComponentDrill
T2C1.750
; #@! TA.AperFunction,NonPlated,NPTH,ComponentDrill
T3C2.499
; #@! TA.AperFunction,NonPlated,NPTH,ComponentDrill
T4C3.048
; #@! TA.AperFunction,NonPlated,NPTH,ComponentDrill
T5C3.988
; #@! TA.AperFunction,NonPlated,NPTH,ComponentDrill
T6C4.000
%
G90
G05
T1
X15.685Y-5.105
X21.465Y-5.105
T2
X6.826Y-47.625
X6.826Y-66.675
X6.826Y-85.725
X9.207Y-28.575
X9.207Y-85.725
X9.525Y-4.445
X9.525Y-14.605
X11.589Y-47.625
X16.351Y-66.675
X16.986Y-47.625
X16.986Y-66.675
X16.986Y-85.725
X19.367Y-28.575
X19.367Y-85.725
X21.749Y-47.625
X26.511Y-66.675
X28.258Y-66.675
X28.575Y-4.445
X28.575Y-14.605
X30.639Y-85.725
X33.02Y-28.575
X33.02Y-85.725
X37.782Y-47.625
X38.417Y-66.675
X40.799Y-85.725
X42.545Y-9.525
X43.18Y-28.575
X43.18Y-85.725
X47.307Y-66.675
X47.942Y-47.625
X52.07Y-28.575
X52.705Y-9.525
X54.451Y-85.725
X56.832Y-47.625
X56.832Y-85.725
X57.467Y-66.675
X61.595Y-9.525
X62.23Y-28.575
X64.611Y-85.725
X66.358Y-66.675
X66.992Y-47.625
X66.992Y-85.725
X71.12Y-28.575
X71.755Y-9.525
X75.882Y-47.625
X76.517Y-66.675
X80.645Y-9.525
X81.28Y-28.575
X85.407Y-66.675
X86.042Y-47.625
X90.17Y-28.575
X90.805Y-9.525
X92.869Y-80.645
X92.869Y-90.805
X94.932Y-47.625
X95.567Y-66.675
X99.695Y-9.525
X99.695Y-85.725
X100.33Y-28.575
X104.457Y-66.675
X105.093Y-47.625
X109.22Y-28.575
X109.855Y-9.525
X109.855Y-85.725
X113.983Y-47.625
X114.617Y-66.675
X118.745Y-9.525
X119.38Y-28.575
X121.126Y-85.725
X123.507Y-66.675
X124.142Y-47.625
X125.889Y-85.725
X128.27Y-28.575
X128.905Y-9.525
X131.286Y-85.725
X133.032Y-47.625
X133.667Y-66.675
X136.049Y-85.725
X137.795Y-9.525
X137.795Y-85.725
X138.43Y-28.575
X142.558Y-66.675
X143.192Y-47.625
X147.32Y-28.575
X147.955Y-9.525
X147.955Y-85.725
X152.082Y-47.625
X152.718Y-66.675
X156.845Y-9.525
X157.48Y-28.575
X161.607Y-66.675
X162.243Y-47.625
X164.306Y-80.645
X164.306Y-90.805
X166.37Y-28.575
X167.005Y-9.525
X171.132Y-47.625
X171.767Y-66.675
X175.895Y-9.525
X175.895Y-85.725
X176.53Y-28.575
X180.657Y-66.675
X181.292Y-47.625
X185.42Y-28.575
X186.055Y-9.525
X186.055Y-85.725
X190.183Y-47.625
X190.817Y-66.675
X194.945Y-9.525
X195.58Y-28.575
X197.326Y-85.725
X199.707Y-66.675
X200.343Y-47.625
X204.47Y-28.575
X205.105Y-9.525
X207.486Y-85.725
X209.232Y-47.625
X209.867Y-66.675
X213.995Y-9.525
X214.63Y-28.575
X218.757Y-66.675
X218.757Y-85.725
X219.392Y-47.625
X221.139Y-85.725
X223.52Y-28.575
X224.155Y-9.525
X228.282Y-47.625
X228.917Y-66.675
X228.917Y-85.725
X231.299Y-85.725
X233.045Y-9.525
X233.68Y-28.575
X238.442Y-47.625
X242.57Y-28.575
X242.57Y-85.725
X243.205Y-9.525
X244.951Y-66.675
X244.951Y-85.725
X252.095Y-9.525
X252.412Y-42.545
X252.412Y-52.705
X252.73Y-28.575
X252.73Y-85.725
X254.476Y-66.675
X255.111Y-66.675
X255.111Y-85.725
X261.62Y-9.525
X262.255Y-9.525
X264.319Y-42.545
X264.319Y-52.705
X264.636Y-66.675
X266.382Y-85.725
X268.764Y-85.725
X271.145Y-9.525
X271.145Y-66.675
X271.462Y-23.495
X271.462Y-33.655
X271.78Y-9.525
X273.844Y-33.02
X273.844Y-43.18
X276.542Y-85.725
X278.924Y-85.725
X281.305Y-9.525
X281.305Y-66.675
T4
X9.493Y-73.66
X33.369Y-73.66
X80.931Y-92.71
X80.969Y-92.71
X85.725Y-92.71
X92.837Y-92.71
X104.807Y-92.71
X116.713Y-92.71
X152.368Y-92.71
X169.037Y-92.71
X176.244Y-92.71
X180.969Y-92.71
X192.913Y-92.71
X200.025Y-92.71
X247.618Y-59.69
X252.381Y-40.64
X254.762Y-2.54
X266.859Y-26.162
X266.859Y-50.038
X271.494Y-59.69
X276.257Y-40.64
X278.638Y-2.54
T5
X9.493Y-58.45
X33.369Y-58.45
X80.931Y-77.5
X80.969Y-77.5
X85.725Y-77.5
X92.837Y-77.5
X104.807Y-77.5
X116.713Y-77.5
X152.368Y-77.5
X169.037Y-77.5
X176.244Y-77.5
X180.969Y-77.5
X192.913Y-77.5
X200.025Y-77.5
X247.618Y-74.9
X252.381Y-55.85
X254.762Y-17.75
X271.494Y-74.9
X276.257Y-55.85
X278.638Y-17.75
X282.069Y-26.162
X282.069Y-50.038
T6
X9.525Y-9.525
X11.906Y-47.625
X11.906Y-66.675
X11.906Y-85.725
X14.287Y-28.575
X14.287Y-85.725
X16.669Y-47.625
X21.431Y-66.675
X28.575Y-9.525
X33.337Y-66.675
X35.719Y-85.725
X38.1Y-28.575
X38.1Y-85.725
X42.862Y-47.625
X47.625Y-9.525
X52.387Y-66.675
X57.15Y-28.575
X59.531Y-85.725
X61.912Y-47.625
X61.912Y-85.725
X66.675Y-9.525
X71.438Y-66.675
X76.2Y-28.575
X80.962Y-47.625
X85.725Y-9.525
X90.487Y-66.675
X92.869Y-85.725
X95.25Y-28.575
X100.012Y-47.625
X104.775Y-9.525
X104.775Y-85.725
X109.537Y-66.675
X114.3Y-28.575
X119.062Y-47.625
X123.825Y-9.525
X126.206Y-85.725
X128.588Y-66.675
X130.969Y-85.725
X133.35Y-28.575
X138.112Y-47.625
X142.875Y-9.525
X142.875Y-85.725
X147.637Y-66.675
X152.4Y-28.575
X157.162Y-47.625
X161.925Y-9.525
X164.306Y-85.725
X166.688Y-66.675
X171.45Y-28.575
X176.213Y-47.625
X180.975Y-9.525
X180.975Y-85.725
X185.737Y-66.675
X190.5Y-28.575
X195.262Y-47.625
X200.025Y-9.525
X202.406Y-85.725
X204.787Y-66.675
X209.55Y-28.575
X214.312Y-47.625
X219.075Y-9.525
X223.837Y-66.675
X223.837Y-85.725
X226.219Y-85.725
X228.6Y-28.575
X233.362Y-47.625
X238.125Y-9.525
X247.65Y-28.575
X247.65Y-85.725
X250.031Y-66.675
X250.031Y-85.725
X252.412Y-47.625
X257.175Y-9.525
X259.556Y-66.675
X264.319Y-47.625
X266.7Y-9.525
X271.462Y-28.575
X271.462Y-85.725
X273.844Y-38.1
X273.844Y-85.725
X276.225Y-9.525
X276.225Y-66.675
T3
G00X-0.415Y-56.825
M15
G01X4.085Y-56.825
M16
G05
G00X281.665Y-56.825
M15
G01X286.165Y-56.825
M16
G05
M30
