G04 #@! TF.GenerationSoftware,KiCad,Pcbnew,10.0.1*
G04 #@! TF.CreationDate,2026-04-19T19:03:24+08:00*
G04 #@! TF.ProjectId,PH60_Rev3,50483630-5f52-4657-9633-2e6b69636164,rev?*
G04 #@! TF.SameCoordinates,PX1b40518PY1b40518*
G04 #@! TF.FileFunction,Soldermask,Bot*
G04 #@! TF.FilePolarity,Negative*
%FSLAX46Y46*%
G04 Gerber Fmt 4.6, Leading zero omitted, Abs format (unit mm)*
G04 Created by KiCad (PCBNEW 10.0.1) date 2026-04-19 19:03:24*
%MOMM*%
%LPD*%
G01*
G04 APERTURE LIST*
G04 Aperture macros list*
%AMRoundRect*
0 Rectangle with rounded corners*
0 $1 Rounding radius*
0 $2 $3 $4 $5 $6 $7 $8 $9 X,Y pos of 4 corners*
0 Add a 4 corners polygon primitive as box body*
4,1,4,$2,$3,$4,$5,$6,$7,$8,$9,$2,$3,0*
0 Add four circle primitives for the rounded corners*
1,1,$1+$1,$2,$3*
1,1,$1+$1,$4,$5*
1,1,$1+$1,$6,$7*
1,1,$1+$1,$8,$9*
0 Add four rect primitives between the rounded corners*
20,1,$1+$1,$2,$3,$4,$5,0*
20,1,$1+$1,$4,$5,$6,$7,0*
20,1,$1+$1,$6,$7,$8,$9,0*
20,1,$1+$1,$8,$9,$2,$3,0*%
%AMFreePoly0*
4,1,91,2.242577,5.851767,2.288358,5.832804,2.323398,5.797764,2.342361,5.751983,2.344801,5.727207,2.344801,2.910601,4.148201,2.910601,4.148201,5.727207,4.150641,5.751983,4.169604,5.797764,4.204644,5.832804,4.250425,5.851767,4.275201,5.854207,6.256401,5.854207,6.281177,5.851767,6.326958,5.832804,6.361998,5.797764,6.380961,5.751983,6.383401,5.727207,6.383401,2.885201,
8.085201,2.885201,8.085201,5.727207,8.087641,5.751983,8.106604,5.797764,8.141644,5.832804,8.187425,5.851767,8.212201,5.854207,10.091801,5.854207,10.116577,5.851767,10.162358,5.832804,10.197398,5.797764,10.216361,5.751983,10.218801,5.727207,10.218801,2.763004,10.216361,2.738228,10.197398,2.692447,10.162358,2.657407,10.116577,2.638444,10.067025,2.638444,10.021244,2.657407,
9.986204,2.692447,9.967241,2.738228,9.964801,2.763004,9.964801,5.600207,8.339201,5.600207,8.339201,2.758201,8.336761,2.733425,8.317798,2.687644,8.282758,2.652604,8.236977,2.633641,8.212201,2.631201,6.256401,2.631201,6.231625,2.633641,6.185844,2.652604,6.150804,2.687644,6.131841,2.733425,6.129401,2.758201,6.129401,5.600207,4.402201,5.600207,4.402201,2.783601,
4.399761,2.758825,4.380798,2.713044,4.345758,2.678004,4.299977,2.659041,4.275201,2.656601,2.217801,2.656601,2.193025,2.659041,2.147244,2.678004,2.112204,2.713044,2.093241,2.758825,2.090801,2.783601,2.090801,5.600207,0.127000,5.600207,0.127000,0.000000,0.124560,-0.024776,0.105597,-0.070557,0.070557,-0.105597,0.024776,-0.124560,-0.024776,-0.124560,-0.070557,-0.105597,
-0.105597,-0.070557,-0.124560,-0.024776,-0.127000,0.000000,-0.127000,5.727207,-0.124560,5.751983,-0.105597,5.797764,-0.070557,5.832804,-0.024776,5.851767,0.000000,5.854207,2.217801,5.854207,2.242577,5.851767,2.242577,5.851767,$1*%
G04 Aperture macros list end*
%ADD10C,0.250000*%
%ADD11RoundRect,0.250000X-1.025000X-1.000000X1.025000X-1.000000X1.025000X1.000000X-1.025000X1.000000X0*%
%ADD12C,1.750000*%
%ADD13C,4.000000*%
%ADD14C,3.600000*%
%ADD15C,3.048000*%
%ADD16C,3.987800*%
%ADD17RoundRect,0.250000X1.025000X1.000000X-1.025000X1.000000X-1.025000X-1.000000X1.025000X-1.000000X0*%
%ADD18RoundRect,0.250000X1.000000X-1.025000X1.000000X1.025000X-1.000000X1.025000X-1.000000X-1.025000X0*%
%ADD19C,7.000240*%
%ADD20O,9.999980X5.001260*%
%ADD21C,7.001300*%
%ADD22RoundRect,0.250000X-1.000000X1.025000X-1.000000X-1.025000X1.000000X-1.025000X1.000000X1.025000X0*%
%ADD23RoundRect,0.225000X0.375000X-0.225000X0.375000X0.225000X-0.375000X0.225000X-0.375000X-0.225000X0*%
%ADD24RoundRect,0.175000X0.175000X0.325000X-0.175000X0.325000X-0.175000X-0.325000X0.175000X-0.325000X0*%
%ADD25RoundRect,0.150000X0.200000X0.150000X-0.200000X0.150000X-0.200000X-0.150000X0.200000X-0.150000X0*%
%ADD26RoundRect,0.140000X-0.170000X0.140000X-0.170000X-0.140000X0.170000X-0.140000X0.170000X0.140000X0*%
%ADD27RoundRect,0.140000X0.140000X0.170000X-0.140000X0.170000X-0.140000X-0.170000X0.140000X-0.170000X0*%
%ADD28RoundRect,0.225000X-0.375000X0.225000X-0.375000X-0.225000X0.375000X-0.225000X0.375000X0.225000X0*%
%ADD29RoundRect,0.140000X0.170000X-0.140000X0.170000X0.140000X-0.170000X0.140000X-0.170000X-0.140000X0*%
%ADD30RoundRect,0.140000X-0.140000X-0.170000X0.140000X-0.170000X0.140000X0.170000X-0.140000X0.170000X0*%
%ADD31RoundRect,0.200000X0.200000X-0.250000X0.200000X0.250000X-0.200000X0.250000X-0.200000X-0.250000X0*%
%ADD32RoundRect,0.218750X0.256250X-0.218750X0.256250X0.218750X-0.256250X0.218750X-0.256250X-0.218750X0*%
%ADD33RoundRect,0.050000X-0.285000X-0.100000X0.285000X-0.100000X0.285000X0.100000X-0.285000X0.100000X0*%
%ADD34RoundRect,0.135000X-0.185000X0.135000X-0.185000X-0.135000X0.185000X-0.135000X0.185000X0.135000X0*%
%ADD35RoundRect,0.147500X-0.147500X-0.172500X0.147500X-0.172500X0.147500X0.172500X-0.147500X0.172500X0*%
%ADD36RoundRect,0.225000X-0.225000X-0.375000X0.225000X-0.375000X0.225000X0.375000X-0.225000X0.375000X0*%
%ADD37RoundRect,0.225000X0.225000X0.375000X-0.225000X0.375000X-0.225000X-0.375000X0.225000X-0.375000X0*%
%ADD38RoundRect,0.250000X-0.650000X0.250000X-0.650000X-0.250000X0.650000X-0.250000X0.650000X0.250000X0*%
%ADD39RoundRect,0.147500X-0.172500X0.147500X-0.172500X-0.147500X0.172500X-0.147500X0.172500X0.147500X0*%
%ADD40RoundRect,0.200000X0.200000X0.600000X-0.200000X0.600000X-0.200000X-0.600000X0.200000X-0.600000X0*%
%ADD41RoundRect,0.250001X0.799999X1.249999X-0.799999X1.249999X-0.799999X-1.249999X0.799999X-1.249999X0*%
%ADD42R,1.350000X1.350000*%
%ADD43C,1.350000*%
%ADD44RoundRect,0.135000X0.185000X-0.135000X0.185000X0.135000X-0.185000X0.135000X-0.185000X-0.135000X0*%
%ADD45RoundRect,0.135000X-0.135000X-0.185000X0.135000X-0.185000X0.135000X0.185000X-0.135000X0.185000X0*%
%ADD46RoundRect,0.150000X0.512500X0.150000X-0.512500X0.150000X-0.512500X-0.150000X0.512500X-0.150000X0*%
%ADD47RoundRect,0.218750X-0.218750X-0.256250X0.218750X-0.256250X0.218750X0.256250X-0.218750X0.256250X0*%
%ADD48C,0.250000*%
%ADD49R,3.950000X3.950000*%
%ADD50RoundRect,0.225000X0.225000X0.250000X-0.225000X0.250000X-0.225000X-0.250000X0.225000X-0.250000X0*%
%ADD51FreePoly0,90.000000*%
%ADD52C,0.650000*%
%ADD53RoundRect,0.150000X-0.150000X-0.670000X0.150000X-0.670000X0.150000X0.670000X-0.150000X0.670000X0*%
%ADD54RoundRect,0.075000X-0.075000X-0.745000X0.075000X-0.745000X0.075000X0.745000X-0.075000X0.745000X0*%
%ADD55O,1.000000X1.600000*%
%ADD56O,1.000000X2.100000*%
G04 APERTURE END LIST*
D10*
G36*
X76034859Y-89840375D02*
G01*
X75692079Y-89840375D01*
X75662578Y-89834232D01*
X75646157Y-89817691D01*
X75640025Y-89787786D01*
X75640025Y-89612313D01*
X75646157Y-89582408D01*
X75662578Y-89565867D01*
X75692079Y-89559724D01*
X76034859Y-89559724D01*
X76034859Y-89840375D01*
G37*
G36*
X76034859Y-89332350D02*
G01*
X75727036Y-89332350D01*
X75697500Y-89326233D01*
X75681096Y-89309795D01*
X75674982Y-89280143D01*
X75674982Y-89140772D01*
X75681096Y-89111119D01*
X75697500Y-89094681D01*
X75727036Y-89088565D01*
X76034859Y-89088565D01*
X76034859Y-89332350D01*
G37*
G36*
X78242814Y-89454471D02*
G01*
X77917513Y-89454471D01*
X77887984Y-89448349D01*
X77871576Y-89431890D01*
X77865459Y-89402188D01*
X77865459Y-89140848D01*
X77871576Y-89111145D01*
X77887984Y-89094687D01*
X77917513Y-89088565D01*
X78242814Y-89088565D01*
X78242814Y-89454471D01*
G37*
G36*
X73091046Y-87757930D02*
G01*
X72835965Y-87757930D01*
X72804204Y-87751367D01*
X72786581Y-87733744D01*
X72780018Y-87701983D01*
X72780018Y-87310278D01*
X72786581Y-87278517D01*
X72804204Y-87260894D01*
X72835965Y-87254331D01*
X73091046Y-87254331D01*
X73091046Y-87757930D01*
G37*
G36*
X74531681Y-87260898D02*
G01*
X74549324Y-87278525D01*
X74555893Y-87310278D01*
X74555893Y-87701983D01*
X74549324Y-87733736D01*
X74531681Y-87751363D01*
X74499869Y-87757930D01*
X74244788Y-87757930D01*
X74244788Y-87254331D01*
X74499869Y-87254331D01*
X74531681Y-87260898D01*
G37*
G36*
X75548923Y-87260919D02*
G01*
X75566581Y-87278628D01*
X75573164Y-87310584D01*
X75573164Y-87410876D01*
X75262060Y-87410876D01*
X75262060Y-87310584D01*
X75268643Y-87278628D01*
X75286300Y-87260919D01*
X75318083Y-87254331D01*
X75517141Y-87254331D01*
X75548923Y-87260919D01*
G37*
G36*
X79939959Y-87603083D02*
G01*
X79957613Y-87620771D01*
X79964193Y-87652676D01*
X79964193Y-87701754D01*
X79957613Y-87733659D01*
X79939959Y-87751347D01*
X79908169Y-87757930D01*
X79681100Y-87757930D01*
X79681100Y-87596500D01*
X79908169Y-87596500D01*
X79939959Y-87603083D01*
G37*
G36*
X83684202Y-87603083D02*
G01*
X83701856Y-87620771D01*
X83708435Y-87652676D01*
X83708435Y-87701754D01*
X83701856Y-87733659D01*
X83684202Y-87751347D01*
X83652412Y-87757930D01*
X83425343Y-87757930D01*
X83425343Y-87596500D01*
X83652412Y-87596500D01*
X83684202Y-87603083D01*
G37*
G36*
X76354258Y-84894720D02*
G01*
X76370795Y-84911240D01*
X76376952Y-84941001D01*
X76376952Y-85587939D01*
X76370795Y-85617699D01*
X76354258Y-85634220D01*
X76324440Y-85640375D01*
X76104087Y-85640375D01*
X76074269Y-85634220D01*
X76057731Y-85617699D01*
X76051575Y-85587939D01*
X76051575Y-84941001D01*
X76057731Y-84911240D01*
X76074269Y-84894720D01*
X76104087Y-84888565D01*
X76324440Y-84888565D01*
X76354258Y-84894720D01*
G37*
G36*
X79828669Y-85160919D02*
G01*
X79846326Y-85178628D01*
X79852909Y-85210584D01*
X79852909Y-85310876D01*
X79541805Y-85310876D01*
X79541805Y-85210584D01*
X79548388Y-85178628D01*
X79566045Y-85160919D01*
X79597828Y-85154331D01*
X79796886Y-85154331D01*
X79828669Y-85160919D01*
G37*
G36*
X80944140Y-85220277D02*
G01*
X80618839Y-85220277D01*
X80589317Y-85214150D01*
X80572907Y-85197671D01*
X80566785Y-85167917D01*
X80566785Y-84940924D01*
X80572907Y-84911171D01*
X80589317Y-84894692D01*
X80618839Y-84888565D01*
X80944140Y-84888565D01*
X80944140Y-85220277D01*
G37*
G36*
X85589005Y-90206639D02*
G01*
X71346795Y-90206639D01*
X71346795Y-89635211D01*
X75388073Y-89635211D01*
X75388073Y-89773513D01*
X75394995Y-89856822D01*
X75413947Y-89922098D01*
X75443249Y-89973113D01*
X75482741Y-90012584D01*
X75533796Y-90041878D01*
X75599135Y-90060827D01*
X75682538Y-90067750D01*
X76286734Y-90067750D01*
X76286734Y-88952170D01*
X76518002Y-88952170D01*
X76518002Y-89088565D01*
X77091591Y-89088565D01*
X77121409Y-89094720D01*
X77137947Y-89111240D01*
X77144103Y-89141001D01*
X77144103Y-89787939D01*
X77137947Y-89817699D01*
X77121409Y-89834220D01*
X77091591Y-89840375D01*
X76518002Y-89840375D01*
X76518002Y-89976769D01*
X76635314Y-90067750D01*
X77101513Y-90067750D01*
X77184946Y-90060833D01*
X77250297Y-90041900D01*
X77301352Y-90012638D01*
X77340834Y-89973219D01*
X77370122Y-89922282D01*
X77389061Y-89857122D01*
X77395978Y-89773971D01*
X77395978Y-89154968D01*
X77395940Y-89154510D01*
X77613507Y-89154510D01*
X77613507Y-89388525D01*
X77620420Y-89471512D01*
X77639349Y-89536556D01*
X77668629Y-89587414D01*
X77708110Y-89626783D01*
X77759176Y-89656016D01*
X77824560Y-89674934D01*
X77908049Y-89681846D01*
X78242814Y-89681846D01*
X78242814Y-90067750D01*
X78494689Y-90067750D01*
X78494689Y-88952170D01*
X78725957Y-88952170D01*
X78725957Y-89088565D01*
X79299546Y-89088565D01*
X79329364Y-89094720D01*
X79345902Y-89111240D01*
X79352058Y-89141001D01*
X79352058Y-89787939D01*
X79345902Y-89817699D01*
X79329364Y-89834220D01*
X79299546Y-89840375D01*
X78725957Y-89840375D01*
X78725957Y-89976769D01*
X78843270Y-90067750D01*
X79309468Y-90067750D01*
X79392901Y-90060833D01*
X79458253Y-90041900D01*
X79509307Y-90012638D01*
X79548789Y-89973219D01*
X79578077Y-89922282D01*
X79597017Y-89857122D01*
X79598410Y-89840375D01*
X79772080Y-89840375D01*
X79772080Y-90067750D01*
X80545108Y-90067750D01*
X80545108Y-89773971D01*
X80821179Y-89773971D01*
X80828096Y-89857122D01*
X80847035Y-89922282D01*
X80876323Y-89973219D01*
X80915806Y-90012638D01*
X80966860Y-90041900D01*
X81032212Y-90060833D01*
X81115644Y-90067750D01*
X81372862Y-90067750D01*
X81456188Y-90060813D01*
X81521493Y-90041818D01*
X81572548Y-90012440D01*
X81612067Y-89972832D01*
X81641406Y-89921606D01*
X81660391Y-89856025D01*
X81667328Y-89772292D01*
X81667328Y-89540185D01*
X81415452Y-89540185D01*
X81415452Y-89787405D01*
X81409270Y-89817519D01*
X81392708Y-89834183D01*
X81362940Y-89840375D01*
X81125185Y-89840375D01*
X81095619Y-89834239D01*
X81079185Y-89817735D01*
X81073054Y-89787939D01*
X81073054Y-89088565D01*
X81401485Y-89088565D01*
X81401485Y-88861190D01*
X80821179Y-88861190D01*
X80821179Y-89773971D01*
X80545108Y-89773971D01*
X80545108Y-88861190D01*
X80293233Y-88861190D01*
X80293233Y-89840375D01*
X79772080Y-89840375D01*
X79598410Y-89840375D01*
X79603934Y-89773971D01*
X79603934Y-89154968D01*
X79597017Y-89071818D01*
X79578077Y-89006657D01*
X79548789Y-88955721D01*
X79509307Y-88916301D01*
X79458253Y-88887039D01*
X79392901Y-88868106D01*
X79309468Y-88861190D01*
X78843270Y-88861190D01*
X78725957Y-88952170D01*
X78494689Y-88952170D01*
X78494689Y-88861190D01*
X77908049Y-88861190D01*
X77824560Y-88868102D01*
X77759176Y-88887020D01*
X77708110Y-88916252D01*
X77668629Y-88955622D01*
X77639349Y-89006479D01*
X77620420Y-89071524D01*
X77614645Y-89140848D01*
X77613507Y-89154510D01*
X77395940Y-89154510D01*
X77389061Y-89071818D01*
X77370122Y-89006657D01*
X77340834Y-88955721D01*
X77301352Y-88916301D01*
X77250297Y-88887039D01*
X77184946Y-88868106D01*
X77101513Y-88861190D01*
X76635314Y-88861190D01*
X76518002Y-88952170D01*
X76286734Y-88952170D01*
X76286734Y-88861190D01*
X75717572Y-88861190D01*
X75634079Y-88868101D01*
X75568693Y-88887016D01*
X75517626Y-88916243D01*
X75478147Y-88955604D01*
X75448870Y-89006449D01*
X75429942Y-89071474D01*
X75424168Y-89140772D01*
X75423030Y-89154434D01*
X75423030Y-89259229D01*
X75431973Y-89314713D01*
X75458064Y-89360437D01*
X75519277Y-89433787D01*
X75445775Y-89495076D01*
X75414521Y-89530390D01*
X75395088Y-89576018D01*
X75390787Y-89612313D01*
X75388073Y-89635211D01*
X71346795Y-89635211D01*
X71346795Y-87081301D01*
X71485684Y-87081301D01*
X71871511Y-88319459D01*
X72079728Y-88319459D01*
X72104839Y-88282517D01*
X71998975Y-87967750D01*
X72116899Y-87967750D01*
X72317740Y-87327757D01*
X72538676Y-87327757D01*
X72538676Y-87684504D01*
X72545334Y-87764730D01*
X72563561Y-87827580D01*
X72591738Y-87876689D01*
X72629704Y-87914676D01*
X72678774Y-87942862D01*
X72741560Y-87961091D01*
X72821692Y-87967750D01*
X73332389Y-87967750D01*
X73332389Y-87757930D01*
X74003446Y-87757930D01*
X74003446Y-87967750D01*
X74513837Y-87967750D01*
X74594101Y-87961087D01*
X74656983Y-87942847D01*
X74706119Y-87914650D01*
X74744128Y-87876654D01*
X74772331Y-87827545D01*
X74790572Y-87764706D01*
X74797235Y-87684504D01*
X74797235Y-87328291D01*
X75020717Y-87328291D01*
X75020717Y-87596271D01*
X75573164Y-87596271D01*
X75573164Y-87702288D01*
X75566611Y-87733840D01*
X75548981Y-87751384D01*
X75517141Y-87757930D01*
X75055751Y-87757930D01*
X75055751Y-87889058D01*
X75160699Y-87967750D01*
X75531109Y-87967750D01*
X75611373Y-87961087D01*
X75674254Y-87942847D01*
X75723390Y-87914650D01*
X75761399Y-87876654D01*
X75789602Y-87827545D01*
X75807844Y-87764706D01*
X75814507Y-87684504D01*
X75814507Y-87327757D01*
X75807844Y-87247555D01*
X75789602Y-87184716D01*
X75761399Y-87135607D01*
X75748992Y-87123204D01*
X75972348Y-87123204D01*
X75972348Y-87254331D01*
X76201555Y-87254331D01*
X76248263Y-87261812D01*
X76273225Y-87280588D01*
X76273225Y-87967750D01*
X76514568Y-87967750D01*
X76760108Y-87967750D01*
X77270423Y-87967750D01*
X77350687Y-87961087D01*
X77413569Y-87942847D01*
X77462704Y-87914650D01*
X77500714Y-87876654D01*
X77528917Y-87827545D01*
X77547158Y-87764706D01*
X77547721Y-87757930D01*
X77735400Y-87757930D01*
X77735400Y-87889058D01*
X77840348Y-87967750D01*
X78011700Y-87967750D01*
X78091964Y-87961087D01*
X78154846Y-87942847D01*
X78203981Y-87914650D01*
X78241991Y-87876654D01*
X78270194Y-87827545D01*
X78288435Y-87764706D01*
X78295098Y-87684504D01*
X78295098Y-87123204D01*
X78494614Y-87123204D01*
X78494614Y-87254331D01*
X78910895Y-87254331D01*
X78942707Y-87260898D01*
X78960350Y-87278525D01*
X78966918Y-87310278D01*
X78966918Y-87701983D01*
X78960350Y-87733736D01*
X78942707Y-87751363D01*
X78910895Y-87757930D01*
X78494614Y-87757930D01*
X78494614Y-87889058D01*
X78599562Y-87967750D01*
X78924863Y-87967750D01*
X79005127Y-87961087D01*
X79068009Y-87942847D01*
X79117144Y-87914650D01*
X79155154Y-87876654D01*
X79183357Y-87827545D01*
X79201598Y-87764706D01*
X79208261Y-87684504D01*
X79208261Y-87327757D01*
X79439757Y-87327757D01*
X79439757Y-87757930D01*
X79439757Y-87967750D01*
X79921679Y-87967750D01*
X80002422Y-87961141D01*
X80065559Y-87943075D01*
X80114768Y-87915206D01*
X80152721Y-87877761D01*
X80180802Y-87829506D01*
X80198924Y-87767920D01*
X80205535Y-87689465D01*
X80198924Y-87610985D01*
X80180799Y-87549379D01*
X80152716Y-87501111D01*
X80114761Y-87463657D01*
X80065552Y-87435784D01*
X80002417Y-87417714D01*
X79921679Y-87411105D01*
X79681100Y-87411105D01*
X79681100Y-87310049D01*
X79687657Y-87278447D01*
X79705290Y-87260883D01*
X79737123Y-87254331D01*
X80107762Y-87254331D01*
X80107762Y-87123204D01*
X80002813Y-87044512D01*
X79722774Y-87044512D01*
X79642642Y-87051170D01*
X79579856Y-87069400D01*
X79530786Y-87097585D01*
X79492820Y-87135572D01*
X79464643Y-87184681D01*
X79446416Y-87247531D01*
X79439757Y-87327757D01*
X79208261Y-87327757D01*
X79201598Y-87247555D01*
X79183357Y-87184716D01*
X79155154Y-87135607D01*
X79117144Y-87097611D01*
X79068009Y-87069414D01*
X79005127Y-87051174D01*
X78924863Y-87044512D01*
X78599562Y-87044512D01*
X78494614Y-87123204D01*
X78295098Y-87123204D01*
X78295098Y-86761190D01*
X78053755Y-86761190D01*
X78053755Y-87044512D01*
X77752879Y-87044512D01*
X77752879Y-87254331D01*
X78053755Y-87254331D01*
X78053755Y-87701983D01*
X78047192Y-87733744D01*
X78029569Y-87751367D01*
X77997809Y-87757930D01*
X77735400Y-87757930D01*
X77547721Y-87757930D01*
X77553821Y-87684504D01*
X77553821Y-87044512D01*
X77312478Y-87044512D01*
X77312478Y-87701983D01*
X77305915Y-87733744D01*
X77288292Y-87751367D01*
X77256532Y-87757930D01*
X77001450Y-87757930D01*
X77001450Y-87044512D01*
X76760108Y-87044512D01*
X76760108Y-87967750D01*
X76514568Y-87967750D01*
X76514568Y-87163427D01*
X76485386Y-87122238D01*
X76447700Y-87089916D01*
X76400179Y-87065773D01*
X76340618Y-87050175D01*
X76266127Y-87044512D01*
X76077373Y-87044512D01*
X75972348Y-87123204D01*
X75748992Y-87123204D01*
X75723390Y-87097611D01*
X75674254Y-87069414D01*
X75611373Y-87051174D01*
X75531109Y-87044512D01*
X75303734Y-87044512D01*
X75223636Y-87051176D01*
X75160865Y-87069426D01*
X75111794Y-87097648D01*
X75073817Y-87135695D01*
X75045624Y-87184897D01*
X75027382Y-87247880D01*
X75022185Y-87310584D01*
X75020717Y-87328291D01*
X74797235Y-87328291D01*
X74797235Y-87327757D01*
X74790572Y-87247555D01*
X74772331Y-87184716D01*
X74744128Y-87135607D01*
X74706119Y-87097611D01*
X74656983Y-87069414D01*
X74594101Y-87051174D01*
X74513837Y-87044512D01*
X74244788Y-87044512D01*
X74244788Y-86751954D01*
X80300332Y-86751954D01*
X80300332Y-86883082D01*
X80562664Y-86883082D01*
X80594403Y-86889661D01*
X80612036Y-86907346D01*
X80618611Y-86939258D01*
X80618611Y-87044512D01*
X80317810Y-87044512D01*
X80317810Y-87254331D01*
X80618611Y-87254331D01*
X80618611Y-87967750D01*
X80859953Y-87967750D01*
X81112516Y-87967750D01*
X81622830Y-87967750D01*
X81703095Y-87961087D01*
X81765976Y-87942847D01*
X81815112Y-87914650D01*
X81853121Y-87876654D01*
X81881324Y-87827545D01*
X81899566Y-87764706D01*
X81906228Y-87684504D01*
X81906228Y-87327757D01*
X82144747Y-87327757D01*
X82144747Y-87967750D01*
X82386089Y-87967750D01*
X82386089Y-87310278D01*
X82392652Y-87278517D01*
X82410275Y-87260894D01*
X82442036Y-87254331D01*
X82697117Y-87254331D01*
X82697117Y-87967750D01*
X82938460Y-87967750D01*
X82938460Y-87327757D01*
X83184000Y-87327757D01*
X83184000Y-87757930D01*
X83184000Y-87967750D01*
X83665922Y-87967750D01*
X84170894Y-87967750D01*
X84422769Y-87967750D01*
X84422769Y-87205330D01*
X84705709Y-87810366D01*
X84915224Y-87810366D01*
X85198240Y-87205330D01*
X85198240Y-87967750D01*
X85450116Y-87967750D01*
X85450116Y-86761190D01*
X85150079Y-86761190D01*
X84810276Y-87485141D01*
X84470931Y-86761190D01*
X84170894Y-86761190D01*
X84170894Y-87967750D01*
X83665922Y-87967750D01*
X83746665Y-87961141D01*
X83809802Y-87943075D01*
X83859011Y-87915206D01*
X83896964Y-87877761D01*
X83925045Y-87829506D01*
X83943167Y-87767920D01*
X83949778Y-87689465D01*
X83943166Y-87610985D01*
X83925042Y-87549379D01*
X83896959Y-87501111D01*
X83859004Y-87463657D01*
X83809794Y-87435784D01*
X83746660Y-87417714D01*
X83665922Y-87411105D01*
X83425343Y-87411105D01*
X83425343Y-87310049D01*
X83431900Y-87278447D01*
X83449533Y-87260883D01*
X83481366Y-87254331D01*
X83852004Y-87254331D01*
X83852004Y-87123204D01*
X83747056Y-87044512D01*
X83467017Y-87044512D01*
X83386885Y-87051170D01*
X83324099Y-87069400D01*
X83275029Y-87097585D01*
X83237062Y-87135572D01*
X83208886Y-87184681D01*
X83190658Y-87247531D01*
X83184000Y-87327757D01*
X82938460Y-87327757D01*
X82938460Y-87044512D01*
X82427763Y-87044512D01*
X82347631Y-87051170D01*
X82284845Y-87069400D01*
X82235775Y-87097585D01*
X82197809Y-87135572D01*
X82169632Y-87184681D01*
X82151405Y-87247531D01*
X82144747Y-87327757D01*
X81906228Y-87327757D01*
X81906228Y-87044512D01*
X81664886Y-87044512D01*
X81664886Y-87701983D01*
X81658323Y-87733744D01*
X81640700Y-87751367D01*
X81608939Y-87757930D01*
X81353858Y-87757930D01*
X81353858Y-87044512D01*
X81112516Y-87044512D01*
X81112516Y-87967750D01*
X80859953Y-87967750D01*
X80859953Y-86956660D01*
X80853289Y-86876406D01*
X80835043Y-86813529D01*
X80806835Y-86764393D01*
X80768823Y-86726380D01*
X80719687Y-86698173D01*
X80656810Y-86679927D01*
X80576555Y-86673262D01*
X80405280Y-86673262D01*
X80300332Y-86751954D01*
X74244788Y-86751954D01*
X74244788Y-86673262D01*
X74003446Y-86673262D01*
X74003446Y-87757930D01*
X73332389Y-87757930D01*
X73332389Y-86673262D01*
X73091046Y-86673262D01*
X73091046Y-87044512D01*
X72821692Y-87044512D01*
X72741560Y-87051170D01*
X72678774Y-87069400D01*
X72629704Y-87097585D01*
X72591738Y-87135572D01*
X72563561Y-87184681D01*
X72545334Y-87247531D01*
X72540127Y-87310278D01*
X72538676Y-87327757D01*
X72317740Y-87327757D01*
X72395107Y-87081224D01*
X72369919Y-87044512D01*
X72161778Y-87044512D01*
X71949745Y-87757930D01*
X71930969Y-87757930D01*
X71719012Y-87044512D01*
X71510795Y-87044512D01*
X71485684Y-87081301D01*
X71346795Y-87081301D01*
X71346795Y-84954968D01*
X75799699Y-84954968D01*
X75799699Y-85573971D01*
X75806616Y-85657122D01*
X75825556Y-85722282D01*
X75854844Y-85773219D01*
X75894326Y-85812638D01*
X75945380Y-85841900D01*
X76010732Y-85860833D01*
X76094164Y-85867750D01*
X76334286Y-85867750D01*
X76832083Y-85867750D01*
X77092812Y-85867750D01*
X77092812Y-85640375D01*
X77317897Y-85640375D01*
X77317897Y-85867750D01*
X78077035Y-85867750D01*
X78077035Y-85640375D01*
X77809436Y-85640375D01*
X77809436Y-84981224D01*
X78248157Y-84981224D01*
X78525907Y-85867750D01*
X78879372Y-85867750D01*
X79080046Y-85228291D01*
X79300462Y-85228291D01*
X79300462Y-85496271D01*
X79852909Y-85496271D01*
X79852909Y-85602288D01*
X79846356Y-85633840D01*
X79828726Y-85651384D01*
X79796886Y-85657930D01*
X79335496Y-85657930D01*
X79335496Y-85789058D01*
X79440444Y-85867750D01*
X79810854Y-85867750D01*
X79891118Y-85861087D01*
X79953999Y-85842847D01*
X80001978Y-85815314D01*
X80279876Y-85815314D01*
X80309414Y-85867750D01*
X80525646Y-85867750D01*
X80739511Y-85447652D01*
X80944140Y-85447652D01*
X80944140Y-85867750D01*
X81196016Y-85867750D01*
X81196016Y-84661190D01*
X80609375Y-84661190D01*
X80525921Y-84668108D01*
X80460552Y-84687046D01*
X80409485Y-84716315D01*
X80369992Y-84755745D01*
X80340697Y-84806695D01*
X80321752Y-84871873D01*
X80316008Y-84940924D01*
X80314833Y-84955045D01*
X80314833Y-85154408D01*
X80322560Y-85241895D01*
X80343606Y-85309226D01*
X80376099Y-85360833D01*
X80420095Y-85399759D01*
X80477560Y-85427273D01*
X80279876Y-85815314D01*
X80001978Y-85815314D01*
X80003135Y-85814650D01*
X80041144Y-85776654D01*
X80069347Y-85727545D01*
X80087589Y-85664706D01*
X80094252Y-85584504D01*
X80094252Y-85227757D01*
X80087589Y-85147555D01*
X80069347Y-85084716D01*
X80041144Y-85035607D01*
X80003135Y-84997611D01*
X79953999Y-84969414D01*
X79891118Y-84951174D01*
X79810854Y-84944512D01*
X79583479Y-84944512D01*
X79503381Y-84951176D01*
X79440610Y-84969426D01*
X79391539Y-84997648D01*
X79353562Y-85035695D01*
X79325369Y-85084897D01*
X79307127Y-85147880D01*
X79301930Y-85210584D01*
X79300462Y-85228291D01*
X79080046Y-85228291D01*
X79157580Y-84981224D01*
X79132393Y-84944512D01*
X78924252Y-84944512D01*
X78712219Y-85657930D01*
X78693443Y-85657930D01*
X78481486Y-84944512D01*
X78273269Y-84944512D01*
X78248157Y-84981224D01*
X77809436Y-84981224D01*
X77809436Y-84888565D01*
X78033376Y-84888565D01*
X78033376Y-84752170D01*
X77916063Y-84661190D01*
X77557484Y-84661190D01*
X77557484Y-85640375D01*
X77317897Y-85640375D01*
X77092812Y-85640375D01*
X77092812Y-85613737D01*
X76832083Y-85613737D01*
X76832083Y-85867750D01*
X76334286Y-85867750D01*
X76417745Y-85860832D01*
X76483116Y-85841897D01*
X76534183Y-85812633D01*
X76573674Y-85773212D01*
X76602967Y-85722275D01*
X76621909Y-85657117D01*
X76628827Y-85573971D01*
X76628827Y-84954968D01*
X76621909Y-84871823D01*
X76602967Y-84806664D01*
X76573674Y-84755727D01*
X76534183Y-84716306D01*
X76483116Y-84687042D01*
X76417745Y-84668107D01*
X76334286Y-84661190D01*
X76094164Y-84661190D01*
X76010732Y-84668106D01*
X75945380Y-84687039D01*
X75894326Y-84716301D01*
X75854844Y-84755721D01*
X75825556Y-84806657D01*
X75806616Y-84871818D01*
X75800861Y-84941001D01*
X75799699Y-84954968D01*
X71346795Y-84954968D01*
X71346795Y-84522301D01*
X85589005Y-84522301D01*
X85589005Y-90206639D01*
G37*
D11*
G04 #@! TO.C,S20*
X107215000Y-26035000D03*
D12*
X109220000Y-28575000D03*
D13*
X114300000Y-28575000D03*
D12*
X119380000Y-28575000D03*
D11*
X120142000Y-23495000D03*
D14*
X110490000Y-26035000D03*
X116840000Y-23495000D03*
G04 #@! TD*
D11*
G04 #@! TO.C,S19*
X88165000Y-26035000D03*
D12*
X90170000Y-28575000D03*
D13*
X95250000Y-28575000D03*
D12*
X100330000Y-28575000D03*
D11*
X101092000Y-23495000D03*
D14*
X91440000Y-26035000D03*
X97790000Y-23495000D03*
G04 #@! TD*
D11*
G04 #@! TO.C,S43*
X4821250Y-64135000D03*
D12*
X6826250Y-66675000D03*
D13*
X11906250Y-66675000D03*
D12*
X16986250Y-66675000D03*
D11*
X17748250Y-61595000D03*
D14*
X8096250Y-64135000D03*
X14446250Y-61595000D03*
G04 #@! TD*
D11*
G04 #@! TO.C,S47*
X83402500Y-64135000D03*
D12*
X85407500Y-66675000D03*
D13*
X90487500Y-66675000D03*
D12*
X95567500Y-66675000D03*
D11*
X96329500Y-61595000D03*
D14*
X86677500Y-64135000D03*
X93027500Y-61595000D03*
G04 #@! TD*
D15*
G04 #@! TO.C,S41-x2*
X252380750Y-40640000D03*
D16*
X252380750Y-55850000D03*
D15*
X276256750Y-40640000D03*
D16*
X276256750Y-55850000D03*
G04 #@! TD*
D11*
G04 #@! TO.C,S4*
X59590000Y-6985000D03*
D12*
X61595000Y-9525000D03*
D13*
X66675000Y-9525000D03*
D12*
X71755000Y-9525000D03*
D11*
X72517000Y-4445000D03*
D14*
X62865000Y-6985000D03*
X69215000Y-4445000D03*
G04 #@! TD*
D11*
G04 #@! TO.C,S7*
X116740000Y-6985000D03*
D12*
X118745000Y-9525000D03*
D13*
X123825000Y-9525000D03*
D12*
X128905000Y-9525000D03*
D11*
X129667000Y-4445000D03*
D14*
X120015000Y-6985000D03*
X126365000Y-4445000D03*
G04 #@! TD*
D17*
G04 #@! TO.C,S57-1*
X21372500Y-88265000D03*
D12*
X19367500Y-85725000D03*
D13*
X14287500Y-85725000D03*
D12*
X9207500Y-85725000D03*
D17*
X8445500Y-90805000D03*
D14*
X18097500Y-88265000D03*
X11747500Y-90805000D03*
G04 #@! TD*
D11*
G04 #@! TO.C,S12*
X211990000Y-6985000D03*
D12*
X213995000Y-9525000D03*
D13*
X219075000Y-9525000D03*
D12*
X224155000Y-9525000D03*
D11*
X224917000Y-4445000D03*
D14*
X215265000Y-6985000D03*
X221615000Y-4445000D03*
G04 #@! TD*
D11*
G04 #@! TO.C,S3*
X40540000Y-6985000D03*
D12*
X42545000Y-9525000D03*
D13*
X47625000Y-9525000D03*
D12*
X52705000Y-9525000D03*
D11*
X53467000Y-4445000D03*
D14*
X43815000Y-6985000D03*
X50165000Y-4445000D03*
G04 #@! TD*
D17*
G04 #@! TO.C,S62*
X233303750Y-88265000D03*
D12*
X231298750Y-85725000D03*
D13*
X226218750Y-85725000D03*
D12*
X221138750Y-85725000D03*
D17*
X220376750Y-90805000D03*
D14*
X230028750Y-88265000D03*
X223678750Y-90805000D03*
G04 #@! TD*
D11*
G04 #@! TO.C,S15*
X7202500Y-26035000D03*
D12*
X9207500Y-28575000D03*
D13*
X14287500Y-28575000D03*
D12*
X19367500Y-28575000D03*
D11*
X20129500Y-23495000D03*
D14*
X10477500Y-26035000D03*
X16827500Y-23495000D03*
G04 #@! TD*
D11*
G04 #@! TO.C,S25*
X202465000Y-26035000D03*
D12*
X204470000Y-28575000D03*
D13*
X209550000Y-28575000D03*
D12*
X214630000Y-28575000D03*
D11*
X215392000Y-23495000D03*
D14*
X205740000Y-26035000D03*
X212090000Y-23495000D03*
G04 #@! TD*
D18*
G04 #@! TO.C,S1*
X6985000Y-16610000D03*
D12*
X9525000Y-14605000D03*
D13*
X9525000Y-9525000D03*
D12*
X9525000Y-4445000D03*
D18*
X4445000Y-3683000D03*
D14*
X6985000Y-13335000D03*
X4445000Y-6985000D03*
G04 #@! TD*
D11*
G04 #@! TO.C,S63-1*
X240565000Y-83185000D03*
D12*
X242570000Y-85725000D03*
D13*
X247650000Y-85725000D03*
D12*
X252730000Y-85725000D03*
D11*
X253492000Y-80645000D03*
D14*
X243840000Y-83185000D03*
X250190000Y-80645000D03*
G04 #@! TD*
D11*
G04 #@! TO.C,S9*
X154840000Y-6985000D03*
D12*
X156845000Y-9525000D03*
D13*
X161925000Y-9525000D03*
D12*
X167005000Y-9525000D03*
D11*
X167767000Y-4445000D03*
D14*
X158115000Y-6985000D03*
X164465000Y-4445000D03*
G04 #@! TD*
D11*
G04 #@! TO.C,S44*
X26252500Y-64135000D03*
D12*
X28257500Y-66675000D03*
D13*
X33337500Y-66675000D03*
D12*
X38417500Y-66675000D03*
D11*
X39179500Y-61595000D03*
D14*
X29527500Y-64135000D03*
X35877500Y-61595000D03*
G04 #@! TD*
D11*
G04 #@! TO.C,S23*
X164365000Y-26035000D03*
D12*
X166370000Y-28575000D03*
D13*
X171450000Y-28575000D03*
D12*
X176530000Y-28575000D03*
D11*
X177292000Y-23495000D03*
D14*
X167640000Y-26035000D03*
X173990000Y-23495000D03*
G04 #@! TD*
D11*
G04 #@! TO.C,S64-1*
X264377500Y-83185000D03*
D12*
X266382500Y-85725000D03*
D13*
X271462500Y-85725000D03*
D12*
X276542500Y-85725000D03*
D11*
X277304500Y-80645000D03*
D14*
X267652500Y-83185000D03*
X274002500Y-80645000D03*
G04 #@! TD*
D11*
G04 #@! TO.C,S65*
X28633750Y-83185000D03*
D12*
X30638750Y-85725000D03*
D13*
X35718750Y-85725000D03*
D12*
X40798750Y-85725000D03*
D11*
X41560750Y-80645000D03*
D14*
X31908750Y-83185000D03*
X38258750Y-80645000D03*
G04 #@! TD*
D18*
G04 #@! TO.C,S60-1-b1*
X161766250Y-92810000D03*
D12*
X164306250Y-90805000D03*
D13*
X164306250Y-85725000D03*
D12*
X164306250Y-80645000D03*
D18*
X159226250Y-79883000D03*
D14*
X161766250Y-89535000D03*
X159226250Y-83185000D03*
G04 #@! TD*
D11*
G04 #@! TO.C,S59*
X4821250Y-83185000D03*
D12*
X6826250Y-85725000D03*
D13*
X11906250Y-85725000D03*
D12*
X16986250Y-85725000D03*
D11*
X17748250Y-80645000D03*
D14*
X8096250Y-83185000D03*
X14446250Y-80645000D03*
G04 #@! TD*
D11*
G04 #@! TO.C,S14*
X259615000Y-6985000D03*
D12*
X261620000Y-9525000D03*
D13*
X266700000Y-9525000D03*
D12*
X271780000Y-9525000D03*
D11*
X272542000Y-4445000D03*
D14*
X262890000Y-6985000D03*
X269240000Y-4445000D03*
G04 #@! TD*
D11*
G04 #@! TO.C,S16*
X31015000Y-26035000D03*
D12*
X33020000Y-28575000D03*
D13*
X38100000Y-28575000D03*
D12*
X43180000Y-28575000D03*
D11*
X43942000Y-23495000D03*
D14*
X34290000Y-26035000D03*
X40640000Y-23495000D03*
G04 #@! TD*
D11*
G04 #@! TO.C,S24*
X183415000Y-26035000D03*
D12*
X185420000Y-28575000D03*
D13*
X190500000Y-28575000D03*
D12*
X195580000Y-28575000D03*
D11*
X196342000Y-23495000D03*
D14*
X186690000Y-26035000D03*
X193040000Y-23495000D03*
G04 #@! TD*
D11*
G04 #@! TO.C,S32*
X54827500Y-45085000D03*
D12*
X56832500Y-47625000D03*
D13*
X61912500Y-47625000D03*
D12*
X66992500Y-47625000D03*
D11*
X67754500Y-42545000D03*
D14*
X58102500Y-45085000D03*
X64452500Y-42545000D03*
G04 #@! TD*
D11*
G04 #@! TO.C,S34*
X92927500Y-45085000D03*
D12*
X94932500Y-47625000D03*
D13*
X100012500Y-47625000D03*
D12*
X105092500Y-47625000D03*
D11*
X105854500Y-42545000D03*
D14*
X96202500Y-45085000D03*
X102552500Y-42545000D03*
G04 #@! TD*
D11*
G04 #@! TO.C,S35*
X111977500Y-45085000D03*
D12*
X113982500Y-47625000D03*
D13*
X119062500Y-47625000D03*
D12*
X124142500Y-47625000D03*
D11*
X124904500Y-42545000D03*
D14*
X115252500Y-45085000D03*
X121602500Y-42545000D03*
G04 #@! TD*
D17*
G04 #@! TO.C,S64*
X280928750Y-88265000D03*
D12*
X278923750Y-85725000D03*
D13*
X273843750Y-85725000D03*
D12*
X268763750Y-85725000D03*
D17*
X268001750Y-90805000D03*
D14*
X277653750Y-88265000D03*
X271303750Y-90805000D03*
G04 #@! TD*
D15*
G04 #@! TO.C,S60-x1*
X180968750Y-92710000D03*
D16*
X180968750Y-77500000D03*
D15*
X80968750Y-92710000D03*
D16*
X80968750Y-77500000D03*
G04 #@! TD*
D11*
G04 #@! TO.C,S46*
X64352500Y-64135000D03*
D12*
X66357500Y-66675000D03*
D13*
X71437500Y-66675000D03*
D12*
X76517500Y-66675000D03*
D11*
X77279500Y-61595000D03*
D14*
X67627500Y-64135000D03*
X73977500Y-61595000D03*
G04 #@! TD*
D11*
G04 #@! TO.C,S50*
X140552500Y-64135000D03*
D12*
X142557500Y-66675000D03*
D13*
X147637500Y-66675000D03*
D12*
X152717500Y-66675000D03*
D11*
X153479500Y-61595000D03*
D14*
X143827500Y-64135000D03*
X150177500Y-61595000D03*
G04 #@! TD*
D19*
G04 #@! TO.C,HOLE*
X260425000Y-28225000D03*
G04 #@! TD*
D11*
G04 #@! TO.C,S22*
X145315000Y-26035000D03*
D12*
X147320000Y-28575000D03*
D13*
X152400000Y-28575000D03*
D12*
X157480000Y-28575000D03*
D11*
X158242000Y-23495000D03*
D14*
X148590000Y-26035000D03*
X154940000Y-23495000D03*
G04 #@! TD*
D18*
G04 #@! TO.C,S29*
X249872500Y-54710000D03*
D12*
X252412500Y-52705000D03*
D13*
X252412500Y-47625000D03*
D12*
X252412500Y-42545000D03*
D18*
X247332500Y-41783000D03*
D14*
X249872500Y-51435000D03*
X247332500Y-45085000D03*
G04 #@! TD*
D11*
G04 #@! TO.C,S62-1*
X216752500Y-83185000D03*
D12*
X218757500Y-85725000D03*
D13*
X223837500Y-85725000D03*
D12*
X228917500Y-85725000D03*
D11*
X229679500Y-80645000D03*
D14*
X220027500Y-83185000D03*
X226377500Y-80645000D03*
G04 #@! TD*
D15*
G04 #@! TO.C,S60-x5*
X104806750Y-92710000D03*
D16*
X104806750Y-77500000D03*
D15*
X80930750Y-92710000D03*
D16*
X80930750Y-77500000D03*
G04 #@! TD*
D15*
G04 #@! TO.C,S29-x1*
X33369250Y-73660000D03*
D16*
X33369250Y-58450000D03*
D15*
X9493250Y-73660000D03*
D16*
X9493250Y-58450000D03*
G04 #@! TD*
D11*
G04 #@! TO.C,S27*
X240565000Y-26035000D03*
D12*
X242570000Y-28575000D03*
D13*
X247650000Y-28575000D03*
D12*
X252730000Y-28575000D03*
D11*
X253492000Y-23495000D03*
D14*
X243840000Y-26035000D03*
X250190000Y-23495000D03*
G04 #@! TD*
D11*
G04 #@! TO.C,S60-1*
X135790000Y-83185000D03*
D12*
X137795000Y-85725000D03*
D13*
X142875000Y-85725000D03*
D12*
X147955000Y-85725000D03*
D11*
X148717000Y-80645000D03*
D14*
X139065000Y-83185000D03*
X145415000Y-80645000D03*
G04 #@! TD*
D11*
G04 #@! TO.C,S8*
X135790000Y-6985000D03*
D12*
X137795000Y-9525000D03*
D13*
X142875000Y-9525000D03*
D12*
X147955000Y-9525000D03*
D11*
X148717000Y-4445000D03*
D14*
X139065000Y-6985000D03*
X145415000Y-4445000D03*
G04 #@! TD*
D11*
G04 #@! TO.C,S38*
X169127500Y-45085000D03*
D12*
X171132500Y-47625000D03*
D13*
X176212500Y-47625000D03*
D12*
X181292500Y-47625000D03*
D11*
X182054500Y-42545000D03*
D14*
X172402500Y-45085000D03*
X178752500Y-42545000D03*
G04 #@! TD*
D17*
G04 #@! TO.C,S55*
X257116250Y-69215000D03*
D12*
X255111250Y-66675000D03*
D13*
X250031250Y-66675000D03*
D12*
X244951250Y-66675000D03*
D17*
X244189250Y-71755000D03*
D14*
X253841250Y-69215000D03*
X247491250Y-71755000D03*
G04 #@! TD*
D19*
G04 #@! TO.C,HOLE*
X128575000Y-47325000D03*
G04 #@! TD*
D11*
G04 #@! TO.C,S21*
X126265000Y-26035000D03*
D12*
X128270000Y-28575000D03*
D13*
X133350000Y-28575000D03*
D12*
X138430000Y-28575000D03*
D11*
X139192000Y-23495000D03*
D14*
X129540000Y-26035000D03*
X135890000Y-23495000D03*
G04 #@! TD*
D11*
G04 #@! TO.C,S11*
X192940000Y-6985000D03*
D12*
X194945000Y-9525000D03*
D13*
X200025000Y-9525000D03*
D12*
X205105000Y-9525000D03*
D11*
X205867000Y-4445000D03*
D14*
X196215000Y-6985000D03*
X202565000Y-4445000D03*
G04 #@! TD*
D17*
G04 #@! TO.C,S60-2*
X138053750Y-88265000D03*
D12*
X136048750Y-85725000D03*
D13*
X130968750Y-85725000D03*
D12*
X125888750Y-85725000D03*
D17*
X125126750Y-90805000D03*
D14*
X134778750Y-88265000D03*
X128428750Y-90805000D03*
G04 #@! TD*
D11*
G04 #@! TO.C,S52*
X178652500Y-64135000D03*
D12*
X180657500Y-66675000D03*
D13*
X185737500Y-66675000D03*
D12*
X190817500Y-66675000D03*
D11*
X191579500Y-61595000D03*
D14*
X181927500Y-64135000D03*
X188277500Y-61595000D03*
G04 #@! TD*
D17*
G04 #@! TO.C,S63*
X257116250Y-88265000D03*
D12*
X255111250Y-85725000D03*
D13*
X250031250Y-85725000D03*
D12*
X244951250Y-85725000D03*
D17*
X244189250Y-90805000D03*
D14*
X253841250Y-88265000D03*
X247491250Y-90805000D03*
G04 #@! TD*
D11*
G04 #@! TO.C,S31*
X35777500Y-45085000D03*
D12*
X37782500Y-47625000D03*
D13*
X42862500Y-47625000D03*
D12*
X47942500Y-47625000D03*
D11*
X48704500Y-42545000D03*
D14*
X39052500Y-45085000D03*
X45402500Y-42545000D03*
G04 #@! TD*
D11*
G04 #@! TO.C,S39*
X188177500Y-45085000D03*
D12*
X190182500Y-47625000D03*
D13*
X195262500Y-47625000D03*
D12*
X200342500Y-47625000D03*
D11*
X201104500Y-42545000D03*
D14*
X191452500Y-45085000D03*
X197802500Y-42545000D03*
G04 #@! TD*
D11*
G04 #@! TO.C,S36*
X131027500Y-45085000D03*
D12*
X133032500Y-47625000D03*
D13*
X138112500Y-47625000D03*
D12*
X143192500Y-47625000D03*
D11*
X143954500Y-42545000D03*
D14*
X134302500Y-45085000D03*
X140652500Y-42545000D03*
G04 #@! TD*
D11*
G04 #@! TO.C,S40*
X207227500Y-45085000D03*
D12*
X209232500Y-47625000D03*
D13*
X214312500Y-47625000D03*
D12*
X219392500Y-47625000D03*
D11*
X220154500Y-42545000D03*
D14*
X210502500Y-45085000D03*
X216852500Y-42545000D03*
G04 #@! TD*
D11*
G04 #@! TO.C,S48*
X102452500Y-64135000D03*
D12*
X104457500Y-66675000D03*
D13*
X109537500Y-66675000D03*
D12*
X114617500Y-66675000D03*
D11*
X115379500Y-61595000D03*
D14*
X105727500Y-64135000D03*
X112077500Y-61595000D03*
G04 #@! TD*
D11*
G04 #@! TO.C,S18*
X69115000Y-26035000D03*
D12*
X71120000Y-28575000D03*
D13*
X76200000Y-28575000D03*
D12*
X81280000Y-28575000D03*
D11*
X82042000Y-23495000D03*
D14*
X72390000Y-26035000D03*
X78740000Y-23495000D03*
G04 #@! TD*
D18*
G04 #@! TO.C,S42*
X261778750Y-54710000D03*
D12*
X264318750Y-52705000D03*
D13*
X264318750Y-47625000D03*
D12*
X264318750Y-42545000D03*
D18*
X259238750Y-41783000D03*
D14*
X261778750Y-51435000D03*
X259238750Y-45085000D03*
G04 #@! TD*
D11*
G04 #@! TO.C,S45*
X45302500Y-64135000D03*
D12*
X47307500Y-66675000D03*
D13*
X52387500Y-66675000D03*
D12*
X57467500Y-66675000D03*
D11*
X58229500Y-61595000D03*
D14*
X48577500Y-64135000D03*
X54927500Y-61595000D03*
G04 #@! TD*
D11*
G04 #@! TO.C,S13*
X231040000Y-6985000D03*
D12*
X233045000Y-9525000D03*
D13*
X238125000Y-9525000D03*
D12*
X243205000Y-9525000D03*
D11*
X243967000Y-4445000D03*
D14*
X234315000Y-6985000D03*
X240665000Y-4445000D03*
G04 #@! TD*
D20*
G04 #@! TO.C,HOLE*
X283915000Y-56825000D03*
G04 #@! TD*
D15*
G04 #@! TO.C,S60-x6*
X176244250Y-92710000D03*
D16*
X176244250Y-77500000D03*
D15*
X152368250Y-92710000D03*
D16*
X152368250Y-77500000D03*
G04 #@! TD*
D15*
G04 #@! TO.C,S60-x3*
X200025000Y-92710000D03*
D16*
X200025000Y-77500000D03*
D15*
X85725000Y-92710000D03*
D16*
X85725000Y-77500000D03*
G04 #@! TD*
D11*
G04 #@! TO.C,S26*
X221515000Y-26035000D03*
D12*
X223520000Y-28575000D03*
D13*
X228600000Y-28575000D03*
D12*
X233680000Y-28575000D03*
D11*
X234442000Y-23495000D03*
D14*
X224790000Y-26035000D03*
X231140000Y-23495000D03*
G04 #@! TD*
D11*
G04 #@! TO.C,S5*
X78640000Y-6985000D03*
D12*
X80645000Y-9525000D03*
D13*
X85725000Y-9525000D03*
D12*
X90805000Y-9525000D03*
D11*
X91567000Y-4445000D03*
D14*
X81915000Y-6985000D03*
X88265000Y-4445000D03*
G04 #@! TD*
D11*
G04 #@! TO.C,S17*
X50065000Y-26035000D03*
D12*
X52070000Y-28575000D03*
D13*
X57150000Y-28575000D03*
D12*
X62230000Y-28575000D03*
D11*
X62992000Y-23495000D03*
D14*
X53340000Y-26035000D03*
X59690000Y-23495000D03*
G04 #@! TD*
D11*
G04 #@! TO.C,S33*
X73877500Y-45085000D03*
D12*
X75882500Y-47625000D03*
D13*
X80962500Y-47625000D03*
D12*
X86042500Y-47625000D03*
D11*
X86804500Y-42545000D03*
D14*
X77152500Y-45085000D03*
X83502500Y-42545000D03*
G04 #@! TD*
D11*
G04 #@! TO.C,S55-1*
X252471250Y-64135000D03*
D12*
X254476250Y-66675000D03*
D13*
X259556250Y-66675000D03*
D12*
X264636250Y-66675000D03*
D11*
X265398250Y-61595000D03*
D14*
X255746250Y-64135000D03*
X262096250Y-61595000D03*
G04 #@! TD*
D11*
G04 #@! TO.C,S37*
X150077500Y-45085000D03*
D12*
X152082500Y-47625000D03*
D13*
X157162500Y-47625000D03*
D12*
X162242500Y-47625000D03*
D11*
X163004500Y-42545000D03*
D14*
X153352500Y-45085000D03*
X159702500Y-42545000D03*
G04 #@! TD*
D11*
G04 #@! TO.C,S49*
X121502500Y-64135000D03*
D12*
X123507500Y-66675000D03*
D13*
X128587500Y-66675000D03*
D12*
X133667500Y-66675000D03*
D11*
X134429500Y-61595000D03*
D14*
X124777500Y-64135000D03*
X131127500Y-61595000D03*
G04 #@! TD*
D11*
G04 #@! TO.C,S57*
X119121250Y-83185000D03*
D12*
X121126250Y-85725000D03*
D13*
X126206250Y-85725000D03*
D12*
X131286250Y-85725000D03*
D11*
X132048250Y-80645000D03*
D14*
X122396250Y-83185000D03*
X128746250Y-80645000D03*
G04 #@! TD*
D15*
G04 #@! TO.C,S55-x1*
X247618250Y-59690000D03*
D16*
X247618250Y-74900000D03*
D15*
X271494250Y-59690000D03*
D16*
X271494250Y-74900000D03*
G04 #@! TD*
D11*
G04 #@! TO.C,S53*
X197702500Y-64135000D03*
D12*
X199707500Y-66675000D03*
D13*
X204787500Y-66675000D03*
D12*
X209867500Y-66675000D03*
D11*
X210629500Y-61595000D03*
D14*
X200977500Y-64135000D03*
X207327500Y-61595000D03*
G04 #@! TD*
D21*
G04 #@! TO.C,HOLE*
X25575000Y-28225000D03*
G04 #@! TD*
D15*
G04 #@! TO.C,S41-x1*
X266858750Y-50038000D03*
D16*
X282068750Y-50038000D03*
D15*
X266858750Y-26162000D03*
D16*
X282068750Y-26162000D03*
G04 #@! TD*
D11*
G04 #@! TO.C,S10*
X173890000Y-6985000D03*
D12*
X175895000Y-9525000D03*
D13*
X180975000Y-9525000D03*
D12*
X186055000Y-9525000D03*
D11*
X186817000Y-4445000D03*
D14*
X177165000Y-6985000D03*
X183515000Y-4445000D03*
G04 #@! TD*
D17*
G04 #@! TO.C,S56*
X283310000Y-69215000D03*
D12*
X281305000Y-66675000D03*
D13*
X276225000Y-66675000D03*
D12*
X271145000Y-66675000D03*
D17*
X270383000Y-71755000D03*
D14*
X280035000Y-69215000D03*
X273685000Y-71755000D03*
G04 #@! TD*
D22*
G04 #@! TO.C,S28*
X274002500Y-21490000D03*
D12*
X271462500Y-23495000D03*
D13*
X271462500Y-28575000D03*
D12*
X271462500Y-33655000D03*
D22*
X276542500Y-34417000D03*
D14*
X274002500Y-24765000D03*
X276542500Y-31115000D03*
G04 #@! TD*
D11*
G04 #@! TO.C,S61*
X195321250Y-83185000D03*
D12*
X197326250Y-85725000D03*
D13*
X202406250Y-85725000D03*
D12*
X207486250Y-85725000D03*
D11*
X208248250Y-80645000D03*
D14*
X198596250Y-83185000D03*
X204946250Y-80645000D03*
G04 #@! TD*
D15*
G04 #@! TO.C,S14-x1*
X254762000Y-2540000D03*
D16*
X254762000Y-17750000D03*
D15*
X278638000Y-2540000D03*
D16*
X278638000Y-17750000D03*
G04 #@! TD*
D17*
G04 #@! TO.C,S14-2*
X264260000Y-12065000D03*
D12*
X262255000Y-9525000D03*
D13*
X257175000Y-9525000D03*
D12*
X252095000Y-9525000D03*
D17*
X251333000Y-14605000D03*
D14*
X260985000Y-12065000D03*
X254635000Y-14605000D03*
G04 #@! TD*
D17*
G04 #@! TO.C,S14-1*
X283310000Y-12065000D03*
D12*
X281305000Y-9525000D03*
D13*
X276225000Y-9525000D03*
D12*
X271145000Y-9525000D03*
D17*
X270383000Y-14605000D03*
D14*
X280035000Y-12065000D03*
X273685000Y-14605000D03*
G04 #@! TD*
D11*
G04 #@! TO.C,S54*
X216752500Y-64135000D03*
D12*
X218757500Y-66675000D03*
D13*
X223837500Y-66675000D03*
D12*
X228917500Y-66675000D03*
D11*
X229679500Y-61595000D03*
D14*
X220027500Y-64135000D03*
X226377500Y-61595000D03*
G04 #@! TD*
D11*
G04 #@! TO.C,S51*
X159602500Y-64135000D03*
D12*
X161607500Y-66675000D03*
D13*
X166687500Y-66675000D03*
D12*
X171767500Y-66675000D03*
D11*
X172529500Y-61595000D03*
D14*
X162877500Y-64135000D03*
X169227500Y-61595000D03*
G04 #@! TD*
D17*
G04 #@! TO.C,S58-1*
X45185000Y-88265000D03*
D12*
X43180000Y-85725000D03*
D13*
X38100000Y-85725000D03*
D12*
X33020000Y-85725000D03*
D17*
X32258000Y-90805000D03*
D14*
X41910000Y-88265000D03*
X35560000Y-90805000D03*
G04 #@! TD*
D11*
G04 #@! TO.C,S60-1-a2*
X97690000Y-83185000D03*
D12*
X99695000Y-85725000D03*
D13*
X104775000Y-85725000D03*
D12*
X109855000Y-85725000D03*
D11*
X110617000Y-80645000D03*
D14*
X100965000Y-83185000D03*
X107315000Y-80645000D03*
G04 #@! TD*
D18*
G04 #@! TO.C,S41-1*
X271303750Y-45185000D03*
D12*
X273843750Y-43180000D03*
D13*
X273843750Y-38100000D03*
D12*
X273843750Y-33020000D03*
D18*
X268763750Y-32258000D03*
D14*
X271303750Y-41910000D03*
X268763750Y-35560000D03*
G04 #@! TD*
D11*
G04 #@! TO.C,S29-1*
X4821250Y-45085000D03*
D12*
X6826250Y-47625000D03*
D13*
X11906250Y-47625000D03*
D12*
X16986250Y-47625000D03*
D11*
X17748250Y-42545000D03*
D14*
X8096250Y-45085000D03*
X14446250Y-42545000D03*
G04 #@! TD*
D17*
G04 #@! TO.C,S30*
X23753750Y-50165000D03*
D12*
X21748750Y-47625000D03*
D13*
X16668750Y-47625000D03*
D12*
X11588750Y-47625000D03*
D17*
X10826750Y-52705000D03*
D14*
X20478750Y-50165000D03*
X14128750Y-52705000D03*
G04 #@! TD*
D11*
G04 #@! TO.C,S6*
X97690000Y-6985000D03*
D12*
X99695000Y-9525000D03*
D13*
X104775000Y-9525000D03*
D12*
X109855000Y-9525000D03*
D11*
X110617000Y-4445000D03*
D14*
X100965000Y-6985000D03*
X107315000Y-4445000D03*
G04 #@! TD*
D20*
G04 #@! TO.C,HOLE*
X1835000Y-56825000D03*
G04 #@! TD*
D11*
G04 #@! TO.C,S60*
X52446250Y-83185000D03*
D12*
X54451250Y-85725000D03*
D13*
X59531250Y-85725000D03*
D12*
X64611250Y-85725000D03*
D11*
X65373250Y-80645000D03*
D14*
X55721250Y-83185000D03*
X62071250Y-80645000D03*
G04 #@! TD*
D17*
G04 #@! TO.C,S59-1*
X68997500Y-88265000D03*
D12*
X66992500Y-85725000D03*
D13*
X61912500Y-85725000D03*
D12*
X56832500Y-85725000D03*
D17*
X56070500Y-90805000D03*
D14*
X65722500Y-88265000D03*
X59372500Y-90805000D03*
G04 #@! TD*
D17*
G04 #@! TO.C,S43-1*
X28516250Y-69215000D03*
D12*
X26511250Y-66675000D03*
D13*
X21431250Y-66675000D03*
D12*
X16351250Y-66675000D03*
D17*
X15589250Y-71755000D03*
D14*
X25241250Y-69215000D03*
X18891250Y-71755000D03*
G04 #@! TD*
D15*
G04 #@! TO.C,S60-x2*
X116713000Y-92710000D03*
D16*
X116713000Y-77500000D03*
D15*
X92837000Y-92710000D03*
D16*
X92837000Y-77500000D03*
G04 #@! TD*
D11*
G04 #@! TO.C,S60-1-b2*
X173890000Y-83185000D03*
D12*
X175895000Y-85725000D03*
D13*
X180975000Y-85725000D03*
D12*
X186055000Y-85725000D03*
D11*
X186817000Y-80645000D03*
D14*
X177165000Y-83185000D03*
X183515000Y-80645000D03*
G04 #@! TD*
D22*
G04 #@! TO.C,S2*
X31115000Y-2440000D03*
D12*
X28575000Y-4445000D03*
D13*
X28575000Y-9525000D03*
D12*
X28575000Y-14605000D03*
D22*
X33655000Y-15367000D03*
D14*
X31115000Y-5715000D03*
X33655000Y-12065000D03*
G04 #@! TD*
D18*
G04 #@! TO.C,S60-1-a1*
X90328750Y-92810000D03*
D12*
X92868750Y-90805000D03*
D13*
X92868750Y-85725000D03*
D12*
X92868750Y-80645000D03*
D18*
X87788750Y-79883000D03*
D14*
X90328750Y-89535000D03*
X87788750Y-83185000D03*
G04 #@! TD*
D19*
G04 #@! TO.C,HOLE*
X190875000Y-85525000D03*
G04 #@! TD*
D11*
G04 #@! TO.C,S41*
X226277500Y-45085000D03*
D12*
X228282500Y-47625000D03*
D13*
X233362500Y-47625000D03*
D12*
X238442500Y-47625000D03*
D11*
X239204500Y-42545000D03*
D14*
X229552500Y-45085000D03*
X235902500Y-42545000D03*
G04 #@! TD*
D15*
G04 #@! TO.C,S60-x4*
X192913000Y-92710000D03*
D16*
X192913000Y-77500000D03*
D15*
X169037000Y-92710000D03*
D16*
X169037000Y-77500000D03*
G04 #@! TD*
D23*
G04 #@! TO.C,D2*
X37349000Y-15423500D03*
X37349000Y-12123500D03*
G04 #@! TD*
D24*
G04 #@! TO.C,D1*
X19098000Y-11752000D03*
D25*
X19098000Y-13452000D03*
X17098000Y-13452000D03*
X17098000Y-11552000D03*
G04 #@! TD*
D26*
G04 #@! TO.C,C22*
X23100000Y-45520000D03*
X23100000Y-46480000D03*
G04 #@! TD*
D23*
G04 #@! TO.C,D47*
X66357500Y-72555000D03*
X66357500Y-69255000D03*
G04 #@! TD*
G04 #@! TO.C,D33*
X75882500Y-53505000D03*
X75882500Y-50205000D03*
G04 #@! TD*
G04 #@! TO.C,D35*
X113982500Y-53505000D03*
X113982500Y-50205000D03*
G04 #@! TD*
D27*
G04 #@! TO.C,C3*
X32780000Y-42950000D03*
X31820000Y-42950000D03*
G04 #@! TD*
D28*
G04 #@! TO.C,D42*
X242412500Y-52505000D03*
X242412500Y-55805000D03*
G04 #@! TD*
D27*
G04 #@! TO.C,C23*
X60707000Y-18083000D03*
X59747000Y-18083000D03*
G04 #@! TD*
D23*
G04 #@! TO.C,D57*
X264400000Y-72550000D03*
X264400000Y-69250000D03*
G04 #@! TD*
G04 #@! TO.C,D51*
X142557500Y-72555000D03*
X142557500Y-69255000D03*
G04 #@! TD*
D29*
G04 #@! TO.C,C5*
X29634000Y-46676000D03*
X29634000Y-45716000D03*
G04 #@! TD*
D23*
G04 #@! TO.C,D52*
X161607500Y-72555000D03*
X161607500Y-69255000D03*
G04 #@! TD*
D29*
G04 #@! TO.C,C15*
X23600000Y-33830000D03*
X23600000Y-32870000D03*
G04 #@! TD*
D23*
G04 #@! TO.C,D6*
X80645000Y-15425000D03*
X80645000Y-12125000D03*
G04 #@! TD*
D29*
G04 #@! TO.C,C6*
X30641000Y-46685000D03*
X30641000Y-45725000D03*
G04 #@! TD*
D23*
G04 #@! TO.C,D39*
X190182500Y-53505000D03*
X190182500Y-50205000D03*
G04 #@! TD*
G04 #@! TO.C,D53*
X180657500Y-72555000D03*
X180657500Y-69255000D03*
G04 #@! TD*
D27*
G04 #@! TO.C,C12*
X20702000Y-39436000D03*
X19742000Y-39436000D03*
G04 #@! TD*
D28*
G04 #@! TO.C,D62*
X127798000Y-74028500D03*
X127798000Y-77328500D03*
G04 #@! TD*
D29*
G04 #@! TO.C,C19*
X30718000Y-35351000D03*
X30718000Y-34391000D03*
G04 #@! TD*
D23*
G04 #@! TO.C,D49*
X104457500Y-72555000D03*
X104457500Y-69255000D03*
G04 #@! TD*
G04 #@! TO.C,D21*
X109220000Y-34475000D03*
X109220000Y-31175000D03*
G04 #@! TD*
D30*
G04 #@! TO.C,C2*
X20729000Y-41656000D03*
X21689000Y-41656000D03*
G04 #@! TD*
D23*
G04 #@! TO.C,D43*
X242390000Y-50017500D03*
X242390000Y-46717500D03*
G04 #@! TD*
G04 #@! TO.C,D56*
X237600000Y-72550000D03*
X237600000Y-69250000D03*
G04 #@! TD*
G04 #@! TO.C,D50*
X123507500Y-72555000D03*
X123507500Y-69255000D03*
G04 #@! TD*
D28*
G04 #@! TO.C,D67*
X261462500Y-77345000D03*
X261462500Y-80645000D03*
G04 #@! TD*
D23*
G04 #@! TO.C,D28*
X242430000Y-34475000D03*
X242430000Y-31175000D03*
G04 #@! TD*
D31*
G04 #@! TO.C,X2*
X21120000Y-34140000D03*
X21120000Y-32740000D03*
X22220000Y-32740000D03*
X22220000Y-34140000D03*
G04 #@! TD*
D32*
G04 #@! TO.C,L2*
X29405000Y-35088500D03*
X29405000Y-33513500D03*
G04 #@! TD*
D33*
G04 #@! TO.C,U4*
X21900000Y-14652500D03*
X21900000Y-14152500D03*
X21900000Y-13652500D03*
X21900000Y-13152500D03*
X23380000Y-13152500D03*
X23380000Y-13652500D03*
X23380000Y-14152500D03*
X23380000Y-14652500D03*
G04 #@! TD*
D23*
G04 #@! TO.C,D4*
X42545000Y-15425000D03*
X42545000Y-12125000D03*
G04 #@! TD*
D34*
G04 #@! TO.C,R7*
X16460000Y-8180000D03*
X16460000Y-9200000D03*
G04 #@! TD*
D23*
G04 #@! TO.C,D5*
X61595000Y-15425000D03*
X61595000Y-12125000D03*
G04 #@! TD*
G04 #@! TO.C,D34*
X94932500Y-53505000D03*
X94932500Y-50205000D03*
G04 #@! TD*
G04 #@! TO.C,D18*
X52070000Y-34475000D03*
X52070000Y-31175000D03*
G04 #@! TD*
D35*
G04 #@! TO.C,L3*
X19744000Y-40416000D03*
X20714000Y-40416000D03*
G04 #@! TD*
D26*
G04 #@! TO.C,C1*
X31672000Y-34393000D03*
X31672000Y-35353000D03*
G04 #@! TD*
D36*
G04 #@! TO.C,D29*
X259880000Y-23640000D03*
X263180000Y-23640000D03*
G04 #@! TD*
D28*
G04 #@! TO.C,D66*
X237650000Y-77345000D03*
X237650000Y-80645000D03*
G04 #@! TD*
D23*
G04 #@! TO.C,D32*
X56832500Y-53505000D03*
X56832500Y-50205000D03*
G04 #@! TD*
D37*
G04 #@! TO.C,D30*
X27600000Y-53800000D03*
X24300000Y-53800000D03*
G04 #@! TD*
D23*
G04 #@! TO.C,D41*
X228282500Y-53505000D03*
X228282500Y-50205000D03*
G04 #@! TD*
D29*
G04 #@! TO.C,C11*
X53388000Y-12779000D03*
X53388000Y-11819000D03*
G04 #@! TD*
D38*
G04 #@! TO.C,X1*
X33523000Y-37346000D03*
X33523000Y-34846000D03*
G04 #@! TD*
D30*
G04 #@! TO.C,C18*
X31820000Y-41950000D03*
X32780000Y-41950000D03*
G04 #@! TD*
D23*
G04 #@! TO.C,D48*
X85407500Y-72555000D03*
X85407500Y-69255000D03*
G04 #@! TD*
G04 #@! TO.C,D10*
X156845000Y-15425000D03*
X156845000Y-12125000D03*
G04 #@! TD*
G04 #@! TO.C,D46*
X47307500Y-72555000D03*
X47307500Y-69255000D03*
G04 #@! TD*
G04 #@! TO.C,D55*
X218757500Y-72555000D03*
X218757500Y-69255000D03*
G04 #@! TD*
D27*
G04 #@! TO.C,C14*
X22140000Y-35340000D03*
X21180000Y-35340000D03*
G04 #@! TD*
D23*
G04 #@! TO.C,D8*
X118745000Y-15425000D03*
X118745000Y-12125000D03*
G04 #@! TD*
G04 #@! TO.C,D54*
X199707500Y-72555000D03*
X199707500Y-69255000D03*
G04 #@! TD*
D27*
G04 #@! TO.C,C16*
X19316000Y-37014000D03*
X18356000Y-37014000D03*
G04 #@! TD*
D23*
G04 #@! TO.C,D25*
X185420000Y-34475000D03*
X185420000Y-31175000D03*
G04 #@! TD*
D28*
G04 #@! TO.C,D61*
X98484000Y-74356000D03*
X98484000Y-77656000D03*
G04 #@! TD*
D39*
G04 #@! TO.C,L6*
X28016000Y-34392000D03*
X28016000Y-35362000D03*
G04 #@! TD*
D30*
G04 #@! TO.C,R4*
X7768000Y-39432000D03*
X8728000Y-39432000D03*
G04 #@! TD*
D23*
G04 #@! TO.C,D40*
X209232500Y-53505000D03*
X209232500Y-50205000D03*
G04 #@! TD*
G04 #@! TO.C,D22*
X128270000Y-34475000D03*
X128270000Y-31175000D03*
G04 #@! TD*
D34*
G04 #@! TO.C,R2*
X23979000Y-10869000D03*
X23979000Y-11889000D03*
G04 #@! TD*
D26*
G04 #@! TO.C,C20*
X26700000Y-45670000D03*
X26700000Y-46630000D03*
G04 #@! TD*
G04 #@! TO.C,R6*
X27730793Y-45675000D03*
X27730793Y-46635000D03*
G04 #@! TD*
D23*
G04 #@! TO.C,D11*
X175895000Y-15425000D03*
X175895000Y-12125000D03*
G04 #@! TD*
G04 #@! TO.C,D3*
X39890000Y-15420000D03*
X39890000Y-12120000D03*
G04 #@! TD*
G04 #@! TO.C,D26*
X212946000Y-34537000D03*
X212946000Y-31237000D03*
G04 #@! TD*
D26*
G04 #@! TO.C,R5*
X28650793Y-45675000D03*
X28650793Y-46635000D03*
G04 #@! TD*
G04 #@! TO.C,C13*
X21668000Y-39466000D03*
X21668000Y-40426000D03*
G04 #@! TD*
D23*
G04 #@! TO.C,D45*
X42862500Y-72555000D03*
X42862500Y-69255000D03*
G04 #@! TD*
D28*
G04 #@! TO.C,D15*
X249490000Y-3522500D03*
X249490000Y-6822500D03*
G04 #@! TD*
D40*
G04 #@! TO.C,BT1*
X201833000Y-29821000D03*
X200583000Y-29821000D03*
D41*
X204383000Y-32721000D03*
X198033000Y-32721000D03*
G04 #@! TD*
D28*
G04 #@! TO.C,D58*
X24287500Y-77345000D03*
X24287500Y-80645000D03*
G04 #@! TD*
D23*
G04 #@! TO.C,D17*
X40835000Y-34471000D03*
X40835000Y-31171000D03*
G04 #@! TD*
D26*
G04 #@! TO.C,C8*
X35307000Y-34554000D03*
X35307000Y-35514000D03*
G04 #@! TD*
D23*
G04 #@! TO.C,D14*
X233045000Y-15425000D03*
X233045000Y-12125000D03*
G04 #@! TD*
D42*
G04 #@! TO.C,J1*
X111719000Y-75953000D03*
D43*
X109719000Y-75953000D03*
G04 #@! TD*
D23*
G04 #@! TO.C,D44*
X38417500Y-72555000D03*
X38417500Y-69255000D03*
G04 #@! TD*
G04 #@! TO.C,D16*
X10986000Y-34627000D03*
X10986000Y-31327000D03*
G04 #@! TD*
G04 #@! TO.C,D7*
X99695000Y-15425000D03*
X99695000Y-12125000D03*
G04 #@! TD*
D28*
G04 #@! TO.C,D60*
X71912500Y-77345000D03*
X71912500Y-80645000D03*
G04 #@! TD*
D23*
G04 #@! TO.C,D27*
X223520000Y-34475000D03*
X223520000Y-31175000D03*
G04 #@! TD*
D36*
G04 #@! TO.C,D14-1*
X247000000Y-17800000D03*
X250300000Y-17800000D03*
G04 #@! TD*
D44*
G04 #@! TO.C,R3*
X54800000Y-9620000D03*
X54800000Y-8600000D03*
G04 #@! TD*
D23*
G04 #@! TO.C,D19*
X71120000Y-34475000D03*
X71120000Y-31175000D03*
G04 #@! TD*
D26*
G04 #@! TO.C,C7*
X31840000Y-45400000D03*
X31840000Y-46360000D03*
G04 #@! TD*
D28*
G04 #@! TO.C,D65*
X213837500Y-77345000D03*
X213837500Y-80645000D03*
G04 #@! TD*
D42*
G04 #@! TO.C,J2*
X115567000Y-85347000D03*
D43*
X113567000Y-85347000D03*
G04 #@! TD*
D23*
G04 #@! TO.C,D24*
X166370000Y-34475000D03*
X166370000Y-31175000D03*
G04 #@! TD*
D45*
G04 #@! TO.C,R1*
X21760000Y-10910000D03*
X22780000Y-10910000D03*
G04 #@! TD*
D46*
G04 #@! TO.C,U1*
X57131500Y-10865000D03*
X57131500Y-11815000D03*
X57131500Y-12765000D03*
X54856500Y-12765000D03*
X54856500Y-11815000D03*
X54856500Y-10865000D03*
G04 #@! TD*
D23*
G04 #@! TO.C,D37*
X152082500Y-53505000D03*
X152082500Y-50205000D03*
G04 #@! TD*
D47*
G04 #@! TO.C,L1*
X32022500Y-44130000D03*
X33597500Y-44130000D03*
G04 #@! TD*
D28*
G04 #@! TO.C,D59*
X48100000Y-77345000D03*
X48100000Y-80645000D03*
G04 #@! TD*
D23*
G04 #@! TO.C,D38*
X171132500Y-53505000D03*
X171132500Y-50205000D03*
G04 #@! TD*
G04 #@! TO.C,D13*
X213995000Y-15425000D03*
X213995000Y-12125000D03*
G04 #@! TD*
D48*
G04 #@! TO.C,U2*
X28000000Y-37200000D03*
X27500000Y-37200000D03*
X27000000Y-37200000D03*
X26500000Y-37200000D03*
X26000000Y-37200000D03*
X25500000Y-37200000D03*
X25000000Y-37200000D03*
X24500000Y-37200000D03*
X24000000Y-37200000D03*
X23500000Y-42700000D03*
X29500000Y-42950000D03*
X28750000Y-43200000D03*
X27750000Y-43200000D03*
X27250000Y-43200000D03*
X26750000Y-43200000D03*
X26250000Y-43200000D03*
X25750000Y-43200000D03*
X25250000Y-43200000D03*
X24750000Y-43200000D03*
X23500000Y-43200000D03*
X29500000Y-43700000D03*
X29000000Y-43700000D03*
X28500000Y-43700000D03*
X28000000Y-43700000D03*
X27500000Y-43700000D03*
X27000000Y-43700000D03*
X26500000Y-43700000D03*
X26000000Y-43700000D03*
X25500000Y-43700000D03*
X25000000Y-43700000D03*
X24500000Y-43700000D03*
X24000000Y-43700000D03*
X30000000Y-37700000D03*
X29250000Y-37700000D03*
X28750000Y-37700000D03*
X28250000Y-37700000D03*
X27750000Y-37700000D03*
X27250000Y-37700000D03*
X26750000Y-37700000D03*
X26250000Y-37700000D03*
X25750000Y-37700000D03*
X25250000Y-37700000D03*
X23500000Y-37700000D03*
X30000000Y-38200000D03*
X29500000Y-38450000D03*
X24000000Y-38450000D03*
X23500000Y-38700000D03*
D49*
X26750000Y-40450000D03*
D48*
X29500000Y-38950000D03*
X24000000Y-38950000D03*
X30000000Y-39200000D03*
X29500000Y-39450000D03*
X24000000Y-39450000D03*
X30000000Y-39700000D03*
X23500000Y-39700000D03*
X29500000Y-39950000D03*
X30000000Y-40200000D03*
X23500000Y-40200000D03*
X29500000Y-40450000D03*
X30000000Y-40700000D03*
X23500000Y-40700000D03*
X29500000Y-40950000D03*
X24000000Y-40950000D03*
X30000000Y-41200000D03*
X23500000Y-41200000D03*
X29500000Y-41450000D03*
X24000000Y-41450000D03*
X30000000Y-41700000D03*
X23500000Y-41700000D03*
X24000000Y-41950000D03*
X30000000Y-42200000D03*
X23500000Y-42200000D03*
X29500000Y-42450000D03*
X24000000Y-42450000D03*
G04 #@! TD*
D34*
G04 #@! TO.C,R8*
X20330000Y-8410000D03*
X20330000Y-9430000D03*
G04 #@! TD*
D27*
G04 #@! TO.C,C24*
X8726000Y-38441000D03*
X7766000Y-38441000D03*
G04 #@! TD*
D23*
G04 #@! TO.C,D36*
X133032500Y-53505000D03*
X133032500Y-50205000D03*
G04 #@! TD*
G04 #@! TO.C,D31*
X37782500Y-53505000D03*
X37782500Y-50205000D03*
G04 #@! TD*
D50*
G04 #@! TO.C,C17*
X21295000Y-38230000D03*
X19745000Y-38230000D03*
G04 #@! TD*
D23*
G04 #@! TO.C,D23*
X147320000Y-34475000D03*
X147320000Y-31175000D03*
G04 #@! TD*
D28*
G04 #@! TO.C,D64*
X211397000Y-77324500D03*
X211397000Y-80624500D03*
G04 #@! TD*
D26*
G04 #@! TO.C,C10*
X35350000Y-36595000D03*
X35350000Y-37555000D03*
G04 #@! TD*
D51*
G04 #@! TO.C,AE1*
X7584000Y-38464000D03*
G04 #@! TD*
D23*
G04 #@! TO.C,D12*
X194945000Y-15425000D03*
X194945000Y-12125000D03*
G04 #@! TD*
D30*
G04 #@! TO.C,C4*
X20646000Y-36904000D03*
X21606000Y-36904000D03*
G04 #@! TD*
D23*
G04 #@! TO.C,D20*
X90170000Y-34475000D03*
X90170000Y-31175000D03*
G04 #@! TD*
D28*
G04 #@! TO.C,D63*
X163643000Y-75427000D03*
X163643000Y-78727000D03*
G04 #@! TD*
D26*
G04 #@! TO.C,C9*
X20700000Y-14460000D03*
X20700000Y-15420000D03*
G04 #@! TD*
D52*
G04 #@! TO.C,J3*
X15685000Y-5105000D03*
X21465000Y-5105000D03*
D53*
X15375000Y-6430000D03*
X16175000Y-6430000D03*
D54*
X17325000Y-6430000D03*
X18325000Y-6430000D03*
X18825000Y-6430000D03*
X19825000Y-6430000D03*
D53*
X20975000Y-6430000D03*
X21775000Y-6430000D03*
X21775000Y-6430000D03*
X20975000Y-6430000D03*
D54*
X20325000Y-6430000D03*
X19325000Y-6430000D03*
X17825000Y-6430000D03*
X16825000Y-6430000D03*
D53*
X16175000Y-6430000D03*
X15375000Y-6430000D03*
D55*
X14255000Y-1425000D03*
D56*
X14255000Y-5605000D03*
D55*
X22895000Y-1425000D03*
D56*
X22895000Y-5605000D03*
G04 #@! TD*
D23*
G04 #@! TO.C,D9*
X137795000Y-15425000D03*
X137795000Y-12125000D03*
G04 #@! TD*
D29*
G04 #@! TO.C,C21*
X24540000Y-35320000D03*
X24540000Y-34360000D03*
G04 #@! TD*
M02*
