%TF.GenerationSoftware,KiCad,Pcbnew,8.0.3*%
%TF.CreationDate,2024-07-23T17:57:54+08:00*%
%TF.ProjectId,udb-s,7564622d-732e-46b6-9963-61645f706362,rev?*%
%TF.SameCoordinates,Original*%
%TF.FileFunction,Drillmap*%
%TF.FilePolarity,Positive*%
%FSLAX45Y45*%
G04 Gerber Fmt 4.5, Leading zero omitted, Abs format (unit mm)*
G04 Created by KiCad (PCBNEW 8.0.3) date 2024-07-23 17:57:54*
%MOMM*%
%LPD*%
G01*
G04 APERTURE LIST*
%ADD10C,0.100000*%
%ADD11C,0.200000*%
G04 APERTURE END LIST*
D10*
X14350000Y-4050000D02*
X14350000Y-3250000D01*
X14350000Y-3250000D02*
G75*
G02*
X14450000Y-3150000I100000J0D01*
G01*
X14450000Y-3150000D02*
X17750000Y-3150000D01*
X14450000Y-4150000D02*
G75*
G02*
X14350000Y-4050000I0J100000D01*
G01*
X17850000Y-3250000D02*
X17850000Y-4050000D01*
X17750000Y-3150000D02*
G75*
G02*
X17850000Y-3250000I0J-100000D01*
G01*
X17850000Y-4050000D02*
G75*
G02*
X17750000Y-4150000I-100000J0D01*
G01*
X17750000Y-4150000D02*
X14450000Y-4150000D01*
D11*
D10*
X14650000Y-3620500D02*
X14715000Y-3685500D01*
X14715000Y-3620500D02*
X14650000Y-3685500D01*
X15228000Y-3620500D02*
X15293000Y-3685500D01*
X15293000Y-3620500D02*
X15228000Y-3685500D01*
D11*
X14605777Y-4466484D02*
X14605777Y-4266484D01*
X14605777Y-4266484D02*
X14653396Y-4266484D01*
X14653396Y-4266484D02*
X14681967Y-4276008D01*
X14681967Y-4276008D02*
X14701015Y-4295055D01*
X14701015Y-4295055D02*
X14710539Y-4314103D01*
X14710539Y-4314103D02*
X14720062Y-4352198D01*
X14720062Y-4352198D02*
X14720062Y-4380770D01*
X14720062Y-4380770D02*
X14710539Y-4418865D01*
X14710539Y-4418865D02*
X14701015Y-4437912D01*
X14701015Y-4437912D02*
X14681967Y-4456960D01*
X14681967Y-4456960D02*
X14653396Y-4466484D01*
X14653396Y-4466484D02*
X14605777Y-4466484D01*
X14805777Y-4466484D02*
X14805777Y-4333150D01*
X14805777Y-4371246D02*
X14815301Y-4352198D01*
X14815301Y-4352198D02*
X14824824Y-4342674D01*
X14824824Y-4342674D02*
X14843872Y-4333150D01*
X14843872Y-4333150D02*
X14862920Y-4333150D01*
X14929586Y-4466484D02*
X14929586Y-4333150D01*
X14929586Y-4266484D02*
X14920062Y-4276008D01*
X14920062Y-4276008D02*
X14929586Y-4285531D01*
X14929586Y-4285531D02*
X14939110Y-4276008D01*
X14939110Y-4276008D02*
X14929586Y-4266484D01*
X14929586Y-4266484D02*
X14929586Y-4285531D01*
X15053396Y-4466484D02*
X15034348Y-4456960D01*
X15034348Y-4456960D02*
X15024824Y-4437912D01*
X15024824Y-4437912D02*
X15024824Y-4266484D01*
X15158158Y-4466484D02*
X15139110Y-4456960D01*
X15139110Y-4456960D02*
X15129586Y-4437912D01*
X15129586Y-4437912D02*
X15129586Y-4266484D01*
X15386729Y-4466484D02*
X15386729Y-4266484D01*
X15386729Y-4266484D02*
X15453396Y-4409341D01*
X15453396Y-4409341D02*
X15520062Y-4266484D01*
X15520062Y-4266484D02*
X15520062Y-4466484D01*
X15701015Y-4466484D02*
X15701015Y-4361722D01*
X15701015Y-4361722D02*
X15691491Y-4342674D01*
X15691491Y-4342674D02*
X15672443Y-4333150D01*
X15672443Y-4333150D02*
X15634348Y-4333150D01*
X15634348Y-4333150D02*
X15615301Y-4342674D01*
X15701015Y-4456960D02*
X15681967Y-4466484D01*
X15681967Y-4466484D02*
X15634348Y-4466484D01*
X15634348Y-4466484D02*
X15615301Y-4456960D01*
X15615301Y-4456960D02*
X15605777Y-4437912D01*
X15605777Y-4437912D02*
X15605777Y-4418865D01*
X15605777Y-4418865D02*
X15615301Y-4399817D01*
X15615301Y-4399817D02*
X15634348Y-4390293D01*
X15634348Y-4390293D02*
X15681967Y-4390293D01*
X15681967Y-4390293D02*
X15701015Y-4380770D01*
X15796253Y-4333150D02*
X15796253Y-4533150D01*
X15796253Y-4342674D02*
X15815301Y-4333150D01*
X15815301Y-4333150D02*
X15853396Y-4333150D01*
X15853396Y-4333150D02*
X15872443Y-4342674D01*
X15872443Y-4342674D02*
X15881967Y-4352198D01*
X15881967Y-4352198D02*
X15891491Y-4371246D01*
X15891491Y-4371246D02*
X15891491Y-4428389D01*
X15891491Y-4428389D02*
X15881967Y-4447436D01*
X15881967Y-4447436D02*
X15872443Y-4456960D01*
X15872443Y-4456960D02*
X15853396Y-4466484D01*
X15853396Y-4466484D02*
X15815301Y-4466484D01*
X15815301Y-4466484D02*
X15796253Y-4456960D01*
X15977205Y-4447436D02*
X15986729Y-4456960D01*
X15986729Y-4456960D02*
X15977205Y-4466484D01*
X15977205Y-4466484D02*
X15967682Y-4456960D01*
X15967682Y-4456960D02*
X15977205Y-4447436D01*
X15977205Y-4447436D02*
X15977205Y-4466484D01*
X15977205Y-4342674D02*
X15986729Y-4352198D01*
X15986729Y-4352198D02*
X15977205Y-4361722D01*
X15977205Y-4361722D02*
X15967682Y-4352198D01*
X15967682Y-4352198D02*
X15977205Y-4342674D01*
X15977205Y-4342674D02*
X15977205Y-4361722D01*
D10*
X14280000Y-4762500D02*
X14345000Y-4827500D01*
X14345000Y-4762500D02*
X14280000Y-4827500D01*
D11*
X14643872Y-4686484D02*
X14662920Y-4686484D01*
X14662920Y-4686484D02*
X14681967Y-4696008D01*
X14681967Y-4696008D02*
X14691491Y-4705531D01*
X14691491Y-4705531D02*
X14701015Y-4724579D01*
X14701015Y-4724579D02*
X14710539Y-4762674D01*
X14710539Y-4762674D02*
X14710539Y-4810293D01*
X14710539Y-4810293D02*
X14701015Y-4848389D01*
X14701015Y-4848389D02*
X14691491Y-4867436D01*
X14691491Y-4867436D02*
X14681967Y-4876960D01*
X14681967Y-4876960D02*
X14662920Y-4886484D01*
X14662920Y-4886484D02*
X14643872Y-4886484D01*
X14643872Y-4886484D02*
X14624824Y-4876960D01*
X14624824Y-4876960D02*
X14615301Y-4867436D01*
X14615301Y-4867436D02*
X14605777Y-4848389D01*
X14605777Y-4848389D02*
X14596253Y-4810293D01*
X14596253Y-4810293D02*
X14596253Y-4762674D01*
X14596253Y-4762674D02*
X14605777Y-4724579D01*
X14605777Y-4724579D02*
X14615301Y-4705531D01*
X14615301Y-4705531D02*
X14624824Y-4696008D01*
X14624824Y-4696008D02*
X14643872Y-4686484D01*
X14796253Y-4867436D02*
X14805777Y-4876960D01*
X14805777Y-4876960D02*
X14796253Y-4886484D01*
X14796253Y-4886484D02*
X14786729Y-4876960D01*
X14786729Y-4876960D02*
X14796253Y-4867436D01*
X14796253Y-4867436D02*
X14796253Y-4886484D01*
X14977205Y-4686484D02*
X14939110Y-4686484D01*
X14939110Y-4686484D02*
X14920062Y-4696008D01*
X14920062Y-4696008D02*
X14910539Y-4705531D01*
X14910539Y-4705531D02*
X14891491Y-4734103D01*
X14891491Y-4734103D02*
X14881967Y-4772198D01*
X14881967Y-4772198D02*
X14881967Y-4848389D01*
X14881967Y-4848389D02*
X14891491Y-4867436D01*
X14891491Y-4867436D02*
X14901015Y-4876960D01*
X14901015Y-4876960D02*
X14920062Y-4886484D01*
X14920062Y-4886484D02*
X14958158Y-4886484D01*
X14958158Y-4886484D02*
X14977205Y-4876960D01*
X14977205Y-4876960D02*
X14986729Y-4867436D01*
X14986729Y-4867436D02*
X14996253Y-4848389D01*
X14996253Y-4848389D02*
X14996253Y-4800770D01*
X14996253Y-4800770D02*
X14986729Y-4781722D01*
X14986729Y-4781722D02*
X14977205Y-4772198D01*
X14977205Y-4772198D02*
X14958158Y-4762674D01*
X14958158Y-4762674D02*
X14920062Y-4762674D01*
X14920062Y-4762674D02*
X14901015Y-4772198D01*
X14901015Y-4772198D02*
X14891491Y-4781722D01*
X14891491Y-4781722D02*
X14881967Y-4800770D01*
X15177205Y-4686484D02*
X15081967Y-4686484D01*
X15081967Y-4686484D02*
X15072443Y-4781722D01*
X15072443Y-4781722D02*
X15081967Y-4772198D01*
X15081967Y-4772198D02*
X15101015Y-4762674D01*
X15101015Y-4762674D02*
X15148634Y-4762674D01*
X15148634Y-4762674D02*
X15167682Y-4772198D01*
X15167682Y-4772198D02*
X15177205Y-4781722D01*
X15177205Y-4781722D02*
X15186729Y-4800770D01*
X15186729Y-4800770D02*
X15186729Y-4848389D01*
X15186729Y-4848389D02*
X15177205Y-4867436D01*
X15177205Y-4867436D02*
X15167682Y-4876960D01*
X15167682Y-4876960D02*
X15148634Y-4886484D01*
X15148634Y-4886484D02*
X15101015Y-4886484D01*
X15101015Y-4886484D02*
X15081967Y-4876960D01*
X15081967Y-4876960D02*
X15072443Y-4867436D01*
X15310539Y-4686484D02*
X15329586Y-4686484D01*
X15329586Y-4686484D02*
X15348634Y-4696008D01*
X15348634Y-4696008D02*
X15358158Y-4705531D01*
X15358158Y-4705531D02*
X15367682Y-4724579D01*
X15367682Y-4724579D02*
X15377205Y-4762674D01*
X15377205Y-4762674D02*
X15377205Y-4810293D01*
X15377205Y-4810293D02*
X15367682Y-4848389D01*
X15367682Y-4848389D02*
X15358158Y-4867436D01*
X15358158Y-4867436D02*
X15348634Y-4876960D01*
X15348634Y-4876960D02*
X15329586Y-4886484D01*
X15329586Y-4886484D02*
X15310539Y-4886484D01*
X15310539Y-4886484D02*
X15291491Y-4876960D01*
X15291491Y-4876960D02*
X15281967Y-4867436D01*
X15281967Y-4867436D02*
X15272443Y-4848389D01*
X15272443Y-4848389D02*
X15262920Y-4810293D01*
X15262920Y-4810293D02*
X15262920Y-4762674D01*
X15262920Y-4762674D02*
X15272443Y-4724579D01*
X15272443Y-4724579D02*
X15281967Y-4705531D01*
X15281967Y-4705531D02*
X15291491Y-4696008D01*
X15291491Y-4696008D02*
X15310539Y-4686484D01*
X15462920Y-4886484D02*
X15462920Y-4753150D01*
X15462920Y-4772198D02*
X15472443Y-4762674D01*
X15472443Y-4762674D02*
X15491491Y-4753150D01*
X15491491Y-4753150D02*
X15520063Y-4753150D01*
X15520063Y-4753150D02*
X15539110Y-4762674D01*
X15539110Y-4762674D02*
X15548634Y-4781722D01*
X15548634Y-4781722D02*
X15548634Y-4886484D01*
X15548634Y-4781722D02*
X15558158Y-4762674D01*
X15558158Y-4762674D02*
X15577205Y-4753150D01*
X15577205Y-4753150D02*
X15605777Y-4753150D01*
X15605777Y-4753150D02*
X15624824Y-4762674D01*
X15624824Y-4762674D02*
X15634348Y-4781722D01*
X15634348Y-4781722D02*
X15634348Y-4886484D01*
X15729586Y-4886484D02*
X15729586Y-4753150D01*
X15729586Y-4772198D02*
X15739110Y-4762674D01*
X15739110Y-4762674D02*
X15758158Y-4753150D01*
X15758158Y-4753150D02*
X15786729Y-4753150D01*
X15786729Y-4753150D02*
X15805777Y-4762674D01*
X15805777Y-4762674D02*
X15815301Y-4781722D01*
X15815301Y-4781722D02*
X15815301Y-4886484D01*
X15815301Y-4781722D02*
X15824824Y-4762674D01*
X15824824Y-4762674D02*
X15843872Y-4753150D01*
X15843872Y-4753150D02*
X15872443Y-4753150D01*
X15872443Y-4753150D02*
X15891491Y-4762674D01*
X15891491Y-4762674D02*
X15901015Y-4781722D01*
X15901015Y-4781722D02*
X15901015Y-4886484D01*
X16291491Y-4676960D02*
X16120063Y-4934103D01*
X16548634Y-4686484D02*
X16567682Y-4686484D01*
X16567682Y-4686484D02*
X16586729Y-4696008D01*
X16586729Y-4696008D02*
X16596253Y-4705531D01*
X16596253Y-4705531D02*
X16605777Y-4724579D01*
X16605777Y-4724579D02*
X16615301Y-4762674D01*
X16615301Y-4762674D02*
X16615301Y-4810293D01*
X16615301Y-4810293D02*
X16605777Y-4848389D01*
X16605777Y-4848389D02*
X16596253Y-4867436D01*
X16596253Y-4867436D02*
X16586729Y-4876960D01*
X16586729Y-4876960D02*
X16567682Y-4886484D01*
X16567682Y-4886484D02*
X16548634Y-4886484D01*
X16548634Y-4886484D02*
X16529586Y-4876960D01*
X16529586Y-4876960D02*
X16520063Y-4867436D01*
X16520063Y-4867436D02*
X16510539Y-4848389D01*
X16510539Y-4848389D02*
X16501015Y-4810293D01*
X16501015Y-4810293D02*
X16501015Y-4762674D01*
X16501015Y-4762674D02*
X16510539Y-4724579D01*
X16510539Y-4724579D02*
X16520063Y-4705531D01*
X16520063Y-4705531D02*
X16529586Y-4696008D01*
X16529586Y-4696008D02*
X16548634Y-4686484D01*
X16701015Y-4867436D02*
X16710539Y-4876960D01*
X16710539Y-4876960D02*
X16701015Y-4886484D01*
X16701015Y-4886484D02*
X16691491Y-4876960D01*
X16691491Y-4876960D02*
X16701015Y-4867436D01*
X16701015Y-4867436D02*
X16701015Y-4886484D01*
X16834348Y-4686484D02*
X16853396Y-4686484D01*
X16853396Y-4686484D02*
X16872444Y-4696008D01*
X16872444Y-4696008D02*
X16881968Y-4705531D01*
X16881968Y-4705531D02*
X16891491Y-4724579D01*
X16891491Y-4724579D02*
X16901015Y-4762674D01*
X16901015Y-4762674D02*
X16901015Y-4810293D01*
X16901015Y-4810293D02*
X16891491Y-4848389D01*
X16891491Y-4848389D02*
X16881968Y-4867436D01*
X16881968Y-4867436D02*
X16872444Y-4876960D01*
X16872444Y-4876960D02*
X16853396Y-4886484D01*
X16853396Y-4886484D02*
X16834348Y-4886484D01*
X16834348Y-4886484D02*
X16815301Y-4876960D01*
X16815301Y-4876960D02*
X16805777Y-4867436D01*
X16805777Y-4867436D02*
X16796253Y-4848389D01*
X16796253Y-4848389D02*
X16786729Y-4810293D01*
X16786729Y-4810293D02*
X16786729Y-4762674D01*
X16786729Y-4762674D02*
X16796253Y-4724579D01*
X16796253Y-4724579D02*
X16805777Y-4705531D01*
X16805777Y-4705531D02*
X16815301Y-4696008D01*
X16815301Y-4696008D02*
X16834348Y-4686484D01*
X16977206Y-4705531D02*
X16986729Y-4696008D01*
X16986729Y-4696008D02*
X17005777Y-4686484D01*
X17005777Y-4686484D02*
X17053396Y-4686484D01*
X17053396Y-4686484D02*
X17072444Y-4696008D01*
X17072444Y-4696008D02*
X17081968Y-4705531D01*
X17081968Y-4705531D02*
X17091491Y-4724579D01*
X17091491Y-4724579D02*
X17091491Y-4743627D01*
X17091491Y-4743627D02*
X17081968Y-4772198D01*
X17081968Y-4772198D02*
X16967682Y-4886484D01*
X16967682Y-4886484D02*
X17091491Y-4886484D01*
X17272444Y-4686484D02*
X17177206Y-4686484D01*
X17177206Y-4686484D02*
X17167682Y-4781722D01*
X17167682Y-4781722D02*
X17177206Y-4772198D01*
X17177206Y-4772198D02*
X17196253Y-4762674D01*
X17196253Y-4762674D02*
X17243872Y-4762674D01*
X17243872Y-4762674D02*
X17262920Y-4772198D01*
X17262920Y-4772198D02*
X17272444Y-4781722D01*
X17272444Y-4781722D02*
X17281968Y-4800770D01*
X17281968Y-4800770D02*
X17281968Y-4848389D01*
X17281968Y-4848389D02*
X17272444Y-4867436D01*
X17272444Y-4867436D02*
X17262920Y-4876960D01*
X17262920Y-4876960D02*
X17243872Y-4886484D01*
X17243872Y-4886484D02*
X17196253Y-4886484D01*
X17196253Y-4886484D02*
X17177206Y-4876960D01*
X17177206Y-4876960D02*
X17167682Y-4867436D01*
X17453396Y-4686484D02*
X17415301Y-4686484D01*
X17415301Y-4686484D02*
X17396253Y-4696008D01*
X17396253Y-4696008D02*
X17386729Y-4705531D01*
X17386729Y-4705531D02*
X17367682Y-4734103D01*
X17367682Y-4734103D02*
X17358158Y-4772198D01*
X17358158Y-4772198D02*
X17358158Y-4848389D01*
X17358158Y-4848389D02*
X17367682Y-4867436D01*
X17367682Y-4867436D02*
X17377206Y-4876960D01*
X17377206Y-4876960D02*
X17396253Y-4886484D01*
X17396253Y-4886484D02*
X17434349Y-4886484D01*
X17434349Y-4886484D02*
X17453396Y-4876960D01*
X17453396Y-4876960D02*
X17462920Y-4867436D01*
X17462920Y-4867436D02*
X17472444Y-4848389D01*
X17472444Y-4848389D02*
X17472444Y-4800770D01*
X17472444Y-4800770D02*
X17462920Y-4781722D01*
X17462920Y-4781722D02*
X17453396Y-4772198D01*
X17453396Y-4772198D02*
X17434349Y-4762674D01*
X17434349Y-4762674D02*
X17396253Y-4762674D01*
X17396253Y-4762674D02*
X17377206Y-4772198D01*
X17377206Y-4772198D02*
X17367682Y-4781722D01*
X17367682Y-4781722D02*
X17358158Y-4800770D01*
X17548634Y-4686484D02*
X17548634Y-4724579D01*
X17624825Y-4686484D02*
X17624825Y-4724579D01*
X17920063Y-4962674D02*
X17910539Y-4953150D01*
X17910539Y-4953150D02*
X17891491Y-4924579D01*
X17891491Y-4924579D02*
X17881968Y-4905531D01*
X17881968Y-4905531D02*
X17872444Y-4876960D01*
X17872444Y-4876960D02*
X17862920Y-4829341D01*
X17862920Y-4829341D02*
X17862920Y-4791246D01*
X17862920Y-4791246D02*
X17872444Y-4743627D01*
X17872444Y-4743627D02*
X17881968Y-4715055D01*
X17881968Y-4715055D02*
X17891491Y-4696008D01*
X17891491Y-4696008D02*
X17910539Y-4667436D01*
X17910539Y-4667436D02*
X17920063Y-4657912D01*
X17986730Y-4705531D02*
X17996253Y-4696008D01*
X17996253Y-4696008D02*
X18015301Y-4686484D01*
X18015301Y-4686484D02*
X18062920Y-4686484D01*
X18062920Y-4686484D02*
X18081968Y-4696008D01*
X18081968Y-4696008D02*
X18091491Y-4705531D01*
X18091491Y-4705531D02*
X18101015Y-4724579D01*
X18101015Y-4724579D02*
X18101015Y-4743627D01*
X18101015Y-4743627D02*
X18091491Y-4772198D01*
X18091491Y-4772198D02*
X17977206Y-4886484D01*
X17977206Y-4886484D02*
X18101015Y-4886484D01*
X18339111Y-4886484D02*
X18339111Y-4686484D01*
X18424825Y-4886484D02*
X18424825Y-4781722D01*
X18424825Y-4781722D02*
X18415301Y-4762674D01*
X18415301Y-4762674D02*
X18396253Y-4753150D01*
X18396253Y-4753150D02*
X18367682Y-4753150D01*
X18367682Y-4753150D02*
X18348634Y-4762674D01*
X18348634Y-4762674D02*
X18339111Y-4772198D01*
X18548634Y-4886484D02*
X18529587Y-4876960D01*
X18529587Y-4876960D02*
X18520063Y-4867436D01*
X18520063Y-4867436D02*
X18510539Y-4848389D01*
X18510539Y-4848389D02*
X18510539Y-4791246D01*
X18510539Y-4791246D02*
X18520063Y-4772198D01*
X18520063Y-4772198D02*
X18529587Y-4762674D01*
X18529587Y-4762674D02*
X18548634Y-4753150D01*
X18548634Y-4753150D02*
X18577206Y-4753150D01*
X18577206Y-4753150D02*
X18596253Y-4762674D01*
X18596253Y-4762674D02*
X18605777Y-4772198D01*
X18605777Y-4772198D02*
X18615301Y-4791246D01*
X18615301Y-4791246D02*
X18615301Y-4848389D01*
X18615301Y-4848389D02*
X18605777Y-4867436D01*
X18605777Y-4867436D02*
X18596253Y-4876960D01*
X18596253Y-4876960D02*
X18577206Y-4886484D01*
X18577206Y-4886484D02*
X18548634Y-4886484D01*
X18729587Y-4886484D02*
X18710539Y-4876960D01*
X18710539Y-4876960D02*
X18701015Y-4857912D01*
X18701015Y-4857912D02*
X18701015Y-4686484D01*
X18881968Y-4876960D02*
X18862920Y-4886484D01*
X18862920Y-4886484D02*
X18824825Y-4886484D01*
X18824825Y-4886484D02*
X18805777Y-4876960D01*
X18805777Y-4876960D02*
X18796253Y-4857912D01*
X18796253Y-4857912D02*
X18796253Y-4781722D01*
X18796253Y-4781722D02*
X18805777Y-4762674D01*
X18805777Y-4762674D02*
X18824825Y-4753150D01*
X18824825Y-4753150D02*
X18862920Y-4753150D01*
X18862920Y-4753150D02*
X18881968Y-4762674D01*
X18881968Y-4762674D02*
X18891492Y-4781722D01*
X18891492Y-4781722D02*
X18891492Y-4800770D01*
X18891492Y-4800770D02*
X18796253Y-4819817D01*
X18967682Y-4876960D02*
X18986730Y-4886484D01*
X18986730Y-4886484D02*
X19024825Y-4886484D01*
X19024825Y-4886484D02*
X19043873Y-4876960D01*
X19043873Y-4876960D02*
X19053396Y-4857912D01*
X19053396Y-4857912D02*
X19053396Y-4848389D01*
X19053396Y-4848389D02*
X19043873Y-4829341D01*
X19043873Y-4829341D02*
X19024825Y-4819817D01*
X19024825Y-4819817D02*
X18996253Y-4819817D01*
X18996253Y-4819817D02*
X18977206Y-4810293D01*
X18977206Y-4810293D02*
X18967682Y-4791246D01*
X18967682Y-4791246D02*
X18967682Y-4781722D01*
X18967682Y-4781722D02*
X18977206Y-4762674D01*
X18977206Y-4762674D02*
X18996253Y-4753150D01*
X18996253Y-4753150D02*
X19024825Y-4753150D01*
X19024825Y-4753150D02*
X19043873Y-4762674D01*
X19120063Y-4962674D02*
X19129587Y-4953150D01*
X19129587Y-4953150D02*
X19148634Y-4924579D01*
X19148634Y-4924579D02*
X19158158Y-4905531D01*
X19158158Y-4905531D02*
X19167682Y-4876960D01*
X19167682Y-4876960D02*
X19177206Y-4829341D01*
X19177206Y-4829341D02*
X19177206Y-4791246D01*
X19177206Y-4791246D02*
X19167682Y-4743627D01*
X19167682Y-4743627D02*
X19158158Y-4715055D01*
X19158158Y-4715055D02*
X19148634Y-4696008D01*
X19148634Y-4696008D02*
X19129587Y-4667436D01*
X19129587Y-4667436D02*
X19120063Y-4657912D01*
X19481968Y-4962674D02*
X19472444Y-4953150D01*
X19472444Y-4953150D02*
X19453396Y-4924579D01*
X19453396Y-4924579D02*
X19443873Y-4905531D01*
X19443873Y-4905531D02*
X19434349Y-4876960D01*
X19434349Y-4876960D02*
X19424825Y-4829341D01*
X19424825Y-4829341D02*
X19424825Y-4791246D01*
X19424825Y-4791246D02*
X19434349Y-4743627D01*
X19434349Y-4743627D02*
X19443873Y-4715055D01*
X19443873Y-4715055D02*
X19453396Y-4696008D01*
X19453396Y-4696008D02*
X19472444Y-4667436D01*
X19472444Y-4667436D02*
X19481968Y-4657912D01*
X19558158Y-4753150D02*
X19558158Y-4886484D01*
X19558158Y-4772198D02*
X19567682Y-4762674D01*
X19567682Y-4762674D02*
X19586730Y-4753150D01*
X19586730Y-4753150D02*
X19615301Y-4753150D01*
X19615301Y-4753150D02*
X19634349Y-4762674D01*
X19634349Y-4762674D02*
X19643873Y-4781722D01*
X19643873Y-4781722D02*
X19643873Y-4886484D01*
X19767682Y-4886484D02*
X19748634Y-4876960D01*
X19748634Y-4876960D02*
X19739111Y-4867436D01*
X19739111Y-4867436D02*
X19729587Y-4848389D01*
X19729587Y-4848389D02*
X19729587Y-4791246D01*
X19729587Y-4791246D02*
X19739111Y-4772198D01*
X19739111Y-4772198D02*
X19748634Y-4762674D01*
X19748634Y-4762674D02*
X19767682Y-4753150D01*
X19767682Y-4753150D02*
X19796254Y-4753150D01*
X19796254Y-4753150D02*
X19815301Y-4762674D01*
X19815301Y-4762674D02*
X19824825Y-4772198D01*
X19824825Y-4772198D02*
X19834349Y-4791246D01*
X19834349Y-4791246D02*
X19834349Y-4848389D01*
X19834349Y-4848389D02*
X19824825Y-4867436D01*
X19824825Y-4867436D02*
X19815301Y-4876960D01*
X19815301Y-4876960D02*
X19796254Y-4886484D01*
X19796254Y-4886484D02*
X19767682Y-4886484D01*
X19891492Y-4753150D02*
X19967682Y-4753150D01*
X19920063Y-4686484D02*
X19920063Y-4857912D01*
X19920063Y-4857912D02*
X19929587Y-4876960D01*
X19929587Y-4876960D02*
X19948634Y-4886484D01*
X19948634Y-4886484D02*
X19967682Y-4886484D01*
X20186730Y-4753150D02*
X20186730Y-4953150D01*
X20186730Y-4762674D02*
X20205777Y-4753150D01*
X20205777Y-4753150D02*
X20243873Y-4753150D01*
X20243873Y-4753150D02*
X20262920Y-4762674D01*
X20262920Y-4762674D02*
X20272444Y-4772198D01*
X20272444Y-4772198D02*
X20281968Y-4791246D01*
X20281968Y-4791246D02*
X20281968Y-4848389D01*
X20281968Y-4848389D02*
X20272444Y-4867436D01*
X20272444Y-4867436D02*
X20262920Y-4876960D01*
X20262920Y-4876960D02*
X20243873Y-4886484D01*
X20243873Y-4886484D02*
X20205777Y-4886484D01*
X20205777Y-4886484D02*
X20186730Y-4876960D01*
X20396254Y-4886484D02*
X20377206Y-4876960D01*
X20377206Y-4876960D02*
X20367682Y-4857912D01*
X20367682Y-4857912D02*
X20367682Y-4686484D01*
X20558158Y-4886484D02*
X20558158Y-4781722D01*
X20558158Y-4781722D02*
X20548635Y-4762674D01*
X20548635Y-4762674D02*
X20529587Y-4753150D01*
X20529587Y-4753150D02*
X20491492Y-4753150D01*
X20491492Y-4753150D02*
X20472444Y-4762674D01*
X20558158Y-4876960D02*
X20539111Y-4886484D01*
X20539111Y-4886484D02*
X20491492Y-4886484D01*
X20491492Y-4886484D02*
X20472444Y-4876960D01*
X20472444Y-4876960D02*
X20462920Y-4857912D01*
X20462920Y-4857912D02*
X20462920Y-4838865D01*
X20462920Y-4838865D02*
X20472444Y-4819817D01*
X20472444Y-4819817D02*
X20491492Y-4810293D01*
X20491492Y-4810293D02*
X20539111Y-4810293D01*
X20539111Y-4810293D02*
X20558158Y-4800770D01*
X20624825Y-4753150D02*
X20701015Y-4753150D01*
X20653396Y-4686484D02*
X20653396Y-4857912D01*
X20653396Y-4857912D02*
X20662920Y-4876960D01*
X20662920Y-4876960D02*
X20681968Y-4886484D01*
X20681968Y-4886484D02*
X20701015Y-4886484D01*
X20843873Y-4876960D02*
X20824825Y-4886484D01*
X20824825Y-4886484D02*
X20786730Y-4886484D01*
X20786730Y-4886484D02*
X20767682Y-4876960D01*
X20767682Y-4876960D02*
X20758158Y-4857912D01*
X20758158Y-4857912D02*
X20758158Y-4781722D01*
X20758158Y-4781722D02*
X20767682Y-4762674D01*
X20767682Y-4762674D02*
X20786730Y-4753150D01*
X20786730Y-4753150D02*
X20824825Y-4753150D01*
X20824825Y-4753150D02*
X20843873Y-4762674D01*
X20843873Y-4762674D02*
X20853396Y-4781722D01*
X20853396Y-4781722D02*
X20853396Y-4800770D01*
X20853396Y-4800770D02*
X20758158Y-4819817D01*
X21024825Y-4886484D02*
X21024825Y-4686484D01*
X21024825Y-4876960D02*
X21005777Y-4886484D01*
X21005777Y-4886484D02*
X20967682Y-4886484D01*
X20967682Y-4886484D02*
X20948635Y-4876960D01*
X20948635Y-4876960D02*
X20939111Y-4867436D01*
X20939111Y-4867436D02*
X20929587Y-4848389D01*
X20929587Y-4848389D02*
X20929587Y-4791246D01*
X20929587Y-4791246D02*
X20939111Y-4772198D01*
X20939111Y-4772198D02*
X20948635Y-4762674D01*
X20948635Y-4762674D02*
X20967682Y-4753150D01*
X20967682Y-4753150D02*
X21005777Y-4753150D01*
X21005777Y-4753150D02*
X21024825Y-4762674D01*
X21101016Y-4962674D02*
X21110539Y-4953150D01*
X21110539Y-4953150D02*
X21129587Y-4924579D01*
X21129587Y-4924579D02*
X21139111Y-4905531D01*
X21139111Y-4905531D02*
X21148635Y-4876960D01*
X21148635Y-4876960D02*
X21158158Y-4829341D01*
X21158158Y-4829341D02*
X21158158Y-4791246D01*
X21158158Y-4791246D02*
X21148635Y-4743627D01*
X21148635Y-4743627D02*
X21139111Y-4715055D01*
X21139111Y-4715055D02*
X21129587Y-4696008D01*
X21129587Y-4696008D02*
X21110539Y-4667436D01*
X21110539Y-4667436D02*
X21101016Y-4657912D01*
M02*
