%TF.GenerationSoftware,KiCad,Pcbnew,8.0.4*%
%TF.CreationDate,2024-09-09T16:00:28+08:00*%
%TF.ProjectId,PH60_Rev3,50483630-5f52-4657-9633-2e6b69636164,rev?*%
%TF.SameCoordinates,PX1b40518PY1b40518*%
%TF.FileFunction,Legend,Bot*%
%TF.FilePolarity,Positive*%
%FSLAX46Y46*%
G04 Gerber Fmt 4.6, Leading zero omitted, Abs format (unit mm)*
G04 Created by KiCad (PCBNEW 8.0.4) date 2024-09-09 16:00:28*
%MOMM*%
%LPD*%
G01*
G04 APERTURE LIST*
%ADD10C,0.150000*%
%ADD11C,0.100000*%
%ADD12C,0.120000*%
G04 APERTURE END LIST*
D10*
X89779166Y-91419580D02*
X89826785Y-91467200D01*
X89826785Y-91467200D02*
X89969642Y-91514819D01*
X89969642Y-91514819D02*
X90064880Y-91514819D01*
X90064880Y-91514819D02*
X90207737Y-91467200D01*
X90207737Y-91467200D02*
X90302975Y-91371961D01*
X90302975Y-91371961D02*
X90350594Y-91276723D01*
X90350594Y-91276723D02*
X90398213Y-91086247D01*
X90398213Y-91086247D02*
X90398213Y-90943390D01*
X90398213Y-90943390D02*
X90350594Y-90752914D01*
X90350594Y-90752914D02*
X90302975Y-90657676D01*
X90302975Y-90657676D02*
X90207737Y-90562438D01*
X90207737Y-90562438D02*
X90064880Y-90514819D01*
X90064880Y-90514819D02*
X89969642Y-90514819D01*
X89969642Y-90514819D02*
X89826785Y-90562438D01*
X89826785Y-90562438D02*
X89779166Y-90610057D01*
X88826785Y-91514819D02*
X89398213Y-91514819D01*
X89112499Y-91514819D02*
X89112499Y-90514819D01*
X89112499Y-90514819D02*
X89207737Y-90657676D01*
X89207737Y-90657676D02*
X89302975Y-90752914D01*
X89302975Y-90752914D02*
X89398213Y-90800533D01*
X230737319Y-49940714D02*
X229737319Y-49940714D01*
X229737319Y-49940714D02*
X229737319Y-50178809D01*
X229737319Y-50178809D02*
X229784938Y-50321666D01*
X229784938Y-50321666D02*
X229880176Y-50416904D01*
X229880176Y-50416904D02*
X229975414Y-50464523D01*
X229975414Y-50464523D02*
X230165890Y-50512142D01*
X230165890Y-50512142D02*
X230308747Y-50512142D01*
X230308747Y-50512142D02*
X230499223Y-50464523D01*
X230499223Y-50464523D02*
X230594461Y-50416904D01*
X230594461Y-50416904D02*
X230689700Y-50321666D01*
X230689700Y-50321666D02*
X230737319Y-50178809D01*
X230737319Y-50178809D02*
X230737319Y-49940714D01*
X230070652Y-51369285D02*
X230737319Y-51369285D01*
X229689700Y-51131190D02*
X230403985Y-50893095D01*
X230403985Y-50893095D02*
X230403985Y-51512142D01*
X229737319Y-52083571D02*
X229737319Y-52178809D01*
X229737319Y-52178809D02*
X229784938Y-52274047D01*
X229784938Y-52274047D02*
X229832557Y-52321666D01*
X229832557Y-52321666D02*
X229927795Y-52369285D01*
X229927795Y-52369285D02*
X230118271Y-52416904D01*
X230118271Y-52416904D02*
X230356366Y-52416904D01*
X230356366Y-52416904D02*
X230546842Y-52369285D01*
X230546842Y-52369285D02*
X230642080Y-52321666D01*
X230642080Y-52321666D02*
X230689700Y-52274047D01*
X230689700Y-52274047D02*
X230737319Y-52178809D01*
X230737319Y-52178809D02*
X230737319Y-52083571D01*
X230737319Y-52083571D02*
X230689700Y-51988333D01*
X230689700Y-51988333D02*
X230642080Y-51940714D01*
X230642080Y-51940714D02*
X230546842Y-51893095D01*
X230546842Y-51893095D02*
X230356366Y-51845476D01*
X230356366Y-51845476D02*
X230118271Y-51845476D01*
X230118271Y-51845476D02*
X229927795Y-51893095D01*
X229927795Y-51893095D02*
X229832557Y-51940714D01*
X229832557Y-51940714D02*
X229784938Y-51988333D01*
X229784938Y-51988333D02*
X229737319Y-52083571D01*
X11662319Y-88040714D02*
X10662319Y-88040714D01*
X10662319Y-88040714D02*
X10662319Y-88278809D01*
X10662319Y-88278809D02*
X10709938Y-88421666D01*
X10709938Y-88421666D02*
X10805176Y-88516904D01*
X10805176Y-88516904D02*
X10900414Y-88564523D01*
X10900414Y-88564523D02*
X11090890Y-88612142D01*
X11090890Y-88612142D02*
X11233747Y-88612142D01*
X11233747Y-88612142D02*
X11424223Y-88564523D01*
X11424223Y-88564523D02*
X11519461Y-88516904D01*
X11519461Y-88516904D02*
X11614700Y-88421666D01*
X11614700Y-88421666D02*
X11662319Y-88278809D01*
X11662319Y-88278809D02*
X11662319Y-88040714D01*
X10662319Y-89516904D02*
X10662319Y-89040714D01*
X10662319Y-89040714D02*
X11138509Y-88993095D01*
X11138509Y-88993095D02*
X11090890Y-89040714D01*
X11090890Y-89040714D02*
X11043271Y-89135952D01*
X11043271Y-89135952D02*
X11043271Y-89374047D01*
X11043271Y-89374047D02*
X11090890Y-89469285D01*
X11090890Y-89469285D02*
X11138509Y-89516904D01*
X11138509Y-89516904D02*
X11233747Y-89564523D01*
X11233747Y-89564523D02*
X11471842Y-89564523D01*
X11471842Y-89564523D02*
X11567080Y-89516904D01*
X11567080Y-89516904D02*
X11614700Y-89469285D01*
X11614700Y-89469285D02*
X11662319Y-89374047D01*
X11662319Y-89374047D02*
X11662319Y-89135952D01*
X11662319Y-89135952D02*
X11614700Y-89040714D01*
X11614700Y-89040714D02*
X11567080Y-88993095D01*
X10662319Y-89897857D02*
X10662319Y-90564523D01*
X10662319Y-90564523D02*
X11662319Y-90135952D01*
X18254819Y-11333333D02*
X17778628Y-11000000D01*
X18254819Y-10761905D02*
X17254819Y-10761905D01*
X17254819Y-10761905D02*
X17254819Y-11142857D01*
X17254819Y-11142857D02*
X17302438Y-11238095D01*
X17302438Y-11238095D02*
X17350057Y-11285714D01*
X17350057Y-11285714D02*
X17445295Y-11333333D01*
X17445295Y-11333333D02*
X17588152Y-11333333D01*
X17588152Y-11333333D02*
X17683390Y-11285714D01*
X17683390Y-11285714D02*
X17731009Y-11238095D01*
X17731009Y-11238095D02*
X17778628Y-11142857D01*
X17778628Y-11142857D02*
X17778628Y-10761905D01*
X17254819Y-12190476D02*
X17254819Y-12000000D01*
X17254819Y-12000000D02*
X17302438Y-11904762D01*
X17302438Y-11904762D02*
X17350057Y-11857143D01*
X17350057Y-11857143D02*
X17492914Y-11761905D01*
X17492914Y-11761905D02*
X17683390Y-11714286D01*
X17683390Y-11714286D02*
X18064342Y-11714286D01*
X18064342Y-11714286D02*
X18159580Y-11761905D01*
X18159580Y-11761905D02*
X18207200Y-11809524D01*
X18207200Y-11809524D02*
X18254819Y-11904762D01*
X18254819Y-11904762D02*
X18254819Y-12095238D01*
X18254819Y-12095238D02*
X18207200Y-12190476D01*
X18207200Y-12190476D02*
X18159580Y-12238095D01*
X18159580Y-12238095D02*
X18064342Y-12285714D01*
X18064342Y-12285714D02*
X17826247Y-12285714D01*
X17826247Y-12285714D02*
X17731009Y-12238095D01*
X17731009Y-12238095D02*
X17683390Y-12190476D01*
X17683390Y-12190476D02*
X17635771Y-12095238D01*
X17635771Y-12095238D02*
X17635771Y-11904762D01*
X17635771Y-11904762D02*
X17683390Y-11809524D01*
X17683390Y-11809524D02*
X17731009Y-11761905D01*
X17731009Y-11761905D02*
X17826247Y-11714286D01*
X216449819Y-11840714D02*
X215449819Y-11840714D01*
X215449819Y-11840714D02*
X215449819Y-12078809D01*
X215449819Y-12078809D02*
X215497438Y-12221666D01*
X215497438Y-12221666D02*
X215592676Y-12316904D01*
X215592676Y-12316904D02*
X215687914Y-12364523D01*
X215687914Y-12364523D02*
X215878390Y-12412142D01*
X215878390Y-12412142D02*
X216021247Y-12412142D01*
X216021247Y-12412142D02*
X216211723Y-12364523D01*
X216211723Y-12364523D02*
X216306961Y-12316904D01*
X216306961Y-12316904D02*
X216402200Y-12221666D01*
X216402200Y-12221666D02*
X216449819Y-12078809D01*
X216449819Y-12078809D02*
X216449819Y-11840714D01*
X216449819Y-13364523D02*
X216449819Y-12793095D01*
X216449819Y-13078809D02*
X215449819Y-13078809D01*
X215449819Y-13078809D02*
X215592676Y-12983571D01*
X215592676Y-12983571D02*
X215687914Y-12888333D01*
X215687914Y-12888333D02*
X215735533Y-12793095D01*
X215545057Y-13745476D02*
X215497438Y-13793095D01*
X215497438Y-13793095D02*
X215449819Y-13888333D01*
X215449819Y-13888333D02*
X215449819Y-14126428D01*
X215449819Y-14126428D02*
X215497438Y-14221666D01*
X215497438Y-14221666D02*
X215545057Y-14269285D01*
X215545057Y-14269285D02*
X215640295Y-14316904D01*
X215640295Y-14316904D02*
X215735533Y-14316904D01*
X215735533Y-14316904D02*
X215878390Y-14269285D01*
X215878390Y-14269285D02*
X216449819Y-13697857D01*
X216449819Y-13697857D02*
X216449819Y-14316904D01*
X173587319Y-49940714D02*
X172587319Y-49940714D01*
X172587319Y-49940714D02*
X172587319Y-50178809D01*
X172587319Y-50178809D02*
X172634938Y-50321666D01*
X172634938Y-50321666D02*
X172730176Y-50416904D01*
X172730176Y-50416904D02*
X172825414Y-50464523D01*
X172825414Y-50464523D02*
X173015890Y-50512142D01*
X173015890Y-50512142D02*
X173158747Y-50512142D01*
X173158747Y-50512142D02*
X173349223Y-50464523D01*
X173349223Y-50464523D02*
X173444461Y-50416904D01*
X173444461Y-50416904D02*
X173539700Y-50321666D01*
X173539700Y-50321666D02*
X173587319Y-50178809D01*
X173587319Y-50178809D02*
X173587319Y-49940714D01*
X172587319Y-50845476D02*
X172587319Y-51464523D01*
X172587319Y-51464523D02*
X172968271Y-51131190D01*
X172968271Y-51131190D02*
X172968271Y-51274047D01*
X172968271Y-51274047D02*
X173015890Y-51369285D01*
X173015890Y-51369285D02*
X173063509Y-51416904D01*
X173063509Y-51416904D02*
X173158747Y-51464523D01*
X173158747Y-51464523D02*
X173396842Y-51464523D01*
X173396842Y-51464523D02*
X173492080Y-51416904D01*
X173492080Y-51416904D02*
X173539700Y-51369285D01*
X173539700Y-51369285D02*
X173587319Y-51274047D01*
X173587319Y-51274047D02*
X173587319Y-50988333D01*
X173587319Y-50988333D02*
X173539700Y-50893095D01*
X173539700Y-50893095D02*
X173492080Y-50845476D01*
X172587319Y-51797857D02*
X172587319Y-52464523D01*
X172587319Y-52464523D02*
X173587319Y-52035952D01*
X149774819Y-30890714D02*
X148774819Y-30890714D01*
X148774819Y-30890714D02*
X148774819Y-31128809D01*
X148774819Y-31128809D02*
X148822438Y-31271666D01*
X148822438Y-31271666D02*
X148917676Y-31366904D01*
X148917676Y-31366904D02*
X149012914Y-31414523D01*
X149012914Y-31414523D02*
X149203390Y-31462142D01*
X149203390Y-31462142D02*
X149346247Y-31462142D01*
X149346247Y-31462142D02*
X149536723Y-31414523D01*
X149536723Y-31414523D02*
X149631961Y-31366904D01*
X149631961Y-31366904D02*
X149727200Y-31271666D01*
X149727200Y-31271666D02*
X149774819Y-31128809D01*
X149774819Y-31128809D02*
X149774819Y-30890714D01*
X148870057Y-31843095D02*
X148822438Y-31890714D01*
X148822438Y-31890714D02*
X148774819Y-31985952D01*
X148774819Y-31985952D02*
X148774819Y-32224047D01*
X148774819Y-32224047D02*
X148822438Y-32319285D01*
X148822438Y-32319285D02*
X148870057Y-32366904D01*
X148870057Y-32366904D02*
X148965295Y-32414523D01*
X148965295Y-32414523D02*
X149060533Y-32414523D01*
X149060533Y-32414523D02*
X149203390Y-32366904D01*
X149203390Y-32366904D02*
X149774819Y-31795476D01*
X149774819Y-31795476D02*
X149774819Y-32414523D01*
X148870057Y-32795476D02*
X148822438Y-32843095D01*
X148822438Y-32843095D02*
X148774819Y-32938333D01*
X148774819Y-32938333D02*
X148774819Y-33176428D01*
X148774819Y-33176428D02*
X148822438Y-33271666D01*
X148822438Y-33271666D02*
X148870057Y-33319285D01*
X148870057Y-33319285D02*
X148965295Y-33366904D01*
X148965295Y-33366904D02*
X149060533Y-33366904D01*
X149060533Y-33366904D02*
X149203390Y-33319285D01*
X149203390Y-33319285D02*
X149774819Y-32747857D01*
X149774819Y-32747857D02*
X149774819Y-33366904D01*
X206924819Y-30890714D02*
X205924819Y-30890714D01*
X205924819Y-30890714D02*
X205924819Y-31128809D01*
X205924819Y-31128809D02*
X205972438Y-31271666D01*
X205972438Y-31271666D02*
X206067676Y-31366904D01*
X206067676Y-31366904D02*
X206162914Y-31414523D01*
X206162914Y-31414523D02*
X206353390Y-31462142D01*
X206353390Y-31462142D02*
X206496247Y-31462142D01*
X206496247Y-31462142D02*
X206686723Y-31414523D01*
X206686723Y-31414523D02*
X206781961Y-31366904D01*
X206781961Y-31366904D02*
X206877200Y-31271666D01*
X206877200Y-31271666D02*
X206924819Y-31128809D01*
X206924819Y-31128809D02*
X206924819Y-30890714D01*
X206020057Y-31843095D02*
X205972438Y-31890714D01*
X205972438Y-31890714D02*
X205924819Y-31985952D01*
X205924819Y-31985952D02*
X205924819Y-32224047D01*
X205924819Y-32224047D02*
X205972438Y-32319285D01*
X205972438Y-32319285D02*
X206020057Y-32366904D01*
X206020057Y-32366904D02*
X206115295Y-32414523D01*
X206115295Y-32414523D02*
X206210533Y-32414523D01*
X206210533Y-32414523D02*
X206353390Y-32366904D01*
X206353390Y-32366904D02*
X206924819Y-31795476D01*
X206924819Y-31795476D02*
X206924819Y-32414523D01*
X205924819Y-33319285D02*
X205924819Y-32843095D01*
X205924819Y-32843095D02*
X206401009Y-32795476D01*
X206401009Y-32795476D02*
X206353390Y-32843095D01*
X206353390Y-32843095D02*
X206305771Y-32938333D01*
X206305771Y-32938333D02*
X206305771Y-33176428D01*
X206305771Y-33176428D02*
X206353390Y-33271666D01*
X206353390Y-33271666D02*
X206401009Y-33319285D01*
X206401009Y-33319285D02*
X206496247Y-33366904D01*
X206496247Y-33366904D02*
X206734342Y-33366904D01*
X206734342Y-33366904D02*
X206829580Y-33319285D01*
X206829580Y-33319285D02*
X206877200Y-33271666D01*
X206877200Y-33271666D02*
X206924819Y-33176428D01*
X206924819Y-33176428D02*
X206924819Y-32938333D01*
X206924819Y-32938333D02*
X206877200Y-32843095D01*
X206877200Y-32843095D02*
X206829580Y-32795476D01*
X35474819Y-30890714D02*
X34474819Y-30890714D01*
X34474819Y-30890714D02*
X34474819Y-31128809D01*
X34474819Y-31128809D02*
X34522438Y-31271666D01*
X34522438Y-31271666D02*
X34617676Y-31366904D01*
X34617676Y-31366904D02*
X34712914Y-31414523D01*
X34712914Y-31414523D02*
X34903390Y-31462142D01*
X34903390Y-31462142D02*
X35046247Y-31462142D01*
X35046247Y-31462142D02*
X35236723Y-31414523D01*
X35236723Y-31414523D02*
X35331961Y-31366904D01*
X35331961Y-31366904D02*
X35427200Y-31271666D01*
X35427200Y-31271666D02*
X35474819Y-31128809D01*
X35474819Y-31128809D02*
X35474819Y-30890714D01*
X35474819Y-32414523D02*
X35474819Y-31843095D01*
X35474819Y-32128809D02*
X34474819Y-32128809D01*
X34474819Y-32128809D02*
X34617676Y-32033571D01*
X34617676Y-32033571D02*
X34712914Y-31938333D01*
X34712914Y-31938333D02*
X34760533Y-31843095D01*
X34474819Y-33271666D02*
X34474819Y-33081190D01*
X34474819Y-33081190D02*
X34522438Y-32985952D01*
X34522438Y-32985952D02*
X34570057Y-32938333D01*
X34570057Y-32938333D02*
X34712914Y-32843095D01*
X34712914Y-32843095D02*
X34903390Y-32795476D01*
X34903390Y-32795476D02*
X35284342Y-32795476D01*
X35284342Y-32795476D02*
X35379580Y-32843095D01*
X35379580Y-32843095D02*
X35427200Y-32890714D01*
X35427200Y-32890714D02*
X35474819Y-32985952D01*
X35474819Y-32985952D02*
X35474819Y-33176428D01*
X35474819Y-33176428D02*
X35427200Y-33271666D01*
X35427200Y-33271666D02*
X35379580Y-33319285D01*
X35379580Y-33319285D02*
X35284342Y-33366904D01*
X35284342Y-33366904D02*
X35046247Y-33366904D01*
X35046247Y-33366904D02*
X34951009Y-33319285D01*
X34951009Y-33319285D02*
X34903390Y-33271666D01*
X34903390Y-33271666D02*
X34855771Y-33176428D01*
X34855771Y-33176428D02*
X34855771Y-32985952D01*
X34855771Y-32985952D02*
X34903390Y-32890714D01*
X34903390Y-32890714D02*
X34951009Y-32843095D01*
X34951009Y-32843095D02*
X35046247Y-32795476D01*
X268837319Y-88040714D02*
X267837319Y-88040714D01*
X267837319Y-88040714D02*
X267837319Y-88278809D01*
X267837319Y-88278809D02*
X267884938Y-88421666D01*
X267884938Y-88421666D02*
X267980176Y-88516904D01*
X267980176Y-88516904D02*
X268075414Y-88564523D01*
X268075414Y-88564523D02*
X268265890Y-88612142D01*
X268265890Y-88612142D02*
X268408747Y-88612142D01*
X268408747Y-88612142D02*
X268599223Y-88564523D01*
X268599223Y-88564523D02*
X268694461Y-88516904D01*
X268694461Y-88516904D02*
X268789700Y-88421666D01*
X268789700Y-88421666D02*
X268837319Y-88278809D01*
X268837319Y-88278809D02*
X268837319Y-88040714D01*
X267837319Y-89469285D02*
X267837319Y-89278809D01*
X267837319Y-89278809D02*
X267884938Y-89183571D01*
X267884938Y-89183571D02*
X267932557Y-89135952D01*
X267932557Y-89135952D02*
X268075414Y-89040714D01*
X268075414Y-89040714D02*
X268265890Y-88993095D01*
X268265890Y-88993095D02*
X268646842Y-88993095D01*
X268646842Y-88993095D02*
X268742080Y-89040714D01*
X268742080Y-89040714D02*
X268789700Y-89088333D01*
X268789700Y-89088333D02*
X268837319Y-89183571D01*
X268837319Y-89183571D02*
X268837319Y-89374047D01*
X268837319Y-89374047D02*
X268789700Y-89469285D01*
X268789700Y-89469285D02*
X268742080Y-89516904D01*
X268742080Y-89516904D02*
X268646842Y-89564523D01*
X268646842Y-89564523D02*
X268408747Y-89564523D01*
X268408747Y-89564523D02*
X268313509Y-89516904D01*
X268313509Y-89516904D02*
X268265890Y-89469285D01*
X268265890Y-89469285D02*
X268218271Y-89374047D01*
X268218271Y-89374047D02*
X268218271Y-89183571D01*
X268218271Y-89183571D02*
X268265890Y-89088333D01*
X268265890Y-89088333D02*
X268313509Y-89040714D01*
X268313509Y-89040714D02*
X268408747Y-88993095D01*
X267837319Y-89897857D02*
X267837319Y-90516904D01*
X267837319Y-90516904D02*
X268218271Y-90183571D01*
X268218271Y-90183571D02*
X268218271Y-90326428D01*
X268218271Y-90326428D02*
X268265890Y-90421666D01*
X268265890Y-90421666D02*
X268313509Y-90469285D01*
X268313509Y-90469285D02*
X268408747Y-90516904D01*
X268408747Y-90516904D02*
X268646842Y-90516904D01*
X268646842Y-90516904D02*
X268742080Y-90469285D01*
X268742080Y-90469285D02*
X268789700Y-90421666D01*
X268789700Y-90421666D02*
X268837319Y-90326428D01*
X268837319Y-90326428D02*
X268837319Y-90040714D01*
X268837319Y-90040714D02*
X268789700Y-89945476D01*
X268789700Y-89945476D02*
X268742080Y-89897857D01*
X125819166Y-91547080D02*
X125866785Y-91594700D01*
X125866785Y-91594700D02*
X126009642Y-91642319D01*
X126009642Y-91642319D02*
X126104880Y-91642319D01*
X126104880Y-91642319D02*
X126247737Y-91594700D01*
X126247737Y-91594700D02*
X126342975Y-91499461D01*
X126342975Y-91499461D02*
X126390594Y-91404223D01*
X126390594Y-91404223D02*
X126438213Y-91213747D01*
X126438213Y-91213747D02*
X126438213Y-91070890D01*
X126438213Y-91070890D02*
X126390594Y-90880414D01*
X126390594Y-90880414D02*
X126342975Y-90785176D01*
X126342975Y-90785176D02*
X126247737Y-90689938D01*
X126247737Y-90689938D02*
X126104880Y-90642319D01*
X126104880Y-90642319D02*
X126009642Y-90642319D01*
X126009642Y-90642319D02*
X125866785Y-90689938D01*
X125866785Y-90689938D02*
X125819166Y-90737557D01*
X124962023Y-90642319D02*
X125152499Y-90642319D01*
X125152499Y-90642319D02*
X125247737Y-90689938D01*
X125247737Y-90689938D02*
X125295356Y-90737557D01*
X125295356Y-90737557D02*
X125390594Y-90880414D01*
X125390594Y-90880414D02*
X125438213Y-91070890D01*
X125438213Y-91070890D02*
X125438213Y-91451842D01*
X125438213Y-91451842D02*
X125390594Y-91547080D01*
X125390594Y-91547080D02*
X125342975Y-91594700D01*
X125342975Y-91594700D02*
X125247737Y-91642319D01*
X125247737Y-91642319D02*
X125057261Y-91642319D01*
X125057261Y-91642319D02*
X124962023Y-91594700D01*
X124962023Y-91594700D02*
X124914404Y-91547080D01*
X124914404Y-91547080D02*
X124866785Y-91451842D01*
X124866785Y-91451842D02*
X124866785Y-91213747D01*
X124866785Y-91213747D02*
X124914404Y-91118509D01*
X124914404Y-91118509D02*
X124962023Y-91070890D01*
X124962023Y-91070890D02*
X125057261Y-91023271D01*
X125057261Y-91023271D02*
X125247737Y-91023271D01*
X125247737Y-91023271D02*
X125342975Y-91070890D01*
X125342975Y-91070890D02*
X125390594Y-91118509D01*
X125390594Y-91118509D02*
X125438213Y-91213747D01*
D11*
X115395832Y-89064895D02*
X115662499Y-88683942D01*
X115852975Y-89064895D02*
X115852975Y-88264895D01*
X115852975Y-88264895D02*
X115548213Y-88264895D01*
X115548213Y-88264895D02*
X115472023Y-88302990D01*
X115472023Y-88302990D02*
X115433928Y-88341085D01*
X115433928Y-88341085D02*
X115395832Y-88417276D01*
X115395832Y-88417276D02*
X115395832Y-88531561D01*
X115395832Y-88531561D02*
X115433928Y-88607752D01*
X115433928Y-88607752D02*
X115472023Y-88645847D01*
X115472023Y-88645847D02*
X115548213Y-88683942D01*
X115548213Y-88683942D02*
X115852975Y-88683942D01*
X115129166Y-88264895D02*
X114633928Y-88264895D01*
X114633928Y-88264895D02*
X114900594Y-88569657D01*
X114900594Y-88569657D02*
X114786309Y-88569657D01*
X114786309Y-88569657D02*
X114710118Y-88607752D01*
X114710118Y-88607752D02*
X114672023Y-88645847D01*
X114672023Y-88645847D02*
X114633928Y-88722038D01*
X114633928Y-88722038D02*
X114633928Y-88912514D01*
X114633928Y-88912514D02*
X114672023Y-88988704D01*
X114672023Y-88988704D02*
X114710118Y-89026800D01*
X114710118Y-89026800D02*
X114786309Y-89064895D01*
X114786309Y-89064895D02*
X115014880Y-89064895D01*
X115014880Y-89064895D02*
X115091071Y-89026800D01*
X115091071Y-89026800D02*
X115129166Y-88988704D01*
X118626785Y-93688704D02*
X118664881Y-93726800D01*
X118664881Y-93726800D02*
X118779166Y-93764895D01*
X118779166Y-93764895D02*
X118855357Y-93764895D01*
X118855357Y-93764895D02*
X118969643Y-93726800D01*
X118969643Y-93726800D02*
X119045833Y-93650609D01*
X119045833Y-93650609D02*
X119083928Y-93574419D01*
X119083928Y-93574419D02*
X119122024Y-93422038D01*
X119122024Y-93422038D02*
X119122024Y-93307752D01*
X119122024Y-93307752D02*
X119083928Y-93155371D01*
X119083928Y-93155371D02*
X119045833Y-93079180D01*
X119045833Y-93079180D02*
X118969643Y-93002990D01*
X118969643Y-93002990D02*
X118855357Y-92964895D01*
X118855357Y-92964895D02*
X118779166Y-92964895D01*
X118779166Y-92964895D02*
X118664881Y-93002990D01*
X118664881Y-93002990D02*
X118626785Y-93041085D01*
X117864881Y-93764895D02*
X118322024Y-93764895D01*
X118093452Y-93764895D02*
X118093452Y-92964895D01*
X118093452Y-92964895D02*
X118169643Y-93079180D01*
X118169643Y-93079180D02*
X118245833Y-93155371D01*
X118245833Y-93155371D02*
X118322024Y-93193466D01*
X117598214Y-92964895D02*
X117102976Y-92964895D01*
X117102976Y-92964895D02*
X117369642Y-93269657D01*
X117369642Y-93269657D02*
X117255357Y-93269657D01*
X117255357Y-93269657D02*
X117179166Y-93307752D01*
X117179166Y-93307752D02*
X117141071Y-93345847D01*
X117141071Y-93345847D02*
X117102976Y-93422038D01*
X117102976Y-93422038D02*
X117102976Y-93612514D01*
X117102976Y-93612514D02*
X117141071Y-93688704D01*
X117141071Y-93688704D02*
X117179166Y-93726800D01*
X117179166Y-93726800D02*
X117255357Y-93764895D01*
X117255357Y-93764895D02*
X117483928Y-93764895D01*
X117483928Y-93764895D02*
X117560119Y-93726800D01*
X117560119Y-93726800D02*
X117598214Y-93688704D01*
D10*
X187874819Y-30890714D02*
X186874819Y-30890714D01*
X186874819Y-30890714D02*
X186874819Y-31128809D01*
X186874819Y-31128809D02*
X186922438Y-31271666D01*
X186922438Y-31271666D02*
X187017676Y-31366904D01*
X187017676Y-31366904D02*
X187112914Y-31414523D01*
X187112914Y-31414523D02*
X187303390Y-31462142D01*
X187303390Y-31462142D02*
X187446247Y-31462142D01*
X187446247Y-31462142D02*
X187636723Y-31414523D01*
X187636723Y-31414523D02*
X187731961Y-31366904D01*
X187731961Y-31366904D02*
X187827200Y-31271666D01*
X187827200Y-31271666D02*
X187874819Y-31128809D01*
X187874819Y-31128809D02*
X187874819Y-30890714D01*
X186970057Y-31843095D02*
X186922438Y-31890714D01*
X186922438Y-31890714D02*
X186874819Y-31985952D01*
X186874819Y-31985952D02*
X186874819Y-32224047D01*
X186874819Y-32224047D02*
X186922438Y-32319285D01*
X186922438Y-32319285D02*
X186970057Y-32366904D01*
X186970057Y-32366904D02*
X187065295Y-32414523D01*
X187065295Y-32414523D02*
X187160533Y-32414523D01*
X187160533Y-32414523D02*
X187303390Y-32366904D01*
X187303390Y-32366904D02*
X187874819Y-31795476D01*
X187874819Y-31795476D02*
X187874819Y-32414523D01*
X187208152Y-33271666D02*
X187874819Y-33271666D01*
X186827200Y-33033571D02*
X187541485Y-32795476D01*
X187541485Y-32795476D02*
X187541485Y-33414523D01*
X130724819Y-30890714D02*
X129724819Y-30890714D01*
X129724819Y-30890714D02*
X129724819Y-31128809D01*
X129724819Y-31128809D02*
X129772438Y-31271666D01*
X129772438Y-31271666D02*
X129867676Y-31366904D01*
X129867676Y-31366904D02*
X129962914Y-31414523D01*
X129962914Y-31414523D02*
X130153390Y-31462142D01*
X130153390Y-31462142D02*
X130296247Y-31462142D01*
X130296247Y-31462142D02*
X130486723Y-31414523D01*
X130486723Y-31414523D02*
X130581961Y-31366904D01*
X130581961Y-31366904D02*
X130677200Y-31271666D01*
X130677200Y-31271666D02*
X130724819Y-31128809D01*
X130724819Y-31128809D02*
X130724819Y-30890714D01*
X129820057Y-31843095D02*
X129772438Y-31890714D01*
X129772438Y-31890714D02*
X129724819Y-31985952D01*
X129724819Y-31985952D02*
X129724819Y-32224047D01*
X129724819Y-32224047D02*
X129772438Y-32319285D01*
X129772438Y-32319285D02*
X129820057Y-32366904D01*
X129820057Y-32366904D02*
X129915295Y-32414523D01*
X129915295Y-32414523D02*
X130010533Y-32414523D01*
X130010533Y-32414523D02*
X130153390Y-32366904D01*
X130153390Y-32366904D02*
X130724819Y-31795476D01*
X130724819Y-31795476D02*
X130724819Y-32414523D01*
X130724819Y-33366904D02*
X130724819Y-32795476D01*
X130724819Y-33081190D02*
X129724819Y-33081190D01*
X129724819Y-33081190D02*
X129867676Y-32985952D01*
X129867676Y-32985952D02*
X129962914Y-32890714D01*
X129962914Y-32890714D02*
X130010533Y-32795476D01*
X40872319Y-68990714D02*
X39872319Y-68990714D01*
X39872319Y-68990714D02*
X39872319Y-69228809D01*
X39872319Y-69228809D02*
X39919938Y-69371666D01*
X39919938Y-69371666D02*
X40015176Y-69466904D01*
X40015176Y-69466904D02*
X40110414Y-69514523D01*
X40110414Y-69514523D02*
X40300890Y-69562142D01*
X40300890Y-69562142D02*
X40443747Y-69562142D01*
X40443747Y-69562142D02*
X40634223Y-69514523D01*
X40634223Y-69514523D02*
X40729461Y-69466904D01*
X40729461Y-69466904D02*
X40824700Y-69371666D01*
X40824700Y-69371666D02*
X40872319Y-69228809D01*
X40872319Y-69228809D02*
X40872319Y-68990714D01*
X40205652Y-70419285D02*
X40872319Y-70419285D01*
X39824700Y-70181190D02*
X40538985Y-69943095D01*
X40538985Y-69943095D02*
X40538985Y-70562142D01*
X40205652Y-71371666D02*
X40872319Y-71371666D01*
X39824700Y-71133571D02*
X40538985Y-70895476D01*
X40538985Y-70895476D02*
X40538985Y-71514523D01*
X168824819Y-30890714D02*
X167824819Y-30890714D01*
X167824819Y-30890714D02*
X167824819Y-31128809D01*
X167824819Y-31128809D02*
X167872438Y-31271666D01*
X167872438Y-31271666D02*
X167967676Y-31366904D01*
X167967676Y-31366904D02*
X168062914Y-31414523D01*
X168062914Y-31414523D02*
X168253390Y-31462142D01*
X168253390Y-31462142D02*
X168396247Y-31462142D01*
X168396247Y-31462142D02*
X168586723Y-31414523D01*
X168586723Y-31414523D02*
X168681961Y-31366904D01*
X168681961Y-31366904D02*
X168777200Y-31271666D01*
X168777200Y-31271666D02*
X168824819Y-31128809D01*
X168824819Y-31128809D02*
X168824819Y-30890714D01*
X167920057Y-31843095D02*
X167872438Y-31890714D01*
X167872438Y-31890714D02*
X167824819Y-31985952D01*
X167824819Y-31985952D02*
X167824819Y-32224047D01*
X167824819Y-32224047D02*
X167872438Y-32319285D01*
X167872438Y-32319285D02*
X167920057Y-32366904D01*
X167920057Y-32366904D02*
X168015295Y-32414523D01*
X168015295Y-32414523D02*
X168110533Y-32414523D01*
X168110533Y-32414523D02*
X168253390Y-32366904D01*
X168253390Y-32366904D02*
X168824819Y-31795476D01*
X168824819Y-31795476D02*
X168824819Y-32414523D01*
X167824819Y-32747857D02*
X167824819Y-33366904D01*
X167824819Y-33366904D02*
X168205771Y-33033571D01*
X168205771Y-33033571D02*
X168205771Y-33176428D01*
X168205771Y-33176428D02*
X168253390Y-33271666D01*
X168253390Y-33271666D02*
X168301009Y-33319285D01*
X168301009Y-33319285D02*
X168396247Y-33366904D01*
X168396247Y-33366904D02*
X168634342Y-33366904D01*
X168634342Y-33366904D02*
X168729580Y-33319285D01*
X168729580Y-33319285D02*
X168777200Y-33271666D01*
X168777200Y-33271666D02*
X168824819Y-33176428D01*
X168824819Y-33176428D02*
X168824819Y-32890714D01*
X168824819Y-32890714D02*
X168777200Y-32795476D01*
X168777200Y-32795476D02*
X168729580Y-32747857D01*
X285764819Y-17500714D02*
X284764819Y-17500714D01*
X284764819Y-17500714D02*
X284764819Y-17738809D01*
X284764819Y-17738809D02*
X284812438Y-17881666D01*
X284812438Y-17881666D02*
X284907676Y-17976904D01*
X284907676Y-17976904D02*
X285002914Y-18024523D01*
X285002914Y-18024523D02*
X285193390Y-18072142D01*
X285193390Y-18072142D02*
X285336247Y-18072142D01*
X285336247Y-18072142D02*
X285526723Y-18024523D01*
X285526723Y-18024523D02*
X285621961Y-17976904D01*
X285621961Y-17976904D02*
X285717200Y-17881666D01*
X285717200Y-17881666D02*
X285764819Y-17738809D01*
X285764819Y-17738809D02*
X285764819Y-17500714D01*
X285098152Y-18929285D02*
X285764819Y-18929285D01*
X284717200Y-18691190D02*
X285431485Y-18453095D01*
X285431485Y-18453095D02*
X285431485Y-19072142D01*
X284860057Y-19405476D02*
X284812438Y-19453095D01*
X284812438Y-19453095D02*
X284764819Y-19548333D01*
X284764819Y-19548333D02*
X284764819Y-19786428D01*
X284764819Y-19786428D02*
X284812438Y-19881666D01*
X284812438Y-19881666D02*
X284860057Y-19929285D01*
X284860057Y-19929285D02*
X284955295Y-19976904D01*
X284955295Y-19976904D02*
X285050533Y-19976904D01*
X285050533Y-19976904D02*
X285193390Y-19929285D01*
X285193390Y-19929285D02*
X285764819Y-19357857D01*
X285764819Y-19357857D02*
X285764819Y-19976904D01*
X154537319Y-49940714D02*
X153537319Y-49940714D01*
X153537319Y-49940714D02*
X153537319Y-50178809D01*
X153537319Y-50178809D02*
X153584938Y-50321666D01*
X153584938Y-50321666D02*
X153680176Y-50416904D01*
X153680176Y-50416904D02*
X153775414Y-50464523D01*
X153775414Y-50464523D02*
X153965890Y-50512142D01*
X153965890Y-50512142D02*
X154108747Y-50512142D01*
X154108747Y-50512142D02*
X154299223Y-50464523D01*
X154299223Y-50464523D02*
X154394461Y-50416904D01*
X154394461Y-50416904D02*
X154489700Y-50321666D01*
X154489700Y-50321666D02*
X154537319Y-50178809D01*
X154537319Y-50178809D02*
X154537319Y-49940714D01*
X153537319Y-50845476D02*
X153537319Y-51464523D01*
X153537319Y-51464523D02*
X153918271Y-51131190D01*
X153918271Y-51131190D02*
X153918271Y-51274047D01*
X153918271Y-51274047D02*
X153965890Y-51369285D01*
X153965890Y-51369285D02*
X154013509Y-51416904D01*
X154013509Y-51416904D02*
X154108747Y-51464523D01*
X154108747Y-51464523D02*
X154346842Y-51464523D01*
X154346842Y-51464523D02*
X154442080Y-51416904D01*
X154442080Y-51416904D02*
X154489700Y-51369285D01*
X154489700Y-51369285D02*
X154537319Y-51274047D01*
X154537319Y-51274047D02*
X154537319Y-50988333D01*
X154537319Y-50988333D02*
X154489700Y-50893095D01*
X154489700Y-50893095D02*
X154442080Y-50845476D01*
X153537319Y-52321666D02*
X153537319Y-52131190D01*
X153537319Y-52131190D02*
X153584938Y-52035952D01*
X153584938Y-52035952D02*
X153632557Y-51988333D01*
X153632557Y-51988333D02*
X153775414Y-51893095D01*
X153775414Y-51893095D02*
X153965890Y-51845476D01*
X153965890Y-51845476D02*
X154346842Y-51845476D01*
X154346842Y-51845476D02*
X154442080Y-51893095D01*
X154442080Y-51893095D02*
X154489700Y-51940714D01*
X154489700Y-51940714D02*
X154537319Y-52035952D01*
X154537319Y-52035952D02*
X154537319Y-52226428D01*
X154537319Y-52226428D02*
X154489700Y-52321666D01*
X154489700Y-52321666D02*
X154442080Y-52369285D01*
X154442080Y-52369285D02*
X154346842Y-52416904D01*
X154346842Y-52416904D02*
X154108747Y-52416904D01*
X154108747Y-52416904D02*
X154013509Y-52369285D01*
X154013509Y-52369285D02*
X153965890Y-52321666D01*
X153965890Y-52321666D02*
X153918271Y-52226428D01*
X153918271Y-52226428D02*
X153918271Y-52035952D01*
X153918271Y-52035952D02*
X153965890Y-51940714D01*
X153965890Y-51940714D02*
X154013509Y-51893095D01*
X154013509Y-51893095D02*
X154108747Y-51845476D01*
X31204819Y-47035714D02*
X30204819Y-47035714D01*
X30204819Y-47035714D02*
X30204819Y-47273809D01*
X30204819Y-47273809D02*
X30252438Y-47416666D01*
X30252438Y-47416666D02*
X30347676Y-47511904D01*
X30347676Y-47511904D02*
X30442914Y-47559523D01*
X30442914Y-47559523D02*
X30633390Y-47607142D01*
X30633390Y-47607142D02*
X30776247Y-47607142D01*
X30776247Y-47607142D02*
X30966723Y-47559523D01*
X30966723Y-47559523D02*
X31061961Y-47511904D01*
X31061961Y-47511904D02*
X31157200Y-47416666D01*
X31157200Y-47416666D02*
X31204819Y-47273809D01*
X31204819Y-47273809D02*
X31204819Y-47035714D01*
X30300057Y-47988095D02*
X30252438Y-48035714D01*
X30252438Y-48035714D02*
X30204819Y-48130952D01*
X30204819Y-48130952D02*
X30204819Y-48369047D01*
X30204819Y-48369047D02*
X30252438Y-48464285D01*
X30252438Y-48464285D02*
X30300057Y-48511904D01*
X30300057Y-48511904D02*
X30395295Y-48559523D01*
X30395295Y-48559523D02*
X30490533Y-48559523D01*
X30490533Y-48559523D02*
X30633390Y-48511904D01*
X30633390Y-48511904D02*
X31204819Y-47940476D01*
X31204819Y-47940476D02*
X31204819Y-48559523D01*
X31204819Y-49035714D02*
X31204819Y-49226190D01*
X31204819Y-49226190D02*
X31157200Y-49321428D01*
X31157200Y-49321428D02*
X31109580Y-49369047D01*
X31109580Y-49369047D02*
X30966723Y-49464285D01*
X30966723Y-49464285D02*
X30776247Y-49511904D01*
X30776247Y-49511904D02*
X30395295Y-49511904D01*
X30395295Y-49511904D02*
X30300057Y-49464285D01*
X30300057Y-49464285D02*
X30252438Y-49416666D01*
X30252438Y-49416666D02*
X30204819Y-49321428D01*
X30204819Y-49321428D02*
X30204819Y-49130952D01*
X30204819Y-49130952D02*
X30252438Y-49035714D01*
X30252438Y-49035714D02*
X30300057Y-48988095D01*
X30300057Y-48988095D02*
X30395295Y-48940476D01*
X30395295Y-48940476D02*
X30633390Y-48940476D01*
X30633390Y-48940476D02*
X30728628Y-48988095D01*
X30728628Y-48988095D02*
X30776247Y-49035714D01*
X30776247Y-49035714D02*
X30823866Y-49130952D01*
X30823866Y-49130952D02*
X30823866Y-49321428D01*
X30823866Y-49321428D02*
X30776247Y-49416666D01*
X30776247Y-49416666D02*
X30728628Y-49464285D01*
X30728628Y-49464285D02*
X30633390Y-49511904D01*
D11*
X115395832Y-90064895D02*
X115662499Y-89683942D01*
X115852975Y-90064895D02*
X115852975Y-89264895D01*
X115852975Y-89264895D02*
X115548213Y-89264895D01*
X115548213Y-89264895D02*
X115472023Y-89302990D01*
X115472023Y-89302990D02*
X115433928Y-89341085D01*
X115433928Y-89341085D02*
X115395832Y-89417276D01*
X115395832Y-89417276D02*
X115395832Y-89531561D01*
X115395832Y-89531561D02*
X115433928Y-89607752D01*
X115433928Y-89607752D02*
X115472023Y-89645847D01*
X115472023Y-89645847D02*
X115548213Y-89683942D01*
X115548213Y-89683942D02*
X115852975Y-89683942D01*
X114710118Y-89531561D02*
X114710118Y-90064895D01*
X114900594Y-89226800D02*
X115091071Y-89798228D01*
X115091071Y-89798228D02*
X114595832Y-89798228D01*
X115395832Y-90988704D02*
X115433928Y-91026800D01*
X115433928Y-91026800D02*
X115548213Y-91064895D01*
X115548213Y-91064895D02*
X115624404Y-91064895D01*
X115624404Y-91064895D02*
X115738690Y-91026800D01*
X115738690Y-91026800D02*
X115814880Y-90950609D01*
X115814880Y-90950609D02*
X115852975Y-90874419D01*
X115852975Y-90874419D02*
X115891071Y-90722038D01*
X115891071Y-90722038D02*
X115891071Y-90607752D01*
X115891071Y-90607752D02*
X115852975Y-90455371D01*
X115852975Y-90455371D02*
X115814880Y-90379180D01*
X115814880Y-90379180D02*
X115738690Y-90302990D01*
X115738690Y-90302990D02*
X115624404Y-90264895D01*
X115624404Y-90264895D02*
X115548213Y-90264895D01*
X115548213Y-90264895D02*
X115433928Y-90302990D01*
X115433928Y-90302990D02*
X115395832Y-90341085D01*
X114938690Y-90607752D02*
X115014880Y-90569657D01*
X115014880Y-90569657D02*
X115052975Y-90531561D01*
X115052975Y-90531561D02*
X115091071Y-90455371D01*
X115091071Y-90455371D02*
X115091071Y-90417276D01*
X115091071Y-90417276D02*
X115052975Y-90341085D01*
X115052975Y-90341085D02*
X115014880Y-90302990D01*
X115014880Y-90302990D02*
X114938690Y-90264895D01*
X114938690Y-90264895D02*
X114786309Y-90264895D01*
X114786309Y-90264895D02*
X114710118Y-90302990D01*
X114710118Y-90302990D02*
X114672023Y-90341085D01*
X114672023Y-90341085D02*
X114633928Y-90417276D01*
X114633928Y-90417276D02*
X114633928Y-90455371D01*
X114633928Y-90455371D02*
X114672023Y-90531561D01*
X114672023Y-90531561D02*
X114710118Y-90569657D01*
X114710118Y-90569657D02*
X114786309Y-90607752D01*
X114786309Y-90607752D02*
X114938690Y-90607752D01*
X114938690Y-90607752D02*
X115014880Y-90645847D01*
X115014880Y-90645847D02*
X115052975Y-90683942D01*
X115052975Y-90683942D02*
X115091071Y-90760133D01*
X115091071Y-90760133D02*
X115091071Y-90912514D01*
X115091071Y-90912514D02*
X115052975Y-90988704D01*
X115052975Y-90988704D02*
X115014880Y-91026800D01*
X115014880Y-91026800D02*
X114938690Y-91064895D01*
X114938690Y-91064895D02*
X114786309Y-91064895D01*
X114786309Y-91064895D02*
X114710118Y-91026800D01*
X114710118Y-91026800D02*
X114672023Y-90988704D01*
X114672023Y-90988704D02*
X114633928Y-90912514D01*
X114633928Y-90912514D02*
X114633928Y-90760133D01*
X114633928Y-90760133D02*
X114672023Y-90683942D01*
X114672023Y-90683942D02*
X114710118Y-90645847D01*
X114710118Y-90645847D02*
X114786309Y-90607752D01*
D10*
X127799166Y-91819580D02*
X127846785Y-91867200D01*
X127846785Y-91867200D02*
X127989642Y-91914819D01*
X127989642Y-91914819D02*
X128084880Y-91914819D01*
X128084880Y-91914819D02*
X128227737Y-91867200D01*
X128227737Y-91867200D02*
X128322975Y-91771961D01*
X128322975Y-91771961D02*
X128370594Y-91676723D01*
X128370594Y-91676723D02*
X128418213Y-91486247D01*
X128418213Y-91486247D02*
X128418213Y-91343390D01*
X128418213Y-91343390D02*
X128370594Y-91152914D01*
X128370594Y-91152914D02*
X128322975Y-91057676D01*
X128322975Y-91057676D02*
X128227737Y-90962438D01*
X128227737Y-90962438D02*
X128084880Y-90914819D01*
X128084880Y-90914819D02*
X127989642Y-90914819D01*
X127989642Y-90914819D02*
X127846785Y-90962438D01*
X127846785Y-90962438D02*
X127799166Y-91010057D01*
X127322975Y-91914819D02*
X127132499Y-91914819D01*
X127132499Y-91914819D02*
X127037261Y-91867200D01*
X127037261Y-91867200D02*
X126989642Y-91819580D01*
X126989642Y-91819580D02*
X126894404Y-91676723D01*
X126894404Y-91676723D02*
X126846785Y-91486247D01*
X126846785Y-91486247D02*
X126846785Y-91105295D01*
X126846785Y-91105295D02*
X126894404Y-91010057D01*
X126894404Y-91010057D02*
X126942023Y-90962438D01*
X126942023Y-90962438D02*
X127037261Y-90914819D01*
X127037261Y-90914819D02*
X127227737Y-90914819D01*
X127227737Y-90914819D02*
X127322975Y-90962438D01*
X127322975Y-90962438D02*
X127370594Y-91010057D01*
X127370594Y-91010057D02*
X127418213Y-91105295D01*
X127418213Y-91105295D02*
X127418213Y-91343390D01*
X127418213Y-91343390D02*
X127370594Y-91438628D01*
X127370594Y-91438628D02*
X127322975Y-91486247D01*
X127322975Y-91486247D02*
X127227737Y-91533866D01*
X127227737Y-91533866D02*
X127037261Y-91533866D01*
X127037261Y-91533866D02*
X126942023Y-91486247D01*
X126942023Y-91486247D02*
X126894404Y-91438628D01*
X126894404Y-91438628D02*
X126846785Y-91343390D01*
X92349819Y-81916666D02*
X93064104Y-81916666D01*
X93064104Y-81916666D02*
X93206961Y-81869047D01*
X93206961Y-81869047D02*
X93302200Y-81773809D01*
X93302200Y-81773809D02*
X93349819Y-81630952D01*
X93349819Y-81630952D02*
X93349819Y-81535714D01*
X92445057Y-82345238D02*
X92397438Y-82392857D01*
X92397438Y-82392857D02*
X92349819Y-82488095D01*
X92349819Y-82488095D02*
X92349819Y-82726190D01*
X92349819Y-82726190D02*
X92397438Y-82821428D01*
X92397438Y-82821428D02*
X92445057Y-82869047D01*
X92445057Y-82869047D02*
X92540295Y-82916666D01*
X92540295Y-82916666D02*
X92635533Y-82916666D01*
X92635533Y-82916666D02*
X92778390Y-82869047D01*
X92778390Y-82869047D02*
X93349819Y-82297619D01*
X93349819Y-82297619D02*
X93349819Y-82916666D01*
X113279166Y-79894819D02*
X113612499Y-79418628D01*
X113850594Y-79894819D02*
X113850594Y-78894819D01*
X113850594Y-78894819D02*
X113469642Y-78894819D01*
X113469642Y-78894819D02*
X113374404Y-78942438D01*
X113374404Y-78942438D02*
X113326785Y-78990057D01*
X113326785Y-78990057D02*
X113279166Y-79085295D01*
X113279166Y-79085295D02*
X113279166Y-79228152D01*
X113279166Y-79228152D02*
X113326785Y-79323390D01*
X113326785Y-79323390D02*
X113374404Y-79371009D01*
X113374404Y-79371009D02*
X113469642Y-79418628D01*
X113469642Y-79418628D02*
X113850594Y-79418628D01*
X112326785Y-79894819D02*
X112898213Y-79894819D01*
X112612499Y-79894819D02*
X112612499Y-78894819D01*
X112612499Y-78894819D02*
X112707737Y-79037676D01*
X112707737Y-79037676D02*
X112802975Y-79132914D01*
X112802975Y-79132914D02*
X112898213Y-79180533D01*
X68812319Y-68990714D02*
X67812319Y-68990714D01*
X67812319Y-68990714D02*
X67812319Y-69228809D01*
X67812319Y-69228809D02*
X67859938Y-69371666D01*
X67859938Y-69371666D02*
X67955176Y-69466904D01*
X67955176Y-69466904D02*
X68050414Y-69514523D01*
X68050414Y-69514523D02*
X68240890Y-69562142D01*
X68240890Y-69562142D02*
X68383747Y-69562142D01*
X68383747Y-69562142D02*
X68574223Y-69514523D01*
X68574223Y-69514523D02*
X68669461Y-69466904D01*
X68669461Y-69466904D02*
X68764700Y-69371666D01*
X68764700Y-69371666D02*
X68812319Y-69228809D01*
X68812319Y-69228809D02*
X68812319Y-68990714D01*
X68145652Y-70419285D02*
X68812319Y-70419285D01*
X67764700Y-70181190D02*
X68478985Y-69943095D01*
X68478985Y-69943095D02*
X68478985Y-70562142D01*
X67812319Y-71371666D02*
X67812319Y-71181190D01*
X67812319Y-71181190D02*
X67859938Y-71085952D01*
X67859938Y-71085952D02*
X67907557Y-71038333D01*
X67907557Y-71038333D02*
X68050414Y-70943095D01*
X68050414Y-70943095D02*
X68240890Y-70895476D01*
X68240890Y-70895476D02*
X68621842Y-70895476D01*
X68621842Y-70895476D02*
X68717080Y-70943095D01*
X68717080Y-70943095D02*
X68764700Y-70990714D01*
X68764700Y-70990714D02*
X68812319Y-71085952D01*
X68812319Y-71085952D02*
X68812319Y-71276428D01*
X68812319Y-71276428D02*
X68764700Y-71371666D01*
X68764700Y-71371666D02*
X68717080Y-71419285D01*
X68717080Y-71419285D02*
X68621842Y-71466904D01*
X68621842Y-71466904D02*
X68383747Y-71466904D01*
X68383747Y-71466904D02*
X68288509Y-71419285D01*
X68288509Y-71419285D02*
X68240890Y-71371666D01*
X68240890Y-71371666D02*
X68193271Y-71276428D01*
X68193271Y-71276428D02*
X68193271Y-71085952D01*
X68193271Y-71085952D02*
X68240890Y-70990714D01*
X68240890Y-70990714D02*
X68288509Y-70943095D01*
X68288509Y-70943095D02*
X68383747Y-70895476D01*
X145012319Y-68990714D02*
X144012319Y-68990714D01*
X144012319Y-68990714D02*
X144012319Y-69228809D01*
X144012319Y-69228809D02*
X144059938Y-69371666D01*
X144059938Y-69371666D02*
X144155176Y-69466904D01*
X144155176Y-69466904D02*
X144250414Y-69514523D01*
X144250414Y-69514523D02*
X144440890Y-69562142D01*
X144440890Y-69562142D02*
X144583747Y-69562142D01*
X144583747Y-69562142D02*
X144774223Y-69514523D01*
X144774223Y-69514523D02*
X144869461Y-69466904D01*
X144869461Y-69466904D02*
X144964700Y-69371666D01*
X144964700Y-69371666D02*
X145012319Y-69228809D01*
X145012319Y-69228809D02*
X145012319Y-68990714D01*
X144012319Y-70466904D02*
X144012319Y-69990714D01*
X144012319Y-69990714D02*
X144488509Y-69943095D01*
X144488509Y-69943095D02*
X144440890Y-69990714D01*
X144440890Y-69990714D02*
X144393271Y-70085952D01*
X144393271Y-70085952D02*
X144393271Y-70324047D01*
X144393271Y-70324047D02*
X144440890Y-70419285D01*
X144440890Y-70419285D02*
X144488509Y-70466904D01*
X144488509Y-70466904D02*
X144583747Y-70514523D01*
X144583747Y-70514523D02*
X144821842Y-70514523D01*
X144821842Y-70514523D02*
X144917080Y-70466904D01*
X144917080Y-70466904D02*
X144964700Y-70419285D01*
X144964700Y-70419285D02*
X145012319Y-70324047D01*
X145012319Y-70324047D02*
X145012319Y-70085952D01*
X145012319Y-70085952D02*
X144964700Y-69990714D01*
X144964700Y-69990714D02*
X144917080Y-69943095D01*
X144012319Y-71133571D02*
X144012319Y-71228809D01*
X144012319Y-71228809D02*
X144059938Y-71324047D01*
X144059938Y-71324047D02*
X144107557Y-71371666D01*
X144107557Y-71371666D02*
X144202795Y-71419285D01*
X144202795Y-71419285D02*
X144393271Y-71466904D01*
X144393271Y-71466904D02*
X144631366Y-71466904D01*
X144631366Y-71466904D02*
X144821842Y-71419285D01*
X144821842Y-71419285D02*
X144917080Y-71371666D01*
X144917080Y-71371666D02*
X144964700Y-71324047D01*
X144964700Y-71324047D02*
X145012319Y-71228809D01*
X145012319Y-71228809D02*
X145012319Y-71133571D01*
X145012319Y-71133571D02*
X144964700Y-71038333D01*
X144964700Y-71038333D02*
X144917080Y-70990714D01*
X144917080Y-70990714D02*
X144821842Y-70943095D01*
X144821842Y-70943095D02*
X144631366Y-70895476D01*
X144631366Y-70895476D02*
X144393271Y-70895476D01*
X144393271Y-70895476D02*
X144202795Y-70943095D01*
X144202795Y-70943095D02*
X144107557Y-70990714D01*
X144107557Y-70990714D02*
X144059938Y-71038333D01*
X144059938Y-71038333D02*
X144012319Y-71133571D01*
X32109819Y-5256905D02*
X31109819Y-5256905D01*
X31109819Y-5256905D02*
X31109819Y-5495000D01*
X31109819Y-5495000D02*
X31157438Y-5637857D01*
X31157438Y-5637857D02*
X31252676Y-5733095D01*
X31252676Y-5733095D02*
X31347914Y-5780714D01*
X31347914Y-5780714D02*
X31538390Y-5828333D01*
X31538390Y-5828333D02*
X31681247Y-5828333D01*
X31681247Y-5828333D02*
X31871723Y-5780714D01*
X31871723Y-5780714D02*
X31966961Y-5733095D01*
X31966961Y-5733095D02*
X32062200Y-5637857D01*
X32062200Y-5637857D02*
X32109819Y-5495000D01*
X32109819Y-5495000D02*
X32109819Y-5256905D01*
X31205057Y-6209286D02*
X31157438Y-6256905D01*
X31157438Y-6256905D02*
X31109819Y-6352143D01*
X31109819Y-6352143D02*
X31109819Y-6590238D01*
X31109819Y-6590238D02*
X31157438Y-6685476D01*
X31157438Y-6685476D02*
X31205057Y-6733095D01*
X31205057Y-6733095D02*
X31300295Y-6780714D01*
X31300295Y-6780714D02*
X31395533Y-6780714D01*
X31395533Y-6780714D02*
X31538390Y-6733095D01*
X31538390Y-6733095D02*
X32109819Y-6161667D01*
X32109819Y-6161667D02*
X32109819Y-6780714D01*
X192637319Y-49940714D02*
X191637319Y-49940714D01*
X191637319Y-49940714D02*
X191637319Y-50178809D01*
X191637319Y-50178809D02*
X191684938Y-50321666D01*
X191684938Y-50321666D02*
X191780176Y-50416904D01*
X191780176Y-50416904D02*
X191875414Y-50464523D01*
X191875414Y-50464523D02*
X192065890Y-50512142D01*
X192065890Y-50512142D02*
X192208747Y-50512142D01*
X192208747Y-50512142D02*
X192399223Y-50464523D01*
X192399223Y-50464523D02*
X192494461Y-50416904D01*
X192494461Y-50416904D02*
X192589700Y-50321666D01*
X192589700Y-50321666D02*
X192637319Y-50178809D01*
X192637319Y-50178809D02*
X192637319Y-49940714D01*
X191637319Y-50845476D02*
X191637319Y-51464523D01*
X191637319Y-51464523D02*
X192018271Y-51131190D01*
X192018271Y-51131190D02*
X192018271Y-51274047D01*
X192018271Y-51274047D02*
X192065890Y-51369285D01*
X192065890Y-51369285D02*
X192113509Y-51416904D01*
X192113509Y-51416904D02*
X192208747Y-51464523D01*
X192208747Y-51464523D02*
X192446842Y-51464523D01*
X192446842Y-51464523D02*
X192542080Y-51416904D01*
X192542080Y-51416904D02*
X192589700Y-51369285D01*
X192589700Y-51369285D02*
X192637319Y-51274047D01*
X192637319Y-51274047D02*
X192637319Y-50988333D01*
X192637319Y-50988333D02*
X192589700Y-50893095D01*
X192589700Y-50893095D02*
X192542080Y-50845476D01*
X192065890Y-52035952D02*
X192018271Y-51940714D01*
X192018271Y-51940714D02*
X191970652Y-51893095D01*
X191970652Y-51893095D02*
X191875414Y-51845476D01*
X191875414Y-51845476D02*
X191827795Y-51845476D01*
X191827795Y-51845476D02*
X191732557Y-51893095D01*
X191732557Y-51893095D02*
X191684938Y-51940714D01*
X191684938Y-51940714D02*
X191637319Y-52035952D01*
X191637319Y-52035952D02*
X191637319Y-52226428D01*
X191637319Y-52226428D02*
X191684938Y-52321666D01*
X191684938Y-52321666D02*
X191732557Y-52369285D01*
X191732557Y-52369285D02*
X191827795Y-52416904D01*
X191827795Y-52416904D02*
X191875414Y-52416904D01*
X191875414Y-52416904D02*
X191970652Y-52369285D01*
X191970652Y-52369285D02*
X192018271Y-52321666D01*
X192018271Y-52321666D02*
X192065890Y-52226428D01*
X192065890Y-52226428D02*
X192065890Y-52035952D01*
X192065890Y-52035952D02*
X192113509Y-51940714D01*
X192113509Y-51940714D02*
X192161128Y-51893095D01*
X192161128Y-51893095D02*
X192256366Y-51845476D01*
X192256366Y-51845476D02*
X192446842Y-51845476D01*
X192446842Y-51845476D02*
X192542080Y-51893095D01*
X192542080Y-51893095D02*
X192589700Y-51940714D01*
X192589700Y-51940714D02*
X192637319Y-52035952D01*
X192637319Y-52035952D02*
X192637319Y-52226428D01*
X192637319Y-52226428D02*
X192589700Y-52321666D01*
X192589700Y-52321666D02*
X192542080Y-52369285D01*
X192542080Y-52369285D02*
X192446842Y-52416904D01*
X192446842Y-52416904D02*
X192256366Y-52416904D01*
X192256366Y-52416904D02*
X192161128Y-52369285D01*
X192161128Y-52369285D02*
X192113509Y-52321666D01*
X192113509Y-52321666D02*
X192065890Y-52226428D01*
X2899819Y-5256905D02*
X1899819Y-5256905D01*
X1899819Y-5256905D02*
X1899819Y-5495000D01*
X1899819Y-5495000D02*
X1947438Y-5637857D01*
X1947438Y-5637857D02*
X2042676Y-5733095D01*
X2042676Y-5733095D02*
X2137914Y-5780714D01*
X2137914Y-5780714D02*
X2328390Y-5828333D01*
X2328390Y-5828333D02*
X2471247Y-5828333D01*
X2471247Y-5828333D02*
X2661723Y-5780714D01*
X2661723Y-5780714D02*
X2756961Y-5733095D01*
X2756961Y-5733095D02*
X2852200Y-5637857D01*
X2852200Y-5637857D02*
X2899819Y-5495000D01*
X2899819Y-5495000D02*
X2899819Y-5256905D01*
X2899819Y-6780714D02*
X2899819Y-6209286D01*
X2899819Y-6495000D02*
X1899819Y-6495000D01*
X1899819Y-6495000D02*
X2042676Y-6399762D01*
X2042676Y-6399762D02*
X2137914Y-6304524D01*
X2137914Y-6304524D02*
X2185533Y-6209286D01*
X107411904Y-78409819D02*
X107411904Y-79219342D01*
X107411904Y-79219342D02*
X107364285Y-79314580D01*
X107364285Y-79314580D02*
X107316666Y-79362200D01*
X107316666Y-79362200D02*
X107221428Y-79409819D01*
X107221428Y-79409819D02*
X107030952Y-79409819D01*
X107030952Y-79409819D02*
X106935714Y-79362200D01*
X106935714Y-79362200D02*
X106888095Y-79314580D01*
X106888095Y-79314580D02*
X106840476Y-79219342D01*
X106840476Y-79219342D02*
X106840476Y-78409819D01*
X106411904Y-78505057D02*
X106364285Y-78457438D01*
X106364285Y-78457438D02*
X106269047Y-78409819D01*
X106269047Y-78409819D02*
X106030952Y-78409819D01*
X106030952Y-78409819D02*
X105935714Y-78457438D01*
X105935714Y-78457438D02*
X105888095Y-78505057D01*
X105888095Y-78505057D02*
X105840476Y-78600295D01*
X105840476Y-78600295D02*
X105840476Y-78695533D01*
X105840476Y-78695533D02*
X105888095Y-78838390D01*
X105888095Y-78838390D02*
X106459523Y-79409819D01*
X106459523Y-79409819D02*
X105840476Y-79409819D01*
X225974819Y-30890714D02*
X224974819Y-30890714D01*
X224974819Y-30890714D02*
X224974819Y-31128809D01*
X224974819Y-31128809D02*
X225022438Y-31271666D01*
X225022438Y-31271666D02*
X225117676Y-31366904D01*
X225117676Y-31366904D02*
X225212914Y-31414523D01*
X225212914Y-31414523D02*
X225403390Y-31462142D01*
X225403390Y-31462142D02*
X225546247Y-31462142D01*
X225546247Y-31462142D02*
X225736723Y-31414523D01*
X225736723Y-31414523D02*
X225831961Y-31366904D01*
X225831961Y-31366904D02*
X225927200Y-31271666D01*
X225927200Y-31271666D02*
X225974819Y-31128809D01*
X225974819Y-31128809D02*
X225974819Y-30890714D01*
X225070057Y-31843095D02*
X225022438Y-31890714D01*
X225022438Y-31890714D02*
X224974819Y-31985952D01*
X224974819Y-31985952D02*
X224974819Y-32224047D01*
X224974819Y-32224047D02*
X225022438Y-32319285D01*
X225022438Y-32319285D02*
X225070057Y-32366904D01*
X225070057Y-32366904D02*
X225165295Y-32414523D01*
X225165295Y-32414523D02*
X225260533Y-32414523D01*
X225260533Y-32414523D02*
X225403390Y-32366904D01*
X225403390Y-32366904D02*
X225974819Y-31795476D01*
X225974819Y-31795476D02*
X225974819Y-32414523D01*
X224974819Y-33271666D02*
X224974819Y-33081190D01*
X224974819Y-33081190D02*
X225022438Y-32985952D01*
X225022438Y-32985952D02*
X225070057Y-32938333D01*
X225070057Y-32938333D02*
X225212914Y-32843095D01*
X225212914Y-32843095D02*
X225403390Y-32795476D01*
X225403390Y-32795476D02*
X225784342Y-32795476D01*
X225784342Y-32795476D02*
X225879580Y-32843095D01*
X225879580Y-32843095D02*
X225927200Y-32890714D01*
X225927200Y-32890714D02*
X225974819Y-32985952D01*
X225974819Y-32985952D02*
X225974819Y-33176428D01*
X225974819Y-33176428D02*
X225927200Y-33271666D01*
X225927200Y-33271666D02*
X225879580Y-33319285D01*
X225879580Y-33319285D02*
X225784342Y-33366904D01*
X225784342Y-33366904D02*
X225546247Y-33366904D01*
X225546247Y-33366904D02*
X225451009Y-33319285D01*
X225451009Y-33319285D02*
X225403390Y-33271666D01*
X225403390Y-33271666D02*
X225355771Y-33176428D01*
X225355771Y-33176428D02*
X225355771Y-32985952D01*
X225355771Y-32985952D02*
X225403390Y-32890714D01*
X225403390Y-32890714D02*
X225451009Y-32843095D01*
X225451009Y-32843095D02*
X225546247Y-32795476D01*
X283759819Y-68990714D02*
X282759819Y-68990714D01*
X282759819Y-68990714D02*
X282759819Y-69228809D01*
X282759819Y-69228809D02*
X282807438Y-69371666D01*
X282807438Y-69371666D02*
X282902676Y-69466904D01*
X282902676Y-69466904D02*
X282997914Y-69514523D01*
X282997914Y-69514523D02*
X283188390Y-69562142D01*
X283188390Y-69562142D02*
X283331247Y-69562142D01*
X283331247Y-69562142D02*
X283521723Y-69514523D01*
X283521723Y-69514523D02*
X283616961Y-69466904D01*
X283616961Y-69466904D02*
X283712200Y-69371666D01*
X283712200Y-69371666D02*
X283759819Y-69228809D01*
X283759819Y-69228809D02*
X283759819Y-68990714D01*
X282759819Y-70466904D02*
X282759819Y-69990714D01*
X282759819Y-69990714D02*
X283236009Y-69943095D01*
X283236009Y-69943095D02*
X283188390Y-69990714D01*
X283188390Y-69990714D02*
X283140771Y-70085952D01*
X283140771Y-70085952D02*
X283140771Y-70324047D01*
X283140771Y-70324047D02*
X283188390Y-70419285D01*
X283188390Y-70419285D02*
X283236009Y-70466904D01*
X283236009Y-70466904D02*
X283331247Y-70514523D01*
X283331247Y-70514523D02*
X283569342Y-70514523D01*
X283569342Y-70514523D02*
X283664580Y-70466904D01*
X283664580Y-70466904D02*
X283712200Y-70419285D01*
X283712200Y-70419285D02*
X283759819Y-70324047D01*
X283759819Y-70324047D02*
X283759819Y-70085952D01*
X283759819Y-70085952D02*
X283712200Y-69990714D01*
X283712200Y-69990714D02*
X283664580Y-69943095D01*
X282759819Y-71371666D02*
X282759819Y-71181190D01*
X282759819Y-71181190D02*
X282807438Y-71085952D01*
X282807438Y-71085952D02*
X282855057Y-71038333D01*
X282855057Y-71038333D02*
X282997914Y-70943095D01*
X282997914Y-70943095D02*
X283188390Y-70895476D01*
X283188390Y-70895476D02*
X283569342Y-70895476D01*
X283569342Y-70895476D02*
X283664580Y-70943095D01*
X283664580Y-70943095D02*
X283712200Y-70990714D01*
X283712200Y-70990714D02*
X283759819Y-71085952D01*
X283759819Y-71085952D02*
X283759819Y-71276428D01*
X283759819Y-71276428D02*
X283712200Y-71371666D01*
X283712200Y-71371666D02*
X283664580Y-71419285D01*
X283664580Y-71419285D02*
X283569342Y-71466904D01*
X283569342Y-71466904D02*
X283331247Y-71466904D01*
X283331247Y-71466904D02*
X283236009Y-71419285D01*
X283236009Y-71419285D02*
X283188390Y-71371666D01*
X283188390Y-71371666D02*
X283140771Y-71276428D01*
X283140771Y-71276428D02*
X283140771Y-71085952D01*
X283140771Y-71085952D02*
X283188390Y-70990714D01*
X283188390Y-70990714D02*
X283236009Y-70943095D01*
X283236009Y-70943095D02*
X283331247Y-70895476D01*
X35474819Y-88040714D02*
X34474819Y-88040714D01*
X34474819Y-88040714D02*
X34474819Y-88278809D01*
X34474819Y-88278809D02*
X34522438Y-88421666D01*
X34522438Y-88421666D02*
X34617676Y-88516904D01*
X34617676Y-88516904D02*
X34712914Y-88564523D01*
X34712914Y-88564523D02*
X34903390Y-88612142D01*
X34903390Y-88612142D02*
X35046247Y-88612142D01*
X35046247Y-88612142D02*
X35236723Y-88564523D01*
X35236723Y-88564523D02*
X35331961Y-88516904D01*
X35331961Y-88516904D02*
X35427200Y-88421666D01*
X35427200Y-88421666D02*
X35474819Y-88278809D01*
X35474819Y-88278809D02*
X35474819Y-88040714D01*
X34474819Y-89516904D02*
X34474819Y-89040714D01*
X34474819Y-89040714D02*
X34951009Y-88993095D01*
X34951009Y-88993095D02*
X34903390Y-89040714D01*
X34903390Y-89040714D02*
X34855771Y-89135952D01*
X34855771Y-89135952D02*
X34855771Y-89374047D01*
X34855771Y-89374047D02*
X34903390Y-89469285D01*
X34903390Y-89469285D02*
X34951009Y-89516904D01*
X34951009Y-89516904D02*
X35046247Y-89564523D01*
X35046247Y-89564523D02*
X35284342Y-89564523D01*
X35284342Y-89564523D02*
X35379580Y-89516904D01*
X35379580Y-89516904D02*
X35427200Y-89469285D01*
X35427200Y-89469285D02*
X35474819Y-89374047D01*
X35474819Y-89374047D02*
X35474819Y-89135952D01*
X35474819Y-89135952D02*
X35427200Y-89040714D01*
X35427200Y-89040714D02*
X35379580Y-88993095D01*
X34903390Y-90135952D02*
X34855771Y-90040714D01*
X34855771Y-90040714D02*
X34808152Y-89993095D01*
X34808152Y-89993095D02*
X34712914Y-89945476D01*
X34712914Y-89945476D02*
X34665295Y-89945476D01*
X34665295Y-89945476D02*
X34570057Y-89993095D01*
X34570057Y-89993095D02*
X34522438Y-90040714D01*
X34522438Y-90040714D02*
X34474819Y-90135952D01*
X34474819Y-90135952D02*
X34474819Y-90326428D01*
X34474819Y-90326428D02*
X34522438Y-90421666D01*
X34522438Y-90421666D02*
X34570057Y-90469285D01*
X34570057Y-90469285D02*
X34665295Y-90516904D01*
X34665295Y-90516904D02*
X34712914Y-90516904D01*
X34712914Y-90516904D02*
X34808152Y-90469285D01*
X34808152Y-90469285D02*
X34855771Y-90421666D01*
X34855771Y-90421666D02*
X34903390Y-90326428D01*
X34903390Y-90326428D02*
X34903390Y-90135952D01*
X34903390Y-90135952D02*
X34951009Y-90040714D01*
X34951009Y-90040714D02*
X34998628Y-89993095D01*
X34998628Y-89993095D02*
X35093866Y-89945476D01*
X35093866Y-89945476D02*
X35284342Y-89945476D01*
X35284342Y-89945476D02*
X35379580Y-89993095D01*
X35379580Y-89993095D02*
X35427200Y-90040714D01*
X35427200Y-90040714D02*
X35474819Y-90135952D01*
X35474819Y-90135952D02*
X35474819Y-90326428D01*
X35474819Y-90326428D02*
X35427200Y-90421666D01*
X35427200Y-90421666D02*
X35379580Y-90469285D01*
X35379580Y-90469285D02*
X35284342Y-90516904D01*
X35284342Y-90516904D02*
X35093866Y-90516904D01*
X35093866Y-90516904D02*
X34998628Y-90469285D01*
X34998628Y-90469285D02*
X34951009Y-90421666D01*
X34951009Y-90421666D02*
X34903390Y-90326428D01*
X113279166Y-86099580D02*
X113326785Y-86147200D01*
X113326785Y-86147200D02*
X113469642Y-86194819D01*
X113469642Y-86194819D02*
X113564880Y-86194819D01*
X113564880Y-86194819D02*
X113707737Y-86147200D01*
X113707737Y-86147200D02*
X113802975Y-86051961D01*
X113802975Y-86051961D02*
X113850594Y-85956723D01*
X113850594Y-85956723D02*
X113898213Y-85766247D01*
X113898213Y-85766247D02*
X113898213Y-85623390D01*
X113898213Y-85623390D02*
X113850594Y-85432914D01*
X113850594Y-85432914D02*
X113802975Y-85337676D01*
X113802975Y-85337676D02*
X113707737Y-85242438D01*
X113707737Y-85242438D02*
X113564880Y-85194819D01*
X113564880Y-85194819D02*
X113469642Y-85194819D01*
X113469642Y-85194819D02*
X113326785Y-85242438D01*
X113326785Y-85242438D02*
X113279166Y-85290057D01*
X112945832Y-85194819D02*
X112279166Y-85194819D01*
X112279166Y-85194819D02*
X112707737Y-86194819D01*
X125962319Y-68990714D02*
X124962319Y-68990714D01*
X124962319Y-68990714D02*
X124962319Y-69228809D01*
X124962319Y-69228809D02*
X125009938Y-69371666D01*
X125009938Y-69371666D02*
X125105176Y-69466904D01*
X125105176Y-69466904D02*
X125200414Y-69514523D01*
X125200414Y-69514523D02*
X125390890Y-69562142D01*
X125390890Y-69562142D02*
X125533747Y-69562142D01*
X125533747Y-69562142D02*
X125724223Y-69514523D01*
X125724223Y-69514523D02*
X125819461Y-69466904D01*
X125819461Y-69466904D02*
X125914700Y-69371666D01*
X125914700Y-69371666D02*
X125962319Y-69228809D01*
X125962319Y-69228809D02*
X125962319Y-68990714D01*
X125295652Y-70419285D02*
X125962319Y-70419285D01*
X124914700Y-70181190D02*
X125628985Y-69943095D01*
X125628985Y-69943095D02*
X125628985Y-70562142D01*
X125962319Y-70990714D02*
X125962319Y-71181190D01*
X125962319Y-71181190D02*
X125914700Y-71276428D01*
X125914700Y-71276428D02*
X125867080Y-71324047D01*
X125867080Y-71324047D02*
X125724223Y-71419285D01*
X125724223Y-71419285D02*
X125533747Y-71466904D01*
X125533747Y-71466904D02*
X125152795Y-71466904D01*
X125152795Y-71466904D02*
X125057557Y-71419285D01*
X125057557Y-71419285D02*
X125009938Y-71371666D01*
X125009938Y-71371666D02*
X124962319Y-71276428D01*
X124962319Y-71276428D02*
X124962319Y-71085952D01*
X124962319Y-71085952D02*
X125009938Y-70990714D01*
X125009938Y-70990714D02*
X125057557Y-70943095D01*
X125057557Y-70943095D02*
X125152795Y-70895476D01*
X125152795Y-70895476D02*
X125390890Y-70895476D01*
X125390890Y-70895476D02*
X125486128Y-70943095D01*
X125486128Y-70943095D02*
X125533747Y-70990714D01*
X125533747Y-70990714D02*
X125581366Y-71085952D01*
X125581366Y-71085952D02*
X125581366Y-71276428D01*
X125581366Y-71276428D02*
X125533747Y-71371666D01*
X125533747Y-71371666D02*
X125486128Y-71419285D01*
X125486128Y-71419285D02*
X125390890Y-71466904D01*
X221212319Y-88040714D02*
X220212319Y-88040714D01*
X220212319Y-88040714D02*
X220212319Y-88278809D01*
X220212319Y-88278809D02*
X220259938Y-88421666D01*
X220259938Y-88421666D02*
X220355176Y-88516904D01*
X220355176Y-88516904D02*
X220450414Y-88564523D01*
X220450414Y-88564523D02*
X220640890Y-88612142D01*
X220640890Y-88612142D02*
X220783747Y-88612142D01*
X220783747Y-88612142D02*
X220974223Y-88564523D01*
X220974223Y-88564523D02*
X221069461Y-88516904D01*
X221069461Y-88516904D02*
X221164700Y-88421666D01*
X221164700Y-88421666D02*
X221212319Y-88278809D01*
X221212319Y-88278809D02*
X221212319Y-88040714D01*
X220212319Y-89469285D02*
X220212319Y-89278809D01*
X220212319Y-89278809D02*
X220259938Y-89183571D01*
X220259938Y-89183571D02*
X220307557Y-89135952D01*
X220307557Y-89135952D02*
X220450414Y-89040714D01*
X220450414Y-89040714D02*
X220640890Y-88993095D01*
X220640890Y-88993095D02*
X221021842Y-88993095D01*
X221021842Y-88993095D02*
X221117080Y-89040714D01*
X221117080Y-89040714D02*
X221164700Y-89088333D01*
X221164700Y-89088333D02*
X221212319Y-89183571D01*
X221212319Y-89183571D02*
X221212319Y-89374047D01*
X221212319Y-89374047D02*
X221164700Y-89469285D01*
X221164700Y-89469285D02*
X221117080Y-89516904D01*
X221117080Y-89516904D02*
X221021842Y-89564523D01*
X221021842Y-89564523D02*
X220783747Y-89564523D01*
X220783747Y-89564523D02*
X220688509Y-89516904D01*
X220688509Y-89516904D02*
X220640890Y-89469285D01*
X220640890Y-89469285D02*
X220593271Y-89374047D01*
X220593271Y-89374047D02*
X220593271Y-89183571D01*
X220593271Y-89183571D02*
X220640890Y-89088333D01*
X220640890Y-89088333D02*
X220688509Y-89040714D01*
X220688509Y-89040714D02*
X220783747Y-88993095D01*
X221212319Y-90516904D02*
X221212319Y-89945476D01*
X221212319Y-90231190D02*
X220212319Y-90231190D01*
X220212319Y-90231190D02*
X220355176Y-90135952D01*
X220355176Y-90135952D02*
X220450414Y-90040714D01*
X220450414Y-90040714D02*
X220498033Y-89945476D01*
X122819580Y-81733333D02*
X122867200Y-81685714D01*
X122867200Y-81685714D02*
X122914819Y-81542857D01*
X122914819Y-81542857D02*
X122914819Y-81447619D01*
X122914819Y-81447619D02*
X122867200Y-81304762D01*
X122867200Y-81304762D02*
X122771961Y-81209524D01*
X122771961Y-81209524D02*
X122676723Y-81161905D01*
X122676723Y-81161905D02*
X122486247Y-81114286D01*
X122486247Y-81114286D02*
X122343390Y-81114286D01*
X122343390Y-81114286D02*
X122152914Y-81161905D01*
X122152914Y-81161905D02*
X122057676Y-81209524D01*
X122057676Y-81209524D02*
X121962438Y-81304762D01*
X121962438Y-81304762D02*
X121914819Y-81447619D01*
X121914819Y-81447619D02*
X121914819Y-81542857D01*
X121914819Y-81542857D02*
X121962438Y-81685714D01*
X121962438Y-81685714D02*
X122010057Y-81733333D01*
X121914819Y-82638095D02*
X121914819Y-82161905D01*
X121914819Y-82161905D02*
X122391009Y-82114286D01*
X122391009Y-82114286D02*
X122343390Y-82161905D01*
X122343390Y-82161905D02*
X122295771Y-82257143D01*
X122295771Y-82257143D02*
X122295771Y-82495238D01*
X122295771Y-82495238D02*
X122343390Y-82590476D01*
X122343390Y-82590476D02*
X122391009Y-82638095D01*
X122391009Y-82638095D02*
X122486247Y-82685714D01*
X122486247Y-82685714D02*
X122724342Y-82685714D01*
X122724342Y-82685714D02*
X122819580Y-82638095D01*
X122819580Y-82638095D02*
X122867200Y-82590476D01*
X122867200Y-82590476D02*
X122914819Y-82495238D01*
X122914819Y-82495238D02*
X122914819Y-82257143D01*
X122914819Y-82257143D02*
X122867200Y-82161905D01*
X122867200Y-82161905D02*
X122819580Y-82114286D01*
X127779166Y-85259580D02*
X127826785Y-85307200D01*
X127826785Y-85307200D02*
X127969642Y-85354819D01*
X127969642Y-85354819D02*
X128064880Y-85354819D01*
X128064880Y-85354819D02*
X128207737Y-85307200D01*
X128207737Y-85307200D02*
X128302975Y-85211961D01*
X128302975Y-85211961D02*
X128350594Y-85116723D01*
X128350594Y-85116723D02*
X128398213Y-84926247D01*
X128398213Y-84926247D02*
X128398213Y-84783390D01*
X128398213Y-84783390D02*
X128350594Y-84592914D01*
X128350594Y-84592914D02*
X128302975Y-84497676D01*
X128302975Y-84497676D02*
X128207737Y-84402438D01*
X128207737Y-84402438D02*
X128064880Y-84354819D01*
X128064880Y-84354819D02*
X127969642Y-84354819D01*
X127969642Y-84354819D02*
X127826785Y-84402438D01*
X127826785Y-84402438D02*
X127779166Y-84450057D01*
X127398213Y-84450057D02*
X127350594Y-84402438D01*
X127350594Y-84402438D02*
X127255356Y-84354819D01*
X127255356Y-84354819D02*
X127017261Y-84354819D01*
X127017261Y-84354819D02*
X126922023Y-84402438D01*
X126922023Y-84402438D02*
X126874404Y-84450057D01*
X126874404Y-84450057D02*
X126826785Y-84545295D01*
X126826785Y-84545295D02*
X126826785Y-84640533D01*
X126826785Y-84640533D02*
X126874404Y-84783390D01*
X126874404Y-84783390D02*
X127445832Y-85354819D01*
X127445832Y-85354819D02*
X126826785Y-85354819D01*
X54524819Y-30890714D02*
X53524819Y-30890714D01*
X53524819Y-30890714D02*
X53524819Y-31128809D01*
X53524819Y-31128809D02*
X53572438Y-31271666D01*
X53572438Y-31271666D02*
X53667676Y-31366904D01*
X53667676Y-31366904D02*
X53762914Y-31414523D01*
X53762914Y-31414523D02*
X53953390Y-31462142D01*
X53953390Y-31462142D02*
X54096247Y-31462142D01*
X54096247Y-31462142D02*
X54286723Y-31414523D01*
X54286723Y-31414523D02*
X54381961Y-31366904D01*
X54381961Y-31366904D02*
X54477200Y-31271666D01*
X54477200Y-31271666D02*
X54524819Y-31128809D01*
X54524819Y-31128809D02*
X54524819Y-30890714D01*
X54524819Y-32414523D02*
X54524819Y-31843095D01*
X54524819Y-32128809D02*
X53524819Y-32128809D01*
X53524819Y-32128809D02*
X53667676Y-32033571D01*
X53667676Y-32033571D02*
X53762914Y-31938333D01*
X53762914Y-31938333D02*
X53810533Y-31843095D01*
X53524819Y-32747857D02*
X53524819Y-33414523D01*
X53524819Y-33414523D02*
X54524819Y-32985952D01*
X31380535Y-70669819D02*
X31380535Y-69669819D01*
X31380535Y-69669819D02*
X31142440Y-69669819D01*
X31142440Y-69669819D02*
X30999583Y-69717438D01*
X30999583Y-69717438D02*
X30904345Y-69812676D01*
X30904345Y-69812676D02*
X30856726Y-69907914D01*
X30856726Y-69907914D02*
X30809107Y-70098390D01*
X30809107Y-70098390D02*
X30809107Y-70241247D01*
X30809107Y-70241247D02*
X30856726Y-70431723D01*
X30856726Y-70431723D02*
X30904345Y-70526961D01*
X30904345Y-70526961D02*
X30999583Y-70622200D01*
X30999583Y-70622200D02*
X31142440Y-70669819D01*
X31142440Y-70669819D02*
X31380535Y-70669819D01*
X29951964Y-70003152D02*
X29951964Y-70669819D01*
X30190059Y-69622200D02*
X30428154Y-70336485D01*
X30428154Y-70336485D02*
X29809107Y-70336485D01*
X29523392Y-69669819D02*
X28904345Y-69669819D01*
X28904345Y-69669819D02*
X29237678Y-70050771D01*
X29237678Y-70050771D02*
X29094821Y-70050771D01*
X29094821Y-70050771D02*
X28999583Y-70098390D01*
X28999583Y-70098390D02*
X28951964Y-70146009D01*
X28951964Y-70146009D02*
X28904345Y-70241247D01*
X28904345Y-70241247D02*
X28904345Y-70479342D01*
X28904345Y-70479342D02*
X28951964Y-70574580D01*
X28951964Y-70574580D02*
X28999583Y-70622200D01*
X28999583Y-70622200D02*
X29094821Y-70669819D01*
X29094821Y-70669819D02*
X29380535Y-70669819D01*
X29380535Y-70669819D02*
X29475773Y-70622200D01*
X29475773Y-70622200D02*
X29523392Y-70574580D01*
X133088690Y-85628628D02*
X133088690Y-86104819D01*
X133422023Y-85104819D02*
X133088690Y-85628628D01*
X133088690Y-85628628D02*
X132755357Y-85104819D01*
X131898214Y-86104819D02*
X132469642Y-86104819D01*
X132183928Y-86104819D02*
X132183928Y-85104819D01*
X132183928Y-85104819D02*
X132279166Y-85247676D01*
X132279166Y-85247676D02*
X132374404Y-85342914D01*
X132374404Y-85342914D02*
X132469642Y-85390533D01*
X93124404Y-79104819D02*
X93124404Y-79914342D01*
X93124404Y-79914342D02*
X93076785Y-80009580D01*
X93076785Y-80009580D02*
X93029166Y-80057200D01*
X93029166Y-80057200D02*
X92933928Y-80104819D01*
X92933928Y-80104819D02*
X92743452Y-80104819D01*
X92743452Y-80104819D02*
X92648214Y-80057200D01*
X92648214Y-80057200D02*
X92600595Y-80009580D01*
X92600595Y-80009580D02*
X92552976Y-79914342D01*
X92552976Y-79914342D02*
X92552976Y-79104819D01*
X91552976Y-80104819D02*
X92124404Y-80104819D01*
X91838690Y-80104819D02*
X91838690Y-79104819D01*
X91838690Y-79104819D02*
X91933928Y-79247676D01*
X91933928Y-79247676D02*
X92029166Y-79342914D01*
X92029166Y-79342914D02*
X92124404Y-79390533D01*
X178349819Y-11840714D02*
X177349819Y-11840714D01*
X177349819Y-11840714D02*
X177349819Y-12078809D01*
X177349819Y-12078809D02*
X177397438Y-12221666D01*
X177397438Y-12221666D02*
X177492676Y-12316904D01*
X177492676Y-12316904D02*
X177587914Y-12364523D01*
X177587914Y-12364523D02*
X177778390Y-12412142D01*
X177778390Y-12412142D02*
X177921247Y-12412142D01*
X177921247Y-12412142D02*
X178111723Y-12364523D01*
X178111723Y-12364523D02*
X178206961Y-12316904D01*
X178206961Y-12316904D02*
X178302200Y-12221666D01*
X178302200Y-12221666D02*
X178349819Y-12078809D01*
X178349819Y-12078809D02*
X178349819Y-11840714D01*
X178349819Y-13364523D02*
X178349819Y-12793095D01*
X178349819Y-13078809D02*
X177349819Y-13078809D01*
X177349819Y-13078809D02*
X177492676Y-12983571D01*
X177492676Y-12983571D02*
X177587914Y-12888333D01*
X177587914Y-12888333D02*
X177635533Y-12793095D01*
X177349819Y-13983571D02*
X177349819Y-14078809D01*
X177349819Y-14078809D02*
X177397438Y-14174047D01*
X177397438Y-14174047D02*
X177445057Y-14221666D01*
X177445057Y-14221666D02*
X177540295Y-14269285D01*
X177540295Y-14269285D02*
X177730771Y-14316904D01*
X177730771Y-14316904D02*
X177968866Y-14316904D01*
X177968866Y-14316904D02*
X178159342Y-14269285D01*
X178159342Y-14269285D02*
X178254580Y-14221666D01*
X178254580Y-14221666D02*
X178302200Y-14174047D01*
X178302200Y-14174047D02*
X178349819Y-14078809D01*
X178349819Y-14078809D02*
X178349819Y-13983571D01*
X178349819Y-13983571D02*
X178302200Y-13888333D01*
X178302200Y-13888333D02*
X178254580Y-13840714D01*
X178254580Y-13840714D02*
X178159342Y-13793095D01*
X178159342Y-13793095D02*
X177968866Y-13745476D01*
X177968866Y-13745476D02*
X177730771Y-13745476D01*
X177730771Y-13745476D02*
X177540295Y-13793095D01*
X177540295Y-13793095D02*
X177445057Y-13840714D01*
X177445057Y-13840714D02*
X177397438Y-13888333D01*
X177397438Y-13888333D02*
X177349819Y-13983571D01*
X183112319Y-68990714D02*
X182112319Y-68990714D01*
X182112319Y-68990714D02*
X182112319Y-69228809D01*
X182112319Y-69228809D02*
X182159938Y-69371666D01*
X182159938Y-69371666D02*
X182255176Y-69466904D01*
X182255176Y-69466904D02*
X182350414Y-69514523D01*
X182350414Y-69514523D02*
X182540890Y-69562142D01*
X182540890Y-69562142D02*
X182683747Y-69562142D01*
X182683747Y-69562142D02*
X182874223Y-69514523D01*
X182874223Y-69514523D02*
X182969461Y-69466904D01*
X182969461Y-69466904D02*
X183064700Y-69371666D01*
X183064700Y-69371666D02*
X183112319Y-69228809D01*
X183112319Y-69228809D02*
X183112319Y-68990714D01*
X182112319Y-70466904D02*
X182112319Y-69990714D01*
X182112319Y-69990714D02*
X182588509Y-69943095D01*
X182588509Y-69943095D02*
X182540890Y-69990714D01*
X182540890Y-69990714D02*
X182493271Y-70085952D01*
X182493271Y-70085952D02*
X182493271Y-70324047D01*
X182493271Y-70324047D02*
X182540890Y-70419285D01*
X182540890Y-70419285D02*
X182588509Y-70466904D01*
X182588509Y-70466904D02*
X182683747Y-70514523D01*
X182683747Y-70514523D02*
X182921842Y-70514523D01*
X182921842Y-70514523D02*
X183017080Y-70466904D01*
X183017080Y-70466904D02*
X183064700Y-70419285D01*
X183064700Y-70419285D02*
X183112319Y-70324047D01*
X183112319Y-70324047D02*
X183112319Y-70085952D01*
X183112319Y-70085952D02*
X183064700Y-69990714D01*
X183064700Y-69990714D02*
X183017080Y-69943095D01*
X182207557Y-70895476D02*
X182159938Y-70943095D01*
X182159938Y-70943095D02*
X182112319Y-71038333D01*
X182112319Y-71038333D02*
X182112319Y-71276428D01*
X182112319Y-71276428D02*
X182159938Y-71371666D01*
X182159938Y-71371666D02*
X182207557Y-71419285D01*
X182207557Y-71419285D02*
X182302795Y-71466904D01*
X182302795Y-71466904D02*
X182398033Y-71466904D01*
X182398033Y-71466904D02*
X182540890Y-71419285D01*
X182540890Y-71419285D02*
X183112319Y-70847857D01*
X183112319Y-70847857D02*
X183112319Y-71466904D01*
X235499819Y-11840714D02*
X234499819Y-11840714D01*
X234499819Y-11840714D02*
X234499819Y-12078809D01*
X234499819Y-12078809D02*
X234547438Y-12221666D01*
X234547438Y-12221666D02*
X234642676Y-12316904D01*
X234642676Y-12316904D02*
X234737914Y-12364523D01*
X234737914Y-12364523D02*
X234928390Y-12412142D01*
X234928390Y-12412142D02*
X235071247Y-12412142D01*
X235071247Y-12412142D02*
X235261723Y-12364523D01*
X235261723Y-12364523D02*
X235356961Y-12316904D01*
X235356961Y-12316904D02*
X235452200Y-12221666D01*
X235452200Y-12221666D02*
X235499819Y-12078809D01*
X235499819Y-12078809D02*
X235499819Y-11840714D01*
X235499819Y-13364523D02*
X235499819Y-12793095D01*
X235499819Y-13078809D02*
X234499819Y-13078809D01*
X234499819Y-13078809D02*
X234642676Y-12983571D01*
X234642676Y-12983571D02*
X234737914Y-12888333D01*
X234737914Y-12888333D02*
X234785533Y-12793095D01*
X234499819Y-13697857D02*
X234499819Y-14316904D01*
X234499819Y-14316904D02*
X234880771Y-13983571D01*
X234880771Y-13983571D02*
X234880771Y-14126428D01*
X234880771Y-14126428D02*
X234928390Y-14221666D01*
X234928390Y-14221666D02*
X234976009Y-14269285D01*
X234976009Y-14269285D02*
X235071247Y-14316904D01*
X235071247Y-14316904D02*
X235309342Y-14316904D01*
X235309342Y-14316904D02*
X235404580Y-14269285D01*
X235404580Y-14269285D02*
X235452200Y-14221666D01*
X235452200Y-14221666D02*
X235499819Y-14126428D01*
X235499819Y-14126428D02*
X235499819Y-13840714D01*
X235499819Y-13840714D02*
X235452200Y-13745476D01*
X235452200Y-13745476D02*
X235404580Y-13697857D01*
X73574819Y-30890714D02*
X72574819Y-30890714D01*
X72574819Y-30890714D02*
X72574819Y-31128809D01*
X72574819Y-31128809D02*
X72622438Y-31271666D01*
X72622438Y-31271666D02*
X72717676Y-31366904D01*
X72717676Y-31366904D02*
X72812914Y-31414523D01*
X72812914Y-31414523D02*
X73003390Y-31462142D01*
X73003390Y-31462142D02*
X73146247Y-31462142D01*
X73146247Y-31462142D02*
X73336723Y-31414523D01*
X73336723Y-31414523D02*
X73431961Y-31366904D01*
X73431961Y-31366904D02*
X73527200Y-31271666D01*
X73527200Y-31271666D02*
X73574819Y-31128809D01*
X73574819Y-31128809D02*
X73574819Y-30890714D01*
X73574819Y-32414523D02*
X73574819Y-31843095D01*
X73574819Y-32128809D02*
X72574819Y-32128809D01*
X72574819Y-32128809D02*
X72717676Y-32033571D01*
X72717676Y-32033571D02*
X72812914Y-31938333D01*
X72812914Y-31938333D02*
X72860533Y-31843095D01*
X73003390Y-32985952D02*
X72955771Y-32890714D01*
X72955771Y-32890714D02*
X72908152Y-32843095D01*
X72908152Y-32843095D02*
X72812914Y-32795476D01*
X72812914Y-32795476D02*
X72765295Y-32795476D01*
X72765295Y-32795476D02*
X72670057Y-32843095D01*
X72670057Y-32843095D02*
X72622438Y-32890714D01*
X72622438Y-32890714D02*
X72574819Y-32985952D01*
X72574819Y-32985952D02*
X72574819Y-33176428D01*
X72574819Y-33176428D02*
X72622438Y-33271666D01*
X72622438Y-33271666D02*
X72670057Y-33319285D01*
X72670057Y-33319285D02*
X72765295Y-33366904D01*
X72765295Y-33366904D02*
X72812914Y-33366904D01*
X72812914Y-33366904D02*
X72908152Y-33319285D01*
X72908152Y-33319285D02*
X72955771Y-33271666D01*
X72955771Y-33271666D02*
X73003390Y-33176428D01*
X73003390Y-33176428D02*
X73003390Y-32985952D01*
X73003390Y-32985952D02*
X73051009Y-32890714D01*
X73051009Y-32890714D02*
X73098628Y-32843095D01*
X73098628Y-32843095D02*
X73193866Y-32795476D01*
X73193866Y-32795476D02*
X73384342Y-32795476D01*
X73384342Y-32795476D02*
X73479580Y-32843095D01*
X73479580Y-32843095D02*
X73527200Y-32890714D01*
X73527200Y-32890714D02*
X73574819Y-32985952D01*
X73574819Y-32985952D02*
X73574819Y-33176428D01*
X73574819Y-33176428D02*
X73527200Y-33271666D01*
X73527200Y-33271666D02*
X73479580Y-33319285D01*
X73479580Y-33319285D02*
X73384342Y-33366904D01*
X73384342Y-33366904D02*
X73193866Y-33366904D01*
X73193866Y-33366904D02*
X73098628Y-33319285D01*
X73098628Y-33319285D02*
X73051009Y-33271666D01*
X73051009Y-33271666D02*
X73003390Y-33176428D01*
X278588035Y-42134819D02*
X278588035Y-41134819D01*
X278588035Y-41134819D02*
X278349940Y-41134819D01*
X278349940Y-41134819D02*
X278207083Y-41182438D01*
X278207083Y-41182438D02*
X278111845Y-41277676D01*
X278111845Y-41277676D02*
X278064226Y-41372914D01*
X278064226Y-41372914D02*
X278016607Y-41563390D01*
X278016607Y-41563390D02*
X278016607Y-41706247D01*
X278016607Y-41706247D02*
X278064226Y-41896723D01*
X278064226Y-41896723D02*
X278111845Y-41991961D01*
X278111845Y-41991961D02*
X278207083Y-42087200D01*
X278207083Y-42087200D02*
X278349940Y-42134819D01*
X278349940Y-42134819D02*
X278588035Y-42134819D01*
X277635654Y-41230057D02*
X277588035Y-41182438D01*
X277588035Y-41182438D02*
X277492797Y-41134819D01*
X277492797Y-41134819D02*
X277254702Y-41134819D01*
X277254702Y-41134819D02*
X277159464Y-41182438D01*
X277159464Y-41182438D02*
X277111845Y-41230057D01*
X277111845Y-41230057D02*
X277064226Y-41325295D01*
X277064226Y-41325295D02*
X277064226Y-41420533D01*
X277064226Y-41420533D02*
X277111845Y-41563390D01*
X277111845Y-41563390D02*
X277683273Y-42134819D01*
X277683273Y-42134819D02*
X277064226Y-42134819D01*
X276492797Y-41563390D02*
X276588035Y-41515771D01*
X276588035Y-41515771D02*
X276635654Y-41468152D01*
X276635654Y-41468152D02*
X276683273Y-41372914D01*
X276683273Y-41372914D02*
X276683273Y-41325295D01*
X276683273Y-41325295D02*
X276635654Y-41230057D01*
X276635654Y-41230057D02*
X276588035Y-41182438D01*
X276588035Y-41182438D02*
X276492797Y-41134819D01*
X276492797Y-41134819D02*
X276302321Y-41134819D01*
X276302321Y-41134819D02*
X276207083Y-41182438D01*
X276207083Y-41182438D02*
X276159464Y-41230057D01*
X276159464Y-41230057D02*
X276111845Y-41325295D01*
X276111845Y-41325295D02*
X276111845Y-41372914D01*
X276111845Y-41372914D02*
X276159464Y-41468152D01*
X276159464Y-41468152D02*
X276207083Y-41515771D01*
X276207083Y-41515771D02*
X276302321Y-41563390D01*
X276302321Y-41563390D02*
X276492797Y-41563390D01*
X276492797Y-41563390D02*
X276588035Y-41611009D01*
X276588035Y-41611009D02*
X276635654Y-41658628D01*
X276635654Y-41658628D02*
X276683273Y-41753866D01*
X276683273Y-41753866D02*
X276683273Y-41944342D01*
X276683273Y-41944342D02*
X276635654Y-42039580D01*
X276635654Y-42039580D02*
X276588035Y-42087200D01*
X276588035Y-42087200D02*
X276492797Y-42134819D01*
X276492797Y-42134819D02*
X276302321Y-42134819D01*
X276302321Y-42134819D02*
X276207083Y-42087200D01*
X276207083Y-42087200D02*
X276159464Y-42039580D01*
X276159464Y-42039580D02*
X276111845Y-41944342D01*
X276111845Y-41944342D02*
X276111845Y-41753866D01*
X276111845Y-41753866D02*
X276159464Y-41658628D01*
X276159464Y-41658628D02*
X276207083Y-41611009D01*
X276207083Y-41611009D02*
X276302321Y-41563390D01*
X140249819Y-88040714D02*
X139249819Y-88040714D01*
X139249819Y-88040714D02*
X139249819Y-88278809D01*
X139249819Y-88278809D02*
X139297438Y-88421666D01*
X139297438Y-88421666D02*
X139392676Y-88516904D01*
X139392676Y-88516904D02*
X139487914Y-88564523D01*
X139487914Y-88564523D02*
X139678390Y-88612142D01*
X139678390Y-88612142D02*
X139821247Y-88612142D01*
X139821247Y-88612142D02*
X140011723Y-88564523D01*
X140011723Y-88564523D02*
X140106961Y-88516904D01*
X140106961Y-88516904D02*
X140202200Y-88421666D01*
X140202200Y-88421666D02*
X140249819Y-88278809D01*
X140249819Y-88278809D02*
X140249819Y-88040714D01*
X139249819Y-89469285D02*
X139249819Y-89278809D01*
X139249819Y-89278809D02*
X139297438Y-89183571D01*
X139297438Y-89183571D02*
X139345057Y-89135952D01*
X139345057Y-89135952D02*
X139487914Y-89040714D01*
X139487914Y-89040714D02*
X139678390Y-88993095D01*
X139678390Y-88993095D02*
X140059342Y-88993095D01*
X140059342Y-88993095D02*
X140154580Y-89040714D01*
X140154580Y-89040714D02*
X140202200Y-89088333D01*
X140202200Y-89088333D02*
X140249819Y-89183571D01*
X140249819Y-89183571D02*
X140249819Y-89374047D01*
X140249819Y-89374047D02*
X140202200Y-89469285D01*
X140202200Y-89469285D02*
X140154580Y-89516904D01*
X140154580Y-89516904D02*
X140059342Y-89564523D01*
X140059342Y-89564523D02*
X139821247Y-89564523D01*
X139821247Y-89564523D02*
X139726009Y-89516904D01*
X139726009Y-89516904D02*
X139678390Y-89469285D01*
X139678390Y-89469285D02*
X139630771Y-89374047D01*
X139630771Y-89374047D02*
X139630771Y-89183571D01*
X139630771Y-89183571D02*
X139678390Y-89088333D01*
X139678390Y-89088333D02*
X139726009Y-89040714D01*
X139726009Y-89040714D02*
X139821247Y-88993095D01*
X139249819Y-90183571D02*
X139249819Y-90278809D01*
X139249819Y-90278809D02*
X139297438Y-90374047D01*
X139297438Y-90374047D02*
X139345057Y-90421666D01*
X139345057Y-90421666D02*
X139440295Y-90469285D01*
X139440295Y-90469285D02*
X139630771Y-90516904D01*
X139630771Y-90516904D02*
X139868866Y-90516904D01*
X139868866Y-90516904D02*
X140059342Y-90469285D01*
X140059342Y-90469285D02*
X140154580Y-90421666D01*
X140154580Y-90421666D02*
X140202200Y-90374047D01*
X140202200Y-90374047D02*
X140249819Y-90278809D01*
X140249819Y-90278809D02*
X140249819Y-90183571D01*
X140249819Y-90183571D02*
X140202200Y-90088333D01*
X140202200Y-90088333D02*
X140154580Y-90040714D01*
X140154580Y-90040714D02*
X140059342Y-89993095D01*
X140059342Y-89993095D02*
X139868866Y-89945476D01*
X139868866Y-89945476D02*
X139630771Y-89945476D01*
X139630771Y-89945476D02*
X139440295Y-89993095D01*
X139440295Y-89993095D02*
X139345057Y-90040714D01*
X139345057Y-90040714D02*
X139297438Y-90088333D01*
X139297438Y-90088333D02*
X139249819Y-90183571D01*
X97387319Y-49940714D02*
X96387319Y-49940714D01*
X96387319Y-49940714D02*
X96387319Y-50178809D01*
X96387319Y-50178809D02*
X96434938Y-50321666D01*
X96434938Y-50321666D02*
X96530176Y-50416904D01*
X96530176Y-50416904D02*
X96625414Y-50464523D01*
X96625414Y-50464523D02*
X96815890Y-50512142D01*
X96815890Y-50512142D02*
X96958747Y-50512142D01*
X96958747Y-50512142D02*
X97149223Y-50464523D01*
X97149223Y-50464523D02*
X97244461Y-50416904D01*
X97244461Y-50416904D02*
X97339700Y-50321666D01*
X97339700Y-50321666D02*
X97387319Y-50178809D01*
X97387319Y-50178809D02*
X97387319Y-49940714D01*
X96387319Y-50845476D02*
X96387319Y-51464523D01*
X96387319Y-51464523D02*
X96768271Y-51131190D01*
X96768271Y-51131190D02*
X96768271Y-51274047D01*
X96768271Y-51274047D02*
X96815890Y-51369285D01*
X96815890Y-51369285D02*
X96863509Y-51416904D01*
X96863509Y-51416904D02*
X96958747Y-51464523D01*
X96958747Y-51464523D02*
X97196842Y-51464523D01*
X97196842Y-51464523D02*
X97292080Y-51416904D01*
X97292080Y-51416904D02*
X97339700Y-51369285D01*
X97339700Y-51369285D02*
X97387319Y-51274047D01*
X97387319Y-51274047D02*
X97387319Y-50988333D01*
X97387319Y-50988333D02*
X97339700Y-50893095D01*
X97339700Y-50893095D02*
X97292080Y-50845476D01*
X96387319Y-51797857D02*
X96387319Y-52416904D01*
X96387319Y-52416904D02*
X96768271Y-52083571D01*
X96768271Y-52083571D02*
X96768271Y-52226428D01*
X96768271Y-52226428D02*
X96815890Y-52321666D01*
X96815890Y-52321666D02*
X96863509Y-52369285D01*
X96863509Y-52369285D02*
X96958747Y-52416904D01*
X96958747Y-52416904D02*
X97196842Y-52416904D01*
X97196842Y-52416904D02*
X97292080Y-52369285D01*
X97292080Y-52369285D02*
X97339700Y-52321666D01*
X97339700Y-52321666D02*
X97387319Y-52226428D01*
X97387319Y-52226428D02*
X97387319Y-51940714D01*
X97387319Y-51940714D02*
X97339700Y-51845476D01*
X97339700Y-51845476D02*
X97292080Y-51797857D01*
X111674819Y-30890714D02*
X110674819Y-30890714D01*
X110674819Y-30890714D02*
X110674819Y-31128809D01*
X110674819Y-31128809D02*
X110722438Y-31271666D01*
X110722438Y-31271666D02*
X110817676Y-31366904D01*
X110817676Y-31366904D02*
X110912914Y-31414523D01*
X110912914Y-31414523D02*
X111103390Y-31462142D01*
X111103390Y-31462142D02*
X111246247Y-31462142D01*
X111246247Y-31462142D02*
X111436723Y-31414523D01*
X111436723Y-31414523D02*
X111531961Y-31366904D01*
X111531961Y-31366904D02*
X111627200Y-31271666D01*
X111627200Y-31271666D02*
X111674819Y-31128809D01*
X111674819Y-31128809D02*
X111674819Y-30890714D01*
X110770057Y-31843095D02*
X110722438Y-31890714D01*
X110722438Y-31890714D02*
X110674819Y-31985952D01*
X110674819Y-31985952D02*
X110674819Y-32224047D01*
X110674819Y-32224047D02*
X110722438Y-32319285D01*
X110722438Y-32319285D02*
X110770057Y-32366904D01*
X110770057Y-32366904D02*
X110865295Y-32414523D01*
X110865295Y-32414523D02*
X110960533Y-32414523D01*
X110960533Y-32414523D02*
X111103390Y-32366904D01*
X111103390Y-32366904D02*
X111674819Y-31795476D01*
X111674819Y-31795476D02*
X111674819Y-32414523D01*
X110674819Y-33033571D02*
X110674819Y-33128809D01*
X110674819Y-33128809D02*
X110722438Y-33224047D01*
X110722438Y-33224047D02*
X110770057Y-33271666D01*
X110770057Y-33271666D02*
X110865295Y-33319285D01*
X110865295Y-33319285D02*
X111055771Y-33366904D01*
X111055771Y-33366904D02*
X111293866Y-33366904D01*
X111293866Y-33366904D02*
X111484342Y-33319285D01*
X111484342Y-33319285D02*
X111579580Y-33271666D01*
X111579580Y-33271666D02*
X111627200Y-33224047D01*
X111627200Y-33224047D02*
X111674819Y-33128809D01*
X111674819Y-33128809D02*
X111674819Y-33033571D01*
X111674819Y-33033571D02*
X111627200Y-32938333D01*
X111627200Y-32938333D02*
X111579580Y-32890714D01*
X111579580Y-32890714D02*
X111484342Y-32843095D01*
X111484342Y-32843095D02*
X111293866Y-32795476D01*
X111293866Y-32795476D02*
X111055771Y-32795476D01*
X111055771Y-32795476D02*
X110865295Y-32843095D01*
X110865295Y-32843095D02*
X110770057Y-32890714D01*
X110770057Y-32890714D02*
X110722438Y-32938333D01*
X110722438Y-32938333D02*
X110674819Y-33033571D01*
X101192857Y-79809580D02*
X101240476Y-79857200D01*
X101240476Y-79857200D02*
X101383333Y-79904819D01*
X101383333Y-79904819D02*
X101478571Y-79904819D01*
X101478571Y-79904819D02*
X101621428Y-79857200D01*
X101621428Y-79857200D02*
X101716666Y-79761961D01*
X101716666Y-79761961D02*
X101764285Y-79666723D01*
X101764285Y-79666723D02*
X101811904Y-79476247D01*
X101811904Y-79476247D02*
X101811904Y-79333390D01*
X101811904Y-79333390D02*
X101764285Y-79142914D01*
X101764285Y-79142914D02*
X101716666Y-79047676D01*
X101716666Y-79047676D02*
X101621428Y-78952438D01*
X101621428Y-78952438D02*
X101478571Y-78904819D01*
X101478571Y-78904819D02*
X101383333Y-78904819D01*
X101383333Y-78904819D02*
X101240476Y-78952438D01*
X101240476Y-78952438D02*
X101192857Y-79000057D01*
X100240476Y-79904819D02*
X100811904Y-79904819D01*
X100526190Y-79904819D02*
X100526190Y-78904819D01*
X100526190Y-78904819D02*
X100621428Y-79047676D01*
X100621428Y-79047676D02*
X100716666Y-79142914D01*
X100716666Y-79142914D02*
X100811904Y-79190533D01*
X99383333Y-79238152D02*
X99383333Y-79904819D01*
X99621428Y-78857200D02*
X99859523Y-79571485D01*
X99859523Y-79571485D02*
X99240476Y-79571485D01*
X92624819Y-30890714D02*
X91624819Y-30890714D01*
X91624819Y-30890714D02*
X91624819Y-31128809D01*
X91624819Y-31128809D02*
X91672438Y-31271666D01*
X91672438Y-31271666D02*
X91767676Y-31366904D01*
X91767676Y-31366904D02*
X91862914Y-31414523D01*
X91862914Y-31414523D02*
X92053390Y-31462142D01*
X92053390Y-31462142D02*
X92196247Y-31462142D01*
X92196247Y-31462142D02*
X92386723Y-31414523D01*
X92386723Y-31414523D02*
X92481961Y-31366904D01*
X92481961Y-31366904D02*
X92577200Y-31271666D01*
X92577200Y-31271666D02*
X92624819Y-31128809D01*
X92624819Y-31128809D02*
X92624819Y-30890714D01*
X92624819Y-32414523D02*
X92624819Y-31843095D01*
X92624819Y-32128809D02*
X91624819Y-32128809D01*
X91624819Y-32128809D02*
X91767676Y-32033571D01*
X91767676Y-32033571D02*
X91862914Y-31938333D01*
X91862914Y-31938333D02*
X91910533Y-31843095D01*
X92624819Y-32890714D02*
X92624819Y-33081190D01*
X92624819Y-33081190D02*
X92577200Y-33176428D01*
X92577200Y-33176428D02*
X92529580Y-33224047D01*
X92529580Y-33224047D02*
X92386723Y-33319285D01*
X92386723Y-33319285D02*
X92196247Y-33366904D01*
X92196247Y-33366904D02*
X91815295Y-33366904D01*
X91815295Y-33366904D02*
X91720057Y-33319285D01*
X91720057Y-33319285D02*
X91672438Y-33271666D01*
X91672438Y-33271666D02*
X91624819Y-33176428D01*
X91624819Y-33176428D02*
X91624819Y-32985952D01*
X91624819Y-32985952D02*
X91672438Y-32890714D01*
X91672438Y-32890714D02*
X91720057Y-32843095D01*
X91720057Y-32843095D02*
X91815295Y-32795476D01*
X91815295Y-32795476D02*
X92053390Y-32795476D01*
X92053390Y-32795476D02*
X92148628Y-32843095D01*
X92148628Y-32843095D02*
X92196247Y-32890714D01*
X92196247Y-32890714D02*
X92243866Y-32985952D01*
X92243866Y-32985952D02*
X92243866Y-33176428D01*
X92243866Y-33176428D02*
X92196247Y-33271666D01*
X92196247Y-33271666D02*
X92148628Y-33319285D01*
X92148628Y-33319285D02*
X92053390Y-33366904D01*
X78337319Y-49940714D02*
X77337319Y-49940714D01*
X77337319Y-49940714D02*
X77337319Y-50178809D01*
X77337319Y-50178809D02*
X77384938Y-50321666D01*
X77384938Y-50321666D02*
X77480176Y-50416904D01*
X77480176Y-50416904D02*
X77575414Y-50464523D01*
X77575414Y-50464523D02*
X77765890Y-50512142D01*
X77765890Y-50512142D02*
X77908747Y-50512142D01*
X77908747Y-50512142D02*
X78099223Y-50464523D01*
X78099223Y-50464523D02*
X78194461Y-50416904D01*
X78194461Y-50416904D02*
X78289700Y-50321666D01*
X78289700Y-50321666D02*
X78337319Y-50178809D01*
X78337319Y-50178809D02*
X78337319Y-49940714D01*
X77337319Y-50845476D02*
X77337319Y-51464523D01*
X77337319Y-51464523D02*
X77718271Y-51131190D01*
X77718271Y-51131190D02*
X77718271Y-51274047D01*
X77718271Y-51274047D02*
X77765890Y-51369285D01*
X77765890Y-51369285D02*
X77813509Y-51416904D01*
X77813509Y-51416904D02*
X77908747Y-51464523D01*
X77908747Y-51464523D02*
X78146842Y-51464523D01*
X78146842Y-51464523D02*
X78242080Y-51416904D01*
X78242080Y-51416904D02*
X78289700Y-51369285D01*
X78289700Y-51369285D02*
X78337319Y-51274047D01*
X78337319Y-51274047D02*
X78337319Y-50988333D01*
X78337319Y-50988333D02*
X78289700Y-50893095D01*
X78289700Y-50893095D02*
X78242080Y-50845476D01*
X77432557Y-51845476D02*
X77384938Y-51893095D01*
X77384938Y-51893095D02*
X77337319Y-51988333D01*
X77337319Y-51988333D02*
X77337319Y-52226428D01*
X77337319Y-52226428D02*
X77384938Y-52321666D01*
X77384938Y-52321666D02*
X77432557Y-52369285D01*
X77432557Y-52369285D02*
X77527795Y-52416904D01*
X77527795Y-52416904D02*
X77623033Y-52416904D01*
X77623033Y-52416904D02*
X77765890Y-52369285D01*
X77765890Y-52369285D02*
X78337319Y-51797857D01*
X78337319Y-51797857D02*
X78337319Y-52416904D01*
X245024819Y-30890714D02*
X244024819Y-30890714D01*
X244024819Y-30890714D02*
X244024819Y-31128809D01*
X244024819Y-31128809D02*
X244072438Y-31271666D01*
X244072438Y-31271666D02*
X244167676Y-31366904D01*
X244167676Y-31366904D02*
X244262914Y-31414523D01*
X244262914Y-31414523D02*
X244453390Y-31462142D01*
X244453390Y-31462142D02*
X244596247Y-31462142D01*
X244596247Y-31462142D02*
X244786723Y-31414523D01*
X244786723Y-31414523D02*
X244881961Y-31366904D01*
X244881961Y-31366904D02*
X244977200Y-31271666D01*
X244977200Y-31271666D02*
X245024819Y-31128809D01*
X245024819Y-31128809D02*
X245024819Y-30890714D01*
X244120057Y-31843095D02*
X244072438Y-31890714D01*
X244072438Y-31890714D02*
X244024819Y-31985952D01*
X244024819Y-31985952D02*
X244024819Y-32224047D01*
X244024819Y-32224047D02*
X244072438Y-32319285D01*
X244072438Y-32319285D02*
X244120057Y-32366904D01*
X244120057Y-32366904D02*
X244215295Y-32414523D01*
X244215295Y-32414523D02*
X244310533Y-32414523D01*
X244310533Y-32414523D02*
X244453390Y-32366904D01*
X244453390Y-32366904D02*
X245024819Y-31795476D01*
X245024819Y-31795476D02*
X245024819Y-32414523D01*
X244024819Y-32747857D02*
X244024819Y-33414523D01*
X244024819Y-33414523D02*
X245024819Y-32985952D01*
D11*
X115538704Y-93885714D02*
X115576800Y-93847618D01*
X115576800Y-93847618D02*
X115614895Y-93733333D01*
X115614895Y-93733333D02*
X115614895Y-93657142D01*
X115614895Y-93657142D02*
X115576800Y-93542856D01*
X115576800Y-93542856D02*
X115500609Y-93466666D01*
X115500609Y-93466666D02*
X115424419Y-93428571D01*
X115424419Y-93428571D02*
X115272038Y-93390475D01*
X115272038Y-93390475D02*
X115157752Y-93390475D01*
X115157752Y-93390475D02*
X115005371Y-93428571D01*
X115005371Y-93428571D02*
X114929180Y-93466666D01*
X114929180Y-93466666D02*
X114852990Y-93542856D01*
X114852990Y-93542856D02*
X114814895Y-93657142D01*
X114814895Y-93657142D02*
X114814895Y-93733333D01*
X114814895Y-93733333D02*
X114852990Y-93847618D01*
X114852990Y-93847618D02*
X114891085Y-93885714D01*
X115614895Y-94647618D02*
X115614895Y-94190475D01*
X115614895Y-94419047D02*
X114814895Y-94419047D01*
X114814895Y-94419047D02*
X114929180Y-94342856D01*
X114929180Y-94342856D02*
X115005371Y-94266666D01*
X115005371Y-94266666D02*
X115043466Y-94190475D01*
X115614895Y-95409523D02*
X115614895Y-94952380D01*
X115614895Y-95180952D02*
X114814895Y-95180952D01*
X114814895Y-95180952D02*
X114929180Y-95104761D01*
X114929180Y-95104761D02*
X115005371Y-95028571D01*
X115005371Y-95028571D02*
X115043466Y-94952380D01*
D10*
X11662319Y-30890714D02*
X10662319Y-30890714D01*
X10662319Y-30890714D02*
X10662319Y-31128809D01*
X10662319Y-31128809D02*
X10709938Y-31271666D01*
X10709938Y-31271666D02*
X10805176Y-31366904D01*
X10805176Y-31366904D02*
X10900414Y-31414523D01*
X10900414Y-31414523D02*
X11090890Y-31462142D01*
X11090890Y-31462142D02*
X11233747Y-31462142D01*
X11233747Y-31462142D02*
X11424223Y-31414523D01*
X11424223Y-31414523D02*
X11519461Y-31366904D01*
X11519461Y-31366904D02*
X11614700Y-31271666D01*
X11614700Y-31271666D02*
X11662319Y-31128809D01*
X11662319Y-31128809D02*
X11662319Y-30890714D01*
X11662319Y-32414523D02*
X11662319Y-31843095D01*
X11662319Y-32128809D02*
X10662319Y-32128809D01*
X10662319Y-32128809D02*
X10805176Y-32033571D01*
X10805176Y-32033571D02*
X10900414Y-31938333D01*
X10900414Y-31938333D02*
X10948033Y-31843095D01*
X10662319Y-33319285D02*
X10662319Y-32843095D01*
X10662319Y-32843095D02*
X11138509Y-32795476D01*
X11138509Y-32795476D02*
X11090890Y-32843095D01*
X11090890Y-32843095D02*
X11043271Y-32938333D01*
X11043271Y-32938333D02*
X11043271Y-33176428D01*
X11043271Y-33176428D02*
X11090890Y-33271666D01*
X11090890Y-33271666D02*
X11138509Y-33319285D01*
X11138509Y-33319285D02*
X11233747Y-33366904D01*
X11233747Y-33366904D02*
X11471842Y-33366904D01*
X11471842Y-33366904D02*
X11567080Y-33319285D01*
X11567080Y-33319285D02*
X11614700Y-33271666D01*
X11614700Y-33271666D02*
X11662319Y-33176428D01*
X11662319Y-33176428D02*
X11662319Y-32938333D01*
X11662319Y-32938333D02*
X11614700Y-32843095D01*
X11614700Y-32843095D02*
X11567080Y-32795476D01*
X49762319Y-68990714D02*
X48762319Y-68990714D01*
X48762319Y-68990714D02*
X48762319Y-69228809D01*
X48762319Y-69228809D02*
X48809938Y-69371666D01*
X48809938Y-69371666D02*
X48905176Y-69466904D01*
X48905176Y-69466904D02*
X49000414Y-69514523D01*
X49000414Y-69514523D02*
X49190890Y-69562142D01*
X49190890Y-69562142D02*
X49333747Y-69562142D01*
X49333747Y-69562142D02*
X49524223Y-69514523D01*
X49524223Y-69514523D02*
X49619461Y-69466904D01*
X49619461Y-69466904D02*
X49714700Y-69371666D01*
X49714700Y-69371666D02*
X49762319Y-69228809D01*
X49762319Y-69228809D02*
X49762319Y-68990714D01*
X49095652Y-70419285D02*
X49762319Y-70419285D01*
X48714700Y-70181190D02*
X49428985Y-69943095D01*
X49428985Y-69943095D02*
X49428985Y-70562142D01*
X48762319Y-71419285D02*
X48762319Y-70943095D01*
X48762319Y-70943095D02*
X49238509Y-70895476D01*
X49238509Y-70895476D02*
X49190890Y-70943095D01*
X49190890Y-70943095D02*
X49143271Y-71038333D01*
X49143271Y-71038333D02*
X49143271Y-71276428D01*
X49143271Y-71276428D02*
X49190890Y-71371666D01*
X49190890Y-71371666D02*
X49238509Y-71419285D01*
X49238509Y-71419285D02*
X49333747Y-71466904D01*
X49333747Y-71466904D02*
X49571842Y-71466904D01*
X49571842Y-71466904D02*
X49667080Y-71419285D01*
X49667080Y-71419285D02*
X49714700Y-71371666D01*
X49714700Y-71371666D02*
X49762319Y-71276428D01*
X49762319Y-71276428D02*
X49762319Y-71038333D01*
X49762319Y-71038333D02*
X49714700Y-70943095D01*
X49714700Y-70943095D02*
X49667080Y-70895476D01*
X102149819Y-12316905D02*
X101149819Y-12316905D01*
X101149819Y-12316905D02*
X101149819Y-12555000D01*
X101149819Y-12555000D02*
X101197438Y-12697857D01*
X101197438Y-12697857D02*
X101292676Y-12793095D01*
X101292676Y-12793095D02*
X101387914Y-12840714D01*
X101387914Y-12840714D02*
X101578390Y-12888333D01*
X101578390Y-12888333D02*
X101721247Y-12888333D01*
X101721247Y-12888333D02*
X101911723Y-12840714D01*
X101911723Y-12840714D02*
X102006961Y-12793095D01*
X102006961Y-12793095D02*
X102102200Y-12697857D01*
X102102200Y-12697857D02*
X102149819Y-12555000D01*
X102149819Y-12555000D02*
X102149819Y-12316905D01*
X101149819Y-13745476D02*
X101149819Y-13555000D01*
X101149819Y-13555000D02*
X101197438Y-13459762D01*
X101197438Y-13459762D02*
X101245057Y-13412143D01*
X101245057Y-13412143D02*
X101387914Y-13316905D01*
X101387914Y-13316905D02*
X101578390Y-13269286D01*
X101578390Y-13269286D02*
X101959342Y-13269286D01*
X101959342Y-13269286D02*
X102054580Y-13316905D01*
X102054580Y-13316905D02*
X102102200Y-13364524D01*
X102102200Y-13364524D02*
X102149819Y-13459762D01*
X102149819Y-13459762D02*
X102149819Y-13650238D01*
X102149819Y-13650238D02*
X102102200Y-13745476D01*
X102102200Y-13745476D02*
X102054580Y-13793095D01*
X102054580Y-13793095D02*
X101959342Y-13840714D01*
X101959342Y-13840714D02*
X101721247Y-13840714D01*
X101721247Y-13840714D02*
X101626009Y-13793095D01*
X101626009Y-13793095D02*
X101578390Y-13745476D01*
X101578390Y-13745476D02*
X101530771Y-13650238D01*
X101530771Y-13650238D02*
X101530771Y-13459762D01*
X101530771Y-13459762D02*
X101578390Y-13364524D01*
X101578390Y-13364524D02*
X101626009Y-13316905D01*
X101626009Y-13316905D02*
X101721247Y-13269286D01*
X21254819Y-11333333D02*
X20778628Y-11000000D01*
X21254819Y-10761905D02*
X20254819Y-10761905D01*
X20254819Y-10761905D02*
X20254819Y-11142857D01*
X20254819Y-11142857D02*
X20302438Y-11238095D01*
X20302438Y-11238095D02*
X20350057Y-11285714D01*
X20350057Y-11285714D02*
X20445295Y-11333333D01*
X20445295Y-11333333D02*
X20588152Y-11333333D01*
X20588152Y-11333333D02*
X20683390Y-11285714D01*
X20683390Y-11285714D02*
X20731009Y-11238095D01*
X20731009Y-11238095D02*
X20778628Y-11142857D01*
X20778628Y-11142857D02*
X20778628Y-10761905D01*
X20254819Y-11666667D02*
X20254819Y-12333333D01*
X20254819Y-12333333D02*
X21254819Y-11904762D01*
X59287319Y-88040714D02*
X58287319Y-88040714D01*
X58287319Y-88040714D02*
X58287319Y-88278809D01*
X58287319Y-88278809D02*
X58334938Y-88421666D01*
X58334938Y-88421666D02*
X58430176Y-88516904D01*
X58430176Y-88516904D02*
X58525414Y-88564523D01*
X58525414Y-88564523D02*
X58715890Y-88612142D01*
X58715890Y-88612142D02*
X58858747Y-88612142D01*
X58858747Y-88612142D02*
X59049223Y-88564523D01*
X59049223Y-88564523D02*
X59144461Y-88516904D01*
X59144461Y-88516904D02*
X59239700Y-88421666D01*
X59239700Y-88421666D02*
X59287319Y-88278809D01*
X59287319Y-88278809D02*
X59287319Y-88040714D01*
X58287319Y-89516904D02*
X58287319Y-89040714D01*
X58287319Y-89040714D02*
X58763509Y-88993095D01*
X58763509Y-88993095D02*
X58715890Y-89040714D01*
X58715890Y-89040714D02*
X58668271Y-89135952D01*
X58668271Y-89135952D02*
X58668271Y-89374047D01*
X58668271Y-89374047D02*
X58715890Y-89469285D01*
X58715890Y-89469285D02*
X58763509Y-89516904D01*
X58763509Y-89516904D02*
X58858747Y-89564523D01*
X58858747Y-89564523D02*
X59096842Y-89564523D01*
X59096842Y-89564523D02*
X59192080Y-89516904D01*
X59192080Y-89516904D02*
X59239700Y-89469285D01*
X59239700Y-89469285D02*
X59287319Y-89374047D01*
X59287319Y-89374047D02*
X59287319Y-89135952D01*
X59287319Y-89135952D02*
X59239700Y-89040714D01*
X59239700Y-89040714D02*
X59192080Y-88993095D01*
X59287319Y-90040714D02*
X59287319Y-90231190D01*
X59287319Y-90231190D02*
X59239700Y-90326428D01*
X59239700Y-90326428D02*
X59192080Y-90374047D01*
X59192080Y-90374047D02*
X59049223Y-90469285D01*
X59049223Y-90469285D02*
X58858747Y-90516904D01*
X58858747Y-90516904D02*
X58477795Y-90516904D01*
X58477795Y-90516904D02*
X58382557Y-90469285D01*
X58382557Y-90469285D02*
X58334938Y-90421666D01*
X58334938Y-90421666D02*
X58287319Y-90326428D01*
X58287319Y-90326428D02*
X58287319Y-90135952D01*
X58287319Y-90135952D02*
X58334938Y-90040714D01*
X58334938Y-90040714D02*
X58382557Y-89993095D01*
X58382557Y-89993095D02*
X58477795Y-89945476D01*
X58477795Y-89945476D02*
X58715890Y-89945476D01*
X58715890Y-89945476D02*
X58811128Y-89993095D01*
X58811128Y-89993095D02*
X58858747Y-90040714D01*
X58858747Y-90040714D02*
X58906366Y-90135952D01*
X58906366Y-90135952D02*
X58906366Y-90326428D01*
X58906366Y-90326428D02*
X58858747Y-90421666D01*
X58858747Y-90421666D02*
X58811128Y-90469285D01*
X58811128Y-90469285D02*
X58715890Y-90516904D01*
X135487319Y-49940714D02*
X134487319Y-49940714D01*
X134487319Y-49940714D02*
X134487319Y-50178809D01*
X134487319Y-50178809D02*
X134534938Y-50321666D01*
X134534938Y-50321666D02*
X134630176Y-50416904D01*
X134630176Y-50416904D02*
X134725414Y-50464523D01*
X134725414Y-50464523D02*
X134915890Y-50512142D01*
X134915890Y-50512142D02*
X135058747Y-50512142D01*
X135058747Y-50512142D02*
X135249223Y-50464523D01*
X135249223Y-50464523D02*
X135344461Y-50416904D01*
X135344461Y-50416904D02*
X135439700Y-50321666D01*
X135439700Y-50321666D02*
X135487319Y-50178809D01*
X135487319Y-50178809D02*
X135487319Y-49940714D01*
X134487319Y-50845476D02*
X134487319Y-51464523D01*
X134487319Y-51464523D02*
X134868271Y-51131190D01*
X134868271Y-51131190D02*
X134868271Y-51274047D01*
X134868271Y-51274047D02*
X134915890Y-51369285D01*
X134915890Y-51369285D02*
X134963509Y-51416904D01*
X134963509Y-51416904D02*
X135058747Y-51464523D01*
X135058747Y-51464523D02*
X135296842Y-51464523D01*
X135296842Y-51464523D02*
X135392080Y-51416904D01*
X135392080Y-51416904D02*
X135439700Y-51369285D01*
X135439700Y-51369285D02*
X135487319Y-51274047D01*
X135487319Y-51274047D02*
X135487319Y-50988333D01*
X135487319Y-50988333D02*
X135439700Y-50893095D01*
X135439700Y-50893095D02*
X135392080Y-50845476D01*
X134487319Y-52369285D02*
X134487319Y-51893095D01*
X134487319Y-51893095D02*
X134963509Y-51845476D01*
X134963509Y-51845476D02*
X134915890Y-51893095D01*
X134915890Y-51893095D02*
X134868271Y-51988333D01*
X134868271Y-51988333D02*
X134868271Y-52226428D01*
X134868271Y-52226428D02*
X134915890Y-52321666D01*
X134915890Y-52321666D02*
X134963509Y-52369285D01*
X134963509Y-52369285D02*
X135058747Y-52416904D01*
X135058747Y-52416904D02*
X135296842Y-52416904D01*
X135296842Y-52416904D02*
X135392080Y-52369285D01*
X135392080Y-52369285D02*
X135439700Y-52321666D01*
X135439700Y-52321666D02*
X135487319Y-52226428D01*
X135487319Y-52226428D02*
X135487319Y-51988333D01*
X135487319Y-51988333D02*
X135439700Y-51893095D01*
X135439700Y-51893095D02*
X135392080Y-51845476D01*
X44999819Y-12316905D02*
X43999819Y-12316905D01*
X43999819Y-12316905D02*
X43999819Y-12555000D01*
X43999819Y-12555000D02*
X44047438Y-12697857D01*
X44047438Y-12697857D02*
X44142676Y-12793095D01*
X44142676Y-12793095D02*
X44237914Y-12840714D01*
X44237914Y-12840714D02*
X44428390Y-12888333D01*
X44428390Y-12888333D02*
X44571247Y-12888333D01*
X44571247Y-12888333D02*
X44761723Y-12840714D01*
X44761723Y-12840714D02*
X44856961Y-12793095D01*
X44856961Y-12793095D02*
X44952200Y-12697857D01*
X44952200Y-12697857D02*
X44999819Y-12555000D01*
X44999819Y-12555000D02*
X44999819Y-12316905D01*
X43999819Y-13221667D02*
X43999819Y-13840714D01*
X43999819Y-13840714D02*
X44380771Y-13507381D01*
X44380771Y-13507381D02*
X44380771Y-13650238D01*
X44380771Y-13650238D02*
X44428390Y-13745476D01*
X44428390Y-13745476D02*
X44476009Y-13793095D01*
X44476009Y-13793095D02*
X44571247Y-13840714D01*
X44571247Y-13840714D02*
X44809342Y-13840714D01*
X44809342Y-13840714D02*
X44904580Y-13793095D01*
X44904580Y-13793095D02*
X44952200Y-13745476D01*
X44952200Y-13745476D02*
X44999819Y-13650238D01*
X44999819Y-13650238D02*
X44999819Y-13364524D01*
X44999819Y-13364524D02*
X44952200Y-13269286D01*
X44952200Y-13269286D02*
X44904580Y-13221667D01*
X159299819Y-12316905D02*
X158299819Y-12316905D01*
X158299819Y-12316905D02*
X158299819Y-12555000D01*
X158299819Y-12555000D02*
X158347438Y-12697857D01*
X158347438Y-12697857D02*
X158442676Y-12793095D01*
X158442676Y-12793095D02*
X158537914Y-12840714D01*
X158537914Y-12840714D02*
X158728390Y-12888333D01*
X158728390Y-12888333D02*
X158871247Y-12888333D01*
X158871247Y-12888333D02*
X159061723Y-12840714D01*
X159061723Y-12840714D02*
X159156961Y-12793095D01*
X159156961Y-12793095D02*
X159252200Y-12697857D01*
X159252200Y-12697857D02*
X159299819Y-12555000D01*
X159299819Y-12555000D02*
X159299819Y-12316905D01*
X159299819Y-13364524D02*
X159299819Y-13555000D01*
X159299819Y-13555000D02*
X159252200Y-13650238D01*
X159252200Y-13650238D02*
X159204580Y-13697857D01*
X159204580Y-13697857D02*
X159061723Y-13793095D01*
X159061723Y-13793095D02*
X158871247Y-13840714D01*
X158871247Y-13840714D02*
X158490295Y-13840714D01*
X158490295Y-13840714D02*
X158395057Y-13793095D01*
X158395057Y-13793095D02*
X158347438Y-13745476D01*
X158347438Y-13745476D02*
X158299819Y-13650238D01*
X158299819Y-13650238D02*
X158299819Y-13459762D01*
X158299819Y-13459762D02*
X158347438Y-13364524D01*
X158347438Y-13364524D02*
X158395057Y-13316905D01*
X158395057Y-13316905D02*
X158490295Y-13269286D01*
X158490295Y-13269286D02*
X158728390Y-13269286D01*
X158728390Y-13269286D02*
X158823628Y-13316905D01*
X158823628Y-13316905D02*
X158871247Y-13364524D01*
X158871247Y-13364524D02*
X158918866Y-13459762D01*
X158918866Y-13459762D02*
X158918866Y-13650238D01*
X158918866Y-13650238D02*
X158871247Y-13745476D01*
X158871247Y-13745476D02*
X158823628Y-13793095D01*
X158823628Y-13793095D02*
X158728390Y-13840714D01*
X118132080Y-81507142D02*
X118179700Y-81459523D01*
X118179700Y-81459523D02*
X118227319Y-81316666D01*
X118227319Y-81316666D02*
X118227319Y-81221428D01*
X118227319Y-81221428D02*
X118179700Y-81078571D01*
X118179700Y-81078571D02*
X118084461Y-80983333D01*
X118084461Y-80983333D02*
X117989223Y-80935714D01*
X117989223Y-80935714D02*
X117798747Y-80888095D01*
X117798747Y-80888095D02*
X117655890Y-80888095D01*
X117655890Y-80888095D02*
X117465414Y-80935714D01*
X117465414Y-80935714D02*
X117370176Y-80983333D01*
X117370176Y-80983333D02*
X117274938Y-81078571D01*
X117274938Y-81078571D02*
X117227319Y-81221428D01*
X117227319Y-81221428D02*
X117227319Y-81316666D01*
X117227319Y-81316666D02*
X117274938Y-81459523D01*
X117274938Y-81459523D02*
X117322557Y-81507142D01*
X118227319Y-82459523D02*
X118227319Y-81888095D01*
X118227319Y-82173809D02*
X117227319Y-82173809D01*
X117227319Y-82173809D02*
X117370176Y-82078571D01*
X117370176Y-82078571D02*
X117465414Y-81983333D01*
X117465414Y-81983333D02*
X117513033Y-81888095D01*
X117322557Y-82840476D02*
X117274938Y-82888095D01*
X117274938Y-82888095D02*
X117227319Y-82983333D01*
X117227319Y-82983333D02*
X117227319Y-83221428D01*
X117227319Y-83221428D02*
X117274938Y-83316666D01*
X117274938Y-83316666D02*
X117322557Y-83364285D01*
X117322557Y-83364285D02*
X117417795Y-83411904D01*
X117417795Y-83411904D02*
X117513033Y-83411904D01*
X117513033Y-83411904D02*
X117655890Y-83364285D01*
X117655890Y-83364285D02*
X118227319Y-82792857D01*
X118227319Y-82792857D02*
X118227319Y-83411904D01*
X211687319Y-49940714D02*
X210687319Y-49940714D01*
X210687319Y-49940714D02*
X210687319Y-50178809D01*
X210687319Y-50178809D02*
X210734938Y-50321666D01*
X210734938Y-50321666D02*
X210830176Y-50416904D01*
X210830176Y-50416904D02*
X210925414Y-50464523D01*
X210925414Y-50464523D02*
X211115890Y-50512142D01*
X211115890Y-50512142D02*
X211258747Y-50512142D01*
X211258747Y-50512142D02*
X211449223Y-50464523D01*
X211449223Y-50464523D02*
X211544461Y-50416904D01*
X211544461Y-50416904D02*
X211639700Y-50321666D01*
X211639700Y-50321666D02*
X211687319Y-50178809D01*
X211687319Y-50178809D02*
X211687319Y-49940714D01*
X210687319Y-50845476D02*
X210687319Y-51464523D01*
X210687319Y-51464523D02*
X211068271Y-51131190D01*
X211068271Y-51131190D02*
X211068271Y-51274047D01*
X211068271Y-51274047D02*
X211115890Y-51369285D01*
X211115890Y-51369285D02*
X211163509Y-51416904D01*
X211163509Y-51416904D02*
X211258747Y-51464523D01*
X211258747Y-51464523D02*
X211496842Y-51464523D01*
X211496842Y-51464523D02*
X211592080Y-51416904D01*
X211592080Y-51416904D02*
X211639700Y-51369285D01*
X211639700Y-51369285D02*
X211687319Y-51274047D01*
X211687319Y-51274047D02*
X211687319Y-50988333D01*
X211687319Y-50988333D02*
X211639700Y-50893095D01*
X211639700Y-50893095D02*
X211592080Y-50845476D01*
X211687319Y-51940714D02*
X211687319Y-52131190D01*
X211687319Y-52131190D02*
X211639700Y-52226428D01*
X211639700Y-52226428D02*
X211592080Y-52274047D01*
X211592080Y-52274047D02*
X211449223Y-52369285D01*
X211449223Y-52369285D02*
X211258747Y-52416904D01*
X211258747Y-52416904D02*
X210877795Y-52416904D01*
X210877795Y-52416904D02*
X210782557Y-52369285D01*
X210782557Y-52369285D02*
X210734938Y-52321666D01*
X210734938Y-52321666D02*
X210687319Y-52226428D01*
X210687319Y-52226428D02*
X210687319Y-52035952D01*
X210687319Y-52035952D02*
X210734938Y-51940714D01*
X210734938Y-51940714D02*
X210782557Y-51893095D01*
X210782557Y-51893095D02*
X210877795Y-51845476D01*
X210877795Y-51845476D02*
X211115890Y-51845476D01*
X211115890Y-51845476D02*
X211211128Y-51893095D01*
X211211128Y-51893095D02*
X211258747Y-51940714D01*
X211258747Y-51940714D02*
X211306366Y-52035952D01*
X211306366Y-52035952D02*
X211306366Y-52226428D01*
X211306366Y-52226428D02*
X211258747Y-52321666D01*
X211258747Y-52321666D02*
X211211128Y-52369285D01*
X211211128Y-52369285D02*
X211115890Y-52416904D01*
X133669580Y-87133333D02*
X133717200Y-87085714D01*
X133717200Y-87085714D02*
X133764819Y-86942857D01*
X133764819Y-86942857D02*
X133764819Y-86847619D01*
X133764819Y-86847619D02*
X133717200Y-86704762D01*
X133717200Y-86704762D02*
X133621961Y-86609524D01*
X133621961Y-86609524D02*
X133526723Y-86561905D01*
X133526723Y-86561905D02*
X133336247Y-86514286D01*
X133336247Y-86514286D02*
X133193390Y-86514286D01*
X133193390Y-86514286D02*
X133002914Y-86561905D01*
X133002914Y-86561905D02*
X132907676Y-86609524D01*
X132907676Y-86609524D02*
X132812438Y-86704762D01*
X132812438Y-86704762D02*
X132764819Y-86847619D01*
X132764819Y-86847619D02*
X132764819Y-86942857D01*
X132764819Y-86942857D02*
X132812438Y-87085714D01*
X132812438Y-87085714D02*
X132860057Y-87133333D01*
X132764819Y-87466667D02*
X132764819Y-88085714D01*
X132764819Y-88085714D02*
X133145771Y-87752381D01*
X133145771Y-87752381D02*
X133145771Y-87895238D01*
X133145771Y-87895238D02*
X133193390Y-87990476D01*
X133193390Y-87990476D02*
X133241009Y-88038095D01*
X133241009Y-88038095D02*
X133336247Y-88085714D01*
X133336247Y-88085714D02*
X133574342Y-88085714D01*
X133574342Y-88085714D02*
X133669580Y-88038095D01*
X133669580Y-88038095D02*
X133717200Y-87990476D01*
X133717200Y-87990476D02*
X133764819Y-87895238D01*
X133764819Y-87895238D02*
X133764819Y-87609524D01*
X133764819Y-87609524D02*
X133717200Y-87514286D01*
X133717200Y-87514286D02*
X133669580Y-87466667D01*
X95472080Y-87403333D02*
X95519700Y-87355714D01*
X95519700Y-87355714D02*
X95567319Y-87212857D01*
X95567319Y-87212857D02*
X95567319Y-87117619D01*
X95567319Y-87117619D02*
X95519700Y-86974762D01*
X95519700Y-86974762D02*
X95424461Y-86879524D01*
X95424461Y-86879524D02*
X95329223Y-86831905D01*
X95329223Y-86831905D02*
X95138747Y-86784286D01*
X95138747Y-86784286D02*
X94995890Y-86784286D01*
X94995890Y-86784286D02*
X94805414Y-86831905D01*
X94805414Y-86831905D02*
X94710176Y-86879524D01*
X94710176Y-86879524D02*
X94614938Y-86974762D01*
X94614938Y-86974762D02*
X94567319Y-87117619D01*
X94567319Y-87117619D02*
X94567319Y-87212857D01*
X94567319Y-87212857D02*
X94614938Y-87355714D01*
X94614938Y-87355714D02*
X94662557Y-87403333D01*
X94900652Y-88260476D02*
X95567319Y-88260476D01*
X94519700Y-88022381D02*
X95233985Y-87784286D01*
X95233985Y-87784286D02*
X95233985Y-88403333D01*
D11*
X120876785Y-93688704D02*
X120914881Y-93726800D01*
X120914881Y-93726800D02*
X121029166Y-93764895D01*
X121029166Y-93764895D02*
X121105357Y-93764895D01*
X121105357Y-93764895D02*
X121219643Y-93726800D01*
X121219643Y-93726800D02*
X121295833Y-93650609D01*
X121295833Y-93650609D02*
X121333928Y-93574419D01*
X121333928Y-93574419D02*
X121372024Y-93422038D01*
X121372024Y-93422038D02*
X121372024Y-93307752D01*
X121372024Y-93307752D02*
X121333928Y-93155371D01*
X121333928Y-93155371D02*
X121295833Y-93079180D01*
X121295833Y-93079180D02*
X121219643Y-93002990D01*
X121219643Y-93002990D02*
X121105357Y-92964895D01*
X121105357Y-92964895D02*
X121029166Y-92964895D01*
X121029166Y-92964895D02*
X120914881Y-93002990D01*
X120914881Y-93002990D02*
X120876785Y-93041085D01*
X120114881Y-93764895D02*
X120572024Y-93764895D01*
X120343452Y-93764895D02*
X120343452Y-92964895D01*
X120343452Y-92964895D02*
X120419643Y-93079180D01*
X120419643Y-93079180D02*
X120495833Y-93155371D01*
X120495833Y-93155371D02*
X120572024Y-93193466D01*
X119429166Y-92964895D02*
X119581547Y-92964895D01*
X119581547Y-92964895D02*
X119657738Y-93002990D01*
X119657738Y-93002990D02*
X119695833Y-93041085D01*
X119695833Y-93041085D02*
X119772023Y-93155371D01*
X119772023Y-93155371D02*
X119810119Y-93307752D01*
X119810119Y-93307752D02*
X119810119Y-93612514D01*
X119810119Y-93612514D02*
X119772023Y-93688704D01*
X119772023Y-93688704D02*
X119733928Y-93726800D01*
X119733928Y-93726800D02*
X119657738Y-93764895D01*
X119657738Y-93764895D02*
X119505357Y-93764895D01*
X119505357Y-93764895D02*
X119429166Y-93726800D01*
X119429166Y-93726800D02*
X119391071Y-93688704D01*
X119391071Y-93688704D02*
X119352976Y-93612514D01*
X119352976Y-93612514D02*
X119352976Y-93422038D01*
X119352976Y-93422038D02*
X119391071Y-93345847D01*
X119391071Y-93345847D02*
X119429166Y-93307752D01*
X119429166Y-93307752D02*
X119505357Y-93269657D01*
X119505357Y-93269657D02*
X119657738Y-93269657D01*
X119657738Y-93269657D02*
X119733928Y-93307752D01*
X119733928Y-93307752D02*
X119772023Y-93345847D01*
X119772023Y-93345847D02*
X119810119Y-93422038D01*
D10*
X106912319Y-68990714D02*
X105912319Y-68990714D01*
X105912319Y-68990714D02*
X105912319Y-69228809D01*
X105912319Y-69228809D02*
X105959938Y-69371666D01*
X105959938Y-69371666D02*
X106055176Y-69466904D01*
X106055176Y-69466904D02*
X106150414Y-69514523D01*
X106150414Y-69514523D02*
X106340890Y-69562142D01*
X106340890Y-69562142D02*
X106483747Y-69562142D01*
X106483747Y-69562142D02*
X106674223Y-69514523D01*
X106674223Y-69514523D02*
X106769461Y-69466904D01*
X106769461Y-69466904D02*
X106864700Y-69371666D01*
X106864700Y-69371666D02*
X106912319Y-69228809D01*
X106912319Y-69228809D02*
X106912319Y-68990714D01*
X106245652Y-70419285D02*
X106912319Y-70419285D01*
X105864700Y-70181190D02*
X106578985Y-69943095D01*
X106578985Y-69943095D02*
X106578985Y-70562142D01*
X106340890Y-71085952D02*
X106293271Y-70990714D01*
X106293271Y-70990714D02*
X106245652Y-70943095D01*
X106245652Y-70943095D02*
X106150414Y-70895476D01*
X106150414Y-70895476D02*
X106102795Y-70895476D01*
X106102795Y-70895476D02*
X106007557Y-70943095D01*
X106007557Y-70943095D02*
X105959938Y-70990714D01*
X105959938Y-70990714D02*
X105912319Y-71085952D01*
X105912319Y-71085952D02*
X105912319Y-71276428D01*
X105912319Y-71276428D02*
X105959938Y-71371666D01*
X105959938Y-71371666D02*
X106007557Y-71419285D01*
X106007557Y-71419285D02*
X106102795Y-71466904D01*
X106102795Y-71466904D02*
X106150414Y-71466904D01*
X106150414Y-71466904D02*
X106245652Y-71419285D01*
X106245652Y-71419285D02*
X106293271Y-71371666D01*
X106293271Y-71371666D02*
X106340890Y-71276428D01*
X106340890Y-71276428D02*
X106340890Y-71085952D01*
X106340890Y-71085952D02*
X106388509Y-70990714D01*
X106388509Y-70990714D02*
X106436128Y-70943095D01*
X106436128Y-70943095D02*
X106531366Y-70895476D01*
X106531366Y-70895476D02*
X106721842Y-70895476D01*
X106721842Y-70895476D02*
X106817080Y-70943095D01*
X106817080Y-70943095D02*
X106864700Y-70990714D01*
X106864700Y-70990714D02*
X106912319Y-71085952D01*
X106912319Y-71085952D02*
X106912319Y-71276428D01*
X106912319Y-71276428D02*
X106864700Y-71371666D01*
X106864700Y-71371666D02*
X106817080Y-71419285D01*
X106817080Y-71419285D02*
X106721842Y-71466904D01*
X106721842Y-71466904D02*
X106531366Y-71466904D01*
X106531366Y-71466904D02*
X106436128Y-71419285D01*
X106436128Y-71419285D02*
X106388509Y-71371666D01*
X106388509Y-71371666D02*
X106340890Y-71276428D01*
X59287319Y-49940714D02*
X58287319Y-49940714D01*
X58287319Y-49940714D02*
X58287319Y-50178809D01*
X58287319Y-50178809D02*
X58334938Y-50321666D01*
X58334938Y-50321666D02*
X58430176Y-50416904D01*
X58430176Y-50416904D02*
X58525414Y-50464523D01*
X58525414Y-50464523D02*
X58715890Y-50512142D01*
X58715890Y-50512142D02*
X58858747Y-50512142D01*
X58858747Y-50512142D02*
X59049223Y-50464523D01*
X59049223Y-50464523D02*
X59144461Y-50416904D01*
X59144461Y-50416904D02*
X59239700Y-50321666D01*
X59239700Y-50321666D02*
X59287319Y-50178809D01*
X59287319Y-50178809D02*
X59287319Y-49940714D01*
X58287319Y-50845476D02*
X58287319Y-51464523D01*
X58287319Y-51464523D02*
X58668271Y-51131190D01*
X58668271Y-51131190D02*
X58668271Y-51274047D01*
X58668271Y-51274047D02*
X58715890Y-51369285D01*
X58715890Y-51369285D02*
X58763509Y-51416904D01*
X58763509Y-51416904D02*
X58858747Y-51464523D01*
X58858747Y-51464523D02*
X59096842Y-51464523D01*
X59096842Y-51464523D02*
X59192080Y-51416904D01*
X59192080Y-51416904D02*
X59239700Y-51369285D01*
X59239700Y-51369285D02*
X59287319Y-51274047D01*
X59287319Y-51274047D02*
X59287319Y-50988333D01*
X59287319Y-50988333D02*
X59239700Y-50893095D01*
X59239700Y-50893095D02*
X59192080Y-50845476D01*
X59287319Y-52416904D02*
X59287319Y-51845476D01*
X59287319Y-52131190D02*
X58287319Y-52131190D01*
X58287319Y-52131190D02*
X58430176Y-52035952D01*
X58430176Y-52035952D02*
X58525414Y-51940714D01*
X58525414Y-51940714D02*
X58573033Y-51845476D01*
X83099819Y-12316905D02*
X82099819Y-12316905D01*
X82099819Y-12316905D02*
X82099819Y-12555000D01*
X82099819Y-12555000D02*
X82147438Y-12697857D01*
X82147438Y-12697857D02*
X82242676Y-12793095D01*
X82242676Y-12793095D02*
X82337914Y-12840714D01*
X82337914Y-12840714D02*
X82528390Y-12888333D01*
X82528390Y-12888333D02*
X82671247Y-12888333D01*
X82671247Y-12888333D02*
X82861723Y-12840714D01*
X82861723Y-12840714D02*
X82956961Y-12793095D01*
X82956961Y-12793095D02*
X83052200Y-12697857D01*
X83052200Y-12697857D02*
X83099819Y-12555000D01*
X83099819Y-12555000D02*
X83099819Y-12316905D01*
X82099819Y-13793095D02*
X82099819Y-13316905D01*
X82099819Y-13316905D02*
X82576009Y-13269286D01*
X82576009Y-13269286D02*
X82528390Y-13316905D01*
X82528390Y-13316905D02*
X82480771Y-13412143D01*
X82480771Y-13412143D02*
X82480771Y-13650238D01*
X82480771Y-13650238D02*
X82528390Y-13745476D01*
X82528390Y-13745476D02*
X82576009Y-13793095D01*
X82576009Y-13793095D02*
X82671247Y-13840714D01*
X82671247Y-13840714D02*
X82909342Y-13840714D01*
X82909342Y-13840714D02*
X83004580Y-13793095D01*
X83004580Y-13793095D02*
X83052200Y-13745476D01*
X83052200Y-13745476D02*
X83099819Y-13650238D01*
X83099819Y-13650238D02*
X83099819Y-13412143D01*
X83099819Y-13412143D02*
X83052200Y-13316905D01*
X83052200Y-13316905D02*
X83004580Y-13269286D01*
X140249819Y-12316905D02*
X139249819Y-12316905D01*
X139249819Y-12316905D02*
X139249819Y-12555000D01*
X139249819Y-12555000D02*
X139297438Y-12697857D01*
X139297438Y-12697857D02*
X139392676Y-12793095D01*
X139392676Y-12793095D02*
X139487914Y-12840714D01*
X139487914Y-12840714D02*
X139678390Y-12888333D01*
X139678390Y-12888333D02*
X139821247Y-12888333D01*
X139821247Y-12888333D02*
X140011723Y-12840714D01*
X140011723Y-12840714D02*
X140106961Y-12793095D01*
X140106961Y-12793095D02*
X140202200Y-12697857D01*
X140202200Y-12697857D02*
X140249819Y-12555000D01*
X140249819Y-12555000D02*
X140249819Y-12316905D01*
X139678390Y-13459762D02*
X139630771Y-13364524D01*
X139630771Y-13364524D02*
X139583152Y-13316905D01*
X139583152Y-13316905D02*
X139487914Y-13269286D01*
X139487914Y-13269286D02*
X139440295Y-13269286D01*
X139440295Y-13269286D02*
X139345057Y-13316905D01*
X139345057Y-13316905D02*
X139297438Y-13364524D01*
X139297438Y-13364524D02*
X139249819Y-13459762D01*
X139249819Y-13459762D02*
X139249819Y-13650238D01*
X139249819Y-13650238D02*
X139297438Y-13745476D01*
X139297438Y-13745476D02*
X139345057Y-13793095D01*
X139345057Y-13793095D02*
X139440295Y-13840714D01*
X139440295Y-13840714D02*
X139487914Y-13840714D01*
X139487914Y-13840714D02*
X139583152Y-13793095D01*
X139583152Y-13793095D02*
X139630771Y-13745476D01*
X139630771Y-13745476D02*
X139678390Y-13650238D01*
X139678390Y-13650238D02*
X139678390Y-13459762D01*
X139678390Y-13459762D02*
X139726009Y-13364524D01*
X139726009Y-13364524D02*
X139773628Y-13316905D01*
X139773628Y-13316905D02*
X139868866Y-13269286D01*
X139868866Y-13269286D02*
X140059342Y-13269286D01*
X140059342Y-13269286D02*
X140154580Y-13316905D01*
X140154580Y-13316905D02*
X140202200Y-13364524D01*
X140202200Y-13364524D02*
X140249819Y-13459762D01*
X140249819Y-13459762D02*
X140249819Y-13650238D01*
X140249819Y-13650238D02*
X140202200Y-13745476D01*
X140202200Y-13745476D02*
X140154580Y-13793095D01*
X140154580Y-13793095D02*
X140059342Y-13840714D01*
X140059342Y-13840714D02*
X139868866Y-13840714D01*
X139868866Y-13840714D02*
X139773628Y-13793095D01*
X139773628Y-13793095D02*
X139726009Y-13745476D01*
X139726009Y-13745476D02*
X139678390Y-13650238D01*
X25166666Y-1545180D02*
X25166666Y-830895D01*
X25166666Y-830895D02*
X25119047Y-688038D01*
X25119047Y-688038D02*
X25023809Y-592800D01*
X25023809Y-592800D02*
X24880952Y-545180D01*
X24880952Y-545180D02*
X24785714Y-545180D01*
X26166666Y-545180D02*
X25595238Y-545180D01*
X25880952Y-545180D02*
X25880952Y-1545180D01*
X25880952Y-1545180D02*
X25785714Y-1402323D01*
X25785714Y-1402323D02*
X25690476Y-1307085D01*
X25690476Y-1307085D02*
X25595238Y-1259466D01*
X110755357Y-87099580D02*
X110802976Y-87147200D01*
X110802976Y-87147200D02*
X110945833Y-87194819D01*
X110945833Y-87194819D02*
X111041071Y-87194819D01*
X111041071Y-87194819D02*
X111183928Y-87147200D01*
X111183928Y-87147200D02*
X111279166Y-87051961D01*
X111279166Y-87051961D02*
X111326785Y-86956723D01*
X111326785Y-86956723D02*
X111374404Y-86766247D01*
X111374404Y-86766247D02*
X111374404Y-86623390D01*
X111374404Y-86623390D02*
X111326785Y-86432914D01*
X111326785Y-86432914D02*
X111279166Y-86337676D01*
X111279166Y-86337676D02*
X111183928Y-86242438D01*
X111183928Y-86242438D02*
X111041071Y-86194819D01*
X111041071Y-86194819D02*
X110945833Y-86194819D01*
X110945833Y-86194819D02*
X110802976Y-86242438D01*
X110802976Y-86242438D02*
X110755357Y-86290057D01*
X109802976Y-87194819D02*
X110374404Y-87194819D01*
X110088690Y-87194819D02*
X110088690Y-86194819D01*
X110088690Y-86194819D02*
X110183928Y-86337676D01*
X110183928Y-86337676D02*
X110279166Y-86432914D01*
X110279166Y-86432914D02*
X110374404Y-86480533D01*
X108898214Y-86194819D02*
X109374404Y-86194819D01*
X109374404Y-86194819D02*
X109422023Y-86671009D01*
X109422023Y-86671009D02*
X109374404Y-86623390D01*
X109374404Y-86623390D02*
X109279166Y-86575771D01*
X109279166Y-86575771D02*
X109041071Y-86575771D01*
X109041071Y-86575771D02*
X108945833Y-86623390D01*
X108945833Y-86623390D02*
X108898214Y-86671009D01*
X108898214Y-86671009D02*
X108850595Y-86766247D01*
X108850595Y-86766247D02*
X108850595Y-87004342D01*
X108850595Y-87004342D02*
X108898214Y-87099580D01*
X108898214Y-87099580D02*
X108945833Y-87147200D01*
X108945833Y-87147200D02*
X109041071Y-87194819D01*
X109041071Y-87194819D02*
X109279166Y-87194819D01*
X109279166Y-87194819D02*
X109374404Y-87147200D01*
X109374404Y-87147200D02*
X109422023Y-87099580D01*
X197399819Y-11840714D02*
X196399819Y-11840714D01*
X196399819Y-11840714D02*
X196399819Y-12078809D01*
X196399819Y-12078809D02*
X196447438Y-12221666D01*
X196447438Y-12221666D02*
X196542676Y-12316904D01*
X196542676Y-12316904D02*
X196637914Y-12364523D01*
X196637914Y-12364523D02*
X196828390Y-12412142D01*
X196828390Y-12412142D02*
X196971247Y-12412142D01*
X196971247Y-12412142D02*
X197161723Y-12364523D01*
X197161723Y-12364523D02*
X197256961Y-12316904D01*
X197256961Y-12316904D02*
X197352200Y-12221666D01*
X197352200Y-12221666D02*
X197399819Y-12078809D01*
X197399819Y-12078809D02*
X197399819Y-11840714D01*
X197399819Y-13364523D02*
X197399819Y-12793095D01*
X197399819Y-13078809D02*
X196399819Y-13078809D01*
X196399819Y-13078809D02*
X196542676Y-12983571D01*
X196542676Y-12983571D02*
X196637914Y-12888333D01*
X196637914Y-12888333D02*
X196685533Y-12793095D01*
X197399819Y-14316904D02*
X197399819Y-13745476D01*
X197399819Y-14031190D02*
X196399819Y-14031190D01*
X196399819Y-14031190D02*
X196542676Y-13935952D01*
X196542676Y-13935952D02*
X196637914Y-13840714D01*
X196637914Y-13840714D02*
X196685533Y-13745476D01*
X164062319Y-68990714D02*
X163062319Y-68990714D01*
X163062319Y-68990714D02*
X163062319Y-69228809D01*
X163062319Y-69228809D02*
X163109938Y-69371666D01*
X163109938Y-69371666D02*
X163205176Y-69466904D01*
X163205176Y-69466904D02*
X163300414Y-69514523D01*
X163300414Y-69514523D02*
X163490890Y-69562142D01*
X163490890Y-69562142D02*
X163633747Y-69562142D01*
X163633747Y-69562142D02*
X163824223Y-69514523D01*
X163824223Y-69514523D02*
X163919461Y-69466904D01*
X163919461Y-69466904D02*
X164014700Y-69371666D01*
X164014700Y-69371666D02*
X164062319Y-69228809D01*
X164062319Y-69228809D02*
X164062319Y-68990714D01*
X163062319Y-70466904D02*
X163062319Y-69990714D01*
X163062319Y-69990714D02*
X163538509Y-69943095D01*
X163538509Y-69943095D02*
X163490890Y-69990714D01*
X163490890Y-69990714D02*
X163443271Y-70085952D01*
X163443271Y-70085952D02*
X163443271Y-70324047D01*
X163443271Y-70324047D02*
X163490890Y-70419285D01*
X163490890Y-70419285D02*
X163538509Y-70466904D01*
X163538509Y-70466904D02*
X163633747Y-70514523D01*
X163633747Y-70514523D02*
X163871842Y-70514523D01*
X163871842Y-70514523D02*
X163967080Y-70466904D01*
X163967080Y-70466904D02*
X164014700Y-70419285D01*
X164014700Y-70419285D02*
X164062319Y-70324047D01*
X164062319Y-70324047D02*
X164062319Y-70085952D01*
X164062319Y-70085952D02*
X164014700Y-69990714D01*
X164014700Y-69990714D02*
X163967080Y-69943095D01*
X164062319Y-71466904D02*
X164062319Y-70895476D01*
X164062319Y-71181190D02*
X163062319Y-71181190D01*
X163062319Y-71181190D02*
X163205176Y-71085952D01*
X163205176Y-71085952D02*
X163300414Y-70990714D01*
X163300414Y-70990714D02*
X163348033Y-70895476D01*
X202162319Y-68990714D02*
X201162319Y-68990714D01*
X201162319Y-68990714D02*
X201162319Y-69228809D01*
X201162319Y-69228809D02*
X201209938Y-69371666D01*
X201209938Y-69371666D02*
X201305176Y-69466904D01*
X201305176Y-69466904D02*
X201400414Y-69514523D01*
X201400414Y-69514523D02*
X201590890Y-69562142D01*
X201590890Y-69562142D02*
X201733747Y-69562142D01*
X201733747Y-69562142D02*
X201924223Y-69514523D01*
X201924223Y-69514523D02*
X202019461Y-69466904D01*
X202019461Y-69466904D02*
X202114700Y-69371666D01*
X202114700Y-69371666D02*
X202162319Y-69228809D01*
X202162319Y-69228809D02*
X202162319Y-68990714D01*
X201162319Y-70466904D02*
X201162319Y-69990714D01*
X201162319Y-69990714D02*
X201638509Y-69943095D01*
X201638509Y-69943095D02*
X201590890Y-69990714D01*
X201590890Y-69990714D02*
X201543271Y-70085952D01*
X201543271Y-70085952D02*
X201543271Y-70324047D01*
X201543271Y-70324047D02*
X201590890Y-70419285D01*
X201590890Y-70419285D02*
X201638509Y-70466904D01*
X201638509Y-70466904D02*
X201733747Y-70514523D01*
X201733747Y-70514523D02*
X201971842Y-70514523D01*
X201971842Y-70514523D02*
X202067080Y-70466904D01*
X202067080Y-70466904D02*
X202114700Y-70419285D01*
X202114700Y-70419285D02*
X202162319Y-70324047D01*
X202162319Y-70324047D02*
X202162319Y-70085952D01*
X202162319Y-70085952D02*
X202114700Y-69990714D01*
X202114700Y-69990714D02*
X202067080Y-69943095D01*
X201162319Y-70847857D02*
X201162319Y-71466904D01*
X201162319Y-71466904D02*
X201543271Y-71133571D01*
X201543271Y-71133571D02*
X201543271Y-71276428D01*
X201543271Y-71276428D02*
X201590890Y-71371666D01*
X201590890Y-71371666D02*
X201638509Y-71419285D01*
X201638509Y-71419285D02*
X201733747Y-71466904D01*
X201733747Y-71466904D02*
X201971842Y-71466904D01*
X201971842Y-71466904D02*
X202067080Y-71419285D01*
X202067080Y-71419285D02*
X202114700Y-71371666D01*
X202114700Y-71371666D02*
X202162319Y-71276428D01*
X202162319Y-71276428D02*
X202162319Y-70990714D01*
X202162319Y-70990714D02*
X202114700Y-70895476D01*
X202114700Y-70895476D02*
X202067080Y-70847857D01*
X249787319Y-49940714D02*
X248787319Y-49940714D01*
X248787319Y-49940714D02*
X248787319Y-50178809D01*
X248787319Y-50178809D02*
X248834938Y-50321666D01*
X248834938Y-50321666D02*
X248930176Y-50416904D01*
X248930176Y-50416904D02*
X249025414Y-50464523D01*
X249025414Y-50464523D02*
X249215890Y-50512142D01*
X249215890Y-50512142D02*
X249358747Y-50512142D01*
X249358747Y-50512142D02*
X249549223Y-50464523D01*
X249549223Y-50464523D02*
X249644461Y-50416904D01*
X249644461Y-50416904D02*
X249739700Y-50321666D01*
X249739700Y-50321666D02*
X249787319Y-50178809D01*
X249787319Y-50178809D02*
X249787319Y-49940714D01*
X249120652Y-51369285D02*
X249787319Y-51369285D01*
X248739700Y-51131190D02*
X249453985Y-50893095D01*
X249453985Y-50893095D02*
X249453985Y-51512142D01*
X249787319Y-52416904D02*
X249787319Y-51845476D01*
X249787319Y-52131190D02*
X248787319Y-52131190D01*
X248787319Y-52131190D02*
X248930176Y-52035952D01*
X248930176Y-52035952D02*
X249025414Y-51940714D01*
X249025414Y-51940714D02*
X249073033Y-51845476D01*
X40237319Y-49940714D02*
X39237319Y-49940714D01*
X39237319Y-49940714D02*
X39237319Y-50178809D01*
X39237319Y-50178809D02*
X39284938Y-50321666D01*
X39284938Y-50321666D02*
X39380176Y-50416904D01*
X39380176Y-50416904D02*
X39475414Y-50464523D01*
X39475414Y-50464523D02*
X39665890Y-50512142D01*
X39665890Y-50512142D02*
X39808747Y-50512142D01*
X39808747Y-50512142D02*
X39999223Y-50464523D01*
X39999223Y-50464523D02*
X40094461Y-50416904D01*
X40094461Y-50416904D02*
X40189700Y-50321666D01*
X40189700Y-50321666D02*
X40237319Y-50178809D01*
X40237319Y-50178809D02*
X40237319Y-49940714D01*
X39237319Y-50845476D02*
X39237319Y-51464523D01*
X39237319Y-51464523D02*
X39618271Y-51131190D01*
X39618271Y-51131190D02*
X39618271Y-51274047D01*
X39618271Y-51274047D02*
X39665890Y-51369285D01*
X39665890Y-51369285D02*
X39713509Y-51416904D01*
X39713509Y-51416904D02*
X39808747Y-51464523D01*
X39808747Y-51464523D02*
X40046842Y-51464523D01*
X40046842Y-51464523D02*
X40142080Y-51416904D01*
X40142080Y-51416904D02*
X40189700Y-51369285D01*
X40189700Y-51369285D02*
X40237319Y-51274047D01*
X40237319Y-51274047D02*
X40237319Y-50988333D01*
X40237319Y-50988333D02*
X40189700Y-50893095D01*
X40189700Y-50893095D02*
X40142080Y-50845476D01*
X39237319Y-52083571D02*
X39237319Y-52178809D01*
X39237319Y-52178809D02*
X39284938Y-52274047D01*
X39284938Y-52274047D02*
X39332557Y-52321666D01*
X39332557Y-52321666D02*
X39427795Y-52369285D01*
X39427795Y-52369285D02*
X39618271Y-52416904D01*
X39618271Y-52416904D02*
X39856366Y-52416904D01*
X39856366Y-52416904D02*
X40046842Y-52369285D01*
X40046842Y-52369285D02*
X40142080Y-52321666D01*
X40142080Y-52321666D02*
X40189700Y-52274047D01*
X40189700Y-52274047D02*
X40237319Y-52178809D01*
X40237319Y-52178809D02*
X40237319Y-52083571D01*
X40237319Y-52083571D02*
X40189700Y-51988333D01*
X40189700Y-51988333D02*
X40142080Y-51940714D01*
X40142080Y-51940714D02*
X40046842Y-51893095D01*
X40046842Y-51893095D02*
X39856366Y-51845476D01*
X39856366Y-51845476D02*
X39618271Y-51845476D01*
X39618271Y-51845476D02*
X39427795Y-51893095D01*
X39427795Y-51893095D02*
X39332557Y-51940714D01*
X39332557Y-51940714D02*
X39284938Y-51988333D01*
X39284938Y-51988333D02*
X39237319Y-52083571D01*
X114687319Y-86388095D02*
X115496842Y-86388095D01*
X115496842Y-86388095D02*
X115592080Y-86435714D01*
X115592080Y-86435714D02*
X115639700Y-86483333D01*
X115639700Y-86483333D02*
X115687319Y-86578571D01*
X115687319Y-86578571D02*
X115687319Y-86769047D01*
X115687319Y-86769047D02*
X115639700Y-86864285D01*
X115639700Y-86864285D02*
X115592080Y-86911904D01*
X115592080Y-86911904D02*
X115496842Y-86959523D01*
X115496842Y-86959523D02*
X114687319Y-86959523D01*
X114687319Y-87340476D02*
X114687319Y-87959523D01*
X114687319Y-87959523D02*
X115068271Y-87626190D01*
X115068271Y-87626190D02*
X115068271Y-87769047D01*
X115068271Y-87769047D02*
X115115890Y-87864285D01*
X115115890Y-87864285D02*
X115163509Y-87911904D01*
X115163509Y-87911904D02*
X115258747Y-87959523D01*
X115258747Y-87959523D02*
X115496842Y-87959523D01*
X115496842Y-87959523D02*
X115592080Y-87911904D01*
X115592080Y-87911904D02*
X115639700Y-87864285D01*
X115639700Y-87864285D02*
X115687319Y-87769047D01*
X115687319Y-87769047D02*
X115687319Y-87483333D01*
X115687319Y-87483333D02*
X115639700Y-87388095D01*
X115639700Y-87388095D02*
X115592080Y-87340476D01*
X87862319Y-68990714D02*
X86862319Y-68990714D01*
X86862319Y-68990714D02*
X86862319Y-69228809D01*
X86862319Y-69228809D02*
X86909938Y-69371666D01*
X86909938Y-69371666D02*
X87005176Y-69466904D01*
X87005176Y-69466904D02*
X87100414Y-69514523D01*
X87100414Y-69514523D02*
X87290890Y-69562142D01*
X87290890Y-69562142D02*
X87433747Y-69562142D01*
X87433747Y-69562142D02*
X87624223Y-69514523D01*
X87624223Y-69514523D02*
X87719461Y-69466904D01*
X87719461Y-69466904D02*
X87814700Y-69371666D01*
X87814700Y-69371666D02*
X87862319Y-69228809D01*
X87862319Y-69228809D02*
X87862319Y-68990714D01*
X87195652Y-70419285D02*
X87862319Y-70419285D01*
X86814700Y-70181190D02*
X87528985Y-69943095D01*
X87528985Y-69943095D02*
X87528985Y-70562142D01*
X86862319Y-70847857D02*
X86862319Y-71514523D01*
X86862319Y-71514523D02*
X87862319Y-71085952D01*
X121199819Y-12316905D02*
X120199819Y-12316905D01*
X120199819Y-12316905D02*
X120199819Y-12555000D01*
X120199819Y-12555000D02*
X120247438Y-12697857D01*
X120247438Y-12697857D02*
X120342676Y-12793095D01*
X120342676Y-12793095D02*
X120437914Y-12840714D01*
X120437914Y-12840714D02*
X120628390Y-12888333D01*
X120628390Y-12888333D02*
X120771247Y-12888333D01*
X120771247Y-12888333D02*
X120961723Y-12840714D01*
X120961723Y-12840714D02*
X121056961Y-12793095D01*
X121056961Y-12793095D02*
X121152200Y-12697857D01*
X121152200Y-12697857D02*
X121199819Y-12555000D01*
X121199819Y-12555000D02*
X121199819Y-12316905D01*
X120199819Y-13221667D02*
X120199819Y-13888333D01*
X120199819Y-13888333D02*
X121199819Y-13459762D01*
X131529166Y-90354819D02*
X131862499Y-89878628D01*
X132100594Y-90354819D02*
X132100594Y-89354819D01*
X132100594Y-89354819D02*
X131719642Y-89354819D01*
X131719642Y-89354819D02*
X131624404Y-89402438D01*
X131624404Y-89402438D02*
X131576785Y-89450057D01*
X131576785Y-89450057D02*
X131529166Y-89545295D01*
X131529166Y-89545295D02*
X131529166Y-89688152D01*
X131529166Y-89688152D02*
X131576785Y-89783390D01*
X131576785Y-89783390D02*
X131624404Y-89831009D01*
X131624404Y-89831009D02*
X131719642Y-89878628D01*
X131719642Y-89878628D02*
X132100594Y-89878628D01*
X130624404Y-89354819D02*
X131100594Y-89354819D01*
X131100594Y-89354819D02*
X131148213Y-89831009D01*
X131148213Y-89831009D02*
X131100594Y-89783390D01*
X131100594Y-89783390D02*
X131005356Y-89735771D01*
X131005356Y-89735771D02*
X130767261Y-89735771D01*
X130767261Y-89735771D02*
X130672023Y-89783390D01*
X130672023Y-89783390D02*
X130624404Y-89831009D01*
X130624404Y-89831009D02*
X130576785Y-89926247D01*
X130576785Y-89926247D02*
X130576785Y-90164342D01*
X130576785Y-90164342D02*
X130624404Y-90259580D01*
X130624404Y-90259580D02*
X130672023Y-90307200D01*
X130672023Y-90307200D02*
X130767261Y-90354819D01*
X130767261Y-90354819D02*
X131005356Y-90354819D01*
X131005356Y-90354819D02*
X131100594Y-90307200D01*
X131100594Y-90307200D02*
X131148213Y-90259580D01*
X221212319Y-68990714D02*
X220212319Y-68990714D01*
X220212319Y-68990714D02*
X220212319Y-69228809D01*
X220212319Y-69228809D02*
X220259938Y-69371666D01*
X220259938Y-69371666D02*
X220355176Y-69466904D01*
X220355176Y-69466904D02*
X220450414Y-69514523D01*
X220450414Y-69514523D02*
X220640890Y-69562142D01*
X220640890Y-69562142D02*
X220783747Y-69562142D01*
X220783747Y-69562142D02*
X220974223Y-69514523D01*
X220974223Y-69514523D02*
X221069461Y-69466904D01*
X221069461Y-69466904D02*
X221164700Y-69371666D01*
X221164700Y-69371666D02*
X221212319Y-69228809D01*
X221212319Y-69228809D02*
X221212319Y-68990714D01*
X220212319Y-70466904D02*
X220212319Y-69990714D01*
X220212319Y-69990714D02*
X220688509Y-69943095D01*
X220688509Y-69943095D02*
X220640890Y-69990714D01*
X220640890Y-69990714D02*
X220593271Y-70085952D01*
X220593271Y-70085952D02*
X220593271Y-70324047D01*
X220593271Y-70324047D02*
X220640890Y-70419285D01*
X220640890Y-70419285D02*
X220688509Y-70466904D01*
X220688509Y-70466904D02*
X220783747Y-70514523D01*
X220783747Y-70514523D02*
X221021842Y-70514523D01*
X221021842Y-70514523D02*
X221117080Y-70466904D01*
X221117080Y-70466904D02*
X221164700Y-70419285D01*
X221164700Y-70419285D02*
X221212319Y-70324047D01*
X221212319Y-70324047D02*
X221212319Y-70085952D01*
X221212319Y-70085952D02*
X221164700Y-69990714D01*
X221164700Y-69990714D02*
X221117080Y-69943095D01*
X220545652Y-71371666D02*
X221212319Y-71371666D01*
X220164700Y-71133571D02*
X220878985Y-70895476D01*
X220878985Y-70895476D02*
X220878985Y-71514523D01*
X250549819Y-4780714D02*
X249549819Y-4780714D01*
X249549819Y-4780714D02*
X249549819Y-5018809D01*
X249549819Y-5018809D02*
X249597438Y-5161666D01*
X249597438Y-5161666D02*
X249692676Y-5256904D01*
X249692676Y-5256904D02*
X249787914Y-5304523D01*
X249787914Y-5304523D02*
X249978390Y-5352142D01*
X249978390Y-5352142D02*
X250121247Y-5352142D01*
X250121247Y-5352142D02*
X250311723Y-5304523D01*
X250311723Y-5304523D02*
X250406961Y-5256904D01*
X250406961Y-5256904D02*
X250502200Y-5161666D01*
X250502200Y-5161666D02*
X250549819Y-5018809D01*
X250549819Y-5018809D02*
X250549819Y-4780714D01*
X250549819Y-6304523D02*
X250549819Y-5733095D01*
X250549819Y-6018809D02*
X249549819Y-6018809D01*
X249549819Y-6018809D02*
X249692676Y-5923571D01*
X249692676Y-5923571D02*
X249787914Y-5828333D01*
X249787914Y-5828333D02*
X249835533Y-5733095D01*
X249883152Y-7161666D02*
X250549819Y-7161666D01*
X249502200Y-6923571D02*
X250216485Y-6685476D01*
X250216485Y-6685476D02*
X250216485Y-7304523D01*
X116437319Y-49940714D02*
X115437319Y-49940714D01*
X115437319Y-49940714D02*
X115437319Y-50178809D01*
X115437319Y-50178809D02*
X115484938Y-50321666D01*
X115484938Y-50321666D02*
X115580176Y-50416904D01*
X115580176Y-50416904D02*
X115675414Y-50464523D01*
X115675414Y-50464523D02*
X115865890Y-50512142D01*
X115865890Y-50512142D02*
X116008747Y-50512142D01*
X116008747Y-50512142D02*
X116199223Y-50464523D01*
X116199223Y-50464523D02*
X116294461Y-50416904D01*
X116294461Y-50416904D02*
X116389700Y-50321666D01*
X116389700Y-50321666D02*
X116437319Y-50178809D01*
X116437319Y-50178809D02*
X116437319Y-49940714D01*
X115437319Y-50845476D02*
X115437319Y-51464523D01*
X115437319Y-51464523D02*
X115818271Y-51131190D01*
X115818271Y-51131190D02*
X115818271Y-51274047D01*
X115818271Y-51274047D02*
X115865890Y-51369285D01*
X115865890Y-51369285D02*
X115913509Y-51416904D01*
X115913509Y-51416904D02*
X116008747Y-51464523D01*
X116008747Y-51464523D02*
X116246842Y-51464523D01*
X116246842Y-51464523D02*
X116342080Y-51416904D01*
X116342080Y-51416904D02*
X116389700Y-51369285D01*
X116389700Y-51369285D02*
X116437319Y-51274047D01*
X116437319Y-51274047D02*
X116437319Y-50988333D01*
X116437319Y-50988333D02*
X116389700Y-50893095D01*
X116389700Y-50893095D02*
X116342080Y-50845476D01*
X115770652Y-52321666D02*
X116437319Y-52321666D01*
X115389700Y-52083571D02*
X116103985Y-51845476D01*
X116103985Y-51845476D02*
X116103985Y-52464523D01*
X247406069Y-68990714D02*
X246406069Y-68990714D01*
X246406069Y-68990714D02*
X246406069Y-69228809D01*
X246406069Y-69228809D02*
X246453688Y-69371666D01*
X246453688Y-69371666D02*
X246548926Y-69466904D01*
X246548926Y-69466904D02*
X246644164Y-69514523D01*
X246644164Y-69514523D02*
X246834640Y-69562142D01*
X246834640Y-69562142D02*
X246977497Y-69562142D01*
X246977497Y-69562142D02*
X247167973Y-69514523D01*
X247167973Y-69514523D02*
X247263211Y-69466904D01*
X247263211Y-69466904D02*
X247358450Y-69371666D01*
X247358450Y-69371666D02*
X247406069Y-69228809D01*
X247406069Y-69228809D02*
X247406069Y-68990714D01*
X246406069Y-70466904D02*
X246406069Y-69990714D01*
X246406069Y-69990714D02*
X246882259Y-69943095D01*
X246882259Y-69943095D02*
X246834640Y-69990714D01*
X246834640Y-69990714D02*
X246787021Y-70085952D01*
X246787021Y-70085952D02*
X246787021Y-70324047D01*
X246787021Y-70324047D02*
X246834640Y-70419285D01*
X246834640Y-70419285D02*
X246882259Y-70466904D01*
X246882259Y-70466904D02*
X246977497Y-70514523D01*
X246977497Y-70514523D02*
X247215592Y-70514523D01*
X247215592Y-70514523D02*
X247310830Y-70466904D01*
X247310830Y-70466904D02*
X247358450Y-70419285D01*
X247358450Y-70419285D02*
X247406069Y-70324047D01*
X247406069Y-70324047D02*
X247406069Y-70085952D01*
X247406069Y-70085952D02*
X247358450Y-69990714D01*
X247358450Y-69990714D02*
X247310830Y-69943095D01*
X246406069Y-71419285D02*
X246406069Y-70943095D01*
X246406069Y-70943095D02*
X246882259Y-70895476D01*
X246882259Y-70895476D02*
X246834640Y-70943095D01*
X246834640Y-70943095D02*
X246787021Y-71038333D01*
X246787021Y-71038333D02*
X246787021Y-71276428D01*
X246787021Y-71276428D02*
X246834640Y-71371666D01*
X246834640Y-71371666D02*
X246882259Y-71419285D01*
X246882259Y-71419285D02*
X246977497Y-71466904D01*
X246977497Y-71466904D02*
X247215592Y-71466904D01*
X247215592Y-71466904D02*
X247310830Y-71419285D01*
X247310830Y-71419285D02*
X247358450Y-71371666D01*
X247358450Y-71371666D02*
X247406069Y-71276428D01*
X247406069Y-71276428D02*
X247406069Y-71038333D01*
X247406069Y-71038333D02*
X247358450Y-70943095D01*
X247358450Y-70943095D02*
X247310830Y-70895476D01*
X245024819Y-88040714D02*
X244024819Y-88040714D01*
X244024819Y-88040714D02*
X244024819Y-88278809D01*
X244024819Y-88278809D02*
X244072438Y-88421666D01*
X244072438Y-88421666D02*
X244167676Y-88516904D01*
X244167676Y-88516904D02*
X244262914Y-88564523D01*
X244262914Y-88564523D02*
X244453390Y-88612142D01*
X244453390Y-88612142D02*
X244596247Y-88612142D01*
X244596247Y-88612142D02*
X244786723Y-88564523D01*
X244786723Y-88564523D02*
X244881961Y-88516904D01*
X244881961Y-88516904D02*
X244977200Y-88421666D01*
X244977200Y-88421666D02*
X245024819Y-88278809D01*
X245024819Y-88278809D02*
X245024819Y-88040714D01*
X244024819Y-89469285D02*
X244024819Y-89278809D01*
X244024819Y-89278809D02*
X244072438Y-89183571D01*
X244072438Y-89183571D02*
X244120057Y-89135952D01*
X244120057Y-89135952D02*
X244262914Y-89040714D01*
X244262914Y-89040714D02*
X244453390Y-88993095D01*
X244453390Y-88993095D02*
X244834342Y-88993095D01*
X244834342Y-88993095D02*
X244929580Y-89040714D01*
X244929580Y-89040714D02*
X244977200Y-89088333D01*
X244977200Y-89088333D02*
X245024819Y-89183571D01*
X245024819Y-89183571D02*
X245024819Y-89374047D01*
X245024819Y-89374047D02*
X244977200Y-89469285D01*
X244977200Y-89469285D02*
X244929580Y-89516904D01*
X244929580Y-89516904D02*
X244834342Y-89564523D01*
X244834342Y-89564523D02*
X244596247Y-89564523D01*
X244596247Y-89564523D02*
X244501009Y-89516904D01*
X244501009Y-89516904D02*
X244453390Y-89469285D01*
X244453390Y-89469285D02*
X244405771Y-89374047D01*
X244405771Y-89374047D02*
X244405771Y-89183571D01*
X244405771Y-89183571D02*
X244453390Y-89088333D01*
X244453390Y-89088333D02*
X244501009Y-89040714D01*
X244501009Y-89040714D02*
X244596247Y-88993095D01*
X244120057Y-89945476D02*
X244072438Y-89993095D01*
X244072438Y-89993095D02*
X244024819Y-90088333D01*
X244024819Y-90088333D02*
X244024819Y-90326428D01*
X244024819Y-90326428D02*
X244072438Y-90421666D01*
X244072438Y-90421666D02*
X244120057Y-90469285D01*
X244120057Y-90469285D02*
X244215295Y-90516904D01*
X244215295Y-90516904D02*
X244310533Y-90516904D01*
X244310533Y-90516904D02*
X244453390Y-90469285D01*
X244453390Y-90469285D02*
X245024819Y-89897857D01*
X245024819Y-89897857D02*
X245024819Y-90516904D01*
X64049819Y-12316905D02*
X63049819Y-12316905D01*
X63049819Y-12316905D02*
X63049819Y-12555000D01*
X63049819Y-12555000D02*
X63097438Y-12697857D01*
X63097438Y-12697857D02*
X63192676Y-12793095D01*
X63192676Y-12793095D02*
X63287914Y-12840714D01*
X63287914Y-12840714D02*
X63478390Y-12888333D01*
X63478390Y-12888333D02*
X63621247Y-12888333D01*
X63621247Y-12888333D02*
X63811723Y-12840714D01*
X63811723Y-12840714D02*
X63906961Y-12793095D01*
X63906961Y-12793095D02*
X64002200Y-12697857D01*
X64002200Y-12697857D02*
X64049819Y-12555000D01*
X64049819Y-12555000D02*
X64049819Y-12316905D01*
X63383152Y-13745476D02*
X64049819Y-13745476D01*
X63002200Y-13507381D02*
X63716485Y-13269286D01*
X63716485Y-13269286D02*
X63716485Y-13888333D01*
D11*
X111876785Y-91988704D02*
X111914881Y-92026800D01*
X111914881Y-92026800D02*
X112029166Y-92064895D01*
X112029166Y-92064895D02*
X112105357Y-92064895D01*
X112105357Y-92064895D02*
X112219643Y-92026800D01*
X112219643Y-92026800D02*
X112295833Y-91950609D01*
X112295833Y-91950609D02*
X112333928Y-91874419D01*
X112333928Y-91874419D02*
X112372024Y-91722038D01*
X112372024Y-91722038D02*
X112372024Y-91607752D01*
X112372024Y-91607752D02*
X112333928Y-91455371D01*
X112333928Y-91455371D02*
X112295833Y-91379180D01*
X112295833Y-91379180D02*
X112219643Y-91302990D01*
X112219643Y-91302990D02*
X112105357Y-91264895D01*
X112105357Y-91264895D02*
X112029166Y-91264895D01*
X112029166Y-91264895D02*
X111914881Y-91302990D01*
X111914881Y-91302990D02*
X111876785Y-91341085D01*
X111114881Y-92064895D02*
X111572024Y-92064895D01*
X111343452Y-92064895D02*
X111343452Y-91264895D01*
X111343452Y-91264895D02*
X111419643Y-91379180D01*
X111419643Y-91379180D02*
X111495833Y-91455371D01*
X111495833Y-91455371D02*
X111572024Y-91493466D01*
X110619642Y-91264895D02*
X110543452Y-91264895D01*
X110543452Y-91264895D02*
X110467261Y-91302990D01*
X110467261Y-91302990D02*
X110429166Y-91341085D01*
X110429166Y-91341085D02*
X110391071Y-91417276D01*
X110391071Y-91417276D02*
X110352976Y-91569657D01*
X110352976Y-91569657D02*
X110352976Y-91760133D01*
X110352976Y-91760133D02*
X110391071Y-91912514D01*
X110391071Y-91912514D02*
X110429166Y-91988704D01*
X110429166Y-91988704D02*
X110467261Y-92026800D01*
X110467261Y-92026800D02*
X110543452Y-92064895D01*
X110543452Y-92064895D02*
X110619642Y-92064895D01*
X110619642Y-92064895D02*
X110695833Y-92026800D01*
X110695833Y-92026800D02*
X110733928Y-91988704D01*
X110733928Y-91988704D02*
X110772023Y-91912514D01*
X110772023Y-91912514D02*
X110810119Y-91760133D01*
X110810119Y-91760133D02*
X110810119Y-91569657D01*
X110810119Y-91569657D02*
X110772023Y-91417276D01*
X110772023Y-91417276D02*
X110733928Y-91341085D01*
X110733928Y-91341085D02*
X110695833Y-91302990D01*
X110695833Y-91302990D02*
X110619642Y-91264895D01*
D12*
%TO.C,S52*%
X181637500Y-59775000D02*
X186737500Y-59775000D01*
X185537500Y-63975000D02*
X190637500Y-63975000D01*
X179637500Y-61775000D02*
G75*
G02*
X181637500Y-59775000I1999999J1D01*
G01*
X183537500Y-65975000D02*
G75*
G02*
X185537500Y-63975000I1999999J1D01*
G01*
%TO.C,S16*%
X34000000Y-21675000D02*
X39100000Y-21675000D01*
X37900000Y-25875000D02*
X43000000Y-25875000D01*
X32000000Y-23675000D02*
G75*
G02*
X34000000Y-21675000I1999999J1D01*
G01*
X35900000Y-27875000D02*
G75*
G02*
X37900000Y-25875000I1999999J1D01*
G01*
%TO.C,S29*%
X5006250Y-51725000D02*
X5006250Y-46625000D01*
X9206250Y-47825000D02*
X9206250Y-42725000D01*
X7006250Y-53725000D02*
G75*
G02*
X5006250Y-51725000I-1J1999999D01*
G01*
X11206250Y-49825000D02*
G75*
G02*
X9206250Y-47825000I-1J1999999D01*
G01*
%TO.C,S10*%
X176875000Y-2625000D02*
X181975000Y-2625000D01*
X180775000Y-6825000D02*
X185875000Y-6825000D01*
X174875000Y-4625000D02*
G75*
G02*
X176875000Y-2625000I1999999J1D01*
G01*
X178775000Y-8825000D02*
G75*
G02*
X180775000Y-6825000I1999999J1D01*
G01*
%TO.C,S14*%
X262600000Y-2625000D02*
X267700000Y-2625000D01*
X266500000Y-6825000D02*
X271600000Y-6825000D01*
X260600000Y-4625000D02*
G75*
G02*
X262600000Y-2625000I1999999J1D01*
G01*
X264500000Y-8825000D02*
G75*
G02*
X266500000Y-6825000I1999999J1D01*
G01*
%TO.C,S63*%
X267362500Y-78825000D02*
X272462500Y-78825000D01*
X271262500Y-83025000D02*
X276362500Y-83025000D01*
X265362500Y-80825000D02*
G75*
G02*
X267362500Y-78825000I1999999J1D01*
G01*
X269262500Y-85025000D02*
G75*
G02*
X271262500Y-83025000I1999999J1D01*
G01*
%TO.C,S24*%
X186400000Y-21675000D02*
X191500000Y-21675000D01*
X190300000Y-25875000D02*
X195400000Y-25875000D01*
X184400000Y-23675000D02*
G75*
G02*
X186400000Y-21675000I1999999J1D01*
G01*
X188300000Y-27875000D02*
G75*
G02*
X190300000Y-25875000I1999999J1D01*
G01*
%TO.C,S61*%
X219737500Y-78825000D02*
X224837500Y-78825000D01*
X223637500Y-83025000D02*
X228737500Y-83025000D01*
X217737500Y-80825000D02*
G75*
G02*
X219737500Y-78825000I1999999J1D01*
G01*
X221637500Y-85025000D02*
G75*
G02*
X223637500Y-83025000I1999999J1D01*
G01*
%TO.C,S47*%
X86387500Y-59775000D02*
X91487500Y-59775000D01*
X90287500Y-63975000D02*
X95387500Y-63975000D01*
X84387500Y-61775000D02*
G75*
G02*
X86387500Y-59775000I1999999J1D01*
G01*
X88287500Y-65975000D02*
G75*
G02*
X90287500Y-63975000I1999999J1D01*
G01*
%TO.C,S41*%
X264518750Y-50325000D02*
X259418750Y-50325000D01*
X268418750Y-54525000D02*
X263318750Y-54525000D01*
X266518750Y-48325000D02*
G75*
G02*
X264518750Y-50325000I-1999999J-1D01*
G01*
X270418750Y-52525000D02*
G75*
G02*
X268418750Y-54525000I-1999999J-1D01*
G01*
%TO.C,S30*%
X38762500Y-40725000D02*
X43862500Y-40725000D01*
X42662500Y-44925000D02*
X47762500Y-44925000D01*
X36762500Y-42725000D02*
G75*
G02*
X38762500Y-40725000I1999999J1D01*
G01*
X40662500Y-46925000D02*
G75*
G02*
X42662500Y-44925000I1999999J1D01*
G01*
%TO.C,S28*%
X266943750Y-42200000D02*
X266943750Y-37100000D01*
X271143750Y-38300000D02*
X271143750Y-33200000D01*
X268943750Y-44200000D02*
G75*
G02*
X266943750Y-42200000I-1J1999999D01*
G01*
X273143750Y-40300000D02*
G75*
G02*
X271143750Y-38300000I-1J1999999D01*
G01*
%TO.C,S43*%
X21631250Y-69375000D02*
X16531250Y-69375000D01*
X25531250Y-73575000D02*
X20431250Y-73575000D01*
X23631250Y-67375000D02*
G75*
G02*
X21631250Y-69375000I-1999999J-1D01*
G01*
X27531250Y-71575000D02*
G75*
G02*
X25531250Y-73575000I-1999999J-1D01*
G01*
%TO.C,S33*%
X95912500Y-40725000D02*
X101012500Y-40725000D01*
X99812500Y-44925000D02*
X104912500Y-44925000D01*
X93912500Y-42725000D02*
G75*
G02*
X95912500Y-40725000I1999999J1D01*
G01*
X97812500Y-46925000D02*
G75*
G02*
X99812500Y-44925000I1999999J1D01*
G01*
%TO.C,S7*%
X119725000Y-2625000D02*
X124825000Y-2625000D01*
X123625000Y-6825000D02*
X128725000Y-6825000D01*
X117725000Y-4625000D02*
G75*
G02*
X119725000Y-2625000I1999999J1D01*
G01*
X121625000Y-8825000D02*
G75*
G02*
X123625000Y-6825000I1999999J1D01*
G01*
%TO.C,S23*%
X167350000Y-21675000D02*
X172450000Y-21675000D01*
X171250000Y-25875000D02*
X176350000Y-25875000D01*
X165350000Y-23675000D02*
G75*
G02*
X167350000Y-21675000I1999999J1D01*
G01*
X169250000Y-27875000D02*
G75*
G02*
X171250000Y-25875000I1999999J1D01*
G01*
%TO.C,S26*%
X224500000Y-21675000D02*
X229600000Y-21675000D01*
X228400000Y-25875000D02*
X233500000Y-25875000D01*
X222500000Y-23675000D02*
G75*
G02*
X224500000Y-21675000I1999999J1D01*
G01*
X226400000Y-27875000D02*
G75*
G02*
X228400000Y-25875000I1999999J1D01*
G01*
%TO.C,S48*%
X105437500Y-59775000D02*
X110537500Y-59775000D01*
X109337500Y-63975000D02*
X114437500Y-63975000D01*
X103437500Y-61775000D02*
G75*
G02*
X105437500Y-59775000I1999999J1D01*
G01*
X107337500Y-65975000D02*
G75*
G02*
X109337500Y-63975000I1999999J1D01*
G01*
%TO.C,S50*%
X143537500Y-59775000D02*
X148637500Y-59775000D01*
X147437500Y-63975000D02*
X152537500Y-63975000D01*
X141537500Y-61775000D02*
G75*
G02*
X143537500Y-59775000I1999999J1D01*
G01*
X145437500Y-65975000D02*
G75*
G02*
X147437500Y-63975000I1999999J1D01*
G01*
%TO.C,S62*%
X243550000Y-78825000D02*
X248650000Y-78825000D01*
X247450000Y-83025000D02*
X252550000Y-83025000D01*
X241550000Y-80825000D02*
G75*
G02*
X243550000Y-78825000I1999999J1D01*
G01*
X245450000Y-85025000D02*
G75*
G02*
X247450000Y-83025000I1999999J1D01*
G01*
%TO.C,S55*%
X245931250Y-59775000D02*
X251031250Y-59775000D01*
X249831250Y-63975000D02*
X254931250Y-63975000D01*
X243931250Y-61775000D02*
G75*
G02*
X245931250Y-59775000I1999999J1D01*
G01*
X247831250Y-65975000D02*
G75*
G02*
X249831250Y-63975000I1999999J1D01*
G01*
%TO.C,S28*%
X274162500Y-28375000D02*
X274162500Y-33475000D01*
X278362500Y-24475000D02*
X278362500Y-29575000D01*
X272162500Y-26375000D02*
G75*
G02*
X274162500Y-28375000I1J-1999999D01*
G01*
X276362500Y-22475000D02*
G75*
G02*
X278362500Y-24475000I1J-1999999D01*
G01*
%TO.C,S29*%
X19368750Y-47425000D02*
X19368750Y-52525000D01*
X23568750Y-43525000D02*
X23568750Y-48625000D01*
X17368750Y-45425000D02*
G75*
G02*
X19368750Y-47425000I1J-1999999D01*
G01*
X21568750Y-41525000D02*
G75*
G02*
X23568750Y-43525000I1J-1999999D01*
G01*
%TO.C,S36*%
X153062500Y-40725000D02*
X158162500Y-40725000D01*
X156962500Y-44925000D02*
X162062500Y-44925000D01*
X151062500Y-42725000D02*
G75*
G02*
X153062500Y-40725000I1999999J1D01*
G01*
X154962500Y-46925000D02*
G75*
G02*
X156962500Y-44925000I1999999J1D01*
G01*
%TO.C,S53*%
X200687500Y-59775000D02*
X205787500Y-59775000D01*
X204587500Y-63975000D02*
X209687500Y-63975000D01*
X198687500Y-61775000D02*
G75*
G02*
X200687500Y-59775000I1999999J1D01*
G01*
X202587500Y-65975000D02*
G75*
G02*
X204587500Y-63975000I1999999J1D01*
G01*
%TO.C,S4*%
X62575000Y-2625000D02*
X67675000Y-2625000D01*
X66475000Y-6825000D02*
X71575000Y-6825000D01*
X60575000Y-4625000D02*
G75*
G02*
X62575000Y-2625000I1999999J1D01*
G01*
X64475000Y-8825000D02*
G75*
G02*
X66475000Y-6825000I1999999J1D01*
G01*
%TO.C,S11*%
X195925000Y-2625000D02*
X201025000Y-2625000D01*
X199825000Y-6825000D02*
X204925000Y-6825000D01*
X193925000Y-4625000D02*
G75*
G02*
X195925000Y-2625000I1999999J1D01*
G01*
X197825000Y-8825000D02*
G75*
G02*
X199825000Y-6825000I1999999J1D01*
G01*
%TO.C,S3*%
X43525000Y-2625000D02*
X48625000Y-2625000D01*
X47425000Y-6825000D02*
X52525000Y-6825000D01*
X41525000Y-4625000D02*
G75*
G02*
X43525000Y-2625000I1999999J1D01*
G01*
X45425000Y-8825000D02*
G75*
G02*
X47425000Y-6825000I1999999J1D01*
G01*
%TO.C,S37*%
X172112500Y-40725000D02*
X177212500Y-40725000D01*
X176012500Y-44925000D02*
X181112500Y-44925000D01*
X170112500Y-42725000D02*
G75*
G02*
X172112500Y-40725000I1999999J1D01*
G01*
X174012500Y-46925000D02*
G75*
G02*
X176012500Y-44925000I1999999J1D01*
G01*
%TO.C,S27*%
X243550000Y-21675000D02*
X248650000Y-21675000D01*
X247450000Y-25875000D02*
X252550000Y-25875000D01*
X241550000Y-23675000D02*
G75*
G02*
X243550000Y-21675000I1999999J1D01*
G01*
X245450000Y-27875000D02*
G75*
G02*
X247450000Y-25875000I1999999J1D01*
G01*
%TO.C,S13*%
X234025000Y-2625000D02*
X239125000Y-2625000D01*
X237925000Y-6825000D02*
X243025000Y-6825000D01*
X232025000Y-4625000D02*
G75*
G02*
X234025000Y-2625000I1999999J1D01*
G01*
X235925000Y-8825000D02*
G75*
G02*
X237925000Y-6825000I1999999J1D01*
G01*
%TO.C,S49*%
X124487500Y-59775000D02*
X129587500Y-59775000D01*
X128387500Y-63975000D02*
X133487500Y-63975000D01*
X122487500Y-61775000D02*
G75*
G02*
X124487500Y-59775000I1999999J1D01*
G01*
X126387500Y-65975000D02*
G75*
G02*
X128387500Y-63975000I1999999J1D01*
G01*
%TO.C,S38*%
X191162500Y-40725000D02*
X196262500Y-40725000D01*
X195062500Y-44925000D02*
X200162500Y-44925000D01*
X189162500Y-42725000D02*
G75*
G02*
X191162500Y-40725000I1999999J1D01*
G01*
X193062500Y-46925000D02*
G75*
G02*
X195062500Y-44925000I1999999J1D01*
G01*
%TO.C,S5*%
X81625000Y-2625000D02*
X86725000Y-2625000D01*
X85525000Y-6825000D02*
X90625000Y-6825000D01*
X79625000Y-4625000D02*
G75*
G02*
X81625000Y-2625000I1999999J1D01*
G01*
X83525000Y-8825000D02*
G75*
G02*
X85525000Y-6825000I1999999J1D01*
G01*
%TO.C,S54*%
X219737500Y-59775000D02*
X224837500Y-59775000D01*
X223637500Y-63975000D02*
X228737500Y-63975000D01*
X217737500Y-61775000D02*
G75*
G02*
X219737500Y-59775000I1999999J1D01*
G01*
X221637500Y-65975000D02*
G75*
G02*
X223637500Y-63975000I1999999J1D01*
G01*
%TO.C,S41*%
X248312500Y-40725000D02*
X253412500Y-40725000D01*
X252212500Y-44925000D02*
X257312500Y-44925000D01*
X246312500Y-42725000D02*
G75*
G02*
X248312500Y-40725000I1999999J1D01*
G01*
X250212500Y-46925000D02*
G75*
G02*
X252212500Y-44925000I1999999J1D01*
G01*
%TO.C,S1*%
X9725000Y-12225000D02*
X4625000Y-12225000D01*
X13625000Y-16425000D02*
X8525000Y-16425000D01*
X11725000Y-10225000D02*
G75*
G02*
X9725000Y-12225000I-1999999J-1D01*
G01*
X15625000Y-14425000D02*
G75*
G02*
X13625000Y-16425000I-1999999J-1D01*
G01*
%TO.C,S39*%
X210212500Y-40725000D02*
X215312500Y-40725000D01*
X214112500Y-44925000D02*
X219212500Y-44925000D01*
X208212500Y-42725000D02*
G75*
G02*
X210212500Y-40725000I1999999J1D01*
G01*
X212112500Y-46925000D02*
G75*
G02*
X214112500Y-44925000I1999999J1D01*
G01*
%TO.C,S8*%
X138775000Y-2625000D02*
X143875000Y-2625000D01*
X142675000Y-6825000D02*
X147775000Y-6825000D01*
X136775000Y-4625000D02*
G75*
G02*
X138775000Y-2625000I1999999J1D01*
G01*
X140675000Y-8825000D02*
G75*
G02*
X142675000Y-6825000I1999999J1D01*
G01*
%TO.C,S9*%
X157825000Y-2625000D02*
X162925000Y-2625000D01*
X161725000Y-6825000D02*
X166825000Y-6825000D01*
X155825000Y-4625000D02*
G75*
G02*
X157825000Y-2625000I1999999J1D01*
G01*
X159725000Y-8825000D02*
G75*
G02*
X161725000Y-6825000I1999999J1D01*
G01*
%TO.C,S59*%
X57812500Y-78825000D02*
X62912500Y-78825000D01*
X61712500Y-83025000D02*
X66812500Y-83025000D01*
X55812500Y-80825000D02*
G75*
G02*
X57812500Y-78825000I1999999J1D01*
G01*
X59712500Y-85025000D02*
G75*
G02*
X61712500Y-83025000I1999999J1D01*
G01*
%TO.C,S32*%
X76862500Y-40725000D02*
X81962500Y-40725000D01*
X80762500Y-44925000D02*
X85862500Y-44925000D01*
X74862500Y-42725000D02*
G75*
G02*
X76862500Y-40725000I1999999J1D01*
G01*
X78762500Y-46925000D02*
G75*
G02*
X80762500Y-44925000I1999999J1D01*
G01*
%TO.C,S17*%
X53050000Y-21675000D02*
X58150000Y-21675000D01*
X56950000Y-25875000D02*
X62050000Y-25875000D01*
X51050000Y-23675000D02*
G75*
G02*
X53050000Y-21675000I1999999J1D01*
G01*
X54950000Y-27875000D02*
G75*
G02*
X56950000Y-25875000I1999999J1D01*
G01*
%TO.C,S2*%
X28775000Y-12225000D02*
X23675000Y-12225000D01*
X32675000Y-16425000D02*
X27575000Y-16425000D01*
X30775000Y-10225000D02*
G75*
G02*
X28775000Y-12225000I-1999999J-1D01*
G01*
X34675000Y-14425000D02*
G75*
G02*
X32675000Y-16425000I-1999999J-1D01*
G01*
%TO.C,S58*%
X34000000Y-78825000D02*
X39100000Y-78825000D01*
X37900000Y-83025000D02*
X43000000Y-83025000D01*
X32000000Y-80825000D02*
G75*
G02*
X34000000Y-78825000I1999999J1D01*
G01*
X35900000Y-85025000D02*
G75*
G02*
X37900000Y-83025000I1999999J1D01*
G01*
%TO.C,S14*%
X257375000Y-12225000D02*
X252275000Y-12225000D01*
X261275000Y-16425000D02*
X256175000Y-16425000D01*
X259375000Y-10225000D02*
G75*
G02*
X257375000Y-12225000I-1999999J-1D01*
G01*
X263275000Y-14425000D02*
G75*
G02*
X261275000Y-16425000I-1999999J-1D01*
G01*
%TO.C,S15*%
X10187500Y-21675000D02*
X15287500Y-21675000D01*
X14087500Y-25875000D02*
X19187500Y-25875000D01*
X8187500Y-23675000D02*
G75*
G02*
X10187500Y-21675000I1999999J1D01*
G01*
X12087500Y-27875000D02*
G75*
G02*
X14087500Y-25875000I1999999J1D01*
G01*
%TO.C,S51*%
X162587500Y-59775000D02*
X167687500Y-59775000D01*
X166487500Y-63975000D02*
X171587500Y-63975000D01*
X160587500Y-61775000D02*
G75*
G02*
X162587500Y-59775000I1999999J1D01*
G01*
X164487500Y-65975000D02*
G75*
G02*
X166487500Y-63975000I1999999J1D01*
G01*
%TO.C,S34*%
X114962500Y-40725000D02*
X120062500Y-40725000D01*
X118862500Y-44925000D02*
X123962500Y-44925000D01*
X112962500Y-42725000D02*
G75*
G02*
X114962500Y-40725000I1999999J1D01*
G01*
X116862500Y-46925000D02*
G75*
G02*
X118862500Y-44925000I1999999J1D01*
G01*
%TO.C,S40*%
X229262500Y-40725000D02*
X234362500Y-40725000D01*
X233162500Y-44925000D02*
X238262500Y-44925000D01*
X227262500Y-42725000D02*
G75*
G02*
X229262500Y-40725000I1999999J1D01*
G01*
X231162500Y-46925000D02*
G75*
G02*
X233162500Y-44925000I1999999J1D01*
G01*
%TO.C,S12*%
X214975000Y-2625000D02*
X220075000Y-2625000D01*
X218875000Y-6825000D02*
X223975000Y-6825000D01*
X212975000Y-4625000D02*
G75*
G02*
X214975000Y-2625000I1999999J1D01*
G01*
X216875000Y-8825000D02*
G75*
G02*
X218875000Y-6825000I1999999J1D01*
G01*
%TO.C,S57*%
X10187500Y-78825000D02*
X15287500Y-78825000D01*
X14087500Y-83025000D02*
X19187500Y-83025000D01*
X8187500Y-80825000D02*
G75*
G02*
X10187500Y-78825000I1999999J1D01*
G01*
X12087500Y-85025000D02*
G75*
G02*
X14087500Y-83025000I1999999J1D01*
G01*
%TO.C,S18*%
X72100000Y-21675000D02*
X77200000Y-21675000D01*
X76000000Y-25875000D02*
X81100000Y-25875000D01*
X70100000Y-23675000D02*
G75*
G02*
X72100000Y-21675000I1999999J1D01*
G01*
X74000000Y-27875000D02*
G75*
G02*
X76000000Y-25875000I1999999J1D01*
G01*
%TO.C,S35*%
X134012500Y-40725000D02*
X139112500Y-40725000D01*
X137912500Y-44925000D02*
X143012500Y-44925000D01*
X132012500Y-42725000D02*
G75*
G02*
X134012500Y-40725000I1999999J1D01*
G01*
X135912500Y-46925000D02*
G75*
G02*
X137912500Y-44925000I1999999J1D01*
G01*
%TO.C,S45*%
X48287500Y-59775000D02*
X53387500Y-59775000D01*
X52187500Y-63975000D02*
X57287500Y-63975000D01*
X46287500Y-61775000D02*
G75*
G02*
X48287500Y-59775000I1999999J1D01*
G01*
X50187500Y-65975000D02*
G75*
G02*
X52187500Y-63975000I1999999J1D01*
G01*
%TO.C,S21*%
X129250000Y-21675000D02*
X134350000Y-21675000D01*
X133150000Y-25875000D02*
X138250000Y-25875000D01*
X127250000Y-23675000D02*
G75*
G02*
X129250000Y-21675000I1999999J1D01*
G01*
X131150000Y-27875000D02*
G75*
G02*
X133150000Y-25875000I1999999J1D01*
G01*
%TO.C,S22*%
X148300000Y-21675000D02*
X153400000Y-21675000D01*
X152200000Y-25875000D02*
X157300000Y-25875000D01*
X146300000Y-23675000D02*
G75*
G02*
X148300000Y-21675000I1999999J1D01*
G01*
X150200000Y-27875000D02*
G75*
G02*
X152200000Y-25875000I1999999J1D01*
G01*
%TO.C,S56*%
X272125000Y-59775000D02*
X277225000Y-59775000D01*
X276025000Y-63975000D02*
X281125000Y-63975000D01*
X270125000Y-61775000D02*
G75*
G02*
X272125000Y-59775000I1999999J1D01*
G01*
X274025000Y-65975000D02*
G75*
G02*
X276025000Y-63975000I1999999J1D01*
G01*
%TO.C,S42*%
X276425000Y-12225000D02*
X271325000Y-12225000D01*
X280325000Y-16425000D02*
X275225000Y-16425000D01*
X278425000Y-10225000D02*
G75*
G02*
X276425000Y-12225000I-1999999J-1D01*
G01*
X282325000Y-14425000D02*
G75*
G02*
X280325000Y-16425000I-1999999J-1D01*
G01*
%TO.C,S60*%
X138775000Y-78825000D02*
X143875000Y-78825000D01*
X142675000Y-83025000D02*
X147775000Y-83025000D01*
X136775000Y-80825000D02*
G75*
G02*
X138775000Y-78825000I1999999J1D01*
G01*
X140675000Y-85025000D02*
G75*
G02*
X142675000Y-83025000I1999999J1D01*
G01*
%TO.C,S46*%
X67337500Y-59775000D02*
X72437500Y-59775000D01*
X71237500Y-63975000D02*
X76337500Y-63975000D01*
X65337500Y-61775000D02*
G75*
G02*
X67337500Y-59775000I1999999J1D01*
G01*
X69237500Y-65975000D02*
G75*
G02*
X71237500Y-63975000I1999999J1D01*
G01*
%TO.C,S55*%
X259756250Y-69375000D02*
X254656250Y-69375000D01*
X263656250Y-73575000D02*
X258556250Y-73575000D01*
X261756250Y-67375000D02*
G75*
G02*
X259756250Y-69375000I-1999999J-1D01*
G01*
X265656250Y-71575000D02*
G75*
G02*
X263656250Y-73575000I-1999999J-1D01*
G01*
%TO.C,S19*%
X91150000Y-21675000D02*
X96250000Y-21675000D01*
X95050000Y-25875000D02*
X100150000Y-25875000D01*
X89150000Y-23675000D02*
G75*
G02*
X91150000Y-21675000I1999999J1D01*
G01*
X93050000Y-27875000D02*
G75*
G02*
X95050000Y-25875000I1999999J1D01*
G01*
%TO.C,S44*%
X29237500Y-59775000D02*
X34337500Y-59775000D01*
X33137500Y-63975000D02*
X38237500Y-63975000D01*
X27237500Y-61775000D02*
G75*
G02*
X29237500Y-59775000I1999999J1D01*
G01*
X31137500Y-65975000D02*
G75*
G02*
X33137500Y-63975000I1999999J1D01*
G01*
%TO.C,S20*%
X110200000Y-21675000D02*
X115300000Y-21675000D01*
X114100000Y-25875000D02*
X119200000Y-25875000D01*
X108200000Y-23675000D02*
G75*
G02*
X110200000Y-21675000I1999999J1D01*
G01*
X112100000Y-27875000D02*
G75*
G02*
X114100000Y-25875000I1999999J1D01*
G01*
%TO.C,S43*%
X7806250Y-59775000D02*
X12906250Y-59775000D01*
X11706250Y-63975000D02*
X16806250Y-63975000D01*
X5806250Y-61775000D02*
G75*
G02*
X7806250Y-59775000I1999999J1D01*
G01*
X9706250Y-65975000D02*
G75*
G02*
X11706250Y-63975000I1999999J1D01*
G01*
%TO.C,S6*%
X100675000Y-2625000D02*
X105775000Y-2625000D01*
X104575000Y-6825000D02*
X109675000Y-6825000D01*
X98675000Y-4625000D02*
G75*
G02*
X100675000Y-2625000I1999999J1D01*
G01*
X102575000Y-8825000D02*
G75*
G02*
X104575000Y-6825000I1999999J1D01*
G01*
%TO.C,S31*%
X57812500Y-40725000D02*
X62912500Y-40725000D01*
X61712500Y-44925000D02*
X66812500Y-44925000D01*
X55812500Y-42725000D02*
G75*
G02*
X57812500Y-40725000I1999999J1D01*
G01*
X59712500Y-46925000D02*
G75*
G02*
X61712500Y-44925000I1999999J1D01*
G01*
%TO.C,S25*%
X205450000Y-21675000D02*
X210550000Y-21675000D01*
X209350000Y-25875000D02*
X214450000Y-25875000D01*
X203450000Y-23675000D02*
G75*
G02*
X205450000Y-21675000I1999999J1D01*
G01*
X207350000Y-27875000D02*
G75*
G02*
X209350000Y-25875000I1999999J1D01*
G01*
%TO.C,C1*%
X89720336Y-89540000D02*
X89504664Y-89540000D01*
X89720336Y-90260000D02*
X89504664Y-90260000D01*
%TO.C,D40*%
X227282500Y-49505000D02*
X227282500Y-53515000D01*
X227282500Y-53515000D02*
X229282500Y-53515000D01*
X229282500Y-49505000D02*
X229282500Y-53515000D01*
%TO.C,D57*%
X8207500Y-87605000D02*
X8207500Y-91615000D01*
X8207500Y-91615000D02*
X10207500Y-91615000D01*
X10207500Y-87605000D02*
X10207500Y-91615000D01*
%TO.C,R6*%
X17420000Y-9608641D02*
X17420000Y-9301359D01*
X18180000Y-9608641D02*
X18180000Y-9301359D01*
%TO.C,D12*%
X212995000Y-11405000D02*
X212995000Y-15415000D01*
X212995000Y-15415000D02*
X214995000Y-15415000D01*
X214995000Y-11405000D02*
X214995000Y-15415000D01*
%TO.C,D37*%
X170132500Y-49505000D02*
X170132500Y-53515000D01*
X170132500Y-53515000D02*
X172132500Y-53515000D01*
X172132500Y-49505000D02*
X172132500Y-53515000D01*
%TO.C,D22*%
X146320000Y-30455000D02*
X146320000Y-34465000D01*
X146320000Y-34465000D02*
X148320000Y-34465000D01*
X148320000Y-30455000D02*
X148320000Y-34465000D01*
%TO.C,D25*%
X203470000Y-30455000D02*
X203470000Y-34465000D01*
X203470000Y-34465000D02*
X205470000Y-34465000D01*
X205470000Y-30455000D02*
X205470000Y-34465000D01*
%TO.C,D16*%
X32020000Y-30455000D02*
X32020000Y-34465000D01*
X32020000Y-34465000D02*
X34020000Y-34465000D01*
X34020000Y-30455000D02*
X34020000Y-34465000D01*
%TO.C,D63*%
X265382500Y-87605000D02*
X265382500Y-91615000D01*
X265382500Y-91615000D02*
X267382500Y-91615000D01*
X267382500Y-87605000D02*
X267382500Y-91615000D01*
%TO.C,C6*%
X127740336Y-90940000D02*
X127524664Y-90940000D01*
X127740336Y-91660000D02*
X127524664Y-91660000D01*
%TO.C,R3*%
X113778641Y-88320000D02*
X113471359Y-88320000D01*
X113778641Y-89080000D02*
X113471359Y-89080000D01*
%TO.C,C13*%
X118357836Y-92040000D02*
X118142164Y-92040000D01*
X118357836Y-92760000D02*
X118142164Y-92760000D01*
%TO.C,D24*%
X184420000Y-30455000D02*
X184420000Y-34465000D01*
X184420000Y-34465000D02*
X186420000Y-34465000D01*
X186420000Y-30455000D02*
X186420000Y-34465000D01*
%TO.C,D21*%
X127270000Y-30455000D02*
X127270000Y-34465000D01*
X127270000Y-34465000D02*
X129270000Y-34465000D01*
X129270000Y-30455000D02*
X129270000Y-34465000D01*
%TO.C,D44*%
X37417500Y-68555000D02*
X37417500Y-72565000D01*
X37417500Y-72565000D02*
X39417500Y-72565000D01*
X39417500Y-68555000D02*
X39417500Y-72565000D01*
%TO.C,D23*%
X165370000Y-30455000D02*
X165370000Y-34465000D01*
X165370000Y-34465000D02*
X167370000Y-34465000D01*
X167370000Y-30455000D02*
X167370000Y-34465000D01*
%TO.C,D42*%
X282310000Y-17065000D02*
X282310000Y-21075000D01*
X282310000Y-21075000D02*
X284310000Y-21075000D01*
X284310000Y-17065000D02*
X284310000Y-21075000D01*
%TO.C,D36*%
X151082500Y-49505000D02*
X151082500Y-53515000D01*
X151082500Y-53515000D02*
X153082500Y-53515000D01*
X153082500Y-49505000D02*
X153082500Y-53515000D01*
%TO.C,D29*%
X27750000Y-46600000D02*
X27750000Y-50610000D01*
X27750000Y-50610000D02*
X29750000Y-50610000D01*
X29750000Y-46600000D02*
X29750000Y-50610000D01*
%TO.C,R4*%
X113778641Y-89320000D02*
X113471359Y-89320000D01*
X113778641Y-90080000D02*
X113471359Y-90080000D01*
%TO.C,C8*%
X113517164Y-90340000D02*
X113732836Y-90340000D01*
X113517164Y-91060000D02*
X113732836Y-91060000D01*
%TO.C,C9*%
X127740336Y-89940000D02*
X127524664Y-89940000D01*
X127740336Y-90660000D02*
X127524664Y-90660000D01*
%TO.C,J2*%
X93895000Y-80920000D02*
X95225000Y-80920000D01*
X93895000Y-82250000D02*
X93895000Y-80920000D01*
X96495000Y-83580000D02*
X96495000Y-80920000D01*
X99095000Y-80920000D02*
X96495000Y-80920000D01*
X99095000Y-83580000D02*
X96495000Y-83580000D01*
X99095000Y-83580000D02*
X99095000Y-80920000D01*
%TO.C,R1*%
X112958859Y-80230000D02*
X113266141Y-80230000D01*
X112958859Y-80990000D02*
X113266141Y-80990000D01*
%TO.C,D46*%
X65357500Y-68555000D02*
X65357500Y-72565000D01*
X65357500Y-72565000D02*
X67357500Y-72565000D01*
X67357500Y-68555000D02*
X67357500Y-72565000D01*
%TO.C,D50*%
X141557500Y-68555000D02*
X141557500Y-72565000D01*
X141557500Y-72565000D02*
X143557500Y-72565000D01*
X143557500Y-68555000D02*
X143557500Y-72565000D01*
%TO.C,D2*%
X32655000Y-7645000D02*
X32655000Y-3635000D01*
X34655000Y-3635000D02*
X32655000Y-3635000D01*
X34655000Y-7645000D02*
X34655000Y-3635000D01*
%TO.C,D38*%
X189182500Y-49505000D02*
X189182500Y-53515000D01*
X189182500Y-53515000D02*
X191182500Y-53515000D01*
X191182500Y-49505000D02*
X191182500Y-53515000D01*
%TO.C,D1*%
X3445000Y-7645000D02*
X3445000Y-3635000D01*
X5445000Y-3635000D02*
X3445000Y-3635000D01*
X5445000Y-7645000D02*
X5445000Y-3635000D01*
%TO.C,U2*%
X103925000Y-79790000D02*
X106650000Y-79790000D01*
X103925000Y-80050000D02*
X103925000Y-79790000D01*
X103925000Y-84980000D02*
X103925000Y-85240000D01*
X103925000Y-85240000D02*
X106650000Y-85240000D01*
X109375000Y-79790000D02*
X106650000Y-79790000D01*
X109375000Y-80050000D02*
X109375000Y-79790000D01*
X109375000Y-84980000D02*
X109375000Y-85240000D01*
X109375000Y-85240000D02*
X106650000Y-85240000D01*
X110157500Y-80050000D02*
X109917500Y-79720000D01*
X110397500Y-79720000D01*
X110157500Y-80050000D01*
G36*
X110157500Y-80050000D02*
G01*
X109917500Y-79720000D01*
X110397500Y-79720000D01*
X110157500Y-80050000D01*
G37*
%TO.C,D26*%
X222520000Y-30455000D02*
X222520000Y-34465000D01*
X222520000Y-34465000D02*
X224520000Y-34465000D01*
X224520000Y-30455000D02*
X224520000Y-34465000D01*
%TO.C,D56*%
X280305000Y-68555000D02*
X280305000Y-72565000D01*
X280305000Y-72565000D02*
X282305000Y-72565000D01*
X282305000Y-68555000D02*
X282305000Y-72565000D01*
%TO.C,D58*%
X32020000Y-87605000D02*
X32020000Y-91615000D01*
X32020000Y-91615000D02*
X34020000Y-91615000D01*
X34020000Y-87605000D02*
X34020000Y-91615000D01*
%TO.C,C7*%
X113004664Y-86540000D02*
X113220336Y-86540000D01*
X113004664Y-87260000D02*
X113220336Y-87260000D01*
%TO.C,D49*%
X122507500Y-68555000D02*
X122507500Y-72565000D01*
X122507500Y-72565000D02*
X124507500Y-72565000D01*
X124507500Y-68555000D02*
X124507500Y-72565000D01*
%TO.C,D61*%
X217757500Y-87605000D02*
X217757500Y-91615000D01*
X217757500Y-91615000D02*
X219757500Y-91615000D01*
X219757500Y-87605000D02*
X219757500Y-91615000D01*
%TO.C,C5*%
X120940000Y-81792164D02*
X120940000Y-82007836D01*
X121660000Y-81792164D02*
X121660000Y-82007836D01*
%TO.C,C2*%
X129607836Y-84690000D02*
X129392164Y-84690000D01*
X129607836Y-85410000D02*
X129392164Y-85410000D01*
%TO.C,D17*%
X51070000Y-30455000D02*
X51070000Y-34465000D01*
X51070000Y-34465000D02*
X53070000Y-34465000D01*
X53070000Y-30455000D02*
X53070000Y-34465000D01*
%TO.C,D43*%
X28516250Y-71215000D02*
X32526250Y-71215000D01*
X28516250Y-73215000D02*
X32526250Y-73215000D01*
X32526250Y-73215000D02*
X32526250Y-71215000D01*
%TO.C,Y1*%
X127500000Y-88950000D02*
X131500000Y-88950000D01*
X131500000Y-88950000D02*
X131500000Y-85650000D01*
%TO.C,U1*%
X86202500Y-82990000D02*
X86202500Y-86750000D01*
X87462500Y-82990000D02*
X86202500Y-82990000D01*
X91762500Y-82990000D02*
X93022500Y-82990000D01*
X93022500Y-82990000D02*
X93022500Y-86750000D01*
X93252500Y-88270000D02*
X92922500Y-88030000D01*
X93252500Y-87790000D01*
X93252500Y-88270000D01*
G36*
X93252500Y-88270000D02*
G01*
X92922500Y-88030000D01*
X93252500Y-87790000D01*
X93252500Y-88270000D01*
G37*
%TO.C,D10*%
X174895000Y-11405000D02*
X174895000Y-15415000D01*
X174895000Y-15415000D02*
X176895000Y-15415000D01*
X176895000Y-11405000D02*
X176895000Y-15415000D01*
%TO.C,D52*%
X179657500Y-68555000D02*
X179657500Y-72565000D01*
X179657500Y-72565000D02*
X181657500Y-72565000D01*
X181657500Y-68555000D02*
X181657500Y-72565000D01*
%TO.C,D13*%
X232045000Y-11405000D02*
X232045000Y-15415000D01*
X232045000Y-15415000D02*
X234045000Y-15415000D01*
X234045000Y-11405000D02*
X234045000Y-15415000D01*
%TO.C,D18*%
X70120000Y-30455000D02*
X70120000Y-34465000D01*
X70120000Y-34465000D02*
X72120000Y-34465000D01*
X72120000Y-30455000D02*
X72120000Y-34465000D01*
%TO.C,D28*%
X275723750Y-42680000D02*
X279733750Y-42680000D01*
X275723750Y-44680000D02*
X279733750Y-44680000D01*
X279733750Y-44680000D02*
X279733750Y-42680000D01*
%TO.C,D60*%
X136795000Y-87605000D02*
X136795000Y-91615000D01*
X136795000Y-91615000D02*
X138795000Y-91615000D01*
X138795000Y-87605000D02*
X138795000Y-91615000D01*
%TO.C,D33*%
X93932500Y-49505000D02*
X93932500Y-53515000D01*
X93932500Y-53515000D02*
X95932500Y-53515000D01*
X95932500Y-49505000D02*
X95932500Y-53515000D01*
%TO.C,D20*%
X108220000Y-30455000D02*
X108220000Y-34465000D01*
X108220000Y-34465000D02*
X110220000Y-34465000D01*
X110220000Y-30455000D02*
X110220000Y-34465000D01*
%TO.C,C14*%
X100442164Y-80250000D02*
X100657836Y-80250000D01*
X100442164Y-80970000D02*
X100657836Y-80970000D01*
%TO.C,D19*%
X89170000Y-30455000D02*
X89170000Y-34465000D01*
X89170000Y-34465000D02*
X91170000Y-34465000D01*
X91170000Y-30455000D02*
X91170000Y-34465000D01*
%TO.C,D32*%
X74882500Y-49505000D02*
X74882500Y-53515000D01*
X74882500Y-53515000D02*
X76882500Y-53515000D01*
X76882500Y-49505000D02*
X76882500Y-53515000D01*
%TO.C,D27*%
X241570000Y-30455000D02*
X241570000Y-34465000D01*
X241570000Y-34465000D02*
X243570000Y-34465000D01*
X243570000Y-30455000D02*
X243570000Y-34465000D01*
%TO.C,C11*%
X114890000Y-92287836D02*
X114890000Y-92072164D01*
X115610000Y-92287836D02*
X115610000Y-92072164D01*
%TO.C,D15*%
X8207500Y-30455000D02*
X8207500Y-34465000D01*
X8207500Y-34465000D02*
X10207500Y-34465000D01*
X10207500Y-30455000D02*
X10207500Y-34465000D01*
%TO.C,D45*%
X46307500Y-68555000D02*
X46307500Y-72565000D01*
X46307500Y-72565000D02*
X48307500Y-72565000D01*
X48307500Y-68555000D02*
X48307500Y-72565000D01*
%TO.C,D6*%
X98695000Y-11405000D02*
X98695000Y-15415000D01*
X98695000Y-15415000D02*
X100695000Y-15415000D01*
X100695000Y-11405000D02*
X100695000Y-15415000D01*
%TO.C,R7*%
X20420000Y-9608641D02*
X20420000Y-9301359D01*
X21180000Y-9608641D02*
X21180000Y-9301359D01*
%TO.C,D59*%
X55832500Y-87605000D02*
X55832500Y-91615000D01*
X55832500Y-91615000D02*
X57832500Y-91615000D01*
X57832500Y-87605000D02*
X57832500Y-91615000D01*
%TO.C,D35*%
X132032500Y-49505000D02*
X132032500Y-53515000D01*
X132032500Y-53515000D02*
X134032500Y-53515000D01*
X134032500Y-49505000D02*
X134032500Y-53515000D01*
%TO.C,D3*%
X41545000Y-11405000D02*
X41545000Y-15415000D01*
X41545000Y-15415000D02*
X43545000Y-15415000D01*
X43545000Y-11405000D02*
X43545000Y-15415000D01*
%TO.C,D9*%
X155845000Y-11405000D02*
X155845000Y-15415000D01*
X155845000Y-15415000D02*
X157845000Y-15415000D01*
X157845000Y-11405000D02*
X157845000Y-15415000D01*
%TO.C,C12*%
X116252500Y-82042164D02*
X116252500Y-82257836D01*
X116972500Y-82042164D02*
X116972500Y-82257836D01*
%TO.C,D39*%
X208232500Y-49505000D02*
X208232500Y-53515000D01*
X208232500Y-53515000D02*
X210232500Y-53515000D01*
X210232500Y-49505000D02*
X210232500Y-53515000D01*
%TO.C,C3*%
X131790000Y-87192164D02*
X131790000Y-87407836D01*
X132510000Y-87192164D02*
X132510000Y-87407836D01*
%TO.C,C4*%
X93502500Y-87677836D02*
X93502500Y-87462164D01*
X94222500Y-87677836D02*
X94222500Y-87462164D01*
%TO.C,C16*%
X120142164Y-92040000D02*
X120357836Y-92040000D01*
X120142164Y-92760000D02*
X120357836Y-92760000D01*
%TO.C,D48*%
X103457500Y-68555000D02*
X103457500Y-72565000D01*
X103457500Y-72565000D02*
X105457500Y-72565000D01*
X105457500Y-68555000D02*
X105457500Y-72565000D01*
%TO.C,D31*%
X55832500Y-49505000D02*
X55832500Y-53515000D01*
X55832500Y-53515000D02*
X57832500Y-53515000D01*
X57832500Y-49505000D02*
X57832500Y-53515000D01*
%TO.C,D5*%
X79645000Y-11405000D02*
X79645000Y-15415000D01*
X79645000Y-15415000D02*
X81645000Y-15415000D01*
X81645000Y-11405000D02*
X81645000Y-15415000D01*
%TO.C,D8*%
X136795000Y-11405000D02*
X136795000Y-15415000D01*
X136795000Y-15415000D02*
X138795000Y-15415000D01*
X138795000Y-11405000D02*
X138795000Y-15415000D01*
%TO.C,J1*%
X14380000Y-5475000D02*
X14380000Y-3775000D01*
X23720000Y-5475000D02*
X23720000Y-3775000D01*
%TO.C,C15*%
X110004664Y-87540000D02*
X110220336Y-87540000D01*
X110004664Y-88260000D02*
X110220336Y-88260000D01*
%TO.C,D11*%
X193945000Y-11405000D02*
X193945000Y-15415000D01*
X193945000Y-15415000D02*
X195945000Y-15415000D01*
X195945000Y-11405000D02*
X195945000Y-15415000D01*
%TO.C,D51*%
X160607500Y-68555000D02*
X160607500Y-72565000D01*
X160607500Y-72565000D02*
X162607500Y-72565000D01*
X162607500Y-68555000D02*
X162607500Y-72565000D01*
%TO.C,D53*%
X198707500Y-68555000D02*
X198707500Y-72565000D01*
X198707500Y-72565000D02*
X200707500Y-72565000D01*
X200707500Y-68555000D02*
X200707500Y-72565000D01*
%TO.C,D41*%
X246332500Y-49505000D02*
X246332500Y-53515000D01*
X246332500Y-53515000D02*
X248332500Y-53515000D01*
X248332500Y-49505000D02*
X248332500Y-53515000D01*
%TO.C,D30*%
X36782500Y-49505000D02*
X36782500Y-53515000D01*
X36782500Y-53515000D02*
X38782500Y-53515000D01*
X38782500Y-49505000D02*
X38782500Y-53515000D01*
%TO.C,U3*%
X116452500Y-84390000D02*
X116452500Y-84740000D01*
X116452500Y-91310000D02*
X116452500Y-90660000D01*
X116692500Y-84090000D02*
X117102500Y-84090000D01*
X117102500Y-91310000D02*
X116452500Y-91310000D01*
X123022500Y-84090000D02*
X123672500Y-84090000D01*
X123022500Y-91310000D02*
X123672500Y-91310000D01*
X123672500Y-84090000D02*
X123672500Y-84740000D01*
X123672500Y-91310000D02*
X123672500Y-90660000D01*
X116452500Y-84090000D02*
X116122500Y-84330000D01*
X116122500Y-83850000D01*
X116452500Y-84090000D01*
G36*
X116452500Y-84090000D02*
G01*
X116122500Y-84330000D01*
X116122500Y-83850000D01*
X116452500Y-84090000D01*
G37*
%TO.C,D47*%
X84407500Y-68555000D02*
X84407500Y-72565000D01*
X84407500Y-72565000D02*
X86407500Y-72565000D01*
X86407500Y-68555000D02*
X86407500Y-72565000D01*
%TO.C,D7*%
X117745000Y-11405000D02*
X117745000Y-15415000D01*
X117745000Y-15415000D02*
X119745000Y-15415000D01*
X119745000Y-11405000D02*
X119745000Y-15415000D01*
%TO.C,R5*%
X129346359Y-89170000D02*
X129653641Y-89170000D01*
X129346359Y-89930000D02*
X129653641Y-89930000D01*
%TO.C,D54*%
X217757500Y-68555000D02*
X217757500Y-72565000D01*
X217757500Y-72565000D02*
X219757500Y-72565000D01*
X219757500Y-68555000D02*
X219757500Y-72565000D01*
%TO.C,D14*%
X251095000Y-7645000D02*
X251095000Y-3635000D01*
X253095000Y-3635000D02*
X251095000Y-3635000D01*
X253095000Y-7645000D02*
X253095000Y-3635000D01*
%TO.C,D34*%
X112982500Y-49505000D02*
X112982500Y-53515000D01*
X112982500Y-53515000D02*
X114982500Y-53515000D01*
X114982500Y-49505000D02*
X114982500Y-53515000D01*
%TO.C,D55*%
X243951250Y-68555000D02*
X243951250Y-72565000D01*
X243951250Y-72565000D02*
X245951250Y-72565000D01*
X245951250Y-68555000D02*
X245951250Y-72565000D01*
%TO.C,D62*%
X241570000Y-87605000D02*
X241570000Y-91615000D01*
X241570000Y-91615000D02*
X243570000Y-91615000D01*
X243570000Y-87605000D02*
X243570000Y-91615000D01*
%TO.C,D4*%
X60595000Y-11405000D02*
X60595000Y-15415000D01*
X60595000Y-15415000D02*
X62595000Y-15415000D01*
X62595000Y-11405000D02*
X62595000Y-15415000D01*
%TO.C,C10*%
X113517164Y-91340000D02*
X113732836Y-91340000D01*
X113517164Y-92060000D02*
X113732836Y-92060000D01*
%TD*%
M02*
