%TF.GenerationSoftware,KiCad,Pcbnew,8.0.4*%
%TF.CreationDate,2024-09-09T16:00:28+08:00*%
%TF.ProjectId,PH60_Rev3,50483630-5f52-4657-9633-2e6b69636164,rev?*%
%TF.SameCoordinates,PX1b40518PY1b40518*%
%TF.FileFunction,Paste,Bot*%
%TF.FilePolarity,Positive*%
%FSLAX46Y46*%
G04 Gerber Fmt 4.6, Leading zero omitted, Abs format (unit mm)*
G04 Created by KiCad (PCBNEW 8.0.4) date 2024-09-09 16:00:28*
%MOMM*%
%LPD*%
G01*
G04 APERTURE LIST*
G04 Aperture macros list*
%AMRoundRect*
0 Rectangle with rounded corners*
0 $1 Rounding radius*
0 $2 $3 $4 $5 $6 $7 $8 $9 X,Y pos of 4 corners*
0 Add a 4 corners polygon primitive as box body*
4,1,4,$2,$3,$4,$5,$6,$7,$8,$9,$2,$3,0*
0 Add four circle primitives for the rounded corners*
1,1,$1+$1,$2,$3*
1,1,$1+$1,$4,$5*
1,1,$1+$1,$6,$7*
1,1,$1+$1,$8,$9*
0 Add four rect primitives between the rounded corners*
20,1,$1+$1,$2,$3,$4,$5,0*
20,1,$1+$1,$4,$5,$6,$7,0*
20,1,$1+$1,$6,$7,$8,$9,0*
20,1,$1+$1,$8,$9,$2,$3,0*%
G04 Aperture macros list end*
%ADD10RoundRect,0.250000X-1.025000X-1.000000X1.025000X-1.000000X1.025000X1.000000X-1.025000X1.000000X0*%
%ADD11RoundRect,0.250000X1.000000X-1.025000X1.000000X1.025000X-1.000000X1.025000X-1.000000X-1.025000X0*%
%ADD12RoundRect,0.250000X1.025000X1.000000X-1.025000X1.000000X-1.025000X-1.000000X1.025000X-1.000000X0*%
%ADD13RoundRect,0.250000X-1.000000X1.025000X-1.000000X-1.025000X1.000000X-1.025000X1.000000X1.025000X0*%
%ADD14RoundRect,0.140000X-0.140000X-0.170000X0.140000X-0.170000X0.140000X0.170000X-0.140000X0.170000X0*%
%ADD15RoundRect,0.225000X0.375000X-0.225000X0.375000X0.225000X-0.375000X0.225000X-0.375000X-0.225000X0*%
%ADD16RoundRect,0.135000X-0.185000X0.135000X-0.185000X-0.135000X0.185000X-0.135000X0.185000X0.135000X0*%
%ADD17RoundRect,0.135000X-0.135000X-0.185000X0.135000X-0.185000X0.135000X0.185000X-0.135000X0.185000X0*%
%ADD18RoundRect,0.140000X0.140000X0.170000X-0.140000X0.170000X-0.140000X-0.170000X0.140000X-0.170000X0*%
%ADD19RoundRect,0.135000X0.135000X0.185000X-0.135000X0.185000X-0.135000X-0.185000X0.135000X-0.185000X0*%
%ADD20RoundRect,0.225000X-0.375000X0.225000X-0.375000X-0.225000X0.375000X-0.225000X0.375000X0.225000X0*%
%ADD21RoundRect,0.150000X0.650000X0.150000X-0.650000X0.150000X-0.650000X-0.150000X0.650000X-0.150000X0*%
%ADD22RoundRect,0.140000X0.170000X-0.140000X0.170000X0.140000X-0.170000X0.140000X-0.170000X-0.140000X0*%
%ADD23RoundRect,0.225000X0.225000X0.375000X-0.225000X0.375000X-0.225000X-0.375000X0.225000X-0.375000X0*%
%ADD24R,1.400000X1.200000*%
%ADD25RoundRect,0.375000X0.375000X-0.625000X0.375000X0.625000X-0.375000X0.625000X-0.375000X-0.625000X0*%
%ADD26RoundRect,0.500000X1.400000X-0.500000X1.400000X0.500000X-1.400000X0.500000X-1.400000X-0.500000X0*%
%ADD27RoundRect,0.140000X-0.170000X0.140000X-0.170000X-0.140000X0.170000X-0.140000X0.170000X0.140000X0*%
%ADD28RoundRect,0.150000X-0.150000X-0.425000X0.150000X-0.425000X0.150000X0.425000X-0.150000X0.425000X0*%
%ADD29RoundRect,0.075000X-0.075000X-0.500000X0.075000X-0.500000X0.075000X0.500000X-0.075000X0.500000X0*%
%ADD30O,1.000000X1.800000*%
%ADD31O,1.000000X2.100000*%
%ADD32RoundRect,0.249999X-0.395001X0.395001X-0.395001X-0.395001X0.395001X-0.395001X0.395001X0.395001X0*%
%ADD33RoundRect,0.050000X-0.050000X0.387500X-0.050000X-0.387500X0.050000X-0.387500X0.050000X0.387500X0*%
%ADD34RoundRect,0.050000X-0.387500X0.050000X-0.387500X-0.050000X0.387500X-0.050000X0.387500X0.050000X0*%
G04 APERTURE END LIST*
D10*
%TO.C,S52*%
X178652500Y-64135000D03*
X191579500Y-61595000D03*
%TD*%
%TO.C,S16*%
X31015000Y-26035000D03*
X43942000Y-23495000D03*
%TD*%
D11*
%TO.C,S29*%
X9366250Y-54710000D03*
X6826250Y-41783000D03*
%TD*%
D10*
%TO.C,S10*%
X173890000Y-6985000D03*
X186817000Y-4445000D03*
%TD*%
%TO.C,S14*%
X259615000Y-6985000D03*
X272542000Y-4445000D03*
%TD*%
%TO.C,S63*%
X264377500Y-83185000D03*
X277304500Y-80645000D03*
%TD*%
%TO.C,S24*%
X183415000Y-26035000D03*
X196342000Y-23495000D03*
%TD*%
%TO.C,S61*%
X216752500Y-83185000D03*
X229679500Y-80645000D03*
%TD*%
%TO.C,S47*%
X83402500Y-64135000D03*
X96329500Y-61595000D03*
%TD*%
D12*
%TO.C,S41*%
X271403750Y-50165000D03*
X258476750Y-52705000D03*
%TD*%
D10*
%TO.C,S30*%
X35777500Y-45085000D03*
X48704500Y-42545000D03*
%TD*%
D11*
%TO.C,S28*%
X271303750Y-45185000D03*
X268763750Y-32258000D03*
%TD*%
D12*
%TO.C,S43*%
X28516250Y-69215000D03*
X15589250Y-71755000D03*
%TD*%
D10*
%TO.C,S33*%
X92927500Y-45085000D03*
X105854500Y-42545000D03*
%TD*%
%TO.C,S7*%
X116740000Y-6985000D03*
X129667000Y-4445000D03*
%TD*%
%TO.C,S23*%
X164365000Y-26035000D03*
X177292000Y-23495000D03*
%TD*%
%TO.C,S26*%
X221515000Y-26035000D03*
X234442000Y-23495000D03*
%TD*%
%TO.C,S48*%
X102452500Y-64135000D03*
X115379500Y-61595000D03*
%TD*%
%TO.C,S50*%
X140552500Y-64135000D03*
X153479500Y-61595000D03*
%TD*%
%TO.C,S62*%
X240565000Y-83185000D03*
X253492000Y-80645000D03*
%TD*%
%TO.C,S55*%
X242946250Y-64135000D03*
X255873250Y-61595000D03*
%TD*%
D13*
%TO.C,S28*%
X274002500Y-21490000D03*
X276542500Y-34417000D03*
%TD*%
%TO.C,S29*%
X19208750Y-40540000D03*
X21748750Y-53467000D03*
%TD*%
D10*
%TO.C,S36*%
X150077500Y-45085000D03*
X163004500Y-42545000D03*
%TD*%
%TO.C,S53*%
X197702500Y-64135000D03*
X210629500Y-61595000D03*
%TD*%
%TO.C,S4*%
X59590000Y-6985000D03*
X72517000Y-4445000D03*
%TD*%
%TO.C,S11*%
X192940000Y-6985000D03*
X205867000Y-4445000D03*
%TD*%
%TO.C,S3*%
X40540000Y-6985000D03*
X53467000Y-4445000D03*
%TD*%
%TO.C,S37*%
X169127500Y-45085000D03*
X182054500Y-42545000D03*
%TD*%
%TO.C,S27*%
X240565000Y-26035000D03*
X253492000Y-23495000D03*
%TD*%
%TO.C,S13*%
X231040000Y-6985000D03*
X243967000Y-4445000D03*
%TD*%
%TO.C,S49*%
X121502500Y-64135000D03*
X134429500Y-61595000D03*
%TD*%
%TO.C,S38*%
X188177500Y-45085000D03*
X201104500Y-42545000D03*
%TD*%
%TO.C,S5*%
X78640000Y-6985000D03*
X91567000Y-4445000D03*
%TD*%
%TO.C,S54*%
X216752500Y-64135000D03*
X229679500Y-61595000D03*
%TD*%
%TO.C,S41*%
X245327500Y-45085000D03*
X258254500Y-42545000D03*
%TD*%
D12*
%TO.C,S1*%
X16610000Y-12065000D03*
X3683000Y-14605000D03*
%TD*%
D10*
%TO.C,S39*%
X207227500Y-45085000D03*
X220154500Y-42545000D03*
%TD*%
%TO.C,S8*%
X135790000Y-6985000D03*
X148717000Y-4445000D03*
%TD*%
%TO.C,S9*%
X154840000Y-6985000D03*
X167767000Y-4445000D03*
%TD*%
%TO.C,S59*%
X54827500Y-83185000D03*
X67754500Y-80645000D03*
%TD*%
%TO.C,S32*%
X73877500Y-45085000D03*
X86804500Y-42545000D03*
%TD*%
%TO.C,S17*%
X50065000Y-26035000D03*
X62992000Y-23495000D03*
%TD*%
D12*
%TO.C,S2*%
X35660000Y-12065000D03*
X22733000Y-14605000D03*
%TD*%
D10*
%TO.C,S58*%
X31015000Y-83185000D03*
X43942000Y-80645000D03*
%TD*%
D12*
%TO.C,S14*%
X264260000Y-12065000D03*
X251333000Y-14605000D03*
%TD*%
D10*
%TO.C,S15*%
X7202500Y-26035000D03*
X20129500Y-23495000D03*
%TD*%
%TO.C,S51*%
X159602500Y-64135000D03*
X172529500Y-61595000D03*
%TD*%
%TO.C,S34*%
X111977500Y-45085000D03*
X124904500Y-42545000D03*
%TD*%
%TO.C,S40*%
X226277500Y-45085000D03*
X239204500Y-42545000D03*
%TD*%
%TO.C,S12*%
X211990000Y-6985000D03*
X224917000Y-4445000D03*
%TD*%
%TO.C,S57*%
X7202500Y-83185000D03*
X20129500Y-80645000D03*
%TD*%
%TO.C,S18*%
X69115000Y-26035000D03*
X82042000Y-23495000D03*
%TD*%
%TO.C,S35*%
X131027500Y-45085000D03*
X143954500Y-42545000D03*
%TD*%
%TO.C,S45*%
X45302500Y-64135000D03*
X58229500Y-61595000D03*
%TD*%
%TO.C,S21*%
X126265000Y-26035000D03*
X139192000Y-23495000D03*
%TD*%
%TO.C,S22*%
X145315000Y-26035000D03*
X158242000Y-23495000D03*
%TD*%
%TO.C,S56*%
X269140000Y-64135000D03*
X282067000Y-61595000D03*
%TD*%
D12*
%TO.C,S42*%
X283310000Y-12065000D03*
X270383000Y-14605000D03*
%TD*%
D10*
%TO.C,S60*%
X135790000Y-83185000D03*
X148717000Y-80645000D03*
%TD*%
%TO.C,S46*%
X64352500Y-64135000D03*
X77279500Y-61595000D03*
%TD*%
D12*
%TO.C,S55*%
X266641250Y-69215000D03*
X253714250Y-71755000D03*
%TD*%
D10*
%TO.C,S19*%
X88165000Y-26035000D03*
X101092000Y-23495000D03*
%TD*%
%TO.C,S44*%
X26252500Y-64135000D03*
X39179500Y-61595000D03*
%TD*%
%TO.C,S20*%
X107215000Y-26035000D03*
X120142000Y-23495000D03*
%TD*%
%TO.C,S43*%
X4821250Y-64135000D03*
X17748250Y-61595000D03*
%TD*%
%TO.C,S6*%
X97690000Y-6985000D03*
X110617000Y-4445000D03*
%TD*%
%TO.C,S31*%
X54827500Y-45085000D03*
X67754500Y-42545000D03*
%TD*%
%TO.C,S25*%
X202465000Y-26035000D03*
X215392000Y-23495000D03*
%TD*%
D14*
%TO.C,C1*%
X89132500Y-89900000D03*
X90092500Y-89900000D03*
%TD*%
D15*
%TO.C,D40*%
X228282500Y-52805000D03*
X228282500Y-49505000D03*
%TD*%
%TO.C,D57*%
X9207500Y-90905000D03*
X9207500Y-87605000D03*
%TD*%
D16*
%TO.C,R6*%
X17800000Y-8945000D03*
X17800000Y-9965000D03*
%TD*%
D15*
%TO.C,D12*%
X213995000Y-14705000D03*
X213995000Y-11405000D03*
%TD*%
%TO.C,D37*%
X171132500Y-52805000D03*
X171132500Y-49505000D03*
%TD*%
%TO.C,D22*%
X147320000Y-33755000D03*
X147320000Y-30455000D03*
%TD*%
%TO.C,D25*%
X204470000Y-33755000D03*
X204470000Y-30455000D03*
%TD*%
%TO.C,D16*%
X33020000Y-33755000D03*
X33020000Y-30455000D03*
%TD*%
%TO.C,D63*%
X266382500Y-90905000D03*
X266382500Y-87605000D03*
%TD*%
D14*
%TO.C,C6*%
X127152500Y-91300000D03*
X128112500Y-91300000D03*
%TD*%
D17*
%TO.C,R3*%
X113115000Y-88700000D03*
X114135000Y-88700000D03*
%TD*%
D14*
%TO.C,C13*%
X117770000Y-92400000D03*
X118730000Y-92400000D03*
%TD*%
D15*
%TO.C,D24*%
X185420000Y-33755000D03*
X185420000Y-30455000D03*
%TD*%
%TO.C,D21*%
X128270000Y-33755000D03*
X128270000Y-30455000D03*
%TD*%
%TO.C,D44*%
X38417500Y-71855000D03*
X38417500Y-68555000D03*
%TD*%
%TO.C,D23*%
X166370000Y-33755000D03*
X166370000Y-30455000D03*
%TD*%
%TO.C,D42*%
X283310000Y-20365000D03*
X283310000Y-17065000D03*
%TD*%
%TO.C,D36*%
X152082500Y-52805000D03*
X152082500Y-49505000D03*
%TD*%
%TO.C,D29*%
X28750000Y-49900000D03*
X28750000Y-46600000D03*
%TD*%
D17*
%TO.C,R4*%
X113115000Y-89700000D03*
X114135000Y-89700000D03*
%TD*%
D18*
%TO.C,C8*%
X114105000Y-90700000D03*
X113145000Y-90700000D03*
%TD*%
D14*
%TO.C,C9*%
X127152500Y-90300000D03*
X128112500Y-90300000D03*
%TD*%
D19*
%TO.C,R1*%
X113622500Y-80610000D03*
X112602500Y-80610000D03*
%TD*%
D15*
%TO.C,D46*%
X66357500Y-71855000D03*
X66357500Y-68555000D03*
%TD*%
%TO.C,D50*%
X142557500Y-71855000D03*
X142557500Y-68555000D03*
%TD*%
D20*
%TO.C,D2*%
X33655000Y-4345000D03*
X33655000Y-7645000D03*
%TD*%
D15*
%TO.C,D38*%
X190182500Y-52805000D03*
X190182500Y-49505000D03*
%TD*%
D20*
%TO.C,D1*%
X4445000Y-4345000D03*
X4445000Y-7645000D03*
%TD*%
D21*
%TO.C,U2*%
X110250000Y-80610000D03*
X110250000Y-81880000D03*
X110250000Y-83150000D03*
X110250000Y-84420000D03*
X103050000Y-84420000D03*
X103050000Y-83150000D03*
X103050000Y-81880000D03*
X103050000Y-80610000D03*
%TD*%
D15*
%TO.C,D26*%
X223520000Y-33755000D03*
X223520000Y-30455000D03*
%TD*%
%TO.C,D56*%
X281305000Y-71855000D03*
X281305000Y-68555000D03*
%TD*%
%TO.C,D58*%
X33020000Y-90905000D03*
X33020000Y-87605000D03*
%TD*%
D18*
%TO.C,C7*%
X113592500Y-86900000D03*
X112632500Y-86900000D03*
%TD*%
D15*
%TO.C,D49*%
X123507500Y-71855000D03*
X123507500Y-68555000D03*
%TD*%
%TO.C,D61*%
X218757500Y-90905000D03*
X218757500Y-87605000D03*
%TD*%
D22*
%TO.C,C5*%
X121300000Y-82380000D03*
X121300000Y-81420000D03*
%TD*%
D14*
%TO.C,C2*%
X129020000Y-85050000D03*
X129980000Y-85050000D03*
%TD*%
D15*
%TO.C,D17*%
X52070000Y-33755000D03*
X52070000Y-30455000D03*
%TD*%
D23*
%TO.C,D43*%
X31816250Y-72215000D03*
X28516250Y-72215000D03*
%TD*%
D24*
%TO.C,Y1*%
X130600000Y-88150000D03*
X128400000Y-88150000D03*
X128400000Y-86450000D03*
X130600000Y-86450000D03*
%TD*%
D25*
%TO.C,U1*%
X91912500Y-88050000D03*
X89612500Y-88050000D03*
X87312500Y-88050000D03*
D26*
X89612500Y-81750000D03*
%TD*%
D15*
%TO.C,D10*%
X175895000Y-14705000D03*
X175895000Y-11405000D03*
%TD*%
%TO.C,D52*%
X180657500Y-71855000D03*
X180657500Y-68555000D03*
%TD*%
%TO.C,D13*%
X233045000Y-14705000D03*
X233045000Y-11405000D03*
%TD*%
%TO.C,D18*%
X71120000Y-33755000D03*
X71120000Y-30455000D03*
%TD*%
D23*
%TO.C,D28*%
X279023750Y-43680000D03*
X275723750Y-43680000D03*
%TD*%
D15*
%TO.C,D60*%
X137795000Y-90905000D03*
X137795000Y-87605000D03*
%TD*%
%TO.C,D33*%
X94932500Y-52805000D03*
X94932500Y-49505000D03*
%TD*%
%TO.C,D20*%
X109220000Y-33755000D03*
X109220000Y-30455000D03*
%TD*%
D18*
%TO.C,C14*%
X101030000Y-80610000D03*
X100070000Y-80610000D03*
%TD*%
D15*
%TO.C,D19*%
X90170000Y-33755000D03*
X90170000Y-30455000D03*
%TD*%
%TO.C,D32*%
X75882500Y-52805000D03*
X75882500Y-49505000D03*
%TD*%
%TO.C,D27*%
X242570000Y-33755000D03*
X242570000Y-30455000D03*
%TD*%
D27*
%TO.C,C11*%
X115250000Y-91700000D03*
X115250000Y-92660000D03*
%TD*%
D15*
%TO.C,D15*%
X9207500Y-33755000D03*
X9207500Y-30455000D03*
%TD*%
%TO.C,D45*%
X47307500Y-71855000D03*
X47307500Y-68555000D03*
%TD*%
%TO.C,D6*%
X99695000Y-14705000D03*
X99695000Y-11405000D03*
%TD*%
D16*
%TO.C,R7*%
X20800000Y-8945000D03*
X20800000Y-9965000D03*
%TD*%
D15*
%TO.C,D59*%
X56832500Y-90905000D03*
X56832500Y-87605000D03*
%TD*%
%TO.C,D35*%
X133032500Y-52805000D03*
X133032500Y-49505000D03*
%TD*%
%TO.C,D3*%
X42545000Y-14705000D03*
X42545000Y-11405000D03*
%TD*%
%TO.C,D9*%
X156845000Y-14705000D03*
X156845000Y-11405000D03*
%TD*%
D22*
%TO.C,C12*%
X116612500Y-82630000D03*
X116612500Y-81670000D03*
%TD*%
D15*
%TO.C,D39*%
X209232500Y-52805000D03*
X209232500Y-49505000D03*
%TD*%
D22*
%TO.C,C3*%
X132150000Y-87780000D03*
X132150000Y-86820000D03*
%TD*%
D27*
%TO.C,C4*%
X93862500Y-87090000D03*
X93862500Y-88050000D03*
%TD*%
D18*
%TO.C,C16*%
X120730000Y-92400000D03*
X119770000Y-92400000D03*
%TD*%
D15*
%TO.C,D48*%
X104457500Y-71855000D03*
X104457500Y-68555000D03*
%TD*%
%TO.C,D31*%
X56832500Y-52805000D03*
X56832500Y-49505000D03*
%TD*%
%TO.C,D5*%
X80645000Y-14705000D03*
X80645000Y-11405000D03*
%TD*%
%TO.C,D8*%
X137795000Y-14705000D03*
X137795000Y-11405000D03*
%TD*%
D28*
%TO.C,J1*%
X15850000Y-7355000D03*
X16650000Y-7355000D03*
D29*
X17800000Y-7355000D03*
X18800000Y-7355000D03*
X19300000Y-7355000D03*
X20300000Y-7355000D03*
D28*
X21450000Y-7355000D03*
X22250000Y-7355000D03*
X22250000Y-7355000D03*
X21450000Y-7355000D03*
D29*
X20800000Y-7355000D03*
X19800000Y-7355000D03*
X18300000Y-7355000D03*
X17300000Y-7355000D03*
D28*
X16650000Y-7355000D03*
X15850000Y-7355000D03*
D30*
X14730000Y-2600000D03*
D31*
X14730000Y-6780000D03*
D30*
X23370000Y-2600000D03*
D31*
X23370000Y-6780000D03*
%TD*%
D18*
%TO.C,C15*%
X110592500Y-87900000D03*
X109632500Y-87900000D03*
%TD*%
D15*
%TO.C,D11*%
X194945000Y-14705000D03*
X194945000Y-11405000D03*
%TD*%
%TO.C,D51*%
X161607500Y-71855000D03*
X161607500Y-68555000D03*
%TD*%
%TO.C,D53*%
X199707500Y-71855000D03*
X199707500Y-68555000D03*
%TD*%
%TO.C,D41*%
X247332500Y-52805000D03*
X247332500Y-49505000D03*
%TD*%
%TO.C,D30*%
X37782500Y-52805000D03*
X37782500Y-49505000D03*
%TD*%
D32*
%TO.C,U3*%
X120862500Y-86900000D03*
X119262500Y-86900000D03*
X120862500Y-88500000D03*
X119262500Y-88500000D03*
D33*
X117462500Y-84262500D03*
X117862500Y-84262500D03*
X118262500Y-84262500D03*
X118662500Y-84262500D03*
X119062500Y-84262500D03*
X119462500Y-84262500D03*
X119862500Y-84262500D03*
X120262500Y-84262500D03*
X120662500Y-84262500D03*
X121062500Y-84262500D03*
X121462500Y-84262500D03*
X121862500Y-84262500D03*
X122262500Y-84262500D03*
X122662500Y-84262500D03*
D34*
X123500000Y-85100000D03*
X123500000Y-85500000D03*
X123500000Y-85900000D03*
X123500000Y-86300000D03*
X123500000Y-86700000D03*
X123500000Y-87100000D03*
X123500000Y-87500000D03*
X123500000Y-87900000D03*
X123500000Y-88300000D03*
X123500000Y-88700000D03*
X123500000Y-89100000D03*
X123500000Y-89500000D03*
X123500000Y-89900000D03*
X123500000Y-90300000D03*
D33*
X122662500Y-91137500D03*
X122262500Y-91137500D03*
X121862500Y-91137500D03*
X121462500Y-91137500D03*
X121062500Y-91137500D03*
X120662500Y-91137500D03*
X120262500Y-91137500D03*
X119862500Y-91137500D03*
X119462500Y-91137500D03*
X119062500Y-91137500D03*
X118662500Y-91137500D03*
X118262500Y-91137500D03*
X117862500Y-91137500D03*
X117462500Y-91137500D03*
D34*
X116625000Y-90300000D03*
X116625000Y-89900000D03*
X116625000Y-89500000D03*
X116625000Y-89100000D03*
X116625000Y-88700000D03*
X116625000Y-88300000D03*
X116625000Y-87900000D03*
X116625000Y-87500000D03*
X116625000Y-87100000D03*
X116625000Y-86700000D03*
X116625000Y-86300000D03*
X116625000Y-85900000D03*
X116625000Y-85500000D03*
X116625000Y-85100000D03*
%TD*%
D15*
%TO.C,D47*%
X85407500Y-71855000D03*
X85407500Y-68555000D03*
%TD*%
%TO.C,D7*%
X118745000Y-14705000D03*
X118745000Y-11405000D03*
%TD*%
D19*
%TO.C,R5*%
X130010000Y-89550000D03*
X128990000Y-89550000D03*
%TD*%
D15*
%TO.C,D54*%
X218757500Y-71855000D03*
X218757500Y-68555000D03*
%TD*%
D20*
%TO.C,D14*%
X252095000Y-4345000D03*
X252095000Y-7645000D03*
%TD*%
D15*
%TO.C,D34*%
X113982500Y-52805000D03*
X113982500Y-49505000D03*
%TD*%
%TO.C,D55*%
X244951250Y-71855000D03*
X244951250Y-68555000D03*
%TD*%
%TO.C,D62*%
X242570000Y-90905000D03*
X242570000Y-87605000D03*
%TD*%
%TO.C,D4*%
X61595000Y-14705000D03*
X61595000Y-11405000D03*
%TD*%
D18*
%TO.C,C10*%
X114105000Y-91700000D03*
X113145000Y-91700000D03*
%TD*%
M02*
