%TF.GenerationSoftware,KiCad,Pcbnew,8.0.4*%
%TF.CreationDate,2024-09-09T16:00:28+08:00*%
%TF.ProjectId,PH60_Rev3,50483630-5f52-4657-9633-2e6b69636164,rev?*%
%TF.SameCoordinates,PX1b40518PY1b40518*%
%TF.FileFunction,Soldermask,Top*%
%TF.FilePolarity,Negative*%
%FSLAX46Y46*%
G04 Gerber Fmt 4.6, Leading zero omitted, Abs format (unit mm)*
G04 Created by KiCad (PCBNEW 8.0.4) date 2024-09-09 16:00:28*
%MOMM*%
%LPD*%
G01*
G04 APERTURE LIST*
%ADD10C,3.048000*%
%ADD11C,3.987800*%
%ADD12C,1.750000*%
%ADD13C,3.050000*%
%ADD14C,4.000000*%
%ADD15R,1.700000X1.700000*%
%ADD16O,1.700000X1.700000*%
%ADD17C,0.650000*%
%ADD18O,1.000000X1.800000*%
%ADD19O,1.000000X2.100000*%
G04 APERTURE END LIST*
D10*
%TO.C,REF\u002A\u002A*%
X200025000Y-92710000D03*
D11*
X200025000Y-77500000D03*
D10*
X85725000Y-92710000D03*
D11*
X85725000Y-77500000D03*
%TD*%
D12*
%TO.C,S52*%
X180657500Y-66675000D03*
D13*
X181927500Y-64135000D03*
D14*
X185737500Y-66675000D03*
D13*
X188277500Y-61595000D03*
D12*
X190817500Y-66675000D03*
%TD*%
%TO.C,S16*%
X33020000Y-28575000D03*
D13*
X34290000Y-26035000D03*
D14*
X38100000Y-28575000D03*
D13*
X40640000Y-23495000D03*
D12*
X43180000Y-28575000D03*
%TD*%
%TO.C,S29*%
X11906250Y-52705000D03*
D13*
X9366250Y-51435000D03*
D14*
X11906250Y-47625000D03*
D13*
X6826250Y-45085000D03*
D12*
X11906250Y-42545000D03*
%TD*%
%TO.C,S10*%
X175895000Y-9525000D03*
D13*
X177165000Y-6985000D03*
D14*
X180975000Y-9525000D03*
D13*
X183515000Y-4445000D03*
D12*
X186055000Y-9525000D03*
%TD*%
%TO.C,S14*%
X261620000Y-9525000D03*
D13*
X262890000Y-6985000D03*
D14*
X266700000Y-9525000D03*
D13*
X269240000Y-4445000D03*
D12*
X271780000Y-9525000D03*
%TD*%
%TO.C,S63*%
X266382500Y-85725000D03*
D13*
X267652500Y-83185000D03*
D14*
X271462500Y-85725000D03*
D13*
X274002500Y-80645000D03*
D12*
X276542500Y-85725000D03*
%TD*%
%TO.C,S24*%
X185420000Y-28575000D03*
D13*
X186690000Y-26035000D03*
D14*
X190500000Y-28575000D03*
D13*
X193040000Y-23495000D03*
D12*
X195580000Y-28575000D03*
%TD*%
%TO.C,S61*%
X218757500Y-85725000D03*
D13*
X220027500Y-83185000D03*
D14*
X223837500Y-85725000D03*
D13*
X226377500Y-80645000D03*
D12*
X228917500Y-85725000D03*
%TD*%
%TO.C,S47*%
X85407500Y-66675000D03*
D13*
X86677500Y-64135000D03*
D14*
X90487500Y-66675000D03*
D13*
X93027500Y-61595000D03*
D12*
X95567500Y-66675000D03*
%TD*%
%TO.C,S41*%
X269398750Y-47625000D03*
D13*
X268128750Y-50165000D03*
D14*
X264318750Y-47625000D03*
D13*
X261778750Y-52705000D03*
D12*
X259238750Y-47625000D03*
%TD*%
%TO.C,S30*%
X37782500Y-47625000D03*
D13*
X39052500Y-45085000D03*
D14*
X42862500Y-47625000D03*
D13*
X45402500Y-42545000D03*
D12*
X47942500Y-47625000D03*
%TD*%
%TO.C,S28*%
X273843750Y-43180000D03*
D13*
X271303750Y-41910000D03*
D14*
X273843750Y-38100000D03*
D13*
X268763750Y-35560000D03*
D12*
X273843750Y-33020000D03*
%TD*%
%TO.C,S43*%
X26511250Y-66675000D03*
D13*
X25241250Y-69215000D03*
D14*
X21431250Y-66675000D03*
D13*
X18891250Y-71755000D03*
D12*
X16351250Y-66675000D03*
%TD*%
%TO.C,S33*%
X94932500Y-47625000D03*
D13*
X96202500Y-45085000D03*
D14*
X100012500Y-47625000D03*
D13*
X102552500Y-42545000D03*
D12*
X105092500Y-47625000D03*
%TD*%
%TO.C,S7*%
X118745000Y-9525000D03*
D13*
X120015000Y-6985000D03*
D14*
X123825000Y-9525000D03*
D13*
X126365000Y-4445000D03*
D12*
X128905000Y-9525000D03*
%TD*%
D10*
%TO.C,REF\u002A\u002A*%
X252380750Y-40640000D03*
D11*
X252380750Y-55850000D03*
D10*
X276256750Y-40640000D03*
D11*
X276256750Y-55850000D03*
%TD*%
D12*
%TO.C,S23*%
X166370000Y-28575000D03*
D13*
X167640000Y-26035000D03*
D14*
X171450000Y-28575000D03*
D13*
X173990000Y-23495000D03*
D12*
X176530000Y-28575000D03*
%TD*%
%TO.C,S26*%
X223520000Y-28575000D03*
D13*
X224790000Y-26035000D03*
D14*
X228600000Y-28575000D03*
D13*
X231140000Y-23495000D03*
D12*
X233680000Y-28575000D03*
%TD*%
%TO.C,S48*%
X104457500Y-66675000D03*
D13*
X105727500Y-64135000D03*
D14*
X109537500Y-66675000D03*
D13*
X112077500Y-61595000D03*
D12*
X114617500Y-66675000D03*
%TD*%
%TO.C,S50*%
X142557500Y-66675000D03*
D13*
X143827500Y-64135000D03*
D14*
X147637500Y-66675000D03*
D13*
X150177500Y-61595000D03*
D12*
X152717500Y-66675000D03*
%TD*%
%TO.C,S62*%
X242570000Y-85725000D03*
D13*
X243840000Y-83185000D03*
D14*
X247650000Y-85725000D03*
D13*
X250190000Y-80645000D03*
D12*
X252730000Y-85725000D03*
%TD*%
%TO.C,S55*%
X244951250Y-66675000D03*
D13*
X246221250Y-64135000D03*
D14*
X250031250Y-66675000D03*
D13*
X252571250Y-61595000D03*
D12*
X255111250Y-66675000D03*
%TD*%
%TO.C,S28*%
X271462500Y-23495000D03*
D13*
X274002500Y-24765000D03*
D14*
X271462500Y-28575000D03*
D13*
X276542500Y-31115000D03*
D12*
X271462500Y-33655000D03*
%TD*%
D10*
%TO.C,REF\u002A\u002A*%
X247618250Y-59690000D03*
D11*
X247618250Y-74900000D03*
D10*
X271494250Y-59690000D03*
D11*
X271494250Y-74900000D03*
%TD*%
D12*
%TO.C,S29*%
X16668750Y-42545000D03*
D13*
X19208750Y-43815000D03*
D14*
X16668750Y-47625000D03*
D13*
X21748750Y-50165000D03*
D12*
X16668750Y-52705000D03*
%TD*%
%TO.C,S36*%
X152082500Y-47625000D03*
D13*
X153352500Y-45085000D03*
D14*
X157162500Y-47625000D03*
D13*
X159702500Y-42545000D03*
D12*
X162242500Y-47625000D03*
%TD*%
D10*
%TO.C,REF\u002A\u002A*%
X254762000Y-2540000D03*
D11*
X254762000Y-17750000D03*
D10*
X278638000Y-2540000D03*
D11*
X278638000Y-17750000D03*
%TD*%
D12*
%TO.C,S53*%
X199707500Y-66675000D03*
D13*
X200977500Y-64135000D03*
D14*
X204787500Y-66675000D03*
D13*
X207327500Y-61595000D03*
D12*
X209867500Y-66675000D03*
%TD*%
%TO.C,S4*%
X61595000Y-9525000D03*
D13*
X62865000Y-6985000D03*
D14*
X66675000Y-9525000D03*
D13*
X69215000Y-4445000D03*
D12*
X71755000Y-9525000D03*
%TD*%
%TO.C,S11*%
X194945000Y-9525000D03*
D13*
X196215000Y-6985000D03*
D14*
X200025000Y-9525000D03*
D13*
X202565000Y-4445000D03*
D12*
X205105000Y-9525000D03*
%TD*%
%TO.C,S3*%
X42545000Y-9525000D03*
D13*
X43815000Y-6985000D03*
D14*
X47625000Y-9525000D03*
D13*
X50165000Y-4445000D03*
D12*
X52705000Y-9525000D03*
%TD*%
%TO.C,S37*%
X171132500Y-47625000D03*
D13*
X172402500Y-45085000D03*
D14*
X176212500Y-47625000D03*
D13*
X178752500Y-42545000D03*
D12*
X181292500Y-47625000D03*
%TD*%
%TO.C,S27*%
X242570000Y-28575000D03*
D13*
X243840000Y-26035000D03*
D14*
X247650000Y-28575000D03*
D13*
X250190000Y-23495000D03*
D12*
X252730000Y-28575000D03*
%TD*%
%TO.C,S13*%
X233045000Y-9525000D03*
D13*
X234315000Y-6985000D03*
D14*
X238125000Y-9525000D03*
D13*
X240665000Y-4445000D03*
D12*
X243205000Y-9525000D03*
%TD*%
%TO.C,S49*%
X123507500Y-66675000D03*
D13*
X124777500Y-64135000D03*
D14*
X128587500Y-66675000D03*
D13*
X131127500Y-61595000D03*
D12*
X133667500Y-66675000D03*
%TD*%
D10*
%TO.C,REF\u002A\u002A*%
X9493250Y-59690000D03*
D11*
X9493250Y-74900000D03*
D10*
X33369250Y-59690000D03*
D11*
X33369250Y-74900000D03*
%TD*%
D12*
%TO.C,S38*%
X190182500Y-47625000D03*
D13*
X191452500Y-45085000D03*
D14*
X195262500Y-47625000D03*
D13*
X197802500Y-42545000D03*
D12*
X200342500Y-47625000D03*
%TD*%
%TO.C,S5*%
X80645000Y-9525000D03*
D13*
X81915000Y-6985000D03*
D14*
X85725000Y-9525000D03*
D13*
X88265000Y-4445000D03*
D12*
X90805000Y-9525000D03*
%TD*%
%TO.C,S54*%
X218757500Y-66675000D03*
D13*
X220027500Y-64135000D03*
D14*
X223837500Y-66675000D03*
D13*
X226377500Y-61595000D03*
D12*
X228917500Y-66675000D03*
%TD*%
%TO.C,S41*%
X247332500Y-47625000D03*
D13*
X248602500Y-45085000D03*
D14*
X252412500Y-47625000D03*
D13*
X254952500Y-42545000D03*
D12*
X257492500Y-47625000D03*
%TD*%
%TO.C,S1*%
X14605000Y-9525000D03*
D13*
X13335000Y-12065000D03*
D14*
X9525000Y-9525000D03*
D13*
X6985000Y-14605000D03*
D12*
X4445000Y-9525000D03*
%TD*%
%TO.C,S39*%
X209232500Y-47625000D03*
D13*
X210502500Y-45085000D03*
D14*
X214312500Y-47625000D03*
D13*
X216852500Y-42545000D03*
D12*
X219392500Y-47625000D03*
%TD*%
%TO.C,S8*%
X137795000Y-9525000D03*
D13*
X139065000Y-6985000D03*
D14*
X142875000Y-9525000D03*
D13*
X145415000Y-4445000D03*
D12*
X147955000Y-9525000D03*
%TD*%
%TO.C,S9*%
X156845000Y-9525000D03*
D13*
X158115000Y-6985000D03*
D14*
X161925000Y-9525000D03*
D13*
X164465000Y-4445000D03*
D12*
X167005000Y-9525000D03*
%TD*%
%TO.C,S59*%
X56832500Y-85725000D03*
D13*
X58102500Y-83185000D03*
D14*
X61912500Y-85725000D03*
D13*
X64452500Y-80645000D03*
D12*
X66992500Y-85725000D03*
%TD*%
%TO.C,S32*%
X75882500Y-47625000D03*
D13*
X77152500Y-45085000D03*
D14*
X80962500Y-47625000D03*
D13*
X83502500Y-42545000D03*
D12*
X86042500Y-47625000D03*
%TD*%
%TO.C,S17*%
X52070000Y-28575000D03*
D13*
X53340000Y-26035000D03*
D14*
X57150000Y-28575000D03*
D13*
X59690000Y-23495000D03*
D12*
X62230000Y-28575000D03*
%TD*%
%TO.C,S2*%
X33655000Y-9525000D03*
D13*
X32385000Y-12065000D03*
D14*
X28575000Y-9525000D03*
D13*
X26035000Y-14605000D03*
D12*
X23495000Y-9525000D03*
%TD*%
%TO.C,S58*%
X33020000Y-85725000D03*
D13*
X34290000Y-83185000D03*
D14*
X38100000Y-85725000D03*
D13*
X40640000Y-80645000D03*
D12*
X43180000Y-85725000D03*
%TD*%
%TO.C,S14*%
X262255000Y-9525000D03*
D13*
X260985000Y-12065000D03*
D14*
X257175000Y-9525000D03*
D13*
X254635000Y-14605000D03*
D12*
X252095000Y-9525000D03*
%TD*%
%TO.C,S15*%
X9207500Y-28575000D03*
D13*
X10477500Y-26035000D03*
D14*
X14287500Y-28575000D03*
D13*
X16827500Y-23495000D03*
D12*
X19367500Y-28575000D03*
%TD*%
%TO.C,S51*%
X161607500Y-66675000D03*
D13*
X162877500Y-64135000D03*
D14*
X166687500Y-66675000D03*
D13*
X169227500Y-61595000D03*
D12*
X171767500Y-66675000D03*
%TD*%
%TO.C,S34*%
X113982500Y-47625000D03*
D13*
X115252500Y-45085000D03*
D14*
X119062500Y-47625000D03*
D13*
X121602500Y-42545000D03*
D12*
X124142500Y-47625000D03*
%TD*%
%TO.C,S40*%
X228282500Y-47625000D03*
D13*
X229552500Y-45085000D03*
D14*
X233362500Y-47625000D03*
D13*
X235902500Y-42545000D03*
D12*
X238442500Y-47625000D03*
%TD*%
%TO.C,S12*%
X213995000Y-9525000D03*
D13*
X215265000Y-6985000D03*
D14*
X219075000Y-9525000D03*
D13*
X221615000Y-4445000D03*
D12*
X224155000Y-9525000D03*
%TD*%
%TO.C,S57*%
X9207500Y-85725000D03*
D13*
X10477500Y-83185000D03*
D14*
X14287500Y-85725000D03*
D13*
X16827500Y-80645000D03*
D12*
X19367500Y-85725000D03*
%TD*%
%TO.C,S18*%
X71120000Y-28575000D03*
D13*
X72390000Y-26035000D03*
D14*
X76200000Y-28575000D03*
D13*
X78740000Y-23495000D03*
D12*
X81280000Y-28575000D03*
%TD*%
%TO.C,S35*%
X133032500Y-47625000D03*
D13*
X134302500Y-45085000D03*
D14*
X138112500Y-47625000D03*
D13*
X140652500Y-42545000D03*
D12*
X143192500Y-47625000D03*
%TD*%
%TO.C,S45*%
X47307500Y-66675000D03*
D13*
X48577500Y-64135000D03*
D14*
X52387500Y-66675000D03*
D13*
X54927500Y-61595000D03*
D12*
X57467500Y-66675000D03*
%TD*%
%TO.C,S21*%
X128270000Y-28575000D03*
D13*
X129540000Y-26035000D03*
D14*
X133350000Y-28575000D03*
D13*
X135890000Y-23495000D03*
D12*
X138430000Y-28575000D03*
%TD*%
%TO.C,S22*%
X147320000Y-28575000D03*
D13*
X148590000Y-26035000D03*
D14*
X152400000Y-28575000D03*
D13*
X154940000Y-23495000D03*
D12*
X157480000Y-28575000D03*
%TD*%
D10*
%TO.C,REF\u002A\u002A*%
X266858750Y-50038000D03*
D11*
X282068750Y-50038000D03*
D10*
X266858750Y-26162000D03*
D11*
X282068750Y-26162000D03*
%TD*%
D12*
%TO.C,S56*%
X271145000Y-66675000D03*
D13*
X272415000Y-64135000D03*
D14*
X276225000Y-66675000D03*
D13*
X278765000Y-61595000D03*
D12*
X281305000Y-66675000D03*
%TD*%
%TO.C,S42*%
X281305000Y-9525000D03*
D13*
X280035000Y-12065000D03*
D14*
X276225000Y-9525000D03*
D13*
X273685000Y-14605000D03*
D12*
X271145000Y-9525000D03*
%TD*%
%TO.C,S60*%
X137795000Y-85725000D03*
D13*
X139065000Y-83185000D03*
D14*
X142875000Y-85725000D03*
D13*
X145415000Y-80645000D03*
D12*
X147955000Y-85725000D03*
%TD*%
%TO.C,S46*%
X66357500Y-66675000D03*
D13*
X67627500Y-64135000D03*
D14*
X71437500Y-66675000D03*
D13*
X73977500Y-61595000D03*
D12*
X76517500Y-66675000D03*
%TD*%
%TO.C,S55*%
X264636250Y-66675000D03*
D13*
X263366250Y-69215000D03*
D14*
X259556250Y-66675000D03*
D13*
X257016250Y-71755000D03*
D12*
X254476250Y-66675000D03*
%TD*%
%TO.C,S19*%
X90170000Y-28575000D03*
D13*
X91440000Y-26035000D03*
D14*
X95250000Y-28575000D03*
D13*
X97790000Y-23495000D03*
D12*
X100330000Y-28575000D03*
%TD*%
%TO.C,S44*%
X28257500Y-66675000D03*
D13*
X29527500Y-64135000D03*
D14*
X33337500Y-66675000D03*
D13*
X35877500Y-61595000D03*
D12*
X38417500Y-66675000D03*
%TD*%
%TO.C,S20*%
X109220000Y-28575000D03*
D13*
X110490000Y-26035000D03*
D14*
X114300000Y-28575000D03*
D13*
X116840000Y-23495000D03*
D12*
X119380000Y-28575000D03*
%TD*%
%TO.C,S43*%
X6826250Y-66675000D03*
D13*
X8096250Y-64135000D03*
D14*
X11906250Y-66675000D03*
D13*
X14446250Y-61595000D03*
D12*
X16986250Y-66675000D03*
%TD*%
%TO.C,S6*%
X99695000Y-9525000D03*
D13*
X100965000Y-6985000D03*
D14*
X104775000Y-9525000D03*
D13*
X107315000Y-4445000D03*
D12*
X109855000Y-9525000D03*
%TD*%
%TO.C,S31*%
X56832500Y-47625000D03*
D13*
X58102500Y-45085000D03*
D14*
X61912500Y-47625000D03*
D13*
X64452500Y-42545000D03*
D12*
X66992500Y-47625000D03*
%TD*%
%TO.C,S25*%
X204470000Y-28575000D03*
D13*
X205740000Y-26035000D03*
D14*
X209550000Y-28575000D03*
D13*
X212090000Y-23495000D03*
D12*
X214630000Y-28575000D03*
%TD*%
D15*
%TO.C,J2*%
X95225000Y-82250000D03*
D16*
X97765000Y-82250000D03*
%TD*%
D17*
%TO.C,J1*%
X16160000Y-6280000D03*
X21940000Y-6280000D03*
D18*
X14730000Y-2600000D03*
D19*
X14730000Y-6780000D03*
D18*
X23370000Y-2600000D03*
D19*
X23370000Y-6780000D03*
%TD*%
M02*
