%TF.GenerationSoftware,KiCad,Pcbnew,8.0.4*%
%TF.CreationDate,2024-09-09T16:00:28+08:00*%
%TF.ProjectId,PH60_Rev3,50483630-5f52-4657-9633-2e6b69636164,rev?*%
%TF.SameCoordinates,PX1b40518PY1b40518*%
%TF.FileFunction,Soldermask,Bot*%
%TF.FilePolarity,Negative*%
%FSLAX46Y46*%
G04 Gerber Fmt 4.6, Leading zero omitted, Abs format (unit mm)*
G04 Created by KiCad (PCBNEW 8.0.4) date 2024-09-09 16:00:28*
%MOMM*%
%LPD*%
G01*
G04 APERTURE LIST*
G04 Aperture macros list*
%AMRoundRect*
0 Rectangle with rounded corners*
0 $1 Rounding radius*
0 $2 $3 $4 $5 $6 $7 $8 $9 X,Y pos of 4 corners*
0 Add a 4 corners polygon primitive as box body*
4,1,4,$2,$3,$4,$5,$6,$7,$8,$9,$2,$3,0*
0 Add four circle primitives for the rounded corners*
1,1,$1+$1,$2,$3*
1,1,$1+$1,$4,$5*
1,1,$1+$1,$6,$7*
1,1,$1+$1,$8,$9*
0 Add four rect primitives between the rounded corners*
20,1,$1+$1,$2,$3,$4,$5,0*
20,1,$1+$1,$4,$5,$6,$7,0*
20,1,$1+$1,$6,$7,$8,$9,0*
20,1,$1+$1,$8,$9,$2,$3,0*%
G04 Aperture macros list end*
%ADD10C,3.048000*%
%ADD11C,3.987800*%
%ADD12C,1.750000*%
%ADD13C,3.050000*%
%ADD14C,4.000000*%
%ADD15RoundRect,0.250000X-1.025000X-1.000000X1.025000X-1.000000X1.025000X1.000000X-1.025000X1.000000X0*%
%ADD16RoundRect,0.250000X1.000000X-1.025000X1.000000X1.025000X-1.000000X1.025000X-1.000000X-1.025000X0*%
%ADD17RoundRect,0.250000X1.025000X1.000000X-1.025000X1.000000X-1.025000X-1.000000X1.025000X-1.000000X0*%
%ADD18RoundRect,0.250000X-1.000000X1.025000X-1.000000X-1.025000X1.000000X-1.025000X1.000000X1.025000X0*%
%ADD19RoundRect,0.140000X-0.140000X-0.170000X0.140000X-0.170000X0.140000X0.170000X-0.140000X0.170000X0*%
%ADD20RoundRect,0.225000X0.375000X-0.225000X0.375000X0.225000X-0.375000X0.225000X-0.375000X-0.225000X0*%
%ADD21RoundRect,0.135000X-0.185000X0.135000X-0.185000X-0.135000X0.185000X-0.135000X0.185000X0.135000X0*%
%ADD22RoundRect,0.135000X-0.135000X-0.185000X0.135000X-0.185000X0.135000X0.185000X-0.135000X0.185000X0*%
%ADD23RoundRect,0.140000X0.140000X0.170000X-0.140000X0.170000X-0.140000X-0.170000X0.140000X-0.170000X0*%
%ADD24R,1.700000X1.700000*%
%ADD25O,1.700000X1.700000*%
%ADD26RoundRect,0.135000X0.135000X0.185000X-0.135000X0.185000X-0.135000X-0.185000X0.135000X-0.185000X0*%
%ADD27RoundRect,0.225000X-0.375000X0.225000X-0.375000X-0.225000X0.375000X-0.225000X0.375000X0.225000X0*%
%ADD28RoundRect,0.150000X0.650000X0.150000X-0.650000X0.150000X-0.650000X-0.150000X0.650000X-0.150000X0*%
%ADD29RoundRect,0.140000X0.170000X-0.140000X0.170000X0.140000X-0.170000X0.140000X-0.170000X-0.140000X0*%
%ADD30RoundRect,0.225000X0.225000X0.375000X-0.225000X0.375000X-0.225000X-0.375000X0.225000X-0.375000X0*%
%ADD31R,1.400000X1.200000*%
%ADD32RoundRect,0.375000X0.375000X-0.625000X0.375000X0.625000X-0.375000X0.625000X-0.375000X-0.625000X0*%
%ADD33RoundRect,0.500000X1.400000X-0.500000X1.400000X0.500000X-1.400000X0.500000X-1.400000X-0.500000X0*%
%ADD34RoundRect,0.140000X-0.170000X0.140000X-0.170000X-0.140000X0.170000X-0.140000X0.170000X0.140000X0*%
%ADD35C,0.650000*%
%ADD36RoundRect,0.150000X-0.150000X-0.425000X0.150000X-0.425000X0.150000X0.425000X-0.150000X0.425000X0*%
%ADD37RoundRect,0.075000X-0.075000X-0.500000X0.075000X-0.500000X0.075000X0.500000X-0.075000X0.500000X0*%
%ADD38O,1.000000X1.800000*%
%ADD39O,1.000000X2.100000*%
%ADD40RoundRect,0.050000X-0.050000X0.387500X-0.050000X-0.387500X0.050000X-0.387500X0.050000X0.387500X0*%
%ADD41RoundRect,0.050000X-0.387500X0.050000X-0.387500X-0.050000X0.387500X-0.050000X0.387500X0.050000X0*%
%ADD42R,3.200000X3.200000*%
G04 APERTURE END LIST*
D10*
%TO.C,REF\u002A\u002A*%
X200025000Y-92710000D03*
D11*
X200025000Y-77500000D03*
D10*
X85725000Y-92710000D03*
D11*
X85725000Y-77500000D03*
%TD*%
D12*
%TO.C,S52*%
X180657500Y-66675000D03*
D13*
X181927500Y-64135000D03*
D14*
X185737500Y-66675000D03*
D13*
X188277500Y-61595000D03*
D12*
X190817500Y-66675000D03*
D15*
X178652500Y-64135000D03*
X191579500Y-61595000D03*
%TD*%
D12*
%TO.C,S16*%
X33020000Y-28575000D03*
D13*
X34290000Y-26035000D03*
D14*
X38100000Y-28575000D03*
D13*
X40640000Y-23495000D03*
D12*
X43180000Y-28575000D03*
D15*
X31015000Y-26035000D03*
X43942000Y-23495000D03*
%TD*%
D12*
%TO.C,S29*%
X11906250Y-52705000D03*
D13*
X9366250Y-51435000D03*
D14*
X11906250Y-47625000D03*
D13*
X6826250Y-45085000D03*
D12*
X11906250Y-42545000D03*
D16*
X9366250Y-54710000D03*
X6826250Y-41783000D03*
%TD*%
D12*
%TO.C,S10*%
X175895000Y-9525000D03*
D13*
X177165000Y-6985000D03*
D14*
X180975000Y-9525000D03*
D13*
X183515000Y-4445000D03*
D12*
X186055000Y-9525000D03*
D15*
X173890000Y-6985000D03*
X186817000Y-4445000D03*
%TD*%
D12*
%TO.C,S14*%
X261620000Y-9525000D03*
D13*
X262890000Y-6985000D03*
D14*
X266700000Y-9525000D03*
D13*
X269240000Y-4445000D03*
D12*
X271780000Y-9525000D03*
D15*
X259615000Y-6985000D03*
X272542000Y-4445000D03*
%TD*%
D12*
%TO.C,S63*%
X266382500Y-85725000D03*
D13*
X267652500Y-83185000D03*
D14*
X271462500Y-85725000D03*
D13*
X274002500Y-80645000D03*
D12*
X276542500Y-85725000D03*
D15*
X264377500Y-83185000D03*
X277304500Y-80645000D03*
%TD*%
D12*
%TO.C,S24*%
X185420000Y-28575000D03*
D13*
X186690000Y-26035000D03*
D14*
X190500000Y-28575000D03*
D13*
X193040000Y-23495000D03*
D12*
X195580000Y-28575000D03*
D15*
X183415000Y-26035000D03*
X196342000Y-23495000D03*
%TD*%
D12*
%TO.C,S61*%
X218757500Y-85725000D03*
D13*
X220027500Y-83185000D03*
D14*
X223837500Y-85725000D03*
D13*
X226377500Y-80645000D03*
D12*
X228917500Y-85725000D03*
D15*
X216752500Y-83185000D03*
X229679500Y-80645000D03*
%TD*%
D12*
%TO.C,S47*%
X85407500Y-66675000D03*
D13*
X86677500Y-64135000D03*
D14*
X90487500Y-66675000D03*
D13*
X93027500Y-61595000D03*
D12*
X95567500Y-66675000D03*
D15*
X83402500Y-64135000D03*
X96329500Y-61595000D03*
%TD*%
D12*
%TO.C,S41*%
X269398750Y-47625000D03*
D13*
X268128750Y-50165000D03*
D14*
X264318750Y-47625000D03*
D13*
X261778750Y-52705000D03*
D12*
X259238750Y-47625000D03*
D17*
X271403750Y-50165000D03*
X258476750Y-52705000D03*
%TD*%
D12*
%TO.C,S30*%
X37782500Y-47625000D03*
D13*
X39052500Y-45085000D03*
D14*
X42862500Y-47625000D03*
D13*
X45402500Y-42545000D03*
D12*
X47942500Y-47625000D03*
D15*
X35777500Y-45085000D03*
X48704500Y-42545000D03*
%TD*%
D12*
%TO.C,S28*%
X273843750Y-43180000D03*
D13*
X271303750Y-41910000D03*
D14*
X273843750Y-38100000D03*
D13*
X268763750Y-35560000D03*
D12*
X273843750Y-33020000D03*
D16*
X271303750Y-45185000D03*
X268763750Y-32258000D03*
%TD*%
D12*
%TO.C,S43*%
X26511250Y-66675000D03*
D13*
X25241250Y-69215000D03*
D14*
X21431250Y-66675000D03*
D13*
X18891250Y-71755000D03*
D12*
X16351250Y-66675000D03*
D17*
X28516250Y-69215000D03*
X15589250Y-71755000D03*
%TD*%
D12*
%TO.C,S33*%
X94932500Y-47625000D03*
D13*
X96202500Y-45085000D03*
D14*
X100012500Y-47625000D03*
D13*
X102552500Y-42545000D03*
D12*
X105092500Y-47625000D03*
D15*
X92927500Y-45085000D03*
X105854500Y-42545000D03*
%TD*%
D12*
%TO.C,S7*%
X118745000Y-9525000D03*
D13*
X120015000Y-6985000D03*
D14*
X123825000Y-9525000D03*
D13*
X126365000Y-4445000D03*
D12*
X128905000Y-9525000D03*
D15*
X116740000Y-6985000D03*
X129667000Y-4445000D03*
%TD*%
D10*
%TO.C,REF\u002A\u002A*%
X252380750Y-40640000D03*
D11*
X252380750Y-55850000D03*
D10*
X276256750Y-40640000D03*
D11*
X276256750Y-55850000D03*
%TD*%
D12*
%TO.C,S23*%
X166370000Y-28575000D03*
D13*
X167640000Y-26035000D03*
D14*
X171450000Y-28575000D03*
D13*
X173990000Y-23495000D03*
D12*
X176530000Y-28575000D03*
D15*
X164365000Y-26035000D03*
X177292000Y-23495000D03*
%TD*%
D12*
%TO.C,S26*%
X223520000Y-28575000D03*
D13*
X224790000Y-26035000D03*
D14*
X228600000Y-28575000D03*
D13*
X231140000Y-23495000D03*
D12*
X233680000Y-28575000D03*
D15*
X221515000Y-26035000D03*
X234442000Y-23495000D03*
%TD*%
D12*
%TO.C,S48*%
X104457500Y-66675000D03*
D13*
X105727500Y-64135000D03*
D14*
X109537500Y-66675000D03*
D13*
X112077500Y-61595000D03*
D12*
X114617500Y-66675000D03*
D15*
X102452500Y-64135000D03*
X115379500Y-61595000D03*
%TD*%
D12*
%TO.C,S50*%
X142557500Y-66675000D03*
D13*
X143827500Y-64135000D03*
D14*
X147637500Y-66675000D03*
D13*
X150177500Y-61595000D03*
D12*
X152717500Y-66675000D03*
D15*
X140552500Y-64135000D03*
X153479500Y-61595000D03*
%TD*%
D12*
%TO.C,S62*%
X242570000Y-85725000D03*
D13*
X243840000Y-83185000D03*
D14*
X247650000Y-85725000D03*
D13*
X250190000Y-80645000D03*
D12*
X252730000Y-85725000D03*
D15*
X240565000Y-83185000D03*
X253492000Y-80645000D03*
%TD*%
D12*
%TO.C,S55*%
X244951250Y-66675000D03*
D13*
X246221250Y-64135000D03*
D14*
X250031250Y-66675000D03*
D13*
X252571250Y-61595000D03*
D12*
X255111250Y-66675000D03*
D15*
X242946250Y-64135000D03*
X255873250Y-61595000D03*
%TD*%
D12*
%TO.C,S28*%
X271462500Y-23495000D03*
D13*
X274002500Y-24765000D03*
D14*
X271462500Y-28575000D03*
D13*
X276542500Y-31115000D03*
D12*
X271462500Y-33655000D03*
D18*
X274002500Y-21490000D03*
X276542500Y-34417000D03*
%TD*%
D10*
%TO.C,REF\u002A\u002A*%
X247618250Y-59690000D03*
D11*
X247618250Y-74900000D03*
D10*
X271494250Y-59690000D03*
D11*
X271494250Y-74900000D03*
%TD*%
D12*
%TO.C,S29*%
X16668750Y-42545000D03*
D13*
X19208750Y-43815000D03*
D14*
X16668750Y-47625000D03*
D13*
X21748750Y-50165000D03*
D12*
X16668750Y-52705000D03*
D18*
X19208750Y-40540000D03*
X21748750Y-53467000D03*
%TD*%
D12*
%TO.C,S36*%
X152082500Y-47625000D03*
D13*
X153352500Y-45085000D03*
D14*
X157162500Y-47625000D03*
D13*
X159702500Y-42545000D03*
D12*
X162242500Y-47625000D03*
D15*
X150077500Y-45085000D03*
X163004500Y-42545000D03*
%TD*%
D10*
%TO.C,REF\u002A\u002A*%
X254762000Y-2540000D03*
D11*
X254762000Y-17750000D03*
D10*
X278638000Y-2540000D03*
D11*
X278638000Y-17750000D03*
%TD*%
D12*
%TO.C,S53*%
X199707500Y-66675000D03*
D13*
X200977500Y-64135000D03*
D14*
X204787500Y-66675000D03*
D13*
X207327500Y-61595000D03*
D12*
X209867500Y-66675000D03*
D15*
X197702500Y-64135000D03*
X210629500Y-61595000D03*
%TD*%
D12*
%TO.C,S4*%
X61595000Y-9525000D03*
D13*
X62865000Y-6985000D03*
D14*
X66675000Y-9525000D03*
D13*
X69215000Y-4445000D03*
D12*
X71755000Y-9525000D03*
D15*
X59590000Y-6985000D03*
X72517000Y-4445000D03*
%TD*%
D12*
%TO.C,S11*%
X194945000Y-9525000D03*
D13*
X196215000Y-6985000D03*
D14*
X200025000Y-9525000D03*
D13*
X202565000Y-4445000D03*
D12*
X205105000Y-9525000D03*
D15*
X192940000Y-6985000D03*
X205867000Y-4445000D03*
%TD*%
D12*
%TO.C,S3*%
X42545000Y-9525000D03*
D13*
X43815000Y-6985000D03*
D14*
X47625000Y-9525000D03*
D13*
X50165000Y-4445000D03*
D12*
X52705000Y-9525000D03*
D15*
X40540000Y-6985000D03*
X53467000Y-4445000D03*
%TD*%
D12*
%TO.C,S37*%
X171132500Y-47625000D03*
D13*
X172402500Y-45085000D03*
D14*
X176212500Y-47625000D03*
D13*
X178752500Y-42545000D03*
D12*
X181292500Y-47625000D03*
D15*
X169127500Y-45085000D03*
X182054500Y-42545000D03*
%TD*%
D12*
%TO.C,S27*%
X242570000Y-28575000D03*
D13*
X243840000Y-26035000D03*
D14*
X247650000Y-28575000D03*
D13*
X250190000Y-23495000D03*
D12*
X252730000Y-28575000D03*
D15*
X240565000Y-26035000D03*
X253492000Y-23495000D03*
%TD*%
D12*
%TO.C,S13*%
X233045000Y-9525000D03*
D13*
X234315000Y-6985000D03*
D14*
X238125000Y-9525000D03*
D13*
X240665000Y-4445000D03*
D12*
X243205000Y-9525000D03*
D15*
X231040000Y-6985000D03*
X243967000Y-4445000D03*
%TD*%
D12*
%TO.C,S49*%
X123507500Y-66675000D03*
D13*
X124777500Y-64135000D03*
D14*
X128587500Y-66675000D03*
D13*
X131127500Y-61595000D03*
D12*
X133667500Y-66675000D03*
D15*
X121502500Y-64135000D03*
X134429500Y-61595000D03*
%TD*%
D10*
%TO.C,REF\u002A\u002A*%
X9493250Y-59690000D03*
D11*
X9493250Y-74900000D03*
D10*
X33369250Y-59690000D03*
D11*
X33369250Y-74900000D03*
%TD*%
D12*
%TO.C,S38*%
X190182500Y-47625000D03*
D13*
X191452500Y-45085000D03*
D14*
X195262500Y-47625000D03*
D13*
X197802500Y-42545000D03*
D12*
X200342500Y-47625000D03*
D15*
X188177500Y-45085000D03*
X201104500Y-42545000D03*
%TD*%
D12*
%TO.C,S5*%
X80645000Y-9525000D03*
D13*
X81915000Y-6985000D03*
D14*
X85725000Y-9525000D03*
D13*
X88265000Y-4445000D03*
D12*
X90805000Y-9525000D03*
D15*
X78640000Y-6985000D03*
X91567000Y-4445000D03*
%TD*%
D12*
%TO.C,S54*%
X218757500Y-66675000D03*
D13*
X220027500Y-64135000D03*
D14*
X223837500Y-66675000D03*
D13*
X226377500Y-61595000D03*
D12*
X228917500Y-66675000D03*
D15*
X216752500Y-64135000D03*
X229679500Y-61595000D03*
%TD*%
D12*
%TO.C,S41*%
X247332500Y-47625000D03*
D13*
X248602500Y-45085000D03*
D14*
X252412500Y-47625000D03*
D13*
X254952500Y-42545000D03*
D12*
X257492500Y-47625000D03*
D15*
X245327500Y-45085000D03*
X258254500Y-42545000D03*
%TD*%
D12*
%TO.C,S1*%
X14605000Y-9525000D03*
D13*
X13335000Y-12065000D03*
D14*
X9525000Y-9525000D03*
D13*
X6985000Y-14605000D03*
D12*
X4445000Y-9525000D03*
D17*
X16610000Y-12065000D03*
X3683000Y-14605000D03*
%TD*%
D12*
%TO.C,S39*%
X209232500Y-47625000D03*
D13*
X210502500Y-45085000D03*
D14*
X214312500Y-47625000D03*
D13*
X216852500Y-42545000D03*
D12*
X219392500Y-47625000D03*
D15*
X207227500Y-45085000D03*
X220154500Y-42545000D03*
%TD*%
D12*
%TO.C,S8*%
X137795000Y-9525000D03*
D13*
X139065000Y-6985000D03*
D14*
X142875000Y-9525000D03*
D13*
X145415000Y-4445000D03*
D12*
X147955000Y-9525000D03*
D15*
X135790000Y-6985000D03*
X148717000Y-4445000D03*
%TD*%
D12*
%TO.C,S9*%
X156845000Y-9525000D03*
D13*
X158115000Y-6985000D03*
D14*
X161925000Y-9525000D03*
D13*
X164465000Y-4445000D03*
D12*
X167005000Y-9525000D03*
D15*
X154840000Y-6985000D03*
X167767000Y-4445000D03*
%TD*%
D12*
%TO.C,S59*%
X56832500Y-85725000D03*
D13*
X58102500Y-83185000D03*
D14*
X61912500Y-85725000D03*
D13*
X64452500Y-80645000D03*
D12*
X66992500Y-85725000D03*
D15*
X54827500Y-83185000D03*
X67754500Y-80645000D03*
%TD*%
D12*
%TO.C,S32*%
X75882500Y-47625000D03*
D13*
X77152500Y-45085000D03*
D14*
X80962500Y-47625000D03*
D13*
X83502500Y-42545000D03*
D12*
X86042500Y-47625000D03*
D15*
X73877500Y-45085000D03*
X86804500Y-42545000D03*
%TD*%
D12*
%TO.C,S17*%
X52070000Y-28575000D03*
D13*
X53340000Y-26035000D03*
D14*
X57150000Y-28575000D03*
D13*
X59690000Y-23495000D03*
D12*
X62230000Y-28575000D03*
D15*
X50065000Y-26035000D03*
X62992000Y-23495000D03*
%TD*%
D12*
%TO.C,S2*%
X33655000Y-9525000D03*
D13*
X32385000Y-12065000D03*
D14*
X28575000Y-9525000D03*
D13*
X26035000Y-14605000D03*
D12*
X23495000Y-9525000D03*
D17*
X35660000Y-12065000D03*
X22733000Y-14605000D03*
%TD*%
D12*
%TO.C,S58*%
X33020000Y-85725000D03*
D13*
X34290000Y-83185000D03*
D14*
X38100000Y-85725000D03*
D13*
X40640000Y-80645000D03*
D12*
X43180000Y-85725000D03*
D15*
X31015000Y-83185000D03*
X43942000Y-80645000D03*
%TD*%
D12*
%TO.C,S14*%
X262255000Y-9525000D03*
D13*
X260985000Y-12065000D03*
D14*
X257175000Y-9525000D03*
D13*
X254635000Y-14605000D03*
D12*
X252095000Y-9525000D03*
D17*
X264260000Y-12065000D03*
X251333000Y-14605000D03*
%TD*%
D12*
%TO.C,S15*%
X9207500Y-28575000D03*
D13*
X10477500Y-26035000D03*
D14*
X14287500Y-28575000D03*
D13*
X16827500Y-23495000D03*
D12*
X19367500Y-28575000D03*
D15*
X7202500Y-26035000D03*
X20129500Y-23495000D03*
%TD*%
D12*
%TO.C,S51*%
X161607500Y-66675000D03*
D13*
X162877500Y-64135000D03*
D14*
X166687500Y-66675000D03*
D13*
X169227500Y-61595000D03*
D12*
X171767500Y-66675000D03*
D15*
X159602500Y-64135000D03*
X172529500Y-61595000D03*
%TD*%
D12*
%TO.C,S34*%
X113982500Y-47625000D03*
D13*
X115252500Y-45085000D03*
D14*
X119062500Y-47625000D03*
D13*
X121602500Y-42545000D03*
D12*
X124142500Y-47625000D03*
D15*
X111977500Y-45085000D03*
X124904500Y-42545000D03*
%TD*%
D12*
%TO.C,S40*%
X228282500Y-47625000D03*
D13*
X229552500Y-45085000D03*
D14*
X233362500Y-47625000D03*
D13*
X235902500Y-42545000D03*
D12*
X238442500Y-47625000D03*
D15*
X226277500Y-45085000D03*
X239204500Y-42545000D03*
%TD*%
D12*
%TO.C,S12*%
X213995000Y-9525000D03*
D13*
X215265000Y-6985000D03*
D14*
X219075000Y-9525000D03*
D13*
X221615000Y-4445000D03*
D12*
X224155000Y-9525000D03*
D15*
X211990000Y-6985000D03*
X224917000Y-4445000D03*
%TD*%
D12*
%TO.C,S57*%
X9207500Y-85725000D03*
D13*
X10477500Y-83185000D03*
D14*
X14287500Y-85725000D03*
D13*
X16827500Y-80645000D03*
D12*
X19367500Y-85725000D03*
D15*
X7202500Y-83185000D03*
X20129500Y-80645000D03*
%TD*%
D12*
%TO.C,S18*%
X71120000Y-28575000D03*
D13*
X72390000Y-26035000D03*
D14*
X76200000Y-28575000D03*
D13*
X78740000Y-23495000D03*
D12*
X81280000Y-28575000D03*
D15*
X69115000Y-26035000D03*
X82042000Y-23495000D03*
%TD*%
D12*
%TO.C,S35*%
X133032500Y-47625000D03*
D13*
X134302500Y-45085000D03*
D14*
X138112500Y-47625000D03*
D13*
X140652500Y-42545000D03*
D12*
X143192500Y-47625000D03*
D15*
X131027500Y-45085000D03*
X143954500Y-42545000D03*
%TD*%
D12*
%TO.C,S45*%
X47307500Y-66675000D03*
D13*
X48577500Y-64135000D03*
D14*
X52387500Y-66675000D03*
D13*
X54927500Y-61595000D03*
D12*
X57467500Y-66675000D03*
D15*
X45302500Y-64135000D03*
X58229500Y-61595000D03*
%TD*%
D12*
%TO.C,S21*%
X128270000Y-28575000D03*
D13*
X129540000Y-26035000D03*
D14*
X133350000Y-28575000D03*
D13*
X135890000Y-23495000D03*
D12*
X138430000Y-28575000D03*
D15*
X126265000Y-26035000D03*
X139192000Y-23495000D03*
%TD*%
D12*
%TO.C,S22*%
X147320000Y-28575000D03*
D13*
X148590000Y-26035000D03*
D14*
X152400000Y-28575000D03*
D13*
X154940000Y-23495000D03*
D12*
X157480000Y-28575000D03*
D15*
X145315000Y-26035000D03*
X158242000Y-23495000D03*
%TD*%
D10*
%TO.C,REF\u002A\u002A*%
X266858750Y-50038000D03*
D11*
X282068750Y-50038000D03*
D10*
X266858750Y-26162000D03*
D11*
X282068750Y-26162000D03*
%TD*%
D12*
%TO.C,S56*%
X271145000Y-66675000D03*
D13*
X272415000Y-64135000D03*
D14*
X276225000Y-66675000D03*
D13*
X278765000Y-61595000D03*
D12*
X281305000Y-66675000D03*
D15*
X269140000Y-64135000D03*
X282067000Y-61595000D03*
%TD*%
D12*
%TO.C,S42*%
X281305000Y-9525000D03*
D13*
X280035000Y-12065000D03*
D14*
X276225000Y-9525000D03*
D13*
X273685000Y-14605000D03*
D12*
X271145000Y-9525000D03*
D17*
X283310000Y-12065000D03*
X270383000Y-14605000D03*
%TD*%
D12*
%TO.C,S60*%
X137795000Y-85725000D03*
D13*
X139065000Y-83185000D03*
D14*
X142875000Y-85725000D03*
D13*
X145415000Y-80645000D03*
D12*
X147955000Y-85725000D03*
D15*
X135790000Y-83185000D03*
X148717000Y-80645000D03*
%TD*%
D12*
%TO.C,S46*%
X66357500Y-66675000D03*
D13*
X67627500Y-64135000D03*
D14*
X71437500Y-66675000D03*
D13*
X73977500Y-61595000D03*
D12*
X76517500Y-66675000D03*
D15*
X64352500Y-64135000D03*
X77279500Y-61595000D03*
%TD*%
D12*
%TO.C,S55*%
X264636250Y-66675000D03*
D13*
X263366250Y-69215000D03*
D14*
X259556250Y-66675000D03*
D13*
X257016250Y-71755000D03*
D12*
X254476250Y-66675000D03*
D17*
X266641250Y-69215000D03*
X253714250Y-71755000D03*
%TD*%
D12*
%TO.C,S19*%
X90170000Y-28575000D03*
D13*
X91440000Y-26035000D03*
D14*
X95250000Y-28575000D03*
D13*
X97790000Y-23495000D03*
D12*
X100330000Y-28575000D03*
D15*
X88165000Y-26035000D03*
X101092000Y-23495000D03*
%TD*%
D12*
%TO.C,S44*%
X28257500Y-66675000D03*
D13*
X29527500Y-64135000D03*
D14*
X33337500Y-66675000D03*
D13*
X35877500Y-61595000D03*
D12*
X38417500Y-66675000D03*
D15*
X26252500Y-64135000D03*
X39179500Y-61595000D03*
%TD*%
D12*
%TO.C,S20*%
X109220000Y-28575000D03*
D13*
X110490000Y-26035000D03*
D14*
X114300000Y-28575000D03*
D13*
X116840000Y-23495000D03*
D12*
X119380000Y-28575000D03*
D15*
X107215000Y-26035000D03*
X120142000Y-23495000D03*
%TD*%
D12*
%TO.C,S43*%
X6826250Y-66675000D03*
D13*
X8096250Y-64135000D03*
D14*
X11906250Y-66675000D03*
D13*
X14446250Y-61595000D03*
D12*
X16986250Y-66675000D03*
D15*
X4821250Y-64135000D03*
X17748250Y-61595000D03*
%TD*%
D12*
%TO.C,S6*%
X99695000Y-9525000D03*
D13*
X100965000Y-6985000D03*
D14*
X104775000Y-9525000D03*
D13*
X107315000Y-4445000D03*
D12*
X109855000Y-9525000D03*
D15*
X97690000Y-6985000D03*
X110617000Y-4445000D03*
%TD*%
D12*
%TO.C,S31*%
X56832500Y-47625000D03*
D13*
X58102500Y-45085000D03*
D14*
X61912500Y-47625000D03*
D13*
X64452500Y-42545000D03*
D12*
X66992500Y-47625000D03*
D15*
X54827500Y-45085000D03*
X67754500Y-42545000D03*
%TD*%
D12*
%TO.C,S25*%
X204470000Y-28575000D03*
D13*
X205740000Y-26035000D03*
D14*
X209550000Y-28575000D03*
D13*
X212090000Y-23495000D03*
D12*
X214630000Y-28575000D03*
D15*
X202465000Y-26035000D03*
X215392000Y-23495000D03*
%TD*%
D19*
%TO.C,C1*%
X89132500Y-89900000D03*
X90092500Y-89900000D03*
%TD*%
D20*
%TO.C,D40*%
X228282500Y-52805000D03*
X228282500Y-49505000D03*
%TD*%
%TO.C,D57*%
X9207500Y-90905000D03*
X9207500Y-87605000D03*
%TD*%
D21*
%TO.C,R6*%
X17800000Y-8945000D03*
X17800000Y-9965000D03*
%TD*%
D20*
%TO.C,D12*%
X213995000Y-14705000D03*
X213995000Y-11405000D03*
%TD*%
%TO.C,D37*%
X171132500Y-52805000D03*
X171132500Y-49505000D03*
%TD*%
%TO.C,D22*%
X147320000Y-33755000D03*
X147320000Y-30455000D03*
%TD*%
%TO.C,D25*%
X204470000Y-33755000D03*
X204470000Y-30455000D03*
%TD*%
%TO.C,D16*%
X33020000Y-33755000D03*
X33020000Y-30455000D03*
%TD*%
%TO.C,D63*%
X266382500Y-90905000D03*
X266382500Y-87605000D03*
%TD*%
D19*
%TO.C,C6*%
X127152500Y-91300000D03*
X128112500Y-91300000D03*
%TD*%
D22*
%TO.C,R3*%
X113115000Y-88700000D03*
X114135000Y-88700000D03*
%TD*%
D19*
%TO.C,C13*%
X117770000Y-92400000D03*
X118730000Y-92400000D03*
%TD*%
D20*
%TO.C,D24*%
X185420000Y-33755000D03*
X185420000Y-30455000D03*
%TD*%
%TO.C,D21*%
X128270000Y-33755000D03*
X128270000Y-30455000D03*
%TD*%
%TO.C,D44*%
X38417500Y-71855000D03*
X38417500Y-68555000D03*
%TD*%
%TO.C,D23*%
X166370000Y-33755000D03*
X166370000Y-30455000D03*
%TD*%
%TO.C,D42*%
X283310000Y-20365000D03*
X283310000Y-17065000D03*
%TD*%
%TO.C,D36*%
X152082500Y-52805000D03*
X152082500Y-49505000D03*
%TD*%
%TO.C,D29*%
X28750000Y-49900000D03*
X28750000Y-46600000D03*
%TD*%
D22*
%TO.C,R4*%
X113115000Y-89700000D03*
X114135000Y-89700000D03*
%TD*%
D23*
%TO.C,C8*%
X114105000Y-90700000D03*
X113145000Y-90700000D03*
%TD*%
D19*
%TO.C,C9*%
X127152500Y-90300000D03*
X128112500Y-90300000D03*
%TD*%
D24*
%TO.C,J2*%
X95225000Y-82250000D03*
D25*
X97765000Y-82250000D03*
%TD*%
D26*
%TO.C,R1*%
X113622500Y-80610000D03*
X112602500Y-80610000D03*
%TD*%
D20*
%TO.C,D46*%
X66357500Y-71855000D03*
X66357500Y-68555000D03*
%TD*%
%TO.C,D50*%
X142557500Y-71855000D03*
X142557500Y-68555000D03*
%TD*%
D27*
%TO.C,D2*%
X33655000Y-4345000D03*
X33655000Y-7645000D03*
%TD*%
D20*
%TO.C,D38*%
X190182500Y-52805000D03*
X190182500Y-49505000D03*
%TD*%
D27*
%TO.C,D1*%
X4445000Y-4345000D03*
X4445000Y-7645000D03*
%TD*%
D28*
%TO.C,U2*%
X110250000Y-80610000D03*
X110250000Y-81880000D03*
X110250000Y-83150000D03*
X110250000Y-84420000D03*
X103050000Y-84420000D03*
X103050000Y-83150000D03*
X103050000Y-81880000D03*
X103050000Y-80610000D03*
%TD*%
D20*
%TO.C,D26*%
X223520000Y-33755000D03*
X223520000Y-30455000D03*
%TD*%
%TO.C,D56*%
X281305000Y-71855000D03*
X281305000Y-68555000D03*
%TD*%
%TO.C,D58*%
X33020000Y-90905000D03*
X33020000Y-87605000D03*
%TD*%
D23*
%TO.C,C7*%
X113592500Y-86900000D03*
X112632500Y-86900000D03*
%TD*%
D20*
%TO.C,D49*%
X123507500Y-71855000D03*
X123507500Y-68555000D03*
%TD*%
%TO.C,D61*%
X218757500Y-90905000D03*
X218757500Y-87605000D03*
%TD*%
D29*
%TO.C,C5*%
X121300000Y-82380000D03*
X121300000Y-81420000D03*
%TD*%
D19*
%TO.C,C2*%
X129020000Y-85050000D03*
X129980000Y-85050000D03*
%TD*%
D20*
%TO.C,D17*%
X52070000Y-33755000D03*
X52070000Y-30455000D03*
%TD*%
D30*
%TO.C,D43*%
X31816250Y-72215000D03*
X28516250Y-72215000D03*
%TD*%
D31*
%TO.C,Y1*%
X130600000Y-88150000D03*
X128400000Y-88150000D03*
X128400000Y-86450000D03*
X130600000Y-86450000D03*
%TD*%
D32*
%TO.C,U1*%
X91912500Y-88050000D03*
X89612500Y-88050000D03*
X87312500Y-88050000D03*
D33*
X89612500Y-81750000D03*
%TD*%
D20*
%TO.C,D10*%
X175895000Y-14705000D03*
X175895000Y-11405000D03*
%TD*%
%TO.C,D52*%
X180657500Y-71855000D03*
X180657500Y-68555000D03*
%TD*%
%TO.C,D13*%
X233045000Y-14705000D03*
X233045000Y-11405000D03*
%TD*%
%TO.C,D18*%
X71120000Y-33755000D03*
X71120000Y-30455000D03*
%TD*%
D30*
%TO.C,D28*%
X279023750Y-43680000D03*
X275723750Y-43680000D03*
%TD*%
D20*
%TO.C,D60*%
X137795000Y-90905000D03*
X137795000Y-87605000D03*
%TD*%
%TO.C,D33*%
X94932500Y-52805000D03*
X94932500Y-49505000D03*
%TD*%
%TO.C,D20*%
X109220000Y-33755000D03*
X109220000Y-30455000D03*
%TD*%
D23*
%TO.C,C14*%
X101030000Y-80610000D03*
X100070000Y-80610000D03*
%TD*%
D20*
%TO.C,D19*%
X90170000Y-33755000D03*
X90170000Y-30455000D03*
%TD*%
%TO.C,D32*%
X75882500Y-52805000D03*
X75882500Y-49505000D03*
%TD*%
%TO.C,D27*%
X242570000Y-33755000D03*
X242570000Y-30455000D03*
%TD*%
D34*
%TO.C,C11*%
X115250000Y-91700000D03*
X115250000Y-92660000D03*
%TD*%
D20*
%TO.C,D15*%
X9207500Y-33755000D03*
X9207500Y-30455000D03*
%TD*%
%TO.C,D45*%
X47307500Y-71855000D03*
X47307500Y-68555000D03*
%TD*%
%TO.C,D6*%
X99695000Y-14705000D03*
X99695000Y-11405000D03*
%TD*%
D21*
%TO.C,R7*%
X20800000Y-8945000D03*
X20800000Y-9965000D03*
%TD*%
D20*
%TO.C,D59*%
X56832500Y-90905000D03*
X56832500Y-87605000D03*
%TD*%
%TO.C,D35*%
X133032500Y-52805000D03*
X133032500Y-49505000D03*
%TD*%
%TO.C,D3*%
X42545000Y-14705000D03*
X42545000Y-11405000D03*
%TD*%
%TO.C,D9*%
X156845000Y-14705000D03*
X156845000Y-11405000D03*
%TD*%
D29*
%TO.C,C12*%
X116612500Y-82630000D03*
X116612500Y-81670000D03*
%TD*%
D20*
%TO.C,D39*%
X209232500Y-52805000D03*
X209232500Y-49505000D03*
%TD*%
D29*
%TO.C,C3*%
X132150000Y-87780000D03*
X132150000Y-86820000D03*
%TD*%
D34*
%TO.C,C4*%
X93862500Y-87090000D03*
X93862500Y-88050000D03*
%TD*%
D23*
%TO.C,C16*%
X120730000Y-92400000D03*
X119770000Y-92400000D03*
%TD*%
D20*
%TO.C,D48*%
X104457500Y-71855000D03*
X104457500Y-68555000D03*
%TD*%
%TO.C,D31*%
X56832500Y-52805000D03*
X56832500Y-49505000D03*
%TD*%
%TO.C,D5*%
X80645000Y-14705000D03*
X80645000Y-11405000D03*
%TD*%
%TO.C,D8*%
X137795000Y-14705000D03*
X137795000Y-11405000D03*
%TD*%
D35*
%TO.C,J1*%
X16160000Y-6280000D03*
X21940000Y-6280000D03*
D36*
X15850000Y-7355000D03*
X16650000Y-7355000D03*
D37*
X17800000Y-7355000D03*
X18800000Y-7355000D03*
X19300000Y-7355000D03*
X20300000Y-7355000D03*
D36*
X21450000Y-7355000D03*
X22250000Y-7355000D03*
X22250000Y-7355000D03*
X21450000Y-7355000D03*
D37*
X20800000Y-7355000D03*
X19800000Y-7355000D03*
X18300000Y-7355000D03*
X17300000Y-7355000D03*
D36*
X16650000Y-7355000D03*
X15850000Y-7355000D03*
D38*
X14730000Y-2600000D03*
D39*
X14730000Y-6780000D03*
D38*
X23370000Y-2600000D03*
D39*
X23370000Y-6780000D03*
%TD*%
D23*
%TO.C,C15*%
X110592500Y-87900000D03*
X109632500Y-87900000D03*
%TD*%
D20*
%TO.C,D11*%
X194945000Y-14705000D03*
X194945000Y-11405000D03*
%TD*%
%TO.C,D51*%
X161607500Y-71855000D03*
X161607500Y-68555000D03*
%TD*%
%TO.C,D53*%
X199707500Y-71855000D03*
X199707500Y-68555000D03*
%TD*%
%TO.C,D41*%
X247332500Y-52805000D03*
X247332500Y-49505000D03*
%TD*%
%TO.C,D30*%
X37782500Y-52805000D03*
X37782500Y-49505000D03*
%TD*%
D40*
%TO.C,U3*%
X117462500Y-84262500D03*
X117862500Y-84262500D03*
X118262500Y-84262500D03*
X118662500Y-84262500D03*
X119062500Y-84262500D03*
X119462500Y-84262500D03*
X119862500Y-84262500D03*
X120262500Y-84262500D03*
X120662500Y-84262500D03*
X121062500Y-84262500D03*
X121462500Y-84262500D03*
X121862500Y-84262500D03*
X122262500Y-84262500D03*
X122662500Y-84262500D03*
D41*
X123500000Y-85100000D03*
X123500000Y-85500000D03*
X123500000Y-85900000D03*
X123500000Y-86300000D03*
X123500000Y-86700000D03*
X123500000Y-87100000D03*
X123500000Y-87500000D03*
X123500000Y-87900000D03*
X123500000Y-88300000D03*
X123500000Y-88700000D03*
X123500000Y-89100000D03*
X123500000Y-89500000D03*
X123500000Y-89900000D03*
X123500000Y-90300000D03*
D40*
X122662500Y-91137500D03*
X122262500Y-91137500D03*
X121862500Y-91137500D03*
X121462500Y-91137500D03*
X121062500Y-91137500D03*
X120662500Y-91137500D03*
X120262500Y-91137500D03*
X119862500Y-91137500D03*
X119462500Y-91137500D03*
X119062500Y-91137500D03*
X118662500Y-91137500D03*
X118262500Y-91137500D03*
X117862500Y-91137500D03*
X117462500Y-91137500D03*
D41*
X116625000Y-90300000D03*
X116625000Y-89900000D03*
X116625000Y-89500000D03*
X116625000Y-89100000D03*
X116625000Y-88700000D03*
X116625000Y-88300000D03*
X116625000Y-87900000D03*
X116625000Y-87500000D03*
X116625000Y-87100000D03*
X116625000Y-86700000D03*
X116625000Y-86300000D03*
X116625000Y-85900000D03*
X116625000Y-85500000D03*
X116625000Y-85100000D03*
D42*
X120062500Y-87700000D03*
%TD*%
D20*
%TO.C,D47*%
X85407500Y-71855000D03*
X85407500Y-68555000D03*
%TD*%
%TO.C,D7*%
X118745000Y-14705000D03*
X118745000Y-11405000D03*
%TD*%
D26*
%TO.C,R5*%
X130010000Y-89550000D03*
X128990000Y-89550000D03*
%TD*%
D20*
%TO.C,D54*%
X218757500Y-71855000D03*
X218757500Y-68555000D03*
%TD*%
D27*
%TO.C,D14*%
X252095000Y-4345000D03*
X252095000Y-7645000D03*
%TD*%
D20*
%TO.C,D34*%
X113982500Y-52805000D03*
X113982500Y-49505000D03*
%TD*%
%TO.C,D55*%
X244951250Y-71855000D03*
X244951250Y-68555000D03*
%TD*%
%TO.C,D62*%
X242570000Y-90905000D03*
X242570000Y-87605000D03*
%TD*%
%TO.C,D4*%
X61595000Y-14705000D03*
X61595000Y-11405000D03*
%TD*%
D23*
%TO.C,C10*%
X114105000Y-91700000D03*
X113145000Y-91700000D03*
%TD*%
M02*
